<?xml version="1.0" encoding="UTF-8" standalone="no"?>
<svg
   xmlns:dc="http://purl.org/dc/elements/1.1/"
   xmlns:cc="http://creativecommons.org/ns#"
   xmlns:rdf="http://www.w3.org/1999/02/22-rdf-syntax-ns#"
   xmlns:svg="http://www.w3.org/2000/svg"
   xmlns="http://www.w3.org/2000/svg"
   viewBox="0 0 77.333336 77.333336"
   height="77.333336"
   width="77.333336"
   xml:space="preserve"
   id="svg2"
   version="1.1"><metadata
     id="metadata8"><rdf:RDF><cc:Work
         rdf:about=""><dc:format>image/svg+xml</dc:format><dc:type
           rdf:resource="http://purl.org/dc/dcmitype/StillImage" /></cc:Work></rdf:RDF></metadata><defs
     id="defs6"><clipPath
       id="clipPath18"
       clipPathUnits="userSpaceOnUse"><path
         id="path16"
         d="M 0,58 H 58 V 0 H 0 Z" /></clipPath><clipPath
       id="clipPath30"
       clipPathUnits="userSpaceOnUse"><path
         id="path28"
         d="M 0,57.8402 H 58 V 0 H 0 Z" /></clipPath><clipPath
       id="clipPath46"
       clipPathUnits="userSpaceOnUse"><path
         id="path44"
         d="M 6.25153,53.0118 H 26.7014 V 35.4803 H 6.25153 Z" /></clipPath></defs><g
     transform="matrix(1.3333333,0,0,-1.3333333,0,77.333333)"
     id="g10"><g
       id="g12"><g
         clip-path="url(#clipPath18)"
         id="g14"><g
           transform="translate(58.0004,29.0001)"
           id="g20"><path
             id="path22"
             style="fill:#f9b315;fill-opacity:1;fill-rule:evenodd;stroke:none"
             d="m 0,0 c 0,-16.016 -12.984,-29 -29,-29 -16.017,0 -29,12.984 -29,29 0,16.016 12.983,29 29,29 C -12.984,29 0,16.016 0,0" /></g><g
           id="g24"><g
             id="g26" /><g
             id="g38"><g
               style="opacity:0.14999402"
               id="g36"
               clip-path="url(#clipPath30)"><g
                 id="g34"
                 transform="translate(32.0532,57.8404)"><path
                   id="path32"
                   style="fill:#000000;fill-opacity:1;fill-rule:evenodd;stroke:none"
                   d="m 0,0 c 10.981,-2.871 19.084,-12.858 19.084,-24.738 0,-14.121 -11.447,-25.569 -25.568,-25.569 -13.451,0 -24.475,10.386 -25.493,23.576 -0.049,-0.697 -0.076,-1.4 -0.076,-2.109 0,-16.016 12.984,-29 29,-29 16.016,0 29,12.984 29,29 C 25.947,-13.855 14.581,-1.526 0,0" /></g></g></g></g><g
           id="g40"><g
             id="g42" /><g
             id="g54"><g
               style="opacity:0.5"
               id="g52"
               clip-path="url(#clipPath46)"><g
                 id="g50"
                 transform="translate(8.2963,35.48)"><path
                   id="path48"
                   style="fill:#ffffff;fill-opacity:1;fill-rule:nonzero;stroke:none"
                   d="m 0,0 c -0.261,0 -0.525,0.05 -0.78,0.156 -1.044,0.431 -1.541,1.627 -1.109,2.671 3.14,7.596 9.814,13.079 17.853,14.666 1.107,0.218 2.183,-0.502 2.402,-1.61 0.219,-1.109 -0.502,-2.184 -1.61,-2.403 C 10.063,12.159 4.506,7.593 1.891,1.265 1.564,0.477 0.803,0 0,0" /></g></g></g></g></g></g></g></svg>