<?xml version="1.0" encoding="UTF-8" standalone="no"?>
<svg
   xmlns:dc="http://purl.org/dc/elements/1.1/"
   xmlns:cc="http://creativecommons.org/ns#"
   xmlns:rdf="http://www.w3.org/1999/02/22-rdf-syntax-ns#"
   xmlns:svg="http://www.w3.org/2000/svg"
   xmlns="http://www.w3.org/2000/svg"
   viewBox="0 0 529.73468 455.34933"
   height="455.34933"
   width="529.73468"
   xml:space="preserve"
   id="svg2"
   version="1.1"><metadata
     id="metadata8"><rdf:RDF><cc:Work
         rdf:about=""><dc:format>image/svg+xml</dc:format><dc:type
           rdf:resource="http://purl.org/dc/dcmitype/StillImage" /></cc:Work></rdf:RDF></metadata><defs
     id="defs6"><clipPath
       id="clipPath18"
       clipPathUnits="userSpaceOnUse"><path
         id="path16"
         d="M 0,341.512 H 397.301 V 0 H 0 Z" /></clipPath></defs><g
     transform="matrix(1.3333333,0,0,-1.3333333,0,455.34933)"
     id="g10"><g
       id="g12"><g
         clip-path="url(#clipPath18)"
         id="g14"><g
           transform="translate(113.4961,35.6953)"
           id="g20"><path
             id="path22"
             style="fill:#000000;fill-opacity:1;fill-rule:nonzero;stroke:none"
             d="m 0,0 c -9.402,-7.23 -21.023,-11.707 -33.773,-11.707 -30.727,0 -55.735,25.004 -55.735,55.733 0,30.736 25.008,55.744 55.735,55.744 7.838,0 15.296,-1.634 22.064,-4.571 L -33.943,60.39 c -7.789,-0.172 -14.053,-6.529 -14.053,-14.359 0,-7.939 6.436,-14.375 14.375,-14.375 7.939,0 14.375,6.436 14.375,14.375 0,2.048 -0.435,3.991 -1.207,5.755 L 1.9,86.782 C 8.753,81.041 14.216,73.69 17.695,65.313 l 17.454,18.101 c -5.221,9.113 -12.15,17.121 -20.356,23.553 l 2.787,4.363 -13.485,8.613 -2.825,-4.424 c -10.545,5.262 -22.421,8.239 -35.043,8.239 -44.035,0 -79.723,-35.695 -79.723,-79.732 0,-44.026 35.688,-79.721 79.723,-79.721 20.718,0 39.414,8.096 53.593,21.057 C 14.379,-12.81 9.215,-9.91 4.805,-5.664 2.984,-3.906 1.414,-1.984 0,0" /></g><g
           transform="translate(324.105,267.7499)"
           id="g24"><path
             id="path26"
             style="fill:#000000;fill-opacity:1;fill-rule:nonzero;stroke:none"
             d="m 0,0 c 18.692,11.703 24.352,36.336 12.653,55.015 -11.696,18.696 -36.328,24.356 -55.016,12.657 -18.68,-11.7 -24.34,-36.321 -12.648,-55 C -43.316,-6.024 -18.683,-11.692 0,0" /></g><g
           transform="translate(317.5781,23.9882)"
           id="g28"><path
             id="path30"
             style="fill:#000000;fill-opacity:1;fill-rule:nonzero;stroke:none"
             d="m 0,0 c -30.73,0 -55.734,25.004 -55.734,55.733 0,22.281 13.147,41.542 32.081,50.458 l 13.429,-39.092 c -2.163,-2.516 -3.479,-5.782 -3.479,-9.361 0,-7.939 6.436,-14.375 14.375,-14.375 7.939,0 14.375,6.436 14.375,14.375 0,6.345 -4.115,11.718 -9.818,13.625 l -13.564,39.488 c 2.72,0.41 5.502,0.626 8.335,0.626 30.731,0 55.734,-25.008 55.734,-55.744 C 55.734,25.004 30.731,0 0,0 m 0,135.465 c -5.568,0 -10.992,-0.575 -16.219,-1.666 l -2.47,7.19 c 8.982,-1.46 15.539,-2.481 16.306,-2.481 9.598,0 18.075,6.936 19.696,16.722 1.812,10.891 -5.551,21.184 -16.446,22.989 l -54.39,9.035 2.586,25.957 c 2.605,16.586 3.738,21.785 -2.453,31.68 l -7.786,12.449 c -10.058,16.062 -31.269,20.976 -47.371,10.894 l -85.211,-53.351 c -20.929,-13.106 -31.136,-40.735 -14.05,-61.059 6.675,-7.941 71.578,-47.824 71.578,-47.824 l -52.563,-54.523 c -9.199,-9.537 -8.926,-24.723 0.617,-33.915 4.653,-4.488 10.653,-6.722 16.649,-6.722 6.285,0 12.566,2.449 17.265,7.34 l 76.454,79.285 c 10.785,11.16 8.253,29.565 -5.215,37.39 l -42.219,24.52 c 18.828,11.781 11.848,7.418 30.676,19.203 l -0.594,-5.996 c -1.016,-10.207 6.508,-19.552 15.977,-21.47 0.123,-0.025 22.128,-3.767 42.561,-7.167 l 5.152,-15 c -28.547,-12.398 -48.253,-41.038 -48.253,-73.212 0,-44.026 35.688,-79.721 79.723,-79.721 44.027,0 79.723,35.695 79.723,79.721 0,44.037 -35.696,79.732 -79.723,79.732" /></g></g></g></g></svg>