<?xml version="1.0" encoding="utf-8"?>
<svg version="1.1" id="delete" xmlns="http://www.w3.org/2000/svg" xmlns:xlink="http://www.w3.org/1999/xlink" x="0px" y="0px"
	 viewBox="0 0 46.8 47" style="enable-background:new 0 0 46.8 47;" xml:space="preserve">
	<path fill="#333745" d="M44.5,9.1L30.5,23l13.9,14c2.1,2.1,2.1,5.4,0,7.5c-1,1-2.4,1.6-3.8,1.6c-1.4,0-2.7-0.5-3.8-1.6l-14-14l-14,14
		c-1,1-2.4,1.6-3.8,1.6c-1.4,0-2.7-0.5-3.8-1.6c-2.1-2.1-2.1-5.4,0-7.5l13.9-14L1.6,9.1c-2.1-2.1-2.1-5.4,0-7.5
		c2.1-2.1,5.4-2.1,7.5,0l14,14l14-14c2.1-2.1,5.4-2.1,7.5,0C46.6,3.6,46.6,7,44.5,9.1L44.5,9.1z M44.5,9.1"/>
</svg>
