<?xml version="1.0" encoding="UTF-8" standalone="no"?>
<svg
   xmlns:dc="http://purl.org/dc/elements/1.1/"
   xmlns:cc="http://creativecommons.org/ns#"
   xmlns:rdf="http://www.w3.org/1999/02/22-rdf-syntax-ns#"
   xmlns:svg="http://www.w3.org/2000/svg"
   xmlns="http://www.w3.org/2000/svg"
   viewBox="0 0 150.66667 89.333336"
   height="89.333336"
   width="150.66667"
   xml:space="preserve"
   id="svg2"
   version="1.1"><metadata
     id="metadata8"><rdf:RDF><cc:Work
         rdf:about=""><dc:format>image/svg+xml</dc:format><dc:type
           rdf:resource="http://purl.org/dc/dcmitype/StillImage" /></cc:Work></rdf:RDF></metadata><defs
     id="defs6"><clipPath
       id="clipPath20"
       clipPathUnits="userSpaceOnUse"><path
         id="path18"
         d="m 0,7.35156 h 1130 v 660 H 0 Z" /></clipPath></defs><g
     transform="matrix(1.3333333,0,0,-1.3333333,0,89.333333)"
     id="g10"><g
       transform="scale(0.1)"
       id="g12"><g
         id="g14"><g
           clip-path="url(#clipPath20)"
           id="g16"><path
             id="path22"
             style="fill:#000000;fill-opacity:1;fill-rule:nonzero;stroke:none"
             d="m 1049.73,202.512 c -34.03,31.797 -89.929,50.429 -116.25,75.617 -26.289,25.242 -58.089,21.961 -57,48.25 1.098,26.32 -20.859,73.473 -20.859,73.473 40.59,28.519 74.578,-44.961 102,-52.622 27.379,-7.691 46.049,28.481 46.049,28.481 h -15.35 l -30.699,46.059 c 0,0 54.799,-30.711 105.229,-13.168 50.43,17.539 -15.35,38.398 -31.8,65.777 -16.44,27.43 -65.78,77.851 -65.78,77.851 0,0 -5.469,26.329 -13.161,49.34 -7.66,23.051 16.442,82.231 -4.379,61.41 -19.371,-19.378 -20.742,-51.058 -20.82,-55.39 1.762,24.101 -25.23,58.629 -25.23,48.82 0,-9.879 13.16,-18.672 -1.09,-34.019 -14.262,-15.352 -28.52,-63.59 -28.52,-63.59 C 780,547.859 794.219,493.02 708.711,508.371 623.199,523.762 590.309,487.59 562.852,494.148 c -27.422,6.563 -100.821,21.911 -151.25,21.911 -50.43,0 -61.403,14.261 -61.403,14.261 -78.949,120.629 -143.64,21.95 -143.64,21.95 0,0 57.031,21.921 85.511,-30.7 28.52,-52.66 -54.8,-47.148 -61.41,-120.621 -6.558,-73.48 -59.18,-101.961 -80.039,-88.789 -20.82,13.16 -38.351,23 -40.543,12.07 C 107.891,313.25 71.6797,283.641 36.6016,268.289 1.51953,252.941 -8.35938,202.512 6.98828,204.699 c 15.35152,2.18 38.40232,9.879 38.40232,9.879 -6.5625,-14.258 -6.5625,-73.476 18.6289,-27.418 25.2422,46.051 111.8395,83.32 168.8715,65.781 56.988,-17.543 83.32,35.079 110.699,58.118 27.43,23.011 83.359,83.32 186.41,4.382 103.051,-78.953 142.539,-24.14 188.59,-39.492 46.058,-15.359 15.359,-30.711 16.449,-42.738 1.09,-12.07 81.133,-98.672 106.332,-119.531 25.231,-20.8206 27.418,-48.2386 69.098,-83.3206 41.64,-35.07815 82.23,-15.3477 83.32,-9.8789 1.09,5.5 6.561,5.5 -31.801,28.5078 C 923.629,72 901.68,141.102 869.879,170.711 c -31.789,29.57 -54.801,111.84 -54.801,111.84 13.16,-20.86 30.703,-47.153 49.332,-49.34 18.641,-2.231 -1.09,-7.691 87.699,-26.332 88.831,-18.629 99.801,-91.008 154.611,-59.219 54.8,31.801 -23.01,23.051 -56.99,54.852 z" /></g></g></g></g></svg>
