<?xml version="1.0" encoding="UTF-8" standalone="no"?>
<svg
   xmlns:dc="http://purl.org/dc/elements/1.1/"
   xmlns:cc="http://creativecommons.org/ns#"
   xmlns:rdf="http://www.w3.org/1999/02/22-rdf-syntax-ns#"
   xmlns:svg="http://www.w3.org/2000/svg"
   xmlns="http://www.w3.org/2000/svg"
   viewBox="0 0 61.333332 62.666668"
   height="62.666668"
   width="61.333332"
   xml:space="preserve"
   id="svg2"
   version="1.1"><metadata
     id="metadata8"><rdf:RDF><cc:Work
         rdf:about=""><dc:format>image/svg+xml</dc:format><dc:type
           rdf:resource="http://purl.org/dc/dcmitype/StillImage" /></cc:Work></rdf:RDF></metadata><defs
     id="defs6"><clipPath
       id="clipPath20"
       clipPathUnits="userSpaceOnUse"><path
         id="path18"
         d="m 0,4.80078 h 460 v 460 H 0 Z" /></clipPath></defs><g
     transform="matrix(1.3333333,0,0,-1.3333333,0,62.666667)"
     id="g10"><g
       transform="scale(0.1)"
       id="g12"><g
         id="g14"><g
           clip-path="url(#clipPath20)"
           id="g16"><path
             id="path22"
             style="fill:#000000;fill-opacity:1;fill-rule:nonzero;stroke:none"
             d="M 227.379,464.801 C 101.988,464.801 0,362.809 0,237.422 0,112.031 101.988,10 227.379,10 c 125.391,0 227.422,102.031 227.422,227.422 0,125.387 -102.031,227.379 -227.422,227.379 z M 81.3711,84.7617 C 41.1289,123.281 16.0195,177.461 16.0195,237.422 c 0,1.25 0.0313,2.457 0.0703,3.707 L 74.9609,220.852 116.172,114.68 Z m 48.1989,311.9493 106.91,38.437 76.571,-71.398 -62.93,-90.039 -117,22.219 z M 368.59,80.2305 C 364.18,76.25 359.57,72.4609 354.84,68.8594 l -87.891,-37.5391 -57.57,60 74.723,84.1017 99.847,-12.301 z m 28.172,283.5505 c 26.398,-35.269 42.027,-79.019 42.027,-126.359 0,-1.293 -0.039,-2.543 -0.078,-3.832 l -11.91,3.051 -35.942,101.398 z" /></g></g></g></g></svg>