<?xml version="1.0" encoding="UTF-8" standalone="no"?>
<svg
   xmlns:dc="http://purl.org/dc/elements/1.1/"
   xmlns:cc="http://creativecommons.org/ns#"
   xmlns:rdf="http://www.w3.org/1999/02/22-rdf-syntax-ns#"
   xmlns:svg="http://www.w3.org/2000/svg"
   xmlns="http://www.w3.org/2000/svg"
   viewBox="0 0 695.30933 693.32532"
   height="693.32532"
   width="695.30933"
   xml:space="preserve"
   id="svg2"
   version="1.1"><metadata
     id="metadata8"><rdf:RDF><cc:Work
         rdf:about=""><dc:format>image/svg+xml</dc:format><dc:type
           rdf:resource="http://purl.org/dc/dcmitype/StillImage" /></cc:Work></rdf:RDF></metadata><defs
     id="defs6"><clipPath
       id="clipPath18"
       clipPathUnits="userSpaceOnUse"><path
         id="path16"
         d="M 14.296,304.43 C -9.337,168.395 81.783,38.961 217.817,15.329 v 0 C 353.85,-8.303 483.286,82.816 506.918,218.849 v 0 C 530.549,354.883 439.43,484.318 303.396,507.95 v 0 c -14.48,2.516 -28.874,3.731 -43.085,3.73 v 0 C 141.018,511.675 35.412,425.983 14.296,304.43" /></clipPath><clipPath
       id="clipPath102"
       clipPathUnits="userSpaceOnUse"><path
         id="path100"
         d="M 0,519.995 H 521.482 V 0 H 0 Z" /></clipPath><clipPath
       id="clipPath166"
       clipPathUnits="userSpaceOnUse"><path
         id="path164"
         d="M 0,519.995 H 521.482 V 0 H 0 Z" /></clipPath></defs><g
     transform="matrix(1.3333333,0,0,-1.3333333,0,693.32533)"
     id="g10"><g
       id="g12"><g
         clip-path="url(#clipPath18)"
         id="g14"><g
           transform="translate(305.3891,519.4227)"
           id="g20"><path
             id="path22"
             style="fill:#fca516;fill-opacity:1;fill-rule:nonzero;stroke:none"
             d="M 0,0 -44.782,-257.783 -85.137,-4.281 Z" /></g><g
           transform="translate(219.2485,519.994)"
           id="g24"><path
             id="path26"
             style="fill:#393679;fill-opacity:1;fill-rule:nonzero;stroke:none"
             d="M 0,0 41.358,-258.354 -79.132,-31.696 Z" /></g><g
           transform="translate(137.5913,492.5614)"
           id="g28"><path
             id="path30"
             style="fill:#ed3240;fill-opacity:1;fill-rule:nonzero;stroke:none"
             d="M 0,0 123.016,-230.922 -64.55,-55.677 Z" /></g><g
           transform="translate(69.268,440.0976)"
           id="g32"><path
             id="path34"
             style="fill:#fca516;fill-opacity:1;fill-rule:nonzero;stroke:none"
             d="M 0,0 191.339,-178.458 -42.971,-73.621 Z" /></g><g
           transform="translate(21.685,368.2899)"
           id="g36"><path
             id="path38"
             style="fill:#393679;fill-opacity:1;fill-rule:nonzero;stroke:none"
             d="M 0,0 238.922,-106.65 -16.734,-83.586 Z" /></g><g
           transform="translate(0,284.9218)"
           id="g40"><path
             id="path42"
             style="fill:#ed3240;fill-opacity:1;fill-rule:nonzero;stroke:none"
             d="M 0,0 260.607,-23.282 11.317,-84.49 Z" /></g><g
           transform="translate(6.5634,199.0302)"
           id="g44"><path
             id="path46"
             style="fill:#fca516;fill-opacity:1;fill-rule:nonzero;stroke:none"
             d="M 0,0 254.043,62.609 38.141,-76.236 Z" /></g><g
           transform="translate(40.664,119.9247)"
           id="g48"><path
             id="path50"
             style="fill:#393679;fill-opacity:1;fill-rule:nonzero;stroke:none"
             d="M 0,0 219.943,141.715 60.831,-59.718 Z" /></g><g
           transform="translate(98.6049,56.1806)"
           id="g52"><path
             id="path54"
             style="fill:#ed3240;fill-opacity:1;fill-rule:nonzero;stroke:none"
             d="M 0,0 162.002,205.459 76.927,-36.728 Z" /></g><g
           transform="translate(174.1069,14.7069)"
           id="g56"><path
             id="path58"
             style="fill:#fca516;fill-opacity:1;fill-rule:nonzero;stroke:none"
             d="M 0,0 86.5,246.933 84.685,-9.755 Z" /></g><g
           transform="translate(258.9848,-1e-4)"
           id="g60"><path
             id="path62"
             style="fill:#393679;fill-opacity:1;fill-rule:nonzero;stroke:none"
             d="M 0,0 1.622,261.64 83.262,18.274 Z" /></g><g
           transform="translate(344.0376,13.6532)"
           id="g64"><path
             id="path66"
             style="fill:#ed3240;fill-opacity:1;fill-rule:nonzero;stroke:none"
             d="M 0,0 -83.431,247.986 72.815,44.323 Z" /></g><g
           transform="translate(420.0473,54.1874)"
           id="g68"><path
             id="path70"
             style="fill:#00a1d7;fill-opacity:1;fill-rule:nonzero;stroke:none"
             d="M 0,0 -159.44,207.452 54.476,65.567 Z" /></g><g
           transform="translate(478.7749,117.2079)"
           id="g72"><path
             id="path74"
             style="fill:#fca516;fill-opacity:1;fill-rule:nonzero;stroke:none"
             d="M 0,0 -218.168,144.432 30.23,79.704 Z" /></g><g
           transform="translate(513.8539,195.8847)"
           id="g76"><path
             id="path78"
             style="fill:#393679;fill-opacity:1;fill-rule:nonzero;stroke:none"
             d="M 0,0 -253.247,65.755 2.709,85.201 Z" /></g><g
           transform="translate(521.4819,281.6884)"
           id="g80"><path
             id="path82"
             style="fill:#ed3240;fill-opacity:1;fill-rule:nonzero;stroke:none"
             d="M 0,0 -260.875,-20.049 -25.106,81.464 Z" /></g><g
           transform="translate(500.8315,365.3192)"
           id="g84"><path
             id="path86"
             style="fill:#fca516;fill-opacity:1;fill-rule:nonzero;stroke:none"
             d="M 0,0 -240.225,-103.68 -50.2,68.896 Z" /></g><g
           transform="translate(454.143,437.7118)"
           id="g88"><path
             id="path90"
             style="fill:#393679;fill-opacity:1;fill-rule:nonzero;stroke:none"
             d="M 0,0 -193.536,-176.072 -69.853,48.858 Z" /></g><g
           transform="translate(386.4751,491.0185)"
           id="g92"><path
             id="path94"
             style="fill:#ed3240;fill-opacity:1;fill-rule:nonzero;stroke:none"
             d="M 0,0 -125.868,-229.379 -81.934,23.526 Z" /></g></g></g><g
       id="g96"><g
         clip-path="url(#clipPath102)"
         id="g98"><g
           transform="translate(263.2964,458.3095)"
           id="g104"><path
             id="path106"
             style="fill:#ffffff;fill-opacity:1;fill-rule:nonzero;stroke:none"
             d="M 0,0 C 0.858,0 1.592,0.317 2.203,0.955 2.814,1.592 3.12,2.612 3.12,4.017 3.12,5.343 2.814,6.272 2.203,6.806 1.592,7.338 0.819,7.604 -0.117,7.604 -0.768,7.604 -1.424,7.416 -2.087,7.039 -2.75,6.662 -3.341,6.031 -3.861,5.147 -3.731,4.159 -3.536,3.34 -3.276,2.69 -3.017,2.041 -2.717,1.514 -2.379,1.111 -2.041,0.708 -1.671,0.422 -1.268,0.253 -0.864,0.084 -0.442,0 0,0 m 0.117,-4.29 c -1.196,0 -2.359,0.233 -3.491,0.702 -1.131,0.468 -2.132,1.195 -3.003,2.184 -0.871,0.988 -1.566,2.255 -2.086,3.802 -0.52,1.547 -0.78,3.413 -0.78,5.597 0,2.314 0.279,4.316 0.839,6.006 0.558,1.689 1.3,3.081 2.222,4.173 0.923,1.092 1.99,1.904 3.199,2.437 1.209,0.533 2.462,0.8 3.763,0.8 1.638,0 3.055,-0.293 4.251,-0.878 1.196,-0.585 2.184,-1.281 2.964,-2.087 L 4.992,15.015 C 4.55,15.482 3.978,15.893 3.276,16.243 2.574,16.594 1.858,16.77 1.131,16.77 c -0.677,0 -1.314,-0.13 -1.911,-0.39 -0.599,-0.261 -1.125,-0.696 -1.579,-1.307 -0.455,-0.611 -0.827,-1.411 -1.112,-2.398 -0.287,-0.988 -0.455,-2.197 -0.508,-3.627 0.313,0.415 0.677,0.786 1.093,1.111 0.415,0.325 0.845,0.598 1.287,0.82 0.442,0.22 0.883,0.389 1.326,0.506 0.442,0.118 0.858,0.176 1.248,0.176 1.066,0 2.047,-0.156 2.945,-0.469 C 4.816,10.881 5.597,10.413 6.26,9.789 6.923,9.165 7.436,8.371 7.8,7.41 8.164,6.447 8.346,5.316 8.346,4.017 8.346,2.717 8.125,1.56 7.683,0.546 7.24,-0.469 6.649,-1.34 5.908,-2.067 5.167,-2.796 4.296,-3.349 3.296,-3.725 2.294,-4.102 1.234,-4.29 0.117,-4.29" /></g><g
           transform="translate(178.6382,440.829)"
           id="g108"><path
             id="path110"
             style="fill:#ffffff;fill-opacity:1;fill-rule:nonzero;stroke:none"
             d="m 0,0 -1.507,4.39 5.09,1.747 -4.648,13.537 -4.389,-1.507 -1.152,3.356 c 1.193,0.686 2.174,1.352 2.941,2 0.768,0.649 1.484,1.362 2.151,2.141 l 3.985,1.368 6.535,-19.033 4.39,1.507 1.506,-4.39 z" /></g><g
           transform="translate(201.3969,448.6435)"
           id="g112"><path
             id="path114"
             style="fill:#ffffff;fill-opacity:1;fill-rule:nonzero;stroke:none"
             d="m 0,0 c -0.568,1.976 -1.004,3.826 -1.308,5.551 -0.303,1.722 -0.47,3.411 -0.502,5.064 -0.031,1.652 0.083,3.321 0.344,5.004 0.26,1.684 0.683,3.478 1.265,5.382 l -10.513,-3.609 -1.57,4.574 16.304,5.598 1.139,-3.32 C 4.373,22.132 3.814,20.216 3.484,18.494 3.154,16.773 3.025,15.064 3.099,13.372 3.172,11.679 3.411,9.92 3.818,8.094 4.225,6.268 4.771,4.195 5.459,1.874 Z" /></g><g
           transform="translate(123.7241,403.0605)"
           id="g116"><path
             id="path118"
             style="fill:#ffffff;fill-opacity:1;fill-rule:nonzero;stroke:none"
             d="m 0,0 -2.851,3.662 4.247,3.306 -8.792,11.295 -3.663,-2.851 -2.179,2.8 c 0.907,1.035 1.619,1.984 2.133,2.848 0.515,0.861 0.962,1.768 1.339,2.722 L -6.441,26.37 5.92,10.49 9.582,13.341 12.433,9.679 Z" /></g><g
           transform="translate(143.4995,423.496)"
           id="g120"><path
             id="path122"
             style="fill:#ffffff;fill-opacity:1;fill-rule:nonzero;stroke:none"
             d="M 0,0 C 0.39,0.304 0.672,0.681 0.85,1.132 1.025,1.581 1.038,2.159 0.885,2.864 0.731,3.568 0.387,4.403 -0.15,5.368 c -0.539,0.967 -1.327,2.115 -2.365,3.449 -1.038,1.334 -1.956,2.374 -2.751,3.122 -0.796,0.748 -1.505,1.267 -2.127,1.558 -0.621,0.289 -1.168,0.399 -1.639,0.328 -0.474,-0.07 -0.904,-0.258 -1.294,-0.56 -0.369,-0.287 -0.647,-0.653 -0.83,-1.092 -0.185,-0.441 -0.212,-0.998 -0.083,-1.671 0.13,-0.674 0.453,-1.493 0.972,-2.456 0.519,-0.963 1.298,-2.111 2.335,-3.445 1.039,-1.334 1.965,-2.375 2.781,-3.125 0.813,-0.75 1.544,-1.286 2.188,-1.607 0.647,-0.321 1.209,-0.452 1.69,-0.39 C -0.795,-0.462 -0.369,-0.287 0,0 m 2.73,-3.508 c -1.044,-0.814 -2.171,-1.337 -3.376,-1.567 -1.205,-0.229 -2.446,-0.149 -3.721,0.242 -1.278,0.391 -2.578,1.09 -3.908,2.099 -1.329,1.008 -2.64,2.342 -3.934,4.005 -1.293,1.662 -2.258,3.25 -2.894,4.765 -0.635,1.515 -0.982,2.934 -1.04,4.256 -0.057,1.322 0.182,2.53 0.715,3.621 0.535,1.092 1.324,2.045 2.371,2.859 1.046,0.815 2.164,1.346 3.354,1.598 1.189,0.25 2.418,0.184 3.685,-0.195 1.268,-0.381 2.559,-1.065 3.872,-2.053 C -0.834,15.134 0.469,13.81 1.763,12.147 3.057,10.485 4.029,8.887 4.682,7.352 5.333,5.816 5.691,4.382 5.758,3.048 5.822,1.716 5.597,0.494 5.078,-0.618 4.56,-1.729 3.777,-2.693 2.73,-3.508" /></g><g
           transform="translate(95.686,366.9892)"
           id="g124"><path
             id="path126"
             style="fill:#ffffff;fill-opacity:1;fill-rule:nonzero;stroke:none"
             d="m 0,0 c -1.109,-1.698 -2.314,-2.961 -3.614,-3.788 -1.302,-0.827 -2.648,-1.331 -4.037,-1.509 l -1.587,4.203 c 1.022,0.233 1.974,0.598 2.856,1.092 0.882,0.496 1.615,1.189 2.198,2.082 0.668,1.024 0.989,1.979 0.963,2.865 C -3.248,5.832 -3.652,6.531 -4.436,7.043 -4.893,7.342 -5.359,7.529 -5.837,7.608 -6.312,7.687 -6.812,7.601 -7.332,7.351 -7.854,7.101 -8.418,6.662 -9.029,6.037 -9.641,5.41 -10.316,4.531 -11.055,3.4 l -3.395,2.217 c 0.61,0.937 1.054,1.758 1.329,2.463 0.275,0.705 0.411,1.33 0.41,1.875 -0.002,0.545 -0.119,1.009 -0.35,1.393 -0.23,0.383 -0.552,0.711 -0.965,0.98 -0.719,0.469 -1.421,0.617 -2.109,0.445 -0.686,-0.172 -1.301,-0.671 -1.842,-1.499 -0.482,-0.74 -0.755,-1.516 -0.821,-2.327 -0.065,-0.812 -0.026,-1.73 0.112,-2.753 l -4.516,-0.497 c -0.201,1.498 -0.191,2.928 0.03,4.289 0.222,1.362 0.751,2.685 1.59,3.969 0.697,1.066 1.459,1.959 2.285,2.678 0.826,0.718 1.686,1.227 2.581,1.528 0.896,0.3 1.805,0.398 2.729,0.29 0.924,-0.107 1.842,-0.459 2.757,-1.055 1.089,-0.712 1.813,-1.611 2.173,-2.701 0.36,-1.089 0.417,-2.345 0.17,-3.767 l 0.131,-0.086 c 1.131,0.97 2.367,1.567 3.71,1.793 1.343,0.224 2.69,-0.104 4.038,-0.985 C -0.049,11.025 0.67,10.26 1.15,9.355 1.632,8.451 1.9,7.484 1.957,6.454 2.014,5.423 1.871,4.352 1.533,3.237 1.193,2.123 0.683,1.045 0,0" /></g><g
           transform="translate(63.8042,287.7958)"
           id="g128"><path
             id="path130"
             style="fill:#ffffff;fill-opacity:1;fill-rule:nonzero;stroke:none"
             d="m 0,0 -4.499,1.139 1.32,5.217 -13.876,3.511 -1.138,-4.498 -3.441,0.87 c 0.08,1.374 0.059,2.56 -0.066,3.557 -0.122,0.996 -0.326,1.987 -0.614,2.972 l 1.033,4.083 19.509,-4.937 1.138,4.499 4.499,-1.138 z" /></g><g
           transform="translate(59.7348,313.6874)"
           id="g132"><path
             id="path134"
             style="fill:#ffffff;fill-opacity:1;fill-rule:nonzero;stroke:none"
             d="M 0,0 1.282,5.066 -2.612,6.052 C -3.393,6.249 -4.288,6.502 -5.296,6.812 -6.304,7.12 -7.18,7.395 -7.923,7.637 L -7.961,7.485 C -7.383,7.017 -6.795,6.533 -6.197,6.033 -5.6,5.533 -5.005,5.021 -4.413,4.496 Z M 11.264,2.54 5.517,3.995 2.886,-6.402 -0.933,-5.437 -13.155,6.99 l 1.721,6.805 14.027,-3.549 0.698,2.76 4.234,-1.071 -0.698,-2.76 5.747,-1.455 z" /></g><g
           transform="translate(67.1211,243.4071)"
           id="g136"><path
             id="path138"
             style="fill:#ffffff;fill-opacity:1;fill-rule:nonzero;stroke:none"
             d="m 0,0 c -2.055,-0.066 -3.956,-0.035 -5.702,0.094 -1.745,0.129 -3.422,0.381 -5.032,0.756 -1.61,0.375 -3.199,0.894 -4.768,1.56 -1.568,0.665 -3.203,1.515 -4.907,2.547 l 0.92,-11.077 -4.82,-0.401 -1.427,17.18 3.498,0.29 c 1.855,-1.28 3.575,-2.292 5.164,-3.034 1.588,-0.743 3.212,-1.286 4.87,-1.63 1.66,-0.346 3.424,-0.544 5.295,-0.598 1.868,-0.053 4.013,-0.032 6.43,0.066 z" /></g><g
           transform="translate(89.0141,164.8036)"
           id="g140"><path
             id="path142"
             style="fill:#ffffff;fill-opacity:1;fill-rule:nonzero;stroke:none"
             d="m 0,0 -4.249,-1.865 -2.163,4.928 -13.107,-5.752 1.866,-4.25 -3.25,-1.426 c -0.781,1.133 -1.526,2.054 -2.237,2.765 -0.708,0.711 -1.478,1.368 -2.31,1.967 l -1.694,3.858 18.427,8.088 -1.865,4.25 4.249,1.865 z" /></g><g
           transform="translate(74.4516,189.2479)"
           id="g144"><path
             id="path146"
             style="fill:#ffffff;fill-opacity:1;fill-rule:nonzero;stroke:none"
             d="M 0,0 C -0.387,0.88 -0.938,1.505 -1.653,1.872 -2.368,2.24 -3.202,2.215 -4.154,1.797 -4.654,1.577 -5.033,1.276 -5.291,0.894 -5.549,0.511 -5.731,0.039 -5.842,-0.52 -5.951,-1.079 -6.009,-1.708 -6.016,-2.406 -6.02,-3.104 -6.021,-3.878 -6.018,-4.729 c 0.697,-0.29 1.426,-0.466 2.192,-0.528 0.766,-0.062 1.494,0.059 2.183,0.361 1,0.44 1.629,1.127 1.884,2.063 C 0.498,-1.896 0.418,-0.952 0,0 m -10.579,-3.068 c -1.48,0.459 -2.789,0.436 -3.933,-0.066 -0.881,-0.387 -1.483,-0.941 -1.803,-1.664 -0.323,-0.723 -0.294,-1.514 0.083,-2.37 0.302,-0.691 0.776,-1.192 1.425,-1.504 0.648,-0.311 1.413,-0.274 2.293,0.112 0.929,0.409 1.499,1.084 1.708,2.028 0.211,0.944 0.286,2.099 0.227,3.464 M 3.689,1.491 C 4.191,0.349 4.505,-0.77 4.63,-1.864 4.756,-2.96 4.698,-3.978 4.459,-4.921 4.221,-5.864 3.807,-6.698 3.216,-7.426 2.627,-8.153 1.868,-8.72 0.939,-9.128 -0.44,-9.733 -1.736,-9.855 -2.946,-9.492 c -1.209,0.363 -2.337,0.955 -3.378,1.775 l -0.143,-0.061 c -0.279,-1.174 -0.717,-2.233 -1.311,-3.175 -0.594,-0.943 -1.499,-1.68 -2.713,-2.213 -0.952,-0.418 -1.894,-0.618 -2.824,-0.601 -0.93,0.018 -1.811,0.227 -2.641,0.629 -0.83,0.403 -1.583,0.988 -2.26,1.756 -0.679,0.767 -1.247,1.674 -1.708,2.722 -0.449,1.023 -0.712,2.029 -0.791,3.017 -0.078,0.988 0.02,1.896 0.293,2.727 0.276,0.829 0.727,1.581 1.354,2.255 0.627,0.673 1.405,1.213 2.333,1.621 1.095,0.48 2.196,0.608 3.303,0.385 1.106,-0.225 2.094,-0.615 2.962,-1.17 l 0.143,0.062 c 0.115,1.356 0.469,2.619 1.063,3.789 0.593,1.169 1.641,2.083 3.14,2.742 0.906,0.397 1.822,0.572 2.752,0.526 C -2.443,7.247 -1.545,6.995 -0.678,6.538 0.19,6.082 1.002,5.43 1.757,4.583 2.513,3.736 3.156,2.706 3.689,1.491" /></g><g
           transform="translate(129.2202,112.9882)"
           id="g148"><path
             id="path150"
             style="fill:#ffffff;fill-opacity:1;fill-rule:nonzero;stroke:none"
             d="m 0,0 -3.413,-3.144 -3.647,3.958 -10.527,-9.698 3.145,-3.412 -2.612,-2.404 c -1.106,0.817 -2.11,1.448 -3.013,1.888 -0.902,0.444 -1.843,0.813 -2.825,1.111 l -2.853,3.098 14.801,13.634 -3.144,3.413 3.413,3.145 z" /></g><g
           transform="translate(115.269,128.1337)"
           id="g152"><path
             id="path154"
             style="fill:#ffffff;fill-opacity:1;fill-rule:nonzero;stroke:none"
             d="m 0,0 -3.413,-3.145 -3.647,3.959 -10.527,-9.697 3.144,-3.414 -2.611,-2.404 c -1.106,0.818 -2.111,1.449 -3.013,1.889 -0.902,0.443 -1.843,0.813 -2.825,1.111 l -2.853,3.097 14.801,13.635 -3.144,3.413 3.413,3.144 z" /></g></g></g><text
       id="text158"
       style="font-variant:normal;font-weight:bold;font-stretch:normal;font-size:38.99998474px;font-family:'Source Sans Pro';-inkscape-font-specification:SourceSansPro-Bold;writing-mode:lr-tb;fill:#ffffff;fill-opacity:1;fill-rule:nonzero;stroke:none"
       transform="matrix(-0.87964908,0.47562327,0.47562327,0.87964908,177.3899,83.6423)"><tspan
         id="tspan156"
         y="0"
         x="0">4</tspan></text>
<g
       id="g160"><g
         clip-path="url(#clipPath166)"
         id="g162"><g
           transform="translate(250.5102,64.7138)"
           id="g168"><path
             id="path170"
             style="fill:#ffffff;fill-opacity:1;fill-rule:nonzero;stroke:none"
             d="m 0,0 -0.762,-4.578 -5.309,0.884 -2.35,-14.119 4.577,-0.762 -0.582,-3.5 c -1.376,-0.035 -2.555,-0.154 -3.539,-0.361 -0.982,-0.205 -1.953,-0.491 -2.91,-0.859 l -4.155,0.691 3.303,19.851 -4.577,0.762 0.762,4.578 z" /></g><g
           transform="translate(223.4653,69.6903)"
           id="g172"><path
             id="path174"
             style="fill:#ffffff;fill-opacity:1;fill-rule:nonzero;stroke:none"
             d="m 0,0 c 2,-0.333 3.639,-0.942 4.915,-1.827 1.276,-0.884 2.32,-1.895 3.132,-3.031 L 4.913,-8.014 c -0.632,0.791 -1.339,1.495 -2.12,2.113 -0.779,0.617 -1.695,1.013 -2.747,1.188 -1.256,0.209 -2.31,0.056 -3.161,-0.463 -0.85,-0.516 -1.38,-1.403 -1.589,-2.66 -0.205,-1.231 -0.009,-2.227 0.59,-2.985 0.598,-0.758 1.475,-1.234 2.63,-1.426 0.359,-0.06 0.682,-0.094 0.97,-0.103 0.289,-0.008 0.576,0.017 0.863,0.075 0.286,0.058 0.59,0.139 0.91,0.244 0.321,0.103 0.68,0.243 1.077,0.413 l 2.269,-2.038 -2.746,-12.234 -13.849,2.305 0.793,4.771 8.964,-1.492 1.184,4.507 c -0.495,-0.129 -0.962,-0.203 -1.4,-0.221 -0.438,-0.019 -0.913,0.014 -1.426,0.099 -1.052,0.175 -2.02,0.494 -2.904,0.957 -0.886,0.465 -1.637,1.064 -2.252,1.799 -0.615,0.734 -1.049,1.611 -1.303,2.629 -0.251,1.016 -0.27,2.18 -0.052,3.487 0.227,1.361 0.671,2.525 1.333,3.494 0.662,0.971 1.465,1.753 2.407,2.348 0.943,0.595 1.992,0.993 3.145,1.196 C -2.346,0.192 -1.18,0.196 0,0" /></g><g
           transform="translate(295.0083,53.8837)"
           id="g176"><path
             id="path178"
             style="fill:#ffffff;fill-opacity:1;fill-rule:nonzero;stroke:none"
             d="m 0,0 c -0.808,-1.321 -1.107,-2.598 -0.901,-3.829 0.158,-0.948 0.548,-1.668 1.171,-2.157 0.622,-0.489 1.395,-0.657 2.318,-0.501 0.744,0.124 1.346,0.462 1.808,1.014 0.46,0.551 0.612,1.303 0.454,2.25 C 4.682,-2.222 4.166,-1.504 3.303,-1.069 2.438,-0.634 1.338,-0.277 0,0 M -0.38,11.008 C -1.328,10.85 -2.068,10.469 -2.601,9.865 -3.132,9.262 -3.313,8.448 -3.141,7.422 -3.051,6.884 -2.852,6.442 -2.543,6.098 -2.235,5.755 -1.824,5.461 -1.309,5.218 -0.793,4.975 -0.198,4.765 0.478,4.587 1.153,4.41 1.903,4.22 2.729,4.015 3.181,4.619 3.531,5.283 3.778,6.01 4.026,6.738 4.088,7.473 3.963,8.215 3.783,9.293 3.271,10.07 2.426,10.548 1.581,11.025 0.646,11.18 -0.38,11.008 m -0.541,3.942 c 1.232,0.206 2.393,0.237 3.484,0.089 C 3.656,14.893 4.63,14.588 5.485,14.125 6.341,13.662 7.048,13.055 7.608,12.306 8.169,11.555 8.532,10.68 8.7,9.68 8.948,8.193 8.749,6.908 8.1,5.823 7.451,4.74 6.602,3.793 5.55,2.984 L 5.575,2.831 C 6.645,2.271 7.562,1.588 8.331,0.781 9.099,-0.026 9.592,-1.084 9.811,-2.393 9.982,-3.417 9.945,-4.38 9.7,-5.277 9.456,-6.175 9.035,-6.977 8.442,-7.682 7.849,-8.389 7.097,-8.976 6.187,-9.443 5.276,-9.912 4.258,-10.242 3.129,-10.431 2.026,-10.615 0.986,-10.623 0.01,-10.458 c -0.978,0.167 -1.834,0.483 -2.573,0.953 -0.736,0.47 -1.354,1.093 -1.853,1.865 -0.498,0.773 -0.832,1.661 -0.999,2.661 -0.197,1.179 -0.052,2.278 0.437,3.295 0.489,1.018 1.109,1.88 1.861,2.585 l -0.026,0.155 c -1.286,0.444 -2.423,1.096 -3.412,1.96 -0.988,0.861 -1.617,2.101 -1.887,3.716 -0.163,0.976 -0.108,1.907 0.165,2.795 0.272,0.891 0.737,1.701 1.392,2.428 0.656,0.73 1.488,1.358 2.493,1.881 1.006,0.525 2.163,0.895 3.471,1.114" /></g><g
           transform="translate(361.7251,93.3319)"
           id="g180"><path
             id="path182"
             style="fill:#ffffff;fill-opacity:1;fill-rule:nonzero;stroke:none"
             d="m 0,0 2.211,-4.081 -4.732,-2.564 6.819,-12.584 4.08,2.21 1.69,-3.12 c -1.064,-0.872 -1.922,-1.69 -2.57,-2.458 -0.65,-0.765 -1.24,-1.587 -1.769,-2.465 l -3.704,-2.007 -9.587,17.693 -4.081,-2.211 -2.211,4.081 z" /></g><g
           transform="translate(449.2866,204.1962)"
           id="g184"><path
             id="path186"
             style="fill:#ffffff;fill-opacity:1;fill-rule:nonzero;stroke:none"
             d="m 0,0 4.251,-1.861 -2.158,-4.931 13.111,-5.741 1.861,4.251 3.251,-1.424 c -0.303,-1.342 -0.477,-2.515 -0.518,-3.519 -0.043,-1.004 -0.004,-2.014 0.119,-3.033 l -1.69,-3.857 -18.435,8.072 -1.861,-4.251 -4.251,1.861 z" /></g><g
           transform="translate(441.5424,186.5126)"
           id="g188"><path
             id="path190"
             style="fill:#ffffff;fill-opacity:1;fill-rule:nonzero;stroke:none"
             d="m 0,0 3.002,-1.314 c 0.721,-2.047 1.407,-3.93 2.06,-5.65 0.653,-1.718 1.306,-3.239 1.961,-4.562 0.656,-1.324 1.323,-2.424 2.002,-3.304 0.679,-0.879 1.424,-1.496 2.234,-1.851 1.119,-0.49 2.095,-0.577 2.929,-0.261 0.834,0.315 1.47,0.974 1.909,1.974 0.365,0.834 0.455,1.674 0.272,2.521 -0.182,0.845 -0.458,1.69 -0.827,2.533 l 4.074,1.622 c 0.699,-1.641 1.099,-3.177 1.196,-4.61 0.095,-1.433 -0.211,-2.959 -0.92,-4.579 -0.491,-1.12 -1.109,-2.061 -1.856,-2.828 -0.748,-0.765 -1.583,-1.343 -2.505,-1.734 -0.924,-0.391 -1.903,-0.571 -2.941,-0.543 -1.038,0.028 -2.105,0.283 -3.199,0.763 -0.954,0.417 -1.836,1.045 -2.647,1.883 -0.81,0.837 -1.561,1.811 -2.253,2.923 -0.691,1.112 -1.341,2.32 -1.949,3.621 -0.607,1.302 -1.185,2.626 -1.73,3.972 -0.178,-0.602 -0.392,-1.268 -0.64,-1.997 -0.249,-0.728 -0.491,-1.367 -0.732,-1.915 l -2.003,-4.572 -4.43,1.939 z" /></g><g
           transform="translate(459.0913,244.1161)"
           id="g192"><path
             id="path194"
             style="fill:#ffffff;fill-opacity:1;fill-rule:nonzero;stroke:none"
             d="M 0,0 C 0.166,2.021 0.637,3.704 1.413,5.05 2.188,6.395 3.109,7.52 4.175,8.423 L 7.579,5.56 C 6.843,4.864 6.199,4.103 5.649,3.273 5.098,2.444 4.779,1.499 4.691,0.437 4.588,-0.833 4.829,-1.87 5.415,-2.675 c 0.586,-0.804 1.513,-1.26 2.783,-1.364 1.244,-0.103 2.218,0.177 2.925,0.836 0.706,0.659 1.108,1.572 1.205,2.737 0.029,0.363 0.036,0.69 0.021,0.978 -0.016,0.288 -0.065,0.572 -0.145,0.852 -0.082,0.282 -0.188,0.577 -0.318,0.888 -0.131,0.311 -0.299,0.657 -0.502,1.039 l 1.843,2.431 12.419,-1.726 -1.151,-13.992 -4.819,0.396 0.745,9.056 -4.59,0.808 c 0.168,-0.484 0.281,-0.943 0.336,-1.377 0.056,-0.436 0.062,-0.912 0.02,-1.43 C 16.1,-3.605 15.86,-4.597 15.473,-5.518 15.084,-6.437 14.549,-7.234 13.867,-7.909 13.186,-8.583 12.349,-9.089 11.355,-9.425 10.363,-9.761 9.205,-9.874 7.884,-9.766 6.51,-9.652 5.312,-9.306 4.291,-8.727 3.27,-8.146 2.424,-7.412 1.752,-6.522 1.082,-5.632 0.598,-4.62 0.3,-3.487 0.001,-2.354 -0.099,-1.191 0,0" /></g><g
           transform="translate(448.8618,329.0761)"
           id="g196"><path
             id="path198"
             style="fill:#ffffff;fill-opacity:1;fill-rule:nonzero;stroke:none"
             d="m 0,0 4.498,1.143 1.324,-5.217 13.873,3.523 -1.141,4.498 3.439,0.873 c 0.585,-1.246 1.168,-2.277 1.753,-3.094 0.582,-0.819 1.233,-1.592 1.956,-2.321 l 1.036,-4.083 -19.504,-4.953 1.143,-4.498 -4.498,-1.142 z" /></g><g
           transform="translate(459.6323,302.1972)"
           id="g200"><path
             id="path202"
             style="fill:#ffffff;fill-opacity:1;fill-rule:nonzero;stroke:none"
             d="M 0,0 C 0.212,-0.832 0.7,-1.466 1.468,-1.901 2.235,-2.337 3.3,-2.382 4.661,-2.036 5.946,-1.71 6.772,-1.185 7.138,-0.461 7.503,0.262 7.571,1.077 7.341,1.984 7.181,2.614 6.837,3.204 6.309,3.754 5.78,4.304 5.023,4.722 4.038,5.008 3.112,4.639 2.366,4.249 1.801,3.836 1.235,3.425 0.798,3.005 0.491,2.578 0.183,2.152 -0.003,1.723 -0.067,1.29 -0.132,0.857 -0.108,0.428 0,0 m -4.13,-1.17 c -0.294,1.159 -0.354,2.344 -0.178,3.556 0.174,1.212 0.633,2.36 1.377,3.448 0.743,1.088 1.8,2.073 3.172,2.958 1.371,0.886 3.115,1.596 5.233,2.134 2.242,0.569 4.252,0.792 6.027,0.666 1.775,-0.126 3.306,-0.502 4.592,-1.128 1.285,-0.626 2.335,-1.459 3.149,-2.499 0.814,-1.041 1.382,-2.192 1.702,-3.451 0.403,-1.588 0.467,-3.034 0.196,-4.336 -0.274,-1.303 -0.705,-2.434 -1.294,-3.387 l -4.065,2.065 c 0.345,0.544 0.601,1.2 0.769,1.966 0.167,0.767 0.16,1.504 -0.019,2.209 -0.167,0.656 -0.449,1.24 -0.846,1.756 C 15.284,5.303 14.731,5.706 14.028,5.996 13.323,6.287 12.457,6.449 11.43,6.483 10.401,6.518 9.188,6.383 7.79,6.082 8.269,5.882 8.719,5.62 9.136,5.297 9.554,4.975 9.923,4.625 10.247,4.251 c 0.322,-0.373 0.594,-0.761 0.817,-1.16 0.222,-0.4 0.382,-0.788 0.478,-1.166 0.262,-1.033 0.353,-2.023 0.271,-2.97 C 11.731,-1.991 11.47,-2.862 11.028,-3.658 10.587,-4.455 9.943,-5.147 9.102,-5.737 8.259,-6.326 7.207,-6.781 5.947,-7.102 c -1.26,-0.32 -2.435,-0.39 -3.528,-0.21 -1.092,0.178 -2.081,0.537 -2.969,1.076 -0.888,0.539 -1.638,1.247 -2.249,2.124 -0.612,0.878 -1.055,1.858 -1.331,2.942" /></g><g
           transform="translate(437.5854,375.5263)"
           id="g204"><path
             id="path206"
             style="fill:#ffffff;fill-opacity:1;fill-rule:nonzero;stroke:none"
             d="M 0,0 C 0.308,-0.471 0.775,-0.842 1.405,-1.115 2.034,-1.389 2.835,-1.461 3.809,-1.334 5.317,-0.078 6.213,1.012 6.494,1.934 6.776,2.856 6.708,3.638 6.289,4.276 5.896,4.878 5.285,5.23 4.457,5.333 3.629,5.435 2.627,5.102 1.453,4.333 0.343,3.607 -0.287,2.872 -0.438,2.129 -0.589,1.386 -0.443,0.676 0,0 m -11.977,-6.912 c -0.775,1.184 -1.198,2.378 -1.27,3.579 -0.071,1.201 0.035,2.298 0.318,3.289 l 4.311,-0.32 c -0.195,-0.557 -0.273,-1.186 -0.235,-1.886 0.04,-0.699 0.231,-1.313 0.576,-1.839 0.332,-0.508 0.748,-0.906 1.248,-1.196 0.5,-0.289 1.114,-0.432 1.841,-0.426 0.725,0.005 1.562,0.177 2.507,0.512 0.945,0.338 2.038,0.885 3.282,1.645 -0.496,-0.002 -0.978,0.058 -1.447,0.181 -0.468,0.122 -0.9,0.283 -1.295,0.482 -0.393,0.199 -0.744,0.425 -1.05,0.681 -0.308,0.256 -0.553,0.524 -0.738,0.806 -0.505,0.771 -0.839,1.566 -1.002,2.384 -0.163,0.821 -0.137,1.637 0.077,2.448 0.214,0.811 0.635,1.617 1.262,2.416 0.627,0.8 1.484,1.555 2.572,2.267 1.066,0.698 2.132,1.168 3.202,1.41 C 3.25,9.764 4.264,9.817 5.225,9.68 6.183,9.543 7.059,9.216 7.848,8.698 8.636,8.182 9.295,7.519 9.824,6.71 10.39,5.846 10.745,4.876 10.888,3.802 11.031,2.729 10.896,1.605 10.481,0.436 10.066,-0.736 9.338,-1.937 8.296,-3.17 7.254,-4.402 5.818,-5.616 3.991,-6.812 2.055,-8.079 0.247,-8.974 -1.431,-9.494 c -1.679,-0.522 -3.194,-0.747 -4.544,-0.678 -1.35,0.069 -2.535,0.395 -3.552,0.977 -1.018,0.583 -1.834,1.343 -2.45,2.283" /></g><g
           transform="translate(376.3647,419.3651)"
           id="g208"><path
             id="path210"
             style="fill:#ffffff;fill-opacity:1;fill-rule:nonzero;stroke:none"
             d="m 0,0 2.011,2.588 c 2.161,0.196 4.155,0.4 5.982,0.611 1.826,0.211 3.461,0.472 4.904,0.781 1.444,0.311 2.675,0.688 3.695,1.131 1.017,0.444 1.8,1.014 2.341,1.711 0.75,0.965 1.074,1.891 0.972,2.778 -0.101,0.884 -0.584,1.663 -1.446,2.333 -0.719,0.558 -1.511,0.852 -2.376,0.883 -0.865,0.03 -1.752,-0.031 -2.659,-0.181 l -0.573,4.347 c 1.761,0.278 3.349,0.286 4.763,0.028 1.412,-0.258 2.817,-0.93 4.213,-2.014 0.965,-0.75 1.727,-1.582 2.286,-2.492 C 24.671,11.591 25.026,10.64 25.18,9.648 25.331,8.658 25.267,7.663 24.984,6.664 24.702,5.666 24.194,4.693 23.46,3.75 22.821,2.928 21.997,2.227 20.986,1.646 19.975,1.066 18.847,0.576 17.599,0.18 16.352,-0.218 15.022,-0.551 13.61,-0.821 c -1.412,-0.27 -2.836,-0.505 -4.274,-0.702 0.54,-0.323 1.133,-0.694 1.778,-1.112 0.646,-0.42 1.205,-0.812 1.677,-1.179 l 3.942,-3.063 -2.967,-3.819 z" /></g><g
           transform="translate(307.1528,448.6024)"
           id="g212"><path
             id="path214"
             style="fill:#ffffff;fill-opacity:1;fill-rule:nonzero;stroke:none"
             d="m 0,0 1.502,4.391 5.092,-1.745 4.636,13.541 -4.39,1.504 1.15,3.36 c 1.364,-0.194 2.545,-0.27 3.549,-0.227 1.004,0.041 2.008,0.162 3.014,0.369 l 3.984,-1.363 -6.519,-19.039 4.39,-1.504 -1.502,-4.391 z" /></g><g
           transform="translate(332.8657,439.3036)"
           id="g216"><path
             id="path218"
             style="fill:#ffffff;fill-opacity:1;fill-rule:nonzero;stroke:none"
             d="m 0,0 c -1.918,0.658 -3.439,1.514 -4.562,2.572 -1.122,1.057 -1.94,2.237 -2.456,3.541 l 3.684,2.573 C -2.857,7.752 -2.27,6.92 -1.572,6.186 -0.875,5.453 -0.022,4.912 0.986,4.566 2.143,4.172 3.146,4.096 4,4.34 4.853,4.584 5.432,5.148 5.734,6.033 5.912,6.551 5.979,7.049 5.937,7.531 5.896,8.012 5.69,8.475 5.32,8.918 4.949,9.359 4.385,9.799 3.629,10.238 2.871,10.676 1.854,11.115 0.574,11.553 l 1.315,3.836 c 1.056,-0.362 1.963,-0.588 2.713,-0.682 0.752,-0.092 1.39,-0.07 1.918,0.064 0.527,0.135 0.949,0.364 1.265,0.682 0.315,0.317 0.551,0.709 0.711,1.178 0.278,0.812 0.248,1.529 -0.087,2.152 -0.337,0.623 -0.972,1.096 -1.906,1.416 -0.837,0.285 -1.656,0.36 -2.458,0.223 C 3.241,20.285 2.361,20.023 1.404,19.637 l -1.593,4.254 c 1.402,0.564 2.791,0.906 4.166,1.027 1.373,0.121 2.785,-0.066 4.238,-0.564 1.205,-0.413 2.256,-0.932 3.156,-1.555 0.899,-0.625 1.605,-1.332 2.116,-2.125 0.513,-0.795 0.829,-1.653 0.954,-2.574 0.123,-0.922 0.009,-1.901 -0.345,-2.934 -0.42,-1.23 -1.116,-2.152 -2.082,-2.77 -0.967,-0.617 -2.17,-0.982 -3.61,-1.093 L 8.354,11.156 C 9.571,10.299 10.455,9.248 11.004,8.002 11.553,6.756 11.566,5.369 11.045,3.844 10.674,2.762 10.109,1.877 9.352,1.187 8.594,0.5 7.723,0.002 6.738,-0.307 5.752,-0.615 4.678,-0.742 3.516,-0.687 2.352,-0.633 1.18,-0.404 0,0" /></g><g
           transform="translate(430.8979,117.288)"
           id="g220"><path
             id="path222"
             style="fill:#fca516;fill-opacity:1;fill-rule:nonzero;stroke:none"
             d="m 0,0 c 0,-8.423 -6.828,-15.25 -15.25,-15.25 -8.423,0 -15.25,6.827 -15.25,15.25 0,8.422 6.827,15.25 15.25,15.25 C -6.828,15.25 0,8.422 0,0" /></g></g></g></g></svg>
