<?xml version="1.0" encoding="UTF-8" standalone="no"?>
<svg
   xmlns:dc="http://purl.org/dc/elements/1.1/"
   xmlns:cc="http://creativecommons.org/ns#"
   xmlns:rdf="http://www.w3.org/1999/02/22-rdf-syntax-ns#"
   xmlns:svg="http://www.w3.org/2000/svg"
   xmlns="http://www.w3.org/2000/svg"
   viewBox="0 0 61.333332 64"
   height="64"
   width="61.333332"
   xml:space="preserve"
   id="svg2"
   version="1.1"><metadata
     id="metadata8"><rdf:RDF><cc:Work
         rdf:about=""><dc:format>image/svg+xml</dc:format><dc:type
           rdf:resource="http://purl.org/dc/dcmitype/StillImage" /></cc:Work></rdf:RDF></metadata><defs
     id="defs6"><clipPath
       id="clipPath20"
       clipPathUnits="userSpaceOnUse"><path
         id="path18"
         d="M 0,2 H 460 V 472 H 0 Z" /></clipPath></defs><g
     transform="matrix(1.3333333,0,0,-1.3333333,0,64)"
     id="g10"><g
       transform="scale(0.1)"
       id="g12"><g
         id="g14"><g
           clip-path="url(#clipPath20)"
           id="g16"><path
             id="path22"
             style="fill:#000000;fill-opacity:1;fill-rule:nonzero;stroke:none"
             d="m 458.75,452 v 20 H 0 V 10.0117 H 40 V 400.238 c 27.8086,-41.679 66.328,-127.726 77.621,-291.91 2.07,-30.1171 3.238,-62.7382 3.238,-98.3163 h 40 c 0,50.3867 -2.308,95.3473 -6.211,135.6603 C 139.141,305.551 97.5391,390.051 66.6406,432 H 458.75 Z" /><path
             id="path24"
             style="fill:#000000;fill-opacity:1;fill-rule:nonzero;stroke:none"
             d="m 293.871,301.648 32.578,46.641 -39.73,37.031 -54.957,-19.769 1.867,-52.5 z" /><path
             id="path26"
             style="fill:#000000;fill-opacity:1;fill-rule:nonzero;stroke:none"
             d="m 270.23,214.301 30.469,-31.711 51.602,22.031 8.64,46.719 -52.113,6.398 z" /><path
             id="path28"
             style="fill:#000000;fill-opacity:1;fill-rule:nonzero;stroke:none"
             d="m 281.84,163.41 c 64.019,0 116.519,49.102 122.07,111.68 l 1.168,1.25 -1.058,0.969 c 0.199,2.89 0.429,5.781 0.429,8.711 0,30.902 -11.519,59.07 -30.429,80.628 -22.461,25.661 -55.391,41.954 -92.18,41.954 -67.699,0 -122.578,-54.883 -122.578,-122.582 0,-37.11 16.558,-70.309 42.617,-92.809 21.48,-18.512 49.371,-29.801 79.961,-29.801 z m 92.461,183.121 c -0.121,0 -0.199,-0.082 -0.321,-0.082 l -0.699,1.68 c 0.348,-0.5 0.668,-1.051 1.02,-1.598 z M 175.039,289.93 172.93,267.551 c -1.02,6.008 -1.68,12.148 -1.68,18.469 0,12.308 2.109,24.109 5.82,35.16 0.981,0.121 1.95,0.55 2.621,1.371 l 30.039,37.301 9.25,14.847 c 0.508,0.821 0.629,1.711 0.551,2.61 16.52,11.332 36.289,18.171 57.578,19.07 0.43,-0.789 1.09,-1.449 2.032,-1.758 l 15.98,-5.902 31.328,-4.059 c 0.192,0 0.352,-0.039 0.5,-0.039 1.02,0 1.922,0.391 2.66,1.008 13.789,-6.641 26.012,-16.051 35.942,-27.539 1.129,-1.32 2.258,-2.692 3.32,-4.059 l -3.91,1.328 -7.691,-26.058 24.332,-53.391 10.16,-2 c -6.102,-55.308 -53.051,-98.469 -109.922,-98.469 -27.231,0 -52.192,9.918 -71.488,26.329 -0.782,0.699 -1.563,1.441 -2.34,2.14 l 21.91,19.141 -18.793,56.527 z" /><path
             id="path30"
             style="fill:#000000;fill-opacity:1;fill-rule:nonzero;stroke:none"
             d="m 338.629,41.4883 c 5.672,-14.2188 28.91,-8.0078 23.133,6.3711 -10.352,25.9414 -23.524,50.5508 -34.532,76.2106 -6.101,14.18 -26.761,1.95 -20.71,-12.109 10.16,-23.7501 22.539,-46.5196 32.109,-70.4727 z" /><path
             id="path32"
             style="fill:#000000;fill-opacity:1;fill-rule:nonzero;stroke:none"
             d="m 409.77,71.8398 c -10.36,25.9415 -23.52,50.5902 -34.54,76.2112 -6.089,14.179 -26.75,1.961 -20.699,-12.102 10.16,-23.719 22.539,-46.4881 32.11,-70.4685 5.66,-14.1797 28.91,-8.0117 23.129,6.3593 z" /><path
             id="path34"
             style="fill:#000000;fill-opacity:1;fill-rule:nonzero;stroke:none"
             d="m 457.77,95.8711 c -10.348,25.8989 -23.508,50.5389 -34.532,76.1679 -6.09,14.223 -26.758,1.949 -20.738,-12.109 10.199,-23.711 22.539,-46.481 32.148,-70.4691 5.661,-14.1796 28.872,-8.0117 23.122,6.4102 z" /></g></g></g></g></svg>