<?xml version="1.0" encoding="UTF-8" standalone="no"?>
<svg
   xmlns:dc="http://purl.org/dc/elements/1.1/"
   xmlns:cc="http://creativecommons.org/ns#"
   xmlns:rdf="http://www.w3.org/1999/02/22-rdf-syntax-ns#"
   xmlns:svg="http://www.w3.org/2000/svg"
   xmlns="http://www.w3.org/2000/svg"
   viewBox="0 0 473.88 328.11868"
   height="328.11868"
   width="473.88"
   xml:space="preserve"
   id="svg2"
   version="1.1"><metadata
     id="metadata8"><rdf:RDF><cc:Work
         rdf:about=""><dc:format>image/svg+xml</dc:format><dc:type
           rdf:resource="http://purl.org/dc/dcmitype/StillImage" /></cc:Work></rdf:RDF></metadata><defs
     id="defs6"><clipPath
       id="clipPath18"
       clipPathUnits="userSpaceOnUse"><path
         id="path16"
         d="M 0,246.089 H 355.41 V 0 H 0 Z" /></clipPath></defs><g
     transform="matrix(1.3333333,0,0,-1.3333333,0,328.11867)"
     id="g10"><g
       id="g12"><g
         clip-path="url(#clipPath18)"
         id="g14"><g
           transform="translate(304.121,24.1369)"
           id="g20"><path
             id="path22"
             style="fill:#1d1d1b;fill-opacity:1;fill-rule:nonzero;stroke:none"
             d="m 0,0 c -14.972,0 -27.152,12.184 -27.152,27.156 0,5.457 1.621,10.539 4.406,14.801 L -12.363,20.543 9.355,31.078 -1.879,54.238 c 0.621,0.043 1.246,0.071 1.879,0.071 14.973,0 27.152,-12.18 27.152,-27.153 C 27.152,12.184 14.973,0 0,0 m -197.316,83.465 -32.688,13.562 -5.109,11.778 37.797,-17.922 z M -252.832,0 c -14.973,0 -27.152,12.184 -27.152,27.156 0,14.973 12.179,27.153 27.152,27.153 7.442,0 14.192,-3.012 19.102,-7.875 l -22.246,-9.528 9.504,-22.187 20.542,8.801 C -227.715,10.258 -239.094,0 -252.832,0 M 45.637,50.516 c 5.363,-2.532 7.035,2.238 3.711,6.66 0,0 -15.934,28.758 -60.246,22.812 L 2.578,92.371 c 0.981,0.902 1.637,2.102 1.863,3.418 0.582,3.367 0.993,6.629 1.254,9.789 h -10.91 c -9.297,15.57 7.176,26.32 7.176,26.32 1.277,-1.441 2.293,-2.992 3.109,-4.582 -3.07,20.535 -12.859,35.211 -22.082,44.848 -14.406,15.059 -30.285,21.16 -30.953,21.414 -0.695,0.262 -1.414,0.387 -2.129,0.387 -1.746,0 -3.445,-0.754 -4.617,-2.145 -1.648,-1.953 -1.883,-4.738 -0.59,-6.941 6.207,-10.582 9.332,-18.34 10.707,-24.016 l -8.988,1.633 c -3.113,0.563 -6.098,-1.504 -6.664,-4.617 -0.567,-3.113 1.5,-6.098 4.613,-6.664 l 11.156,-2.028 c -0.163,-0.418 -0.339,-0.785 -0.523,-1.105 -2.531,-4.418 -9.023,-4.895 -11.699,-4.895 -0.449,0 -0.817,0.012 -1.074,0.028 -23.317,6.539 -40.161,9.16 -40.872,9.269 -0.015,0.004 -0.035,0.008 -0.05,0.008 -2.892,0.421 -5.756,0.636 -8.53,0.659 l 0.722,7.248 c 1.537,9.787 2.206,12.855 -1.447,18.694 l -4.595,7.345 c -5.934,9.478 -18.451,12.378 -27.952,6.429 l -50.282,-31.482 c -6.156,-3.855 -10.738,-9.839 -12.539,-16.357 l -60.112,-0.544 c -2.328,-0.023 -4.437,-1.383 -5.418,-3.496 l -3.636,-7.844 c -1.395,-3.007 -0.106,-6.574 2.886,-7.992 l 6.317,-2.996 h -7.25 c -2.668,0 -4.828,-2.16 -4.828,-4.824 0,-2.668 2.16,-4.828 4.828,-4.828 h 3.101 L -286.933,89.34 c -1.715,-2.039 -1.454,-5.086 0.585,-6.801 0.907,-0.762 2.008,-1.137 3.106,-1.137 1.375,0 2.742,0.586 3.695,1.719 l 24.739,29.383 h 4.933 l 10.738,-24.754 41.821,-17.352 v -8.367 l -13.352,-5.718 c -9.269,13.363 -24.707,22.136 -42.164,22.136 -28.281,0 -51.289,-23.011 -51.289,-51.293 0,-28.281 23.008,-51.293 51.289,-51.293 28.281,0 51.289,23.008 51.289,51.293 0,2.242 -0.16,4.449 -0.441,6.617 l 13.336,5.711 22.367,-22.367 c 1.164,-1.168 2.711,-1.765 4.269,-1.765 1.168,0 2.344,0.336 3.368,1.027 l 55.515,37.418 c 0.231,0.156 0.453,0.328 0.664,0.516 16.18,14.562 39.824,17.621 56.809,17.621 2.543,0 4.934,-0.071 7.125,-0.184 C -59.477,48.957 -88.836,51.793 -88.836,51.793 l -24.738,-18.441 h 62.672 c -0.246,-2.032 -0.387,-4.098 -0.387,-6.196 0,-28.281 23.008,-51.293 51.289,-51.293 28.281,0 51.289,23.008 51.289,51.293 0,8.41 -2.047,16.348 -5.652,23.36" /></g><g
           transform="translate(231.5273,202.5632)"
           id="g24"><path
             id="path26"
             style="fill:#1d1d1b;fill-opacity:1;fill-rule:nonzero;stroke:none"
             d="M 0,0 C 11.029,6.906 14.369,21.441 7.466,32.463 0.564,43.496 -13.971,46.835 -24.998,39.932 -36.021,33.028 -39.361,18.5 -32.462,7.478 -25.561,-3.555 -11.025,-6.899 0,0" /></g></g></g></g></svg>