<?xml version="1.0" encoding="utf-8"?>
<svg version="1.1" id="notifications-off" xmlns="http://www.w3.org/2000/svg" xmlns:xlink="http://www.w3.org/1999/xlink" x="0px" y="0px"
	 viewBox="0 0 30.6 34" style="enable-background:new 0 0 30.6 34;" xml:space="preserve">
<g>
	<path d="M14.5,34c1.9,0,3.4-1.5,3.4-3.4H11C11,32.5,12.6,34,14.5,34L14.5,34z M25.5,14.5c0-5.3-3.6-9.5-8.5-10.7V2.5
		C17,1.2,15.8,0,14.5,0c-1.4,0-2.5,1.2-2.5,2.5v1.2C11,3.9,10.2,4.2,9.5,4.6l16,16V14.5z M25,28.9l3.4,3.4l2.2-2.2L2.2,1.7L0,3.9
		l4.9,4.9c-1,1.7-1.5,3.6-1.5,5.6v9.3L0,27.2v1.7H25z M25,28.9"/>
</g>
</svg>
