<?xml version="1.0" encoding="utf-8"?>
<svg version="1.1" id="roullette" xmlns="http://www.w3.org/2000/svg" xmlns:xlink="http://www.w3.org/1999/xlink" x="0px" y="0px"
	 viewBox="0 0 382.2 382.2" style="enable-background:new 0 0 382.2 382.2;" xml:space="preserve">
<g>
	<path d="M369.1,121.9c-7.8-20.1-18.9-38.6-32.6-54.7C308,33.8,268.2,10.5,223,2.9C212.6,1.1,202,0,191.1,0s-21.5,1.1-31.9,2.9
		c-45.2,7.6-85,30.9-113.5,64.4C32,83.4,20.9,101.8,13.1,121.9C4.8,143.4,0,166.7,0,191.1C0,213.6,4.1,235,11.2,255
		c7.2,20.4,17.7,39.2,31,55.7c28.7,35.7,70,60.7,117.1,68.7c10.4,1.7,21,2.9,31.9,2.9s21.5-1.1,31.9-2.9
		c47.1-7.9,88.4-32.9,117.1-68.7c13.3-16.5,23.7-35.3,31-55.7c7.1-20,11.2-41.5,11.2-63.9C382.2,166.7,377.5,143.4,369.1,121.9
		L369.1,121.9z M346.7,134.9l-33.4,19.3c-6.3-20.9-17.9-39.5-33.2-54.4l33.7-19.5C328.1,96.1,339.3,114.5,346.7,134.9L346.7,134.9z
		 M293.3,191.1c0,56.3-45.8,102.2-102.2,102.2c-56.3,0-102.2-45.8-102.2-102.2c0-56.3,45.8-102.2,102.2-102.2
		C247.5,88.9,293.3,134.8,293.3,191.1L293.3,191.1z M191.1,25.5c10.9,0,21.5,1.1,31.9,3.1v39c-10.2-2.6-20.8-4.2-31.9-4.2
		c-11,0-21.6,1.6-31.9,4.2v-39C169.6,26.6,180.2,25.5,191.1,25.5L191.1,25.5z M68.4,80.3l33.7,19.5c-15.3,14.9-26.8,33.5-33.2,54.4
		l-33.4-19.3C42.9,114.5,54.1,96,68.4,80.3L68.4,80.3z M33.6,242.1l33.9-19.6c5.4,21.2,16.1,40.4,30.7,55.9l-33.6,19.4
		C50.9,281.6,40.3,262.7,33.6,242.1L33.6,242.1z M191.1,356.7c-10.9,0-21.5-1.1-31.9-3.1v-39c10.2,2.6,20.8,4.2,31.9,4.2
		c11,0,21.7-1.6,31.9-4.2v39C212.6,355.6,202,356.7,191.1,356.7L191.1,356.7z M317.6,297.8l-33.6-19.4
		c14.6-15.5,25.3-34.6,30.7-55.9l33.9,19.6C341.9,262.7,331.3,281.6,317.6,297.8L317.6,297.8z M317.6,297.8"/>
	<path d="M201.9,177.2c-16.3-6.1-22.9-10.1-22.9-16.4c0-5.3,4-10.7,16.4-10.7c7.2,0,13,1.2,17.6,2.6c2.6,0.8,5.5,0.5,7.9-0.8
		c2.4-1.3,4.1-3.6,4.8-6.3l0.2-0.7c1.6-6.1-2.1-12.3-8.2-13.9c-4.7-1.2-10.2-2.1-17-2.4v-7.2c0-4.9-3.6-9.1-8.5-9.6
		c-5.6-0.5-10.3,3.9-10.3,9.3v8.8c-20.5,4-32.3,17.2-32.3,34c0,18.5,13.9,28.1,34.4,35c14.1,4.8,20.3,9.4,20.3,16.6
		c0,7.6-7.5,11.9-18.4,11.9c-7.8,0-15.2-1.6-21.5-3.8c-2.7-1-5.6-0.7-8.1,0.6c-2.5,1.3-4.3,3.6-5,6.4l-0.1,0.3
		c-1.7,6.5,2.1,13.2,8.5,15.1c6.3,1.9,13.7,3.2,21.3,3.6v8.5c0,5.2,4.2,9.4,9.4,9.4c5.2,0,9.4-4.2,9.4-9.4v-9.9
		c22-3.8,34-18.3,34-35.4C233.8,195.8,224.7,185.3,201.9,177.2L201.9,177.2z M201.9,177.2"/>
</g>
</svg>
