<?xml version="1.0" encoding="UTF-8" standalone="no"?>
<svg
   xmlns:dc="http://purl.org/dc/elements/1.1/"
   xmlns:cc="http://creativecommons.org/ns#"
   xmlns:rdf="http://www.w3.org/1999/02/22-rdf-syntax-ns#"
   xmlns:svg="http://www.w3.org/2000/svg"
   xmlns="http://www.w3.org/2000/svg"
   viewBox="0 0 32 25.333332"
   height="25.333332"
   width="32"
   xml:space="preserve"
   id="svg2"
   version="1.1"><metadata
     id="metadata8"><rdf:RDF><cc:Work
         rdf:about=""><dc:format>image/svg+xml</dc:format><dc:type
           rdf:resource="http://purl.org/dc/dcmitype/StillImage" /></cc:Work></rdf:RDF></metadata><defs
     id="defs6"><clipPath
       id="clipPath20"
       clipPathUnits="userSpaceOnUse"><path
         id="path18"
         d="m 0,5.78906 h 240 v 180 H 0 Z" /></clipPath></defs><g
     transform="matrix(1.3333333,0,0,-1.3333333,0,25.333333)"
     id="g10"><g
       transform="scale(0.1)"
       id="g12"><g
         id="g14"><g
           clip-path="url(#clipPath20)"
           id="g16"><path
             id="path22"
             style="fill:#000000;fill-opacity:1;fill-rule:nonzero;stroke:none"
             d="m 240,122.512 c -0.699,-10.5 -11.91,-10.043 -11.91,-10.043 -6.18,0.98 -9.219,10.633 -11.918,14.543 -6.602,9.597 -10.973,3.976 -12.383,1.207 -7.617,-15.117 -17.461,-20.547 -21.211,-28.168 -1.68,-3.4026 -0.508,-11.4026 -0.738,-15.2307 -0.668,-12.1484 10.5,-18.3594 10.5,-18.3594 17.859,-10.2421 20.512,-43.1328 20.512,-43.1328 4.257,-12.4179 -1.68,-12.4179 -1.68,-12.4179 l -8.363,7.4179 c -3.789,5.711 2.89,6.8828 2.89,6.8828 -1.437,1.6797 -2.179,3.1172 -2.179,3.1172 -5,31.9219 -18.399,30.2422 -25,32.1524 -9.071,2.6211 -10.239,-0.6992 -10.239,-0.6992 -2.152,-16.211 -12.89,-25.2696 -12.89,-25.2696 -11.442,-16.4531 -18.832,-15.75 -18.832,-15.75 -3.079,-0.2304 -6.438,-1.6406 -6.438,-1.6406 -14.301,-7.15235 -9.5,1.4102 -9.5,1.4102 l 4.77,6.6796 c 5.468,4.5274 6.64,-0.4726 6.64,-0.4726 9.297,1.1719 18.36,13.5898 18.36,13.5898 10.507,16.6836 3.589,30.9805 3.589,30.9805 C 114.41,61.4609 96.7617,74.5391 96.7617,74.5391 86.2891,81.2188 81.9883,62.6289 81.9883,62.6289 76.5195,51.6484 77.9297,45.7188 77.9297,45.7188 L 98.6719,29.2695 C 109.18,21.8906 106.289,11.6094 106.289,11.6094 l -9.9999,3.832 c -5,1.6797 -0.6993,7.1484 -0.6993,7.1484 -3.1289,1.6797 -22.1914,15.5118 -22.1914,15.5118 -14.0586,5.5078 -7.3789,15 -7.3789,15 C 72.9297,68.3711 66.25,67.1992 66.25,67.1992 62.6992,63.1406 53.4414,59.1094 48.6289,57.6719 31.5586,52.3984 31.7188,33.5703 31.7188,33.5703 29.0586,17.1211 19.8008,14.0391 19.8008,14.0391 12.6211,5.71875 11.6797,12.8594 11.6797,12.8594 l 1.9101,9.7695 c 1.1797,6.4492 6.4493,3.3594 6.4493,3.3594 5.6992,5.7031 7.4609,22.6211 8.082,30.4726 0.6289,7.6172 4.0273,8.3985 6.6797,9.5704 4.0273,1.7187 15.2383,8.5468 15.2383,8.5468 C 37.1914,96.9688 47.6602,113.68 47.6602,113.68 37.1914,113.68 35.2695,100.328 30.9805,96.0313 13.8281,78.8789 0,72.7109 0,72.7109 8.12109,127.98 55.7813,120.359 55.7813,120.359 c 7.6171,6.653 20.8593,7.5 28.1289,7.153 6.25,-0.313 12.0312,-0.313 17.5388,-0.153 -13.8279,10.11 1.672,31.172 1.672,31.172 15.277,18.59 40.75,15.778 40.75,15.778 8.629,12.5 15.078,12.461 20.508,10.55 10.23,-3.558 8.82,-17.699 8.82,-17.699 l 2.821,-3.629 -6.02,1.047 c 0,-1.476 -5.199,-5.387 -5.199,-5.387 l -0.422,-2.582 -4.301,-0.847 c -4.098,-4.114 -9.726,1.316 -9.726,1.316 1.097,-4.566 -3.672,-10.148 -3.672,-10.148 -1.602,-5.782 0.429,-9.379 3.871,-11.571 10.969,3.75 16.289,7.391 16.289,7.391 25.269,30.512 46.711,23.359 46.711,23.359 l 6.918,9.532 -0.739,-13.129 5.739,11.207 -1.168,-12.848 c 6.168,-1.211 6.168,-5.742 6.168,-5.742 -4.77,2.851 -3.559,-1.449 -3.559,-1.449 4.262,-3.782 13.09,-31.168 13.09,-31.168 z" /></g></g></g></g></svg>