<?xml version="1.0" encoding="UTF-8" standalone="no"?>
<svg
   xmlns:dc="http://purl.org/dc/elements/1.1/"
   xmlns:cc="http://creativecommons.org/ns#"
   xmlns:rdf="http://www.w3.org/1999/02/22-rdf-syntax-ns#"
   xmlns:svg="http://www.w3.org/2000/svg"
   xmlns="http://www.w3.org/2000/svg"
   viewBox="0 0 135.996 59.417198"
   height="59.417198"
   width="135.996"
   xml:space="preserve"
   id="svg2"
   version="1.1"><metadata
     id="metadata8"><rdf:RDF><cc:Work
         rdf:about=""><dc:format>image/svg+xml</dc:format><dc:type
           rdf:resource="http://purl.org/dc/dcmitype/StillImage" /></cc:Work></rdf:RDF></metadata><defs
     id="defs6"><clipPath
       id="clipPath18"
       clipPathUnits="userSpaceOnUse"><path
         id="path16"
         d="M 0,44.563 H 101.997 V 0 H 0 Z" /></clipPath></defs><g
     transform="matrix(1.3333333,0,0,-1.3333333,0,59.4172)"
     id="g10"><g
       id="g12"><g
         clip-path="url(#clipPath18)"
         id="g14"><g
           transform="translate(17.1252,6.9585)"
           id="g20"><path
             id="path22"
             style="fill:#ffffff;fill-opacity:1;fill-rule:nonzero;stroke:none"
             d="m 0,0 c -5.408,0 -9.792,4.384 -9.792,9.792 0,5.407 4.384,9.791 9.792,9.791 5.408,0 9.792,-4.384 9.792,-9.791 C 9.792,4.384 5.408,0 0,0 m 40.542,5.475 c -7.286,4.015 -15.166,6.223 -24.41,7.051 -1.308,7.947 -8.19,14.016 -16.507,14.016 -9.251,0 -16.75,-7.5 -16.75,-16.75 0,-9.251 7.499,-16.75 16.75,-16.75 4.337,0 8.277,1.662 11.251,4.367 l 0.007,-0.019 c 0,0 20.659,5.318 32.992,1.985 3.833,-1.167 4.121,1.992 -3.333,6.1" /></g><g
           transform="translate(85.2468,6.9551)"
           id="g24"><path
             id="path26"
             style="fill:#ffffff;fill-opacity:1;fill-rule:nonzero;stroke:none"
             d="m 0,0 c -1.8,0 -3.49,0.49 -4.94,1.34 -2.9,1.7 -4.85,4.85 -4.85,8.46 0,1.18 0.21,2.31 0.59,3.35 1.37,3.76 4.98,6.44 9.2,6.44 5.41,0 9.8,-4.39 9.8,-9.79 C 9.8,4.39 5.41,0 0,0 m 0,26.55 c -7.3,0 -13.51,-4.67 -15.8,-11.19 -6.28,3.353 -10.638,5.175 -20.619,7.527 5.867,5.153 12.005,10.993 20.005,7.993 8,-3 9,3.833 -0.584,6.094 -6.769,1.597 -12.912,0.236 -20.412,-4.764 -7.5,-5 -14.67,-13.33 -14.67,-13.33 0,0 25.811,-4.667 40.24,-20.92 l 0.18,-0.18 c 3.01,-2.93 7.13,-4.73 11.66,-4.73 9.25,0 16.75,7.5 16.75,16.75 0,9.25 -7.5,16.75 -16.75,16.75" /></g></g></g></g></svg>