<svg xmlns="http://www.w3.org/2000/svg" viewBox="0 0 252.39 298.52"><defs><style>.cls-1{fill:#1c63b7;}.cls-2{fill:#fff;}</style></defs><title>1899_Hoffenheim</title><g id="Слой_2" data-name="Слой 2"><g id="Слой_1-2" data-name="Слой 1"><g id="layer1"><g id="g3799"><g id="g194"><path id="path196" class="cls-1" d="M126.07,297.51l-3.22-6c-.15-.28-12.93-22.44-61-35.08C8.21,242.36.41,183.65.48,183.1l.16-1.2.82-.88c23.36-24.94,34.37-49.58,32.73-73.22-2.07-29.87-24.14-48-24.37-48.17L7.67,57.89l1-2.58L23,19.84l3.74,2.33a75.35,75.35,0,0,0,35.93,9c21.88,0,42.34-9.37,60.8-27.87L126.11.69l2.63,2.63c18.46,18.5,38.91,27.87,60.79,27.87a75.17,75.17,0,0,0,35.94-9l3.74-2.3,15.36,38-2.17,1.74c-.22.18-22.29,18.3-24.36,48.17-1.62,23.27,9,47.5,31.63,72l1,1.12,1.19,1.24c.25,2-2.77,18-11,33.2-8,14.74-23.22,33.83-50.5,41.07-48.13,12.76-60.88,34.87-61,35.09ZM8.14,184.78c1.71,8.93,12.27,53.07,55.6,64.46,38.64,10.16,55.91,26.25,62.38,34.12,6.48-7.85,23.75-23.88,62.36-34.12,43.23-11.46,54-56,55.63-64.44-24-26.09-35.29-52.22-33.49-77.64,2-27.74,18.94-45.86,25-51.51L225.51,30.58a84.15,84.15,0,0,1-36,8.09c-22.87,0-44.19-9.25-63.42-27.5-19.22,18.25-40.55,27.5-63.42,27.5a84.2,84.2,0,0,1-36-8.09L16.59,55.65c6.08,5.65,23,23.77,25,51.51,1.81,25.41-9.45,51.51-33.46,77.62"/></g><g id="g198"><path class="cls-1" d="M126.06,298.52l-3.64-6.74c-.12-.22-12.82-22.25-60.69-34.84C7.68,242.72-.07,183.59,0,183l.18-1.36.93-1c23.26-24.83,34.23-49.34,32.59-72.85C31.63,78,9.74,60.19,9.52,60L7.08,58l1.17-2.91,14.53-36L27,21.75a75.25,75.25,0,0,0,35.67,9c21.75,0,42.09-9.33,60.45-27.73l3-3,3,3c18.37,18.4,38.71,27.73,60.45,27.73a74.46,74.46,0,0,0,35.69-9l4.22-2.6,15.72,38.9-2.46,2c-.22.18-22.11,18.07-24.18,47.82-1.6,23.13,9,47.25,31.51,71.68l2.32,2.47,0,.16c.26,2-2.78,18.18-11.06,33.49-8,14.83-23.36,34-50.81,41.31-47.8,12.67-60.58,34.64-60.7,34.86ZM1.1,182.12l-.14,1a101.71,101.71,0,0,0,10.69,31.68C19.48,229.64,34.56,248.79,62,256c48.4,12.73,61.17,35.09,61.3,35.32l2.8,5.18,2.87-5.18c.12-.22,12.92-22.5,61.3-35.32,27.12-7.19,42.27-26.18,50.2-40.83s11.07-30.26,11-32.76l-2.11-2.24c-22.7-24.64-33.38-49-31.76-72.41,2.11-30.27,24.32-48.33,24.54-48.51L244,57.74,229,20.58l-3.25,2a75.45,75.45,0,0,1-36.19,9.1c-22,0-42.58-9.43-61.13-28l-2.29-2.28-2.28,2.28c-18.55,18.59-39.12,28-61.14,28a76.44,76.44,0,0,1-36.18-9.1l-3.26-2-15,37.17,1.88,1.52c.22.17,22.46,18.54,24.54,48.51,1.65,23.79-9.4,48.55-32.85,73.59Zm125,102-.37-.46c-6.91-8.39-24.15-24-62.13-34-43.68-11.48-54.27-56-55.95-64.84l0-.24.16-.18c23.92-26,35.13-52,33.34-77.25C39.19,80.06,23.09,62.36,16.26,56L16,55.78,26.46,29.92l.46.22a83.53,83.53,0,0,0,35.77,8c22.73,0,44-9.21,63.09-27.36l.33-.32.34.32C145.58,29,166.8,38.18,189.53,38.18a83.49,83.49,0,0,0,35.77-8l.47-.22,10.44,25.86L236,56c-6.83,6.35-22.93,24.05-24.86,51.19-1.79,25.27,9.43,51.27,33.35,77.27l.17.18,0,.24c-1.71,8.8-12.44,53.28-56,64.82-38,10.07-55.21,25.6-62.1,34ZM8.67,184.92c1.8,9.25,12.46,52.61,55.2,63.85,37.57,9.88,55,25.25,62.25,33.84,7.21-8.55,24.67-23.88,62.23-33.84,42.6-11.29,53.4-54.58,55.23-63.82-24-26.14-35.25-52.33-33.44-77.82,1.93-27.16,17.87-45,24.92-51.61l-9.8-24.28a84.71,84.71,0,0,1-35.73,7.91c-22.85,0-44.19-9.19-63.42-27.31C106.88,30,85.55,39.15,62.69,39.15A84.7,84.7,0,0,1,27,31.24l-9.8,24.28c7,6.62,23,24.45,24.92,51.61C43.9,132.6,32.65,158.78,8.67,184.92Z"/></g><g id="g202"><path id="path204" class="cls-2" d="M126.11,287.56s-12.55-23.28-62.75-36.43S5.18,182.76,5.26,182.76c70.65-75.13,7.9-125.21,7.9-125.21l12.55-31s50.2,31,100.4-19.12c50.2,50.08,100.41,19.12,100.41,19.12l12.55,31s-62.76,50.08,7.9,125.21c.29,0-7.9,55.12-58.1,68.37s-62.76,36.43-62.76,36.43"/></g><g id="g206"><path id="path208" class="cls-1" d="M50.43,245.8C9.12,228.52,5.19,182.75,5.26,182.75c70.66-75.12,7.9-125.2,7.9-125.2l12.56-31s50.2,31,100.4-19.12c50.19,50.08,100.39,19.12,100.39,19.12l3.55,7.24"/></g><g id="g210"><path id="path212" class="cls-2" d="M76.89,200.36l3.25-3.87L65.16,184l4.48-5.32-3-2.5L54.45,190.65l3,2.5,4.48-5.33Zm3-15.14c1.76,1.43,6.22,5.08,12-1.78,4.17-5,3.81-9.82.58-12.52-3.5-2.94-6.91-.59-10.26,1.88-2.82,2-4.22,3.1-5.88,1.71-1.47-1.23-1.46-3.2,0-5a3.49,3.49,0,0,1,5.18-.61l3.1-3.69a6.69,6.69,0,0,0-4.18-1.77c-2.82-.08-5.09,1.77-6.66,3.63-4.19,5-3.35,9.27-.39,11.75s6.33,1.33,11-2c2.46-1.82,3.67-2.71,5.27-1.38s1.4,3.41-.35,5.5c-2.77,3.29-5.29,1.1-6.13.39Zm21.37-39a7.2,7.2,0,0,0-4.83-1.85c-2.81.06-5.45,1.9-7.39,4.21-4.57,5.42-4.5,12.24,1.86,17.56,1.89,1.58,5.06,3.6,8.71,3.24,2.58-.25,5.34-1.53,8.78-5.62a23.74,23.74,0,0,0,4.51-7.37l-9-7.51-6.16,7.31,3,2.5,2.91-3.47,3.78,3.16a11.32,11.32,0,0,1-2.11,3.22c-1.79,2.13-3.34,2.86-5.08,2.92-2.52.13-4.86-1.53-6.08-2.55-2.75-2.3-6.1-6.58-2.43-10.95a4.07,4.07,0,0,1,6.15-.81Zm10.26-9.82a24.4,24.4,0,0,0,1.18-5.89l13.49,11.29,3.15-3.75L112,123.54l-2.69,3.2A31.37,31.37,0,0,1,108,133.5Zm13.75-11.94a7.25,7.25,0,0,0-.62,3.37,5.25,5.25,0,0,0,2,3.8c2.78,2.33,7.08,1.79,10-1.73s3.48-7.9.3-10.56a5.71,5.71,0,0,0-3.26-1.37,6,6,0,0,0-4.12,1.27,5.08,5.08,0,0,0-.94-6.57c-2.71-2.27-6.72-1.53-9.64,1.94-3.54,4.21-2.29,8.26-.18,10,2.68,2.25,5.45.46,6.45-.18m.82-3.83a2.83,2.83,0,0,1-4.11.36,2.79,2.79,0,0,1-.27-4.07,2.83,2.83,0,0,1,4.1-.49,2.87,2.87,0,0,1,.28,4.2m8.12,6.8a3.35,3.35,0,0,1-5.16-4.28,3.35,3.35,0,0,1,5.16,4.28m5-9.67c4.55,3.81,8.24-.58,9.05-1.55,3.52-4.18,3.52-8.41-3.81-14.54-2.78-2.33-8.57-6.92-13.57-1-3.21,3.82-2.69,8.18.54,10.89,2.06,1.72,6.36,3.46,9.92-.78a5.54,5.54,0,0,0,1.43-4.12c2.45,1.92,5,4.37,2.8,6.95a2.25,2.25,0,0,1-3.21.39Zm-.16-10c-1.82,2.16-4.1.54-4.69,0-1.32-1.1-2.2-2.93-.72-4.69,1.27-1.51,3.06-1.37,4.58-.1,1.21,1,2.37,2.92.83,4.75m12.17-4.25c4.54,3.8,8.23-.59,9-1.55,3.53-4.19,3.52-8.41-3.8-14.55-2.78-2.33-8.57-6.92-13.57-1-3.22,3.81-2.69,8.18.54,10.88,2.06,1.73,6.35,3.46,9.92-.77a5.6,5.6,0,0,0,1.43-4.12c2.45,1.92,5,4.36,2.79,6.94a2.24,2.24,0,0,1-3.21.39l-3.14,3.75Zm-.17-10c-1.81,2.15-4.09.54-4.69,0-1.32-1.1-2.19-2.93-.71-4.69,1.27-1.51,3.06-1.37,4.57-.1,1.22,1,2.38,2.91.83,4.75"/></g><g id="g214"><path id="path216" class="cls-1" d="M105.58,226.65l-8.19-6.87,5.27-6.27,8.2,6.87,1.92-2.28-17.94-15-1.92,2.28,7.75,6.49-5.27,6.27-7.75-6.49-1.92,2.28,17.94,15Zm12-17.1c-1.77,2.11-3.68,1.4-7.75-2-3.43-2.87-3.28-4.56-2-6.12s3-2,6.38.87c4.07,3.41,5.1,5.16,3.33,7.26m1.66,1.39c2.23-2.65,3.21-5.42-2.33-10.06-3.68-3.08-7.06-5.19-10.71-.85s-1,7.29,2.71,10.37c5.53,4.64,8.1,3.2,10.33.54m-7.39-17.12,1.54,1.28,1.63-1.93,11,9.22,1.71-2-11-9.21,2.13-2.53-1.54-1.29-2.13,2.53L113,188.06c-1-.85-1.63-2,.33-4l-1.46-1.23a7.06,7.06,0,0,0-.89.91c-1.52,1.8-2.52,4,0,6.13l2.44,2Zm5.79-6.89,1.54,1.29,1.63-1.94,11,9.21,1.71-2-11-9.21,2.12-2.53-1.53-1.29L121,183l-2.14-1.79c-1-.85-1.62-2,.34-4l-1.47-1.23a6.46,6.46,0,0,0-.88.91c-1.52,1.8-2.53,4,0,6.12l2.44,2Zm13.75-5.43c-3.45-2.93-3.18-4.52-2.1-5.81,1.25-1.49,2.56-2.13,6.21.93Zm7.46-5.75-1.07-.89c-4.15-3.47-6.86-4.22-9.86-.66-3.65,4.34-1,7.3,2.71,10.38,5.54,4.63,8.1,3.19,10.33.54s2.38-5.4-.38-7.75l-1.87,2.23c1.2,1.14,1.71,2.79.55,4.18-1.34,1.58-2.83,1.94-6.33-1Zm15.45-7-8.69-7.28c-2.48-2.08-4.66-2.76-6.91-.09a4.29,4.29,0,0,0-.95,4.91l-.09.1L136,165l-1.81,2.16c.93.65,1.84,1.33,2.71,2.06l9.93,8.32,1.71-2-7.43-6.22c-1.71-1.44-3.42-3.42-1.55-5.65,1.46-1.74,2.95-1.29,4.29-.17l8.69,7.28,1.71-2Zm10-11.9-8.89-7.44c-2.84-2.37-4.91-2.08-6.7.05-1.37,1.64-1.77,2.91-1,5l-.08.1-7-5.87-1.71,2,17.94,15,1.71-2-7.38-6.17c-2.11-1.77-3.31-3.66-1.6-5.69,1.45-1.74,3-1.32,4.5,0l8.5,7.11ZM161,146.31c-3.46-2.93-3.18-4.52-2.1-5.81,1.25-1.49,2.56-2.13,6.21.93Zm7.46-5.75-1.07-.89c-4.15-3.48-6.86-4.23-9.86-.66-3.65,4.34-1,7.3,2.7,10.38,5.54,4.63,8.11,3.19,10.34.54s2.38-5.4-.38-7.75l-1.88,2.23c1.21,1.13,1.72,2.79.55,4.18-1.33,1.58-2.82,1.94-6.32-1Zm-2.84-10.66-1.72,2,12.55,10.51,1.71-2Zm-5-.52,1.91-2.28-2.18-1.83-1.92,2.28Zm27.4-.67-8.45-7.07c-.47-.4-1.63-1.54-1.63-2.55a2.41,2.41,0,0,1,.82-1.93c1.38-1.63,2.84-1,4.1.06l8.7,7.27,1.71-2-9.54-8c-3-2.48-5-.62-6.13.69a3.91,3.91,0,0,0-.89,4.33,4,4,0,0,0-4.07,1.57c-1.23,1.46-1.65,2.92-.81,4.64l-.05.05-1.56-1.31-1.81,2.16c.93.65,1.84,1.33,2.71,2.06L181,137l1.72-2-8.45-7.07a4.87,4.87,0,0,1-1.44-2,3.06,3.06,0,0,1,.63-2.47c1.38-1.63,2.84-1,4.1.06l8.7,7.28,1.71-2Z"/></g><g id="g218"><path id="path220" class="cls-2" d="M248.84,182.7c.09.7-2.06,15.11-10.63,30.92-7.71,14.23-22.43,32.64-48.74,39.61-49.35,13-62.15,35.83-62.27,36.06l-1.08,2-1.09-2c-.13-.23-13.06-23.15-62.27-36.06-26.43-6.94-41.14-25.52-48.83-39.88C5.58,197.76,3.41,183.62,3.48,183l0-.4.28-.29c23.78-25.35,35-50.49,33.24-74.73C34.86,76.8,12.11,58.27,11.88,58.09l-.72-.58,13.5-33.38,1.24.77A77.34,77.34,0,0,0,63,34.24c22.46,0,43.41-9.56,62.27-28.42l.87-.87.88.87c18.86,18.86,39.81,28.42,62.26,28.42a77.1,77.1,0,0,0,37.07-9.34l1.25-.77,13.5,33.38-.72.58c-.23.18-23,18.77-25.17,49.55-1.7,24.11,9.36,49.11,32.87,74.31ZM6,183.6c.9,5.55,10.27,54.87,57.38,67.23,43.07,11.31,58.76,29.83,62.73,35.56,4-5.72,19.66-24.17,62.71-35.56,47.1-12.46,56.61-62.19,57.4-67.21-24-25.74-35.28-51.36-33.51-76.19,2-28.73,21.41-47.17,25.38-50.67l-11.74-29a80.2,80.2,0,0,1-37.11,9c-22.79,0-44-9.51-63.14-28.28C107,27.2,85.76,36.71,63,36.71a80.14,80.14,0,0,1-37.1-9l-11.74,29c4,3.5,23.33,21.94,25.38,50.67C41.28,132.25,30,157.88,6,183.6"/></g><g id="g222"><path class="cls-2" d="M126.12,291.8l-1.3-2.39c-.13-.23-13.29-23.13-62.12-36-26.52-7-41.27-25.59-49-40C5.33,197.81,3.16,183.59,3.24,183l.06-.47.33-.35c23.73-25.29,34.89-50.37,33.17-74.55C34.64,77.16,12,58.46,11.73,58.27l-.87-.68.07-.17L24.54,23.77l1.49.92A77.42,77.42,0,0,0,63,34c22.4,0,43.29-9.53,62.1-28.34l1-1.05,1,1.05C146,24.46,166.86,34,189.25,34a77.2,77.2,0,0,0,36.95-9.3l1.49-.92.1.27,13.57,33.55-.86.68c-.23.19-22.92,18.9-25.08,49.39-1.7,24,9.34,49,32.81,74.12l.84.8v.09c.1.71-2,15-10.66,31.07-7.73,14.26-22.49,32.73-48.89,39.72-49.18,13-62,35.72-62.12,36ZM3.76,182.74l0,.32c-.05.75,2.12,14.65,10.42,30.17,7.67,14.32,22.34,32.84,48.69,39.76,49,12.87,62.28,35.95,62.41,36.18l.88,1.61.87-1.6c.12-.23,13-23.12,62.41-36.19,26.24-6.94,40.91-25.3,48.59-39.48,8.29-15.28,10.58-29.35,10.61-30.7l-.71-.69c-23.58-25.25-34.66-50.32-32.95-74.5,2.17-30.69,25-49.54,25.26-49.72l.58-.47L227.45,24.49l-1,.61a77.52,77.52,0,0,1-37.2,9.38c-22.52,0-43.53-9.58-62.44-28.49l-.7-.7-.7.7C106.51,24.9,85.5,34.48,63,34.48a78,78,0,0,1-37.19-9.37l-1-.62L11.45,57.43l.58.46c.94.77,23.08,19,25.26,49.7C39,131.9,27.81,157.11,4,182.5ZM126.12,286.82l-.2-.29c-3.77-5.45-19.43-24.14-62.59-35.46C15.94,238.63,6.67,189.23,5.77,183.64l0-.12.09-.09c23.94-25.67,35.19-51.23,33.43-76-2-28.67-21.44-47.11-25.3-50.51l-.13-.12L25.75,27.38l.23.13a80.27,80.27,0,0,0,37,9c22.72,0,43.91-9.49,63-28.21l.17-.17.17.17c19.07,18.72,40.26,28.21,63,28.21a80.23,80.23,0,0,0,37-9l.24-.13.1.25,11.81,29.19-.13.12c-3.87,3.4-23.26,21.85-25.3,50.51-1.76,24.75,9.49,50.33,33.45,76l.08.09v.12c-.36,2.22-9.18,54.6-57.58,67.41-43.14,11.41-58.81,30-62.58,35.46ZM6.27,183.68c1,6.1,10.41,54.64,57.18,66.92,42.6,11.18,58.54,29.54,62.67,35.37,4.13-5.81,20.07-24.11,62.65-35.37C236.22,238,245.4,187.19,246,183.7c-24-25.75-35.27-51.42-33.5-76.29,2-28.54,21.15-47,25.33-50.72L226.23,28.07a80.93,80.93,0,0,1-37,8.89c-22.78,0-44-9.49-63.14-28.19C107,27.47,85.76,37,63,37a81,81,0,0,1-37-8.89L14.42,56.69c4.17,3.7,23.3,22.17,25.33,50.72C41.52,132.28,30.26,157.94,6.27,183.68Z"/></g></g></g></g></g></svg>