<svg xmlns="http://www.w3.org/2000/svg" viewBox="0 0 183.59 297.53"><defs><style>.cls-1{fill:#fff;stroke-width:14px;}.cls-1,.cls-4,.cls-5{stroke:#000;}.cls-2,.cls-4,.cls-5{fill:none;stroke-width:5px;}.cls-2{stroke:#fb090b;}.cls-3{fill:#fb090b;}.cls-4{stroke-linecap:square;}</style></defs><title>Milan</title><g id="Слой_2" data-name="Слой 2"><g id="Layer_1" data-name="Layer 1"><path class="cls-1" d="M91.8,290.53c46.23,0,84.79-63.43,84.79-141.76S137.92,7,91.8,7,7,70.43,7,148.77,45.56,290.53,91.8,290.53Z"/><path class="cls-2" d="M91.47,290.09c46.23,0,84.8-63.43,84.8-141.76S137.7,6.56,91.47,6.56,6.78,70.1,6.78,148.33,45.24,290.09,91.47,290.09Z"/><polygon points="77.23 226.66 77.23 72.63 62.98 72.63 62.98 221.18 77.23 226.66"/><polygon class="cls-3" points="62.98 221.18 62.98 72.63 48.74 81.39 48.74 215.71 62.98 221.18"/><polygon points="48.74 215.71 48.74 81.39 34.5 92.34 34.5 204.75 48.74 215.71"/><polygon class="cls-3" points="34.5 204.75 34.5 92.34 20.26 114.26 20.26 182.84 34.5 204.75"/><polygon points="20.26 185.03 20.26 110.97 13.68 127.4 13.68 171.88 20.26 185.03"/><line class="cls-4" x1="118.86" y1="75.8" x2="118.86" y2="221.18"/><line class="cls-4" x1="138.58" y1="86.21" x2="138.58" y2="210.78"/><line class="cls-4" x1="94.21" y1="157.64" x2="168.6" y2="157.64"/><line class="cls-4" x1="94.21" y1="138.47" x2="168.6" y2="138.47"/><polygon class="cls-3" points="171.88 141.21 135.84 141.21 135.84 84.68 121.6 75.91 121.6 141.21 91.47 141.21 91.47 68.24 77.23 70.43 77.23 226.66 91.47 226.66 91.47 155.45 121.6 155.45 121.6 221.18 135.84 215.71 135.84 155.45 171.88 155.45 171.88 141.21"/><line class="cls-4" x1="94.21" y1="70.32" x2="94.21" y2="226.99"/><circle class="cls-5" cx="91.47" cy="148.33" r="78.99"/><path d="M51.7,231.59l.77.22c4.93,1.75,7-.11,7.77-1.75l4.17,1.53L56,255l-5-1.87,5.81-16.1-6.14-2.19Z"/><path d="M75.8,244.41a3.17,3.17,0,0,1-3-3.62C73.06,239,74.6,238,77,238.27a2.92,2.92,0,0,1,2.63,3.51A3.11,3.11,0,0,1,75.8,244.41ZM84,253.17c.44-3.17-.77-4.93-3.18-6.57a5.26,5.26,0,0,0,3.84-4.49c.54-3.4-2-6.9-7.56-7.67-4.71-.77-8.77,1.21-9.43,5.48a5.18,5.18,0,0,0,2.52,5.37,6.2,6.2,0,0,0-5,5.58c-.54,3.4,1.32,7.89,8.22,8.88C80.62,260.84,83.47,256.24,84,253.17Zm-5.59-.65a3.7,3.7,0,0,1-4.49,3.28,3.63,3.63,0,0,1-3.29-4.49A3.71,3.71,0,0,1,75,248C78.1,248.57,78.76,250.76,78.43,252.52Z"/><path d="M94.21,243.64c-.33-3.61,2.19-4.38,3.5-4.49,2.74-.22,4.28,1.43,4.49,4.27a3.86,3.86,0,0,1-3.61,4.5C96.62,248,94.54,247.48,94.21,243.64Zm-3.95,11.29c.77,3.94,4.39,6,9,5.69,4.93-.43,9.64-3.94,8.87-13.58-.33-3.51-1.2-12.71-10.63-11.94-5.36.44-9.09,3.61-8.54,9.64.33,4.16,3.72,7.56,8.87,7.12a6.17,6.17,0,0,0,5-2.52l.11.11c.44,5.26-1.64,7.12-3.94,7.34a3,3,0,0,1-3.4-2.19h0Z"/><path d="M117.21,239.92c-1.2-3.4,1-4.82,2.3-5.26,2.63-.88,4.5.33,5.37,3.07a3.92,3.92,0,0,1-2.41,5.26C120.61,243.64,118.42,243.53,117.21,239.92Zm-1.09,11.94c1.75,3.61,5.7,4.82,10.08,3.29,4.71-1.65,8.43-6.14,5.26-15.34-1.1-3.29-4.28-12.05-13.26-9-5,1.76-7.89,5.7-5.92,11.51,1.32,3.94,5.37,6.35,10.41,4.71a6,6,0,0,0,4.27-3.73h.11c1.65,4.93.11,7.34-2.08,8a2.91,2.91,0,0,1-3.83-1.31h0Z"/><path d="M92.78,29.79c-7.56.11-14.35,6.13-14.13,13.36S85.55,56.08,93.22,56A14.88,14.88,0,0,0,103,52.25l3.84,3.5A20.9,20.9,0,0,1,93.22,61c-11,.22-20-7.78-20.27-17.75S81.5,25,92.67,24.75a19.48,19.48,0,0,1,13.59,4.82l-3.73,3.61A13.6,13.6,0,0,0,92.78,29.79Z"/><polygon points="115.57 31.1 106.81 61.67 111.19 62.76 116.67 45.23 121.05 66.05 123.13 66.05 128.72 52.9 135.4 72.73 141.75 77.12 131.9 43.15 127.95 40.85 123.68 52.36 119.84 33.29 115.57 31.1"/><path d="M75.69,61.78,67.26,31.1l-7.45,4.28L38.88,78.1l8.55-5.48L52.9,61.56,68,55.86l2.19,7.45ZM55.64,55l8.22-16.55L66.71,50.6Z"/></g></g></svg>