<svg xmlns="http://www.w3.org/2000/svg" viewBox="0 0 300 300"><defs><style>.cls-1{fill:#fff;}.cls-2{fill:#d2122e;}</style></defs><title>Ресурс 1</title><g id="Слой_2" data-name="Слой 2"><g id="Layer_1" data-name="Layer 1"><path class="cls-1" d="M150,300A150,150,0,1,0,0,150,150,150,0,0,0,150,300Z"/><path class="cls-2" d="M274.19,175.11a125.69,125.69,0,0,0,1.87-12.46q.62-6.17.62-12.65A126.7,126.7,0,0,0,150,23.32h-1.54l-.06-4.93H150A131.62,131.62,0,0,1,281.61,150q0,6.57-.65,13.13t-1.93,13l-4.84-1Z"/><path class="cls-2" d="M269.67,174.22c.79-3.95,1.4-8,1.8-12s.6-8.07.6-12.2A122.08,122.08,0,0,0,150,27.93h-1.64V26.71H150A123.32,123.32,0,0,1,273.31,150q0,6.23-.61,12.32c-.41,4.12-1,8.18-1.82,12.14l-1.21-.24Z"/><path class="cls-2" d="M282.31,176.86a134.7,134.7,0,0,0,2-13.33q.66-6.66.67-13.53A135,135,0,0,0,150,15h-1.64V13.79H150A136.23,136.23,0,0,1,286.22,150c0,4.59-.23,9.15-.67,13.65s-1.14,9-2,13.45l-1.21-.24Z"/><path class="cls-2" d="M23.53,142.86c-.07,1.25-.12,2.44-.16,3.57s-.05,2.4-.05,3.57A126.7,126.7,0,0,0,150,276.68c3.07,0,6.18-.12,9.31-.35s6.26-.56,9.22-1l.71,4.88c-3.24.48-6.44.83-9.58,1.06s-6.35.34-9.66.34A131.62,131.62,0,0,1,18.39,150c0-1.26,0-2.5.05-3.71s.09-2.54.15-3.7l4.94.27Z"/><path class="cls-2" d="M28.11,143.38c-.06,1.11-.11,2.21-.14,3.3s0,2.22,0,3.32A122.06,122.06,0,0,0,150,272.07q4.55,0,9.05-.33t9-1l.18,1.22c-3,.44-6,.78-9.06,1s-6,.33-9.14.33A123.29,123.29,0,0,1,26.7,150c0-1.12,0-2.24,0-3.35s.07-2.25.13-3.34l1.24.07Z"/><path class="cls-2" d="M15.24,142.15c-.07,1.31-.13,2.62-.17,3.92S15,148.69,15,150A135,135,0,0,0,150,285c3.29,0,6.57-.13,9.82-.36s6.55-.59,9.74-1.05l.17,1.22c-3.26.47-6.54.83-9.82,1.07s-6.56.35-9.91.35A136.23,136.23,0,0,1,13.78,150q0-2,.06-4c0-1.34.09-2.66.17-4l1.23.07Z"/><path d="M184.89,275.86l-3.21.85.2-5.47,3,4.62Zm-2.37-8.11-3,.79-.77,14.13,2.75-.73.1-2.78,4.66-1.23,1.54,2.36,2.79-.74-8.06-11.8Z"/><polygon points="200.32 261.38 202.48 260.49 207.66 272.92 205.18 273.95 201.95 266.18 200.89 271.2 200.51 271.36 196.2 268.57 199.44 276.34 196.96 277.37 191.78 264.94 193.94 264.04 199.05 267.32 200.32 261.38 200.32 261.38"/><path d="M215.87,257.1a7.12,7.12,0,0,0-3.56.66c-.83.47-1.15,1.16-.82,1.74,1,1.76,5.48-1.47,7.83,2.61a3.85,3.85,0,0,1-1.55,5.6,6.27,6.27,0,0,1-4,.81L212.3,266c2,.33,3,.26,4.06-.33s1.14-1.18.75-1.87c-1.11-1.92-5.45,1.52-7.87-2.67a3.77,3.77,0,0,1,1.64-5.41,7.41,7.41,0,0,1,3.68-.91l1.31,2.28Z"/><polygon points="228.49 246.97 225.36 249.3 231.92 258.13 229.76 259.73 223.21 250.9 220.07 253.22 218.6 251.24 227.02 244.99 228.49 246.97 228.49 246.97"/><polygon points="246.12 245.78 240.34 251.24 231.09 241.46 236.78 236.07 238.48 237.87 234.74 241.4 236.68 243.45 240.25 240.08 241.94 241.87 238.38 245.25 240.6 247.6 244.42 243.99 246.12 245.78 246.12 245.78"/><path d="M244.46,231.3l.88-1a1.36,1.36,0,0,1,2.15-.19,1.37,1.37,0,0,1,.23,2.11l-.91,1.09-2.35-2Zm-3.61.47,10.31,8.66,1.73-2.06-4.19-3.52.5-.59c.93-1.11,3.19.22,6.14,1.19l1.9-2.26c-4-1.38-5.49-2.19-6.73-1.79a3.54,3.54,0,0,0-1.34-3.53,3.6,3.6,0,0,0-5.22.21l-3.1,3.69Z"/><path d="M253.38,219.64l.93-1.45c1.38-2.14,3.56-1.91,5.5-.66,1.66,1.07,3.15,3,1.68,5.26l-.95,1.47-7.16-4.62Zm-3.53.92,11.31,7.3,2.42-3.75c2.33-3.61,1-6.8-2.25-8.89-3.1-2-6.77-2-8.91,1.34l-2.57,4Z"/><path d="M268.42,205.12l-1.44,3-4-3.69,5.47.71Zm-7.71-3.47-1.35,2.81,10.25,9.75,1.23-2.57-2-1.88,2.09-4.34,2.78.36,1.26-2.61-14.21-1.52Z"/><polygon points="267.41 183.96 268.13 181.73 280.95 185.85 280.13 188.41 272.12 185.84 275.25 189.9 275.13 190.29 270.21 191.76 278.22 194.34 277.4 196.89 264.58 192.77 265.3 190.55 271.11 188.78 267.41 183.96 267.41 183.96"/><path d="M18.14,113.27,32.48,112l-2.75,10.1-11.59-8.85ZM40.8,130.73l-5.88-4.55,4-14.73,7.3-.64,2.47-9.07-37.8,4-2.69,9.87,30.11,24.22,2.48-9.12Z"/><path d="M56.85,96.17c1.19-1.81,1.66-3.27,1.4-4.36s-1.56-2.46-3.91-4.12l-26-18.36,5.13-7.25L59.72,80.61q6.09,4.32,7.08,8.09t-2.44,9l-7.51-1.48Z"/><path d="M69.15,39.48l12,7.93-8.4,6.2L69.15,39.48Zm7,27.74L74.31,60l12.26-9.06,6.13,4,7.54-5.57L68.13,29.13,59.92,35.2l8.62,37.64,7.6-5.62Z"/><polygon points="105.62 46.74 116.16 25.56 98.71 11.99 109.58 9.55 120.1 17.83 126.12 5.84 136.94 3.41 126.85 23.06 145.96 37.68 134.84 40.17 123.05 30.97 116.38 44.32 105.62 46.74 105.62 46.74"/><path d="M59.19,205.38s15.33-3.66,49.33,11.22a70.27,70.27,0,0,0,11.13,3,5.72,5.72,0,0,0-1.42-1.82c-.87-.88-1.75-1.75,0-3.49s2.62-.88,3.49,0c7.1,7.1-.13,10.16-.15,10.17l-1.18.21c-5.21-.43-13.57-3.44-13.6-3.44l-.14-.06c-32.58-14.28-46.38-11-46.42-11-1.21.27-2.41.53-2.93-1.88s.68-2.67,1.89-2.94ZM132,151.67c-1.06.93-3.83,3.61-4.22,6.48l-.17,1.24-1.1.59a42.57,42.57,0,0,1-11.87,4c-1.22.2-2.44.4-2.84-2s.81-2.63,2-2.83a37.46,37.46,0,0,0,9.36-3c1-3.38,3.56-6.24,5.07-7.68L126,134.13l3.87-2.37,13.44,9.77c1,.54,1.34,1.07,1.39,1.6a2.53,2.53,0,0,1-.59,1.78c-3.33,6.43-1.48,7.49-1.47,7.5l.33.24a15,15,0,0,1,4.32,7.53l0,.09c2.21,12.69-1.74,17.44-2.73,18.41-2,2.48-5.15,9.85-5.76,11.29-1.57,8-9.25,8.22-10.87,8.17-6.75,1.34-9.19,2.73-9.19,2.74l-.24.12c-6.84,3-12,1.18-13.49.52-5.88-1.26-7.82-4-7.83-4l-.3-.58c-2-5.66-5.23-6.72-5.24-6.72l-.8-.45c-9-7.46-2.69-15.88-2.67-15.91l.23-.27a44.5,44.5,0,0,0,3-4.12c-.71-.19-1.24-.75-1.24-2.37,0-2.46,1.23-2.46,2.47-2.46h2.17a1.66,1.66,0,0,1,1.74,0h3.28c1.24,0,2.47,0,2.47,2.46s-1.23,2.47-2.47,2.47H97.23a88.38,88.38,0,0,1-5.2,7.35c-.5.78-2.84,4.87,1.71,8.85,1.42.68,5.27,3,7.61,9.06.37.36,1.6,1.28,4.91,1.94l.73.27s3.64,2.06,9.49-.51c.83-.42,4.16-2,10.84-3.26l.62-.05s5.21.43,6.06-4.33l.15-.51s4.06-9.84,6.78-13l.33-.33s3.17-2.4,1.17-13.87a9.56,9.56,0,0,0-2.66-4.74h0c-1.07-.85-4.29-4.2-.92-12l-7.11-5.17,1.45,9.2a1.68,1.68,0,0,1,.16,1.93c-.09.55-.45,1-1.39,1.3Zm63.07,91h0c0,.17.06,1.85.2,1.73l.06,0s4-3.28,5.51-18.12l.05-.3s3.37-15,14.94-.67c.76.77,7.44,7.45,7.81,1.76-.8-2.39-4.52-13.52-5.28-15.68-.78-1.34-5.38-10.3,9-10.57h.17a70,70,0,0,1,18.39,3.86c1.16.42,2.32.84,1.48,3.15s-2,1.9-3.15,1.47a65.15,65.15,0,0,0-16.93-3.54c-6.59.16-4.6,3.23-4.6,3.24l.19.42c.7,1.86,5.57,16.49,5.58,16.53l.14.82c-.3,18.8-16.33,1.92-16.38,1.88l-.14-.16c-4.79-6-6.15-2.21-6.35-1.52-1.77,16.68-7.2,21.17-7.22,21.18l.06,0c-6.62,6-8-1.34-8.35-4.2a4.52,4.52,0,0,1-.08-1h0a7.12,7.12,0,0,1,0-.8V229.18c0-10.3-4-7.1-4.58-6.54-14,15.45-21.85,40.13-21.87,40.2-.38,1.18-.76,2.35-3.1,1.6s-2-1.93-1.59-3.1h0c0-.08,8.18-25.81,22.94-42l.1-.11s12.87-12.83,13,9.57v13.92Zm-9.57-20,0,0,0,0Zm20.19,4.36h0ZM106.18,121.19s-3,3.39-1.51,3.51c1.49-.15,10.37-.72,10.37,6.58v-.2s1,9.21-9,6.71l-.82-.37s-.71-.51-.48,4.88a5,5,0,0,1,0,.78h0a5.68,5.68,0,0,1,0,1v8.54c1.88,2.46,6.75,10-4.37,9.93a3.48,3.48,0,0,1-1.11,0,4.5,4.5,0,0,1-1.25-.17l-4.91-.68c-1.22-.16-2.44-.33-2.11-2.77s1.55-2.27,2.77-2.1l5.77.79c2.16.09,1.82-1.07,1.36-1.84a2.84,2.84,0,0,1-1.08-3.19v-9.24c-.78-14.17,5.89-11.31,7.74-10.26,2.78.54,2.54-1.59,2.54-1.59v-.21c0-2.32-5-1.66-5-1.66l-.3,0c-12.7,0-2.28-11.68-2.25-11.71.82-.92,1.64-1.85,3.48-.22s1,2.56.2,3.48ZM91.85,119s-4.14-4.36-4.73-5.53a7.22,7.22,0,0,1-.42-1c-1.2-1.77-5.69-9.5,8.82-8.11l.48.09c.11,0,38,10.86,97.08,69.31l0,0s8.58,8.27-3.08,11.74l-.19.05a5.59,5.59,0,0,0-4.51,6.09c1.3,1.86,3.62,6.82-6.08,9.31l-.2,0s-6.3,1-9,2.27l-.62.2s-7.22,1.4-6.39-11l.13-.61s1.64-4.94-.85-8.22a4.45,4.45,0,0,0-2.86-1.41c-3.38-.71-6.11-1.29-5.47-8.53a16.71,16.71,0,0,1,1-5.43c.45-1.14.91-2.29,3.19-1.37s1.83,2.06,1.37,3.2a11.5,11.5,0,0,0-.63,3.61l0,.23c-.29,3.08.54,3.25,1.56,3.47a8.5,8.5,0,0,1,5.77,3.24c3.55,4.65,2.16,10.82,1.73,12.38-.29,4.66.27,5.45.51,5.58a53.37,53.37,0,0,1,9.66-2.42c3.89-1,3.07-1.87,3.06-1.87l-.64-1.32c-1.49-9.71,7.09-12,8.2-12.21,3.44-1.07,1-3.45,1-3.46l0,0c-55.76-55.18-91.83-67.1-94.81-68-4.75-.42-3.91.62-3.91.62l.5,1.48s0-.37.15-.07c.24.48,3.9,4.34,3.91,4.35.84.9,1.69,1.8-.11,3.49s-2.63.78-3.48-.11Zm59.09,73.39s-3,11.23-5.81,16.05l-.13.2s-4.92,6.68.74,3.59l.3-.15s8.07-3.19,13.33-3.85c1.22-.15,2.45-.3,2.75,2.15s-.93,2.6-2.15,2.75c-4.3.54-11.12,3.15-12.07,3.52-23.92,13-8.27-9-7-10.8,2.48-4.28,5.23-14.69,5.24-14.72.32-1.19.64-2.38,3-1.76s2.06,1.83,1.74,3ZM215.48,62.49c5.69,1.57,29.28,10.14,29.28,44.52v0c0,.14,1.3,52-47.2,52h.19c-.07,0-22.26,2-33.3-23.71l-.08-.22s-5.63-17.85-15.06-17.72l-.55-.06s-2.72-.66-6.72,2.59c-1,.77-1.91,1.55-3.47-.36s-.59-2.69.37-3.46c5-4.07,9.35-3.81,10.54-3.64,12.25.06,18.82,18.88,19.51,21,9.64,22.38,28.33,20.69,28.39,20.68h.19c43.43,0,42.26-46.88,42.26-47v0c0-27.76-16.68-36.64-23.6-39.14V82.76c12.77,9.33,13.11,19.94,13.11,20,.06,1.24.12,2.47-2.35,2.58s-2.53-1.11-2.59-2.34h0s-.25-8.55-11.49-16.53c-1-.16-1.37-.61-1.52-1.18a1.63,1.63,0,0,1-.1-1.88V65.66a3.19,3.19,0,0,1,0-1.28c0-.76.06-1.48.75-1.9a2,2,0,0,1,2-.35,3.11,3.11,0,0,1,1.49.36Zm-46.43,71s0,0,0,0v0ZM96,131.32S88.85,143.11,88.12,145l-.35.61s-2,2.56.57,3.05l.65.21a7.26,7.26,0,0,0,3,.56c1.23,0,2.47,0,2.47,2.47s-1.23,2.47-2.47,2.47a13.13,13.13,0,0,1-4.87-.93c-9.09-1.88-4.49-9.12-3.44-10.61,1.36-2.92,8-14,8-14,.64-1.06,1.27-2.12,3.38-.84s1.48,2.33.84,3.38Zm-9.17,21.92Zm55.65,7.94v0Zm-2.34-4.54h0ZM105.91,97.76s8.71,0,29.23-13.32l-.08,0c.07,0,24.23-17.1,43.51-17.26h.09s13.66.32,22.77,6.61c1,.7,2,1.4.63,3.43s-2.41,1.32-3.43.62c-7.68-5.31-19.5-5.71-20.09-5.72-17.73.18-40.58,16.31-40.65,16.35l-.07,0C116.07,102.69,106,102.69,106,102.69c-1.23,0-2.47,0-2.5-2.43s1.21-2.49,2.45-2.5Zm96.54,100.78s-5.92.45-6,5.7c0,.38.38,4.37,5.75,4.37l.69.11s3.58,1.18,6.06-5.49c.43-1.15.86-2.31,3.16-1.45s1.88,2,1.45,3.17c-3.54,9.51-9.92,8.94-11.62,8.6-10.16-.15-10.43-9.14-10.43-9.17v-.08c0-9.92,10.45-10.7,10.48-10.7,1.23-.11,2.46-.22,2.67,2.25s-1,2.58-2.25,2.69ZM110.09,235s14.83,2.36,16.65,22.16c.11,1.23.23,2.46-2.22,2.68s-2.56-1-2.68-2.24c-1.47-16-12.53-17.73-12.56-17.74-1.21-.21-2.43-.41-2-2.84s1.62-2.22,2.83-2Z"/></g></g></svg>