<svg xmlns="http://www.w3.org/2000/svg" xmlns:xlink="http://www.w3.org/1999/xlink" viewBox="0 0 300.86 299.9"><defs><style>.cls-1{fill:none;}.cls-2{clip-path:url(#clip-path);}.cls-3{fill:#e41e20;}</style><clipPath id="clip-path" transform="translate(0 -0.05)"><circle class="cls-1" cx="150.53" cy="150" r="150"/></clipPath></defs><title>Alania</title><g id="Слой_2" data-name="Слой 2"><g id="Слой_1-2" data-name="Слой 1"><g class="cls-2"><path id="rect4" class="cls-3" d="M300.86.05H0V300H300.86Z" transform="translate(0 -0.05)"/><g id="g2997"><g id="g3005"><path id="path3035" d="M161.56,229.9c-2.58-2.24-5.71-6.77-5.67-11.14.23-3.26,2.47-5.16,3.91-1.18,2,4.39,6.42,11.65,12.45,7.39,2.64-1.93,2.6-4.78-1-4.45-4.47-.31-7.21-2.76-9.21-9.09-.36-3.47,1.09-3.39,3.1-1.15,2.6,3,7.76,7.48,13.46,5.07,3.17-1.33,4.06-4.07-.72-4.74-4.53.06-8.23-2.87-11.91-7.35-2-2.48,1-5,2.75-2.87,1.59,1.37,3.82,3.89,5.74,4.24a11.93,11.93,0,0,0,8-1.39c3.28-2.74,2.22-4.72-1.76-5.17-3.08.15-4.76,1.32-8.73-1.33-7.14-4.83-12.82-11.28-13.71-19-.58-5.1,2.16-6.65,4.44-6.06,6.21,1.59,10.27,13.19,14.56,19.56,1.41,1.84,2.7,1.87,3.61,1.3,1.72-1.47,3.1-2.69,4.82-4.34,0,0,12.63,2.27,19.51,4.51l-7.66,2.72c-2.9-1.6-6.4.13-6.4,2.91-2.74,1.9-2.52,4.12-1.34,6.27.36-1.5.67-3.44,2.84-3.7,3.09,1.28,6.7-.54,6.7-3l9-3.55,9.13,5.17c0,3.49,3.31,4.6,6.75,3.65a8,8,0,0,1,3.22,4.63c1-2.7.8-4.6-.79-5.92.92-3.49-4-6.84-7.75-4.61l-6.57-3.77,11.24-.32c1.31,2.31,6,2.44,7.4,0,1.17-.32,2.17-.52,4.46,1.18-.72-2.76-2.13-3.93-4.24-3.93-1.6-2.84-7.4-2.83-8.24.37l-11.7.32,6.94-4.94a4.93,4.93,0,0,0,7-3c1-1.22,2.31-1.8,4.82-1-1.29-2.29-3.11-3-6.4-1.42-3-2.27-7,.49-6.36,2.78L208,189.9c-6.71-2-18.86-5.11-18.86-5.11,1.45-1.52,2.91-2.94,4.36-4.48.52-.9-.28-2-1.39-2.18-10.83-2.23-17-6.6-20.8-17.71-1.57-4.65,1.83-6,3-3.19,1.61,4,3.4,8.28,8.26,11.63,1.68,1.17,6.68.21,3.72-2.59-3.06-2.52-4.38-3.61-5.88-9.74,0-3.1,3.16-4.5,4.93-1.52,1.89,6.11,2.08,8.74,5.5,12.67,2.59,3,6,5,7.65,4.93,3,0,6.06-3.3,2-5.67-5.93-2.37-8.1-5.6-9-8.69-.95-5.39.09-8,3.34-5.35,4.61,5.24,13.41,15,18,19.54,5.17,4,11.09,4.09,15.81.07,2.7-3.11,1.74-6.46-2.48-5.74-9.55.8-16.77-3.93-24.7-16.74-1.55-2.89-2-7,1.45-3.95,4,5.34,9.71,9.89,15.07,11.84s9.81.87,11.53-.82c2.08-2.08,1.53-7.3-2.06-6a16.73,16.73,0,0,1-11.45-.38c-4.34-1.69-8.84-5.34-13.63-11.53-1.63-3.5-1.1-6.46,2.22-4.66,7.84,6.66,18,12,23.12,8.81,3.8-2.37,3.87-8.46-1-8.07-9.71,1.33-13.39-.82-22.72-9.06-2.12-1.59-2-5.61,1.4-3,7.85,5.06,18.56,7,22.77,4.39,3.78-2.37,3.23-9.61-3.15-7-5.1,3.11-10.73,3-22-5-2.84-2.37-.72-5.45,1.62-4.13,9.07,5.18,22.29,7.39,25.73-3.13,1.34-4-1.08-6.36-4.63-3.58-7.8,7.21-16.64,3.67-21.59,0-1.42-.84-4-5.06.55-4.28,11.82,2.7,23.51.35,25.63-8,1.24-2.72-1.19-7.52-5.5-3.5-5.68,5.61-11.69,5.8-19.26,5.76-3.84-.81-3.89-5-.65-5.67,6,.13,11.85-2.48,16.57-5.13s8.44-6.37,9.65-11.52c.75-4.61-3.7-9.5-6.37-4.61a31.44,31.44,0,0,1-22.45,15.11c-.51-.85-1.78-3-3.36-2.41-2.85,1.1-6.26,2.59-9.77,4.25-7.56,3.59-10.71,5.32-9.8,11.52.95,6.47-4,10.56-8.16,9.43-3.59-1-5.58-4.21-4.93-9.84.51-4.49,5-9.91,10.09-12.76,3.29-1.84,8.25-2.84,14.22-4.17,3.64-.72,5.49-2.13,5.7-3.61a10.42,10.42,0,0,1-6.46,1.55,4.48,4.48,0,0,1-3.62-1.81c1.39-.28,3.89,0,6.14,0,3,0,10-.69,11.8-4.91.58-2.78-1.25-3.28-2.95-1.5-1.83,1.93-2.58,3.66-6.25,4.31a16.54,16.54,0,0,1-7.33.15c1.61-1.92,4.18-3.89,6.37-3.52a4.13,4.13,0,0,1,2.45,2c.47-3-.37-6.48-8.5-5,.12-2.3-4.72-3.3-7.63-3.26a23.37,23.37,0,0,0-7.48,2.2,53.5,53.5,0,0,1-12.21,2.39A61.74,61.74,0,0,0,166.41,72,19,19,0,0,0,158,78.53s4.61-.13,5.78.39c-4.83,1.41-7,2.26-9.55,4.87a19.58,19.58,0,0,1,2.81.63c.6.22.44.61,0,1-1,.79-5.34,5.78-6.59,7-1.25-1.19-5.55-6.18-6.59-7-.48-.37-.64-.76,0-1a19.58,19.58,0,0,1,2.81-.63c-2.56-2.61-4.72-3.46-9.55-4.87,1.17-.52,5.78-.39,5.78-.39A19,19,0,0,0,134.45,72a60.33,60.33,0,0,0,5.71-4.26A53.52,53.52,0,0,1,128,65.36a23.37,23.37,0,0,0-7.48-2.2c-2.91,0-7.75,1-7.63,3.26-8.13-1.43-9,2-8.5,5a4.13,4.13,0,0,1,2.45-2c2.19-.37,4.76,1.6,6.37,3.52a16.54,16.54,0,0,1-7.33-.15c-3.67-.65-4.42-2.38-6.25-4.31-1.7-1.78-3.53-1.28-3,1.5,1.84,4.22,8.8,4.89,11.8,4.91,2.25,0,4.75-.32,6.14,0A4.48,4.48,0,0,1,111,76.73a10.42,10.42,0,0,1-6.46-1.55c.21,1.48,2.06,2.89,5.7,3.61,6,1.33,10.93,2.33,14.22,4.17,5.07,2.85,9.58,8.27,10.09,12.76.65,5.63-1.34,8.88-4.93,9.84-4.12,1.13-9.11-3-8.16-9.43.91-6.2-2.24-7.93-9.8-11.52-3.51-1.66-6.92-3.15-9.77-4.25-1.58-.62-2.85,1.56-3.36,2.41A31.44,31.44,0,0,1,76,67.66c-2.67-4.89-7.12,0-6.37,4.61,1.21,5.15,5,8.87,9.65,11.52s10.6,5.26,16.57,5.13c3.23.63,3.19,4.86-.65,5.67-7.57,0-13.58-.15-19.26-5.76-4.31-4-6.74.78-5.5,3.5,2.12,8.37,13.81,10.72,25.63,8,4.57-.78,2,3.44.55,4.28-5,3.63-13.79,7.17-21.59,0-3.55-2.78-6-.44-4.63,3.58,3.44,10.52,16.66,8.31,25.73,3.13,2.34-1.32,4.46,1.76,1.62,4.13-11.29,8.07-16.92,8.15-22,5-6.38-2.56-6.93,4.68-3.15,7,4.21,2.65,14.92.67,22.76-4.39,3.38-2.57,3.53,1.45,1.41,3-9.33,8.24-13,10.39-22.72,9.06-4.83-.39-4.76,5.7-1,8.07,5.17,3.23,15.28-2.15,23.12-8.81,3.32-1.8,3.85,1.16,2.22,4.66-4.79,6.19-9.29,9.84-13.63,11.53a16.73,16.73,0,0,1-11.45.38c-3.59-1.26-4.14,4-2.06,6,1.72,1.69,6.16,2.76,11.53.82s11.12-6.5,15.07-11.84c3.43-3.09,3,1.06,1.45,3.95-7.93,12.81-15.15,17.54-24.7,16.74-4.22-.72-5.18,2.63-2.48,5.74,4.72,4,10.64,3.89,15.81-.07,4.61-4.54,13.41-14.3,18-19.54,3.25-2.65,4.29,0,3.34,5.35-.87,3.09-3,6.32-9,8.69-4,2.37-1,5.63,2,5.67,1.68,0,5.06-2,7.65-4.93,3.42-3.93,3.61-6.56,5.5-12.67,1.77-3,4.93-1.58,4.93,1.52-1.5,6.13-2.82,7.22-5.88,9.74-3,2.8,2,3.76,3.72,2.59,4.86-3.35,6.65-7.68,8.26-11.63,1.17-2.85,4.57-1.46,3,3.19-3.76,11.11-10,15.48-20.8,17.71-1.11.22-1.91,1.28-1.39,2.18,1.45,1.54,2.91,3,4.36,4.48,0,0-12.15,3.11-18.86,5.11l-9.24-6.28c.6-2.29-3.35-5.05-6.36-2.78-3.29-1.55-5.11-.87-6.4,1.42,2.51-.83,3.78-.25,4.82,1a4.93,4.93,0,0,0,7,3l6.94,4.94-11.71-.32c-.83-3.2-6.63-3.21-8.23-.37-2.11,0-3.52,1.17-4.24,3.93,2.29-1.7,3.29-1.5,4.46-1.18,1.38,2.44,6.09,2.31,7.4,0l11.24.32L82,197.28c-3.78-2.23-8.67,1.12-7.75,4.61-1.59,1.32-1.81,3.22-.79,5.92a8,8,0,0,1,3.22-4.63c3.44.95,6.75-.16,6.75-3.65l9.13-5.17,9,3.55c0,2.42,3.61,4.24,6.7,3,2.17.26,2.48,2.2,2.84,3.7,1.18-2.15,1.4-4.37-1.34-6.27,0-2.78-3.5-4.51-6.4-2.91l-7.66-2.72c6.88-2.24,19.51-4.51,19.51-4.51,1.72,1.65,3.1,2.87,4.82,4.34.91.57,2.2.54,3.61-1.3,4.29-6.37,8.35-18,14.56-19.56,2.28-.59,5,1,4.44,6.06-.89,7.76-6.57,14.21-13.71,19-4,2.65-5.65,1.48-8.73,1.33-4,.45-5,2.43-1.76,5.17a11.93,11.93,0,0,0,8,1.39c1.92-.35,4.15-2.87,5.74-4.24,1.79-2.11,4.76.39,2.75,2.87-3.68,4.48-7.38,7.41-11.91,7.35-4.78.67-3.89,3.41-.72,4.74,5.7,2.41,10.86-2.09,13.46-5.07,2-2.24,3.46-2.32,3.1,1.15-2,6.33-4.74,8.78-9.21,9.09-3.61-.33-3.65,2.52-1,4.45,6,4.26,10.41-3,12.45-7.39,1.44-4,3.68-2.08,3.91,1.18,0,4.37-3.09,8.9-5.67,11.14s11.13,16.47,11.13,16.47,13.71-14.23,11.13-16.47ZM179.93,68.7c-2.13,0-3.45.75-3.45,1.65S177.8,72,179.93,72s3.47-.81,3.47-1.74S182.06,68.7,179.93,68.7Zm-59,0c2.13,0,3.45.75,3.45,1.65S123.06,72,120.93,72s-3.47-.81-3.47-1.74S118.8,68.7,120.93,68.7Z" transform="translate(0 -0.05)"/></g></g></g></g></g></svg>