<svg xmlns="http://www.w3.org/2000/svg" viewBox="0 0 300 300"><defs><style>.cls-1{fill:#fff;}.cls-2{fill:#030303;}.cls-3{fill:#ed202a;}.cls-4{fill:#09a14a;}</style></defs><title>Algeria</title><g id="Слой_2" data-name="Слой 2"><g id="Layer_1" data-name="Layer 1"><circle class="cls-1" cx="150" cy="150" r="150"/><g id="Balon"><polygon id="polygon4" class="cls-2" points="107.55 117.66 130.07 134.88 122.37 163.2 92.39 163.2 83.7 136.84 107.55 117.66"/><path id="path6" class="cls-2" d="M167,142.81a59.2,59.2,0,0,1-9.49,32.27c-.64,1-1.31,2-2,2.92q-1.44,2-3,3.79l-4.14-8.47-1.29-2.64,10.1-25.94,9.53-8.21c.13,1.24.22,2.5.27,3.76C167,141.13,167,142,167,142.81Z"/><path id="path8" class="cls-2" d="M158.64,112.35l-13.76,1L123.2,94.1l-3.55-9.62a61.24,61.24,0,0,1,7.88,2.22,59.78,59.78,0,0,1,31.11,25.65Z"/><path id="path10" class="cls-2" d="M94,84.75l-2.2,12.44L70.62,110.84l-2,1.31-12.92,1.07c.41-.72.84-1.43,1.28-2.13a59.91,59.91,0,0,1,17.91-18.2,58.9,58.9,0,0,1,14.78-7C91.08,85.47,92.52,85.08,94,84.75Z"/><path id="path12" class="cls-2" d="M66,170l-2.63,12.9c-1.38-1.52-2.67-3.1-3.9-4.76h0a59.25,59.25,0,0,1-11.44-31h0q-.15-2.12-.15-4.26,0-2.91.27-5.74l10.6,7Z"/><path id="path14" class="cls-2" d="M131,197.57c-1.1.47-2.21.91-3.33,1.31-.94.34-1.89.65-2.85,1A59.61,59.61,0,0,1,84,197.62l9.75-8.21,14.55.62,13.55.59Z"/></g><g id="etoile"><path id="path17" class="cls-3" d="M231,136.82a81.22,81.22,0,0,1-103.35,62.06c1.12-.4,2.23-.84,3.33-1.31a59.73,59.73,0,0,0,21.52-15.78q1.59-1.83,3-3.79c.7-.95,1.36-1.92,2-2.92a74.38,74.38,0,0,0,9.26.58A72,72,0,0,0,231,136.82Z"/><polygon id="polygon19" class="cls-3" points="205.29 119.47 192.83 123.89 182.18 113.36 182.18 128.2 169.84 134.66 183.2 138.96 185.01 152.33 193.63 141.56 206.99 142.93 198.5 131.94 205.29 119.47"/><path id="path21" class="cls-3" d="M139.88,39.84A72.18,72.18,0,0,0,113.82,57.6c-.7.75-1.38,1.51-2,2.29a71.05,71.05,0,0,0-6.69,9.2c-.65,1.07-1.27,2.15-1.87,3.26a69.67,69.67,0,0,0-4.11,9.2c-.29.79-.56,1.57-.82,2.37-1.45.22-2.89.5-4.31.83s-2.9.72-4.33,1.17a58.9,58.9,0,0,0-14.78,7A82.81,82.81,0,0,1,80,81.58a81.78,81.78,0,0,1,5.86-9.23c.81-1.1,1.64-2.17,2.49-3.23a81.4,81.4,0,0,1,8.77-9.23c.89-.81,1.8-1.59,2.73-2.35a81.34,81.34,0,0,1,13.39-9A80.49,80.49,0,0,1,139.88,39.84Z"/></g><g id="g23"><polygon id="polygon25" class="cls-4" points="244.53 80.8 240.29 86.09 235.58 86.09 235.58 92.26 227.95 101.52 227.95 80.79 244.53 80.8"/><polygon id="polygon27" class="cls-4" points="253.58 69.48 248.1 76.33 227.95 76.43 227.95 69.45 253.58 69.48"/><polygon id="polygon29" class="cls-4" points="223.65 80.78 223.65 101.8 216.54 101.8 216.54 87.01 212.32 87.01 207.85 93.23 201.7 101.8 192.85 101.8 199.42 93.22 199.43 93.22 208.97 80.77 223.65 80.78"/><polygon id="polygon31" class="cls-4" points="223.65 69.45 223.65 76.45 212.23 76.51 217.65 69.44 217.65 69.44 223.65 69.45"/><polygon id="polygon33" class="cls-4" points="213.05 69.44 207.61 76.54 187.39 76.64 187.39 69.41 213.05 69.44"/><polygon id="polygon35" class="cls-4" points="204.37 80.76 200.17 86.25 194.19 86.25 194.19 93.29 187.39 101.42 187.39 80.75 204.37 80.76"/><path id="path37" class="cls-4" d="M61.21,72.35h24.6A81.78,81.78,0,0,0,80,81.58l-25.49,0Z"/><path id="path39" class="cls-4" d="M183.32,93.21v8.59H164.74c-4.91,0-7.75-2-10.88-4.53L138.12,83c-2.42-1.93-6.76-1.4-8.36-1.53l-30.65,0a69.67,69.67,0,0,1,4.11-9.2h30.7A14,14,0,0,1,142.53,76l15.64,14.5c2.4,2.16,5.38,2.84,9.06,2.72Z"/><path id="path41" class="cls-4" d="M70.29,59.89H97.07a81.4,81.4,0,0,0-8.77,9.23l-24.76,0Z"/><path id="path43" class="cls-4" d="M183.32,80.75v8.59h-14c-4.91,0-7.75-2-10.88-4.53L142.65,70.58c-2.42-1.93-6.76-1.4-8.36-1.53l-29.2,0a71.05,71.05,0,0,1,6.69-9.2h26.68a14,14,0,0,1,8.61,3.62L162.7,78c2.4,2.16,5.38,2.83,9.06,2.72Z"/><path id="path45" class="cls-4" d="M78.56,48.56h34.63a81.34,81.34,0,0,0-13.39,9L72.11,57.4Z"/><path id="path47" class="cls-4" d="M183.32,69.41V78h-9.75c-4.9,0-7.75-2-10.87-4.53L147,59.25c-2.42-1.93-6.75-1.4-8.35-1.53l-24.78-.12a71.62,71.62,0,0,1,10.23-9h18.71a14,14,0,0,1,8.61,3.62L167,66.68c2.41,2.16,5.39,2.84,9.07,2.72Z"/></g><g id="Algerie"><polygon id="polygon50" class="cls-4" points="203.48 211.72 203.48 248.16 197.59 248.16 197.59 216.51 203.48 211.72"/><polygon id="polygon52" class="cls-4" points="130.3 211.72 130.3 248.16 124.41 248.16 124.41 216.51 130.3 211.72"/><path id="path54" class="cls-4" d="M190.11,211.72v35c0,1-.56,1.48-1.24,1.48H173.44l.17,4.28s-1.06-1.84-2.51-4.28H145.7c-.06,1.73-.13,3.26-.22,4.28a8.44,8.44,0,0,1-.38,2.36,7.33,7.33,0,0,1-2.79,2.79,7.7,7.7,0,0,1-3.93,0,8.4,8.4,0,0,1-2.64-1.81,33.11,33.11,0,0,1-2.35-4h6.88V240l5.59-3.93s0,2.81-.05,6.19h21.76c-1.37-2.23-2.67-4.28-3.51-5.43-.61-.84-2.21-2.57-3.21-2.61-.68,0-2.46,1.7-2.46,1.7v-5.1a8.84,8.84,0,0,1,1.82-1.7,4.54,4.54,0,0,1,2.37,0,11.7,11.7,0,0,1,3.06,2.16c2.14,2.2,5.88,8.71,7.15,11h11.43V216.51Z"/><ellipse id="ellipse56" class="cls-4" cx="141.91" cy="224.77" rx="2.78" ry="2.89"/><ellipse id="ellipse58" class="cls-4" cx="164.91" cy="256.51" rx="2.78" ry="2.89"/><path id="path60" class="cls-4" d="M116.93,234.57v12.12c0,1-.56,1.48-1.24,1.48H94c0,1.84-.13,3.48-.22,4.56a8.76,8.76,0,0,1-.38,2.36,7.5,7.5,0,0,1-2.79,2.8,7.81,7.81,0,0,1-3.93,0A8.79,8.79,0,0,1,84,256.08a34,34,0,0,1-2.34-4h6.88V240.29l5.58-3.92s0,2.65,0,5.9H111v-3.05Z"/><path id="path62" class="cls-4" d="M116.18,218.71v2.72h-4a2.63,2.63,0,0,0-.52,1.32,4.24,4.24,0,0,0,.49,1.85h4v2.7H107.6v-2.74l1.35,0s-.36-2.06-.38-2.75a4.78,4.78,0,0,1,.38-1.95,2.76,2.76,0,0,1,1.39-1.19Z"/></g></g></g></svg>