<svg xmlns="http://www.w3.org/2000/svg" viewBox="0 0 299.9 250.58"><defs><style>.cls-1{fill:#1d1d1b;}.cls-2{fill:#e32213;}.cls-3{fill:#fff;}.cls-4{fill:#9f8e5c;}</style></defs><title>Almeria</title><g id="Слой_2" data-name="Слой 2"><g id="Слой_1-2" data-name="Слой 1"><path class="cls-1" d="M258.36,1a75.08,75.08,0,0,1-49.69,19.28c-30.45,0-57.8-17.81-58.07-18L150,1.89l-.64.43c-.27.18-27.62,18-58.08,18A75.11,75.11,0,0,1,41.54,1l-1-1L0,61.68l150,188.9,150-188.9L259.38,0Z"/><path class="cls-2" d="M215.08,119.3a26.27,26.27,0,0,0-6.74-5.34l-.26-.13L272,33.29l.12-.14c1.75,2.66,3.53,5.36,5.25,8l-.13.17-62,78.16Z"/><path class="cls-2" d="M176.54,154a26.23,26.23,0,0,0,6.71,5.37l.22.13-47.95,60.4-.17.21L129.7,213l-.15-.21,46.8-59Z"/><path class="cls-2" d="M198.66,162.47l-54.52,68.68.18.22,5.63,7.09L290.61,61.26l-5.16-7.85-.09-.16-63.77,80.34,0,.22a24.72,24.72,0,0,1,.16,2.87,26,26,0,0,1-22.84,25.74Z"/><path class="cls-3" d="M221,130.29a25.72,25.72,0,0,0-4.1-8.76l-.15-.21,61.92-78,.1-.11c1.84,2.81,3.61,5.49,5.18,7.88l.07.12-63,79.33Z"/><path class="cls-3" d="M185.9,160.62a25.91,25.91,0,0,0,9.41,2l.25,0-52.92,66.66-.17-.25L136.85,222l.18-.24,48.58-61.2Z"/><path class="cls-2" d="M170.07,139.36a26.42,26.42,0,0,1-.14-2.68A26,26,0,0,1,192.58,111h.2L264,21.26l.19-.25-5.26-8-.12.17L115,194.35l.22.33q2.86,3.58,5.56,7l.16-.19,49.14-61.91Z"/><path class="cls-3" d="M170.67,142.84a25.92,25.92,0,0,0,4.11,8.93l.08.15-46.79,58.94-.2-.21-5.62-7.09.18-.23,48.16-60.67Z"/><path class="cls-3" d="M205.68,112.69a25.55,25.55,0,0,0-9.55-1.93l-.24,0,69.48-87.51.16-.2,5.25,8-.1.13L205.91,112.8Z"/><path class="cls-4" d="M181.22,142a4.76,4.76,0,0,1-3.39,3.66,5.42,5.42,0,0,1-4-.68l-.1-.2A23.6,23.6,0,0,1,184,116.3l-.14.29a34.75,34.75,0,0,0-2.76,23.34A4.18,4.18,0,0,1,181.22,142Z"/><path class="cls-4" d="M196.82,137.64a8.72,8.72,0,0,1-6.07,5.92,9.45,9.45,0,0,1-7.28-.82l-.1.28a7,7,0,0,1-4.85,4.86,6.45,6.45,0,0,1-3.37.08l.14.26a24,24,0,0,0,5.52,6.62H181a33.14,33.14,0,0,0,23.21-8.48,2.47,2.47,0,0,0,.76-1.78,6.91,6.91,0,0,0-2.22-5.23,6.42,6.42,0,0,0-5.62-1.78Z"/><path class="cls-4" d="M196.64,122.74a7,7,0,0,1-1.82-6.67,6.41,6.41,0,0,1,1.46-2.78l.14-.19h-.57a23.4,23.4,0,0,0-8.18,1.47l-.1.17a33.06,33.06,0,0,0-5,17.52,32.31,32.31,0,0,0,.61,6.33,2.77,2.77,0,0,0,1.28,2,7,7,0,0,0,5.63.68,6.42,6.42,0,0,0,4.45-4.26l-.16-.17a8.7,8.7,0,0,1-2-8.06,9.38,9.38,0,0,1,4.36-5.9Z"/><path class="cls-4" d="M198.62,121.47a4.91,4.91,0,0,1-1.52-4.89,5.38,5.38,0,0,1,2.48-3.07l.18-.09a23.63,23.63,0,0,1,19.68,23v.18a34.61,34.61,0,0,0-19.53-14.48A3,3,0,0,1,198.62,121.47Z"/><path class="cls-4" d="M219.05,141a23.66,23.66,0,0,1-3,7.85l-.1.12a6.52,6.52,0,0,0-1.75-2.86,7.1,7.1,0,0,0-6.79-1.74l-.14,0a9.42,9.42,0,0,0-2.92-6.73,8.7,8.7,0,0,0-8.17-2.29l-.11-.11a6.44,6.44,0,0,1-1.59-4.19,7,7,0,0,1,.22-1.69,7.16,7.16,0,0,1,3.76-4.72,2.18,2.18,0,0,1,1.67,0,33.11,33.11,0,0,1,19,16Z"/><path class="cls-4" d="M206.22,147.67a34.73,34.73,0,0,1-21.95,9.45l-.14,0A23.54,23.54,0,0,0,214,151.79l.11-.14a5.45,5.45,0,0,0-1.43-3.84,4.67,4.67,0,0,0-5-1.07A3.42,3.42,0,0,0,206.22,147.67Z"/><path class="cls-3" d="M133.69,57.28V18.78l.34-.17A136.74,136.74,0,0,0,150,10.74c9.3,5.41,32.45,17.11,58.72,17.11A81,81,0,0,0,244,19.74l-.33.41L214.32,57.08l-.17.19H133.69Z"/><polygon class="cls-3" points="133.69 101.76 178.83 101.76 178.59 102.08 133.93 158.34 133.69 158.66 133.69 101.96 133.69 101.76"/><path class="cls-3" d="M87.46,101.76v58l-46-58,.34,0H87.46Z"/><path class="cls-3" d="M87.48,57.27H11.91l.12-.18C19.75,45.35,41,13,42.1,11.32A82.23,82.23,0,0,0,86.92,27.73l.54.09v29Z"/><path class="cls-2" d="M126.15,94.4v73.75l-.16.19-15.66,19.72-.2.23L95,169.25v-75H35.45L12.26,65l-.14-.2H94.6l.4,0v-37l.38-.07a110.31,110.31,0,0,0,30.24-6l.53-.15v43.2l.31,0h81.71l-.18.25-23.05,29-.13.14H126.17Z"/><path class="cls-4" d="M40.92,3.65c4.47,4,23,19,50.31,19,28.68,0,54.54-15.37,58.72-18,4.18,2.6,30,18,58.72,18,27.27,0,45.84-15,50.31-19l38,57.9L150,246.82,2.88,61.55Zm71,190.7,38,47.87L293.49,61.39,259.18,9.17,259.09,9,112.15,194.13ZM89.8,59.62V25.54l-.53-.05A80,80,0,0,1,42.53,8.71l-1-.77L7.69,59.43l-.12.18H89.8Zm0,39.8H36.62l.08.13,53,66.7.15.24V99.42Zm41.54,0v65.93l.18-.23,51.93-65.41.25-.29H131.35Zm0-39.81h83.56l.36,0,38.12-48-.25.17a79.59,79.59,0,0,1-44.47,13.73c-26.24,0-49.39-12-58.12-17.13L150,8l-.59.35a132.43,132.43,0,0,1-17.7,8.67l-.31.1V59.61Zm-2.88,37h57.45l.17-.17L213,62.47H128.81l-.32,0V18.31l-.46.14a108.49,108.49,0,0,1-35.09,7l-.28,0v37H7.28l.15.2L34.2,96.4l.09.16H92.68l0,.11V170l.19.27,17.28,21.77.26-.31,17.9-22.54.2-.2V96.71Z"/><path class="cls-1" d="M53.79,68.46l9.39,22.05H56.49S55,86.92,54.66,86H47.48l-1.82,4.48H39.09l9.38-22.05Zm-4.14,12H52.5L51.07,77Z"/><path class="cls-1" d="M64.67,68.6V90.51H81v-5.9H71v-16Z"/><path class="cls-1" d="M98.86,68.6l-4.73,7.61L89.4,68.6H83.17V90.51h6.22V79.76L93.5,86h1.14l4.17-6.32V90.51h6.28V68.6Z"/><path class="cls-1" d="M107.31,68.6V90.51h17.14V84.69H113.59V82.4H123V76.57h-9.44V74.42h10.72V68.6Z"/><path class="cls-1" d="M136.51,68.6a9,9,0,0,1,6.5,2.31,7.27,7.27,0,0,1,2,5.3,7.06,7.06,0,0,1-3.86,6.54l5.31,7.76H139l-4.35-6.4h-1.94v6.4h-6.31V68.6Zm-3.79,5.88v3.84h3.5c.91,0,2.42-.25,2.42-1.94,0-.47,0-1.9-2.5-1.9Z"/><rect class="cls-1" x="147.96" y="68.6" width="6.31" height="21.91"/><path class="cls-1" d="M170.18,68.46l9.38,22.05h-6.68L171.05,86h-7.18L162,90.51h-6.57l9.39-22.05Zm-4.14,12h2.85L167.46,77Z"/><path class="cls-1" d="M112.85,32.14l9.39,22h-6.68l-1.83-4.48h-7.18c-.37.89-1.83,4.48-1.83,4.48H98.15l9.38-22Zm-4.14,12h2.85l-1.42-3.48C109.51,42.21,109.17,43,108.71,44.14Z"/><path class="cls-1" d="M109.11,128.42c6.71,0,11.58,4.61,11.58,11s-4.87,11-11.58,11h-8.76V128.42Zm-2.45,5.88v10.16h2.45a5.08,5.08,0,1,0,0-10.16Z"/><path class="cls-4" d="M52.53,70.36l7.76,18.25H57.77c-.36-.9-1.82-4.49-1.82-4.49H46.2l-1.83,4.49H42l7.76-18.25ZM47,82.14h8.15l-4.08-10Z"/><path class="cls-4" d="M69.08,70.51v16h10v2.1H66.58V70.51Z"/><path class="cls-4" d="M103.18,70.51v18.1h-2.47V73.32s-5.52,8.39-6.64,10.08l-6.58-10v15.2H85.08V70.51h3.26l5.79,9.31,5.79-9.31Z"/><path class="cls-4" d="M122.41,70.51v2H111.69v6h9.43v2h-9.43V86.6h10.86v2H109.22V70.51Z"/><path class="cls-4" d="M136.51,70.51a7,7,0,0,1,5.16,1.75,5.36,5.36,0,0,1,1.43,3.95,5.28,5.28,0,0,1-3.66,5.31l-1.15.43,4.56,6.66H140l-4.35-6.4h-4.86v6.4h-2.49V70.51Zm-4.74,2.06h-1v7.65h5.41c2.63,0,4.33-1.5,4.33-3.84s-1.69-3.81-4.41-3.81Z"/><path class="cls-4" d="M152.36,70.51v18.1h-2.5V70.51Z"/><path class="cls-4" d="M168.92,70.36l7.76,18.25h-2.52c-.36-.9-1.83-4.49-1.83-4.49h-9.74l-1.83,4.49h-2.4l7.76-18.25Zm-5.54,11.78h8.16l-4.08-10Z"/><path class="cls-4" d="M111.59,34c.44,1,6.81,16,7.77,18.25h-2.52c-.37-.89-1.83-4.49-1.83-4.49h-9.74l-1.83,4.49H101c1-2.24,7.33-17.23,7.76-18.25Zm-5.53,11.78h8.16l-4.08-10Z"/><path class="cls-4" d="M109.11,130.33c5.61,0,9.68,3.8,9.68,9s-4.07,9.05-9.68,9.05h-6.85v-18.1Zm-4.36,2.07v14h4.36a7,7,0,1,0,0-14Z"/></g></g></svg>