<svg xmlns="http://www.w3.org/2000/svg" viewBox="0 0 238.98 299.23"><defs><style>.cls-1{fill:#fff;}.cls-1,.cls-2,.cls-3,.cls-4,.cls-5,.cls-7,.cls-8{fill-rule:evenodd;}.cls-2{fill:#0092d3;}.cls-3,.cls-6{fill:#1d1d1b;}.cls-4{fill:#5b358b;}.cls-5{fill:#f8e353;}.cls-7{fill:#de241f;}.cls-8{fill:#fce555;}</style></defs><title>Anderlecht</title><g id="Слой_2" data-name="Слой 2"><g id="Layer_1" data-name="Layer 1"><path class="cls-1" d="M234.71,239.14s-4.74,26-34.87,26-68.08,3.24-80.19,21.64c0-15.3-52.25-21.11-81.81-21.11s-33.26-27-33.26-27V5.49H234.71Z"/><polygon class="cls-2" points="99.3 184.39 139.76 184.39 139.76 231.88 123.54 231.88 119.65 234.23 116.07 231.88 99.3 231.88 99.3 184.39 99.3 184.39"/><path class="cls-3" d="M0,0H239V235.37a36.51,36.51,0,0,1-36.53,36.33c-13.57,0-27.13-.21-40.69,0-18.43.29-35.39,10.26-42.16,27.53-9.07-16.51-22.54-27.53-41.43-27.53H36.53A36.57,36.57,0,0,1,0,235.37V0ZM11.44,49.23h216.1V11.44H11.44V49.23Zm216.1,7.31H11.44V235.22a25.1,25.1,0,0,0,25.24,25H78.26a54.51,54.51,0,0,1,40.91,18.56c10.59-12.09,26.69-18.56,42.49-18.56H202.3a25.24,25.24,0,0,0,25.24-25V56.54Z"/><path class="cls-4" d="M1,1H238V235.36a35.55,35.55,0,0,1-35.54,35.35H161.75c-16.6,0-35,9.09-42.27,26.44-10-17.77-24.94-26.44-41.31-26.44H36.54A35.55,35.55,0,0,1,1,235.36V1Zm9.45,49.23H228.53V10.45H10.45V50.23Zm218.08,5.32H10.45V235.23a26.12,26.12,0,0,0,26.21,26H78.25c16.14,0,30.17,6.85,40.81,18.95,10.52-12,26.48-18.95,42.61-18.95h40.64a26.19,26.19,0,0,0,26.22-26V55.55Z"/><path class="cls-4" d="M36.35,71.05l-.21,115.41c-1.5,26.95,13.43,36.9,30,38.3,20.13-1.29,29.53-16.35,30.27-30.08L96.26,71.15l-21.64-.21q0,64.86,0,129.73c.35,4.84,3.15,7.54,8.63,8.1-3,4.35-6.56,8-13.65,8.21-6.47-.9-11.09-4.34-13-11.51V70.73l-20.26.32Z"/><path class="cls-4" d="M202.63,71.05l.21,115.41c1.5,26.95-13.42,36.9-30,38.3-20.13-1.29-29.54-16.35-30.28-30.08l.11-123.53,21.64-.21V200.67c-.35,4.84-3.16,7.54-8.64,8.1,3,4.35,6.57,8,13.65,8.21,6.47-.9,11.09-4.34,13-11.51V70.73l20.26.32Z"/><path class="cls-3" d="M95.69,180.77h47.55c0,15.55-.22,31.11,0,46.67a7.84,7.84,0,0,1-7.8,7.8H125.38c-2.35,0-4.27,1.76-5.86,3.67-1.37-1.73-3.41-3.67-5.73-3.67H103.5a7.82,7.82,0,0,1-7.81-7.8V180.77Zm43.08,46.53V185.24h-38.6V227.3a3.4,3.4,0,0,0,3.47,3.46h10.24a9.53,9.53,0,0,1,5.65,2,10.12,10.12,0,0,1,5.77-2h10a3.28,3.28,0,0,0,3.47-3.46Z"/><path class="cls-5" d="M96.69,181.76h45.56v45.65a6.86,6.86,0,0,1-6.83,6.84H125.36c-2.29,0-4.42,1.53-5.83,3.16-1.16-1.37-3.27-3.16-5.72-3.16H103.52a6.85,6.85,0,0,1-6.83-6.84V181.76Zm38.66,50h-10a9.54,9.54,0,0,0-5.79,2.21,9,9,0,0,0-5.66-2.21H103.59a4.39,4.39,0,0,1-4.41-4.41v-43.1h40.58v43.1a4.38,4.38,0,0,1-4.41,4.41Z"/><path class="cls-3" d="M35.72,70.3h61v124A30.75,30.75,0,0,1,66.2,225.08h0a30.74,30.74,0,0,1-30.48-30.82V70.3Zm39.52,1V200.46A7.75,7.75,0,0,0,84,208.07c-2.35,5.08-7.51,9.38-13.79,9.26A14.2,14.2,0,0,1,56,203.15V71.29H36.71v123a29.5,29.5,0,1,0,59,0V71.29Zm-1,0v129.2a8.55,8.55,0,0,0,8.2,8.51,14.51,14.51,0,0,1-12.23,7.33h0A13.25,13.25,0,0,1,57,203.13V71.29Z"/><path class="cls-3" d="M203.27,70.3h-61v124a30.75,30.75,0,0,0,30.49,30.82h0a30.75,30.75,0,0,0,30.49-30.82V70.3Zm-39.53,1V200.46a7.75,7.75,0,0,1-8.74,7.61c2.34,5.08,7.51,9.38,13.78,9.26A14.19,14.19,0,0,0,183,203.15V71.29h19.3v123a29.49,29.49,0,1,1-59,0V71.29Zm1,0v129.2a8.55,8.55,0,0,1-8.2,8.51,14.53,14.53,0,0,0,12.24,7.33h0a13.24,13.24,0,0,0,13.2-13.2V71.29Z"/><path class="cls-5" d="M107.6,87.06a19.71,19.71,0,0,1-.48-8.71c1-3.9,2.48-5.15,3.95-6.32-4.14,6.38-1.76,11.79,2,13.21a17.88,17.88,0,0,1-.1-9.35,13.83,13.83,0,0,1,5.55-7,15.32,15.32,0,0,0-4.7,1.23c-5.37-.38-8.12,2.7-9.82,7-.29,2.21-.59,4.3.27,5.94q1.35,3.31,3.36,4.06Z"/><path class="cls-6" d="M107.68,87.16l-.1,0c-1.35-.51-2.49-1.88-3.4-4.1-.84-1.6-.57-3.63-.29-5.78l0-.2c2-5.1,5.16-7.32,9.86-7a15.52,15.52,0,0,1,4.7-1.23l0,.11a13.68,13.68,0,0,0-5.53,7,18,18,0,0,0,.11,9.32l0,.11-.11,0a6.54,6.54,0,0,1-3.8-4.17c-.86-2.65-.29-5.78,1.62-8.84-1.28,1-2.68,2.33-3.67,6.07a19.65,19.65,0,0,0,.48,8.69ZM104,77.08l0,.18c-.28,2.13-.54,4.14.29,5.71.87,2.13,2,3.48,3.22,4a19.67,19.67,0,0,1-.45-8.63c1.07-4,2.61-5.27,4-6.35l.09.08c-2,3.12-2.67,6.33-1.79,9A6.47,6.47,0,0,0,113,85.15a18.15,18.15,0,0,1-.08-9.28A13.83,13.83,0,0,1,118.27,69a15.32,15.32,0,0,0-4.46,1.2h0C109.15,69.84,106,72,104,77.08Z"/><path class="cls-5" d="M131.33,87.06a19.71,19.71,0,0,0,.48-8.71c-1-3.9-2.49-5.15-4-6.32,4.14,6.38,1.76,11.79-2,13.21a18,18,0,0,0,.11-9.35,13.83,13.83,0,0,0-5.55-7,15.26,15.26,0,0,1,4.69,1.23c5.37-.38,8.13,2.7,9.83,7,.28,2.21.59,4.3-.27,5.94q-1.37,3.31-3.36,4.06Z"/><path class="cls-6" d="M131.24,87.16l0-.11a19.5,19.5,0,0,0,.48-8.69c-1-3.74-2.39-5-3.66-6.07,1.9,3.06,2.48,6.19,1.61,8.84a6.52,6.52,0,0,1-3.8,4.17l-.1,0,0-.11a18,18,0,0,0,.1-9.33,13.73,13.73,0,0,0-5.52-7l0-.11a15.45,15.45,0,0,1,4.7,1.23c4.7-.33,7.83,1.89,9.87,7h0l0,.19c.28,2.15.54,4.18-.3,5.79-.91,2.21-2.05,3.58-3.39,4.09ZM127.89,72c1.36,1.08,2.9,2.3,4,6.34a19.7,19.7,0,0,1-.45,8.64c1.27-.52,2.35-1.87,3.23-4,.82-1.58.56-3.59.28-5.72l0-.18c-2-5-5.12-7.25-9.76-6.91h0a15.35,15.35,0,0,0-4.45-1.2A13.81,13.81,0,0,1,126,75.87a18.14,18.14,0,0,1-.07,9.28,6.47,6.47,0,0,0,3.63-4.05c.87-2.7.24-5.91-1.79-9Z"/><path class="cls-5" d="M119.45,69.2c-1.92,2.19-2.08,5-2.35,7.81a39,39,0,0,0,1,7.43c.87.06,1.74-.16,2.61-.1,1.07-2.38,1-4.64,1.28-7-.41-4-1.24-6.56-2.56-8.18Z"/><path class="cls-6" d="M118.41,84.51h-.34v0A39.2,39.2,0,0,1,117,77l0-.46c.25-2.72.49-5.3,2.32-7.39l0,0,0,0c1.36,1.68,2.18,4.29,2.58,8.22-.09.63-.14,1.25-.2,1.85a15.2,15.2,0,0,1-1.09,5.13v0h0a9.36,9.36,0,0,0-1.3.06C119.09,84.48,118.75,84.51,118.41,84.51Zm-.25-.12a8.86,8.86,0,0,0,1.26-.06,7.71,7.71,0,0,1,1.27,0,15.21,15.21,0,0,0,1.07-5.06c0-.6.11-1.23.2-1.84-.4-3.86-1.19-6.44-2.51-8.09-1.77,2-2,4.59-2.25,7.27l0,.45A38.64,38.64,0,0,0,118.16,84.39Z"/><path class="cls-5" d="M119.4,64.42a1.94,1.94,0,1,1-2,1.94,2,2,0,0,1,2-1.94Z"/><path class="cls-6" d="M119.4,68.35a2,2,0,1,1,2-2A2,2,0,0,1,119.4,68.35Zm0-3.87a1.88,1.88,0,1,0,1.91,1.88A1.9,1.9,0,0,0,119.4,64.48Z"/><path class="cls-5" d="M107.87,87c.67,2.37,1.35,4.74,2,7.11a20.93,20.93,0,0,0,9.61,2.41q6.65-.37,9.24-2.46,1.17-3.45,2.35-6.9a26.18,26.18,0,0,0-11.69-2.78c-3.82.62-7.55.65-11.53,2.62Z"/><path class="cls-3" d="M129.9,93.25c-.24,1.9-4.83,3.42-10.44,3.42S109.39,95.2,109,93.34h0l-1.91-6h0a.81.81,0,0,1,0-.16v-.1c-2.59-1.33-4.44-5.91-3.6-9.34,1.42-5.83,5.58-8.49,10.74-8.15a13.83,13.83,0,0,1,4.1-1.17,2.39,2.39,0,0,1-1.23-2.08,2.36,2.36,0,0,1,2-2.33V63h-1.56v-.74h1.56V60.68h.74v1.55h1.55V63h-1.55v1a2.37,2.37,0,0,1,.81,4.42,13.91,13.91,0,0,1,4.1,1.17c5.16-.34,9.31,2.32,10.73,8.15.85,3.46-1,8.09-3.66,9.38v.06a.77.77,0,0,1,0,.15h0l-1.91,5.93ZM119.49,64.71a1.62,1.62,0,1,1-1.62,1.62,1.62,1.62,0,0,1,1.62-1.62Zm10,9.33a9.28,9.28,0,0,1,.94,4.14c0,2.7-.83,5.16-2.6,6.57a9.11,9.11,0,0,1,3.33,1.38,18.83,18.83,0,0,0,.3-7.77,11.82,11.82,0,0,0-2-4.32Zm-2.58-3.64c4,3.37,6.83,7.06,5,15.63,1.6-.64,3.12-4.32,3-6.74-.18-3.61-2.92-8.55-8-8.89Zm-7-1.35a18,18,0,0,1,2.24,9,23,23,0,0,1-1,5.9,38.24,38.24,0,0,1,4.43.41,16.88,16.88,0,0,0,.29-7.21c-.74-3.77-3.42-6.21-6-8.06Zm6.55,15.42.14,0c2.5-.82,3.31-5.8,2.57-8.69a9.28,9.28,0,0,0-7.68-6.44,13.85,13.85,0,0,1,4.86,6.48,17.06,17.06,0,0,1,.11,8.63Zm-1.07,1.38-.16,0v-.06l-.37,0-.24,0V90c2,.35,3.86.9,4.67,1.7L130.48,88c-.6-.85-2.65-1.78-5-2.17ZM119,69.05c-2.57,1.85-5.24,4.29-6,8.06a17.16,17.16,0,0,0,.29,7.2,38.76,38.76,0,0,1,4.47-.41,22.46,22.46,0,0,1-1-6,17.84,17.84,0,0,1,2.22-8.9Zm-.48,14.83h1.94a20.88,20.88,0,0,0,1-7.32,17,17,0,0,0-1.92-6.81,17.35,17.35,0,0,0-1.93,6.83,21.36,21.36,0,0,0,1,7.3Zm-10.73,2.2a9.5,9.5,0,0,1,3.33-1.34c-1.76-1.41-2.6-3.87-2.59-6.56a9.28,9.28,0,0,1,.95-4.14,11.82,11.82,0,0,0-2,4.32,18.59,18.59,0,0,0,.28,7.72Zm4.26-15.68c-4,3.37-6.83,7.06-5,15.63-1.6-.64-3.12-4.32-3-6.74.19-3.61,2.92-8.55,8-8.89Zm.24,14.09.16,0a17.14,17.14,0,0,1,.11-8.62,13.92,13.92,0,0,1,4.86-6.48,9.28,9.28,0,0,0-7.68,6.44c-.74,2.88.07,7.84,2.55,8.69Zm1.14,1.34.25,0,0-.09.55-.07v4.2a11.18,11.18,0,0,0-4.72,1.69l-1.16-3.82c.56-.87,2.79-1.6,5.1-2Zm8.48-.33a2.64,2.64,0,0,1,.28,1.19,2.75,2.75,0,0,1-2.51,2.74,36.17,36.17,0,0,1,4,.36V85.63c-.63-.06-1.23-.1-1.79-.13Zm-2.79,3.92A2.75,2.75,0,0,1,117,85.48c-.56,0-1.17.07-1.79.13v4.15a28,28,0,0,1,3.93-.34Zm1.88-4a1.93,1.93,0,0,1,.44,1.24,2,2,0,0,1-4,0A2,2,0,0,1,121,85.45Zm-1.61,5.77c5,0,9,1,9,2.24s-4,2.25-9,2.25-9-1-9-2.25,4-2.24,9-2.24Z"/><path class="cls-1" d="M106.43,104.53a23.75,23.75,0,1,1-23.74,23.74,23.74,23.74,0,0,1,23.74-23.74Z"/><path class="cls-1" d="M132.41,104.1a23.75,23.75,0,1,1-23.74,23.75,23.75,23.75,0,0,1,23.74-23.75Z"/><path class="cls-7" d="M41,92.63l16.52,20.83a49.86,49.86,0,0,1,12.37-7.91L52.58,84A61.19,61.19,0,0,0,41,92.63Z"/><path class="cls-8" d="M70.06,105.45,52.58,84A27.43,27.43,0,0,1,67.5,80.56l18.76,23.6c-5.63-.26-11.14-.16-16.2,1.29Z"/><polygon class="cls-1" points="78.8 77.04 100.97 104.7 105.13 103.74 81.78 74.8 78.8 77.04 78.8 77.04"/><path class="cls-1" d="M78.75,71.7A2.29,2.29,0,1,1,76.46,74a2.29,2.29,0,0,1,2.29-2.29Z"/><path class="cls-3" d="M78.31,77.12l.65-.57h-.24a2.67,2.67,0,1,1,2.67-2.66,2.37,2.37,0,0,1-.09.65l.5-.42,23.83,29.74-4.74,1.35L95.8,98.88a10.81,10.81,0,0,1-5.56,4.8c-7.91,2-13.61-1-22.58,3.19-3.57,1.65-6.95,4.4-10.32,7.13-5.68-7.52-11.15-13.77-16.83-21.29a47.25,47.25,0,0,1,14.7-10.54c5.67-2.81,13.42-1.47,19-2.43,3-.5,3.46-1,4.52-2.1l-.41-.52ZM52.36,84.48,69.2,105.42l-1,.39c-4,1.68-7.33,4.38-10.7,7.1l0,0-16-20.16a59.25,59.25,0,0,1,5.61-4.93,44.21,44.21,0,0,1,5.25-3.37Zm17.58,20.68L53,84.12c.44-.24.89-.47,1.33-.69C59.13,81,62.89,81,67,80.93l18.36,22.74c-2.49.16-5,0-7.45.15a27.52,27.52,0,0,0-7.92,1.34ZM78.72,72A1.92,1.92,0,1,1,76.8,73.9,1.92,1.92,0,0,1,78.72,72Zm.62,5.23,2.35-2,22.87,28.53-3.57.42L79.34,77.21Z"/><path class="cls-7" d="M198,92.63,181.5,113.46a50,50,0,0,0-12.36-7.91L186.41,84A61.46,61.46,0,0,1,198,92.63Z"/><path class="cls-8" d="M168.92,105.45,186.41,84a27.48,27.48,0,0,0-14.93-3.42l-18.76,23.6c5.63-.26,11.14-.16,16.2,1.29Z"/><polygon class="cls-1" points="160.18 77.04 138.01 104.7 133.85 103.74 157.2 74.8 160.18 77.04 160.18 77.04"/><path class="cls-1" d="M160.24,71.7A2.29,2.29,0,1,0,162.53,74a2.29,2.29,0,0,0-2.29-2.29Z"/><path class="cls-3" d="M160.68,77.12l-.66-.57h.24a2.67,2.67,0,1,0-2.66-2.66,2.82,2.82,0,0,0,.08.65l-.49-.42-23.83,29.74,4.74,1.35,5.09-6.34a10.77,10.77,0,0,0,5.56,4.8c7.9,2,13.61-1,22.57,3.19,3.58,1.65,7,4.4,10.33,7.13,5.68-7.52,11.14-13.77,16.82-21.29a47.21,47.21,0,0,0-14.69-10.54c-5.68-2.81-13.43-1.47-19-2.43-3-.5-3.47-1-4.53-2.1l.42-.52Zm25.95,7.36-16.85,20.94,1,.39c4,1.68,7.33,4.38,10.7,7.1l0,0,16-20.16a59.25,59.25,0,0,0-5.61-4.93,44.92,44.92,0,0,0-5.24-3.37ZM169,105.16l16.92-21c-.44-.24-.88-.47-1.33-.69C179.86,81,176.09,81,172,80.93l-18.36,22.74c2.49.16,5,0,7.45.15a27.52,27.52,0,0,1,7.92,1.34ZM160.26,72a1.92,1.92,0,1,0,1.93,1.92A1.92,1.92,0,0,0,160.26,72Zm-.62,5.23-2.35-2-22.86,28.53,3.56.42,21.65-26.94Z"/><path class="cls-4" d="M132.24,101.9a26.35,26.35,0,1,1-26.32,26.37,26.55,26.55,0,0,1,26.32-26.37Zm-.11,3.63a22.51,22.51,0,0,1,22.64,22.74,22.7,22.7,0,0,1-45.39.06,22.65,22.65,0,0,1,22.75-22.8Z"/><path class="cls-4" d="M106.85,102.06A26.19,26.19,0,1,1,80.7,128.33a26.4,26.4,0,0,1,26.15-26.27Zm0,3.47a22.69,22.69,0,1,1-22.69,22.74,22.65,22.65,0,0,1,22.69-22.74Z"/><path class="cls-3" d="M132.13,101.33a26.94,26.94,0,1,1-26.94,26.94,27,27,0,0,1,26.94-26.94Zm0,1a25.95,25.95,0,1,1-25.94,25.94,25.95,25.95,0,0,1,25.94-25.94Zm0,3a23,23,0,1,1-23,23,23,23,0,0,1,23-23Zm0,1a22,22,0,1,1-22,22,22,22,0,0,1,22-22Z"/><path class="cls-3" d="M106.85,101.33a26.94,26.94,0,1,1-26.93,26.94,26.94,26.94,0,0,1,26.93-26.94Zm0,1a25.95,25.95,0,1,1-25.94,25.94,26,26,0,0,1,25.94-25.94Zm0,3a23,23,0,1,1-22.95,23,23,23,0,0,1,22.95-23Zm0,1a22,22,0,1,1-22,22,22,22,0,0,1,22-22Z"/><path class="cls-8" d="M212.57,115c.66,2.71,1.74,5.19,2,8a10.41,10.41,0,0,1-.9,4.65,1.69,1.69,0,0,1-1.45,1.07,2.42,2.42,0,0,1-1.92-1.34,7.21,7.21,0,0,1-.53-4.38,24.64,24.64,0,0,1,2.83-8Z"/><path class="cls-8" d="M205.36,127.91c1.4,3.27,3.35,3.85,4.77,6.25a8.5,8.5,0,0,1,1.62,5.1,7.37,7.37,0,0,1-3.06-1.38,7.22,7.22,0,0,1-2.56-3,12.22,12.22,0,0,1-.77-7Z"/><path class="cls-8" d="M205.36,138.82c1.4,3.28,3,3.43,4.61,5.56,1.4,1.88,1.69,2.24,1.78,4.57a7.46,7.46,0,0,1-3.12-1,7.3,7.3,0,0,1-2.55-3c-1-2.46-1.05-3.34-.72-6.16Z"/><path class="cls-8" d="M205.42,149.63c1.39,3.27,3,3.43,4.61,5.56,1.39,1.88,1.69,2.24,1.77,4.57a7.37,7.37,0,0,1-3.11-1,7.12,7.12,0,0,1-2.56-3c-1-2.45-1-3.34-.71-6.15Z"/><path class="cls-8" d="M205.42,159c1.39,3.27,3,3.43,4.61,5.56,1.39,1.88,1.69,2.24,1.77,4.57a7.51,7.51,0,0,1-3.11-1,7.12,7.12,0,0,1-2.56-3c-1-2.45-1-3.34-.71-6.15Z"/><path class="cls-8" d="M205.1,169.86c1.39,3.28,3.56,2.84,5.14,5,1.39,1.89,1.42,2.46,1.51,4.78a7.46,7.46,0,0,1-3.12-1,7.17,7.17,0,0,1-2.55-3c-1-2.45-1.32-3-1-5.78Z"/><path class="cls-8" d="M205.47,181.2c1.4,3.27,3.19,2.84,4.77,5,1.39,1.88,1.37,1.82,1.45,4.14-1-.13-2.36,0-2.95-.47-1.11-1-2.08-1.35-2.71-2.86-1-2.45-.9-3-.56-5.78Z"/><path class="cls-8" d="M205.68,191.42c2.15,2.11,3.2,2.63,4.56,5,1.17,2,1.1,1.86,1.19,4.19-2.19-.29-4.29-1.24-5.19-3.39-1-2.45-.89-3-.56-5.78Z"/><path class="cls-8" d="M219.17,192.11c-2.15,2.11-3.14,2.47-4.4,4.87a30,30,0,0,1-2.09,3.93,6.46,6.46,0,0,0,5.13-3c1.49-2.21,1.69-3,1.36-5.84Z"/><path class="cls-8" d="M219.38,201.75c-2.14,2.1-4.2,2.37-5.46,4.76-1.07,2-2.92,3-3.69,4,2.88.67,6.34-1.17,7.69-3.22a7,7,0,0,0,1.46-5.57Z"/><path class="cls-8" d="M205,200.9c1.5,2.1,2.6,2.68,3.86,5.08,1.07,2,.79,3.57,1.56,4.56-3.94-.77-4.63-2-5.29-3.38-.84-1.74-.47-3.45-.13-6.26Z"/><path class="cls-8" d="M202.38,210.21c.81,3.12,1.54,2.21,2.8,4.61,1.06,2,.25,3.09.55,4.14-2.78,0-3.63-1.13-4.18-2.54-.68-1.74-.57-3.76.83-6.21Z"/><path class="cls-8" d="M198.9,217.31c.07,2.45.6,2.72.92,5.4.27,2.27-1.67,4.31-1.77,5.4-2.05-1.87-2.4-3.31-2.41-4.82a8.15,8.15,0,0,1,3.26-6Z"/><path class="cls-8" d="M193.62,223.58a54.18,54.18,0,0,0-.88,6.17c-.21,2.27-2,4.08-2.85,4.9-1.3-1.13-1.49-3.68-1.19-5.16a10.17,10.17,0,0,1,4.92-5.91Z"/><path class="cls-8" d="M177.54,233.5c-1.21,2.13-.79,2.45-1.91,4.91-.95,2.08-3.55,3.7-4.63,4.2-.85-1.5-.36-3.64.41-4.94a9.32,9.32,0,0,1,6.13-4.17Z"/><path class="cls-8" d="M185.8,229.52c-1,2.25-.67,2.53-1.52,5.1a10.89,10.89,0,0,1-3.81,4.94,5.89,5.89,0,0,1-.3-5.21,9.3,9.3,0,0,1,5.63-4.83Z"/><path class="cls-8" d="M194,241.44a49,49,0,0,0-5.82-2.07c-2.18-.68-6.65.34-7.74.8.55,1.64,3.54,3.26,5,3.56a13.27,13.27,0,0,0,8.54-2.29Z"/><path class="cls-8" d="M182.58,247.09c-2.07-1.27-2.77-1.53-5.09-2.92-2-1.16-5-1-6.16-.78.15,1.71,2.06,2.92,3.43,3.54,1.69.78,5.31,1.43,7.82.16Z"/><path class="cls-8" d="M160.11,253.32a16.44,16.44,0,0,0-3.14-4.48,15.42,15.42,0,0,0-6.21-3.3c-.48,1.65.85,3.47,1.9,4.55,1.29,1.35,4.65,3.48,7.45,3.23Z"/><path class="cls-8" d="M172,251.24c-1.45-1.85-1.81-1.87-4-3.59-1.79-1.41-5.6-2.07-6.78-2.13-.24,1.7,1.78,3.3,3,4.22a10.73,10.73,0,0,0,7.79,1.5Z"/><path class="cls-8" d="M148.82,253c-1-2.11-1.33-2.09-3.11-4.22a15.62,15.62,0,0,0-5.8-3.8c-.57,1.63.66,3.51,1.64,4.66,1.22,1.41,4.45,3.46,7.27,3.36Z"/><path class="cls-8" d="M158.51,238.42c-1,2.12-1.3,2.11-3,4.26-1.44,1.76-3.65,2-4.79,2.27-.44-1.66.56-3.14,1.52-4.3,1.2-1.43,3.5-2.29,6.32-2.23Z"/><path class="cls-8" d="M168.78,236.82c-1,2.12-1.14,2.86-3,4.9a11.82,11.82,0,0,1-4.73,3.18c-.44-1.67.56-3.89,1.52-5a8.09,8.09,0,0,1,6.21-3Z"/><path class="cls-8" d="M138.65,237a7.63,7.63,0,0,1-3.72,4.11,10.47,10.47,0,0,1-5.41,1.27,6,6,0,0,1,2.79-4.21,7,7,0,0,1,6.34-1.17Z"/><path class="cls-8" d="M136.68,251.57a9.38,9.38,0,0,0-2.36-5.64,11.87,11.87,0,0,0-4.95-3.29c-.53,1.64.46,3.92,1.35,5.13,1.11,1.5,3.15,3.7,6,3.8Z"/><path class="cls-8" d="M147.81,238.8c-.91,1.83-1.19,2.71-3.56,4.11-2,1.16-2.52,1.31-3.71,1.27a4.3,4.3,0,0,1,1.94-3.73c1.56-1,2.45-2,5.33-1.65Z"/><path class="cls-8" d="M202.42,234.53a14.09,14.09,0,0,0-5.37-.74,19.54,19.54,0,0,0-6.23,1.41,8.19,8.19,0,0,0,6.43,2.37c1.92-.21,3.29-.59,5.17-3Z"/><path class="cls-8" d="M210.88,225.11c-2.13-.08-4.1.37-6.8.48-2.48.11-4.24,1.85-5.28,2.85,1.95,1.54,5.15,1,6.65.82,1.92-.2,3.55-1.71,5.43-4.15Z"/><path class="cls-8" d="M216.84,214.35c-2.13-.07-2.29.25-4.67.92s-4.67,3-5.7,4c1.95,1.54,5.22.49,6.59-.13,2-.9,2.87-2.35,3.78-4.8Z"/><path class="cls-8" d="M219,181.73c-1.51,3-2.14,2.74-4.24,4.44a6.52,6.52,0,0,0-2.31,4.14c2.19-.29,3.92-.23,5.3-2.26,1.49-2.21,1.58-3.5,1.25-6.32Z"/><path class="cls-8" d="M219,170.55c-1.5,3-2.13,2.73-4.23,4.44-1.44,1.17-2.23,3.74-2.42,5.1a7.24,7.24,0,0,0,5.4-3.22c1.49-2.21,1.59-3.5,1.25-6.32Z"/><path class="cls-8" d="M219,159.48a19.39,19.39,0,0,1-4.13,4.49c-1.44,1.17-2.34,4.11-2.52,5.48a7.41,7.41,0,0,0,5.45-3.23c1.49-2.2,1.53-3.93,1.2-6.74Z"/><path class="cls-8" d="M219.06,149.84a19.24,19.24,0,0,1-4.13,4.5c-1.44,1.17-2.33,4.1-2.52,5.47a7.31,7.31,0,0,0,5.45-3.23c1.49-2.2,1.54-3.92,1.2-6.74Z"/><path class="cls-8" d="M219.17,139.09a19.2,19.2,0,0,1-4.14,4.49c-1.43,1.17-2.33,4.11-2.51,5.48a7.41,7.41,0,0,0,5.45-3.23c1.49-2.2,1.53-3.93,1.2-6.74Z"/><path class="cls-8" d="M219.11,128c-1.4,3.28-3.35,3.86-4.77,6.25a8.51,8.51,0,0,0-1.61,5.1,7.43,7.43,0,0,0,3.06-1.38,7.17,7.17,0,0,0,2.55-3,12.17,12.17,0,0,0,.77-7Z"/><path class="cls-3" d="M211.76,127.15v1.12c-1.49-.93-1.77-3.58-1.58-5.25.28-2.51,1.36-4.73,2.27-7.06h0c.72,2.29,1.62,4.6,1.61,7,0,1.43-.23,4-1.31,5.08v-.93Zm-8.74,82a7.23,7.23,0,0,0-2,6.76,4,4,0,0,0,4.41,3.33A48,48,0,0,1,199,227a7.53,7.53,0,0,0,1-4.1c-.07-2.81-.9-3.87-.69-6.38-1.31,1-4,3.51-4.09,6.46,0,2.09.77,4.53,2.3,5.4a60,60,0,0,1-5.67,4.58,7.85,7.85,0,0,0,1.17-2.79c.57-2.75.11-4.83.89-7.23-1.52.72-4.85,3.35-5.57,6.22-.48,1.93-.3,4.35.84,5.61a59.75,59.75,0,0,1-6.9,3.76,7.75,7.75,0,0,0,1.92-3,62.32,62.32,0,0,1,2.46-6.87c-1.76.29-5.48,2.33-6.58,5.07-.76,1.88-1.05,4.32-.22,5.83-1.65.69-3.31,1.3-5,1.86-.85.28-1.7.55-2.56.8a11.53,11.53,0,0,0,3.47-3.13c1.11-1.42,1.49-4.18,2.31-6.32a10.83,10.83,0,0,0-6.46,3.74,6.26,6.26,0,0,0-1.27,6.26,70,70,0,0,1-7.65,1.59,14.35,14.35,0,0,0,4-3.11,11.24,11.24,0,0,0,2.33-5,8,8,0,0,0-5.93,2.35,9.18,9.18,0,0,0-2.68,6.06c-.68.08-1.36.14-2.06.2q-3.54.28-7,.26a10.65,10.65,0,0,0,4.45-2.38,11.35,11.35,0,0,0,3-4.64,7.92,7.92,0,0,0-6.19,1.54,7.79,7.79,0,0,0-2.76,5.45,75.17,75.17,0,0,1-8.27-.68,8.58,8.58,0,0,0,3.89-1.85,8.46,8.46,0,0,0,2.73-4.28,8,8,0,0,0-5.41,1.42,8.16,8.16,0,0,0-3.12,4.42c-2.66-.43-5.29-1-7.91-1.69a10.45,10.45,0,0,0,4-1.6,6.34,6.34,0,0,0,3.2-4.19,8.48,8.48,0,0,0-6.2.71,7.55,7.55,0,0,0-3.53,4.36q-4.82-1.42-9.59-3.38l-.41.4-.56.28a106.2,106.2,0,0,0,10.12,3.63,7.87,7.87,0,0,0,1.89,5.82,10.48,10.48,0,0,0,6.52,3.7,13.9,13.9,0,0,0-2-5.76,9.9,9.9,0,0,0-3.05-2.81c2.4.61,4.8,1.13,7.23,1.52a7.6,7.6,0,0,0,2.68,5.74,13.24,13.24,0,0,0,7.17,2.68,15.32,15.32,0,0,0-3.56-5.32,15.71,15.71,0,0,0-3.86-2.74,77.53,77.53,0,0,0,8.26.64,8.92,8.92,0,0,0,3.61,5.45,9.82,9.82,0,0,0,6.76,2c-.25-2.34-2-3.9-3.32-5.09a14.81,14.81,0,0,0-3.87-2.41c1.7,0,3.43-.11,5.18-.26.71-.06,1.42-.13,2.12-.21a9.12,9.12,0,0,0,4.58,5.16,10.61,10.61,0,0,0,7.43.78,12.74,12.74,0,0,0-4.65-4.43,15.13,15.13,0,0,0-5.19-1.79,69.8,69.8,0,0,0,8-1.66,7.31,7.31,0,0,0,4,3.67c3.42,1.24,6.41,1.17,8.53-.34-1.7-.63-2.58-1.58-5.2-3a10,10,0,0,0-4.8-1l1.77-.56q2.5-.83,4.94-1.83c1.08,1.47,3.5,3.37,5.48,3.53a11.62,11.62,0,0,0,9.07-2.83c-2.7-1.17-4.78-2.25-7.73-2.31a15.57,15.57,0,0,0-3.95.34,59,59,0,0,0,7.2-4,8.81,8.81,0,0,0,7.79,2.55,7,7,0,0,0,5.14-3.44,16.72,16.72,0,0,0-6-1.06,15.1,15.1,0,0,0-6.06,1.4,60.07,60.07,0,0,0,7.48-5.92,8.09,8.09,0,0,0,4.79,1.13,11.18,11.18,0,0,0,8.6-5.57c-2.21.49-5.4.41-8.07.81a7.63,7.63,0,0,0-2.54.86,49.3,49.3,0,0,0,4.93-6.22A8.87,8.87,0,0,0,214,219a7,7,0,0,0,3.41-5.16,15.53,15.53,0,0,0-9.74,3.75,40,40,0,0,0,3.06-6.57,8.57,8.57,0,0,0,7.53-3.24,9.21,9.21,0,0,0,1.44-7.05c-1.11,1.68-4,2.78-5.17,4.37a32.76,32.76,0,0,1-3.08,3.72,35,35,0,0,0,1.3-7.59,8.55,8.55,0,0,0,5.45-2.92,9.33,9.33,0,0,0,1.28-7.06c-1.11,1.68-2.91,2.51-4,4.11-1,1.42-1.67,3.41-2.64,4.75,0-.28,0-.55,0-.83v-8.69a7.92,7.92,0,0,0,4.68-1.6c1.91-1.7,2.53-4.74,1.92-8.55-.09-.39-.12-.3-.36.32-1.38,3-2.83,3.52-4.25,5a9,9,0,0,0-2,2.43v-7.91a6.91,6.91,0,0,0,4-1.72c2.47-1.92,3.11-5.39,2.45-9.49-.08-.39-.17-.28-.35.32-1.39,3-2.83,3.51-4.26,5a8.71,8.71,0,0,0-1.88,2.63v-7.48a6.91,6.91,0,0,0,4.15-1.73c2.47-1.92,3.11-5.39,2.45-9.49-.09-.39-.15-.3-.36.32a40.88,40.88,0,0,1-4.25,5,8.2,8.2,0,0,0-2,2.91V160a7,7,0,0,0,4.15-1.73c2.47-1.92,3.11-5.39,2.45-9.49-.09-.39-.31-.3-.36.31-1.38,3-2.83,3.52-4.25,5a8.16,8.16,0,0,0-2,2.9v-7.66a6.91,6.91,0,0,0,4.15-1.73c2.47-1.92,3.11-5.39,2.45-9.49-.09-.39-.31-.3-.36.32-1.38,3-2.83,3.51-4.25,5a8.2,8.2,0,0,0-2,2.91v-6.63a9.06,9.06,0,0,0,4.25-2.37c2.56-2.25,3-6.55,2.35-10.54-.09-.37-.47-.27-.52.36-1.06,3.31-2.67,4-4.09,5.78a10.43,10.43,0,0,0-2,3.6V129c1.61-.67,2.11-4.21,2.05-6.49-.07-2.71-1.58-6.16-2.29-9-1,3.48-3.27,7-3.14,10.87.06,1.88.81,4.31,2.38,4.68v7.56a10.46,10.46,0,0,0-2-3.7c-1.42-1.75-3-2.47-4.09-5.78-.05-.63-.43-.73-.52-.36-.65,4-.21,8.29,2.35,10.55a9.09,9.09,0,0,0,4.28,2.37v6.91a7.8,7.8,0,0,0-2.08-3.17c-1.42-1.5-2.87-2-4.25-5-.05-.62-.27-.71-.36-.32-.66,4.1,0,7.57,2.45,9.49a7,7,0,0,0,4.24,1.74v7.76a8,8,0,0,0-2-3c-1.42-1.5-2.86-2-4.25-5,0-.61-.27-.7-.36-.31-.65,4.1,0,7.57,2.46,9.49a6.94,6.94,0,0,0,4.18,1.73v6.72a8.06,8.06,0,0,0-2-3,41.78,41.78,0,0,1-4.25-5c-.21-.62-.27-.71-.36-.32-.65,4.1,0,7.57,2.46,9.49a6.88,6.88,0,0,0,4.18,1.73v7.28a6.79,6.79,0,0,0-1.65-2.91,11.41,11.41,0,0,0-2.38-1.69,5.92,5.92,0,0,1-2.52-2.74c-.18-.59-.27-.7-.35-.32-.66,4.1.57,7.15,3,9.07a8.22,8.22,0,0,0,3.86,2V188a7.46,7.46,0,0,0-1.8-2.62c-1.42-1.5-3.08-1.62-4.47-4.59-.23-.62-.27-.7-.35-.32-.62,3.82,0,6.86,1.92,8.55a8,8,0,0,0,4.7,1.61v8.45a11.28,11.28,0,0,0-2.17-4.49c-1.93-2.35-3.17-2.09-3.93-4.44-.92,3.75-.55,6.83,1.21,8.68a8.56,8.56,0,0,0,4.85,2.17,34.23,34.23,0,0,1-1.4,8,11.52,11.52,0,0,0-1.7-4.59c-1.69-2.52-2.94-2.39-3.46-4.8-1.3,3.64-1.24,6.74.33,8.76a8.2,8.2,0,0,0,4.2,2.52,38.91,38.91,0,0,1-3.62,7.39,6.1,6.1,0,0,0-.78-3.88c-.88-1.67-2.51-1.78-2.27-5.21Zm-1,7.47a3.11,3.11,0,0,0,3.22,1.87,5.35,5.35,0,0,0-.64-3.76c-.69-1.26-1.75-1.6-2.25-3.58a6.18,6.18,0,0,0-.33,5.47ZM185.42,230a8.35,8.35,0,0,0-4.6,4.37,7.52,7.52,0,0,0-.41,4.58,6.65,6.65,0,0,0,3-3.53c.79-2,1-3.71,2-5.42Zm7.57-5.44a8.72,8.72,0,0,0-3.93,5.17c-.23,1.32-.28,3.29.63,4.43a6.31,6.31,0,0,0,2.58-3.76,57.22,57.22,0,0,0,.72-5.84Zm5.65-6.37c-1.46,1.44-2.65,3-2.6,5.2.08,1.34.48,3.27,1.63,4.17a6.29,6.29,0,0,0,1.65-4.24c0-2.14-.55-3.35-.68-5.13Zm-11.89,25.31a11,11,0,0,0,6.49-2h0a15.39,15.39,0,0,0-6.73-1.77,19.51,19.51,0,0,0-5.46.86c1.59,1.68,3.16,2.85,5.68,2.87Zm-15,.39a13.57,13.57,0,0,1,2.85-.07l.46.05a7.61,7.61,0,0,1,2.1.52,44.88,44.88,0,0,1,4.61,2.74,8.77,8.77,0,0,1-5.41,0,7.14,7.14,0,0,1-4.61-3.22Zm-42.19-.62.05,0a9.76,9.76,0,0,1,4.52,2.9,10.33,10.33,0,0,1,2.19,5,9.75,9.75,0,0,1-4.69-2.81,7.57,7.57,0,0,1-2.07-5.14ZM143,250.56a6.73,6.73,0,0,1-2.74-5,13.79,13.79,0,0,1,4.67,2.85,14.23,14.23,0,0,1,3.17,4.17,11.92,11.92,0,0,1-5.1-2.06Zm56.39-22.06a8.36,8.36,0,0,1,4.2-2.47c2.21-.44,4.48-.33,6.75-.61a10.51,10.51,0,0,1-5.33,3.49,7.68,7.68,0,0,1-5.62-.41Zm-58.53,15.35a7.15,7.15,0,0,0,4-1.75,8.53,8.53,0,0,0,2.42-3.09,6.49,6.49,0,0,0-3.9,1.39,6.24,6.24,0,0,0-2.5,3.45ZM130.19,242a11.1,11.1,0,0,0,5.21-1.77,5.82,5.82,0,0,0,2.72-3.09c-1.83-.15-3.11-.25-4.92.87a6.24,6.24,0,0,0-2.93,3.28,3.57,3.57,0,0,0-.19.67l.11,0Zm20.75,4.19a14.61,14.61,0,0,1,5.76,2.91,7.59,7.59,0,0,1,2.66,3.75,8.55,8.55,0,0,1-5.14-1.85,7.61,7.61,0,0,1-3.1-4,6.62,6.62,0,0,1-.18-.78ZM171,242l.26,0a8.81,8.81,0,0,0,3.82-3.4c1-1.35,1.23-3.07,2-4.71-2.1.94-3.3,1.46-4.69,3.07A5.87,5.87,0,0,0,171,242Zm-20.26,2.6a9.44,9.44,0,0,0,4.57-2.39,9.94,9.94,0,0,0,2.58-3.48,7.19,7.19,0,0,0-4.78,1.5,6.5,6.5,0,0,0-2.37,4.37Zm10.54-.31a13.13,13.13,0,0,0,4.92-3.53,9,9,0,0,0,2-3.76,7.22,7.22,0,0,0-4.53,2.13,8.65,8.65,0,0,0-2.37,5.16Zm.45,2.07-.17-.36,0,0a14,14,0,0,1,6.05,1.84,12.77,12.77,0,0,1,3.74,3.24,9,9,0,0,1-5.8-.89,8,8,0,0,1-3.8-3.79Zm40.16-11.53a7.17,7.17,0,0,1-3.27,2.1,8.75,8.75,0,0,1-7.14-1.43c-.12-.06.11.18,0-.06a16.81,16.81,0,0,1,5.24-1.25,13.08,13.08,0,0,1,5.2.64Zm14.48-20.14a7.19,7.19,0,0,1-2.2,3.2,8.72,8.72,0,0,1-7.13,1.45c-.13,0,.17.13-.05,0a16.82,16.82,0,0,1,4.34-3.18,13,13,0,0,1,5-1.42Zm2.76-12.33a9.14,9.14,0,0,1-1.11,4.3,8.74,8.74,0,0,1-7.09,3.6v0l.1,0a21.3,21.3,0,0,0,3.71-4.24c.84-1.4,3.28-2.48,4.38-3.6Zm-.27-9.32a8.14,8.14,0,0,1-.89,4.09,7.38,7.38,0,0,1-4.55,3.22c.81-1.19,1.41-2.69,2.18-4a16.37,16.37,0,0,1,3.26-3.34ZM208.6,143.54a10.57,10.57,0,0,1-3-3.21h0a9.43,9.43,0,0,0,.84,4.55,5.74,5.74,0,0,0,2.26,2.52,4.67,4.67,0,0,0,2.73,1.13l0-.09a6.56,6.56,0,0,0-1.08-3,8.9,8.9,0,0,0-1.7-1.92Zm7.23,0a10.57,10.57,0,0,0,3-3.21h0a9.43,9.43,0,0,1-.83,4.55,5.83,5.83,0,0,1-2.27,2.52,4.67,4.67,0,0,1-2.72,1.13v-.09a6.6,6.6,0,0,1,1.08-3,8.85,8.85,0,0,1,1.7-1.91Zm-7.74,61.59c-.82-1.53-2.38-2.34-2.83-3.65a9.81,9.81,0,0,0,.12,5.16,6.52,6.52,0,0,0,4.23,3.43,10.63,10.63,0,0,0-1.52-4.94Zm1-9.73c-1-1.45-2.61-2.1-3.18-3.36a9.82,9.82,0,0,0,.63,5.13,6.52,6.52,0,0,0,4.55,3,10.57,10.57,0,0,0-2-4.75Zm-.27-9.89c-1.14-1-2.51-1.33-3.23-2.78h0c0,2.09.4,4.53,2,5.74a7.23,7.23,0,0,0,3.76,1.48,5.45,5.45,0,0,0-.7-2.52,23.34,23.34,0,0,0-1.81-1.91Zm7,.37a10.65,10.65,0,0,0,3-3.2h0c0,2.09-.41,4.53-2,5.74a7.23,7.23,0,0,1-3.75,1.48,3.94,3.94,0,0,1,.91-2.09,25.21,25.21,0,0,1,1.8-1.92ZM209,174.05c-1.14-1-2.94-1.38-3.66-2.83v.21a7.81,7.81,0,0,0,1.48,4.42,9.67,9.67,0,0,0,4.61,3.41v.17a8.43,8.43,0,0,0-.88-3.47,6.78,6.78,0,0,0-1.54-1.91Zm6.71.48a10.54,10.54,0,0,0,3-3.21h0a9.43,9.43,0,0,1-.83,4.55,5.77,5.77,0,0,1-2.27,2.52,4.67,4.67,0,0,1-2.72,1.13v-.09a6.54,6.54,0,0,1,1.09-3,8.6,8.6,0,0,1,1.7-1.91Zm-7.08-10.74A23.42,23.42,0,0,1,205.6,160l0,.58a9.43,9.43,0,0,0,.84,4.55,5.74,5.74,0,0,0,2.26,2.52,4.7,4.7,0,0,0,2.73,1.13v-.09a6.58,6.58,0,0,0-1.09-3,10.35,10.35,0,0,0-1.7-1.92Zm7.18,0a23.42,23.42,0,0,0,3-3.79l0,.58a9.43,9.43,0,0,1-.83,4.55,5.83,5.83,0,0,1-2.27,2.52,4.67,4.67,0,0,1-2.72,1.13v-.09a6.56,6.56,0,0,1,1.08-3,10.73,10.73,0,0,1,1.7-1.92Zm-7.18-9.6a10.42,10.42,0,0,1-3-3.21h0a9.46,9.46,0,0,0,.84,4.55c.71,1.67,3,3.61,5,3.65v-.09a6.57,6.57,0,0,0-1.09-3,8.6,8.6,0,0,0-1.7-1.91Zm7.18,0a10.57,10.57,0,0,0,3-3.21h0a9.46,9.46,0,0,1-.83,4.55c-.71,1.67-3,3.61-5,3.65v-.09a6.56,6.56,0,0,1,1.08-3,8.85,8.85,0,0,1,1.7-1.91Zm-7.17-21.36a13.72,13.72,0,0,1-3-3.73h0a11.34,11.34,0,0,0,.73,5.32,6.72,6.72,0,0,0,2.27,2.92,8,8,0,0,0,2.83,1.52v-.1a10.73,10.73,0,0,0-1.2-3.78,10.44,10.44,0,0,0-1.59-2.14Zm7.17,0a13.42,13.42,0,0,0,3-3.73h0a11.21,11.21,0,0,1-.73,5.32,6.7,6.7,0,0,1-2.26,2.92,8.23,8.23,0,0,1-2.83,1.51v-.1a10,10,0,0,1,2.78-5.92Z"/><path class="cls-8" d="M26.42,115c-.66,2.71-1.75,5.19-2,8a10.28,10.28,0,0,0,.91,4.65,1.66,1.66,0,0,0,1.44,1.07,2.41,2.41,0,0,0,1.92-1.34,7.21,7.21,0,0,0,.53-4.38,24.85,24.85,0,0,0-2.82-8Z"/><path class="cls-8" d="M33.62,127.91c-1.4,3.27-3.35,3.85-4.77,6.25a8.49,8.49,0,0,0-1.61,5.1,7.43,7.43,0,0,0,3.06-1.38,7.27,7.27,0,0,0,2.55-3,12.06,12.06,0,0,0,.77-7Z"/><path class="cls-8" d="M33.62,138.82c-1.4,3.28-3,3.43-4.61,5.56-1.39,1.88-1.69,2.24-1.77,4.57a7.41,7.41,0,0,0,3.11-1,7.3,7.3,0,0,0,2.55-3c1-2.46,1.06-3.34.72-6.16Z"/><path class="cls-8" d="M33.57,149.63c-1.4,3.27-3,3.43-4.61,5.56-1.4,1.88-1.69,2.24-1.78,4.57a7.46,7.46,0,0,0,3.12-1,7.17,7.17,0,0,0,2.55-3c1-2.45,1-3.34.72-6.15Z"/><path class="cls-8" d="M33.57,159c-1.4,3.27-3,3.43-4.61,5.56-1.4,1.88-1.69,2.24-1.78,4.57a7.61,7.61,0,0,0,3.12-1,7.17,7.17,0,0,0,2.55-3c1-2.45,1-3.34.72-6.15Z"/><path class="cls-8" d="M33.89,169.86c-1.4,3.28-3.57,2.84-5.15,5-1.39,1.89-1.42,2.46-1.5,4.78a7.41,7.41,0,0,0,3.11-1,7.17,7.17,0,0,0,2.55-3c1-2.45,1.32-3,1-5.78Z"/><path class="cls-8" d="M33.51,181.2c-1.39,3.27-3.19,2.84-4.77,5-1.39,1.88-1.37,1.82-1.45,4.14,1-.13,2.37,0,2.95-.47,1.11-1,2.09-1.35,2.72-2.86,1-2.45.89-3,.55-5.78Z"/><path class="cls-8" d="M33.3,191.42c-2.14,2.11-3.19,2.63-4.56,5-1.17,2-1.1,1.86-1.18,4.19,2.18-.29,4.28-1.24,5.18-3.39,1-2.45.9-3,.56-5.78Z"/><path class="cls-8" d="M19.82,192.11C22,194.22,23,194.58,24.21,197a28.57,28.57,0,0,0,2.1,3.93,6.46,6.46,0,0,1-5.14-3c-1.49-2.21-1.69-3-1.35-5.84Z"/><path class="cls-8" d="M19.6,201.75c2.15,2.1,4.2,2.37,5.47,4.76,1.06,2,2.91,3,3.69,4-2.88.67-6.34-1.17-7.69-3.22a6.92,6.92,0,0,1-1.47-5.57Z"/><path class="cls-8" d="M33.94,200.9c-1.5,2.1-2.6,2.68-3.86,5.08-1.07,2-.79,3.57-1.56,4.56,3.94-.77,4.63-2,5.29-3.38.84-1.74.47-3.45.13-6.26Z"/><path class="cls-8" d="M36.61,210.21c-.82,3.12-1.54,2.21-2.8,4.61-1.07,2-.26,3.09-.55,4.14,2.77,0,3.62-1.13,4.17-2.54.68-1.74.58-3.76-.82-6.21Z"/><path class="cls-8" d="M40.08,217.31c-.07,2.45-.59,2.72-.91,5.4-.27,2.27,1.67,4.31,1.77,5.4,2-1.87,2.39-3.31,2.4-4.82a8.12,8.12,0,0,0-3.26-6Z"/><path class="cls-8" d="M45.37,223.58a56.59,56.59,0,0,1,.87,6.17c.21,2.27,2,4.08,2.86,4.9,1.29-1.13,1.49-3.68,1.18-5.16a10.19,10.19,0,0,0-4.91-5.91Z"/><path class="cls-8" d="M61.44,233.5c1.21,2.13.79,2.45,1.91,4.91.95,2.08,3.55,3.7,4.63,4.2.85-1.5.36-3.64-.41-4.94a9.32,9.32,0,0,0-6.13-4.17Z"/><path class="cls-8" d="M53.18,229.52c1,2.25.68,2.53,1.52,5.1a10.9,10.9,0,0,0,3.82,4.94,5.92,5.92,0,0,0,.3-5.21,9.35,9.35,0,0,0-5.64-4.83Z"/><path class="cls-8" d="M44.94,241.44a48.59,48.59,0,0,1,5.83-2.07c2.17-.68,6.64.34,7.73.8-.54,1.64-3.54,3.26-5,3.56a13.27,13.27,0,0,1-8.54-2.29Z"/><path class="cls-8" d="M56.4,247.09c2.07-1.27,2.77-1.53,5.09-2.92,2-1.16,5-1,6.17-.78-.16,1.71-2.06,2.92-3.43,3.54-1.7.78-5.31,1.43-7.83.16Z"/><path class="cls-8" d="M78.87,253.32A16.49,16.49,0,0,1,82,248.84a15.33,15.33,0,0,1,6.2-3.3c.48,1.65-.85,3.47-1.9,4.55-1.29,1.35-4.65,3.48-7.45,3.23Z"/><path class="cls-8" d="M67,251.24c1.45-1.85,1.81-1.87,4-3.59,1.79-1.41,5.6-2.07,6.79-2.13.23,1.7-1.78,3.3-3,4.22a10.72,10.72,0,0,1-7.79,1.5Z"/><path class="cls-8" d="M90.17,253c1-2.11,1.32-2.09,3.1-4.22a15.62,15.62,0,0,1,5.8-3.8c.57,1.63-.66,3.51-1.64,4.66-1.22,1.41-4.45,3.46-7.26,3.36Z"/><path class="cls-8" d="M80.48,238.42c1,2.12,1.3,2.11,3,4.26,1.44,1.76,3.64,2,4.79,2.27.43-1.66-.56-3.14-1.53-4.3-1.2-1.43-3.5-2.29-6.31-2.23Z"/><path class="cls-8" d="M70.2,236.82c1,2.12,1.14,2.86,3,4.9a11.78,11.78,0,0,0,4.74,3.18c.43-1.67-.57-3.89-1.53-5a8.07,8.07,0,0,0-6.21-3Z"/><path class="cls-8" d="M100.33,237a7.67,7.67,0,0,0,3.72,4.11,10.47,10.47,0,0,0,5.41,1.27,6,6,0,0,0-2.78-4.21,7,7,0,0,0-6.35-1.17Z"/><path class="cls-8" d="M102.3,251.57a9.4,9.4,0,0,1,2.37-5.64,11.91,11.91,0,0,1,4.94-3.29c.53,1.64-.45,3.92-1.35,5.13-1.11,1.5-3.15,3.7-6,3.8Z"/><path class="cls-8" d="M91.17,238.8c.91,1.83,1.19,2.71,3.57,4.11,2,1.16,2.51,1.31,3.7,1.27a4.27,4.27,0,0,0-1.93-3.73c-1.57-1-2.46-2-5.34-1.65Z"/><path class="cls-8" d="M36.57,234.53a14.07,14.07,0,0,1,5.36-.74,19.62,19.62,0,0,1,6.24,1.41,8.23,8.23,0,0,1-6.44,2.37c-1.92-.21-3.29-.59-5.16-3Z"/><path class="cls-8" d="M28.1,225.11c2.14-.08,4.1.37,6.8.48,2.49.11,4.25,1.85,5.28,2.85-2,1.54-5.15,1-6.65.82-1.91-.2-3.55-1.71-5.43-4.15Z"/><path class="cls-8" d="M22.14,214.35c2.13-.07,2.29.25,4.67.92s4.67,3,5.71,4c-2,1.54-5.23.49-6.6-.13-2-.9-2.86-2.35-3.78-4.8Z"/><path class="cls-8" d="M20,181.73c1.5,3,2.13,2.74,4.23,4.44a6.52,6.52,0,0,1,2.31,4.14c-2.19-.29-3.92-.23-5.29-2.26-1.49-2.21-1.59-3.5-1.25-6.32Z"/><path class="cls-8" d="M20,170.55c1.51,3,2.14,2.73,4.24,4.44,1.44,1.17,2.22,3.74,2.41,5.1a7.26,7.26,0,0,1-5.4-3.22c-1.49-2.21-1.59-3.5-1.25-6.32Z"/><path class="cls-8" d="M20,159.48A19.17,19.17,0,0,0,24.11,164c1.44,1.17,2.33,4.11,2.52,5.48a7.41,7.41,0,0,1-5.46-3.23c-1.49-2.2-1.53-3.93-1.19-6.74Z"/><path class="cls-8" d="M19.92,149.84a19.24,19.24,0,0,0,4.13,4.5c1.44,1.17,2.34,4.1,2.52,5.47a7.35,7.35,0,0,1-5.45-3.23c-1.49-2.2-1.53-3.92-1.2-6.74Z"/><path class="cls-8" d="M19.82,139.09A19.17,19.17,0,0,0,24,143.58c1.44,1.17,2.33,4.11,2.52,5.48A7.41,7.41,0,0,1,21,145.83c-1.48-2.2-1.53-3.93-1.19-6.74Z"/><path class="cls-8" d="M19.87,128c1.4,3.28,3.36,3.86,4.77,6.25a8.46,8.46,0,0,1,1.62,5.1,7.37,7.37,0,0,1-3.06-1.38,7.2,7.2,0,0,1-2.56-3,12.26,12.26,0,0,1-.77-7Z"/><path class="cls-3" d="M27.22,127.15v1.12c1.49-.93,1.77-3.58,1.58-5.25A27.72,27.72,0,0,0,26.53,116h0c-.73,2.29-1.63,4.6-1.62,7,0,1.43.23,4,1.31,5.08v-.93Zm8.75,82A7.23,7.23,0,0,1,38,216a4,4,0,0,1-4.41,3.33A48.54,48.54,0,0,0,40,227a7.62,7.62,0,0,1-1-4.1c.07-2.81.91-3.87.69-6.38,1.31,1,4,3.51,4.09,6.46,0,2.09-.77,4.53-2.29,5.4A58.64,58.64,0,0,0,47.06,233a8,8,0,0,1-1.17-2.79c-.57-2.75-.1-4.83-.89-7.23,1.52.72,4.85,3.35,5.57,6.22.48,1.93.3,4.35-.84,5.61a59.05,59.05,0,0,0,6.91,3.76,7.52,7.52,0,0,1-1.92-3,66.73,66.73,0,0,0-2.46-6.87c1.76.29,5.47,2.33,6.57,5.07.76,1.88,1.05,4.32.23,5.83,1.64.69,3.3,1.3,5,1.86.85.28,1.7.55,2.56.8a11.53,11.53,0,0,1-3.47-3.13c-1.11-1.42-1.49-4.18-2.31-6.32a10.83,10.83,0,0,1,6.46,3.74,6.26,6.26,0,0,1,1.28,6.26,69.36,69.36,0,0,0,7.64,1.59,14.35,14.35,0,0,1-4-3.11,11.46,11.46,0,0,1-2.33-5,8,8,0,0,1,5.93,2.35,9.18,9.18,0,0,1,2.68,6.06c.68.08,1.37.14,2.06.2q3.54.28,7,.26a10.65,10.65,0,0,1-4.45-2.38,11.23,11.23,0,0,1-3-4.64,7.91,7.91,0,0,1,6.18,1.54,7.79,7.79,0,0,1,2.76,5.45,75.17,75.17,0,0,0,8.27-.68,8.58,8.58,0,0,1-3.89-1.85,8.38,8.38,0,0,1-2.72-4.28,7.94,7.94,0,0,1,5.4,1.42,8.16,8.16,0,0,1,3.12,4.42c2.66-.43,5.3-1,7.91-1.69a10.45,10.45,0,0,1-4-1.6,6.34,6.34,0,0,1-3.2-4.19,8.48,8.48,0,0,1,6.2.71,7.55,7.55,0,0,1,3.53,4.36c3.21-.95,6.59-2.16,9.78-3.46l1,.43-.2.33a106.37,106.37,0,0,1-10.13,3.63,7.79,7.79,0,0,1-1.89,5.82,10.45,10.45,0,0,1-6.52,3.7,13.78,13.78,0,0,1,2-5.76,9.86,9.86,0,0,1,3-2.81c-2.4.61-4.8,1.13-7.23,1.52a7.56,7.56,0,0,1-2.68,5.74,13.21,13.21,0,0,1-7.17,2.68,15.46,15.46,0,0,1,3.56-5.32,15.71,15.71,0,0,1,3.86-2.74,77.32,77.32,0,0,1-8.26.64,9,9,0,0,1-3.6,5.45,9.85,9.85,0,0,1-6.76,2c.24-2.34,2-3.9,3.31-5.09a14.81,14.81,0,0,1,3.87-2.41c-1.7,0-3.43-.11-5.18-.26-.71-.06-1.42-.13-2.12-.21a9.14,9.14,0,0,1-4.57,5.16,10.62,10.62,0,0,1-7.43.78A12.72,12.72,0,0,1,71,247.17a15.18,15.18,0,0,1,5.2-1.79,69.54,69.54,0,0,1-8-1.66,7.29,7.29,0,0,1-4,3.67c-3.42,1.24-6.42,1.17-8.53-.34,1.69-.63,2.58-1.58,5.19-3a10,10,0,0,1,4.8-1l-1.77-.56c-1.67-.55-3.31-1.16-4.94-1.83-1.08,1.47-3.49,3.37-5.48,3.53a11.63,11.63,0,0,1-9.07-2.83c2.7-1.17,4.78-2.25,7.74-2.31a15.49,15.49,0,0,1,3.94.34,59.76,59.76,0,0,1-7.2-4A8.81,8.81,0,0,1,41,237.88a7,7,0,0,1-5.14-3.44,16.72,16.72,0,0,1,6-1.06,15.1,15.1,0,0,1,6.06,1.4,60.82,60.82,0,0,1-7.48-5.92A8.08,8.08,0,0,1,35.7,230a11.2,11.2,0,0,1-8.61-5.57c2.21.49,5.4.41,8.07.81a7.55,7.55,0,0,1,2.54.86,49.3,49.3,0,0,1-4.93-6.22A8.87,8.87,0,0,1,25,219a7,7,0,0,1-3.4-5.16,16.82,16.82,0,0,1,6,1.36,16.5,16.5,0,0,1,3.75,2.39A40,40,0,0,1,28.3,211a8.54,8.54,0,0,1-7.52-3.24,9.12,9.12,0,0,1-1.44-7.05c1.11,1.68,4,2.78,5.16,4.37a31.57,31.57,0,0,0,3.09,3.72,34.46,34.46,0,0,1-1.31-7.59,8.55,8.55,0,0,1-5.45-2.92,9.33,9.33,0,0,1-1.28-7.06c1.11,1.68,2.91,2.51,4.05,4.11,1,1.42,1.66,3.41,2.64,4.75,0-.28,0-.55,0-.83v-8.69a8,8,0,0,1-4.68-1.6c-1.91-1.7-2.53-4.74-1.92-8.55.09-.39.13-.3.36.32,1.39,3,2.83,3.52,4.25,5a8.84,8.84,0,0,1,2,2.43v-7.91a6.91,6.91,0,0,1-4-1.72c-2.47-1.92-3.11-5.39-2.45-9.49.09-.39.18-.28.36.32,1.38,3,2.83,3.51,4.25,5a8.38,8.38,0,0,1,1.88,2.63v-7.48a6.91,6.91,0,0,1-4.15-1.73c-2.46-1.92-3.1-5.39-2.45-9.49.09-.39.15-.3.36.32a41.78,41.78,0,0,0,4.25,5,8.07,8.07,0,0,1,2,2.91V160a7,7,0,0,1-4.15-1.73c-2.46-1.92-3.1-5.39-2.45-9.49.09-.39.31-.3.36.31,1.39,3,2.83,3.52,4.25,5a8,8,0,0,1,2,2.9v-7.66a6.91,6.91,0,0,1-4.15-1.73c-2.46-1.92-3.1-5.39-2.45-9.49.09-.39.31-.3.36.32,1.39,3,2.83,3.51,4.25,5a8.07,8.07,0,0,1,2,2.91v-6.63A9.06,9.06,0,0,1,22,137.36c-2.56-2.25-3-6.55-2.35-10.54.09-.37.47-.27.52.36,1.07,3.31,2.67,4,4.09,5.78a10.27,10.27,0,0,1,2,3.6V129c-1.61-.67-2.11-4.21-2-6.49.07-2.71,1.58-6.16,2.29-9,1,3.48,3.27,7,3.14,10.87-.06,1.88-.8,4.31-2.38,4.68v7.56a10.46,10.46,0,0,1,2-3.7c1.42-1.75,3-2.47,4.09-5.78.05-.63.44-.73.52-.36.66,4,.21,8.29-2.34,10.55a9.17,9.17,0,0,1-4.29,2.37v6.91a8,8,0,0,1,2.08-3.17c1.42-1.5,2.87-2,4.26-5,0-.62.27-.71.35-.32.66,4.1,0,7.57-2.45,9.49a7,7,0,0,1-4.24,1.74v7.76a8.09,8.09,0,0,1,2-3c1.42-1.5,2.87-2,4.25-5,0-.61.27-.7.36-.31.66,4.1,0,7.57-2.45,9.49A7,7,0,0,1,27.22,160v6.72a8.17,8.17,0,0,1,2-3,40.88,40.88,0,0,0,4.25-5c.21-.62.27-.71.36-.32.66,4.1,0,7.57-2.45,9.49a6.92,6.92,0,0,1-4.19,1.73v7.28A6.7,6.7,0,0,1,28.88,174a11.09,11.09,0,0,1,2.37-1.69,5.87,5.87,0,0,0,2.52-2.74c.18-.59.27-.7.36-.32.65,4.1-.57,7.15-3,9.07a8.25,8.25,0,0,1-3.87,2V188a7.46,7.46,0,0,1,1.8-2.62c1.43-1.5,3.08-1.62,4.47-4.59.23-.62.27-.7.36-.32.61,3.82,0,6.86-1.92,8.55a8,8,0,0,1-4.71,1.61v8.45a11.14,11.14,0,0,1,2.18-4.49c1.93-2.35,3.16-2.09,3.92-4.44.92,3.75.55,6.83-1.21,8.68A8.52,8.52,0,0,1,27.27,201a33.21,33.21,0,0,0,1.4,8,11.22,11.22,0,0,1,1.7-4.59c1.68-2.52,2.94-2.39,3.46-4.8,1.29,3.64,1.23,6.74-.34,8.76a8.2,8.2,0,0,1-4.2,2.52,39,39,0,0,0,3.63,7.39,6,6,0,0,1,.77-3.88c.88-1.67,2.52-1.78,2.28-5.21Zm1,7.47a3.12,3.12,0,0,1-3.23,1.87,5.35,5.35,0,0,1,.64-3.76c.7-1.26,1.76-1.6,2.26-3.58a6.25,6.25,0,0,1,.33,5.47ZM53.56,230a8.37,8.37,0,0,1,4.61,4.37c.4,1.27.94,3,.4,4.58a6.7,6.7,0,0,1-3-3.53c-.79-2-1-3.71-2-5.42ZM46,224.52a8.8,8.8,0,0,1,3.93,5.17c.22,1.32.27,3.29-.64,4.43a6.35,6.35,0,0,1-2.58-3.76,57,57,0,0,1-.71-5.84Zm-5.65-6.37c1.45,1.44,2.64,3,2.59,5.2-.08,1.34-.48,3.27-1.63,4.17a6.39,6.39,0,0,1-1.65-4.24c0-2.14.55-3.35.69-5.13Zm11.89,25.31a11,11,0,0,1-6.49-2h0a15.39,15.39,0,0,1,6.73-1.77,19.46,19.46,0,0,1,5.46.86c-1.59,1.68-3.16,2.85-5.67,2.87Zm15,.39a13.68,13.68,0,0,0-2.86-.07l-.45.05a7.67,7.67,0,0,0-2.11.52,44.88,44.88,0,0,0-4.61,2.74,8.8,8.8,0,0,0,5.42,0,7.16,7.16,0,0,0,4.61-3.22Zm42.18-.62,0,0a9.79,9.79,0,0,0-4.53,2.9,10.22,10.22,0,0,0-2.18,5,9.77,9.77,0,0,0,4.68-2.81,7.53,7.53,0,0,0,2.07-5.14ZM96,250.56a6.74,6.74,0,0,0,2.75-5,13.6,13.6,0,0,0-4.67,2.85,14.06,14.06,0,0,0-3.17,4.17A11.93,11.93,0,0,0,96,250.56ZM39.64,228.5A8.38,8.38,0,0,0,35.43,226c-2.21-.44-4.48-.33-6.74-.61A10.42,10.42,0,0,0,34,228.91a7.68,7.68,0,0,0,5.62-.41Zm58.53,15.35a7.09,7.09,0,0,1-4-1.75A8.55,8.55,0,0,1,91.76,239a6.49,6.49,0,0,1,3.9,1.39,6.3,6.3,0,0,1,2.51,3.45ZM108.79,242a11,11,0,0,1-5.2-1.77,5.8,5.8,0,0,1-2.73-3.09c1.84-.15,3.11-.25,4.92.87a6.26,6.26,0,0,1,2.94,3.28,4.53,4.53,0,0,1,.19.67l-.12,0ZM88,246.19a14.51,14.51,0,0,0-5.75,2.91,7.55,7.55,0,0,0-2.67,3.75A8.52,8.52,0,0,0,84.76,251a7.56,7.56,0,0,0,3.1-4,4.13,4.13,0,0,0,.18-.78ZM68,242l-.27,0a8.87,8.87,0,0,1-3.82-3.4c-1-1.35-1.22-3.07-2-4.71,2.1.94,3.31,1.46,4.69,3.07A5.91,5.91,0,0,1,68,242Zm20.25,2.6a9.48,9.48,0,0,1-4.57-2.39,10.06,10.06,0,0,1-2.58-3.48,7.17,7.17,0,0,1,4.78,1.5,6.5,6.5,0,0,1,2.37,4.37Zm-10.54-.31a13.13,13.13,0,0,1-4.92-3.53,9.28,9.28,0,0,1-2-3.76,7.24,7.24,0,0,1,4.54,2.13,8.7,8.7,0,0,1,2.36,5.16Zm-.44,2.07.17-.36v0a13.93,13.93,0,0,0-6,1.84,12.81,12.81,0,0,0-3.75,3.24,9,9,0,0,0,5.8-.89,7.92,7.92,0,0,0,3.81-3.79ZM37.08,234.84a7.14,7.14,0,0,0,3.26,2.1,8.74,8.74,0,0,0,7.14-1.43c.12-.06-.1.18,0-.06a16.81,16.81,0,0,0-5.24-1.25,13,13,0,0,0-5.19.64ZM22.59,214.7a7.19,7.19,0,0,0,2.2,3.2,8.73,8.73,0,0,0,7.14,1.45c.13,0-.17.13.05,0a17,17,0,0,0-4.35-3.18,13,13,0,0,0-5-1.42Zm-2.76-12.33a9.14,9.14,0,0,0,1.11,4.3,8.75,8.75,0,0,0,7.09,3.6v0l-.11,0A22,22,0,0,1,24.21,206c-.84-1.4-3.28-2.48-4.38-3.6Zm.27-9.32a8.24,8.24,0,0,0,.89,4.09,7.38,7.38,0,0,0,4.55,3.22c-.8-1.19-1.4-2.69-2.18-4a16.12,16.12,0,0,0-3.26-3.34Zm10.29-49.51a10.54,10.54,0,0,0,3-3.21h0a9.43,9.43,0,0,1-.83,4.55,5.77,5.77,0,0,1-2.27,2.52,4.67,4.67,0,0,1-2.72,1.13v-.09a6.46,6.46,0,0,1,1.09-3,8.65,8.65,0,0,1,1.7-1.92Zm-7.24,0a10.42,10.42,0,0,1-3-3.21h0a9.43,9.43,0,0,0,.84,4.55,5.74,5.74,0,0,0,2.26,2.52A4.7,4.7,0,0,0,26,148.53v-.09a6.61,6.61,0,0,0-1.09-3,8.85,8.85,0,0,0-1.7-1.91Zm7.74,61.59c.82-1.53,2.38-2.34,2.83-3.65a9.81,9.81,0,0,1-.12,5.16,6.53,6.53,0,0,1-4.22,3.43,10.62,10.62,0,0,1,1.51-4.94Zm-1.05-9.73c1-1.45,2.61-2.1,3.19-3.36a9.83,9.83,0,0,1-.64,5.13,6.52,6.52,0,0,1-4.55,3,10.68,10.68,0,0,1,2-4.75Zm.27-9.89c1.14-1,2.51-1.33,3.23-2.78h0c0,2.09-.41,4.53-2,5.74a7.23,7.23,0,0,1-3.76,1.48,5.45,5.45,0,0,1,.7-2.52,23.34,23.34,0,0,1,1.81-1.91Zm-7,.37a10.5,10.5,0,0,1-3-3.2h0c0,2.09.41,4.53,2,5.74a7.23,7.23,0,0,0,3.76,1.48A3.94,3.94,0,0,0,25,187.8a25.21,25.21,0,0,0-1.8-1.92ZM30,174.05c1.14-1,2.94-1.38,3.66-2.83v.21a8,8,0,0,1-1.48,4.42,9.77,9.77,0,0,1-4.61,3.41v.17a8.27,8.27,0,0,1,.87-3.47A6.78,6.78,0,0,1,30,174.05Zm-6.7.48a10.57,10.57,0,0,1-3-3.21h0a9.43,9.43,0,0,0,.83,4.55,5.83,5.83,0,0,0,2.27,2.52,4.67,4.67,0,0,0,2.72,1.13v-.09a6.65,6.65,0,0,0-1.08-3,8.85,8.85,0,0,0-1.7-1.91Zm7.07-10.74A23.42,23.42,0,0,0,33.38,160l0,.58a9.43,9.43,0,0,1-.84,4.55,5.74,5.74,0,0,1-2.26,2.52,4.67,4.67,0,0,1-2.73,1.13l0-.09a6.56,6.56,0,0,1,1.08-3,10.73,10.73,0,0,1,1.7-1.92Zm-7.18,0a23.42,23.42,0,0,1-3-3.79l0,.58a9.43,9.43,0,0,0,.84,4.55,5.74,5.74,0,0,0,2.26,2.52A4.7,4.7,0,0,0,26,168.78v-.09a6.58,6.58,0,0,0-1.09-3,10.35,10.35,0,0,0-1.7-1.92Zm7.18-9.6a10.57,10.57,0,0,0,3-3.21h0a9.46,9.46,0,0,1-.84,4.55c-.7,1.67-3,3.61-5,3.65l0-.09a6.56,6.56,0,0,1,1.08-3,8.85,8.85,0,0,1,1.7-1.91Zm-7.18,0a10.42,10.42,0,0,1-3-3.21h0a9.46,9.46,0,0,0,.84,4.55c.71,1.67,3,3.61,5,3.65v-.09a6.57,6.57,0,0,0-1.09-3,8.85,8.85,0,0,0-1.7-1.91Zm7.18-21.36a13.68,13.68,0,0,0,3-3.73h0a11.21,11.21,0,0,1-.73,5.32,6.62,6.62,0,0,1-2.26,2.92,8.09,8.09,0,0,1-2.83,1.52v-.1A10.51,10.51,0,0,1,28.73,135a10.13,10.13,0,0,1,1.6-2.14Zm-7.18,0a13.21,13.21,0,0,1-3-3.73h0a11.34,11.34,0,0,0,.73,5.32,6.72,6.72,0,0,0,2.27,2.92A8.14,8.14,0,0,0,26,138.87v-.1a10.86,10.86,0,0,0-1.2-3.78,10.71,10.71,0,0,0-1.59-2.14Z"/><path class="cls-1" d="M75,150.92l-8.5,7.32a75.71,75.71,0,0,0,40.88,20.27l3.55-7.12a37.29,37.29,0,0,0,16.88.43l3.77,6.9q24.42-4.64,40.66-20.48L163.89,151l-18.5,1.62,7.31,7.11A53.89,53.89,0,0,1,134.85,167l-4.95-9.37a71.73,71.73,0,0,1-20.76,0l-5,9.16a47.69,47.69,0,0,1-17.75-6.9l7-7L75,150.92Z"/><path class="cls-3" d="M76,151.61a71.88,71.88,0,0,0,10.27,7.59l6.27-6.1L76,151.61Zm88.24-1.08-20,1.77,7.62,7.43a60.73,60.73,0,0,1-16.6,6.68l-5-9.53a54.53,54.53,0,0,1-21.42,0l-5,9.53a60.83,60.83,0,0,1-16.59-6.67l7.62-7.44-20-1.77h0l-8.83,7.66C78,170.08,92.05,176.4,107.77,179.06l3.27-6.8a45.56,45.56,0,0,0,16.91,0l3.26,6.78c15.72-2.66,29.79-9,41.84-20.87l-8.83-7.66ZM163,151.61l-16.54,1.49,6.27,6.1A71.88,71.88,0,0,0,163,151.61ZM113.1,168l-1.61,3.34a44,44,0,0,0,16,0L125.89,168l3.32-9.84,0-.08h0a55.62,55.62,0,0,1-19.43,0h0L113.1,168Zm17-9.24,4.19,7.89a70,70,0,0,1-7.23,1.22l3-9.11Zm-25.31,7.89a72.77,72.77,0,0,0,7.23,1.22l-3-9.11-4.19,7.89Zm22.65,2.18,4.39,9.13c14.95-2.58,28.77-9,39.8-19.72l-7.35-6.38a65.45,65.45,0,0,1-36.84,17Zm-15.79,0L107.2,178c-15-2.58-28.76-9-39.8-19.72l7.36-6.38a65.42,65.42,0,0,0,36.84,17Z"/><polygon class="cls-6" points="72.89 160.35 74.35 156.96 74.34 156.95 72.1 159.71 71.21 158.99 74.69 154.69 75.9 155.68 74.42 159.11 77.46 156.94 78.69 157.93 75.21 162.23 74.31 161.5 76.55 158.74 76.54 158.73 73.53 160.87 72.89 160.35 72.89 160.35"/><polygon class="cls-6" points="78.74 160.66 80.49 161.93 79.89 162.76 78.14 161.49 77.41 162.49 79.45 163.97 78.81 164.84 75.85 162.68 79.1 158.21 82.01 160.32 81.38 161.19 79.4 159.75 78.74 160.66 78.74 160.66"/><polygon class="cls-6" points="82.2 163.05 82.14 163.01 80.44 165.85 79.45 165.25 82.3 160.51 83.3 161.12 82.97 164.73 83.03 164.77 84.72 161.97 85.7 162.56 82.86 167.3 81.85 166.7 82.2 163.05 82.2 163.05"/><path class="cls-6" d="M84,166l1,.55a.88.88,0,0,0-.15.68.86.86,0,0,0,.47.48.9.9,0,0,0,.56.14.57.57,0,0,0,.36-.3.66.66,0,0,0,.07-.49,2.55,2.55,0,0,0-.63-.78,2.47,2.47,0,0,1-.77-1.08,1.62,1.62,0,0,1,.25-1.13,1.51,1.51,0,0,1,1-.86,2.16,2.16,0,0,1,1.41.3,1.55,1.55,0,0,1,.74,2.29l-1-.52a.64.64,0,0,0,0-.48.74.74,0,0,0-.39-.37.7.7,0,0,0-.48-.12.5.5,0,0,0-.32.29.48.48,0,0,0,0,.46,1.91,1.91,0,0,0,.46.53,3,3,0,0,1,.94,1.2,1.56,1.56,0,0,1-.19,1.15,1.81,1.81,0,0,1-1.1,1,2.11,2.11,0,0,1-1.48-.29,2.06,2.06,0,0,1-1.09-1.12A2,2,0,0,1,84,166Z"/><path class="cls-6" d="M90.91,169.41l1.08.44a.89.89,0,0,0-.09.69.85.85,0,0,0,.53.43.89.89,0,0,0,.57.08.5.5,0,0,0,.32-.33.63.63,0,0,0,0-.5,2.55,2.55,0,0,0-.7-.71,2.38,2.38,0,0,1-.88-1,1.61,1.61,0,0,1,.12-1.15,1.49,1.49,0,0,1,.92-1,2.11,2.11,0,0,1,1.43.14,1.57,1.57,0,0,1,1,2.21l-1-.42a.66.66,0,0,0,0-.48,1,1,0,0,0-.92-.4.52.52,0,0,0-.29.32.53.53,0,0,0,0,.46,1.91,1.91,0,0,0,.52.48,2.89,2.89,0,0,1,1,1.1A1.48,1.48,0,0,1,94.5,171a1.79,1.79,0,0,1-1,1.11A2.12,2.12,0,0,1,92,172a2,2,0,0,1-1.2-1,1.91,1.91,0,0,1,.1-1.55Z"/><path class="cls-6" d="M97.53,168l1.1.38-.23,5.77-1.15-.4.08-1.07-1.42-.48-.61.88-1.14-.39L97.53,168Zm-1.1,3.38,1,.34.18-2.12-1.16,1.78Z"/><polygon class="cls-6" points="100.9 171.46 100.83 171.44 99.92 174.62 98.81 174.3 100.34 168.99 101.46 169.31 102.08 172.89 102.14 172.91 103.05 169.76 104.16 170.08 102.63 175.4 101.51 175.07 100.9 171.46 100.9 171.46"/><path class="cls-6" d="M105.78,170.39l1.14.25.48,5.75-1.18-.25-.06-1.07-1.47-.31-.5,1-1.18-.25,2.77-5.07Zm-.67,3.5,1,.21L106,172l-.93,1.92Z"/><polygon class="cls-6" points="116.89 162.47 118.05 162.47 118.05 168 116.89 168 116.89 162.47 116.89 162.47"/><polygon class="cls-6" points="120.25 164.69 120.18 164.69 120.18 168 119.03 168 119.03 162.47 120.19 162.47 121.77 165.74 121.84 165.74 121.84 162.47 123 162.47 123 168 121.83 168 120.25 164.69 120.25 164.69"/><path class="cls-6" d="M133.36,173.89l.91-.24a2.89,2.89,0,0,1,.09,1.67,1.3,1.3,0,0,1-1,.82,1.69,1.69,0,0,1-1.55-.31,4.31,4.31,0,0,1-1.23-2,4.76,4.76,0,0,1-.37-2.28,1.3,1.3,0,0,1,1-1.13,1.64,1.64,0,0,1,1.41.24,2.87,2.87,0,0,1,1,1.33l-.9.23a1.93,1.93,0,0,0-.47-.66.63.63,0,0,0-.57-.1.59.59,0,0,0-.43.63,3.83,3.83,0,0,0,.31,1.44,3.61,3.61,0,0,0,.69,1.26.76.76,0,0,0,.78.28.5.5,0,0,0,.4-.38,1.87,1.87,0,0,0-.07-.81Z"/><path class="cls-6" d="M136.91,175.22a1.69,1.69,0,0,1-1.64-.38,4.55,4.55,0,0,1-1.22-2,4.18,4.18,0,0,1-.3-2.21,1.43,1.43,0,0,1,1.09-1.15,1.73,1.73,0,0,1,1.64.39,4.6,4.6,0,0,1,1.22,1.94,4.33,4.33,0,0,1,.29,2.22,1.42,1.42,0,0,1-1.08,1.15Zm-.38-1.05a.64.64,0,0,0,.48-.64,3.89,3.89,0,0,0-.29-1.4,4.21,4.21,0,0,0-.7-1.3.74.74,0,0,0-.8-.26.62.62,0,0,0-.48.63,3.6,3.6,0,0,0,.29,1.41,4.2,4.2,0,0,0,.68,1.29.75.75,0,0,0,.82.27Z"/><path class="cls-6" d="M139,174.58l-2-5.34,1.82-.6a1.17,1.17,0,0,1,1.07.11,2.07,2.07,0,0,1,.74,1,2.1,2.1,0,0,1,.15,1,.64.64,0,0,1-.32.58l0,0c.35-.07.65.22.88.86a3.85,3.85,0,0,0,.74,1.37l-.91.3a.6.6,0,0,1-.08-.08s-.21-.43-.56-1.22a1.08,1.08,0,0,0-.32-.41.5.5,0,0,0-.45,0l-.59.19.75,2-.91.29Zm-.73-4.6.52,1.36.68-.22a.43.43,0,0,0,.32-.29.88.88,0,0,0-.07-.55,1,1,0,0,0-.31-.49.55.55,0,0,0-.49,0l-.65.21Z"/><path class="cls-6" d="M140.25,168.2l1.64-.62a1.33,1.33,0,0,1,1.19.07,2.34,2.34,0,0,1,.83,1.13,2.22,2.22,0,0,1,.19,1.46,1.23,1.23,0,0,1-.83.81l-.73.28.73,1.82-.9.34-2.12-5.29Zm1.3.69.57,1.41.59-.22a.5.5,0,0,0,.34-.32,1,1,0,0,0-.09-.61,1.06,1.06,0,0,0-.32-.46.51.51,0,0,0-.5,0l-.59.22Z"/><path class="cls-6" d="M147.41,171.72a1.54,1.54,0,0,1-1.62-.18,5.38,5.38,0,0,1-1.8-4,1.54,1.54,0,0,1,1-1.3,1.6,1.6,0,0,1,1.63.2,5.25,5.25,0,0,1,1.79,4,1.5,1.5,0,0,1-1,1.29Zm-.45-1a.68.68,0,0,0,.42-.71,3.64,3.64,0,0,0-.39-1.39,4,4,0,0,0-.77-1.23.72.72,0,0,0-.81-.17.69.69,0,0,0-.42.7,3.74,3.74,0,0,0,.39,1.39,3.84,3.84,0,0,0,.77,1.23.7.7,0,0,0,.81.18Z"/><path class="cls-6" d="M149.53,170.77l-2.61-5.16,1.7-.83a1.11,1.11,0,0,1,1.06,0,2.05,2.05,0,0,1,.83.94,2.25,2.25,0,0,1,.27.95.69.69,0,0,1-.25.63l0,0c.34-.11.66.14,1,.76a4,4,0,0,0,.89,1.3l-.85.41a.35.35,0,0,1-.09-.07s-.26-.41-.69-1.16a1,1,0,0,0-.36-.38.46.46,0,0,0-.44,0l-.55.27,1,1.9-.85.41Zm-1.25-4.57.66,1.31.63-.31a.47.47,0,0,0,.29-.33,1.06,1.06,0,0,0-.13-.55,1.08,1.08,0,0,0-.37-.46.52.52,0,0,0-.48,0l-.6.3Z"/><polygon class="cls-6" points="151.89 165.62 153.43 164.84 153.95 165.8 152.41 166.58 153.04 167.75 154.83 166.85 155.38 167.86 152.77 169.18 149.95 163.96 152.51 162.67 153.06 163.68 151.32 164.56 151.89 165.62 151.89 165.62"/><path class="cls-6" d="M156,165.09l.85-.47a1.13,1.13,0,0,0,.49.52.66.66,0,0,0,.58-.08.61.61,0,0,0,.33-.35.58.58,0,0,0-.1-.45.77.77,0,0,0-.38-.34,2,2,0,0,0-.88,0,2.05,2.05,0,0,1-1.18,0,2.1,2.1,0,0,1-.83-.85,1.69,1.69,0,0,1-.3-1.28,1.44,1.44,0,0,1,.79-.91,1.3,1.3,0,0,1,1.17-.12,2.07,2.07,0,0,1,1,.89l-.8.44a.78.78,0,0,0-.37-.32.57.57,0,0,0-.46.08c-.16.09-.26.19-.28.3a.54.54,0,0,0,.11.41.62.62,0,0,0,.36.31,1.51,1.51,0,0,0,.61,0,2.32,2.32,0,0,1,1.34,0,1.84,1.84,0,0,1,.87.81,2.06,2.06,0,0,1,.39,1.43,1.52,1.52,0,0,1-.81,1,1.57,1.57,0,0,1-1.34.18,2.47,2.47,0,0,1-1.15-1.1Z"/><path class="cls-6" d="M157.58,159.76l.82-.54,4.73,3.62-.85.56-.86-.69-1.06.69.46.95-.84.56-2.4-5.15Zm2.33,2.79.74-.48-1.7-1.4,1,1.88Z"/><polygon class="cls-6" points="162.09 159.34 162.04 159.38 164.16 162.02 163.39 162.59 159.83 158.17 160.62 157.59 163.78 159.42 163.83 159.39 161.73 156.77 162.51 156.2 166.06 160.62 165.27 161.2 162.09 159.34 162.09 159.34"/><path class="cls-6" d="M168,159.13a1.6,1.6,0,0,1-1.63.28,4.42,4.42,0,0,1-1.83-1.37,4.32,4.32,0,0,1-1.09-2,1.49,1.49,0,0,1,.55-1.51,1.62,1.62,0,0,1,1.63-.28,4.57,4.57,0,0,1,1.83,1.36,4.36,4.36,0,0,1,1.08,2,1.5,1.5,0,0,1-.54,1.51Zm-.74-.84a.67.67,0,0,0,.2-.79,3.86,3.86,0,0,0-.79-1.21,4.05,4.05,0,0,0-1.11-.95.72.72,0,0,0-.82.06.67.67,0,0,0-.21.78,5.33,5.33,0,0,0,1.89,2.17.72.72,0,0,0,.84-.06Z"/><path class="cls-6" d="M91,21.24h3.17a2.25,2.25,0,0,0,2.19-2.4,2.2,2.2,0,0,0-2.44-2.27l-2.92,0v4.65Zm0,7.88h-2.1V14.64h5.17c2.28,0,4.38,1.42,4.42,4A4.24,4.24,0,0,1,95.92,23l4,6.1H97.13l-3.77-5.95-2.34,0v5.93Z"/><path class="cls-6" d="M113.59,24.78h2.23a3.3,3.3,0,0,0,3.51,2.94c1.56,0,3.1-.8,3.1-2.45s-2.16-2.29-3.61-2.59a11.31,11.31,0,0,1-3.64-1.07,3.14,3.14,0,0,1-1.74-3c0-2.92,2.8-4.09,5.12-4.15,2.56-.07,5.58,1,5.83,4.06h-2.31c-.31-1.55-1.88-2-3.2-2-1.12,0-3.14.6-3.11,2.06,0,1.63,2.51,1.74,3.62,2,1.67.43,3.27.63,4.39,1.93a3.6,3.6,0,0,1,.93,2.49c-.09,3-2.22,4.54-5.65,4.5a5.22,5.22,0,0,1-4.25-1.76,4.91,4.91,0,0,1-1.22-3Z"/><path class="cls-6" d="M149.77,25.39a7,7,0,0,1-2.61,2.91,7.32,7.32,0,0,1-9.35-1.49,7,7,0,0,1-1.4-2.33,8,8,0,0,1-.48-2.8,7.18,7.18,0,0,1,.58-2.87,7.78,7.78,0,0,1,1.69-2.47,7.06,7.06,0,0,1,5.11-2.1,7.27,7.27,0,0,1,3.92,1,6.6,6.6,0,0,1,2.54,3A4.44,4.44,0,0,1,150,19h-2.3a5.4,5.4,0,0,0-.44-.75,4.6,4.6,0,0,0-1.71-1.46,5.32,5.32,0,0,0-2.3-.48,5,5,0,0,0-1.95.39,4.89,4.89,0,0,0-1.64,1.12,5.59,5.59,0,0,0-1.16,1.78,5.39,5.39,0,0,0-.42,2.07,6.16,6.16,0,0,0,.38,2.15,4.89,4.89,0,0,0,1.09,1.74,5.27,5.27,0,0,0,1.71,1.21,5.14,5.14,0,0,0,4.23-.05,4.2,4.2,0,0,0,1.65-1.36,3.25,3.25,0,0,0,.36-.78h2.52a3.53,3.53,0,0,1-.29.78Z"/><path class="cls-6" d="M51,34.55l-2.39,6.27H53.4L51,34.55ZM47.93,42.8l-1.34,3.51H44.37L50,31.82h2l5.66,14.49h-2.3L54.11,42.8Z"/><polygon class="cls-6" points="64.01 46.31 62.07 46.31 62.07 31.82 63.96 31.82 72.25 42.78 72.2 31.82 74.27 31.82 74.27 46.31 72.26 46.31 64.03 35.44 64.01 46.31 64.01 46.31"/><path class="cls-6" d="M82.87,44.37h3.35A5.43,5.43,0,0,0,90,35.21a5.8,5.8,0,0,0-4.13-1.41h-3V44.37Zm2.83,1.94H80.83V31.82h5.46a7.07,7.07,0,0,1,5.27,2,7.15,7.15,0,0,1,2,5.27,7.55,7.55,0,0,1-.75,3.38A6.77,6.77,0,0,1,90.65,45a6.23,6.23,0,0,1-2,1,11.28,11.28,0,0,1-2.91.3Z"/><polygon class="cls-6" points="106.59 46.31 97.47 46.31 97.47 31.82 106.11 31.82 106.11 33.75 99.57 33.75 99.57 38.08 105.1 38.08 105.1 39.97 99.57 39.97 99.57 44.31 106.59 44.31 106.59 46.31 106.59 46.31"/><polygon class="cls-6" points="147.83 46.31 138.71 46.31 138.71 31.82 147.35 31.82 147.35 33.75 140.81 33.75 140.81 38.08 146.34 38.08 146.34 39.97 140.81 39.97 140.81 44.31 147.83 44.31 147.83 46.31 147.83 46.31"/><polygon class="cls-6" points="135.13 46.31 126.16 46.31 126.16 31.82 128.25 31.82 128.25 44.31 135.13 44.31 135.13 46.31 135.13 46.31"/><polygon class="cls-6" points="169.91 46.31 167.81 46.31 167.81 31.82 169.91 31.82 169.91 37.97 176.83 37.97 176.83 31.82 178.93 31.82 178.93 46.31 176.83 46.31 176.83 40.03 169.91 40.03 169.91 46.31 169.91 46.31"/><polygon class="cls-6" points="190.84 46.36 188.75 46.36 188.75 33.82 185.13 33.82 185.13 31.87 194.62 31.87 194.62 33.82 190.84 33.82 190.84 46.36 190.84 46.36"/><path class="cls-6" d="M113.74,38.44h3.17A2.23,2.23,0,0,0,119.1,36a2.21,2.21,0,0,0-2.45-2.28l-2.91,0v4.66Zm0,7.88h-2.1V31.83l5.16,0c2.29,0,4.38,1.42,4.43,3.94a4.25,4.25,0,0,1-2.59,4.43l4,6.1h-2.76l-3.77-6h-2.34v5.94Z"/><path class="cls-6" d="M164.13,42.85a6.92,6.92,0,0,1-2.61,2.91,7.34,7.34,0,0,1-3.87,1,7.18,7.18,0,0,1-3-.63,7.42,7.42,0,0,1-2.47-1.86,7,7,0,0,1-1.4-2.34,8,8,0,0,1-.48-2.79,7.23,7.23,0,0,1,.58-2.88,7.78,7.78,0,0,1,1.69-2.47,7.35,7.35,0,0,1,2.34-1.57,7.7,7.7,0,0,1,6.69.52,6.6,6.6,0,0,1,2.54,3,4.44,4.44,0,0,1,.27.75h-2.3a8.56,8.56,0,0,0-.44-.75A4.56,4.56,0,0,0,160,34.29a5.18,5.18,0,0,0-2.3-.49,5,5,0,0,0-2,.39,5,5,0,0,0-1.64,1.12,5.59,5.59,0,0,0-1.16,1.78,5.4,5.4,0,0,0-.42,2.08,6.1,6.1,0,0,0,.38,2.14,4.92,4.92,0,0,0,1.08,1.74,5.42,5.42,0,0,0,1.72,1.21,5,5,0,0,0,2,.43,5.22,5.22,0,0,0,2.24-.47,4.31,4.31,0,0,0,1.65-1.37,3.08,3.08,0,0,0,.36-.78h2.52a3.35,3.35,0,0,1-.29.78Z"/><path class="cls-3" d="M106.61,26.94a1.19,1.19,0,1,1-1.19,1.18,1.18,1.18,0,0,1,1.19-1.18Z"/><path class="cls-3" d="M130.89,26.94a1.19,1.19,0,1,1-1.19,1.18,1.18,1.18,0,0,1,1.19-1.18Z"/><path class="cls-3" d="M157.29,26.94a1.19,1.19,0,1,1-1.18,1.18,1.18,1.18,0,0,1,1.18-1.18Z"/><path class="cls-3" d="M100.56,115.91l1,5.72c0,.14-.26.38-.48.05-1.57-2.21-4-4.54-5.23-4.11s-.93,1.87-.34,3.13l5.86,12.64c1.36,2.92.45,5.67-1.46,6.36a5.59,5.59,0,0,1-1.72.34,5.93,5.93,0,0,1-3.16-1c-.6-.39-1.11-.85-1.55-.88s-.75.35-1,.94c-.11.28-.8.52-.91,0l-1.3-6.52c-.08-.62.37-.84.77-.3,2.19,3,3.94,5.42,6.59,4.84,1.32-.29.82-2.25.51-2.89L92.34,122.3a7.22,7.22,0,0,1-.69-4.36,3.67,3.67,0,0,1,3-2.4,6.37,6.37,0,0,1,4.21.8c.4.23.71,0,.78-.51s.79-.39.88.08Z"/><path class="cls-3" d="M119.25,115.76a4.55,4.55,0,0,1,1.44.36.82.82,0,0,0,1.11-.65.45.45,0,0,1,.87.16l.79,5.91c.06.16-.21.58-.56,0s-1.67-3.94-3.53-3.87c-2.55.1-2.89,7.61-2.89,9.07s.45,10.6,3.77,10.7c1.7.05,2.54-.82,3.28-2.38.34-1.11,1.72-.75,1.31.4-1,2.44-2.52,4.18-5.06,4.18-4.8,0-6.56-5.54-6.56-12s2.29-11.9,6-11.9Z"/><path class="cls-3" d="M141.37,115.75l-5.73,21.11a2.06,2.06,0,0,1-1.67,1.53c-.49.1-.52.75,0,.75h4.88c.33,0,.3-.53,0-.66-1-.33-1-.9-.8-1.74l.39-1.68h6.11l.31,2.08c.11.69-.09,1.18-.51,1.26a.38.38,0,1,0,.08.75h5.45c.31,0,.32-.63-.07-.67-.62-.07-1.2-.85-1.35-1.45l-5.2-21.32a1,1,0,0,0-1.92,0Zm-2.43,17.53,2.91-11,2.31,11Z"/><path class="cls-3" d="M103,186.52c-.59-.13-.7.87-.64,1.65a3.54,3.54,0,0,0,.41,1.84c.2.34.65.58.78,1l.89,2.44a6.66,6.66,0,0,0-.38,2.73,15.73,15.73,0,0,0,1.46,3.47,18.15,18.15,0,0,0,1.21,3.21,3.6,3.6,0,0,0,1.92,1.46l.23.61c0,.71-.54,1-.89,1.3a4,4,0,0,0-3.55-.08,3.66,3.66,0,0,0-1.62,1.79,5.55,5.55,0,0,0,0,4.29,11.15,11.15,0,0,1,.67,2.55,7.67,7.67,0,0,1-2.32-1.9c-.49-.43-.84-.05-.77.56.18,1.34.47,2.75.63,3.92a37.45,37.45,0,0,1,.51,5.49,3.52,3.52,0,0,1-.34,1.66c0,.25,0,.46.29.37a18.48,18.48,0,0,0,2-1.13,3.67,3.67,0,0,1,1.23-.53c1.14,1.39,1.81,1.42,2.64,1.39,1.2,0,1-.91.83-1.32a14.36,14.36,0,0,1-.64-1.88c-.18-.84,0-1,.72-1.28a3.25,3.25,0,0,1,1.12-.19,7.69,7.69,0,0,1,.1,1.6A18.5,18.5,0,0,0,115,222l.29,0,1.12,3c.27.71,1.16.3,1-.22l-1.08-2.87a18.85,18.85,0,0,0,4.85-1.54,14.87,14.87,0,0,1-.13,2.41.93.93,0,0,0,.86.78,20.94,20.94,0,0,0,2.54.18c1.24.06,2.59.12,3.74.08.55,0,1.19-.34,1.26-.84a1.3,1.3,0,0,0-.51-1.14c.75.22,1.74-1,2.64-1.55a4.11,4.11,0,0,1,1.26,1.15,4.87,4.87,0,0,0-.4,1.71,9.25,9.25,0,0,0,2.92,1.59.68.68,0,0,0,.95-.65,12,12,0,0,0-.12-2.6c-.14-1-.33-1.09-1.08-1.84l-2.75-2.73c0-.57-.06-.92-.06-1.49.83.07,2.4-.1,2-2a15.59,15.59,0,0,1,.12-2.19,19.94,19.94,0,0,1,.33-2,7.52,7.52,0,0,0,.56-3c-.07-.37-.17-.75-.24-1.27a10.93,10.93,0,0,0,.27-2.75c-.88.59-1.31,1.07-2,1.17a1.29,1.29,0,0,1-.72-.08,7.73,7.73,0,0,0-.58-1.55,10.35,10.35,0,0,1-.68-2.54c-.19-1-.19-1.95-.31-2.91a2.69,2.69,0,0,1-1.12.56c-.22,0-.34,0-.48-.13,1-1.21,1.51-2.82,2.51-4,.53-.39,1.3-.67,1.84-1.07s.82-1.38.05-1.4a6.45,6.45,0,0,0-1.64.19,3.18,3.18,0,0,1-1.67,0c-.5-.39-.45-.82-.64-1.1s-.53-.19-.53.16a13.69,13.69,0,0,1,.11,2.52,4.16,4.16,0,0,1-1,1.3,36,36,0,0,0-3.28,3,6.91,6.91,0,0,1-4.16-.11,4.35,4.35,0,0,1-1.28-.8,1.36,1.36,0,0,1-.06-.91c.66.08,1.77-.15,1.87-.58a2.22,2.22,0,0,0-.08-1.66c-.13-.32-.45-.44-.54-.91a21,21,0,0,0-.5-2.78c-.21-.62-1.52-1.3-2.69-1.28-1,0-2.51.53-2.7,1.5a8.84,8.84,0,0,1-1.17,3.47,5.35,5.35,0,0,1-1.18,1.15.4.4,0,0,0,0,.56c.59.64,1.62.66,2.56.85v.54c-1.23.85-2.36.83-3,1.44a7.35,7.35,0,0,0-1.24,2c-.48.93-.57.82-1.6.91a3.54,3.54,0,0,1-1.66-1.5,2.61,2.61,0,0,1,0-1c.25-.74.81-1.47.24-2.48s-1.87-1.89-2.46-1.71l-2.35-5.79-.26-.57Zm5.7,15,.43,1.16c.08.14.16.28.25.42a16.6,16.6,0,0,0,4.81-3.58c.67-.21.95.22,1.43.45a1.75,1.75,0,0,0,.71.16c.25,0,.33.73-.06.83a2.3,2.3,0,0,1-1-.08c-.42-.12-.54-.44-1,.06a3.06,3.06,0,0,0,.43,2.32A24.9,24.9,0,0,0,121.1,197a4.93,4.93,0,0,1-2.33-1.41,4.4,4.4,0,0,0-.67-1.21,2.83,2.83,0,0,1-1.81-1c0,.66,0,1.65,0,2.31-.49.27-.92.7-1.39.94s-1.29.3-1.71.66c-1,.86-1.13,2.27-2.19,3.05a6.43,6.43,0,0,1-2.41.59,3.43,3.43,0,0,0,.07.56Zm1.19,3.18.18.46a18.89,18.89,0,0,0,2.2.17c.49,0,.42.35,1.26.42a3.86,3.86,0,0,0-.75-3.53c-1,.55-2,1.11-3,1.66a2.27,2.27,0,0,1,.13.82Zm.57,1.49.93,2.48a3.08,3.08,0,0,0,.71-.55c.4-.42.4-1.07.69-1.57-.34,0-.68-.34-1-.32-.49,0-1,0-1.33,0Zm3.82,10.15.65,1.74a6.41,6.41,0,0,0,2.68-2.6,7.57,7.57,0,0,1-3.33.86Zm1,2.73.6,1.62a6.9,6.9,0,0,0,1.24-.39c2-1.52,4.18-5.25,5.41-8.06.23-.54,1-.45.8.37a29.86,29.86,0,0,1-4.26,7.35,6.72,6.72,0,0,0,4.28-3,7.12,7.12,0,0,1,1.52-1.38,2.84,2.84,0,0,0,1-2.12,14.89,14.89,0,0,0,0-2.41,2.11,2.11,0,0,0-.62-1.34c-.49-.37-1.19-.3-1.74-.44s-1.3-1.06-1.88-.72a10.21,10.21,0,0,0-.94.59A4.8,4.8,0,0,1,119,210a.56.56,0,0,1-.57-.94c1-.35,2.23-.65,2.5-2.28a6.43,6.43,0,0,1-3,1.7.5.5,0,0,1-.27-1c1.26-.51,2.53-1.11,3-2.45a3.69,3.69,0,0,1-1.28.11c-.39-.11-.53-.57-.1-.75,2.2-1.1,3.73-3.77,4.79-6.87a6.23,6.23,0,0,1-2-.1,27.2,27.2,0,0,1-7.08,6.92,6.87,6.87,0,0,1-.42,2.07c-.4.7-1.19,1.14-1.23,1.92a7.67,7.67,0,0,0,.65,3.91,10.46,10.46,0,0,1,.41,3,6.86,6.86,0,0,0,6-4.06c.38-.58,1,.06.8.43-1.21,2.69-2.78,5.69-5.86,7.47Zm-.39,1.77-.5-1.31h0c-.75.34-1.54-.36-.39-1l0,0-.86-2.27-.3-.08c-.72-.24-1.43.31-2.48.22a28.58,28.58,0,0,0,.24,4.23,18.06,18.06,0,0,0,4.26.18Zm-2.8-7.38-1.25-3.3a3.68,3.68,0,0,0-1.22.75,5.84,5.84,0,0,0-.93,4.9c.75-.27,1.09-.26,1.62-.42a11.15,11.15,0,0,0,1.94-.38c-.06-.52-.11-1.05-.16-1.55Zm-1.61-4.27-1.1-2.88a14.49,14.49,0,0,0-1.27,1c-.51.38-1.36.74-.81,1.58a2.13,2.13,0,0,0,3,.48,2.11,2.11,0,0,1,.22-.17Zm-5.77-1.38a7,7,0,0,0,.48,4.32c.44.78-.75,1-.89.55a7.41,7.41,0,0,1-.67-4.34c.1-.78,1.4-1.55,1.08-.53Zm1.68-.13a6.72,6.72,0,0,0,.11,3.33.35.35,0,1,1-.7.1,6.15,6.15,0,0,1-.29-2.9c.22-1.44,1.31-1.51.88-.53Zm-2.27,9.93a2,2,0,0,0,0,.54c0,.68.15,1.3.21,2,0,.57-.1,1.15,0,1.74-.46.26-1,.48-1.64.87a19.71,19.71,0,0,0-.17-3.4l1.63-1.79Zm-1.78.56a17.63,17.63,0,0,0-.78-3.49c.91.84,1.59,1.24,2,1.65l-1.26,1.84Zm3.63-4.38a8.09,8.09,0,0,0,0,2.66c.18.52-.84.83-1,.34a5,5,0,0,1-.14-2.4c.45-.39,1.2-1.67,1.12-.6Zm2.38-2.22a7.09,7.09,0,0,0-.48,4.34c.17.52-.9.86-.9.34a10.07,10.07,0,0,1,.4-5c.23-.74,1.55-.57,1,.34Zm.91,5.44c0,.46.06,1.41.06,1.87a6,6,0,0,0-2.46.94c-.49.59-.1,1.91.27,3.26.14.35.11.46,0,.54a.59.59,0,0,1-.58,0,1.48,1.48,0,0,1-.48-.39,4.81,4.81,0,0,1-.65-1.92c-.07-.53,0-1.1-.06-1.61-.1-1-.15-1.77.73-2,.3-.06.65.08,1,0,.76-.17,1.36-.59,2.23-.73Zm12.88,2.86a15,15,0,0,1-.16,2.35c-.15.67.61.39,1.6.51s2,0,3,.05c.4,0,.49-.46,0-.64s-1.89-.19-2.17-.7a2.32,2.32,0,0,1-.12-1.3c0-.61,0-1.64,0-2.33a12.69,12.69,0,0,1-2.16,2.06Zm5.43-12.64a2,2,0,0,0,.22,1.78,1,1,0,0,1-1.49.15,3,3,0,0,1,0-1.93c.78-1,1.2-1,1.27,0Zm.85-.91c.06.7,0,1.25.22,1.63a11.83,11.83,0,0,1,1,1.19c.1,1.8,1,2.21,1.53,2.92a2.49,2.49,0,0,0,.27,2.09c.61.18,1.89.48,2.07-.45a18.83,18.83,0,0,1,.12-3.38,20.56,20.56,0,0,0,.7-3.31c0-.87-.5-1.8-.56-2.69a1.87,1.87,0,0,1-1.74.23c-.25.5-.07.94-.32,1.44-.34.1-.7-.08-1.14-.06s-.28.87-.65.94c-.18,0-.43-.44-.72-.6a1,1,0,0,0-.77.05Zm-1.6,4.26a20.3,20.3,0,0,1-.12,4.38c-.27,1.4-1.42,2.75-1.35,4.14a2.57,2.57,0,0,0,.54,1.88,2,2,0,0,0,1.14.31,4.32,4.32,0,0,0,2.66-.7c.84-.59,1.29-1.26,1.9-1.31a5.88,5.88,0,0,1,1.23.89c.45.51.73,1.14.94,1.19,0,.5-.29.81-.31,1.3a1.72,1.72,0,0,0,1.91.92,16.12,16.12,0,0,0-.07-2.3c-.47-.53-2.22-2.4-3.43-3.46-.5-.42-1.79,1-2.65,1.34-.43.15-.89.24-1.15-.21a5.11,5.11,0,0,1-.67-1.37.43.43,0,0,1,.75-.4c.34.51.26.66.54.79.81.39,1.92-1.21,2.54-1.25,0-.8,0-.76.09-1.55-.86-.06-.82-.6-1-.88a13,13,0,0,1-.15-2,3.59,3.59,0,0,1-1.75-2.16c-.43.15-1.17.3-1.59.45Zm1.41-11.94a4.63,4.63,0,0,1-2.4,2.19c.32.52.11,1.63.91,2.1a1.86,1.86,0,0,0,.89.51,3.26,3.26,0,0,0,1.94.1c.49-.13,1.12-.67,1.73-.84-.09-.33-.29-.65-.4-1a17.66,17.66,0,0,1-.67-2.26,2.6,2.6,0,0,0-2-.84Zm-4.41,2.91a20.83,20.83,0,0,0-.59,3.79c0,.71.5.89.55,1.64a9.43,9.43,0,0,0-1.19,0c-.49,0-1.45.49-.3.63.45.05,1,.55,1.38.62.74.13.75-.05,1.15-.66a7.73,7.73,0,0,1,2.22-2.47c.64-.39.61-.84.11-.74a2.81,2.81,0,0,1-1.81-.36,6.48,6.48,0,0,1-.82,1.82,12.06,12.06,0,0,1-.18-4c.12-1.32-.29-1.06-.52-.26Zm1.07-4c.68-.06,1.52-1.38,2.39-2.1s1.5-1.45,2.36-2.21a2.35,2.35,0,0,0,.67-2.27,3,3,0,0,0,2.27,0c.42,0,.4.18,0,.45-.54.27-1.07.4-1.37.93a31.11,31.11,0,0,1-4.68,6.51,3.46,3.46,0,0,1-2.15.22c.14-.33.32-1,.48-1.49Zm-19-3.28c.47-.07,1.26.7,1.34,1.17a1.25,1.25,0,0,1-.53,1.26,24.68,24.68,0,0,0-.38,2.64,10.55,10.55,0,0,1-1.17-3.31c-.08-.45,0-1.65.74-1.76Zm10.56-3.91c1.93,0,2.35-.59,3.58,0a5.51,5.51,0,0,1-.08,1.36,3.2,3.2,0,0,1-.13.86c-.28.53-.47.88-1.07.91a2.19,2.19,0,0,1-1.85-1.07c-.44-.66-.27-1.26-.45-2.06Z"/><path class="cls-3" d="M131.12,207.57c.32,0,.59.36.59.8s-.27.81-.59.81-.59-.36-.59-.81.26-.8.59-.8Z"/><path class="cls-3" d="M128.41,200.57a.55.55,0,1,1-.45,1,.63.63,0,0,1-.4-.78.62.62,0,0,1,.85-.19Z"/></g></g></svg>