<svg xmlns="http://www.w3.org/2000/svg" xmlns:xlink="http://www.w3.org/1999/xlink" viewBox="0 0 474.4 296.5"><defs><style>.cls-1{fill:none;}.cls-2{clip-path:url(#clip-path);}.cls-3{fill:#74acdf;}.cls-4{fill:#fff;}.cls-5,.cls-7{fill:#f6b40e;stroke:#85340a;}.cls-5{stroke-width:1.11px;}.cls-6{fill:#85340a;}.cls-7{stroke-width:1.5px;}.cls-8{fill:#843511;}</style><clipPath id="clip-path"><circle class="cls-1" cx="187" cy="150" r="146.5"/></clipPath></defs><title>Ресурс 2</title><g id="Слой_2" data-name="Слой 2"><g id="Layer_1" data-name="Layer 1"><g class="cls-2"><rect class="cls-3" width="474.4" height="296.5"/><rect class="cls-4" y="98.84" width="474.4" height="98.84"/><g id="rays"><path id="ray1" class="cls-5" d="M235.33,149l16.87,36.76s.29.7.76.51.18-.9.18-.9l-14.07-37.93m-.4,14.31c-.21,5.59,3.23,8.66,2.78,13.66s2.3,7.81,2.93,9.75-.69,3.11-.12,3.38,1.83-1.26,1.42-4-2.5-3.58-2-9.67-2.5-7.52-1.77-13.08"/><path id="ray1-2" data-name="ray1" class="cls-5" d="M235.17,148.25l1.52,40.42s0,.76.51.76.51-.76.51-.76l1.52-40.42m-5.85,13.06c-2.33,5.09-.33,9.24-2.65,13.68s-.88,8.1-1,10.14-1.82,2.6-1.4,3.08,2.16-.47,2.84-3.17-.94-4.27,1.85-9.71.57-7.91,3.37-12.77"/><path id="ray1-3" data-name="ray1" class="cls-5" d="M235.33,147.47,221.26,185.4s-.29.7.18.9.76-.51.76-.51L239.07,149m-10.4,9.82c-4.1,3.81-3.84,8.42-7.69,11.63s-3.9,7.15-4.82,9-2.68,1.71-2.48,2.31,2.18.4,3.84-1.84.77-4.3,5.43-8.27,3.55-7.08,8-10.5"/><path id="ray1-4" data-name="ray1" class="cls-5" d="M235.77,146.82l-27.51,29.65s-.54.54-.18.9.9-.18.9-.18l29.65-27.51m-13.37,5.1c-5.24,1.95-6.76,6.31-11.55,7.8s-6.34,5.11-7.89,6.44-3.13.55-3.17,1.19,1.86,1.2,4.25-.23,2.35-3.69,8.18-5.56,6-5.19,11.4-6.64"/><path id="ray2" class="cls-6" d="M239.76,162.73c.26,5.36,3.31,7.74,2.71,12.63,1.31-3.86-1.85-6.86-1.67-12.58m-4.54-14.09,11.56,25.25-9.68-26"/><path id="ray2-2" data-name="ray2" class="cls-6" d="M234,162.6c-1.8,5.06.1,8.43-2.33,12.72,2.7-3.07.92-7.06,3.27-12.27m1.2-14.75,1,27.75,1-27.75"/><path id="ray2-3" data-name="ray2" class="cls-6" d="M228.77,160.29c-3.6,4-3.13,7.82-7,10.86,3.67-1.81,3.55-6.17,7.72-10.08m6.75-13.17-9.68,26,11.56-25.25"/><path id="ray2-4" data-name="ray2" class="cls-6" d="M224.8,156.15c-4.85,2.3-5.88,6-10.63,7.35,4.07-.27,5.63-4.34,11-6.36m11.28-9.59-18.9,20.34L237.87,149"/></g><g id="rays-2" data-name="rays"><path id="ray1-5" data-name="ray1" class="cls-5" d="M236.42,146.38l-36.76,16.87s-.7.29-.51.76.9.18.9.18L238,150.12m-14.31-.4c-5.59-.21-8.66,3.23-13.66,2.78s-7.81,2.3-9.75,2.93-3.11-.69-3.38-.12,1.26,1.83,4,1.42,3.58-2.5,9.67-2,7.52-2.5,13.08-1.77"/><path id="ray1-6" data-name="ray1" class="cls-5" d="M237.2,146.22l-40.42,1.52s-.76,0-.76.51.76.51.76.51l40.42,1.52m-13.06-5.85c-5.09-2.33-9.24-.33-13.68-2.65s-8.1-.88-10.14-1-2.6-1.82-3.08-1.4.47,2.16,3.17,2.84,4.27-.94,9.71,1.85,7.91.57,12.77,3.37"/><path id="ray1-7" data-name="ray1" class="cls-5" d="M238,146.38l-37.93-14.07s-.7-.29-.9.18.51.76.51.76l36.76,16.87m-9.82-10.4c-3.81-4.1-8.42-3.84-11.63-7.69s-7.15-3.9-9-4.82-1.71-2.68-2.31-2.48-.4,2.18,1.84,3.84,4.3.77,8.27,5.43,7.08,3.55,10.5,8"/><path id="ray1-8" data-name="ray1" class="cls-5" d="M238.63,146.82,209,119.31s-.54-.54-.9-.18.18.9.18.9l27.51,29.65m-5.1-13.37c-1.95-5.24-6.31-6.76-7.8-11.55s-5.11-6.34-6.44-7.89-.55-3.13-1.19-3.17-1.2,1.86.23,4.25,3.69,2.35,5.56,8.18,5.19,6,6.64,11.4"/><path id="ray2-5" data-name="ray2" class="cls-6" d="M222.72,150.81c-5.36.26-7.74,3.31-12.63,2.71,3.86,1.31,6.86-1.85,12.58-1.67m14.09-4.54-25.25,11.56,26-9.68"/><path id="ray2-6" data-name="ray2" class="cls-6" d="M222.85,145.07c-5.06-1.8-8.43.1-12.72-2.33,3.07,2.7,7.06.92,12.27,3.27m14.75,1.2-27.75,1,27.75,1"/><path id="ray2-7" data-name="ray2" class="cls-6" d="M225.16,139.82c-4-3.6-7.82-3.13-10.86-7,1.81,3.67,6.17,3.55,10.08,7.72m13.17,6.75-26-9.68,25.25,11.56"/><path id="ray2-8" data-name="ray2" class="cls-6" d="M229.3,135.85c-2.3-4.85-6-5.88-7.35-10.63.27,4.07,4.34,5.63,6.36,11m9.59,11.28-20.34-18.9,18.9,20.34"/></g><g id="rays-3" data-name="rays"><path id="ray1-9" data-name="ray1" class="cls-5" d="M239.07,147.47,222.2,110.71s-.29-.7-.76-.51-.18.9-.18.9L235.33,149m.4-14.31c.21-5.59-3.23-8.66-2.78-13.66s-2.3-7.81-2.93-9.75.69-3.11.12-3.38-1.83,1.26-1.42,4,2.5,3.58,2,9.67,2.5,7.52,1.77,13.08"/><path id="ray1-10" data-name="ray1" class="cls-5" d="M239.23,148.25l-1.52-40.42s0-.76-.51-.76-.51.76-.51.76l-1.52,40.42M241,135.19c2.33-5.09.33-9.24,2.65-13.68s.88-8.1,1-10.14,1.82-2.6,1.4-3.08-2.16.47-2.84,3.17.94,4.27-1.85,9.71-.57,7.91-3.37,12.77"/><path id="ray1-11" data-name="ray1" class="cls-5" d="M239.07,149l14.07-37.93s.29-.7-.18-.9-.76.51-.76.51l-16.87,36.76m10.4-9.82c4.1-3.81,3.84-8.42,7.69-11.63s3.9-7.15,4.82-9,2.68-1.71,2.48-2.31-2.18-.4-3.84,1.84-.77,4.3-5.43,8.27-3.55,7.08-8,10.5"/><path id="ray1-12" data-name="ray1" class="cls-5" d="M238.63,149.68,266.14,120s.54-.54.18-.9-.9.18-.9.18l-29.65,27.51m13.37-5.1c5.24-1.95,6.76-6.31,11.55-7.8s6.34-5.11,7.89-6.44,3.13-.55,3.17-1.19-1.86-1.2-4.25.23-2.35,3.69-8.18,5.56-6,5.19-11.4,6.64"/><path id="ray2-9" data-name="ray2" class="cls-6" d="M234.64,133.77c-.26-5.36-3.31-7.74-2.71-12.63-1.31,3.86,1.85,6.86,1.67,12.58m4.54,14.09-11.56-25.25,9.68,26"/><path id="ray2-10" data-name="ray2" class="cls-6" d="M240.38,133.9c1.8-5.06-.1-8.43,2.33-12.72-2.7,3.07-.92,7.06-3.27,12.27m-1.2,14.75-1-27.75-1,27.75"/><path id="ray2-11" data-name="ray2" class="cls-6" d="M245.63,136.21c3.6-4,3.13-7.82,7-10.86-3.67,1.81-3.55,6.17-7.72,10.08m-6.75,13.17,9.68-26L236.3,147.82"/><path id="ray2-12" data-name="ray2" class="cls-6" d="M249.6,140.35c4.85-2.3,5.88-6,10.63-7.35-4.07.27-5.63,4.34-11,6.36M238,149l18.9-20.34-20.34,18.9"/></g><g id="rays-4" data-name="rays"><path id="ray1-13" data-name="ray1" class="cls-5" d="M238,150.12l36.76-16.87s.7-.29.51-.76-.9-.18-.9-.18l-37.93,14.07m14.31.4c5.59.21,8.66-3.23,13.66-2.78s7.81-2.3,9.75-2.93,3.11.69,3.38.12-1.26-1.83-4-1.42-3.58,2.5-9.67,2-7.52,2.5-13.08,1.77"/><path id="ray1-14" data-name="ray1" class="cls-5" d="M237.2,150.28l40.42-1.52s.76,0,.76-.51-.76-.51-.76-.51l-40.42-1.52m13.06,5.85c5.09,2.33,9.24.33,13.68,2.65s8.1.88,10.14,1,2.6,1.82,3.08,1.4-.47-2.16-3.17-2.84-4.27.94-9.71-1.85-7.91-.57-12.77-3.37"/><path id="ray1-15" data-name="ray1" class="cls-5" d="M236.42,150.12l37.93,14.07s.7.29.9-.18-.51-.76-.51-.76L238,146.38m9.82,10.4c3.81,4.1,8.42,3.84,11.63,7.69s7.15,3.9,9,4.82,1.71,2.68,2.31,2.48.4-2.18-1.84-3.84-4.3-.77-8.27-5.43-7.08-3.55-10.5-8"/><path id="ray1-16" data-name="ray1" class="cls-5" d="M235.77,149.68l29.65,27.51s.54.54.9.18-.18-.9-.18-.9l-27.51-29.65m5.1,13.37c2,5.24,6.31,6.76,7.8,11.55s5.11,6.34,6.44,7.89.55,3.13,1.19,3.17,1.2-1.86-.23-4.25-3.69-2.35-5.56-8.18-5.19-6-6.64-11.4"/><path id="ray2-13" data-name="ray2" class="cls-6" d="M251.68,145.69c5.36-.26,7.74-3.31,12.63-2.71-3.86-1.31-6.86,1.85-12.58,1.67m-14.09,4.54,25.25-11.56-26,9.68"/><path id="ray2-14" data-name="ray2" class="cls-6" d="M251.55,151.43c5.06,1.8,8.43-.1,12.72,2.33-3.07-2.7-7.06-.92-12.27-3.27m-14.75-1.2,27.75-1-27.75-1"/><path id="ray2-15" data-name="ray2" class="cls-6" d="M249.24,156.68c4,3.6,7.82,3.13,10.86,7-1.81-3.67-6.17-3.55-10.08-7.72m-13.17-6.75,26,9.68-25.25-11.56"/><path id="ray2-16" data-name="ray2" class="cls-6" d="M245.1,160.65c2.3,4.85,6,5.88,7.35,10.63-.27-4.07-4.34-5.63-6.36-11M236.5,149l20.34,18.9-18.9-20.34"/></g><circle class="cls-7" cx="237.2" cy="148.25" r="16.47"/><path id="loweyecontour" class="cls-8" d="M242.82,144.73a3.24,3.24,0,0,0-2.84,1.5c1.27,1.14,4.07,1.26,6-.13a4.35,4.35,0,0,0-3.13-1.37Zm0,.26c1.09,0,2.12.48,2.26,1a3.35,3.35,0,0,1-4.56.26,2.65,2.65,0,0,1,2.3-1.24Z"/><path id="uppalpebra" class="cls-6" d="M243,143.94a3.37,3.37,0,0,0-2.79,1,3.17,3.17,0,0,1-1.27.63c-.12.13,0,.51.26.38a7.61,7.61,0,0,0,1.52-1,3.13,3.13,0,0,1,2.28-.63c2.28,0,3.55,1.9,3.8,1.77s-1.27-2.16-3.8-2.16Z"/><path id="eyebrow_nose" data-name="eyebrow nose" class="cls-6" d="M247.59,144.7c-2.92-2.53-6.59-2.91-8.62-1a5.08,5.08,0,0,0-.94,2.12,6.11,6.11,0,0,0,1.32,4.6.91.91,0,0,0-.5.25,8.35,8.35,0,0,1-.64-7.22c2.79-2.28,6.59-2.54,9.38,1.26Z"/><circle id="pupil" class="cls-6" cx="242.78" cy="145.97" r="1.14"/><path id="lowpalpebra" class="cls-6" d="M246.07,146.73c-2.15,1.65-4.31,1.52-5.57.76s-1.27-1-1-1,.51.25,1.52.76,2.54.51,5.07-.51Z"/><path class="cls-6" d="M234.68,150.53a1.14,1.14,0,1,0,1.15,1.78,2.44,2.44,0,0,0,1.37.37h.15a2.44,2.44,0,0,0,1.37-.37,1.12,1.12,0,0,0,.93.48,1.14,1.14,0,0,0,.22-2.26.76.76,0,1,1-1,.76,1.73,1.73,0,0,1-3.15,0,.76.76,0,1,1-1-.76Z"/><path class="cls-6" d="M235.92,153.9c-1.27,0-1.77,1.15-2.91,1.91a22.49,22.49,0,0,0,2-1.26c.89-.51,1.64.11,2.15.11h0c.5,0,1.26-.62,2.15-.11a19.94,19.94,0,0,0,2,1.26c-1.14-.76-1.66-1.91-2.93-1.91a3.39,3.39,0,0,0-1.26.39h0A3.49,3.49,0,0,0,235.92,153.9Z"/><path class="cls-6" d="M235.49,155.4a8.37,8.37,0,0,0-2.11.41c2.28-.51,2.78.26,3.8.26h0c1,0,1.51-.77,3.8-.26a6.77,6.77,0,0,0-3.8-.26h0a13.07,13.07,0,0,0-1.69-.15Z"/><path class="cls-6" d="M233.49,155.79l-.48,0c2.66.26,1.38,1.78,4.17,1.78h0c2.79,0,1.53-1.52,4.19-1.78-2.79-.25-1.91,1.39-4.19,1.39h0c-2.14,0-1.48-1.43-3.69-1.41Z"/><path class="cls-6" d="M239.48,159.91a2.28,2.28,0,1,0-4.56,0,2.34,2.34,0,0,1,4.56,0Z"/><path id="eyebrow_nose-2" data-name="eyebrow nose" class="cls-6" d="M227,144.7c2.91-2.53,6.59-2.91,8.62-1a5.08,5.08,0,0,1,.94,2.12,6.12,6.12,0,0,1-1.33,4.6.91.91,0,0,1,.51.25,9,9,0,0,0,1-5.78,8.07,8.07,0,0,0-.39-1.44c-2.79-2.28-6.59-2.54-9.38,1.26Z"/><path id="uppalpebra-2" data-name="uppalpebra" class="cls-6" d="M231.52,143.94a3.37,3.37,0,0,1,2.79,1,3.23,3.23,0,0,0,1.26.63c.13.13,0,.51-.25.38a7.61,7.61,0,0,1-1.52-1,3.13,3.13,0,0,0-2.28-.63c-2.28,0-3.55,1.9-3.8,1.77s1.27-2.16,3.8-2.16Z"/><path id="loweyecontour-2" data-name="loweyecontour" class="cls-8" d="M231.44,144.73a3.24,3.24,0,0,0-2.83,1.5c1.26,1.14,4.06,1.26,6-.13a4.32,4.32,0,0,0-3.13-1.37Zm0,.26c1.1,0,2.12.48,2.26,1a3.34,3.34,0,0,1-4.55.26,2.63,2.63,0,0,1,2.29-1.24Z"/><circle id="pupil-2" data-name="pupil" class="cls-6" cx="231.59" cy="145.97" r="1.14"/><path id="lowpalpebra-2" data-name="lowpalpebra" class="cls-6" d="M228.48,146.73c2.15,1.65,4.31,1.52,5.57.76s1.27-1,1-1-.51.25-1.52.76-2.54.51-5.07-.51Z"/></g></g></g></svg>