<svg xmlns="http://www.w3.org/2000/svg" viewBox="0 0 247.67 291.06"><defs><style>.cls-1{fill:#9d864a;}.cls-10,.cls-11,.cls-12,.cls-13,.cls-2,.cls-4,.cls-6,.cls-8{fill:none;}.cls-2{stroke:#9d864a;}.cls-10,.cls-2,.cls-4,.cls-6,.cls-8{stroke-width:2.17px;}.cls-3{fill:#012f73;}.cls-4{stroke:#012f73;}.cls-5{fill:#fff;}.cls-13,.cls-6{stroke:#fff;}.cls-7{fill:#ef0007;}.cls-11,.cls-8{stroke:#ef0007;}.cls-9{fill:#db0007;}.cls-10,.cls-12{stroke:#db0007;}.cls-11,.cls-12,.cls-13{stroke-width:0.87px;}</style></defs><title>Ресурс 3</title><g id="Слой_2" data-name="Слой 2"><g id="Layer_1" data-name="Layer 1"><path class="cls-1" d="M123.85,1.08C94.53,1.08,40.53,8.66,13,24.66-23.26,153,26.05,240.32,123.85,289.84c97.8-49.52,147.08-137.28,110.85-265.18C207.17,8.66,153.14,1.08,123.85,1.08Z"/><path class="cls-2" d="M123.85,1.08C94.53,1.08,40.53,8.66,13,24.66-23.26,153,26.05,240.32,123.85,289.84c97.8-49.52,147.08-137.28,110.85-265.18C207.17,8.66,153.14,1.08,123.85,1.08Z"/><path class="cls-3" d="M123.85,9.33c-28.79,0-61.18,3.67-103.65,21-31.62,112,5,201.84,103.65,250.8,98.58-49,135.23-138.76,103.62-250.8C185,13,152.65,9.33,123.85,9.33Z"/><path class="cls-4" d="M123.85,9.33c-28.79,0-61.18,3.67-103.65,21-31.62,112,5,201.84,103.65,250.8,98.58-49,135.23-138.76,103.62-250.8C185,13,152.65,9.33,123.85,9.33Z"/><path class="cls-5" d="M123.85,281C218.76,222.49,240,138.71,211.19,24,183.45,13.49,152.68,9.22,124,9.22ZM123.71,9.22C95.06,9.22,64.29,13.45,36.55,24,7.76,138.71,29,222.49,123.85,281L123.71,9.22Z"/><path class="cls-6" d="M123.85,281C218.76,222.49,240,138.71,211.19,24,183.45,13.49,152.68,9.22,124,9.22ZM123.71,9.22C95.06,9.22,64.29,13.45,36.55,24,7.76,138.71,29,222.49,123.85,281L123.71,9.22Z"/><path class="cls-7" d="M123.85,9.19c-28.79,0-58,4.33-81.7,12.62C12.34,142,36.27,223.23,123.89,278.74Z"/><path class="cls-8" d="M123.85,9.19c-28.79,0-58,4.33-81.7,12.62C12.34,142,36.27,223.23,123.89,278.74Z"/><path class="cls-9" d="M123.92,9.19c28.8,0,58,4.33,81.7,12.62C235.44,142,211.5,223.23,123.89,278.74Z"/><path class="cls-10" d="M123.92,9.19c28.8,0,58,4.33,81.7,12.62C235.44,142,211.5,223.23,123.89,278.74Z"/><path class="cls-5" d="M86.63,190.66c-12.72,8.71-22.84,11.85-34.57,15l-7.09-11A133.1,133.1,0,0,0,78.21,170.5c1,10.72,5.92,18.3,8.42,20.16Z"/><path class="cls-1" d="M84.91,190.17c-12.06,8.28-28.87,14-48.11,16.88l-3.92-6c16.46-6.17,32.39-15.37,44.73-28.31,1.87,8.29,4.69,13.79,7.3,17.38Z"/><path class="cls-5" d="M52.76,139.63a8.35,8.35,0,1,1-8.35-8.35A8.34,8.34,0,0,1,52.76,139.63Z"/><path class="cls-5" d="M51.88,123.14v31.54H76.73c1.62-10.54,7.65-21.78,21.25-31.54H51.88"/><path class="cls-5" d="M52.87,154.68c-5.57.1-10.12-6.87-10.19-15.58s4.37-15.86,9.94-16h.18"/><path class="cls-1" d="M49.24,139.63c0,3.56-2.57,6.45-5.78,6.45s-5.78-2.89-5.78-6.45,2.57-6.45,5.78-6.45,5.78,2.89,5.78,6.45Z"/><path class="cls-1" d="M52.55,124.79v28.37H77.22c1.94-9.41,6.73-19.45,18.68-28.37H52.55"/><path class="cls-1" d="M53.47,153.16c-5.22.11-9.52-6.16-9.59-14s4.12-14.24,9.34-14.34h.18"/><path class="cls-5" d="M171.08,162.08a47.65,47.65,0,1,1-47.65-47.65,47.63,47.63,0,0,1,47.65,47.65Z"/><path class="cls-1" d="M168.58,162.08a45.15,45.15,0,1,1-45.15-45.15A45.17,45.17,0,0,1,168.58,162.08Z"/><path class="cls-5" d="M161.07,162.08a37.64,37.64,0,1,1-37.64-37.64A37.64,37.64,0,0,1,161.07,162.08Z"/><path class="cls-1" d="M158.57,162.08a35.18,35.18,0,1,1-35.18-35.17A35.18,35.18,0,0,1,158.57,162.08Z"/><path class="cls-5" d="M138.09,162.08a14.68,14.68,0,0,1-29.36,0v0a14.68,14.68,0,1,1,29.36,0Z"/><path class="cls-1" d="M136.36,162.08a12.94,12.94,0,1,1-25.87,0v0a12.94,12.94,0,1,1,25.87,0Z"/><path class="cls-5" d="M130.05,162.08a6.63,6.63,0,1,1-13.25,0h0a6.68,6.68,0,0,1,6.63-6.67,6.6,6.6,0,0,1,6.62,6.63Z"/><path class="cls-1" d="M128.22,162.08a4.81,4.81,0,1,1-9.62,0h0a4.81,4.81,0,1,1,9.62,0Z"/><rect class="cls-5" x="118.35" y="126.1" width="10.01" height="23.37"/><rect class="cls-1" x="119.9" y="122.78" width="6.91" height="29.68"/><rect class="cls-5" x="132.58" y="144.85" width="23.37" height="10.01" transform="translate(-58.34 102.74) rotate(-33)"/><rect class="cls-1" x="129.55" y="146.3" width="29.68" height="6.91" transform="matrix(0.84, -0.54, 0.54, 0.84, -58.27, 102.79)"/><rect class="cls-5" x="90.53" y="169.44" width="23.33" height="10.01" transform="matrix(0.84, -0.53, 0.53, 0.84, -77.47, 81.73)"/><rect class="cls-1" x="87.21" y="170.9" width="29.68" height="6.91" transform="translate(-77.47 81.68) rotate(-32.36)"/><rect class="cls-5" x="118.35" y="175.47" width="10.01" height="23.37"/><rect class="cls-1" x="119.9" y="172.13" width="6.91" height="29.68"/><path class="cls-7" d="M113.67,173a17.74,17.74,0,0,0,4.72,2.92l0,20.83a33,33,0,0,1-22-12.51L113.67,173"/><path class="cls-11" d="M113.67,173a17.74,17.74,0,0,0,4.72,2.92l0,20.83a33,33,0,0,1-22-12.51L113.67,173"/><path class="cls-9" d="M133.16,173.08a18,18,0,0,1-4.73,2.92l0,20.83a32.86,32.86,0,0,0,22-12.51l-17.3-11.24"/><path class="cls-12" d="M133.16,173.08a18,18,0,0,1-4.73,2.92l0,20.83a32.86,32.86,0,0,0,22-12.51l-17.3-11.24"/><path class="cls-9" d="M137.88,164.34l20.65-2.51a33.81,33.81,0,0,1-2.82,14.1l-17.87-11.56"/><path class="cls-5" d="M137.91,164.27c.07-.36.07-.64.18-1.59L158.5,160a10.31,10.31,0,0,1,0,1.72l-20.62,2.51Z"/><path class="cls-13" d="M137.91,164.27c.07-.36.07-.64.18-1.59L158.5,160a10.31,10.31,0,0,1,0,1.72Z"/><path class="cls-5" d="M168.12,147.07H194.9c-.84,3.17-1.65,6.38-5.49,7.82-6.14,2.29-18.9,4.55-18.9,4.55A54.72,54.72,0,0,0,168.12,147.07Z"/><path class="cls-5" d="M149.47,122.68l69.93.1-2.47,25.52-47.75,2.5C166.6,139.38,157.93,128.46,149.47,122.68Z"/><path class="cls-1" d="M151.94,124.51l89.28.07-3.42,20.79-69.26,3.42C165.79,138.43,159.55,130.92,151.94,124.51Z"/><path class="cls-1" d="M168.08,147.07h24.67c-.81,2.82-1.41,5.39-5,6.66-5.78,2-17.38,3.66-17.38,3.66A58.89,58.89,0,0,0,168.08,147.07Z"/><path class="cls-1" d="M182.92,83.06A2.74,2.74,0,0,1,180,80.24c.11-1.13.49-2.82,4.09-4,.1,1.41.25,2.54.25,2.54v1.13c.1.84.1,1.69.24,2.53a14.38,14.38,0,0,1-1.69.6m-44.87-4c-2.53,2.26-4.33,3.66-7.33,3.66A5.57,5.57,0,0,1,126,79.08c2.53-.85,12.26-4.55,15-5.67,0,2.25.1,4.82.1,4.82v4.83Zm-13.74-8.21c0-4,1.44-5.68,2.89-5.68.49,0,1.55-.28,2,1.69a7.33,7.33,0,0,1,.36,1.7c0,1.12-.6,1.41-1.34,1.41v.28a33.14,33.14,0,0,0-4,1.41A5.3,5.3,0,0,0,124.31,70.87ZM50.68,74c.71-2,1.34-3.66,2.4-6.8.7,3.1,1.09,5.11,1.45,6.52A16.72,16.72,0,0,1,50.68,74Zm90.37,11.6c0,1.13-.25,4.26-.35,5.11h13.85A74.43,74.43,0,0,1,153.21,78c0,.28-.25-7.93-.25-7.93a2.6,2.6,0,0,1,.6-1.69,1.72,1.72,0,0,1,1.55-.56c.6-.29,1.69-.29,1.8,2l.35,8.49a79.58,79.58,0,0,1-.35,12.48h13.36c-.11-1.13-.5-3.95-.6-4.83,1.69,3.67,5.29,5.68,10.11,5.68a11.82,11.82,0,0,0,6.74-2.26,6.56,6.56,0,0,0,.7,1.41H212A71.58,71.58,0,0,1,209.85,78l-3.49-27.77L193.6,47.92a94.13,94.13,0,0,1,2.29,12.76l1.94,17.84a90.59,90.59,0,0,1,.6,10.18V89l-.49-1.12c-1-2.26-1.45-5.12-1.8-9.34l-.5-5.68c-.7-9.06-5.63-13-16.49-13A38.67,38.67,0,0,0,170,60.93l.71,10.18,2.89-1.69a11.82,11.82,0,0,1,6.38-2c1.69,0,2.78.56,3.24,1.69a25.21,25.21,0,0,0-6.87,2A13.2,13.2,0,0,0,169,78.2v-.28l-.35-9.34c-.24-6-4.09-9.91-10-9.91a13.18,13.18,0,0,0-7.23,2.26c-.1-.28-.24-.57-.35-.85L150.64,59l-11.07-.56A90.78,90.78,0,0,1,140.91,68a14.16,14.16,0,0,0-5-8.21,15.84,15.84,0,0,0-19.24,2.29c-2.89,2.82-4.34,6.8-4.44,11.32a11,11,0,0,0-4.2-2.82l-5-2.54h-.25c-1.19-.57-1.33-.85-1.33-1.13.1-.56,1.33-1.13,2.89-1.13a17,17,0,0,1,7.57,2.54l.25-9.06a21.3,21.3,0,0,0-16.6.57c-.85.56-1.55,1.12-2.29,1.69l.1-2.54c-2.89-.56-6-.56-9.86,3.1-.15-.28-.36-1.69-.6-2.25l-11.92.56a45.44,45.44,0,0,1,.71,12.48l-.25,4.54V78c-.1,2.25-.24,4.83-.49,7.08-.95-3.1-2-7.37-2.89-10.75L62.1,47.71,45.26,50.25a13.68,13.68,0,0,1,.49,2c.1,1.13.1,3.39-1.45,8.22-2.78,7.64-6.62,19.27-10.36,27.49-.49,1.12-1.44,2.82-1.44,2.82H45.61a48,48,0,0,1,1.94-7.93c1.79,0,6.48,0,8.67-.29a45.34,45.34,0,0,1,1.09,6.24l.25,2H83.78a68.23,68.23,0,0,1-.11-13c.25-3.66,1-6.23,2.54-7.64a4.44,4.44,0,0,1,3.49-1.69c-.11,5.11,3.14,7.36,6,8.77l5.18,2.54c1.79,1.13,1.79,1.41,1.79,2-.1.85-1.55,1.13-2.89,1.13-2.74,0-6.48-1.69-10.57-6.24L89,88.45A24.59,24.59,0,0,0,100,91c6,0,12.4-2.82,14.06-8.21,3,5.67,8.91,8.21,14.69,8.21a15.65,15.65,0,0,0,12.34-5.39Z"/><path class="cls-5" d="M110,60.68a22,22,0,0,0-5.89-.84,18.38,18.38,0,0,0-7.57,1.69c-2.65,1.69-4.59,4-4.69,6.52-.25,4,1.8,5.67,4.83,7.08,2,1.13,4,2.26,5.18,2.82,1.55.85,3,1.69,2.89,3.67S102.81,85,99.81,85c-2.53,0-6.13-1.69-8.67-4L91,87a20.93,20.93,0,0,0,8.92,1.7c5.53,0,12.4-2.54,12.51-8.78.1-4.83-3.25-6.52-5.29-7.65-2-.84-4.09-2-5-2.25-1-.57-2.89-1.13-2.78-3.39.24-2,2.53-2.82,4.93-2.82a12.23,12.23,0,0,1,5.64,1.41"/><path class="cls-5" d="M47.79,76l5.78-16.71L57.06,75.7m3.49-25.52L47.79,51.87c.25,1.69-.24,5.11-1.55,9.06-2.64,7.65-7,20.41-10.36,27.77h7.93a43,43,0,0,1,2.29-7.93l11.81-.28a60.36,60.36,0,0,1,1.44,8.21H70.07c-1.34-3.1-3-9.62-4.09-14.17Z"/><path class="cls-5" d="M91.11,60.68l-.25,5.68a7.31,7.31,0,0,0-6.27,2.25c-1.69,1.69-2.79,4.27-3,8.78a87.53,87.53,0,0,0-.1,11.31h-9a79.72,79.72,0,0,0,1-11.07l.24-4.51a45,45,0,0,0-.35-10.75l7.93-.28a16.07,16.07,0,0,1,.49,5.11c3.49-5.39,6.84-6.52,9.38-6.52"/><path class="cls-5" d="M204.56,51.91l-8.18-1.41a88,88,0,0,1,1.56,9.9l1.93,17.83a81,81,0,0,1,.6,10.47h8.92a69.61,69.61,0,0,1-1.55-10.47"/><path class="cls-5" d="M167.87,88.7A98.88,98.88,0,0,1,167,78.23l-.36-9.34c-.24-5.11-3.13-7.93-7.93-7.93a10.18,10.18,0,0,0-8.42,4.27,23.38,23.38,0,0,0-.95-4.27l-7.23-.28a70.49,70.49,0,0,1,1,10.47l.11,7.08A99.7,99.7,0,0,1,143,88.7h9a90,90,0,0,1-.85-10.47l-.25-7.93a4.49,4.49,0,0,1,4.2-4.82c2.54,0,3.73,1.69,3.84,4.26l.35,8.49c.11,3.67.11,7.09-.1,10.47"/><path class="cls-5" d="M182.92,85c-2.64,0-4.83-1.41-4.93-4.55s1.94-5.68,8.07-6.52l.35,4.83a40.55,40.55,0,0,0,.35,4.26,6,6,0,0,1-3.84,2M196,88.7a34.51,34.51,0,0,1-1.94-9.9l-.49-5.68c-.49-6.8-3.38-11.35-14.45-11.35a32.12,32.12,0,0,0-7,.85l.35,5.11A13.9,13.9,0,0,1,180,65.19c3,0,5.53,1.41,5.78,5.68a24.48,24.48,0,0,0-8.53,2.25c-3.39,1.41-6.88,4.27-6.49,8.78.35,5.11,4.2,7.37,9,7.37a9.86,9.86,0,0,0,7.69-3.39,15,15,0,0,0,.95,2.82Z"/><path class="cls-5" d="M129,72l-6.48,2.53a34.55,34.55,0,0,1-.25-3.66c0-6.52,3.6-7.65,4.83-7.65,1.94-.28,3.59.85,4.23,3.1.67,2.57.42,4.83-2.33,5.68m5.64-10.47a12,12,0,0,0-7-2c-5.88,0-13.71,4.27-13.46,15,.11,11,8.53,14.45,14.45,14.45a14,14,0,0,0,10.82-4.55l-1.8-2.54a10.31,10.31,0,0,1-7,2.82c-3.73-.28-6.13-2.82-7.47-6.8l16.36-6C139.11,66.64,137.21,63.5,134.67,61.53Z"/><rect class="cls-5" x="98.03" y="136.31" width="10.01" height="23.33" transform="translate(-77.21 153.07) rotate(-56.77)"/><rect class="cls-1" x="99.53" y="133.29" width="6.91" height="29.68" transform="translate(-77.35 153.14) rotate(-56.78)"/><rect class="cls-5" x="139.71" y="162.92" width="10.01" height="23.33" transform="translate(-80.63 199.97) rotate(-56.77)"/><rect class="cls-1" x="141.22" y="159.9" width="6.91" height="29.68" transform="translate(-80.77 200.05) rotate(-56.78)"/></g></g></svg>