<svg xmlns="http://www.w3.org/2000/svg" viewBox="0 0 187.21 300"><defs><style>.cls-1{fill:#f4dc40;}.cls-2{fill:#519dd5;}.cls-3{fill:#973030;}</style></defs><title>Ресурс 4</title><g id="Слой_2" data-name="Слой 2"><g id="Layer_1" data-name="Layer 1"><path class="cls-1" d="M93.61,258.47c6.53-17.57,28.73-24.82,49.6-33.08,21.53-8.52,41.63-18.09,41.63-39.24L184.82,0H2.37V186.15c0,21.15,20.1,30.72,41.63,39.24,20.87,8.26,43.07,15.51,49.61,33.08Z"/><path class="cls-1" d="M1.35,282.77a8,8,0,0,0-.72,7.58C2.46,294,8.11,295.49,9,300l8.47-8.47c-.35-.35-.69-.7-1-1,5.27,4.05,12.26,4.23,17-1.13l0,0,7.46-9.5A169.83,169.83,0,0,0,93.61,290a169.82,169.82,0,0,0,52.64-10.12l7.46,9.5,0,0c4.74,5.36,11.73,5.18,17,1.13-.35.33-.69.68-1,1l8.47,8.47c.92-4.52,6.58-6,8.4-9.65a8,8,0,0,0-.72-7.58h0l-12.4-13.09,11-11,.35-.28,0,0,0,0,0,0-20.18-29.6c-16.41,9.85-39.31,23.89-71,26.15-31.72-2.26-54.61-16.3-71-26.15L2.4,258.36l0,0,0,0,0,0,.35.28,11,11L1.33,282.77Z"/><path class="cls-2" d="M90.39,271.9,81.5,281c3.2.25,8.57,5.41,12.86,8.28,3.77,1.82,8.33,1.74,11.35-2.05Z"/><path class="cls-3" d="M93.6,250c-5.71-13.68-26.77-21-46.68-28.67C26.38,213.35,7.06,204.2,7.06,184.77V41.18H180.15V184.77c0,19.43-19.32,28.58-39.87,36.52-19.91,7.7-41,15-46.68,28.67ZM7.06,4.66h173.1V36.54H7.06Z"/><path class="cls-2" d="M15,267.26,33.12,284.9l4.82-6.26C32.17,276.5,20.07,270.7,15,267.26ZM4.23,283.13c-2,2.59-1.72,4.92-.3,6.66s4.29,3.43,6,5.42l5.63-5.4c-2.47-2.89-8-6.38-11.32-6.68ZM171.15,271.9,180,281c-3.19.25-8.57,5.41-12.86,8.28-3.77,1.82-8.33,1.74-11.35-2.05ZM93.6,286.26c9.75.12,22.35-1.72,35.32-5.07,19.71-5.09,41.31-14.62,51.24-23.44L163.79,233.9c-14.92,8.6-40.28,23.38-70.18,24.27-29.91-.89-55.26-15.67-70.18-24.27L7.05,257.75c9.93,8.82,31.53,18.35,51.24,23.44C71.26,284.54,83.86,286.38,93.6,286.26Zm78.61-19L154.09,284.9l-4.82-6.26c5.77-2.14,17.87-7.94,22.94-11.38ZM183,283.13c2,2.59,1.72,4.92.3,6.66s-4.29,3.43-6,5.42l-5.62-5.4c2.47-2.89,8-6.38,11.32-6.68Z"/><path class="cls-2" d="M108.53,250c-4.1-9.8-16.07-16.33-29.86-22.07V41.18h29.86V250ZM51.84,217.21C35.44,210,22,201,22,184.77V41.18H51.84Zm86.55-176h26.84v176q-5,2.14-10,4.08c-5.64,2.18-11.37,4.33-16.82,6.6V41.18Z"/><path class="cls-1" d="M58.89,76.88a22.56,22.56,0,0,0,6.18,3.81c3.75,1.35,8.58.72,12.53.72,3.44.38,3,2.66.77,3.27-2.58.7-7.4,2.11-9.89,2.25a10.8,10.8,0,0,1-7.09-2c-3.82-2.65-6.75-8.5-5.89-9.34.61-.59,2.94.91,3.39,1.24ZM59.34,136c-3.1.89-8.21,7.44-9,10.72-2.44-1.32-6.15-8.81-2.93-13.12-8.17,1.14-9.69,3.91-10.15,3.53,0-4.92.21-7.94,4.75-12.48.63-4.35-3.59-5-7.62-6.36,8.63-3.94,13-1.58,18.2,1.36,5.45,3.08,9,6.53,12.93,6.25,3.69-.26,10-.54,13.17-2.28,2-1.07,2.7-2.25,1.65-3.26-.45-.44-.78-.94-3.42.42-.39-7.68,8.66-21.06,12.94-24a4.48,4.48,0,0,0,1.37-4c-5.17,0-18.49,8.29-20.48.08a2.8,2.8,0,0,1,1.76-3.61c3.92.22,12.3,1.63,13.3-4.36.43-2.54-1.35-5.38-4.4-6.34-1.79-.57-4.31-1.48-6.08-1.48-3.84-.62-4.87-5.56-2-8,3.41-2.91,6,.69,9.15,2.65s7.16,4,10.35,4.51c4.2.7,3.35-3.06,1.71-3.82-2.08-1-8-1.52-11.39-2.53-2.54-.76-4.08-4.26-1.74-6,1.19-.88,2.79-1.29,7.34-.4,10.1,6,16.37.59,22.46.59a9.57,9.57,0,0,0-.53,5c3.8,4.36,11.16,12.26,12.94,26.18-2.25-1.64-6.56-4-9.55-3.92,2.56,2.09,9.61,11.38,9.33,18.64-3.47-3-9.18-4.86-11.41-4.69,2.28,1.7,9.13,6.07,7.31,17.62C118.12,121,115.85,118,112,118c-.9,10.11,8.35,26,15.71,32.53,2.54,2.25,5.83,4.83,8.61,5.5a4.05,4.05,0,0,0,4.83-1.82c2.24-3.66-.61-9.38-2.3-12.77-3.14-6.29-7.86-12.69-9.61-19.8-1.7-6.88-1-14.81,4.37-20.58,7.86-8.42,21.43-7.31,29.6.52-1.72.49-5.3-2.32-7.49-2.15s-3,1.78-4.1,3c-3.56-4.34-11.77-2.14-16,5.1-4.8,8.31,1.05,17.08,2.75,21.5a44.08,44.08,0,0,0,2.9-4.92c.05,3.25-.88,4.79,1.08,11,2.13,6.73,6.7,12.88,4.39,20.22a9.14,9.14,0,0,1-3.72,5.43c-6,3.9-11.81.08-14.08-1.23,1.79,11.89-2.81,10.57-7.54,17.09-3.74,5.13-.12,8.67,2.66,12.09s4.87,7,4.66,9.56A6.71,6.71,0,0,1,125,203.8c-2.22,1.1-5.76,1.28-9.24,1.66-3.66.4-5.26,3.31-6.52,5.22a20.89,20.89,0,0,1-2.08-7.2c-3,0-7.06,4-9.33,6.31-3.39-5.21-1.57-9,.13-12.07-2.57-2.1-7-.09-9.46.54,1.58-8.44,11.93-9,19.23-6.57,2.46.81,5.41,4.28,7.3,1.43,2.4-3.61-5.51-13.31-6.61-14.08-5.53-6.3-6.89-6.88-3.45-14.9,1.06-2.48,2.11-4.93,2-7.31-.22-8.57-17.36-9.36-20-16.81-.14-.82,2.66-7.64,1.84-10.82-1.53,2.2-4.07,5.9-5,7.64a10.5,10.5,0,0,1-5.39-1.54,7.59,7.59,0,0,0-4.22,4c-.94-.13-1.76-.65-3.87-1.52a16.7,16.7,0,0,0-4.81,4.88A20.06,20.06,0,0,1,59.34,136ZM78.11,154.9c-3.19-5.38-3-10.66,6.35-12.42,1.4,2.51,6,6.3,8.37,7.4,3.43,1.6,6.6,2.58,8.91,5.81-6.43,3.16-11.1,4.52-13.58,9.49-2.87,8.32,5.32,7.75,3.06,14.51-.93,2.77-4.87,4-8.49,4l-7.87-.76c-3.63,1.07-7.9,5.28-11,7.78-2.13-1.42-3.48-11.85-1.66-13.34-1.88-1-7.3.75-9.11,2.27-1.08-6.34,5-8.78,7.46-9.76-1.68-2.92-7.16-3.78-9.17-3.44,1.63-6.2,10.24-7.91,15.62-2.39,2.52,2.59,6.17,4.85,9.58,4,6.9-1.79,3.26-10.17,1.51-13.13Zm1.7-52.48c-1.14,0-10.37.67-11.13-.09-11.44-4-11.06-10.92-16.37-17.49-3.42-4.22-11.43-5.74-15.14,1.87,3.36.29,6.91.82,7.5,3.53-4.91-.18-11.67,6-12,9.39,4.55,0,10.82-.82,11.72,2.39-.37,2.27-3.49,7.21-5,10a39.53,39.53,0,0,0,13.53-4.39c1.41.47,1.07,2.23,1.44,3.33,1.25.31,3.18-.8,4.83-.59.73,1.17,1.56,4.31,3.23,6.21,2.77-.07,4.16-1,6.43-1l4.41,3.54c0-5.6,4.86-13.87,6.6-16.72ZM37,269.71l6-17.46,4.64,1.6A15.39,15.39,0,0,1,51,255.27a4.06,4.06,0,0,1,1.51,2.45,6.67,6.67,0,0,1-.35,3.69,6.8,6.8,0,0,1-1.81,2.93,4.31,4.31,0,0,1-2.4,1.18,9.8,9.8,0,0,1-3.87-.75l-1.9-.65-2.27,6.58-2.88-1Zm7.88-13.52-1.71,5,1.6.55a7.65,7.65,0,0,0,2.26.53,2.12,2.12,0,0,0,1.23-.49,2.89,2.89,0,0,0,.87-1.32,2.8,2.8,0,0,0,.12-1.6,2,2,0,0,0-.67-1.12,8.84,8.84,0,0,0-2.3-1l-1.4-.49Zm5.51,18,4.46-17.92,6.25,1.56a8.8,8.8,0,0,1,3.3,1.34,3.82,3.82,0,0,1,1.27,2.09,5.86,5.86,0,0,1-.05,3,5.43,5.43,0,0,1-1.85,3.13,4.62,4.62,0,0,1-3.27.9,7.67,7.67,0,0,1,1.2,1.89,21.26,21.26,0,0,1,1,3.34l.92,3.94-3.53-.88-1.18-4.44a27.18,27.18,0,0,0-.92-3,2.42,2.42,0,0,0-.7-1,4.07,4.07,0,0,0-1.44-.57l-.61-.16L53.36,275l-3-.74Zm5.53-9.61,2.2.55a11.7,11.7,0,0,0,2.62.47,1.7,1.7,0,0,0,1.07-.5,2.79,2.79,0,0,0,.7-1.34,2.48,2.48,0,0,0,0-1.46,1.79,1.79,0,0,0-.74-.95,13.08,13.08,0,0,0-2.38-.73l-2.32-.58ZM65.17,278l3.21-18.19,11.06,2-.54,3.08-8.06-1.43-.71,4,7.49,1.32-.54,3.06-7.49-1.32-.87,4.95,8.33,1.47L76.51,280l-11.34-2Zm14.12,2.68,1.29-18.42,4.9.34a15.46,15.46,0,0,1,3.56.51,4,4,0,0,1,2.09,2,6.61,6.61,0,0,1,.62,3.66,6.8,6.8,0,0,1-1,3.29,4.39,4.39,0,0,1-2,1.77,9.86,9.86,0,0,1-3.94.27l-2-.14-.49,6.95-3-.21Zm4.11-15.1L83,270.8l1.69.12a7.32,7.32,0,0,0,2.32-.08,2.09,2.09,0,0,0,1.06-.79,3.15,3.15,0,0,0,.2-3.07,1.9,1.9,0,0,0-.93-.91,9,9,0,0,0-2.49-.4l-1.48-.1Zm23.38,15.23-3.32.17-1.54-4.12-6,.32-1,4.25-3.24.18,4.92-18.76,3.23-.17,7,18.13Zm-6-7-2.44-6.74L96.65,274Zm7.62,6.73-3.52-18.14,6.32-1.22a8.91,8.91,0,0,1,3.56-.19,3.91,3.91,0,0,1,2,1.37A5.86,5.86,0,0,1,118,265.1a5.49,5.49,0,0,1-.35,3.63,4.6,4.6,0,0,1-2.59,2.19,7.39,7.39,0,0,1,1.89,1.21,21.23,21.23,0,0,1,2.3,2.61l2.49,3.19-3.57.69-3-3.52a30.72,30.72,0,0,0-2.11-2.37,2.38,2.38,0,0,0-1-.56,4.1,4.1,0,0,0-1.55.08l-.61.12,1.47,7.57-3,.59Zm1-11,2.23-.43a12.32,12.32,0,0,0,2.56-.68,1.64,1.64,0,0,0,.76-.9A2.71,2.71,0,0,0,115,266a2.47,2.47,0,0,0-.62-1.32,1.78,1.78,0,0,0-1.08-.54,11.93,11.93,0,0,0-2.46.34l-2.35.45.89,4.6Zm14,7.87-4.46-17.92,10.9-2.72.76,3-8,2,1,4,7.37-1.84.76,3-7.39,1.85,1.22,4.87,8.22-2,.75,3-11.18,2.79Zm7.52-21.2,5.28-1.81a8.42,8.42,0,0,1,3.17-.6,5.38,5.38,0,0,1,2.4.86,8.29,8.29,0,0,1,2.29,2.29,16.38,16.38,0,0,1,1.94,4,14.18,14.18,0,0,1,.84,4.11,8.18,8.18,0,0,1-.39,3.1,5.29,5.29,0,0,1-1.39,2.13,7.6,7.6,0,0,1-2.69,1.48l-5.43,1.86-6-17.46Zm3.91,2,4,11.57,2.17-.75a5.59,5.59,0,0,0,1.92-1,2.58,2.58,0,0,0,.76-1.14,4.85,4.85,0,0,0,.08-1.9,14.72,14.72,0,0,0-.77-3.1,14.5,14.5,0,0,0-1.33-3,4.26,4.26,0,0,0-1.44-1.48,2.86,2.86,0,0,0-1.67-.37,11.57,11.57,0,0,0-2.39.66l-1.31.44ZM20.15,12l4.68,18H21.06l-.91-3.7H15.31L14.37,30H11.31L16.1,12Zm-.81,11-1.58-6.33L16.16,23Zm17-7-3,1.18a3.24,3.24,0,0,0-1-1.63,2.46,2.46,0,0,0-1.59-.5,4.17,4.17,0,0,0-.75.08,1.84,1.84,0,0,0-.65.24,1.49,1.49,0,0,0-.67,1.36,1.41,1.41,0,0,0,.46,1.1,2.3,2.3,0,0,0,1,.52l.69.19a19.51,19.51,0,0,1,3,1,4,4,0,0,1,.87.55,4.71,4.71,0,0,1,1.45,1.83,5.66,5.66,0,0,1,.51,2.41,6.26,6.26,0,0,1-.5,2.52,5.82,5.82,0,0,1-1.35,2,5.05,5.05,0,0,1-1.5,1,6.25,6.25,0,0,1-1.75.44,7.94,7.94,0,0,1-1.08.07A6.93,6.93,0,0,1,29,30.05a6.5,6.5,0,0,1-1.4-.5,5.65,5.65,0,0,1-2.24-2.07,6.55,6.55,0,0,1-.83-2.26l3.22-.89a3.42,3.42,0,0,0,1.14,2,3.33,3.33,0,0,0,2,.56,3.67,3.67,0,0,0,.78-.08,3.09,3.09,0,0,0,.77-.35,1.72,1.72,0,0,0,.78-1.51,1.54,1.54,0,0,0-.34-1,2.25,2.25,0,0,0-.83-.57,3.27,3.27,0,0,0-.66-.24l-.78-.21c-.73-.2-1.46-.42-2.18-.68a8.63,8.63,0,0,1-1-.54,4.55,4.55,0,0,1-.8-.65,4.67,4.67,0,0,1-.83-1.23,6.06,6.06,0,0,1-.45-2.43,6.58,6.58,0,0,1,.1-1.21,7.07,7.07,0,0,1,.31-1.13,5.41,5.41,0,0,1,1.2-1.89A4.34,4.34,0,0,1,28.68,12a6.18,6.18,0,0,1,2-.34,7.26,7.26,0,0,1,1,.06c.3,0,.59.1.87.16a5.78,5.78,0,0,1,1.62.73,5.9,5.9,0,0,1,2.19,3.28ZM48.2,12v3.56H44.45V30H41V15.52H37.17V12Zm6.93,18.26a5.52,5.52,0,0,1-2.75-.7,5.83,5.83,0,0,1-2.1-2.14,11.27,11.27,0,0,1-1.17-3,15.4,15.4,0,0,1-.39-3.45,15.62,15.62,0,0,1,.48-3.85,9.62,9.62,0,0,1,1.48-3.15,4.83,4.83,0,0,1,1.57-1.43,5.72,5.72,0,0,1,5.53-.17,6.1,6.1,0,0,1,2.09,2.13,10.05,10.05,0,0,1,1.2,3,14.55,14.55,0,0,1,.33,5.09c-.06.55-.15,1.1-.26,1.64a11.21,11.21,0,0,1-1.07,3A6,6,0,0,1,58,29.44a5.31,5.31,0,0,1-2.82.78Zm0-15.08a2,2,0,0,0-1.43.5,3.37,3.37,0,0,0-.84,1.53A10.57,10.57,0,0,0,52.49,19a14.82,14.82,0,0,0-.11,1.88l0,.78v.8c.09.78.18,1.32.25,1.64a6.58,6.58,0,0,0,.32,1,3.35,3.35,0,0,0,.68,1.05,2,2,0,0,0,1.46.6,2.07,2.07,0,0,0,.8-.14,1.8,1.8,0,0,0,.61-.38,3.28,3.28,0,0,0,.83-1.53,8.12,8.12,0,0,0,.35-1.85c0-.26.05-.56.08-.9s0-.69,0-1,0-.79,0-1-.05-.71-.09-1.07-.13-.8-.2-1.13a8.19,8.19,0,0,0-.23-.85,3.37,3.37,0,0,0-.83-1.35,2.21,2.21,0,0,0-1.33-.4ZM74.6,12V30h-3L65.87,17.86h-.08V30H63.08V12h3.78l5,10.56h0V12Zm21,0L91.07,30H87.3L82.82,12h3.72l3,12.84L92.64,12ZM100,12V30h-3.5V12Zm5.74,14.42h6V30h-9.5V12h3.49V26.38Zm10.24,0h6V30h-9.5V12H116V26.38ZM130.43,12l4.69,18h-3.77l-.92-3.7H125.6l-.94,3.7h-3.07l4.79-18Zm-.8,11L128,16.62,126.45,23Zm24.29-7.5h-7.16v4.09h5.69v3.38h-5.69v7h-3.48V12h10.64v3.49ZM156.28,30h-3.41V25.88h3.41Zm14.36-11.3-3.67.29c0-.29,0-.51,0-.66s0-.41-.11-.79a4.94,4.94,0,0,0-.41-1.23,2.13,2.13,0,0,0-2-1.17,1.93,1.93,0,0,0-1.58.78,4.76,4.76,0,0,0-.82,1.91q-.08.31-.12.63t-.12.87c0,.24,0,.58,0,1s0,.71,0,.87c0,.5,0,.88,0,1.16s.05.61.1,1a5.8,5.8,0,0,0,.5,1.95,3.59,3.59,0,0,0,.69,1,2.37,2.37,0,0,0,1.57.53,2.1,2.1,0,0,0,1-.26,2.5,2.5,0,0,0,.8-.79,5.17,5.17,0,0,0,.76-2.33l3.41.26a8.71,8.71,0,0,1-1.22,3.87,5.74,5.74,0,0,1-5,2.69,5.72,5.72,0,0,1-2.23-.44,6.29,6.29,0,0,1-1.82-1.19,8.46,8.46,0,0,1-2.13-4.12,14.87,14.87,0,0,1-.42-3.52,14.08,14.08,0,0,1,.53-3.95A9.49,9.49,0,0,1,160,13.85a6.41,6.41,0,0,1,1.66-1.41,5.9,5.9,0,0,1,3-.74,6.73,6.73,0,0,1,1.91.26,4.84,4.84,0,0,1,1.55.79,6,6,0,0,1,2,3,12.8,12.8,0,0,1,.59,2.91ZM175.9,30h-3.41V25.88h3.41Z"/></g></g></svg>