<?xml version="1.0" encoding="UTF-8" standalone="no"?>
<svg
   xmlns:dc="http://purl.org/dc/elements/1.1/"
   xmlns:cc="http://creativecommons.org/ns#"
   xmlns:rdf="http://www.w3.org/1999/02/22-rdf-syntax-ns#"
   xmlns:svg="http://www.w3.org/2000/svg"
   xmlns="http://www.w3.org/2000/svg"
   xmlns:sodipodi="http://sodipodi.sourceforge.net/DTD/sodipodi-0.dtd"
   xmlns:inkscape="http://www.inkscape.org/namespaces/inkscape"
   width="253"
   height="395"
   viewBox="0 0 308 480"
   version="1.1"
   id="svg3053"
   inkscape:version="0.48.1 "
   sodipodi:docname="AtalantaBC.svg">
  <metadata
     id="metadata3119">
    <rdf:RDF>
      <cc:Work
         rdf:about="">
        <dc:format>image/svg+xml</dc:format>
        <dc:type
           rdf:resource="http://purl.org/dc/dcmitype/StillImage" />
      </cc:Work>
    </rdf:RDF>
  </metadata>
  <defs
     id="defs3117" />
  <sodipodi:namedview
     pagecolor="#ffffff"
     bordercolor="#666666"
     borderopacity="1"
     objecttolerance="10"
     gridtolerance="10"
     guidetolerance="10"
     inkscape:pageopacity="0"
     inkscape:pageshadow="2"
     inkscape:window-width="1280"
     inkscape:window-height="706"
     id="namedview3115"
     showgrid="false"
     inkscape:zoom="0.71513725"
     inkscape:cx="315.46392"
     inkscape:cy="300.12887"
     inkscape:window-x="-8"
     inkscape:window-y="-8"
     inkscape:window-maximized="1"
     inkscape:current-layer="svg3053" />
  <g
     id="g3154"
     transform="translate(-100.52398,-10.501338)">
    <path
       transform="matrix(0.80783219,0,0,0.8,-14.103289,0)"
       d="m 500.6032,311.68842 c 0,153.68331 -74.81357,278.26825 -167.10079,278.26825 -92.28721,0 -167.10078,-124.58494 -167.10078,-278.26825 0,-153.68332 74.81357,-278.268254 167.10078,-278.268254 92.28722,0 167.10079,124.584934 167.10079,278.268254 z"
       sodipodi:ry="278.26825"
       sodipodi:rx="167.10078"
       sodipodi:cy="311.68842"
       sodipodi:cx="333.50241"
       id="path3152"
       style="fill:#ffffff;fill-opacity:1;stroke:#00ffff;stroke-opacity:0"
       sodipodi:type="arc" />
    <g
       transform="matrix(0.90781198,0,0,0.89488006,24.637371,21.544327)"
       id="g3121">
      <path
         style="fill:#0071bc"
         inkscape:connector-curvature="0"
         d="m 238.94,6.25 c 22.2,-3.9 45.51,0.7 64.99,11.89 24.6,13.87 43.65,35.79 58.29,59.61 5.01,8.2 9.49,16.72 13.6,25.42 -9.44,11.58 -18.9,23.13 -28.41,34.65 -24.28,-19.84 -55.04,-31.64 -86.39,-32.81 -30.48,-1.3 -61.27,7.41 -86.6,24.4 -27.49,18.19 -48.55,45.9 -58.59,77.3 -9.76,29.88 -9.44,62.96 0.95,92.63 8.63,25.4 24.68,48.02 45.14,65.29 -10.13,12.2 -20.07,24.55 -30.18,36.77 C 114.16,361.31 105.38,317.72 103.31,274.1 100.76,214.12 110.16,152.74 136.46,98.38 147.28,76.44 160.99,55.67 178.71,38.67 195.3,22.68 216,10.15 238.94,6.25 z"
         id="path3057" />
      <path
         style="fill:#ffffff"
         inkscape:connector-curvature="0"
         d="m 265.25,58.84 c 2.25,0.21 4.52,0.35 6.78,0.56 3.28,11.95 6.31,23.98 9.49,35.96 -2.55,-0.19 -5.09,-0.45 -7.64,-0.68 -0.79,-3.16 -1.54,-6.34 -2.22,-9.53 -3.69,-0.48 -7.41,-0.8 -11.12,-1.01 -1.36,2.95 -2.73,5.9 -4.01,8.88 -2.52,-0.17 -5.04,-0.35 -7.55,-0.59 5.45,-11.18 10.85,-22.39 16.27,-33.59 z"
         id="path3059" />
      <path
         style="fill:#ffffff"
         inkscape:connector-curvature="0"
         d="m 221.45,60.93 c 2.32,-0.3 4.64,-0.65 6.97,-0.94 1.22,9.36 2.27,18.74 3.5,28.1 5.41,-0.51 10.8,-1.27 16.2,-1.88 0.28,2.2 0.48,4.42 0.73,6.63 -7.73,0.7 -15.41,1.8 -23.12,2.71 -1.48,-11.53 -2.88,-23.07 -4.28,-34.62 z"
         id="path3061" />
      <path
         style="fill:#ffffff"
         inkscape:connector-curvature="0"
         d="m 282.42,94.76 c 3.34,-11.16 6.73,-22.31 9.96,-33.5 2.34,0.69 4.68,1.41 7.03,2.09 2.38,8.58 4.55,17.21 7.07,25.74 2.09,-7.25 4.23,-14.48 6.49,-21.68 2.2,0.64 4.4,1.27 6.61,1.91 -3.29,11.19 -6.7,22.34 -10,33.53 -2.26,-0.67 -4.53,-1.32 -6.78,-2.02 -2.32,-8.66 -4.77,-17.29 -7.19,-25.93 -2.14,7.3 -4.33,14.58 -6.55,21.85 -2.22,-0.67 -4.43,-1.33 -6.64,-1.99 z"
         id="path3063" />
      <path
         style="fill:#ffffff"
         inkscape:connector-curvature="0"
         d="m 196.56,67.99 c 2.19,-0.58 4.36,-1.23 6.55,-1.81 7.29,10.02 14.41,20.16 21.7,30.17 -2.49,0.7 -4.98,1.4 -7.46,2.11 -1.86,-2.75 -3.74,-5.48 -5.67,-8.18 -3.53,1.04 -7.07,2.02 -10.6,3.02 -0.23,3.25 -0.06,6.58 -0.84,9.76 -2.15,1.09 -4.57,1.45 -6.87,2.11 1.03,-12.4 2.07,-24.79 3.19,-37.18 z"
         id="path3065" />
      <path
         style="fill:#0072bc"
         inkscape:connector-curvature="0"
         d="m 263.49,77.68 c 1.36,-2.77 2.7,-5.56 4.04,-8.34 0.74,2.98 1.45,5.97 2.14,8.96 -2.06,-0.2 -4.12,-0.42 -6.18,-0.62 z"
         id="path3067" />
      <path
         style="fill:#ffffff"
         inkscape:connector-curvature="0"
         d="m 319.86,76.15 c 0.93,-2 1.87,-3.99 2.81,-5.99 8.72,4.11 17.45,8.17 26.21,12.19 -0.91,1.98 -1.82,3.97 -2.74,5.94 -3.34,-1.44 -6.65,-2.96 -9.96,-4.49 -3.96,8.56 -7.94,17.1 -11.93,25.65 -2.13,-0.98 -4.29,-1.91 -6.42,-2.88 3.86,-8.65 7.96,-17.19 11.92,-25.79 -3.31,-1.52 -6.6,-3.06 -9.89,-4.63 z"
         id="path3069" />
      <path
         style="fill:#ffffff"
         inkscape:connector-curvature="0"
         d="m 157.42,84.26 c 8.76,-4.08 17.55,-8.09 26.29,-12.22 0.93,2 1.84,4 2.77,6 -3.3,1.55 -6.59,3.13 -9.91,4.63 4.01,8.58 8.06,17.14 11.94,25.78 -2.14,1.01 -4.3,1.95 -6.47,2.9 -3.9,-8.6 -7.93,-17.14 -11.9,-25.71 -3.27,1.56 -6.56,3.07 -9.85,4.57 -0.96,-1.99 -1.91,-3.97 -2.87,-5.95 z"
         id="path3071" />
      <path
         style="fill:#0071bc"
         inkscape:connector-curvature="0"
         d="m 202.3,76.86 c 1.73,2.63 3.52,5.23 5.3,7.84 -1.99,0.5 -3.98,1 -5.96,1.5 0.25,-3.11 0.48,-6.23 0.66,-9.34 z"
         id="path3073" />
      <path
         style="fill:#ffffff"
         inkscape:connector-curvature="0"
         d="m 326.42,109.78 c 10.19,-7.17 20.23,-14.54 30.47,-21.65 1.88,1.26 3.76,2.53 5.65,3.8 -3.03,12.05 -6,24.11 -9.06,36.14 -2.13,-1.45 -4.23,-2.94 -6.34,-4.42 0.88,-3.15 1.76,-6.3 2.57,-9.46 -3.04,-2.04 -6.09,-4.06 -9.1,-6.14 -2.66,1.99 -5.35,3.94 -8.02,5.93 -2.05,-1.41 -4.11,-2.81 -6.17,-4.2 z"
         id="path3075" />
      <path
         style="fill:#ffffff"
         inkscape:connector-curvature="0"
         d="m 143.82,94.54 c 1.92,-1.25 3.86,-2.48 5.81,-3.67 9.78,7.58 19.73,14.95 29.59,22.43 -2.19,1.41 -4.38,2.82 -6.59,4.2 -2.54,-2.06 -5.1,-4.08 -7.65,-6.12 -3.09,1.98 -6.18,3.98 -9.26,5.97 0.77,3.23 1.52,6.47 2.3,9.69 -2.07,1.37 -4.15,2.72 -6.24,4.06 -2.6,-12.2 -5.45,-24.35 -7.96,-36.56 z"
         id="path3077" />
      <path
         style="fill:#0072bc"
         inkscape:connector-curvature="0"
         d="m 346.25,103.87 c 2.49,-1.81 4.96,-3.64 7.49,-5.4 -0.76,2.93 -1.56,5.86 -2.37,8.78 -1.7,-1.14 -3.43,-2.23 -5.12,-3.38 z"
         id="path3079" />
      <path
         style="fill:#0071bb"
         inkscape:connector-curvature="0"
         d="m 152,101.48 c 2.4,1.87 4.81,3.74 7.19,5.65 -1.69,1.16 -3.39,2.3 -5.09,3.45 -0.69,-3.04 -1.39,-6.07 -2.1,-9.1 z"
         id="path3081" />
      <path
         style="fill:#231f20"
         inkscape:connector-curvature="0"
         d="m 351.95,141.62 c 8.8,-10.86 17.66,-21.67 26.57,-32.44 24.12,55.64 31.79,117.48 27.38,177.68 -3.55,44.74 -14.24,89.31 -34.71,129.42 -15.31,29.54 -36.38,57.39 -65.43,74.52 -15.58,9.19 -33.62,14.7 -51.8,14.22 -23.82,0.13 -46.69,-10.03 -65.05,-24.75 -23.93,-19.23 -41.45,-45.32 -54.46,-72.87 10.61,-13.13 21.4,-26.11 32.04,-39.21 24.58,18.98 55.41,29.84 86.5,30.13 27.57,0.57 55.21,-7.12 78.65,-21.62 22.98,-14.15 41.99,-34.71 54.2,-58.79 11.76,-23.04 17.25,-49.26 15.63,-75.08 -2.12,-38.57 -20.49,-75.79 -49.52,-101.21 z"
         id="path3083" />
      <path
         style="fill:#0071bc"
         inkscape:connector-curvature="0"
         d="m 202.03,130.04 c 24.01,-10.69 51.25,-13.65 77.08,-9 21.74,4 42.49,13.51 59.53,27.61 -7.89,9.54 -15.7,19.15 -23.55,28.74 -6.56,-1.48 -13.05,-3.33 -19.22,-6.01 -16.71,-7.74 -34.84,-11.82 -52.92,-14.83 -5.99,-0.75 -12,-2.23 -18.07,-1.64 -11.56,1.44 -22.37,11.04 -22.92,23.1 -0.07,4.26 -4.17,6.44 -6.52,9.46 -5.33,6.39 -10.92,12.79 -14.59,20.32 -1.37,5.01 -1.31,10.89 -5.25,14.83 -7.75,8.24 -15.06,16.91 -23.11,24.86 -1.03,1.45 -0.91,3.48 -0.17,5.03 2.01,2.99 5.42,4.75 7.29,7.85 1.2,3.07 0.56,6.45 0.29,9.63 -1.65,1.5 -2.62,3.49 -2.56,5.75 1.01,0.27 3.03,0.82 4.05,1.1 -1.08,-0.04 -3.22,-0.13 -4.29,-0.17 1.18,7.47 2.12,16.34 -3.18,22.51 -1.88,4.71 2.93,8.41 6.53,10.46 11.79,6.27 25.27,8.26 38.37,9.86 -9.39,11.4 -18.72,22.85 -28.07,34.27 -24.29,-19.96 -41.05,-48.9 -46.19,-79.93 -4.23,-24.92 -1.22,-51.05 8.76,-74.28 13.01,-30.76 38.11,-56.15 68.71,-69.52 z"
         id="path3085" />
      <path
         style="fill:#231f20"
         inkscape:connector-curvature="0"
         d="m 321.7,178.5 c 7.17,-8.67 14.24,-17.42 21.4,-26.1 6.62,6.24 13.12,12.72 18.33,20.22 -11.63,7.71 -26.39,7.72 -39.73,5.88 z"
         id="path3087" />
      <path
         style="fill:#231f20"
         inkscape:connector-curvature="0"
         d="m 233,175.67 c 15.71,-3.7 32.47,-2.78 47.81,2.22 9.43,2.81 18.71,6.22 27.43,10.8 17.61,7.92 37.71,12.61 56.86,8.12 -3.13,7.65 -11.74,10.61 -19.31,11.52 -17.92,1.83 -35.91,-3.21 -51.8,-11.25 -9.7,-5.59 -20.1,-9.84 -30.73,-13.3 -15.65,-4.82 -33.31,-4.4 -48.17,2.83 3.53,-6.52 11.21,-9.04 17.91,-10.94 z"
         id="path3089" />
      <path
         style="fill:#231f20"
         inkscape:connector-curvature="0"
         d="m 223.3,210.6 c 2.3,-8.08 11.05,-11.36 18.58,-12.48 17.9,-2.44 36.1,1.74 52.61,8.58 11.8,5.63 24.31,9.74 37.06,12.6 14.67,2.65 30.61,1.36 43.76,-6.08 -2.94,7.23 -11.18,10.07 -18.06,12.19 -12.84,3.4 -26.43,3.66 -39.46,1.25 -12.5,-2.63 -24.91,-5.94 -36.64,-11.04 -18.3,-6.68 -38.74,-10.43 -57.85,-5.02 z"
         id="path3091" />
      <path
         style="fill:#231f20"
         inkscape:connector-curvature="0"
         d="m 378.4,228.43 c 1.59,-1.78 2.15,-4.13 2.57,-6.41 l 0.81,-0.01 c 0.58,8.65 -5.25,16.11 -12.07,20.73 -12.5,8.43 -27.86,11.44 -42.73,11.74 -13.84,-0.05 -28,-2.51 -40.24,-9.21 -5.12,-2.68 -8.99,-7.33 -14.48,-9.35 -14.24,-5.76 -29.96,-6.43 -45.11,-5.49 1.35,-1.75 2.87,-3.48 4.98,-4.34 5.91,-2.65 12.54,-3.02 18.93,-3.09 15.67,0.57 31.54,3.9 45.34,11.54 4.69,3.26 10.29,4.7 15.79,5.91 15.53,3.14 31.83,2.85 47.13,-1.33 7,-2.08 14.28,-4.93 19.08,-10.69 z"
         id="path3093" />
      <path
         style="fill:#231f20"
         inkscape:connector-curvature="0"
         d="m 380.06,249.78 c 0.6,-1.81 1.67,-3.39 2.8,-4.91 1.95,8.4 -4.01,15.99 -10.66,20.3 -13.92,9.13 -31.03,11.79 -47.39,11.8 -16.14,-0.59 -33.49,-3.7 -45.81,-14.95 -9.49,-6.67 -21.55,-8.36 -32.9,-7.74 9.33,-5.76 21.25,-6.32 31.55,-3.07 4.79,1.37 8.18,5.3 12.69,7.24 6.82,3.17 14.21,4.9 21.62,6.02 12.86,1.86 26.03,1.81 38.88,-0.12 7.74,-1.28 15.53,-3.22 22.4,-7.13 2.9,-1.75 5.82,-4.06 6.82,-7.44 z"
         id="path3095" />
      <path
         style="fill:#231f20"
         inkscape:connector-curvature="0"
         d="m 342.13,287.79 c 15.17,-1.2 28.93,-8.28 42.18,-15.21 -6.71,11.09 -18.99,17.3 -31.05,20.86 -18.8,5.21 -39.32,4.92 -57.71,-1.79 -6.42,-2.24 -11.94,-6.38 -18.31,-8.72 -7.18,-2.77 -14.79,-4.26 -22.44,-4.89 11.75,-3.31 24.8,-3.63 36.29,0.82 15.16,9.21 33.75,10.58 51.04,8.93 z"
         id="path3097" />
      <path
         style="fill:#231f20"
         inkscape:connector-curvature="0"
         d="m 281.13,295.58 c 30.23,15.58 67.74,18.09 98.97,3.93 -11.54,13.65 -29.01,22.29 -46.96,22.31 -20.29,0.56 -40.2,-9.85 -52.01,-26.24 z"
         id="path3099" />
      <path
         style="fill:#231f20"
         inkscape:connector-curvature="0"
         d="m 364.11,319.52 c 1.63,0 3.25,-0.01 4.89,-0.01 -13.9,23.15 -34.87,42.04 -59.52,53.12 -25.3,11.5 -54.3,14.6 -81.48,8.83 -19.04,-3.99 -37.15,-12.29 -52.62,-24.06 9.72,-12.02 19.57,-23.93 29.33,-35.92 3.1,1.71 6.13,3.66 8.35,6.48 14.18,16.65 26.95,34.45 39.17,52.57 26.01,0.38 52.18,-6.98 73.74,-21.63 15.38,-10.16 28.33,-23.81 38.14,-39.38 z"
         id="path3101" />
      <path
         style="fill:#ffffff"
         inkscape:connector-curvature="0"
         d="m 286.91,406.95 c 9.66,-2.75 19.33,-5.48 28.97,-8.3 0.56,2.06 1.13,4.11 1.71,6.17 -5.84,11.74 -7.9,25.31 -6.17,38.29 -2.65,0.72 -5.3,1.48 -7.93,2.26 -1.99,-12.31 0.54,-24.93 4.81,-36.49 -6.43,1.81 -12.86,3.66 -19.29,5.47 -0.72,-2.46 -1.42,-4.93 -2.1,-7.4 z"
         id="path3103" />
      <path
         style="fill:#ffffff"
         inkscape:connector-curvature="0"
         d="m 203.19,399.9 c 2.02,0.63 4.04,1.24 6.05,1.9 -4.3,13.44 -8.53,26.9 -12.87,40.33 -2.58,-0.81 -5.16,-1.63 -7.74,-2.43 2.81,-8.92 5.71,-17.81 8.47,-26.74 -2.93,-0.92 -5.84,-1.87 -8.76,-2.76 0.67,-2.1 1.32,-4.2 2.01,-6.28 2.49,0.43 4.97,1.24 7.53,1.04 2.6,-0.53 3.82,-3.16 5.31,-5.06 z"
         id="path3105" />
      <path
         style="fill:#ffffff"
         inkscape:connector-curvature="0"
         d="m 218.48,412.47 c 6.07,-7.98 20.79,-5.86 24.17,3.66 2.22,6.25 1.38,13.13 -0.21,19.43 -1.71,5.96 -4.87,12.51 -11.19,14.61 -5.67,1.65 -12.87,-0.03 -16.06,-5.33 -1.7,-2.71 -1.79,-5.97 -1.58,-9.05 2.51,0.3 5.02,0.62 7.53,0.92 -0.15,3.12 1.12,7.16 4.94,7.02 4.79,0.7 6.85,-4.53 8.42,-8.06 -5.14,1.62 -11.32,1.2 -15.41,-2.61 -5.59,-5.27 -5.11,-14.8 -0.61,-20.59 z"
         id="path3107" />
      <path
         style="fill:#ffffff"
         inkscape:connector-curvature="0"
         d="m 263.5,409.7 c 4.72,-1.47 10.42,-0.82 14,2.83 4.28,4.27 5.55,10.54 6.1,16.34 0.41,6.16 0.1,12.93 -3.58,18.16 -4.74,6.91 -16.36,7.1 -21.29,0.3 -4.45,-6.08 -5.24,-14.04 -4.93,-21.36 0.36,-6.46 2.9,-14.1 9.7,-16.27 z"
         id="path3109" />
      <path
         style="fill:#231f20"
         inkscape:connector-curvature="0"
         d="m 227.21,415.27 c 3.5,-1.48 8.42,0.98 8.57,5.01 0.34,3.51 -0.88,8.34 -4.9,9.13 -2.9,0.47 -6.48,-0.61 -7.57,-3.6 -1.01,-3.76 0.01,-8.82 3.9,-10.54 z"
         id="path3111" />
      <path
         style="fill:#231f20"
         inkscape:connector-curvature="0"
         d="m 266.48,416.5 c 4.19,-1.48 7.2,2.7 7.94,6.3 1.37,5.98 2.09,12.56 -0.05,18.45 -1.11,3.57 -6.13,5.14 -8.75,2.26 -3.59,-4.61 -3.73,-10.88 -3.86,-16.47 0.3,-3.76 0.69,-8.88 4.72,-10.54 z"
         id="path3113" />
    </g>
  </g>
</svg>
