<svg xmlns="http://www.w3.org/2000/svg" xmlns:xlink="http://www.w3.org/1999/xlink" viewBox="0 0 262.65 300"><defs><style>.cls-1{fill:#fff;}.cls-2{fill:#e2001a;}.cls-3{fill:url(#Безымянный_градиент_2);}.cls-4{fill:#5b9b5a;}.cls-5{fill:#f4a570;}.cls-6{fill:#6f4e4b;}.cls-7{fill:url(#Безымянный_градиент_7);}.cls-8{fill:url(#Безымянный_градиент_7-2);}.cls-9{fill:url(#Безымянный_градиент_10);}.cls-10{fill:url(#Безымянный_градиент_7-3);}.cls-11{fill:url(#Безымянный_градиент_7-4);}.cls-12{fill:url(#Безымянный_градиент_7-5);}.cls-13{fill:#475462;}.cls-14{fill:url(#Безымянный_градиент_11);}.cls-15{fill:url(#Безымянный_градиент_11-2);}.cls-16{fill:url(#Безымянный_градиент_10-2);}.cls-17{fill:#3e514c;}.cls-18{fill:#de7a6f;}.cls-19{fill:url(#Безымянный_градиент_11-3);}.cls-20{fill:#313134;}.cls-21{fill:#fefce9;}.cls-22{fill:#eb7714;}.cls-23{fill:#e32e20;}.cls-24{fill:url(#Безымянный_градиент_14);}.cls-25{fill:#403d3e;}.cls-26{fill:url(#Безымянный_градиент_13);}.cls-27{fill:url(#Безымянный_градиент_14-2);}.cls-28{fill:#756862;}.cls-29{fill:#c6ab9c;}.cls-30{fill:url(#Безымянный_градиент_16);}.cls-31{fill:url(#Безымянный_градиент_16-2);}.cls-32{fill:url(#Безымянный_градиент_17);}.cls-33{fill:url(#Безымянный_градиент_66);}.cls-34{fill:#ac5a56;}.cls-35{fill:url(#Безымянный_градиент_19);}.cls-36{fill:url(#Безымянный_градиент_82);}.cls-37{fill:url(#Безымянный_градиент_82-2);}.cls-38{fill:url(#Безымянный_градиент_82-3);}.cls-39{fill:url(#Безымянный_градиент_77);}.cls-40{fill:url(#Безымянный_градиент_82-4);}.cls-41{fill:url(#Безымянный_градиент_27);}.cls-42{fill:url(#Безымянный_градиент_27-2);}.cls-43{fill:url(#Безымянный_градиент_27-3);}.cls-44{fill:url(#Безымянный_градиент_82-5);}.cls-45{fill:#e48c68;}.cls-46{fill:url(#Безымянный_градиент_31);}.cls-47{fill:url(#Безымянный_градиент_31-2);}.cls-48{fill:url(#Безымянный_градиент_31-3);}.cls-49{fill:url(#Безымянный_градиент_82-6);}.cls-50{fill:url(#Безымянный_градиент_77-2);}.cls-51{fill:url(#Безымянный_градиент_82-7);}.cls-52{fill:url(#Безымянный_градиент_66-2);}.cls-53{fill:url(#Безымянный_градиент_82-8);}.cls-54{fill:url(#Безымянный_градиент_66-3);}.cls-55{fill:url(#Безымянный_градиент_82-9);}.cls-56{fill:url(#Безымянный_градиент_66-4);}.cls-57{fill:url(#Безымянный_градиент_82-10);}.cls-58{fill:url(#Безымянный_градиент_77-3);}.cls-59{fill:url(#Безымянный_градиент_42);}.cls-60{fill:url(#Безымянный_градиент_57);}.cls-61{fill:url(#Безымянный_градиент_57-2);}.cls-62{fill:url(#Безымянный_градиент_82-11);}.cls-63{fill:url(#Безымянный_градиент_57-3);}.cls-64{fill:url(#Безымянный_градиент_47);}.cls-65{fill:url(#Безымянный_градиент_82-12);}.cls-66{fill:url(#Безымянный_градиент_57-4);}.cls-67{fill:url(#Безымянный_градиент_79);}.cls-68{fill:url(#Безымянный_градиент_51);}.cls-69{fill:url(#Безымянный_градиент_57-5);}.cls-70{fill:url(#Безымянный_градиент_66-5);}.cls-71{fill:url(#Безымянный_градиент_57-6);}.cls-72{fill:url(#Безымянный_градиент_57-7);}.cls-73{fill:url(#Безымянный_градиент_82-13);}.cls-74{fill:url(#Безымянный_градиент_57-8);}.cls-75{fill:url(#Безымянный_градиент_82-14);}.cls-76{fill:url(#Безымянный_градиент_82-15);}.cls-77{fill:#d0815b;}.cls-78{fill:url(#Безымянный_градиент_82-16);}.cls-79{fill:url(#Безымянный_градиент_82-17);}.cls-80{fill:url(#Безымянный_градиент_65);}.cls-81{fill:url(#Безымянный_градиент_82-18);}.cls-82{fill:url(#Безымянный_градиент_82-19);}.cls-83{fill:url(#Безымянный_градиент_65-2);}.cls-84{fill:url(#Безымянный_градиент_66-6);}.cls-85{fill:url(#Безымянный_градиент_82-20);}.cls-86{fill:url(#Безымянный_градиент_77-4);}.cls-87{fill:url(#Безымянный_градиент_82-21);}.cls-88{fill:url(#Безымянный_градиент_77-5);}.cls-89{fill:url(#Безымянный_градиент_79-2);}.cls-90{fill:url(#Безымянный_градиент_82-22);}.cls-91{fill:url(#Безымянный_градиент_79-3);}.cls-92{fill:url(#Безымянный_градиент_77-6);}.cls-93{fill:url(#Безымянный_градиент_82-23);}.cls-94{fill:url(#Безымянный_градиент_79-4);}.cls-95{fill:url(#Безымянный_градиент_77-7);}.cls-96{fill:url(#Безымянный_градиент_82-24);}.cls-97{fill:url(#Безымянный_градиент_79-5);}.cls-98{fill:url(#Безымянный_градиент_82-25);}.cls-99{fill:url(#Безымянный_градиент_81);}.cls-100{fill:url(#Безымянный_градиент_82-26);}.cls-101{fill:#ec7269;}.cls-102{fill:#443336;}.cls-103{fill:url(#Безымянный_градиент_85);}.cls-104{fill:url(#Безымянный_градиент_84);}.cls-105{fill:url(#Безымянный_градиент_85-2);}.cls-106{fill:url(#Безымянный_градиент_86);}.cls-107{fill:url(#Безымянный_градиент_87);}.cls-108{fill:url(#Безымянный_градиент_92);}.cls-109{fill:url(#Безымянный_градиент_92-2);}.cls-110{fill:url(#Безымянный_градиент_91);}.cls-111{fill:url(#Безымянный_градиент_91-2);}.cls-112{fill:#906572;}.cls-113{fill:url(#Безымянный_градиент_92-3);}.cls-114{fill:url(#Безымянный_градиент_94);}.cls-115{fill:url(#Безымянный_градиент_94-2);}</style><linearGradient id="Безымянный_градиент_2" x1="114.06" y1="224.37" x2="73.85" y2="134.06" gradientTransform="matrix(1, 0, 0, -1, 0, 302)" gradientUnits="userSpaceOnUse"><stop offset="0" stop-color="#efebd7"/><stop offset="1" stop-color="#ddd8c7"/></linearGradient><linearGradient id="Безымянный_градиент_7" x1="128.15" y1="224.78" x2="127.85" y2="242.18" gradientTransform="matrix(1, 0, 0, -1, 0, 302)" gradientUnits="userSpaceOnUse"><stop offset="0" stop-color="#3e514c"/><stop offset="1" stop-color="#5b9b5a"/></linearGradient><linearGradient id="Безымянный_градиент_7-2" x1="132.38" y1="227.68" x2="129.59" y2="240.79" xlink:href="#Безымянный_градиент_7"/><linearGradient id="Безымянный_градиент_10" x1="137.31" y1="238.42" x2="145.61" y2="238.42" gradientTransform="matrix(1, 0, 0, -1, 0, 302)" gradientUnits="userSpaceOnUse"><stop offset="0" stop-color="#a6ca6a"/><stop offset="1" stop-color="#799e5d"/></linearGradient><linearGradient id="Безымянный_градиент_7-3" x1="130.95" y1="236.56" x2="127.89" y2="248" xlink:href="#Безымянный_градиент_7"/><linearGradient id="Безымянный_градиент_7-4" x1="127" y1="241.27" x2="123.82" y2="256.22" xlink:href="#Безымянный_градиент_7"/><linearGradient id="Безымянный_градиент_7-5" x1="134.43" y1="245.76" x2="131.87" y2="257.8" xlink:href="#Безымянный_градиент_7"/><linearGradient id="Безымянный_градиент_11" x1="118.13" y1="248.94" x2="114.88" y2="260.29" gradientTransform="matrix(1, 0, 0, -1, 0, 302)" gradientUnits="userSpaceOnUse"><stop offset="0" stop-color="#a6ca6a"/><stop offset="1" stop-color="#5b9b5a"/></linearGradient><linearGradient id="Безымянный_градиент_11-2" x1="134.43" y1="252.66" x2="133.04" y2="257.5" xlink:href="#Безымянный_градиент_11"/><linearGradient id="Безымянный_градиент_10-2" x1="138.24" y1="247.26" x2="146.13" y2="247.26" xlink:href="#Безымянный_градиент_10"/><linearGradient id="Безымянный_градиент_11-3" x1="126.05" y1="253.35" x2="125.34" y2="255.82" xlink:href="#Безымянный_градиент_11"/><linearGradient id="Безымянный_градиент_14" x1="123.43" y1="218.44" x2="136.15" y2="212.77" gradientTransform="matrix(1, 0, 0, -1, 0, 302)" gradientUnits="userSpaceOnUse"><stop offset="0" stop-color="#313134"/><stop offset="0.5" stop-color="#c6ab9c"/><stop offset="1" stop-color="#313134"/></linearGradient><linearGradient id="Безымянный_градиент_13" x1="126.66" y1="220.81" x2="134.79" y2="213.49" gradientTransform="matrix(1, 0, 0, -1, 0, 302)" gradientUnits="userSpaceOnUse"><stop offset="0" stop-color="#443336"/><stop offset="1" stop-color="#313134"/></linearGradient><linearGradient id="Безымянный_градиент_14-2" x1="123.43" y1="207.72" x2="136.16" y2="202.05" xlink:href="#Безымянный_градиент_14"/><linearGradient id="Безымянный_градиент_16" x1="107.91" y1="140.59" x2="107.91" y2="180.79" gradientTransform="matrix(1, 0, 0, -1, 0, 302)" gradientUnits="userSpaceOnUse"><stop offset="0" stop-color="#667a8e"/><stop offset="0.47" stop-color="#abcbe7"/><stop offset="1" stop-color="#fff"/></linearGradient><linearGradient id="Безымянный_градиент_16-2" x1="91.14" y1="140.59" x2="91.14" y2="180.79" xlink:href="#Безымянный_градиент_16"/><linearGradient id="Безымянный_градиент_17" x1="72.98" y1="168.34" x2="63.45" y2="132.75" gradientTransform="matrix(1, 0, 0, -1, 0, 302)" gradientUnits="userSpaceOnUse"><stop offset="0" stop-color="#475462"/><stop offset="0.25" stop-color="#667a8e"/><stop offset="0.77" stop-color="#abcbe7"/><stop offset="1" stop-color="#fff"/></linearGradient><linearGradient id="Безымянный_градиент_66" x1="51.99" y1="222.41" x2="51.81" y2="211.67" gradientTransform="matrix(1, 0, 0, -1, 0, 302)" gradientUnits="userSpaceOnUse"><stop offset="0" stop-color="#313134"/><stop offset="1" stop-color="#e48c68"/></linearGradient><linearGradient id="Безымянный_градиент_19" x1="52.52" y1="206.96" x2="52.73" y2="194.92" gradientTransform="matrix(1, 0, 0, -1, 0, 302)" gradientUnits="userSpaceOnUse"><stop offset="0" stop-color="#f4a570"/><stop offset="1" stop-color="#de7a6f"/></linearGradient><linearGradient id="Безымянный_градиент_82" x1="59.37" y1="215.39" x2="83.76" y2="215.39" gradientTransform="matrix(1, 0, 0, -1, 0, 302)" gradientUnits="userSpaceOnUse"><stop offset="0" stop-color="#e48c68"/><stop offset="1" stop-color="#f4a570"/></linearGradient><linearGradient id="Безымянный_градиент_82-2" x1="63.64" y1="215.35" x2="67.37" y2="215.35" xlink:href="#Безымянный_градиент_82"/><linearGradient id="Безымянный_градиент_82-3" x1="61.86" y1="214.77" x2="64.78" y2="214.77" xlink:href="#Безымянный_градиент_82"/><linearGradient id="Безымянный_градиент_77" x1="63.25" y1="219.83" x2="63.41" y2="210.73" gradientTransform="matrix(1, 0, 0, -1, 0, 302)" gradientUnits="userSpaceOnUse"><stop offset="0" stop-color="#f9c9a9"/><stop offset="1" stop-color="#f4a570"/></linearGradient><linearGradient id="Безымянный_градиент_82-4" x1="54.08" y1="194.96" x2="83.96" y2="194.96" xlink:href="#Безымянный_градиент_82"/><linearGradient id="Безымянный_градиент_27" x1="52.92" y1="178.33" x2="66.94" y2="224.2" gradientTransform="matrix(1, 0, 0, -1, 0, 302)" gradientUnits="userSpaceOnUse"><stop offset="0" stop-color="#906572"/><stop offset="0.51" stop-color="#e48c68"/><stop offset="1" stop-color="#f4a570"/></linearGradient><linearGradient id="Безымянный_градиент_27-2" x1="58.24" y1="184.57" x2="74.65" y2="211.88" xlink:href="#Безымянный_градиент_27"/><linearGradient id="Безымянный_градиент_27-3" x1="64.53" y1="180.38" x2="80.94" y2="207.7" xlink:href="#Безымянный_градиент_27"/><linearGradient id="Безымянный_градиент_82-5" x1="52.13" y1="207.5" x2="84.49" y2="207.5" xlink:href="#Безымянный_градиент_82"/><linearGradient id="Безымянный_градиент_31" x1="63.65" y1="206.75" x2="71.47" y2="206.75" gradientTransform="matrix(1, 0, 0, -1, 0, 302)" gradientUnits="userSpaceOnUse"><stop offset="0" stop-color="#de7a6f"/><stop offset="0.51" stop-color="#ac5a56"/><stop offset="1" stop-color="#de7a6f"/></linearGradient><linearGradient id="Безымянный_градиент_31-2" x1="56.55" y1="206.75" x2="60.28" y2="206.75" xlink:href="#Безымянный_градиент_31"/><linearGradient id="Безымянный_градиент_31-3" x1="75.01" y1="206.74" x2="78.74" y2="206.74" xlink:href="#Безымянный_градиент_31"/><linearGradient id="Безымянный_градиент_82-6" x1="53.01" y1="215" x2="55.64" y2="215" xlink:href="#Безымянный_градиент_82"/><linearGradient id="Безымянный_градиент_77-2" x1="54.57" y1="221.64" x2="54.73" y2="212.53" xlink:href="#Безымянный_градиент_77"/><linearGradient id="Безымянный_градиент_82-7" x1="54.51" y1="217.42" x2="57.06" y2="217.42" xlink:href="#Безымянный_градиент_82"/><linearGradient id="Безымянный_градиент_66-2" x1="56.09" y1="220.88" x2="56.94" y2="212.88" xlink:href="#Безымянный_градиент_66"/><linearGradient id="Безымянный_градиент_82-8" x1="55.89" y1="217.45" x2="58.43" y2="217.45" xlink:href="#Безымянный_градиент_82"/><linearGradient id="Безымянный_градиент_66-3" x1="57.22" y1="221.36" x2="58.11" y2="212.88" xlink:href="#Безымянный_градиент_66"/><linearGradient id="Безымянный_градиент_82-9" x1="57.23" y1="217.41" x2="59.54" y2="217.41" xlink:href="#Безымянный_градиент_82"/><linearGradient id="Безымянный_градиент_66-4" x1="58.55" y1="219.95" x2="59.28" y2="213.05" xlink:href="#Безымянный_градиент_66"/><linearGradient id="Безымянный_градиент_82-10" x1="73.93" y1="239.49" x2="83.27" y2="239.49" xlink:href="#Безымянный_градиент_82"/><linearGradient id="Безымянный_градиент_77-3" x1="83.67" y1="240.91" x2="77.96" y2="238.48" xlink:href="#Безымянный_градиент_77"/><linearGradient id="Безымянный_градиент_42" x1="76.86" y1="239.32" x2="81.11" y2="239.32" gradientTransform="matrix(1, 0, 0, -1, 0, 302)" gradientUnits="userSpaceOnUse"><stop offset="0" stop-color="#ec7269"/><stop offset="1" stop-color="#f4a570"/></linearGradient><linearGradient id="Безымянный_градиент_57" x1="76.11" y1="238.8" x2="77.95" y2="238.8" gradientTransform="matrix(1, 0, 0, -1, 0, 302)" gradientUnits="userSpaceOnUse"><stop offset="0" stop-color="#313134"/><stop offset="1" stop-color="#f4a570"/></linearGradient><linearGradient id="Безымянный_градиент_57-2" x1="82.19" y1="240.77" x2="85.08" y2="240.77" xlink:href="#Безымянный_градиент_57"/><linearGradient id="Безымянный_градиент_82-11" x1="76.44" y1="242.85" x2="80.48" y2="242.85" xlink:href="#Безымянный_градиент_82"/><linearGradient id="Безымянный_градиент_57-3" x1="79.58" y1="242.62" x2="73.38" y2="242.51" xlink:href="#Безымянный_градиент_57"/><linearGradient id="Безымянный_градиент_47" x1="87.84" y1="229.8" x2="75.21" y2="225.45" gradientTransform="matrix(1, 0, 0, -1, 0, 302)" gradientUnits="userSpaceOnUse"><stop offset="0" stop-color="#f9c9a9"/><stop offset="1" stop-color="#ec7269"/></linearGradient><linearGradient id="Безымянный_градиент_82-12" x1="72.11" y1="226.5" x2="84.68" y2="226.5" xlink:href="#Безымянный_градиент_82"/><linearGradient id="Безымянный_градиент_57-4" x1="75.88" y1="226.19" x2="78.83" y2="226.19" xlink:href="#Безымянный_градиент_57"/><linearGradient id="Безымянный_градиент_79" x1="84.08" y1="226.65" x2="89.77" y2="226.65" gradientTransform="matrix(1, 0, 0, -1, 0, 302)" gradientUnits="userSpaceOnUse"><stop offset="0" stop-color="#ac5a56"/><stop offset="0.09" stop-color="#e48c68"/><stop offset="1" stop-color="#f4a570"/></linearGradient><linearGradient id="Безымянный_градиент_51" x1="72.54" y1="230.53" x2="84.63" y2="230.53" gradientTransform="matrix(1, 0, 0, -1, 0, 302)" gradientUnits="userSpaceOnUse"><stop offset="0" stop-color="#d59b6c"/><stop offset="1" stop-color="#f4a570"/></linearGradient><linearGradient id="Безымянный_градиент_57-5" x1="76.01" y1="228" x2="78.9" y2="228" xlink:href="#Безымянный_градиент_57"/><linearGradient id="Безымянный_градиент_66-5" x1="73.91" y1="231.77" x2="82.35" y2="231.77" xlink:href="#Безымянный_градиент_66"/><linearGradient id="Безымянный_градиент_57-6" x1="81.62" y1="239.08" x2="91.06" y2="239.08" xlink:href="#Безымянный_градиент_57"/><linearGradient id="Безымянный_градиент_57-7" x1="73.59" y1="239.11" x2="76.41" y2="239.11" xlink:href="#Безымянный_градиент_57"/><linearGradient id="Безымянный_градиент_82-13" x1="77.18" y1="244.79" x2="79.69" y2="244.79" xlink:href="#Безымянный_градиент_82"/><linearGradient id="Безымянный_градиент_57-8" x1="77.53" y1="247.52" x2="82.08" y2="247.52" xlink:href="#Безымянный_градиент_57"/><linearGradient id="Безымянный_градиент_82-14" x1="74.19" y1="236.96" x2="76.52" y2="236.96" xlink:href="#Безымянный_градиент_82"/><linearGradient id="Безымянный_градиент_82-15" x1="77.93" y1="236.62" x2="79.62" y2="236.62" xlink:href="#Безымянный_градиент_82"/><linearGradient id="Безымянный_градиент_82-16" x1="72.32" y1="235.47" x2="84.54" y2="235.47" xlink:href="#Безымянный_градиент_82"/><linearGradient id="Безымянный_градиент_82-17" x1="77.45" y1="229.92" x2="80.06" y2="229.92" xlink:href="#Безымянный_градиент_82"/><linearGradient id="Безымянный_градиент_65" x1="77.92" y1="230.83" x2="82.93" y2="230.83" gradientTransform="matrix(1, 0, 0, -1, 0, 302)" gradientUnits="userSpaceOnUse"><stop offset="0" stop-color="#6f4e4b"/><stop offset="1" stop-color="#f4a570"/></linearGradient><linearGradient id="Безымянный_градиент_82-18" x1="76.55" y1="230.69" x2="77.31" y2="230.69" xlink:href="#Безымянный_градиент_82"/><linearGradient id="Безымянный_градиент_82-19" x1="80.14" y1="230.82" x2="80.65" y2="230.82" xlink:href="#Безымянный_градиент_82"/><linearGradient id="Безымянный_градиент_65-2" x1="80.18" y1="230.83" x2="85.19" y2="230.83" xlink:href="#Безымянный_градиент_65"/><linearGradient id="Безымянный_градиент_66-6" x1="56.99" y1="216.91" x2="56.9" y2="211.67" xlink:href="#Безымянный_градиент_66"/><linearGradient id="Безымянный_градиент_82-20" x1="72.16" y1="215.19" x2="75.69" y2="215.19" xlink:href="#Безымянный_градиент_82"/><linearGradient id="Безымянный_градиент_77-4" x1="73.63" y1="220.48" x2="73.8" y2="210.6" xlink:href="#Безымянный_градиент_77"/><linearGradient id="Безымянный_градиент_82-21" x1="81.9" y1="215.24" x2="85.02" y2="215.24" xlink:href="#Безымянный_градиент_82"/><linearGradient id="Безымянный_градиент_77-5" x1="83.56" y1="220.54" x2="83.79" y2="207.09" xlink:href="#Безымянный_градиент_77"/><linearGradient id="Безымянный_градиент_79-2" x1="82.87" y1="202.48" x2="86.15" y2="202.48" xlink:href="#Безымянный_градиент_79"/><linearGradient id="Безымянный_градиент_82-22" x1="81.35" y1="207.11" x2="84.76" y2="207.11" xlink:href="#Безымянный_градиент_82"/><linearGradient id="Безымянный_градиент_79-3" x1="73.29" y1="199.7" x2="76.57" y2="199.7" xlink:href="#Безымянный_градиент_79"/><linearGradient id="Безымянный_градиент_77-6" x1="73.87" y1="206.79" x2="74.03" y2="202.45" xlink:href="#Безымянный_градиент_77"/><linearGradient id="Безымянный_градиент_82-23" x1="71.77" y1="207.11" x2="75.18" y2="207.11" xlink:href="#Безымянный_градиент_82"/><linearGradient id="Безымянный_градиент_79-4" x1="62.86" y1="196.64" x2="66.14" y2="196.64" xlink:href="#Безымянный_градиент_79"/><linearGradient id="Безымянный_градиент_77-7" x1="63.36" y1="206.83" x2="63.53" y2="202.03" xlink:href="#Безымянный_градиент_77"/><linearGradient id="Безымянный_градиент_82-24" x1="61.34" y1="207.35" x2="65.02" y2="207.35" xlink:href="#Безымянный_градиент_82"/><linearGradient id="Безымянный_градиент_79-5" x1="54.29" y1="195.86" x2="57.57" y2="195.86" xlink:href="#Безымянный_градиент_79"/><linearGradient id="Безымянный_градиент_82-25" x1="52.77" y1="207.37" x2="56.64" y2="207.37" xlink:href="#Безымянный_градиент_82"/><linearGradient id="Безымянный_градиент_81" x1="67.96" y1="215.8" x2="67.3" y2="215.37" gradientTransform="matrix(1, 0, 0, -1, 0, 302)" gradientUnits="userSpaceOnUse"><stop offset="0" stop-color="#313134"/><stop offset="1" stop-color="#ac5a56"/></linearGradient><linearGradient id="Безымянный_градиент_82-26" x1="74.38" y1="232.23" x2="76.13" y2="232.23" xlink:href="#Безымянный_градиент_82"/><linearGradient id="Безымянный_градиент_85" x1="77.49" y1="197.94" x2="79.41" y2="170.5" gradientTransform="matrix(1, 0, 0, -1, 0, 302)" gradientUnits="userSpaceOnUse"><stop offset="0" stop-color="#ef986b"/><stop offset="0.78" stop-color="#fffffd"/><stop offset="1" stop-color="#ef986b"/></linearGradient><linearGradient id="Безымянный_градиент_84" x1="56.93" y1="186.68" x2="44.34" y2="202.22" gradientTransform="matrix(1, 0, 0, -1, 0, 302)" gradientUnits="userSpaceOnUse"><stop offset="0" stop-color="#b27670"/><stop offset="1" stop-color="#fffffd"/></linearGradient><linearGradient id="Безымянный_градиент_85-2" x1="68.14" y1="193.97" x2="70.31" y2="162.99" xlink:href="#Безымянный_градиент_85"/><linearGradient id="Безымянный_градиент_86" x1="48.05" y1="185.57" x2="141.38" y2="185.57" gradientTransform="matrix(1, 0, 0, -1, 0, 302)" gradientUnits="userSpaceOnUse"><stop offset="0" stop-color="#de7a6f"/><stop offset="1" stop-color="#f4a570"/></linearGradient><linearGradient id="Безымянный_градиент_87" x1="92.55" y1="195.79" x2="106.84" y2="195.79" gradientTransform="matrix(1, 0, 0, -1, 0, 302)" gradientUnits="userSpaceOnUse"><stop offset="0" stop-color="#f4a570"/><stop offset="1" stop-color="#ef956f"/></linearGradient><linearGradient id="Безымянный_градиент_92" x1="54.47" y1="183.94" x2="71.14" y2="183.94" gradientTransform="matrix(1, 0, 0, -1, 0, 302)" gradientUnits="userSpaceOnUse"><stop offset="0" stop-color="#906572"/><stop offset="1" stop-color="#de7a6f"/></linearGradient><linearGradient id="Безымянный_градиент_92-2" x1="61.67" y1="186.82" x2="78.33" y2="186.82" xlink:href="#Безымянный_градиент_92"/><linearGradient id="Безымянный_градиент_91" x1="93.59" y1="193.77" x2="127.57" y2="193.77" gradientTransform="matrix(1, 0, 0, -1, 0, 302)" gradientUnits="userSpaceOnUse"><stop offset="0" stop-color="#de7a6f"/><stop offset="1" stop-color="#ac5a56"/></linearGradient><linearGradient id="Безымянный_градиент_91-2" x1="75.09" y1="197.64" x2="109.06" y2="197.64" xlink:href="#Безымянный_градиент_91"/><linearGradient id="Безымянный_градиент_92-3" x1="47.33" y1="173.92" x2="64" y2="173.92" xlink:href="#Безымянный_градиент_92"/><linearGradient id="Безымянный_градиент_94" x1="90.58" y1="205.65" x2="93.42" y2="205.65" gradientTransform="matrix(1, 0, 0, -1, 0, 302)" gradientUnits="userSpaceOnUse"><stop offset="0" stop-color="#ac5a56"/><stop offset="1" stop-color="#f4a570"/></linearGradient><linearGradient id="Безымянный_градиент_94-2" x1="104.4" y1="206.79" x2="107.24" y2="206.79" xlink:href="#Безымянный_градиент_94"/></defs><title>Ath_Bilbao</title><g id="Слой_2" data-name="Слой 2"><g id="Слой_1-2" data-name="Слой 1"><path d="M129.88,298.87l-.4-.31s-25.31-20.29-44.92-40.95h0c-35.6-37.51-61.69-78.32-74.28-136h0A460.66,460.66,0,0,1,1.24,55h0C0,36.7.13,23.86.07,22.36h0C0,20.15,0,7.68,0,2.35H0V0H262.65V2.35c0,5.33,0,17.8-.08,20h0c-.05,1.5.05,14.34-1.16,32.64h0a460.66,460.66,0,0,1-9,66.66h0c-12.59,57.63-38.68,98.44-74.28,136h0c-19.61,20.66-44.88,40.92-45,41h0L131.32,300l-1.44-1.13Z"/><path class="cls-1" d="M4.78,22.19c.06,1.81,0,14.27,1.16,32.51h0a454.83,454.83,0,0,0,8.94,66h0C27.31,177.39,52.76,217.23,88,254.37h0c14.46,15.25,32.26,30.45,40.23,37.06h0c1.34,1.12,2.4,2,3.12,2.57h0l3.11-2.57h0c2.66-2.2,6.4-5.36,10.76-9.16h0c8.7-7.59,19.83-17.73,29.47-27.9h0c35.22-37.14,60.67-77,73.1-133.72h0a456.22,456.22,0,0,0,8.94-65.95h0c1.2-18.24,1.1-30.7,1.16-32.51h0c.06-1.69.07-11.5.07-17.48H4.71c0,6,0,15.79.07,17.48Z"/><path d="M92,231.32c.71.23,2.1.67,2.1-3.27a20.51,20.51,0,0,0-5.28-13l-8.33-9.34v27.46l7.26,8.14c3.51,3.94,4.44,4,5.42,3.6s1.48-1.83,1.48-4A18.72,18.72,0,0,0,92,231.32Zm-8.07-17L88,219a8.65,8.65,0,0,1,2.62,5.89c0,2.18-1.12,1.8-2.53.22l-4.2-4.71v-6Zm4.39,22.9-4.39-4.93V225l4.56,5.11a10,10,0,0,1,2.58,6.23C91.06,239.11,90.05,239.21,88.31,237.25Z"/><polygon points="103.36 231.67 103.36 259.11 99.78 255.09 99.78 227.65 103.36 231.67"/><polygon points="116.62 244.33 116.62 266.38 126.08 275.29 126.08 280.66 112.56 268 112.56 240.58 116.62 244.33"/><path d="M144.86,257.1a14.3,14.3,0,0,0,2.34-7.82c0-2.83-1.2-5.91-5.86-1.52l-9.25,8.72v27.46l8.06-7.59c3.89-3.67,4.93-5.6,6-8.15a19.5,19.5,0,0,0,1.65-7.21C147.81,258.27,147.2,256.17,144.86,257.1Zm-9,.53,4.56-4.3c1.8-1.7,2.91-2.06,2.91.2a8.18,8.18,0,0,1-2.81,5.71l-4.66,4.39v-6ZM140.78,271l-4.87,4.6v-7.35l5.06-4.77c1.43-1.35,2.86-1.78,2.86.63A9.14,9.14,0,0,1,140.78,271Z"/><path d="M163,227.27l-4.58,4.32-6.79,33.86,4.19-3.94,1.32-6.91,7-6.62,1.22,4.51,4.32-4.07Zm-4.8,21.59,2.49-13.22,2.36,8.65Z"/><path d="M186.33,212c-2.48-11.44-8.78-6.85-11.05-4.58s-8,9.64-5.49,21.08,8.77,6.86,11.05,4.58S188.82,223.41,186.33,212Zm-6.42,16.77c-1.95,1.94-5,3-6.53-3.85s.89-11.25,2.83-13.19,5-3,6.53,3.86S181.85,226.8,179.91,228.74Z"/><polygon points="27.67 88.13 34.92 79.23 40.79 79.23 31.01 91.89 40.79 104.75 34.92 104.75 27.67 95.85 20.43 104.75 14.55 104.75 24.33 91.89 14.55 79.23 20.43 79.23 27.67 88.13"/><polygon points="234.9 88.13 242.15 79.23 248.02 79.23 238.24 91.89 248.02 104.75 242.15 104.75 234.9 95.85 227.66 104.75 221.78 104.75 231.56 91.89 221.78 79.23 227.66 79.23 234.9 88.13"/><path d="M240.56,22.09a4.47,4.47,0,0,0,1.49-3.4c0-3.2-2.43-4.59-4.9-4.59h-9.53V31h9.53c3.23,0,5.7-1.69,5.7-4.9A4.46,4.46,0,0,0,240.56,22.09ZM230,16.53h7.12c1.69,0,2.5.81,2.5,2.16a2.26,2.26,0,0,1-2.5,2.47H230Zm7.12,12H230V23.59h7.12c2.52,0,3.3,1,3.3,2.48S239.4,28.54,237.15,28.54Z"/><path d="M27.34,14.1,19.8,31h2.62l2.47-5.55h7.46L34.74,31h2.71L30,14.1ZM26,23l2.62-5.88L31.26,23Z"/><polygon points="39.27 16.53 45.13 16.53 45.13 30.97 47.53 30.97 47.53 16.53 53.39 16.53 53.39 14.1 39.27 14.1 39.27 16.53"/><polygon points="70.39 20.92 60.6 20.92 60.6 14.1 58.19 14.1 58.19 30.97 60.6 30.97 60.6 23.34 70.39 23.34 70.39 30.97 72.8 30.97 72.8 14.1 70.39 14.1 70.39 20.92"/><polygon points="82.11 14.1 79.7 14.1 79.7 30.97 92.24 30.97 92.24 28.54 82.11 28.54 82.11 14.1"/><polygon points="98.05 23.39 103.72 23.39 103.72 20.96 98.05 20.96 98.05 16.53 109.31 16.53 109.31 14.1 95.64 14.1 95.64 30.97 109.73 30.97 109.73 28.54 98.05 28.54 98.05 23.39"/><polygon points="113.07 16.53 118.92 16.53 118.92 30.97 121.33 30.97 121.33 16.53 127.19 16.53 127.19 14.1 113.07 14.1 113.07 16.53"/><rect x="131.7" y="14.1" width="2.4" height="16.87"/><path d="M148.49,28.9c-4.57,0-7-3.22-7-6.23a6.29,6.29,0,0,1,6.37-6.5,9.47,9.47,0,0,1,6.3,2.56l1.8-1.55a11.44,11.44,0,0,0-8.13-3.44,8.8,8.8,0,0,0,0,17.59c4.78,0,6.77-1.64,8.35-3.37l-1.61-1.76A7.69,7.69,0,0,1,148.49,28.9Z"/><path d="M177.33,28.9c-4.56,0-7-3.22-7-6.23a6.29,6.29,0,0,1,6.36-6.5,9.42,9.42,0,0,1,6.3,2.56l1.81-1.55a11.47,11.47,0,0,0-8.13-3.44,8.8,8.8,0,0,0,0,17.59c4.78,0,6.76-1.64,8.34-3.37l-1.6-1.76A7.7,7.7,0,0,1,177.33,28.9Z"/><polygon points="192.58 14.1 190.18 14.1 190.18 30.97 202.71 30.97 202.71 28.54 192.58 28.54 192.58 14.1"/><path d="M218.83,24.6c0,2.48-1,4.3-4.92,4.3S209,27.08,209,24.6V14.1h-2.41V24.61c0,3.19,1.21,6.72,7.33,6.72s7.32-3.53,7.32-6.72V14.1h-2.4V24.6Z"/><path d="M41.17,40.36l.14,2.49s.57,10.09.94,14.43c.53,6.35,2.11,40.94,13.43,77.95C65,165.55,82.72,194.93,102,217c12.87,14.75,27.69,28.52,27.72,28.55l1.6,1.49,1.61-1.49s14.85-13.8,27.72-28.55c19.28-22.11,37-51.49,46.32-81.81,11.32-37,12.89-71.6,13.43-77.95.37-4.34.94-14.42.94-14.43l.14-2.49Z"/><path class="cls-1" d="M142.07,101.83V230.07c4.64-4.71,10-10.35,15-16.12.92-1.07,1.85-2.15,2.77-3.25v-122Z"/><path class="cls-1" d="M181.37,72.79V180.45a221.66,221.66,0,0,0,17.81-36.84v-84Z"/><path class="cls-1" d="M102.77,130.88V210.7c.92,1.1,1.85,2.18,2.77,3.25,5,5.77,10.4,11.41,15,16.12V117.72Z"/><path class="cls-1" d="M68.58,156.15a229.52,229.52,0,0,0,12.7,24.29V146.76Z"/><path class="cls-2" d="M159.88,88.67v122a237.69,237.69,0,0,0,21.49-30.25V72.79Z"/><path class="cls-2" d="M215.71,56.89c.2-2.4.48-6.71.67-10l-17.2,12.72v84c1.19-3.23,2.29-6.49,3.29-9.75C213.6,97.43,215.17,63.38,215.71,56.89Z"/><path class="cls-2" d="M81.28,146.76v33.68a237.81,237.81,0,0,0,21.49,30.26V130.88Z"/><path class="cls-2" d="M120.58,117.72V230.07c4.1,4.16,7.64,7.6,9.86,9.72l.88.85.89-.85c1.57-1.51,3.81-3.67,6.45-6.29l3.41-3.43V101.83Z"/><path class="cls-3" d="M46.94,56.89c.54,6.49,2.11,40.54,13.24,77a189.29,189.29,0,0,0,6.49,17.85L211,45.07H46.16C46.35,48.34,46.7,54,46.94,56.89Z"/><path class="cls-4" d="M124,78l-.82-.82-.71-.21-.92.11-.62.71a2.65,2.65,0,0,1-1.83.1,4.2,4.2,0,0,1-1.84-1.43l-.62-.92s0-.92-.61-.71a3.38,3.38,0,0,0-1.23,1,2.48,2.48,0,0,1-.81.51c-.51.21-1.54-.31-1.54-.31l-.2-.81a.73.73,0,0,0,.82-.21c.4-.41.1-1.33.1-1.33l-1-.61a1.59,1.59,0,0,0-.92.51,1.93,1.93,0,0,1-2,.31c-.82-.31-1.84-1.43-1.63-2.25a14.71,14.71,0,0,1,.92-2.25,1.93,1.93,0,0,0-.51-1.12c-.51-.62-.82.51-.62-.41s.21-1.64.92-2.25a2.8,2.8,0,0,1,1.64-.61,1.14,1.14,0,0,0,.51-.92c0-.62-1-1.54-1-1.54s-1.54-.2-1.84-.92a8.2,8.2,0,0,1-.11-4.18,5.51,5.51,0,0,1,1.73-1.74c.51-.41.72-2.65.72-2.65s.58-1.3.92-.92,0,.85,0,.85a12.34,12.34,0,0,0,.39,2c.2.51.51,1.12.51,1.12l.61-.82.1-3.88a2.87,2.87,0,0,1,1.33-1.64,20.92,20.92,0,0,1,3.38-1.43,6.31,6.31,0,0,1,1.94.31,6.46,6.46,0,0,1,1.33-2,6.88,6.88,0,0,1,2-.82,9.29,9.29,0,0,1,2.81-.45c.61.1.26-.49.77-.08a1.87,1.87,0,0,0,1.65.29,2.71,2.71,0,0,1,1.17.09s1,1.09,2.06.27c.41-.32,2.64,0,2.64,0s1.62,1.14,2.34,1.55.76.75.76.75a5.22,5.22,0,0,1,1.33,0,1.3,1.3,0,0,1,1.23,1.13c.2.81.2,1.22.61,1s.51-.62,1.13-.62,1,.52,1.53.92a2.7,2.7,0,0,0,1.43.41,2.18,2.18,0,0,1,.61.82c.31.61,1.54,1.13,1.54,1.13a1.61,1.61,0,0,1,.92.71,7.41,7.41,0,0,1,.31,2.76,3.54,3.54,0,0,0,.21,1.63c.3.51.92.41,1,.92a2.67,2.67,0,0,1-.1,1.53,11.13,11.13,0,0,0-.41,1.43s.2.52.51,1.13.1.71,0,1.22a10.32,10.32,0,0,1-.41,1.33,3.55,3.55,0,0,0,.31,1.54,4.35,4.35,0,0,1,.3,2.35c-.1.71-.1.71-.61,1a6.22,6.22,0,0,1-1.12.51,3.51,3.51,0,0,1-1.13,3.07c-.51.51-2,.51-2,.51l-.72,1a6.44,6.44,0,0,1-.51,2.14,4.7,4.7,0,0,1-1.43,1.74,4.18,4.18,0,0,1-2.25.61A1.73,1.73,0,0,1,138,80a1.86,1.86,0,0,1-.71.82,1.82,1.82,0,0,1-1.23.1l-.31.92s-.3.51-.71.41.1-2.15.1-2.15l-.72-.61s-.51,1.53-.71,2-1.33.72-1.33.72a2.06,2.06,0,0,1-.51-.92c-.1-.51.82-.92.82-.92l-.11-1.23-1.63-.51c-.61-.2-2.9-.53-2.9-.53a15.51,15.51,0,0,0-3,.53C124.38,79,124,78,124,78Z"/><path class="cls-5" d="M108.23,65.67a2.8,2.8,0,0,1,1.64-.61,1.14,1.14,0,0,0,.51-.92c0-.62-1-1.54-1-1.54s-1.54-.2-1.84-.92a4,4,0,0,1-.23-1H103.6v5.69h4.08A2.1,2.1,0,0,1,108.23,65.67Z"/><path class="cls-5" d="M152.92,60.72h-4.54a11.78,11.78,0,0,0-.39,1.37s.2.51.51,1.13.1.71,0,1.22a10.32,10.32,0,0,1-.41,1.33,6.16,6.16,0,0,0,0,.64h4.79V60.72Z"/><path class="cls-6" d="M103.61,66.41h0c0,.3.21.5.58.58h3.31a2.71,2.71,0,0,1,.18-.59Z"/><path class="cls-7" d="M110.38,64.14a1.14,1.14,0,0,1-.51.92,2.8,2.8,0,0,0-1.64.61c-.71.61-.71,1.33-.92,2.25s.11-.21.62.41a1.93,1.93,0,0,1,.51,1.12,14.71,14.71,0,0,0-.92,2.25c-.21.82.81,1.94,1.63,2.25a1.93,1.93,0,0,0,2-.31,1.59,1.59,0,0,1,.92-.51l1,.61s.3.92-.1,1.33a.73.73,0,0,1-.82.21l.2.81s1,.52,1.54.31a2.48,2.48,0,0,0,.81-.51,3.38,3.38,0,0,1,1.23-1c.61-.21.61.71.61.71l.62.92a4.2,4.2,0,0,0,1.84,1.43,2.65,2.65,0,0,0,1.83-.1l.62-.71.92-.11.71.21L124,78s.41.92,1,.61a15.51,15.51,0,0,1,3-.53,29.12,29.12,0,0,1,2.9.53l1.63.51.11,1.23s-.92.41-.82.92a2.06,2.06,0,0,0,.51.92s1.13-.21,1.33-.72.71-2,.71-2l.72.61s-.51,2-.1,2.15.71-.41.71-.41l.31-.92a1.79,1.79,0,0,0,1.23-.11A1.81,1.81,0,0,0,138,80a1.73,1.73,0,0,0,.92.3,4.16,4.16,0,0,0,2.25-.61,4.7,4.7,0,0,0,1.43-1.74,6.44,6.44,0,0,0,.51-2.14l.72-1s1.53,0,2-.52a3.94,3.94,0,0,0,.92-1.32,4.09,4.09,0,0,0,.21-1.74,7.15,7.15,0,0,0,1.12-.51c.51-.31.51-.31.61-1a4.38,4.38,0,0,0-.3-2.36,3.49,3.49,0,0,1-.31-1.53,10.9,10.9,0,0,0,.41-1.33c.1-.51.3-.61,0-1.22s-.51-1.13-.51-1.13a11.13,11.13,0,0,1,.41-1.43,2.67,2.67,0,0,0,.1-1.53c-.1-.51-.72-.41-1-.92h0c-.55,1-1,2-2.3,2.2-.88.13-1.41-.4-2.28-.2-2.42.54-.23,4.35-2.07,6-1.52,1.36-3,1.17-5,1.65-10.53,2.58-18.76-12.62-27.19-5.8a4,4,0,0,0-.31.27,4.87,4.87,0,0,0,1,.27S110.38,63.52,110.38,64.14Z"/><path class="cls-8" d="M141.86,66.52c.57-1.8.13-3,.82-4.77.81-2,2.9-2.44,3.27-4.61a12.85,12.85,0,0,0,.17-4l-.08,0s-1.23-.51-1.54-1.12a2.56,2.56,0,0,0-.22-.38c-9.46,2.15-32.89,19.22-29.67,24.42a1.31,1.31,0,0,0,.16-.13,3.29,3.29,0,0,1,1.23-1c.61-.21.61.71.61.71l.62.92a5.56,5.56,0,0,0,.76.81C122.66,77.15,139,75.4,141.86,66.52Z"/><path class="cls-9" d="M141.86,66.52c-.05.15-.11.29-.17.44,3.37-1.51,5.1-4.6,3-6.55-.33,0-.62-.14-.93-.2a4.63,4.63,0,0,0-1.06,1.54C142,63.51,142.43,64.72,141.86,66.52Z"/><path class="cls-10" d="M117.51,67.86c10.46,2.8,15.75-5.07,16.37-8.18.24-1.19,1.22-.73,2-1.25,3.38-2.31,8.26-3.3,7.57-7.31a2.07,2.07,0,0,1-1-.37c-.51-.4-.92-.92-1.53-.92s-.72.41-1.13.62-.41-.21-.61-1A1.3,1.3,0,0,0,138,48.3a5.13,5.13,0,0,0-1.32,0s-.06-.35-.77-.75c-.52-.3-1.49-1-2-1.32C126.38,46.51,107.21,65.11,117.51,67.86Z"/><path class="cls-11" d="M125.28,45.4h0a9.29,9.29,0,0,0-2.81.45l-.24.07L123.1,52C127.74,50.06,126.4,47.47,125.28,45.4Z"/><path class="cls-12" d="M131,49.37a2.33,2.33,0,0,0,2.17,1.81l1.11-4.64-.49-.34C131.53,46.45,131.23,47.45,131,49.37Z"/><path class="cls-13" d="M121.13,75.84c-1.45.11-3.83.11-4.76-2-.29-.64-2.08,1.87-2.08,1.87l.33.28.15-.13a3.38,3.38,0,0,1,1.23-1c.61-.21.61.71.61.71l.62.92a4.2,4.2,0,0,0,1.84,1.43,2.65,2.65,0,0,0,1.83-.1l.62-.71h0C121.63,76.49,121.62,75.81,121.13,75.84Z"/><path class="cls-13" d="M141.13,77.92c-2.07,1.32-3.77,1.28-6.22,1-2-.21-3.72-3.28-5-1.66-.09.12-.21.31-.21.31l.07.8c.47.09.9.18,1.12.25l1.63.51.11,1.23s-.92.4-.82.92a2.06,2.06,0,0,0,.51.92s1.13-.21,1.33-.72.71-2,.71-2l.72.61s-.51,2-.1,2.15.71-.41.71-.41l.31-.92a1.79,1.79,0,0,0,1.23-.11A1.81,1.81,0,0,0,138,80a1.73,1.73,0,0,0,.92.3,4.16,4.16,0,0,0,2.25-.61,4.7,4.7,0,0,0,1.43-1.74,6.44,6.44,0,0,0,.51-2.14l.36-.51C142.29,75.57,142.27,77.19,141.13,77.92Z"/><path class="cls-14" d="M113.46,59c1.66-.48,1.66-4.9,2.7-3.52.62.83-.82,2.87.41,3.42s1.58-1.83,2.8-1.56.69,2.15,1.87,2.39c1.55.31.51-6.84.93-8.4,0,0,.83,2,1.66.52,1.37-2.4-.52-4.11-1.71-5.86a6.17,6.17,0,0,0-1.73.73,6.46,6.46,0,0,0-1.33,2,6.31,6.31,0,0,0-1.94-.31,19,19,0,0,0-3,1.26l.19,2.45S110.89,59.71,113.46,59Z"/><path class="cls-15" d="M133.36,51.91c2.59,1.48,3.6-1,3.56-3.64l-.28,0s-.06-.35-.77-.75S133.53,46,133.53,46s-.52-.08-1.1-.13c-.1.65-.14,1.34-.21,2C132.05,49.47,131.12,50.63,133.36,51.91Z"/><path class="cls-16" d="M141.63,55c-1.77,1.44-4.27,3.63-3.08,3.38a8,8,0,0,0,3.22-1.7,7,7,0,0,0,4.14-3.65A3.28,3.28,0,0,1,144.5,52a2.18,2.18,0,0,0-.61-.82,3.63,3.63,0,0,1-.73-.09C142.93,52.5,142.55,54.27,141.63,55Z"/><path class="cls-17" d="M144,53.31a2.15,2.15,0,0,1-.48.86,2.52,2.52,0,0,1-1,.65c-.27.12-.6,0-.74.24s.63.41,1,.28.33-.3.54-.5a16,16,0,0,0,1.91-2.12l0,0a2,2,0,0,1-.75-.7,2.41,2.41,0,0,0-.19-.33,5.77,5.77,0,0,0-.16.86A5.34,5.34,0,0,1,144,53.31Z"/><path class="cls-5" d="M125.24,45.4c.61.1.26-.49.77-.08a1.87,1.87,0,0,0,1.65.29,2.71,2.71,0,0,1,1.17.09,2.26,2.26,0,0,0,.67.45V45.07h-5.6v.43A4.85,4.85,0,0,1,125.24,45.4Z"/><path class="cls-18" d="M130,46.27v-1.2h-.53v1.08A1.33,1.33,0,0,0,130,46.27Z"/><path class="cls-19" d="M125.27,50.73c.73.78,1.49-1.08,1.78-2.11a5.38,5.38,0,0,0-.77-3.55h-1.71c0,1.11,1.63,2,1.51,3.33C126,49.36,124.61,50,125.27,50.73Z"/><path d="M116.53,84a.46.46,0,0,1-.16-.43c0-.51,1.27-.2,1.12-.69-.06-.19-1.39.58-1.83.27a.47.47,0,0,1-.1.1s-.07,0-.11,0,0,.1,0,.11-.19.08-.23.13,0,.18-.06.19-.21.13-.25.18a2.48,2.48,0,0,0-.07.3s-.17.15-.19.19a.45.45,0,0,0,0,.12v.07a.78.78,0,0,1,0,.09s-.09.1-.11.17,0,0,0,0,0,.12,0,.18v0c0,.05-.08.12-.09.21v0c0,.11,0,.2,0,.29a0,0,0,0,1,0,0s-.08.13-.09.23v0c0,.08.1.15.1.2h0c0,.06-.06.14-.07.23s0,0,0,0,.11.15.11.2h0s-.06.12-.06.2v0c0,.11.13.18.14.26v0s0,.08,0,.14a.08.08,0,0,0,0,0c0,.06.09.12.1.16v0s0,.08,0,.13v0c0,.07.1.13.11.17v0a.75.75,0,0,0,0,.11v0c0,.07.11.12.11.16v0a.61.61,0,0,1,0,.11s0,0,0,0,.1.1.11.13a3,3,0,0,0,.12.33.26.26,0,0,0,.25.18h0a.3.3,0,0,0,.32-.27.2.2,0,0,0,0-.13,2.7,2.7,0,0,1-.32-1.06.57.57,0,0,1,.16-.43l0,0,0,.1a4.54,4.54,0,0,1,.38,1.06.79.79,0,0,0,.34.08.72.72,0,0,0,.29-.06q.17-.5.3-.81a2.48,2.48,0,0,1-.26,1c0,.09-.08.08-.08.17l0,0c0,.14.09.18.19.18a.4.4,0,0,0,.22-.06c.07-.07,0-.1.1-.22s.08-.18.12-.3.1-.11.14-.18v-.21c0-.06.1-.12.13-.2v0c0-.05,0-.09,0-.13h0c0-.06.07-.11.09-.18v0c0-.05,0-.09,0-.13h0a.22.22,0,0,0,0-.08l0,0v-.07a1.38,1.38,0,0,0,0-.34.53.53,0,0,0-.09-.33l0,0c0-.1,0-.19-.07-.29a.06.06,0,0,1,0,0s0-.08,0-.12v0c0-.08-.07-.14-.07-.2h0l0,0,.25.41.46-.15a7.36,7.36,0,0,1-.25-1.25v0a3.82,3.82,0,0,1,.13-.86h0C117.3,83.42,116.66,84.08,116.53,84Z"/><path class="cls-20" d="M117.58,85.72h0l.39-.12-.07-.22-.46.14Z"/><path class="cls-21" d="M116.68,88.52h0l.08,0v-.1Z"/><path class="cls-21" d="M115.5,88.76l0,0,0,0Z"/><path class="cls-21" d="M117,86.15a1.23,1.23,0,0,1,.09.47A1.89,1.89,0,0,1,117,87l-.09.19v.08a2.2,2.2,0,0,1-.2.82l.31.11.09-.22c0-.08.12-.14.13-.19a.09.09,0,0,0,0,0s0-.06,0-.1a.13.13,0,0,1,0-.06c0-.08.11-.14.12-.2s0,0,0,0a1.11,1.11,0,0,0,0-.13s0,0,0,0,.08-.13.08-.17v0s0-.08,0-.13v0a.76.76,0,0,0,0-.15A1.58,1.58,0,0,0,117,86.15Z"/><path class="cls-21" d="M117.72,83.17l-.75-1a10.2,10.2,0,0,0-1.37,1.13s-.1,0-.11,0,0,.06,0,.1-.21.1-.23.13,0,.14,0,.2-.25.15-.25.17-.05.24-.08.3a1.49,1.49,0,0,1-.18.18.28.28,0,0,0,0,.1v.07a.37.37,0,0,1,0,.11c0,.07-.1.12-.11.16v0s0,.11,0,.17v0c0,.08-.08.15-.09.2v0c0,.08,0,.18,0,.28h0c0,.1-.09.18-.08.25h0c0,.06.08.13.09.22h0c0,.09-.06.16-.06.23h0s.1.12.11.21h0c0,.07-.06.15-.06.19h0c0,.09.11.16.13.27a0,0,0,0,1,0,0c0,.06,0,.1,0,.14v0s.08.1.1.17v0s0,.1,0,.13v0s.09.11.11.18a0,0,0,0,1,0,0s0,.08,0,.11h0s.09.1.12.17v0a.75.75,0,0,1,0,.11v0s.09.07.11.13.08.23.11.32v-.09l.4-.19a2.44,2.44,0,0,1-.27-1,.61.61,0,0,1,.17-.47l.06,0a1.18,1.18,0,0,1,0-.31.53.53,0,0,1,.14-.4,1.57,1.57,0,0,0-.49.72l0,.06,0-.06a1.42,1.42,0,0,1-.1-.47.43.43,0,0,1,0-.23c.14-.24.58-.3.62-.31h0s.09-.06.15-.08h0l.08,0h0s.08,0,.14-.06h0s.08,0,.1,0h0s.1,0,.14,0,0,0,0,0h0s.09,0,.1,0h0l.13,0h0s.08.06.1.06h.15s.09.08.1.08a1.22,1.22,0,0,1,.49.12l-.06-.23v-.21s-.06-.12-.06-.19v0c0-.05.07-.09.06-.09s-.06-.09-.06-.16,0,0,0,0,.08-.15.08-.21h0a1.62,1.62,0,0,0,0-.19,0,0,0,0,1,0,0c0-.08.09-.15.1-.19v0a.86.86,0,0,1,0-.13v0c0-.08.1-.14.11-.19v0s0-.09,0-.14,0,0,0,0,.09-.15.1-.2,0,0,0,0,0,0,0-.08a.06.06,0,0,1,0,0A1.56,1.56,0,0,1,117.72,83.17Z"/><path class="cls-21" d="M117.66,83.47l0,.1a0,0,0,0,0,0,0s0,0,0,.07a.13.13,0,0,1,0,.06c0,.07-.08.14-.1.2v0s0,.09,0,.14v0c0,.07-.1.14-.11.19h0a.86.86,0,0,1,0,.13v0c0,.08-.09.14-.1.19v0s0,.12,0,.19,0,0,0,0-.07.14-.09.21h0s.06.09.06.16,0,0,0,0l.11.17.46-.16a4.26,4.26,0,0,1-.18-1,.06.06,0,0,1,0,0,3.84,3.84,0,0,1,.14-.87h0Z"/><path class="cls-6" d="M115.68,87.13s-.08-.1-.09-.12l.1-.05.1,0,0,0S115.72,87.14,115.68,87.13Z"/><path class="cls-20" d="M116,88.09l.09-.11a.2.2,0,0,1,.11,0,.24.24,0,0,1,.13,0l.09.1a.65.65,0,0,1-.21,0l-.16,0Z"/><path class="cls-6" d="M116.9,87s0,.06-.05,0h0s-.07-.16-.07-.16l0-.06a1.76,1.76,0,0,1,.2.12h0S116.92,87,116.9,87Z"/><path class="cls-21" d="M117.49,86.68a1.15,1.15,0,0,0-.55-.54,4.12,4.12,0,0,1,0,.48,1.87,1.87,0,0,1,0,.32.67.67,0,0,0-.23-.13s0,0,0,0a0,0,0,0,0,0,0h0a.32.32,0,0,0,0,.07s0,.18.11.2h0a8.17,8.17,0,0,0-.36,1h0l-.09-.15a.34.34,0,0,0-.16,0,.23.23,0,0,0-.14,0l-.13.13h0a5,5,0,0,0-.3-.9l0,0h0c.12,0,.11-.21.12-.21s0,0,0-.06h0s0,0,0,0,0,0,0,0a.78.78,0,0,0-.24.13l0-.08a1.19,1.19,0,0,1-.05-.32,1,1,0,0,1,.09-.41,1.17,1.17,0,0,0-.52.65,1.21,1.21,0,0,1-.08-.39.39.39,0,0,1,0-.2c.11-.21.58-.28.58-.28v0c.06,0,.11-.08.15-.08h0s0,0,.09,0h0c.07,0,.11-.07.15-.07h0s0,0,.1,0h0c.08,0,.13,0,.16,0h0s0,0,.1,0h0a1.3,1.3,0,0,0,.13,0h0s0,.05.1.07h.14s.07.06.12.08.43,0,.56.18a.52.52,0,0,1,.07.29A1.57,1.57,0,0,1,117.49,86.68Z"/><path class="cls-20" d="M115.18,88.72a.21.21,0,0,0,.17.09.28.28,0,0,0,.13,0v-.12l.07.07a.23.23,0,0,0,.06-.12.17.17,0,0,0,0-.11h0l0-.08-.38.18Z"/><path class="cls-20" d="M116.63,88.28c0,.11-.08.1-.11.17l0,0s0,.07.11.09l.14-.14v.12s.06,0,.08,0,0,0,.09-.19,0,0,0,0l-.3-.1A1.47,1.47,0,0,0,116.63,88.28Z"/><path class="cls-5" d="M117.3,84.67a.52.52,0,0,1,.06-.13,2.34,2.34,0,0,1-.38,0,2.79,2.79,0,0,1-2-.72s-.1.06-.1.07a.8.8,0,0,0-.05.19,1.8,1.8,0,0,0,1.51.78,2.68,2.68,0,0,0,.91-.18h0S117.3,84.68,117.3,84.67Z"/><path class="cls-22" d="M115.39,83.46a.69.69,0,0,0-.16.09s0,.14,0,.2l-.15.1a2.79,2.79,0,0,0,2,.72,2.34,2.34,0,0,0,.38,0s0,0,0-.06h0a1.3,1.3,0,0,1,0-.13v0a.33.33,0,0,1,.07-.13h-.09A2.78,2.78,0,0,1,115.39,83.46Z"/><path class="cls-23" d="M116.53,84a.46.46,0,0,1-.16-.43c0-.51,1.27-.2,1.12-.69-.06-.18-1.29.52-1.77.29l-.12.12s-.1,0-.11,0,0,.06,0,.11l-.07,0a2.78,2.78,0,0,0,2,.74h.09l0-.06v0s0-.08,0-.14,0,0,0,0,.09-.14.1-.2v0s0-.05,0-.08a.09.09,0,0,1,0,0,.14.14,0,0,1,0-.06C117.12,83.61,116.64,84.07,116.53,84Z"/><path class="cls-20" d="M115.54,83c0-.2-.17-.26,0-.43a4.52,4.52,0,0,1,1-.77l.53-.24a3.68,3.68,0,0,1,.32-.62c.21-.26,1.39-.37,1.39-.37l.42-.75s.26-.43.54-.53a1.46,1.46,0,0,1,.42-.06,1.23,1.23,0,0,0-.26.43,1.21,1.21,0,0,0,0,.48,4.89,4.89,0,0,1,.8,0c.3,0,.55,0,.75.22a1.14,1.14,0,0,1,.16.37,1.24,1.24,0,0,0-.7-.11c-.27.1-.48.59-.48.59l.35.39c.24.25.45.31.64.6s.14.42.27.66A4,4,0,0,0,123,84.17c2.61,2.12,5.46-1,8.62.14.81.29,1.15,1,2,.93.61,0,.85-.46,1.44-.56,1.47-.25,1.9.81,3.58,1.33,4.11,1.28,5.07-1.54,5.07-1.54s-1.43,4.09-5.07,3.46c-2.19-.37-2.26-2.46-4.06-2.24a3,3,0,0,0-.8.19c1.38,1.29.4,3.12.7,3.31.58.37,1.24-.27,1.63.21s-.41,2.64-.41,2.64a1.58,1.58,0,0,1-.9,1c-.69.27-1.26.08-1.23-.43s.91-.59.91-.59c.36,0,.52-.27.8-.48l-.06-1.28a4.77,4.77,0,0,1-2.5-.21c-1.2-.69-.35-2.35-1.39-3.26-2.05-1.76-3.86,2.39-6.56,2.25-.82,0-2.16-.68-2.06-.35a4,4,0,0,1,0,2.69A4.61,4.61,0,0,1,121.43,93c-.16.12-.31,0-.5.08-.7.08-.86-.53-.4-.83.94-.47,1.57-1,1.52-1.3,0-1.6-.37-1.5-1.1-2-1.22-.9-2.61-.2-3.84.69-.34.25-.54.65-.8.75s-.45.76-.74.43c-.69-.79,1.88-1.74,1.88-1.74l2.6-1.2a9.45,9.45,0,0,1-.64-1.92c-.16-1,.34-2.56.16-2.61-.43-.13-.76.24-1.24.2-.19,0-.28-.09-.47-.1-.56,0-1.2.63-1.33.54s-.15-.25-.16-.43c0-.51,1.27-.2,1.12-.7C117.42,82.65,115.7,83.69,115.54,83Z"/><path class="cls-24" d="M133.33,86a2.76,2.76,0,0,0-2.54-1.2c-1.1.17-3.76,1.68-6,1a11.06,11.06,0,0,1-3.31-2.19,6.83,6.83,0,0,0,2.51,2.69c2.48,1.33,5.83-1.54,7.1-1.36A2.32,2.32,0,0,1,133,86.12c.28.63-.29,1.12-.05,1.76s1.38,1.39,1.38,1.39a14.81,14.81,0,0,1-.64-1.6C133.46,87,133.68,86.54,133.33,86Z"/><path class="cls-25" d="M131.27,87.32a3.13,3.13,0,0,0,1.07,3.44A6,6,0,0,1,131,93.22h-1.3a1.06,1.06,0,0,1,0-.46c.17-.35,1-.16,1-.16a4,4,0,0,0,.59-1.38s-1.79-.91-1.84-2C129.38,87.8,131.46,86.3,131.27,87.32Z"/><path class="cls-26" d="M143.63,68.46c-1,.16-.32.43-.75.53s-.37.27-.53.91-.37.32-.75.53-.8-.05-.48-.53.22-.21.75-.85.21-.32.27-.75.27-.32.64-.59a1.47,1.47,0,0,0,.59-.59c.1-.21.32-.32.64-.8s.05-.37.32-.9a5.14,5.14,0,0,1,.85-1.18s-1.23.7-1.34,1.55-.05.32-.74,1.28-.8.32-1.18.75a1.72,1.72,0,0,0-.48.91c-.1.37-.53.64-1.12,1.12s-.42.53-.9,1.06-.27.54-.59,1.28-.75.54-1.28.54-.16-.32-.16-.8a1.94,1.94,0,0,1,.05-.64c.06-.27.27-.38.7-.7a4,4,0,0,1,.33-.24,2.69,2.69,0,0,1,.47-.13c.58-.16.74-.48.42-.53s-.85.26-1.28.53a3.84,3.84,0,0,0-.58.43,2.14,2.14,0,0,1,.16-.8c.16-.32-.32.21-.64.58s-.27.43-.22,1.07a1.28,1.28,0,0,1-.37,1.12c-.21.27-.48,0-.64.27a4.83,4.83,0,0,1-.91.8c-.37.32-1.6.42-1.65.1s.1-.21.48-.48.37-.37.75-.9,0-.27.32-.7.05-.21.26-.74.38.1.8-.27.16-.37.54-.75a5.75,5.75,0,0,1,1-.8c.64-.48.48,0,1.06-.05s.38-.11,1-.43.32-.21.59-.8.32-.59.53-1a.51.51,0,0,1,.48-.3,2,2,0,0,0-.69,0c-.32.11-.54.69-.7,1.12s-.43.32-1.07.54a1.92,1.92,0,0,1-1.06.1c-.54,0-.38-.1-.27-.53s.27-1,.27-1-.38,0-.38.26a8.81,8.81,0,0,0-.37,1.34c-.11.85-.21.1-.69.37-.19.1-.23.12-.23.14s.15,0,0,.29c-.21.42-.26.42-.48.85s-.32.21-.64,0-.05-.42.11-1,.27-.85.27-.85l-.54.69s-.48.48-.42,2.24-.43.7-.7,1.13a4.78,4.78,0,0,1-.59.74c-.26.32-.67,1.89-.78,1.46s-1.48,2.38-1.59,1.32-.07-1.4-.28-1.5.6-1.95.66-2.16a11.18,11.18,0,0,1,.34-2.59.91.91,0,0,1,.64-.32,6.64,6.64,0,0,1,.75-.48c.48-.26.53.16,1,.11s.42-.16.64-.43a10.39,10.39,0,0,0,.75-.8c.26-.37.21.27.58.16s.43-.37.64-.64.32-.48.8-1,.64-.27,1.07-.85.05-.54.21-1.23.32-1.18.32-1.18a7.88,7.88,0,0,0-.74,1.55c-.32.91-.38.7-.59,1s-.27.06-.64-.1-.21.21-.85,1.38-.43.22-.75.11-.37.16-.75.91-.48.48-1.17.58-.32,0,.11-.37.21-.21.47-.8.06-.27.38-.91.11-.48.37-1.28.48-.91.75-1-.43-.05-.91.48a1.69,1.69,0,0,0-.53,1,16.75,16.75,0,0,1-.91,2c-.53,1.07-.85.48-1.12.69a3.16,3.16,0,0,0-.85.86,3.84,3.84,0,0,1-.75.8,1.71,1.71,0,0,0-.75,1.28c-.16.91.43,2,.21,2.4s-.76.11-1,.38-.35-1.23.08-3-.06-.38,0-1.12.32-.27.59-.49.1-.21.42-1.33.27-.16.86-.59,0-.37.05-.8.05-.26.53-.32a1.93,1.93,0,0,0,1-.32c.59-.26.27-.26.75-.37s.11-.64.11-.64a9.44,9.44,0,0,1-1.23.85,6.79,6.79,0,0,0-1.28.06c-.91.16-.32.37-.37.85s-.43.48-1,.11-.06-.54-.06-1.07,0-.37.75-1.33.11-.38.48-1.23.37-.22.85-.43.32-.11.86-.75-.27-.37-.22-.9.16-.54,1.12-1.18.64.11,1-.1.06-.27.38-1.18.32-.37.64-.74.58-.65,1-1.23.21-.54.16-1.12c0-.27-.53.91-1.22,1.17s-.22.32-.75.75a1.52,1.52,0,0,0-.64,1.23c-.11.58-.38.37-.86.32s-.05-.38-.16-.86-.42,0-.32.54-.05.37-.48.74-.32.43-.42,1.18-.27.8-.22,1.17-.53.48-1,.64-.32,0-.58-.59.1-.64.64-1.49a9,9,0,0,0,.69-1.17c.48-.91-.05-.7-.05-1.23a.82.82,0,0,1,.07-.36c-.2.16-.45.4-.45.63a2.23,2.23,0,0,1-.32,1.12c-.26.58-.42.42-.74.85s-.16.37-.43.69a1,1,0,0,0-.16,1.07c.16.37-.59,1.28-.85,2.35s-.27.43-.38.69a1.14,1.14,0,0,0-.21.91c0,.64,0,.43.53,1.39s0,.74,0,1.39-.53.37-.53.37l-.32.85a3.69,3.69,0,0,0-.16,1.18c0,.27,0,.34,0,.36s.18-.13.55.28c.59.64,0,.64-.26,1.33s0,.64.1,1.07a9.06,9.06,0,0,0,.38,1.22c.26.75.32.48.32,1.07s-.38.38-.8.86-.32.21-.91,0-.48-.43-.64-.8a3.15,3.15,0,0,1-.27-.75c-.1-.43-.48.11-1-1-.22-.53-.26-.61-.26-.61s.06.09-.06-.25c-.21-.64,0-.26-.1-.8s.42,0,1-.16.37-.32.8-.85.05-.59.16-1.12.21-.21.37-.43,0-.53-.11-1.17-.16-.16-.42-.64a1.26,1.26,0,0,1-.27-.91c0-.43.11-.32.37-1s-.1-.43-.42-1.12-.22-.27-.11-.91-.11-.21-.16-.48-.32-.21-.43-.59a1.25,1.25,0,0,0-.26-.53,1.29,1.29,0,0,0,.1,1.07c.32.48.22.37.22.69s0,.37.32.69,0,.16.05.91-.05.27-.21,1.34.1.32.37,1.33,0,.59.16.85-.21.43-.43.7,0,.42-.21,1-.32.1-.85.1-.38-.32-.64-1.17-.06-.64-.06-1.12.06-.32.22-.91-.11-.48-.27-1.06a1.06,1.06,0,0,1,0-.91c.11-.43-.16-.64-.11-1.18s-.16-.37-.32-.9a1.85,1.85,0,0,1-.16-1.07c.06-.59.06-.53.11-1.44s-.11-.64,0-1.17a8.82,8.82,0,0,1,.18-.92,1.94,1.94,0,0,0-.39.7,7.18,7.18,0,0,1-.22,1.07,4.84,4.84,0,0,0-.21,1.81,4.1,4.1,0,0,1,0,1.12c-.06.43,0,.48.37,1.34s.11.37,0,.9a5.73,5.73,0,0,1-.16,1.07,1.66,1.66,0,0,0,.27,1.44c.37.54,0,.32,0,.86s0,1.12,0,1.81l-.9-.51-.06-3.6-1-1.39a1.34,1.34,0,0,1,.21-.58c.22-.38.11-.38.32-.75s0-.27-.26-.75-.06-.37,0-1a5.93,5.93,0,0,0,.11-1.39,3.05,3.05,0,0,0-.22-1c0-.32-.1-.21-.26-.64s0-.43.26-.75a3,3,0,0,1,.8-.8c.43-.32.32-.26.64-.69s0-.48,0-.48l.27-.48.37-.32h-.64a2.32,2.32,0,0,0-.42,1.12c-.06.64-.75.59-.86.8a3.35,3.35,0,0,1-.48.59l-.53.58.53,1.93c.16.58,0,.64,0,1.06s-.21.59-.27,1-.16.32.11,1.34.05.32,0,.58-.11,1.18-.11,1.18.11.9.11,1.33a2.09,2.09,0,0,0,.27,1.12c.21.43.1.38.37.48s.05.54.05.75.24,1,.07,1q-1,1.56-2.27-1.27s-.35-.9-.36-1c-.1-.59.06-.43.32-.91a2.69,2.69,0,0,0,.27-.64c.16-.38.11-.32-.05-1.18s.05-.53.05-.53l-.21-.64a2.75,2.75,0,0,0-.11,1.07,2.44,2.44,0,0,1,0,.85,3.47,3.47,0,0,1-.37,1.23c-.12.23-.69.71-.8.91-1,.27-1.45.12-1.39-.7.21-.24.51-.56.75-.8l.43-.43c.21-.21.21-.37.32-.9s.1-.48.16-.75a2.47,2.47,0,0,0,0-.64,4.54,4.54,0,0,1,.74-.21c.32-.06.38-.27.64-.43a.66.66,0,0,0,.27-.53v-.8a6.41,6.41,0,0,0-.16-1.71c-.21-.8-.11-.8-.11-.8l.38-.54-.54.27A2.56,2.56,0,0,0,119,62a2.66,2.66,0,0,1,.06,1.13,3.51,3.51,0,0,1-.06.8,1.81,1.81,0,0,1-.37.8c-.27.26-.59-.06-.59-.06l-.42-.53c-.16-.21.21-.43.21-.43a6.15,6.15,0,0,0,0-1c0-.43-.37-.06-.37-.06a.53.53,0,0,1-.59-.1.45.45,0,0,1-.11-.54,3.36,3.36,0,0,0,.8-.58.54.54,0,0,0,.06-.75l-.11-.53s-.11.48-.16.8-.7.64-.7.64a1.43,1.43,0,0,0-.32.48,1.28,1.28,0,0,0,.11.85c.16.32-.27.59-.27.59l.06.53h.42l.48.43.22.85a11.38,11.38,0,0,1-.22,1.44,2,2,0,0,1-.32.59,4.06,4.06,0,0,1-.16-.59.54.54,0,0,0-.32-.42v1.06c0,.32-.58.16-.58.16a1.38,1.38,0,0,1-.32-.85c-.06-.59.16-.43.16-.43a1.31,1.31,0,0,0-.64-.8l-.22-.64v-1A1.4,1.4,0,0,1,115,63a4.86,4.86,0,0,0,.37-.48,2.54,2.54,0,0,0,0-1.28,4.92,4.92,0,0,1-.43,1.33.27.27,0,0,1-.42.06,3.45,3.45,0,0,1-.11-1.13,1.93,1.93,0,0,0,0-.69l-.16-.53-.21-.38-.11,1.18s-.21.8-.43.53-.32-.43-.32-.43l-.1.38a2.29,2.29,0,0,0,.69.53.52.52,0,0,1,.32.53s.21,2.46.21,2.83a1.15,1.15,0,0,1-.32.7.84.84,0,0,1-.64-.32c-.21-.32-.53-.91-.53-.91s-.75-.75-.59-.43a6,6,0,0,0,1.18,1.71.86.86,0,0,1,.42.59s-.37.32-.53.1-.21-.42-.64-.53-.16.27-.48.37-.53-.37-1-.69.27.75.27.75a2.63,2.63,0,0,0,1.22.53,5.14,5.14,0,0,1,1,.11l.16.37-1.86.39-.17,0a6,6,0,0,0,.61.59l1.74.37-.06.6a1.32,1.32,0,0,0,1,.52c.44,0,.64.23.59.75.15.23.41.25.79.07l.54.09.91.58a3.53,3.53,0,0,0,1.06,2,.47.47,0,0,0,.37.18,3.3,3.3,0,0,0,2.34-.08l.93-.26c.21,0,.32.53.42.91a.53.53,0,0,1-.21.58l0,.59.69.43a6.59,6.59,0,0,1,.8.64c.21.16.43,1.12.53,1.33a6.76,6.76,0,0,1,0,1.5l-.48-.48-.53.26-.32.43A6.82,6.82,0,0,0,124.1,81a11.68,11.68,0,0,1,.91,1.55s-.21,23.42-.43,23.85-.32.69-.32.69l-.8,2-.8.48-1.06.32h-.86l1.1,1.07,6.91-5.11V93.91S129,82,129,81.75A4.4,4.4,0,0,1,130.13,80a5,5,0,0,0,1-1.28c.58-.86,0-.43.37-.86s.48-.58.75-.85.27-.11.64-.37.59.37,1,.32a2.7,2.7,0,0,1,1,0,3.13,3.13,0,0,1,.49,0h.21a6.33,6.33,0,0,0,.74,0s.59-.11,0-.59-.48-.11-1-.64.06-.21.7-.75.16-.26.42-.53a1.84,1.84,0,0,1,.86-.54c.53-.21.42.16,1,.06s.27-.22.53-.7.17-.37.49-1,.32-.37.58-.8.16-.21.48-.48.22,0,.75.22a2.39,2.39,0,0,0,1.07.26c.37,0,.37-.16.9-.8s-.05-.26.22-1.22.26-.22.58-.64.48-.32.7-.43S144.59,68.3,143.63,68.46Z"/><path class="cls-6" d="M125.65,107.84c-.16-.32-.32-.32-.21-.59s.58-.59.69-1.28a4.68,4.68,0,0,0,.05-2.13,5,5,0,0,1-.37-1.66c0-.48.11-4,0-4.32a10.5,10.5,0,0,0,.06-2c-.16-.75-.32.42-.16-1.18s.48-2.13.58-3.15a10.25,10.25,0,0,0,0-3.2c-.21-.48,1-1.65.91-2.72s-1.06-2.25-.9-2.73-1,.17-1,.17l-.16,17.82-.11,2.62.06,2.24,0,.53-.64.91-.64,2-1.07.58-.9.32-.7.11.48.37.69-.08,3.28-2.42A.56.56,0,0,0,125.65,107.84Z"/><path class="cls-20" d="M138.67,96.74c-1.68-.53-2.11-1.58-3.57-1.34-.6.1-.84.53-1.44.56-.87,0-1.21-.63-2-.93-3.16-1.14-6,2-8.62-.13a4.09,4.09,0,0,1-1.28-1.37c-.13-.24-.11-.43-.27-.66s-.4-.35-.64-.6-.34-.39-.34-.39.2-.49.48-.59a1.22,1.22,0,0,1,.69.11,1.14,1.14,0,0,0-.16-.37c-.2-.23-.45-.17-.75-.22a4.89,4.89,0,0,0-.8,0,1.21,1.21,0,0,1,0-.48,1.13,1.13,0,0,1,.27-.42,1.4,1.4,0,0,0-.43,0c-.28.1-.53.53-.53.53l-.43.75s-1.17.11-1.39.37a4.11,4.11,0,0,0-.32.62l-.53.24a4.77,4.77,0,0,0-1,.77c-.14.18,0,.24,0,.43.16.74,1.88-.29,1.95-.08.15.49-1.15.18-1.12.69,0,.18,0,.33.16.43s.77-.57,1.33-.53c.19,0,.28.07.47.09.49,0,.81-.32,1.24-.2.19.05-.32,1.61-.16,2.61a9.89,9.89,0,0,0,.64,1.93l-2.77,1.6s-2.42,1.27-1.73,2.05c.3.33.75,0,.88-.07s.48-.79.9-1.21c1.09-1.09,2.37-2.34,3.65-1.49.8.52,1.23.53,1.07,2.21,0,.25-.58.83-1.52,1.31-.45.29-.3.91.4.83.19-.13.35,0,.51-.08a4.67,4.67,0,0,0,1.33-1.63,4.09,4.09,0,0,0,0-2.7c-.11-.33,1.24.31,2,.35,2.7.15,4.52-4,6.56-2.24,1,.9.2,2.56,1.39,3.25a4.73,4.73,0,0,0,2.51.22h0l1-.7a.42.42,0,0,0-.07-.19c-.39-.49-1,.15-1.63-.22-.29-.18.68-2-.69-3.3a2.57,2.57,0,0,1,.8-.19c1.74-.22,1.87,1.75,3.88,2.2l2.11-1.55A7,7,0,0,1,138.67,96.74Z"/><path d="M116.53,94.71c-.15-.1-.15-.25-.16-.43,0-.51,1.27-.2,1.12-.69-.06-.19-1.39.58-1.82.28l-.1.09s-.07,0-.11.05,0,.09,0,.1-.19.08-.23.13,0,.18,0,.19-.22.13-.26.18,0,.27-.07.3-.17.15-.19.19a.49.49,0,0,0,0,.13v.06a.2.2,0,0,1,0,.09s-.09.1-.11.17v0c0,.06,0,.12,0,.17v0s-.08.12-.09.2v0c0,.11,0,.2,0,.29v0s-.08.13-.09.23v0c0,.08.09.15.09.2h0c0,.06-.06.14-.06.23v0c0,.09.11.15.11.21h0s-.06.12-.06.2v0c0,.11.12.19.13.27h0s0,.09,0,.14a.08.08,0,0,0,0,0c0,.06.09.12.1.16v0s0,.08,0,.14v0c0,.07.11.13.11.18h0s0,.06,0,.11a.08.08,0,0,0,0,0c0,.06.1.12.11.15v0s0,.07,0,.12v0c0,.06.11.1.11.13s.09.25.12.34a.27.27,0,0,0,.25.18h0c.16,0,.32-.12.32-.27a.25.25,0,0,0,0-.14,2.54,2.54,0,0,1-.32-1.06.57.57,0,0,1,.15-.43l0,0,0,.1a4.27,4.27,0,0,1,.38,1,.79.79,0,0,0,.34.08.72.72,0,0,0,.29-.06,8.3,8.3,0,0,1,.31-.81,2.67,2.67,0,0,1-.27,1c0,.09-.08.09-.08.17l0,0c0,.14.08.18.18.18a.4.4,0,0,0,.22-.06c.08-.07,0-.1.1-.22s.08-.18.12-.29.11-.11.14-.19,0-.05,0-.07,0-.07,0-.1,0,0,0,0,.09-.12.12-.2v0s0-.09,0-.13h0a1.5,1.5,0,0,0,.09-.18v0s0-.09,0-.13h0v-.08l0,0,0-.07a1.7,1.7,0,0,0,0-.34.55.55,0,0,0-.09-.33l0,0c0-.1,0-.2-.07-.3s0,0,0,0,0-.08,0-.12v0c0-.08-.06-.14-.07-.2h0l0,0,.25.41.46-.15a8.58,8.58,0,0,1-.25-1.25v0a3.85,3.85,0,0,1,.14-.86h-.06C117.3,94.14,116.66,94.8,116.53,94.71Z"/><path class="cls-20" d="M117.58,96.44h0l.39-.12-.07-.22-.47.14Z"/><path class="cls-21" d="M116.69,99.25h0l.07,0v-.1Z"/><path class="cls-21" d="M115.5,99.48l0,0,0-.06Z"/><path class="cls-21" d="M117,96.87a1.27,1.27,0,0,1,.09.47,2,2,0,0,1-.05.4,1.5,1.5,0,0,0-.09.18V98a2.52,2.52,0,0,1-.19.83l.3.1c0-.06.06-.14.09-.22s.12-.14.14-.19v0s0-.07,0-.11,0,0,0-.06.12-.14.13-.19v0a1.23,1.23,0,0,1,0-.13v0c0-.07.08-.13.08-.17a0,0,0,0,0,0,0s0-.08,0-.13v0s0-.1,0-.15A1.59,1.59,0,0,0,117,96.87Z"/><path class="cls-21" d="M116.53,94.71c-.15-.1-.15-.25-.16-.43,0-.51,1.27-.2,1.12-.69-.06-.18-1.29.52-1.77.3a.57.57,0,0,0-.11.11s-.11,0-.11,0,0,.06,0,.11l-.23.12s0,.15,0,.2-.24.15-.25.17,0,.24-.07.3a2.51,2.51,0,0,1-.19.18s0,.06,0,.11v.17c0,.07-.11.12-.11.16a.06.06,0,0,0,0,0s0,.1,0,.17v0c0,.08-.08.15-.08.21h0c0,.09,0,.18,0,.28h0c0,.09-.08.18-.08.24h0c0,.05.09.12.1.21h0c0,.09-.07.17-.07.23h0s.1.12.12.21h0c0,.08-.07.15-.06.2h0c0,.08.11.16.14.27v0a1.06,1.06,0,0,1,0,.14v0s.08.1.1.17a0,0,0,0,1,0,0,.86.86,0,0,1,0,.13v0s.08.11.11.18v0s0,.09,0,.11v0s.09.09.11.16v0a.75.75,0,0,1,0,.11v0s.09.07.11.13.08.24.11.32v-.08l.39-.19a2.54,2.54,0,0,1-.27-1,.62.62,0,0,1,.18-.47s0,0,0,0a1.1,1.1,0,0,1,0-.31.58.58,0,0,1,.13-.4,1.6,1.6,0,0,0-.48.73l0,.06,0-.06a1.24,1.24,0,0,1-.11-.48.46.46,0,0,1,0-.23c.14-.23.58-.3.62-.31h0s.09-.06.15-.08h0s.06,0,.08,0h0s.08,0,.14-.06h0s.08,0,.1,0h0c.05,0,.1,0,.14,0a0,0,0,0,1,0,0h0a.43.43,0,0,1,.1,0h0a1.3,1.3,0,0,1,.13,0h0s.09.06.1.06h.15c.06,0,.09.07.11.08a1.05,1.05,0,0,1,.48.12c0-.08,0-.16-.05-.24a.07.07,0,0,1,0-.05s0-.08,0-.12v0a2,2,0,0,1-.07-.19h0c0-.06.07-.09.06-.1s-.06-.08-.06-.16h0c0-.08.08-.16.08-.21v0s0-.12,0-.19v0c0-.08.09-.14.1-.19h0a1.3,1.3,0,0,1,0-.13v0c0-.08.1-.15.11-.19v0s0-.08,0-.14v0c0-.08.09-.14.1-.2s0,0,0,0,0,0,0-.07a.09.09,0,0,1,0,0l0-.06C117.12,94.33,116.64,94.79,116.53,94.71Z"/><path class="cls-21" d="M117.66,94.19l0,.1v.11a.11.11,0,0,1,0,0c0,.07-.08.14-.1.2v0s0,.09,0,.14a.09.09,0,0,1,0,0c0,.08-.1.14-.11.19h0a.86.86,0,0,1,0,.13v0c0,.08-.09.14-.1.2h0s0,.12,0,.19v0a1.45,1.45,0,0,1-.09.22h0s.06.08.07.15l0,0,.11.17.47-.16a4.17,4.17,0,0,1-.19-1v0a3.22,3.22,0,0,1,.14-.86h0A.69.69,0,0,0,117.66,94.19Z"/><path class="cls-6" d="M115.69,97.86s-.09-.11-.1-.13l.11,0,.09-.05,0,.05S115.73,97.86,115.69,97.86Z"/><path class="cls-20" d="M116,98.81l.09-.11.11,0a.31.31,0,0,1,.13,0l.09.11a1.18,1.18,0,0,1-.21,0,.8.8,0,0,1-.15,0Z"/><path class="cls-6" d="M116.91,97.76s0,.06-.06,0h0s-.07-.17-.07-.17a.33.33,0,0,0,0-.06,1.57,1.57,0,0,1,.19.12h0Z"/><path class="cls-21" d="M117.49,97.4a1.19,1.19,0,0,0-.55-.54,4.12,4.12,0,0,1,0,.48,1.87,1.87,0,0,1,0,.32.54.54,0,0,0-.22-.12s0,0,0,0,0,0,0,0h0a.17.17,0,0,0,0,.07s0,.18.12.2h0a7,7,0,0,0-.37,1h0l-.09-.14a.27.27,0,0,0-.3,0l-.12.14h0a4.5,4.5,0,0,0-.3-.9l0,0h0c.12,0,.11-.21.12-.21a.4.4,0,0,0,0-.06h0a0,0,0,0,0,0,0,.6.6,0,0,0-.24.12l0-.08a1.18,1.18,0,0,1-.05-.31,1.06,1.06,0,0,1,.09-.42,1.2,1.2,0,0,0-.52.65,1.24,1.24,0,0,1-.07-.39.42.42,0,0,1,0-.2c.12-.21.58-.28.58-.28v0c.07,0,.12-.08.15-.08h0l.08,0h0a.53.53,0,0,0,.15-.07h0l.1,0h0c.08,0,.13,0,.17,0h0s.06,0,.1,0h0a.86.86,0,0,0,.13,0h0s0,0,.1.06h.15a.63.63,0,0,0,.11.08s.43,0,.56.18a.45.45,0,0,1,.08.29A1.42,1.42,0,0,1,117.49,97.4Z"/><path class="cls-20" d="M115.19,99.45a.21.21,0,0,0,.16.08.25.25,0,0,0,.14,0v-.12l.07.07a.23.23,0,0,0,.06-.12.13.13,0,0,0,0-.1l0,0h0l0-.08-.37.18Z"/><path class="cls-20" d="M116.63,99c0,.1-.08.09-.1.17l0,0s0,.08.1.09l.15-.13v.11l.09,0s0-.06.08-.19l0,0-.31-.11S116.65,99,116.63,99Z"/><path class="cls-5" d="M117.3,95.39a.24.24,0,0,1,.07-.12c-.13,0-.26,0-.39,0a2.83,2.83,0,0,1-2-.73s-.1.06-.1.07a.54.54,0,0,0,0,.19,1.78,1.78,0,0,0,1.51.79,2.67,2.67,0,0,0,.9-.18v0Z"/><path class="cls-22" d="M115.39,94.19l-.16.08s0,.15,0,.2l-.15.1a2.83,2.83,0,0,0,2,.73c.13,0,.26,0,.39,0s0,0,0-.07h0a.86.86,0,0,1,0-.13v0a.24.24,0,0,1,.07-.12h-.09A2.84,2.84,0,0,1,115.39,94.19Z"/><path class="cls-23" d="M116.53,94.71c-.15-.1-.15-.25-.16-.43,0-.51,1.27-.2,1.12-.69-.06-.18-1.29.52-1.77.3a.57.57,0,0,0-.11.11s-.11,0-.11,0,0,.06,0,.11l-.07,0a2.84,2.84,0,0,0,2,.73h.08s0,0,0-.07v0s0-.08,0-.14v0c0-.08.09-.14.1-.2a0,0,0,0,0,0,0s0-.05,0-.08a.09.09,0,0,1,0,0l0-.06C117.12,94.33,116.64,94.79,116.53,94.71Z"/><path class="cls-27" d="M133.34,96.68a2.79,2.79,0,0,0-2.55-1.2c-1.1.18-3.76,1.68-6,1a11.06,11.06,0,0,1-3.31-2.19c-.22,0,1.24,2,2.51,2.69,2.48,1.33,5.82-1.54,7.09-1.35A2.28,2.28,0,0,1,133,96.84c.28.63-.29,1.12-.05,1.76A3.83,3.83,0,0,0,134.3,100a12.21,12.21,0,0,1-.64-1.6C133.47,97.74,133.68,97.27,133.34,96.68Z"/><path class="cls-28" d="M131.27,98a3.15,3.15,0,0,0,1.07,3.45,6,6,0,0,1-1.33,2.45H129.7a.92.92,0,0,1,0-.45c.16-.36,1-.16,1-.16a3.89,3.89,0,0,0,.59-1.39s-1.78-.91-1.84-2C129.38,98.52,131.46,97,131.27,98Z"/><path class="cls-29" d="M124.94,99.85a8.06,8.06,0,0,0,3.25-1.46,4.26,4.26,0,0,1-1.57,1.46A4.18,4.18,0,0,1,124.94,99.85Z"/><path class="cls-30" d="M108.4,112.11c-5.15.08-6.09,4-6.13,13.29l11.29-8.35C112.39,114.24,110.74,112.07,108.4,112.11Z"/><path class="cls-31" d="M93,112.11c-6.4,1.46-9.07,10.67-9.07,21h0c.08,1.58.24,3.42.49,5.46L98.07,128.5C98.48,121.36,99.23,110.69,93,112.11Z"/><path class="cls-32" d="M60.17,133.84v0c1.83,6,4,12,6.48,17.85l17.77-13.12c-.25-2-.41-3.88-.49-5.46Z"/><path class="cls-33" d="M53.81,85.69h-4q.6,4.36,1.38,9.15l2.63,0Z"/><path class="cls-6" d="M53.81,86.39V86l-4-.16c0,.31.08.63.13.95l3.7.08Z"/><path class="cls-34" d="M53.54,94h-.85l0-8.1-.51,0v0h0V94h-.66l0-8-.5,0v0h0v7.79c.15.92.3,1.84.46,2.78h2.07Zm-2-7.73V86h0ZM52.69,86v-.13h0Z"/><path class="cls-35" d="M51.44,96.37c.64,3.77,1.37,7.7,2.21,11.76V96.37Z"/><rect class="cls-20" x="54.4" y="89.27" width="6.08" height="5.23"/><polygon class="cls-34" points="57.6 89.38 58.77 89.27 58.77 94.23 57.17 94.23 57.6 89.38"/><polygon class="cls-36" points="60.2 79.72 59.42 79.93 59.37 94.5 61.51 94.61 62.04 94.18 83.49 94.02 83.76 78.62 82.1 78.81 73.04 79.05 71.63 80.02 61.42 80.14 61.11 79.66 60.2 79.72"/><polygon class="cls-37" points="72.71 94.07 73.03 79.24 72.75 79.25 71.63 80.02 63.84 80.12 63.64 93.86 72.71 94.07"/><polygon class="cls-34" points="77.53 76.72 77.35 78.85 80.21 78.78 80.16 76.91 77.53 76.72"/><polygon class="cls-34" points="81.33 76.56 81.33 78.75 83.4 78.7 83.47 76.56 81.33 76.56"/><path class="cls-38" d="M61.86,80.13h2.46s.46.3.46.6-.6.62-.6.62L64.1,94.21,62,94.33Z"/><path class="cls-39" d="M63.26,92.1c.18,2,.53.21.74.1l.14-4.87,0-6H62.29C63,81.51,63.07,90,63.26,92.1Z"/><path class="cls-40" d="M54.08,95.41l.27,16q.78,3.57,1.68,7.25C64,114,76.08,106.88,84,102.37V95.46Z"/><path class="cls-41" d="M54.61,95V112.6q.68,3,1.42,6.08l6.68-3.94-.2-19.5Z"/><path class="cls-20" d="M55.84,96.37c0-.41,0-.85-.05-1.31h-.35v11.51S55.94,100.34,55.84,96.37Z"/><path class="cls-42" d="M63.68,92.79v21.38l9.06-5.3-.17-16.59Z"/><path class="cls-20" d="M72.33,95.46l-.11,13.71.52-.3L72.6,95.52Z"/><path class="cls-43" d="M74.37,92.79v15.13c3.24-1.89,6.33-3.68,9-5.21l-.11-10.43Z"/><path class="cls-20" d="M83,95.46l0,5.09,0-4.88-1-.21-.06,8.09,1.46-.84-.08-7.19Z"/><path class="cls-18" d="M52.69,94,83.91,94c.37,0,.48,1.61.21,1.61l-31.43.05A1,1,0,0,1,52.69,94Z"/><path class="cls-44" d="M84.17,94.33c-.06-.21-.15-.37-.26-.37L52.69,94a1,1,0,0,0-.36.88L83.8,95Z"/><path class="cls-45" d="M74.25,93.75V95l5,0a14.8,14.8,0,0,1-4.18-1.26Z"/><path class="cls-45" d="M64,93.8V95l4.29,0a18.35,18.35,0,0,1-3.65-1.17Z"/><path class="cls-45" d="M55.27,93.84v1.07l3.65,0a18.87,18.87,0,0,1-3.15-1.09Z"/><polygon class="cls-46" points="63.15 94.9 63.3 95.6 71.39 95.59 71.42 94.98 63.15 94.9"/><polygon class="cls-47" points="56.28 94.89 56.43 95.61 60.7 95.61 60.7 94.92 56.28 94.89"/><polygon class="cls-48" points="74.74 94.94 74.88 95.58 79.17 95.57 79.16 95.03 74.74 94.94"/><path class="cls-49" d="M54.77,79.82c-.79,0-1.55,2.43-1.76,3.12l.37,11,1.13.22,1.13-14.29Z"/><path class="cls-50" d="M55.41,79.87l-.64-.05c-.37,0-.73.53-1,1.17.26,3.43.11,11.2.26,12.8.21.3.38.25.54.13l.64-8.11Z"/><path class="cls-51" d="M56.11,79.82a6.67,6.67,0,0,0-1.5,1l-.1,8.59H57s.23-9.52,0-9.61A1.14,1.14,0,0,0,56.11,79.82Z"/><path class="cls-52" d="M56.08,89.05c.07-1.68.6-5.08,1-7.38a8.92,8.92,0,0,0-.1-1.85,1.09,1.09,0,0,0-.85,0,6,6,0,0,0-1.11.69C56.34,81,56.11,88.21,56.08,89.05Z"/><path class="cls-53" d="M57.49,79.82a8.48,8.48,0,0,0-1.49,1l-.11,8.59h2.46s.18-9.35,0-9.61S57.8,79.68,57.49,79.82Z"/><path class="cls-54" d="M57.23,88.58a3.27,3.27,0,0,0,1.16-2.07c0-2.76.07-6.53,0-6.69s-.55-.14-.86,0a8.3,8.3,0,0,0-1.42,1C56.58,82.83,56.42,89.07,57.23,88.58Z"/><path class="cls-55" d="M58.83,79.82a8.67,8.67,0,0,0-1.5,1l-.1,8.59h2.18s.27-9.56,0-9.62A.79.79,0,0,0,58.83,79.82Z"/><path class="cls-56" d="M59.45,79.81a.78.78,0,0,0-.62,0,8.67,8.67,0,0,0-1.5,1v.61c.24,2,.83,5.27,1.36,8h.72S59.68,79.87,59.45,79.81Z"/><path class="cls-6" d="M84.44,65.76c-.07-.18-.37-.23-.37-.24a48.86,48.86,0,0,1-5.67.32,49.75,49.75,0,0,1-5.7-.32v0s-.24.06-.31.21a.15.15,0,0,0,0,.07c0,.18.23.38.23.38a42.83,42.83,0,0,0,6,.42,41.62,41.62,0,0,0,5.61-.38.65.65,0,0,0,.22-.4S84.44,65.78,84.44,65.76Z"/><path class="cls-57" d="M73.93,66.06a52,52,0,0,0,9.34,0s-.64-7.31-4.7-7.31C74.3,58.75,73.93,66.06,73.93,66.06Z"/><path class="cls-58" d="M80.86,66.22l2.4-.2c0-.35-.74-7.27-4.69-7.27a3.24,3.24,0,0,0-.85.11l-1.12.63A6.73,6.73,0,0,1,80.86,66.22Z"/><path class="cls-59" d="M77.08,59.1c-2.87,1.45-3.15,7-3.15,7,1.48.13,2.95.19,4.4.2l.78,0C78.14,64.69,76.39,62.65,77.08,59.1Z"/><path class="cls-60" d="M75.82,60.17c-1.69,2.13-1.89,5.89-1.89,5.89.9.08,1.79.13,2.68.16A7.36,7.36,0,0,1,75.82,60.17Z"/><path class="cls-61" d="M82.76,63.41c-.47-1.67-1.33-3.64-2.88-4.37l-1.6.75C81.26,59.79,81.68,61.11,82.76,63.41Z"/><ellipse class="cls-62" cx="78.46" cy="59.15" rx="2.02" ry="0.73"/><path class="cls-63" d="M78.46,59.88c1,0,1.84-.27,2-.62A5.29,5.29,0,0,1,76.52,59a.32.32,0,0,0-.08.2C76.44,59.55,77.34,59.88,78.46,59.88Z"/><path class="cls-64" d="M73.36,75.55c-5.3,4.45,10.92,2.76,10.92,2.76s1.08.19,0,.57c0,0-31,.49-31.86.2-1.14-.38,21.13-5,21.13-5Z"/><path class="cls-20" d="M84.24,76.11,73.5,74.49l-.14,1.06c-5.3,4.45,10.92,2.76,10.92,2.76l.25.07C86.19,77.51,85.46,76.07,84.24,76.11Z"/><path class="cls-65" d="M73.26,74.92,83.53,74a2.14,2.14,0,0,1,1.13,2.34c-.09.75-12.1,1.12-12.52-.43C71.91,75.09,73.26,74.92,73.26,74.92Z"/><path class="cls-66" d="M75.08,74.76l-1.82.16s-1.35.17-1.12,1c.14.5,1.45.79,3.18,1A2.15,2.15,0,0,1,75.08,74.76Z"/><path class="cls-67" d="M84.66,76.35A2.14,2.14,0,0,0,83.53,74l-.6,0,1,1.07a1.63,1.63,0,0,1-.29,1.57C84.25,76.6,84.64,76.48,84.66,76.35Z"/><path class="cls-68" d="M72.59,66.64a1.59,1.59,0,0,0,0,.67.72.72,0,0,0,.32.51,1.08,1.08,0,0,0,.37.08v4.56s-.93.38-.93.88.88.88.88.88V75a7.63,7.63,0,0,0,4.38,1.31l2.1,0c1.93-.14,3.25-.63,3.85-1.3v-.91s.83-.57.74-1.07-.69-.75-.69-.75v-4.4a1.18,1.18,0,0,0,.51-.16.81.81,0,0,0,.26-.48,2.22,2.22,0,0,0,.06-.58H72.59Z"/><path class="cls-34" d="M76.69,73.53a5.42,5.42,0,0,1-2.44-4.12l.09,6.18.24.11a8.46,8.46,0,0,0,2.63.55C77.69,75.72,77.52,74.82,76.69,73.53Z"/><path class="cls-69" d="M75.8,73.8a4.73,4.73,0,0,1-2.57-1.64v.3s-.93.38-.93.88.88.88.88.88V75a6.59,6.59,0,0,0,1.74.87A2.31,2.31,0,0,1,75.8,73.8Z"/><path class="cls-70" d="M75.8,73.8h0c-1.88-.44-1.65-5.55-1.49-6.15S75,67,76.14,67l-1.09-.38H72.59a1.59,1.59,0,0,0,0,.67.72.72,0,0,0,.32.51,1.08,1.08,0,0,0,.37.08v4.26A4.73,4.73,0,0,0,75.8,73.8Z"/><path class="cls-34" d="M84.25,73c0-.31-.45-.59-.61-.7l-.11.09a1.43,1.43,0,0,1,.29.84c-.11.47-1,.66-1,.66l.73.77v-.59S84.34,73.52,84.25,73Z"/><path class="cls-6" d="M76.59,76.35V73.46l-.3-.23-.35,3Z"/><path class="cls-71" d="M83.43,64.43l-.11-.35s-.45-.4-.44-.73.44-.71.44-.71v-1a1,1,0,0,1-.28-.48c0-.25.31-.58.31-.58l.14-.82.16.85a1,1,0,0,1,.27.52,1.09,1.09,0,0,1-.23.51v1s.46.38.47.71-.4.72-.4.72l-.07.37c.54.2.4,1.44.4,1.44a3.42,3.42,0,0,1-1.24.2S82.86,64.56,83.43,64.43Z"/><path class="cls-72" d="M73.3,64.42,73.19,64s-.41-.4-.4-.72.47-.7.47-.7v-1a1.09,1.09,0,0,1-.23-.5,1.17,1.17,0,0,1,.27-.53l.16-.85.15.83s.32.32.31.57a1,1,0,0,1-.29.48v1s.44.38.45.7-.45.74-.45.74l0,.38c.57.13.51,1.62.51,1.62a9.17,9.17,0,0,1-1.32-.16S72.77,64.63,73.3,64.42Z"/><path class="cls-73" d="M77.18,58.67a10.54,10.54,0,0,0,1.26.12,10.28,10.28,0,0,0,1.25-.12v-3H77.21Z"/><path class="cls-20" d="M77.29,58.17l.56,0V56.27a.3.3,0,0,0-.28-.32.28.28,0,0,0-.28.28v1.94Z"/><path class="cls-20" d="M78.86,58.32l.56,0V56.34a.28.28,0,0,0-.28-.28.31.31,0,0,0-.28.33Z"/><path class="cls-6" d="M77,55.64a.82.82,0,0,1-.22-.51h0a.32.32,0,0,1,.13-.28h0a.55.55,0,0,1,.28-.06h.1a2.83,2.83,0,0,1,.08-.37h0a2,2,0,0,1,.82-1.08h0l.13-1.06c-.24-.12-.68-.34-.69-.62h0A.87.87,0,0,1,78,51h0l0-2.21.18-.37.16-3.32h0l.14,3.29.19.41,0,2.17a.92.92,0,0,1,.4.67h0c0,.26-.39.47-.58.57h0l.11,1.11a1.74,1.74,0,0,1,.83,1h0a1.23,1.23,0,0,1,0,.44h0a.65.65,0,0,1,.34.11h0a.34.34,0,0,1,.15.29h0a1,1,0,0,1-.13.42h0a11.84,11.84,0,0,1-1.57.11h0A7.6,7.6,0,0,1,77,55.64Z"/><path class="cls-29" d="M76.89,54.9a.25.25,0,0,0-.11.23h0a.86.86,0,0,0,.19.47h0a9.26,9.26,0,0,0,1.41.11h0c.52,0,1,0,1.54-.09h0a1.39,1.39,0,0,0,.11-.39h0A.31.31,0,0,0,79.9,55h0c-.09-.08-.32-.1-.34-.13h0a2.33,2.33,0,0,0-.06-.45h0a1.76,1.76,0,0,0-.81-1h0l-.11-1.15c.21-.13.57-.34.56-.55h0a.84.84,0,0,0-.38-.64h0l0-2.19-.19-.41-.12-2.72-.13,2.75-.17.37-.05,2.22s-.43.27-.43.62h0c0,.23.42.46.67.6h0l-.12,1.11a2,2,0,0,0-.82,1.07h0a2.47,2.47,0,0,1-.11.4h-.12a.51.51,0,0,0-.25.06Z"/><path class="cls-74" d="M77.46,55c.15-.4,1.06-.27,1.06-.27-.71-.71-.19-1.43.13-1.42a.5.5,0,0,0-.46,0v0a2,2,0,0,0-.82,1.07c-.05.14-.08.38-.11.4h-.12a.51.51,0,0,0-.25.06.25.25,0,0,0-.11.23.85.85,0,0,0,.18.46h0l.62.07A.93.93,0,0,1,77.46,55Z"/><path class="cls-20" d="M78.59,52.27v0c-.71-.32-.74-1.36,0-1.31h0V48.81s-.1-.22-.23-.23a.22.22,0,0,0-.15.09l-.07.16-.05,2.22s-.43.27-.43.62.42.46.67.6v0A.47.47,0,0,0,78.59,52.27Zm-.15-1.34h0Z"/><path class="cls-75" d="M74.19,66.06c0-1.06.35-2.14,1-2.19s1.17,1.26,1.31,2.35C76.52,66.22,74.86,66.16,74.19,66.06Z"/><path class="cls-6" d="M74.5,65.9v0h0v0h0c0-.14,0-1,.45-1.07h0c.42,0,.43.82.44,1.09h0a.18.18,0,0,1,0,.11h-.31a1.53,1.53,0,0,1-.56-.09Z"/><path class="cls-20" d="M75.34,66v-.08h0c0-.27,0-1-.39-1h0c-.38,0-.41.89-.41,1h0a1.4,1.4,0,0,0,.53.09h.28Z"/><path class="cls-76" d="M77.93,66.26s0-1.74.77-1.78.92,1.76.92,1.76C79,66.27,78.47,66.28,77.93,66.26Z"/><path class="cls-34" d="M79,64.54a.46.46,0,0,0-.26-.06c-.76,0-.77,1.78-.77,1.78h.28C78.18,65.43,78.36,64.86,79,64.54Z"/><path class="cls-6" d="M78.58,66.14h0a.45.45,0,0,1,0-.1h0c0-.19,0-.61.26-.62h0c.29,0,.29.64.3.71h0v0h0l-.28,0h0a1.24,1.24,0,0,1-.27,0Z"/><path class="cls-20" d="M78.85,66.15l.26,0h0c0-.07,0-.69-.27-.69h0c-.21,0-.24.41-.24.6h0v.09h0a1.15,1.15,0,0,0,.26,0Z"/><path class="cls-77" d="M81.73,66v0s0,0,0,0h0s0-1.28.54-1.3h0c.52,0,.59,1.14.6,1.14h0A2.25,2.25,0,0,1,82,66h0a.75.75,0,0,1-.22,0Z"/><path class="cls-45" d="M82,66a2.27,2.27,0,0,0,.86-.17h0c0-.14-.14-1-.55-1.06h0c-.43,0-.48,1.05-.48,1.21h0L82,66Z"/><path class="cls-78" d="M72.7,66a.35.35,0,0,0-.37.3.32.32,0,0,0,.24.37c1.2.53,10.78.45,11.66.11a.35.35,0,0,0,.26-.53.34.34,0,0,0-.4-.19C82.81,66.38,75.69,66.7,72.7,66Z"/><path class="cls-79" d="M77.53,77l-.08-.67.45-1,.19-8.3h1.52l.08,8.3.32.91,0,.75A7.41,7.41,0,0,1,77.53,77Z"/><path class="cls-80" d="M78.77,67.73a2,2,0,0,1,.84-.62V67H78.09L78,72.17l0,3.12S78.24,68.59,78.77,67.73Z"/><path class="cls-81" d="M76.7,75.4c.1.17.49.28.51.08.18-1.81.07-8.44.07-8.44h-.65S76.41,74.86,76.7,75.4Z"/><polygon class="cls-82" points="80.22 75.31 80.65 75.29 80.63 67.05 80.14 67.07 80.22 75.31"/><path class="cls-83" d="M80.19,67.07l.29,8.23h0c0-.62-.09-7.34.13-8.23v0Z"/><path class="cls-6" d="M81.32,71s0-.26,0-.61h0c0-.69,0-1.74.52-1.77h0c.53,0,.59,1.08.6,1.74h0c0,.3,0,.53,0,.53h0v0a2.11,2.11,0,0,1-.75.12h0a1.4,1.4,0,0,1-.33,0Z"/><path class="cls-20" d="M81.65,71a1.86,1.86,0,0,0,.71-.11h0s0-.25,0-.5h0c0-.65-.09-1.67-.55-1.69h0c-.38,0-.47,1-.47,1.71h0a4.77,4.77,0,0,1,0,.58h.3Z"/><path class="cls-84" d="M54.31,93.85h.43c-.06-2.58,1.14-4.35,4.7-4.13V88.61l-4.91,0Z"/><path class="cls-85" d="M72.16,79.05,74.57,79s1.49.94,1,1.46c-.27.31-1,.24-1,.24l0,14-2.19,0Z"/><path class="cls-86" d="M72.62,80.77c.7.17.77,9.25,1,11.32s.53.21.74.1l.26-6V80.67h0C74,80.62,73.75,80.74,72.62,80.77Z"/><path class="cls-87" d="M81.93,78.89h2.25s.67.13.81.67a1,1,0,0,1-.76,1.17l0,13.82-2.3.08Z"/><path class="cls-88" d="M83,91.47c.27,4.54,1,1.78,1.14.75l0-.3,0-11.19a1.51,1.51,0,0,0,.25-.1l-1.87.24C83.35,81.05,82.84,89.15,83,91.47Z"/><path class="cls-89" d="M82.12,95.62v7.81l2-1.15V95.62Z"/><path class="cls-34" d="M81.82,95.29a21.47,21.47,0,0,0,2.41,0c.23,0,.29.41.08.52a7.87,7.87,0,0,1-2.47,0C81.35,95.69,81.61,95.26,81.82,95.29Z"/><path class="cls-90" d="M81.35,95c0-.28.79-.62,1.73-.62s1.68.34,1.68.62-.76.51-1.71.51S81.35,95.23,81.35,95Z"/><path class="cls-91" d="M72.54,95.62V109l2-1.17V95.62Z"/><path class="cls-92" d="M74.25,100.47l.29-2.73V95.62h-1.3c.22,1.17.12,3.47.26,4.21C73.68,100.81,74,100.53,74.25,100.47Z"/><path class="cls-34" d="M72.22,95.28a10.53,10.53,0,0,1,2.51-.08c.25,0,.22.49,0,.63a6.57,6.57,0,0,1-2.47,0C72.06,95.77,72,95.53,72.22,95.28Z"/><path class="cls-93" d="M71.77,95c0-.28.79-.62,1.73-.62s1.68.34,1.68.62-.76.51-1.71.51S71.77,95.23,71.77,95Z"/><path class="cls-94" d="M62.11,95.62V115.1l2-1.18V95.62Z"/><path class="cls-95" d="M63.79,100.37l.32-2.51V95.62H62.65c.2,1.17,0,3.47.18,4.21C63,100.81,63.58,100.42,63.79,100.37Z"/><path class="cls-34" d="M61.84,95.35a16.68,16.68,0,0,1,2.46,0c.17.07.18.43,0,.48a15.43,15.43,0,0,1-2.47,0C61.62,95.66,61.62,95.5,61.84,95.35Z"/><path class="cls-96" d="M61.34,95A1.85,1.85,0,0,1,63,93.85c.94,0,2,.53,2,.81,0,.59-1,.8-2,.8S61.34,95.23,61.34,95Z"/><path class="cls-97" d="M53.54,95.62v12c.61,2.95,1.28,6,2,9v-21Z"/><path class="cls-34" d="M53.28,95.35l3-.1c.32.35.14.55-.53.58H53.27Z"/><path class="cls-98" d="M56.64,94.82c0-.56-1-1-2-1h-.07c-1,.35-1.54,1-1.37,1.5a4.17,4.17,0,0,0,1.23.16C55.42,95.46,56.65,95.1,56.64,94.82Z"/><path class="cls-99" d="M68.16,86.89c.21.26,1.54.43,1.7.19a6.8,6.8,0,0,0-.3-3.14.71.71,0,0,0-1-.22A5.46,5.46,0,0,0,68.16,86.89Z"/><path class="cls-100" d="M74.41,71.23a3.72,3.72,0,0,0,1.67.1s.28-2.77-.47-3.1C74.1,67.58,74.41,71.23,74.41,71.23Z"/><path class="cls-6" d="M74.53,70.9s0-.23,0-.53h0c0-.65.07-1.71.6-1.74h0c.47,0,.51,1.08.52,1.77h0a3,3,0,0,1,0,.64h0l-.38,0h0a1.46,1.46,0,0,1-.69-.16Z"/><path class="cls-20" d="M75.22,71c.11,0,.24,0,.35,0h0s0-.26,0-.61h0c0-.68-.09-1.68-.46-1.71h0c-.46,0-.55,1-.55,1.69h0c0,.28,0,.49,0,.5h0a1.48,1.48,0,0,0,.65.14Z"/><path class="cls-6" d="M75.12,68.68h0Z"/><rect class="cls-6" x="75.14" y="68.63"/><path class="cls-20" d="M74.15,80.59c-1.66-.23-1.53-.82-1-1.22L73,79.29c-.37-.25.56-.29,1-.32l-2.74.08c-8.39.1-17.91.18-18.81,0h0a1.44,1.44,0,0,0,0,.49,1.06,1.06,0,0,0,.78.55l.87.19,5.91-.1c.44,0,1.1.1,1.31.4.34.48.6,13.2.6,13.2,0-8.83-.22-12.23,2.24-12.47-2,.07-2.49-.91-1.59-1.18l9-.16a1.41,1.41,0,0,1,.34.63L72.43,94c.36-7.14-.89-11.55.77-12.87h0A2.59,2.59,0,0,0,74,81a8.92,8.92,0,0,0,1-.27C75,80.55,74.57,80.59,74.15,80.59Z"/><path class="cls-34" d="M74.11,79l10.15-.11c.12.16.13.49-.71.49l-9.44.1A2.23,2.23,0,0,1,73,79.29C72.64,79,73.71,79,74.11,79Z"/><path class="cls-20" d="M83.44,80.66h.14s-1.48,0-1.6-.6a1.57,1.57,0,0,1,.14-.7h-1c0,.06.51.1.47.48,0,.15-.31.33-.31.6s.28.37.3.59c.09,1.5,0,7.63.31,7.47,0,0-.18-7.2.23-7.44l.06,0c.15,0,.31,0,.45.06a2.56,2.56,0,0,0,.78-.08,9.36,9.36,0,0,0,1-.27C84.45,80.55,83.93,80.65,83.44,80.66Z"/><path class="cls-20" d="M68.13,87.52a9,9,0,0,1,1.68,0c.22.11.22.24.22.24s0,.25-.19.28a4.5,4.5,0,0,1-1.65-.22s-.32-.05-.3-.19S68.13,87.52,68.13,87.52Z"/><path class="cls-101" d="M52.63,85.1c-1-.42-2-.92-3.1-1.46.1.77.2,1.55.31,2.35h3.87A8.22,8.22,0,0,0,52.63,85.1Z"/><path class="cls-20" d="M53.45,81.89A2.48,2.48,0,0,0,53,83.08l0,2.34.34.26C53.39,84.4,53.41,83.13,53.45,81.89Z"/><polygon class="cls-34" points="54.52 88.63 54.52 88.47 59.34 88.06 59.44 88.64 54.52 88.63"/><path class="cls-34" d="M81.93,88.22l0,6a14.2,14.2,0,0,1-.46-4A13.55,13.55,0,0,1,81.93,88.22Z"/><path class="cls-20" d="M59.5,83.3l-.16,4.92a9.4,9.4,0,0,1-.43-2.87A9.14,9.14,0,0,1,59.5,83.3Z"/><path class="cls-20" d="M62.34,96.74c0-.76-.05-1.24,1.55-1.3-1-.14-2.74.14-1.63-1.38-.56.57-.27-2.24-1,1.14a.83.83,0,0,1,.37.81l.49,19.07.19-.08L62,106.37Z"/><path class="cls-102" d="M75,95.58h6.57s-3.4.32-5.3.3A4.87,4.87,0,0,1,75,95.58Z"/><path class="cls-102" d="M64.4,95.58h7.68s-4.51.32-6.41.3A4.87,4.87,0,0,1,64.4,95.58Z"/><path class="cls-20" d="M54.28,95.83c-1.72-.15-1.17-1.5.36-2l-.65,0c-.27-.08-.4-.41-.51-1-.08-2.17-.11-4.48-.1-6.78h-.33l.1,4.11L52.8,93.9a1.69,1.69,0,0,0-.66,1.94c-.22,0-.48.09-.77.13,0,.26.09.51.13.77l.94.1a1.28,1.28,0,0,1,1.11,1v9.83c.09.47.19.94.29,1.42.22-7.23.08-12.68,1.19-13.21Z"/><path class="cls-103" d="M78.82,103c-1.73.76-4.65,5-4.65,5l6.92-4A1.59,1.59,0,0,0,78.82,103Z"/><path class="cls-104" d="M55.63,109.62V117c.12.54.26,1.08.39,1.61l3.13-1.91C58.66,114.57,57.5,110.67,55.63,109.62Z"/><path class="cls-105" d="M69.55,106.56c-4.16,1.49-5.12,7.15-5.12,7.15l1.58-.9,6.13-3.59C72.27,108.6,72.8,105.39,69.55,106.56Z"/><path class="cls-45" d="M112.23,101.76c-.81-.75-2-2.08-2.63-2.63a7.42,7.42,0,0,0-2.39-1.31c-1.53-.86-14-.12-15.51.31S68.27,111.46,56,118.68c.2.84.41,1.68.62,2.52L92.18,99.73l14.08-.54,13.42,13.34,2.16-1.6C118.25,107.43,114.84,104.15,112.23,101.76Z"/><path class="cls-5" d="M91.7,98.13c-1.36.38-23.43,13.33-35.67,20.55.06.28.13.55.2.83l36.7-21.58A10,10,0,0,0,91.7,98.13Z"/><path class="cls-106" d="M106.26,99.19c-.66-.48-13.33.2-14,.32-.94.18-27.47,16.19-35.75,21.2,1.08,4.31,2.29,8.7,3.64,13.13L84,133.13c0-10.35,2.67-19.56,9.07-21,6.2-1.42,5.45,9.25,5,16.39l4.2-3.1c0-9.28,1-13.21,6.13-13.29,2.34,0,4,2.13,5.16,4.94l6.57-4.85C113.11,105.52,106.91,99.66,106.26,99.19Z"/><path class="cls-18" d="M87,113.51s4.3-5.54,8.52-4.89c2.77.42,2.69,3.19,5.08,3.89,3.36,1,3.11-5.87,8.71-2.13-6-.46-7.84,5.16-9.52,13.66,0,0,.57-10.47-2.7-12.66C93.16,108.73,89.72,110.81,87,113.51Z"/><path class="cls-107" d="M95.54,108.62c2.77.42,2.69,3.19,5.08,3.89s3-2.81,5.35-3.22a18.49,18.49,0,0,1-3.45-5.7,6.52,6.52,0,0,1,.48-3.74,52.12,52.12,0,0,0-8.26.32,13.16,13.16,0,0,0-2.18,6,3.7,3.7,0,0,0,.87,2.59A5,5,0,0,1,95.54,108.62Z"/><path class="cls-45" d="M108.4,112.11c2.34,0,4,2.13,5.16,5l1-.79c-.87-3.59-2.76-6.2-6.51-5.89-4.14.36-6.7,3.24-8.27,6.9-.75-4.1-2.64-7.24-6.73-6.9-10.51.9-10.85,18.06-10.74,22.8l1.6-.05c0-10.35,2.67-19.56,9.07-21,4.48-1,5.33,4.26,5.3,10,0,2.2-.15,4.44-.26,6.42l4.19-3.1C102.31,116.12,103.25,112.19,108.4,112.11Z"/><path d="M105.63,99.23a50.18,50.18,0,0,0-13.45.73c-.64.28-1.82.87-3.08,1.54-6.4,3.32-17.5,9.9-32.61,19.08l.57,2.21a257.52,257.52,0,0,1,35.69-22.31c3.91-.77,10.28-.88,12.69-.36,1.45.31,8.56,6.94,13.76,12.76l.83-.61C113.24,105.64,107.13,99.83,105.63,99.23Z"/><path class="cls-108" d="M75.75,117.82c-.13,0-.27-.9-.34-1.44.06.54.15,1.43,0,1.44l-1.92,0-1.52,0c-.14,0-.22-.88-.25-1.33,0,.45,0,1.34-.09,1.35-2.38.07-5.68.21-8.23.33l-.24.17,1.82,0c.2,0,.18,1.37.18,1.37s0-1.37.2-1.37c1.26,0,3.3-.06,4.54-.08.12,0,.13.84.13,1.33,0-.48,0-1.3.17-1.3l3.07-.08,3.63-.13a1.87,1.87,0,0,1,.15-.32Z"/><path class="cls-109" d="M78.45,115.14l1.1,0,.61-.39a4.86,4.86,0,0,1-.1-1.31c0,.48,0,1.3-.17,1.31l-3.07.08-3.83.13c-.15,0-.14-1.28-.13-1.83a7.18,7.18,0,0,1-.18,1.79c-1.56.06-3.17.14-4.66.21l-.24.16c.53,0,1.07,0,1.63,0a10.7,10.7,0,0,1,.15,2,8.35,8.35,0,0,1,.09-2c1.37,0,3.38,0,4.72,0,.13,0,.27.9.34,1.44-.06-.54-.15-1.44,0-1.44l1.92,0,1.52,0c.11,0,.18.5.22.94l0,0C78.34,115.64,78.35,115.14,78.45,115.14Z"/><path class="cls-110" d="M112.63,107.92l-1.51,0c-.15,0-.22-.88-.26-1.33,0,.45.06,1.34-.08,1.34-2.59.08-6.27.24-8.89.37-.21,0-.26-.93-.27-1.58,0,.66-.06,1.59-.24,1.62-1.46.07-2.87.11-4.08.14l6.83-.06c.19,0,.17,1.36.17,1.36s0-1.36.21-1.36l4.54-.08c.12,0,.13.85.13,1.34,0-.49,0-1.31.17-1.32l3.07-.08,2.41-.08-.35-.35Z"/><path class="cls-111" d="M85.62,104.89c.2,0,.18,1.36.18,1.36s0-1.36.2-1.36l4.55-.08c.11,0,.13.84.12,1.33,0-.48,0-1.3.17-1.31l3.07-.08,3.83-.13c.16,0,.14,1.28.13,1.83a7.18,7.18,0,0,1,.18-1.79c5.19-.21,11-.56,11-.56s-3.7.2-7.73.19a9.77,9.77,0,0,1-.16-2,8.49,8.49,0,0,1-.09,2c-1.36,0-3.38,0-4.72,0-.12,0-.26-.89-.34-1.43.07.54.16,1.43,0,1.43l-1.92,0-1.51,0c-.15,0-.23-.88-.26-1.33,0,.45,0,1.34-.08,1.34-2.12.07-5,.18-7.38.3l-.36.2Z"/><path class="cls-6" d="M82.36,132.72c-.1-5.76,1.1-19.86,9.17-22.18C82.88,113.32,81.55,123.28,82.36,132.72Z"/><path class="cls-6" d="M109,110.35c-7.8-1.28-9.08,8.39-8.91,16.69l.12-.09C100.42,117.77,103,109.78,109,110.35Z"/><path class="cls-6" d="M90.18,111c2.95-2.4,9.14-1.55,9.36,5A6.63,6.63,0,0,0,90.18,111Z"/><path class="cls-13" d="M73.84,134.53c3.93-.27,10-1.4,10-1.4l-23.68.71v0l.09.27A98.78,98.78,0,0,0,73.84,134.53Z"/><path class="cls-18" d="M114.15,113.32c-1.74-3.17-4.17-2.81-4.17-2.81,1.89.36,3.35,1.82,4.55,5.83l.27-.2A6.19,6.19,0,0,0,114.15,113.32Z"/><path class="cls-112" d="M105.63,99.23a50.18,50.18,0,0,0-13.45.73c-.64.28-1.82.87-3.08,1.54-6.4,3.32-17.5,9.9-32.61,19.08l.57,2.21a257.52,257.52,0,0,1,35.69-22.31c3.91-.77,10.28-.88,12.69-.36,1.45.31,8.56,6.94,13.76,12.76l.83-.61C113.24,105.64,107.13,99.83,105.63,99.23Z"/><path class="cls-20" d="M120.13,112.19c-3.17-3.51-12.46-13.6-14.51-13.74-5.48-.38-8.7-.5-14.08.64-2.73.57-25,14.33-35.24,20.71.07.26.13.52.2.78,15.1-9.18,26.2-15.76,32.6-19.08,1.26-.67,2.44-1.26,3.08-1.54a50.18,50.18,0,0,1,13.45-.73,22.59,22.59,0,0,1,4,3.19l.17.15.12.11c3.48,3.12,8,7.52,10.1,9.57Z"/><path class="cls-18" d="M88.83,111.75s-9.31,1.38-11.69,5.9c-3,5.64,5.25,15.48,5.25,15.48C81.52,123.06,83,115.33,88.83,111.75Z"/><path class="cls-34" d="M82.34,132.75l-22.54-.18c.12.42.24.84.37,1.26l22.17-.65Z"/><path class="cls-113" d="M62.92,129.87c0-.49,0-1.31.17-1.32l3.07-.08,3.83-.13c.15,0,.14,1.28.13,1.83a6.32,6.32,0,0,1,.18-1.79c5.19-.21,11-.56,11-.56s-3.7.2-7.74.2a10.13,10.13,0,0,1-.15-2,8.44,8.44,0,0,1-.09,2c-1.37,0-3.38,0-4.72,0-.13,0-.27-.9-.34-1.44.06.54.15,1.44,0,1.44l-1.92,0-1.52,0c-.15,0-.22-.88-.26-1.33,0,.45.06,1.34-.08,1.34-1.71.06-3.9.14-5.95.23l.07.25,4.15-.07C62.91,128.52,62.92,129.38,62.92,129.87Z"/><circle class="cls-6" cx="90.92" cy="97.09" r="1.82"/><circle class="cls-20" cx="90.92" cy="97.09" r="1.82"/><path class="cls-34" d="M90.68,98a1.62,1.62,0,0,1-.74-1.73,1.41,1.41,0,0,1,1.86-.79,1.46,1.46,0,0,1,.84,1.88A2.1,2.1,0,0,1,90.68,98Z"/><path class="cls-114" d="M91.8,95.45a1.3,1.3,0,0,0-1.14,0,.93.93,0,0,1,0,.1,1.35,1.35,0,0,0,2.1,1.53A1.48,1.48,0,0,0,91.8,95.45Z"/><circle class="cls-20" cx="104.94" cy="95.96" r="1.82"/><path class="cls-34" d="M104.79,96.72a1.88,1.88,0,0,1-.77-1.87A1.46,1.46,0,0,1,106.69,96,1.77,1.77,0,0,1,104.79,96.72Z"/><path class="cls-115" d="M105.92,94.17a1.47,1.47,0,0,0-1.37.08l-.1.17a1.88,1.88,0,0,0,.77,1.87,1.71,1.71,0,0,0,1.47-.25A1.43,1.43,0,0,0,105.92,94.17Z"/></g></g></svg>