<svg xmlns="http://www.w3.org/2000/svg" xmlns:xlink="http://www.w3.org/1999/xlink" viewBox="0 0 300 300"><defs><style>.cls-1{fill:none;}.cls-2{fill:#231f20;}.cls-3{fill:#a29061;}.cls-4{clip-path:url(#clip-path);}.cls-5{fill:#80000b;}.cls-6{fill:#817244;}.cls-7{fill:#a39161;}</style><clipPath id="clip-path"><path class="cls-1" d="M51.71,150A98.29,98.29,0,1,0,150,51.71,98.29,98.29,0,0,0,51.71,150"/></clipPath></defs><title>Atl</title><g id="Слой_2" data-name="Слой 2"><g id="Layer_1" data-name="Layer 1"><path class="cls-2" d="M300,150A150,150,0,1,1,150,0,150,150,0,0,1,300,150"/><path class="cls-3" d="M150,296.65A146.52,146.52,0,0,1,46.4,46.53a146.51,146.51,0,1,1,207.2,207.2A145.52,145.52,0,0,1,150,296.65M150,7.22C71.2,7.22,7.09,71.33,7.09,150.13S71.2,293.05,150,293.05s142.91-64.11,142.91-142.92S228.8,7.22,150,7.22"/><g class="cls-4"><rect class="cls-5" x="126.78" y="50.65" width="46.05" height="198.69"/></g><g class="cls-4"><rect class="cls-5" x="49.52" y="70.13" width="38.47" height="159.73"/></g><g class="cls-4"><rect class="cls-5" x="211.62" y="70.13" width="38.47" height="159.73"/></g><path class="cls-2" d="M179,94.86l9.56-19.17h-77.2l9.56,19.18L79.7,217.1l37.41,24.53,7.79-22.22h50.54l7.17,22.05L220.52,217Zm-39.33,81L150,144.78l10.66,31.05Z"/><path class="cls-3" d="M175.13,94.6l7.67-15.35H117.12l7.67,15.35L82.92,218.78l14.44,13.49,7.5,3.54,9.07,4,8.42-24h55.7l8.1,24.94,15.31-8.19,16.06-13.26ZM134.7,179.42,150,133.59l15.73,45.84Z"/><polygon class="cls-6" points="134.7 179.42 109.3 197.65 150.03 79.17 190.78 197.65 165.69 179.43 149.96 133.59 134.7 179.42"/><polygon class="cls-6" points="98.55 228.91 109.3 197.65 190.78 197.65 201.27 228.18 185.11 237.56 178.05 215.83 122.36 215.83 114.77 237.47 98.55 228.91"/><path class="cls-3" d="M150,249.5a99.5,99.5,0,1,1,99.5-99.5A99.61,99.61,0,0,1,150,249.5m0-194.95A95.46,95.46,0,1,0,245.49,150,95.56,95.56,0,0,0,150,54.55"/><path class="cls-6" d="M150,245.91A95.91,95.91,0,1,1,246,150,96,96,0,0,1,150,245.91m0-188.24A92.33,92.33,0,1,0,242.36,150,92.44,92.44,0,0,0,150,57.67"/><path class="cls-7" d="M154.45,18.37l.81-2.59q-5.2-.27-10.41,0l.79,2.59q-3.7,12.14-7.4,24.51,3.09-.33,6.19-.48l1.14-4.07c2.94-.11,5.87-.11,8.81,0,.38,1.36.76,2.72,1.13,4.08,2.07.12,4.13.29,6.19.53q-3.62-12.41-7.25-24.56M150,22.48q1.41,5.11,2.82,10.26c-1.9-.06-3.81-.06-5.71,0q1.44-5.13,2.89-10.24"/><path class="cls-7" d="M218.83,66.88q2.4,2,4.67,4.08l3.72-2q3.21,3,6.15,6.31l-2.13,3.65q2.06,2.34,4,4.78,6.33-11.26,12.45-22.36l2.42-1.24q-2.91-3.3-6.1-6.35-12.47,6.47-25.14,13.16m13.47-.74L241.63,61c-1.77,3.06-3.56,6.13-5.34,9.21-1.29-1.4-2.63-2.77-4-4.1"/><path class="cls-7" d="M211.11,30.18l-2.85,4.73q2.94,1.52,5.81,3.17l-10.9,18.05q2.49,1.44,4.91,3,5.46-9,10.89-18.06,2.44,1.55,4.83,3.18L228,40.45a146.44,146.44,0,0,0-16.93-10.27"/><path class="cls-7" d="M192.12,22.25l-4.46,15q-1.54-8.81-3.2-17.31c-2-.53-4.11-1-6.18-1.41,0,.9,0,1.79,0,2.68l-6.81,23c1.87.38,3.74.82,5.59,1.3q2.22-7.52,4.45-15,1.63,8.52,3.2,17.33,2.61.9,5.18,1.93l7.57-25.51c-1.78-.72-3.57-1.38-5.38-2"/><path class="cls-7" d="M56.61,53.72q-3.18,3-6.1,6.35l2.41,1.24Q59.05,72.4,65.38,83.67q1.91-2.44,4-4.77L67.2,75.24q3-3.28,6.15-6.31l3.73,2q2.27-2.11,4.67-4.08-12.68-6.7-25.14-13.16m7.68,16.52L59,61l9.33,5.12c-1.36,1.32-2.69,2.69-4,4.09"/><path class="cls-7" d="M89.47,30.18l2.85,4.73q-2.94,1.52-5.81,3.17L97.4,56.13c-1.65,1-3.29,1.95-4.9,3Q87,50.07,81.6,41q-2.43,1.55-4.82,3.18l-4.24-3.77A146.44,146.44,0,0,1,89.47,30.18"/><path class="cls-7" d="M116.41,41.87q-2.89-10.14-5.8-20.27-2.74.86-5.44,1.83L112.49,49a121.64,121.64,0,0,1,14.83-4.35c0-1.89.09-3.79.13-5.67-3.72.78-7.41,1.74-11,2.88"/><path class="cls-7" d="M108.82,249.35c-1.75-.77-3.49-1.55-5.22-2.37q-5.49,12.12-11,24.24c1.72.81,3.47,1.6,5.22,2.36q5.48-12.12,11-24.23"/><path class="cls-7" d="M135.22,256.59c-.42,1.79-.83,3.59-1.25,5.38q-3.28-.47-6.52-1.13-2.39,10.28-4.76,20.54-2.82-.58-5.59-1.3,2.37-10.26,4.76-20.53-3.21-.84-6.36-1.86c.42-1.79.83-3.59,1.25-5.38a110.22,110.22,0,0,0,18.47,4.28"/><path class="cls-7" d="M149.77,273.4c3,0,6-.09,9-.32,0-1.84-.08-3.68-.11-5.53-3,.24-6,.34-9,.32l-.09-4.68a108.47,108.47,0,0,0,11.4-.53c-.6-1.79-1.19-3.58-1.79-5.37a109.28,109.28,0,0,1-15.46.19l.54,26.6a109.14,109.14,0,0,0,15.45-.19c.53-1.89,1.05-3.78,1.58-5.68a106,106,0,0,1-11.41.53c0-1.78-.07-3.56-.1-5.34"/><path class="cls-7" d="M190.27,257.23a6.46,6.46,0,0,0-8.31-4.37,113,113,0,0,1-12.19,3l1.5,2.38q3.24,11.55,6.46,23.09a111.53,111.53,0,0,0,11.39-2.85,7.26,7.26,0,0,0,4.64-8.8q-1.74-6.22-3.49-12.46m-1.93,14.34a1.36,1.36,0,0,1-.9,1.65q-2.77.86-5.6,1.55-2.1-7.49-4.19-15c1.88-.48,3.75-1,5.6-1.56a1.27,1.27,0,0,1,1.6.87q1.76,6.22,3.49,12.46"/><path class="cls-7" d="M89.11,238.54l-9.35,12.57q1.38-8.55,2.94-17.34-2.15-1.74-4.22-3.57-8,10.67-15.88,21.34,2.15,1.92,4.38,3.7l9.35-12.57Q74.79,251.46,73.4,260q2.28,1.58,4.63,3l15.88-21.35q-2.44-1.5-4.8-3.14"/><path class="cls-7" d="M67.53,218.76l-16,12.4a1.36,1.36,0,0,1-1.87-.21c-.95-1.16-1.87-2.35-2.77-3.55a1.34,1.34,0,0,1,.26-1.85l16-12.4c-1.28-1.76-2.5-3.57-3.67-5.41L57.82,210,43.9,220.81a7.21,7.21,0,0,0-1.5,9.81q1.45,2,3,3.87a7.28,7.28,0,0,0,9.92,1l16-12.39q-2-2.1-3.81-4.3"/><path class="cls-7" d="M218.75,240.09c3-2.3,6-4.74,8.75-7.33l-4.67-3.2a115.52,115.52,0,0,1-12.83,10l2.29,1.61L227.16,260c1.58-1.07,3.14-2.19,4.66-3.34l-6.74-8.53q3.58-2.72,6.94-5.69l-3.42-4.34q-3.36,3-6.95,5.69l-2.9-3.67"/><path class="cls-7" d="M246.63,211.21a6.58,6.58,0,0,0-9.36,1.48q-1.44,2-3,3.91a6.57,6.57,0,0,0,1.1,9.41l11.06,8.38a7.12,7.12,0,0,0,9.79-1.16c1-1.29,2-2.59,3-3.91a7.12,7.12,0,0,0-1.54-9.74l-1.72-1.3q-1.59,2.39-3.26,4.71l1.72,1.31a1.33,1.33,0,0,1,.27,1.85c-.88,1.21-1.79,2.4-2.71,3.58a1.34,1.34,0,0,1-1.86.24l-11.05-8.37a1.28,1.28,0,0,1-.23-1.82c.92-1.18,1.83-2.38,2.71-3.59a1.3,1.3,0,0,1,1.82-.27l1.19.91c1.12-1.55,2.2-3.12,3.26-4.72l-1.19-.9"/><path class="cls-7" d="M250.11,84.92A119.57,119.57,0,0,1,257,203.05l3.26,1.63a123.19,123.19,0,0,0-8.2-123.44Z"/><path class="cls-7" d="M49.89,84.92A119.57,119.57,0,0,0,43,203.05l-3.27,1.63a123.25,123.25,0,0,1,8.2-123.44Z"/></g></g></svg>