<svg xmlns="http://www.w3.org/2000/svg" viewBox="0 0 229.21 300"><defs><style>.cls-1{fill:#ffd42e;}.cls-2{fill:#ba3733;}.cls-3{fill:#fff;}.cls-4{fill:#46714d;}.cls-5{fill:#221f1f;}</style></defs><title>Augsburg</title><g id="Слой_2" data-name="Слой 2"><g id="Слой_1-2" data-name="Слой 1"><g id="layer1"><g id="g8316"><path id="path2522" class="cls-1" d="M0,0V185.33a114.61,114.61,0,1,0,229.21,0V0H0"/><path id="path2524" class="cls-2" d="M226.68,2.46V185.33a112.08,112.08,0,0,1-224.15,0V2.46H226.68"/><path id="path2526" class="cls-1" d="M6,185.33a108.6,108.6,0,1,0,217.2,0V89H6v96.35"/><path id="path2528" class="cls-1" d="M223.21,5.86H6V85.39h217.2V5.86"/><path id="path2530" class="cls-3" d="M220.67,8.5H8.54V82.93H220.67V8.5"/><path id="path2532" class="cls-3" d="M114.62,91.44V291.5a106.22,106.22,0,0,0,106-106.17V91.44h-106"/><path id="path2534" class="cls-2" d="M31.1,21.16H75.62v10H43.94v7.75H74.11v9.82H43.94V63.29H31.1V21.16"/><path id="path2536" class="cls-2" d="M118.92,47h12.85c.09,2.08.13,3.4.13,4,0,3.21-.47,5.85-1.43,7.55-1.08,2.08-3.18,3.59-6.28,4.35s-8.48.94-16.13.94c-8,0-13.73,0-17.15-.37a22.44,22.44,0,0,1-7.69-1.7,8.58,8.58,0,0,1-3.48-3.4,14.25,14.25,0,0,1-1.47-5.48C78.08,51,78,47.42,78,42.51s.1-8.5.29-10.58a17,17,0,0,1,1.08-5.1q1.75-4,7.14-5.1c3.57-.76,10.8-1.33,21.66-1.33,5.43,0,9.38.19,11.85.38a20,20,0,0,1,5.89,1.51,8.24,8.24,0,0,1,4,4,20.56,20.56,0,0,1,1.17,7.93c0,.19,0,.76,0,2.08H118.24a15.1,15.1,0,0,0-.26-2.83,1.51,1.51,0,0,0-.7-1.14c-.49-.56-1.74-.75-3.72-.94s-5-.38-9.09-.38a73.25,73.25,0,0,0-8.33.38c-1.55.19-2.65.38-3.27.94a5.21,5.21,0,0,0-1.6,3,42.49,42.49,0,0,0-.44,7.18,37.93,37.93,0,0,0,.4,6.61A4.34,4.34,0,0,0,92.78,52a6.91,6.91,0,0,0,3.44,1.14c1.56.18,4.36.18,8.35.18,4.91,0,8.19,0,9.84-.18a5.7,5.7,0,0,0,3.3-1.14c.78-.56,1.18-2.26,1.21-4.91"/><path id="path2538" class="cls-2" d="M8.54,91.44v93.89A106.24,106.24,0,0,0,114.62,291.5V91.44H8.54"/><path id="path2540" class="cls-2" d="M154.76,46.85,162.51,31h1.77l7.8,15.87Zm19.29-25.69H153.17L129.9,66.5H96.76v10h43.62l9.88-20.4h26.36l9.94,20.4h16.92L174.05,21.16"/><path id="path2542" class="cls-4" d="M63.93,76.51H96.76v-10H63.93Z"/><path id="path2544" class="cls-2" d="M31.1,76.51H63.93v-10H31.1Z"/><path id="path2546" class="cls-3" d="M97.82,67.63v7.75H128.9V67.63H97.82"/><path id="path2548" class="cls-3" d="M103,268.64c-2,0-3.44-1.32-3.44-5.1,0-2.65,1-4.53,3.11-4.53,2.78,0,4,3.21,4,5.85a12.26,12.26,0,0,1-.36,3A6.15,6.15,0,0,1,103,268.64Zm.07-11.9a6.86,6.86,0,0,0-6.88,7.18c0,4.15,2.5,7,6.33,7a7.43,7.43,0,0,0,2.93-.57A13.07,13.07,0,0,1,97.76,277l.89,2.08a17.63,17.63,0,0,0,7.54-4.34,14.16,14.16,0,0,0,3.84-9.45c0-5.67-3.42-8.5-6.92-8.5"/><path id="path2550" class="cls-3" d="M88.53,259.57l2.66-.94V257.3H82.52v1.33l2.64.94v9.83l-2.64.75v1.32h8.67v-1.32l-2.66-.75v-9.83"/><path id="path2552" class="cls-2" d="M127.08,269.4a5.13,5.13,0,1,1,4.67-5.11A4.78,4.78,0,0,1,127.08,269.4Zm0-12.66a7.56,7.56,0,1,0,7.92,7.55,7.64,7.64,0,0,0-7.92-7.55"/><path id="path2554" class="cls-2" d="M136.38,257.3V260h9.29c-2.23,3.4-6.25,11.52-7.48,17.95H141c1.12-5.48,5.21-13.61,8.35-18.52V257.3H136.38"/><path id="path2556" class="cls-5" d="M155.27,202.33,142.67,191a172.64,172.64,0,0,1-17.51,2.08l-.13-8.88c10.54-.94,15.58-3.77,20.19-8.12,5.54-5.29,8.12-12.09,8.12-21.91,0-16.63-9.78-32.31-18.15-40.62a40,40,0,0,0-20.35-11.15h-.47A40.06,40.06,0,0,0,94,113.54c-8.37,8.31-18.13,24-18.13,40.62,0,9.82,2.57,16.62,8.1,21.91,4.61,4.35,9.66,7.18,20.22,8.12l-.15,8.88A173.51,173.51,0,0,1,86.54,191l-12.6,11.34L79.08,208a9.28,9.28,0,0,0-.76,3.78A7.14,7.14,0,0,0,85.43,219a6.37,6.37,0,0,0,4.78-2.07,5.55,5.55,0,0,0,.92-1.89c3.25,6.8,5.2,17.57,6.05,33.44l.06,1.13H132l.07-1.13c.83-15.87,2.8-26.64,6-33.44a5.34,5.34,0,0,0,.9,1.89,6.38,6.38,0,0,0,4.8,2.07,7.15,7.15,0,0,0,7.11-7.17,9.63,9.63,0,0,0-.76-3.78l5.12-5.67"/><path id="path2558" class="cls-4" d="M116.67,181.93l7.62-4.54-9.67-5.66-9.7,5.66,7.62,4.54h4.13"/><path id="path2560" class="cls-4" d="M128.71,121.1l9.67,5.85,2.78-1.7a55.6,55.6,0,0,0-6-7.93l-6.42,3.78"/><path id="path2562" class="cls-4" d="M90.83,171.73l-4.65,2.83A26.41,26.41,0,0,0,96.12,180l4.4-2.65-9.69-5.66"/><path id="path2564" class="cls-4" d="M99.26,180.79a51.93,51.93,0,0,0,8.61,1l-5.16-3-3.45,2.07"/><path id="path2566" class="cls-4" d="M121.34,181.74a51.93,51.93,0,0,0,8.62-1l-3.46-2.07-5.16,3"/><path id="path2568" class="cls-4" d="M144.67,172.86a20.91,20.91,0,0,0,4.4-7.56l-8.48,5.1,4.08,2.46"/><path id="path2570" class="cls-4" d="M150.19,147.92a51.65,51.65,0,0,0-2.59-9.82l-7,4.15,9.6,5.67"/><path id="path2572" class="cls-4" d="M150.36,150.57h-.1l-9.67,5.66L150,161.9a38.83,38.83,0,0,0,.7-7.74c0-1.14-.1-2.46-.21-3.59h-.13"/><path id="path2574" class="cls-4" d="M128.71,177.39l4.38,2.65a26.1,26.1,0,0,0,9.94-5.48l-4.65-2.83-9.67,5.66"/><path id="path2576" class="cls-4" d="M80.16,165.3a21,21,0,0,0,4.38,7.56l4.08-2.46-8.46-5.1"/><path id="path2578" class="cls-4" d="M122.85,107.87a38.85,38.85,0,0,0-8.23-2.83,38.63,38.63,0,0,0-8.26,2.83l8.26,4.91,8.23-4.91"/><path id="path2580" class="cls-4" d="M112.41,114.11,104,109.19a42.94,42.94,0,0,0-8.15,6.24c-.07,0-.15.19-.2.19l7,4.15,9.7-5.66"/><path id="path2582" class="cls-4" d="M126.5,119.77l7.05-4.15c-.08,0-.16-.19-.23-.19a42.58,42.58,0,0,0-8.14-6.24l-8.37,4.92,9.69,5.66"/><path id="path2584" class="cls-4" d="M100.52,121.1l-6.42-3.78a54.16,54.16,0,0,0-6,7.93l2.76,1.7,9.69-5.85"/><path id="path2586" class="cls-4" d="M79,150.57h-.23c-.11,1.13-.19,2.45-.19,3.59a40.46,40.46,0,0,0,.68,7.74l9.41-5.67L79,150.57"/><path id="path2588" class="cls-4" d="M81.61,138.1A50.15,50.15,0,0,0,79,147.92l9.58-5.67-7-4.15"/><path id="path2590" class="cls-4" d="M86.88,127.14c-.6,1-1.21,2.08-1.75,3l3.49-2.07-1.74-1"/><path id="path2592" class="cls-4" d="M90.83,140.93l9.69-5.67-9.69-5.85-7.5,4.53a16.64,16.64,0,0,0-.89,2.08l8.39,4.91"/><path id="path2594" class="cls-4" d="M104.92,149.24l9.7,5.86,9.67-5.86-9.67-5.66-9.7,5.66"/><path id="path2596" class="cls-4" d="M90.83,157.56l-9.67,5.85,9.67,5.67,9.69-5.67-9.69-5.85"/><path id="path2598" class="cls-4" d="M93,170.4l9.67,5.67,9.7-5.67-9.7-5.66L93,170.4"/><path id="path2600" class="cls-4" d="M100.52,149.24l-9.69-5.66-9.67,5.66,9.67,5.86,9.69-5.86"/><path id="path2602" class="cls-4" d="M112.41,128.09l-9.7-5.67L93,128.09l9.67,5.85,9.7-5.85"/><path id="path2604" class="cls-4" d="M112.41,142.25l-9.7-5.66L93,142.25l9.67,5.67,9.7-5.67"/><path id="path2606" class="cls-4" d="M114.62,157.56l-9.7,5.85,9.7,5.67,9.67-5.67-9.67-5.85"/><path id="path2608" class="cls-4" d="M116.81,170.4l9.69,5.67,9.67-5.67-9.67-5.66-9.69,5.66"/><path id="path2610" class="cls-4" d="M116.81,142.25l9.69,5.67,9.67-5.67-9.67-5.66-9.69,5.66"/><path id="path2612" class="cls-4" d="M138.38,155.1l9.67-5.86-9.67-5.66-9.67,5.66,9.67,5.86"/><path id="path2614" class="cls-4" d="M128.71,163.41l9.67,5.67,9.67-5.67-9.67-5.85-9.67,5.85"/><path id="path2616" class="cls-4" d="M116.81,128.09l9.69,5.85,9.67-5.85-9.67-5.67-9.69,5.67"/><path id="path2618" class="cls-4" d="M124.29,121.1l-9.67-5.67-9.7,5.67,9.7,5.85,9.67-5.85"/><path id="path2620" class="cls-4" d="M144.11,130.16c-.57-.94-1.16-2.07-1.78-3l-1.74,1,3.52,2.07"/><path id="path2622" class="cls-4" d="M138.38,129.41l-9.67,5.85,9.67,5.67,8.39-4.91a16.75,16.75,0,0,0-.87-2.08l-7.52-4.53"/><path id="path2624" class="cls-4" d="M93,156.23l9.67,5.86,9.7-5.86-9.7-5.66L93,156.23"/><path id="path2626" class="cls-4" d="M114.62,129.41l-9.7,5.85,9.7,5.67,9.67-5.67-9.67-5.85"/><path id="path2628" class="cls-4" d="M136.17,156.23l-9.67-5.66-9.69,5.66,9.69,5.86,9.67-5.86"/><path id="path2630" class="cls-1" d="M93,201.2h11l.1-5.86a123,123,0,0,1-16.8-2.08c-4.12,3.78-7.74,7.18-10.11,9.26l3.14,3.4c2.34-3,6.75-4.72,12.71-4.72"/><path id="path2632" class="cls-1" d="M142,193.26a162,162,0,0,1-16.77,2.08l.09,5.86h10.94c6,0,10.37,1.7,12.73,4.72l3.12-3.4c-2.36-2.08-6-5.48-10.11-9.26"/><path id="path2634" class="cls-1" d="M114.62,201.39h-8.43l.26-17c2.44.19,5.14.19,8.17.19s5.72,0,8.16-.19l.26,17h-8.42"/><path id="path2636" class="cls-1" d="M90.23,203.46c-6.18.76-9.66,3.78-9.66,8.32a4.93,4.93,0,0,0,4.86,4.91,4.18,4.18,0,0,0,3-1.14c.74-.94.89-2.45.47-4.34l2-1c4.14,5.86,6.63,15.31,7.92,30.42l6.63-16.25c-4.59-10-9.75-18.32-15.28-21"/><path id="path2638" class="cls-1" d="M106.68,221.6l7.44-17.95-19.72-.19c4,3.22,8,9.07,12.28,18.14"/><path id="path2640" class="cls-1" d="M134.81,203.46l-19.7.19,7.44,17.95c4.27-9.07,8.26-14.92,12.26-18.14"/><path id="path2642" class="cls-1" d="M108,224.43c2.13,4.92,4.34,10.39,6.67,16.82,2.32-6.43,4.51-11.9,6.65-16.82-3.14-7.55-5.94-14.35-6.65-16.05-.74,1.7-3.52,8.5-6.67,16.05"/><path id="path2644" class="cls-1" d="M106.78,227.27c-2.8,6.8-5.69,13.79-7.52,18.32,0,.57,0,1.14.09,1.7h15l-.79-2.26c-2.08-5.86-4.35-12.1-6.78-17.76"/><path id="path2646" class="cls-1" d="M139,203.46c-5.52,2.65-10.7,11-15.29,21l6.63,16.25c1.29-15.11,3.8-24.56,7.92-30.42l2,1c-.41,1.89-.24,3.4.49,4.34a4.15,4.15,0,0,0,3,1.14,4.93,4.93,0,0,0,4.86-4.91c0-4.54-3.5-7.56-9.67-8.32"/><path id="path2648" class="cls-1" d="M115.67,245l-.81,2.26h15l.11-1.7c-1.85-4.53-4.74-11.52-7.51-18.32-2.46,5.66-4.73,11.9-6.79,17.76"/></g></g></g></g></svg>