<svg xmlns="http://www.w3.org/2000/svg" viewBox="0 0 184.17 298.9"><defs><style>.cls-1{fill:#fff;}</style></defs><title>B_Moenchengladbach</title><g id="Слой_2" data-name="Слой 2"><g id="Слой_1-2" data-name="Слой 1"><g id="Ebene_1"><g id="_87915808" data-name=" 87915808"><polygon id="_87899992" data-name=" 87899992" class="cls-1" points="184.17 150.2 92.03 298.9 0 150.2 92.03 0 184.17 150.2"/><polygon id="_87897784" data-name=" 87897784" points="178.68 150.2 92.03 289.02 5.42 150.05 92.03 9.88 178.68 150.2"/><polygon id="_87899032" data-name=" 87899032" class="cls-1" points="164.1 150.2 92.03 264.13 20.07 150.2 92.03 34.77 164.1 150.2"/><polygon id="_41575512" data-name=" 41575512" points="158.72 150.2 92.03 254.03 25.23 150.2 92.29 44.4 158.72 150.2"/><polygon id="_87694552" data-name=" 87694552" class="cls-1" points="107.74 78.1 119.89 98.39 63.62 98.39 76.67 78.1 107.74 78.1"/><path id="_44438744" data-name=" 44438744" class="cls-1" d="M107.91,105.48c8.43,1.93,16.85,9.12,19.31,17.55,2.28,9.3,1.93,20.71-5.62,27.2,6.15,9.3,9.3,24.22,2.46,34.4a24.91,24.91,0,0,1-16.9,10.62H62.63V105.48s30.36-.18,45.28,0Z"/><path id="_44441504" data-name=" 44441504" d="M107,109.16c7.93,1.41,14.75,9.3,17.2,16.85,1.41,9-.7,18.25-8.07,23.69.88,3.34,4.57,5.79,5.44,9.3,3.51,7.9,3.34,19.31-2.63,26-3.81,4.17-8.39,5.33-14.66,5.77H67.13v-81.5l39.9-.09Z"/><path id="_44441400" data-name=" 44441400" class="cls-1" d="M144.68,138.43l6,11.77s-3.51,4.68-6.14,8.41H130.42a29.78,29.78,0,0,0-3.29-8.56c2.85-3.65,5-7.41,5.49-11.62,4.56.13,7.56,0,12.06,0Z"/><polygon id="_87493184" data-name=" 87493184" class="cls-1" points="57.72 138.47 57.7 158.61 37.73 158.61 31.48 150.2 38.76 138.47 57.72 138.47"/><path id="_87493096" data-name=" 87493096" class="cls-1" d="M102.67,158.61c7.24,1.42,8.45,14.26,0,17H81.28v-17S93.7,158.55,102.67,158.61Z"/><path id="_44140288" data-name=" 44140288" d="M101.35,161.57c4.61,1.21,6,8.67,0,10.64h-17V161.57Z"/><polygon id="_87837792" data-name=" 87837792" class="cls-1" points="121.1 200.29 107.5 220.69 75.58 220.69 63.29 200.29 121.1 200.29"/><path id="_44440688" data-name=" 44440688" class="cls-1" d="M102.83,125.3c7.25,1.42,8.45,14.25,0,17H81.44v-17S93.87,125.23,102.83,125.3Z"/><path id="_44440616" data-name=" 44440616" d="M101.52,128.26c4.6,1.2,6,8.66,0,10.64h-17V128.26Z"/></g></g></g></g></svg>