<svg xmlns="http://www.w3.org/2000/svg" viewBox="0 0 296.09 299.67"><defs><style>.cls-1,.cls-10,.cls-11,.cls-8,.cls-9{stroke:#000;}.cls-2{fill:#004d98;}.cls-3{fill:#a50044;}.cls-4{fill:#fff;}.cls-5{fill:#ffed02;}.cls-6{fill:#db0030;}.cls-7,.cls-9{fill:#edbb00;}.cls-7{stroke:#deb405;stroke-width:0.94px;}.cls-10,.cls-8{fill:none;}.cls-8{stroke-width:4px;}.cls-9{stroke-width:3px;}.cls-10{stroke-width:3.5px;}.cls-11{stroke-width:0.2px;}</style></defs><title>Barcelona</title><g id="Слой_2" data-name="Слой 2"><g id="Layer_1" data-name="Layer 1"><g id="layer1"><g id="g2427"><g id="g2263"><g id="g2279"><path id="path2239" class="cls-1" d="M26.8,9.67c20.39,9,53.84,7.89,76.28-9,31.38,23,61.58,20.63,90.38,0C212.66,14.5,242.21,20.42,270,10l12.43,17.28C250,70.56,262,112,295.4,148.43l-14,14.23c3.18,93.45-69.2,115.76-110.76,118.08L148.26,299l-22.18-18C51.88,274.6,12.71,235.46,15.13,162.9L.69,148.32C28.9,117.8,50.1,76.11,13.86,27.23Z"/><path id="path5105" class="cls-2" d="M28.49,161H267.24c6.27,66.07-35.7,101.75-99.53,105.26l-40.56.1C66.09,262,20.59,229.75,28.49,161Z"/><rect id="rect6076" class="cls-3" x="131.41" y="161.82" width="33.82" height="105.57"/><g id="g6100"><rect id="rect6088" class="cls-3" x="64.1" y="161.82" width="33.82" height="94.35"/><rect id="rect6092" class="cls-3" x="75.89" y="251.33" width="22.03" height="9.72"/></g><g id="g6096"><rect id="rect6090" class="cls-3" x="198.34" y="161.82" width="33.82" height="94.35"/><rect id="rect6094" class="cls-3" x="198.34" y="251.33" width="22.03" height="9.72"/></g><path id="path4130" class="cls-4" d="M147.22,31.5v93.77l-114,.83L45,81,30.37,27l72.13-9.28Z"/><path id="path2187" class="cls-5" d="M148.87,31.5v93.77l114,.83L251.09,81l14.64-54-72.14-9.28Z"/><rect id="rect2169" class="cls-6" x="81.37" y="20.36" width="32.68" height="104.33"/><rect id="rect3143" class="cls-6" x="45.54" y="59.28" width="101.68" height="32.68"/><g id="g2174"><rect id="rect4118" class="cls-6" x="159.1" y="27.76" width="12.09" height="96.25"/><rect id="rect4120" class="cls-6" x="182.04" y="20.86" width="12.09" height="103.37"/><rect id="rect4122" class="cls-6" x="205.13" y="26.69" width="12.09" height="97.76"/><rect id="rect4124" class="cls-6" x="228.01" y="30.27" width="12.09" height="94.09"/></g><path id="path4181" class="cls-7" d="M102.89,8.05c-21,15.43-54.35,17.05-73.47,9.34l-7.65,9.86c32.85,46.22,14,92.72-12.08,121.2l12,12.7c-4.87,69.67,35.79,110,107.27,114.11l19.37,16.18L167.66,275c41.63-.72,114.61-24.07,106.75-114l12.06-12.49c-30.59-33.93-41.13-80.4-11.58-121.31l-7.18-9.8c-26.16,8.6-56.08,3.83-74.08-9.18C166.62,27.62,132.32,29.61,102.89,8.05Zm91,13.24c16.24,10.08,34.18,13,65.11,10.24-15.49,26.8-17.16,58.73-3.45,89.55L40.87,121c11.55-27.54,14.2-59.23-3.9-90,22.31,3.24,44.1,2.46,65.84-9.36C132.28,38.87,162.61,39.18,193.87,21.29ZM33.25,162.06h230.2c6.05,63.7-34.42,98.1-96,101.48l-39.12.11C69.5,259.41,25.64,228.33,33.25,162.06Z"/><path id="path7096" class="cls-8" d="M36.72,31.26c18.1,30.79,15.45,62.49,3.9,90l214.66.13c-13.72-30.83-12-62.75,3.45-89.55-30.93,2.71-48.87-.16-65.11-10.24-31.25,17.89-61.59,17.56-91.07.26C80.82,33.71,59,34.5,36.72,31.26Z"/><path id="path4112" class="cls-8" d="M33.25,162.06H263.44c6.05,63.7-34.42,98.11-96,101.49l-39.1.1C69.5,259.42,25.64,228.33,33.25,162.06Z"/><path id="path4134" class="cls-8" d="M148.12,34.48v87"/><g id="g6097"><path id="path2185" class="cls-9" d="M179.87,211.7a31.3,31.3,0,0,1-62.6,0v0a31.3,31.3,0,1,1,62.6,0Z"/><g id="g4131"><path id="path3158" class="cls-10" d="M130.52,186.21c-3.66,13.31-5.92,26.42,4.62,32.72,7.36,4.4,12.34-4.57,13.72-8.05"/><path id="path3160" class="cls-10" d="M119.61,224.32c6.17-.28,9.39-.79,13.34-6.8"/></g><path id="path4141" class="cls-10" d="M148.6,211.11c6.19-3.8,11.7-2,14.25,7.56,6-2.42,11.84,2.23,13.35,6.93"/><path id="path4143" class="cls-10" d="M163,218.67c-4.57,11.05-16.6,16.16-33.49,17.84"/><path id="path2191" class="cls-10" d="M148.61,211.56c-3.8-3.47-9.65-7.46-1.13-17.69-3.61-4.58-4.6-9.05.12-13.3"/><path id="path2193" class="cls-10" d="M179.72,213.57c-5.55-9.82-18.49-23.44-32.24-19.82"/></g></g><path id="rect2194" d="M104.81,126.67v.11H99.13v29.58h6.14V144.08H114v-6.26h-8.76V133h15.12v-6.36Z"/><path id="path3176" class="cls-11" d="M151.32,135.93l5.52-2.88c-3.52-7.78-17.79-10-22.49,0-4.84,11.92.31,23,9.68,24.08,6,.87,10.68-2,12.69-7.23l-5.46-3.12c-1.45,3.61-7,6.11-11.21.06a14.74,14.74,0,0,1-.18-10.91C143.33,131.17,148.39,131.69,151.32,135.93Z"/><path id="path5116" class="cls-1" d="M172.41,126.74l.11,29.84,16.24-.06c5.29-.74,12.22-9.39,4.1-16.12,4.29-3.78,3.75-11.87-4.83-13.59Zm6.24,5.88h8.09c3.56,1,2.5,4.44.12,5h-8.21Zm.07,10.85,8.51.11a3.52,3.52,0,0,1,.12,6.87l-8.57-.06Z"/></g></g></g></g></g></svg>