<svg xmlns="http://www.w3.org/2000/svg" xmlns:xlink="http://www.w3.org/1999/xlink" viewBox="0 0 299.44 235.67"><defs><style>.cls-1{fill:#fff;}.cls-2{mask:url(#mask);}.cls-3{fill:#fefefe;}.cls-4{fill:#f3e500;}.cls-5{fill:#e32221;}.cls-6{fill:#1a171b;}</style><mask id="mask" x="0" y="0" width="299.44" height="235.67" maskUnits="userSpaceOnUse"><g id="mask-2" data-name="mask"><g id="mask-2-2" data-name="mask-2"><path id="path-1" class="cls-1" d="M0,0H299.44V235.67H0"/></g></g></mask></defs><title>Bayer_Leverkusen</title><g id="Слой_2" data-name="Слой 2"><g id="Layer_1" data-name="Layer 1"><g id="Page-1"><g id="Bayer04-Emblem_2400x1889" data-name="Bayer04-Emblem 2400x1889"><g id="Page-1-2"><g id="Group-3"><g class="cls-2"><path id="Fill-1" class="cls-3" d="M85.79,12.93A14.61,14.61,0,0,1,97.43,8.06c4.08-1.88,8.75-1.14,10.48-.12a12.73,12.73,0,0,1,4.84.84,116.76,116.76,0,0,1,73.94,0,12.65,12.65,0,0,1,4.83-.84c1.74-1,6.41-1.76,10.49.12a14.61,14.61,0,0,1,11.63,4.87A9,9,0,0,1,219.8,7C221.11.21,230-2.87,242.52,3.43c5.59-5.07,13.79.33,16.48,7.65,4.12-1,10.66,2.8,10.22,15.11,4.18.21,5.81,4.61,4.62,11.74,2.49-.53,14.69-2.8,23.44,8.32,4.17,5.3,1.75,12.07-2.69,15.38-.29.83-2.15,8.23-7.75,11.25-.34,3.75,6.16,11.77,8.61,17.05,6.88,14.84,3.46,40-22,44.36a21.22,21.22,0,0,1,4.56,7.56,13.12,13.12,0,0,1-1.65,10.65c-2.1,3.46-10,8.37-11.92,10.84,3.65,2.16,7.79,6.58,5.93,14.9l-7.24,32.56c-1.18,5.3-4.72,9.79-10.49,10.95a17.83,17.83,0,0,1-7.82-.51c-12.66-3.35-21.83-.75-35.86,3.8a244.55,244.55,0,0,1-24.74,7,167.6,167.6,0,0,1-69,0,244.55,244.55,0,0,1-24.74-7c-14-4.55-23.2-7.15-35.86-3.8a17.87,17.87,0,0,1-7.83.51c-5.76-1.16-9.3-5.65-10.49-10.95l-7.24-32.56c-1.85-8.32,2.29-12.74,5.93-14.9-1.95-2.47-9.81-7.38-11.92-10.84a13.2,13.2,0,0,1-1.65-10.65A21.24,21.24,0,0,1,26,134.29C.53,130-2.89,104.77,4,89.93c2.44-5.28,8.94-13.3,8.61-17.05-5.6-3-7.46-10.42-7.76-11.25C.41,58.32-2,51.55,2.16,46.25c8.74-11.12,21-8.85,23.43-8.32C24.41,30.8,26,26.4,30.21,26.19,29.78,13.88,36.32,10,40.44,11.08,43.13,3.76,51.32-1.64,56.91,3.43,69.44-2.87,78.32.21,79.64,7a9,9,0,0,1,6.15,5.89"/></g></g><path id="Fill-4" class="cls-4" d="M117.47,51.88l-.85-.52.21-1c.57-2.57.22-4.85-3.74-5l-1,0-3-9.41.83-.59c2.71-1.92,2.09-4.34-1.6-5.67l-.91-.33v-1a4,4,0,0,1,1.61-3l.52-.47.5-.5a6.53,6.53,0,0,0,.94-1.33l.24-.45.47-.19a104.41,104.41,0,0,1,76,0l.48.19.24.45a6.16,6.16,0,0,0,.94,1.33l.5.5.51.47a4,4,0,0,1,1.62,3v1l-.92.33c-3.68,1.33-4.31,3.75-1.59,5.67l.82.59-3,9.41-1,0c-4,.13-4.31,2.41-3.74,5l.21,1-.85.52c-1.19.71-2.23,3.57-1.54,5.65l1,3.1-3-1.41a66.66,66.66,0,0,0-57.59,0L118,60.63l1-3.1c.69-2.08-.35-4.94-1.53-5.65m.35,168a234.57,234.57,0,0,1-23.57-6.73c-13.66-4.42-25.61-8.11-41.31-4.41-3.21.8-4.32.77-5-2.48L41.4,177c-.6-2.72.2-3.29,2.83-3.88,19.4-4.17,35.39-1.3,51.48,2.8,8.43,2.15,16.8,4.61,25.57,6.53a130.88,130.88,0,0,0,28.44,3.36,131,131,0,0,0,28.44-3.36c8.76-1.92,17.13-4.38,25.56-6.53,16.09-4.1,32.09-7,51.48-2.8,2.64.59,3.44,1.16,2.84,3.88l-6.51,29.31c-.72,3.26-1.83,3.28-5.05,2.48-15.69-3.7-27.64,0-41.29,4.41a234.57,234.57,0,0,1-23.57,6.73,155.14,155.14,0,0,1-63.8,0"/><path id="Fill-6" class="cls-5" d="M67.75,11.09a2.54,2.54,0,0,0,.91,3.21,6,6,0,0,0,1.39.74c.43.17.89.32,1.33.47.74.26,1.92.41,3,.75s1.28.63,1.34.85a.48.48,0,0,1,0,.17c0,.22,0,.44-.08.65a14.63,14.63,0,0,1-.35,1.53L74.86,21l1.57.21a14.73,14.73,0,0,1,2.09.36,3.07,3.07,0,0,1,.79.49,4.68,4.68,0,0,1,.39.38l.42.44a10,10,0,0,0,1.06,1,3.66,3.66,0,0,0,1.65.72c.56.09,2.92.27,3.6.35a20,20,0,0,1,3.06.63l1.18.32.47-1.13c1.47-3.52,3.19-4.94,4.38-5.45a2.92,2.92,0,0,1,1.4-.26.77.77,0,0,1,.26.07.35.35,0,0,0-.17-.19l2.34,0a5.09,5.09,0,0,1,3.27-.95,5.38,5.38,0,0,1,1.91.26.9.9,0,0,1,.34.2c4.95-.32,7.3,2.17,6.27,4.3a6.57,6.57,0,0,1-1,1.47c-.17.2-.35.38-.51.54l-.54.49-.55.52a4.38,4.38,0,0,0-.55.66,3.34,3.34,0,0,0-.59,1.94v1l.91.33c3.71,1.33,4.37,3.79,1.46,5.77-1.06.72-2,1.42-2.83,2a16.22,16.22,0,0,1-2.16,1.39,3.32,3.32,0,0,1-3.44,0l-.83-.43-.71.62A17.56,17.56,0,0,0,94.06,49l-.64,2.85L96,50.54c.6-.3,1.18-.58,1.75-.83,20.55-9,19.58-1.72,19,.68l-.21,1,.85.52c.9.54,1.82,2.44,1.75,4.42-.08,1.79-.89,3-2.84,3h-1.26L115,60.53c-.19,2-3.92,3.52-7.34,1.16l-.61-.42-.68.27a17,17,0,0,1-5.87,1.39h-.6l-.42.44a36.89,36.89,0,0,0-4.31,6c-1.45,2.38-3,5.06-4.63,7.68-3.34,5.29-6.88,9.8-10.85,11.2l-.55.19-.25.53A16.82,16.82,0,0,1,74,95.2c-3.85,2.93-11.64,10.68-11.64,18.43V115h1.39c10.71,0,11.78,6.57,11.78,10.39,0,4.76-3.41,8-7.34,10.57-2,1.28-3.95,2.31-5.44,3.2a14,14,0,0,0-2,1.41,3,3,0,0,0-1.15,2.15c0,4.34,13.08,12.54,15.85,12.54a8.07,8.07,0,0,1,6.63,3.17c2.81,3.6,2.34,10.24-3.07,10.24H78.5l-.55.49a3.85,3.85,0,0,1-.34.26,5.73,5.73,0,0,1-1.61.74c-1.48.44-4,.65-7.59-.71l-.65-.24-.59.38c-1.78,1.16-6.19.82-7.3-1l-.62-1-1.11.47a18.52,18.52,0,0,1-6,1.12c-.47,0-.7-.12-1.09-.79-.56-.94-1-2.32-1.92-4.06-1.89-3.77-5.37-9-14-15.19-3.37-2.43-3.53-3.5-3.3-4.32a8,8,0,0,1,1.59-2.53c.92-1.13,2.13-2.44,3.52-4,3.52-4.07,3.85-8.14,2.8-11.62l-.12-.38-.3-.26c-.62-.54-1.19-1-1.65-1.51-.32-.31-.61-.63-.89-1l-.51-.61-.78.14a26.38,26.38,0,0,1-11.08-.44c-12.31-3.91-15.71-17.31-10.66-28.2a57.39,57.39,0,0,1,3.28-5.89c1.19-1.91,2.32-3.6,3-4.8a22.25,22.25,0,0,0,3.35-13.2,24.44,24.44,0,0,0-.86-5.64l-.28-1h-1c-3.53,0-4.61-1.65-5.46-3.87-.49-1.28-.85-2.64-1.38-3.84a6.7,6.7,0,0,0-2.95-3.45.79.79,0,0,1-.39-.38.17.17,0,0,1,0-.17c1.32-2,5.84-4,7.65-4,3.69,0,6.23.28,8.6,2.66a9.32,9.32,0,0,1,2.81,7,5.67,5.67,0,0,1-2.39,4.85l-.78.53.2.91c1.18,5.59,2,14.44-3.12,22.24C20.18,92.22,14.42,101,17.38,109c1.94,5.32,7.38,9,15.17,8.29l1.32-.13-.06-1.32c-.23-4.63,1.94-9.77,6-14.51A41.91,41.91,0,0,0,48.52,81l.15-1.56-1.57,0a7.5,7.5,0,0,1-5.05-2.18,2.67,2.67,0,0,1-.31-.36h.38a3.66,3.66,0,0,0,3.16-2.08,10.26,10.26,0,0,0,1-3.5,15.37,15.37,0,0,0,.1-3.32,6.23,6.23,0,0,0-.23-1.29,1.7,1.7,0,0,0-1.59-1.34,2.65,2.65,0,0,0-1.26.32,6.17,6.17,0,0,0-.77.48,3.66,3.66,0,0,1-.49.31.7.7,0,0,1-.2.08c-1.56.13-2.74-1.21-3.35-3.44a8.74,8.74,0,0,1-.3-2,6.16,6.16,0,0,0,2.86.22c1.9-.38,2.85-2,1.83-4.22a6.43,6.43,0,0,1-.37-.91c-.07-.23-.1-.41-.14-.59-.22-1.08-.71-1.72-2.55-.79a2.37,2.37,0,0,1-1.53.09c-.42-.08-.86-.4-1.24-1.25a8.83,8.83,0,0,1-.64-3.17,11.61,11.61,0,0,1,.13-2.2c2.37,1.27,6,1.28,5.67-3,0-.56-.07-.92-.07-1.24a4.59,4.59,0,0,1,.06-.91c.1-.88-.25-1.63-1.52-1.71a5.09,5.09,0,0,0-.87.06c-.22,0-.47.06-.72.07a2.1,2.1,0,0,1-.5,0,4.22,4.22,0,0,1-1.84-2.07,8.32,8.32,0,0,1,.54-5c.09-.23.19-.42.27-.6a4.93,4.93,0,0,0,2.71,1.44c1.19.19,3.42-.2,3.33-2.54a6.42,6.42,0,0,1,.21-2c.1-.36,1.15-2.4,1.15-2.4l-2-.22a5.92,5.92,0,0,1-1.44-.34,3.89,3.89,0,0,1-.75-3A8.65,8.65,0,0,1,43,20.3,4.52,4.52,0,0,0,45.18,23c.84.48,2.93,1.13,3.91-.72A5.63,5.63,0,0,1,50,21c.1-.1.2-.2.31-.29,0-2.39-1-3.13-1.29-3.89-.35-1,.52-2.33,2.85-3.44a8.78,8.78,0,0,1,2-.69,4.27,4.27,0,0,0,0,1.67,2.27,2.27,0,0,0,1.8,1.8,5.59,5.59,0,0,0,2,0c.6-.09,1.29-.24,2-.36a9.15,9.15,0,0,1,1.38-.1c.36,0,3.21.28,3.21.28s-1.42-2.6-1.54-3a1.63,1.63,0,0,1-.09-.45s0,0,.14,0a6.13,6.13,0,0,1,1-.48,14.52,14.52,0,0,1,2.81-.8,8.84,8.84,0,0,1,1.14-.13M257.67,76.91a3.07,3.07,0,0,1-.28.35,7.52,7.52,0,0,1-5.06,2.18l-1.56,0,.14,1.56a42.1,42.1,0,0,0,8.66,20.42c4.11,4.74,6.29,9.88,6.06,14.51l-.06,1.32,1.32.13c7.79.73,13.23-3,15.17-8.28,3-8.09-2.8-16.83-6.72-22.75-5.17-7.8-4.3-16.65-3.12-22.24l.19-.91-.77-.53a5.65,5.65,0,0,1-2.39-4.85,9.32,9.32,0,0,1,2.81-7c2.37-2.38,4.91-2.66,8.59-2.66,1.82,0,6.34,2,7.66,4a.2.2,0,0,1,0,.17.79.79,0,0,1-.4.38A6.75,6.75,0,0,0,285,56.11c-.52,1.2-.89,2.56-1.38,3.84-.84,2.22-1.93,3.87-5.45,3.87h-1.05l-.29,1a24.42,24.42,0,0,0-.85,5.64,22.25,22.25,0,0,0,3.35,13.2c.72,1.2,1.85,2.89,3,4.8a58.56,58.56,0,0,1,3.29,5.89c5,10.89,1.64,24.29-10.66,28.2a26.38,26.38,0,0,1-11.08.44l-.78-.14-.52.61c-.27.33-.57.65-.88,1-.47.47-1,1-1.65,1.51l-.3.26-.12.38c-1.06,3.48-.72,7.55,2.8,11.62,1.39,1.6,2.6,2.91,3.52,4a7.93,7.93,0,0,1,1.58,2.53c.24.82.08,1.89-3.3,4.32-8.6,6.17-12.07,11.42-14,15.19-.87,1.74-1.37,3.12-1.92,4.06-.4.67-.63.78-1.1.79a18.41,18.41,0,0,1-6-1.12l-1.12-.47-.62,1c-1.1,1.86-5.51,2.2-7.29,1l-.59-.38-.66.24c-3.64,1.36-6.1,1.15-7.58.71a5.73,5.73,0,0,1-1.61-.74,2.78,2.78,0,0,1-.34-.26c-6.49-.49-7-7.13-4.14-10.73a8.07,8.07,0,0,1,6.63-3.17c2.76,0,15.85-8.2,15.85-12.54a3,3,0,0,0-1.15-2.15,13.52,13.52,0,0,0-2-1.41c-1.48-.89-3.46-1.92-5.44-3.2-3.92-2.56-7.34-5.81-7.34-10.57,0-3.82,1.08-10.39,11.79-10.39h1.38v-1.39c0-7.75-7.78-15.5-11.63-18.43A16.75,16.75,0,0,1,220.54,89l-.24-.53-.55-.19c-4-1.4-7.51-5.91-10.85-11.2-1.65-2.62-3.18-5.3-4.63-7.68a36.36,36.36,0,0,0-4.32-6l-.41-.44h-.61a17,17,0,0,1-5.86-1.39l-.69-.27-.6.42c-3.42,2.36-7.15.84-7.34-1.16l-.12-1.26h-1.26c-1.95,0-2.77-1.18-2.84-3-.08-2,.85-3.88,1.75-4.42l.85-.52-.21-1c-.53-2.4-1.51-9.67,19-.68.57.25,1.15.53,1.74.83L206,51.85,205.38,49a17.61,17.61,0,0,0-5.77-9.89l-.71-.62-.83.43a3.34,3.34,0,0,1-3.45,0,16.78,16.78,0,0,1-2.15-1.39c-.85-.62-1.78-1.32-2.84-2-2.9-2-2.24-4.44,1.46-5.77l.92-.33v-1a3.28,3.28,0,0,0-.6-1.94,4.32,4.32,0,0,0-.54-.66c-.17-.17-.36-.34-.56-.52l-.53-.49a6.7,6.7,0,0,1-.51-.54,6.24,6.24,0,0,1-1-1.47c-1-2.13,1.32-4.62,4.33-3.25l2-1.11a1.64,1.64,0,0,1,.33-.14,5.35,5.35,0,0,1,1.91-.26,5.11,5.11,0,0,1,3.27.95l2.33,0a.45.45,0,0,0-.17.19.9.9,0,0,1,.27-.07,2.94,2.94,0,0,1,1.4.26c1.19.51,2.91,1.93,4.38,5.45l.47,1.13,1.17-.32a20.15,20.15,0,0,1,3.07-.63c.68-.08,3-.26,3.6-.35a3.71,3.71,0,0,0,1.65-.72,9,9,0,0,0,1.05-1l.42-.44c.13-.13.26-.26.4-.38a2.91,2.91,0,0,1,.79-.49A14.59,14.59,0,0,1,223,21.2l1.58-.21-.42-1.53c-.11-.42-.25-1-.34-1.53a4.62,4.62,0,0,1-.08-.65,1,1,0,0,1,0-.17c.07-.22.34-.54,1.35-.85s2.24-.49,3-.75c.45-.15.91-.3,1.34-.47a6.19,6.19,0,0,0,1.39-.74,2.56,2.56,0,0,0,.89-3.25c.27,0,.65.08,1.15.17a14.42,14.42,0,0,1,2.82.8,6.45,6.45,0,0,1,1,.48l.14.09a2.74,2.74,0,0,1-.09.39c-.11.36-1.54,3-1.54,3s2.85-.27,3.21-.28a9.06,9.06,0,0,1,1.38.1c.73.12,1.42.27,2,.36a5.54,5.54,0,0,0,2,0,2.26,2.26,0,0,0,1.8-1.8,4.09,4.09,0,0,0,0-1.67,8.69,8.69,0,0,1,2,.69c2.32,1.11,3.2,2.48,2.85,3.44A4.38,4.38,0,0,1,249,18.35l-1.63,1.09,1.7,1.27.32.29a5.63,5.63,0,0,1,.94,1.28c1,1.85,3.07,1.2,3.91.72a4.32,4.32,0,0,0,2.1-2.73,8.68,8.68,0,0,1,2.26,4.42,3.89,3.89,0,0,1-.75,3,6,6,0,0,1-1.44.34l-2,.22s1,2,1.15,2.4a6.43,6.43,0,0,1,.22,2c-.09,2.34,2.13,2.73,3.32,2.54a4.93,4.93,0,0,0,2.71-1.44c.09.18.18.37.27.6a8.25,8.25,0,0,1,.55,5,4.28,4.28,0,0,1-1.85,2.07,2,2,0,0,1-.49,0c-.26,0-.51-.05-.73-.07a4.91,4.91,0,0,0-.86-.06c-1.27.08-1.63.83-1.52,1.71a6.84,6.84,0,0,1,.06.91c0,.32,0,.68-.07,1.24-.32,4.29,3.3,4.28,5.66,3a10.84,10.84,0,0,1,.13,2.2,8.82,8.82,0,0,1-.63,3.17c-.38.85-.82,1.17-1.24,1.25a2.36,2.36,0,0,1-1.53-.09c-1.85-.93-2.33-.29-2.56.79,0,.18-.06.36-.13.59a6.43,6.43,0,0,1-.37.91c-1,2.17-.08,3.84,1.82,4.22a6.21,6.21,0,0,0,2.87-.22,8.26,8.26,0,0,1-.31,2c-.6,2.23-1.78,3.57-3.34,3.44a.7.7,0,0,1-.2-.08,5.19,5.19,0,0,1-.5-.31,6.06,6.06,0,0,0-.76-.48,2.65,2.65,0,0,0-1.26-.32,1.69,1.69,0,0,0-1.59,1.34A5.63,5.63,0,0,0,253,68a15.37,15.37,0,0,0,.09,3.32,10.27,10.27,0,0,0,1,3.5,3.66,3.66,0,0,0,3.16,2.08h.35"/><path id="Fill-8" class="cls-6" d="M141.11,175.4v-19h12.66A5.88,5.88,0,0,1,156,167.76l5.69,7.64h-5.42l-5.42-7.22h-5.19v7.22Zm14-13.09a1.81,1.81,0,0,0-1.79-1.81h-7.69v3.61h7.69A1.81,1.81,0,0,0,155.1,162.31ZM158.27,133V137H145.62v3.16h12.19v4.06H145.62v3.62h12.65v4.06H141.11V133ZM112.3,119a5.76,5.76,0,0,1-4,9.88H95.08v-19h13A5.53,5.53,0,0,1,112.3,119Zm-12.7,5.81h8.13a1.81,1.81,0,1,0,0-3.61H99.6Zm0-7.67h7.9a1.58,1.58,0,0,0,0-3.16H99.6Zm28.64-2.39-3.33,6.89h6.66Zm11.68,14.11h-4.85l-1.53-3.16H122.93l-1.53,3.16h-4.84l9.48-19h4.4ZM198.8,114h-6.56v3.61h6.56a1.81,1.81,0,0,0,0-3.61Zm-3.17,7.67h-3.39v7.22h-4.51v-19h11.53a5.88,5.88,0,0,1,1.64,11.51l5.57,7.45h-5.42Zm-14.22-11.74V114H168.76v3.16H181v4.07H168.76v3.61h12.65v4.06H164.25v-19Zm-25.28,0h5.43l-9.62,12.35v6.61h-4.51v-6.61l-9.62-12.35h5.43l6.45,8.64Zm-6.45-18.18-3.33,6.89H153Zm11.68,14.12h-4.84L155,102.7H144.38l-1.53,3.17H138l9.49-19h4.39Zm-3-32.48a5.76,5.76,0,0,1-4,9.89H141.11v-19h13a5.53,5.53,0,0,1,4.23,9.08Zm-12.71,5.82h8.14a1.81,1.81,0,0,0,0-3.61h-8.14Zm0-7.68h7.9a1.58,1.58,0,1,0,0-3.16h-7.91Zm62.12,122.14,6.85-1.33a3.26,3.26,0,0,0-3.6-2.88l-.32,0a3.76,3.76,0,0,0-2.93,4.16Zm11.68,1.09-11,2.11c.6,2.29,3.06,3,5.6,2.5a14.13,14.13,0,0,0,4.54-1.64l1.27,3A16.06,16.06,0,0,1,214,203c-5.51,1.07-9.36-1.52-10.31-6.45-.78-4,.91-9.05,6.61-10.16,5.53-1.07,8.21,2.95,8.91,6.53a9.69,9.69,0,0,1,.18,1.86Zm-28.48,14.18-.08-3.52a10.36,10.36,0,0,0,4.7,0c1.67-.48,2.2-1.29,1.94-2.16s-1-1.2-3.08-1.24c-3.59,0-5.44-1.4-6-3.31-.83-2.87,1-5.77,4.94-6.9a10.79,10.79,0,0,1,4.79-.34l.07,3.38a8.63,8.63,0,0,0-3.85.09c-1.32.38-1.92,1.14-1.67,2s1.11,1.1,3.33,1.16c3.32.07,5.08,1.16,5.78,3.53.81,2.82-.81,5.66-5.37,7a12.08,12.08,0,0,1-5.54.35Zm-7.38-13.21,2.13,10.93c.39,2.05.77,3.71,1.1,5l-4.07.79L182,210l-.1,0a6,6,0,0,1-4.76,3.86c-3.11.61-6.22-.69-7.23-5.89l-1.8-9.29,4.67-.91,1.65,8.48c.5,2.54,1.66,3.91,3.7,3.51a3.24,3.24,0,0,0,2.57-2.62,2.86,2.86,0,0,0,0-1.13l-1.83-9.42Zm-29.8-3.5.5,14.41h.07c.38-.63.82-1.33,1.23-1.93l3.67-5.18,5.8-.2L159,206.11l7.57,9.42-5.92.2L155.78,209l-1.37,1.72.18,5.23-4.76.17L149,192.39ZM134,215.54l1-10.79c.21-2.42.31-4,.34-5.39l4.08.35-.12,3.18h.13a5,5,0,0,1,4.93-3.14,4.14,4.14,0,0,1,1,.19l-.39,4.42a6.57,6.57,0,0,0-1.39-.27,3.5,3.5,0,0,0-4,2.52,6.76,6.76,0,0,0-.18,1.08l-.72,8.26Zm-15.07-13,6.84,1.33a3.27,3.27,0,0,0-2.26-4l-.31-.07A3.75,3.75,0,0,0,118.89,202.58ZM129.3,208l-11-2.18c-.31,2.35,1.71,3.92,4.25,4.41a14,14,0,0,0,4.82.18l0,3.28a15.92,15.92,0,0,1-6.19-.1c-5.51-1.07-8.11-4.91-7.15-9.84.77-4,4.23-8.05,9.94-6.94,5.53,1.08,6.51,5.81,5.81,9.39a8.84,8.84,0,0,1-.53,1.8ZM98.07,189.2l4.86,1.77-.28,8.31c-.05,1.47-.17,2.77-.33,4l.1,0c.72-1.12,1.44-2.14,2.33-3.32l5-6.58,4.75,1.73L102.9,208.24l-4.49-1.64Zm-15.28,2.54,6.79,1.57a3.27,3.27,0,0,0-2.12-4.1l-.31-.08a3.75,3.75,0,0,0-4.36,2.61ZM93,197.49l-10.93-2.56c-.38,2.33,1.58,4,4.1,4.56a14,14,0,0,0,4.82.34l-.07,3.28a16.08,16.08,0,0,1-6.18-.31c-5.48-1.27-7.94-5.2-6.81-10.09.91-4,4.51-7.89,10.18-6.58,5.49,1.26,6.3,6,5.48,9.58a10.32,10.32,0,0,1-.59,1.78Zm-32.4,3.42-.78-22.4,4.76-.17.64,18.42,9.69-.34.14,4Zm162.6-.25V189.51c0-2-.06-3.67-.13-5.09h4.14l.22,2.43h.11a6.15,6.15,0,0,1,5.33-2.81c3.14,0,6.1,2,6.1,7.17v9.45h-4.76v-8.84c0-2.34-.89-3.95-3-3.95a3.25,3.25,0,0,0-3,2.21,3.67,3.67,0,0,0-.18,1.23v9.35Zm1.51-174.54a2.67,2.67,0,0,0-1.65.72c1.17.38,2.47.79,3,.91a3.55,3.55,0,0,0-1.36-1.63Zm-4.3,1.4s1.8-2.91,4.47-2.91c1.08,0,3.73,3.12,2.47,4.27-1,1-6.94-1.36-6.94-1.36ZM79,27.52s-5.9,2.32-7,1.36c-1.26-1.15,1.39-4.27,2.48-4.27,2.67,0,4.47,2.91,4.47,2.91Zm-4.3-1.4a3.49,3.49,0,0,0-1.36,1.63c.53-.12,1.84-.53,3-.91A2.72,2.72,0,0,0,74.72,26.12ZM126,47.51l-4.49-14.68-.06,0-3,2.73-1.59-2.79L121,29.1l3.3-1,5.57,18.24Zm6.8-1.85-.46-3.22a10.48,10.48,0,0,0,2-.29,7.92,7.92,0,0,0,3.88-1.87,6.08,6.08,0,0,0,2-4.1l-.07,0a5.51,5.51,0,0,1-4,2.14,5.84,5.84,0,0,1-6.86-4.61c0-.15-.05-.3-.07-.45a7,7,0,0,1,6.15-7.83l.18,0c4.89-.68,7.83,2.65,8.46,7.15.55,3.94-.32,7-2.14,9.14a11.57,11.57,0,0,1-7,3.67,13.84,13.84,0,0,1-2.13.31Zm3.07-17.18c-1.76.24-2.81,1.91-2.52,3.94a3,3,0,0,0,3.17,2.78l.33,0a3.4,3.4,0,0,0,2.74-1.85,1.8,1.8,0,0,0,.08-1C139.37,30.21,138.2,28.15,135.85,28.48Zm17.64,15.66c-4.87-.25-7.05-4.55-6.79-10.2s3.06-9.77,8-9.52,7.06,4.64,6.77,10.14C161.13,40.37,158.53,44.41,153.49,44.14Zm.17-3.1c2.07.1,3.31-2.2,3.54-6.63s-.73-6.76-2.8-6.87c-1.9-.1-3.3,2.14-3.53,6.53s.88,6.87,2.79,7Zm20.79,6.53-3.86-1L171.8,42l-8.64-2.31.7-2.61,10.48-9.29,5,1.35L176.47,40l2.36.63-.81,3-2.35-.63Zm-6.62-9.85L172.61,39l1.23-4.58c.29-1.08.63-2.18,1-3.33l-.1,0c-.93,1-1.72,1.94-2.64,2.87l-4.23,3.74ZM112,19.32a107.26,107.26,0,0,1,75.38,0,5.48,5.48,0,0,1,5.79-1.06c.28-2.36,6.77-2,8-.06.6-1,5.22-1.47,8.34,6a22.57,22.57,0,0,1,3.27-.67c.67-.08,3-.25,3.55-.34,1.55-.24,2.18-2.23,4-2.95a14.14,14.14,0,0,1,2.42-.45,8.38,8.38,0,0,1-.43-3.1c.56-1.91,3.75-2,5.2-2.52,1.69-.58,3.7-1.16,2.65-2.87-2-3.23,6.89-.89,7.77.55.49.82-.4,2.43-.4,2.43a10.19,10.19,0,0,1,2.34.08c2.91.48,5.17,1.41,4-2.33-.77-2.43,9.32.86,7.73,5.23a5.43,5.43,0,0,1-1.9,2.21,6.19,6.19,0,0,1,1.78,2.13c.71,1.33,3.47-.21,3.47-2,0-3.72,4.63,1.38,5,5,.12,1.26-.1,3.34-1.29,4.25a5.82,5.82,0,0,1-2.13.62,6.62,6.62,0,0,1,.61,3.34c-.08,1.88,3.23,1.34,4.19-.7.8-1.7,3.69,4,2.6,7.73a5.27,5.27,0,0,1-2.87,3c-1.09.25-2.58-.33-2.53.09a10.31,10.31,0,0,1,0,2.42c-.2,2.66,2.45,3,4.49,1.08,1.54-1.48,2.52,9.1-1.72,9.81-2.51.43-2.86-.86-3-.38a6.14,6.14,0,0,1-.61,1.81c-1.33,2.83,2.24,2.66,4,1.68,1.63-.89,1,9.05-4.37,8.59-1-.09-1.74-1.19-2.6-1.19s-.94,8.76,2.48,8.76c5,0-.51,5.6-5.21,5.31a40.63,40.63,0,0,0,8.33,19.64c4.24,4.9,6.63,10.38,6.39,15.47,7.36.75,12.21-2.68,13.93-7.36,2.67-7.3-2.53-15.39-6.58-21.5-5.48-8.28-4.52-17.6-3.32-23.3a7,7,0,0,1-3-6,10.34,10.34,0,0,1,3.21-8c6.64-6.22,16.77-.9,18.39,1.52a1.74,1.74,0,0,1-.58,2.4l-.28.14c-4.54,2.42-1.82,11.32-10.44,11.32a22.3,22.3,0,0,0-.8,5.32A20.78,20.78,0,0,0,280.5,83a109.06,109.06,0,0,1,6.39,10.83c5.29,11.41,1.84,25.87-11.49,30.1a27.59,27.59,0,0,1-11.89.46q-.47.54-1,1.08c-.43.42-.93.87-1.47,1.34-1,3.1-.82,6.75,2.45,10.53,5.6,6.48,8.23,8.13,1.56,12.92-12.89,9.26-13.84,16.24-15.6,19,2.72.4,5.51.93,8.37,1.61,1.37.32,4.18,1.09,3.26,5.22l-7.26,32.61c-1.07,4.82-4.66,3.64-6.38,3.19C216.1,203.54,201,226,149.72,226S83.34,203.54,52,211.84c-1.72.45-5.31,1.63-6.39-3.19L38.35,176c-.92-4.13,1.88-4.9,3.26-5.22,2.86-.68,5.65-1.21,8.37-1.61-1.76-2.76-2.72-9.74-15.6-19-6.68-4.79-4.05-6.44,1.56-12.92,3.27-3.78,3.46-7.43,2.45-10.53-.54-.47-1-.92-1.47-1.35s-.68-.71-1-1.07A27.58,27.58,0,0,1,24,123.88c-13.34-4.23-16.79-18.69-11.5-30.1A111,111,0,0,1,18.93,83a20.79,20.79,0,0,0,3.15-12.43,23.36,23.36,0,0,0-.8-5.32c-8.62,0-5.9-8.9-10.44-11.32a1.75,1.75,0,0,1-1-2.25,1.59,1.59,0,0,1,.15-.29c1.61-2.42,11.74-7.74,18.38-1.52a10.27,10.27,0,0,1,3.21,8,7,7,0,0,1-3,6c1.21,5.7,2.16,15-3.32,23.3-4,6.11-9.24,14.2-6.57,21.5,1.71,4.68,6.57,8.11,13.92,7.36-.24-5.09,2.15-10.57,6.4-15.47a40.73,40.73,0,0,0,8.33-19.64c-4.7.29-10.19-5.31-5.21-5.31,3.41,0,3.31-8.76,2.47-8.76S43,67.85,42,67.94c-5.35.46-6-9.48-4.38-8.59,1.81,1,5.38,1.15,4-1.68a6.42,6.42,0,0,1-.6-1.81c-.1-.48-.45.81-3,.38-4.25-.71-3.27-11.29-1.72-9.81,2,2,4.68,1.58,4.49-1.08a9.8,9.8,0,0,1,0-2.42c0-.42-1.45.16-2.53-.09a5.27,5.27,0,0,1-2.87-3c-1.09-3.75,1.8-9.43,2.6-7.73.95,2,4.26,2.58,4.19.7a6.51,6.51,0,0,1,.6-3.34,5.94,5.94,0,0,1-2.13-.62c-1.18-.91-1.4-3-1.29-4.25.34-3.58,5-8.68,5-5,0,1.82,2.76,3.36,3.47,2a6.19,6.19,0,0,1,1.78-2.13,5.53,5.53,0,0,1-1.91-2.21c-1.58-4.37,8.51-7.66,7.74-5.23-1.18,3.74,1.09,2.81,4,2.33a10.17,10.17,0,0,1,2.34-.08s-.9-1.61-.4-2.43c.87-1.44,9.75-3.78,7.77-.55-1,1.71,1,2.29,2.64,2.87,1.46.5,4.64.61,5.2,2.52a8.17,8.17,0,0,1-.42,3.1,14,14,0,0,1,2.41.45c1.84.72,2.46,2.71,4,2.95.56.09,2.88.26,3.55.34a22.85,22.85,0,0,1,3.27.67c3.12-7.5,7.73-7,8.34-6,1.26-1.89,7.76-2.29,8,.06A5.48,5.48,0,0,1,112,19.32Zm75.18,4.38a103,103,0,0,0-75,0c-1.44,2.69-3.41,2.88-3.41,4.7,3.93,1.41,6.19,5.08,1.93,8.1l2.4,7.52c5.28.17,5.68,3.78,5,6.67,1.86,1.13,3,4.73,2.14,7.28a68.08,68.08,0,0,1,58.8,0c-.85-2.55.27-6.15,2.13-7.28-.64-2.89-.23-6.5,5.05-6.67l2.39-7.52c-4.25-3-2-6.69,1.93-8.1,0-1.82-2-2-3.41-4.7Zm-78.3,20.75-1.72-5.4c-2.22,1.56-4,2.37-6.45,1.1a16.21,16.21,0,0,0-5.33,9.15c.62-.31,1.22-.6,1.82-.86a59.41,59.41,0,0,1,11.68-4Zm83.34-5.4-1.72,5.4a59.41,59.41,0,0,1,11.68,4c.59.26,1.2.55,1.81.86a16.2,16.2,0,0,0-5.32-9.15c-2.49,1.27-4.23.46-6.45-1.1ZM88.08,119.22a61.64,61.64,0,1,0,61.64-61.63h0a61.64,61.64,0,0,0-61.64,61.63Zm129.57,0a67.9,67.9,0,0,1-34.58,59.19c11.91-2.92,23.24-6.52,35.22-8.56-5.61-1.41-4.66-9.12-2.22-12.25a9.41,9.41,0,0,1,7.72-3.7c2.45,0,14.47-8,14.47-11.16,0-2.88-15.95-6.28-15.95-17.32,0-4.2,1.35-11.79,13.17-11.79,0-7-7.23-14.39-11.09-17.33a18.12,18.12,0,0,1-5.32-6.79c-8.85-3.33-14.91-19.76-20.12-25.19a18.35,18.35,0,0,1-6.39-1.49,7.94,7.94,0,0,1-3.13,1.27,67.87,67.87,0,0,1,28.22,55.12ZM116.36,178.41A67.95,67.95,0,0,1,110,64.1a8,8,0,0,1-3.14-1.27,18.24,18.24,0,0,1-6.39,1.49c-5.21,5.43-11.26,21.86-20.11,25.19A18.05,18.05,0,0,1,75,96.3C71.19,99.24,64,106.61,64,113.63c11.82,0,13.17,7.59,13.17,11.79,0,11-15.94,14.44-15.94,17.32,0,3.19,12,11.16,14.46,11.16a9.4,9.4,0,0,1,7.72,3.7c2.45,3.13,3.4,10.84-2.21,12.25,12,2,23.31,5.64,35.21,8.56Zm33.36,43.39a145.92,145.92,0,0,0,31.6-3.28,229.4,229.4,0,0,0,23.44-6.69c13.66-4.42,25.94-8.24,42.06-4.44,2.88.72,2.89.71,3.36-1.43l6.51-29.3c.38-1.74.38-1.76-1.78-2.24-19.09-4.1-34.83-1.29-50.85,2.79-8.44,2.16-16.82,4.62-25.6,6.54a132.48,132.48,0,0,1-28.74,3.4,132.41,132.41,0,0,1-28.74-3.4c-8.78-1.92-17.16-4.38-25.61-6.54-16-4.08-31.76-6.89-50.84-2.79-2.16.48-2.16.5-1.78,2.24L49.26,206c.47,2.14.48,2.15,3.36,1.43,16.11-3.8,28.4,0,42.05,4.44a230.13,230.13,0,0,0,23.44,6.69,146.08,146.08,0,0,0,31.61,3.28ZM282.45,59.51c.49-1.31.87-2.69,1.4-3.9a8.48,8.48,0,0,1,2.67-3.53c-2.4-1.82-9.28-4.43-13.64-.33a7.63,7.63,0,0,0-2.38,6c0,3,1.67,3.63,3.29,4.49-1.68,7.36-2.29,16,2.59,23.35a61.49,61.49,0,0,1,6.06,10.79c1.59,4,2.44,8.57.79,13.07-2.21,6.06-8.37,10-16.76,9.07a14.25,14.25,0,0,1-1.31,3.39,24.82,24.82,0,0,0,9.44-.56c11.38-3.61,14.74-16.06,9.9-26.48a54.26,54.26,0,0,0-3.21-5.77c-1.18-1.91-2.31-3.6-3-4.8a23.47,23.47,0,0,1-3.53-13.9,31.15,31.15,0,0,1,1.43-7.76c4.67.18,5.31-.61,6.3-3.15ZM225.84,85.86c-2.44-.43-4.43-2-4.09-3.64.15-.77,2.89.8,3.45-6.09a10.76,10.76,0,0,0-.31-4.15c-3.75-.61-2.37,4.45-5.71,5.68-4.73,1.73-7.65-2.85-7.61-6.12,2.71.15,3.07-1.86,2.2-3.54a8.18,8.18,0,0,1-.56-2,3.69,3.69,0,0,1-2.58.68c-3.89-.57-4.39-11.17-1.89-9.1,1.55,1.27,3.17.56,4.21-.67-4.68-1.79-9.58-4.76-11.91-5.78-10.31-4.55-14.67-4.52-16.26-3.91-.55.21-1,.83-.81,2.15a8.15,8.15,0,0,1,3.21-.46,1.38,1.38,0,1,1-.19,2.76h0c-4.43,0-5.43,3-5.26,4.62.09.87.22,1.61,1.6,1.48a7.1,7.1,0,0,1,3.2-3.36,1.39,1.39,0,0,1,1.85.66,1.38,1.38,0,0,1-.65,1.84h0a3.25,3.25,0,0,0-1.9,3,1.46,1.46,0,0,0,1.36,1.36,5.44,5.44,0,0,0,3.73-.81l1.27-.88s4.86,2.21,8,1.83l.87.91a41.64,41.64,0,0,1,5,7.1c1.61,2.67,3.32,5.67,5.18,8.48,3.89,5.86,7.46,9.32,11,9.32a4.85,4.85,0,0,0,3.6-1.34Zm-3,4.23A15,15,0,0,0,226.34,94c3.84,2.92,12.19,11,12.24,19.56,4.54.44,6.34,1.76,6.34,1.76,1.59,1.12.05,3.26-1.68,2.38-3.24-1.66-8.33-1.16-9.83-1-7,.63-8,5.33-8,8.74,0,3.93,2.78,6.78,6.64,9.29,2,1.27,3.93,2.29,5.4,3.17a16,16,0,0,1,2.25,1.58,4.49,4.49,0,0,1,1.65,3.29c0,5.6-14.26,14.07-17.37,14.07a6.5,6.5,0,0,0-5.43,2.58,7.82,7.82,0,0,0-1.25,5.3,2.51,2.51,0,0,0,2.35,2.42,11.14,11.14,0,0,1,2.07-6.57,1.46,1.46,0,0,1,2.33,1.76h0a8.29,8.29,0,0,0-1.39,5.9c1.84,1.07,4,1.16,6.66.23a11.09,11.09,0,0,1,2-7,1.45,1.45,0,0,1,2.39,1.66,8.11,8.11,0,0,0-1.49,4.64c2.36,1.94,5.69.75,6.08,0,.58-1.15,1.14-2.41,1.82-3.77a37.06,37.06,0,0,1,2.86-4.82c2.49-3.53,6.21-7.46,12.53-11.88,1.51-1,2.69-1.74,1-3.63-.74-.8-1.54-1.75-2.47-2.75-3.84-4.17-2.14-8.46.1-11.28a30.94,30.94,0,0,1,3.6-3.64c1.1-1,2.18-1.85,3-2.63,5.34-5.35,4.45-13.3-2.22-21-3.91-4.51-8.92-14.81-9.11-22.63-2.84-2.47-2.64-8.47-4.24-8.47-2.26,0-.1,4.18.15,6.39.87,7.73-7,8.3-9.28,5.64-1.34-1.57,2.22.35.62-7-.25-1.18-.84-3.58-1.36-3.58-3.15,0-1.36,4-1.67,7.09-.32,3.3-2,5.07-3.93,5.8a7,7,0,0,1-6.72,4.54Zm34.86,39.63c-2.78,2.74-4.85,5.92-1.81,9.21,3.91,4.23,6.64,6.81,1,10.74-10.2,7.17-13.1,12.72-15.15,17.05a10.3,10.3,0,0,0,1.63.52,21.74,21.74,0,0,0,3.41.5c.54,0,.88-1.45,2.19-4.09,2-4,5.65-9.34,14.39-15.69,3.24-2.35,3.12-2.75,1.46-4.84-.91-1.13-2.12-2.42-3.5-4a13.64,13.64,0,0,1-3.66-9.38ZM211.19,43.77c.21.5.62,1.37,1,1.46A71.84,71.84,0,0,0,221,46c1.85.08,6.65.12,7.42-.19,1.25-.5,3.8-3.69,5.82-4,2.76-.43,4.8-1.5,5.64-3.44.6-1.4.59-2,.34-2.67a47.69,47.69,0,0,1-1.81-6.88s3.12-2,3.07-3.22c0-.72-.42-.79-1.47-1a28.54,28.54,0,0,0-4-.17,3.12,3.12,0,0,0-2.25-2.06,36.18,36.18,0,0,0-12.41.29c-.68.15-2,1.9-2.4,2.21a4.66,4.66,0,0,1-2.14.89c-.57.09-2.95.27-3.64.35a32,32,0,0,0-6.86,1.9,6.28,6.28,0,0,0,1.61,4.31,32.5,32.5,0,0,0,.13,4.07c0,.22.36.28.5.26a8.92,8.92,0,0,1,2.42-.08c2.15.26,9.31.23,9.31.23v7Zm7.71,4.58c-1.88,1.53-2,3.68-2.14,5.4a7.53,7.53,0,0,1-1.61,4.43c-.88,1.16-3.24,3.62-5.19,2.53-.91-.51,0,3.21.87,3.5,1.17.39,3.49-1.36,3.88-1.79A17.81,17.81,0,0,0,216,66.64c1.17,2.37,1.06,5.93-1.41,6.86.53,1.48,2.79,2.43,3.9,1.51.54-.45.91-1.92,1.34-2.76,1.68-3.36,4.45-3.28,7.18-2.45.26.08,1.12,3.3.79,6.54-.39,3.91-1.21,6-2.54,6.61-1.15.52,5.63,1.89,5.63-3.46,0-.61-.2-3.78-.2-4.54,0-1.79.58-4.92,4.49-4.92a3.22,3.22,0,0,1,2.71,1.77,18.83,18.83,0,0,1,1.23,3.88c.62,2.86.72,5.56,0,6.38-.54.57,4.45.4,3.51-4.14-.09-.42-.82-3-1-3.75a6.32,6.32,0,0,1-.07-2.9,3.5,3.5,0,0,1,3.51-2.67,3.68,3.68,0,0,1,3.4,2.67c.28.71,1.29,5.84,2.64,6.63,1.67,1,5.07-.56,3.78-.89a3.63,3.63,0,0,1-1.86-1.7,10.84,10.84,0,0,1-1.14-3.81,13,13,0,0,1,.14-5c.58-1.83,1.43-2.32,2.84-2.32.89,0,1.8.83,2.48,1.1,1.92.76,3.11-3.39,2.2-3A3.69,3.69,0,0,1,255,59.65,3.83,3.83,0,0,1,255,58c.21-1.64,1-2,1.5-5.41.09-.58,2.11,1.41,4.28,1.2,1.16-.12,1.74-4.33,1.12-4-2.47,1.3-6.06-.2-5.83-3.52a39.94,39.94,0,0,0,.06-6c0-.4,1.16,0,3.28.09,1.4,0,1.89-.43,2.22-1.29s0-3.81-.42-3.42a4,4,0,0,1-4.68.43,3.31,3.31,0,0,1-2-3.33,9.48,9.48,0,0,0-1.31-5.17c2.81-.18,3.43-.1,4-.95,1.1-1.62-.74-4.85-.92-4-.28,1.44-2.93,2.2-3.93,2.16-3.38-.13-2.4-2.91-6.33-5.21,2.26-1.47,3.17-2.58,3.23-3.21.09-.82-2.67-2.78-2.58-2.06a3.11,3.11,0,0,1-3,3c-1.71.19-3.17-.44-5.6-.57a44.5,44.5,0,0,0-4.47.14s2-3,1.63-3.72c-.23-.43-2.58-1.23-2.29-.45s-.51,2.09-1.86,2.87a14.76,14.76,0,0,1-5,1.71c-1,.21-1,.4-.84,1.07.1.34.23.79.33,1.16,4.77-.36,11.19-.2,11.81,2.33,2.27,0,4.67.39,5.43,1,1.78,1.54,1.94,4.15-1.6,6.88,1,5,2.65,5.73,1,9.5-1.37,3.16-4.58,4.34-7.46,4.9-1.24.24-2.66,2.44-5.16,3.79-1.2.66-6.19.61-10.65.36Zm-11.77,2.58a61.37,61.37,0,0,0,6.92,3.25,13.92,13.92,0,0,1,1.54-6.06c-1.72-.14-3.11-.29-3.81-.41-2.56-.45-4.15-5.46-3.16-6.44h9.13V39.2a70.29,70.29,0,0,1-7.11-.22,11.65,11.65,0,0,0-2.43.17c-3,.46-2.81-3.36-2.81-6a8.71,8.71,0,0,1-1.44-7c.95-.37,1.95-.75,3-1.1-1.34-3.1-3-4.8-4.32-4.72a9,9,0,0,1,.58,1.75,1.45,1.45,0,1,1-2.86.53A7.89,7.89,0,0,0,199,19.76c-.73-.55-3.13-.75-3.2-.14a11.53,11.53,0,0,1,1.79,2.84,1.45,1.45,0,0,1-.8,1.9,1.46,1.46,0,0,1-1.89-.78c-.36-.87-1.31-2.65-2.5-3,0,0-2.66-.43-3,.86-.29,1.05,1.65,2.61,1.83,2.78a5.29,5.29,0,0,1,2.16,4.48v1.59l-2,.75c-2.27.77-3.11,1.84-1,3.25,1.07.73,2,1.45,2.9,2.07a16.66,16.66,0,0,0,2,1.29,2,2,0,0,0,2.19,0l1.67-.84,1.41,1.22a19.69,19.69,0,0,1,6.61,12.87Zm-114.83,0a19.7,19.7,0,0,1,6.62-12.87l1.41-1.22,1.67.84a2,2,0,0,0,2.18,0,15.17,15.17,0,0,0,2-1.29c.86-.62,1.83-1.34,2.91-2.07,2.1-1.41,1.26-2.48-1-3.25l-2-.75V28.72a5.34,5.34,0,0,1,2.16-4.48c.19-.17,2.12-1.73,1.84-2.78-.34-1.29-3-.86-3-.86-1.2.33-2.14,2.11-2.51,3a1.46,1.46,0,0,1-2.69-1.12,11.83,11.83,0,0,1,1.79-2.84c-.06-.61-2.46-.41-3.2.14a7.71,7.71,0,0,0-1.32,2.86,1.46,1.46,0,0,1-2.87-.53,9.74,9.74,0,0,1,.59-1.75c-1.33-.08-3,1.62-4.32,4.72,1,.35,2,.73,3,1.1a8.74,8.74,0,0,1-1.43,7c0,2.67.16,6.49-2.81,6A11.7,11.7,0,0,0,88.79,39a70,70,0,0,1-7.1.22v2.07h9.12c1,1-.59,6-3.16,6.44-.69.12-2.08.27-3.8.41a14.06,14.06,0,0,1,1.54,6.06,60.42,60.42,0,0,0,6.91-3.25ZM80.53,48.35c-4.45.25-9.44.3-10.65-.36-2.49-1.35-3.92-3.55-5.16-3.79-2.87-.56-6.08-1.74-7.45-4.9-1.63-3.77,0-4.52,1-9.5-3.55-2.73-3.39-5.34-1.61-6.88.76-.65,3.16-1,5.43-1,.63-2.53,7-2.69,11.82-2.33.1-.37.22-.82.33-1.16.2-.67.2-.86-.84-1.07a14.88,14.88,0,0,1-5-1.71c-1.34-.78-2.12-2.17-1.85-2.87s-2.06,0-2.29.45c-.38.73,1.63,3.72,1.63,3.72a44.69,44.69,0,0,0-4.48-.14c-2.42.13-3.89.76-5.6.57a3.1,3.1,0,0,1-3-3c.09-.72-2.67,1.24-2.59,2.06.07.63,1,1.74,3.24,3.21-3.93,2.3-2.95,5.08-6.33,5.21-1,0-3.65-.72-3.94-2.16-.17-.87-2,2.36-.92,4,.58.85,1.19.77,4,.95a9.57,9.57,0,0,0-1.32,5.17A3.29,3.29,0,0,1,43,36.09a4,4,0,0,1-4.68-.43c-.4-.39-.78,2.54-.43,3.42s.83,1.33,2.23,1.29c2.11-.06,3.3-.49,3.27-.09a39.93,39.93,0,0,0,.06,6c.24,3.32-3.36,4.82-5.82,3.52-.63-.33,0,3.88,1.12,4C40.87,54,42.88,52,43,52.59c.54,3.42,1.29,3.77,1.49,5.41a3.7,3.7,0,0,1-2.94,4.34,3.64,3.64,0,0,1-1.64-.06c-.92-.39.27,3.76,2.2,3,.67-.27,1.59-1.1,2.48-1.1,1.4,0,2.26.49,2.84,2.32a13,13,0,0,1,.14,5,10.86,10.86,0,0,1-1.15,3.81A3.57,3.57,0,0,1,44.55,77c-1.3.33,2.1,1.88,3.78.89,1.35-.79,2.35-5.92,2.64-6.63a3.67,3.67,0,0,1,3.4-2.67,3.5,3.5,0,0,1,3.51,2.67,6.32,6.32,0,0,1-.08,2.9c-.15.71-.88,3.33-1,3.75-.94,4.54,4,4.71,3.51,4.14-.77-.82-.66-3.52,0-6.38a18.83,18.83,0,0,1,1.23-3.88A3.21,3.21,0,0,1,64.23,70c3.92,0,4.52,3.13,4.5,4.92,0,.76-.2,3.93-.2,4.54,0,5.35,6.78,4,5.62,3.46-1.32-.6-2.14-2.7-2.54-6.61-.32-3.24.54-6.46.8-6.54,2.72-.83,5.5-.91,7.18,2.45.42.84.8,2.31,1.34,2.76,1.11.92,3.37,0,3.89-1.51-2.46-.93-2.57-4.49-1.41-6.86a17.38,17.38,0,0,0,1.32-4.22c.39.43,2.71,2.18,3.88,1.79.87-.29,1.78-4,.87-3.5-2,1.09-4.31-1.37-5.19-2.53a7.53,7.53,0,0,1-1.61-4.43c-.1-1.72-.26-3.87-2.15-5.4Zm7.72-4.58H79.19v-7s7.15,0,9.31-.23a8.84,8.84,0,0,1,2.41.08c.14,0,.5,0,.51-.26a30.7,30.7,0,0,0,.12-4.07,6.29,6.29,0,0,0,1.62-4.31A32,32,0,0,0,86.3,26c-.69-.08-3.07-.26-3.64-.35a4.66,4.66,0,0,1-2.14-.89c-.41-.31-1.72-2.06-2.4-2.21A36.23,36.23,0,0,0,65.7,22.3a3.12,3.12,0,0,0-2.24,2.06,28.48,28.48,0,0,0-4,.17c-1.06.22-1.45.29-1.48,1,0,1.25,3.08,3.22,3.08,3.22a49,49,0,0,1-1.81,6.88c-.26.69-.27,1.27.34,2.67.84,1.94,2.88,3,5.64,3.44,2,.32,4.57,3.51,5.82,4,.76.31,5.56.27,7.42.19a71.84,71.84,0,0,0,8.79-.72c.4-.09.8-1,1-1.46ZM41.7,129.72A13.6,13.6,0,0,1,38,139.1c-1.38,1.6-2.59,2.89-3.49,4-1.66,2.09-1.78,2.49,1.45,4.84,8.75,6.35,12.41,11.73,14.4,15.69,1.31,2.64,1.64,4.14,2.19,4.09a21.61,21.61,0,0,0,3.4-.5,10.42,10.42,0,0,0,1.64-.52c-2.06-4.33-5-9.88-15.15-17.05-5.6-3.93-2.87-6.51,1-10.74,3-3.29,1-6.47-1.81-9.21ZM76.56,90.09a7,7,0,0,1-6.72-4.54c-2-.73-3.61-2.5-3.94-5.8-.3-3.09,1.49-7.09-1.67-7.09-.51,0-1.1,2.4-1.36,3.58-1.6,7.38,2,5.46.62,7-2.29,2.66-10.14,2.09-9.28-5.64.25-2.21,2.42-6.39.16-6.39-1.61,0-1.41,6-4.24,8.47-.19,7.82-5.2,18.12-9.11,22.63-6.67,7.69-7.56,15.64-2.22,21,.78.78,1.86,1.67,3,2.63a29.47,29.47,0,0,1,3.6,3.64c2.25,2.82,4,7.11.1,11.28-.92,1-1.73,2-2.46,2.75-1.73,1.89-.55,2.58,1,3.63,6.31,4.42,10,8.35,12.52,11.88A37.13,37.13,0,0,1,59.35,164c.68,1.36,1.23,2.62,1.82,3.77.39.77,3.72,2,6.08,0a8.19,8.19,0,0,0-1.5-4.64,1.46,1.46,0,0,1,2.4-1.66,11.15,11.15,0,0,1,2,7c2.67.93,4.81.84,6.65-.23a8.28,8.28,0,0,0-1.38-5.9,1.46,1.46,0,0,1,.28-2.05,1.45,1.45,0,0,1,2,.28,11.07,11.07,0,0,1,2.07,6.57,2.51,2.51,0,0,0,2.35-2.42,7.82,7.82,0,0,0-1.25-5.3,6.49,6.49,0,0,0-5.42-2.58c-3.12,0-17.37-8.47-17.37-14.07a4.46,4.46,0,0,1,1.65-3.29A15.41,15.41,0,0,1,62,137.84c1.47-.88,3.43-1.9,5.39-3.17,3.86-2.51,6.65-5.36,6.65-9.29,0-3.41-1-8.11-8-8.74-1.49-.14-6.58-.64-9.82,1-1.73.88-3.27-1.26-1.69-2.38,0,0,1.81-1.32,6.35-1.76C60.91,105,69.25,96.88,73.1,94a15,15,0,0,0,3.46-3.87Zm-3-4.23a4.84,4.84,0,0,0,3.6,1.34c3.55,0,7.13-3.46,11-9.32,1.87-2.81,3.58-5.81,5.18-8.48a42.79,42.79,0,0,1,5-7.1l.88-.91c3.13.38,8-1.83,8-1.83l1.28.88a5.43,5.43,0,0,0,3.72.81,1.46,1.46,0,0,0,1.37-1.36,3.27,3.27,0,0,0-1.9-3,1.38,1.38,0,0,1-.66-1.84,1.39,1.39,0,0,1,1.85-.66h0a7.07,7.07,0,0,1,3.21,3.36c1.38.13,1.51-.61,1.6-1.48.17-1.66-.83-4.59-5.27-4.62a1.38,1.38,0,1,1-.2-2.76h0a8.2,8.2,0,0,1,3.22.46c.22-1.32-.27-1.94-.81-2.15-1.6-.61-6-.64-16.27,3.91-2.32,1-7.22,4-11.9,5.78,1,1.23,2.66,1.94,4.2.67,2.51-2.07,2,8.53-1.88,9.1A3.73,3.73,0,0,1,86.22,66a8.16,8.16,0,0,1-.55,2c-.87,1.68-.51,3.69,2.2,3.54,0,3.27-2.88,7.85-7.62,6.12-3.33-1.23-2-6.29-5.7-5.68a10.57,10.57,0,0,0-.31,4.15c.55,6.89,3.3,5.32,3.45,6.09C78,83.91,76,85.43,73.6,85.86ZM17,59.51c1,2.54,1.62,3.33,6.3,3.15a31.13,31.13,0,0,1,1.42,7.76,23.46,23.46,0,0,1-3.52,13.9c-.73,1.2-1.86,2.89-3.05,4.8a58,58,0,0,0-3.21,5.77c-4.83,10.42-1.47,22.87,9.9,26.48a24.87,24.87,0,0,0,9.45.56A13.45,13.45,0,0,1,33,118.54c-8.4.88-14.55-3-16.77-9.07-1.64-4.5-.79-9.07.8-13.07a61.49,61.49,0,0,1,6.06-10.79c4.88-7.37,4.27-16,2.58-23.35,1.63-.86,3.3-1.52,3.3-4.49a7.7,7.7,0,0,0-2.38-6c-4.36-4.1-11.24-1.49-13.65.33a8.39,8.39,0,0,1,2.67,3.53c.54,1.21.91,2.59,1.41,3.9Z"/></g></g></g></g></g></svg>