<svg xmlns="http://www.w3.org/2000/svg" viewBox="0 0 297.79 297.79"><defs><style>.cls-1,.cls-4{fill:#2e6abd;}.cls-1{stroke:#2e6abd;stroke-width:0.62px;}.cls-2{fill:#fff;stroke:#fff;stroke-width:0.62px;}.cls-3{fill:#ed1248;}</style></defs><title>Bayern</title><g id="Слой_2" data-name="Слой 2"><g id="Layer_1" data-name="Layer 1"><g id="layer5"><path id="path4822" class="cls-1" d="M.31,148.9A148.59,148.59,0,1,1,148.9,297.48,148.58,148.58,0,0,1,.31,148.9Z"/><path id="path4867" class="cls-2" d="M6.78,148.74A142.07,142.07,0,1,1,148.85,290.81,142.07,142.07,0,0,1,6.78,148.74Z"/><path id="path3794" class="cls-3" d="M148.78,12.44A136.28,136.28,0,1,0,285.12,148.78,136.24,136.24,0,0,0,148.78,12.44Zm9.33,8.79,10.42,1.62,3.11,9.33a24.55,24.55,0,0,1,1.08,5l.14.13a40.24,40.24,0,0,1,2.84-4.73l5.54-7.71,10,1.62L175.83,45.44l-1.89,12.31-9.2-1.49,2-12.31ZM140.26,22,155.81,54,146.07,55l-2.7-6.62L130.93,49.9l-1.49,7L120.37,58l8.26-34.63Zm-5.41,7.44A44.12,44.12,0,0,1,134,35l-1.63,8.11,8.12-1L137,34.62a34.37,34.37,0,0,1-1.89-5.14Zm64.65.68L220.2,41,217,47.06l-12.71-6.62L201.4,46l11.9,6.22-3.25,6.09-11.9-6.22L195,57.88l13.12,6.9-3.11,6.09L184,59.78ZM97.65,32.32a7.34,7.34,0,0,1,7.85,4.06c3.06,5.46-.36,8.55-1.63,9.74l.14.27c2.61-1,7.09-1.82,10.14,3.65,4.4,7.86-4,12.63-7,14.34l-12,6.76L78.71,41.79,91,34.89A19.23,19.23,0,0,1,97.65,32.32ZM96.3,40a3,3,0,0,0-1,.13,8.18,8.18,0,0,0-1.49.68l-4.32,2.44L92.78,49,97,46.52c2-1.12,2.73-2.62,1.63-4.6C97.89,40.65,97.18,40.07,96.3,40ZM234.54,51.26,245,62.62c1.72,1.86,7.67,8.16.68,14.61-3.09,2.84-6.6,4-10.55,2.16L229.26,95l-6.9-7.58L228,74.66l-2.43-2.57-9.47,8.65L209.92,74Zm-131.07.13a5.1,5.1,0,0,0-3.11.81L96,54.64,99.54,61l4.74-2.57a3.61,3.61,0,0,0,1.62-5.14A3.25,3.25,0,0,0,103.47,51.39Zm132.42,11-5.41,5,3.24,3.52c.8.87,2.74,3,5.55.41,1.42-1.32,1.9-3.2-.14-5.42Zm-87.11,1.08a85.28,85.28,0,1,1-85.22,85.35A85.41,85.41,0,0,1,148.78,63.43ZM54.64,66a12.63,12.63,0,0,1,5.68,1l-3.11,8c-1.58-.67-4.82-1.75-7,1.76-1.33,2.11-2,6.41,5.41,11.09,4.67,2.94,9.9,4.87,12.72.4,2-3.18-.13-5.93-1.62-7.71l6.08-6.08c4.87,5.18,5.65,10.67,1.63,17-4.56,7.21-12.72,11.51-23.67,4.6s-10.2-16.67-6-23.4C47.64,68.07,51.2,66.26,54.64,66ZM263.48,89.26l3.52,11-13,12.85a45.65,45.65,0,0,1-5.95,5l.14.4a44.46,44.46,0,0,1,6.62-2.57l15.56-5.14,2.71,8.25L241.16,129.3l-3.65-11,13.66-13.53a29.09,29.09,0,0,1,5.41-4.33l-.13-.27c-1.64.62-3,1.29-4.87,1.89l-17.45,5.55-2.57-8.12Zm-231,7.58L39,99.27l-4.74,13.26L40.84,115l4.6-13,6.49,2.3-4.6,13,11.91,4.33-3.11,8.66L24.61,118.89ZM57.34,175.7,63.84,188l-12.72,12.3a51.14,51.14,0,0,1-4.19,3.39l.13.27a46.17,46.17,0,0,1,5.82-1.49l16.91-3,6.22,12L46.25,227l-4.06-7.84,17.05-8.93a70.87,70.87,0,0,1,6.89-3.11l-.27-.54c-1.27.4-5.36,1.31-7.84,1.76L38.41,212,35.3,206l15.55-15.42c1.51-1.48,3.64-3.25,4.6-4.06l-.27-.41c-1.09.67-4.88,2.93-7.31,4.2l-16.23,8.52-4.05-7.58Zm184.5.27,29.49,16.09-5.55,10.15-19.07-.54a27.89,27.89,0,0,1-6.9-.95l-.13.27c1.57.74,3,1.22,4.73,2.17l16.1,8.79-4.06,7.57-29.49-16,5.55-10.14,18.26.54a44.28,44.28,0,0,1,7.71.81l.13-.41a44.06,44.06,0,0,1-6.36-3l-14.47-7.85ZM223,208.84l4.6,5-10.42,9.74,4.2,4.46,9.87-9.06,4.6,5-9.74,9.19,4.46,4.87,10.82-10,4.74,5-17.45,16.23-22.86-24.62ZM79.8,215.46,87.1,221l-13,16.77c-2.17,2.79-2.78,5.74.27,8.12,3.27,2.54,6,1,8.11-1.63l13-16.63,7,5.41-13,16.64c-5.15,6.62-12.09,7.26-19.35,1.62C64.1,246.57,60.85,240,67,232.1Zm9.33,7,4.6,3.65-8.25,5.68ZM200,227.77l15.83,29.49-8.12,4.46L201,249.28l-9.74,5.14,6.63,12.44-8.12,4.33L173.94,241.7l8.11-4.32,6,11,9.73-5.14-5.81-11.09Zm-90.89,8.12,10.95,3.38,3,18.12a45.13,45.13,0,0,1,.68,7.71l.4.14a46.88,46.88,0,0,1,1.76-6.9l4.87-15.69,8.12,2.57-10,31.92-11-3.38-3.25-18.94a27.17,27.17,0,0,1-.27-6.89l-.4-.14c-.44,1.69-.63,3.26-1.22,5.14l-5.55,17.45-8.11-2.57Zm49.91,6.76A12,12,0,0,1,171.23,250l-7.84,3.51c-.67-1.58-2.19-4.6-6.22-3.65-2.43.57-5.79,3.11-3.79,11.63,1.26,5.36,3.52,10.41,8.66,9.2,3.66-.85,4-4.31,4.19-6.63h8.66c-.17,7.1-3.35,11.54-10.69,13.26-8.3,2-17.32-.66-20.29-13.26s4.43-19.14,12.17-21A17.42,17.42,0,0,1,159.06,242.65Z"/><path id="path5000" class="cls-4" d="M148.64,70.06a78.56,78.56,0,0,0-70.33,43.42l11.77,20.15L93.19,97l17.45,29.9,3-36.52,17.59,29.89,3.11-36.52,17.45,29.89L154.87,77l17.45,30L175,74.52A78.6,78.6,0,0,0,148.64,70.06ZM172.32,107l-3.12,36.66,17.45,29.76,3-36.52Zm-3.12,36.66-17.44-29.89-3.12,36.52L131.2,120.38l-3.12,36.52-17.44-29.76-3.12,36.52L125,193.55l3-36.65,17.58,30,3.11-36.52,17.45,29.76Zm-23.67,43.28-3.11,36.66L125,193.69l-2.43,29.08A78.61,78.61,0,0,0,218,185.57l-10.82-18.8-3.11,36.66-17.45-29.9-3.11,36.66L166.09,180.3,163,217Zm61.68-20.15,3-36.66-17.32-29.75-3.11,36.52Zm-99.69-3.11L90.08,133.77l-3,36.65,17.31,29.76ZM178.67,76l14.2,24.21,1.22-15.69A77.61,77.61,0,0,0,178.67,76Zm34,26.92-2.3,27.32,16.37,28a80.28,80.28,0,0,0,.54-9.61A78.32,78.32,0,0,0,212.62,102.93ZM70.33,141.75c-.2,2.25-.27,4.58-.27,6.89a78.38,78.38,0,0,0,14.88,46l2-24.34Zm34.08,58.56-1.08,12.58a78.76,78.76,0,0,0,12.58,7.17Z"/></g></g></g></svg>