<svg xmlns="http://www.w3.org/2000/svg" viewBox="0 0 299.32 245.72"><defs><style>.cls-1{fill:#de9500;}.cls-2{fill:#fff;}.cls-3{fill:#00954c;}.cls-4{fill:#d7013e;}</style></defs><title>Betis</title><g id="Слой_2" data-name="Слой 2"><g id="Слой_1-2" data-name="Слой 1"><path id="path3" class="cls-1" d="M188.46,97.15a55.65,55.65,0,0,0-77.61,0H0L149.66,245.72,299.32,97.15Z"/><path id="path5" class="cls-2" d="M149.66,86.59a50.57,50.57,0,1,1-50.57,50.57,50.63,50.63,0,0,1,50.57-50.57"/><path id="path7" class="cls-3" d="M126.3,127.36h4.18V121H126.3v-7.63h12.25v20.89H126.3v-6.91m0,27.51h4.18v-6.33H126.3v-6.78h12.25v20.33H126.3Zm34.3,7.22H145.76V141.76h2.89v2.17h4.17v-2.17h5.91c1.64,0,1.87,2.92,1.87,2.92v17.41Zm0-32.09,0,1s-.37,3.26-2.5,3.31h-5.26v-2.74h-4.17v2.74h-2.89V113.38H160.6V130Zm18.26,25.45c-.38,1.1-2.33,6.58-4.42,6.58a.7.7,0,0,0-.24.06h-7.12V144.36h0a10,10,0,0,0-.67-2.6h7.37a8,8,0,0,1,5.43,7.93h-4.73v5.76Zm.32-28.24h0s-2.59,7-4.86,7h-8.21a8.16,8.16,0,0,0,1-3.31V113.38H174a8.33,8.33,0,0,1,5.22,8.06h-4.74v5.77Zm11.12-5.77H186s-.89-11.39-9.41-15.12h-9.16v-.23c0-9.19-6.74-11.07-11.64-11.07s-7.19,2-7.19,2v6.63s.12-2.34,6.46-2.34c7.07,0,5.69,5,5.69,5h-15v-4c0-6.85-3.47-8.65-7.52-8.65h-2.86V101h1.73a1.37,1.37,0,0,1,1.44,1.45v3.89H115.49v7.06h5.05V121h-5.05v6.34h5.05v6.92h-5.05v7.49h5.05v6.78h-5.05v6.33h5.05v7.22h-5.05v6.34h22.7v1.8a1,1,0,0,1-1.08,1.08h-2.29v7.35h4.59a6.77,6.77,0,0,0,6.2-6.78v-3.45h15c0,3.35-1.76,4.95-6.37,4.95s-5.9-2.23-5.9-2.23v6.69c1.37,1.52,7,1.95,7,1.95,11.44,0,11.77-9.56,11.73-11.36h10.2s7.24-3.05,8.2-13h4.79v-5.76h-4.48c0-.42-.23-9.66-5.1-12.3,0,0,4.68-2.65,4.72-10.17h4.86Z"/><polygon id="polygon9" class="cls-3" points="33.71 102.35 33.71 123.28 54.79 144.21 54.79 102.35 33.71 102.35"/><polygon id="polygon11" class="cls-2" points="33.71 123.28 33.71 102.35 12.62 102.35 12.62 102.35 33.71 123.28"/><path id="path13" class="cls-3" d="M93.89,137.16A55.5,55.5,0,0,1,97,119v-16.6H75.87v62.79L97,186.07V155.4A55.63,55.63,0,0,1,93.89,137.16Z"/><polygon id="polygon15" class="cls-2" points="75.87 102.35 54.79 102.35 54.79 144.21 75.87 165.14 75.87 102.35"/><path id="path17" class="cls-3" d="M118,183.07V207l21.08,20.93v-36A55.36,55.36,0,0,1,118,183.07Z"/><path id="path19" class="cls-2" d="M97,155.4v30.67L118,207V183.07A56,56,0,0,1,97,155.4Z"/><path id="path21" class="cls-2" d="M106.12,102.35H97V119A56,56,0,0,1,106.12,102.35Z"/><path id="path23" class="cls-3" d="M160.2,191.93v36L181.28,207V183.07A55.36,55.36,0,0,1,160.2,191.93Z"/><path id="path25" class="cls-2" d="M149.66,192.93a56.22,56.22,0,0,1-10.54-1v36l10.54,10.46,10.54-10.46v-36A56.38,56.38,0,0,1,149.66,192.93Z"/><path id="path27" class="cls-3" d="M202.36,102.35V119a55.63,55.63,0,0,1,0,36.45v30.67l21.09-20.93V102.35Z"/><path id="path29" class="cls-2" d="M181.28,183.07V207l21.08-20.93V155.4A56,56,0,0,1,181.28,183.07Z"/><path id="path31" class="cls-2" d="M193.19,102.35a55.51,55.51,0,0,1,9.17,16.6v-16.6Z"/><polygon id="polygon33" class="cls-3" points="244.53 144.21 265.61 123.28 265.61 102.35 244.53 102.35 244.53 144.21"/><polygon id="polygon35" class="cls-2" points="244.53 102.35 223.45 102.35 223.45 165.14 244.53 144.21 244.53 102.35"/><polygon id="polygon37" class="cls-2" points="286.69 102.35 265.61 102.35 265.61 123.28 286.69 102.35"/><path id="path39" class="cls-4" d="M143,54.38a6.58,6.58,0,0,1,3.22-5.65V34c-11.93.52-22.73,3.77-31,8.84a18.56,18.56,0,0,0,6.18,9.41,6.49,6.49,0,0,1,2.65-.57,6.58,6.58,0,0,1,2.87,12.5l0,.09a5.2,5.2,0,0,0,9.59-.66,4,4,0,0,0,.16-.59,2.2,2.2,0,1,1,3-1.3,2.25,2.25,0,0,1-.72,1,5.18,5.18,0,0,0,9.5-.78,4.62,4.62,0,0,0,.22-1A6.59,6.59,0,0,1,143,54.38"/><path id="path41" class="cls-4" d="M124,64.79a6.58,6.58,0,0,1-6.58-6.57c0-.12,0-.23,0-.34A27,27,0,0,1,109.34,47C103.73,51.86,100,57.72,99,64.12a6.48,6.48,0,0,1,1.83-.27,6.58,6.58,0,0,1,4.87,11,5.15,5.15,0,0,0,3.59,1.45,5.22,5.22,0,0,0,5.21-5.2,4.07,4.07,0,0,0,0-.61,2.2,2.2,0,0,1,.21-4.39,2.21,2.21,0,0,1,2.21,2.21,2.26,2.26,0,0,1-.36,1.2,5.16,5.16,0,0,0,8.64-4.81,6.26,6.26,0,0,1-1.07.09"/><path id="path43" class="cls-4" d="M156.32,54.38a6.57,6.57,0,0,0-3.23-5.65V34c11.93.52,22.74,3.77,31,8.84a18.56,18.56,0,0,1-6.18,9.41,6.57,6.57,0,0,0-5.52,11.93l0,.09a5.21,5.21,0,0,1-7,2.34,5.2,5.2,0,0,1-2.62-3,5.66,5.66,0,0,1-.15-.59,2.2,2.2,0,1,0-3-1.3,2.25,2.25,0,0,0,.72,1,5.18,5.18,0,0,1-9.5-.78,5.28,5.28,0,0,1-.23-1,6.59,6.59,0,0,0,5.67-6.51"/><path id="path45" class="cls-4" d="M175.29,64.79a6.58,6.58,0,0,0,6.58-6.57c0-.12,0-.23,0-.34A26.89,26.89,0,0,0,190,47c5.62,4.83,9.34,10.69,10.4,17.09a6.49,6.49,0,0,0-1.84-.27,6.58,6.58,0,0,0-4.86,11,5.2,5.2,0,0,1-8.8-3.75,6,6,0,0,1,0-.61,2.2,2.2,0,0,0-.2-4.39,2.21,2.21,0,0,0-2.21,2.21,2.17,2.17,0,0,0,.36,1.2,5.18,5.18,0,0,1-8.65-4.81,6.47,6.47,0,0,0,1.08.09"/><path id="path47" class="cls-1" d="M214.89,51.73a23.13,23.13,0,0,0-7.63-16.85,30.32,30.32,0,0,0-20.24-8C181,18.49,169,12.4,154.94,11.15a5.36,5.36,0,0,0-3.8-5.1V5h2.62V2h-2.63V0h-2.94V2h-2.63V5h2.63v1a5.35,5.35,0,0,0-3.8,5.1c-14.1,1.25-26,7.34-32.08,15.78a30.31,30.31,0,0,0-20.24,8,23.11,23.11,0,0,0-7.64,16.85C84.42,58.52,88,65,94.31,70c0,.15,0,.3,0,.45A6.59,6.59,0,0,0,100.87,77a6.46,6.46,0,0,0,2.07-.34,7.11,7.11,0,0,0,6.47,3.84l-.78.55a2.69,2.69,0,0,0-.59,3.7,2.52,2.52,0,0,0,2.2,1.23,3.9,3.9,0,0,0,.88-.12l3.37,4.61.67-.49a58.36,58.36,0,0,1,69,0l.67.49,3.37-4.61a3.74,3.74,0,0,0,.88.12,2.5,2.5,0,0,0,2.19-1.23,2.69,2.69,0,0,0-.58-3.7l-.78-.55a7.11,7.11,0,0,0,6.47-3.84,6.42,6.42,0,0,0,2.07.34A6.59,6.59,0,0,0,205,70.43c0-.15,0-.3,0-.45C211.35,65,214.89,58.52,214.89,51.73ZM120.1,71a5.2,5.2,0,0,1-3.56-1.44,2.17,2.17,0,0,0,.36-1.2,2.21,2.21,0,1,0-4.41,0,2.19,2.19,0,0,0,2,2.18,6,6,0,0,1,0,.61,5.2,5.2,0,0,1-8.8,3.75A6.56,6.56,0,0,0,99,64.12a7.58,7.58,0,0,0-.8.28c-4.51-3.66-7-8.12-7-12.67a16.41,16.41,0,0,1,5.49-11.9,22.72,22.72,0,0,1,12.08-5.76,19.85,19.85,0,0,0-.78,5.49A20.6,20.6,0,0,0,109.43,47a26.91,26.91,0,0,0,8.13,10.85,1.84,1.84,0,0,0,0,.33,6.58,6.58,0,0,0,6.59,6.58,7.6,7.6,0,0,0,1.07-.09A5.19,5.19,0,0,1,120.1,71Zm28.43-9a5.19,5.19,0,0,1-9.51.78,2.26,2.26,0,0,0,.73-1,2.21,2.21,0,1,0-3,1.3c-.05.2-.1.4-.16.59a5.21,5.21,0,0,1-9.59.66l0-.09a6.57,6.57,0,0,0-5.52-11.93,18.69,18.69,0,0,1-6.18-9.41,13.54,13.54,0,0,1-.4-3.23c0-11.09,14.07-20.56,31.43-21.68V48.73a6.57,6.57,0,0,0,2.44,12.16A6.1,6.1,0,0,1,148.53,61.92Zm23.77,2.3a5.2,5.2,0,0,1-9.59-.66,4,4,0,0,1-.16-.59,2.2,2.2,0,1,0-3-1.3,2.26,2.26,0,0,0,.73,1,5.19,5.19,0,0,1-9.51-.78,5.25,5.25,0,0,1-.22-1A6.57,6.57,0,0,0,153,48.73V17.88c17.36,1.12,31.43,10.59,31.43,21.68a13.54,13.54,0,0,1-.4,3.23,18.69,18.69,0,0,1-6.18,9.41,6.58,6.58,0,0,0-5.53,11.93Zm28.79.18a7.58,7.58,0,0,0-.8-.28,6.57,6.57,0,0,0-6.71,10.73,5.19,5.19,0,0,1-8.79-3.75,6,6,0,0,1,0-.61,2.19,2.19,0,0,0,2-2.18,2.21,2.21,0,1,0-4.41,0,2.17,2.17,0,0,0,.36,1.2,5.17,5.17,0,0,1-8.65-4.81,6.26,6.26,0,0,0,1.07.09,6.58,6.58,0,0,0,6.58-6.57c0-.12,0-.23,0-.34A26.91,26.91,0,0,0,189.89,47a20.6,20.6,0,0,0,1.42-7.47,19.85,19.85,0,0,0-.78-5.49,22.75,22.75,0,0,1,12.08,5.76,16.41,16.41,0,0,1,5.49,11.9C208.1,56.29,205.59,60.74,201.09,64.4Z"/></g></g></svg>