<svg xmlns="http://www.w3.org/2000/svg" viewBox="0 0 288.63 298.41"><defs><style>.cls-1{fill:#ffed00;}.cls-2{fill:#e2001a;}.cls-3{fill:#009ee0;}.cls-4{fill:#fff;}.cls-5{fill:#009036;}</style></defs><title>Blackburn</title><g id="Слой_2" data-name="Слой 2"><g id="Layer_1" data-name="Layer 1"><path d="M257,229a141.1,141.1,0,0,0,29.54-86.8C286.5,63.78,222.72,0,144.32,0S2.13,63.78,2.13,142.18A141.1,141.1,0,0,0,31.67,229L0,250v48.41H288.63V250Z"/><path class="cls-1" d="M7.62,252.13,35.4,233.58c-.68-.8-1.34-1.6-2-2.41L2.78,251.49v3.85H58.19q-2-1.56-4-3.21Z"/><path class="cls-1" d="M255.23,231.17c-.65.8-1.31,1.59-2,2.39l27.79,18.57H234.48q-2,1.65-4,3.21h55.41v-3.85Z"/><path class="cls-2" d="M36.28,234.65l-24.12,16.1H52.49q-4.49-3.81-8.71-8C41.16,240.12,38.67,237.42,36.28,234.65Z"/><path class="cls-2" d="M252.37,234.62q-3.59,4.17-7.52,8.12-4.22,4.2-8.71,8h40.37Z"/><path class="cls-1" d="M144.32,2.79C67.45,2.79,4.92,65.32,4.92,142.18a138.5,138.5,0,0,0,40.83,98.58,141.27,141.27,0,0,0,17.12,14.59H225.62a139.33,139.33,0,0,0,58.09-113.17C283.71,65.32,221.18,2.79,144.32,2.79Z"/><path d="M144.32,6C69.21,6,8.11,67.08,8.11,142.17A136.21,136.21,0,0,0,68.59,255.35H220a136.21,136.21,0,0,0,60.48-113.18C280.52,67.08,219.42,6,144.32,6Z"/><path class="cls-3" d="M144.32,6.92C69.73,6.92,9.05,67.59,9.05,142.17A135.3,135.3,0,0,0,70.29,255.35H218.34a135.3,135.3,0,0,0,61.24-113.18C279.58,67.59,218.9,6.92,144.32,6.92Z"/><path d="M144.32,38.26A103.93,103.93,0,1,0,248.24,142.17,104,104,0,0,0,144.32,38.26Z"/><path class="cls-1" d="M144.32,39.2a103,103,0,1,0,103,103A103.1,103.1,0,0,0,144.32,39.2Z"/><path d="M144.32,42A100.2,100.2,0,1,0,244.51,142.18,100.31,100.31,0,0,0,144.32,42Z"/><path class="cls-4" d="M144.32,45.69a96.5,96.5,0,1,0,96.49,96.49A96.61,96.61,0,0,0,144.32,45.69Z"/><path class="cls-1" d="M285.84,258.13v37.5H2.78v-37.5Z"/><path d="M6.67,261.36a.69.69,0,0,0-.69.69v29.66a.69.69,0,0,0,.69.69H282a.69.69,0,0,0,.69-.69V262.05a.69.69,0,0,0-.69-.69Z"/><path class="cls-4" d="M281.27,262.74V291H7.36V262.74Z"/><path d="M15.86,285.46H19l2.41-5.15h8.93l2.38,5.15h3.36l-8.44-17.18H24.26m-1.85,10.05L26,270.76l3.5,7.57Z"/><path d="M38.43,268.28v17.18h3v-7.37h5c3.91,0,4.82.2,5.06,2.75l.18,2.25a4.38,4.38,0,0,0,.58,2.37h3.59V285c-.74-.29-1-.94-1.06-2l-.23-2.81c-.18-1.84-.62-2.78-2.59-3.22,2-.72,3.11-2,3.11-3.91a4.33,4.33,0,0,0-2.94-4.15,12.68,12.68,0,0,0-4.93-.61m-5.76,2h5.26c3.43,0,5.2.47,5.2,2.8s-1.67,3-5.2,3H41.46Z"/><polyline points="64.35 285.46 67.44 285.46 67.44 270.38 74.61 270.38 74.61 268.28 57.21 268.28 57.21 270.38 64.35 270.38"/><polyline points="77.34 285.46 93.75 285.46 93.75 283.32 80.4 283.32 80.4 277.57 92.48 277.57 92.48 275.55 80.4 275.55 80.4 270.41 93.51 270.41 93.51 268.28 77.34 268.28"/><polyline points="106.09 285.46 122.52 285.46 122.52 283.32 109.14 283.32 109.14 277.57 121.25 277.57 121.25 275.55 109.14 275.55 109.14 270.41 122.25 270.41 122.25 268.28 106.09 268.28"/><polyline points="131.25 285.46 134.34 285.46 134.34 270.38 141.48 270.38 141.48 268.28 124.08 268.28 124.08 270.38 131.25 270.38"/><polyline points="152.85 285.46 167.25 285.46 167.25 283.29 155.97 283.29 155.97 268.28 152.85 268.28"/><path d="M167.17,285.46h3.2l2.41-5.15h8.94l2.38,5.15h3.35L179,268.28H175.6m-1.88,10.05,3.56-7.57,3.52,7.57Z"/><path d="M192.86,283.38v-6h5.88c3.47,0,5.14.85,5.14,2.89s-1.65,3.07-4.79,3.07m-6.23-7.89v-5.25h5.64c2.94,0,4.38.81,4.38,2.56s-1.53,2.69-4.64,2.69Zm-3.09,10h9.61c4.83,0,7.65-2,7.65-5.15,0-2.22-1.62-3.74-4.33-4.12,2.15-.67,3.27-1.92,3.27-3.74,0-2.77-2.38-4.17-7.09-4.17h-9.11Z"/><path d="M210.08,276.89c0,5.73,4.09,9,10.73,9s10.73-3.3,10.73-9-4.06-9.05-10.73-9.05-10.73,3.3-10.73,9.05m3.18,0c0-4.47,2.9-7,7.55-7s7.56,2.57,7.56,7-2.89,7-7.56,7S213.26,281.36,213.26,276.89Z"/><path d="M235.41,268.28v17.18h3.07v-7.37h5c3.91,0,4.83.2,5.06,2.75l.17,2.25a4.75,4.75,0,0,0,.62,2.37h3.56V285c-.74-.29-.94-.94-1.06-2l-.24-2.81c-.14-1.84-.58-2.78-2.59-3.22,2.07-.72,3.12-2,3.12-3.91a4.3,4.3,0,0,0-2.93-4.15,12.73,12.73,0,0,0-5-.61m-5.76,2h5.26c3.45,0,5.21.47,5.21,2.8s-1.68,3-5.21,3h-5.26Z"/><polyline points="256.35 285.46 272.77 285.46 272.77 283.32 259.4 283.32 259.4 277.57 271.51 277.57 271.51 275.55 259.4 275.55 259.4 270.41 272.51 270.41 272.51 268.28 256.35 268.28"/><path d="M230.25,155.23v-.09c0-2.42-1.63-4.58-4.75-6.42a.68.68,0,0,0-.35-.09h-2.68c3-7.48,4.31-11.53,4.31-20.15a.68.68,0,0,0-.67-.69,7.21,7.21,0,0,1-2.94-1,7.84,7.84,0,0,0-3.57-1.11c-2.05,0-4.32,1.09-6.74,2.24-5,2.4-10.7,5.11-16.93,0a.7.7,0,0,0-.58-.14.68.68,0,0,0-.47.37c-3.44,7-8.72,10.91-13.85,14.65-7.44-2.8-15.31-6.46-18.23-9,2.9-1.21,4.45-3.71,5.94-6.13a37.52,37.52,0,0,0,4-7.6c.81-1.85,1.65-3.42,2.46-4.94,1.92-3.56,3.57-6.64,3.57-11.76,0-2.17,0-6.22-2.69-6.56l0,.23h0l0-.23a55.53,55.53,0,0,0-7.18-.4c-6.11-3.81-7-12.2-7-20.73v-.82l-.81-.1a4.29,4.29,0,0,0-3.21.65l-.38.21a88.25,88.25,0,0,1-2.08-18.55c0-.44,0-.87,0-1.31v-.5L155,55c-3.52-2.35-5.32-.57-6.9,1a12,12,0,0,1-1.79,1.55c-4.38,2.87-5.83,6.46-7.11,9.63a19.64,19.64,0,0,1-2.79,5.26c-3-3-9-6.68-9.25-6.85l-2-1.2.81,3.11c.28,1.06.5,1.94.69,2.74-.49-.91-1-1.86-1.45-2.81-2.12-4.2-3.49-6.79-5.1-7.19a1.75,1.75,0,0,0-1.45.27c-1.39,1-6,5.38-9.44,8.57-1.34,1.26-2.71,2.55-3.27,3-2-.19-4.71-2.36-7.13-4.3-3.08-2.47-5.74-4.61-7.92-4l-.7.21.47,9.3a6.38,6.38,0,0,0-2.64,5.23A4.85,4.85,0,0,0,90,82.21a7.42,7.42,0,0,1,1.56,2s.16.32.16.32.58,1.26.58,1.26l.41.89A33,33,0,0,0,89,85.45a10.6,10.6,0,0,0-3.83-.7,2.35,2.35,0,0,0-1.83.74c-.95,1-.78,2.76-.61,4.58l.13,1.87a52.39,52.39,0,0,0,.27,5.93c-1.14-.28-2.63-.75-4.2-1.25l-1.13-.36c-3-1.09-5.86-2.05-7.44-1.8l-.76.12,0,.77c-.34,12.83,2.74,25.76,8.25,34.59,2.7,4.34,15.77,8.71,21.76,9.2a12.22,12.22,0,0,0-.47,2,15.24,15.24,0,0,0-.45,4,4.87,4.87,0,0,0,1.86,3.85c-5.23,6-11.92,7-17.43,7.78-3.46.52-6.44,1-8.63,2.43a.67.67,0,0,0-.3.46.68.68,0,0,0,.13.53c4.34,5.79,8.24,11.83,4.24,16.36a.68.68,0,0,0-.17.59.69.69,0,0,0,.38.48,21.38,21.38,0,0,0,2.48,1c4,1.41,9.06,3.17,8.24,11.77a.73.73,0,0,0,.18.53.68.68,0,0,0,.51.23c7.33,0,37.84-3.55,42.57-11.45.9-1.51,2.68-2.43,4.56-3.41l1.21-.64c0,.2,0,.31,0,.32l-.2,1.26,1.16-.51A40.19,40.19,0,0,0,150,170a3.57,3.57,0,0,1,.26,1.2c0,1.12-.9,1.66-2.24,2.46a14.05,14.05,0,0,0-2.56,1.81.72.72,0,0,0-.22.51.28.28,0,0,0,0,.09.68.68,0,0,0,.35.51l2,1.05c2.66,1.39,5,2.65,6.93,4.76-13.51-3.7-18.61-.59-24.42,3-4.58,2.86-9.78,6.1-20.55,6.1a.67.67,0,0,0-.59.36.68.68,0,0,0-.09.33.77.77,0,0,0,.11.39l1.21,2a15.76,15.76,0,0,0,3.77,4.73,18.77,18.77,0,0,0-6.93,5.24,29.19,29.19,0,0,1-3.7,3.61.69.69,0,0,0-.25.54.57.57,0,0,0,0,.13.67.67,0,0,0,.48.53,11.41,11.41,0,0,0,2.54.19c1.31,0,4.76.07,4.84.84l.4,4.75c.44,6.11.76,10.53,5,17.13a.69.69,0,0,0,1.06.12c2-1.89,8.85-5.47,11.82-6v.14a.66.66,0,0,0,.12.38,19.18,19.18,0,0,0,5.56,5.8.73.73,0,0,0,.7,0c7.83-4.35,11.29-8.67,13-16.68.32.65.67,1.28,1,1.89a10.05,10.05,0,0,1,1.63,3.83.7.7,0,0,0,.46.57.71.71,0,0,0,.71-.16c2.9-2.88,4.5-8.43,4.5-12.81a13.87,13.87,0,0,0-.26-2.69,18.18,18.18,0,0,0,4.11-4.18,21.83,21.83,0,0,1,2.41-2.78,37.15,37.15,0,0,1,1.93,10.66,24.11,24.11,0,0,1-.54,4.91,22.83,22.83,0,0,1-6.09.36.69.69,0,0,0-.56.22.72.72,0,0,0-.17.58c.59,3.6,1.74,16.47.53,19.09a.69.69,0,0,0,.1.73.66.66,0,0,0,.71.22,37.76,37.76,0,0,0,6.26-2.55c3.08-1.46,6.27-3,9.31-3a.68.68,0,0,0,.69-.65c.12-2.3.17-4.6.17-6.9,0-8.36-.68-16.63-1.36-24a12.45,12.45,0,0,0,1.19-3.61,9.93,9.93,0,0,1,1.24-3.55c2.46-3.61,5.32-2.82,9.65-1.63,6.86,1.9,16.26,4.5,30.36-8.69l1-.87c1.93-1.71,4.11-3.65,4.11-6.59,0-2.05-2.1-2.42-3.78-2.73a5.61,5.61,0,0,1-2.87-1l1.32-.85C221.55,166.44,230.25,160.9,230.25,155.23ZM118,156.93c-2.81-2-5.51-4.15-7.68-5.87.63,0,1.28.07,2,.07h7.56l0,.2A16.73,16.73,0,0,1,118,156.93Zm15,7.55a4.31,4.31,0,0,1-2.58-.17,28.15,28.15,0,0,0,6.31-6.56,18.33,18.33,0,0,1,2,7.54C136.91,164.47,134.52,163.94,133,164.48Zm33,6a60.58,60.58,0,0,0,1.75,10.08,51,51,0,0,1,1.76,11.38c0,.49,0,1-.05,1.46-3.85-6.41-6.67-13.53-9.38-20.45-1.34-3.41-2.73-6.93-4.22-10.32a28.74,28.74,0,0,0,3.29-9.53s.05-.24.09-.47l.47,0a95.44,95.44,0,0,0,10.12.5c-2.38,3.63-3.9,8.25-3.9,14.75C166,168.73,166,169.58,166.05,170.46Z"/><path class="cls-5" d="M213.65,169.85l1.95-1.26c5-3.16,13.26-8.45,13.26-13.36v-.07c0-1.87-1.36-3.6-3.93-5.15h-3.49a.68.68,0,0,1-.57-.3.71.71,0,0,1-.12-.39.75.75,0,0,1,.05-.26c3.11-7.76,4.51-11.68,4.58-20a9.59,9.59,0,0,1-2.83-1,6.92,6.92,0,0,0-3-1c-1.73,0-3.87,1-6.14,2.1-4.95,2.37-11.09,5.24-17.73.3-3.4,6.51-8.29,10.36-13.15,13.91,5.5,2,10.54,3.41,12.86,3.41l.27,1.33a64.3,64.3,0,0,1-24.14,5c-2.57,3.56-4.2,8.09-4.2,14.74,0,.81,0,1.64.07,2.51a59.1,59.1,0,0,0,1.72,9.85,52.58,52.58,0,0,1,1.79,11.68,21.62,21.62,0,0,1-.29,3.67.69.69,0,0,1-.54.57.71.71,0,0,1-.72-.31c-4.48-7-7.56-14.81-10.55-22.4-1.21-3.1-2.48-6.28-3.81-9.37a28.43,28.43,0,0,1-4,4.89,5.82,5.82,0,0,1,.58,2.26c0,1.87-1.47,2.74-2.91,3.6a16.4,16.4,0,0,0-1.54,1l1,.54c3.3,1.73,6.42,3.37,8.72,6.83a.68.68,0,0,1,.12.38.73.73,0,0,1-.14.42.69.69,0,0,1-.76.24c-14.51-4.43-19.53-1.31-25.34,2.31-4.56,2.84-9.73,6-20,6.28l.6,1c1.18,2,2.3,3.88,4.29,5a.69.69,0,0,1,.36.6v0a.67.67,0,0,1-.42.6,17.86,17.86,0,0,0-7.55,5.4c-.73.81-1.53,1.69-2.6,2.68h.68c2.8,0,6,.09,6.19,2.09l.4,4.79c.42,5.9.75,9.89,4.41,15.8,2.86-2.27,10-5.95,12.81-5.95a.69.69,0,0,1,.69.69v.68a18.57,18.57,0,0,0,4.69,5c8.14-4.61,11.1-9,12.49-18.53a.69.69,0,0,1,1.37.09,8.81,8.81,0,0,0,1.65,4.38,15.25,15.25,0,0,1,1.48,3c2.09-2.78,3.25-7.28,3.25-10.85a11.48,11.48,0,0,0-.31-2.82,1.11,1.11,0,0,1,0-.17.68.68,0,0,1,.32-.58,15.63,15.63,0,0,0,4.14-4.13,18.88,18.88,0,0,1,3.45-3.71.73.73,0,0,1,.64-.12.71.71,0,0,1,.45.46c1.72,5.56,3.14,11.1,1.63,17.75a.69.69,0,0,1-.51.52,23,23,0,0,1-6.1.49,116,116,0,0,1,.95,13.33,27,27,0,0,1-.29,4.41,51.08,51.08,0,0,0,4.87-2.1c3-1.43,6.1-2.85,9.22-3,.1-2.08.16-4.16.16-6.25,0-8.37-.69-16.68-1.38-24v-.07a.78.78,0,0,1,.1-.36A10.32,10.32,0,0,0,174,195.4a10.94,10.94,0,0,1,1.44-4c3-4.44,6.8-3.4,11.17-2.19,6.54,1.81,15.51,4.29,29.05-8.37l1-.9c1.79-1.59,3.64-3.23,3.64-5.56,0-.8-.84-1-2.63-1.36s-3.59-.64-4.26-2.32a.85.85,0,0,1,0-.26A.67.67,0,0,1,213.65,169.85Z"/><path class="cls-5" d="M103.6,150.17h.1a6.33,6.33,0,0,1-2-.52c-5.54,6.49-12.61,7.56-18.42,8.43-3,.44-5.51.86-7.41,1.87,2.56,3.44,5.72,7.91,5.72,12.18a7.67,7.67,0,0,1-1.48,4.52c.48.19,1,.39,1.55.58,3.74,1.31,9.26,3.24,9.26,11.31,0,.36,0,.75,0,1.13,9.4-.18,36.59-4,40.65-10.76,1.1-1.84,3.14-2.9,5.12-3.93.71-.37,1.41-.74,2-1.12.13-1.31.26-3.15.26-5.18,0-.59,0-1.21,0-1.82l-.22-.12c-2-.94-4.13-1.35-5.18-1a6.68,6.68,0,0,1-4.41-.5c-11.54,7.88-27.14,8.15-28,8.16l-2.61,0,2.26-1.31c9.52-5.53,14.17-10.3,16.52-14-2.93-2.14-6-4.55-9.1-7l-.43-.34c-.72-.09-1.44-.21-2.19-.33Z"/><path class="cls-5" d="M159.9,151.28l-1.07-.1c-.72,0-.82.63-1,1.67-.6,3.68-2.44,14.66-17.87,22a52.42,52.42,0,0,0,.37-6.12c0-4.27-.59-9.4-3-12.6l-.61-.81-.53.86c-7.73,12.46-25.53,15.15-32.35,15.73,15.53-9.61,16.76-16.79,17.34-20.33,0,0,0-.21.09-.43h4.44l.17-.08a28.25,28.25,0,0,0,4.23-2.27c.92-.56,1.87-1.14,3-1.72,3.23-1.58,6-3.17,8.69-4.71,6-3.42,11.1-6.36,19.13-7.94.14,0,.26-.06.39-.09,4.19,4.33,22.78,11.89,31.35,13.53C183.32,151.39,172.31,152.55,159.9,151.28Z"/><path class="cls-2" d="M160.06,76.64a2.65,2.65,0,0,0-1.23.42,5.42,5.42,0,0,1-1.83.76l-.89.19-.21-.89a91.36,91.36,0,0,1-2.32-20v-.78c-1.92-1.11-2.72-.41-4.15,1a13.9,13.9,0,0,1-2.08,1.78c-3.89,2.55-5.17,5.71-6.41,8.77A20.07,20.07,0,0,1,137.57,74a42.87,42.87,0,0,0,4.27,6.57c1,1.4,2.14,2.84,3.38,4.82l0,0,0,0a5.34,5.34,0,0,0,1.3,1.47,7.07,7.07,0,0,1,1.68,2,19,19,0,0,1,2.08,8,23.77,23.77,0,0,0,1.44,6.94l.06.16v3.62q.56-.56,1.11-1.08l1.52-1.52c4.83-5.21,7.6-7.54,11.69-8.3C160.37,91.64,160.07,82.39,160.06,76.64Z"/><path class="cls-2" d="M142.51,114.23v-.08c0-.06,1.31-5.58-.42-9-.22.07-.46.13-.71.19l-1.08.28a14,14,0,0,1-4.24.69c-4.26,0-7.41-1.46-10.46-2.87s-5.85-2.69-9.7-2.69a.82.82,0,0,0-.66.25c-.67.67-.74,2.55-.74,4.06,0,.22,0,.43,0,.62v.57c0,.07.7,9.06.7,9.06v0c0,5.14-.22,8.84-3.17,13.25l-.56.89a13.91,13.91,0,0,1-2.77,3.6C130.37,134.85,141.4,121.83,142.51,114.23Z"/><path class="cls-2" d="M133.51,97.85a19.47,19.47,0,0,0,3.57,1.77,5.15,5.15,0,0,0,1.5.26,34.26,34.26,0,0,0-2.82-9.49l-.7-1.72a7.75,7.75,0,0,0-1.46-2.08,7.86,7.86,0,0,1-1.79-2.82,52.14,52.14,0,0,0-4-8.3l-.47-.61a46.72,46.72,0,0,1-3.72-6.55c-1.13-2.25-3-6-3.86-6.21-1.35,1-6.07,5.42-9.21,8.37-3.82,3.58-3.82,3.58-4.25,3.58-2.66,0-5.67-2.41-8.58-4.75-2-1.57-4.13-3.31-5.53-3.61.06,1.08.25,4.78.35,6.86a5.57,5.57,0,0,1,1.36-.17,11.34,11.34,0,0,1,5.74,1.72,21.57,21.57,0,0,0,2.92,1.33l.68.25a30.16,30.16,0,0,0,6.16,1.81A24.19,24.19,0,0,1,115.49,80a32.82,32.82,0,0,0,3.56,1.72l1.2.42A7.38,7.38,0,0,1,124,84.25c2.1,2.23,2.61,4.4,3.15,6.71a24.12,24.12,0,0,0,1.47,4.68l.06,0A18.72,18.72,0,0,1,133.51,97.85Z"/><path class="cls-2" d="M144.34,114.56c-.56,3.68-3.18,9-8.84,13.36,5.89-3.39,9.13-7.56,9.93-10a19.48,19.48,0,0,1,2.35-4.39,25.62,25.62,0,0,0,1.64-2.73,9.21,9.21,0,0,1,.78-1.29H150v-5.21a25.59,25.59,0,0,1-1.49-7.24,17.57,17.57,0,0,0-1.87-7.33,5.44,5.44,0,0,0-1.3-1.45,7,7,0,0,1-1.71-2l.05.08c-1.2-1.91-2.26-3.32-3.29-4.69a44.4,44.4,0,0,1-4.68-7.31,44.17,44.17,0,0,0-7.48-5.89,24.29,24.29,0,0,1,1,5.15c0,.16,0,.29,0,.42a54.64,54.64,0,0,1,4.41,9.1A6.47,6.47,0,0,0,135,85.37,9.9,9.9,0,0,1,136.77,88l.71,1.75a35.33,35.33,0,0,1,3,10.21c1.41,0,2.71.08,3.53.9a2.41,2.41,0,0,1,.67,1.77,2.17,2.17,0,0,1-.88,1.75C145.76,108.31,144.44,114.13,144.34,114.56Z"/><path class="cls-2" d="M104.69,109.28a31.42,31.42,0,0,1-1.07-7.61v0a9.53,9.53,0,0,1-2.32-5.26l-.58-2.45,0-.16v-4.2c.36-2.06,1.09-6.33,4.62-6.33a10.58,10.58,0,0,1,5.26,1.69l1,.5,2,1c3.6,1.69,7,3.3,8.62,7.68,1.34.27,2.71.59,4.21,1a29.73,29.73,0,0,1-1-3.66c-.53-2.23-.94-4-2.73-5.91a6,6,0,0,0-3-1.6l-1.29-.45a34.87,34.87,0,0,1-3.76-1.8A22.43,22.43,0,0,0,109,79.3a31.66,31.66,0,0,1-6.44-1.88l-.65-.25a23,23,0,0,1-3.15-1.43,9.62,9.62,0,0,0-4.89-1.51c-2.37,0-4,2.27-4,4.39,0,.93.45,1.42,1.31,2.27a9,9,0,0,1,1.94,2.5s.17.35.17.36L93.93,85a18,18,0,0,1,1.36,3.55,22,22,0,0,1,1,7,24.59,24.59,0,0,0,.6,5.55,34.2,34.2,0,0,1,.77,4.15,21.73,21.73,0,0,0,1.06,4.8,7.06,7.06,0,0,0,2,2.73,9.89,9.89,0,0,1,2.14,2.7,32.5,32.5,0,0,1,2.23,5,9.43,9.43,0,0,0,.62-4A30,30,0,0,0,104.69,109.28Z"/><path class="cls-2" d="M109.92,128.52l.58-.94c2.68-4,2.87-7.28,2.88-12.21,0-.08-.7-9.05-.7-9.05V105c0-2,.11-4.15,1.27-5.32a2.72,2.72,0,0,1,2-.79c4.26,0,7.42,1.45,10.47,2.86s5.84,2.69,9.69,2.69a12.69,12.69,0,0,0,3.75-.61l1.14-.3c1.26-.28,1.83-.68,1.83-1s-.1-.43-.13-.46c-.36-.36-1.62-.36-2.64-.36a10.57,10.57,0,0,1-3.58-.4,21.14,21.14,0,0,1-3.87-1.91,16.93,16.93,0,0,0-4.39-2c-6.77-1.87-10.35-2.53-16.92-2.53-1.94,0-3.77,0-4.9,1.15-1,1-1,2.16-.93,4.17l0,1.43a30,30,0,0,0,1,7.2,31.34,31.34,0,0,1,1.07,7.61c0,2.64-.3,4.42-1.81,6.49a23.17,23.17,0,0,1,.46,4.74l.05,1.46a10.69,10.69,0,0,1-.21,3.34C107.9,131.75,108.78,130.38,109.92,128.52Z"/><path class="cls-2" d="M104,132.74a7.38,7.38,0,0,0,.37-3.47l-.06-1.56a22.5,22.5,0,0,0-3.13-11.43,8.61,8.61,0,0,0-1.8-2.24A8.66,8.66,0,0,1,97,110.63a23.33,23.33,0,0,1-1.15-5.18,31.57,31.57,0,0,0-.74-4,27.11,27.11,0,0,1-.65-6,20.86,20.86,0,0,0-.82-6.09,25.71,25.71,0,0,1-3.35-1.4,10.7,10.7,0,0,0-5.15-1.46c-.34,0-.43.1-.46.13-.39.44-.24,2-.13,3.16l.13,2A39.43,39.43,0,0,0,87,106.29,18,18,0,0,0,89.92,112c.6.87,1.22,1.77,1.85,2.87l-1.6.92c-.59-1-1.19-1.9-1.77-2.74a20,20,0,0,1-3.2-6.23A51.54,51.54,0,0,1,83.42,100a33.76,33.76,0,0,1-5.52-1.7,38,38,0,0,0-6.5-2c0,.32,0,.65,0,1,0,11.84,2.94,23.56,8,31.67,2.34,3.75,15.81,8.33,21.15,8.38.72-1.66,1.61-3.53,3.32-4.24v-.36Z"/><path class="cls-2" d="M112.76,88.06l-2.08-1-1-.53a8.9,8.9,0,0,0-4.38-1.46c-1.62,0-2.29,1.89-2.78,4.72v3.75l.58,2.45a19.32,19.32,0,0,0,.49,2,4.94,4.94,0,0,1,1.46-3.25c1.66-1.69,4.08-1.69,6.21-1.69a53.84,53.84,0,0,1,8.72.6C118.51,90.76,115.92,89.54,112.76,88.06Z"/><path class="cls-2" d="M168.41,98.33v0l0,0c-4.83.29-7.3,2.29-12.56,8l-1.6,1.6a14.24,14.24,0,0,0-3.13,3.77,25.92,25.92,0,0,1-1.75,2.92,17.44,17.44,0,0,0-2.14,4c-2.13,6.39-15.54,19.33-41.55,16.12v-.07l-.28-.07v.14c-1.55,0-2.3,1.46-3.26,3.68,0,0-.06.15-.07.16a13.52,13.52,0,0,0-1.54,6.58,3.42,3.42,0,0,0,3.39,3.26l2,.3a37,37,0,0,0,6.47.64h13a29.88,29.88,0,0,0,3.83-2.08c.95-.58,1.93-1.18,3.15-1.8,3.2-1.56,5.94-3.13,8.6-4.66,5.84-3.35,11.36-6.51,19.7-8.15,3.35-.64,4.84-3.05,6.56-5.85a36.22,36.22,0,0,0,3.88-7.3c.85-2,1.75-3.65,2.54-5.13,1.87-3.48,3.35-6.23,3.35-10.88,0-3-.36-4.63-1.07-4.72A49.28,49.28,0,0,0,168.41,98.33Z"/><path class="cls-1" d="M164.18,107.16a1.39,1.39,0,0,0,1.2,1.56l7,.92a1.4,1.4,0,1,0,.36-2.77l-7-.91A1.38,1.38,0,0,0,164.18,107.16Z"/><path class="cls-1" d="M146.78,153.61l-3.41,14.13a1.41,1.41,0,0,0,1,1.69,1.39,1.39,0,0,0,1.68-1l3.42-14.14a1.4,1.4,0,0,0-2.72-.65Z"/><path class="cls-1" d="M165.11,103.53a1.4,1.4,0,0,0,1.32,1.47l8.34.47a1.4,1.4,0,0,0,1.48-1.31,1.41,1.41,0,0,0-1.32-1.48l-8.35-.47A1.4,1.4,0,0,0,165.11,103.53Z"/><path class="cls-1" d="M144,128.82a1.39,1.39,0,0,0-.53,1.9l1.85,3.27a1.41,1.41,0,0,0,1.91.52,1.39,1.39,0,0,0,.52-1.9l-1.85-3.26A1.39,1.39,0,0,0,144,128.82Z"/><path class="cls-1" d="M148.15,125.53a1.39,1.39,0,0,0-.18,2l4.65,5.56a1.39,1.39,0,0,0,2.14-1.79l-4.64-5.56A1.4,1.4,0,0,0,148.15,125.53Z"/><path class="cls-1" d="M152.12,122.54a1.41,1.41,0,0,0-.07,2l6,6.47a1.4,1.4,0,1,0,2-1.91l-6-6.47A1.4,1.4,0,0,0,152.12,122.54Z"/><path class="cls-1" d="M133.59,109.4a23.85,23.85,0,0,0-9.73-2.06c-4.18,0-6,3.94-6.73,8.08v4.65c3.47-4.41,3.47-10.88,9.05-10.88,2.76,0,4.61.91,7.41.21"/><path d="M133.1,190.32a.23.23,0,0,0,.12.28,47,47,0,0,1,4.49,2.38l1.52.87.78.35c1.21.53,2.37,1,2.37,2.21,0,2.74-3.15,4.17-6.27,4.17A43.33,43.33,0,0,1,123,198.74a.23.23,0,0,0-.28.14.22.22,0,0,0,.09.29,12.64,12.64,0,0,0,7.09,2.12l1.43,0c1.61-.08,3.43-.16,4.2.58a1.41,1.41,0,0,1,.4,1.08c0,1.3-.89,2.14-1.84,3a11.32,11.32,0,0,0-1.38,1.47c-1.38,2-2.7,3.62-4,5.2a50.39,50.39,0,0,0-6,8.73h0a.2.2,0,0,0,0,.11.23.23,0,0,0,.43.12,18.92,18.92,0,0,1,4.32-4.78l.29-.25a45.68,45.68,0,0,0,5.47-6.07,49.57,49.57,0,0,1,5-5.59,7.88,7.88,0,0,1-.17.87,6,6,0,0,0-.24,1.56,10.22,10.22,0,0,0,.36,2.59,10.42,10.42,0,0,1,.34,2.5l-.23,4.18a.22.22,0,0,0,.16.22.24.24,0,0,0,.27-.1l.33-.49a9.14,9.14,0,0,0,1.08-1.86.17.17,0,0,0,0-.07V205.7c.67-3.92,3-5.33,6.91-7.47,0,.79-.64,11.41-.64,11.41a.22.22,0,0,0,.19.23.23.23,0,0,0,.27-.16,25,25,0,0,0,.84-5.13c.22-2.39.4-4.45,1.88-6.63s3.71-2.6,6.09-3.11a14.94,14.94,0,0,0,5-1.7.25.25,0,0,0,.11-.17.23.23,0,0,0-.07-.19,2.17,2.17,0,0,1-.32-.59c-.21-.49-.47-1.1-1.22-1.1a15.75,15.75,0,0,0-6.73,1.76,15.13,15.13,0,0,1-6.5,1.71c-2.66,0-4.54-1-6.53-2.13a16.81,16.81,0,0,0-6-2.28A.24.24,0,0,0,133.1,190.32Z"/><path class="cls-1" d="M124.74,199.69a43.44,43.44,0,0,0,6,1.1l-.84,0A11.29,11.29,0,0,1,124.74,199.69Z"/><path class="cls-1" d="M138,192.57c-.85-.49-1.68-1-2.63-1.47a22.52,22.52,0,0,1,3.77,1.74c2,1.13,4,2.19,6.76,2.19a15.7,15.7,0,0,0,6.68-1.75,15.35,15.35,0,0,1,6.54-1.72c.42,0,.57.31.79.81a4.44,4.44,0,0,0,.24.49,15.18,15.18,0,0,1-4.6,1.52c-2.48.53-4.82,1-6.38,3.31s-1.75,4.5-2,6.85q-.07.84-.18,1.71c.2-3.46.48-8.42.48-8.43a.23.23,0,0,0-.11-.2.25.25,0,0,0-.24,0c-4.09,2.25-6.8,3.74-7.53,8v8.57a7.72,7.72,0,0,1-.86,1.5c0-.58.18-3.32.18-3.32a10.32,10.32,0,0,0-.36-2.61,10.24,10.24,0,0,1-.34-2.48,5.43,5.43,0,0,1,.23-1.44,6.18,6.18,0,0,0,.24-1.59.24.24,0,0,0-.14-.22.25.25,0,0,0-.25,0,45.77,45.77,0,0,0-5.48,6.08,47,47,0,0,1-5.42,6l-.29.25c-.78.67-1.47,1.29-2.14,2a67.07,67.07,0,0,1,4.11-5.52c1.28-1.58,2.59-3.21,4-5.22a10.85,10.85,0,0,1,1.32-1.4c1-.92,2-1.87,2-3.37a1.87,1.87,0,0,0-.55-1.42A2.27,2.27,0,0,0,135,201l1.09,0c3.34,0,6.73-1.6,6.73-4.65,0-1.49-1.41-2.1-2.66-2.64l-.74-.33Z"/><path d="M213.79,137.79h0c-3.73,4.81-6.83,6.93-11.52,10.13l-.71.49a14.3,14.3,0,0,0-2.93,2.94,9.19,9.19,0,0,1-4.12,3.36v-5a.25.25,0,0,0-.21-.24.23.23,0,0,0-.25.19,14.82,14.82,0,0,0-.24,3.69,8.58,8.58,0,0,1-.87,4.82,28.51,28.51,0,0,1-3.71,4.84c-.81.92-1.65,1.86-2.54,3a11,11,0,0,0-1.33,2.51c-.66,1.59-1.24,3-2.89,3a.9.9,0,0,1-.47-.19,1.78,1.78,0,0,0-.48-.2V163l-1.62-6.55a.23.23,0,0,0-.28-.17.24.24,0,0,0-.18.27,38,38,0,0,1,.72,9.27v2.27c0,7.05-2.52,11.15-6,16.81l-.23.44c-.78,1.5-1.85,3.54-.63,4.29s3.09-.5,3.81-1.47a13,13,0,0,0,2.81-6.56c1.12-5.35,5.77-6.53,11.14-7.89l.26-.07a72.35,72.35,0,0,1,8.09-1.53,55.57,55.57,0,0,0,10-2.17.25.25,0,0,0,.16-.26.24.24,0,0,0-.24-.2H200c-4.3,1.61-6.64,2.31-11,2.31a3.28,3.28,0,0,1-1.28-.24l-.27-.08c2.64-1.73,3.67-3.37,5.05-6.83,1.05-2.86,3-5.76,5.48-5.35,5.39.92,8.64-.45,13.37-2.81l1-.59c.32-.19.63-.37.94-.53a24.19,24.19,0,0,1,4.62-.48.23.23,0,0,0,.24-.23.24.24,0,0,0-.24-.24h-2.76a4.52,4.52,0,0,0-2,.5c-1.13.23-2.21.5-3.26.77a29.9,29.9,0,0,1-8,1.26l-1.75,0a16.1,16.1,0,0,1-2.68,0,21.6,21.6,0,0,1,5.94-6.26,29.63,29.63,0,0,0,7.94-8.7,35.86,35.86,0,0,1,2.78-3.9h0a.24.24,0,0,0,.05-.14.21.21,0,0,0-.09-.18A.24.24,0,0,0,213.79,137.79Z"/><path class="cls-1" d="M194.35,155.3c2.27-.7,3.42-2.13,4.65-3.64a13.61,13.61,0,0,1,2.82-2.86l.72-.48a54.15,54.15,0,0,0,8.46-6.63l0,.05a29,29,0,0,1-7.83,8.58,21.35,21.35,0,0,0-6.27,6.73.27.27,0,0,0,0,.12.36.36,0,0,0,0,.1.26.26,0,0,0,.18.13,17,17,0,0,0,3.16.06l1.72-.06a30.62,30.62,0,0,0,8.08-1.27c.57-.15,1.14-.3,1.73-.44l-.63.36c-4.63,2.32-7.83,3.67-13.08,2.77-2.71-.46-4.87,2.61-6,5.65-1.41,3.53-2.42,5.11-5.28,6.88a.23.23,0,0,0,.07.42l.72.22a3.64,3.64,0,0,0,1.42.26c4.45,0,6.83-.71,11.15-2.32h7.6a60.77,60.77,0,0,1-8.38,1.7,71.43,71.43,0,0,0-8.14,1.54l-.25.06c-5.53,1.41-10.31,2.62-11.5,8.26a12.42,12.42,0,0,1-2.71,6.37c-.71.94-2.41,1.92-3.18,1.36a.77.77,0,0,1-.34-.71,8.13,8.13,0,0,1,1.13-3l.22-.43c3.51-5.71,6.06-9.85,6.06-17v-2.26c0-.61,0-1.18,0-1.73,0-1.07,0-2.09-.11-3.15l.53,2.11v8.3a.23.23,0,0,0,.24.23,1,1,0,0,1,.46.18,1.32,1.32,0,0,0,.72.26c2,0,2.65-1.65,3.32-3.24a10.64,10.64,0,0,1,1.27-2.41c.88-1.14,1.71-2.08,2.52-3a29.14,29.14,0,0,0,3.76-4.92,7,7,0,0,0,.91-3.15Z"/><path d="M134.18,166.77a1.12,1.12,0,0,0-.78-.62c-.74-.14-1.62.54-2.54,1.26a8.56,8.56,0,0,1-1.63,1.09l-3,1.46c-1.74.82-3.24,1.52-5.35,2.73-6.59,3.65-10.89,4.82-17.72,4.82a.26.26,0,0,0-.23.16.25.25,0,0,0,.09.27,4.84,4.84,0,0,0,2.69.74,43.24,43.24,0,0,0,7.17-.68,52.8,52.8,0,0,1,6-.7c5.63-.42,11.37-1.33,14.34-7.33l.3-.53C134,168.58,134.59,167.62,134.18,166.77Z"/><path class="cls-1" d="M30.36,198l4.85-2.14-2.41-5.41a4.92,4.92,0,0,0-1.59-2.08,2.24,2.24,0,0,0-2.32-.07,2.18,2.18,0,0,0-1.5,2.12,9.45,9.45,0,0,0,.82,2.76m10.62,1.06,5.84-2.61-2.38-5.38a5.76,5.76,0,0,0-1.41-2.08,3,3,0,0,0-3.38-.25,2.62,2.62,0,0,0-1.73,2.47,6.28,6.28,0,0,0,.62,2.38Zm-15.29-7.58a6.09,6.09,0,0,1,2.91-2.49,5.51,5.51,0,0,1,3.67-.45,6,6,0,0,1,2,1.12,5.4,5.4,0,0,1,.8-3.38,6.43,6.43,0,0,1,2.85-2.3,6.87,6.87,0,0,1,3.94-.58,6.65,6.65,0,0,1,4.61,2.82,14.82,14.82,0,0,1,1.71,3l4.41,9.93L28.51,204.1l-4.76-10.67C22.6,190.72,22.51,188.46,23.54,186.67Z"/><polyline class="cls-1" points="17.84 176.97 16.72 172.09 35.91 167.65 33.24 156.07 37.45 155.11 41.27 171.56"/><path class="cls-1" d="M28.16,143l.32-6.09-9.61,2.5m-5.62,2.5.29-5.64L38,129l-.29,5.43-5,1.3-.47,8.84,4.85,1.92-.26,5.23Z"/><path class="cls-1" d="M17.9,117.9a10,10,0,0,1-1.09-8c1-3.9,3-6.46,6-7.61a8.56,8.56,0,0,1,4.74-.53l-1.21,4.85a7.27,7.27,0,0,0-2.85.59,5.14,5.14,0,0,0-2.5,3.56,5,5,0,0,0,1.12,4.73,10.61,10.61,0,0,0,5.67,3.06c2.62.64,4.7.58,6.29-.15a5.31,5.31,0,0,0,3-3.65,4.76,4.76,0,0,0-.7-4.32A7.49,7.49,0,0,0,34,108.55l1.21-4.82a10.82,10.82,0,0,1,5.38,4.79,9.71,9.71,0,0,1,.73,7.23,10.52,10.52,0,0,1-5.2,7.12c-2.65,1.38-5.85,1.58-9.61.67-4.06-1-6.94-2.91-8.58-5.64"/><polyline class="cls-1" points="23.63 90.98 25.8 86.54 34.68 90.86 29.86 78.19 32.71 72.38 37.3 85.54 54.52 82.46 51.7 88.25 39 90.3 40.17 93.53 47.38 97.06 45.23 101.5"/><path class="cls-1" d="M45.53,62.5l4,3.47,3.88-4.44a5.14,5.14,0,0,0,1.24-2.32,2.35,2.35,0,0,0-1-2.15,2.13,2.13,0,0,0-2.5-.47A9.11,9.11,0,0,0,49,58.53m3.52,10,4.85,4.21,3.85-4.44a5.56,5.56,0,0,0,1.29-2.15A3,3,0,0,0,61.31,63a2.6,2.6,0,0,0-3-.53,6.1,6.1,0,0,0-1.88,1.59Zm.41-17a6.42,6.42,0,0,1,3.5,1.56,5.59,5.59,0,0,1,1.94,3.17,6.15,6.15,0,0,1-.18,2.26,5.6,5.6,0,0,1,3.41-.7,6.43,6.43,0,0,1,3.29,1.61,6.91,6.91,0,0,1,2.18,3.32,6.42,6.42,0,0,1-.59,5.38,16,16,0,0,1-2,2.8l-7.14,8.19L39.24,63.38l7.63-8.82C48.85,52.39,50.88,51.36,52.93,51.54Z"/><path class="cls-1" d="M59.78,41.87l4.09-3.06L72.74,50.6a8.22,8.22,0,0,0,2.65,2.53q1.94,1.09,4.41-.77t1.94-4A8.33,8.33,0,0,0,80,45.1l-8.9-11.78,4.08-3.06L84.09,42a11.92,11.92,0,0,1,2.64,5.47c.38,3-1.06,5.73-4.38,8.23s-6.37,3.17-9.13,2a12,12,0,0,1-4.53-4.06"/><path class="cls-1" d="M93.41,25.82l2.2,6.09,5.35-2a6.24,6.24,0,0,0,2.26-1.24,2.66,2.66,0,0,0,.47-3.05,3,3,0,0,0-2.35-2.27,6.3,6.3,0,0,0-2.47.45m3.41-5a6.47,6.47,0,0,1,2.77.79,7.59,7.59,0,0,1,1.85,1.47,6.82,6.82,0,0,1,1.29,2.23,7.68,7.68,0,0,1,.36,3.47,4.84,4.84,0,0,1-1.89,3.15,4.53,4.53,0,0,1,2.85,1,8,8,0,0,1,1.94,3.29l.56,1.5a12.72,12.72,0,0,0,.88,2,1.79,1.79,0,0,0,1.32,1l.21.59-5.2,1.88c-.33-.44-.56-.82-.73-1.09a13.52,13.52,0,0,1-.92-1.87l-.79-2.09a4.22,4.22,0,0,0-1.85-2.59,4.46,4.46,0,0,0-3.09.3L97,35.64l3.24,8.85-4.62,1.67-8.2-22.57,11.05-4A11.19,11.19,0,0,1,102.28,18.8Z"/><polyline class="cls-1" points="116.03 13.71 121.27 13.07 132.82 28.56 130.77 11.92 135.41 11.33 138.35 35.17 133.35 35.78 121.54 20.06 123.63 36.99 118.98 37.55"/><path class="cls-1" d="M160.25,16.45l-1,6.34,5.65.92a6.34,6.34,0,0,0,2.56,0,2.7,2.7,0,0,0,1.91-2.44,3,3,0,0,0-1-3.12,5.19,5.19,0,0,0-2.36-.79m5.41-2.76a6,6,0,0,1,2,2,7.16,7.16,0,0,1,.91,2.21,6.58,6.58,0,0,1,.06,2.56,7.24,7.24,0,0,1-1.38,3.2,4.77,4.77,0,0,1-3.17,1.85,4.49,4.49,0,0,1,2,2.23,7.54,7.54,0,0,1,.12,3.82l-.27,1.59a11.44,11.44,0,0,0-.2,2.23,2,2,0,0,0,.68,1.5l-.09.59-5.47-.85c-.06-.56-.08-1-.12-1.32a14.9,14.9,0,0,1,.12-2.09l.32-2.21a4.54,4.54,0,0,0-.34-3.17,4.56,4.56,0,0,0-2.88-1.2l-5.12-.83-1.47,9.32-4.85-.77L156,11.54l11.64,1.85A11.35,11.35,0,0,1,171.41,14.6Z"/><path class="cls-1" d="M194.1,41.16a9.75,9.75,0,0,0,4.33-4.85,9.82,9.82,0,0,0,1.14-6.37,5.64,5.64,0,0,0-3.26-4.09,5.78,5.78,0,0,0-5.23-.09,9.52,9.52,0,0,0-4.35,4.85A9.42,9.42,0,0,0,185.58,37a6.2,6.2,0,0,0,8.52,4.17m1.24,4.65c-2.47.91-5.23.58-8.32-.92s-5-3.49-5.84-6c-1.19-3.15-.83-6.64,1-10.52s4.47-6.38,7.64-7.29c2.44-.91,5.2-.59,8.29.91s5.06,3.5,5.85,6c1.21,3.06.85,6.55-1.06,10.52S198.51,44.81,195.34,45.81Z"/><polyline class="cls-1" points="227.7 41.05 231.82 44.25 210.56 58.12 206.84 55.21 215.24 31.29 219.47 34.58 212.33 52.16"/><polyline class="cls-1" points="245.83 65.67 237.31 56.21 233.52 59.62 241.34 68.29 238.22 71.08 230.44 62.41 225.82 66.56 234.72 76.43 231.52 79.34 219.35 65.79 237.19 49.72 248.98 62.82"/><path class="cls-1" d="M254.92,79.58l-5.79,2.82,2.47,5.11a6.32,6.32,0,0,0,1.47,2.12,2.62,2.62,0,0,0,3.08.14,3,3,0,0,0,2-2.58,6.07,6.07,0,0,0-.7-2.38m5.35,2.88a6.24,6.24,0,0,1-.5,2.82,8,8,0,0,1-1.27,2A6.39,6.39,0,0,1,259,94a7.12,7.12,0,0,1-3.41.71,4.86,4.86,0,0,1-3.32-1.53,4.29,4.29,0,0,1-.7,2.94,7.64,7.64,0,0,1-3.06,2.26l-1.44.71a11.92,11.92,0,0,0-2,1.12,2,2,0,0,0-.82,1.41l-.53.26-2.44-5c.41-.39.77-.65,1-.86A13.37,13.37,0,0,1,244.07,95l2-1a4.42,4.42,0,0,0,2.38-2.09,4.43,4.43,0,0,0-.64-3.06l-2.27-4.67-8.46,4.15-2.15-4.41L256.5,73.34l5.18,10.59A11.07,11.07,0,0,1,262.83,87.69Z"/><path class="cls-1" d="M253.54,108a5,5,0,0,0-2.18,1.43c-.76,1-.91,2.53-.41,4.44a9,9,0,0,0,1.06,2.71,2.78,2.78,0,0,0,3.23,1.35,2.08,2.08,0,0,0,1.53-1.44,12,12,0,0,0,.29-3.47l-.06-2.59a15.87,15.87,0,0,1,.54-5.49,5.9,5.9,0,0,1,4.47-3.62,7,7,0,0,1,5.75,1c1.77,1.18,3,3.24,3.74,6.17a10.33,10.33,0,0,1-.38,6.76,7.25,7.25,0,0,1-5,4.15L265,114.73a3.51,3.51,0,0,0,2.53-2.59,6.34,6.34,0,0,0-.12-3,5.34,5.34,0,0,0-1.53-2.82,2.44,2.44,0,0,0-2.38-.59,2,2,0,0,0-1.58,1.56,12.27,12.27,0,0,0-.21,3.29l0,4.26a10.82,10.82,0,0,1-.7,4.41,6,6,0,0,1-4.24,3.26,7,7,0,0,1-5.93-1.12,10.63,10.63,0,0,1-3.83-6.37,11.56,11.56,0,0,1,.3-7.67,7.19,7.19,0,0,1,5.08-4.06"/><polyline class="cls-1" points="275.35 146.7 274.17 163.69 269.97 163.39 270.79 151.37 265.29 150.99 264.56 161.51 260.38 161.22 261.12 150.7 251.07 149.99 251.42 145.03"/><polyline class="cls-1" points="254.51 161.51 253.66 166.39 248.86 165.54 249.72 160.69"/><path class="cls-1" d="M267,181.26a10.15,10.15,0,0,1-.06,8.05c-1.5,3.73-3.85,6-7,6.74a8.85,8.85,0,0,1-4.79-.15l1.88-4.65A6.69,6.69,0,0,0,260,191a5.58,5.58,0,0,0,2.53-8,10.73,10.73,0,0,0-5.2-3.82c-2.5-1-4.58-1.24-6.23-.74a5.41,5.41,0,0,0-3.47,3.21,4.9,4.9,0,0,0,.09,4.37,7.77,7.77,0,0,0,2.11,2.24L248,192.9a10.77,10.77,0,0,1-4.67-5.46,9.79,9.79,0,0,1,.27-7.29,10.44,10.44,0,0,1,6.14-6.32c2.82-1,6-.76,9.61.67,3.88,1.59,6.47,3.83,7.73,6.76"/><polyline class="cls-1" points="242.78 195.4 240.25 199.63 236.08 197.14 238.63 192.9"/><path class="cls-1" d="M55.05,239.89h3.49v-20H56.1c-.32,2.32-2.17,3.59-5.43,3.65v2.37h4.38"/><path class="cls-1" d="M66.81,229.13c-2.09.51-2.92,2.15-2.92,5.21,0,4,1.68,5.9,5.38,5.9s5.5-1.93,5.5-6.17c0-3-.85-4.49-3-4.94,1.76-.55,2.61-1.9,2.61-4.2,0-3.26-1.77-5-5.06-5s-5,1.74-5,4.94c0,2.35.85,3.79,2.53,4.28m2.49,1.33c1.48,0,1.83,1.14,1.83,3.5s-.3,3.46-1.83,3.46-1.79-1-1.79-3.17C67.51,231.6,67.77,230.46,69.3,230.46Zm-1.61-5.26c0-1.8.38-2.65,1.56-2.65s1.7.8,1.7,2.65-.41,2.65-1.65,2.65S67.69,227,67.69,225.2Z"/><path class="cls-1" d="M215.74,239.92h3.79a42,42,0,0,1,4.76-16.78v-2.85h-11v3.26h7.47c-3,6-4.68,11.55-5,16.37"/><path class="cls-1" d="M226.47,233.55V234c0,4.27,1.7,6.3,5.35,6.3,4,0,5.67-2.35,5.67-7.41,0-4.41-1.68-6.59-5.06-6.59a3.47,3.47,0,0,0-2.7,1.12l.21-4h6.66v-3.18h-9.43l-.53,10.41h3.24a1.72,1.72,0,0,1,1.82-1.62c1.56,0,2.17,1.32,2.17,4.08,0,3-.53,4.44-2,4.44s-2-1.17-2-3.53v-.52"/></g></g></svg>