<svg xmlns="http://www.w3.org/2000/svg" viewBox="0 0 281.53 298.14"><defs><style>.cls-1{fill:#005ca9;}.cls-2{fill:#fff;}</style></defs><title>Bochum</title><g id="Слой_2" data-name="Слой 2"><g id="Layer_1" data-name="Layer 1"><g id="Ebene_1"><g id="_39253544" data-name=" 39253544"><path id="_41072160" data-name=" 41072160" class="cls-1" d="M281.53,36.16c-3.17,91.88-39.3,174.85-109.68,235l-.75.85c-11,8.83-21.39,18.85-33.27,26.15-54-36.11-100-93.83-119.38-153.71A378.14,378.14,0,0,1,0,35.46l1.47-.85C63.65,1.54,143.24-9.77,213.08,9.18a316.14,316.14,0,0,1,68.45,27Z"/><path id="_41072624" data-name=" 41072624" class="cls-2" d="M274.36,39.91c-3.36,97.36-49.07,186.3-128.85,243.38l-7.78,5.61c-12.15-7.06-23.09-17.12-33.8-26.61C39.65,204.1,9.62,125.17,7.33,39.52c59-29.85,131-41.66,197.75-25.09A325.54,325.54,0,0,1,274.36,39.91Z"/><path id="_41073448" data-name=" 41073448" class="cls-1" d="M267.66,43.32c.75,13-1.41,25.52-2.75,38-9.18,63-37,119.39-83.42,165.28C168.13,259.47,152.75,271.27,138,282L135.88,281C59.51,228.9,17.75,144.42,14.93,55.26l-.41-12c43-23.53,92-35.67,143.48-32.61,39.05,2.42,76.32,14.73,109.66,32.7Z"/><path id="_41073312" data-name=" 41073312" class="cls-2" d="M260.84,47.42l1,.59c-3.7,64.11-24.67,124-66.07,172.77-11.43-8.68-22.23-20-32.23-30.9-41.67-47.95-62.2-105.52-66.45-168.22,5.29-2.15,11.12-2.41,17-3A251.66,251.66,0,0,1,260.84,47.42Z"/><path id="_41091208" data-name=" 41091208" class="cls-2" d="M98.53,58.19c.22.7.21,1.4-.61,1.62-2.33,0-4,1.23-5.29,3.08l-1.79,2.65L65.35,127.6a3.92,3.92,0,0,1-2.56,0L35.47,63a11,11,0,0,0-6.6-3.82c.12-.35,0-1.29.49-1.28H62.6c.11.47.46,1.06,0,1.4-2.93,1.13-7.11-.33-8.67,3l.63,5C59.61,79.92,64.8,92.59,70.34,105l1.07-1.39L84.1,71.87c1-3,3.48-6.6,1.77-9.66-2.18-2.25-5.09-2.41-8.24-2.8l0-1.4A177.38,177.38,0,0,1,98.53,58.19Z"/><path id="_69578152" data-name=" 69578152" class="cls-1" d="M187.74,60.73c.19,2.92-.21,6.18.22,9.11a5.82,5.82,0,0,1,6-2,3.51,3.51,0,0,1,2.64,3l.19,11.32c.1,1,1.86,0,1.26,1.42H190.1c-.57-1.3,1.29-.46,1.19-1.62l0-10.85A1.6,1.6,0,0,0,189.83,70a3.06,3.06,0,0,0-2.13,1.84c.06,3.5-.46,7.22.2,10.61.34.47,1.28,0,.92.95l-8-.11c-.1-.94,1.76-.56,1.54-1.85l.15-18.78c0-.93-.92-1.06-1.38-1.3l.13-.7,6.53.09Z"/><path id="_41074016" data-name=" 41074016" class="cls-1" d="M142.55,63.83a5.38,5.38,0,0,1-.53,4.42A7.51,7.51,0,0,1,137.55,71c.69.36,1.74.49,2.55.85a6.29,6.29,0,0,1,3.69,3.44,5.47,5.47,0,0,1-1.37,5.58c-5.42,3.77-13.2,1.79-20,2.17v-.59c1-.22,2.92-.19,2.83-1.83l.25-18.07a2.25,2.25,0,0,0-1.61-1.31c-.47,0-1.4.22-1.16-.6V60.4c5,.07,11.55-.42,16.78.7A5.33,5.33,0,0,1,142.55,63.83Z"/><path id="_41074184" data-name=" 41074184" class="cls-2" d="M135.57,62.56a7.67,7.67,0,0,1,.13,6.77,3.92,3.92,0,0,1-3.86,1.11l.23-8.39A2.84,2.84,0,0,1,135.57,62.56Z"/><path id="_69427080" data-name=" 69427080" class="cls-1" d="M242.57,68.86l.91,1.76.3,11.67c0,1.17,1.87-.09,1.38,1.42-2.57.08-5.6-.08-8.28-.12-.45-1.17,1.75-.44,1.42-1.84l0-10.27c-.11-.58-.45-1.29-1.26-1.3A3.12,3.12,0,0,0,234.59,72l-.14,10.15c0,1.28,1.75,0,1.38,1.42l-7.94.12,0-.82A1,1,0,0,0,229.2,82l0-10.73a1.49,1.49,0,0,0-1.5-1.07,2.82,2.82,0,0,0-2.25,1.71l0,10.27c.09,1.28,1.74,0,1.14,1.53h-8.05c-.23-.24-.11-.59-.1-.82,1.39.25,1.76-1.14,1.66-2.31l0-10.74a1.65,1.65,0,0,0-1.39-.83h-.12v-.7l6.65,0a14.1,14.1,0,0,0,.09,2.1A6.42,6.42,0,0,1,232.08,68c1.17.13,2.08,1.43,2.54,2.25,2.13-2.42,5.29-3.19,7.95-1.4Z"/><path id="_41074992" data-name=" 41074992" class="cls-1" d="M179.32,70.41a2.17,2.17,0,0,1-1.21,2.79,2.77,2.77,0,0,1-2.33-.27c-1.85-1.08.42-5.13-2.85-4.24-2.49,2.3-1.61,6.16-1.07,9.2a5.52,5.52,0,0,0,2.41,3.19,4.52,4.52,0,0,0,4.8-1.11l.45.6a8.18,8.18,0,0,1-8.55,3,7.24,7.24,0,0,1-4.82-5.78c-.31-2.8.08-5.83,2-7.79,2.14-2.42,5.53-2.84,8.43-2.09A4.15,4.15,0,0,1,179.32,70.41Z"/><path id="_41075176" data-name=" 41075176" class="cls-1" d="M206.53,68.23l.06,12.6c.1.82,1,1.07,1.73,1.08a3,3,0,0,0,1.88-1c-.18-3.62.46-7.69-.3-11.32a1,1,0,0,0-1.05-.48c-.23-.23-.11-.58-.1-.82l6.76,0-.06,12.83a1.51,1.51,0,0,0,1,1.18c.59-.22.58.36.69.6l-.35.34a37.12,37.12,0,0,0-6.43,1c-.46-.35-.22-1.05-.21-1.75-1.64.79-3.53,2-5.74,1.55a3.3,3.3,0,0,1-2.77-1.9c-.88-3.75-.24-7.94-.3-11.91.26-1.51-2-.49-1.49-2C202.22,68.05,204.2,68.2,206.53,68.23Z"/><path id="_41075968" data-name=" 41075968" class="cls-1" d="M161.82,70.4a9.08,9.08,0,0,1,.8,9.11c-1.32,2.9-4.37,4.14-7.17,4.33-3-.28-6.17-1.49-7.4-4.54a9.26,9.26,0,0,1,.82-8.73c2-2.78,5.88-3.54,8.9-2.79C159.4,68,160.78,69.45,161.82,70.4Z"/><path id="_41076144" data-name=" 41076144" class="cls-2" d="M157.28,69.64c.53,4.09,1.28,8.53-.41,12.47a2.45,2.45,0,0,1-2.92.19c-1.82-3.41-.7-8.06-.65-11.9a2.89,2.89,0,0,1,1.9-2C156,68.22,156.82,68.93,157.28,69.64Z"/><path id="_41076424" data-name=" 41076424" class="cls-2" d="M135.89,72.72c2.07,1.77,1.56,4.8,1.06,7.13-.48,1.51-2,1.83-3.41,2.16-.93,0-2.1-.26-1.84-1.54l.12-8.63A6,6,0,0,1,135.89,72.72Z"/><path id="_41076976" data-name=" 41076976" class="cls-2" d="M109.51,106.52c1,2.58,1.9,5.86,0,8.4-1.78,2.31-5.52,2.26-8,1.4A3.49,3.49,0,0,1,99.49,114c-.89-3,.32-6.06,2-8.48.37-1.63-1.61-1.43-2.66-1.91a5.52,5.52,0,0,0-5.06,3.19l-1,4.19c0,4.55,0,9.22,0,14,3,.39,5.25,0,8.4.12.21,1.4-.27,2.44.06,3.85a77.74,77.74,0,0,1-8.4.11L92.6,229.8l-13.22-14,0-86.42-5.25-.2-.17-4.31,5.25,0c.09-6.65-.61-15.17,5.29-19.75a20.22,20.22,0,0,1,20.92-2.39C107,103.8,108.49,104.64,109.51,106.52Z"/><path id="_41077256" data-name=" 41077256" class="cls-1" d="M215.32,106.38c.33,1.53.19,3.39-1.11,4.42a9.47,9.47,0,0,1-3.06,1.83c2.32,1.31,4.85,3.56,4.69,6.6,0,2.44-.88,4.88-3,6a11.36,11.36,0,0,1-8.76.69,6.11,6.11,0,0,1-3.33-3.66,7,7,0,0,1,.77-4.66c.95-1.5,2.47-2.06,4-2.62-1.62-1-3.47-2.39-4-4.38-.32-2.45.07-5.25,2.31-6.73,3.52-1.82,9.71-2.2,11.51,2.49Z"/><path id="_41077944" data-name=" 41077944" class="cls-1" d="M197.55,117.33c.58.48,1.29-.09,2,.15l.19,3.73-2.1.09-.19,4.66-5,.05,0-4.67c-2.68-.15-5.71-.08-8.39-.23l.05-3.5,10.36-15c1.16.13,2.22-.08,3.38,0l-.21,14.69Z"/><path id="_41078064" data-name=" 41078064" class="cls-1" d="M161.82,103.18c.24,7.93-.66,13.64.06,20.77,1.15,1.18,2.66,1.2,4.3,1.11v.81c-4.32.06-9.92-.14-14.93-.09v-.7c1.52-.33,3,.16,4.21-1l.49-2c0-5.48.62-10.49-.24-15.4-1.27-1.42-2.81.19-4.21.41-.11-.36-.34-.59-.22-.94l9.63-4.06A.76.76,0,0,1,161.82,103.18Z"/><path id="_41078240" data-name=" 41078240" class="cls-1" d="M181.05,104.5a5.49,5.49,0,0,1,.87,4.68c-.61,1.74-2.49,2.76-4.13,3.32,2.78,1.68,5.31,3.93,4.79,7.65a6.62,6.62,0,0,1-4.75,5.77,10.18,10.18,0,0,1-8-.7,6.1,6.1,0,0,1-2.51-3.77,6.68,6.68,0,0,1,1.11-4.3,9.31,9.31,0,0,1,3.65-2.28c-2-1.19-4.39-3.21-4.12-6,.26-1.74.64-3.49,1.94-4.63C172.93,101.82,178.17,101.78,181.05,104.5Z"/><path id="_40737088" data-name=" 40737088" class="cls-2" d="M210.78,105.74c.44,1.87.64,4.32-.55,5.94-1.61-1.07-3.58-2.15-4.37-4.26a3,3,0,0,1,.39-2.8c.7-.34.94-.92,1.76-.9a2.64,2.64,0,0,1,2.77,2Z"/><path id="_69527736" data-name=" 69527736" class="cls-2" d="M177.31,105.15a7.86,7.86,0,0,1-.32,6.29c-1.74-.84-4.05-2.27-4.49-4.49A2.7,2.7,0,0,1,174,103.7,2.63,2.63,0,0,1,177.31,105.15Z"/><polygon id="_69527272" data-name=" 69527272" class="cls-2" points="186.35 117.41 192.43 108.05 192.3 117.38 186.35 117.41"/><path id="_69528032" data-name=" 69528032" class="cls-2" d="M211.25,122.08c-.13,1.28-.38,2.56-1.67,3.12a3.86,3.86,0,0,1-2.8,0c-2.19-2.48-1.66-6.44-.34-9.22C208.52,117.37,211.41,119.05,211.25,122.08Z"/><path id="_69461744" data-name=" 69461744" class="cls-2" d="M177.79,120.67a6.24,6.24,0,0,1-.4,3.61,3,3,0,0,1-3,.89c-1.16-.13-1.73-1.19-2.06-2.24a9.39,9.39,0,0,1,.8-7.11C174.92,117.13,177.24,118.33,177.79,120.67Z"/><path id="_69527448" data-name=" 69527448" class="cls-2" d="M139.4,178.8c-3.4,1.24-8.17.35-9.74,4.65-1.13,5-.49,9.91-.8,15.27-.08,13.65-.27,27.41-.24,41.41,4.72,4.61,12.21,2.5,17.82,1.88,8.43-2,15.43-10.39,17.88-18.53.82-.45,1.52-.09,2.34-.2-1.28,7.45-2.66,14.78-4.4,22.11a17.77,17.77,0,0,1-4.32.05l-35.34-.15-19-.15c-.23-.36-.11-.94-.22-1.4,2.82-1.25,7.24-.6,8.23-4.55l.8-6.53V183.2c-1.12-3.4-4.85-3.45-7.75-3.95-.47-.36-.46-.83-.34-1.41,11.21-.77,24.27,0,35-.32Z"/></g></g></g></g></svg>