<svg xmlns="http://www.w3.org/2000/svg" viewBox="0 0 277.98 300"><defs><style>.cls-1{fill:#d9261c;}.cls-2{fill:#bf261f;}.cls-3{fill:#083b73;}.cls-4{fill:#7d2421;}.cls-5{fill:#fff;}</style></defs><title>Bolton</title><g id="Слой_2" data-name="Слой 2"><g id="Layer_1" data-name="Layer 1"><g id="layer1"><g id="g3369"><path id="path3217" class="cls-1" d="M272.64,189.12c-1,2.13-4.39,25-4.39,25.32L278,231.86C248.07,233.53,209.39,270,160.38,296c0,0-2.8-27.2-2.67-29,0-.55,10.78-1.72,10.82-2.3,40.69-26.32,55.35-55.9,104.11-75.58"/><path id="path3219" class="cls-2" d="M239.15,207.15l6.25,34.11c-23.69,11-45.79,32.25-72.44,39.94.66-.58-2.76-5.35-2.18-6.22a11.43,11.43,0,0,0,1.88-6.06c.05-.8.09-1.63.17-2.55a15.86,15.86,0,0,1,.5-2.55,12.89,12.89,0,0,1,1.13-2.38c.23-.44.49-.85.74-1.24,25.45-17.88,40.72-36.88,64-53"/><path id="path3221" class="cls-1" d="M5.35,189.12c1,2.13,4.38,25,4.38,25.32L0,231.86C29.91,233.53,68.6,270,117.6,296c0,0,2.8-27.2,2.68-29,0-.55-10.82-1.72-10.87-2.3C68.77,238.38,54.1,208.8,5.35,189.12"/><path id="path3223" class="cls-2" d="M38.82,207.15l-6.28,34.11c23.69,11,45.83,32.25,72.45,39.94-.63-.59,2.79-5.35,2.21-6.22a11.26,11.26,0,0,1-1.88-6.06c-.08-.8-.08-1.63-.21-2.55a12.44,12.44,0,0,0-.5-2.55,10.29,10.29,0,0,0-1.09-2.38c-.24-.43-.49-.83-.73-1.22-25.45-17.88-40.72-36.9-64-53.07"/><path id="path3225" class="cls-3" d="M253,146.51a112.26,112.26,0,0,1-4.89,15H159.3v55.77a100.9,100.9,0,0,0,45.95-22.6h22.64a117.16,117.16,0,0,1-83.55,40.56V151.86a5.33,5.33,0,0,1,5.35-5.35ZM57.74,178.6h75.9v15H71.48a101,101,0,0,0,62.16,25.53V235.2a117.67,117.67,0,0,1-108.7-88.69H128.3a5.33,5.33,0,0,1,5.34,5.35v9.61H47.33A101.64,101.64,0,0,0,57.74,178.6Zm106.9-68.48a5.36,5.36,0,0,0,5.35,5.35h19.8V11.36A119,119,0,0,1,210.1,23.81v86.52a5.37,5.37,0,0,0,5.34,5.14h19.14a95,95,0,0,0-4.72-27.7V42.86a117.37,117.37,0,0,1,26.73,74.74,118.61,118.61,0,0,1-1.38,18.18H149.69a5.34,5.34,0,0,1-5.35-5.35V0a115.87,115.87,0,0,1,20.3,2.67V110.12ZM108,66.22a5.36,5.36,0,0,0,5.35-5.35V24.73A96.44,96.44,0,0,0,57.07,66.22Zm0,49.25a5.38,5.38,0,0,0,5.35-5.35V91.91A5.38,5.38,0,0,0,108,86.56H47.33a96,96,0,0,0-5.13,28.91Zm25.65,15a5.33,5.33,0,0,1-5.34,5.35H22.77A118,118,0,0,1,128.3.33a.41.41,0,0,1,.21,0,5.36,5.36,0,0,1,5.13,5.34V130.43Z"/><path id="path3227" class="cls-4" d="M112.67,264.91l7.23,5c0,.09-1.21,22.14-2.3,26.07-14.45-8.9-80.79-57.15-80.88-57.32s64.09,17.84,76,26.2"/><path id="path3229" class="cls-4" d="M158,270c0,.09,1.21,22.14,2.34,26.07,14.41-8.9,80.76-57.15,80.8-57.32S158,270,158,270"/><path id="path3231" class="cls-1" d="M233.07,194.47l8.11,44.24c-31.29,14.58-66.89,39.86-102.23,39.86S68,253.29,36.72,238.71l8.19-44.24c19.22,21.39,51.34,44.37,94.08,44.37s74.82-23,94.08-44.37"/><path id="path3233" class="cls-2" d="M170.79,234.43a2.76,2.76,0,0,0,.08.27l.71,0c1.71.09,5.43.63,6.51,4.1s-1.58,5.93-2.92,7l-.54.41a11.74,11.74,0,0,1,.62,4.47A12.77,12.77,0,0,1,173,257.6c-.42.66-.88,1.33-1.3,2.13a8.42,8.42,0,0,0-1,2.09,11.59,11.59,0,0,0-.46,2.17c-.08.92-.08,1.71-.17,2.51a12.85,12.85,0,0,1-2.17,6.89l-.21.31A96,96,0,0,1,139,278.57a95.74,95.74,0,0,1-28.68-4.86l-.23-.32a13.2,13.2,0,0,1-2.13-6.89c-.08-.8-.08-1.59-.21-2.47a8.36,8.36,0,0,0-.46-2.3,9.54,9.54,0,0,0-.92-2c-.46-.8-.92-1.47-1.33-2.13a13.38,13.38,0,0,1-2.3-6.86,12.8,12.8,0,0,1,.62-4.47l-.54-.41c-1.33-1.09-4-3.72-2.84-7.15s4.76-3.88,6.48-4l.66,0,.1-.28a116.8,116.8,0,0,0,63.62,0"/><path id="path3235" class="cls-5" d="M108.41,236.33a10,10,0,0,1,2.09-4.59,11.41,11.41,0,0,1,5.22-3.68c.75-.29,1.51-.59,2.34-1a13.55,13.55,0,0,0,2.3-1.3,15.9,15.9,0,0,0,1.92-1.75c.59-.67,1.13-1.34,1.63-2a11.66,11.66,0,0,1,5.1-3.81,10.53,10.53,0,0,1,5.05-.58c.21-.67.42-1.3.63-1.8.63-1.67,1.92-3.92,4.34-3.88s3.64,2.25,4.26,3.88c.21.5.42,1.13.63,1.8a10.38,10.38,0,0,1,5,.58,12.05,12.05,0,0,1,5.14,3.81c.5.62,1,1.29,1.63,2a12,12,0,0,0,2,1.8,13.18,13.18,0,0,0,2.21,1.25c.84.37,1.63.67,2.38,1a11.62,11.62,0,0,1,5.22,3.68,9.91,9.91,0,0,1,2.09,4.59c.71,0,1.38,0,1.92,0,1.76.13,4.31.63,5,2.93s-1,4.18-2.34,5.26c-.46.34-1,.75-1.55,1.17a10.09,10.09,0,0,1,1,5,11.39,11.39,0,0,1-2,6c-.42.71-.88,1.38-1.34,2.17a13.33,13.33,0,0,0-1.13,2.42,17.61,17.61,0,0,0-.5,2.51c-.08.92-.12,1.76-.17,2.55a11.63,11.63,0,0,1-1.88,6.1,10.15,10.15,0,0,1-3.71,3.42c.21.67.37,1.3.54,1.84.46,1.72.75,4.26-1.25,5.68s-4.27.34-5.73-.62c-.46-.29-1-.67-1.58-1.09a10.39,10.39,0,0,1-4.39,2.47,11.29,11.29,0,0,1-6.39-.09c-.76-.16-1.59-.42-2.47-.58a16,16,0,0,0-2.63-.34,15,15,0,0,0-2.55.34c-.92.16-1.71.42-2.51.58a11.15,11.15,0,0,1-6.35.09,10.45,10.45,0,0,1-4.42-2.47c-.55.42-1.09.8-1.55,1.09-1.5,1-3.84,2-5.81.58s-1.63-4-1.17-5.64c.13-.54.34-1.17.55-1.84a10.17,10.17,0,0,1-3.72-3.42,11.28,11.28,0,0,1-1.88-6.1c-.08-.79-.08-1.63-.17-2.55a17.68,17.68,0,0,0-.54-2.59,15.63,15.63,0,0,0-1.09-2.34c-.46-.79-.92-1.46-1.33-2.17a11.39,11.39,0,0,1-2-6,10.21,10.21,0,0,1,1-5c-.54-.42-1.09-.83-1.5-1.17-1.38-1.08-3.14-3-2.34-5.3s3.25-2.76,5-2.89c.54,0,1.21,0,1.92,0"/><path id="path3237" class="cls-1" d="M114.76,244.6a5,5,0,0,0-3.55.38c-1.92.88-4.43-1.17-5.85-2.3s-1.79-2-1.59-2.63h0c.21-.63,1-1.13,2.84-1.21s5.06-.25,6.1,1.54a4.85,4.85,0,0,0,2.64,2.43l-.59,1.79Z"/><path id="path3239" class="cls-1" d="M163.22,244.6a4.87,4.87,0,0,1,3.51.38c1.92.88,4.47-1.17,5.89-2.3s1.76-2,1.55-2.63h0c-.21-.63-1-1.13-2.84-1.21s-5.06-.25-6.1,1.54a5,5,0,0,1-2.63,2.43l.58,1.79Z"/><path id="path3241" class="cls-1" d="M125,272.39a4.74,4.74,0,0,0-.71,3.46c.21,2.13-2.5,3.89-4,4.89s-2.46,1-3,.67h0c-.55-.38-.76-1.34-.3-3.05s1.34-4.89,3.39-5.31a4.85,4.85,0,0,0,3.09-1.75l1.54,1.09Z"/><path id="path3243" class="cls-1" d="M153,272.39a4.94,4.94,0,0,1,.71,3.46c-.25,2.13,2.51,3.89,4,4.89s2.46,1,3,.67h0c.5-.38.71-1.34.25-3.05s-1.3-4.89-3.39-5.31a5,5,0,0,1-3.09-1.75l-1.5,1.09Z"/><path id="path3245" class="cls-1" d="M138,226.31a4.71,4.71,0,0,0-1.46-3.26c-1.42-1.55-.25-4.6.37-6.27s1.38-2.34,2.05-2.34h0c.63,0,1.38.67,2,2.34s1.84,4.72.41,6.27a4.75,4.75,0,0,0-1.46,3.26Z"/><path id="path3247" class="cls-1" d="M112.92,243s-6.35.87-6.14,7.6c.17,4,2.88,5.47,4.39,9.9h0c1.38,4.43,0,7.23,2.25,10.57,3.76,5.6,9.45,2.55,9.45,2.55h0s-1.13,6.35,5.34,8.19c3.93,1.12,6.1-1.05,10.78-1.09h0c4.64,0,6.85,2.21,10.78,1.09,6.43-1.84,5.31-8.19,5.31-8.19h0s5.68,3.05,9.44-2.55c2.29-3.34.92-6.14,2.29-10.57h0c1.51-4.43,4.22-5.85,4.39-9.9.21-6.73-6.14-7.6-6.14-7.6h0s4.64-4.47.5-9.78c-2.51-3.17-5.55-2.76-9.36-5.43h0c-3.76-2.8-4.26-5.85-8.1-7.23-6.31-2.3-9.11,3.51-9.11,3.51h0s-2.8-5.81-9.15-3.51c-3.8,1.38-4.34,4.43-8.06,7.23h0c-3.8,2.67-6.85,2.26-9.36,5.43-4.13,5.31.5,9.78.5,9.78Z"/><path id="path3249" class="cls-5" d="M124.75,246.86s.29-1-.88-2.3a3.75,3.75,0,0,1-1.17-2.84c.17-1.38,1.71-2.59,3.47-2.92a6.66,6.66,0,0,0,2.8-1.13h0a6.39,6.39,0,0,0,1.92-2.3c.83-1.54,2.5-2.63,3.84-2.38a3.81,3.81,0,0,1,2.38,2c.88,1.51,1.88,1.55,1.88,1.55h0s1,0,1.88-1.55a3.74,3.74,0,0,1,2.38-2c1.34-.25,3,.84,3.8,2.38a7,7,0,0,0,2,2.3h0a6.61,6.61,0,0,0,2.8,1.13c1.75.33,3.26,1.54,3.42,2.92a3.68,3.68,0,0,1-1.12,2.84c-1.17,1.34-.88,2.3-.88,2.3v0s.33,1,2,1.33a3.67,3.67,0,0,1,2.59,1.68c.67,1.17.17,3.09-1.08,4.34a6.26,6.26,0,0,0-1.55,2.59h0a6.36,6.36,0,0,0-.25,3c.25,1.75-.46,3.59-1.71,4.18a3.83,3.83,0,0,1-3.05-.21,2.61,2.61,0,0,0-2.46-.13l0,0a2.66,2.66,0,0,0-.63,2.38,3.84,3.84,0,0,1-.75,3c-1,1-2.93,1.13-4.51.33a6.84,6.84,0,0,0-2.93-.71h0a6.66,6.66,0,0,0-2.92.71c-1.59.8-3.55.67-4.51-.33a3.84,3.84,0,0,1-.76-3,2.67,2.67,0,0,0-.62-2.38v0s-.8-.58-2.43.13a3.93,3.93,0,0,1-3.09.21c-1.25-.59-1.92-2.43-1.67-4.18a6.62,6.62,0,0,0-.25-3h0a6.7,6.7,0,0,0-1.54-2.59c-1.26-1.25-1.76-3.17-1.09-4.34a3.59,3.59,0,0,1,2.59-1.68c1.71-.37,2-1.33,2-1.33v0Zm-2.26-.75s-4.14-.13-5.35,2.34a4.93,4.93,0,0,0,1.3,5.8,6.18,6.18,0,0,1,2.29,3.14h0a6.26,6.26,0,0,1,0,3.92,5,5,0,0,0,2.35,5.48c2.46,1.25,5.68-1.3,5.68-1.3l0,0s-1.42,3.85.54,5.77a4.92,4.92,0,0,0,5.93.58,6.31,6.31,0,0,1,3.72-1.21h0a6.31,6.31,0,0,1,3.72,1.21,4.92,4.92,0,0,0,5.93-.58c1.92-1.92.55-5.77.55-5.77v0s3.25,2.55,5.68,1.3a5,5,0,0,0,2.38-5.48,6.26,6.26,0,0,1,0-3.92h0a6,6,0,0,1,2.3-3.14,4.93,4.93,0,0,0,1.29-5.8c-1.25-2.47-5.35-2.34-5.35-2.34h0s3.39-2.3,3-5a5,5,0,0,0-4.47-4,5.93,5.93,0,0,1-3.72-1.17h0a6.3,6.3,0,0,1-2.3-3.18,5,5,0,0,0-5.13-3.05c-2.72.42-3.85,4.39-3.85,4.39h0s-1.13-4-3.8-4.39a5,5,0,0,0-5.14,3.05,6.3,6.3,0,0,1-2.3,3.18h0a6,6,0,0,1-3.72,1.17,5,5,0,0,0-4.47,4C119.06,243.81,122.49,246.11,122.49,246.11Z"/><path id="path3251" class="cls-5" d="M142.88,251.46a3.89,3.89,0,1,1-3.89-3.85A3.88,3.88,0,0,1,142.88,251.46Zm-11.12-2.3c-.33,1-1.75,1-1.75,2,0,1.63,1.3,1.59,1.67,2.68h0c.34,1.12-.71,1.83.25,3.13.54.84,1.71,0,2.59.63h0c.8.66.42,2,1.38,2.29,1.55.51,1.88-.71,3.05-.71h0c1.17,0,1.51,1.22,3,.71,1-.29.54-1.63,1.38-2.29h0c.88-.59,2,.21,2.59-.63.92-1.3-.12-2,.25-3.13h0c.38-1.09,1.63-1.05,1.63-2.68,0-1-1.38-1-1.75-2v0c-.29-1,.83-1.88.25-2.68-1-1.29-2-.5-2.93-1.21h0c-.92-.67-.5-1.84-2-2.38-1-.33-1.42,1-2.47,1h0c-1,0-1.5-1.37-2.42-1-1.55.54-1.13,1.71-2.05,2.38h0c-1,.71-2-.08-2.92,1.21-.59.8.5,1.67.25,2.68l-.05,0Z"/><path id="path3253" class="cls-3" d="M128.05,288.8a4.42,4.42,0,0,1-1.51,1,5.1,5.1,0,0,1-1.79.38v.75h1.54v6.9c0,1.21-.42,1.42-1.67,1.42v.66H130v-.66c-.5,0-1.17,0-1.46-.55a2,2,0,0,1-.17-.87v-9Z"/><path id="path3255" class="cls-3" d="M136,294a2.84,2.84,0,0,0,1.67-2.5,2.8,2.8,0,0,0-3-2.68,3,3,0,0,0-3.18,2.8,3.38,3.38,0,0,0,1.8,2.8,2.94,2.94,0,0,0-1.8,1.3,2.35,2.35,0,0,0-.37,1.33,3.2,3.2,0,0,0,3.46,3c1.92,0,3.51-1.25,3.51-3s-1.17-2.42-2.09-3Zm-.87-.46c-.59-.37-2-1.21-2-2.42a1.42,1.42,0,0,1,1.42-1.5,1.57,1.57,0,0,1,1.46,1.75,3.29,3.29,0,0,1-.87,2.17ZM134.06,295c.84.45,2.17,1.16,2.17,2.5a1.6,1.6,0,0,1-1.58,1.71,1.84,1.84,0,0,1-1.76-1.88,3.06,3.06,0,0,1,.34-1.25,3.48,3.48,0,0,1,.83-1.08"/><path id="path3257" class="cls-3" d="M138.78,292.19h.71c.3-1.09.63-1.46,1.84-1.55h2.93l-3.39,6.18c-.75,1.38-1,1.88-1,2.34a.93.93,0,0,0,1,.84c.67,0,.88-.46,1.13-1.13.12-.33.58-1.59.67-1.88l1.67-4.26,1.46-3.68h-5.39a.55.55,0,0,1-.25,0,.35.35,0,0,1-.12-.25h-.67l-.59,3.43Z"/><path id="path3259" class="cls-3" d="M146.34,292.19h.71c.3-1.09.59-1.46,1.84-1.55h2.93l-3.39,6.18c-.75,1.38-1,1.88-1,2.34a.9.9,0,0,0,1,.84c.67,0,.84-.46,1.09-1.13.12-.33.63-1.59.71-1.88.46-1.17,1.17-3.09,1.63-4.26l1.46-3.68h-5.39a.49.49,0,0,1-.21,0,.35.35,0,0,1-.12-.25h-.67l-.59,3.43Z"/></g></g></g></g></svg>