<svg xmlns="http://www.w3.org/2000/svg" viewBox="0 0 240.76 299.18"><defs><style>.cls-1{fill:#241e46;}.cls-1,.cls-2{fill-rule:evenodd;}.cls-2{fill:#fff;}</style></defs><title>Bordo</title><g id="Слой_2" data-name="Слой 2"><g id="Слой_1-2" data-name="Слой 1"><path class="cls-1" d="M120.38,0C40.72,0,0,25,0,25V148.45s0,66.77,41.73,108.49c0,0,27.44,30.1,78.65,42.24C171.59,287,199,256.94,199,256.94c41.73-41.72,41.73-108.49,41.73-108.49V25S200,0,120.38,0Z"/><path class="cls-2" d="M120.38,7.59c63.37,0,101.5,16.34,112.79,22V148.45c0,.63-.57,64.19-39.5,103.13l-.12.11-.11.13c-.26.28-26.1,27.85-73.06,39.51-47-11.66-72.8-39.23-73.06-39.51l-.1-.12-.13-.12C8.16,212.64,7.59,149.08,7.59,148.44V29.58c11.29-5.65,49.42-22,112.79-22Z"/><path class="cls-1" d="M120.38,19s-65.25.5-100.66,20.73V149.46s0,59.18,35.92,91c35.6,31.59,64.74,34.39,64.74,34.39s29.14-2.8,64.74-34.39c35.92-31.87,35.92-91,35.92-91V39.7C185.63,19.47,120.38,19,120.38,19Z"/><path class="cls-2" d="M45.76,59.22a6.2,6.2,0,0,0-.14-1.48,1.26,1.26,0,0,0-.44-.71,3.16,3.16,0,0,0-.42-.08c-.6-.09-.9-.32-.9-.71a.55.55,0,0,1,.25-.47,1.24,1.24,0,0,1,.71-.16h.42c1.16.06,2.3.08,3.42.08s2.4,0,3.65-.08h.53a1.06,1.06,0,0,1,.6.14.54.54,0,0,1,.19.46c0,.35-.24.59-.73.72l-.37.11a1.2,1.2,0,0,0-.82.46,4,4,0,0,0-.21,1.68V63.9a3.75,3.75,0,0,1-.19,1.39,2.36,2.36,0,0,1-.65.85A7.37,7.37,0,0,1,48,67.45a12.83,12.83,0,0,1-3.57.49,9.76,9.76,0,0,1-7.89-3.55q-3-3.54-3-9.38a14.19,14.19,0,0,1,3.15-9.43,9.79,9.79,0,0,1,7.83-3.77,13.45,13.45,0,0,1,3.44.42,5,5,0,0,1,2.15,1,1.4,1.4,0,0,1,.31.61,6.53,6.53,0,0,1,.13,1.2l.16,2.22,0,.47c0,.15,0,.35,0,.6a1.81,1.81,0,0,1-.2,1,.78.78,0,0,1-.68.27,1.44,1.44,0,0,1-.93-.32,2.48,2.48,0,0,1-.7-1l-.35-.8q-1.74-4-3.72-4c-1.41,0-2.5,1-3.25,3.07a26.8,26.8,0,0,0-1.13,8.83,21.76,21.76,0,0,0,1.24,8q1.23,3.09,3.06,3.09a1.32,1.32,0,0,0,1.26-.65,5.46,5.46,0,0,0,.37-2.44V59.22Z"/><path class="cls-2" d="M63.73,63.9a6.59,6.59,0,0,0,.12,1.57.84.84,0,0,0,.43.57l.45.1c.66.1,1,.35,1,.74a.42.42,0,0,1-.23.41,1.85,1.85,0,0,1-.79.12h-.41c-1.19-.09-2.37-.13-3.54-.13s-2.44,0-3.75.13h-.58a1.18,1.18,0,0,1-.62-.11.42.42,0,0,1-.18-.38q0-.56.84-.78l.31-.08a1.17,1.17,0,0,0,.89-.52,3.62,3.62,0,0,0,.24-1.61V45.81a4.44,4.44,0,0,0-.17-1.46,1.16,1.16,0,0,0-.55-.64,3.61,3.61,0,0,0-.56-.12c-.67-.09-1-.34-1-.75a.46.46,0,0,1,.21-.42,1.13,1.13,0,0,1,.63-.14l.6,0c1.3,0,2.54.07,3.73.07s2.34,0,3.52-.07l.42,0a1.57,1.57,0,0,1,.76.14.47.47,0,0,1,.23.46c0,.34-.24.59-.74.74l-.27.1a1,1,0,0,0-.78.48,4.38,4.38,0,0,0-.2,1.65v18Z"/><path class="cls-2" d="M69.8,63.75V45.85a4.59,4.59,0,0,0-.16-1.46,1.26,1.26,0,0,0-.56-.68,2.85,2.85,0,0,0-.54-.08c-.68-.06-1-.3-1-.73a.55.55,0,0,1,.21-.46,1.07,1.07,0,0,1,.62-.16H78.42a9.67,9.67,0,0,1,6,1.58,5.35,5.35,0,0,1,2.08,4.52,5.26,5.26,0,0,1-1.69,4.18,9.66,9.66,0,0,1-5.27,1.9,7.18,7.18,0,0,1,3.06.71,4,4,0,0,1,1.42,2L86.12,63a8.45,8.45,0,0,0,.82,1.74,2.67,2.67,0,0,0,.89.85,3.53,3.53,0,0,0,.57.26.8.8,0,0,1,.61.78.58.58,0,0,1-.21.49,1,1,0,0,1-.59.15h-5.8c-.52,0-1-.47-1.27-1.41-.12-.34-.22-.62-.29-.84l-2.54-7a5.69,5.69,0,0,0-1-2,1.82,1.82,0,0,0-1.25-.4h-.33a.78.78,0,0,0-.22,0v8.07a6.66,6.66,0,0,0,.12,1.56.84.84,0,0,0,.43.57,3,3,0,0,0,.41.08c.66.12,1,.37,1,.77a.45.45,0,0,1-.24.43,1.42,1.42,0,0,1-.75.14H68.32a1.31,1.31,0,0,1-.62-.11.46.46,0,0,1-.17-.42c0-.39.31-.66.93-.82l.23,0a1.14,1.14,0,0,0,.87-.52,3.59,3.59,0,0,0,.24-1.6Zm5.69-9.85h.31a3.84,3.84,0,0,0,3.13-1.34,5.75,5.75,0,0,0,1.12-3.76,6.88,6.88,0,0,0-.88-3.73,2.68,2.68,0,0,0-2.38-1.36,1.39,1.39,0,0,0-1,.3,2,2,0,0,0-.27,1.23V53.9Z"/><path class="cls-2" d="M89.26,54.81a14.59,14.59,0,0,1,2.89-9.34,8.89,8.89,0,0,1,7.25-3.66,9,9,0,0,1,3.92.92,10.35,10.35,0,0,1,3.37,2.6,12.92,12.92,0,0,1,2.49,4.32,15.86,15.86,0,0,1,.85,5.24,18.19,18.19,0,0,1-.73,5.38,12.63,12.63,0,0,1-2.28,4.2A9.89,9.89,0,0,1,103.75,67a8.73,8.73,0,0,1-3.86.93A9,9,0,0,1,96,67a10.41,10.41,0,0,1-3.36-2.55,13.25,13.25,0,0,1-2.5-4.35,16.24,16.24,0,0,1-.84-5.31ZM99,43.33c-1,0-1.84.8-2.45,2.4a18.77,18.77,0,0,0-.92,6.5A32.55,32.55,0,0,0,97,62.49q1.34,4,3.25,4c1,0,1.84-.83,2.45-2.5a19.85,19.85,0,0,0,.93-6.76,31.06,31.06,0,0,0-1.35-10c-.9-2.6-2-3.89-3.25-3.89Z"/><path class="cls-2" d="M114.08,62.7V45.81a4.1,4.1,0,0,0-.18-1.49.75.75,0,0,0-.58-.47l-.49-.1c-.75-.12-1.12-.37-1.12-.75a.51.51,0,0,1,.2-.45,1.78,1.78,0,0,1,.8-.13h5.87a1.05,1.05,0,0,1,.93.44s0,0,0,0l9,14.11v-9.2a13.26,13.26,0,0,0-.17-2.61,2.11,2.11,0,0,0-.59-1.07,6,6,0,0,0-1.23-.28c-.67-.11-1-.34-1-.71a.59.59,0,0,1,.3-.52,1.52,1.52,0,0,1,.83-.2c.33,0,.82,0,1.46,0s1.1.05,1.4.05c.63,0,1.31,0,2-.08l.29,0a.85.85,0,0,1,.59.17.71.71,0,0,1,.17.55c0,.35-.28.6-.83.74a3.73,3.73,0,0,0-.76.25,1.07,1.07,0,0,0-.72.54,3.48,3.48,0,0,0-.2,1.41v20.4a2.14,2.14,0,0,1-.22,1.2,1,1,0,0,1-.81.26,1.59,1.59,0,0,1-.92-.28,2.9,2.9,0,0,1-.76-.91L115.83,48.32V62.83a6.33,6.33,0,0,0,.24,2.1,1.74,1.74,0,0,0,.84.92,4.14,4.14,0,0,0,.79.12c.72,0,1.07.26,1.07.67a.53.53,0,0,1-.24.49,1.82,1.82,0,0,1-.83.14h-5.23a1.17,1.17,0,0,1-.6-.1.42.42,0,0,1-.16-.38.81.81,0,0,1,.63-.77l.39-.17a1.53,1.53,0,0,0,1.35-1.91V62.7Z"/><path class="cls-2" d="M136.18,62.59V46.8a4.43,4.43,0,0,0-.2-1.68.72.72,0,0,0-.72-.42,3.41,3.41,0,0,0-.47.06,3.58,3.58,0,0,1-.55.06.43.43,0,0,1-.33-.16.92.92,0,0,1-.1-.49c0-.59.89-1.13,2.67-1.6a25.53,25.53,0,0,1,6.56-.71,15.09,15.09,0,0,1,4.69.67,10.09,10.09,0,0,1,3.62,2,12.43,12.43,0,0,1,3.23,4.37,13.16,13.16,0,0,1,1.14,5.41q0,6-3.45,9.55A12.32,12.32,0,0,1,143,67.41c-.56,0-1.53,0-2.9-.11s-2.49-.11-3.31-.11c-.37,0-.77,0-1.22,0l-.81,0a1.21,1.21,0,0,1-.74-.16.69.69,0,0,1-.21-.56c0-.33.36-.53,1.08-.59l.43-.06A2.07,2.07,0,0,0,136,65a6.64,6.64,0,0,0,.19-2v-.41Zm6-15.42v16a3.61,3.61,0,0,0,.45,2.09,1.7,1.7,0,0,0,1.49.61q2.34,0,3.62-2.9A21.34,21.34,0,0,0,149,54.73a19.66,19.66,0,0,0-1.43-8.17q-1.42-3.09-3.66-3.09a1.37,1.37,0,0,0-1.34.82,7.19,7.19,0,0,0-.4,2.88Z"/><path class="cls-2" d="M165.69,63.9a6.76,6.76,0,0,0,.11,1.57.84.84,0,0,0,.43.57l.45.1c.66.1,1,.35,1,.74a.42.42,0,0,1-.24.41,1.85,1.85,0,0,1-.79.12h-.41c-1.19-.09-2.37-.13-3.54-.13s-2.44,0-3.75.13h-.58a1.18,1.18,0,0,1-.62-.11.41.41,0,0,1-.17-.38c0-.37.27-.63.83-.78l.31-.08a1.17,1.17,0,0,0,.89-.52,3.62,3.62,0,0,0,.24-1.61V45.81a4.51,4.51,0,0,0-.16-1.46,1.18,1.18,0,0,0-.56-.64,3.36,3.36,0,0,0-.56-.12q-1-.14-1-.75a.46.46,0,0,1,.2-.42,1.18,1.18,0,0,1,.63-.14l.6,0c1.3,0,2.54.07,3.73.07s2.34,0,3.52-.07l.43,0a1.55,1.55,0,0,1,.75.14.48.48,0,0,1,.24.46c0,.34-.25.59-.75.74l-.27.1a1,1,0,0,0-.78.48,4.44,4.44,0,0,0-.19,1.65v18Z"/><path class="cls-2" d="M171.71,62.7V45.81a4.1,4.1,0,0,0-.18-1.49.77.77,0,0,0-.59-.47l-.49-.1q-1.11-.18-1.11-.75a.49.49,0,0,1,.2-.45,1.75,1.75,0,0,1,.8-.13h5.87a1.08,1.08,0,0,1,.93.44l0,0,9,14.11v-9.2A13.51,13.51,0,0,0,186,45.2a2.11,2.11,0,0,0-.59-1.07,5.93,5.93,0,0,0-1.24-.28c-.66-.11-1-.34-1-.71a.59.59,0,0,1,.3-.52,1.48,1.48,0,0,1,.82-.2c.34,0,.83,0,1.46,0s1.11.05,1.41.05c.63,0,1.31,0,2-.08l.29,0a.87.87,0,0,1,.59.17.75.75,0,0,1,.17.55c0,.35-.28.6-.84.74a4.21,4.21,0,0,0-.76.25,1.07,1.07,0,0,0-.71.54,3.48,3.48,0,0,0-.2,1.41v20.4a2,2,0,0,1-.23,1.2,1,1,0,0,1-.81.26,1.56,1.56,0,0,1-.91-.28,2.77,2.77,0,0,1-.76-.91L173.46,48.32V62.83a6.33,6.33,0,0,0,.24,2.1,1.76,1.76,0,0,0,.83.92,4.42,4.42,0,0,0,.8.12c.71,0,1.07.26,1.07.67a.53.53,0,0,1-.24.49,1.82,1.82,0,0,1-.83.14H170.1a1.24,1.24,0,0,1-.61-.1.44.44,0,0,1-.15-.38A.81.81,0,0,1,170,66l.4-.17a2.2,2.2,0,0,0,1.06-.58,2.23,2.23,0,0,0,.29-1.33V62.7Z"/><path class="cls-2" d="M206,47.89a2.65,2.65,0,0,1-.16,1.23.74.74,0,0,1-.63.23c-.44,0-1-.77-1.68-2.32-.06-.14-.11-.24-.13-.31a7.91,7.91,0,0,0-1.76-2.91,3.18,3.18,0,0,0-2-.63,2.67,2.67,0,0,0-1.95.74,2.59,2.59,0,0,0-.75,1.93c0,1.35,1.25,3,3.77,4.84l.41.29a22.05,22.05,0,0,1,5,4.67,7.27,7.27,0,0,1,1.14,4,7.45,7.45,0,0,1-2.67,5.89,10,10,0,0,1-6.85,2.32,12.16,12.16,0,0,1-4.6-.61,2.06,2.06,0,0,1-1.34-2,31.43,31.43,0,0,1,.28-5.48c.19-.79.55-1.19,1.08-1.19s1.18.83,1.54,2.48c.13.61.24,1.09.33,1.46a7.14,7.14,0,0,0,1.45,3.06,3,3,0,0,0,2.33.92,3.4,3.4,0,0,0,2.52-1,3.54,3.54,0,0,0,1-2.61,5,5,0,0,0-.74-2.62,10.16,10.16,0,0,0-2.33-2.58c-.27-.22-1.11-.85-2.52-1.88a18.84,18.84,0,0,1-3.18-2.84,6.21,6.21,0,0,1-1-1.87,7.09,7.09,0,0,1-.35-2.23,6.51,6.51,0,0,1,2.27-5.14,8.57,8.57,0,0,1,5.88-2,13.86,13.86,0,0,1,3.16.37,6.93,6.93,0,0,1,2.25.86.76.76,0,0,1,.29.44,6.21,6.21,0,0,1,.08,1.24L206,47.89Z"/><path class="cls-2" d="M128.6,138.34a17.29,17.29,0,0,0,2.06-5.52,26.49,26.49,0,0,1,10.44,10.57s-2.51-11.11-10.4-16.86c-1.54-9.15-9.25-16.27-9.25-16.27a26.69,26.69,0,0,1,4,13.63,17.83,17.83,0,0,0-10.1,0,26.59,26.59,0,0,1,4-13.63s-7.71,7.12-9.25,16.27c-7.89,5.75-10.4,16.86-10.4,16.86a26.41,26.41,0,0,1,10.43-10.57,17.56,17.56,0,0,0,2.07,5.52,17.91,17.91,0,0,0,3.13,4,26.36,26.36,0,0,1-14.54,3.85s10.75,3.34,19.65-.5c8.89,3.84,19.64.5,19.64.5a26.36,26.36,0,0,1-14.54-3.85,17.66,17.66,0,0,0,3.14-4ZM120.36,130a18.62,18.62,0,0,1,4.15.5,18.33,18.33,0,0,1-1.82,4.43,18.53,18.53,0,0,1-2.33,3.15,17.85,17.85,0,0,1-2.33-3.15,18.33,18.33,0,0,1-1.82-4.43,18.62,18.62,0,0,1,4.15-.5Z"/><path class="cls-2" d="M86.26,143.08a.78.78,0,0,0,.21.61,1.9,1.9,0,0,0,1,.26l.17,0c.39,0,.59.15.59.33a.34.34,0,0,1-.15.3.71.71,0,0,1-.41.11l-1.06-.09c-.63-.05-1.23-.08-1.8-.08s-1.15,0-1.75.08l-.93.09a.55.55,0,0,1-.36-.11.33.33,0,0,1-.13-.28c0-.19.19-.31.58-.36h.15a1.24,1.24,0,0,0,.73-.26.86.86,0,0,0,.17-.61v-8.25a.86.86,0,0,0-.18-.61,1.3,1.3,0,0,0-.72-.26h-.14c-.4-.06-.61-.19-.61-.37a.38.38,0,0,1,.13-.29.57.57,0,0,1,.36-.11l.36,0c.82.07,1.6.11,2.34.11h2.08c.62,0,1.35,0,2.17-.07l1.55-.07a.8.8,0,0,1,.41.06.35.35,0,0,1,.08.27v2a.46.46,0,0,1-.08.32.39.39,0,0,1-.25.07c-.18,0-.4-.22-.69-.64a5.12,5.12,0,0,0-.36-.51,1.59,1.59,0,0,0-.75-.56,3,3,0,0,0-1.14-.19,2.25,2.25,0,0,0-1.18.23.94.94,0,0,0-.34.81v2.63a.36.36,0,0,0,.2.35,1.78,1.78,0,0,0,.74.11,5.36,5.36,0,0,0,1.17-.09.92.92,0,0,0,.51-.3,4,4,0,0,0,.39-.74c.15-.32.31-.49.5-.49a.35.35,0,0,1,.28.12.53.53,0,0,1,.1.32,1.08,1.08,0,0,0,0,.16,10.73,10.73,0,0,0-.08,1.24c0,.38,0,.77,0,1.16s0,.59,0,.6a1,1,0,0,1-.08.5.37.37,0,0,1-.32.12c-.21,0-.41-.19-.58-.57a3.56,3.56,0,0,0-.18-.35,1.53,1.53,0,0,0-.61-.68,2.29,2.29,0,0,0-1-.17h-.56l-.24,0a.34.34,0,0,0-.21.08.21.21,0,0,0-.07.18v3.82Z"/><path class="cls-2" d="M148.21,138.93a5.75,5.75,0,0,1,.55-2.46,6.08,6.08,0,0,1,1.6-2,6.47,6.47,0,0,1,2.17-1.19,8.51,8.51,0,0,1,2.7-.4,10.13,10.13,0,0,1,2.11.21,3.25,3.25,0,0,1,1.31.47c.09.05.16.27.24.67a7.15,7.15,0,0,1,.11,1.27.46.46,0,0,1-.09.31.36.36,0,0,1-.28.11c-.18,0-.39-.19-.63-.58l-.27-.42a3.28,3.28,0,0,0-1.06-1,2.6,2.6,0,0,0-1.3-.31,3.38,3.38,0,0,0-2.81,1.53,6.31,6.31,0,0,0-1.12,3.86,6.19,6.19,0,0,0,1.11,3.79,3.36,3.36,0,0,0,2.78,1.49,2.93,2.93,0,0,0,1.6-.47,3.37,3.37,0,0,0,1.16-1.31c0-.09.12-.23.2-.4.22-.46.41-.69.56-.69a.26.26,0,0,1,.27.17,2.66,2.66,0,0,1,.07.83v.24a5,5,0,0,1-.06.93.78.78,0,0,1-.23.43,3.54,3.54,0,0,1-1.52.74,8.67,8.67,0,0,1-2.25.27,7.31,7.31,0,0,1-5-1.69,5.62,5.62,0,0,1-1.9-4.4Z"/><polygon class="cls-2" points="120.38 210.92 155.79 173.99 210.41 173.99 120.38 259.73 30.35 173.99 84.97 173.99 120.38 210.92 120.38 210.92"/><path class="cls-2" d="M105,177.59v-7.32a1,1,0,0,0-.09-.52.41.41,0,0,0-.34-.12,3.47,3.47,0,0,0-.92.24,3.66,3.66,0,0,1-1.09.23.39.39,0,0,1-.29-.1.28.28,0,0,1-.11-.24c0-.24.4-.45,1.2-.65l.88-.22c.77-.22,1.52-.46,2.25-.73l1.11-.41a.29.29,0,0,1,.21.07.38.38,0,0,1,.06.24v9.45a1.42,1.42,0,0,0,.18.82,1,1,0,0,0,.64.34l.46.05c.55.06.83.22.83.47a.33.33,0,0,1-.13.3.78.78,0,0,1-.44.09l-1.14-.05c-.64,0-1.23-.06-1.76-.06-.38,0-.93,0-1.65,0s-1.25.05-1.58.05a.81.81,0,0,1-.46-.1.33.33,0,0,1-.14-.29c0-.29.31-.45,1-.49l.29,0,.31,0a1,1,0,0,0,.63-.24,1.54,1.54,0,0,0,.14-.8Z"/><path class="cls-2" d="M113.25,174.11l.13-.07s0,0,0-.07a.18.18,0,0,0,0-.07l-.19-.12-.56-.37a2.73,2.73,0,0,1-.92-1,2.66,2.66,0,0,1-.33-1.29,3,3,0,0,1,1.23-2.43,5,5,0,0,1,3.16-1,5.27,5.27,0,0,1,3,.76,2.25,2.25,0,0,1,1.14,1.94,1.76,1.76,0,0,1-.39,1.1,2.7,2.7,0,0,1-1.1.82l-.43.21a.1.1,0,0,0-.08.05.12.12,0,0,0,0,.09s.05.06.16.12l0,0,.51.31a3.9,3.9,0,0,1,1.36,1.27,3,3,0,0,1,.46,1.65,3.34,3.34,0,0,1-1.43,2.74,5.76,5.76,0,0,1-3.62,1.11,5.23,5.23,0,0,1-3.16-.92,2.71,2.71,0,0,1-1.25-2.25,2.35,2.35,0,0,1,.51-1.48,3,3,0,0,1,1.37-1l.45-.18Zm1.32.28a1,1,0,0,0-.9.63,3.26,3.26,0,0,0-.35,1.63,2.52,2.52,0,0,0,.65,1.82,2.47,2.47,0,0,0,3.28.13,1.84,1.84,0,0,0,.62-1.42,1.81,1.81,0,0,0-.22-.84,2.16,2.16,0,0,0-.63-.72,8.4,8.4,0,0,0-1.43-.87,3.21,3.21,0,0,0-1-.36Zm2-2.11a.91.91,0,0,0,.75-.52,2.2,2.2,0,0,0,.34-1.24,2.1,2.1,0,0,0-.58-1.55,2,2,0,0,0-1.52-.6,2,2,0,0,0-1.33.45,1.45,1.45,0,0,0-.53,1.15,1.56,1.56,0,0,0,.15.67,1.79,1.79,0,0,0,.41.56,3.34,3.34,0,0,0,.34.25c.12.08.28.17.47.27.44.2.78.35,1,.43a1.53,1.53,0,0,0,.49.13Z"/><path class="cls-2" d="M123.05,174.11l.12-.07s0,0,0-.07a.15.15,0,0,0-.06-.07l-.18-.12-.56-.37a2.72,2.72,0,0,1-1.25-2.28,3,3,0,0,1,1.23-2.43,4.92,4.92,0,0,1,3.16-1,5.24,5.24,0,0,1,3,.76,2.24,2.24,0,0,1,1.15,1.94,1.76,1.76,0,0,1-.39,1.1,2.77,2.77,0,0,1-1.1.82l-.44.21s0,0-.07.05a.1.1,0,0,0,0,.09s.06.06.16.12l0,0,.52.31a4,4,0,0,1,1.36,1.27,3.1,3.1,0,0,1,.46,1.65,3.33,3.33,0,0,1-1.44,2.74,5.72,5.72,0,0,1-3.62,1.11A5.2,5.2,0,0,1,122,179a2.68,2.68,0,0,1-1.25-2.25,2.4,2.4,0,0,1,.5-1.48,3,3,0,0,1,1.38-1l.45-.18Zm1.31.28a1,1,0,0,0-.9.63,3.37,3.37,0,0,0-.35,1.63,2.57,2.57,0,0,0,.65,1.82,2.49,2.49,0,0,0,3.29.13,1.83,1.83,0,0,0,.61-1.42,1.7,1.7,0,0,0-.22-.84,2.16,2.16,0,0,0-.63-.72,8,8,0,0,0-1.43-.87,3.05,3.05,0,0,0-1-.36Zm2-2.11a.94.94,0,0,0,.75-.52,2.27,2.27,0,0,0,.33-1.24,2.13,2.13,0,0,0-.57-1.55,2.22,2.22,0,0,0-2.86-.15,1.45,1.45,0,0,0-.53,1.15,1.56,1.56,0,0,0,.15.67,2,2,0,0,0,.41.56,3.34,3.34,0,0,0,.34.25l.47.27c.45.2.78.35,1,.43a1.57,1.57,0,0,0,.5.13Z"/><path class="cls-2" d="M134.38,177.59v-7.32a1,1,0,0,0-.1-.52.4.4,0,0,0-.34-.12,3.47,3.47,0,0,0-.92.24,3.66,3.66,0,0,1-1.09.23.39.39,0,0,1-.29-.1.3.3,0,0,1-.11-.24c0-.24.4-.45,1.2-.65l.88-.22c.78-.22,1.53-.46,2.25-.73l1.12-.41a.28.28,0,0,1,.2.07.38.38,0,0,1,.06.24v9.45a1.41,1.41,0,0,0,.19.82,1,1,0,0,0,.63.34l.46.05c.56.06.83.22.83.47a.35.35,0,0,1-.12.3.84.84,0,0,1-.45.09l-1.13-.05c-.65,0-1.23-.06-1.76-.06-.38,0-.93,0-1.65,0s-1.25.05-1.59.05a.81.81,0,0,1-.46-.1.33.33,0,0,1-.14-.29c0-.29.32-.45.95-.49l.29,0,.31,0a1,1,0,0,0,.63-.24,1.42,1.42,0,0,0,.15-.8Z"/><path class="cls-2" d="M35.44,81.72a1.52,1.52,0,0,0-.14-.79.56.56,0,0,0-.51-.21,2.12,2.12,0,0,0-.63.13,1.88,1.88,0,0,1-.56.14.36.36,0,0,1-.26-.14.52.52,0,0,1-.12-.34c0-.42.68-.76,2.05-1a30.82,30.82,0,0,1,5.53-.4,10.94,10.94,0,0,1,3.7.57,8,8,0,0,1,2.85,1.77A9.89,9.89,0,0,1,49.8,85a11.84,11.84,0,0,1,.82,4.53A10.19,10.19,0,0,1,48,97a9.72,9.72,0,0,1-7.28,2.68,20.09,20.09,0,0,1-2.26-.17c-.92-.11-1.56-.17-1.9-.17a11.07,11.07,0,0,0-1.41.12,11.07,11.07,0,0,1-1.25.12.84.84,0,0,1-.51-.13.4.4,0,0,1-.17-.36c0-.25.21-.4.63-.46h0l.5-.06h.06a1.3,1.3,0,0,0,.83-.45,3.7,3.7,0,0,0,.17-1.5V81.72Zm2.9.16V95.64A4.18,4.18,0,0,0,38.81,98a2.19,2.19,0,0,0,1.81.61,5.84,5.84,0,0,0,4.94-2.51,11.31,11.31,0,0,0,1.83-6.78,11.16,11.16,0,0,0-1.85-6.66,5.65,5.65,0,0,0-4.8-2.59,3.63,3.63,0,0,0-1.91.35,1.67,1.67,0,0,0-.49,1.44Z"/><path class="cls-2" d="M54.41,82a2.78,2.78,0,0,0-.13-1.11.87.87,0,0,0-.57-.33l-.37-.05-.27,0s0-.07,0-.07c-.37,0-.55-.18-.55-.44a.39.39,0,0,1,.13-.33.69.69,0,0,1,.43-.11l.42,0c1.42.08,2.87.13,4.33.13,1.9,0,3.78-.05,5.63-.13l.58,0a1.12,1.12,0,0,1,.72.16c.12.1.18.37.18.82v2.83a1.72,1.72,0,0,1-.07.61.26.26,0,0,1-.25.18c-.18,0-.39-.27-.61-.83A4.51,4.51,0,0,0,63.25,82a4,4,0,0,0-1.64-1.12,6.45,6.45,0,0,0-2.32-.39,2.74,2.74,0,0,0-1.65.32,2.5,2.5,0,0,0-.33,1.62v5.3c0,.32,0,.5.07.55s.21.08.47.08h1.46a7.45,7.45,0,0,0,1.8-.2,1.93,1.93,0,0,0,1-.53,2.74,2.74,0,0,0,.29-.46,3.76,3.76,0,0,0,.22-.69l0,0c.09-.4.24-.59.43-.59s.24,0,.29.11a.91.91,0,0,1,.07.46c0,.16,0,.56-.07,1.22s-.07,1.24-.07,1.75,0,1,.05,1.57,0,.94,0,1.06a1.05,1.05,0,0,1-.1.54.29.29,0,0,1-.28.16c-.2,0-.39-.28-.56-.84A8,8,0,0,0,62,90.5a1.94,1.94,0,0,0-.9-.83,4.87,4.87,0,0,0-1.79-.24H57.85a.61.61,0,0,0-.44.12.71.71,0,0,0-.1.45v6.56a2.32,2.32,0,0,0,.4,1.64,3.55,3.55,0,0,0,2.11.38A5.94,5.94,0,0,0,62,98.26a3,3,0,0,0,1.36-1.05,16.15,16.15,0,0,0,.9-1.58c.37-.72.67-1.08.89-1.08a.3.3,0,0,1,.23.08.56.56,0,0,1,.06.3v.29a1.62,1.62,0,0,0,0,.21L65,98.58v.15c-.08.6-.31.9-.68.9s-1.53,0-3.46-.12-3.66-.12-5.19-.12c-.62,0-1.25,0-1.89.07l-1,.07a.88.88,0,0,1-.53-.13.42.42,0,0,1-.19-.38c0-.26.25-.41.76-.44a4.82,4.82,0,0,0,.63-.06.93.93,0,0,0,.74-.45,3.81,3.81,0,0,0,.19-1.51V82Z"/><path class="cls-2" d="M76.33,81.94a1.51,1.51,0,0,0-.24-1,.86.86,0,0,0-.72-.29,2.64,2.64,0,0,0-.53.07,2.87,2.87,0,0,1-.52.08.34.34,0,0,1-.27-.11.46.46,0,0,1-.09-.31c0-.33.5-.58,1.49-.75a28.76,28.76,0,0,1,4.44-.25,12,12,0,0,1,6,1.19,4,4,0,0,1,2,3.7,4.2,4.2,0,0,1-.76,2.6,4.88,4.88,0,0,1-2.35,1.6,5.09,5.09,0,0,1,3.08,1.83A5.87,5.87,0,0,1,88.94,94a5.63,5.63,0,0,1-1.65,4.24,6.22,6.22,0,0,1-4.49,1.59,25.19,25.19,0,0,1-2.86-.24,25.33,25.33,0,0,0-2.87-.24,8.82,8.82,0,0,0-1.27.1q-.72.09-.9.09a.76.76,0,0,1-.44-.12.37.37,0,0,1-.17-.31.47.47,0,0,1,.12-.37.8.8,0,0,1,.49-.15l.25-.06a1.49,1.49,0,0,0,1-.49,3.55,3.55,0,0,0,.18-1.48V81.94Zm2.8.06v5.31a1.72,1.72,0,0,0,.12.81c.08.11.27.17.56.17h.47l.65,0a4,4,0,0,0,2.87-1,3.63,3.63,0,0,0,1.06-2.73,4.1,4.1,0,0,0-1-3,3.81,3.81,0,0,0-2.89-1,2.58,2.58,0,0,0-1.48.29A1.64,1.64,0,0,0,79.13,82Zm2.34,7.34H79.55a.38.38,0,0,0-.31.11.36.36,0,0,0-.11.29V96.3a2.37,2.37,0,0,0,.59,1.83,2.87,2.87,0,0,0,2,.55,3.7,3.7,0,0,0,3-1.26A5.09,5.09,0,0,0,85.77,94a4.93,4.93,0,0,0-1.11-3.45,4.13,4.13,0,0,0-3.19-1.2Z"/><path class="cls-2" d="M99.89,78.9a7.71,7.71,0,0,1,3.27.72,8.68,8.68,0,0,1,2.77,2,11.29,11.29,0,0,1,2.14,3.58,12.79,12.79,0,0,1,0,8.52,11.29,11.29,0,0,1-2.14,3.58,8.89,8.89,0,0,1-2.8,2.08,7.9,7.9,0,0,1-3.32.72,7.71,7.71,0,0,1-3.27-.72,8.6,8.6,0,0,1-2.78-2.08,11.11,11.11,0,0,1-2.14-3.58,12.23,12.23,0,0,1-.74-4.26,12.38,12.38,0,0,1,.74-4.28,10.71,10.71,0,0,1,2.14-3.56,8.37,8.37,0,0,1,2.81-2.06,8.05,8.05,0,0,1,3.32-.71ZM100,99.25a4.57,4.57,0,0,0,4-2.55A12.86,12.86,0,0,0,105.53,90a14.66,14.66,0,0,0-1.62-7.37q-1.64-2.81-4.21-2.8a4.57,4.57,0,0,0-4,2.55,13,13,0,0,0-1.53,6.72,14.53,14.53,0,0,0,1.63,7.35q1.62,2.82,4.2,2.82Z"/><path class="cls-2" d="M115.5,96.55a3.9,3.9,0,0,0,.17,1.5,1.23,1.23,0,0,0,.77.46.68.68,0,0,0,.22,0l.31,0a.79.79,0,0,1,.5.15.47.47,0,0,1,.11.37.36.36,0,0,1-.16.32.74.74,0,0,1-.44.11,5.51,5.51,0,0,1-.68-.06,6.47,6.47,0,0,0-.66-.07h-.15c-.47,0-.94,0-1.42,0a18.7,18.7,0,0,0-2,.1l-1,.09a.79.79,0,0,1-.5-.13.4.4,0,0,1-.18-.36c0-.25.21-.4.63-.46h0l.5-.06h.06a1.36,1.36,0,0,0,.84-.45,3.93,3.93,0,0,0,.17-1.51V81.93a2.7,2.7,0,0,0-.15-1.14,1,1,0,0,0-.69-.37,4.17,4.17,0,0,0-.69-.09c-.43,0-.65-.17-.66-.43a.36.36,0,0,1,.17-.33,1.19,1.19,0,0,1,.55-.1c.17,0,.46,0,.88.08s.76.07,1,.07c.74,0,1.65,0,2.75-.07s1.83-.08,2.19-.08a5.4,5.4,0,0,1,3.84,1.29,4.68,4.68,0,0,1,1.37,3.57,5.46,5.46,0,0,1-.91,3.22,4,4,0,0,1-2.5,1.68,2.37,2.37,0,0,1,.6.62,9.41,9.41,0,0,1,.68,1.41l1.88,4.4.17.44c.63,1.51,1.07,2.31,1.32,2.41a5,5,0,0,0,.65.21c.45.13.67.3.67.51a.26.26,0,0,1-.09.23.73.73,0,0,1-.39.07c-.18,0-.5,0-1,0s-.83,0-1.11,0-.37,0-.67,0a4.86,4.86,0,0,1-.66,0c-.39,0-.7-.29-.93-.89l-.06-.13L118,91.26a2.84,2.84,0,0,0-.7-1.17,1.67,1.67,0,0,0-1.07-.28h-.33a.37.37,0,0,0-.3.13.44.44,0,0,0-.12.32v6.29Zm0-14.52v6a.7.7,0,0,0,.2.56,1,1,0,0,0,.67.18,4,4,0,0,0,3-.95,4.37,4.37,0,0,0,.92-3.1,5.43,5.43,0,0,0-.85-3.21,2.74,2.74,0,0,0-2.35-1.19,1.89,1.89,0,0,0-1.26.32A1.92,1.92,0,0,0,115.5,82Z"/><path class="cls-2" d="M127.8,81.72a1.52,1.52,0,0,0-.14-.79.56.56,0,0,0-.51-.21,2.12,2.12,0,0,0-.63.13A1.82,1.82,0,0,1,126,81a.36.36,0,0,1-.26-.14.53.53,0,0,1-.13-.34c0-.42.69-.76,2.06-1a30.82,30.82,0,0,1,5.53-.4,10.94,10.94,0,0,1,3.7.57,8,8,0,0,1,2.85,1.77A9.89,9.89,0,0,1,142.16,85a12,12,0,0,1,.82,4.53A10.19,10.19,0,0,1,140.36,97a9.72,9.72,0,0,1-7.28,2.68,20.09,20.09,0,0,1-2.26-.17c-.92-.11-1.56-.17-1.9-.17a11.07,11.07,0,0,0-1.41.12,11.07,11.07,0,0,1-1.25.12.84.84,0,0,1-.51-.13.4.4,0,0,1-.18-.36c0-.25.22-.4.64-.46h0l.5-.06h.06a1.3,1.3,0,0,0,.83-.45,3.7,3.7,0,0,0,.17-1.5V81.72Zm2.9.16V95.64a4.09,4.09,0,0,0,.47,2.38,2.19,2.19,0,0,0,1.81.61,5.84,5.84,0,0,0,4.94-2.51,11.31,11.31,0,0,0,1.83-6.78,11.23,11.23,0,0,0-1.85-6.66,5.65,5.65,0,0,0-4.8-2.59,3.63,3.63,0,0,0-1.91.35,1.67,1.67,0,0,0-.49,1.44Z"/><path class="cls-2" d="M146.77,82a2.78,2.78,0,0,0-.13-1.11.87.87,0,0,0-.57-.33l-.37-.05-.28,0s0-.07,0-.07c-.37,0-.55-.18-.55-.44a.39.39,0,0,1,.13-.33.69.69,0,0,1,.43-.11l.42,0c1.42.08,2.86.13,4.33.13,1.9,0,3.78-.05,5.63-.13l.58,0a1.12,1.12,0,0,1,.72.16c.12.1.18.37.18.82v2.83a1.72,1.72,0,0,1-.07.61.26.26,0,0,1-.25.18c-.18,0-.39-.27-.61-.83a4.51,4.51,0,0,0-.71-1.26A4,4,0,0,0,154,80.86a6.45,6.45,0,0,0-2.32-.39,2.74,2.74,0,0,0-1.65.32,2.5,2.5,0,0,0-.33,1.62v5.3c0,.32,0,.5.07.55s.21.08.47.08h1.46a7.45,7.45,0,0,0,1.8-.2,1.93,1.93,0,0,0,1-.53,2.74,2.74,0,0,0,.29-.46,3.76,3.76,0,0,0,.22-.69l0,0c.09-.4.24-.59.43-.59s.24,0,.29.11a.91.91,0,0,1,.07.46c0,.16,0,.56-.07,1.22s-.07,1.24-.07,1.75,0,1,.05,1.57,0,.94,0,1.06a1.05,1.05,0,0,1-.1.54.29.29,0,0,1-.28.16c-.2,0-.39-.28-.56-.84a8,8,0,0,0-.51-1.36,1.94,1.94,0,0,0-.9-.83,4.87,4.87,0,0,0-1.79-.24h-1.44a.57.57,0,0,0-.43.12.64.64,0,0,0-.11.45v6.56a2.32,2.32,0,0,0,.4,1.64,3.57,3.57,0,0,0,2.12.38,5.88,5.88,0,0,0,2.14-.32,3,3,0,0,0,1.36-1.05,16.15,16.15,0,0,0,.9-1.58c.37-.72.67-1.08.89-1.08a.3.3,0,0,1,.23.08.56.56,0,0,1,.06.3v.29a1.62,1.62,0,0,0,0,.21l-.37,3.15v.15c-.08.6-.31.9-.68.9s-1.53,0-3.46-.12-3.66-.12-5.19-.12c-.62,0-1.25,0-1.89.07l-1,.07a.88.88,0,0,1-.53-.13.42.42,0,0,1-.19-.38c0-.26.25-.41.76-.44a4.82,4.82,0,0,0,.63-.06.93.93,0,0,0,.74-.45,3.81,3.81,0,0,0,.19-1.51V82Z"/><path class="cls-2" d="M162,95.22c-.16.59-.28,1.09-.36,1.52a5,5,0,0,0-.13.94.91.91,0,0,0,.17.6,1.21,1.21,0,0,0,.67.26l.2,0c.71.14,1.07.36,1.07.68a.35.35,0,0,1-.13.29.54.54,0,0,1-.38.11l-1-.11a13.88,13.88,0,0,0-1.78-.12,11.46,11.46,0,0,0-1.22.08l-.85.08a.78.78,0,0,1-.45-.11.37.37,0,0,1-.15-.32.39.39,0,0,1,.12-.31,1,1,0,0,1,.53-.13h0a2,2,0,0,0,.88-.28,5.31,5.31,0,0,0,1.15-2.37h0l5.06-16.4a.75.75,0,0,0,.05-.16c.14-.41.3-.62.49-.62s.44.32.63.95c.07.24.12.42.16.54l4.81,15.14a10.34,10.34,0,0,0,.78,2,2.45,2.45,0,0,0,.77.85,2.74,2.74,0,0,0,.34.19l.41.14v0q.42.15.42.36a.37.37,0,0,1-.13.32.6.6,0,0,1-.4.1c-.19,0-.61,0-1.23-.08s-1.16-.08-1.59-.08c-.71,0-1.42,0-2.14.08l-1.1.08a.9.9,0,0,1-.44-.08.36.36,0,0,1-.12-.31q0-.4.87-.48l.14,0a1.41,1.41,0,0,0,.75-.22.7.7,0,0,0,.18-.55,4.07,4.07,0,0,0-.07-.61,6.84,6.84,0,0,0-.23-.84l-1.25-4.08a.4.4,0,0,0-.14-.2.64.64,0,0,0-.3,0h-4a.31.31,0,0,0-.21.08.46.46,0,0,0-.14.21L162,95.22Zm1.31-4.88a.41.41,0,0,1,0,.1c0,.09,0,.17,0,.23a.2.2,0,0,0,0,.14.22.22,0,0,0,.16,0h3.23a.23.23,0,0,0,.18-.07.27.27,0,0,0,.07-.2.81.81,0,0,0,0-.19.52.52,0,0,1,0-.11l-1.73-5.51a.71.71,0,0,0-.08-.21.28.28,0,0,0-.12-.08.22.22,0,0,0-.09.08,1.5,1.5,0,0,0-.09.18l-1.48,5.6Z"/><path class="cls-2" d="M187,85.48v-1a19.23,19.23,0,0,0-.15-2.94,1.46,1.46,0,0,0-.58-1,2.22,2.22,0,0,0-.87-.14c-.45,0-.68-.18-.68-.46a.4.4,0,0,1,.14-.31.57.57,0,0,1,.39-.13l.83,0c.48,0,.9,0,1.29,0s.85,0,1.38,0l1,0a.6.6,0,0,1,.38.13.37.37,0,0,1,.15.31c0,.27-.24.42-.7.43a1.91,1.91,0,0,0-.94.17,1.53,1.53,0,0,0-.54,1,22.87,22.87,0,0,0-.15,3.36V92a25.69,25.69,0,0,1-.19,3.87,5.5,5.5,0,0,1-.66,1.87A4.47,4.47,0,0,1,185,99.56a8.09,8.09,0,0,1-3.3.59,8.31,8.31,0,0,1-3.31-.58,4.56,4.56,0,0,1-2.13-1.76,4.34,4.34,0,0,1-.68-1.66,16,16,0,0,1-.2-2.94V81.91a2.66,2.66,0,0,0-.15-1.15,1.07,1.07,0,0,0-.71-.34,3.9,3.9,0,0,0-.74-.11c-.38,0-.58-.18-.58-.43a.38.38,0,0,1,.13-.3.48.48,0,0,1,.32-.11l.45,0a19.49,19.49,0,0,0,5.43,0l.45,0a.51.51,0,0,1,.35.12.41.41,0,0,1,.13.29c0,.26-.23.42-.68.45l-.64.09a1.19,1.19,0,0,0-.72.36,2.81,2.81,0,0,0-.14,1.13V93.06c0,2.26.31,3.82,1,4.67A3.89,3.89,0,0,0,182.57,99a4.75,4.75,0,0,0,2.31-.55,3.56,3.56,0,0,0,1.52-1.53,4.42,4.42,0,0,0,.44-1.52,31.92,31.92,0,0,0,.13-3.49V85.48Z"/><path class="cls-2" d="M201.4,83.76a10.7,10.7,0,0,0,.75-1.46,2.92,2.92,0,0,0,.28-1,.87.87,0,0,0-.18-.56,1.22,1.22,0,0,0-.56-.34,2.35,2.35,0,0,0-.44-.08c-.43,0-.65-.21-.65-.49a.33.33,0,0,1,.15-.27.66.66,0,0,1,.38-.11l.25,0a21.44,21.44,0,0,0,2.68.16c.64,0,1.3,0,2-.07l1-.08a.57.57,0,0,1,.34.1.35.35,0,0,1,.12.28c0,.31-.27.48-.81.53a5.28,5.28,0,0,0-.53,0,3.65,3.65,0,0,0-1.35.64,4.63,4.63,0,0,0-1.11,1.21l-3.5,5.58a1,1,0,0,0-.14.23.67.67,0,0,0,0,.18.75.75,0,0,0,0,.2,1.25,1.25,0,0,0,.14.31l4,7.11a19.88,19.88,0,0,0,1.11,1.81,2.45,2.45,0,0,0,.67.69,1.83,1.83,0,0,0,.82.27c.36.06.54.18.54.37a.42.42,0,0,1-.18.35.77.77,0,0,1-.45.13q-.27,0-1.47-.12a21.59,21.59,0,0,0-2.16-.12c-.86,0-1.74,0-2.65.14l-.36,0a.55.55,0,0,1-.37-.1.4.4,0,0,1-.11-.31c0-.25.24-.4.73-.47l.08,0h.1a2.05,2.05,0,0,0,.87-.25.66.66,0,0,0,.19-.53,1.4,1.4,0,0,0-.13-.52,8.43,8.43,0,0,0-.43-.87l-2.63-4.72a1,1,0,0,0-.15-.21.26.26,0,0,0-.14-.07s-.07,0-.11.07a1.8,1.8,0,0,0-.16.21L195.28,96a5.46,5.46,0,0,0-.52,1,2.45,2.45,0,0,0-.2.75.55.55,0,0,0,.21.44,2,2,0,0,0,.73.29l.2,0,.3.07a1.5,1.5,0,0,1,.56.2.42.42,0,0,1,.13.3.43.43,0,0,1-.2.37.85.85,0,0,1-.51.14,11,11,0,0,1-1.21-.13,11.58,11.58,0,0,0-1.59-.13c-.49,0-1.05,0-1.66.08l-1,.09a.49.49,0,0,1-.32-.1.36.36,0,0,1-.11-.29c0-.25.23-.44.7-.56a4.9,4.9,0,0,0,.73-.23,4.43,4.43,0,0,0,1.24-.92,8.26,8.26,0,0,0,1.19-1.54l3.27-5.32a1.45,1.45,0,0,0,.14-.29.51.51,0,0,0,0-.2.61.61,0,0,0,0-.24,1.06,1.06,0,0,0-.11-.25l-4.52-7.68a5,5,0,0,0-.73-1,2.21,2.21,0,0,0-.75-.53,3,3,0,0,0-.59-.09q-.57,0-.57-.36a.39.39,0,0,1,.18-.33.79.79,0,0,1,.47-.14c.21,0,.7,0,1.5.12s1.48.12,2.07.12c.86,0,1.78,0,2.76-.13l.55,0a.68.68,0,0,1,.43.1.36.36,0,0,1,.13.31q0,.41-.87.54h-.06a2,2,0,0,0-.87.25.6.6,0,0,0-.18.48,1.63,1.63,0,0,0,.15.6c.1.23.24.51.41.82l2.35,4.07a.84.84,0,0,0,.16.23c.05.06.09.08.12.08a.23.23,0,0,0,.17-.07.74.74,0,0,0,.17-.24l1.71-2.94Z"/></g></g></svg>