<svg xmlns="http://www.w3.org/2000/svg" xmlns:xlink="http://www.w3.org/1999/xlink" viewBox="0 0 299.9 299.22"><defs><style>.cls-1{fill:none;}.cls-2{clip-path:url(#clip-path);}.cls-3{fill:#002395;}.cls-4{fill:#fecb00;}.cls-5{fill:#fff;}</style><clipPath id="clip-path" transform="translate(-0.05 -0.73)"><circle class="cls-1" cx="150" cy="150" r="150"/></clipPath></defs><title>Bosnia_and_Herzegovina</title><g id="Слой_2" data-name="Слой 2"><g id="Слой_1-2" data-name="Слой 1"><g class="cls-2"><rect class="cls-3" width="299.9" height="299.03"/><path class="cls-4" d="M20.8.73H300v299Z" transform="translate(-0.05 -0.73)"/><path id="s" class="cls-5" d="M25,95.11l16.7-51.39L58.43,95.11,14.72,63.35h54Z" transform="translate(-0.05 -0.73)"/><g id="g"><path id="s-2" data-name="s" class="cls-5" d="M62.42,132.49,79.11,81.1l16.7,51.39L52.1,100.73h54Z" transform="translate(-0.05 -0.73)"/><path id="s-3" data-name="s" class="cls-5" d="M99.8,169.87l16.69-51.39,16.7,51.39L89.48,138.1h54Z" transform="translate(-0.05 -0.73)"/><path id="s-4" data-name="s" class="cls-5" d="M137.17,207.25l16.7-51.4,16.7,51.4-43.71-31.77h54Z" transform="translate(-0.05 -0.73)"/></g><polygon class="cls-5" points="191.2 231.76 207.9 243.9 201.52 224.26 218.22 212.13 197.58 212.13 191.2 192.5 184.82 212.13 164.18 212.13 180.88 224.26 174.5 243.9 191.2 231.76"/><polygon class="cls-5" points="228.58 269.14 245.28 281.27 238.9 261.64 255.6 249.51 234.96 249.51 228.58 229.88 222.2 249.51 201.56 249.51 218.26 261.64 211.88 281.27 228.58 269.14"/><polygon class="cls-5" points="31.32 25.24 10.68 25.24 4.31 5.61 0 18.86 0 47.99 4.31 44.87 21 57 14.63 37.37 31.32 25.24"/><polygon class="cls-5" points="255.58 299.22 276.35 299.22 276.28 299.02 292.98 286.89 272.34 286.89 265.96 267.26 259.58 286.89 238.94 286.89 255.64 299.02 255.58 299.22"/></g></g></g></svg>