<svg xmlns="http://www.w3.org/2000/svg" xmlns:xlink="http://www.w3.org/1999/xlink" viewBox="0 0 379.37 395.69"><defs><style>.cls-1{fill:none;}.cls-2{clip-path:url(#clip-path);}.cls-3{fill:#fff;}.cls-4{clip-path:url(#clip-path-2);}.cls-5{fill:url(#Безымянный_градиент_2);}.cls-6{clip-path:url(#clip-path-6);}.cls-7{clip-path:url(#clip-path-14);}.cls-8{fill:url(#Безымянный_градиент_15);}.cls-9{clip-path:url(#clip-path-15);}.cls-10{fill:url(#Безымянный_градиент_15-2);}.cls-11{clip-path:url(#clip-path-16);}.cls-12{fill:url(#Безымянный_градиент_15-3);}.cls-13{clip-path:url(#clip-path-17);}.cls-14{fill:url(#Безымянный_градиент_15-4);}.cls-15{clip-path:url(#clip-path-18);}.cls-16{fill:url(#Безымянный_градиент_15-5);}.cls-17{clip-path:url(#clip-path-19);}.cls-18{fill:url(#Безымянный_градиент_15-6);}.cls-19{clip-path:url(#clip-path-20);}.cls-20{fill:url(#Безымянный_градиент_15-7);}.cls-21{clip-path:url(#clip-path-21);}.cls-22{fill:url(#Безымянный_градиент_15-8);}.cls-23{clip-path:url(#clip-path-22);}.cls-24{fill:url(#Безымянный_градиент_15-9);}.cls-25{clip-path:url(#clip-path-23);}.cls-26{fill:url(#Безымянный_градиент_15-10);}.cls-27{clip-path:url(#clip-path-24);}.cls-28{fill:url(#Безымянный_градиент_15-11);}.cls-29{clip-path:url(#clip-path-25);}.cls-30{fill:url(#Безымянный_градиент_15-12);}.cls-31{clip-path:url(#clip-path-26);}.cls-32{fill:url(#Безымянный_градиент_15-13);}.cls-33{clip-path:url(#clip-path-27);}.cls-34{fill:url(#Безымянный_градиент_15-14);}</style><clipPath id="clip-path"><rect class="cls-1" x="75.77" y="35.25" width="227.91" height="298.82"/></clipPath><clipPath id="clip-path-2"><path class="cls-1" d="M86.1,69.48v75.09c16,130.72,104.2,181.64,104.2,181.64s96.23-65.63,103-181.64V69.48Z"/></clipPath><linearGradient id="Безымянный_градиент_2" x1="-415.34" y1="640.3" x2="-414.4" y2="640.3" gradientTransform="matrix(105.06, -272.8, -272.8, -105.06, 218457.26, -45722.83)" gradientUnits="userSpaceOnUse"><stop offset="0" stop-color="#8b0304"/><stop offset="1" stop-color="#ed1c24"/></linearGradient><clipPath id="clip-path-6"><rect class="cls-1" x="75.77" y="35.25" width="227.91" height="298.82"/></clipPath><clipPath id="clip-path-14"><path class="cls-1" d="M94.45,60.5c0-.22.11-.34.3-.39s.23.06.27.27c.43,1.85.85,3.7,1.28,5.56l-3.12.7q.64-3.06,1.27-6.14m.3-3.4a4,4,0,0,0-3.48,3.15L88.15,74.14s0,.1,0,.11c0,.21.15.31.36.26,1-.23,2-.47,2.93-.69a.63.63,0,0,0,.42-.48l.75-3.66,4.3-1c.25,1.11.51,2.21.76,3.31a.33.33,0,0,0,.42.29l2.94-.61a.43.43,0,0,0,.35-.42s0-.06,0-.1L98.22,58.7A2.07,2.07,0,0,0,96,56.94a6.22,6.22,0,0,0-1.27.16"/></clipPath><linearGradient id="Безымянный_градиент_15" x1="-410.44" y1="642.31" x2="-409.49" y2="642.31" gradientTransform="matrix(119.89, 89.64, 89.64, -119.89, -8267.51, 113871.13)" gradientUnits="userSpaceOnUse"><stop offset="0" stop-color="#a8996e"/><stop offset="0.44" stop-color="#ffe5c7"/><stop offset="1" stop-color="#a8996e"/></linearGradient><clipPath id="clip-path-15"><path class="cls-1" d="M112.37,53.84a23.71,23.71,0,0,0-4.07.48c-2.72.52-5.14,1.69-5.14,5.55v11a.34.34,0,0,0,.42.34l2.74-.55a.54.54,0,0,0,.42-.5v-6.2l5.46-1a.52.52,0,0,0,.42-.5v-2a.34.34,0,0,0-.42-.34c-1.82.32-3.64.67-5.46,1V59.16c0-1.11.36-1.52,1.35-1.71l4.28-.79a.53.53,0,0,0,.42-.5v-2c0-.26-.11-.35-.37-.35h0"/></clipPath><linearGradient id="Безымянный_градиент_15-2" x1="-410.44" y1="642.29" x2="-409.49" y2="642.29" gradientTransform="matrix(119.88, 89.63, 89.63, -119.88, -8258.87, 113845.17)" xlink:href="#Безымянный_градиент_15"/><clipPath id="clip-path-16"><path class="cls-1" d="M121.37,52c-3.22.5-6.27,2.71-6.26,7.77v2.67c0,5.05,3,6.21,6.26,5.7a14.09,14.09,0,0,0,3.15-.85c.3-.13.47-.26.47-.56V64.69a.33.33,0,0,0-.41-.37l-.06,0c-.81.18-2,.48-3.14.66-1.46.23-2.62-.35-2.62-3.16V59.17c0-2.83,1.16-3.78,2.62-4,1.17-.18,2.33-.26,3.14-.31l.06,0a.44.44,0,0,0,.41-.48V52.28c0-.3-.17-.35-.47-.39a5.12,5.12,0,0,0-.93-.06,14.2,14.2,0,0,0-2.22.19"/></clipPath><linearGradient id="Безымянный_градиент_15-3" x1="-410.44" y1="642.28" x2="-409.49" y2="642.28" gradientTransform="matrix(119.85, 89.6, 89.6, -119.85, -8250.2, 113806.21)" xlink:href="#Безымянный_градиент_15"/><clipPath id="clip-path-17"><path class="cls-1" d="M136.42,59.07l2.38-.29c1.71-.19,2.26.62,2.26,1.64v.23c0,1.19-.71,1.94-2.9,2.2l-1.74.19v-4m0-6.18c.3-.07,1.27-.19,1.61-.23,2.19-.26,2.94.19,2.94,1.36v.32c0,.91-.49,1.73-2.17,1.92l-2.38.29V52.89m1.34-3.16a29.74,29.74,0,0,0-3.8.7A1.31,1.31,0,0,0,132.83,52V64.86c0,1,.33,1.19,1.17,1.23a28.69,28.69,0,0,0,3.89-.24c3.67-.43,6.7-1.77,6.7-5.5V60a3,3,0,0,0-1.9-2.93,3.83,3.83,0,0,0,1.79-3.32V53.4c0-2.78-1.85-3.8-4.75-3.8a15.49,15.49,0,0,0-2,.13"/></clipPath><linearGradient id="Безымянный_градиент_15-4" x1="-410.44" y1="642.29" x2="-409.5" y2="642.29" gradientTransform="matrix(119.89, 89.64, 89.64, -119.89, -8245.89, 113839.19)" xlink:href="#Безымянный_градиент_15"/><clipPath id="clip-path-18"><path class="cls-1" d="M150.36,57.73V55.2c0-2.54.83-3.7,2.62-3.86s2.64.87,2.64,3.42v2.52c0,2.55-.85,3.7-2.64,3.85h-.34c-1.55,0-2.28-1-2.28-3.41M153,48.16c-3.51.3-6.3,2.47-6.3,7.39v2.53c0,4.93,2.78,6.53,6.3,6.23s6.31-2.38,6.31-7.3V54.48c0-4.56-2.4-6.35-5.56-6.35l-.75,0"/></clipPath><linearGradient id="Безымянный_градиент_15-5" x1="-410.44" y1="642.28" x2="-409.49" y2="642.28" gradientTransform="matrix(119.86, 89.61, 89.61, -119.86, -8237.41, 113798.45)" xlink:href="#Безымянный_градиент_15"/><clipPath id="clip-path-19"><path class="cls-1" d="M173.71,47.1c-.93,0-1.86.06-2.78.11a.42.42,0,0,0-.43.41v9.45c0,2.17-.59,3.1-2.52,3.19s-2.49-.77-2.49-2.94V47.88a.39.39,0,0,0-.43-.38l-2.8.17a.44.44,0,0,0-.42.42v9.45c0,4.84,2.75,5.93,6.14,5.76s6.18-1.54,6.17-6.37V47.48a.4.4,0,0,0-.43-.38h0"/></clipPath><linearGradient id="Безымянный_градиент_15-6" x1="-410.44" y1="642.27" x2="-409.49" y2="642.27" gradientTransform="matrix(119.82, 89.58, 89.58, -119.82, -8227.57, 113749.18)" xlink:href="#Безымянный_градиент_15"/><clipPath id="clip-path-20"><path class="cls-1" d="M180.69,53.92V49.85c.26,0,1.37-.09,1.67-.11,1.79,0,2.8.57,2.8,1.86v.28c0,1.43-.71,2-2.95,2h-.48l-1,0m1.67-7.25A32,32,0,0,0,178,47c-.65.12-1,.32-1,1.05V62.33a.41.41,0,0,0,.43.4l2.77-.07a.43.43,0,0,0,.43-.43V56.85h1.52l.23,0c1,1.76,1.91,3.54,2.87,5.32.11.22.18.42.42.42l3.28,0c.23,0,.32-.1.32-.25a.55.55,0,0,0-.07-.23c-1.08-2-2.15-4-3.23-6a4.31,4.31,0,0,0,2.76-4.26v-.27c0-3.68-2.68-4.91-6.2-4.91h-.23"/></clipPath><linearGradient id="Безымянный_градиент_15-7" x1="-410.44" y1="642.28" x2="-409.49" y2="642.28" gradientTransform="matrix(119.83, 89.59, 89.59, -119.83, -8223.48, 113753.35)" xlink:href="#Безымянный_градиент_15"/><clipPath id="clip-path-21"><path class="cls-1" d="M192.38,46.8a.81.81,0,0,0-.8.81V62.14a.43.43,0,0,0,.43.43l2.52,0a.42.42,0,0,0,.43-.42V53.58c0-.13,0-.17.1-.17s.11,0,.19.17q2.44,4.2,4.87,8.45a1.16,1.16,0,0,0,1.11.69l2.09.05a.79.79,0,0,0,.84-.78V47.44a.44.44,0,0,0-.43-.42L201.21,47a.4.4,0,0,0-.43.39v9c0,.16-.06.19-.1.19s-.09,0-.17-.17q-2.53-4.44-5.06-8.83c-.26-.46-.47-.67-.9-.67l-2.16,0h0"/></clipPath><linearGradient id="Безымянный_градиент_15-8" x1="-410.44" y1="642.27" x2="-409.49" y2="642.27" gradientTransform="matrix(119.88, 89.63, 89.63, -119.88, -8220.93, 113798.56)" xlink:href="#Безымянный_градиент_15"/><clipPath id="clip-path-22"><path class="cls-1" d="M207.07,51.49v7c0,3.86,2.43,4.65,5.19,4.8a27.94,27.94,0,0,0,4.14-.05c.3,0,.42-.14.42-.42v-2a.46.46,0,0,0-.42-.45l-4.33-.25c-1,0-1.38-.4-1.37-1.51V56.45c1.84.08,3.69.19,5.53.29a.38.38,0,0,0,.42-.39v-2a.47.47,0,0,0-.42-.46c-1.84-.11-3.69-.21-5.53-.3V51.65c0-1.1.36-1.42,1.37-1.37l4.33.24a.39.39,0,0,0,.42-.39v-2c0-.28-.12-.39-.42-.45a23,23,0,0,0-4.12-.51l-.72,0c-2.45,0-4.49.8-4.49,4.32"/></clipPath><linearGradient id="Безымянный_градиент_15-9" x1="-410.44" y1="642.26" x2="-409.49" y2="642.26" gradientTransform="matrix(119.85, 89.61, 89.61, -119.85, -8213.37, 113758.44)" xlink:href="#Безымянный_градиент_15"/><clipPath id="clip-path-23"><path class="cls-1" d="M219.5,48.54V63.29c0,.22.2.3.36.31l2.82.21c.19,0,.34-.16.34-.41V54.56c0-.14.06-.16.1-.16s.12.06.18.16l1.91,3.66a.78.78,0,0,0,.64.41l1.71.14a.61.61,0,0,0,.64-.3l1.91-3.33c.07-.1.11-.14.17-.14s.12,0,.12.19V64a.44.44,0,0,0,.33.47c.94.08,1.88.17,2.81.27.17,0,.37,0,.36-.26V49.78a.8.8,0,0,0-.76-.81l-2-.2a.89.89,0,0,0-.94.49L226.94,55c-.08.17-.15.27-.23.26s-.15-.12-.23-.29l-3.26-6.31a1.1,1.1,0,0,0-.95-.64c-.66-.05-1.33-.11-2-.15h-.08a.64.64,0,0,0-.69.67"/></clipPath><linearGradient id="Безымянный_градиент_15-10" x1="-410.44" y1="642.27" x2="-409.49" y2="642.27" gradientTransform="matrix(119.9, 89.64, 89.64, -119.9, -8211.86, 113799.33)" xlink:href="#Безымянный_градиент_15"/><clipPath id="clip-path-24"><path class="cls-1" d="M242.8,62.81c-1.79-.22-2.62-1.4-2.62-3.94V56.35c0-2.55.83-3.54,2.62-3.31s2.63,1.4,2.63,4v2.53c0,2.31-.71,3.32-2.17,3.32l-.46,0m-6.3-6.88v2.53c0,4.92,2.79,7.1,6.3,7.54s6.28-1.07,6.28-6V57.48c0-4.92-2.78-7.2-6.28-7.63a9.92,9.92,0,0,0-1.06-.07c-3,0-5.24,1.74-5.24,6.15"/></clipPath><linearGradient id="Безымянный_градиент_15-11" x1="-410.44" y1="642.26" x2="-409.49" y2="642.26" gradientTransform="matrix(119.87, 89.62, 89.62, -119.87, -8204.73, 113765.58)" xlink:href="#Безымянный_градиент_15"/><clipPath id="clip-path-25"><path class="cls-1" d="M251.61,51.62v9.44c0,4.84,2.74,6.49,6.1,7s6.11-.26,6.11-5.1V53.55a.52.52,0,0,0-.44-.48l-2.74-.46a.33.33,0,0,0-.43.33v9.44c0,2.17-.59,3-2.5,2.67s-2.47-1.29-2.47-3.46V52.15a.5.5,0,0,0-.43-.47L252,51.27H252a.34.34,0,0,0-.36.35"/></clipPath><linearGradient id="Безымянный_градиент_15-12" x1="-410.44" y1="642.26" x2="-409.49" y2="642.26" gradientTransform="matrix(119.86, 89.61, 89.61, -119.86, -8198.68, 113746.24)" xlink:href="#Безымянный_градиент_15"/><clipPath id="clip-path-26"><path class="cls-1" d="M265.75,53.88v2.19a.52.52,0,0,0,.43.48c1.14.21,2.29.41,3.43.63V69.52a.52.52,0,0,0,.43.5l2.75.53a.34.34,0,0,0,.43-.34V57.86l3.41.68a.33.33,0,0,0,.44-.31V56a.55.55,0,0,0-.44-.49q-5.22-1.06-10.45-2h-.09a.32.32,0,0,0-.34.33"/></clipPath><linearGradient id="Безымянный_градиент_15-13" x1="-410.44" y1="642.25" x2="-409.49" y2="642.25" gradientTransform="matrix(119.88, 89.63, 89.63, -119.88, -8196.82, 113765.94)" xlink:href="#Безымянный_градиент_15"/><clipPath id="clip-path-27"><path class="cls-1" d="M279.06,56.45V71.39a.55.55,0,0,0,.41.52l2.76.59a.34.34,0,0,0,.42-.34V66c1.73.37,3.45.76,5.18,1.16v6.13a.58.58,0,0,0,.41.53l2.75.64a.32.32,0,0,0,.41-.32V59.23a.54.54,0,0,0-.41-.5l-2.75-.64a.3.3,0,0,0-.41.3V64c-1.73-.4-3.45-.79-5.18-1.16V57.22a.53.53,0,0,0-.42-.49l-2.76-.59h-.09a.3.3,0,0,0-.32.32"/></clipPath><linearGradient id="Безымянный_градиент_15-14" x1="-410.44" y1="642.26" x2="-409.49" y2="642.26" gradientTransform="matrix(119.85, 89.61, 89.61, -119.85, -8190.9, 113728.47)" xlink:href="#Безымянный_градиент_15"/></defs><title>Bournemouth</title><g id="Слой_2" data-name="Слой 2"><g id="Layer_1" data-name="Layer 1"><g class="cls-2"><path id="path14" class="cls-3" d="M189.73,184.22h0v0"/></g><g class="cls-4"><polygon id="polygon29" class="cls-5" points="266.5 395.69 0 293.05 112.86 0 379.37 102.64 266.5 395.69"/></g><g class="cls-2"><path id="path39" class="cls-3" d="M211.12,176.19h0c1.46.13,2.93.21,4.42.23-1.49,0-3-.1-4.42-.23"/></g><g class="cls-2"><polygon id="polygon41" class="cls-3" points="207.84 175.82 207.84 175.83 207.84 175.82 207.84 175.82"/></g><g class="cls-2"><path id="path43" class="cls-3" d="M166.36,167.38l-23.27-.62-.41,9.24a70.2,70.2,0,0,0-7,0c-3.61.21-3.81,5.22-3.81,5.22a19.91,19.91,0,0,0-5.82.6c-3,.81-2.6,5.43-2.6,5.43s-7.84.2-10.44,3.21-3,9.22-.39,12.84,17.44,24.88,21.26,33.31,4.42,36.95,4.42,36.95l.23.68h0a230.61,230.61,0,0,0,51.24,46.45,241,241,0,0,0,20-15l-38.6-44.55,2.37-2.05.75,0c.25,0,.49,0,.75,0,1.39,0,2.75.17,4.31.17a18.56,18.56,0,0,0,9.17-2.34,7.39,7.39,0,0,0,3.24-3.41,10.51,10.51,0,0,0,1-4.67,9.84,9.84,0,0,0-.84-4.23,7.78,7.78,0,0,0-4.19-3.38,17,17,0,0,0-4.3-1.11,1.51,1.51,0,0,0-.26,0h-.11l-2.2-.39-7.25-8.07,3.44-3,6.15,6.84.47.08a22.22,22.22,0,0,1,4.28.93l-8.55-9.89,3.43-3,51.08,59c.61-.68,1.19-1.36,1.78-2l-50.84-58.69,3.44-3,50.4,58.17c.58-.69,1.15-1.4,1.72-2.08l-50.11-57.84,1.19-1a20.47,20.47,0,0,0,4.46.6l47.35,54.66c.56-.72,1.12-1.43,1.67-2.16l-45.54-52.57a25.34,25.34,0,0,0,5.19-.95l43.14,49.8c.53-.75,1.06-1.48,1.6-2.23l-42-48.53a8.36,8.36,0,0,0,3.37-3L252,259.41c.51-.76,1-1.54,1.53-2.31L211.86,209a16.89,16.89,0,0,0,.4-6.48l43.87,50.64c.5-.79,1-1.58,1.48-2.38L210,195.82v-6.93l50,57.75c.54-.93,1.09-1.86,1.61-2.81L202,174.64c-.61-.15-1.2-.34-1.79-.5a59.23,59.23,0,0,1-7.08-2.6c-.43-.19-.86-.41-1.29-.62-1.45-.7-2.87-1.44-4.26-2.25l-1.44-.87q-2-1.26-3.9-2.68c-.4-.29-.8-.58-1.19-.89a56.73,56.73,0,0,1-4.3-3.74l-.24-.21c-5.53.9-10.11,7.1-10.11,7.1"/></g><g class="cls-6"><path id="path53" class="cls-3" d="M92.13,172.85a238.59,238.59,0,0,0,12.05,42.2c.45,1.13.94,2.28,1.4,3.42-.46-1.14-1-2.29-1.4-3.43a238.27,238.27,0,0,1-12.05-42.19"/></g><g class="cls-6"><path id="path55" d="M75.81,51.47V82.94h0l.07,43.5c0,1,0,2,0,3.13s0,2.22,0,3.4v.18h0c.07,4.4.3,9.5.76,15.21A253.61,253.61,0,0,0,92.9,219.45c14.71,37.77,41.92,79.37,91.23,112.06l5.56,3.54,5.65-3.53q6.93-4.61,13.3-9.41c38.14-28.87,61.22-63.2,75-95.4l.05-.14.12-.28c1-2.28,1.91-4.57,2.8-6.85s1.82-4.79,2.65-7.16a252.27,252.27,0,0,0,14.43-82.72c0-.63,0-1.21,0-1.81h0V51.47a408.39,408.39,0,0,0-227.87,0m185.85,186L245.13,219h0V164.31c8.4-9,12.45-21.31,12.25-34.8-.18-12.6-3.9-24.49-12.25-33.82V77.58c4.78.66,11.79,1.9,16.55,2.72l0,157.15Zm-33.84-38.62-1.51-1.59L211,179.53c.64,0,1.29,0,1.93,0,4.67-.26,10.66-2.15,14.86-3.66v23Zm-14.56,104-33.82-39a23.06,23.06,0,0,0,3.36-.25L215.26,301c-.66.57-1.33,1.17-2,1.76m5.38-4.81-30.95-35.73c.84-.33,1.68-.71,2.56-1.15l30.35,35.08c-.64.6-1.3,1.2-2,1.8m5.24-5-30-34.64a13.42,13.42,0,0,0,1.58-2.22l30.3,35c-.64.62-1.26,1.24-1.9,1.88m5.08-5.15-31.83-36.73a16.86,16.86,0,0,0,.17-2.34,15.07,15.07,0,0,0-.09-1.65l33.61,38.77c-.61.66-1.24,1.32-1.86,1.95m31.1-41.23-50-57.75v6.94l47.58,54.91c-.48.8-1,1.59-1.47,2.38l-43.88-50.64a16.83,16.83,0,0,1-.39,6.48l41.7,48.14c-.49.77-1,1.55-1.54,2.31l-41.35-47.73a8.46,8.46,0,0,1-3.38,3l42.06,48.53c-.54.75-1.07,1.48-1.6,2.23l-43.14-49.8a25.47,25.47,0,0,1-5.19.95L245,269.2c-.55.73-1.12,1.44-1.67,2.16L195.94,216.7a20.92,20.92,0,0,1-4.46-.59l-1.19,1L240.4,275l-1.72,2.09-50.4-58.17-3.44,3,50.84,58.68c-.59.68-1.17,1.35-1.78,2l-51.08-59-3.43,3,8.55,9.89a22.22,22.22,0,0,0-4.28-.93l-.47-.08L177,228.61l-3.44,3,7.25,8.08,2.2.39h.11l.26,0a17.85,17.85,0,0,1,4.29,1.11,7.86,7.86,0,0,1,4.2,3.38,10,10,0,0,1,.84,4.24,10.71,10.71,0,0,1-1,4.67,7.39,7.39,0,0,1-3.24,3.41,18.56,18.56,0,0,1-9.17,2.34c-1.56,0-2.92-.16-4.31-.17-.26,0-.5,0-.76,0l-.74,0-2.37,2.05,38.6,44.55a240.43,240.43,0,0,1-20,15,230.83,230.83,0,0,1-51.25-46.43h0a221.14,221.14,0,0,1-32.91-55.77c-.46-1.14-1-2.29-1.4-3.42a241.76,241.76,0,0,1-16.13-78.8V86.63a417,417,0,0,1,139.77-11v7.42c-5.66-2.27-13.21-4.46-19.43-4.5-27.23-.24-48.38,22.68-48,50.3.4,26.41,20.22,48.24,45.57,50.46l55.68,64.5c-.53.95-1.07,1.88-1.61,2.81m18.18-39.54h.24V83.47c4.41,1,8.55,2,12.93,3.15v49.63l0,0a242.24,242.24,0,0,1-13.21,70.89"/></g><g class="cls-2"><path id="path65" class="cls-3" d="M171.87,151.65l17.46,5,10.46,15.76a43.74,43.74,0,0,0,9.75,1.21,42.9,42.9,0,0,0,9.56-1l9.72-15.33,17.67-5a43.57,43.57,0,0,0,5.72-18.72L240.8,119.06l.47-18.83c-.68-.8-1.39-1.59-2.12-2.33a44.69,44.69,0,0,0-13.61-9.46l-16.81,6.33-17.4-6.7a41.94,41.94,0,0,0-13.66,9.43c-.66.69-1.29,1.4-1.93,2.14l1.1,18.43-11.19,14.77a45.81,45.81,0,0,0,6.22,18.81M209,110.4l18.79,13.95L221,146.64l-23-.15-7.4-22.39Z"/></g><g class="cls-2"><polygon id="polygon67" points="227.76 124.1 208.97 110.15 190.61 123.85 198.01 146.24 220.99 146.39 227.76 124.1"/></g><g class="cls-2"><path id="path69" class="cls-3" d="M179.44,263.76l33.82,39c.67-.59,1.34-1.19,2-1.76L182.8,263.51a23.06,23.06,0,0,1-3.36.25"/></g><g class="cls-2"><path id="path71" class="cls-3" d="M187.69,262.25,218.64,298c.66-.6,1.32-1.2,2-1.8L190.25,261.1c-.88.44-1.72.82-2.56,1.15"/></g><g class="cls-2"><path id="path73" class="cls-3" d="M193.9,258.38l30,34.64,1.9-1.89-30.3-35a14,14,0,0,1-1.58,2.22"/></g><g class="cls-2"><path id="path75" class="cls-3" d="M197.21,247.15a15.07,15.07,0,0,1,.09,1.65,16.86,16.86,0,0,1-.17,2.34L229,287.87c.61-.63,1.24-1.29,1.85-1.95l-33.61-38.77Z"/></g><g class="cls-7"><polygon id="polygon92" class="cls-8" points="79.67 68.24 92.87 50.59 109.82 63.26 96.62 80.91 79.67 68.24"/></g><g class="cls-9"><polygon id="polygon109" class="cls-10" points="94.82 64.99 106.62 49.22 121.13 60.07 109.34 75.84 94.82 64.99"/></g><g class="cls-11"><polygon id="polygon126" class="cls-12" points="107.03 62.63 118.65 47.09 133.07 57.87 121.45 73.41 107.03 62.63"/></g><g class="cls-13"><polygon id="polygon143" class="cls-14" points="124.91 60.2 137.05 43.96 152.52 55.52 140.37 71.76 124.91 60.2"/></g><g class="cls-15"><polygon id="polygon160" class="cls-16" points="138.78 58.7 151.2 42.08 167.19 54.04 154.77 70.66 138.78 58.7"/></g><g class="cls-17"><polygon id="polygon177" class="cls-18" points="153.98 57.6 166.25 41.19 182.01 52.97 169.74 69.38 153.98 57.6"/></g><g class="cls-19"><polygon id="polygon194" class="cls-20" points="169.35 56.98 181.46 40.78 197.04 52.43 184.93 68.62 169.35 56.98"/></g><g class="cls-21"><polygon id="polygon211" class="cls-22" points="183.91 57.06 196.09 40.77 211.83 52.54 199.65 68.83 183.91 57.06"/></g><g class="cls-23"><polygon id="polygon228" class="cls-24" points="199.26 57.61 210.57 42.49 224.63 53.01 213.33 68.13 199.26 57.61"/></g><g class="cls-25"><polygon id="polygon245" class="cls-26" points="211.38 58.72 224.66 40.95 242.02 53.93 228.74 71.7 211.38 58.72"/></g><g class="cls-27"><polygon id="polygon262" class="cls-28" points="228.52 60.46 241.01 43.75 257.06 55.75 244.57 72.46 228.52 60.46"/></g><g class="cls-29"><polygon id="polygon279" class="cls-30" points="243.29 62.4 255.99 45.41 272.15 57.49 259.44 74.48 243.29 62.4"/></g><g class="cls-31"><polygon id="polygon296" class="cls-32" points="257.57 64.48 269.81 48.12 285.25 59.66 273.01 76.03 257.57 64.48"/></g><g class="cls-33"><polygon id="polygon313" class="cls-34" points="270.22 67.94 283.48 50.21 300.24 62.73 286.98 80.47 270.22 67.94"/></g></g></g></svg>