<svg xmlns="http://www.w3.org/2000/svg" viewBox="0 0 207.51 297.6"><defs><style>.cls-1{fill:#fff;}.cls-1,.cls-10,.cls-11,.cls-12,.cls-13,.cls-14,.cls-2,.cls-3,.cls-4,.cls-5,.cls-6,.cls-7,.cls-8,.cls-9{fill-rule:evenodd;}.cls-2{fill:#fcc200;}.cls-3{fill:#1d1d1b;}.cls-4{fill:#e32213;}.cls-5{fill:#eff4f7;}.cls-6{fill:#f5f8fa;}.cls-7{fill:#6d757a;}.cls-8{fill:#666d71;}.cls-9{fill:#5f6567;}.cls-10{fill:#595e60;}.cls-11{fill:#525556;}.cls-12{fill:#3f4040;}.cls-13{fill:#353535;}.cls-14{fill:#292a29;}</style></defs><title>Bradford</title><g id="Слой_2" data-name="Слой 2"><g id="Слой_1-2" data-name="Слой 1"><path class="cls-1" d="M91,105.87c-1.5-1.75,0-3.63,1-4.13-1.76.5-1.58-.59-3,.77-.21-2.4-.07-2.9,2.24-3.28a41,41,0,0,1,8.32-.63,18.38,18.38,0,0,1,3.13.51l-.75-4.26c.38-2.13-.5-10.52-.5-10.52-3.63-.88-7.89-4.39-9.89-7.14s0-1.38-4.14-2.13-8.64-.38-13.53-3-8.89-4.51-9-15.16.37-12.77,1.75-14.15c.12-4.63,2-11.15,2.76-12.4a37.6,37.6,0,0,1,3.88-4.63c-3.26.75-7.39.5-7.14-2.88s1.13-5.64,3-6.89c-2.38-.51-3.84-.8-5.38.25.33-1.84,1.75-3.72,2.92-4.05.17-2,1.34-4.18,3-4.85-1.34-1.84-2.17-5,.16-5.68s1.55-.58,2.8,0a2.92,2.92,0,0,0,2.93.19,2,2,0,0,1,2-.19c.62.25,1.21-.06,2.13-.63,4.63-2.88,4.76,1,4.51,2.88,2.13.5,2.25,2.13,2.13,3.63,2.13,2.13,1,4.89-.88,3.13-.38.76-1,1.63-.25,2.76,1.5,2.25,1.75,9,1.63,12.9s3.06,10.59,5,12.53c2.75,2.75,8.89,3.13,13.65,2.88s8.89-1.63,12-6.51,5-7.65,6.64-10.4,7.59-10.71,11-13c6.13-4.13,19-4.46,27.28,5.91-1,0-.6.48-2.48-.52.37,2.5-1,4.38-3.14,3.63s-4-1.08-3,1.72c-4.26-1.47-6.89-1.84-5.39,1.16,1.33,2.66,1.88,3.76,1.63,6.14,12,7.89,11.52,22.3,1.13,28.81-1.63-1.76-2.94-2.41-3.91.42-1.73-.92-2.55-.85-3.45-.51C145,63,142,67.12,138.91,68.9c-.34-2.49-1.88-3-2.93-3.62a19.83,19.83,0,0,1-4.67,5.14c-1.25,1-2.13,2.21-1.38,3.76-2-1.38-2-1.75-2.38-2.38-2,1-3.85,1.63-4.49,3.13-.9-.12-1.28.66-2.59-.17-1.69,2.18-2.7,2.65-4.14,3.1l-1.55-1c-1.51,2.36-3.26,3.74-6.9,4.24a73.33,73.33,0,0,1,.38,12.27c1.75-1.37,3-2.25,4.38-1.25a37,37,0,0,0-6.26,8.77c-.37.88-1.63.88-2.88.88s-4.76,1.63-8.39,1.12a19.54,19.54,0,0,1-3.38,2.26c-1.26.75-.76.25-.76.75Z"/><path class="cls-2" d="M103.75,276.58c53.09,0,68.94-8.62,73.77-10.34,2.41-2.41-1.72-4.14-5.17-6.21V240.38c0-7.92,21.37-3.79,34.12-11.72,0,0-5.17,8.28-11,12.41,4.48,4.14,11,13.45,12.07,15.52,0,0-13.45-7.24-19-5.52,3.45,1.38,8.27,4.83,8.27,7.58v19c-13.44,12.07-50.32,20-93.07,20s-79.62-7.92-93.07-20v-19c0-2.75,4.83-6.2,8.28-7.58-5.52-1.72-19,5.52-19,5.52,1-2.07,7.58-11.38,12.06-15.52C6.2,236.94,1,228.66,1,228.66c12.76,7.93,34.13,3.8,34.13,11.72V260c-3.45,2.07-7.58,3.8-5.17,6.21,4.82,1.72,20.68,10.34,73.76,10.34Z"/><path class="cls-3" d="M35.16,260c-3.45,2.07-7.58,3.8-5.17,6.21l1.55.69c-7.93-2.76-19-6.55-20.86-8.28,0-2.75,4.83-6.2,8.28-7.58,4.14-2.07,16.2-6.72,16.2-11.72V260Z"/><path class="cls-3" d="M172.35,260c3.45,2.07,7.58,3.8,5.17,6.21l-1.55.69c7.93-2.76,19-6.55,20.85-8.28,0-2.75-4.82-6.2-8.27-7.58-4.14-2.07-16.2-6.72-16.2-11.72V260Z"/><polygon class="cls-3" points="36.67 285.43 34.31 284.75 37.01 275.44 33.59 274.45 34.17 272.45 43.37 275.12 42.79 277.12 39.37 276.13 36.67 285.43 36.67 285.43"/><polygon class="cls-3" points="48.44 282.87 47.42 288.05 45.01 287.58 47.28 276.02 49.7 276.5 48.84 280.88 53.34 281.76 54.2 277.38 56.62 277.86 54.34 289.41 51.93 288.94 52.95 283.76 48.44 282.87 48.44 282.87"/><polygon class="cls-3" points="70 281.83 63.8 281.02 63.48 283.48 69.18 284.22 68.91 286.28 63.22 285.55 62.83 288.57 69.3 289.41 69.03 291.47 60.17 290.32 61.68 278.65 70.27 279.76 70 281.83 70 281.83"/><path class="cls-3" d="M82,292.61l.61-11.76L84.82,283l-.13,2.57,2.88.15c1,0,1.76-.29,1.81-1.22s-.63-1.3-1.74-1.36L84.82,283l-2.25-2.16,5.72.3c2.88.15,3.52,2,3.46,3.2a2.35,2.35,0,0,1-1.56,2.33,2.76,2.76,0,0,1,1.67,2.95A3.43,3.43,0,0,1,90.71,292c-.7.62-1.36,1-3.77.87l-5-.26,2.47-1.91,3,.16c1.2.06,1.91-.43,2-1.62.06-1-.81-1.47-1.69-1.52l-3.13-.16-.16,3.14L82,292.61Z"/><polygon class="cls-3" points="100.24 288.82 103.24 288.84 101.81 284.17 101.78 284.17 100.24 288.82 99.57 290.85 98.73 293.27 96.14 293.25 100.42 281.5 103.25 281.52 107.33 293.33 104.65 293.31 103.91 290.88 99.57 290.85 100.24 288.82 100.24 288.82"/><polygon class="cls-3" points="118.93 281.19 121.22 281.1 121.67 292.86 119.22 292.96 114.09 284.75 114.06 284.75 114.38 293.14 112.09 293.23 111.64 281.47 114.22 281.37 119.21 289.38 119.24 289.38 118.93 281.19 118.93 281.19"/><polygon class="cls-3" points="132.31 292.08 129.86 292.29 129.05 282.63 125.5 282.93 125.33 280.86 134.87 280.05 135.05 282.13 131.5 282.42 132.31 292.08 132.31 292.08"/><polygon class="cls-3" points="143.15 286.42 146.12 286.01 144.05 281.59 144.01 281.6 143.15 286.42 142.78 288.52 142.29 291.04 139.72 291.39 142.29 279.15 145.1 278.77 150.81 289.87 148.16 290.24 147.08 287.93 142.78 288.52 143.15 286.42 143.15 286.42"/><polygon class="cls-3" points="166.86 286.67 164.62 287.14 162.56 277.52 162.53 277.53 162.43 287.61 160.08 288.12 155.92 278.94 155.89 278.95 157.94 288.57 155.7 289.05 153.24 277.54 156.75 276.79 160.77 285.42 160.81 285.41 160.92 275.9 164.4 275.15 166.86 286.67 166.86 286.67"/><path class="cls-3" d="M173.35,281c.22.62.93,1.7,3,1,1.1-.37,2.24-1,1.85-2.22-.29-.87-1.21-.83-2.49-.71l-1.29.11c-1.94.18-3.82.36-4.64-2.1-.41-1.25-.47-3.67,3.16-4.87,3.42-1.14,5.08.8,5.55,2.16l-2.24.75c-.22-.48-.8-1.6-2.84-.92-.89.29-1.84,1-1.5,2s1.06.82,1.57.78l2.94-.24c1.65-.13,3.26,0,3.93,2,1.11,3.36-2.21,4.8-3.19,5.12-4.08,1.36-5.56-.76-6-2.15l2.24-.74Z"/><path class="cls-3" d="M138.22,109.74l38.95,31.37c-9,10.69-16.2,23.79-16.2,41.37a61.2,61.2,0,0,0,17.24,42.74l-13.79,25.51c-13.44,0-40.67,8.61-60.67,29.64-20-21-47.22-29.64-60.66-29.64L29.3,225.22a61.2,61.2,0,0,0,17.23-42.74c0-17.58-7.23-30.68-16.2-41.37l39-31.37Z"/><path class="cls-1" d="M71.33,118.33,41.23,142.9C48.86,153.14,55,167.25,55,182.53s-7,33.05-15.59,43.05l8.62,16.91c12.33,0,39,9.06,55.69,26.35,16.49-17.29,43.35-26.35,55.69-26.35l8.61-16.91c-8.63-10-15.58-27.77-15.58-43.05s6.16-29.39,13.79-39.63l-30.1-24.57Z"/><path class="cls-2" d="M149.23,182.55c0-14.4,5.75-28.9,12.88-39l-26.73-22H72.11l-26.73,22c7.13,10.06,12.88,24.56,12.88,39s-6.84,33.3-14.95,43.17L50,239.35c11.92,0,38.3,9.24,53.8,25.1,15.16-15.86,41.87-25.1,53.79-25.1l6.64-13.63c-8.11-9.87-15-28.77-15-43.17Z"/><path class="cls-4" d="M164.18,225.72c-8.11-9.87-15-28.77-15-43.17s5.75-28.9,12.88-39l-21.3-17.53V242.62c6.62-2.12,12.58-3.27,16.73-3.27l6.64-13.63Z"/><path class="cls-4" d="M91.33,121.6V254.41a74.41,74.41,0,0,1,12.42,10,70.87,70.87,0,0,1,12.3-10.06V121.6Z"/><path class="cls-4" d="M45.38,143.59c7.13,10.06,12.88,24.56,12.88,39s-6.84,33.3-14.95,43.17L50,239.35c4.13,0,10,1.14,16.59,3.25V126.18L45.38,143.59Z"/><path class="cls-1" d="M89.62,174.2c7.58-3.79,14.13-7.24,14.13-19.3,0-17.58-14.47-19.3-22.4-19.3H60.67V138h5.17v77.9H60.67V218H81.35c10.68,0,23.44-6.89,23.44-22.4,0-11.72-7.24-17.93-15.17-21.38ZM87.9,212.12c0,3.27-1.73,3.79-6.55,3.79V176.27c4.82,0,6.55.52,6.55,3.79v32.06Zm0-42.4c0,3.28-1.73,3.79-6.55,3.79V138c4.82,0,6.55.52,6.55,3.79v27.92Z"/><path class="cls-1" d="M125.12,138.7c0-1.38,1-2,2.25-2,7.7,0,13.15,12.61,15,29.71h2.7v-32h-2.59L137.65,140c-3-4-6.52-6.3-10.28-6.3-12.75,0-19.75,19.31-19.75,43.14s7,43.14,19.75,43.14c11.48,0,17.44-15.61,18.67-36.16H143c-1.13,18.77-6,33.09-15.58,33.09a2.3,2.3,0,0,1-2.25-2.5V138.7Z"/><polygon class="cls-3" points="146.5 241.07 146.5 223.1 61.01 223.1 61.01 241.07 146.5 241.07 146.5 241.07"/><path class="cls-5" d="M85.14,225.18H81.83l-4.91,13.76h3l1-2.84H86l.88,2.84H90l-4.85-13.76Zm-3.47,8.55,1.76-5.44h0l1.71,5.44Z"/><polygon class="cls-6" points="103.89 238.94 101.02 238.94 101.02 225.18 110.81 225.18 110.81 227.62 103.89 227.62 103.89 230.72 109.95 230.72 109.95 233.15 103.89 233.15 103.89 238.94 103.89 238.94"/><path class="cls-6" d="M130.69,229.69a2.79,2.79,0,0,0-3-2.38c-1.38,0-3.41.92-3.41,4.81,0,2.47,1,4.69,3.41,4.69a2.93,2.93,0,0,0,3-2.58h2.87c-.57,3-2.52,5.07-6,5.07-3.66,0-6.29-2.47-6.29-7.22s2.78-7.26,6.33-7.26c4.12,0,5.78,2.84,5.93,4.87Z"/><path class="cls-3" d="M68.77,8.23c1-1,3.1-1.38,6-1.38,4.14,0,12.06,3.28,12.06,16.2,0,4.14-1.55,8.79,5.86,17.41-.51,1-3.1-.17-5.34-3.27-.52,2.24-.69,4.48,1.55,6.55-2.24,0-4.65-.18-6-2.42a4.15,4.15,0,0,1-5.34.17c-1,.87-3.79,5-4-.34-.17-3.45-5-2.24-5-6.72,0-6.55,7.24-9,7.24-12.76,0-.86-1.38-1.37-1.38-2.24,0-3.79,3.28-1.38,3.28-6,0-3.79-3.1-4-8.45-4.31-.69,0-1.2-.34-.51-.86Z"/><path class="cls-3" d="M70.32,14.09a2.93,2.93,0,0,0-2.59-1.89c-1.55.34-3.27.86-3.44,3.44,1.63-1.72,3.79.17,6-1.55Z"/><path class="cls-3" d="M73.25,13.46a1.1,1.1,0,1,0-1.1-1.09,1.09,1.09,0,0,0,1.1,1.09Z"/><path class="cls-3" d="M70.66,15.64c-1.55,0-4.13,2.41-4.13,7.07,0,1.89,1.55,3.1,3.27.52,1.38-2.59,4-7.59.86-7.59Z"/><path class="cls-7" d="M66.18,43.56C64.8,46.49,65,52,65,58.38,65,76.48,88.07,73.55,90.83,76c2.24,2.42,4.48,6.9,9.48,7.24-1.9-2.58-5.69-9.65-10.17-10.34-11.55-1.72-22.58-5.51-22.58-14.65,0-2.93-.34-9.48.34-14.3.35-1.9-1.2-1-1.72-.35Z"/><path class="cls-3" d="M95.38,42.6a4.89,4.89,0,0,0-.24-1.45c6.54.86,15,1.72,18.44-1.38,9.82-8.27,14.13-30.5,30.5-30.5a23.38,23.38,0,0,1,18.27,8.44c-3.1,0-10.34-6.2-18.1-6.2-14.47,0-21,26.54-29.64,30.33-3.1,1.55-13.27,3.1-17.58,1.9L95.38,42.6Z"/><path class="cls-2" d="M69.11,2.37c3.79-2.07,3.45.69,6.38-.52,2.24-.86,1.72,1,5-1C82,0,84.62-.73,83.93,4.27c1.9-.17,2.24,1.38,2.24,3.62,1.21,1,1.73,4.82-1.55,1.89C82.73,7.89,81.18,5,70.32,5c-1.38,0-2.93-1.55-1.21-2.59Z"/><path class="cls-2" d="M70,42.18c-.69,4.83-.86,14.14-.34,16.38C72.39,68,82.38,66.48,84.45,69.07c.86,1.38,4.83,2.24,3.62-.52-3.79-7.41-10.51-1.72-13.62-10.17-1.72-4.82.18-7.92.18-10.85s-2.93,0-2.93-4.66c-.52-.51-1.73-1.55-1.73-.69Z"/><path class="cls-2" d="M95,43.59c-.52.41-1.3.32-1.2,1,1,2.58,6,2.24,7.23,7.06.87,2.07,3.62,5.35,5.69,4-1.72-2.76-1.2-6.21,2.76-6.21,1.72,0,5.52,3.8,5.34.87-.17-2.42,4.14.86,4-1.73-.17-3.1,3.44-1.2,3.79-3.62s3.79-4.31,6.21-4.13C125,36.67,116.51,46,106,46c-2.58,0-6.24-.41-8.25-1.69a8.14,8.14,0,0,1-2.78-.7Z"/><path class="cls-2" d="M122.37,38.39C126,31.15,134.26,15,142.19,13.75c1,1.89-.18,3.1-3.62,5.17-4.48,2.93-10,9.65-14.31,18.09,0,0-.86.69-1.89,1.38Z"/><path class="cls-3" d="M129.43,32c3.62-6,12.58-20.16,30.51-13.44-.35,1.73-1,3.28-4.83,1.73-1.2-.52-2.24.86-1.38,2.24-.86.34-6.72-2.93-5.86.17.87,1.89,3.11,5.69,1.21,9.31-4.13-2.93-6.38-2.76-11.72-2.76C135,29.26,132,32,129.43,32Z"/><path class="cls-3" d="M86.17,57.52c.18,4.83,3.62,5.86,6,6.9,3.79,1.89,13.61,6.2,13.61,10,0,1.9.35,6,.35,6.55.68.35,5.68.35,8.61-4.13l1.55,1s3.11-1,4.14-3.1l2.59.17c.34-1.21,3.27-3.28,4.82-3.1a2.28,2.28,0,0,0,1.55,1.55c0-2.76,5.86-5.86,6.55-8.1,1.21.34,4,1.89,2.93,3.62,1.38-.86,6.38-5.17,4.83-10.34,0,0,2.76-1,3.45.51,0,0,.86-1.72,1.37-1.89,0,0,2.42.17,2.24,1.38,2.25-1.38,2.76-4.66,2.76-10,0-4.82-4.31-13.27-19.3-12.75-.34,1,.86,1.89,2.76,2.07s5.86,1.72,7.58,4.65C140,40.12,130,39.6,128.23,43.91c1.2-.17,5.68.34,7.58,3.27,0,0-3.27-.51-4-1a3.73,3.73,0,0,0,1.2,3.27c-1.55-.17-2.93-1.2-5-2.41-.52-.34-1.21,1.21,0,2.24,1.89,1.55,5,5,6,8.27,0,0-.69,2.07-2.07,0-.17-.69-4.48-5.68-6.38-7.06s-3.1.69-1.2,2.24c.86.69,5.17,4.65,5,7.06,0,0-.17,3.11-2.41.18a22.32,22.32,0,0,0-6.72-5.86c-2.59-1.38-2.24.69-.86,2.07,0,0,3.79,4.3,4.48,6.37.52,1-1.21,1.9-2.59.35a51.45,51.45,0,0,0-9-8.28c-2.59-1.55-3.45.18-1.55,2.07,1.72,1.9,5.51,6.55,5.51,7.93,0,1.21-3.27,2.07-5.51,2.07-6.38,0-15.68-4-21.54-8.1a6.07,6.07,0,0,0-3.11-1Z"/><path class="cls-3" d="M153.56,33.05c-1.89,1-1.55,2.41-.34,3.79,1.55,1.9,4.48,7.24,2.58,17.06,4-3.79,4.31-15.16-2.24-20.85Z"/><path class="cls-3" d="M101.68,84.58c0,2.07,1,7.24.69,9.14-.69,1-.51,2.24,1.9,1.55a57.46,57.46,0,0,0-.52-11l-2.07.34Z"/><path class="cls-3" d="M105,84.06s1,11,.52,13.45l-2.24,1.72c-4-.86-8.28,0-12.07,0a2.28,2.28,0,0,0-2.24,3.28s1.9-1.55,3.45-.69c-.69.34-2.76,1.72-1.38,3.79.52-1.21,1.9-.69,3.62-2.76,3.27,0,7.75-1.38,10.17-1.2,1.2,0,2.24-2.25,2.41-3.11,0,0,2.76-4.48,4.48-5.69,1.9-1-.86-.86-1.9-.34l-1.89,1.55a43.77,43.77,0,0,0-.52-10.34s-2.93-1.21-2.41.34Z"/><path class="cls-3" d="M172.35,260c3.45,2.07,7.58,3.8,5.17,6.21l-1.55.69c7.93-2.76,19-6.55,20.85-8.28,0-2.75-4.82-6.2-8.27-7.58-4.14-2.07-16.2-6.72-16.2-11.72V260Z"/><path class="cls-7" d="M90.83,76C88.07,73.55,65,76.48,65,58.38c0-6.37-.17-11.89,1.21-14.82.52-.69,2.07-1.55,1.72.35-.68,4.82-.34,11.37-.34,14.3,0,9.14,11,12.93,22.58,14.65,4.48.69,8.27,7.76,10.17,10.34-5-.34-7.24-4.82-9.48-7.24Z"/><path class="cls-7" d="M90.14,72.86c-11.55-1.72-22.58-5.51-22.58-14.65,0-2.93-.34-9.48.34-14.3.35-1.9-1.2-1-1.72-.35C64.8,46.49,65,52,65,58.38,65,76.48,88.07,73.55,90.83,76c2.24,2.42,4.48,6.9,9.48,7.24-1.9-2.58-5.69-9.65-10.17-10.34Z"/><path class="cls-8" d="M90.83,76C88.07,73.55,65,76.48,65,58.38c0-6.37-.17-11.89,1.21-14.82.52-.69,2.07-1.55,1.72.35-.68,4.82-.34,11.37-.34,14.3,0,9.14,11,12.93,22.58,14.65,4.48.69,8.27,7.76,10.17,10.34-5-.34-7.24-4.82-9.48-7.24Z"/><path class="cls-8" d="M90.14,72.86c-11.55-1.72-22.58-5.51-22.58-14.65,0-2.93-.34-9.48.34-14.3.35-1.9-1.2-1-1.72-.35C64.8,46.49,65,52,65,58.38,65,76.48,88.07,73.55,90.83,76c2.24,2.42,4.48,6.9,9.48,7.24-1.9-2.58-5.69-9.65-10.17-10.34Z"/><path class="cls-9" d="M90.83,76C88.07,73.55,65,76.48,65,58.38c0-6.37-.17-11.89,1.21-14.82.52-.69,2.07-1.55,1.72.35-.68,4.82-.34,11.37-.34,14.3,0,9.14,11,12.93,22.58,14.65,4.48.69,8.27,7.76,10.17,10.34-5-.34-7.24-4.82-9.48-7.24Z"/><path class="cls-9" d="M90.14,72.86c-11.55-1.72-22.58-5.51-22.58-14.65,0-2.93-.34-9.48.34-14.3.35-1.9-1.2-1-1.72-.35C64.8,46.49,65,52,65,58.38,65,76.48,88.07,73.55,90.83,76c2.24,2.42,4.48,6.9,9.48,7.24-1.9-2.58-5.69-9.65-10.17-10.34Z"/><path class="cls-10" d="M90.83,76C88.07,73.55,65,76.48,65,58.38c0-6.37-.17-11.89,1.21-14.82.52-.69,2.07-1.55,1.72.35-.68,4.82-.34,11.37-.34,14.3,0,9.14,11,12.93,22.58,14.65,4.48.69,8.27,7.76,10.17,10.34-5-.34-7.24-4.82-9.48-7.24Z"/><path class="cls-10" d="M90.14,72.86c-11.55-1.72-22.58-5.51-22.58-14.65,0-2.93-.34-9.48.34-14.3.35-1.9-1.2-1-1.72-.35C64.8,46.49,65,52,65,58.38,65,76.48,88.07,73.55,90.83,76c2.24,2.42,4.48,6.9,9.48,7.24-1.9-2.58-5.69-9.65-10.17-10.34Z"/><path class="cls-11" d="M90.14,72.86c4.48.69,8.27,7.76,10.17,10.34-5-.34-7.24-4.82-9.48-7.24C88.07,73.55,65,76.48,65,58.38c0-6.37-.17-11.89,1.21-14.82.52-.69,2.07-1.55,1.72.35-.68,4.82-.34,11.37-.34,14.3,0,9.14,11,12.93,22.58,14.65Z"/><path class="cls-3" d="M67.56,58.21c0-2.93-.34-9.48.34-14.3.35-1.9-1.2-1-1.72-.35C64.8,46.49,65,52,65,58.38,65,76.48,88.07,73.55,90.83,76c2.24,2.42,4.48,6.9,9.48,7.24-1.9-2.58-5.69-9.65-10.17-10.34-11.55-1.72-22.58-5.51-22.58-14.65Z"/><path class="cls-12" d="M67.56,58.21c0-2.93-.34-9.48.34-14.3.35-1.9-1.2-1-1.72-.35C64.8,46.49,65,52,65,58.38c0,12.52,11,15,18.78,16.1.92-.79,1.82-1.52,2.72-2.25-10.11-2-18.91-5.86-18.91-14Z"/><path class="cls-13" d="M67.56,58.21c0-2.93-.34-9.48.34-14.3.35-1.9-1.2-1-1.72-.35C64.8,46.49,65,52,65,58.38c0,7.52,4,11.38,8.86,13.54l2.78-2.59c-5.35-2.34-9-5.83-9-11.12Z"/><path class="cls-14" d="M67.9,43.91c.35-1.9-1.2-1-1.72-.35C64.8,46.49,65,52,65,58.38a14.88,14.88,0,0,0,1.94,7.72l2.4-2.23a9.77,9.77,0,0,1-1.75-5.66c0-2.93-.34-9.48.34-14.3Z"/><path class="cls-3" d="M67.9,43.91c.35-1.9-1.2-1-1.72-.35C65,46,65,50.25,65,55.28l2.51-2.45a64,64,0,0,1,.42-8.92Z"/><path class="cls-10" d="M107.89,94.06a43.77,43.77,0,0,0-.52-10.34l.52,10.34Z"/></g></g></svg>