<svg xmlns="http://www.w3.org/2000/svg" viewBox="0 0 258 299.28"><defs><style>.cls-1{fill:#f5f014;}.cls-2{fill:#e3ee4f;}.cls-3{fill:#97d9f5;}.cls-4{fill:#14141e;}.cls-5{fill:#f3ee14;}.cls-6{fill:#262123;}.cls-7{fill:#fac54a;}.cls-8{fill:#fabd38;}.cls-9{fill:#d4d419;}.cls-10{fill:#630f35;}.cls-11{fill:#231e14;}.cls-12{fill:#a39c1e;}.cls-13{fill:#faba2e;}.cls-14{fill:#35302b;}.cls-15{fill:#231e21;}.cls-16{fill:#aea61c;}.cls-17{fill:#231c11;}.cls-18{fill:#91871e;}.cls-19{fill:#877d1e;}.cls-20{fill:#878221;}.cls-21{fill:#4c4219;}.cls-22{fill:#fac757;}.cls-23{fill:#c7bd17;}.cls-24{fill:#b0a61e;}.cls-25{fill:#d1c70f;}.cls-26{fill:#fad173;}.cls-27{fill:#630f33;}.cls-28{fill:#878a4a;}.cls-29{fill:#a3a62b;}.cls-30{fill:#4cabe3;}.cls-31{fill:#bf7d59;}.cls-32{fill:#f8b319;}.cls-33{fill:#fab828;}.cls-34{fill:#c79c99;}.cls-35{fill:#fabf45;}.cls-36{fill:#facc6b;}.cls-37{fill:#fdd98a;}.cls-38{fill:#fdde9e;}.cls-39{fill:#fde6b3;}.cls-40{fill:#fdf3d7;}.cls-41{fill:#fdfaf8;}.cls-42{fill:#fdf5e1;}.cls-43{fill:#fdebc5;}.cls-44{fill:#fde3ab;}.cls-45{fill:#fdd98f;}.cls-46{fill:#fad175;}.cls-47{fill:#faca5e;}.cls-48{fill:#fabf3f;}.cls-49{fill:#faba30;}.cls-50{fill:#fab826;}.cls-51{fill:#f8b31c;}.cls-52{fill:#595147;}.cls-53{fill:#878a3d;}.cls-54{fill:#8f9438;}.cls-55{fill:#82853a;}.cls-56{fill:#6b733d;}.cls-57{fill:#9c9938;}.cls-58{fill:#3a453d;}.cls-59{fill:#141421;}.cls-60{fill:#333a33;}.cls-61{fill:#475135;}.cls-62{fill:#97d7f5;}.cls-63{fill:#fab523;}.cls-64{fill:#fac247;}.cls-65{fill:#facc63;}.cls-66{fill:#fad47d;}.cls-67{fill:#fddea3;}.cls-68{fill:#fddc97;}.cls-69{fill:#fde3ae;}.cls-70{fill:#fde8ba;}.cls-71{fill:#fdf0d1;}.cls-72{fill:#fdf3d9;}</style></defs><title>Burnley</title><g id="Слой_2" data-name="Слой 2"><g id="Layer_1" data-name="Layer 1"><g id="layer1"><g id="g44962"><path id="path12885-9" class="cls-1" d="M0,0H258V162.28a152,152,0,0,1-15.78,52.32,154.92,154.92,0,0,1-27.34,37.6,184,184,0,0,1-51.78,36.57A143.54,143.54,0,0,1,140,297.56a51.81,51.81,0,0,1-9.25,1.72h-1a177.6,177.6,0,0,1-23.67-7.79A193.57,193.57,0,0,1,51.72,258.2C36,244.41,22.43,227.85,13.18,209A127.28,127.28,0,0,1,0,157.38Z"/><path id="path12887-2" class="cls-2" d="M10.71,10.57l.15.17c.09,48.43,0,96.88.05,145.33-.42-.28-.16-.87-.24-1.27q.08-72.12,0-144.23"/><path id="path12889-3" class="cls-3" d="M10.86,10.74c.83-.08,1.67-.05,2.5-.05H240.08c2.36,0,4.71.07,7.06-.06-.09,50.31,0,100.61-.06,150.92a136,136,0,0,1-20.43,58.12A151.39,151.39,0,0,1,194,255.94a181.06,181.06,0,0,1-38.36,23.76,126.26,126.26,0,0,1-23.52,8.4,5,5,0,0,1-2.65.09A183.84,183.84,0,0,1,71.5,260.27C53.63,247.36,38,231.05,27,211.89,17.26,195,11.3,175.66,10.91,156.06c-.06-48.44,0-96.89-.05-145.32"/><path id="path12891-2" class="cls-2" d="M247.14,10.63a1.26,1.26,0,0,1,.18.89q-.06,74.93,0,149.85l-.21.18c.07-50.31-.05-100.61,0-150.92"/><path id="path12893-3" class="cls-4" d="M123.39,16.87A12.84,12.84,0,0,1,127.25,14l.18.74h-.74a16.57,16.57,0,0,0-2.26,1.62,2.32,2.32,0,0,0-.91,1,10,10,0,0,0-1.35,5.71l.35.3,0,0-.81.4c0-.22,0-.65,0-.86a9.57,9.57,0,0,1,1.58-6.11"/><path id="path12895-7" class="cls-5" d="M124.43,16.41a16.57,16.57,0,0,1,2.26-1.62H127a16.43,16.43,0,0,1,0,2.53l0,.17a4.46,4.46,0,0,1-.74,1.85,2.26,2.26,0,0,0-.28.25l.85.42-.7.46a.87.87,0,0,0-1.14,1.16,5.11,5.11,0,0,1-1,1.1l-1.37.7,0,0-.35-.31a10,10,0,0,1,1.35-5.7.75.75,0,0,0,.91-1"/><path id="path12897-1" class="cls-6" d="M127.16,15c.35.21.54,1.72,0,1.55a4.25,4.25,0,0,1,0-1.55"/><path id="path12899-1" class="cls-7" d="M123.52,17.39a2.32,2.32,0,0,1,.91-1,.75.75,0,0,1-.91,1"/><path id="path12901-1" class="cls-4" d="M127,18.67A18.61,18.61,0,0,1,132.77,17c-.38.7-1.28.82-1.9,1.22-2,1.09-4.38,1.92-5.8,3.84,2.06-.81,4.23-2.22,6.53-1.51A4.87,4.87,0,0,1,134.9,24c.41,2.72-1.27,5.09-1.78,7.68l-.36.22c0-.27.11-.82.15-1.09.53-2,1.62-3.86,1.69-5.95.07-1.91-1.55-3.39-3.21-4-1.95-.55-3.76.58-5.53,1.24,0-.08-.11-.22-.14-.3-.61.3-1.22.57-1.81.88a5.11,5.11,0,0,0,1-1.1c.39-.38.77-.77,1.14-1.16l.7-.46a33.61,33.61,0,0,1,3.9-2c-1.64-.11-2.94,1.16-4.47,1.36a4.36,4.36,0,0,0,.74-1.84l0-.17.42-.22c-.09.54-.22,1.06-.35,1.58"/><path id="path12903-4" class="cls-8" d="M126.15,19.32c1.53-.2,2.83-1.47,4.47-1.36a33.61,33.61,0,0,0-3.9,2l-.85-.42c.07-.06.2-.2.28-.26"/><path id="path12905-5" class="cls-9" d="M124.88,21.62A.87.87,0,0,1,126,20.46c-.37.39-.75.78-1.14,1.16"/><path id="path12907-5" class="cls-5" d="M125.87,22.14c1.76-.66,3.57-1.79,5.52-1.24,1.66.6,3.28,2.08,3.21,4-.07,2.09-1.16,4-1.69,5.94a5.79,5.79,0,0,0-.24,1.17c-.14,1.26-.2,2.53-.23,3.8a11.64,11.64,0,0,1,1.91.57l.15,0H135c2.28.68,4,2.34,5.89,3.74a1,1,0,0,0,1.25,1.13c.07.08.21.25.29.33a.93.93,0,0,0,1.1,1.22c.35.49.7,1,1.06,1.48a.67.67,0,0,0,.89.92,12.35,12.35,0,0,0,1.17,1c-.18.34-.36,1,.06,1.17a9.63,9.63,0,0,0,3.05,1.27l0,.58-.61.6.09.1,0,.09-.52.43a9.65,9.65,0,0,1-1.21-.27,2,2,0,0,0-1.34-.19l-.83-.47-.62-.3,0,.25.05.28.07.45a4.09,4.09,0,0,0-1.15.26,18.39,18.39,0,0,0-4.15,1.79c-2.71-.15-5.12-1.62-7.25-3.18-1.55-.26-3.53.45-4.65-1-1.48-1.89-3-3.89-3.47-6.3a20.26,20.26,0,0,1,.12-2.92l.07-.26a8,8,0,0,0,.23-1.06c.36-2,2.12-3.39,2.92-5.22s2.05-3.86,1.11-5.84a.74.74,0,0,0-1-.89L127,25.2a9.33,9.33,0,0,1-1.17-3.06"/><path id="path12909-1" class="cls-10" d="M125.72,21.84c0,.08.11.22.15.3A9.33,9.33,0,0,0,127,25.2v.42a4.14,4.14,0,0,0-3.91-.6l-.56.16-.67.21a6.34,6.34,0,0,1-1-.46c.81-.3.68-1.28.94-1.95,0,.21,0,.64,0,.86l.81-.4,0,0,0,0c.46-.23.92-.46,1.36-.7.61-.31,1.21-.59,1.82-.88"/><path id="path12911-7" class="cls-11" d="M128.59,21.89a2.43,2.43,0,0,1,1.72-.06l.42.25a1.64,1.64,0,0,1-2,.08Z"/><path id="path12913-3" class="cls-12" d="M130.31,21.83l.61,0a1.26,1.26,0,0,1-2.17.29,1.65,1.65,0,0,0,2-.08Z"/><path id="path12915-3" class="cls-4" d="M122.57,25.18l.56-.16c-.09.26-.19.52-.29.79a13.14,13.14,0,0,1,.94,2.75,5,5,0,0,1-.74,2.57c-.11.29-.6.49-.77.16-.2-.82-.21-1.68-.36-2.52a6.89,6.89,0,0,0-1,2,9.21,9.21,0,0,1-2.48,2.76,17,17,0,0,1,.93-5.25c.35-.86,1.31-1.39,1.43-2.35.19-.08.53-.51.71-.18l-.39.87a2.52,2.52,0,0,0-.85,1c-1.09,1.4-1.12,3.24-1.36,4.92a7,7,0,0,0,2.33-3.68,10.67,10.67,0,0,1,1.07-.67c.16.93.19,1.87.33,2.8a3.76,3.76,0,0,0,0-4.5,4.65,4.65,0,0,1,0-1.29"/><path id="path12917-7" class="cls-4" d="M127,25.2c.16.09.5.27.68.35a2.37,2.37,0,0,0,1,.89c.94,2-.26,4-1.11,5.84s-2.57,3.17-2.92,5.22l-.45.18c.22-2.18,2.07-3.6,3-5.49.68-1.43,1.55-2.92,1.46-4.56,0-1-.92-1.48-1.6-2V25.2"/><path id="path12919-3" class="cls-5" d="M121.46,25.71a7.17,7.17,0,0,1,1-.45,2.08,2.08,0,0,0,.12,1.21,3.75,3.75,0,0,1,0,4.5c-.14-.93-.17-1.87-.33-2.8s-1.28,0-1.07.67a7,7,0,0,1-2.33,3.68c.24-1.68.27-3.53,1.36-4.92.64.22,1-.44.86-1,.12-.29.25-.58.38-.88"/><path id="path12921-9" class="cls-8" d="M127.72,25.55a.74.74,0,0,1,1,.89,2.31,2.31,0,0,1-1-.89"/><path id="path12923-1" class="cls-13" d="M120.22,27.6a2.52,2.52,0,0,1,.85-1c.17.57-.21,1.23-.85,1"/><path id="path12925-0" class="cls-7" d="M121.19,28.84c-.21-.66.79-1.5,1.07-.67a10.67,10.67,0,0,0-1.07.67"/><path id="path12927-4" class="cls-14" d="M132.67,32l.5-.25a32.13,32.13,0,0,0-.22,3.67,6.07,6.07,0,0,0,2,.35c-.14.19-.28.38-.43.56l-.15,0a11.36,11.36,0,0,0-1.91-.57c0-1.27.09-2.54.23-3.8"/><path id="path12929-7" class="cls-4" d="M135,36.34l.43-.37A23.94,23.94,0,0,1,141,39.62a17.78,17.78,0,0,1,3.63,3.92,18.42,18.42,0,0,0,3.86,3.51l-1,.13a7.4,7.4,0,0,0,2.81,1.15c.62.71-.57,1.23-.59,1.91l-.4-.36-.09-.1.61-.6c.4-.24.39-.44,0-.58a9.63,9.63,0,0,1-3.05-1.27c.53-.31.64-1-.06-1.17a12.47,12.47,0,0,1-1.17-1,5.24,5.24,0,0,0-.89-.93c-.37-.49-.71-1-1.06-1.48a4,4,0,0,0-1.1-1.22,4.28,4.28,0,0,1-.29-.33,4.1,4.1,0,0,0-1.25-1.13C139,38.68,137.27,37,135,36.34"/><path id="path12931-0" class="cls-15" d="M124.38,38.82c-.53,0-.33-1.06.05-1.14,0,.22,0,.67,0,.88Z"/><path id="path12933-9" class="cls-16" d="M129.37,37.73c.41,0,.85-.1.9.43l-.74-.26c0,.64.05,1.29.07,1.93a3.29,3.29,0,0,1-.23-2.1"/><path id="path12935-5" class="cls-17" d="M129.53,37.89l.74.27c0,.26-.06.8-.09,1.07a2.14,2.14,0,0,0,.26,1.42l0,.42a1.06,1.06,0,0,0,.29.82c.39.7.78,1.41,1.23,2.07a3.5,3.5,0,0,0,1.65,1.62A10.33,10.33,0,0,0,136,46.92l.55-.66,1,.67c.29.4.73.06.61-.35l.34-.35.83.94q.33.51.63,0l.39-.45.69.36a6,6,0,0,0-.79.8c-.7.63-1.62,0-2.42,0a7.71,7.71,0,0,1-6.06-3.29,1.46,1.46,0,0,0-.8-1,4,4,0,0,1-1-2.45,1.63,1.63,0,0,0-.26-1.1l-.09-.25c0-.64,0-1.29-.07-1.94"/><path id="path12937-5" class="cls-4" d="M123.92,39l.4-.19a9.86,9.86,0,0,0-.06,2.92c.46,2.41,2,4.41,3.47,6.3,1.12,1.43,3.1.72,4.65,1-1.15,0-2.31.06-3.44.16-1.32-.09-2-1.49-2.7-2.43-1.68-2.17-2.94-5-2.32-7.74"/><path id="path12939-8" class="cls-18" d="M130.18,39.23c.55,0,.55,1.05.26,1.41a2,2,0,0,1-.26-1.41"/><path id="path12941-7" class="cls-19" d="M129.69,40.08a1.63,1.63,0,0,1,.26,1.1c-.53.14-.59-.85-.26-1.1"/><path id="path12943-8" class="cls-8" d="M140.88,40.08a4.1,4.1,0,0,1,1.25,1.13,1,1,0,0,1-1.25-1.13"/><path id="path12945-8" class="cls-19" d="M130.46,41.07c.51.06.61.34.29.82a1.09,1.09,0,0,1-.29-.82"/><path id="path12947-1" class="cls-13" d="M142.42,41.54a4,4,0,0,1,1.1,1.22.93.93,0,0,1-1.1-1.22"/><path id="path12949-3" class="cls-20" d="M130.94,43.63a1.46,1.46,0,0,1,.8,1c-.48.22-1.08-.55-.8-1"/><path id="path12951-9" class="cls-21" d="M132,44a10.53,10.53,0,0,1,1.65,1.62A3.5,3.5,0,0,1,132,44"/><path id="path12953-5" class="cls-13" d="M144.58,44.24a5.54,5.54,0,0,1,.89.92.67.67,0,0,1-.89-.92"/><path id="path12955-7" class="cls-22" d="M146.64,46.16c.7.15.59.86.06,1.17-.42-.22-.24-.83-.06-1.17"/><path id="path12957-7" class="cls-23" d="M137.87,46.51l.26.07c.12.41-.32.75-.61.35.09-.1.27-.31.35-.42"/><path id="path12959-9" class="cls-24" d="M139.3,47.17l.63,0q-.3.54-.63,0"/><path id="path12961-1" class="cls-25" d="M141,47.05l.14.05c.27.52-.48,1.09-.93.75a6.64,6.64,0,0,1,.79-.8"/><path id="path12963-9" class="cls-26" d="M149.75,48.6c.43.14.44.33,0,.58l0-.58"/><path id="path12965-2" class="cls-27" d="M128.94,49.18c1.14-.1,2.29-.12,3.44-.16,2.14,1.56,4.54,3,7.25,3.18l.82-.05c.43,1.42.55,2.92,1,4.33-.8.92-1.95,1.47-2.7,2.45a21.52,21.52,0,0,0-2.1,3A14.11,14.11,0,0,0,138,64.19q3.09-.94,6.13-2a9.78,9.78,0,0,0,2.77,2.92,3.72,3.72,0,0,0,4.38-1.07c.84,1.09,1.44,2.45,2.55,3.28,2.76.08,5.5,0,8.26,0a5.34,5.34,0,0,1,.6,10.64c-3,0-6,.08-9.06-.06,0-.55,0-1.1,0-1.65l-.15-.08c-4.12-1.72-6.61-6-11-7.25-2.52-.84-5.16-.3-7.71,0-.43.09-1.05.24-1.06.8s.43,1,.84,1.41c1.52,1.32,3.73,2,4.58,4,1.67.64,2.71,2.26,4.43,2.78-4.49.15-9,0-13.49.06a14.17,14.17,0,0,0-.07-1.6,24,24,0,0,0-9.69-8.33c-2.35-.36-5.28-.8-7.13,1.06.23,1.43,1.48,2.21,2.58,3,.78.51,1.17,1.43,1.94,2,1.45,1.08,2.53,2.71,4.29,3.36a5.64,5.64,0,0,0,2.35.22q-.39-.53-.75-1c.63-.28,1.33-.74,2-.41,1.25.44,2.3,1.36,3.61,1.67-2.83.35-5.7.07-8.55.17-3.11-.1-6.23,0-9.34,0-4.64,0-9.28,0-13.92,0a5.32,5.32,0,0,1,.26-10.55c3.23-.15,6.47.06,9.7-.11a19.56,19.56,0,0,0,.86-3.47,49.3,49.3,0,0,0,4.6,3c1.43-1.27,2.79-2.62,4.24-3.88,1.91,1,3.81,2.05,5.74,3,.43-.24.85-.47,1.28-.69.33-1.34.5-2.72.71-4.09a35.32,35.32,0,0,0,3.65,3.69c1-1.11,1.8-2.4,2.76-3.55a24.44,24.44,0,0,0,.35,2.69c.72-.6,1.68-1.06,2-2,.82-2.09,2-4.2,1.75-6.53a9.43,9.43,0,0,1-1.83,2,7,7,0,0,1-4.22-1.06A42.51,42.51,0,0,1,125,53.77c.26-1.58-.9-2.71-2-3.62,1.57.07,2.6,1.39,4,2a10.55,10.55,0,0,0,4.31.91,14.65,14.65,0,0,0-2.31-3.86"/><path id="path12967-6" class="cls-28" d="M144.77,49.17l.62.3-.58,0Z"/><path id="path12969-9" class="cls-4" d="M144.81,49.42l.58,0,.83.47c.33.37,1,.85,1.34.19a9.65,9.65,0,0,0,1.21.27c.12.08.38.22.5.29a4.44,4.44,0,0,1-3.4-.52l-.62.48c-.15-.32-.28-.64-.39-.95Z"/><path id="path12971-4" class="cls-4" d="M117.74,50.28a10.92,10.92,0,0,1,5.24-.13c1.09.92,2.26,2,2,3.62a5.74,5.74,0,0,1-3.47,4,7.54,7.54,0,0,1-7,.09,3.16,3.16,0,0,1-1.37-3.6c.66-2.07,2.63-3.35,4.59-4"/><path id="path12973-3" class="cls-29" d="M146.22,49.94a2,2,0,0,1,1.34.19c-.3.67-1,.17-1.34-.19"/><path id="path12975-5" class="cls-1" d="M115.07,52.2a7.88,7.88,0,0,1,8.06-1.35l.07.27a1.41,1.41,0,0,0,1.08,1.15c.5.25.31,1,.33,1.43a5.41,5.41,0,0,1-3,3.59,7.48,7.48,0,0,1-6.16.6,2.92,2.92,0,0,1-2-2.65,4.47,4.47,0,0,1,1.67-3"/><path id="path12977-7" class="cls-4" d="M139.63,52.2a18,18,0,0,1,4.15-1.79l1.11-.18a.74.74,0,0,1-.56.51,10.37,10.37,0,0,0-3.61,1.4h-.27l-.82.05"/><path id="path12979-7" class="cls-8" d="M123.2,51.12c.52-.13,1.22.63,1.08,1.15a1.41,1.41,0,0,1-1.08-1.15"/><path id="path12981-2" class="cls-30" d="M113.21,69.16c1.85-1.86,4.78-1.43,7.13-1.07A24,24,0,0,1,130,76.43l0,1.43-.72,0c-1.31-.31-2.36-1.23-3.61-1.67-.72-.33-1.42.13-2,.41q.36.52.75,1a5.8,5.8,0,0,1-2.35-.21c-1.76-.66-2.84-2.29-4.29-3.37-.77-.54-1.16-1.45-2-2-1.09-.76-2.33-1.54-2.57-3"/><path id="path12983-1" class="cls-30" d="M134.8,69c2.55-.3,5.19-.84,7.71,0,4.36,1.26,6.86,5.53,11,7.25v1.6c-3.78-.56-6.58-3.37-10-4.81a2.4,2.4,0,0,0-1.07,1.32C143,76,145.69,76.06,145.8,78c-.67,0-1.35,0-2,0l-.19,0c-1.72-.52-2.76-2.14-4.43-2.78-.85-2-3.06-2.65-4.58-4-.41-.38-1-.78-.85-1.41s.64-.71,1.07-.8"/><path id="path12985-9" class="cls-30" d="M99,70.18c.77-1.22,2.41-1.11,3.63-.77,1.57.41,2.38,1.9,3.41,3,.61.73,1.64.94,2.2,1.74.75,1,2.36,1.33,2.62,2.65-.21,1-1.42.83-2.18.7-1.56-.27-2.55-1.56-3.58-2.63a2.77,2.77,0,0,0-3.35-.38c-.41.1-.73.71-.35,1a12.37,12.37,0,0,0,2,1c0,.2,0,.61,0,.81a2.84,2.84,0,0,1-2.7-.17,18.3,18.3,0,0,0-2.45-1.85A5,5,0,0,1,99,70.18"/><path id="path12987-6" class="cls-30" d="M159.65,69.39a2.69,2.69,0,0,1,2.6,3.32,1.76,1.76,0,0,1-1.93-.56c-.56-.79-1.42-1.8-.67-2.76"/><path id="path12989-2" class="cls-10" d="M142.41,74.37a2.38,2.38,0,0,1,1.08-1.32c3.41,1.44,6.21,4.25,10,4.82V76.26l.15.08c0,.55,0,1.09,0,1.65-2.62,0-5.24.15-7.86,0-.11-2-2.77-2-3.39-3.63"/><path id="path12991-3" class="cls-31" d="M130,76.43a14.17,14.17,0,0,1,.07,1.6c4.5,0,9,.09,13.49-.06l.19,0,.15.23c-2.37,0-4.75-.08-7.12,0-3.11,0-6.21.05-9.3,0a63.82,63.82,0,0,1-6.78-.18c2.85-.09,5.72.19,8.55-.17l.72,0c0-.48,0-1,0-1.43"/><path id="path12993-6" class="cls-32" d="M68.06,78c9.8-.14,19.6.16,29.41,0,4.64.05,9.28,0,13.92,0l-.15,1.69-1,.3.6.27A14.39,14.39,0,0,0,111,82c-13.07,0-26.16,0-39.23,0,.07,11.51-.27,23,0,34.53.15,5.76,0,11.53.07,17.29,0,8.5.09,17,.06,25.5.13,4.65-.08,9.37.88,14h3.17v.26H72.73a46.49,46.49,0,0,0,3.67,11.58,58.32,58.32,0,0,0,14.42,18.68c-.13.58-.25,1.16-.33,1.75.13,0,.4.09.52.12-.43.44-.91.94-.69,1.61a2.28,2.28,0,0,1,1.09.56,3.8,3.8,0,0,1-2.26-.15c-7.86-6.62-14.39-15-18-24.72a51.53,51.53,0,0,1-3.22-17c-.34-19.94-.08-39.86-.09-59.79C68,101,67.78,95.7,68,90.43c0-4.15,0-8.31.06-12.47"/><path id="path12995-6" class="cls-33" d="M111.39,78c3.11,0,6.23,0,9.34,0a63.82,63.82,0,0,0,6.78.18,13.15,13.15,0,0,1,.1,2.59l-.9.3c.31.28.61.56.92.86q-8.32,0-16.63,0a12.61,12.61,0,0,1-.14-1.73l-.6-.27,1-.3.15-1.69"/><path id="path12997-3" class="cls-34" d="M143.78,78c.68,0,1.35,0,2,0,2.62.14,5.24,0,7.86,0,3,.14,6,0,9.06.05l-.14.16a13.23,13.23,0,0,1-2,0c-.59,0-1.19,0-1.79,0l-1.34,0c-.88,0-1.77,0-2.66,0a29.13,29.13,0,0,1-3.1,0c-.76,0-1.52,0-2.28,0s-1.65,0-2.47,0-1.6,0-2.39,0l-.63,0Z"/><path id="path12999-0" class="cls-35" d="M127.51,78.23c3.09,0,6.19,0,9.3,0,.1,1.31-.54,2.5-.62,3.79-2.86,0-5.72,0-8.56,0-.31-.3-.61-.58-.92-.86.3-.1.6-.21.9-.3a13.15,13.15,0,0,0-.1-2.59"/><path id="path13001-3" class="cls-36" d="M136.81,78.21c2.37,0,4.75,0,7.12,0l.63,0a9.79,9.79,0,0,1-.07,1.08c.11.93-.65,1.73-.44,2.69-2.63,0-5.25,0-7.86,0,.08-1.29.72-2.48.62-3.79"/><path id="path13003-7" class="cls-37" d="M144.56,78.25c.8,0,1.59,0,2.39,0a10.5,10.5,0,0,1-.63,3.8h-2.27c-.21-1,.55-1.76.44-2.69a9.79,9.79,0,0,0,.07-1.08"/><path id="path13005-6" class="cls-38" d="M147,78.23c.82,0,1.64,0,2.47,0a38.79,38.79,0,0,1-.78,3.83c-.77,0-1.55,0-2.32,0a10.5,10.5,0,0,0,.63-3.8"/><path id="path13007-3" class="cls-39" d="M149.42,78.2c.76,0,1.52,0,2.28,0-.71,1.18-.27,2.71-1.11,3.82l-2,0a38.79,38.79,0,0,0,.78-3.83"/><path id="path13009-5" class="cls-40" d="M151.7,78.23a29.13,29.13,0,0,0,3.1,0c0,1.29-.4,2.54-.45,3.83h-3.76c.83-1.11.4-2.64,1.11-3.82"/><path id="path13011-4" class="cls-41" d="M154.8,78.22c.89,0,1.78,0,2.66,0-.24,1.27-.5,2.55-.67,3.85h-2.44c.05-1.29.44-2.55.45-3.83"/><path id="path13013-3" class="cls-42" d="M157.46,78.2l1.34,0a18.31,18.31,0,0,1-.6,3.82h-1.41c.17-1.3.43-2.57.67-3.85"/><path id="path13015-5" class="cls-43" d="M158.8,78.22l1.79,0c-.23,1.25-.43,2.53-.62,3.79H158.2a18.42,18.42,0,0,0,.6-3.82"/><path id="path13017-4" class="cls-44" d="M160.59,78.25a13.23,13.23,0,0,0,2,0A13.84,13.84,0,0,1,162,82H160c.19-1.26.39-2.53.62-3.79"/><path id="path13019-9" class="cls-45" d="M162.58,78.2a22.91,22.91,0,0,1,2.34,0c.33,1.31-.28,2.57-.2,3.87H162a14.17,14.17,0,0,0,.54-3.83"/><path id="path13021-3" class="cls-46" d="M164.92,78.15c1.11,0,2.21,0,3.31,0a20.43,20.43,0,0,0-.8,3.85h-2.71c-.08-1.3.53-2.56.2-3.87"/><path id="path13023-6" class="cls-47" d="M168.23,78.15c.93,0,1.85,0,2.77,0a11.41,11.41,0,0,1-.43,3.85c-1,0-2.1,0-3.14,0a20.53,20.53,0,0,1,.8-3.86"/><path id="path13025-3" class="cls-7" d="M171,78.15h3.46c-.24,1.27-.28,2.58-.49,3.85h-3.4a11.41,11.41,0,0,0,.43-3.85"/><path id="path13027-0" class="cls-48" d="M174.46,78.15c1,0,2.09,0,3.13,0a26.93,26.93,0,0,1-1,3.83H174c.21-1.27.25-2.58.49-3.85"/><path id="path13029-9" class="cls-49" d="M177.59,78.16h3.27l.59.73c-.26.33-.51.67-.76,1,.1.7.19,1.4.28,2.1-1.46,0-2.91,0-4.37,0a26.59,26.59,0,0,0,1-3.83"/><path id="path13031-8" class="cls-50" d="M180.87,78.16c2.23,0,4.45,0,6.69,0,.05.73.1,1.45.16,2.19l-.81,0c0,.84.76,1.28,1.42,1.63-2.46.1-4.91,0-7.36,0-.09-.7-.18-1.4-.28-2.1.25-.33.5-.67.76-1-.2-.24-.39-.49-.58-.73"/><path id="path13033-9" class="cls-51" d="M187.56,78.16c1.95,0,3.91,0,5.86,0-.11,5.72-.07,11.44-.07,17.17-.18,4.24,0,8.49-.09,12.74-.17,3.93,0,7.87-.13,11.8,0,9-.2,18-.24,27-.18,7.29-.19,14.59-.57,21.88A52.15,52.15,0,0,1,180.18,199a72.22,72.22,0,0,1-11.13,10.84H169c-.51-.09-1-.18-1.55-.25-.29-1.07.32-2.4-.39-3.31,6.9-5.43,13.05-12,17-19.92a42.5,42.5,0,0,0,3.9-11.12,47,47,0,0,0,.93-9.75q0-14.74,0-29.47c-.16-6.47,0-13-.08-19.41,0-11.45,0-22.9,0-34.35l0-.19-.43-.08c-.67-.35-1.4-.79-1.42-1.63l.81,0c-.06-.74-.11-1.46-.16-2.19"/><path id="path13035-8" class="cls-52" d="M71.76,82C84.83,82,97.92,82,111,82q8.33,0,16.64,0c2.84.07,5.7,0,8.56,0,2.61,0,5.23,0,7.86,0h2.27c.77,0,1.55,0,2.32,0l2,0h16.84c1,0,2.09,0,3.14,0h6c1.46,0,2.91,0,4.37,0,2.45,0,4.9.05,7.36,0l.43.08,0,.19c-15.48,0-30.94-.14-46.41-.06-23.48.07-46.95,0-70.42,0,0,9.33-.12,18.65-.08,28-.05,2.13.1,4.27-.11,6.39-.27-11.51.07-23,0-34.53"/><path id="path13037-5" class="cls-4" d="M72,82.19c23.47,0,46.94,0,70.42,0,15.47-.08,30.93,0,46.41.06,0,11.45,0,22.9,0,34.35q-58.51,0-117,0c.21-2.12.06-4.26.11-6.39,0-9.33.1-18.65.08-28"/><path id="path13039-0" class="cls-1" d="M88.91,86.56c-.11-.54.84-.54,1-.13.68,1.11,1.32,2.26,1.93,3.41.7-1.28,1.31-2.93,2.86-3.38,1.7-.35,2.83,1.35,3.41,2.7.22.33.18,1,.7,1,.73-1.08,1.2-2.34,2-3.35.37-.5,1.2.06,1,.62-.81,1.67-1.87,3.21-2.7,4.87,0,.16.06.48.09.64a33.83,33.83,0,0,1,8.19-1.07c1.13,0,2.42,0,3.31.77a1.38,1.38,0,0,1-.36,1.7,14.2,14.2,0,0,1-4.47,3c1.51,1,3.37,1.8,4.21,3.52.29.82-.47,1.43-1.17,1.61-3.08.84-6.26,0-9.37-.14,0,.44-.1.92.13,1.32.94,1.67,1.93,3.32,2.84,5a.68.68,0,0,1-1,.77c-1-1.18-1.37-2.74-2.42-3.82a10.65,10.65,0,0,1-2.31,5.19,2.22,2.22,0,0,1-3.19.12c-1.37-1.23-1.7-3.11-2.44-4.71-.67,1.22-1.32,2.45-2.06,3.61-.48.54-1.46-.16-1-.78.84-1.67,1.9-3.23,2.74-4.91a6.93,6.93,0,0,0-.18-1.51,49.69,49.69,0,0,1-6.31.91,8,8,0,0,1-4.24-.61,1.07,1.07,0,0,1-.07-1.62c1.35-1.73,3.43-2.58,5.26-3.67-1.8-1-3.83-1.87-5-3.65-.67-1,.41-1.8,1.28-2,3.16-.69,6.41-.07,9.56.44,0-.18.11-.56.15-.76-.66-1.61-1.86-3-2.43-4.63,0-.12,0-.37,0-.5"/><path id="path13041-2" class="cls-1" d="M130.24,86.19a1,1,0,0,1,1.2.91,7.1,7.1,0,0,1,.14,2c-.41,2,.19,4-.18,6-.13.7-1,.68-1.5.64a3.19,3.19,0,0,1-.24-1.58c.23-1-.24-2-.16-3,0-1.63-.46-3.54.74-4.89"/><path id="path13043-7" class="cls-1" d="M159.69,87.08c-.37-.61.6-1.27,1.05-.75.76,1.14,1.34,2.4,2.1,3.53a5.8,5.8,0,0,1,2.3-3.22,2.1,2.1,0,0,1,2.45.4,7.73,7.73,0,0,1,1.91,3.36c.82-1.11,1.36-2.39,2.12-3.54.35-.53,1.37-.09,1.13.56-.48,1.11-1.18,2.11-1.75,3.17-.37.73-1,1.39-1,2.26,2.51-.34,5-1,7.55-1,1.32,0,2.83-.19,4,.66.71.63,0,1.55-.47,2.07a16.77,16.77,0,0,1-4.17,2.73c1.4,1.08,3.27,1.78,4.08,3.47.47,1-.76,1.69-1.61,1.83a27.45,27.45,0,0,1-8.76-.4c-.05.26-.14.78-.19,1,1,2,2.25,3.77,3.15,5.76-.29.35-.82.84-1.21.31-.84-1.25-1.51-2.6-2.26-3.9-.48,1.93-1,4-2.48,5.46a2.14,2.14,0,0,1-3,.1c-1.39-1.22-1.93-3.08-2.4-4.8-.84,1.1-1.36,2.39-2.12,3.53-.39.79-1.56-.06-1.09-.7.88-1.66,1.85-3.26,2.76-4.88-.05-.51-.1-1-.14-1.49a36.5,36.5,0,0,1-8.7.86,3.14,3.14,0,0,1-2.24-.92c-.27-.89.43-1.59,1-2.13a21.58,21.58,0,0,1,4.49-2.78c-1.78-1-3.81-1.89-5-3.65a1.22,1.22,0,0,1,.78-1.83,11.32,11.32,0,0,1,4.91-.39,26.83,26.83,0,0,1,5,.71c.07-.22.22-.64.3-.85-.86-1.52-1.77-3-2.59-4.57"/><path id="path13045-2" class="cls-53" d="M88.67,86.55h.24c0,.13,0,.38,0,.5h-.23l-.13-.26Z"/><path id="path13047-3" class="cls-5" d="M126.87,90.14a3.13,3.13,0,0,1,1.2-2.92l.27.21.31.56a66.31,66.31,0,0,1,.16,7.05c.19.85-.81.92-1.4,1-.94-1.86-.47-4-.54-5.94"/><path id="path13049-2" class="cls-54" d="M128.34,87.43l.28,0,.15.29-.12.26-.31-.57"/><path id="path13051-7" class="cls-5" d="M132.35,88.88c0-.63.39-1.53,1.16-1.47.5.23.43.8.45,1.25.07,1.82-.1,3.62,0,5.44a4.48,4.48,0,0,1-.35,1.61c-.39,0-1,.11-1.08-.42a38.09,38.09,0,0,1-.14-6.41"/><path id="path13053-0" class="cls-4" d="M94.86,88.18c.76-.34,1.44.28,1.88.84a4.66,4.66,0,0,1,.86,2.35c-1.67,0-3.36,0-5,0,.4-1.24.87-2.77,2.3-3.16"/><path id="path13055-6" class="cls-4" d="M163.48,91.36c.35-1.46,1.12-3.28,2.88-3.27,1.42.33,1.95,2,2.14,3.27-1.68,0-3.34,0-5,0"/><path id="path13057-5" class="cls-1" d="M125.46,89.27l.48.25c.65,2.26.26,4.65,0,6.94a2.64,2.64,0,0,0-1.17.61c.37.45.84,1.06,1.52.93a13.52,13.52,0,0,1,3.34-.41c1.48-.15,3.36-.85,4.6.29a5.21,5.21,0,0,1-.74.67,16.05,16.05,0,0,0-4.27,1.44c-.08,1.46-.39,3,.22,4.38.74.18.45-.75.44-1.15a4.91,4.91,0,0,1,.35-2.38c1.39-1.21,3.4-1.08,4.94-1.93.24-1.56-.7-3.46.62-4.8.93.32.75,1.85,2,1.69a50.67,50.67,0,0,0-.24,7.39c-.52,1.59-1.59,3.3-3.35,3.63a1.6,1.6,0,0,0-1.2.89l.88.43a3.68,3.68,0,0,1-.33,3.14,12.44,12.44,0,0,0-2.7.48,10.43,10.43,0,0,0-4-.32,14.15,14.15,0,0,0-.27-3.56,9.05,9.05,0,0,0-1.71-1.39,33.15,33.15,0,0,1-.68-7.22c0-2.64.49-5.26.6-7.89a4.7,4.7,0,0,1,.75-2.11"/><path id="path13059-0" class="cls-4" d="M91.4,102.43c1.42-.26,2.77-.74,4.18-1,1.16.08,2.26.48,3.4.67,0,.34,0,.69-.07,1-1.29.23-2.59.5-3.9.6s-2.37-.26-3.55-.33c0-.31,0-.62-.06-.93"/><path id="path13061-4" class="cls-4" d="M162.22,102.46c1.48-.31,2.92-.81,4.41-1.09,1.11.17,2.18.51,3.28.68,0,.34,0,.67-.08,1-1.73.3-3.5.84-5.27.5-.71-.1-1.42-.14-2.14-.18-.07-.31-.13-.62-.2-.93"/><path id="path13063-4" class="cls-4" d="M162.66,104.79a18.3,18.3,0,0,0,3.11.49c1.26-.11,2.49-.35,3.73-.56-.23.94-.23,2.1-.85,2.86a15,15,0,0,1-5.31-.1,10.84,10.84,0,0,1-.68-2.69"/><path id="path13065-9" class="cls-4" d="M91.7,104.79a13.31,13.31,0,0,0,6.92,0,14,14,0,0,1-.75,2.84,21.16,21.16,0,0,1-5.45-.06c-.27-.91-.52-1.82-.72-2.75"/><path id="path13067-1" class="cls-55" d="M93.11,109.05c-.74-.34.81-.77.57-.09l-.57.09"/><path id="path13069-3" class="cls-56" d="M164,109.22c-.71-.38.7-1,.69-.28l-.69.28"/><path id="path13071-3" class="cls-57" d="M167.64,108.74l.51,0,0,.22a4.79,4.79,0,0,0-.51.07Z"/><path id="path13073-0" class="cls-4" d="M93.11,109.05l.57-.09c.19,0,.55.08.73.12a1.55,1.55,0,0,0,1.77,0l1.19-.3q-.28.57-.6,1.11c-.86.69-2,.36-3,.31-.23-.39-.46-.77-.7-1.15"/><path id="path13075-5" class="cls-58" d="M94.41,109.08a2.07,2.07,0,0,1,1.77,0,1.57,1.57,0,0,1-1.77,0"/><path id="path13077-0" class="cls-59" d="M164,109.22l.69-.28.42.13a1.53,1.53,0,0,0,1.77,0l.75-.1.51-.08c-.07.17-.22.49-.29.65a2.52,2.52,0,0,1-3.6,0Z"/><path id="path13079-2" class="cls-58" d="M165.14,109.07a2.14,2.14,0,0,1,1.77,0,1.52,1.52,0,0,1-1.77,0"/><path id="path13081-3" class="cls-60" d="M164.28,109.51a2.51,2.51,0,0,0,3.59,0c-.22.32-.45.63-.69.94-1,0-2.48.29-2.9-1"/><path id="path13083-0" class="cls-61" d="M93.81,110.2c1,0,2.1.38,3-.31l-.55.6c-.79-.1-1.75.24-2.41-.29"/><path id="path13085-2" class="cls-1" d="M71.76,116.56q58.51,0,117,0c0,6.46-.07,12.94.08,19.41q0,14.75,0,29.47a47,47,0,0,1-.93,9.75h-3.39c0-3,0-6.08,0-9.11h-8.49c0-2.54,0-5.07,0-7.6h-7.95v-8.8h-7.28c0-2.63,0-5.27,0-7.9H153c0-2.28,0-4.56,0-6.84h-8.33c0-2.94-.12-5.87-.07-8.8-2.91,0-5.81,0-8.71,0-1.68-2.26-3.4-4.48-5.11-6.71-1.51,2.18-2.86,4.49-4.36,6.68-3.1.16-6.23,0-9.34.07,0,2.74,0,5.49,0,8.24l-.1.09c-3.24.07-6.49,0-9.72,0v7.88H98.77V150H90.46c0,2.84,0,5.67,0,8.51H82c0,2.43,0,4.87,0,7.29H76c0,2.5,0,5,0,7.51H72.77c-1-4.58-.75-9.3-.88-14,0-8.51-.11-17-.06-25.5,0-5.76.08-11.53-.07-17.29"/><path id="path13087-7" class="cls-27" d="M126.4,126.09c1.5-2.18,2.85-4.49,4.36-6.67,1.71,2.23,3.43,4.45,5.11,6.71,2.9.08,5.8,0,8.71,0-.05,2.93.08,5.86.07,8.8H153c0,2.28,0,4.56,0,6.84h7.83q0,3.94,0,7.9h7.28v8.81H176c0,2.52,0,5.05,0,7.59h8.49c0,3,0,6.08,0,9.11h3.39a42.5,42.5,0,0,1-3.9,11.12c-2.22,0-4.44,0-6.65,0v-9.64c-3.45,0-6.9,0-10.34,0,0-2.86,0-5.73,0-8.6h-8.2V160h-8.31c0-2.73,0-5.46,0-8.2-2.67,0-5.32,0-8,0,0-2.78,0-5.56,0-8.34-2.54,0-5.07,0-7.6,0,0-2.73,0-5.47,0-8.2-3.09.06-6.18,0-9.28,0,0,2.62,0,5.24,0,7.86-2.84.06-5.68,0-8.52,0,0,2.84,0,5.67,0,8.5-2.89,0-5.78,0-8.68,0,0,2.73,0,5.45,0,8.18-2.8.06-5.58,0-8.38,0,0,2.84,0,5.67,0,8.51-3,0-5.94,0-8.91,0,0,2.82-.05,5.65,0,8.47-2.64.08-5.28,0-7.92,0,0,2.77,0,5.54,0,8.3-2.29.06-4.59,0-6.89,0a46.63,46.63,0,0,1-3.67-11.58h3.21v-.26c0-2.51,0-5,0-7.51h6c0-2.43,0-4.86,0-7.29h8.49c0-2.83,0-5.66,0-8.5h8.31v-7.58h8.44v-7.89c3.23,0,6.48,0,9.72,0l.11-.1c.07-2.74,0-5.49,0-8.24,3.11,0,6.24.1,9.34-.07"/><path id="path13089-3" class="cls-4" d="M170.43,130.66c2-3.14,3.72-6.4,5.78-9.47,2,3.44,4.12,6.85,6.21,10.26-2.07,4-4.1,7.91-6.15,11.87-2.11-3.77-4.1-7.6-6.17-11.4-.33-.45.14-.87.33-1.26"/><path id="path13091-8" class="cls-4" d="M80.3,132.13c2.15-3.41,4.09-6.95,6.3-10.33q3.06,5.16,6.19,10.25c-2,4-4,7.95-6.15,11.87q-3.21-5.86-6.34-11.79"/><path id="path13093-6" class="cls-1" d="M125.66,135.26c3.1,0,6.19,0,9.28,0,.05,2.74,0,5.47,0,8.2,2.54.06,5.07,0,7.61,0,0,2.79,0,5.57,0,8.34,2.67,0,5.32,0,8,0V160h8.32c0,2.69,0,5.38,0,8.07h8.19c0,2.87,0,5.74,0,8.6,3.45.05,6.89,0,10.34,0,0,3.22,0,6.43,0,9.65,2.22,0,4.45,0,6.66,0-4,7.9-10.11,14.49-17,19.92-2.2,1.71-4.49,3.3-6.82,4.83-2.55,1.62-5.18,3.14-7.85,4.57s-5.22,2.54-7.87,3.73c-2,.9-4,1.64-6,2.4l-1.63.61-2.42.81-2.55.81a3.69,3.69,0,0,1-2.84.14l-1.87-.59c-.93-.3-1.86-.61-2.77-.93s-1.53-.55-2.3-.82c-1.82-.72-3.66-1.4-5.45-2.19l-2.85-1.27-3-1.43q-2.1-1.05-4.16-2.16c-1.36-.8-2.75-1.56-4.08-2.4a87.18,87.18,0,0,1-11.73-8.51A58.43,58.43,0,0,1,76.4,185.15c2.31,0,4.6,0,6.89,0,0-2.76,0-5.52,0-8.29,2.64,0,5.28,0,7.92,0-.06-2.82,0-5.65,0-8.47,3,0,5.94,0,8.91,0,0-2.84,0-5.67,0-8.5,2.8,0,5.58,0,8.38,0,0-2.73,0-5.45,0-8.18,2.9,0,5.79,0,8.69,0,0-2.84,0-5.67,0-8.51,2.83,0,5.68,0,8.52,0-.06-2.63,0-5.25,0-7.86"/><path id="path13095-5" class="cls-32" d="M35.63,155.17A6.91,6.91,0,0,1,41.87,154a14.47,14.47,0,0,1,7.2,6.37c1.57,2.76.77,6,.31,9a32.06,32.06,0,0,0-.19,8.19c3.42.69,7.1.89,10.06,2.94,2.36,1.52,5.11,3.59,5.08,6.7a48.84,48.84,0,0,1-1.22,11.3l.1.19a65.55,65.55,0,0,1,15,8.66c4.41,3.6,8.83,7.18,13.42,10.54,8.19,6,16.73,11.69,26.13,15.64,5.1,2.08,10.64,3.7,16.2,2.93s10.67-2.92,15.67-5.21a124.28,124.28,0,0,0,18.42-10.7c4.63-3.2,8.78-7,13.24-10.44a119.61,119.61,0,0,1,15.32-10.54A48.15,48.15,0,0,1,195.37,187c.39-2.87,3-4.7,5.27-6.14,2.93-1.95,6.53-2.08,9.86-2.82,0-2.59.38-5.23-.18-7.8-.43-3-1.37-6.36.18-9.22a14.72,14.72,0,0,1,6.92-6.4,6.65,6.65,0,0,1,6.07.69,14.88,14.88,0,0,1,5.8,6.7c.92,2.65.62,5.53.42,8.28.94,4.75,1.63,9.73.53,14.53a49,49,0,0,1-3.55,9.67,1.71,1.71,0,0,0,0,1.57,16.9,16.9,0,0,1,.77,10,33.9,33.9,0,0,1-3.54,10.25,6,6,0,0,1-2.46,2.65,23.46,23.46,0,0,1-5.1,1.11c-4.13.6-8.3,1.6-11.8,3.95a220.6,220.6,0,0,0-24,17.76,91.4,91.4,0,0,1-9.18,7.6,66.89,66.89,0,0,1-29.94,11,75.4,75.4,0,0,1-18.2.27c-11-1.32-21.6-5.45-31.25-10.9A129.29,129.29,0,0,1,75.79,239c-3.48-2.8-6.94-5.65-10.66-8.13a120.66,120.66,0,0,0-15.52-9.1,44.47,44.47,0,0,0-8.88-3.29c-1.8-.49-3.75-.81-5.2-2.07a10.85,10.85,0,0,1-2.59-4.78c-1.35-4.61-2.38-9.45-1.94-14.27a47,47,0,0,1,1.33-4.63,42.07,42.07,0,0,1-3.27-10.13,37.91,37.91,0,0,1,.86-12.6c-.11-2.73-.51-5.58.37-8.24a14.68,14.68,0,0,1,5.34-6.55"/><path id="path13097-5" class="cls-4" d="M38.5,155.93c2-.73,4,.42,5.51,1.62a11.61,11.61,0,0,1,3.78,5,13.47,13.47,0,0,1-.09,4.82c-3.27.09-7.09.36-9.38,3a15.91,15.91,0,0,0-2.53,3.08A30,30,0,0,1,32,170.18c-.26-2.72-.7-5.61.35-8.22a12.34,12.34,0,0,1,6.14-6"/><path id="path13099-1" class="cls-4" d="M214.87,158.7c1.37-1.21,3-2.44,4.88-2.5,2.06.06,3.77,1.45,5.16,2.84,1.44,1.62,2.85,3.51,3,5.76a28.77,28.77,0,0,1-.26,6c-1.23,1.05-2.42,2.16-3.75,3.1a18.65,18.65,0,0,0-3.79-4.24c-2.39-1.55-5.35-1.78-8.11-1.88a13.77,13.77,0,0,1-.17-4.48,10.07,10.07,0,0,1,3.09-4.61"/><path id="path13101-3" class="cls-4" d="M139.35,157.54a2.92,2.92,0,0,1,1.9.25c-.49,1.29.19,2.52.88,3.57a2.72,2.72,0,0,1,.09,3,17.66,17.66,0,0,0-1.27,3.55c-.43,1.15-.07,2.37-.09,3.56l-1.22-.33c-.52.81.13,1.77.23,2.64l-1.2.16a4.1,4.1,0,0,1,0,2.33c-1.53.06-1.84-1.66-2.68-2.58-.92.66-1.57,1.79-2.8,1.92,0-.78.13-1.65-.5-2.24-1,.46-2,1.4-3.23,1.27.24-.79.52-1.55.77-2.32-.89-1.36-2.22.82-3.24-.16a6.8,6.8,0,0,1,2.12-3.08,13,13,0,0,1,4.2-1.38c1.08-.27,2.28-1.12,2.12-2.37-.51-.37-.7.37-.92.67a1.83,1.83,0,0,1-2.21,1,6.36,6.36,0,0,1-1.19-.61c.61-.22,1.38-.25,1.76-.84s.15-1.12.06-1.67-.12-1.18-.55-1.6c-1,.19-2,.71-3,.49s-.71-1.31-.75-2a7.63,7.63,0,0,1,2.23-1.11c1-.13,1.53,1,2.48,1.18a21.29,21.29,0,0,1,2.36-1.25c-.34-.25-.63-.85-1.12-.72a4.08,4.08,0,0,1-2.26.24,1.34,1.34,0,0,1,1.6-1,11.2,11.2,0,0,0,5.49-.64"/><path id="path13103-2" class="cls-4" d="M116.81,160c-.15-1.18,1.29-1.41,2.16-1.35a3.6,3.6,0,0,1,3,1.94c.58,1.67,0,3.43-.48,5-.44,2.07.58,4.07,1.48,5.87.44.75-.08,1.58-.46,2.24a14.84,14.84,0,0,0-1.07,2.65c.87.79,2.12.32,3.17.39,0,.45,0,.9.09,1.35a5.62,5.62,0,0,0,2.1-.38.69.69,0,0,1,1,.69,5.61,5.61,0,0,0,.88,2.33c.92-.32,1.27-1.71,2.34-1.59,1.05.79,1.49,2.29,2.88,2.67a18.3,18.3,0,0,1,.67-2.18,11.43,11.43,0,0,1,1.4.7,6,6,0,0,1-.32,2.66,16.46,16.46,0,0,0-.08,6c.51,2.08,2.08,3.61,3.39,5.21,1,1.14,1.21,2.79,2.45,3.72,1.55.05,3.36-.26,4.27-1.67a4.94,4.94,0,0,0-.41-4.69c-.95-1.1-2.58-.28-3.78-.82-.81-.31-2.07-.65-2.13-1.68,1.06.1,2.3.74,3.26,0-1.36-1.29-3.65-2-3.91-4.07a4.76,4.76,0,0,0,3.57,1c-.93-1.53-2.72-2.73-2.63-4.73a3.3,3.3,0,0,0,1.8.84,28.33,28.33,0,0,0,.49-4.29,21.44,21.44,0,0,0,1-3.09c.89-1.56,1.27-3.44,2.55-4.76a7.88,7.88,0,0,1,2.8-2,12.77,12.77,0,0,1,2.61-.4c1.88.78,2.05,3,2.35,4.76.1,4.14-2.25,7.75-3.39,11.6-.78-.51-.52-1.55-.7-2.35-.32-.44-.88-.15-1.31-.15-.26-2.1,1.55-3.5,2.2-5.27a2.49,2.49,0,0,0-2.06.67l-.39-.29c.57-1.34,1.86-2.11,2.92-3a2.53,2.53,0,0,0,.37-3.58c-.6-.42-1.36-1-2.11-.6-2.88,1.08-4.53,4.07-5.16,6.94a13.33,13.33,0,0,0-.28,7.86c.87,3.56,4.11,6.24,4.12,10.07-.17,2.16-1.08,4.54-3.12,5.58-.91.68-2.2.16-3.1.85a6.18,6.18,0,0,0-.66,4.47c.67.72,1.89.45,2.52,1.19a11.06,11.06,0,0,1,.19,3.39c-.59.48-1.22-.35-1.86-.39-.62,1.43.28,2.88.62,4.26-.57,0-1.22-.17-1.75.12-.37,1.24.3,2.52.52,3.74-.7.39-1.4-.37-2.07-.12-.62.87.13,2-.15,2.94-.92.5-2.14-.55-3,.31a4.56,4.56,0,0,1-4.58,1.25c-.19-1.18,1.23-1.41,1.55-2.29-1.07-.26-1.74.63-2.64.94-.55-.08-1.41-.34-1.23-1.06a2.07,2.07,0,0,1,1.75-1.39c.48-.16,1.17.08,1.52-.34-.48-.12-1-.21-1.44-.37a5.14,5.14,0,0,1-2.76.27c-.14-1.27,1.27-1.73,2.19-2.17,1.48-.31,2.79.71,4.19,1,1.21.27,1.9-1,2.73-1.59.12-2.4.89-5-.26-7.23-1.39-2.45-4.68-3.09-5.87-5.71-.72-1.76.23-3.53.82-5.17.58-1.44-.3-2.85-.9-4.12-.28-.43-.62-1.26-1.25-1,0,.24.07.74.09,1-1.4-1.25-3.13-2.22-4-3.91-.2-.41-.56-.85-.25-1.31.53-.47,1.34-.49,1.85-1a7,7,0,0,0,.85-2.75l-.5-.48a9.68,9.68,0,0,1-.82,2.54,6.93,6.93,0,0,1-2.78,1.24c-.49.47-.6,1.21-1,1.77-.74.69-1.57-.5-2.42-.36-.13.62.19,1.4-.28,1.92-1.19.24-1.44-1.35-2.43-1.67-.54.42-.54,1.16-.91,1.69-.94.27-1.35-1-2.22-1.17-1,.46-2.07,1.08-3.16.59.15-.8.61-1.52.74-2.32-.8.26-1.46,1.25-2.36,1-.23-1.08.92-1.8,1-2.84-1.17-.39-1,1.51-2.1,1.44-.81,0-.34-.95-.33-1.42a4.1,4.1,0,0,1,4.13-1.72c1.23.39,2.36,1.29,3.72,1.18a4.35,4.35,0,0,0,2.31-1.13c1.49-1.38,3.09-2.62,4.69-3.85a2.13,2.13,0,0,0,.81-.9c-.79,0-1.55.24-2.35.21a14,14,0,0,1-4.07-1.13c-.08-1,1.27-1,1.45-1.82-.3-1-1.53-.69-2.18-1.19.23-.83,1.63-1.52.88-2.42a2.92,2.92,0,0,1-1.75-.65,6.77,6.77,0,0,0,1.49-1.84,6.68,6.68,0,0,0,.32-2.71c-1.27-1.5-4-2.17-3.87-4.51a6.29,6.29,0,0,1,3,.61c-.24-.92-1.54-1-1.75-1.82.43-1.16,2.09-.84,3.07-.83-.31-.55-1-.68-1.5-1"/><path id="path13105-2" class="cls-4" d="M41.6,170.3a17.1,17.1,0,0,1,5.55-1,50.37,50.37,0,0,0,0,8c-2.48-.44-5-.89-7.39-1.57a9.47,9.47,0,0,1-2.31-1.06,7.54,7.54,0,0,1,1.37-1.9,9.44,9.44,0,0,1,2.76-2.4"/><path id="path13107-5" class="cls-4" d="M212.49,169.82a15.11,15.11,0,0,1,5.12.8,7.87,7.87,0,0,1,3,2.4,8.43,8.43,0,0,1,1.52,2.08c-2.91,1.71-6.39,1.85-9.6,2.67-.14-2.65.24-5.31-.08-8"/><path id="path13109-6" class="cls-4" d="M123.46,173.8c.54-1,1.29-2.08,2.47-2.26,0,.82-1,1.81,0,2.41a5.53,5.53,0,0,1,2.71-.53,9,9,0,0,0-.94,2c1.32.68,2.7,0,4-.31a14.54,14.54,0,0,0,0,1.62,5.4,5.4,0,0,0,3.51-1.12.94.94,0,0,1,1.29.25c.49.57,1.33.92,1.36,1.78-.55,0-1.18-.2-1.62.25,0,.49,0,1,0,1.49a8.47,8.47,0,0,0-2.35-1.17c-.48.68-.31,1.82-1.22,2.14-.75-.65-.75-1.8-1.57-2.41-.88.39-1.44,1.28-2.38,1.58-.39-1-.1-2.06-.67-2.95-.68.17-1.38.76-2.08.4-.28-.59.08-1.24,0-1.85-1.08-.15-2,.7-3.1.78-.24-.75.25-1.44.55-2.08"/><path id="path13111-2" class="cls-4" d="M31.08,182.45a29.34,29.34,0,0,1,.44-9.93,34.81,34.81,0,0,0,5.89,4.34,23.16,23.16,0,0,0,5.43,1.57c3.72.78,7.48,1.37,11.2,2.12A14.41,14.41,0,0,1,60,183.49a6.28,6.28,0,0,1,2.26,2.87,13.28,13.28,0,0,1,.1,2.75,48.46,48.46,0,0,1-1.1,8.82A110.17,110.17,0,0,0,34,191.52a38.78,38.78,0,0,1-2.94-9.07"/><path id="path13113-0" class="cls-4" d="M219.71,178.25c3.33-.74,5.9-3.16,8.46-5.26a29.74,29.74,0,0,1,.27,10.68,46,46,0,0,1-3.56,10,57.06,57.06,0,0,0-18.76,1.78,40.94,40.94,0,0,0-7.64,3.14,42.23,42.23,0,0,1-1.08-7.33,22.15,22.15,0,0,1,0-4.46,7,7,0,0,1,2.58-3.07,14.55,14.55,0,0,1,5.32-2.62c4.78-1,9.63-1.64,14.37-2.84"/><path id="path13115-9" class="cls-4" d="M32.84,199.72c-.12-2.14.71-4.15,1.34-6.16a106.83,106.83,0,0,1,19.23,3.83,77.26,77.26,0,0,1,18.94,8.31c3.89,2.38,7.24,5.51,10.83,8.29,8.95,7,18.23,13.76,28.39,18.95,5.4,2.68,11.1,5,17.14,5.67,4.83.48,9.61-.75,14.14-2.32a108.27,108.27,0,0,0,19.35-9.45,110.24,110.24,0,0,0,14-10c5-4.07,10-8.11,15.31-11.72,4.47-3,9.12-5.86,14.25-7.55a54.49,54.49,0,0,1,18.46-2,13.85,13.85,0,0,1,1.67,7.11,35,35,0,0,1-3,11.36c-.73,1.44-1.55,3.26-3.38,3.46-5.19.92-10.66,1.46-15.23,4.34a221,221,0,0,0-23.36,17c-3,2.41-5.69,5.24-8.82,7.52a61.61,61.61,0,0,1-23.61,10.79,82.93,82.93,0,0,1-19.8,2c-11.85-.41-23.31-4.38-33.68-10a119.83,119.83,0,0,1-15.17-9.72c-4-2.94-7.72-6.28-11.81-9.1A124.54,124.54,0,0,0,50.71,220a46.05,46.05,0,0,0-9.77-3.61c-1.47-.42-3.14-.64-4.25-1.78a10.37,10.37,0,0,1-2-4.15,44.05,44.05,0,0,1-1.87-10.76"/><path id="path13117-6" class="cls-4" d="M122.56,193.87c2.15-.42,4.33.17,6.48.11.41.75.17,1.65.5,2.43.21.41.74.29,1.13.35a23.87,23.87,0,0,0-1.32,4.69c-1.27.12-2.41-.63-3.66-.6-.76,0-1.73.82-1.23,1.64a8.26,8.26,0,0,1,1.1,4.49,9.63,9.63,0,0,0-2.36-.89c-.56,1.17.68,2.34.19,3.51s-1.46-.92-2.3-.26a4.85,4.85,0,0,0-.18,1.78c-.41.54-1.1,0-1.62-.09a4.42,4.42,0,0,1-4.59,1.84c-.15-1.09.76-1.75,1.33-2.52-1.18-.25-1.9,1.21-3.13.93-.28-1.26,1-1.82,1.65-2.56-.9-.29-1.62.44-2.43.68-.2-1.07,1-1.45,1.72-1.78,1-.51,2,.51,3,.28a4.52,4.52,0,0,0,3-2.12c1-2.61.47-5.44.5-8.14a6.26,6.26,0,0,1,2.15-3.77"/><path id="path13119-9" class="cls-62" d="M44.51,211.92c1.27-3.12,2.5-6.25,3.73-9.38,1.53.55,3,1.21,4.56,1.79A4.67,4.67,0,0,1,55.33,206a2.36,2.36,0,0,1-1.65,3.56,2.82,2.82,0,0,1-.39,4.29,3.88,3.88,0,0,1-3.78.11c-1.66-.7-3.37-1.27-5-2"/><path id="path13121-4" class="cls-62" d="M207.67,203.13c1.06-.33,2.48-.35,3.21.64a2.38,2.38,0,0,1,0,3,2.87,2.87,0,0,1,2.31,4,4,4,0,0,1-2.55,2.07c-1.72.58-3.38,1.28-5.12,1.78-1.09-3.2-2.34-6.35-3.37-9.57,1.85-.57,3.65-1.3,5.49-1.92"/><path id="path13123-7" class="cls-33" d="M90.82,203.83a86.46,86.46,0,0,0,11.72,8.51c-.62.32-.51,1.14-.67,1.74-.65-.1-1.25,0-1.37.7-.35.18-.7.34-1,.52a81.71,81.71,0,0,1-10.32-7.58,3.88,3.88,0,0,0,2.26.15,2.2,2.2,0,0,0-1.09-.56c-.22-.67.27-1.17.69-1.61l-.51-.13a17.69,17.69,0,0,1,.32-1.74"/><path id="path13125-7" class="cls-4" d="M206,206.34a8.43,8.43,0,0,1,2.3-.67c.36.2.67.75.36,1.12a6.31,6.31,0,0,1-2.21.91c-.15-.46-.31-.92-.45-1.36"/><path id="path13127-6" class="cls-4" d="M49.75,207.35c.18-.46.36-.93.53-1.39a6.59,6.59,0,0,1,2.2,1.1c.19.47-.19.86-.53,1.13-.74-.28-1.48-.54-2.2-.84"/><path id="path13129-7" class="cls-62" d="M197.29,207.67c.92-.53,1.82-1.08,2.74-1.61,1.12,1.91,2.3,3.79,3.39,5.72a3.53,3.53,0,0,1-.12,3.95,7.53,7.53,0,0,1-4.18,2.53,3.6,3.6,0,0,1-3.67-1.86c-1.15-1.85-2.23-3.76-3.37-5.62.92-.52,1.81-1.08,2.74-1.6,1.14,1.89,2.21,3.83,3.44,5.66a1.45,1.45,0,0,0,2.41-.29c.39-.6-.07-1.24-.33-1.79-1-1.7-2-3.4-3.05-5.09"/><path id="path13131-0" class="cls-62" d="M57.74,206.3c.95.43,1.89.88,2.83,1.33-.86,2.05-2,4-2.74,6.09-.59,1.44,1.85,2.53,2.54,1.14,1.09-1.93,1.87-4,2.89-6,.94.51,1.93.85,2.84,1.41-.91,1.84-1.74,3.7-2.61,5.56a4.26,4.26,0,0,1-2.06,2.26,5.06,5.06,0,0,1-4.24-.56,4.33,4.33,0,0,1-2.58-2.91,5.49,5.49,0,0,1,.75-3.25c.8-1.68,1.56-3.38,2.38-5.06"/><path id="path13133-2" class="cls-63" d="M160.21,211.06c2.33-1.53,4.62-3.12,6.82-4.83.72.91.1,2.23.39,3.31.52.07,1,.16,1.55.25a72.81,72.81,0,0,1-8.25,5.8l-1.6-.49c.21-.12.43-.22.65-.33-.08-1,.44-1.91.09-2.84l1.13-.33-.78-.54"/><path id="path13135-5" class="cls-4" d="M207.1,209.61a9.73,9.73,0,0,1,2.33-.8c.83-.1,1.21,1.25.47,1.63a13,13,0,0,1-2.18.81c-.19-.55-.4-1.09-.62-1.64"/><path id="path13137-3" class="cls-4" d="M49,209.15a13.41,13.41,0,0,1,2.24.94c.65.46.18,1.54-.53,1.6-.8-.19-1.54-.54-2.32-.79.18-.59.38-1.18.61-1.75"/><path id="path13139-8" class="cls-62" d="M67.45,210.88l5,2.88a3.63,3.63,0,0,1,1.84,2.05,3,3,0,0,1-2.7,3.74c.83,1.73-.56,3.29-1,4.91-.91-.54-1.83-1.06-2.74-1.62.31-1.1,1.25-2.12.94-3.31a6.51,6.51,0,0,0-2-1.31c-.56,1-1.16,2-1.71,3.05-.94-.52-1.84-1.07-2.77-1.59l5.08-8.8"/><path id="path13141-3" class="cls-13" d="M152.36,215.63q4-2.15,7.85-4.57l.78.54-1.13.33c.35.93-.17,1.88-.09,2.84l-.65.32,1.6.5a79.26,79.26,0,0,1-8.47,4.66,11.92,11.92,0,0,0,.06-2,4.93,4.93,0,0,1,.47-.8,1.85,1.85,0,0,1,0-1.31l-.44-.53"/><path id="path13143-5" class="cls-8" d="M101.87,214.08c.16-.6,0-1.42.67-1.74,1.33.84,2.72,1.6,4.08,2.4l-.67.31c.25.14.53.26.79.4a4.21,4.21,0,0,0-.16,1.9,9.5,9.5,0,0,1-.75,1.66c-2.15-1.2-4.29-2.39-6.36-3.71.33-.18.68-.34,1-.52.12-.73.72-.8,1.37-.7"/><path id="path13145-0" class="cls-4" d="M69,214.61c.84.5,1.86.86,2.31,1.79-.24.39-.42.87-.89,1A7.42,7.42,0,0,1,68,216.29c.3-.56.62-1.13.95-1.68"/><path id="path13147-2" class="cls-62" d="M184.93,216.31c.83-.63,1.66-1.24,2.45-1.9,1.62,1.92,3.07,4,4.59,6,1.2-.88,2.37-1.8,3.56-2.69.56.67,1.08,1.38,1.61,2.09-2,1.55-4,3.1-6.08,4.63-2-2.72-4.1-5.39-6.13-8.1"/><path id="path13149-1" class="cls-64" d="M106,215.05l.67-.31c1.37.74,2.77,1.46,4.16,2.16-.29.16-.57.33-.86.51,0,.24,0,.48,0,.72l.57-.38-.41,1c.13.44.51.94.17,1.38a9,9,0,0,1-1,.64c-1.17-.59-2.33-1.17-3.48-1.78a9.5,9.5,0,0,0,.75-1.66,4.21,4.21,0,0,1,.16-1.9c-.26-.14-.54-.26-.79-.4"/><path id="path13151-8" class="cls-64" d="M144.49,219.36c2.65-1.19,5.32-2.35,7.87-3.73l.44.53a1.85,1.85,0,0,0,0,1.31,4.93,4.93,0,0,0-.47.8,11.92,11.92,0,0,1-.06,2v.09c-2.26,1.13-4.55,2.15-6.85,3.14l-.82-.17c.42-1.17.23-2.45.64-3.62l-.73-.33"/><path id="path13153-8" class="cls-62" d="M70.78,224.52c2.18-2.62,4.24-5.35,6.5-7.9.76.76,1.68,1.33,2.43,2.11-.39,2-.82,3.92-1.08,5.9,1.08-1.4,2.21-2.76,3.33-4.14l2.34,1.9c-2.2,2.61-4.24,5.34-6.49,7.89-.73-.71-1.56-1.29-2.32-2,.35-2,.81-4,1-6.09-1.1,1.42-2.25,2.8-3.38,4.19-.76-.65-1.55-1.27-2.33-1.89"/><path id="path13155-1" class="cls-22" d="M109.92,217.41c.29-.18.57-.35.86-.51l3,1.43c-.41,1.35-.28,2.86-1,4.08-1.16-.53-2.29-1.08-3.42-1.62a9,9,0,0,0,1-.64c.33-.45,0-.94-.17-1.37l.41-1-.57.38,0-.72"/><path id="path13157-5" class="cls-65" d="M112.73,222.41c.77-1.22.64-2.73,1-4.08l2.84,1.27a32.58,32.58,0,0,1-.77,4.15c-1-.43-2.09-.87-3.12-1.34"/><path id="path13159-5" class="cls-3" d="M179,221.49c1-2,3.25-3.6,5.52-3.06a3.61,3.61,0,0,1,2.16,1.49c-.81.53-1.55,1.19-2.33,1.78a3.12,3.12,0,0,0-1.29-.54,1.77,1.77,0,0,0-1.51,2.21,4.71,4.71,0,0,0,2.18,2.68,1.69,1.69,0,0,0,2.33-.86c.28-.58-.1-1.15-.27-1.7.82-.61,1.61-1.27,2.41-1.91a4.23,4.23,0,0,1,.65,4,5.19,5.19,0,0,1-6.56,3.11c-2.68-1.09-4.58-4.44-3.29-7.21"/><path id="path13161-9" class="cls-26" d="M138.46,221.76c2-.76,4.06-1.5,6-2.4l.73.33c-.41,1.17-.22,2.45-.64,3.62l.82.17a51.51,51.51,0,0,1-7.27,2.67,23.44,23.44,0,0,0,.59-3.89l-.26-.5"/><path id="path13163-3" class="cls-66" d="M116.62,219.6c1.8.79,3.64,1.47,5.46,2.19l-.88.07.33.58a5.74,5.74,0,0,0-.34,2.95c-.06.07-.2.2-.27.27a34,34,0,0,1-5.07-1.91,32.26,32.26,0,0,0,.77-4.15"/><path id="path13165-4" class="cls-67" d="M121.2,221.86l.88-.07c.77.27,1.52.56,2.3.82-.16,1.4-.64,2.76-.66,4.16-1-.36-1.93-.68-2.91-1l.11-.1c.07-.07.21-.2.27-.27a5.74,5.74,0,0,1,.34-2.95l-.33-.58"/><path id="path13167-5" class="cls-68" d="M136.83,222.37l1.63-.61.26.5a23.44,23.44,0,0,1-.59,3.89l0,.17c-.6.2-1.19.39-1.8.57-.09-1.54.47-3,.54-4.53"/><path id="path13169-5" class="cls-69" d="M134.41,223.18l2.42-.81c-.07,1.51-.63,3-.54,4.52a15,15,0,0,1-1.86.61l-.44-.2a32.55,32.55,0,0,0,1-3.47l-.56-.65"/><path id="path13171-2" class="cls-70" d="M123.72,226.78c0-1.41.5-2.77.66-4.17.91.32,1.84.63,2.76.93-.6,1.26-.57,2.69-1.07,4l-2.35-.74"/><path id="path13173-7" class="cls-62" d="M84.45,223.78c.23-.19.34-.63.68-.62.83.57,1.58,1.23,2.4,1.83-1.51,2-3.06,4-4.59,5.95,1.14.94,2.37,1.78,3.51,2.75-.54.7-1.07,1.41-1.63,2.09-2-1.57-4-3.13-6-4.64,1.83-2.49,3.79-4.88,5.64-7.36"/><path id="path13175-0" class="cls-71" d="M131.86,224l2.55-.81c.14.17.42.5.56.65a32.55,32.55,0,0,1-1,3.47l.44.2c-1.17.42-2.39.65-3.55,1.07a19.79,19.79,0,0,0,1-4.58"/><path id="path13177-2" class="cls-72" d="M126.07,227.52c.5-1.29.47-2.72,1.07-4l1.88.59a25.39,25.39,0,0,0-.66,4.07c-.77-.22-1.53-.43-2.29-.68"/><path id="path13179-7" class="cls-41" d="M129,224.13a3.69,3.69,0,0,0,2.84-.14,19.18,19.18,0,0,1-1,4.58,5.19,5.19,0,0,1-2.52-.37,26.56,26.56,0,0,1,.66-4.07"/><path id="path13181-1" class="cls-62" d="M85.63,236.36c1.89-2.81,3.77-5.63,5.7-8.42,3.1,2,6,4.31,9.31,6.06-.09,1.34-.18,2.68-.32,4,1.1-.75,2.18-1.52,3.24-2.34,1,.47,1.94,1,2.9,1.56.05.38-.42.44-.65.64-1.81,1.12-3.67,2.18-5.44,3.36-.66,1.05-1.19,2.18-1.82,3.25-.92-.55-1.88-1-2.76-1.6.62-1.06,1.25-2.12,1.79-3.23.1-2,0-4,0-6a10.61,10.61,0,0,0-.83,1.13c-1.46-1-2.9-1.93-4.34-2.93l-.67,1c1.3.89,2.63,1.76,3.93,2.68-.46.67-.92,1.34-1.37,2-1.32-.88-2.64-1.77-3.94-2.66l-.68,1c1.47,1,3,2,4.48,3.05-.52.72-1,1.48-1.53,2.19-2.32-1.64-4.7-3.17-7-4.8"/><path id="path13183-2" class="cls-62" d="M167.46,230c.8-.7,1.67-1.3,2.52-1.93,1.5,2,3,4,4.52,6,1.2-.87,2.36-1.8,3.57-2.64.52.7,1.05,1.39,1.56,2.1q-3,2.29-6.07,4.58c-2.05-2.69-4-5.43-6.1-8.09"/><path id="path13185-4" class="cls-62" d="M160.84,234.39c.91-.55,1.77-1.18,2.67-1.72,1.32,2.11,2.78,4.13,4.11,6.23,1.26-.8,2.49-1.65,3.77-2.43a22.77,22.77,0,0,0,1.43,2.14c-2.06,1.51-4.25,2.84-6.38,4.25-1.85-2.84-3.74-5.64-5.6-8.47"/><path id="path13187-1" class="cls-62" d="M155.33,237.39c.93-.46,1.81-1,2.76-1.39,2.62,2.45,5.3,4.82,7.94,7.23-.93.55-1.92,1-2.84,1.56-.39-.34-.77-.71-1.14-1.09-.9.51-1.84,1-2.73,1.49,0,.48.29,1,.14,1.52-.86.5-1.79.91-2.64,1.42-.59-3.56-1-7.16-1.49-10.74"/><path id="path13189-8" class="cls-62" d="M109.39,238.56c2.52.71,5,1.76,7.45,2.55-.29.82-.6,1.64-.86,2.46-1.54-.39-3-1.07-4.5-1.5-.09.28-.25.85-.34,1.13,1.26.44,2.52.87,3.77,1.35-.27.77-.54,1.54-.83,2.3-1.26-.44-2.52-.91-3.8-1.32-.4,1.19-.85,2.38-1.27,3.58-1-.31-2-.69-3-1,1.08-3.19,2.3-6.32,3.35-9.52"/><path id="path13191-6" class="cls-3" d="M149,240.12c1-.34,2.14-.88,3.22-.48a2.31,2.31,0,0,1,1.07,3.73c2.17,0,3.31,2.72,2.18,4.4a4.78,4.78,0,0,1-2.75,1.81c-1.58.52-3.12,1.14-4.69,1.65-1.16-3.15-2.21-6.34-3.44-9.46,1.41-.69,2.95-1.07,4.41-1.65"/><path id="path13193-0" class="cls-4" d="M158.31,239.83c.75.71,1.48,1.46,2.2,2.19-.55.29-1.1.57-1.66.84-.15-1-.36-2-.54-3"/><path id="path13195-6" class="cls-62" d="M118.49,242.05a5.46,5.46,0,0,1,6.29,2,5.93,5.93,0,0,1-.6,6.73c-2.21,2.67-7.15,1.93-8.51-1.27-1.12-2.67,0-6.37,2.82-7.44"/><path id="path13197-0" class="cls-3" d="M135.73,243.19c2.9-.39,5.79-1,8.68-1.4.12.87.25,1.72.42,2.58-.91.18-1.83.33-2.75.43.32,2.49.8,5,1.2,7.45l-3.1.51c-.49-2.47-.76-5-1.32-7.44-.9.22-1.82.35-2.74.49-.15-.88-.28-1.74-.39-2.62"/><path id="path13199-9" class="cls-4" d="M148.44,242.94a13.52,13.52,0,0,1,2.13-.68.71.71,0,0,1,.38,1.26,13.61,13.61,0,0,1-2,.81c-.18-.47-.35-.92-.52-1.39"/><path id="path13201-9" class="cls-3" d="M129.77,243a5.62,5.62,0,0,1,4.49.89,5.79,5.79,0,0,1,1,7.56,5.25,5.25,0,0,1-8.41-.1c-2-2.84-.67-7.67,3-8.35"/><path id="path13203-8" class="cls-4" d="M120,244.45a1.85,1.85,0,0,1,2.46,1.69c.09,1.28-.23,2.87-1.47,3.51a1.85,1.85,0,0,1-2.55-1.65c-.09-1.29.25-3,1.56-3.55"/><path id="path13205-1" class="cls-4" d="M130.28,245.65a1.85,1.85,0,0,1,2.61,1.37c.36,1.34.16,3.27-1.29,3.85a1.94,1.94,0,0,1-2.46-1.69c-.24-1.21-.08-2.89,1.14-3.53"/><path id="path13207-0" class="cls-4" d="M149.61,246.14a12.18,12.18,0,0,1,2.47-.77c.7.19,1,1.3.28,1.67a22.53,22.53,0,0,1-2.16.85c-.21-.59-.41-1.17-.59-1.75"/></g></g></g></g></svg>