<svg xmlns="http://www.w3.org/2000/svg" viewBox="0 0 249.41 299.34"><defs><style>.cls-1{fill:#eeeeef;}.cls-1,.cls-2,.cls-3,.cls-4,.cls-5,.cls-6{fill-rule:evenodd;}.cls-2{fill:#fefefe;}.cls-3{fill:#a80011;}.cls-4{fill:#002552;}.cls-5{fill:#fcfcfc;}.cls-6{fill:#b22b39;}</style></defs><title>Cagliari</title><g id="Слой_2" data-name="Слой 2"><g id="Слой_1-2" data-name="Слой 1"><polygon class="cls-1" points="72.75 97.63 176.61 97.63 176.61 201.48 72.75 201.48 72.75 97.63 72.75 97.63"/><path class="cls-2" d="M121.08,297.25c-40-23-73.76-61.44-94.49-102.43C0,142.26-6.72,84.38,6.75,27l.87-3.73,3.57-1.39C47.59,7.76,85.61,0,124.71,0s77.11,7.76,113.51,21.91l3.57,1.39.88,3.73c13.46,57.35,6.73,115.23-19.85,167.79-20.73,41-54.44,79.41-94.49,102.43l-3.62,2.09-3.63-2.09Z"/><path class="cls-3" d="M124.71,291C57.19,252.13-15.15,152.09,13.83,28.69Q69,7.25,124.71,7.27T235.59,28.69c29,123.4-43.37,223.44-110.88,262.26Z"/><path class="cls-4" d="M124.71,7.27q55.73-.07,110.88,21.42c29,123.4-43.37,223.44-110.88,262.26V7.27Z"/><path class="cls-5" d="M124.52,274.42l0,0,0,0a18.7,18.7,0,0,0,2.47-1.74l4.86-3.95c.91-.81,1.76-1.23,2.71-2,15.34-13.06,14.3-12.71,27.18-27l8.12-9.86c5.43-7,9.74-14.67,14.31-21.6a133.73,133.73,0,0,0,6.45-11.85c13.65-26.64,21-54.26,23.29-84.85.63-8.24,1.19-27.4-.54-35C185.06,68,156.16,62.63,124.6,62.86h-.09C93,62.63,64.05,68,35.67,76.45c-1.73,7.64-1.17,26.8-.54,35,2.32,30.59,9.64,58.21,23.29,84.85a133.73,133.73,0,0,0,6.45,11.85c4.57,6.93,8.88,14.59,14.31,21.6l8.12,9.86c12.89,14.33,11.84,14,27.18,27,1,.81,1.8,1.23,2.71,2l4.86,3.95a18.7,18.7,0,0,0,2.47,1.74Z"/><path class="cls-3" d="M115.36,144c-13.74.3-36.61-.86-51.26-1.8-4.38-.28-13-1.34-16.83-1l4,15c1.87.64,12.69,1.63,14.67,1.84l32.65,2.41c5.42.26,11.8.14,17,.66.78,18.09.57,36.38,1.13,54.53l1.38,40.46c.11,4.81,2.36,4.17,6.45,7.6,4.08-3.43,6.33-2.79,6.44-7.6l1.38-40.46c.56-18.15.35-36.44,1.13-54.53,5.24-.52,11.62-.4,17-.66l32.65-2.41c2-.21,12.8-1.2,14.67-1.84l4-15c-3.86-.33-12.45.73-16.83,1-14.65.94-37.52,2.1-51.26,1.8L134,73.64l-9.44.08-9.45-.08.25,70.38Z"/><path class="cls-4" d="M151.79,122.48c2.37,2.42,5,1.92,10.47,6.64,3.44,2.94,8.35,5,12.85,3.32-.48-3.5-1.85-.73.5-9.1,7.69-.67,9.18-.27,8.42-5.07-.38-2.42.49-1.19.68-2.49.24-1.66-.79,1,0-2.38.56-2.3-1.06-1.12,0-2.3.45-.51,2.35-.74,3-1,.2-2.41-1.11-3.34-2-4.77-2.21-3.68-1-1.35-1.32-5.57-4-1.89-25.93,5.69-31.85,8.15-1.8.75-5.15,1.43-4.15,4.21.65,1.79,3.52.91,4.5,3.65,1.08,3-.59,4.47-1.08,6.71Z"/><path class="cls-4" d="M70.23,123c1.5.6,4.39,1.89,6,2.77,3.75,2,12.22,10.3,18.11,6.53-1.14-3.88-1.4-4-.26-8.65l2.25-.47c.78-.07,1.54-.1,2.32-.21,4.82-.65,4.16-2.3,3.55-4.49-.78-2.83.26-.37.35-2.59.07-1.58-.32-.65-.38-1.51s-.08.36.13-.63c.53-2.43.18-.46-.45-2.65,1.37-.58,1.83-.4,3.14-1.16.11-2.93-2.31-3.87-3.52-6.13-2-3.7,2.44-5.14-5-3.82a119.59,119.59,0,0,0-16.22,3.89c-2.35.76-12.88,4.62-14,5.84a2.17,2.17,0,0,0,.12,3.11c1.28,1.19,2.32.34,3.52,1.62,2.58,2.74.32,5.52.29,8.55Z"/><path class="cls-4" d="M147.86,196.34c1.76.82,3.15.52,3.66,2.87.62,2.81-.54,3.58-.89,5.73,1,1,4.4,2.43,8.24,5.64,2.74,2.29,11.46,6.66,10.37,1.42-.23-1.12-.39-.81-.19-2.15.08-.6.38-1.42.54-2.06.33-1.34,0-1.21.66-1.9,1.54-1.42,7.12.64,6.95-3.46-.06-1.34-.43-.73-.18-2.17s.35,0,.34-2.4l.22-1.05c.14-1.09-.14-1-.27-2.11l2.57-.74c.29-2.2-.91-3.08-1.71-4.51-1.49-2.68-.46-2-1-4.86-5.56-.3-18.55,4.27-24.21,6.63-3.14,1.3-5.64,1.53-5.13,5.12Z"/><path class="cls-4" d="M73.13,196.31c1.61.69,3.36.91,4,2.92,1.91,6.07-4.68,4,4.1,8.38,2,1,2.57,1.9,4.28,3,2.87,1.9,6,4.58,10.76,3.06-.08-.8-1.68-3.68.08-7.76.47-1.09,5.4,0,6.46-1.86.6-1.6.31-1.12,0-2.66-.54-2.84.41-.66.09-3.06l-.41-3.69a9.08,9.08,0,0,0,2.47-.84c.14-2.06-1-2.78-1.94-4-2-2.6-.86-2-1.44-5.14-5.91-.66-20.83,5.13-27.22,8.19-1.81.87-1.64,1.45-1.24,3.46Z"/><path class="cls-5" d="M183.68,35.08c4.9.66,9.4,1.41,10.49,5.79,1.76,7.09-5.42,4.26-9.54,3.5l-.95-9.29Zm11,23.34h0a61.58,61.58,0,0,0-4-7.52c-1-1.62-2.94-1.87-5.58-2l1,10.11-5.77-1.06L177.6,29.76c6.65.61,14.67,2.1,18.29,5.63,4.21,4.11,6.71,13-.61,14.85,1.54,3.83,6.12,10.18,7,12.73L196.09,61l-.86-1.59c-.18-.3-.36-.64-.54-1Z"/><path class="cls-5" d="M113.45,39c-13,.38-11.14-.13-11.22,4.32l5.24-.25c-.26,4.44.83,6-4.59,6.7a7.8,7.8,0,0,1-5.17-.88c-2.71-2-2.84-15.61,2.55-18.2,3.92-1.89,6.86-.16,7.47,3.82l5.5-.32c-.36-7.6-8-10.56-15-7.3-6.34,2.95-7.48,7.53-8.14,16.4C89,57.66,106.1,55.41,112,50.55c2-1.6,1.38-7.33,1.46-11.52Z"/><path class="cls-5" d="M162.66,34.36c.93.93,1.83,3.83,2.47,5.42a38.14,38.14,0,0,1,2.1,5.74l-7.13-.94,2.56-10.22Zm-3.85,14.72c2.06-.58,6.4.37,9,.83,1.52.27,1.34-.1,2.44,2.78.45,1.18.87,2.35,1.42,3.75l5.91.92L165.32,27.94l-5.9-.61c-1,3.48-8,25.38-7.88,26.71l5.83.49,1.44-5.45Z"/><path class="cls-5" d="M71.63,47.19a46.41,46.41,0,0,1,2.17-5.88l1.89-4.7c.48-.86.17-.34.51-.73l2.42,10c-1.84.91-4.82,1.1-7,1.32ZM61.36,59.6c4.83-.76,6.37,0,8.1-7.62l10-1.61c1.07,1.37.94,3.83,1.84,5.32.52.47,4.91-.33,5.72-.43L79.59,28.88a16.24,16.24,0,0,0-4.92.44c-1.61.46-.7-.15-2.41,3.84L61.36,59.6Z"/><path class="cls-4" d="M147.28,106.6c3.23-3.51,8.73-6.77,14.52-9.53,2.77-1.32,5.66-2.58,8.51-3.61,2.4-.87,7.07-2.06,9-3,1-4.89-6.42-3.93-10.57-4.44-9.09-1.11-11,1.92-17.46,5.37-2.53,1.37-3.14.9-4.51,3.18-1.52,2.52-.55,3.75-1.09,6.63s-.22,4.22,1.58,5.45Z"/><path class="cls-4" d="M64,106.69c1-.41,2.11-2,3-2.85,3.79-3.49,13.94-8.4,19-10.31,1.45-.54,7.91-2.51,9-3.3-.2-4.82-4.79-3.51-11-4.27a20,20,0,0,0-12.4,2.33c-.88.53-1.26.95-2.11,1.55-2.14,1.52-5.29,2.19-6.72,4.66-1.12,2-.29,4.68-.56,7.08A5.23,5.23,0,0,0,64,106.69Z"/><path class="cls-5" d="M60.58,50.41l-5.46,1.1c-1.13,3.76-2,6.65-6.48,7.22-5.3.69-4.16-5.79-3.66-9.5.71-5.24,2.94-12.84,9-11.54,2.18.46,2.24,2.37,2.18,4.7l5.51-1.1c.12-4.19-.74-6.92-4.08-8s-7.36.51-9.81,1.88C39.66,39.67,37.67,57,39.87,60.59c3.86,6.38,19.19,2,20.71-10.18Z"/><path class="cls-4" d="M146.35,190.86c1.63-.48.6,0,1.82-1.18,8-7.94,23.51-11.92,25.11-13.32-.2-4.13-4.7-3.09-8.8-3.66a14.37,14.37,0,0,0-10.57,2.23c-9.66,5.9-7.55,4.71-8.21,10.55-.43,3.8-.7,2.28.65,5.38Z"/><path class="cls-4" d="M71.78,190.82C76.12,185.25,86,180.59,93.18,178c1.52-.56,2.82-.82,3.76-1.62-.58-4.11-4.94-3.08-9-3.64-8.46-1.15-10.27,2.8-14.22,4.81-5.2,2.64-3.39,5.1-3.66,8.73-.2,2.68.3,3.42,1.74,4.56Z"/><path class="cls-5" d="M124.61,52.88l13.26.17-.16-4.18-13.31-.18,0-23.13-5.56.68c0,.07-.06.2-.08.29L118.26,53l6.35-.11Z"/><path class="cls-5" d="M142,53.34l5.85.41L146.2,26.51a1,1,0,0,0-.26-.13l-5.38-.48L142,53.34Z"/><path class="cls-5" d="M208,36.79l-5.12-1.85c.66,6,1.57,12,2.35,17.84l1.5,11.1,5.56,1.72L208,36.79Z"/><path class="cls-6" d="M71.63,47.19c2.17-.22,5.15-.41,7-1.32l-2.42-10c-.34.39,0-.13-.51.73l-1.89,4.7a46.41,46.41,0,0,0-2.17,5.88Z"/></g></g></svg>