<?xml version="1.0" encoding="UTF-8" standalone="no"?>
<svg id="svg85" xmlns:rdf="http://www.w3.org/1999/02/22-rdf-syntax-ns#" xmlns="http://www.w3.org/2000/svg" height="100" viewBox="0 0 95.665062 99.999999" width="95.665" version="1.1" xmlns:cc="http://creativecommons.org/ns#" xmlns:dc="http://purl.org/dc/elements/1.1/">
 <metadata id="metadata91">
  <rdf:RDF>
   <cc:Work rdf:about="">
    <dc:format>image/svg+xml</dc:format>
    <dc:type rdf:resource="http://purl.org/dc/dcmitype/StillImage"/>
    <dc:title/>
   </cc:Work>
  </rdf:RDF>
 </metadata>
 <path id="path4" fill-rule="evenodd" fill="#0070b5" d="m13.273 9.3876c1.1634-1.1094 2.6254-2.0804 4.2224-3.1418 3.7509-2.4928 8.3325-4.8618 11.456-6.0321 3.3857 1.866 6.3549 3.2243 9.0312 4.2025 4.5427 1.6605 8.0161 2.2261 9.9346 2.3211 2.0822-0.0769 5.9877-0.775 11.214-2.8396 2.357-0.93094 4.9249-2.151 7.834-3.6977 2.6382 1.1098 7.2087 3.3819 11.359 6.1346 2.1158 1.4034 4.1212 2.9116 5.2621 4.491 0.66309 0.91763 0.99241 1.8968 1.0223 2.8855 0.06206 2.055-1.0668 4.3781-1.8222 5.8875-5.029-2.43-10.286-4.371-15.716-5.735-5.984-1.504-12.149-2.293-18.316-2.4-6.6723-0.11555-13.383 0.71108-19.854 2.3296-5.4743 1.3692-10.886 3.3319-16.019 5.8016-0.55301-1.1265-1.1742-2.5004-1.5153-3.5829-0.42811-1.3585-0.51902-2.6917-0.0453-3.9515 0.34561-0.9193 1.0181-1.7827 1.952-2.6735zm65.624 34.33c1.1896 7.9154 2.5768 15.176 3.8063 21.903 0.21332 1.1674 0.36394 2.2325 0.48272 3.193 0.38806 3.1378 0.26048 5.3396-0.61366 7.8529-1.7343 4.9864-7.0728 9.4817-12.62 12.216-1.5251 0.75152-2.5495 1.0489-4.0652 1.5214-1.6383 0.51054-3.7072 1.2777-5.5905 2.1415-4.5416 2.0834-7.7867 3.8235-12.453 7.2543-3.9481-3.0529-8.2486-5.3971-10.734-6.5666-2.3626-1.1119-3.5393-1.605-6.0212-2.5923-1.1437-0.45472-2.3388-0.77888-3.4217-1.2267-1.8049-0.74627-3.4297-1.6406-4.9437-2.6229-3.8688-2.5097-7.4294-5.9453-8.9601-9.6638-0.51878-1.2603-0.88643-2.4494-1.0571-3.7677-0.50254-3.8817 0.49921-8.1916 1.1638-11.997 0.99589-5.7022 2.0282-11.536 2.9405-17.653l13.369-6.8006-2.78-4.9438c6.3921-2.7825 13.255-4.0584 20.219-4.111 6.8437-0.0524 14.285 1.367 20.622 4.0958l-2.7942 4.9509z"/>
 <path id="path6" fill-rule="evenodd" fill="#d11524" d="m66.859 3.3128c-2.22 1.1781-4.333 2.2133-6.693 3.1454-3.579 1.4139-7.968 2.8169-12.146 3.0881-4.019-0.2018-7.721-1.3419-10.959-2.5255-2.837-1.0367-5.38-2.2734-8.048-3.6948-3.308 1.3711-7.189 3.5379-10.009 5.3928-1.2913 0.84968-2.6207 1.7144-3.7399 2.7818-0.33869 0.32294-0.83058 0.8319-1.1358 1.329-0.19717 0.32105-0.30718 0.66029-0.3519 1.0074-0.06976 0.54176 0.02766 1.1128 0.18858 1.6583 0.30246 1.0247 0.74981 2.0433 1.2319 3.029 4.4339-1.9708 9.0458-3.5655 13.703-4.7305 6.4706-1.6185 13.181-2.4452 19.854-2.3296 6.1674 0.10677 12.333 0.89528 18.316 2.3992 4.5988 1.1558 9.0737 2.7248 13.391 4.654 0.31048-0.60718 0.63032-1.2822 0.88555-1.95 0.61344-1.605 0.80749-2.7482-0.0054-3.9138-1.076-1.541-3.092-2.8829-4.543-3.8455-2.973-1.9721-6.618-4.0052-9.94-5.4957zm-47.119 38.906c-0.93669 6.5706-2.0173 13.159-3.2304 19.679-0.66074 3.5507-1.5307 7.4558-1.0765 10.965 0.22215 1.7162 0.86695 3.3301 1.7784 4.7873 1.746 2.7914 4.7853 5.3005 7.0306 6.7976 1.4281 0.92651 2.9167 1.7342 4.4909 2.385 1.1019 0.45572 2.2717 0.76902 3.3866 1.2126 2.1049 0.83715 4.0696 1.7187 6.1049 2.7154 3.2456 1.589 7.1942 3.9387 9.6508 5.6195 4.3683-3.0481 7.8112-4.8742 12.022-6.717 1.677-0.73402 3.4212-1.3849 5.1583-1.9262 1.3004-0.40528 2.4313-0.75389 3.6617-1.3602 4.2444-2.0916 9.6341-6.0773 11.231-10.669 0.79266-2.2791 0.84379-3.998 0.54862-6.3857-0.127-1.016-0.338-2.705-0.528-3.71-1.333-7.024-2.916-16.008-4.009-23.382l-10.516-5.33 2.794-4.951c-6.337-2.728-13.779-4.147-20.622-4.096-6.964 0.053-13.827 1.329-20.219 4.111l2.78 4.9438z"/>
 <path id="path8" fill-rule="evenodd" fill="#fff" d="m28.941 5.0085c-3.0993 1.3437-6.3187 3.1503-9.1012 4.981-1.2097 0.79589-2.4758 1.6102-3.5262 2.6118-0.3032 0.28911-0.6689 0.6652-0.88937 1.0242-0.07757 0.12631-0.12064 0.25934-0.13953 0.40594-0.042 0.32641 0.04644 0.71998 0.13888 1.0333 0.29686 1.0059 0.74018 1.9838 1.2047 2.9243 0.29826 0.33561 0.50669 0.46088 0.72935 0.94872 3.217 7.047 5.1088 14.816 4.0175 22.58-0.97126 6.9097-2.0942 13.799-3.3706 20.659-0.61442 3.3019-1.4964 7.1458-1.0633 10.492 0.19338 1.4943 0.76364 2.9036 1.5595 4.1761 1.5219 2.4332 4.2114 4.7551 6.5769 6.3333 1.3449 0.87204 2.7542 1.6376 4.2363 2.2503 1.0994 0.45469 2.259 0.76386 3.3675 1.2047 2.109 0.83878 4.1733 1.7646 6.2116 2.7626 1.3329 0.65274 2.6444 1.3583 3.936 2.089 1.6983 0.96091 3.3993 1.9779 5.0354 3.0574 2.3552-1.5993 4.7658-3.0526 7.3148-4.3448 1.3495-0.68413 2.7218-1.3196 4.1077-1.9262 1.7318-0.7581 3.5109-1.4225 5.3157-1.985 1.1793-0.36753 2.3296-0.72427 3.4419-1.2724 3.829-1.8868 9.0128-5.6238 10.467-9.8048 0.7113-2.0452 0.73918-3.5683 0.4757-5.6996-0.14774-1.1954-0.28778-2.4314-0.51198-3.6132-1.5565-8.2031-3.0211-16.483-4.2097-24.748-0.18536-0.52602-0.30754-1.1883-0.40826-1.7072-0.10761-0.55453-0.21129-1.1225-0.28657-1.6821-1.1016-8.1602 1.1242-11.879 4.9124-18.766 0.52719-0.9583 1.0516-1.9451 1.4426-2.9682 0.3012-0.78807 0.7045-1.7311 0.16772-2.5007-0.92727-1.3295-2.7953-2.559-4.1353-3.4478-2.8308-1.8777-5.9477-3.6321-9.0515-5.0698-2.0194 1.0533-4.0567 2.0272-6.1817 2.8666-3.9534 1.5617-8.342 2.9144-12.607 3.1914l-0.0874 0.006-0.08751-0.004c-3.962-0.199-7.7-1.2621-11.405-2.616-2.632-0.9621-5.124-2.1439-7.597-3.4408z"/>
 <path id="path66" fill-rule="evenodd" fill="#0070b5" d="m65.58 19.247 1.1852 0.3637 0.61202 2.7275 1.9813-1.9318 1.2218 0.37476-3.0121 2.7347-0.64096 2.0891-1.0535-0.32331 0.64093-2.089zm-2.5285 0.39752-0.99945 4.6418-1.0658-0.22948 0.99945-4.6418-1.6284-0.35057 0.19652-0.91276 4.3226 0.93082-0.19652 0.91257zm10.592 2.2608 3.4877 1.4585-0.35835 0.85696-2.471-1.0333-0.59066 1.4126 2.351 0.98312-0.3495 0.83572-2.351-0.98295-0.90144 2.1557l-1.019-0.426zm-28.591-4.827l3.7794-0.0811 0.01985 0.92862-2.6777 0.0579 0.0327 1.5307 2.5477-0.0543 0.01938 0.90581-2.5477 0.0539 0.04995 2.3362-1.1017 0.0232zm-5.1589 0.43734 3.7625-0.36646 0.09002 0.92454-2.6657 0.25961 0.14841 1.5239 2.5362-0.24704 0.08786 0.90166-2.5362 0.24702 0.22651 2.3258-1.0968 0.1067zm19.499 0.46507-0.88925 5.6201-1.0752-0.17027 0.88927-5.6199zm-21.154-0.22238 0.85176 5.6258-1.0763 0.16289-0.85176-5.6258zm-6.1689 6.9776-1.2119-5.5744 2.6654-0.57945c0.8239-0.17914 1.498-0.12124 1.8929 0.21979 0.52067 0.44949 0.64939 0.96561 0.85652 1.9182 0.24379 1.1214 0.29614 2.035 0.06527 2.5279-0.25222 0.53842-0.81108 0.73649-1.6846 0.92639zm0.05762-4.8994 0.81716 3.7584 1.3103-0.28495c0.54602-0.11873 0.90155-0.21131 1.0636-0.53231 0.16001-0.31711 0.07442-0.86856-0.09386-1.6426-0.11116-0.51118-0.20673-0.90392-0.31798-1.1712-0.10706-0.2569-0.24382-0.43194-0.52602-0.49272-0.20304-0.043-0.46188-0.0237-0.74172 0.0361zm47.77 9.0137 0.95723 0.47126-0.13352 0.29358c-0.2684 0.59049-0.5843 0.94575-1.0151 1.0281-0.43076 0.0825-1.0804-0.13454-1.8704-0.51646-0.97024-0.46913-1.4162-0.85298-1.5395-1.3593-0.12327-0.50631 0.15738-1.2879 0.67628-2.3611 0.44223-0.91463 0.81539-1.5351 1.2727-1.7552 0.50937-0.24506 1.1971-0.12682 2.0785 0.29137 0.81579 0.38712 1.4194 0.72955 1.5897 1.1864 0.18315 0.4917 0.06181 0.83269-0.30379 1.6216l-0.96811-0.49186c0.18611-0.38492 0.30801-0.69172 0.20652-0.88587-0.10149-0.19434-0.44705-0.3945-0.93466-0.61432-0.47904-0.21602-0.8427-0.3478-1.1162-0.16166-0.23483 0.15976-0.49921 0.63484-0.86483 1.391-0.25887 0.53524-0.44469 0.91256-0.52219 1.2032-0.05469 0.20515-0.0629 0.39048 0.0714 0.57045 0.13538 0.18119 0.3905 0.36837 0.74445 0.53948 0.45469 0.21984 0.80587 0.35059 1.0204 0.32873 0.21444-0.0215 0.36818-0.19452 0.50611-0.47966zm-24.351-7.7375 1.0632 0.0896-0.0172 0.32209c-0.03446 0.6476-0.19888 1.0938-0.56993 1.3275-0.37103 0.23383-1.055 0.26907-1.9298 0.20185-1.0745-0.083-1.6298-0.2773-1.9294-0.70373-0.29952-0.42641-0.3235-1.2565-0.23201-2.4451 0.078-1.0128 0.19895-1.7268 0.54444-2.0985 0.38482-0.41407 1.0683-0.55497 2.0415-0.48722 0.9008 0.0633 1.5878 0.16124 1.913 0.52436 0.34992 0.39097 0.36145 0.75269 0.30893 1.6207l-1.081-0.106c0.03277-0.42629 0.03429-0.75635-0.13103-0.90023-0.16537-0.14377-0.56014-0.20402-1.0944-0.23081-0.5248-0.0258-0.9115-0.016-1.0983 0.25686-0.16032 0.23435-0.2331 0.77324-0.29757 1.6107-0.0457 0.59283-0.08092 1.0119-0.04709 1.3108 0.02387 0.21087 0.08377 0.38643 0.27462 0.50499 0.19216 0.11932 0.49802 0.20042 0.89001 0.23059 0.50355 0.0381 0.87825 0.0318 1.0699-0.0668 0.1917-0.0986 0.27184-0.31527 0.29617-0.63124zm-37.118 6.3933 0.95428-0.50367 0.14487 0.2746c0.30274 0.57357 0.42025 1.0508 0.231 1.4464-0.18925 0.39564-0.74899 0.79009-1.525 1.1996-0.95313 0.50307-1.5266 0.63455-2.0074 0.43359-0.48076-0.20097-0.94368-0.89061-1.5-1.9447-0.47416-0.89862-0.75247-1.5671-0.65843-2.0658 0.1048-0.55546 0.60786-1.039 1.4673-1.5008 0.79547-0.42715 1.4292-0.71017 1.898-0.57624 0.50445 0.14402 0.7071 0.4439 1.1255 1.2063l-0.97019 0.48776c-0.19955-0.37811-0.37424-0.65816-0.5908-0.69172-0.21661-0.0329-0.58271 0.12607-1.0489 0.38826-0.45798 0.25766-0.77979 0.47235-0.79217 0.80294-0.01062 0.28374 0.21507 0.77837 0.60708 1.5213 0.27753 0.5258 0.47114 0.89926 0.6592 1.1339 0.13271 0.16573 0.27696 0.2823 0.50157 0.28087 0.2262-0.001 0.52819-0.096 0.87588-0.27945 0.44668-0.23577 0.76025-0.44106 0.86982-0.62662 0.10959-0.18569 0.06176-0.41188-0.08614-0.69208zm5.5624-1.3388-2.2911 0.91591 0.07183 1.1441-1.0536 0.42116-0.35656-6.0003 1.4921-0.59649 3.9135 4.5785-1.0324 0.41265zm-0.53582-0.66327-2.019-2.3834 0.19454 3.1128zm3.501-1.2448 0.56203 1.8217-1.002 0.30914-1.6835-5.4564 2.6605-0.82093c0.60736-0.18742 1.0925-0.20171 1.4596-0.0289 0.36709 0.17245 0.64468 0.56328 0.83268 1.1726 0.13086 0.4242 0.17728 0.78665 0.1315 1.0471-0.06043 0.34359-0.28149 0.57952-0.65512 0.74818l0.0089 0.0287c0.30607-0.0945 0.5784-0.0461 0.78609 0.092 0.20766 0.13868 0.34752 0.34887 0.44975 0.68013l0.36802 1.1929-1.0494 0.32372-0.34096-1.1051c-0.07972-0.25838-0.20815-0.42025-0.38532-0.48578-0.17716-0.066-0.3946-0.0591-0.652 0.0206zm-0.84405-2.7357 0.57724 1.871 1.4909-0.45997c0.31581-0.0975 0.51585-0.22314 0.60503-0.40789 0.08912-0.18491 0.06468-0.47743-0.03459-0.79927-0.10529-0.34119-0.22294-0.57473-0.3772-0.67584-0.17225-0.11301-0.41117-0.0988-0.72672-0.001z"/>
 <path id="path10" fill-rule="evenodd" fill="#0070b5" d="m47.521 12.052c-6.1196 0.00035-12.364 0.79403-18.476 2.3225-7.8672 1.9678-15.704 5.2096-22.712 9.4368 1.2321 2.3984 2.3356 4.4876 3.419 6.4593l-9.552 5.425 7.1295 4.46 0.6744 7.363 21.347-10.859-2.797-4.973c6.6542-3.009 13.804-4.3746 21.058-4.4295 6.8218-0.0512 14.704 1.3746 21.473 4.4124l-2.8115 4.982 21.374 10.831 0.6468-7.3218 7.1707-4.4594-9.5705-5.4423 3.4277-6.4608c-7.338-4.372-14.872-7.462-22.399-9.354-6.096-1.532-12.234-2.279-18.18-2.381-0.40678-0.007-0.81424-0.0103-1.2222-0.0103zm0.14177 2.2145c0.40276-0.00052 0.80488 0.003 1.2062 0.01 5.9533 0.10313 12.139 0.80609 17.915 2.2578 6.9744 1.7529 13.287 4.5006 19.542 8.023-0.98501 1.7783-1.8482 3.4888-2.6862 5.1936-0.86159 1.8535-1.738 3.6177-2.6364 5.2504-9.6308-5.1008-21.245-9.8181-33.573-9.7251-4.8153 0.0358-9.3568 0.78196-13.586 1.9115-6.8188 1.8209-13.047 4.7065-18.91 7.725l-2.729-5.145-2.8653-5.087c6.319-3.5816 13.236-6.35 20.255-8.1055 5.8378-1.46 12.026-2.3011 18.067-2.309zm37.279 17.711 6.9505 3.8229-5.4364 3.1593-0.61512 5.7986-15.313-7.6489 10.718 1.1731 0.43504-0.74301 0.0024 0.001 3.2584-5.5636zm-74.226 0.0236c0.93405 1.6574 1.8774 3.2693 2.8997 4.9586l0.774 1.322 10.725-1.174-15.305 7.658-0.6146-5.812-5.4367-3.145 6.9573-3.808zm60.002 0.47582c2.8739 1.2689 6.0591 2.6415 9.1685 4.1623l-10.93-1.1178 1.7611-3.0445zm-45.773 0.0147 1.7461 3.0285-11.127 1.1376c3.6254-1.5922 6.3871-2.9443 9.3807-4.1661z"/>
 <g id="dragon" fill-rule="evenodd">
  <path id="path28" fill="#d11524" d="m39.723 78.088c-0.13427 0.28972-0.35786 0.35348-0.51723 0.54926-0.14056 0.17289-0.205 0.35983-0.14872 0.565 0.07566 0.27575 0.30791 0.34244 0.59978 0.47292 0.1465 0.066 0.32722 0.14378 0.46221 0.26444 0.21069 0.1883 0.37482 0.54794 0.42808 0.98949 0.0078 0.0671 0.000893 0.12031-0.03971 0.17116-0.08265-0.0549-0.09754-0.15522-0.12644-0.24527-0.08042 0.11667-0.14198 0.23335-0.18426 0.35002 0.0251 0.0621 0.10549 0.23488 0.15292 0.3442 0.01111 0.0251 0.01871 0.021 0.02961 0.024l0.01574-0.19154c0.13678 0.0463 0.31386 0.11894 0.36747 0.11589 0.08017-0.004 0.31736-0.11665 0.45803-0.18589l0.05469 0.13898c0.03159 0.0805 0.15379-0.15542 0.19678-0.22576 0.03512 0.005 0.07394 0.009 0.11495 0.0113-0.11563 0.17795-0.23127 0.30813-0.34693 0.39042-0.03378-0.0257-0.06439-0.0534-0.10134-0.0784-0.01892-0.0122-0.02311-0.0134-0.01883 0.009l0.02824 0.14359c-0.0986 0.0653-0.19368 0.0972-0.29572 0.108-0.03296-0.0309-0.06427-0.0876-0.0878-0.13796-0.01627 0.0686-0.01032 0.14708 0.02122 0.21519-0.01321 0.11068-0.0083 0.1995 0.08918 0.28495 0.0037 0.0648 0.0063 0.12138 0.02927 0.18571 0.0619-0.0551 0.07172-0.11618 0.09619-0.17595 0.03995 0.0435 0.07211 0.12099 0.09437 0.19084 0.05256-0.0611 0.07546-0.14997 0.08466-0.21703 0.09704-0.025 0.20123-0.048 0.26611-0.0384 0.1298 0.0191 0.20991 0.1053 0.21804 0.19462 0.0076 0.0847-0.04578 0.17655-0.14211 0.1905-0.05398 0.008-0.12419-0.009-0.19889-0.0657 0.02673 0.14218 0.14734 0.2324 0.28178 0.21804 0.13021-0.0137 0.2374-0.11027 0.24034-0.29129 0.0019-0.1212-0.05452-0.25442-0.18321-0.39282l0.14314-0.0633c0.0876-0.00016 0.16788 0.0142 0.24661 0.0413-0.0082-0.0387-0.02616-0.0759-0.08045-0.1484l0.01986-0.01c0.03733 0.0255 0.137 0.063 0.21909 0.0619-0.0019-0.0319-0.0318-0.0994-0.0825-0.15987 0.19095-0.0283 0.3822 0.11662 0.49774 0.26017 0.24051 0.2988 0.23448 0.68559 0.12818 1.0324-0.15999 0.52184-0.50335 0.98011-0.69593 1.497-0.13609 0.36528-0.165 0.7493-0.11947 1.18-0.28643 0.007-0.59532-0.0289-0.81574-0.1125-0.48984-0.18472-0.50424-0.67969-0.58238-1.4486-0.03042-0.29926-0.24426-0.74375-0.39812-0.90425l0.0075-0.0948c-0.11265-0.0468-0.2468-0.0805-0.35946-0.0989 0.11122 0.25316 0.24832 0.5618 0.23894 0.75507-0.0026 0.0557-0.06184 0.0537-0.0955 0.006-0.09844-0.13789-0.16441-0.26657-0.41378-0.52837l-0.03201-0.0935c-0.13396-0.0603-0.28918-0.0944-0.43749-0.10723 0.19034 0.23193 0.42018 0.54512 0.50123 0.80455l-0.14107-0.0185-0.08284-0.13066c-0.12208 0.00058-0.27643 0.005-0.40926 0.0476 0.32314 0.22029 0.59166 0.47852 0.82897 0.77536 0.0019 0.21597 0.000718 0.40629-0.0178 0.57441-0.15493 0.18521-0.46084 0.46007-0.82688 0.57956 0.13977 0.0417 0.28706 0.0701 0.44584 0.0743l0.08883-0.10584c0.08631-0.0127 0.17129-0.0278 0.25566-0.0498 0.06568-0.0171 0.13394-0.0413 0.18426-0.0551 0.09684-0.0233 0.15625 0.00053 0.21316 0.0657 0.36919 0.85006 0.98549 2.1325 1.8739 2.1885 0.01731 0.001 0.02365-0.0118 0.01216-0.0236-0.34282-0.3604-0.44177-0.66929-0.06589-0.81678 0.0509-0.0196 0.06546-0.0223 0.10799 0.009 0.22283 0.16817 0.39568 0.45518 0.64367 0.64853-0.05699-0.17775-0.11407-0.35548-0.17103-0.53318 0.29822 0.34896 0.55691 0.5768 1.1195 0.85615-0.16162 0.18634-0.30191 0.37181-0.42529 0.57152-0.51766 0.0273-0.96806 0.11168-1.3044 0.24493l-0.12712-0.0654c-0.09207 0.0892-0.15142 0.19775-0.19576 0.31562 0.4172-0.13467 0.80132-0.1967 1.0359-0.14463 0.02039 0.004 0.04427 0.0617 0.02397 0.0671-0.39204 0.10503-0.6589 0.2416-0.9056 0.39318l-0.17589-0.0339c-0.07659 0.14079-0.10708 0.27911-0.1167 0.40086 0.47857-0.32017 0.86982-0.39065 1.2484-0.37331-0.10461 0.11866-0.18798 0.21941-0.26402 0.34763l-0.24173 0.0849c-0.04356 0.12989-0.05125 0.2663-0.03765 0.40582 0.27767-0.20099 0.57536-0.44853 0.87182-0.62525 0.23053-0.13746 0.45106-0.23086 0.69905-0.31939 0.27676-0.0989 0.49788-0.18489 0.77256-0.23997 0.29231-0.0593 0.62175-0.0871 0.93068-0.088-0.10018-0.10616-0.1804-0.15117-0.32949-0.2131l-0.07565 0.0797c-0.22609-0.0439-0.4027-0.0672-0.63706-0.0743 0.27396-0.45521 0.73495-0.45495 1.2515-0.33718 0.0097 0.002 0.03148 0.012 0.01079-0.0284-0.05408-0.1078-0.17131-0.22373-0.3396-0.36371 0.94043-0.27295 1.8215-1.0298 2.2724-2.0738 0.41459-0.51364 0.89952-0.83557 1.4608-0.60506 0.35919 0.14758 0.72342 0.48345 1.0947 1.0725-0.12571 0.11678-0.20644 0.19874-0.29816 0.26684-0.12046 0.0896-0.2407 0.15683-0.30058 0.24579-0.25991 0.38587 0.32969 0.73357 1.2734 1.257-0.08165 0.15544-0.21123 0.19821-0.34936 0.17801l-0.64158-0.0941c-0.273-0.131-0.573-0.218-0.828-0.291l0.04844-0.1003c-0.27337 0.052-0.51781 0.13007-0.62661 0.22012 0.35639-0.0172 0.55296 0.087 0.783 0.17698-0.22644 0.0119-0.34718 0.0126-0.59631 0.0712-0.098 0.0224-0.13818-0.009-0.17833-0.0619-0.20924 0.0543-0.36053 0.18632-0.48554 0.32145 0.75114-0.12151 0.98795-0.0439 1.3333 0.0336-0.15549 0.0609-0.33952 0.12778-0.49494 0.18811l-0.08712-0.0821c-0.21526 0.0853-0.4042 0.23698-0.54546 0.3769 0.72908-0.10641 1.2288-0.17417 1.8948-0.23381 0.64548-0.0585 1.2838-0.0159 1.6158 0.0223 0.06883 0.008 0.14256-0.0701 0.07275-0.20653-0.15358-0.30112-0.59841-0.75512-0.18321-1.0028 0.46426 0.30324 0.92888 0.54422 1.3932 0.69423-0.13086 0.42902-0.71836 0.68131-1.224 0.73138-0.39854 0.0388-0.88114-0.0256-1.2908 0.0171l-0.09962-0.12785c-0.22919 0.13322-0.42251 0.26659-0.53709 0.39983 0.18669 0.0168 0.41454 0.00018 0.62173 0.004 0.20719 0.003 0.39402 0.0275 0.49843 0.0989-0.05358 0.0787-0.49386 0.0921-0.71926 0.13437l-0.1024-0.0543c-0.22744 0.15201-0.33802 0.2669-0.47475 0.44537 0.20765-0.0169 0.48499-0.0548 0.7419-0.10971 0.37599-0.08 0.69549-0.15653 0.82131-0.14618-0.08308 0.0979-0.40299 0.2505-0.67885 0.36783l-0.07485-0.0708c-0.16786 0.16903-0.2357 0.31671-0.33195 0.55763 0.14711-0.0766 0.246-0.1336 0.45455-0.23436 0.0728-0.0193 0.17109-0.064 0.29431-0.12256 0.20541-0.0987 0.48053-0.24049 0.8248-0.38425 0.45649-0.19057 0.97767-0.34939 1.3027-0.41729 0.51678-0.10789 0.90283-0.0795 1.1146-0.14344 0.12702-0.038 0.18878-0.0858 0.17347-0.2742-0.01155-0.14207-0.0935-0.32085-0.2285-0.51058 0.36671-0.0109 0.67123-0.0297 0.9683-0.10304 0.59061-0.14509 1.0528-0.4575 1.4033-0.82448 0.26101-0.27327 0.47498-0.57443 0.59665-0.88679 0.15056-0.3867 0.17166-0.84539 0.11425-1.2519-0.09251-0.65551-0.42412-1.2334-1.0052-1.5865-0.74855-0.45488-2.3667 0.13433-2.5186-0.67472-0.05644-0.30046 0.06488-0.51588 0.26402-0.74295 0.3938-0.44903 0.99895-0.79268 1.2999-0.94673 0.11505-0.059 0.18937-0.0968 0.21316-0.1967-0.0311-0.0112-0.08547-0.0118-0.13445 0-0.000706-0.0531 0.0109-0.14173 0.06966-0.20026 0.0051-0.005 0.01281-0.0142 0.0062-0.0137-0.13434 0.0121-0.19909 0.16777-0.24242 0.27625l-0.12052 0.0525c-0.0312-0.0934 0.03192-0.20976 0.09688-0.31032 0.01193-0.0182 0.0276-0.0393 0.0062-0.0305-0.20835 0.0879-0.31452 0.25628-0.36538 0.45067l-0.09653 0.0476c-0.02206-0.14674 0.02708-0.29923 0.11738-0.42003 0.0075-0.01 0.02384-0.0306 0.01148-0.0278-0.30409 0.0713-0.4534 0.41715-0.51898 0.68618l-0.15918 0.1003c-0.0016-0.24653 0.036-0.44414 0.1449-0.58195 0.0103-0.0128 0.02254-0.0373 0.0065-0.0329-0.42547 0.11889-0.59228 0.74201-0.67328 1.0254l-0.03558 0.0404c-0.06299-0.10425-0.05238-0.40796 0.04809-0.64577 0.0066-0.0156-0.0063-0.0295-0.02088-0.0206-0.58568 0.36673-0.4563 0.84196-0.42041 1.2449-0.15628 0.55339 0.13058 0.836 0.28422 0.97356 0.36093 0.32328 1.1027 0.28449 1.5294 0.4671 0.31132 0.13312 0.47081 0.46303 0.47439 0.76252 0.0075 0.62531-0.89286 0.95494-1.4444 0.8565-0.6557-0.11722-1.5022-0.56993-2.2247-1.3428 0.14037 0.009 0.35067 0.074 0.52351 0.14771 0.01555 0.007 0.02551 0.001 0.01676-0.0113-0.23862-0.35295-0.71479-0.61252-1.1515-0.87276 0.13348-0.006 0.32508 0.0686 0.48241 0.11912 0.02231 0.007 0.04504 0.007 0.02858-0.01-0.30998-0.32259-0.82803-0.62521-1.4981-0.85376 0.1176-0.0184 0.35349-0.0191 0.53535 0.0333 0.02442 0.007 0.03269-0.01 0.01285-0.0257-0.1083-0.0876-0.34596-0.18079-0.60292-0.23482-0.27143-0.0573-0.57188-0.13585-1.1027-0.20129 0.03129-0.0778 0.32244-0.0835 0.38732-0.078 0.01912 0.002 0.019-0.009 0.01078-0.0134-0.33125-0.16294-0.75242-0.18649-1.1564-0.12302-0.32439 0.0515-0.62161 0.15474-0.95611 0.29436-0.01376-0.0776-0.02758-0.16527-0.05922-0.25674l-0.35702 0.48524c-0.17972 0.15219-0.25665 0.23756-0.36711 0.35276-0.14089 0.14718-0.2596 0.31014-0.34552 0.35876-0.02468 0.0138-0.04884 0.0195-0.08319 0.0267 0.0877-0.38895 0.13117-0.79139 0.04074-1.2207-0.0086-0.0412-0.02005-0.0321-0.02191 0.009-0.02524 0.55516-0.17536 0.81952-0.38174 1.0889-0.17201 0.22447-0.36022 0.32661-0.5357 0.49877-0.1322 0.12975-0.21764 0.25518-0.26018 0.40469-0.1148-0.0818-0.06718-0.21115 0.12156-0.48548 0.0195-0.028 0.0227-0.0563-0.01951-0.0291-0.42151 0.25929-0.58997 0.80923-0.65935 1.2472-0.482 0.0238-0.6427-0.31147-0.56147-0.6855 0.08321-0.38335 0.39235-0.93293 0.62278-1.5488 0.09581-0.25593 0.19413-0.52921 0.2358-0.78684 0.14327 0.10439 0.21281 0.19557 0.25844 0.33856 0.06971-0.28899-0.06019-0.62064-0.17799-0.87772 0.14198 0.0542 0.22983 0.11695 0.27761 0.19702 0.03495-0.0856 0.0265-0.20534-0.02961-0.30091-0.08219-0.14021-0.24932-0.31833-0.39254-0.48832 0.1103 0.003 0.20272-0.0254 0.34169-0.008-0.12526-0.18265-0.28446-0.22325-0.58168-0.28875 0.10108-0.0864 0.14514-0.17563 0.37861-0.22594-0.13598-0.0688-0.36633-0.12952-0.70288-0.0715 0.08667-0.1001 0.09771-0.23364 0.25775-0.28945-0.05535-0.0473-0.14723-0.0494-0.24138-0.0219-0.12546 0.0355-0.25593 0.0923-0.39812 0.14668 0.03249-0.17481 0.11836-0.25456 0.33368-0.43082 0.01288-0.0105 0.02744-0.0208 0.0086-0.0322-0.10388-0.065-0.2698-0.0295-0.38209 0.0322 0.01237-0.20604 0.38415-0.62157 0.67468-0.73805 0.01925-0.008 0.02225-0.0285 0.0018-0.0308-0.30319-0.0345-0.62727 0.0541-0.96029 0.18366-0.1513 0.0598-0.32344 0.1465-0.48311 0.18006 0.04284-0.0604 0.07146-0.11579 0.08216-0.16483-0.06682-0.005-0.21953 0.003-0.31487 0.0401 0.25402-0.23849 0.41679-0.42577 0.66318-0.58264 0.01456-0.009 0.01556-0.023-0.0011-0.0199-0.36967 0.0719-0.67988 0.18745-0.92546 0.31562-0.41639 0.21724-0.68158 0.49713-0.98362 0.85188-0.01911-0.0453-0.02379-0.11642-0.01426-0.21036-0.12726 0.091-0.28504 0.25776-0.32532 0.51383 0.01158 0.0543 0.06598 0.12087 0.13549 0.19084l-0.29711 0.31375c0.01611-0.32269-0.01839-0.57137-0.20168-0.82364-0.18909-0.26054-0.54208-0.39609-0.53883-0.70638 0.0012-0.11521 0.08178-0.23795 0.23198-0.30861 0.21247-0.1001 0.44389-0.0831 0.51654-0.23056-0.10675 0.11255-0.3298 0.11677-0.50888 0.18624-0.18082 0.0706-0.28001 0.21421-0.29188 0.34214-0.01178 0.12763 0.04215 0.23917 0.14002 0.34301 0.11385 0.12102 0.29542 0.24846 0.4138 0.42671 0.07591 0.11411 0.12794 0.26593 0.14664 0.43886 0.01111 0.10302-0.000536 0.23741-0.03663 0.3365-0.0894-0.38072-0.26368-0.72889-0.54058-0.93146-0.2089-0.15263-0.49144-0.23156-0.70498-0.3389-0.19602-0.0985-0.31812-0.2471-0.29502-0.48627 0.0097-0.10228 0.04677-0.22227 0.12261-0.31836 0.19952-0.25237 0.46317-0.3564 0.50156-0.60078zm2.5966 2.172c0.02664 0.00035 0.05585 0.0116 0.0058 0.0808-0.05508 0.0763-0.23032 0.26488-0.34691 0.28361-0.06887 0.0109-0.16436-0.0797-0.20758-0.15439-0.007-0.0121-0.02283-0.0577 0.02157-0.0756 0.11919-0.049 0.3261-0.11254 0.50436-0.13316 0.0052-0.00052 0.01371-0.002 0.0226-0.001z"/>
  <path id="path79" fill="#a51c22" d="m44.344 81.359c-0.03803 0.0209-0.08537 0.0486-0.13495 0.0929-0.05279 0.0461-0.08954 0.13458-0.05639 0.16255 0.0198 0.0164 0.08191-0.006 0.11994-0.0591 0.04826-0.0674 0.06408-0.15402 0.07131-0.19693zm-0.30404-0.25826c-0.04072 0.0225-0.0914 0.0517-0.14469 0.0995-0.05669 0.0507-0.09605 0.14437-0.06039 0.17433 0.02122 0.0176 0.08789-0.006 0.12861-0.0633 0.05167-0.0721 0.06869-0.16528 0.07652-0.21118zm-0.252-0.466c-0.08448 0.0466-0.18965 0.10851-0.30004 0.20616-0.11747 0.10419-0.19909 0.29958-0.12527 0.36165 0.04396 0.0365 0.18222-0.0128 0.26672-0.13001 0.10724-0.14862 0.14244-0.34273 0.15859-0.4378zm-0.421-0.341c-0.09777 0.0781-0.19552 0.10516-0.25756 0.16501-0.10731 0.0957-0.27268 0.32066-0.18601 0.42707 0.0367 0.0448 0.19478-0.0122 0.28978-0.12926 0.08956-0.11015 0.14067-0.36359 0.15379-0.46282zm-2.6115 0.89c0.19913-0.0561 0.39111-0.12287 0.59028-0.22619-0.10656-0.1012-0.22784-0.11694-0.31984-0.0819-0.11106 0.0419-0.19727 0.15397-0.27043 0.3078zm-1.0117 3.3269c-0.23667-0.29547-0.50446-0.553-0.82639-0.7724 0.13284-0.0429 0.28713-0.0471 0.40921-0.0477l0.08301 0.13069 0.14094 0.0185-0.0026-0.008c0.11055 0.26421 0.19098 0.50062 0.19587 0.67965zm2.1292 2.4488c-0.332 0.15288-0.22858 0.45272 0.10252 0.80083 0.0115 0.0119 0.0049 0.0246-0.01223 0.0236-0.88841-0.0567-1.5044-1.3385-1.8736-2.1885-0.0039-0.004-0.0078-0.009-0.01185-0.0126 0.0018 0.001 0.0034 0.003 0.0051 0.004 0.18028 0.17991 0.57946 0.7249 1.0711 1.0684 0.25321 0.17701 0.49453 0.29737 0.71901 0.30357zm1.7373 0.96534c-0.55702-0.27685-0.81812-0.50451-1.1132-0.84861-0.0136-0.0165-0.02545-0.0296-0.03866-0.048-0.25008-0.34784-0.44017-0.73232-0.52419-1.3658l0.0028-0.00005c-0.0456-0.43085-0.01641-0.81489 0.11973-1.1802 0.19258-0.51688 0.53567-0.9752 0.69564-1.497 0.10631-0.34685 0.11255-0.73346-0.12796-1.0323-0.11533-0.1433-0.30613-0.28848-0.49672-0.26038l-0.000351-0.00014c0.06083-0.0289 0.18525-0.0683 0.25996-0.0742 0.29321-0.0231 0.64932 0.1348 0.72097 0.49585 0.15235 0.76788-0.33704 1.4546-0.47922 2.1895-0.10133 0.52363-0.10776 1.0205-0.054 1.4966 0.06367 0.5645 0.23757 0.95365 0.4505 1.2399 0.20446 0.27474 0.44516 0.49253 0.61988 0.81325-0.0073 0.0221-0.02166 0.0498-0.03527 0.0722zm9.2961 0.37951c-0.46431-0.14999-0.9287-0.39087-1.3929-0.69414-0.4152 0.24771 0.02952 0.70176 0.18308 1.0029 0.06976 0.13693-0.0038 0.21454-0.07266 0.20664-0.21735-0.025-0.56612-0.0528-0.96222-0.052 0.01867-0.18254-0.06073-0.33553-0.29943-0.50916l0.06976 0.0101c0.13811 0.0199 0.26737-0.0222 0.34905-0.178-0.94372-0.52345-1.5332-0.87109-1.2733-1.257 0.05988-0.0891 0.18023-0.15628 0.30069-0.24572 0.09168-0.0686 0.1725-0.14996 0.2982-0.26667-0.37131-0.58905-0.73583-0.92511-1.095-1.0727-0.5613-0.23051-1.046 0.0916-1.4606 0.60507-0.4501 1.042-1.3288 1.798-2.2673 2.0723l-0.08593-0.0646c0.10197-0.13515 0.13867-0.27099 0.16849-0.38403 0.07626-0.28922 0.02861-0.5108 0.32513-0.78941-0.16081-0.008-0.26748 0.009-0.40781 0.11476-0.18068-0.66633 0.31714-0.80566 0.75563-1.2038 0.2218-0.20132 0.45229-0.42457 0.58942-0.74852-0.11898 0.12435-0.26437 0.22718-0.42207 0.2369 0.03695-0.16655 0.29974-0.42767 0.48808-0.57067 0.53214-0.34607 0.96269-0.45607 1.3805-0.47426 0.81428-0.0348 1.6238 0.28255 2.3097 1.2244 0.18981 0.44472 0.80645 1.3258 1.2905 1.8645 0.36902 0.41067 0.79526 0.79927 1.2816 0.98503-0.01521 0.0646-0.02894 0.13087-0.05046 0.18684zm-12.052-6.496c0.10126-0.0108 0.19657-0.0431 0.29451-0.10764l0.01281 0.0763c-0.10901 0.0765-0.2241 0.0656-0.30768 0.0322zm0.3861-0.18212c0.11566-0.0826 0.2317-0.21292 0.34733-0.39087 0.08033 0.001 0.16073-0.005 0.18023-0.009-0.13574 0.19935-0.26339 0.3293-0.44716 0.47734-0.03031-0.0306-0.04958-0.05-0.08038-0.0775zm0.02889-1.6774 0.000718 0.002c0.11227-0.13186 0.21948-0.25341 0.33123-0.36517 0.34064 0.007 0.60673-0.0615 0.92932-0.21235l-0.01346 0.0125c0.09541-0.0369 0.24799-0.0455 0.31476-0.0401-0.01071 0.0487-0.03935 0.10529-0.08219 0.16503 0.15966-0.0331 0.3317-0.12115 0.483-0.18029 0.33302-0.13016 0.65734-0.21868 0.96052-0.18365 0.02053 0.002 0.0175 0.0234-0.0018 0.0309-0.0087 0.004-0.01788 0.007-0.02694 0.0113-0.60557 0.14664-1.1818 0.4401-1.4549 1.0123-0.0474-0.23615-0.19044-0.4956-0.36347-0.58442-0.21258 0.20806-0.51357 0.45856-0.62578 0.4447-0.08431-0.0102-0.01374-0.1965 0.08726-0.36295-0.14512-0.0219-0.25796 0.23174-0.38153 0.34591-0.04494-0.0377-0.12582-0.0331-0.24237 0.014 0.02829-0.0367 0.05674-0.0743 0.08563-0.11009zm15.603 4.7583c0.10107 0.21464 0.16859 0.44766 0.20298 0.69133 0.05744 0.40649 0.03617 0.86521-0.11444 1.2519-0.12168 0.31236-0.33544 0.61351-0.59644 0.88678-0.35055 0.36698-0.81283 0.67949-1.4034 0.82452-0.29561 0.073-0.60315 0.0923-0.96758 0.10331 0.06067-0.27109 0.17064-0.73639 0.2985-1.0194 0.07217-0.15977 0.27278-0.26888 0.51394-0.32313 0.5504-0.1235 1.3305-0.0391 1.799-0.57176 0.39069-0.44373 0.40052-1.1694 0.26744-1.8436z"/>
 </g>
 <g id="bluebird" fill-rule="evenodd" transform="matrix(.17833 0 0 .17833 -5.2413 -25.043)">
  <path id="path19" fill="#f2f2f2" d="m195.83 404.26 6.2609 6.7243c0.1829 7.9578 3.2961 15.857 7.6311 22.607 5.2318 8.1472 15.985 14.898 24.596 21.508-2.5091 11.128-0.5001 20.86 4.24 30.066 6.5135 12.652 16.796 22.04 28.396 30.652 9.9191 7.3631 20.836 14.292 30.819 20.735 9.746 6.2908 19.976 12.659 31.182 17.844 2.8484 1.318 5.0121 1.7118 7.9522 1.4004-13.987-6.4551-27.643-19.332-36.439-29.728-12.357-14.604-13.099-15.692-15.128-25.303-2.6502-12.549 3.5563-19.84 13.458-23.282 15.305-5.3185 40.676-0.8837 50.298 2.1328 18.459 5.7864 35.726 13.06 54.656 24.28-6.5234-6.9395-24.302-20.214-36.703-28.187-10.604-6.8176-15.724-11.322-27.659-15.584 7.2507-2.5315 14.114-4.7741 23.053-6.7885 13.728-3.0938 24.657-5.0704 42.414-7.7523 0.898-0.1357 1.8948-0.477 2.2662-1.0256-17.388 0.4408-31.408 0.4923-48.771-0.2104-9.932-0.4018-21.964-1.2163-30.722-2.4119-6.6092-0.902-14.679-3.7901-21.06-6.8062-9.0549-4.2802-14.098-8.199-17.973-16.576-8.4995-18.375-0.7708-38.498 15.048-50.839 8.01-6.249 16.624-9.8479 33.115-13.821-2.0093-0.9733-4.7063-1.598-9.1725-1.4-10.984 0.4874-28.187 4.5555-37.832 8.8345-16.467 7.3062-31.996 14.385-40.906 24.418-7.0682 7.9586-11.716 16.604-12.806 27.388-10.634-7.8664-24.181-11.787-31.915-6.989z"/>
  <path id="path21" fill="#005995" d="m190.28 403.12 5.6971 7.3326c1.1218 8.2789 5.1853 15.674 9.8114 22.472 5.5836 8.2039 14.563 19.117 22.123 25.278l65.772 54.865c-12.71-17.056-14.967-29.78-7.9872-37.02 7.7241-8.0121 25.247-10.219 38.715-9.3535 28.01 1.7997 57.655 14.092 83.222 27.222-6.8326-6.9291-21.423-13.889-34.2-21.709-10.926-6.6864-48.685-17.981-60.845-22.009l-81.806-38.637c-10.998-7.7616-24.641-12.256-32.215-7.1137z"/>
  <path id="path23" fill="#0070b5" d="m190.04 397.47 6.5603 6.716c0.5052 8.1555 3.9513 16.166 8.5783 22.965 5.5843 8.2047 13.454 15.417 22.369 21.949-2.0706 11.484 0.3403 21.406 5.4737 30.712 5.2961 9.6011 13.843 18.544 26.269 27.607 6.3729 4.6479 13.579 8.9689 21.822 13.875 14.712 8.7573 31.87 19.069 49.34 26.682 2.9148 1.27 5.1035 1.6115 8.044 1.2077-14.31-6.218-29.18-19.392-38.435-29.801-13.002-14.623-20.451-27.696-22.896-37.49-3.1679-12.688 2.8301-18.854 14.05-20.545 9.1951-1.3858 22.206-0.2575 36.894 2.3005 8.2338 1.4339 17.072 3.4779 26.218 6.1111 18.776 5.4052 37.942 13.464 53.435 24.288-6.8327-6.929-22.778-17.695-35.557-25.516-10.892-6.666-23.476-13.818-35.601-17.853-0.101-0.0319-0.0724-0.0593 0.002-0.0842 7.1503-2.7862 15.153-5.303 24.002-7.6133 13.664-3.5675 29.154-5.7854 45.875-9.3976 0.8914-0.1927 1.8838-0.5436 2.2348-1.1168-8.7 0.4745-16.783 0.6862-24.363 0.9361-10.388 0.3429-19.762 0.5859-28.219 0.4782-9.9923-0.1272-23.349-0.5808-32.194-1.5555-6.6752-0.7355-14.896-3.4649-21.428-6.3749-9.2682-4.1295-16.676-9.9658-20.908-18.446-2.447-4.9046-3.7025-10.06-3.7182-15.104-0.0416-13.403 7.4968-26.578 18.091-35.603 7.7937-6.6394 17.662-10.616 34.675-15.434-2.0575-0.9404-5.2766-1.2368-9.755-0.9052-11.014 0.816-27.776 4.9648-37.944 8.7626-16.949 6.3302-31.868 17.199-40.412 27.744-6.7778 8.3649-11.097 17.364-11.756 28.454-10.998-7.7615-24.764-11.393-32.338-6.2504z"/>
 </g>
 <path id="path17" fill-rule="evenodd" fill="#0070b5" d="m48.013 31.386c12.542 0 22.713 10.162 22.713 22.692s-10.171 22.692-22.713 22.692-22.713-10.162-22.713-22.692 10.171-22.692 22.713-22.692zm-0.000053 0.24934c12.404 0 22.463 10.05 22.463 22.443s-10.059 22.443-22.463 22.443-22.463-10.05-22.463-22.443 10.059-22.443 22.463-22.443zm-0.10002-1.8594c13.423 0 24.308 10.877 24.308 24.29s-10.885 24.29-24.308 24.29-24.308-10.877-24.308-24.29 10.885-24.29 24.308-24.29zm0.01188 0.94761c12.906 0 23.372 10.453 23.372 23.342s-10.466 23.342-23.372 23.342-23.372-10.453-23.372-23.342 10.466-23.342 23.372-23.342z"/>
 <path id="path25" fill-rule="evenodd" fill="#fff" d="m31.966 50.963 3.7715 0.0326c-0.76395-3.2997-2.7614-4.4597-5.4207-4.2884 0.28124 1.7722 0.84006 3.381 1.6492 4.2553zm5.0802 6.1244c-0.11644 1.6527 0.52331 2.9599 1.253 4.034 1.2576 1.851 3.0416 3.2838 4.8496 4.5429-1.4747-1.5714-2.7507-3.139-3.5689-4.7073-0.54818-1.0507-0.96776-2.1019-0.95025-3.1549l-0.54982 0.63246c-0.12188 0.14016-0.60643-0.44526-1.0336-1.3471zm0.30782-9.0383 1.0557 0.87975 0.74746-0.1211c-0.31089-1.54-0.28864-2.9658 0.05167-4.2708 0.3403-1.3052 0.98787-2.5006 2.0703-3.5471-1.3927 0.59653-2.4414 1.6502-3.1068 2.9801-0.55135 1.1018-0.80756 2.3813-0.81833 4.0792zm-5.4097-0.38142c0.10969 0.2413 0.54019 0.90754 0.84473 0.98733 0.31287 0.0822 0.65081-0.43277 0.41688-0.71316-0.16052-0.19223-1.0276-0.27417-1.2616-0.27417z"/>
</svg>
