<svg xmlns="http://www.w3.org/2000/svg" viewBox="0 0 269.25 299.58"><defs><style>.cls-1{fill:#030000;}.cls-2{fill:#cd1f25;}.cls-3{fill:#020000;}.cls-4{fill:#fefefe;}.cls-5{fill:#c29392;}.cls-6{fill:#eff0f0;}.cls-7{fill:#690a0f;}.cls-8{fill:#050101;}.cls-9{fill:#670a0e;}.cls-10{fill:#f0f0f0;}.cls-11{fill:#772427;}.cls-12{fill:#661115;}.cls-13{fill:#512a2a;}.cls-14{fill:#5c1417;}.cls-15{fill:#453131;}.cls-16{fill:#9e6263;}.cls-17{fill:#636161;}.cls-18{fill:#8b8989;}.cls-19{fill:#8c8989;}.cls-20{fill:#009145;}.cls-21{fill:#fafafa;}.cls-22{fill:#f9f9f9;}.cls-23{fill:#680a0f;}.cls-24{fill:#faf9f9;}.cls-25{fill:#670a0f;}.cls-26{fill:#f8f8f8;}.cls-27{fill:#f8f7f7;}.cls-28{fill:#f0f0ef;}.cls-29{fill:#efefef;}.cls-30{fill:#eee;}.cls-31{fill:#ede8e8;}.cls-32{fill:#00853f;}.cls-33{fill:#e7e6e6;}.cls-34{fill:#008941;}.cls-35{fill:#00803d;}.cls-36{fill:#00833e;}.cls-37{fill:#dfdfdf;}.cls-38{fill:#007e3c;}.cls-39{fill:#dbdada;}.cls-40{fill:#007a3a;}.cls-41{fill:#dedddd;}.cls-42{fill:#e2e1e1;}.cls-43{fill:#00813d;}.cls-44{fill:#dfdede;}.cls-45{fill:#dddcdc;}.cls-46{fill:#dadada;}.cls-47{fill:#e0e0e0;}.cls-48{fill:#e4e4e4;}.cls-49{fill:#e0dfdf;}.cls-50{fill:#e5e4e4;}.cls-51{fill:#e4e3e3;}.cls-52{fill:#e5e5e5;}.cls-53{fill:#dfdfde;}.cls-54{fill:#008d43;}.cls-55{fill:#ebebeb;}.cls-56{fill:#e8e8e7;}.cls-57{fill:#601114;}.cls-58{fill:#d4d3d3;}.cls-59{fill:#c9dad0;}.cls-60{fill:#dcdcdb;}.cls-61{fill:#d0cfcf;}.cls-62{fill:#00823e;}.cls-63{fill:#d3d2d2;}.cls-64{fill:#d7d6d6;}.cls-65{fill:#007d3b;}.cls-66{fill:#d5d4d4;}.cls-67{fill:#d8d8d7;}.cls-68{fill:#5c080d;}.cls-69{fill:#016530;}.cls-70{fill:#016e34;}.cls-71{fill:#016630;}.cls-72{fill:#f4f4f4;}.cls-73{fill:#c7c6c6;}.cls-74{fill:#fcfcfc;}.cls-75{fill:#e2e2e2;}.cls-76{fill:#f2f2f2;}.cls-77{fill:#d6c2c1;}.cls-78{fill:#016a32;}.cls-79{fill:#d5d4d3;}.cls-80{fill:#00843f;}.cls-81{fill:#c8c7c6;}.cls-82{fill:#008740;}.cls-83{fill:#008e43;}.cls-84{fill:#d8d7d6;}.cls-85{fill:#009647;}.cls-86{fill:#e6e5e5;}.cls-87{fill:#e9e9e8;}.cls-88{fill:#62605f;}.cls-89{fill:#d8d7d7;}.cls-90{fill:#02361a;}.cls-91{fill:#f5f3f3;}.cls-92{fill:#64090e;}.cls-93{fill:#63090e;}.cls-94{fill:#d7d3d3;}.cls-95{fill:#62090d;}.cls-96{fill:#66090e;}.cls-97{fill:#58080c;}.cls-98{fill:#5c080c;}.cls-99{fill:#4c070a;}.cls-100{fill:#4f070b;}.cls-101{fill:#230304;}.cls-102{fill:#53070b;}.cls-103{fill:#200204;}.cls-104{fill:#3a080a;}.cls-105{fill:#ebdedd;}.cls-106{fill:#55070b;}.cls-107{fill:#49060a;}.cls-108{fill:#57080c;}.cls-109{fill:#fcfbfb;}.cls-110{fill:#fbfbfb;}.cls-111{fill:#f6f6f6;}.cls-112{fill:#fdfdfd;}.cls-113{fill:#262424;}.cls-114{fill:#211f1f;}.cls-115{fill:#292727;}.cls-116{fill:#726f6f;}.cls-117{fill:#252323;}.cls-118{fill:#3e3c3c;}.cls-119{fill:#575554;}.cls-120{fill:#2c2929;}.cls-121{fill:#0b0a0a;}.cls-122{fill:#242222;}.cls-123{fill:#646262;}.cls-124{fill:#322f2f;}.cls-125{fill:#363333;}.cls-126{fill:#050404;}.cls-127{fill:#02160b;}.cls-128{fill:#031209;}.cls-129{fill:#030603;}</style></defs><title>carpi</title><g id="Слой_2" data-name="Слой 2"><g id="Слой_1-2" data-name="Слой 1"><path class="cls-1" d="M134.62,299.58a11.55,11.55,0,0,0-3.53-4.31c-4.87-4.35-10.47-7.62-16.15-10.78-12.93-7.2-26.73-12.38-40.52-17.58-12.35-4.65-24.67-9.36-35.95-16.35C26,242.8,16.15,232.58,10,219.06A53.52,53.52,0,0,1,5.82,189c1.34-9.85,3.79-19.47,5.88-29.17a310.32,310.32,0,0,0,6-35.57,165,165,0,0,0,.4-31.58A155.21,155.21,0,0,0,7.53,50,127.31,127.31,0,0,0,.72,35.44c-.21-.38-.48-.73-.72-1.1V34q7.83-8.16,15.67-16.34T31.5,1a2.8,2.8,0,0,1,2.27-1Q134.83,0,235.86,0A2.68,2.68,0,0,1,238,.93q15.3,16.14,30.66,32.21a1.55,1.55,0,0,1,.24,2.21,157.44,157.44,0,0,0-16.38,49c-2.44,15.11-1.88,30.19-.05,45.3,1.78,14.73,5.2,29.14,8.38,43.6a136.6,136.6,0,0,1,3.35,20.18c1,15.26-4.22,28.41-13.58,40.15-7.88,9.89-18,16.84-29.23,22.38s-22.75,9.63-34.31,14c-14.37,5.46-28.48,11.49-41.44,19.91a47.57,47.57,0,0,0-8.48,6.67,7.56,7.56,0,0,0-2.21,3.05Z"/><path class="cls-2" d="M134.85,296.81c-9.3-9.18-20.82-14.73-32.37-20.17-13-6.12-26.72-10.54-40-15.93-10.62-4.31-21-9.11-30.12-16.16-10.57-8.15-18.51-18.3-22.94-31a52.49,52.49,0,0,1-1.91-26.11c1.93-11.89,5-23.54,7.37-35.33a250.68,250.68,0,0,0,4.89-34.73,150.06,150.06,0,0,0-1.15-32.88A161,161,0,0,0,7,45c-1.41-3.2-3-6.32-4.55-9.44a1.57,1.57,0,0,1,.24-2.17q14.79-15.46,29.5-31a2.86,2.86,0,0,1,2.31-1c4.67.05,9.33,0,14,0q93,0,185.92,0a4.31,4.31,0,0,1,3.45,1.48Q252.09,18,266.44,32.91a2.23,2.23,0,0,1,.47,3.11A157.79,157.79,0,0,0,251,84.49c-1.95,12.18-1.85,24.43-.86,36.7,1.23,15.36,4.38,30.38,7.74,45.37,2,8.82,4.12,17.62,4.88,26.65a50.9,50.9,0,0,1-5.66,27.69c-6.56,12.93-16.56,22.51-29,29.76-9.77,5.71-20.24,9.86-30.77,13.86-13.53,5.14-27.17,10.05-40,16.87-6.38,3.39-12.67,6.9-18.33,11.45C137.53,294.06,136.2,295.48,134.85,296.81Z"/><path class="cls-3" d="M134.83,290.83c-4-5.38-9.47-8.66-15-11.92-11.73-7-24.32-12.1-37.06-16.88-10.75-4-21.53-8-31.77-13.27-12-6.21-22.36-14.43-29.69-26-5.71-9-8.91-18.84-8.58-29.6.21-6.84,1.6-13.54,3.09-20.2,3-13.58,6.27-27.12,8-40.95a167.12,167.12,0,0,0,.88-37.87A170,170,0,0,0,10,40.48a1.55,1.55,0,0,1,.33-2Q24,24.1,37.63,9.7a2,2,0,0,1,1.74-.77,11.22,11.22,0,0,0,1.16,0q94.31,0,188.59,0a4.42,4.42,0,0,1,3.57,1.57Q245.76,24.37,259,38.14a2.06,2.06,0,0,1,.44,2.72,173.4,173.4,0,0,0-13.51,44.77,156.22,156.22,0,0,0-1.07,37.67c1.2,14.75,4.32,29.16,7.55,43.55,1.88,8.39,3.9,16.76,4.4,25.38A48,48,0,0,1,252.33,215c-6.12,13.53-16.1,23.5-28.79,30.93-10.14,5.95-21.07,10.16-32,14.27-13.52,5.07-27,10.21-39.59,17.36a88.07,88.07,0,0,0-12.74,8.47A22.35,22.35,0,0,0,134.83,290.83Z"/><path class="cls-4" d="M248,68.11c-1.29,5.5-2.56,11-3.48,16.59a150.54,150.54,0,0,0-1.47,35.67,255.2,255.2,0,0,0,5.19,34.68c.15.71.2,1.43.3,2.14.7,2.91.2,5.86,0,8.76a98.18,98.18,0,0,1-3.19,19.84,80.26,80.26,0,0,1-15.18,30.46,54,54,0,0,1-23,17c-6.57,2.48-13.34,2.64-20.18,1.66-10.43-1.49-19.74-5.78-28.53-11.39a2.81,2.81,0,0,1-1.39-1.37c-.06-.79.56-1,1.1-1.27a34,34,0,0,1,7-2.23c.7-.14,1.58-.35,2,.33s-.25,1.34-.64,1.91a19.07,19.07,0,0,1-2,2.58c2.71-2.16,5.15-5.16,8.56-7a3.69,3.69,0,0,1,.4-.29c.55-.34,1.14-.8,1.76-.26s.32,1.09.07,1.65a18.45,18.45,0,0,1-5.36,7c3-.21,4.58-2.43,5.77-5.06.23-.5.28-1.08.49-1.59,1.06-1.23,1.25-1.22,2.32.18.23.86.63,1.65.88,2.51a3.22,3.22,0,0,1-1.31,4.08c-1.09.85-2.33,1.49-3.35,2.46a10.62,10.62,0,0,0,4.16-1.66,6.89,6.89,0,0,1,4.29-1,1.71,1.71,0,0,1,1.78,1.79,5.56,5.56,0,0,1-.94,3.79,2.87,2.87,0,0,0,1.72-1.63,12.64,12.64,0,0,0,1.74-6.17,1.54,1.54,0,0,1,.33-1.09c.68-.37,1.34,0,2,0a3.16,3.16,0,0,1,1.63,1.15,17.59,17.59,0,0,0,6,7.44c-.68-1.74-1.16-2.32-3.71-4.23a4.22,4.22,0,0,1-2-3.09,4.57,4.57,0,0,1-.1-2c1.18-2.32,1.8-2.45,4.06-.81,1.91,2.6,4.43,3.3,7.64,3.21,2.88-.08,5.81.7,8.7,1.23a4.36,4.36,0,0,0,1.8.13,10.33,10.33,0,0,0-3.63-1c-3.63-.47-7.11-1.33-9.52-4.46-.36-.48-.86-.87-1-1.52.46-1.17,1.51-1.47,2.58-1.76a1.93,1.93,0,0,1,1.27.27c3.51,2.24,7.5,2.4,11.46,2.59,2,.09,4,.6,6.05.26a23.07,23.07,0,0,0-8.78-2,16.24,16.24,0,0,1-3.94-.5,3.26,3.26,0,0,1-2.47-2,2,2,0,0,0-2.26-1.51,4.51,4.51,0,0,1-2.26-.38,19.82,19.82,0,0,0-5.68-2.34,4.73,4.73,0,0,1-3.8-3.92,28.21,28.21,0,0,1-.87-5.25,20.77,20.77,0,0,1-.32-3.7,28.87,28.87,0,0,1,.1-4.83A1.91,1.91,0,0,0,191,192c0-4.68.83-9.34.37-14a7.44,7.44,0,0,1-.17-1.82c0-5.27-.51-10.52-.57-15.78a45.45,45.45,0,0,1,1.38-13,9.51,9.51,0,0,1,4.78-5.74c2.06-1.11,3.77-2.71,5.87-3.79,1-.51,1.39-1.83,2.44-2.44s2.07-1.15,3.21-.22c.54.45,1,.17,1.53-.11a2,2,0,0,1,2.85.28.79.79,0,0,0,.88.32c.88-.34,1.86.17,2.57,0,2.05-.61,3.93.3,5.89.27.82,0,1.55-.12,1.95-1a1.44,1.44,0,0,1,1.46-.91c1.13.1,1.44-.57,1.58-1.48.34-2.14.46-4.53-1-6.07s-2.83-3.07-2.84-5.41c0-.57-.6-.86-1.2-1-2.14-.47-4.19-1.05-5.1-3.43-.32-.82-1.27-.86-2-.83-1.52.06-2.6-.42-2.94-2a1.21,1.21,0,0,0-1.36-1c-4.25.09-8.34-1-12.46-1.7a25.58,25.58,0,0,0-3.81-.35c-1.3,0-2.1-.65-2.09-2a6.12,6.12,0,0,0-.8-2.86,3.39,3.39,0,0,1-.34-2.57c.39-1.37,1.2-1.92,2.48-1.38s2.2.65,3.14-.41a1.62,1.62,0,0,1,1-.47c1.22-.14,2.34-.11,1.42-2-.47-1,.63-1.44,1.54-1.38,1.15.08,2.08.12,2.15-1.46,0-.68.79-.88,1.43-.91s1.28-.28,1.39-1.11c0-.21-.11,0,0-.15,1.2-1,2.28-2,1.4-3.77,0-.11.1-.4.22-.41,2.09-.19,2.55-2.75,4.72-3.15-1.06-1.34-.91-2.28.9-2.52a.5.5,0,0,0,.45-.61c-.33-1.29.76-1.71,1.32-2.54,1.45-2.15,4.09-3.21,5-5.75-.1-.2-.28-.13-.41-.07a10.86,10.86,0,0,1-7,.52c-5.52-1.16-9.62,1-12.74,5.46a24.33,24.33,0,0,1-5,5.11,6.6,6.6,0,0,1-3.16,1.42,2.37,2.37,0,0,1-3-2.08,1.43,1.43,0,0,1,.21-1.41c.43-.44.91-.24,1.4-.1s1,.8,1.48.18a1.65,1.65,0,0,0,.13-1.6,9.22,9.22,0,0,0-3-4.53,2.48,2.48,0,0,0-3.59.18,29.4,29.4,0,0,0-5.23,7.06c-1.32,2.21-2,2.37-4.27,1.06a6.9,6.9,0,0,1-2.27-2.16c-3.72-5.49-8.86-7.65-15.38-6.67a24.07,24.07,0,0,1-7.62-.27c-.27,0-.52-.16-.79-.21-.49-.08-.23.16-.11.32A7.78,7.78,0,0,0,151.17,79c.41.29,1,.64.89,1.13-.18,1.41,1,1.8,1.67,2.62,1.25,1.55,3.24,2.46,3.87,4.55.18.6.89.58,1.37.83.73.37,1.43.76,1,1.77-.32.7.3.68.65.87,1.51.82,1.65,1.31.79,2.86.67.28,1.41.27,2.09.51.84.3,1.59.67,1.21,1.79-.23.67.05,1,.68,1,1.21,0,1.72.6,1.44,1.83a.6.6,0,0,0,.62.79c3.09,0,5.57,1.78,8.31,2.75,3.15,1.11,3.73.57,3.66,5.39a20.52,20.52,0,0,0,.26,5.64c.14.51-.09.82-.54,1.08a5.37,5.37,0,0,1-4.72-.39,5.23,5.23,0,0,0-.49-.45.94.94,0,0,0-1.1,0c-1.43,1-3.82-.88-4.76,1.66a2.21,2.21,0,0,1-2.91,1.51c-.87-.24-1.47.32-2,.94-.88,1.07-1.71,2-3.08.47-.56-.61-1,.18-1.21.63-.56,1.08-1.25,2.1-1.77,3.2s-1.1,1.43-2.11.82a2.1,2.1,0,0,0-2.34.18,19,19,0,0,0-4.67,4.22,3.41,3.41,0,0,0-.58,2.38,13,13,0,0,1,0,2.16c-.43,2.33,1.29,3.35,2.68,4.58a1.21,1.21,0,0,0,1.12.18,3,3,0,0,1,2.39.39,2.08,2.08,0,0,0,2.18-.13c1.21-.62,2.58-.83,3.74-1.63a1.46,1.46,0,0,1,2,.6,2.67,2.67,0,0,0,2.58,1.16h5.67a4.71,4.71,0,0,1,4,1.94c1.54,2,2.95,4.17,5.3,5.42.95.51.9,1.76,1.63,2.46.38.63.85,1.19,1.28,1.78s.82.94,1.12,1.49a18.62,18.62,0,0,1,1.28,7.16c0,4.91,1,9.72,1.21,14.59a85.75,85.75,0,0,1,0,10.14c-.15,2.43-.29,4.86-.52,7.29,0,1.27-.42,2.5-.32,3.78-.18,1.5-.33,3-.45,4.53-.57,2.81-.86,5.69-1.91,8.4-.29,2.14-2,3-3.6,3.93a10.07,10.07,0,0,0-1.86,1.18c-1.76.8-3.69.37-5.51.75-2.42.22-3.63,2.13-5,3.7-2.67,3-6.1,4.63-9.81,5.83a2.1,2.1,0,0,1-1.14,0,47.39,47.39,0,0,1-7.94-5.75,153.51,153.51,0,0,1-15.95-14.86Q121.21,189.53,112,177.46c-11.5-15.13-22-31-32.18-47-9.27-14.56-18.19-29.35-27.93-43.62-4.79-7-9.69-14-15.78-20-.47-.46-1.1-.94-.89-1.68s1-.78,1.65-.9c8.62-1.65,17.29-3,26-4.17,5-.68,10-1.31,15-1.8,5.79-.58,11.58-1.15,17.4-1.51,7-.43,14-.77,21.09-1.06,11.38-.46,22.75-.26,34.13-.17,7,0,14,.43,20.92,1,5.75.44,11.49,1,17.23,1.51,8.45.8,16.87,1.86,25.27,3.07q16.32,2.37,32.41,6C247,67.33,247.68,67.42,248,68.11Z"/><path class="cls-2" d="M157.21,222.06c11.51,7.83,23.91,13.07,38.11,12.95,9.52-.08,17.65-3.92,25-9.66,11-8.62,18-20,22.64-33A103.48,103.48,0,0,0,248.47,159c0-.6.06-1.21.1-1.82,1.2,3.92,1.88,8,2.79,12A174,174,0,0,1,255,188.92a49.51,49.51,0,0,1-7,31.41c-7.25,12.25-17.81,20.81-30.3,27.23-9.79,5-20.09,8.86-30.38,12.71-13.52,5.05-26.87,10.49-39.3,18-4.52,2.72-9,5.57-12.61,9.46-.41.45-.66.58-1.17.06-6.34-6.52-14.3-10.62-22.21-14.78-11.63-6.1-24-10.47-36.21-15.13-11.15-4.25-22.27-8.61-32.34-15.16-12-7.81-21.13-18-26.26-31.57a31.56,31.56,0,0,1-1.84-6.55,1.65,1.65,0,0,1,1.5.56q6.27,5.34,12.33,10.92c11.2,10.35,22.17,21,34.57,30C74.51,253.77,86,259.94,99,263.17a80.3,80.3,0,0,0,23.61,2.28,65.44,65.44,0,0,0,13.31-2,10.45,10.45,0,0,1,2.79-.5,104.49,104.49,0,0,1-16-2.5,94.23,94.23,0,0,1-21.48-7.56,100.41,100.41,0,0,1-22.15-15c-10.3-9.14-19.1-19.63-27.47-30.51-7.21-9.37-14.22-18.9-21.8-28-3.31-4-6.77-7.79-10.22-11.62a4.73,4.73,0,0,1-.86-1.22c2.12-9.52,4.19-19,5.73-28.68a33.81,33.81,0,0,1,.82-5.08c1.16.2,1.74,1.15,2.39,1.94,8,9.56,15.16,19.71,22.31,29.88C60,178.84,70,193.1,81.25,206.35c9.82,11.53,20.49,22.16,33.34,30.39A79.68,79.68,0,0,0,148,249.13a55.15,55.15,0,0,0,33.78-6.41,16.27,16.27,0,0,1,2.09-1,91.47,91.47,0,0,1-29.8-4.21A85.8,85.8,0,0,1,127.64,223c-11-8.72-20.1-19.24-28.29-30.58C87.71,176.3,77.87,159,67.55,142,60.16,129.9,52.61,117.86,44,106.55A166.52,166.52,0,0,0,27.62,87.71a16.77,16.77,0,0,1-2.15-2.31,6.07,6.07,0,0,0-.46-.83,216.89,216.89,0,0,0-5-22.11c.85-1,2.09-1,3.19-1.22a478.29,478.29,0,0,1,48.61-8.07c8.15-1,16.33-1.69,24.52-2.25,5.25-.35,10.51-.65,15.78-.81,8.87-.27,17.75-.84,26.62-.55,8.53.27,17.07.33,25.6.85,10.41.63,20.81,1.38,31.17,2.5q19.47,2.12,38.7,5.79c4.58.88,9.15,1.79,13.68,2.91.62.15,1.35.17,1.74.85L248,68.11c-7.64-1.92-15.38-3.37-23.15-4.71-14.28-2.46-28.65-4.22-43.08-5.48a545.19,545.19,0,0,0-83.7-.83,503.53,503.53,0,0,0-61.4,7.74c-.47.09-.93.22-1.38.32,0,.24,0,.38.06.44,8.57,8.15,15,18,21.4,27.76,11.66,17.76,22.55,36,34.31,53.73,12.12,18.23,24.79,36,39.77,52.08A156.32,156.32,0,0,0,155.49,221c.23.68-.63.6-.74,1.06C155.57,222.48,156.4,221,157.21,222.06Z"/><path class="cls-4" d="M249.59,62.46c-8.72-2-17.47-3.7-26.28-5.17q-17-2.85-34.15-4.52a555.33,555.33,0,0,0-112.89.45,482.89,482.89,0,0,0-53.2,8.55L20,62.46c-2.08-6.14-4.11-12.3-6.66-18.27-.66-1.55-2.15-3.15-1.72-4.67s2.12-2.48,3.26-3.69Q26.44,23.64,38,11.42a3.19,3.19,0,0,1,2.58-1.1q94.2,0,188.41,0a3.19,3.19,0,0,1,2.58,1.1q12.75,13.5,25.57,26.93a2.1,2.1,0,0,1,.5,2.82,150.48,150.48,0,0,0-7.5,19.9C250,61.54,249.77,62,249.59,62.46Z"/><path class="cls-4" d="M25.6,85c13.69,13.19,24.56,28.58,34.7,44.54,9.91,15.59,19,31.7,29,47.24,8.23,12.82,17,25.23,27.72,36.12,10,10.2,21.42,18.43,35,23.36a86.14,86.14,0,0,0,31.22,4.91,3.26,3.26,0,0,1,1.79.15,52.52,52.52,0,0,1-9.8,4.91c-12.72,5.06-25.61,4.64-38.53,1-15.34-4.31-28.06-13-39.6-23.71-12.79-11.81-23.45-25.44-33.68-39.43-9.82-13.44-19-27.34-29.12-40.56a114.65,114.65,0,0,0-8.92-10.76c.35-3.7.73-7.39,1-11.1a146.27,146.27,0,0,0-1-34.54c-.06-.38-.07-.77-.1-1.16S24.86,85.14,25.6,85Z"/><path class="cls-4" d="M18.79,166.56A117.44,117.44,0,0,1,28.34,177C37.7,187.89,46.07,199.59,55,210.88c8.66,11,17.78,21.59,28.83,30.35a98.27,98.27,0,0,0,47.44,20.36c2.69.4,5.39.72,8.18,1.09-.29.5-.78.49-1.21.61-21.39,5.63-41.56,2.15-60.79-8.17-11.82-6.34-22.13-14.76-32.08-23.65-9.4-8.4-18.36-17.27-28-25.4-.63-.54-1.31-1-2-1.52a47.22,47.22,0,0,1-.56-17.65C15.69,180,17.25,173.3,18.79,166.56Z"/><path class="cls-5" d="M25.6,85c-.38.24-.13.69-.32,1A2,2,0,0,1,25,84.57.67.67,0,0,1,25.6,85Z"/><path class="cls-1" d="M184.63,189.29a139.11,139.11,0,0,0,.53-15.94,46.11,46.11,0,0,0-.58-6.95c-.86-4.76-.43-9.63-1.31-14.39a10.18,10.18,0,0,0-.76-2.34,1.11,1.11,0,0,1,.22-.93,1,1,0,0,1,.63-.34,11.76,11.76,0,0,1,1.3.22c2,.07,2,.07,1.74,2.12-.07.62-.14,1.31.38,1.73a3.22,3.22,0,0,1,1,3.75.89.89,0,0,0,.31.9c1.37-1.73,1.07-3.68.77-5.73-.48-.25-1.14.79-1.66,0a2.25,2.25,0,0,1,0-1.93c.3-1.22-.1-2.43,0-3.65a25.05,25.05,0,0,1,.49-5,6.86,6.86,0,0,0-.35-4.39c-.61,2-1.55,4-1.11,6.25a27.38,27.38,0,0,1,.49,4.13c-.08,1.13-.32,1.41-1.51.72-1-.6-2-.93-1.53-2.35-.1-.8,1.38-1.4.28-2.31-.16-.21-.32-.35-.49,0a1.23,1.23,0,0,0,0,1.45c.23.95.18,1.79-.88,2.22-.42,0-.66-.27-1-.47-.87-.52-.13.38-.36.44-.09.32-.18.64-.63.51-1.89-3.36-5.78-4.95-7.51-8.49-.51-1.06-1.7-1.12-2.79-1.14-2.39,0-4.77-.15-7.16-.18-.91,0-1.57-.17-1.92-1.17-.43-1.23-1.28-1.07-2.07-.33s-1.24,1.66-2.49.94c-.24-.14-.48.05-.62.36-.65,1.45-1.84.92-2.55.34a1.79,1.79,0,0,0-2.2-.35c-.68.32-1.19-.09-1.8-.46-3.82-2.3-2.54-5.93-2.11-9.07.18-1.28,2-2.38,3.1-3.49a10.86,10.86,0,0,1,3-1.83c.59-.29,1-.47,1.58.17.85,1,1.36.4,1.8-.5.66-1.34,1.33-2.67,2.11-3.93.52-.83,1.23-1.53,1.69.12.25.9.84.78,1.38.33a15.9,15.9,0,0,0,1.23-1.35c.59-.6,1.21-1.21,2.16-.69,1.15.62,1.77.06,2.19-1a3.75,3.75,0,0,1,1.35-1.85c.47-.3,1.16-.64,1.54-.25.94,1,1.58.21,2.32-.2s1.55-.77,1.8.58a.72.72,0,0,0,.8.68c1.36-.16,2.77.11,4.23-.39-.8-1-.59-2.15-.61-3.24s0-2.22,0-3.33c0-3.32,0-3.32-3-4.55-1.55-.62-3.1-1.22-4.62-1.89a8.07,8.07,0,0,0-4.14-1c-.73.07-1.45-.1-.9-1.1.71-1.29,0-1.52-1.07-1.55-.53,0-1.12.09-1.59-.46a5.41,5.41,0,0,1,.43-.67c.93-1,.36-1.41-.67-1.62a13.59,13.59,0,0,1-3.43-.93c.72-.37,1.76-.28,1.6-1.31-.25-1.65-1.94-.94-2.78-1.72.15-.62,1.33-.52,1.13-1.32s-1.12-.56-1.64-.9-2.13-.15-1.1-1.62c0-.06-.1-.36-.2-.39-1.65-.54-2.21-2.22-3.38-3.26-.85-.75-2.56-1.06-1.77-2.89.06-.12-.46-.56-.77-.77a5.9,5.9,0,0,1-2.19-2c.1-.85.65-.55,1.13-.45a42.29,42.29,0,0,0,9.61.06c6-.66,10.53,1.94,13.91,6.76a7.62,7.62,0,0,0,3.68,3c.92.35,1.35.17,1.81-.71a38.76,38.76,0,0,1,5.82-8.28,2.58,2.58,0,0,1,2.87-.73c3.05.87,5.22,5.7,3.87,8.58-.43.13-.51-.3-.73-.48-.54-.47-1.07-1.1-1.84-.9-.58.15-.35.75-.2,1.14.32.82.23,1.93,1.62,2a5.75,5.75,0,0,0,3.85-1.3,22.86,22.86,0,0,0,4.66-4.71,18.51,18.51,0,0,1,3.6-3.9A10,10,0,0,1,209.58,75c3.71.19,7.47,1.51,11.11-.68-1.05,2.11-2.07,4.06-4.25,5-.27.12-.54.24-.45.58.34,1.26-.7,1.5-1.45,1.82-.93.4-1.53.73-.6,1.75.54.59.26.94-.45,1.16s-1.64-.33-1.89.57,1,.9,1.21,1.64a2.3,2.3,0,0,1-1.68.53c-.8.07-1.34.43-1,1.29.49,1.14-.27,1-.95,1.08s-1.59-.32-1.89.58.47,1.25,1,1.74c.84.78-.15.91-.52,1-1,.41-2.43.27-1.7,2.18.21.57-.75.36-1.17.36-1.15,0-2.39-.19-1.7,1.68.21.58-.17.8-.69.82s-.89,0-1.33,0c-.64,0-1.44-.34-1.86.31s.47,1,.76,1.42c.41.63.49,1.12-.47,1.24-1.4.17-2.79.2-3.78,1.59-.45.64-1.33,0-2-.24s-1.43-.84-2-.21a2.35,2.35,0,0,0-.5,2.62,7.33,7.33,0,0,1,1.15,4.42c-.11.77.61.86,1.15.88a44,44,0,0,1,9.76,1.63c2.35.64,5,.49,7.44.54.88,0,1.33.09,1.36,1.08.05,1.63,1,2.18,2.55,2s2.53.17,3,2c.45,1.58,2.38,1.79,3.75,2.15,1.79.46,2.44.78,2.27,2.6-.12,1.39.1,2.28,1.58,2.83,1.24.47,1.57,1.81,1.81,3a15.47,15.47,0,0,1,.06,5.47c-.14,1-.36,1.46-1.48,1-.69-.31-1.51-.3-1.45.85,0,.79-.55,1-1,1-1.38,0-2.86.57-4.1-.53-.08-.06-.24-.13-.31-.09-1.66.91-3.51-.15-5.21.5-.72.28-1.33.59-1.67-.71-.26-1-1.35-.53-2-.13s-1.6,1.94-2.17-.21c-.08-.31-.72-.2-1.09-.1a3.6,3.6,0,0,0-2,1.14c-2.2,2.71-5.35,4.1-8.15,6a10.36,10.36,0,0,0-4.7,7.28c-1.06,6.9-.83,13.81-.37,20.74.16,2.49.13,5,.18,7.49.16,2.14,0,4.28.06,6.42,0,.37.11.88-.39,1s-.73-.45-.74-.88a2.59,2.59,0,0,0-1.05-2c-.09-2.8-.56-5.58-.43-8.39a3.26,3.26,0,0,0-.42-2.09.82.82,0,0,0-1-.37c-.49.18-.24.52-.12.82a3,3,0,0,1-.47,2.37,7,7,0,0,0-.74,2.37c-.11,1.25.17,2.14,1.55,2.51,1.22.34,1.91,1.1,1.31,2.47-.27,1.07-1.3,1.24-2.16,1.69a7,7,0,0,0,1.75.74c.93.3,1.6.76,1.42,1.89-.16,1-.49,1.71-1.72,1.38a.59.59,0,0,0-.69.36c-.62,1.67-1.2.87-1.73-.06-.54.28-.26.72-.35,1.06a.65.65,0,0,1-.69.56A.8.8,0,0,1,184.63,189.29Z"/><path class="cls-1" d="M202.22,215.92l-2.28,1.41a2.54,2.54,0,0,1-2.51,1.74c-.8-.06-1.07.91-1.83.91-1.94-1.27-1.94-1.27-3.67.64-.32.54-.72.46-1.16.14a2.37,2.37,0,0,1-.72-.88c-.48-1,.63-2,.22-3-.41-.28-.81-.63-1.26-.06-.4.83-1.56,1.23-1.35,2.39.14.79,1.21.59,1.41,1.32a.67.67,0,0,1-.18.47,15.9,15.9,0,0,1-4.91.39,8.5,8.5,0,0,1-5.67-3.2c-.59-.7-1.2-1.76-1.72.06-.79.4-1.61.85-1.7-.64.29-.46.78-1.13.32-1.45-.77-.52-1.32.41-2,.74-.85.42-1.22-.2-1.49-.77a6.55,6.55,0,0,1-.47-4.84c1.84-.44,3.83.23,5.61-.7,1,.36,1.56.09,1.65-1a6.47,6.47,0,0,1,1.18-.86,3.9,3.9,0,0,0,2.26-2.79c.75-.33.93.25.92.72a32.2,32.2,0,0,0,.07,4.91c.06.44-.35.79-.66,1.22a1.82,1.82,0,0,1,1.91,0c.74.51.9,1.31.24,1.81-1.36,1-1.54,2.46-1.56,4a26.62,26.62,0,0,1,3.08-5.06c.49-.59,1.23-.92,1.61-1.53-.7.58-1.28,1.75-2.54.8a6.4,6.4,0,0,1-.24-2.46c0-.44.1-1-.12-1.31-1.44-2.12.39-3.84.7-5.73a3.41,3.41,0,0,1,1.84-2.26c.32-.22.56-.63,1.05-.5a1.24,1.24,0,0,1-.26,1.89,2,2,0,0,0-.68,1.94c0,.51-.26,1.25.42,1.44s.68-.62,1-.94a1.7,1.7,0,0,1,.62-.26c.66-.46.31-1.1.25-1.66a10.91,10.91,0,0,1-.16-2c.07-.63.18-1.23,1-1.33s.89.59,1,1.17a34.48,34.48,0,0,0,1.33,6.43,3.26,3.26,0,0,0,2.51,2.12c1.68.49,3.33,1.12,5,1.75a6.29,6.29,0,0,1,1.2.83,11.26,11.26,0,0,1,1.16,2.72A.82.82,0,0,1,202.22,215.92Z"/><path class="cls-6" d="M171.3,211.29c.42,1.55,0,3.23.78,4.73.27.51.48,1,1.18.88-2.89,1.38-4.86,3.9-7.27,5.86a18.75,18.75,0,0,1-2.73,2c1.22-2.23,3-3.6,4-5.92a21.74,21.74,0,0,0-10,3.19c-1.18-.23-2,.78-3.14.84-.63-1.48.88-1.33,1.42-1.91a19.39,19.39,0,0,0,10.6-5.92C167.55,213.48,168.78,211.47,171.3,211.29Z"/><path class="cls-6" d="M178.31,218.19c1.77.89,3.14,2.51,5.22,2.82,1.46.3,2.95-.1,4.4.23.38,2.88-.73,5.39-1.93,7.9-.55,1.15-1.64,1.37-3,1.83a6.4,6.4,0,0,0,1.63-4.64c-.1-1-.42-1.38-1.41-1.4A6.67,6.67,0,0,0,179,226a14.39,14.39,0,0,1-4.08,1.77c-.38.12-.87.3-1.07-.06s.25-.77.6-1c.94-.66,1.92-1.29,2.88-1.94,2.17-1.46,2.44-2.32,1.51-4.71C178.58,219.46,178.11,218.92,178.31,218.19Z"/><path class="cls-6" d="M202.22,215.92c.52-.57.18-1.12-.1-1.62a4,4,0,0,1-.58-2.31,6.61,6.61,0,0,0,1.62.27c1.67-.12,2.74.13,3.44,2.09s3.1,1.84,4.92,1.89a24,24,0,0,1,10.08,2.22c.27.13.66.17.71.82a25.11,25.11,0,0,1-2.88,0c-3.65-.45-7.33-.43-11-1C206.08,217.85,204.41,216.31,202.22,215.92Z"/><path class="cls-7" d="M187.6,201.28a7.37,7.37,0,0,0-2.45,4.48,6.5,6.5,0,0,0,0,3.66,13.64,13.64,0,0,1,.09,3.45c.14.52,1.18-.11,1,.8-1,1.75-2.35,3.34-2.93,5.34-.11.41-.39.72-.86.52s-.64-.61-.26-1.06.29-1.15.39-1.74,0-1.54,1-1.87c.67-.23,1.21-.83.67-1.53a1,1,0,0,0-1.65-.06.69.69,0,0,1-1.24-.07c-.34-.58.15-.8.59-.9a.93.93,0,0,0,.68-1.16c-.76-1.41-.22-2.81-.12-4.21,0-.48,0-.9-.61-1,.93-2.75,1.23-5.65,1.91-8.45.8,1,.32,2.09.39,3.07a1.24,1.24,0,0,1,1.75-.71c-.33-.79-1-1.68.1-2s1.68.54,1.86,1.6A4,4,0,0,1,187.6,201.28Z"/><path class="cls-6" d="M195.6,220a1.87,1.87,0,0,1,2.38-1.37c.51.11,1,.1,1-.68,0-.54.45-.71,1-.6,1.85,2,3.63,4.23,6.53,4.84,2,.43,4.12.71,6.16,1.12a11.37,11.37,0,0,1,2,.71.53.53,0,0,1,.42.62c-.09.36-.43.32-.69.31-.49,0-1-.09-1.47-.16-4.35-.65-8.65-1.75-13.1-1.48a2,2,0,0,1-2-.88A30.39,30.39,0,0,0,195.6,220Z"/><path class="cls-7" d="M185.6,189a1,1,0,0,1-.35-.88c0-.47.15-.91.66-1,.67-.16.64.4.74.82a1.1,1.1,0,0,0,.54.87c.12-1.18.24-2.37,1.92-1.46.68.37.52-.4.6-.64.21-.58.61-1.3-.31-1.67s-2.14-.79-3.28-1.2c.66-1.07,2.27-.64,2.81-1.81a.48.48,0,0,1,.69,0c1.87.16,1.43,1.68,1.6,2.88.62-2.41.23-4.81.47-7.18a6.08,6.08,0,0,1,.2,2.93c-.12,3.92,0,7.85-.56,11.74-.56-.37-.42-1-.51-1.49s-.13-1.11-.83-1.3c-.53.51-.18,1.15-.27,1.71-.09,1,.27,2-.53,2.9a7.4,7.4,0,0,0-1.54,1.21c-.87.93-1.44.76-1.73-.5a13.85,13.85,0,0,1-.1-2.95A16,16,0,0,0,185.6,189Z"/><path class="cls-8" d="M189.28,190.93a3.82,3.82,0,0,1,0-.83c.11-.45-.41-1.28.49-1.28a1.39,1.39,0,0,1,1.4,1.2c.1.76.1,1.54.15,2.3l-.09,5c-.47,0-.43.35-.5.64-.17.69-.37,1.3-1.31.8-.63-.33-1,.2-1.39.57a.35.35,0,0,1-.42,0c0-.65-.49-.94-1-1.16a.47.47,0,0,0-.68.24c-.09.2-.18.44.09.56,1,.43.5,1.18.49,1.89-1.38-1.11-1.38-1.11-2.31,1.53-.52-1.73-.06-3.31-.28-4.84.12-1.51.25-3,.38-4.52,1.23-1.05,1.1-2.34.65-3.68a.69.69,0,0,0,.66-.33c.83.65.57,1.59.65,2.45.13,1.43-.36,3,.55,4.51.53-1,.9-2,2.09-1.93a2.46,2.46,0,0,1-.55,2.69A7.9,7.9,0,0,0,189.28,190.93Z"/><path class="cls-9" d="M187.94,199.28c.44-1.34,1-1.5,2.23-.63.39-1.66.39-1.66,1.07-1.35.09,1.18.19,2.37.28,3.56-.34-.36-.36-1.14-1.14-.87s-.42.81-.43,1.26c0,1.19.55,2.34.26,3.54-.08.32-.15,1.19-.65.18a3.37,3.37,0,0,1-.39-.66,1,1,0,0,1-.21.65,1.58,1.58,0,0,1-.7,1.43c-.52.31-1.36.38-1.24-.33.21-1.35-1.12-3.15,1.06-4,.48-.19.13-.91.16-1.38C187.85,200.25,188,199.75,187.94,199.28Z"/><path class="cls-6" d="M174.89,217.61c.2,1.21,1.08.59,1.7.64a10.23,10.23,0,0,1-2.65,4.88,5,5,0,0,1-4.75,1.73A20.23,20.23,0,0,0,174.89,217.61Z"/><path class="cls-10" d="M192.26,222.6a2.85,2.85,0,0,0,1.45,2.43c1.93,1.35,3.77,2.82,4.41,5.28a13.88,13.88,0,0,1-6.86-7.68A.7.7,0,0,1,192.26,222.6Z"/><path class="cls-11" d="M192.26,222.6l-1,0-1.34-1c-.28-.34-.83-.43-.9-1l-.22-.27a.56.56,0,0,1,.3-.32c.76-.36,1.24.35,1.87.51a.86.86,0,0,0,1,.06C191.6,221.35,192.47,221.88,192.26,222.6Z"/><path class="cls-12" d="M184.94,189.29c1.23,1.4,1,2.76-.65,3.68.11-1.23.23-2.46.34-3.68Z"/><path class="cls-13" d="M189,220.64c.4.23.93.33.9,1-.73.24-1.27-.55-2-.36-1.46-.28-3,.51-4.4-.23C185.36,220.81,187.22,221.16,189,220.64Z"/><path class="cls-14" d="M178.56,209.59c.55,1.17,0,1.76-1.11,2.13-.27-.33.44-1.16-.54-1.13A3,3,0,0,1,178.56,209.59Z"/><path class="cls-15" d="M180.55,147c.31-.12.33-.39.37-.65,1.05,0,1.16.8,1.32,1.56-.08.33-.06.75-.6.65A4,4,0,0,1,180.55,147Z"/><path class="cls-16" d="M181.64,148.57c.31-.13.26-.42.33-.67.63,0,.66.61.93,1l-.39.8A2.53,2.53,0,0,1,181.64,148.57Z"/><path class="cls-17" d="M150,77c-.35.23-.92-.13-1.13.45-.29-.1-.5-.42-.31-.57C149,76.46,149.52,76.71,150,77Z"/><path class="cls-1" d="M81.51,35.12c2.85.47,3.81,2.22,4.15,4.45.22,1.42.42,2.85.55,4.29s.22,3.07,1.6,4.37c-2.23.26-4.2.46-6.15.73-.81.12-1.14-.3-1.3-.94a22.53,22.53,0,0,1-.74-4.08,18.43,18.43,0,0,0-.69-4.43c-.48-1.52-1.73-1.3-2.9-1.17-1.4.15-.66,1.2-.62,1.79.22,2.77.52,5.53.87,8.27.12.9-.14,1.18-1,1.23-1.33.07-2.66.21-4,.41-1,.15-1.47,0-1.59-1.19Q68.45,36.28,67,23.72c-.11-.95.19-1.24,1.11-1.33,3.15-.28,6.29-.65,9.43-1a6,6,0,0,1,6.54,4,11.26,11.26,0,0,1,.68,4.41A5.42,5.42,0,0,1,81.51,35.12Z"/><path class="cls-1" d="M231.88,45c-4.21,2.14-8.36-.28-8.45-5.09a17,17,0,0,1,2.11-8.8c1.82-3.24,4.7-4.27,9-3.29,3.66.83,5.83,3,5.95,6.6a40.24,40.24,0,0,1-3.15,16.86c-1.74,4.2-5.77,5.29-10.91,3.38-3.14-1.17-4.56-3.32-4.35-6.48.06-1,.24-1.45,1.35-1.13a16.4,16.4,0,0,0,2.94.56c1.23.1,2.06.39,1.92,1.91-.07.71.53,1.19,1.3,1.27a1.67,1.67,0,0,0,1.87-1.31c.36-1.22.53-2.49.78-3.74C232.42,45.3,232.62,44.88,231.88,45Z"/><path class="cls-1" d="M196.23,39.63c-4.07,2.43-8.25.41-8.76-4.29a18.1,18.1,0,0,1,.95-8c1.5-4.19,4.22-5.63,9.25-5,4,.51,6.32,2.91,6.56,7.12a45.1,45.1,0,0,1-1.76,15.29c-1.71,5.81-9.8,7.54-14.11,3.18A6.27,6.27,0,0,1,186.78,43c0-.56.22-.8.81-.72,1,.12,2,.19,3,.3,1.2.14,2.64-.1,2.47,1.93-.06.64.65,1,1.31,1A1.6,1.6,0,0,0,196,44.47a11.44,11.44,0,0,0,.61-3.76C196.73,40.26,197.1,39.7,196.23,39.63Z"/><path class="cls-1" d="M49.45,49.25c.58-7.92,1.17-15.44,1.67-23,.08-1.13.37-1.65,1.58-1.75,1.82-.16,3.62-.49,5.43-.81.89-.15,1.33,0,1.69,1Q64.29,36.88,68.93,49c.38,1,.32,1.33-.83,1.4-1.6.11-3.19.39-4.78.66-.7.12-1-.08-1.12-.78a.43.43,0,0,0-.05-.16C61,46.33,61,46.35,57.09,47c-.84.14-1.19.45-1.07,1.28a2.77,2.77,0,0,1,0,.5c0,3.39,0,3.39-3.33,3.8C49.11,53.05,49.11,53.05,49.45,49.25Z"/><path class="cls-1" d="M222.37,34a45.24,45.24,0,0,1-2.24,13c-2,5.49-7.45,7.25-12.42,4.08-2.39-1.52-3-4-3.05-6.49a39.37,39.37,0,0,1,2.32-15c2-5.39,8.06-7,12.7-3.51a6.22,6.22,0,0,1,2.24,3.6A15.81,15.81,0,0,1,222.37,34Z"/><path class="cls-1" d="M148,32.85a42.4,42.4,0,0,0,.24,7.35c.19,1,.54,1.85,1.71,1.9s1.46-.79,1.72-1.69a13.53,13.53,0,0,0,.34-3.8c0-1.07.38-1.31,1.39-1.2,1.38.15,2.77.13,4.16.16.58,0,.93.12.89.84a21.18,21.18,0,0,1-.7,5.43,7,7,0,0,1-5.77,5.1c-4.23.77-8-.74-9.46-3.84a14.61,14.61,0,0,1-1.15-5.5,44.64,44.64,0,0,1,.9-13.24A8.56,8.56,0,0,1,156,19.89c1.92,1.58,3.29,6.3,2.54,8.6a.63.63,0,0,1-.71.51l-1.5,0c-1.28,0-2.8.34-3.76-.23s-.16-2.25-.41-3.42c-.21-1-.27-2.09-1.59-2.16s-1.67.94-1.9,1.94C148.06,27.61,148.33,30.19,148,32.85Z"/><path class="cls-1" d="M29.24,37.06a16.56,16.56,0,0,1,.38-5.14,5.93,5.93,0,0,1,2.76-3.8,10.77,10.77,0,0,1,7.86-1.35c2.86.6,4.28,2.79,5,5.44,1,3.52,1,3.52-2.51,4.09-2.8.44-2.8.44-3.57-2.43a7.24,7.24,0,0,0-.25-.79c-.36-.85-.77-1.66-1.92-1.44s-1.37,1-1.42,2A19.14,19.14,0,0,0,36,37.73a98.8,98.8,0,0,0,2,9.77,11.62,11.62,0,0,0,.64,1.7,1.59,1.59,0,0,0,1.85,1.07c.92-.16,1.24-.82,1.28-1.68a15.93,15.93,0,0,0-.4-4.3c-.21-.87,0-1.18.93-1.29,1.42-.17,2.84-.46,4.26-.73.58-.12.95-.06,1,.63.34,2.3.81,4.58.18,6.92a6.51,6.51,0,0,1-3.54,4.38,11.56,11.56,0,0,1-7,1,6.18,6.18,0,0,1-4.69-3.84C30.33,46.63,29.72,41.51,29.24,37.06Z"/><path class="cls-1" d="M94.8,20,96,19.91c5.15-.38,7.77,1.68,8.61,6.78a12.76,12.76,0,0,1,.09,3.65,7,7,0,0,1-6.56,6.6,8.42,8.42,0,0,1-1.66.1c-1.19-.08-1.64.26-1.48,1.6.31,2.64.35,5.31.6,8,.09.87-.09,1.18-1,1.2-1.77,0-4,.84-5.17.05s-.56-3.18-.68-4.87c-.51-7-.94-14-1.46-21.07-.09-1.18.25-1.51,1.4-1.54,2-.05,4.09-.28,6.14-.43Z"/><path class="cls-1" d="M125.24,32.36c0-4.11,0-8.21,0-12.32,0-1,.12-1.46,1.31-1.44,4.05.07,8.11,0,12.16-.05,1,0,1.42.18,1.31,1.26-.13,1.48.59,3.37-.27,4.34s-2.72.17-4.15.29h-.5c-3.59,0-3.56,0-3.31,3.62.06.85.32,1.14,1.18,1.11,1.78-.06,3.56,0,5.33-.05.89,0,1.34.17,1.27,1.18a20.57,20.57,0,0,0,0,3.33c.1,1.08-.36,1.33-1.33,1.3-1.72,0-3.45.07-5.16,0-1.08-.06-1.27.32-1.24,1.32.09,2.94,0,5.88.08,8.82,0,.92-.21,1.3-1.2,1.25a34,34,0,0,0-4.16,0c-1.09.09-1.28-.36-1.26-1.33,0-4.22,0-8.44,0-12.66Z"/><path class="cls-1" d="M177.21,48c-3.53-.2-3.55-.2-3.3-3.72.34-4.65.68-9.3,1.09-13.94.09-1-.17-1.47-1.21-1.34a1.94,1.94,0,0,1-.34,0c-3-.2-2.94-.2-2.83-3.17,0-1.1.19-1.67,1.56-1.59,2.33.13,4.26-.68,5.14-3.1a.9.9,0,0,1,1-.66c4-.13,4-.08,3.72,3.84-.58,7.58-1.18,15.16-1.73,22.74-.06.91-.23,1.34-1.25,1.09A9.23,9.23,0,0,0,177.21,48Z"/><path class="cls-1" d="M113.54,36.7c.14,2.88.23,5.77.43,8.64.08,1.11-.27,1.5-1.35,1.39a14,14,0,0,0-1.83.06c-3.39.18-3.35.18-3.49-3.14-.32-7.59-.64-15.18-1-22.77-.07-1.3.27-1.75,1.58-1.68a18.55,18.55,0,0,0,3.49-.21c1.19-.17,1.49.28,1.53,1.42C113,25.84,113.31,31.27,113.54,36.7Z"/><path class="cls-18" d="M196.23,39.63c.07-.3.39-.56.53-.36a1.26,1.26,0,0,1-.11,1.44C196.42,40.38,196.78,39.82,196.23,39.63Z"/><path class="cls-19" d="M231.88,45c.11-.28.43-.57.57-.41.35.37.08.79-.17,1.15C232.15,45.45,232.28,45.06,231.88,45Z"/><path class="cls-4" d="M181.57,89.77c-.84,0-.92,1-1.77.87a10.35,10.35,0,0,0,.53-2.49c0-.43.29-.5.69-.44,1.31.19,1-.68.79-1.35-.17-.48-.92-.83-.57-1.43A6.11,6.11,0,0,1,183,82.54a1.64,1.64,0,0,0,1.06-1.73,2.68,2.68,0,0,1,2.11-2.49,2.09,2.09,0,0,1,2.6,1c.75,1.23-.15,2.35-.57,3.46-.12.32-.78.51-.66.88.63,2-.51,4.28,1.23,6,1.11,1.12,0,2.52.36,3.76.06.25-.55.3-.86.21-1.32-.38-1.57.44-1.26,1.34.36,1.07,0,2.31.67,3.29.89-.25.23-1.1.76-1.41.52.18,1,.37,1.55.54.68.22.74.8.68,1.35-.07.73-.52.25-.84.2s-.49.16-.63.41c-1,1.81-2.15,3.43-4.3,4.07-.53.16-.51.86-.44,1.46.08.84.79,2.09-1.11,1.93-.51,0-.5.78-.6,1.26a5.05,5.05,0,0,1-.59,2,1.81,1.81,0,0,1-2.27.45c-.72-.26-.2-1,0-1.44a7.09,7.09,0,0,0,.34-2.62,3,3,0,0,1,1.17-2.78c.68-.49.73-.94-.07-1.53s-.58-1.77-1.84-1.79c-.34,0-.27-.55-.18-.87a8.45,8.45,0,0,1,.44-1.25c.83-1.89,2.35-3.86-1.26-5.3C180.46,92.33,181.55,91.53,181.57,89.77Z"/><path class="cls-20" d="M161.65,124.88c-.41-1.14-1.13-2.09.5-2a.89.89,0,0,0,.45-.13c-.18-1.48.92-1.74,1.93-2.22.3-.14-.11-1.23.74-1.21,1.07,0,2.21-.45,3.21.32.13.09.28.15.51.28.51-.69.23-1.53.52-2.22.1-.23,0-.61.39-.62a.64.64,0,0,1,.65.63,8.24,8.24,0,0,1,.07,1c0,.24.07.49.33.48a.43.43,0,0,0,.44-.56c-.14-.63-.25-1.33.49-1.55s.82.62,1.24.94c.13.1.22.33.34.34a28.14,28.14,0,0,0,5.67.51c1-.09,2-.9,3-1.26.26-.09.67-.15.74-.33.61-1.72,2.27-1.17,3.45-1.61.51-.19,1.12-.15,1.54-.55,1-1,2-.09,3,0a.48.48,0,0,1,.28.69.91.91,0,0,1-.68.67,3.07,3.07,0,0,0-3.06,3.46c0,.6-.69.59-1.16.64s-1-.09-1-.78v-1.76c-.74-.06-.95.49-1.3.79-1.5,1.33-2.9,2.82-5,3.18-.36.06-1,.13-1.1-.07-.85-1.18-2.12-.47-3.13-.82-1.35-.46-1.84.25-2.05,1.39-.08.44-.1.89-.19,1.32-.15.75-.79.93-1.39,1-.78,0-.75-.64-.81-1.19a8,8,0,0,0-.21-1.47c-.18-.54-.62-.59-1.08-.31s-.75.52-.29.89c.86.68.24.91-.31,1-1.55.32-2.41,1-2.24,2.8.09.92-1,1.13-1.78,1-1.63-.21-2.56.6-3.44,1.81a9.19,9.19,0,0,1-2.11,2.34c-1.49,1-3.15.37-3.74-1.52.7-.23,1,.63,1.71.65.27-.51.19-1.39-.17-1.38-.9,0-2.08-.55-2.71.47-1,1.56-2.58.91-3.87,1.35-.2.07-.57-.13-.43-.28.49-.52-.41-1.29.32-1.65.92-.46,1.91-.69,2.33-1.89.16-.47,1-.07,1.54,0,1.49.18,2.66.24,3.34-1.74.39-1.16,1.71-2.1,2.14-3.47.1-.32.57-.33.89-.18s.28.49.05.79C159,124.55,160.38,124.39,161.65,124.88Z"/><path class="cls-21" d="M215.24,77a15.31,15.31,0,0,1-4.78.16c-4-.46-6.88,1.44-9,4.57a24.45,24.45,0,0,1-5.45,6.43,5.43,5.43,0,0,1-5.37,1.19,29.21,29.21,0,0,0,6.39-4.11,11.26,11.26,0,0,0,3.21-4c1.56-3.16,6.49-5.79,10-5.41,1.43.15,2.86.36,4.29.54C214.75,76.62,215.41,76.33,215.24,77Z"/><path class="cls-22" d="M155,79c1.28-.22,2.53-.41,3.79-.65,4.11-.79,7.63.67,10.82,3.12a30.8,30.8,0,0,1,3.92,4.07,22,22,0,0,0,3.8,3.47c.26.19.68.38.51.75s-.66.26-1,.08a12,12,0,0,1-1.3-.74,21.12,21.12,0,0,1-4.08-3.65,24.68,24.68,0,0,0-6-5c-2-1.19-4.07-1.93-6.48-1.13A5.4,5.4,0,0,1,155,79Z"/><path class="cls-7" d="M189.62,182h-.69c.76-1.27-.23-1.67-1.06-2.16-.63-.36-1.77,0-1.86-1.06-.11-1.24-.39-2.53.37-3.72a11.16,11.16,0,0,0,.88-2c.12-.29.27-.61,0-.92s-1.53-.27-.52-1c.62-.42,1.71-1.22,2.38.14a3.13,3.13,0,0,1,.46,1.4C189.43,175.8,190.16,178.87,189.62,182Z"/><path class="cls-23" d="M182.34,146.33a1.38,1.38,0,0,0,.62-2.07c0-.61.47-.56.8-.38.48.25.38.71.2,1.13.39.46-1.07,2.25,1.08,1.51.11,0,.4.79.73,1,.68.46.38-.3.53-.51.3,0,.67.07.67-.46,0-.27.12-.64.58-.51a16.45,16.45,0,0,1-.23,5.41c.86,0,.88-.58,1.22-.74s.49-.32.76-.11a.58.58,0,0,1,.21.74,3.17,3.17,0,0,0,.07,2.27c.45,1.7-1.12,2.9-1,4.53-.75-.76-1.94-1.18-1.05-2.65a1.64,1.64,0,0,0-.53-2.24,2.15,2.15,0,0,1-.9-3c.63-1.55.13-1.69-1.11-1.23-.76.29-1.2-.39-1.82-.4A6.47,6.47,0,0,0,182.34,146.33Z"/><path class="cls-24" d="M187.55,146.05c-.6.63.08,1.51-.41,2.18-.91,0-.29-1-.84-1.21-.56-3.34-1-6.69,0-10a5.86,5.86,0,0,1,.41-1.08c.15-.28.4-.62.76-.55s.46.43.55.77a13.38,13.38,0,0,1,.14,4.14C188,142.2,187.76,144.12,187.55,146.05Z"/><path class="cls-25" d="M188.16,166.87c-.87-.36-1.56-1-.71-2.44a1.61,1.61,0,0,0-.4-2.1c-1.48-1.24-1.56-2.35-.42-4.13.53.16.53.63.61,1s-.06.91.46,1.16c.51-.29,0-1,.75-1.41C189.49,161.71,190.54,164.3,188.16,166.87Z"/><path class="cls-26" d="M193.56,137.92a12.68,12.68,0,0,1-2.23,3.79c-.37.47-1,.3-.82-.32.34-1.55-.19-3.08.09-4.6.11-.58-.06-1.41.55-1.64s1.3.4,1.85.84A1.77,1.77,0,0,1,193.56,137.92Z"/><path class="cls-27" d="M201.11,136.06c-1.18,2-3.07,2.5-4.72,3.24-.67.3-.78-.37-.58-.92s.51-1.08.72-1.63c.7-1.87.95-2,2.58-.81C199.71,136.38,200.22,136.1,201.11,136.06Z"/><path class="cls-28" d="M182.05,143.12c-1.8-1.11-3.57-5.27-3.17-6.91.07-.27.09-.6.44-.58a.81.81,0,0,1,.73.78c-.13,1.24.67,2.18.93,3.29S181.62,141.77,182.05,143.12Z"/><path class="cls-29" d="M188.3,107.31c-2-1-2.05-1.21-1-3.32.33,0,.59.06.39.48,0,.42-.15.93.39,1.13s.54-.25.71-.51.75-.64.91-.28a6.73,6.73,0,0,0,1.69,2.68s-.14.37-.22.38a1.34,1.34,0,0,1-.61-.15c-.53-.23-.67-1.28-1.57-.73C188.76,107.14,188.66,107.49,188.3,107.31Z"/><path class="cls-10" d="M176,136.28c-.12.43.17.93-.38,1.06s-.83-.22-1-.63c-.37-.79-.71-1.59-1.06-2.38-.16-.36-.35-.72.13-1a.79.79,0,0,1,1,.3A4.89,4.89,0,0,1,176,136.28Z"/><path class="cls-30" d="M188.66,147.25c-.2-1.44.25-1.85,1.15-1.63.48.12,1.44-.49,1.36.52a2.11,2.11,0,0,1-1.7,2.07C188.58,148.32,188.68,147.38,188.66,147.25Z"/><path class="cls-31" d="M182.34,146.33c1.6.29,1.18,1.3.81,2.28l-.25.26c-.71.06-.58-.69-.93-1a4,4,0,0,0-1.05-1.54c-.17-.43-1-.8-.34-1.28.5-.35,1,.16,1.28.65A6.64,6.64,0,0,0,182.34,146.33Z"/><path class="cls-32" d="M212.28,118.63a14.15,14.15,0,0,0-3.31-.32c-.27,0-.6-.06-.56-.42a.63.63,0,0,1,.43-.42c1.29-.19,2.62-.73,3.84.25.26.2.63.35.45.75S212.66,118.64,212.28,118.63Z"/><path class="cls-33" d="M176.27,141.51c2.11-.87,3-.55,3.24,1,.08.53,0,1.16-.74.75A29.23,29.23,0,0,1,176.27,141.51Z"/><path class="cls-34" d="M208.05,116.31c-.56-.06-1.48-.15-1.64-1s.7-.69,1.21-.67c.68,0,1.52,0,1.64.94C209.35,116.29,208.8,116.35,208.05,116.31Z"/><path class="cls-35" d="M194.19,114.94c.63-1.18,1.14-1.85,2.14-2,.39,0,.81,0,.9.49s0,.75-.54.86C196,114.48,195.32,114.67,194.19,114.94Z"/><path class="cls-36" d="M197.23,120.06c-.09.45,0,1.28-.6,1.1s-1.4-.59-1.36-1.4.8-.69,1.31-.74C197.4,118.93,197.18,119.6,197.23,120.06Z"/><path class="cls-37" d="M205.94,91.14a.85.85,0,0,1-1.18.09c-.54-.35-1.45-.49-1.29-1.41.08-.45.53-.45.93-.24C205.07,89.94,205.75,90.29,205.94,91.14Z"/><path class="cls-38" d="M187.6,124.22c-.18.5-.32,1.07-1,1a.92.92,0,0,1-.91-1c-.06-.58.24-1,.85-.9C187,123.47,187.51,123.57,187.6,124.22Z"/><path class="cls-39" d="M170.51,93.7a3,3,0,0,1-2,1.23c-.32.08-.76,0-.59-.47a2.37,2.37,0,0,1,1.91-1.39C170.18,93,170.43,93.27,170.51,93.7Z"/><path class="cls-40" d="M192,118.53c-.38,0-.64-.21-.49-.5.37-.7.32-1.73,1.23-2,.48-.14.43.48.51.85C193.48,118,192.38,118,192,118.53Z"/><path class="cls-41" d="M159.13,84c.65,0,1.31-.06,1.24.65-.08.86-.91.61-1.46.67s-1.26,0-1.22-.5C157.76,84,158.65,84.12,159.13,84Z"/><path class="cls-42" d="M172.35,92.18c-.43,0-.59-.2-.49-.5a2.24,2.24,0,0,1,1.76-1.53c.32-.07.73.29.57.61A2.77,2.77,0,0,1,172.35,92.18Z"/><path class="cls-43" d="M208.68,121.39c1.28.32,2.19.39,2.53,1.35.11.31-.2.76-.49.73C209.66,123.38,209.37,122.46,208.68,121.39Z"/><path class="cls-44" d="M204.1,93.78a.84.84,0,0,1-.19.11,2.29,2.29,0,0,1-2.3-1.2c-.19-.3.15-.76.45-.68C203,92.25,203.9,92.65,204.1,93.78Z"/><path class="cls-45" d="M169.74,90.61c0-1.08.74-1.5,1.4-2a.57.57,0,0,1,.86.1c.27.33.12.61-.14.85A2.84,2.84,0,0,1,169.74,90.61Z"/><path class="cls-46" d="M166.77,83.47c.42.07.79.33.64.63a2.55,2.55,0,0,1-2,1.45c-.34,0-.46-.24-.33-.54A2.71,2.71,0,0,1,166.77,83.47Z"/><path class="cls-47" d="M200.38,86.25a2.8,2.8,0,0,1,1.87,1.47c.14.35-.2.51-.49.45a2.39,2.39,0,0,1-2-1.29C199.64,86.54,199.94,86.27,200.38,86.25Z"/><path class="cls-48" d="M199.15,88.27a2.88,2.88,0,0,1,1.66,1.67c.12.4-.28.43-.53.37a2.28,2.28,0,0,1-1.81-1.49C198.36,88.47,198.7,88.24,199.15,88.27Z"/><path class="cls-34" d="M202.84,114.09a1.65,1.65,0,0,1-1.24,1.48,1.87,1.87,0,0,1-1.6,0c-.19-.11-.36-.3-.19-.54.34-.5.89-.42,1.36-.37S202.09,114,202.84,114.09Z"/><path class="cls-49" d="M168,88.67a2.15,2.15,0,0,1,2-2,.43.43,0,0,1,.39.59A2.65,2.65,0,0,1,168,88.67Z"/><path class="cls-50" d="M176,95.73a1.79,1.79,0,0,1,0-.36,2.14,2.14,0,0,1,2-1.65c.24,0,.54.32.37.59A2.61,2.61,0,0,1,176,95.73Z"/><path class="cls-49" d="M162.14,87.37c-.47-.08-1,0-.9-.42.21-.9,1.1-1,1.83-1.19.42-.11.92.14.8.56C163.61,87.21,162.66,87.09,162.14,87.37Z"/><path class="cls-51" d="M165.59,92.72c-.43-.13-1,.09-.93-.36.11-1.06,1.16-1,1.88-1.3a.5.5,0,0,1,.69.49C167.09,92.56,166.08,92.34,165.59,92.72Z"/><path class="cls-52" d="M168.93,85.53A3,3,0,0,1,167.05,87c-.29.09-.59,0-.5-.39a2.36,2.36,0,0,1,1.71-1.65C168.63,84.8,168.86,85.09,168.93,85.53Z"/><path class="cls-53" d="M174.61,93.93c-.39,0-.73,0-.63-.36a2.33,2.33,0,0,1,1.7-1.64c.38-.12.76.16.66.5A2.49,2.49,0,0,1,174.61,93.93Z"/><path class="cls-44" d="M202.81,85.66c-.5-.24-1.4,0-1.52-.86-.09-.67.5-.59.93-.54.71.09,1.56.16,1.72,1C204,85.63,203.31,85.68,202.81,85.66Z"/><path class="cls-54" d="M180.33,124.64c0,.72-.14,1.24-.78,1.18a1,1,0,0,1-.93-1.15c0-.56.36-.74.86-.76S180.38,124.21,180.33,124.64Z"/><path class="cls-55" d="M199.73,94.34a3,3,0,0,1,1.47,1.84c.09.26.07.61-.33.55-.93-.15-1.35-.9-1.67-1.66C199,94.72,199.31,94.46,199.73,94.34Z"/><path class="cls-56" d="M165.62,89.25a3,3,0,0,1-2.13.83c-.26,0-.67-.07-.53-.42.36-.88,1.25-1,2-1.16C165.34,88.43,165.59,88.74,165.62,89.25Z"/><path class="cls-57" d="M184,145c-.06-.62,0-1.38-1-.75-.69-.65-.05-1.1.24-1.61a.91.91,0,0,0,.79,0C186.44,143.45,183.87,144.21,184,145Z"/><path class="cls-43" d="M196.27,125.08c-.14.66-.73.86-1.17,1.07s-.64-.38-.71-.67a.72.72,0,0,1,.79-1A1.11,1.11,0,0,1,196.27,125.08Z"/><path class="cls-58" d="M208.69,82.48c.07-.44.32-.61.71-.52.64.16,1.42.17,1.68.89.1.31-.41.54-.74.46C209.74,83.16,209,83.22,208.69,82.48Z"/><path class="cls-59" d="M221,131.07c.53-.06.63.35.59.84s.22,1-.45,1a1,1,0,0,1-1.09-1C220,131.43,220.4,131.19,221,131.07Z"/><path class="cls-60" d="M196.74,96.45a2.58,2.58,0,0,1,.86,1.82c0,.31-.14.58-.49.42a2,2,0,0,1-1-1.76C196.08,96.65,196.36,96.46,196.74,96.45Z"/><path class="cls-61" d="M194.61,95.1c-.86-.76-1.23-1.49-.87-2.42,0-.12.48-.23.55-.15A2.09,2.09,0,0,1,194.61,95.1Z"/><path class="cls-62" d="M213.87,120.4c.1-.5-.22-1.27.54-1.36.57-.06.52.6.51,1s-.07,1.21-.8,1.2S214,120.68,213.87,120.4Z"/><path class="cls-39" d="M207.86,88.16a1.85,1.85,0,0,1-2.34-.92c-.06-.1.18-.51.25-.51A2.29,2.29,0,0,1,207.86,88.16Z"/><path class="cls-63" d="M209.5,85.6a2,2,0,0,1-2.25-.91c-.13-.24,0-.64.35-.59A2,2,0,0,1,209.5,85.6Z"/><path class="cls-64" d="M197.85,91.64c0,.38-.12.78-.38.7-.8-.26-.93-1-1-1.74-.05-.37.23-.74.58-.57C197.68,90.36,197.71,91.09,197.85,91.64Z"/><path class="cls-50" d="M204.49,83.48c-.47-.15-1.22.1-1.23-.72,0-.55.51-.47.87-.43.57,0,1.37-.08,1.43.7C205.59,83.54,204.91,83.44,204.49,83.48Z"/><path class="cls-65" d="M207.87,123.28a.75.75,0,0,1-.78.69.93.93,0,0,1-1.11-.73c-.12-.58.37-.56.74-.57S207.72,122.65,207.87,123.28Z"/><path class="cls-66" d="M169,133.55c.31.09.92-.13.8.48a1.11,1.11,0,0,1-1.26.84c-.36,0-1-.06-.85-.55S168.41,133.56,169,133.55Z"/><path class="cls-64" d="M203.39,136.3c-.09.66-.66,1-1.26,1.28-.26.11-.58-.2-.52-.47a1.77,1.77,0,0,1,1.26-1.39C203.17,135.63,203.36,135.89,203.39,136.3Z"/><path class="cls-62" d="M220,129.36c-.38-.05-.94.14-1-.53,0-.49.39-.59.81-.58s1.15,0,1.19.57S220.44,129.32,220,129.36Z"/><path class="cls-63" d="M164.82,82c.36,0,.61.25.51.53-.25.69-.92.9-1.56,1.06-.29.08-.59-.09-.46-.46C163.56,82.43,164.22,82.22,164.82,82Z"/><path class="cls-67" d="M191,83.63c-.65-.71-1.62-.69-1.61-1.65,0-.23.36-.44.64-.35C190.77,81.87,191,82.48,191,83.63Z"/><path class="cls-34" d="M191.24,123a.69.69,0,0,1-.73.63c-.5,0-.64-.37-.59-.81a.71.71,0,0,1,.83-.63C191.12,122.19,191.29,122.51,191.24,123Z"/><path class="cls-68" d="M184.3,153.42a2.86,2.86,0,0,1,.37-2.29A1.38,1.38,0,0,1,184.3,153.42Z"/><path class="cls-69" d="M205.11,119.93c-.18.38-.28.91-.84.87-.39,0-.33-.4-.23-.65s.23-.8.72-.81S205.21,119.59,205.11,119.93Z"/><path class="cls-70" d="M222.23,125.84c0,.36-.19.64-.56.68A.55.55,0,0,1,221,126c0-.4.33-.53.66-.58S222.17,125.52,222.23,125.84Z"/><path class="cls-71" d="M172.19,127.34c.4.14.83.3.85.82,0,.12-.29.37-.44.37a.84.84,0,0,1-.87-.81C171.7,127.45,171.93,127.37,172.19,127.34Z"/><path class="cls-72" d="M160.33,81.94a2,2,0,0,1,2.22-.17.29.29,0,0,1-.08.51A2.15,2.15,0,0,1,160.33,81.94Z"/><path class="cls-73" d="M172.86,98.14c.15-1.08.63-1.37,1.28-1.43.09,0,.31.24.29.32C174.25,97.73,173.61,97.76,172.86,98.14Z"/><path class="cls-74" d="M154.9,82c.6-.48,1.09-.65,1.64-.38a.46.46,0,0,1,0,.4A1.36,1.36,0,0,1,154.9,82Z"/><path class="cls-75" d="M192.23,95.65c-.67-.73-.83-1.24-.46-1.84,0-.06.25-.11.29-.07C192.56,94.23,192.41,94.8,192.23,95.65Z"/><path class="cls-74" d="M213.12,80.82a1.36,1.36,0,0,1-1.71-.34s.12-.36.22-.38A1.42,1.42,0,0,1,213.12,80.82Z"/><path class="cls-76" d="M207.2,80.51a1.11,1.11,0,0,1-1.57.31s0-.4.07-.43C206.19,80.19,206.72,79.91,207.2,80.51Z"/><path class="cls-77" d="M184,142.61c-.15.35.29,1-.38,1s-.23-.67-.41-1c.11-.29.05-.79.44-.8S183.83,142.37,184,142.61Z"/><path class="cls-78" d="M199.91,123.12c-.07.3-.24.48-.56.43s-.4-.32-.41-.6.11-.58.44-.54S199.89,122.76,199.91,123.12Z"/><path class="cls-79" d="M193.85,100.4a1.08,1.08,0,0,1-.75-1.35c0-.09.33-.26.37-.23A1.31,1.31,0,0,1,193.85,100.4Z"/><path class="cls-41" d="M215.24,77l-.65-.59,1.3-.1c.36,0,.92-.46,1,.36A3.31,3.31,0,0,1,215.24,77Z"/><path class="cls-65" d="M177.06,125.92c-.1.31-.21.65-.59.68s-.44-.18-.29-.49,0-.72.46-.73C176.93,125.37,177.1,125.6,177.06,125.92Z"/><path class="cls-80" d="M209.8,126.43c-.61-.37-.7-.81-.41-1.29.06-.09.35-.18.41-.13C210.36,125.48,209.76,126,209.8,126.43Z"/><path class="cls-39" d="M186,110.47c-.07.56-.32.8-.76.82-.27,0-.61-.05-.6-.38s.44-.55.78-.67A.45.45,0,0,1,186,110.47Z"/><path class="cls-81" d="M195.34,136.6c-.1.38-.39.48-.75.45s-.59-.23-.53-.51.46-.47.8-.49S195.33,136.26,195.34,136.6Z"/><path class="cls-82" d="M218.19,122.86c-.35,0-.51-.12-.46-.36a.77.77,0,0,1,.6-.66c.24,0,.47.15.39.35A2.57,2.57,0,0,1,218.19,122.86Z"/><path class="cls-83" d="M154.15,132.35c.28,0,.64,0,.65.35s-.34.36-.6.41a.4.4,0,0,1-.5-.29C153.59,132.42,153.91,132.41,154.15,132.35Z"/><path class="cls-84" d="M179.33,134c-.07.16,0,.47-.36.38a.77.77,0,0,1-.68-.78c0-.32.26-.31.46-.28A.64.64,0,0,1,179.33,134Z"/><path class="cls-85" d="M202.51,122.72a.4.4,0,0,1,.38.31c.07.24,0,.48-.27.47a.73.73,0,0,1-.51-.31C202,123,202.11,122.79,202.51,122.72Z"/><path class="cls-86" d="M187.66,104.47l-.39-.48c.14-.46.31-.89.88-1A1.25,1.25,0,0,1,187.66,104.47Z"/><path class="cls-87" d="M188.3,107.31,189,107c-.1.43.28,1.13-.33,1.23S188.37,107.65,188.3,107.31Z"/><path class="cls-88" d="M216.88,76.62c-.21-.45-.68-.18-1-.36A9.64,9.64,0,0,1,217,76c.19,0,.48,0,.4.29S217,76.51,216.88,76.62Z"/><path class="cls-89" d="M180.43,114.25c.51.32.61.63.44,1-.11.24-.32.12-.4,0C180.14,115,180.18,114.66,180.43,114.25Z"/><path class="cls-90" d="M202.87,116.61c-.16.14-.26.29-.38.3s-.36-.06-.39-.15c-.09-.25.09-.4.32-.39S202.67,116.5,202.87,116.61Z"/><path class="cls-91" d="M190.58,216.57c.54.25.52.53.22,1a3.23,3.23,0,0,0-.51,2.33c-.38.31-.83.12-1.25.17a1.68,1.68,0,0,1-1.74-.85c-.46-1.51,1-1.82,1.65-2.62C189.48,216.22,190,216.45,190.58,216.57Z"/><path class="cls-92" d="M187.3,208.5c.46-1.26,2-.56,2.35-1.76,0-.08.56.28.73.54a1.72,1.72,0,0,1,0,1.73c-.18.39-.45.61-.92.4C188.78,209.1,188.07,208.82,187.3,208.5Z"/><path class="cls-93" d="M195.09,218.32c-1.2-1.11-2.16-2-1.84-3.66C194.5,215.5,195.52,216.38,195.09,218.32Z"/><path class="cls-94" d="M198.92,216.57c-.67,0-1.74-1.5-1.56-2.18.1-.37.35-.45.59-.25a3.89,3.89,0,0,1,1.39,1.93C199.43,216.37,199.28,216.6,198.92,216.57Z"/><path class="cls-95" d="M180.62,212.66c0,.64-.23,1-.79.9s-.56-.58-.56-1-.1-.87.51-.78S180.73,212.12,180.62,212.66Z"/><path class="cls-96" d="M186.31,213.67c-.18-.48-.89-.27-1-.8,1.53.54,1.81-1.55,3.47-1.61Z"/><path class="cls-97" d="M195.23,212.56c0,.27,0,.63-.38.58a1.05,1.05,0,0,1-.87-.87c0-.23,0-.47.31-.43S195.2,211.94,195.23,212.56Z"/><path class="cls-98" d="M194.43,211.24a.83.83,0,0,1-.78-.73.42.42,0,0,1,.47-.52c.5,0,.57.46.67.82S194.69,211.21,194.43,211.24Z"/><path class="cls-99" d="M179.07,214.32a1.69,1.69,0,0,1-1.27,1.24C177.79,214.62,178.25,214.37,179.07,214.32Z"/><path class="cls-100" d="M180.17,217.31c-.13.33-.29.55-.6.51a.54.54,0,0,1-.52-.66.43.43,0,0,1,.61-.33C179.91,216.92,180.14,217.05,180.17,217.31Z"/><path class="cls-101" d="M187.94,199.28c.45.38.29.89.3,1.36l-.64.64c0-.67,0-1.34,0-2Z"/><path class="cls-102" d="M190.9,211c0,.26,0,.49-.28.51s-.56-.25-.63-.58,0-.46.27-.48S190.8,210.67,190.9,211Z"/><path class="cls-99" d="M199.05,213.59a.48.48,0,0,1,.47-.52c.34,0,.38.31.39.57s0,.48-.3.42A.6.6,0,0,1,199.05,213.59Z"/><path class="cls-103" d="M189,205c-.08-.47-.16-.94-.26-1.57a1.88,1.88,0,0,1,.86,1.58Z"/><path class="cls-104" d="M190.58,216.57l-1.63.06c-.12-.35-.35-.81.36-.62A8.92,8.92,0,0,1,190.58,216.57Z"/><path class="cls-13" d="M187.3,219.25l1.52.74c.16,0,.21.1.14.25l-.16.13C188.17,220.18,187.26,220.34,187.3,219.25Z"/><path class="cls-105" d="M189,220.24a.89.89,0,0,1-.14-.25l1.47-.06.68.63C190.21,221,189.72,219.8,189,220.24Z"/><path class="cls-106" d="M189.13,213.83c.28-.32.79-.42.88-.28.28.43-.21.34-.41.38A1.14,1.14,0,0,1,189.13,213.83Z"/><path class="cls-107" d="M186.17,218.49c0,.25-.11.38-.28.31s-.21-.2-.24-.33,0-.34.24-.26S186.1,218.41,186.17,218.49Z"/><path class="cls-108" d="M189.28,190.93a7.57,7.57,0,0,1-.62,6c-.2.35-.44.66-.93.4-.26-.13-.47-.3-.42-.62.07-.5.5-.4.81-.57.77-.43.71-1.34.77-2.13C189.64,193.05,189.08,191.94,189.28,190.93Z"/><path class="cls-109" d="M78.33,30.25c0,1.47-.4,2.49-1.64,3s-1.92.22-2.12-1.24a25,25,0,0,1-.32-3.12c0-.6-.79-1.52.34-1.79s2.36-.37,3.13.83A3.84,3.84,0,0,1,78.33,30.25Z"/><path class="cls-74" d="M230.17,38.52a15.74,15.74,0,0,1,1-5c.32-.85.81-1.64,2-1.36s1.16,1.08,1.14,1.95a16.34,16.34,0,0,1-.88,5.05c-.33.95-.7,2-2,1.77S230.14,39.54,230.17,38.52Z"/><path class="cls-110" d="M197.88,29.64a19.63,19.63,0,0,1-.68,4.44c-.26.87-.69,1.7-1.84,1.54s-1.29-1-1.33-1.84a17.34,17.34,0,0,1,.57-5.27c.27-.93.59-1.91,1.82-1.78s1.4,1.22,1.46,2.25C197.89,29.2,197.88,29.42,197.88,29.64Z"/><path class="cls-111" d="M56.43,30.74c1,3.17,1.89,6.34,2.87,9.49.22.68.17,1-.63,1.1C56,41.82,56,41.86,56,39.17v-8.4Z"/><path class="cls-112" d="M216.32,32c-.65,4.41-1.12,9.09-2.12,13.69-.24,1.06-.57,2.34-2.08,2.1s-1.56-1.62-1.43-2.75c.37-3.24.86-6.47,1.34-9.7.2-1.36.42-2.73.74-4.07.25-1.07.52-2.36,2-2.21S216.24,30.63,216.32,32Z"/><path class="cls-110" d="M98,28.86a3.81,3.81,0,0,1-.42,1.92A2.41,2.41,0,0,1,95,31.92c-.91-.13-.5-1.08-.6-1.65a15.61,15.61,0,0,1-.22-3.12c0-.63-.79-1.63.51-1.87a2.29,2.29,0,0,1,2.81,1.17A6.17,6.17,0,0,1,98,28.86Z"/><path class="cls-113" d="M184.62,86.07c.47-.65.94-1.3,1.49-2.08.25,1,.46,1.87.65,2.73a.54.54,0,0,1-.48.71c-.41,0-.35-.31-.37-.56-.07-1.16-.76-.58-1.28-.46-.1-.07-.13-.14-.1-.22S184.59,86.07,184.62,86.07Z"/><path class="cls-114" d="M186.13,80.43c.71.17,1.24.54,1.23,1.21s-.58.62-1,.6-1.18-.12-1.16-.88C185.2,80.76,185.68,80.56,186.13,80.43Z"/><path class="cls-115" d="M184.93,91.65a5.54,5.54,0,0,1-.77,2.74,30.33,30.33,0,0,1,0-3.38c.08-.58.48-.05.73,0A.4.4,0,0,1,184.93,91.65Z"/><path class="cls-116" d="M182.71,90.13a2.69,2.69,0,0,1-.15,2.41A2.31,2.31,0,0,1,182.71,90.13Z"/><path class="cls-117" d="M184.62,86.07v.34l-1.06,1.21C182.94,86.18,182.94,86.18,184.62,86.07Z"/><path class="cls-118" d="M185,97.33c.32-.91.32-.91,1.37-1.66-.41,1-.7,1.69-1,2.4C185,97.94,185.12,97.56,185,97.33Z"/><path class="cls-119" d="M182.22,98.63a1.41,1.41,0,0,1-.41,1.51,3.37,3.37,0,0,1,.06-2.58C182.3,97.82,181.94,98.33,182.22,98.63Z"/><path class="cls-120" d="M183.61,102l.64-1.36a2,2,0,0,1-.24,2.17C183.65,102.64,183.62,102.32,183.61,102Z"/><path class="cls-121" d="M185,97.33l.38.74c0,.5.37,1-.28,1.64A3,3,0,0,1,185,97.33Z"/><path class="cls-122" d="M183.61,102c.31.18.32.51.4.81s-.23.73-.55.46S183.22,102.38,183.61,102Z"/><path class="cls-123" d="M184.93,91.65V91a.27.27,0,0,1,.26-.05h.2a1.83,1.83,0,0,1,.9.36c.3.2.38.42-.07.41S185.37,91.47,184.93,91.65Z"/><path class="cls-124" d="M182.22,98.63c-.34-.28-.27-.7-.35-1.07.08-.27.18-.55.53-.49s.24.3.18.5C182.48,97.93,182.34,98.28,182.22,98.63Z"/><path class="cls-125" d="M185.18,91a3,3,0,0,1,.08-1.1c.27-.53.52-.37.61.16-.3.25.2.93-.51,1l-.09,0Z"/><path class="cls-126" d="M185.36,91l.51-1,.41,1.3C186,91.24,185.53,91.46,185.36,91Z"/><path class="cls-127" d="M161.05,125.7c-.55,1.2-.07,2.5-1.7,2.33a.64.64,0,0,0-.61.49c-.15.38-.13,1-.8.52s-.14-.83.19-1.09C158.94,127.26,159.81,126.64,161.05,125.7Z"/><path class="cls-128" d="M164.52,123.4a1.69,1.69,0,0,1,.26.08c.3.16.43.46.12.62-1,.52-.09,2.11-1.21,2.31-.57.09-.87-.74-.61-1.42A2.51,2.51,0,0,1,164.52,123.4Z"/><path class="cls-129" d="M167.09,121.85a.77.77,0,0,1-.6-.72.71.71,0,0,1,.62-.69c.52-.07.47.37.46.68S167.54,121.8,167.09,121.85Z"/></g></g></svg>