<svg xmlns="http://www.w3.org/2000/svg" viewBox="0 0 184.52 298.22"><defs><style>.cls-1{fill:#1d1d1b;}.cls-2{fill:#e64311;}.cls-3{fill:#fff;}.cls-4{fill:#9f8f56;}.cls-5{fill:#266cb4;}</style></defs><title>Catania</title><g id="Слой_2" data-name="Слой 2"><g id="Слой_1-2" data-name="Слой 1"><path class="cls-1" d="M73.56,23.52a158.12,158.12,0,0,0-27.07,19.2C39,49.08,33.32,51.87,25.93,58.78c-6,5.61-8.72,9.42-9.52,10.65H1.18A1.13,1.13,0,0,0,.05,70.51c0,.68-2.22,68.21,24,131.52s67.1,95.63,67.51,96A1.11,1.11,0,0,0,93,298c.41-.32,41.25-32.6,67.5-96s24-130.84,24-131.52a1.12,1.12,0,0,0-1.12-1.08h-60.9v-.08a27.85,27.85,0,0,0-.67-4.82h.08a40.84,40.84,0,0,1,7.46-.18c4.93.32,8.89,1.4,12.21.54a10.89,10.89,0,0,0,2.76-1.13l0,0a14.79,14.79,0,0,0,3.72,1.3,23,23,0,0,0,5.22.37l.27,0c7.28.67,13.62-.6,19-5,13.82-11.24,11.25-27.25,5.3-38.49-5-9.54-10.92-18.79-10.92-18.79S165,0,161.79,0s-2.4,3.37-2.4,3.37,4.17,10.44,8,18.15,6.48,20.07-.65,25.37c-7.54,5.62-14,2.09-19.75-8.67-5.18-9.63-9.58-14.91-16.38-19.75-5.94-4.23-13.33-7.39-22.64-5.3-1.48.33-3,.64-4.64.94a31.55,31.55,0,0,0-14.47-2.39c-7.31.59-13.68,6.88-15.26,11.76Z"/><path class="cls-2" d="M172.37,122.42A324.44,324.44,0,0,1,157.3,186V122.42Z"/><path class="cls-2" d="M75.78,122.42V270c-5.44-6.3-10.68-13-15.61-20V122.42Z"/><path class="cls-2" d="M27.22,122.42V186a323.72,323.72,0,0,1-15.07-63.54Z"/><path class="cls-2" d="M124.34,122.42V249.91a252.82,252.82,0,0,1-15.6,20V122.42Z"/><path class="cls-3" d="M175.82,78.1c-.08,6.9-.53,19.76-2.35,35.65H11C9.22,97.86,8.78,85,8.69,78.1Z"/><path class="cls-4" d="M73.2,26.76a10.85,10.85,0,0,0,1.87,6.16,14.54,14.54,0,0,0-5,12.69c1,8.51,8.19,13,14.93,16.38,5.69,2.84,12.86,5,18.24,7.44h-83A64.55,64.55,0,0,1,30.59,58.13c6.1-5.33,15.58-11.56,20.72-16.22A116.55,116.55,0,0,1,73.2,26.65Z"/><path class="cls-4" d="M149,58.21l-.7.25c-1.76.6-3.29,1.69-4.83,2.31l-.07,0a18.78,18.78,0,0,0,7.58,3,18.34,18.34,0,0,0,7.6-.54s-1.07,0-4.6-1.6a17,17,0,0,1-4.89-3.5Z"/><path class="cls-4" d="M7.56,75.85a1.1,1.1,0,0,0-.8.34,1.14,1.14,0,0,0-.33.8,361.28,361.28,0,0,0,2.49,38,1.13,1.13,0,0,0,1.1,1H174.51a1.14,1.14,0,0,0,1.09-1,360.18,360.18,0,0,0,2.48-38,1.09,1.09,0,0,0-.32-.8,1.1,1.1,0,0,0-.8-.34Zm124.33,44.33a1.12,1.12,0,0,0-1.12,1.1V240.65a1.12,1.12,0,0,0,2.07.6,270.72,270.72,0,0,0,17.88-33l0-.06a1.25,1.25,0,0,0,.11-.5V121.3a1.12,1.12,0,0,0-1.12-1.12H131.89m-24.28,0a1.12,1.12,0,0,0-1.12,1.11V273a1.13,1.13,0,0,0,2,.68,256.34,256.34,0,0,0,17.94-22.82,1.13,1.13,0,0,0,.2-.64.49.49,0,0,0,0-.12.66.66,0,0,0,0-.11V121.3a1.11,1.11,0,0,0-.33-.79,1.14,1.14,0,0,0-.8-.33H107.61m-24.28,0a1.12,1.12,0,0,0-1.12,1.12V279.94a1.14,1.14,0,0,0,.3.77l.09.09c3.05,3.17,6,6.08,8.9,8.66a1.12,1.12,0,0,0,1.51,0c2.88-2.6,5.91-5.54,9-8.74a1.17,1.17,0,0,0,.32-.81V121.33a1.11,1.11,0,0,0-1.12-1.15H83.33m-48.56,0a1.13,1.13,0,0,0-1.13,1.12v86.44a1,1,0,0,0,.1.45,270.9,270.9,0,0,0,17.92,33.06,1.13,1.13,0,0,0,2.08-.6V121.28a1.12,1.12,0,0,0-1.13-1.1H34.77m-24.85.28a1.07,1.07,0,0,0-.19,1c3.49,25.88,9.4,49.88,17.57,71.33a1.13,1.13,0,0,0,2.18-.43v-71a1.11,1.11,0,0,0-.33-.79,1.14,1.14,0,0,0-.8-.33H11c.08,0,.54.17.62.18l-.86-.18a.83.83,0,0,0-.84.28m49.13-.28a1.12,1.12,0,0,0-1.12,1.08V250l0,.38a1.19,1.19,0,0,0,.2.6A256.5,256.5,0,0,0,76,273.64l.08.07.08.08a1.12,1.12,0,0,0,1.21.21,1.14,1.14,0,0,0,.68-1V121.3a1.13,1.13,0,0,0-.33-.79,1.11,1.11,0,0,0-.79-.33H59.05m114.59,0H156.17a1.12,1.12,0,0,0-1.12,1.12v71.07a1.13,1.13,0,0,0,2.18.38c8.17-21.44,14.07-45.43,17.55-71.3a1.06,1.06,0,0,0-.28-.9,1.1,1.1,0,0,0-.86-.38m8.6-48.49c0,.74,0,1.83,0,3.3,0,15.94-1.69,72.6-23.89,126.19-24.17,58.31-60.73,90-66.12,94.48-5.39-4.46-41.95-36.17-66.12-94.48C3.93,147.58,2.25,90.92,2.25,75c0-1.47,0-2.56,0-3.3h180"/><path class="cls-5" d="M51.5,122.42V236.65a267.77,267.77,0,0,1-15.61-29.19v-85Z"/><path class="cls-5" d="M100.06,122.42V279.48c-2.67,2.76-5.28,5.3-7.8,7.61-2.52-2.32-5.14-4.85-7.81-7.61V122.42Z"/><path class="cls-5" d="M148.63,122.42v85.05A271.27,271.27,0,0,1,133,236.66V122.42Z"/><path class="cls-4" d="M126.62,28.48c3.41.42,5.68,1,3.32,3.1s-6,2.68-4.17,3.86,5.35,1.6,6.64,2.57.75-.43-.65-1.18-1.07-2,.43-3.75,1.93-2.89,0-4.71-5.46-1.28-6-.75S125.77,28.37,126.62,28.48ZM116.35,35c-1.14,0,0,4.34,3.37,6.58s6.1,2.09,7.87,4a6.61,6.61,0,0,1,1.93,5.94c-.33,2.25-1.29,6.1.48,1.61s1.28-6.43-.16-8.52-1.93-2.24-5.14-3-4.82-1.6-5.94-3.37S117.15,35,116.35,35m-7.87-9.48c1.28,1.29,2.57,4.82,3,2.57s1.77-2.08,5.3-1.76,1.44-1.13-2.41-1.61-7.87-1.12-5.94.8m42.34,31.85c1.27-.8,1.29-1.77-.53-3.74-2.68-2.89-9.1-6.53-9.1-6.53a62.29,62.29,0,0,0,6.31,6.31c3,2.47-.43,3.43-3,4.71s-4,1-6.21-1.17a16.34,16.34,0,0,0-3.85-2.89,9,9,0,0,0,4.39,6.42,5.07,5.07,0,0,0,1.66.68l.1,0A14.07,14.07,0,0,0,142,62.32l.08.06a10.69,10.69,0,0,1-5.77.14,60.43,60.43,0,0,0-15.17-.74H121A62.48,62.48,0,0,0,118,54.28c-2.25-4.82-3-7.07-5.62-12.37s-3-10-5.14-13.16c-2.89-4.18-9.79-7.23-9.79-7.23a59.48,59.48,0,0,1,6.42,6.58c3.37,4,4.18,9.16,7.71,16.54s6.26,13.49,7.71,18.15,1.89,7.47-2,7.47-7.35-.72-13.45-3.13c-4.48-1.77-13.49-4.34-19.91-8.51s-8.4-4.86-10.6-10.6c-2.89-7.55,4.5-15.26,4.5-15.26S73.63,28.1,76.36,23s6.92-8.56,14-9.31c5.57-.59,14,2.41,14,2.41,9.8-2.14,17.19-1.29,23.29,3.37s9.47,6.59,13.49,13.81,7.55,14.94,14.61,17.51,12.53-.81,14.78-4,4.82-9.31,1.12-20.07a159.72,159.72,0,0,0-9.15-20.88c-1.13-2.41-.48-3.05,1.44-2.73s6.59,9.8,10.44,17.18,7.9,16.93,4.5,27.14c-2.06,6.18-8.49,13.9-16.88,15.2l0-.06a.9.9,0,0,0-.31-.16l-3.92-1.11a16.8,16.8,0,0,1-6.8-3.81l-.05,0"/><path class="cls-1" d="M160.41,94.87c.2,1.54.34,2.63.48,3.74h-1C160.07,97.5,160.21,96.41,160.41,94.87Zm1.9-9.6h-4.9l-5.29,23.13h6s.66-3.19.94-4.5h2.71c.27,1.31.92,4.5.92,4.5h6.22l-5.3-23.13h-1.27"/><path class="cls-1" d="M117.8,94.87c.2,1.54.34,2.63.48,3.74h-1C117.46,97.5,117.6,96.41,117.8,94.87Zm1.89-9.6H114.8l-5.29,23.13h6s.67-3.19,1-4.5h2.71c.27,1.31.91,4.5.91,4.5h6.23L121,85.27h-1.28"/><path class="cls-1" d="M90.52,94.88c.2,1.53.34,2.62.49,3.73H90C90.19,97.5,90.33,96.41,90.52,94.88Zm1.9-9.61H87.53l-5.3,23.13h6s.67-3.19,1-4.5h2.71c.26,1.31.91,4.5.91,4.5H99L93.7,85.27H92.42"/><path class="cls-1" d="M17.65,87c-1.17,1.28-1.74,3.16-1.74,5.74v8.87a7,7,0,0,0,1.83,5.25,7.19,7.19,0,0,0,5.28,1.8c2.39,0,4.17-.67,5.31-2s1.59-3.17,1.51-5.77V98.72H23.9v2.2a3.85,3.85,0,0,1-.31,2.07c-.08.13-.3.19-.65.19a1.51,1.51,0,0,1-.83-.14,4.18,4.18,0,0,1-.26-1.92V92.26a2.57,2.57,0,0,1,.29-1.53,1.54,1.54,0,0,1,1-.24,1.56,1.56,0,0,1,.61.08,3.52,3.52,0,0,1,.13,1.15c0,.09,0,.19,0,.3v2.25h5.94V91.4a6.31,6.31,0,0,0-1.52-4.57c-1.1-1.19-2.85-1.8-5.19-1.8A7.16,7.16,0,0,0,17.65,87Z"/><path class="cls-1" d="M40.18,87c-1.17,1.28-1.74,3.16-1.74,5.74v8.87a7.08,7.08,0,0,0,1.82,5.25,7.23,7.23,0,0,0,5.29,1.8c2.38,0,4.17-.67,5.3-2s1.59-3.17,1.52-5.77V98.72H46.42v2.2a3.92,3.92,0,0,1-.3,2.07c-.08.13-.3.19-.66.19a1.49,1.49,0,0,1-.82-.14,4.18,4.18,0,0,1-.26-1.92V92.26c0-1.14.24-1.47.29-1.53a1.52,1.52,0,0,1,1-.24,1.59,1.59,0,0,1,.62.08,4.07,4.07,0,0,1,.12,1.15v2.55h5.95V91.4a6.31,6.31,0,0,0-1.52-4.57C49.74,85.64,48,85,45.66,85S41.37,85.69,40.18,87Z"/><path class="cls-1" d="M70,87c-1.17,1.28-1.74,3.16-1.74,5.74v8.87a7.08,7.08,0,0,0,1.83,5.25,7.2,7.2,0,0,0,5.29,1.8c2.38,0,4.16-.67,5.3-2s1.59-3.17,1.51-5.77V98.72H76.21v2.2a4,4,0,0,1-.3,2.07c-.09.13-.31.19-.66.19a1.6,1.6,0,0,1-.83-.14,4.18,4.18,0,0,1-.26-1.92V92.26c0-1.14.25-1.47.3-1.53a2.32,2.32,0,0,1,1.63-.16,3.52,3.52,0,0,1,.13,1.15c0,.09,0,.19,0,.3v2.25h5.94V91.4a6.31,6.31,0,0,0-1.52-4.57c-1.1-1.19-2.85-1.8-5.19-1.8A7.16,7.16,0,0,0,70,87Z"/><path class="cls-1" d="M110,85.27H96.49v5.46h4.58V108.4H107V90.73h4.58V85.27Z"/><path class="cls-1" d="M141.26,85.27h-4.13v7.86l-2.36-7.86H127.7V108.4h5.78v-7.74c.93,3.13,2.31,7.74,2.31,7.74h7.08V85.27Z"/><polygon class="cls-1" points="148.97 85.28 144.64 85.28 144.64 108.4 150.58 108.4 150.58 85.28 148.97 85.28"/><path class="cls-1" d="M31.25,105.47a2.89,2.89,0,1,0,2.89-2.89A2.9,2.9,0,0,0,31.25,105.47Z"/><path class="cls-1" d="M53.65,105.47a2.89,2.89,0,1,0,2.89-2.89A2.9,2.9,0,0,0,53.65,105.47Z"/><path class="cls-4" d="M28.24,100.33v.59c.06,2.16-.32,3.72-1.13,4.68S24.93,107,23,107a5.67,5.67,0,0,1-4.15-1.33,5.56,5.56,0,0,1-1.35-4.11V92.72q0-3.21,1.32-4.65a5.6,5.6,0,0,1,4.29-1.43c1.88,0,3.23.43,4,1.3a4.76,4.76,0,0,1,1.08,3.46v1.26H25.51v-.59a4.26,4.26,0,0,0-.45-2.5,2.22,2.22,0,0,0-1.89-.68,2.81,2.81,0,0,0-2.24.79,3.91,3.91,0,0,0-.68,2.58v8.86a5.23,5.23,0,0,0,.57,2.88,2.49,2.49,0,0,0,2.12.79,2.22,2.22,0,0,0,2-.91,5.46,5.46,0,0,0,.58-3v-.59Z"/><path class="cls-4" d="M50.76,100.33v.59q.1,3.24-1.13,4.68c-.82,1-2.18,1.43-4.08,1.43a5.71,5.71,0,0,1-4.16-1.33A5.56,5.56,0,0,1,40,101.59V92.72q0-3.21,1.32-4.65a5.63,5.63,0,0,1,4.3-1.43,5.3,5.3,0,0,1,4,1.3,4.8,4.8,0,0,1,1.07,3.46v1.26H48v-.59a4.27,4.27,0,0,0-.44-2.5,2.25,2.25,0,0,0-1.9-.68,2.79,2.79,0,0,0-2.23.79,3.9,3.9,0,0,0-.69,2.58v8.86a5.12,5.12,0,0,0,.58,2.88,2.47,2.47,0,0,0,2.11.79,2.23,2.23,0,0,0,2-.91,5.38,5.38,0,0,0,.57-3v-.59Z"/><path class="cls-4" d="M80.55,100.33v.59c.06,2.16-.31,3.72-1.13,4.68S77.24,107,75.34,107a5.7,5.7,0,0,1-4.16-1.33,5.56,5.56,0,0,1-1.35-4.11V92.72q0-3.21,1.32-4.65a5.62,5.62,0,0,1,4.29-1.43c1.88,0,3.23.43,4,1.3a4.76,4.76,0,0,1,1.08,3.46v1.26H77.82v-.59a4.26,4.26,0,0,0-.45-2.5,2.22,2.22,0,0,0-1.89-.68,2.81,2.81,0,0,0-2.24.79,4,4,0,0,0-.68,2.58v8.86a5.12,5.12,0,0,0,.58,2.88,2.47,2.47,0,0,0,2.11.79,2.23,2.23,0,0,0,2-.91,5.38,5.38,0,0,0,.57-3v-.59Z"/><path class="cls-4" d="M88.31,100.05h4.43L90.51,89.34h0Zm.5-13.17h3.61L97,106.79h-2.9l-.91-4.49H87.84l-.94,4.49H84.25l4.56-19.91"/><polygon class="cls-4" points="102.67 89.13 98.1 89.13 98.1 88.01 98.1 86.88 109.98 86.88 109.98 88 109.98 89.13 105.4 89.13 105.4 106.79 104.05 106.79 102.67 106.79 102.67 89.13"/><path class="cls-4" d="M115.58,100.05H120l-2.24-10.71h0Zm.5-13.17h3.61l4.56,19.91h-2.89l-.92-4.49h-5.33l-.94,4.49h-2.65l4.56-19.91"/><polygon class="cls-4" points="131.87 106.79 130.59 106.79 129.3 106.79 129.3 86.88 131.43 86.88 133.58 86.88 138.74 104.07 138.74 86.88 139.99 86.88 141.26 86.88 141.26 106.79 139.13 106.79 136.99 106.79 131.87 89.69 131.87 106.79"/><polygon class="cls-4" points="146.24 86.88 147.6 86.88 148.97 86.88 148.97 106.79 147.62 106.79 146.24 106.79 146.24 86.88"/><path class="cls-4" d="M158.2,100.05h4.43l-2.24-10.71h0Zm.49-13.17h3.62l4.55,19.91H164l-.92-4.49h-5.33l-.94,4.49h-2.65l4.56-19.91"/><path class="cls-4" d="M35.69,105.47a1.55,1.55,0,1,1-1.55-1.54A1.54,1.54,0,0,1,35.69,105.47Z"/><path class="cls-4" d="M58.08,105.47a1.54,1.54,0,1,1-1.54-1.54A1.54,1.54,0,0,1,58.08,105.47Z"/></g></g></svg>