<svg xmlns="http://www.w3.org/2000/svg" viewBox="0 0 204.33 299.75"><defs><style>.cls-1{fill:#fff;}.cls-2{fill:#903729;}.cls-3{fill:#6e6428;}.cls-4{fill:#0078ba;}.cls-5{fill:#2d206e;}</style></defs><title>Celta</title><g id="Слой_2" data-name="Слой 2"><g id="Слой_1-2" data-name="Слой 1"><path class="cls-1" d="M125.6,50.42c.17.31.34.62.5.93a9.24,9.24,0,0,1,.47,3.6c0,.46-.07.9-.13,1.32-1.7,9.42-5.79,17-11,20.5v0a2.9,2.9,0,0,0,1.36-2.2c0-2.88-6.57-5.22-14.62-5.22s-14.63,2.34-14.63,5.22a2.89,2.89,0,0,0,1.36,2.2v0C83.79,73.34,79.76,66,78,56.86h0c0-.17-.07-.34-.1-.52A11.71,11.71,0,0,1,77.76,55a9.09,9.09,0,0,1,.48-3.61c.16-.31.32-.62.49-.92h0l-.3.55c6.21-2.88,14.57-4.65,23.74-4.65S119.68,48.08,125.9,51l-.3-.54Z"/><path class="cls-2" d="M111.75,37.39h0A33.68,33.68,0,0,1,125.9,51c-6.22-2.88-14.57-4.64-23.73-4.64S84.65,48.09,78.43,51A33.7,33.7,0,0,1,92.58,37.4h0a25.46,25.46,0,0,1,9.59-1.65,25.41,25.41,0,0,1,9.58,1.65Z"/><path class="cls-2" d="M92.53,32a3.22,3.22,0,0,0-1.46-1.9,10.8,10.8,0,0,1-6-9.52,10.62,10.62,0,0,1,4.32-8.44,56.4,56.4,0,0,0,12.8-11.07A56.74,56.74,0,0,0,115,12.14a10.62,10.62,0,0,1,4.29,8.42,10.81,10.81,0,0,1-6,9.52A3.19,3.19,0,0,0,111.8,32c-.37-3-4.56-5.39-9.63-5.39S92.91,29,92.53,32Z"/><path class="cls-2" d="M158.93,71.14c8.51,0,15.45,7.67,15.45,17.09a18.46,18.46,0,0,1-1.79,8H173a10,10,0,0,0,3.41-.58l.17-.08a21.62,21.62,0,0,1,11.74-1.76,23.32,23.32,0,0,1,10.95,4,14.53,14.53,0,0,1,4.07,4.27,14.53,14.53,0,0,1-4.07,4.27,23.21,23.21,0,0,1-10.95,4,21.71,21.71,0,0,1-11.74-1.75l-.18-.09A10,10,0,0,0,173,108h-.37a18.36,18.36,0,0,1,1.8,8c0,9.41-6.94,17.08-15.45,17.08a15.29,15.29,0,0,1-13.45-8.7,10.48,10.48,0,0,0,6,1.87,9.76,9.76,0,0,0,1.1-19.49H51.73a9.76,9.76,0,0,0,1.1,19.49,10.48,10.48,0,0,0,6-1.87A15.28,15.28,0,0,1,45.4,133C36.89,133,30,125.37,30,116a18.36,18.36,0,0,1,1.79-8h-.37a10,10,0,0,0-3.4.57l-.18.09a21.7,21.7,0,0,1-11.74,1.75,23.21,23.21,0,0,1-10.95-4,14.36,14.36,0,0,1-4.06-4.27,14.36,14.36,0,0,1,4.06-4.27,23.32,23.32,0,0,1,11-4A21.62,21.62,0,0,1,27.8,95.55l.17.08a10,10,0,0,0,3.41.58h.37a18.32,18.32,0,0,1-1.8-8c0-9.42,6.94-17.09,15.45-17.09a15.29,15.29,0,0,1,13.45,8.7,10.56,10.56,0,0,0-6-1.87,9.76,9.76,0,0,0-1.1,19.49H152.59A9.76,9.76,0,0,0,151.5,78a10.58,10.58,0,0,0-6,1.87,15.29,15.29,0,0,1,13.45-8.7Z"/><path class="cls-3" d="M175.28,88.23h-1.8l0-.84-.06-.83-.09-.81-.13-.79-.17-.79-.19-.77-.23-.75-.27-.74-.29-.72-.33-.7-.35-.67-.38-.66-.41-.64-.43-.61-.46-.58-.49-.57-.51-.53-.52-.51-.56-.48-.57-.45-.58-.42-.62-.39-.62-.35-.64-.32L163.9,73l-.67-.25-.69-.22-.7-.18-.71-.14-.72-.1-.73-.06-.75,0V70.23l.84,0,.84.07.82.12.81.16.79.2.78.25.76.29.74.32L166,72l.71.41.68.43.66.47.64.51.62.54.59.56.57.6.54.63.51.65.48.68.46.71.42.73.39.75.36.77.33.8.29.81.26.83.22.86.18.86.14.88.1.9.07.91,0,.92Zm-2.67,7.06-.05,1.82-.78-1.31.1-.21.09-.21.1-.22.09-.22.09-.22.09-.22.08-.22.08-.23.08-.22.07-.23.07-.23.07-.23.07-.24.06-.23.06-.24.05-.24.06-.24,0-.23,0-.24,0-.25,0-.24,0-.25,0-.24,0-.25,0-.25,0-.25,0-.25,0-.25v-1h1.8v1.12l0,.28,0,.27,0,.28,0,.27,0,.27,0,.28,0,.27,0,.27-.05.26,0,.27-.05.27-.06.26-.07.26-.06.26-.07.26-.07.26-.08.25-.08.26-.08.25-.08.25-.09.25-.1.25-.09.25-.1.24-.1.24-.11.24-.11.24-.1.23-.79-1.3Zm.34,0v1.82h-.39l.05-1.82H173Zm3-.48.8,1.63-.09,0-.11,0-.1,0-.1,0-.11,0-.11,0-.1,0-.11,0-.11,0-.12,0-.1,0-.12,0-.11,0-.12,0-.11,0-.12,0-.11,0-.12,0-.12,0h-.12l-.12,0-.12,0H173V95.3h1.36l.1,0h.1l.1,0,.1,0,.09,0h.1l.1,0h.09l.09,0,.1,0,.09,0,.08,0,.09,0,.09,0,.09,0,.08,0,.09,0,.08,0,.08,0-.09,0Zm.8,1.63,0,0-.05,0Zm-.62-1.72.79,1.63h0l0,0-.05,0h0l0,0h-.08l0,0h0l0,0h0l-.8-1.63h0l.06,0h0l0,0,0,0h0l0,0h0l0,0h.07l0,0h0l-.05,0h0Zm0,0h0l-.31.15Zm12.23-1.84-.2,1.8h0l-.39,0-.39,0-.39,0-.39,0-.38,0h-1.54l-.38,0-.37,0-.38,0-.37,0-.37,0-.36,0-.36.05-.36.06-.36.06L181,95l-.35.08-.34.08-.34.08-.33.09-.33.1-.32.1-.32.11-.31.11-.31.12-.3.12-.29.12-.29.14-.28.13-.79-1.63.32-.15.32-.15.33-.14.34-.14.34-.13.34-.12.35-.12.36-.11.35-.1.37-.1.37-.1.37-.08.38-.08.38-.08.38-.07.39-.06.39-.06.4,0,.39,0,.4,0,.41,0,.4,0,.41,0h2.06l.42,0,.42,0,.42,0,.42,0Zm11.37,4.19-1,1.48h0l-.26-.18-.26-.18-.27-.17-.27-.18-.28-.17-.28-.16-.29-.16-.29-.16-.3-.16-.3-.15-.31-.14-.32-.15-.31-.14-.32-.13-.32-.13-.34-.13-.33-.12-.34-.12-.34-.12-.35-.1-.35-.11-.35-.1-.36-.09-.36-.09-.37-.09-.37-.08-.37-.07-.38-.07-.37-.06-.39-.06-.39-.05-.39,0,.2-1.8.42,0,.41,0,.41.07.41.06.4.08.4.08.4.08.39.09.39.1.38.1.39.11.37.11.38.12.36.12.37.13.36.13.35.14.36.14.34.14.35.15.33.16.34.16.33.16.32.17.32.17.31.18.31.18.3.18.31.19.29.2.29.19.28.2Zm4.32,5.47-1.54-.93v.93l-.09-.13-.08-.14-.09-.13-.09-.14-.09-.13-.1-.13-.09-.14-.11-.13-.1-.13-.1-.13-.11-.13-.11-.13-.11-.13-.11-.13-.12-.12-.12-.13-.12-.12-.13-.13-.12-.12-.13-.13-.13-.12-.13-.12-.14-.12-.13-.12-.14-.12-.14-.11-.15-.12L199.3,99l-.15-.12-.15-.11-.15-.11-.15-.11,1-1.48.17.12.16.12.17.13.16.12.16.13.16.13.16.13.15.13.15.14.15.13.15.14.15.13.14.14.14.14.15.14.13.14.14.14.13.15.13.14.13.15.12.15.13.15.12.15.12.15.11.15.11.15.11.16.11.16.11.16.1.15.1.16.1.16v.93Zm0-.93.27.47-.27.46v-.93Zm-4.32,5.48-1-1.48h0l.15-.11.15-.11.15-.11.15-.12.14-.11.15-.12.14-.11.13-.12.14-.12.14-.12.13-.12.13-.12.13-.13.12-.12.13-.13.12-.12.12-.13.11-.13.12-.12.11-.13.11-.13.11-.13.1-.13.1-.13.11-.14.09-.13.1-.13.09-.13.09-.14.09-.13.08-.14.09-.14,1.54.93-.1.17-.1.16-.1.15-.11.16-.11.16-.11.15-.11.16-.11.15-.12.15-.13.15-.12.15-.12.15-.13.15-.13.14-.13.15-.14.14-.14.14-.14.14-.14.14-.14.14-.15.14-.15.13-.15.14-.15.13-.16.13-.15.13-.16.13-.16.13-.16.13-.17.12-.16.12-.17.12Zm-11.37,4.2-.2-1.81h0l.39,0,.39-.06.38,0,.38-.07.38-.07.37-.07.37-.08.37-.09.36-.09.36-.09.35-.1.35-.1.35-.11.34-.12.34-.12.33-.12.33-.12.33-.14.32-.13.31-.14.32-.15.3-.14.3-.15.3-.16.3-.15.28-.17.29-.16.28-.17.27-.17.27-.18.26-.18.26-.18,1,1.48-.29.2-.29.2-.29.19-.3.19-.3.18-.31.18-.31.18-.32.17-.33.17-.33.16-.33.16-.34.16-.34.15-.35.15-.35.14-.35.13-.36.14-.37.12-.36.12-.38.12-.38.12-.38.1-.38.1-.39.1-.39.09-.4.08-.4.09-.4.07-.41.07-.41.06-.42,0-.41.06Zm-12.24-1.85.8-1.62h0l.28.14.29.13.29.13.3.12.31.11.31.11.32.11.32.1.33.1.33.09.34.09.34.08.35.07.34.07.36.06.36.06.36,0,.36,0,.37,0,.37,0,.37,0,.38,0,.38,0h1.92l.39,0,.39,0,.39,0,.39,0,.2,1.81-.42,0-.42,0-.42,0-.42,0-.42,0h-2.05l-.41,0-.4,0-.4,0-.39,0-.4-.05-.39,0-.39-.07-.38-.07-.38-.07-.38-.08-.37-.09-.37-.09-.37-.1-.35-.11-.36-.11-.35-.12-.34-.12-.35-.13-.33-.14-.33-.14-.32-.14-.32-.16Zm0,0h0Zm-.09,0,.61-1.71.1,0h.11l0,0h0l-.8,1.62h0l0,0H176Zm.61-1.71,0,0,.06,0Zm-3.71,1.2v-1.82h1.24l.12,0h.12l.12,0h.12l.12,0,.11,0,.12,0,.12,0,.11,0,.11,0,.12,0,.11,0,.11,0,.11,0,.11,0,.11,0,.11,0,.1,0,.11,0,.1,0,.11,0,.1,0-.61,1.71-.08,0-.09,0-.08,0-.09,0-.08,0-.09,0-.09,0-.09,0-.09,0-.09,0-.1,0-.09,0-.09,0h-.1l-.1,0-.09,0-.1,0h-.1l-.1,0H173Zm.44-1.3-1.62.79.79-1.3H173v1.82h-.35l.79-1.3Zm1.89,8.37h-1.8v-1l0-.26,0-.25,0-.25,0-.25,0-.24,0-.25,0-.25-.05-.24,0-.24,0-.24-.06-.24L173,112l-.05-.24-.06-.24-.06-.23-.07-.23-.07-.24-.07-.22-.07-.23-.08-.23-.08-.23-.08-.22-.09-.22-.09-.22-.09-.22-.1-.21-.09-.22-.11-.21,1.62-.79.11.23.11.24.11.24.1.24.1.24.09.25.1.25.08.25.09.25.08.25.08.26.08.25.07.26.07.26.06.26.06.26.06.26.06.27,0,.27.05.26,0,.28,0,.26,0,.28,0,.27,0,.27,0,.28,0,.28v.28l0,.28V116Zm-16.35,18v-1.82h.74l.74-.07.72-.1.71-.14.7-.18.69-.22.67-.25.66-.29.64-.32.62-.35.61-.39.59-.42.57-.45.55-.48.53-.51.51-.53.49-.56.45-.59.44-.61L171,125l.38-.65.35-.68.33-.7.29-.72.27-.74.22-.75.2-.77.17-.78.13-.8.09-.81.06-.83,0-.83h1.8l0,.91-.06.91-.1.9-.15.88-.18.86-.21.86-.26.83-.29.81-.33.8-.36.77-.39.76-.42.73-.46.7-.48.68-.51.66-.54.62-.57.6-.59.57-.62.53-.64.51-.66.47-.69.44-.7.4-.73.36-.74.33-.77.28-.77.25-.8.2-.8.16-.83.12-.83.07-.84,0ZM146,123.59l-1,1.5,1.31-1.17.24.46.26.45.26.43.29.43.29.42.3.4.32.39.32.38.34.37.35.36.35.34.37.34.38.31.39.31.39.29.4.28.41.26.43.25.42.23.44.22.44.2.45.18.45.17.47.16.47.13.47.12.48.1.48.08.49.07.5,0,.49,0h.51V134h-.57l-.57,0-.56,0-.55-.08-.55-.09-.55-.12-.54-.13-.53-.16-.52-.17-.52-.19-.51-.21-.5-.23-.49-.25-.48-.26-.47-.28-.47-.29-.45-.31-.45-.33-.43-.34-.42-.36-.41-.37-.4-.39-.39-.39-.38-.42-.36-.42-.35-.44-.34-.45-.33-.47-.31-.47-.29-.48-.29-.5-.27-.51,1.31-1.16Zm5.51,1.71v1.82h-.67l-.23,0-.22,0-.22,0-.22,0-.22,0-.22,0-.22,0-.21,0-.21,0-.22,0-.21-.06-.21-.06-.2-.06-.21-.07-.2-.07-.21-.07-.19-.08-.2-.08-.2-.08-.19-.09-.19-.1-.19-.09-.19-.1-.18-.1-.19-.11-.18-.11-.18-.11-.17-.12-.18-.11,1-1.5.14.1.15.1.15.09.15.09.16.09.15.09.16.08.16.08.16.08.17.07.16.07.17.08.17.06.17.06.17.06.17.06.17.05.18,0,.18,0,.18,0,.18,0,.18,0,.18,0,.19,0,.18,0,.19,0,.19,0h.95Zm0,0Zm9.36-8.86h1.8l0,.54,0,.55-.07.54-.1.52-.13.52-.15.51-.18.5-.2.48-.23.48-.24.46L161,122l-.29.43-.32.42-.33.4-.35.39-.37.37-.39.35-.41.34-.42.32-.44.29-.45.28-.47.25-.47.24-.5.21-.5.19-.52.17-.53.14-.54.12-.54.1-.56.06-.56,0-.57,0V125.3H152l.47,0,.47-.06.47-.08.45-.1.44-.12.44-.14.42-.16.42-.18.41-.2.39-.21.38-.24.37-.25.35-.26.34-.28.32-.3.31-.31.3-.32.27-.34.26-.35.24-.35.23-.37.21-.38.18-.4.17-.4.14-.41.13-.41.1-.43.08-.43.06-.44,0-.45v-.45Zm0,0Zm-8.26-8.81v-1.82h.09l.52.06.51.09.5.11.5.13.48.15.47.18.47.19.45.21.44.23.44.25.41.26.4.29.39.29.38.32.36.33.34.35.33.36.31.38.3.39.28.4.25.41.24.43.22.44.2.45.18.46.15.47.14.48.11.49.09.49.06.51,0,.51v.51h-1.8V116l0-.42,0-.41-.07-.41-.1-.39-.1-.4-.13-.38-.15-.38-.16-.37-.18-.36-.2-.35-.21-.35-.23-.33-.25-.33-.26-.31-.27-.3-.29-.29-.3-.28-.32-.26-.32-.26-.34-.23-.35-.23-.36-.21-.38-.19-.38-.18-.39-.16-.4-.15-.41-.12-.41-.11-.43-.1-.43-.07-.44-.06Zm0-1.82h0Zm-101,0h101v1.82H51.73l-.09-1.81Zm0,0h0Zm-8.17,10.62H41.68v-.51l0-.51.06-.51.09-.49.1-.49.14-.48.16-.47.17-.46.2-.45.22-.44.24-.43.26-.41.27-.4.3-.39.31-.38.33-.36.34-.35.36-.33.38-.32.39-.29.4-.29.42-.26.43-.25.44-.23.45-.21.47-.19.47-.18.49-.15.49-.13.5-.11.51-.09.52-.06.18,1.8-.44.06-.43.07-.42.1-.42.11-.41.12-.4.15-.39.16-.38.18-.37.19-.36.21-.36.23-.34.23-.32.26-.32.26-.3.28-.29.29-.27.3-.26.31-.25.33-.22.33-.22.35-.2.35-.17.36-.17.37-.15.38-.12.38-.11.4-.09.39-.07.41-.06.41,0,.42v.43Zm0,0Zm9.36,8.86v1.82h0l-.57,0-.56,0-.56-.06-.54-.1-.54-.12-.53-.14-.51-.17-.51-.19-.49-.21-.48-.24-.47-.25-.45-.28-.44-.29-.42-.32-.4-.34L45,124l-.37-.37-.36-.39-.33-.4-.31-.42-.3-.43-.26-.45-.25-.46-.23-.48-.2-.48-.18-.5-.15-.51-.13-.52-.1-.52-.07-.54,0-.55,0-.54h1.8v.45l0,.45.06.44.08.43.1.43.13.41.14.41.17.4.19.4.2.38.23.37.24.35.26.35.28.34.29.32.31.31.32.3.34.28.36.26.36.25L48,124l.4.21.4.2.42.18.42.16.44.14.44.12.46.1.46.08.47.06.48,0Zm0,0Zm6.82-.55-1.6-.83,1.31,1.17-.18.11-.17.12-.18.11-.18.11-.18.11-.19.1-.18.1-.19.09-.2.1-.19.09-.2.08-.19.08-.2.08-.21.07-.2.07-.2.07-.21.06-.21.06-.21.06-.21,0-.21,0-.22,0-.22,0-.22,0-.22,0-.21,0-.23,0-.22,0-.22,0h-.68V125.3h1l.18,0,.19,0,.19,0,.18,0,.18,0,.18,0,.19,0,.17,0,.18,0,.18,0,.17-.05.17-.06.18-.06.16-.06.17-.06.17-.08.17-.07.16-.07.16-.08.16-.08.16-.08.15-.09.16-.09.15-.09.15-.09.15-.1.14-.1,1.31,1.16ZM45.4,134v-1.82h.51l.5,0,.49,0,.49-.07.49-.08.47-.1.48-.12.46-.13.47-.16.45-.17.45-.18.44-.2.44-.22.43-.23.42-.25.41-.26.4-.28.4-.29L54,129l.38-.31.37-.34.36-.34.34-.36.34-.37.33-.38.31-.39.3-.4.3-.42.28-.43.27-.43.25-.45.24-.46,1.6.83-.27.51-.28.5-.3.48-.31.47-.33.47-.33.45-.36.44-.36.42-.38.42-.38.39-.4.39-.42.37-.42.36-.43.34-.44.33-.46.31-.46.29-.47.28-.49.26-.49.25-.5.23-.51.21-.52.19-.52.17-.53.16-.54.13-.54.12-.55.09-.56.08-.56,0-.57,0ZM29.06,116h1.8v.83l.06.83.09.81.13.8.17.78.2.77.23.75.26.74.3.72.32.7.35.68.38.65.41.64.44.61.46.59.48.56.51.53.53.51.55.48.57.45.59.42.61.39.62.35.65.32.65.29.68.25.68.22.7.18.71.14.72.1.74.07h.74V134l-.84,0-.83-.07-.82-.12-.81-.16-.79-.2-.78-.25-.76-.28-.75-.33-.72-.36-.71-.4-.68-.44-.67-.47-.64-.51-.62-.53-.59-.57-.57-.6-.53-.62-.52-.66-.48-.68-.45-.7-.43-.73-.39-.76-.36-.77-.32-.8-.3-.81-.25-.83-.22-.86-.18-.86-.15-.88-.1-.9-.06-.91,0-.91Zm2.67-7.07,0-1.81.79,1.3-.11.21-.09.22-.1.21-.09.22-.09.22-.08.22-.09.22-.08.23-.07.23-.08.23-.07.22-.07.24-.06.23-.07.23-.06.24-.05.24-.05.24-.06.24,0,.24,0,.24,0,.24,0,.25,0,.25,0,.25,0,.24,0,.25,0,.25,0,.26v1h-1.8v-1.12l0-.28,0-.28,0-.28,0-.27,0-.27,0-.28,0-.26,0-.28.05-.26.06-.27,0-.27.06-.26.06-.26.07-.26.06-.26.08-.26.07-.25L30,110l.08-.25.09-.25.09-.25.09-.25.1-.25.09-.24.11-.24.1-.24.11-.24.11-.23.79,1.3Zm-.35,0v-1.82h.39l0,1.81h-.35Zm-3,.47-.8-1.62.09,0,.1,0,.11,0,.1,0,.11,0,.1,0,.11,0,.11,0,.11,0,.11,0,.11,0,.11,0,.12,0,.11,0,.11,0,.12,0,.12,0,.11,0,.12,0h.12l.12,0H30l.12,0h1.24v1.82H30l-.1,0h-.1l-.1,0-.09,0-.1,0h-.1l-.09,0-.09,0-.1,0-.08,0-.1,0-.09,0-.09,0-.08,0-.09,0-.09,0-.08,0-.08,0-.09,0,.1,0Zm-.8-1.62.05,0,0,0-.09,0Zm.61,1.71-.78-1.63h0l0,0h.11l.8,1.62h-.11l0,0h-.06Zm0,0h0ZM16,111.3l.19-1.81h0l.39,0,.4,0,.38,0,.39,0h1.93l.38,0,.37,0,.37,0,.37,0,.37,0,.37,0,.36,0,.35-.06.36-.06.35-.07.34-.07.34-.08.34-.09.33-.09.33-.1.32-.1.32-.11.31-.11.31-.11.3-.12.29-.13.29-.13.29-.14.78,1.63-.31.16-.33.14-.33.14-.33.14-.34.13-.35.12-.35.12-.35.11-.36.11-.37.1-.36.09-.38.09-.37.08-.39.07-.38.07-.39.07-.39,0-.39.05-.4,0-.4,0-.4,0-.41,0H18.06l-.42,0-.41,0-.43,0-.41,0-.42,0ZM4.6,107.1l1-1.48h0l.26.18.26.18.27.18.28.17.27.17.29.16.29.17.29.15.3.16.3.15.31.14.31.15.31.14.32.13L10,108l.33.12.33.12.34.12.35.12.34.11.35.1.35.1.36.09.37.09.36.09.37.08.37.07.38.07.38.07.39,0,.38.06.39,0L16,111.3l-.42-.06-.42,0-.41-.06-.4-.07-.41-.07-.4-.09-.4-.08-.39-.09-.38-.1-.39-.1-.38-.1-.38-.12-.37-.12-.37-.12-.36-.12-.37-.14-.35-.13L9,109.54l-.35-.15-.34-.15L8,109.08l-.33-.16-.33-.16L7,108.59l-.32-.17-.32-.18-.3-.18-.31-.18-.3-.19-.29-.19-.29-.2-.28-.2ZM.28,101.62l1.54.93v-.93l.08.14.08.14.09.13.09.14.09.13.1.13.1.14.1.13.1.13.1.13.11.13.11.13.11.13.12.12.12.13.12.13.11.12.13.13.13.12.13.13.12.12.14.12.13.12.14.12.14.12.14.11.14.12.14.11.15.12.15.11.15.11.15.11-1,1.48L4.43,107l-.17-.12-.16-.12-.17-.13-.16-.13-.16-.13-.15-.13-.16-.13L3.15,106,3,105.82l-.15-.13-.15-.14-.14-.14-.14-.14-.14-.14L2.14,105,2,104.85l-.13-.15-.13-.14-.14-.15-.12-.15-.12-.15L1.24,104l-.11-.15L1,103.66.9,103.5l-.11-.15-.11-.16L.57,103l-.1-.15-.1-.16-.09-.17v-.93Zm0,.93L0,102.09l.28-.47v.93Zm4.31-5.47,1,1.48h0l-.15.11-.15.11-.15.12L5,99l-.14.11-.14.12-.15.11-.14.12-.13.12-.13.12-.14.12-.13.12-.12.13-.13.12-.12.13-.12.12-.12.13-.12.12-.12.13L3,101l-.11.13-.11.13-.1.13-.1.13-.1.13-.1.14-.1.13-.09.13-.09.14-.09.13-.08.14-.08.13-1.54-.93.09-.16.1-.16.1-.15L.68,101l.11-.16.11-.16.11-.15.12-.15.11-.15.13-.15.12-.15.12-.15.14-.15.12-.14L2,99.33l.13-.14.14-.14.14-.14.14-.14.14-.14.15-.13L3,98.36l.15-.13.15-.14L3.46,98l.15-.13.16-.13.16-.13.17-.12.16-.13.16-.12.17-.12ZM16,92.89l.2,1.8h0l-.39,0-.39.05-.38.06-.38.06-.38.07-.37.07-.37.08-.36.09-.37.09-.36.09-.35.1-.35.11-.35.1-.34.12-.34.12-.33.12L10,96.2l-.33.13-.32.13-.31.14-.32.15-.3.14-.3.15-.3.16-.3.16-.28.16L7,97.68l-.28.17L6.42,98l-.27.17-.26.18-.26.18-1-1.48.29-.2.29-.19.29-.2.3-.19.3-.18.31-.18.32-.18L7,95.59l.32-.17.33-.16L8,95.1l.34-.16.34-.15L9,94.65l.35-.14.35-.14.36-.13.37-.13.37-.12.37-.12.38-.11.38-.11.38-.1.39-.1.39-.09.4-.08.4-.08.41-.08.4-.06.41-.07.42,0,.41,0ZM28.2,94.73l-.8,1.63h0l-.28-.13-.29-.14L26.54,96l-.3-.12-.31-.12-.31-.11-.32-.11-.32-.1-.33-.1-.33-.09L24,95.14l-.34-.08L23.3,95,23,94.91l-.36-.06-.36-.06-.35-.05-.37,0-.37,0-.37,0-.37,0-.38,0-.37,0H18.11l-.39,0-.39,0-.39,0-.39,0-.39,0-.2-1.8.42,0,.42,0,.43,0,.41,0H19.7l.41,0,.41,0,.4,0,.4,0,.39,0,.4,0,.39.06.39.06.38.07.38.08.38.08.37.08.37.1.37.1.35.1.36.11.35.12.35.12.34.13.33.14.33.14.32.15.32.15Zm0,0h0l.41.21-.42-.21Zm.09,0-.61,1.71-.1,0h0l.05,0h0l0,0h-.09l0,0h0l-.06,0,0,0h0l.8-1.63h0l0,0h0l0,0h.08l0,0h0l0,0h0l0,0h0l0,0h0l-.09,0Zm-.61,1.71-.05,0-.05,0Zm3.71-1.19v1.82H30l-.12,0-.12,0h-.12l-.12,0-.11,0-.12,0-.12,0-.11,0-.12,0-.11,0-.11,0-.12,0-.1,0-.11,0-.11,0-.11,0-.11,0-.1,0-.11,0-.1,0-.1,0,.61-1.71.08,0,.08,0,.09,0,.09,0,.08,0,.09,0,.09,0L29,95l.09,0,.09,0,.09,0h.1l.09,0h.1l.09,0,.1,0,.1,0h.1l.1,0h1.36Zm-.44,1.29,1.62-.79-.79,1.31h-.39V95.3h.34l-.78,1.3Zm-1.89-8.36h1.81v1l0,.25,0,.25,0,.25,0,.25,0,.25,0,.24,0,.25.05.24,0,.25,0,.24.06.23.05.25.05.23.06.24.06.23.07.24.07.23.07.23.07.23.08.22.08.23.08.22.09.22.09.22.09.22.1.22.09.21.11.21-1.62.79-.11-.23-.11-.24-.11-.24-.1-.24-.1-.24-.09-.25-.1-.25-.08-.25-.09-.25L30,94.15l-.08-.26-.08-.25-.07-.26-.07-.26-.06-.26-.06-.26-.06-.26-.06-.27-.05-.27-.05-.26,0-.27,0-.27,0-.28,0-.27,0-.27,0-.28,0-.27v-.28l0-.28v-.84Zm16.35-18v1.82h0l-.74,0-.74.06-.72.1-.71.14-.7.18-.69.22-.67.25-.66.29-.64.32-.62.35-.61.39-.59.42-.57.45-.55.48-.53.51-.51.53-.49.57-.45.58-.44.61-.41.64-.38.66-.35.67-.32.7-.3.72-.26.74-.23.75-.2.77-.17.79-.13.79-.09.81-.06.83v.84H29.05l0-.92.06-.91.1-.9.15-.88.18-.86.22-.86.25-.83.29-.81.33-.8.36-.77.39-.75.43-.73.45-.71.48-.68.52-.65.53-.63.57-.6.59-.56.62-.54.64-.51.67-.47.68-.43L38.3,72l.72-.36.74-.32.77-.29.77-.25.8-.2.81-.16.82-.12.83-.07.84,0ZM58.34,80.59l1-1.49-1.31,1.16-.24-.46-.25-.44-.27-.44L57,78.49l-.29-.41-.3-.41-.32-.39-.32-.38-.34-.37-.35-.36-.35-.34-.37-.34L54,75.18l-.39-.31-.39-.29-.4-.28L52.39,74,52,73.79l-.42-.23-.44-.22-.44-.2L50.21,73l-.45-.17-.47-.15-.46-.14-.48-.12-.48-.1-.48-.08-.49-.07-.5,0-.49,0H45.4V70.23H46l.57,0,.56.06.56.07.55.1.54.11.54.14.53.15.52.17.52.2.51.2.5.23.49.25.48.26.48.28.46.29.45.32.45.32.43.34.42.36.41.37.4.39.39.4.38.41.36.42.35.44.34.45.33.47.31.47.3.48.28.5.27.51-1.31,1.16Zm-5.51-1.71V77.06h.68l.22,0,.22,0,.23,0,.21,0,.22,0,.22,0,.22,0,.21,0,.22.05.21,0,.21.06.21.06.2.06.21.07.2.07.21.07.19.08.2.08.2.09.19.09.2.09.18.09.19.1.19.11.18.1.18.11.18.11.17.12.18.12-1,1.49-.14-.1-.15-.09-.15-.1-.15-.09-.16-.09L57.44,80,57.28,80l-.16-.08L57,79.79l-.17-.07-.16-.07-.17-.07-.17-.07-.17-.06L56,79.39l-.17-.06-.17,0-.18,0-.18,0-.18,0-.18,0-.18,0-.18,0-.18,0-.19,0L54,79l-.19,0-.18,0h-.77Zm-9.36,8.87h-1.8l0-.55,0-.55.07-.54.1-.52.13-.52.15-.51.18-.5.2-.48.23-.48.24-.46.27-.45.3-.43.31-.42.33-.4.35-.39.38-.37.38-.35.41-.34.42-.31.44-.3.45-.27.47-.26.48-.24.49-.21.51-.19.51-.17.53-.14.54-.12.54-.09.56-.07.56,0,.57,0v1.82h-.49l-.47,0-.47,0-.47.08-.45.1-.44.12-.44.14-.42.16-.42.18-.41.2-.39.22-.38.23-.36.25-.36.26-.34.29-.32.29-.31.31-.3.32-.27.34-.26.35-.24.35-.23.37-.21.39-.18.39-.17.4-.14.41-.13.42-.1.42-.08.44-.06.43,0,.45v.46Zm8.26,8.8v1.82h-.09l-.52-.06-.51-.09-.5-.1L49.62,98l-.49-.15-.47-.17-.47-.19-.45-.21L47.3,97l-.43-.24-.42-.27-.4-.28-.39-.3-.38-.32-.36-.33-.34-.35-.33-.36-.31-.38-.3-.39-.27-.4L43.11,93l-.24-.43-.22-.44-.2-.45-.18-.46-.15-.47L42,90.25l-.11-.49-.09-.49-.06-.5,0-.51,0-.51h1.8v.42l0,.42.05.41.07.41.1.4.1.39.13.38.15.38.16.37.18.37.2.35.21.34.23.34.25.32.26.31.27.3.29.29.3.28.32.27.32.25.34.24.35.22.36.21.38.19.38.18.39.16.4.15.41.13.42.11.42.09.43.07.44.06Zm0,1.82h0Zm101,0h-101V96.55H152.6l.08,1.81Zm0,0h0Zm8.18-10.61h1.8v.51l0,.51-.06.5-.09.5-.11.48-.14.48-.15.47-.18.46-.2.45-.22.44-.24.43-.25.41-.28.4-.3.4-.31.37-.33.36-.34.35-.36.33-.38.32-.39.3-.4.28-.42.27L157,97l-.44.24-.46.21-.46.19-.47.17-.49.15-.49.14-.51.1-.51.09-.52.06-.17-1.8.44-.06.43-.07.42-.09.42-.11.41-.13L155,96l.39-.16.38-.18.37-.19.37-.21.35-.22.34-.24.32-.25.32-.26.3-.28.29-.29.27-.3.26-.32.25-.32.23-.34.21-.34.2-.35.18-.36.16-.38.15-.38.13-.38.11-.39.09-.4.07-.41,0-.41,0-.42v-.42Zm-9.36-8.87V77.06h0l.57,0,.56,0,.56.07.55.09.53.12.53.14.52.17.5.19.5.21.47.24.47.25.45.28.44.3.42.31.41.34.39.35.37.37.35.39.33.4.32.42.29.43.27.45.25.46.22.48.2.48.18.5.15.51.13.52.1.52.07.54.05.55v.55h-1.8v-.46l0-.45-.05-.43-.09-.44-.1-.42-.13-.42-.14-.41-.17-.4-.18-.39-.21-.39-.22-.37-.25-.35-.25-.35-.28-.34-.3-.32-.3-.31-.33-.29-.34-.29-.35-.26-.37-.25-.38-.23L156,80l-.41-.2-.41-.18-.43-.16-.44-.14-.44-.12-.45-.1-.46-.08-.47,0-.48,0Zm-6.82.55,1.6.83L145,79.1l.18-.12.17-.12.18-.11.18-.11.19-.1.18-.11.19-.1.19-.09.19-.09.19-.09L147,78l.2-.08.2-.08.2-.07.2-.07.21-.07.21-.06.2-.06.21-.06.22,0,.21-.05.21,0,.22,0,.22,0,.22,0,.22,0,.22,0,.22,0,.23,0h.67v1.82h-.76l-.19,0-.19,0-.19,0L150,79l-.19,0-.18,0-.18,0-.18,0-.18,0-.18,0-.17,0-.18,0-.17.06-.17.06-.17.06-.17.07-.17.07-.16.07-.17.07-.16.08-.16.08-.15.08-.16.09-.16.09-.14.09-.15.1-.16.09-.14.1-1.31-1.16Zm14.25-9.2v1.82h-.5l-.5,0-.5,0-.49.07-.48.08-.48.1-.47.12-.47.14-.47.15-.45.17-.45.18-.44.2-.43.22-.43.23L152,74l-.41.26-.41.28-.39.29-.39.31-.38.31-.36.34-.36.34-.35.36-.33.37-.33.38-.32.39-.3.41-.3.41-.27.43-.27.44-.26.44-.24.46-1.6-.83.27-.51.29-.5.29-.48.32-.47.32-.47.34-.45.35-.44.36-.42.38-.41.39-.4.4-.39.41-.37.42-.36.43-.34.45-.32.45-.32.47-.29.47-.28L152,72l.49-.25.5-.23.51-.2.52-.2.52-.17.53-.15.54-.14.55-.11.55-.1.56-.07.56-.06.56,0Z"/><path class="cls-4" d="M102.17,161.7C79.79,145.45,64.6,117.54,63.32,85.63H141c-1.27,31.91-16.47,59.82-38.84,76.07Z"/><path id="_1" data-name="1" class="cls-3" d="M63.32,84v3.28l1.62-1.7.16,2.93.23,2.91.32,2.89L66,97.15,66.5,100l.55,2.79.61,2.77.69,2.73.75,2.7.83,2.66.89,2.63,1,2.58,1,2.55,1.09,2.5,1.16,2.47,1.21,2.42,1.28,2.37,1.33,2.33,1.4,2.28L81.72,138l1.5,2.18,1.57,2.12,1.61,2.07,1.67,2,1.71,2,1.77,1.91,1.81,1.84,1.86,1.78,1.91,1.72,2,1.66,2,1.59,2,1.54L101.22,163l-2.11-1.59L97,159.79l-2-1.73-2-1.78-1.93-1.85-1.88-1.92-1.83-2-1.78-2-1.72-2.09-1.68-2.15-1.61-2.2L79,139.82l-1.5-2.31-1.44-2.36-1.38-2.4-1.32-2.46-1.25-2.5L71,125.25l-1.13-2.59L68.77,120l-1-2.67-.93-2.72L66,111.9l-.78-2.79-.7-2.82-.64-2.85-.56-2.89-.48-2.91-.41-3-.32-3-.24-3-.16-3L63.32,84Zm38.85,3.27H63.32V84h38.85v3.27Zm0-3.27h0Zm40.46,1.71L141,87.26H102.17V84H141ZM101.22,163l1.89-2.65h-1.89l2-1.54,2-1.59,1.95-1.66,1.9-1.72,1.86-1.78,1.81-1.84,1.77-1.91,1.72-2,1.67-2,1.61-2.07,1.56-2.12,1.51-2.18,1.45-2.23,1.39-2.28,1.33-2.33,1.28-2.37,1.22-2.42,1.15-2.47,1.09-2.5,1-2.55,1-2.58.88-2.63.83-2.66.76-2.7.69-2.73.61-2.77.54-2.79.46-2.83.39-2.85.32-2.89.24-2.91.16-2.93,3.23.13-.16,3-.25,3-.32,3-.4,3-.49,2.91-.56,2.89-.63,2.85-.71,2.82-.78,2.79-.85,2.74-.93,2.72-1,2.67-1.07,2.63-1.12,2.59-1.19,2.54-1.26,2.5-1.32,2.46-1.38,2.4-1.44,2.36-1.5,2.31-1.56,2.25-1.61,2.2-1.68,2.15-1.72,2.09-1.78,2-1.83,2-1.88,1.92-1.93,1.85-2,1.78-2,1.73-2.07,1.65L103.11,163Z"/><path class="cls-1" d="M102.17,152.19C85.39,140,74,119.07,73,95.14H131.3q-.15,3.64-.61,7.18H83.35a60.6,60.6,0,0,0,8.43,26.47,66.28,66.28,0,0,0,16.3,18.54,64.88,64.88,0,0,1-5.91,4.86Z"/><path class="cls-1" d="M129.38,109.7c-.5,2.16-1.07,4.28-1.73,6.36H105.6c2.41,6.63,6.94,13.06,13,18.87a73,73,0,0,1-4.57,6.11,83,83,0,0,1-6.32-6.7,67.6,67.6,0,0,1-13.6-24.64h35.25Z"/><path class="cls-2" d="M106.52,158.32v10l18.27,12.78L102.17,299.58,79.54,181.13l18.87-13.19V158.8c1.23,1,2.48,2,3.76,2.9q2.22-1.62,4.35-3.38Z"/><path id="_1-2" data-name="1" class="cls-3" d="M106,169.1l-.39-.75v-10h1.79v10Zm0,0-.39-.27v-.48Zm19.66,12.2-1.39.58L106,169.1l1-1.49,18.27,12.78Zm-.37-.91.48.33-.11.58Zm-24,119.36v-.34L123.9,181l1.77.34L103.05,299.75ZM79,180.39l1.4.57,22.62,118.45-1.77.34L78.66,181.3l.37-.91Zm-.37.91-.11-.58.48-.33Zm20.65-13.36-.39.75L80.05,181.88l-1-1.49,18.87-13.2,1.41.75Zm0,0v.47l-.39.28.39-.75ZM99,158.1l.34.7v9.14h-1.8V158.8l1.46-.7Zm2.67,2.87,1,1.47h-1l-.12-.09-.12-.09-.12-.09-.12-.09L101,162l-.12-.09-.12-.09-.12-.09-.12-.09-.12-.1-.12-.08-.12-.09-.12-.09-.12-.1-.12-.09-.12-.09-.11-.09-.12-.09-.12-.09-.12-.1-.12-.09-.12-.09-.11-.09-.12-.1-.12-.09-.11-.1-.12-.09-.12-.09-.12-.1-.12-.09-.11-.1-.12-.09L99,158.1l.12.09.11.09.11.1.12.09.11.09.12.09.11.09.12.09.11.1.12.09.12.09.11.09.12.09.11.09.12.09.11.09.12.09.12.09.11.09.12.09.12.09.11.09.12.08.12.09.12.09.11.08.12.09.12.09.12.09.11.08.12.09.12.09Zm5.77-2.65h-1.79l1.47.7-.14.11-.13.11-.14.11-.13.11-.14.11-.13.11-.14.11-.13.11-.14.11-.14.11-.13.11-.14.11-.14.1-.13.11-.14.11-.14.1-.13.11-.14.11-.14.1-.14.11-.13.11-.14.1-.14.11-.14.1-.14.11-.14.1-.14.1-.14.11-.14.1-.14.1-.14.11-.14.1-1-1.47.14-.11.14-.1.13-.1.14-.1.14-.1.13-.1.14-.1.14-.1.13-.1L103,160l.13-.1.14-.11.13-.1.14-.1.13-.11.14-.1.13-.11.13-.1.14-.11.14-.1.13-.11.13-.1.13-.11.14-.11.13-.1.13-.11.14-.11.13-.11.13-.11.13-.11.13-.11.14-.1,1.46.7Z"/><polygon class="cls-3" points="98.41 78.21 106.52 78.21 106.52 85.63 102.17 85.63 98.41 85.63 98.41 78.21"/><path id="_1-3" data-name="1" class="cls-3" d="M106.79,78.21l-.27.27H98.41v-.55h8.11Zm-.27,7.7-.28-.28V78.21h.55v7.42l-.27.28Zm-4.35-.56h4.35v.56h-4.35Zm-4,.28.28-.28h3.76v.56H98.41Zm.28-7.7.27.28v7.42h-.55V78.21l.28-.28Z"/><path class="cls-5" d="M102.17,69.33c8,0,14.62,2.34,14.62,5.22s-6.57,5.23-14.62,5.23-14.63-2.34-14.63-5.23S94.11,69.33,102.17,69.33Z"/><path id="_1-4" data-name="1" class="cls-3" d="M118.41,74.55h-3.24v-.08l0-.06,0-.09-.06-.11-.11-.13-.14-.14-.18-.16-.21-.17-.25-.18-.28-.17-.32-.18-.35-.17-.38-.18-.41-.17L112,72.4l-.46-.16-.49-.15L110.5,72l-.54-.14-.56-.13-.58-.12-.59-.11-.62-.09-.63-.1-.65-.07-.66-.07-.68-.06-.68,0-.71,0-.71,0h-.72V67.69h.77l.77,0,.76,0,.75,0,.74.07.72.07.71.09.7.09.68.11.66.12.65.14.63.14.61.16.59.16.58.18.55.19.53.2.51.21.49.22.47.24.44.24.42.27.4.27.38.3.34.31.33.34.28.37.26.39.21.43.17.46.1.49,0,.49Zm-16.24,6.87V78.15h.72l.71,0,.71,0,.68,0,.68-.06.66-.07.65-.07.63-.1.62-.09.59-.11.58-.12.56-.13.54-.14L111,77l.49-.15.46-.16.44-.16.41-.18.38-.17.35-.17.32-.18.28-.17.25-.18.21-.17.18-.16.14-.14.11-.13.06-.11,0-.09,0-.06v-.09h3.24l0,.5-.1.49-.17.46-.21.43-.26.39-.28.37-.33.34-.34.31-.38.3-.4.27-.42.27-.44.24-.47.24-.49.22-.51.21-.53.2-.55.19-.58.17-.59.17-.61.16-.63.14-.65.14-.66.12-.68.11-.7.09-.71.09-.72.07-.74.07-.75,0-.76,0-.77,0ZM85.92,74.55h3.24v.09l0,.06,0,.09.07.11.11.13.13.14.18.16.21.17.25.18.28.17.32.18.35.17.38.17.41.18.44.16.47.16.48.15.52.14.53.14.56.13.58.12.6.11.61.09.63.1.65.07.66.07.68.06.69,0,.7,0,.71,0h.73v3.27h-.78l-.77,0-.76,0-.75,0-.74-.07-.72-.07-.71-.09-.7-.09-.68-.11-.66-.12-.64-.14-.63-.14L93,80.32l-.59-.17L91.85,80l-.56-.19-.52-.2-.52-.21-.49-.22-.46-.24-.45-.24-.42-.27-.4-.27-.37-.3-.35-.31L87,77.19l-.28-.37-.26-.39L86.23,76l-.17-.46-.1-.49,0-.5Zm16.25-6.86V71h-.73l-.71,0-.7,0-.69,0-.68.06-.66.07-.65.07-.63.1-.61.09-.6.11-.58.12-.56.13-.53.14-.52.14-.48.15-.47.16-.44.16-.41.17-.38.18-.35.17-.32.18-.28.17-.25.18-.21.17-.18.16-.13.14-.11.13-.07.11,0,.09,0,.06v.08H85.92l0-.49.1-.49.17-.46.21-.43.26-.39.28-.37.33-.34.35-.31L88,71l.4-.27.42-.27.45-.24.46-.24.49-.22.52-.21.52-.2.56-.19.57-.18.59-.16.62-.16.63-.14.64-.14.66-.12.68-.11.7-.09.71-.09.72-.07.74-.07.75,0,.76,0,.77,0Z"/><path class="cls-3" d="M110.13,32.72h0V32.6h3.24v.12Zm0,.29h0v-.29h3.24V33Zm0,3.58h0V33h3.24v3.58Zm0,.81v-.81h3.24v.81Z"/><path class="cls-3" d="M127.59,50.73l-3,1.23.07.14-.28-.5-.27-.5-.29-.5-.31-.49-.31-.49-.33-.48-.33-.48-.35-.47-.36-.46-.37-.46-.38-.46-.38-.44-.4-.44-.41-.44-.41-.43-.44-.42-.43-.42-.45-.4-.45-.41-.47-.39-.47-.39-.48-.39-.5-.37-.5-.37-.5-.36-.53-.35-.52-.34-.53-.34-.54-.33-.56-.32-.55-.31-.57-.31L112.5,36l.61.33.61.34.59.35.59.35.58.37.58.37.56.39.56.39.55.4.53.42.53.41.52.43.51.43.5.44.49.46.49.45.46.47.47.47.45.48.44.49.43.5.42.5.41.51.39.52.39.52.37.53.36.54.36.54.34.55.32.56.32.56.3.57.06.14Zm-.06-.14,0,.06,0,.08-.06-.14Zm.66,4.36H125V53.34l0-.1v-.1l0-.09V53l0-.09v-.09l0-.09,0-.08,0-.07v-.08l0-.08,0-.07,0-.06,0-.06,0-.07,0,0,0-.06,0,0,3-1.23,0,.12,0,.11,0,.11,0,.12,0,.12,0,.12,0,.12,0,.12,0,.13,0,.12,0,.13,0,.13,0,.13,0,.13,0,.14,0,.13,0,.13,0,.14v.14l0,.14V55ZM125,55v-.07h0ZM128,56.56,124.85,56V55h3.23v1.4l0,.06v.15Zm0,0v0Zm-11.7,21.61-1.8-2.71.44-.31.43-.33.42-.35.43-.37.41-.39.42-.42.4-.44.4-.46.39-.48.39-.5.38-.52.38-.54.36-.56.36-.58.34-.6.34-.61.34-.63.32-.65.31-.67.3-.69.3-.7.28-.71.27-.74.25-.74.26-.76.23-.78.22-.79.22-.79.19-.82.19-.82.18-.84.16-.85,3.18.58-.17.9-.18.9-.2.88-.22.87L127,61l-.24.85-.26.83-.26.83-.28.81-.3.78-.3.78-.32.77-.33.74-.34.74-.36.71-.36.71-.38.68-.39.66-.4.65-.41.63-.42.62-.44.58-.44.58-.45.55-.47.54-.48.51-.48.49-.5.47-.5.45-.52.42-.52.41Z"/><polygon class="cls-3" points="116.85 75.98 116.86 76 114.02 77.55 114 77.53 116.85 75.98"/><path class="cls-3" d="M115.17,74.55h3.24V75l0,.13v.13l0,.14,0,.12,0,.14,0,.12,0,.12-.06.13,0,.12-.06.12-.06.11-.06.11-.07.11-.07.11-.07.1-.08.11-.07.1-.09.1-.07.1-.09.09-.08.09-.09.09-.1.09-.09.09-.1.09-.09.08-.1.08-.1.09-.11.07-2-2.6.06,0,.06,0,.05,0,0,0,0,0,0,0,0,0,0,0,0,0,0,0,0,0,0,0,0,0,0,0,0,0,0,0v0l0,0v-.13h0v0h0v0h0Zm-13-3.59V67.69h.77l.77,0,.76,0,.75,0,.74.07.72.07.71.09.7.09.68.11.66.12.65.14.63.14.61.16.59.16.58.18.55.19.53.2.51.21.49.22.47.24.44.24.42.27.4.27.38.3.34.31.33.34.28.37.26.39.21.43.17.46.1.49,0,.49h-3.24v-.08l0-.06,0-.09-.06-.11-.11-.13-.14-.14-.18-.16-.21-.17-.25-.18-.28-.17-.32-.18-.35-.17-.38-.18-.41-.17L112,72.4l-.46-.16-.49-.15L110.5,72l-.54-.14-.56-.13-.58-.12-.59-.11-.62-.09-.63-.1-.65-.07-.66-.07-.68-.06-.68,0-.71,0-.71,0Zm-13,3.59H85.92l0-.49.1-.49.17-.46.21-.43.26-.39.28-.37.33-.34.35-.31L88,71l.4-.27.42-.27.45-.24.46-.24.49-.22.52-.21.52-.2.56-.19.57-.18.59-.16.62-.16.63-.14.64-.14.66-.12.68-.11.7-.09.71-.09.72-.07.74-.07.75,0,.76,0,.77,0h.78V71h-.73l-.71,0-.7,0-.69,0-.68.06-.66.07-.65.07-.63.1-.61.09-.6.11-.58.12-.56.13-.53.14-.52.14-.48.15-.47.16-.44.16-.41.17-.38.18-.35.17-.32.18-.28.17-.25.18-.21.17-.18.16-.13.14-.11.13-.07.11,0,.09,0,.06v.08Zm.72.91-1.95,2.59L87.82,78l-.1-.09-.1-.08-.09-.08-.1-.09-.09-.09-.09-.08-.09-.1-.09-.09L87,77.19l-.07-.1-.08-.1-.08-.1-.08-.11-.07-.1-.07-.11-.07-.11-.06-.11-.06-.11-.06-.12,0-.12-.06-.13,0-.12,0-.12,0-.14,0-.12,0-.14,0-.13L86,75l0-.14v-.28h3.24v0h0v0h0v.1l0,0,0,0v0l0,0,0,0,0,0,0,0,0,0,0,0,0,0,0,0,0,0,0,0,0,0,0,0,0,0,.05,0,.06,0,.06,0Z"/><polygon class="cls-3" points="87.49 75.96 87.5 75.94 90.31 77.57 90.3 77.59 87.49 75.96"/><polygon class="cls-3" points="76.41 57.17 79.59 56.55 79.76 57.37 79.94 58.19 80.13 58.99 80.33 59.78 80.54 60.55 80.77 61.32 81.01 62.07 81.26 62.81 81.51 63.53 81.79 64.24 82.07 64.93 82.35 65.62 82.65 66.28 82.97 66.93 83.28 67.56 83.61 68.17 83.95 68.76 84.29 69.34 84.64 69.91 85 70.45 85.37 70.97 85.74 71.48 86.12 71.97 86.51 72.43 86.9 72.88 87.3 73.31 87.7 73.71 88.11 74.09 88.53 74.45 88.94 74.8 89.37 75.12 89.79 75.42 87.99 78.13 87.47 77.77 86.95 77.37 86.45 76.96 85.95 76.52 85.46 76.06 84.98 75.58 84.52 75.08 84.06 74.57 83.62 74.03 83.18 73.47 82.75 72.89 82.34 72.3 81.93 71.69 81.54 71.06 81.15 70.41 80.78 69.75 80.42 69.07 80.06 68.37 79.73 67.66 79.4 66.93 79.08 66.2 78.77 65.44 78.49 64.67 78.2 63.88 77.93 63.09 77.68 62.28 77.44 61.46 77.2 60.62 76.98 59.78 76.78 58.92 76.59 58.05 76.41 57.17"/><polygon class="cls-3" points="78 58.5 78 58.5 78 55.22 78 55.22 78 58.5"/><path class="cls-3" d="M76.41,57.16l3.18-.62,0-.15L78,56.85h1.62l-.18-.73.18.73h0l-.18-.73h0l.17.73h0l-.17-.73.17.73H78l1.55-.45-3.1.9L78,56.86H76.38l.18.73-.18-.73h0l.18.73h0l-.18-.73h0l.18.73-.18-.73H78l-1.55.45,0-.14Zm0,.14,0-.1v0Zm-.14-.7,3.19-.53v0h0v0h0v0h0v0h0v0h0v0h0v0h0v0h0v0h0v0h0v0h0v0h0v0h0l-3.18.62v0h0v0h0v0h0v0h0v0h0v0h0v0h0v0h0v0h0v0h0v0h0v0h0v0Zm0,0v0l0-.11ZM76.15,55l3.23-.14v1.19l-3.19.53v-.26l0-.05V55Zm3.23-.14h0v0Zm-2.57-4.3,2.86,1.51.06-.13,0,0,0,.05v.06l0,.06,0,.06v.07l0,.07,0,.07,0,.08,0,.08,0,.08v.08l0,.09,0,.09v.28l0,.1v1.55L76.15,55V53.11l0-.14v-.13l0-.14,0-.14,0-.13,0-.13,0-.13,0-.13,0-.13,0-.12,0-.13,0-.12,0-.13,0-.11,0-.12,0-.12,0-.11,0-.12,0-.11.07-.14Zm-.07.14,0-.06,0-.08ZM91.83,36l1.5,2.89-.56.31-.56.31-.55.32-.54.33-.54.33-.52.35-.52.35L89,41.5l-.5.37-.49.37-.48.39-.47.38-.47.4-.45.4-.45.41-.44.41-.43.43-.41.42-.41.44-.4.44-.39.45-.38.46-.37.46-.35.45-.35.48-.34.47-.32.49-.32.48-.3.49-.29.5-.28.5-.27.5-2.86-1.51L77.1,50l.32-.56.33-.56.34-.54.35-.55.37-.53.37-.53.39-.53.39-.52.41-.51.42-.5.43-.49.44-.49.45-.48.46-.48.47-.46.48-.46.49-.45.51-.44.5-.44.52-.42.54-.42.53-.41.55-.4.56-.4.56-.38.57-.37.58-.37L90,37l.59-.35.61-.34.61-.33Z"/><path class="cls-3" d="M94.2,36.59h0v.81H91v-.81Zm0-3.58h0v3.58H91V33Zm0-.29h0V33H91v-.29Zm0-.12h0v.12H91V32.6Zm0-.28v.28H91v-.28Z"/><path class="cls-3" d="M90.33,31.54l1.47-2.91.13.07.1.07.11.08.11.07.11.08.1.09.11.08.09.09.1.08.09.09.1.1.09.1.08.09.09.1.08.11.09.11.07.11.08.11.07.11.06.12.07.12.06.12.06.12.05.13,0,.13,0,.13,0,.13,0,.13,0,.13,0,.14,0,.14,0,.14,0,.14L91,32.46v-.3l0,0,0,0,0,0,0,0,0,0,0,0,0,0,0,0,0,0,0,0,0,0,0,0,0,0,0,0,0,0,0,0,0,0-.05,0,0,0,0,0-.05,0,.12.08Zm1.47-2.91.09.05,0,0Zm-8.38-8.07h3.24v.33l0,.31,0,.32,0,.31,0,.31.07.3.07.3L87,23l.1.29.1.29.12.29.12.27.14.28.14.28.15.27.17.26.17.25.19.25.19.26.19.23.22.24.21.23.22.22.24.22.24.21.24.2.26.19.26.19.27.18.27.17.28.16.29.16-1.47,2.91-.38-.2-.37-.22-.36-.23-.35-.23-.35-.25-.34-.26-.33-.27-.32-.27-.3-.29-.3-.3-.29-.31-.28-.31-.27-.33-.26-.32-.24-.35-.24-.35-.22-.36-.21-.36-.2-.37-.18-.38-.18-.39-.15-.39-.15-.41-.13-.4-.12-.41-.1-.42-.09-.42-.07-.43-.06-.43,0-.44,0-.44v-.44Zm5.06-9.81,1.75,2.75.1-.07-.21.16-.21.17-.2.17-.19.19-.19.18-.18.18-.18.2-.17.19-.17.2-.16.21-.15.2-.15.22-.14.21-.13.22-.14.22-.12.23-.11.22-.11.24-.11.24-.09.23-.09.25-.08.23-.07.25-.06.25-.07.25,0,.25,0,.26,0,.25,0,.27,0,.26v.53H83.42v-.73l0-.37,0-.35,0-.36.06-.36L83.7,18l.07-.35.1-.34L84,17l.11-.34.12-.33.14-.33.14-.32.14-.32.16-.31.17-.31.17-.31.19-.29.19-.3.2-.28.21-.29.21-.27.22-.27.24-.26.24-.26.24-.25.25-.25.26-.23.27-.23.27-.23.28-.21.09-.07Zm-.09.07.08-.06h0l-.09.07ZM103.4,0l-2.48,2.1h2.48l-.32.39-.34.38-.34.39-.34.39L101.7,4l-.35.38-.37.38-.36.37-.37.37-.38.37-.39.37-.38.37L98.7,7l-.4.37-.4.35-.41.36-.42.36-.42.35-.43.36-.43.34-.43.35-.45.35-.44.33-.45.34-.46.34-.46.34-.47.33-.47.33-.47.33-.49.33-.48.32-.49.32-1.75-2.75.48-.31.46-.31.46-.31.45-.31.45-.31.44-.32.44-.32.43-.32.44-.33L93,7.59l.42-.32.41-.34.41-.33.41-.33L95,5.93l.39-.33.39-.33.38-.35.38-.34.37-.34.37-.35.36-.34L98,3.2l.35-.35.35-.35L99,2.14l.33-.35.32-.36.32-.35.32-.36.31-.36.3-.36ZM116,10.83l-2,2.61.1.07-.49-.32-.48-.32-.49-.33-.48-.33-.46-.33-.47-.33-.47-.33-.45-.34-.45-.34-.45-.34L109,9.85l-.43-.35-.43-.34-.43-.36-.42-.35-.42-.36-.41-.35-.4-.37-.4-.36-.4-.36-.39-.37-.39-.37-.38-.37-.37-.38-.36-.37L103,4.41,102.62,4l-.35-.38-.34-.38-.34-.4-.34-.38-.33-.39L103.4,0l.31.36.31.37.31.35.32.36.33.35.33.36.34.35.35.36.35.35.35.34.36.35.37.34.37.35.38.34.39.34.38.34.39.33.4.34.41.33.41.33.41.34.42.32.42.33.43.31.44.33.44.32.45.32.45.31.45.31.46.31.47.31.47.31.1.07Zm-.1-.07.06,0,0,0-.1-.07Zm5,9.8h-3.24V20l0-.26,0-.26,0-.26,0-.25,0-.25-.06-.26-.07-.24-.07-.25-.08-.24-.08-.24-.1-.24-.11-.24-.1-.23-.12-.22-.12-.23-.13-.22-.13-.22-.14-.21L116,15.5l-.15-.21-.16-.21-.17-.2-.17-.2-.17-.18-.19-.19-.19-.19-.19-.17-.19-.18-.21-.16-.21-.17,2-2.61.28.22.26.23.27.22.26.24.25.25.24.24.24.27.23.26.22.26.22.28.2.28.2.29.19.29.19.29.17.31.17.31.15.31.16.32L120,16l.12.33.12.33.11.34.11.33.09.35.08.34.07.36.06.35,0,.36,0,.36,0,.37v.72Zm-6.78,10.9-1.72-2.76.12-.07.29-.15.28-.17.28-.17.26-.18.26-.19.26-.19.24-.2.25-.21.23-.22.22-.22.22-.23.21-.24.19-.23.2-.26.18-.25.17-.25.16-.26.16-.27.14-.28.14-.28.12-.27.12-.29.11-.29.09-.29.08-.3.08-.3.06-.3,0-.31,0-.31,0-.32,0-.31v-.33h3.24V21l0,.44,0,.44-.06.43-.07.43-.09.42-.1.42-.12.41-.13.4-.15.41-.15.39-.18.39-.18.38-.2.37-.21.36-.22.36-.24.35-.24.35-.26.32-.27.33-.27.31-.29.31-.3.3-.31.29-.32.27-.33.27-.33.26-.35.25-.36.23-.36.23-.37.21-.38.21.13-.08Zm-1.72-2.76,0,0,.08-.05Zm1,3.76-3.23-.27v-.14l0-.14,0-.14,0-.14,0-.13,0-.13,0-.13,0-.13.05-.13,0-.13.07-.13,0-.11.07-.12.07-.12.07-.11.07-.11L111,30l.08-.11.08-.11.09-.1.08-.09.1-.1.09-.1.09-.09.1-.08.1-.09.1-.08L112,29l.11-.08.11-.07.11-.08.11-.07,1.72,2.76-.06,0,0,0,0,0,0,0,0,0,0,0,0,0,0,0,0,0,0,0,0,0,0,0,0,0,0,0,0,0,0,0,0,0,0,0,0,0v0l0,0v0l0,0v.24Z"/><polygon class="cls-3" points="110.13 32.6 110.13 32.32 113.37 32.32 113.37 32.6 110.13 32.6"/><path class="cls-1" d="M111.75,32.6v4.79a25.41,25.41,0,0,0-9.58-1.65,25.46,25.46,0,0,0-9.59,1.65V32.32c0-.11,0-.22,0-.34.38-3,4.56-5.39,9.64-5.39S111.43,29,111.8,32c0,.12,0,.23,0,.34Z"/><path class="cls-3" d="M110.13,32.72h0V32.6h3.24v.12Zm0,.29h0v-.29h3.24V33Zm0,3.58h0V33h3.24v3.58Zm1,2.3-1-1.5v-.8h3.24v.8Zm-9-1.52V34.11h1.47l.36,0,.35,0,.36,0,.36,0,.35,0,.34,0,.35,0,.34.05.34,0,.32,0,.33.05.33,0,.32.07.32,0,.31.07.32.07.3.07.3.07.29.08.3.08.28.08.29.09.27.09.27.09.27.1.26.09.26.11.25.1-1.26,3-.19-.08-.21-.08-.21-.08-.22-.08-.22-.07-.24-.08-.23-.07-.25-.07-.24-.07-.26-.07-.26-.06-.26-.06-.27-.06-.27-.06-.28,0-.28-.05-.29,0-.29,0-.31,0-.3,0-.3,0-.31,0-.31,0-.32,0-.32,0-.32,0-.33,0-.32,0h-1.34ZM91,37.39H94.2L92,35.88l.25-.1.26-.11.26-.09.27-.1.27-.09.28-.09.28-.09.28-.08.3-.08.29-.08.3-.07.31-.07.31-.07.31-.07.32,0,.32-.07.33,0,.32-.05.34,0,.33,0,.35-.05.34,0,.34,0,.35,0,.36,0,.35,0,.36,0,.37,0h1.47v3.26h-1.35l-.32,0-.33,0-.32,0-.32,0-.31,0-.32,0-.31,0-.3,0-.3,0-.3,0-.3,0-.28,0-.29.05-.28,0-.27.06L96,38l-.26.06-.26.07-.26.06-.24.07-.25.07-.23.07-.24.08-.22.08-.22.07-.21.08-.2.08-.2.08L91,37.39Zm3.24-.8h0v.8H91v-.8Zm0-3.58h0v3.58H91V33Zm0-.29h0V33H91v-.29Zm0-.12h0v.12H91V32.6Zm0-.53,0,.25v.28H91v-.28l3.22-.25Zm0,0,0,.16v.09l0-.25Zm-3.25-.29,3.2.41v-.46l0,.06h0l0-.09v.08h0v0h0v.05h0v.06h0V32h0V32h0v0h0l0,.09h0v-.06L91,32.58l0-.06h0l0,.08v-.07h0v0h0v0h0v0h0v0h0v-.06h0v0h0l0-.09h0v-.4Zm0,.46,0-.23,0-.23ZM102.17,25v3.28h-.43l-.43,0-.41,0-.41,0-.39.06-.4.06-.38.07-.38.09-.36.09-.35.11-.34.11-.33.12-.32.13-.3.14-.29.14-.28.15-.26.15-.25.16-.23.16-.21.17-.2.17-.18.16-.16.17-.15.18-.13.17-.11.17-.1.16-.08.16-.06.15-.06.16,0,.16,0,.15-3.2-.41.06-.41.1-.4.13-.38.15-.38.18-.36.2-.36.23-.33.25-.32.26-.31.28-.29.31-.29.31-.27.33-.25.35-.25.36-.23.37-.22.38-.21.4-.19.41-.18.42-.18.43-.15.44-.15.45-.13.47-.12.46-.11.49-.09.48-.08.5-.07.49-.05.52,0,.51,0,.52,0Zm11.23,7.28-3.19-.5v.46l0-.15,0-.16,0-.16-.07-.15-.08-.16-.1-.16-.11-.17-.13-.17-.14-.18-.17-.17-.18-.16-.2-.17-.21-.17-.23-.16-.25-.16-.26-.15-.28-.15-.28-.14-.31-.14-.32-.13-.33-.12-.34-.11-.35-.11-.36-.09-.38-.09-.38-.07-.39-.06-.4-.06-.41,0-.41,0-.43,0h-.42V25l.51,0,.52,0,.51,0,.5.05.49.07.49.08.48.09.46.11.47.12.45.13.44.15.43.15.42.18.41.18.4.19.38.21.38.22.36.23.34.25.33.25.31.27.31.29.28.29.27.31.24.32.23.33.2.36.18.36.15.38.13.38.1.4.07.41v.45Zm0-.45,0,.23,0,.22Zm0,.54h-3.24l0-.25,0,.06h0l0-.09h0v0h0v0h0v0h0v0h0v0h0v-.06h0v0h0v0h0V31.7l0,.09h0v-.06l3.19.5v0h0l0,.09h0v0h0v0h0v0h0v0h0v0h0v.06h0v0h0v0h0v.07l0-.08h0v0l0-.25Zm-3.24,0v-.08l0-.17Zm0,.28h0v-.28h3.24v.28Z"/><polygon class="cls-3" points="100.55 35.43 100.55 26.42 103.79 26.42 103.79 35.43 100.55 35.43"/><path class="cls-3" d="M109.33,71c-1.18-.22-2.44-.39-3.76-.51a15.15,15.15,0,0,0,8.19-6.37,19.68,19.68,0,0,0,3.13-11,18.79,18.79,0,0,0-4.39-12.11,13.61,13.61,0,0,0-10.18-5A13.83,13.83,0,0,0,92,40.87a19.11,19.11,0,0,0-4.78,12,19.45,19.45,0,0,0,2.78,11,14.94,14.94,0,0,0,8,6.52c-1.32.09-2.58.24-3.77.44a18.26,18.26,0,0,1-7.83-7.11,18.49,18.49,0,0,1-2.62-10.44,18.71,18.71,0,0,1,5.87-12.71,18.31,18.31,0,0,1,12.72-5,18.06,18.06,0,0,1,12.55,5.26,18.39,18.39,0,0,1,5.46,12.81,18.69,18.69,0,0,1-11,17.34Z"/><polygon class="cls-3" points="99.82 68.58 99.82 36.47 104.51 36.47 104.51 68.58 99.82 68.58"/></g></g></svg>