<svg xmlns="http://www.w3.org/2000/svg" viewBox="0 0 300.36 299.23"><defs><style>.cls-1{fill:#018749;}.cls-2{fill:#fff;}</style></defs><title>Celtic</title><g id="Слой_2" data-name="Слой 2"><g id="Слой_1-2" data-name="Слой 1"><path class="cls-1" d="M290.24,96c-14-37.44-47.92-71.38-85.19-85.36-43.6-18.48-101.18-12.15-139.28,14C15.35,58.52-8.45,116.93,2.7,176.83c8.16,47.92,46.26,94.68,92.68,112,52.92,21,118.65,10,159.25-30.12C297.9,218.26,312,151.2,290.24,96"/><path class="cls-2" d="M106.21,282.66c-49.93-15-91.2-66.56-95.68-117.82C2.87,107.27,33,50.69,84.41,24.41c39.1-21,93.34-20.3,131.78,1.66,27.79,15,48.92,37.77,62.4,66.39,21.3,46.43,14.48,108.16-19.8,147.59C222,285,160.12,300.46,106.21,282.66"/><path class="cls-1" d="M274.6,93.29C261,63.17,232.34,35.39,201.55,23.4,157,3.94,98.39,12.43,62.11,43.87,19.34,79,3.53,137.55,20,188.81c12.16,42.59,52.42,81.7,95.52,91.85,52.25,14,106.33-3,140.12-43.93,32.77-37.61,40.09-98.51,19-143.44"/><path class="cls-2" d="M120.51,280.16C73.58,271,29.33,227.25,19.34,180.32,6.2,126.57,25.5,71.49,71.26,39.05c37.11-27.79,95.51-32.28,137.11-10.82,25.8,12.65,48.76,34.11,61.73,59.9,22.64,41.61,19.31,100.85-9.15,139-32.27,45.26-86.52,65.22-140.44,53.08"/><path class="cls-1" d="M143.31,41.71a6.66,6.66,0,0,0,5.82-2.83c2.17-5.82.84-12.15-.5-17.8-2-3.17-6.48-3.83-9.65-2.33a6.51,6.51,0,0,0-3.49,5.32c.5,4.82-.5,11,2.16,15.31,1.33,2,3.67,2,5.66,2.33"/><path class="cls-2" d="M139.31,22.07a4.27,4.27,0,0,1,6.49.34c1.67,4,.84,8.49,1.34,12.81-.17,1.5-.67,3.5-2.5,3.83s-4.32.16-4.83-1.83c-.83-4.83-1.66-10.32-.5-15.15"/><path class="cls-1" d="M165.27,42.05a5.94,5.94,0,0,0,4-4.17c.33-5.49,3.49-12.31-.5-17.14-2-1.83-5.32-2.16-8.16-1.49-1.66.33-3.15,2.16-3.65,3.65-.34,5.83-3.33,12.82.83,17.81a10.39,10.39,0,0,0,7.48,1.34"/><path class="cls-2" d="M160.12,23.74a4.08,4.08,0,0,1,2.66-2.33c1.66-.33,2.83.5,4,1.16,2,4.66,0,10.32-.67,15a3.68,3.68,0,0,1-2.32,2.16c-2.17.34-4.33-.33-4.83-2.16a53.17,53.17,0,0,1,1.17-13.81"/><path class="cls-1" d="M125.84,43.54c0-3.49-1.83-6.82-1.33-10.32l7.15-1.5a2.43,2.43,0,0,0-.83-2.33L124,30.73c-1.33-1.67-1.33-4.16-2-6.33,1.83-1.83,5.32-1.17,7.82-2l.17-1.32-.67-1.33c-3.16.66-6.48,1.33-9.81,1.82l-.84.83,4.67,21.47a4.51,4.51,0,0,0,2.49-.33"/><path class="cls-1" d="M180.58,25.57l-4.82,18c0,1.33,1.83,1.33,2.83,1.33l4.48-17.31c.34-3.32,4.17-.66,6.16-.49.34-.83,1-1.5.5-2.33l-13.81-3.66-.5.33c0,.83-.66,1.5,0,2.16,1.84.5,3.84.67,5.16,2"/><path class="cls-1" d="M198.55,51c1.83-.34,3-2.33,3.83-4a6,6,0,0,0-1.17-6.16c1.17-.66,2.84-.83,3.83-2.17a7.78,7.78,0,0,0,1-5.49c-2-4-6.66-4.49-10.31-6.32-2.84,7-6.49,13.82-8.82,20.8,3.83,1.5,7.32,3.83,11.64,3.33"/><path class="cls-2" d="M197.56,30.56c2,.67,4.82,1.33,5.49,3.66a3.5,3.5,0,0,1-1.5,3.66c-2.33,1.84-4.49-.66-6.48-1.16a21.44,21.44,0,0,1,2.49-6.16"/><path class="cls-2" d="M199.72,42.88a5,5,0,0,1-1.33,4.49c-2.33,2-5.33.34-7.49-.84l-.16-.5,3-6.82c2,1,4.65,1.67,6,3.67"/><path class="cls-1" d="M104.38,50.36A11.86,11.86,0,0,0,111,47.7c1.49-1.83,1-4.66.33-6.82l-.83-.16c-3.33.16-1,2.82-1.66,4.65a5.23,5.23,0,0,1-3.5,2.66c-5-1.49-5.33-7.48-7.49-11.48-.66-1.5-1.49-4,0-5.32a4.34,4.34,0,0,1,4.17-1.34,4.32,4.32,0,0,1,1.82,2.67,4.34,4.34,0,0,0,2.83-.84c0-1.16-.67-1.83-1.33-2.83-2.32-3.32-7.32-1.49-9.82,1-3.66,5.5,1.5,10.66,3,15.64,1.16,2,3,5,5.83,4.83"/><path class="cls-1" d="M97.05,54,85.9,34.88l-.5-.16c-.67.5-1.66.84-2,1.5L94.72,55.35c.83.34,1.83-.66,2.33-1.33"/><path class="cls-1" d="M68.43,49c1.66-.83,3-2.82,4.83-3l12,15.64c.67-.5,1.84-.67,2-1.67-3.83-5.65-8-10.15-11.65-15.81,1.16-1.82,2.82-2.15,4.33-3.49.16-.66-.68-1.66-1.51-2l-11.15,8-.33.83c.5.5.67,1.33,1.5,1.49"/><path class="cls-1" d="M201.72,54.36a2.51,2.51,0,0,0,4-.33c3.16-4.66,6.32,1.82,9.49,2.65.49,2-1.34,3.67-.84,5.66a3.21,3.21,0,0,0,2.5,1.17c2.16-7.33,4.15-15,5.83-22.47-1.17-.5-1.68-1.83-3.17-1.83l-17.8,14.32Z"/><path class="cls-2" d="M211,49.86l8-6.49a48.31,48.31,0,0,1-3.16,10.32L211,50.53v-.67Z"/><path class="cls-1" d="M194.73,55.85c-29.79-15.14-73.55-13.47-101.17,5.66C56.28,85,39.64,129.24,49.3,171.67c7,35.61,40.26,69.55,75.54,77.71,36.28,9,73.21-.83,99-26.79,29-28.45,37.61-74.39,22.46-111.66C237.83,87.64,216.86,66,194.73,55.85"/><path class="cls-2" d="M231.34,211.43c-23.8,30.63-60.58,44.44-99,37.95-34.78-5.66-68.56-35.11-79-69.06C41,142.55,51,98,82.74,71.66,110,46.87,155.12,39.71,189.23,55.19c22.64,9,44.1,29.45,53.93,51.92,15,32.28,11,76.54-11.82,104.32"/><path class="cls-1" d="M226.84,72.83A2.21,2.21,0,0,0,228.17,71L223,66.34l-.34-1.17L235.32,51c0-1-1.32-1.67-2.15-2C228,54.86,223,59.52,218.52,65.84Z"/><path class="cls-1" d="M194.39,62.18C162,44.71,115.85,48.87,87.73,73c-29.62,23.63-41.09,62.24-32.28,98.85,7.49,32.61,37.44,63.72,70.23,71.38a97.29,97.29,0,0,0,94.68-25.63C247,191,254.47,149.86,241.65,114.92a98.27,98.27,0,0,0-47.26-52.74"/><path class="cls-2" d="M218.36,212.77c-24.46,26.29-64.07,36.28-98.34,23.79-30-9.64-55.91-39.77-61.08-70.38C52.62,131.56,64.27,97,92.89,75c26.46-21.3,68.39-24.8,98.51-9a94,94,0,0,1,42.93,43.93c15.31,33.29,9.82,76-16,102.84"/><path class="cls-1" d="M81.91,64.34c1.33-1-.5-1.83-.66-2.49-2.5,1-4.17,4.15-6.83,5-4.5-4.48-9-10.48-13.64-14.31-.5.34-1.5,1-1.67,1.84l15.14,16.3Z"/><path class="cls-1" d="M71.76,73.16c-.5-.67-1-1.5-1.83-1.5l-5,5.82-1.17.34c-2-1.66-3.83-2.66-5.16-5l4.66-5.66a3.56,3.56,0,0,0-1.5-1.66L56.45,71c-2.16-.83-3.32-2.33-5.33-3.83v-.84l5-6.15c-.34-.66-.83-1.5-1.66-1.66-2.34,3-5.5,6-7.49,9l17.3,14.31c2.83-2.49,5-5.65,7.49-8.65"/><path class="cls-1" d="M228.84,75.32,235,82.48c.66,1.5,2.32.16,2.66-.84-1.33-2.33-4-3.82-4.82-6.48l14.63-12.82c-.83-.83-1-1.83-2-2L228.84,74.66Z"/><path class="cls-1" d="M178.92,162c-2.83-.17-6,1-7.82-1.83-2.49-2.5-1.83-6.49-.67-9.32,1.66-3.33,5.16-3.5,8.32-4,13.81,1.83,29.79,4.49,41.94-2.83,8.15-4.65,12.48-13.64,12.31-22.79.83-12.48-10.81-20.3-20.3-25.29-7.65-5.17-9.49-14.32-17-19.47-8.49-5.66-22-6.49-30.46-.34-9.81,7.5-7.48,20.47-6.82,31.29.17,7.48,1.67,17.14-3.16,23.29a2.78,2.78,0,0,1-3.33-1.16c-4.16-11.32-1.66-24-3.16-35.78-1.49-7.15-5.33-12.81-9-19-2.67-3.16-4.66-6.81-8.66-8.32-11.64-2.49-21.46,4.33-27.95,13-8,12.48-23.63,11.48-32.28,23-4.16,7-4.83,18.29,0,25.29,10.31,16.13,31.45,10.65,47.92,10,4.16,0,8.65-.33,12.15,1.5,1.16.83,2.82,2.49,2.16,4.5a8.77,8.77,0,0,1-5.5,6.49c-15.3,6.15-31.77-3.67-47.08,1.32-7.49,3-11.81,10.66-13,18.14-2,11.15,7.16,19.3,15.81,25C92.89,200,94.72,210,101.21,217.26a31,31,0,0,0,29.29,8.82c14-9,9.65-29.45,7.15-43.26-.5-2.66-.66-6,1.67-7.82,1.66-.84,4.82-1.17,5.82,1,2.66,11.65.17,24.47-1.17,36.28-2.65,6.16-2.82,14-9.31,18A107.85,107.85,0,0,0,154,231.4c-4.16-17.13-1-35.27-.33-52.91,1-1,1.66-3.49,3.82-2.83,2.67.83,3.5,3.66,3.67,6.16-.67,11.81-6,24.63,0,35.61,5,8.15,14.31,11.15,23.63,10.65,8,.66,14.47-6.49,18-12.81,7.16-11.65,22.13-12,28.46-24.3,3-9.15,4.49-22.3-3-29.78-13.65-11.82-34.62-4.16-49.26.83"/><path class="cls-2" d="M227.85,173.33l-1.18.67c-15.8,1.33-30.28,6-44.09,11.81a7.9,7.9,0,0,1-4-3.32c5.16-3.5,11.82-4.83,17.8-7.16,9.66-2.83,19.8-5.16,30.45-5.49Z"/><path class="cls-2" d="M224.51,166.18c-7.32,1.16-14.81,2.33-21.8,4.15-1.49-.83-1.66.84-3,.67a170.25,170.25,0,0,0-23.3,8.32c-1.66-.49-2.33-2.16-3.66-3.33l.17-.49,9.65-3.5c1.17,1.16,1.34-.83,2.33-.83,11.65-3.33,23.3-6.33,35.27-9a7.74,7.74,0,0,1,4.33,4"/><path class="cls-2" d="M181.75,165.85c10.48-2.67,20.3-8.49,32.11-6.49l.5.49c-1.66,1.34-4.83.67-6.82,2-12.81,2.49-24.8,7.16-37.27,10.48a20.21,20.21,0,0,1-4.67-7.66c5.5-.83,10.66,3.84,16.15,1.18"/><path class="cls-2" d="M205.21,145.71c-10.48,1.83-19.47-2.5-29.45-3.17.66-1.66,2.49-2.65,4-3.65,9.48,2.66,19.81,2.49,29.78,4.15-.16,1.84-2.82,2-4.32,2.67"/><path class="cls-2" d="M204.54,139.55a197.91,197.91,0,0,1-20.46-3.33,3.64,3.64,0,0,1,2.16-2.49c11,2.16,22.3,2.16,33.62,3.49-3,6.82-10,1.67-15.32,2.33"/><path class="cls-2" d="M223.19,134.23a280.21,280.21,0,0,1-33.46-3.33c-.5-1.49,1.67-1.83,2.67-2.32,3.16-.17,6.32.83,9.49.83,8.81.66,17.46-1,26.29-1.51a10.07,10.07,0,0,1-5,6.33"/><path class="cls-2" d="M229.34,122.25c.17.67,0,1,.17,1.83-11,1.83-23.63,2.82-34.62,1.33.67-5.83,7.49-2,11.16-3.16a150.73,150.73,0,0,0,21.3-3.33c2-.33,1.66,2,2,3.33"/><path class="cls-2" d="M227,115.26v.33c-8.49,2.5-18,3.33-27.12,3.33a13.72,13.72,0,0,1,2-4.49c7-.17,15.48,0,22.13-2.34,2-.16,2.5,1.67,3,3.17"/><path class="cls-2" d="M206.21,96c3,1.16,5.16,3.33,8,5.16-.17,1.16-1.83,1.49-3,1.83-1.67,0-3.49.66-5,0V96Z"/><path class="cls-2" d="M205.71,106.6c3.82-.49,8.15-.16,11-2.83a8.29,8.29,0,0,1,6,5.66c-5.5,1.83-12.16,2-18.48,1.5,0-1.5.33-3.49,1.5-4.33"/><path class="cls-2" d="M194.89,81.48c6.16,3.5,1.84,11.48,4.5,16.81-.83,2.16-1.5,4.82-3.33,6.15-3.33-6.82-1.67-14.64-1.17-23"/><path class="cls-2" d="M186.74,77.32l4.33,1.5c.66,10.48-1.67,20,2.66,29.78-.5,1.33-1.5,3-3,3.49-4-10.14-4.32-22.29-4.49-33.61Z"/><path class="cls-2" d="M179.42,76.49c1.16-.67,2.49-.17,3.66,0l.16,2.66c-.16,13,1,24.46,4.83,36.27-.83,1.5-2,3.67-4,4.33-6.49-13.47-4.83-28.45-4.66-43.26"/><path class="cls-2" d="M175.76,76.16l.33,1.66c-1,15.31-.66,30.62,5.49,44.76-1.16,1.33-2.49,3.33-4.32,3.49-7.49-14.81-6.33-32.11-6.83-47.59a7,7,0,0,1,5.33-2.32"/><path class="cls-2" d="M166.43,82.14l.34.17.84,17.31-.5.33c1.83,4.49,1.33,9.81,2.66,14.48,1.16,4.82,2.16,10,4.32,14.64-1.33.67-2.33,2-3.82,1.83a42.38,42.38,0,0,1-7.65-25.3C161,98.12,161,88.13,166.43,82.14"/><path class="cls-2" d="M167.43,132.89a12.67,12.67,0,0,1-5.31,2.84c-.67-3.33,1-6.16,1.33-9.33h.33Z"/><path class="cls-2" d="M145.81,113.93c.67,3.82.33,7.65.33,11.48-1.49.5-2.17-1.16-2.83-2.33-1-3.33,1-6.16,2-9.15Z"/><path class="cls-2" d="M139.65,85.81c2.66,4.15,3.66,9.65,4.83,14.64-1.84,5.49-1.5,12-3.66,17.3a12.65,12.65,0,0,1-3.67-3.66c.84-9.32,1.5-18.8,2.5-28.28"/><path class="cls-2" d="M129.51,71.16c4,.67,5.65,5.16,7.14,8.32-1,10-1,20-2.49,30.12-1.67,0-2.83-2.32-4.16-3.16-.49-11.48-.33-23.3-.66-34.61Z"/><path class="cls-2" d="M125.84,70.83a218.69,218.69,0,0,1,.5,31.29c-1.83.16-3-1.67-3.83-3,0-8.81-1-18.79-1.5-27.62,1.17-1,3.5-1.66,4.83-.66"/><path class="cls-2" d="M117.52,72.66c1,8,2,16.14,1.5,23.79-1.34-.33-3.17-.66-4-2.16l-1.84-19.63a6.16,6.16,0,0,1,4.33-2"/><path class="cls-2" d="M109.87,77.32c1.32,4.49,1.16,9.82,2,14.48-.17,1.16-1.33.83-2.16,1-4.16-1.17-2.83-6.32-4.16-9.49a15.33,15.33,0,0,1,4.33-6"/><path class="cls-2" d="M102.54,87.64c1.34.33.5,2,1,2.83a3.46,3.46,0,0,1-2.83-.16,8.45,8.45,0,0,1,1.83-2.67"/><path class="cls-2" d="M86.9,96.79c.83-.34,2,0,2.66-.34a26.87,26.87,0,0,1-9.48,4c1-2.66,4.49-2.5,6.82-3.66"/><path class="cls-2" d="M74.25,107.77c3.5-3,7.83-4.49,11.82-6.32a82.58,82.58,0,0,1,12.31-4.33,5.74,5.74,0,0,1,4.33,1.5l-.5.67c-9.48,3.82-18.8,8.15-28.12,12.47-1-1.16.16-2.66.16-4"/><path class="cls-2" d="M73.92,122.75c-1-2-.5-4.16-.33-6.33,10.15-6.66,21.63-11.14,33.11-15.14a8.74,8.74,0,0,1,4.33,2.5c-3.66,2.33-8.32,3.5-12.31,5.65-8.33,4-16.64,8.49-24.8,13.32"/><path class="cls-2" d="M75.58,126.74c11.32-9.82,25-15.15,38.61-19.8a7.17,7.17,0,0,1,4.49,4,96.48,96.48,0,0,0-39.93,18c-1.17,0-2.5-1.17-3.17-2.17"/><path class="cls-2" d="M81.24,132.06l.17-1c11.65-9.65,25.29-15,40.27-17.14,1.67,0,2.83,2,3.66,3v.83c-13.48,2.5-25.63,9-36.61,17.14-2.66-.66-5.49-1-7.49-2.83"/><path class="cls-2" d="M94.55,135.56v-.67c10.15-7.66,21.47-13.14,34.61-13.31l2.67,3.83c.33,1-1,1-1.66,1-9.32.67-17.31,4.5-25,9-3.32-.33-7.32.83-10.65.17"/><path class="cls-2" d="M114.69,134.23c4.83-3.33,11-4.66,17.47-4.66,4-1,3.83,3.82,5.33,5.82a103.51,103.51,0,0,0-22.8-1.16"/><path class="cls-2" d="M122.68,156.19c-.5,1-1.33,2.5-2.5,2.66-1.5.17-2.66-1.32-3.16-2.32,1.5-.84,3.83-.34,5.66-.34"/><path class="cls-2" d="M100.88,154.2l6.33,1.33c2.16,3.83,7.48,2.16,9.64,5.49-.33,1.17-1.33,1.5-2.16,2.16-4.16.17-7-2.66-10.81-3.33-7.33-1-14.49-2.16-21.64-3,4.66-4.16,12.48-3.16,18.64-2.66"/><path class="cls-2" d="M76.42,160.36c12.31-.51,23.63,2,34.61,5.31l-.17,1.67-1,.5c-11.64-2-24.29-3.33-36.11-1.66-.33-2.34,1.17-4.33,2.67-5.82"/><path class="cls-2" d="M73.42,170c2-1.82,5.16-.83,7.66-1.49,8.81-.5,17.3.66,25.62,2,.34,1.33-1,2.66-2.16,3.33a135.7,135.7,0,0,0-30.79-1.5c-1-.33-.66-1.5-.33-2.33"/><path class="cls-2" d="M73.59,176.33c9-1.83,19.14-1,28.12.5l.5.33c-.16,1-.66,2.16-1.66,2.33-8.32-1.33-18-2.33-25.63,1.33a7.14,7.14,0,0,1-1.33-4.49"/><path class="cls-2" d="M94.55,198.46c-1.16,0-2-1-2.65-1.83.33-1.17,2.49-1.83,3-.34Z"/><path class="cls-2" d="M89.23,194c-1.5.49-2.49-1.67-3.66-2.5,2.33-1.83,6.33-2.16,9.48-1.5l.34,1c-.84,2.83-4.67.66-6.16,3"/><path class="cls-2" d="M81.58,188.8c-1.33-1.49-3.17-2.66-4.16-4.32,2-2.49,5.82-2.49,8.82-3.17a44.73,44.73,0,0,1,11.81,1.18c.83,1.49-.83,2.66-1.33,4-5.32-.5-10.31.84-15.14,2.33"/><path class="cls-2" d="M106.7,214.27a1.36,1.36,0,0,1-2.16-.5c-4.66-3.17-1.16-8-2.16-12.48a9,9,0,0,1,1.5-8.66c1.65.5,1.32,2.5,2,3.83,1.17,5.82,1,11.81.83,17.81"/><path class="cls-2" d="M112.36,220.26c-6.66-2-.5-9.32-2.66-13.81A61,61,0,0,0,107,189a9.29,9.29,0,0,1,2.83-4.32c3.15,7.65,3.32,17.3,3.49,26.29-.34,2.83.16,6.82-1,9.32"/><path class="cls-2" d="M121.85,222.42c-1.67,1-3.83.17-5.5-.5l-.5-1c1-13,.67-27-3-38.62-.34-1.66,1.33-3,2.49-4a1.6,1.6,0,0,1,1.5,1c2.33,14.15,6.5,28.12,5,43.1"/><path class="cls-2" d="M125.67,221.76l-.49-.33a147.89,147.89,0,0,0-6.83-45.77,9.21,9.21,0,0,1,3.16-3c5.16,14.64,6.49,30.79,8,46.76-.51,1.5-2.34,2.16-3.84,2.33"/><path class="cls-2" d="M132.83,215.6l-.5-1.17c-2.16-14.8-4-30-7.82-44.1,1.16-1.49,2.66-3,4.32-3.15l1.84,3.65c1.16,10.16,3.32,19.81,5,29.79.5,5.33.5,11.15-2.82,15"/><path class="cls-2" d="M134.16,170.5c-.84-1.66-3.16-3.82-2-6,1.66-1,3.16-2.66,5.33-2.49a9.38,9.38,0,0,1-3.33,8.48"/><path class="cls-2" d="M165.94,214.93c-4.32-3.66-3.66-9.65-2.83-15.14.84-4.66,2.66-9,2.83-14a1.58,1.58,0,0,1,1.49,1c-1.33,9-.32,19-1.49,28.12"/><path class="cls-2" d="M173.26,222.26c-2.5-1.33-4.15-3.34-3.49-6.5.17-8.65-.17-17.3.83-25.46,1.5,1,3.66,2.33,4.33,4.33-.33,9-.67,18.8.83,27.46-.33,1.16-1.83.66-2.5.17"/><path class="cls-2" d="M179.09,224.41a166,166,0,0,1-1-27.28c1.83.83,4.83,1.5,5.15,4.16a117,117,0,0,0,2.17,22c-1.66,1.33-4.33,1.5-6.32,1.16"/><path class="cls-2" d="M188.73,221.92c-2.16-6.16-2-13-2-19.64,2.33.5,4.83,1.34,6.16,3,0,3.65-.34,7.64,2,10.47a10.18,10.18,0,0,1-6.16,6.16"/><path class="cls-2" d="M197.72,212.77c-.83.16-1.49-.83-1.33-1.5-.16-1.83-.66-4,0-6l6.33.33c-1.17,2.65-3.5,4.65-5,7.15"/><path class="cls-2" d="M180.58,195.63c-13.47-11-24-25.63-31.61-40.27-22.13,4.33-41.43,24.46-51.25,44.43-2-14.48,9-25.29,18.47-34.95A142.59,142.59,0,0,1,143.48,147c-5.49-23.29-22.63-42.43-44.27-52.75l-.49-.67c5-1.32,9.65.84,14,2.34a82.83,82.83,0,0,1,14.48,10.64c9.65,10.16,18.64,21.81,24.46,34.45,3.49.33,6.82-1.5,10.32-2.33,18.14-7.66,33.28-24.46,41.1-42.1l.5.17c1,14.47-9.32,26.63-20.31,36.27-8,6.83-16.64,12-25.45,16.81l-.17,1c5.33,22.13,24.46,42.43,45.1,51.74-8.33,1.51-15.65-2.32-22.14-7"/><path class="cls-2" d="M210.2,202a16.25,16.25,0,0,1-7.49-2c.34-2,2.5-2.17,3.67-3.16,4.82-2.5,10.48-3.17,16-4l.17.33c-3.33,4.16-8,6.16-12.32,8.82"/><path class="cls-2" d="M226,188.8c-9.32,1.67-18.63,3-26.29,8.49-2.33,1-4.49-1-6.32-2.49v-.34c10-5.49,21.13-7.82,32.61-9.81l1.5.16c.34,1.5-.67,2.83-1.5,4"/><path class="cls-2" d="M228.18,181.16l-1.17.66c-13.15,1.67-25.79,4.49-37.11,10.48-1.67-1-4.32-2.16-4.15-4.33a125.29,125.29,0,0,1,42.43-10.48v3.67Z"/><path class="cls-1" d="M55.62,93.46a8.82,8.82,0,0,0,4.83-7.82,7.64,7.64,0,0,0-4-4.49c-4.66,3,3.33,3.66,1,7.32a4,4,0,0,1-5.32,2c-4-2.17-8.33-4.49-11.49-7.82a4.12,4.12,0,0,1,1.66-4.83,2.3,2.3,0,0,1,3,.16c1.5,1.5,1.83-1,2.5-1.82-1.67-1.84-5.16-2.49-7-.67-1.33,1.66-3.16,3.33-3,5.49a5.21,5.21,0,0,0,1.66,4.83c4.82,3,9.65,8.31,16.14,7.65"/><path class="cls-1" d="M243.15,91c-1.33,3.49,1.17,6.65,3.66,8.64,2.33.5,4.49.5,6.49-.83a11.66,11.66,0,0,0-1.17-2.49c-1.49-.33-2,1.16-3.32.67-1.67,0-2.33-1-3-2.33-.83-1.51,0-3.16,1.33-4.33,4.16-2.16,8.16-5.83,13-6.16A5,5,0,0,1,263,88.3c.17,1.33-1.5,1.83-2.33,2.67.33.83.5,2.15,1.33,2.49A8,8,0,0,0,265.28,91a5.89,5.89,0,0,0-.5-5.5,6.94,6.94,0,0,0-7-4.16c-5.16,2.83-11.48,4.16-14.64,9.66"/><path class="cls-1" d="M50.62,104.94a1.85,1.85,0,0,0-2.32-1.16,42.68,42.68,0,0,1-3.17,8l-4.49-1.33c-5.49-1,0-5.66,0-8.48l-.66-.83c-.5-.17-1.34-.67-2,0a34.8,34.8,0,0,1-2.66,6.82c-2.16-.5-4.67-1-6.33-2.5L31.49,98c0-1.16-1.34-.83-2-1.33-1.66,3.33-2.66,7.16-4.15,10.82,6.82,2.83,14.14,5.66,21.29,8Z"/><path class="cls-1" d="M249.14,105.61l4.16,10,1.83-1-2.5-7.32.51-.66,17.8-7c-.17-1-.33-2.32-1.33-2.66l-20.3,8Z"/><path class="cls-1" d="M278.76,126.57a3.85,3.85,0,0,0-.33-2.65c-5.83.33-11,2.82-17,3.48-1.66-.33-3.5-.5-4-2.49-.33-1.33-1-3.66.66-4.66,5.66-2.49,12.15-3.33,18.15-5v-.67l-.34-2c-2.66-.16-5,1.34-7.49,1.34-4.33,1.83-10,1.16-13.14,5.16-1.83,2.83-.33,6.48,1,9,1.49,1.83,3.5,2.16,5.65,2.16Z"/><path class="cls-1" d="M23.5,115.42l-.49.5c-.34.67-.84,1.67-.17,2.5,3,.67,6.15.83,9.15,2-.5,2.49-.5,5.32-1.83,7.49l-8.82-1.67a2.64,2.64,0,0,0-.83,2.83c7.49,1.5,15,3,22.13,4.32l.34-2.65c-3.17-1-6.83-.83-9.66-2.33.33-2.5.33-5.33,1.67-7.33l9.15,1.67c1.16-.17,1.16-1.83,1-2.83Z"/><path class="cls-1" d="M280.09,134.89c-7.32-.16-15.14.67-22,1l-.66.5c.83,3.83-.83,9.65,3.17,12.65,1.82.66,4.15,1.49,6.31.5,1.67-.5,2.34-2.33,3-3.83.83,0,1,.84,1.5,1.5,1.49,1.33,3.83,1.49,5.66,1.16,6.16-2.16,2.65-8.81,3-13.48"/><path class="cls-2" d="M267.28,145.88c-1.17.66-2.83,1.33-4.33.66-2.83-1.16-2.5-4.82-2.5-7.32,2.17-.83,5.16-.5,7.33-.83l.66,1.33c-.16,2.16.34,4.66-1.16,6.16"/><path class="cls-2" d="M277.6,144.21c-1.17,1.67-3.33,1.34-4.83,1-2.16-1.5-1.5-4.33-1.66-6.65,2-.67,4.49-.5,6.49-.5.33,2,.83,4.32,0,6.15"/><path class="cls-1" d="M22,135.23c-.67-.17-1.67-.67-2.33-.17a110.51,110.51,0,0,0-.33,14.81h2.16c.33-1.84-.33-4.33.5-5.82l20,.66v-2.5c-6.5-1-13.82-.49-19.81-1.32Z"/><path class="cls-1" d="M97.22,254.37c-1.83-4.16-2.5-8.82-5.33-12.32-2.83-3.82-8.15,0-11.14-2.82-2.17-1.5-1-4.5-.84-6.66-1.33-3.66-5.32-.5-7.82-1-3.5-1.16-2.66-5.16-3.33-8-2.33-6.32-9.65-5-14.81-6.32-3.66-3.49-2-9.65-5.49-13.31-1-.5-2-1.5-3-.84A51.28,51.28,0,0,1,48,216.43c0,3-2.33,5.33-1.67,8,4.83-.84,10-1.83,14.48.33a7.93,7.93,0,0,1,4,5,5.69,5.69,0,0,1-1.84,5.49c-3.32,5.82,5.16,2.17,6.83,6,2.66,1.83,3.83,4.66,5,7.49,2.16,1.66,3.66-2.66,5.5-3.16,1.49-.33,3.65-.83,5,.17,6,3.49,5.83,10.81,6,17.13h.5c5.49-4.32,13.47-3.49,20.46-3-2-7-10.31-2.67-15-5.49"/><path class="cls-1" d="M252.8,206.45c-6,2.32-3.5,9.81-7.32,13.81-4.49,1.16-9.82.33-13.48,3-2.5,2.33-2,5.66-2.66,8.66-2,4-6,1.16-8.82,1.16-2.5,1-1.17,3.83-1.17,5.66-1,6.16-7.49,2-11.14,4-3.66,2.17-3.84,6.16-5.33,9.48-.66,7.33-9.65,3.5-14.14,5.5-1.17.83-2.66,1.83-2.33,3.33,7.15-.84,15-.84,20.47,3.66l.66-.33c.17-5.66-.33-11.66,4.17-15.48a6.64,6.64,0,0,1,6.31-1.33c2.5.49,3,4.82,5.83,3.66,1.49-2.16,1.82-5.16,4.5-7,2.32-2.33,5.81-2,8.48-3.5,0-2-1.67-3.32-2.5-5a6.81,6.81,0,0,1,1.33-6.16c2.16-2.65,5.49-3,8.82-3.15,2.82.16,5.83,1.33,8.48,1.16-3-6.66-1.16-14.48.67-21Z"/><path class="cls-1" d="M127.5,254.37c-1.49,1.33-5.16,1.33-4.16,4.32,1.17,0,2.17-1.33,3.16-.67-.83,6-2.5,11.66-3.16,17.64l2.67.18L130.16,256c.67-1.83-1.66-1.49-2.66-1.66"/><path class="cls-1" d="M175.76,264.69a11.74,11.74,0,0,1,1.16-2,6.76,6.76,0,0,0-.83-6.16c-2-3-6.82-2.16-9.15,0a6.3,6.3,0,0,0-.67,5.16,5.62,5.62,0,0,0,3.33,3.66c.17,1-.83,1.17-1.33,1.83-1.17,2.17-.17,4.66.33,6.82,1,1.66,2.67,3.33,5,3.17a6.55,6.55,0,0,0,5.33-2.51c1.16-1.65.66-3.48.49-5.48a5.66,5.66,0,0,0-3.66-4.49"/><path class="cls-2" d="M169.27,261a4.26,4.26,0,0,1,.66-3.49,2.82,2.82,0,0,1,4.33,2.16c.17,1.67-.16,3.66-1.83,4s-2.83-1.34-3.16-2.67"/><path class="cls-2" d="M174.6,274.5c-1.83.51-2.83-1.17-3.33-2.49a6.38,6.38,0,0,1,0-4.67c.5-.83,1.5-.83,2.16-1,1.83-.17,2.49,1.66,3,3.16.17,1.83.66,4.49-1.82,5"/><path class="cls-1" d="M145.64,258.86c-1.66-3.16-5.66-3.33-8.49-2.33A3.91,3.91,0,0,0,135,260a6.84,6.84,0,0,0,1.83,6.32c-2,.66-2.83,2.49-3.16,4.49-.17,2.33-.17,4.66,1.67,6.32,1.49,1.67,4.15,1.67,6.32,1.17a5.09,5.09,0,0,0,3.32-4c.5-2.66.67-6.16-2-7.65l2.16-2a7.17,7.17,0,0,0,.5-5.83"/><path class="cls-2" d="M140.31,275.67a2.78,2.78,0,0,1-3.49-1.5,11.28,11.28,0,0,1,.67-5.33,2.69,2.69,0,0,1,4.82,1.83c-.16,1.83-.16,4.16-2,5"/><path class="cls-2" d="M140.81,265a2.68,2.68,0,0,1-3-2.5,4.2,4.2,0,0,1,1-3.66,2.44,2.44,0,0,1,4,1.5c.17,1.83-.17,4-2,4.66"/><path class="cls-1" d="M159.62,267c-.67-.83.83-.83,1.16-1.65a7.5,7.5,0,0,0,.5-6c-1.33-3-5.33-3.49-8-2.5a5,5,0,0,0-3,4c0,2.5,1,5,3,6.15-1.5,1.33-2.5,2.66-2.5,4.5,0,2.49.17,5,2.33,6.49a6.59,6.59,0,0,0,6.32.5c2.16-.83,2.83-3.17,3-5.16-.16-2.33-.33-5.16-2.82-6.33"/><path class="cls-2" d="M155.62,258.7c1.33,0,2.84.83,3,2.16a7.25,7.25,0,0,1-.83,4.16,2.55,2.55,0,0,1-2.84.17c-1.32-.83-1.49-2.5-1.49-3.83a2.67,2.67,0,0,1,2.16-2.66"/><path class="cls-2" d="M159,275.5a3.36,3.36,0,0,1-3.66.67,5.17,5.17,0,0,1-1.66-4.66c0-1.33.66-3,2.15-3.33a2.9,2.9,0,0,1,3.5,2.33c.17,1.66.67,3.49-.33,5"/></g></g></svg>