<svg xmlns="http://www.w3.org/2000/svg" viewBox="0 0 221.77 300"><defs><style>.cls-1{fill:#fff;}</style></defs><title>Cesena</title><g id="Слой_2" data-name="Слой 2"><g id="Слой_1-2" data-name="Слой 1"><g id="g14"><path id="path20" d="M110.88,300c25.68-10.74,110.89-68.33,110.89-179.31,0-46.5-15.27-79-15.27-79H182.44l-6.26-9.71L170.11,3,110.88,0,51.65,3,45.59,31.94l-6.27,9.71H15.26S0,74.19,0,120.69C0,231.67,85.21,289.26,110.88,300"/><path id="path22" class="cls-1" d="M171.14,29.72c-1.33-6.37-3.89-18.57-4.69-22.4L110.88,4.48,55.32,7.32c-.8,3.83-3.36,16-4.7,22.4Z"/><path id="path24" class="cls-1" d="M110.88,289.78c12.46-6.14,36.46-21.84,57.92-47.77,29-35,43.68-75.83,43.68-121.32a211.5,211.5,0,0,0-13.76-74.58h-7s14.4,30.91,14.4,74.12c0,102.34-77.78,153.89-95.27,161.32-17.48-7.43-95.26-59-95.26-161.32C15.62,77,30,46.11,30,46.11h-7A211.2,211.2,0,0,0,9.28,120.69C9.28,166.18,24,207,53,242c21.47,25.93,45.46,41.63,57.92,47.77"/><path id="path26" class="cls-1" d="M101.38,266c3.44,2.41,6.64,4.47,9.5,6.17,2.86-1.7,6.07-3.76,9.5-6.17V33.36h-19V266ZM163.24,33.36H142.62v214.2a192.48,192.48,0,0,0,14.26-15.41c2.22-2.68,4.33-5.39,6.36-8.14V33.36ZM58.52,224c2,2.75,4.15,5.47,6.36,8.14a196.24,196.24,0,0,0,14.26,15.41V33.36H58.52V224Z"/><path id="path28" class="cls-1" d="M24.76,120.69A172.9,172.9,0,0,0,37.1,185.93V54.38h-.81c-3.64,12.2-11.53,31.13-11.53,66.31M185.48,54.38h-.81V185.93A172.9,172.9,0,0,0,197,120.69c0-35.18-7.9-54.11-11.53-66.31"/><path id="path30" class="cls-1" d="M113.11,49.48c-.78,1.33-1.17,3.68,1.39,7.34,1.64,2.35,2.14,5,1.24,6.72s-2.95,1.94-4.52,1.9c-.2,0-5-.23-5.84-4.32a3.27,3.27,0,0,0-2.55-2.6A3.84,3.84,0,0,0,99,60a4.18,4.18,0,0,0,0,4.64c1.58,2.77,1.1,3.32.07,4.53a3.66,3.66,0,0,1-2.8,1.24c-.75-.12-1.39-.8-1.9-2a3.33,3.33,0,0,0-2.93-2.23,3.24,3.24,0,0,0-3,1.84,4.3,4.3,0,0,0,.8,4.66c1.86,2.31,1.56,3,1.4,3.37-.47,1.1-1.09,6.6-.74,11.08a1.9,1.9,0,0,1-.44,1.45c-.76.44-1.48,1.6-3.31,4.79l-1.43,2.44c-.9,1.46-1.71,1.52-3.93,1.47h-1a4.8,4.8,0,0,0-4.45,3.28,3.63,3.63,0,0,0,1,4.17,55.37,55.37,0,0,1,5.86,5.73,3.54,3.54,0,0,0,3.12,1.23,3.89,3.89,0,0,0,3-2.55,22.32,22.32,0,0,1,7.74-8.22c3.27-1.87,7.81-2.44,10.6.48A3.06,3.06,0,0,0,109,102.4a3.9,3.9,0,0,0,2.75-1.77l.24-.29a3.26,3.26,0,0,1,2-.37,3,3,0,0,0,3-.66,3,3,0,0,0-.27.57,2.74,2.74,0,0,0-.1.74,4.63,4.63,0,0,0,.83,2.37,1.71,1.71,0,0,1,.3.73h0a4.41,4.41,0,0,1-1.5-.07,3.49,3.49,0,0,0-2.86.37c-1.08.8-1.17,2.14-1.24,3.32l0,.68a4.67,4.67,0,0,1-1.78,3.44c-.21.11-.85.46-2.15-.24s-2.81-1.3-4.08-.58c-1.45.83-1.54,2.73-1.61,4.41a4,4,0,0,1-2.07,3.47,1.91,1.91,0,0,1-2.12-.42c-.51-.43-2.06-1.76-3.77-1.28s-2.38,2.41-2.93,4.11l-.15.45a2,2,0,0,1-1.38,1.26,9,9,0,0,1-6.72-.87c-1.54-.93-2.87-1.08-4-.47-1.86,1-1.86,3.74-1.86,5.53a2.33,2.33,0,0,0,0,.3c-.17,2.44-.41,5.77-6.28,6.08-1.16.07-3.32.19-4.08,1.87s.56,3.86,2,5.68c1.26,1.61,1.77,3.13,1.48,4.39a3.42,3.42,0,0,1-1.9,2.27l-.18.08c-1.47.72-2.86,1.4-3.14,2.91s.68,2.83,2.19,4.44a2.32,2.32,0,0,1,.74,1.9,5.58,5.58,0,0,1-2.13,3.2l-.23.14c-.77.44-2.35,1.35-2.37,3.19s1.54,3.61,5.07,5.75c1,.57,1.06.87,1.06.88,0,.45-1.33,2.06-2.06,2.93-1,1.23-2.33,3.07-1.56,4.79s3.19,2.12,5.42,2.19c4,.13,5.41.17,6.3,5.4.42,2.42,1.56,3.18,2.46,3.38,1.32.3,2.73-.45,3.88-2.07a1.81,1.81,0,0,1,1.63-.33c1.22.28,2.07,1.53,2.4,3.51.16,1,.67,4.1,2.94,4.7,1.4.37,3-.39,4.36-2.14.47-.58.89-.79,1-.77s.56.2,1.2,2c.78,2.21,2,3.41,3.53,3.57,2.15.22,3.83-1.76,4.3-2.54,0,.05,0,0,.24,0s.91.12,2,1.41a16.94,16.94,0,0,0,7.48,4.89,3.43,3.43,0,0,1,1.89,2.37.31.31,0,0,1,0,.1l-.23.25a3.05,3.05,0,0,0-1,2,2.4,2.4,0,0,0,0,.37c.22,1.23,1.36,2,3.91,3.34a2.6,2.6,0,0,1,1.3,1.79v.05c0,.15,0,.43-.54.77-.9.6-2.08,1.55-2.08,2.94v.09c.06,1.56,1.54,2.39,2.52,3a1.43,1.43,0,0,1,.63.56,2.31,2.31,0,0,0-.28.18A2.73,2.73,0,0,0,120,220.9a0,0,0,0,0,0,0c0,1.51,1.4,2.54,2.23,3a.76.76,0,0,1,.32.47h0c0,.2-.36.78-1.64,1.47a3.42,3.42,0,0,0-2,2.56,2.06,2.06,0,0,0,0,.35,3.46,3.46,0,0,0,1.23,2.52.89.89,0,0,1,.23.28s0,.47-1.23,1.52l-.1.08-.09.12A10.56,10.56,0,0,1,114,236a6.3,6.3,0,0,0-3.41,2.13l-.54.55c-1,.89-1.41,1.26-3.11-.23-2.38-2.09-4.13-.9-5-.33l-.39.26c-.52.28-.93.51-2.42-1l-.4-.4c-1.88-1.9-3.12-3.15-5.64-4.1-.53-.21-.88-.47-1-.74a.88.88,0,0,1,0-.17,1,1,0,0,1,.16-.5A2.79,2.79,0,0,0,92.8,230a3.37,3.37,0,0,0-1.16-2.23l-.41-.43a1.32,1.32,0,0,1-.22-.82.86.86,0,0,1,0-.16,1.17,1.17,0,0,1,.23-.7l.34-.28.21-.55,0,.15a4.52,4.52,0,0,1,1.13-1.21,26,26,0,0,0,2.63-1.89,1.62,1.62,0,0,1,1.88.07,3.73,3.73,0,0,0,3.21.65h0l.16.29a4.73,4.73,0,0,1,.31,1.59,1.18,1.18,0,0,1,0,.21,1.27,1.27,0,0,1-.33-.07c-2.77-1-4.19-.29-4.89.45a3,3,0,0,0-.51,3.18c.59,1.46,1.91,3.94,4.22,4.28,1.58.23,3.12-.57,4.59-2.4l.49-.56a1.9,1.9,0,0,0,1.5-.49c1-.88,1.3-3,1.17-4.16l.79-1.43c.57-1.69.81-6-2-8.54a7.21,7.21,0,0,1-2.18-2.73l-.34-.7c-.94-1.64-2.38-1.35-3.33-1.16l-.84.15a3,3,0,0,1-2.21-.52l-.73-.34c-2.39-1.11-6.47.08-8,3.2a16.9,16.9,0,0,1-3.39,4.45l-.78.83c-1.76,1.88-3.32,4-1.47,7.56.69,1.31.28,1.79-.54,2.75l-.42.51c-1.78,2.29.12,4.4.93,5.31a7.7,7.7,0,0,1,2,4.12c.16,2.49,5.76,11.22,11.4,11.66,3.15.25,3.32.42,3.74.85l.81.77c2.36,2,4.89,1.87,7.31-.28a.63.63,0,0,1,.5-.17,1.44,1.44,0,0,1,1,.59c1.42,1.78,4.68,2.35,7.93-.09a1.76,1.76,0,0,1,1.57-.47c2.31,1.14,4-1.14,5.26-2.8s1.69-1.78,2.59-1.85c2.56-.21,3.06-1.51,3.59-3.63.16-.64.17-.68,1.88-.68h.31a3.11,3.11,0,0,0,2.55-1,2.93,2.93,0,0,0,.57-1.88,12.18,12.18,0,0,0-.51-3v-.07l.46,0,1,.12a3.25,3.25,0,0,0,3.28-1.53,2.68,2.68,0,0,0,.31-1.27,5.72,5.72,0,0,0-1.55-3.42,2.06,2.06,0,0,1-.46-.73,3.55,3.55,0,0,1,1.38-.46,3.87,3.87,0,0,0,3.05-2.78,3,3,0,0,0,.09-.73,4,4,0,0,0-1.86-3.19c-.52-.39-.55-.69-.55-.84v0a3.62,3.62,0,0,1,1.6-2.29,4.56,4.56,0,0,0,1.84-3.4c0-.18,0-.36,0-.54a7.08,7.08,0,0,0-2.13-4.95,1.59,1.59,0,0,1-.59-1.14s0-.07,0-.11a3,3,0,0,1,1.23-1.82,3.29,3.29,0,0,0,1.55-2.71c0-.1,0-.21,0-.31-.17-1.63-1.57-3-4.28-4.1a1.26,1.26,0,0,1-.87-1.36,4.55,4.55,0,0,1,.17-1.13,6,6,0,0,0,.23-1.5,2.62,2.62,0,0,0-.48-1.6c-.75-1-2-1.09-3.32-1.16l-.43,0a1.86,1.86,0,0,1-1.5-1,1.35,1.35,0,0,1-.11-.52,1.62,1.62,0,0,1,.4-1,3.55,3.55,0,0,0,.89-2.09,2.08,2.08,0,0,0-.17-.82c-.56-1.31-2.05-1.45-3.24-1.57l-1.2-.17c-1.47-.46-2.14-.87-2.14-1.89a4,4,0,0,1,.11-.84,7.82,7.82,0,0,0,.24-1.7,2.69,2.69,0,0,0-.5-1.68,2.78,2.78,0,0,0-2.3-.94l-.83-.1a3.62,3.62,0,0,1-1.69-2.13,3.55,3.55,0,0,1-.19-1.15,4.72,4.72,0,0,1,1.06-2.81,3,3,0,0,0,.61-1.8,2.55,2.55,0,0,0-.67-1.77c-.35-.38-1.69-1.5-4,0-.7.44-3.92.08-4.9-1.11-.13-.16-.47-.57.59-1.71a3.92,3.92,0,0,0,1.27-3.46c-.25-1.32-1.3-2.4-3.22-3.3-.6-.29-.83-.67-.81-.81s.6-1,3-1.45,2.74-1.87,2.8-2.45c.17-1.46-1-2.85-3.08-3.8a.79.79,0,0,1-.53-.88c.06-.15.53-.24,1.35,0,1.9.68,3.32.55,4.22-.37a2.85,2.85,0,0,0,.75-2,7.55,7.55,0,0,0-.61-2.64,1.62,1.62,0,0,1,0-.37,2.31,2.31,0,0,1,1-1.93c2.11-1.53,2.39-1.15,2.89-.46a4,4,0,0,0,5.2,1.07c.69-.42,2.77-2.1.76-6.13-.68-1.36-.65-2.56.08-3.31s2.7-1.22,5-.14a3.6,3.6,0,0,0,4.35-.81c.51-.65,1.47-2.47-.76-5.25a2.61,2.61,0,0,1,.16-3,4.92,4.92,0,0,1,5.42-2c2,.49,4.57.19,5.69-1.57s.54-3.8-1.53-6.43a2.55,2.55,0,0,1-.72-2.28c.52-2.23,4.51-4.15,5.81-4.78l.42-.2c1-.5,2.66-1.34,2.68-3,0-1.52-1.26-2.83-4.26-4.39a6.06,6.06,0,0,1-3.06-4.53c0-1.59,1-3,3.16-4.34a3.61,3.61,0,0,0,1.21-4.84c-.78-1.35-2.56-2.16-4.75-.92l-.56.31c-2.33,1.33-2.82,1.61-4.7.55a3.32,3.32,0,0,1-1.41-3,3.54,3.54,0,0,1,2-3.15,4.49,4.49,0,0,0,2.45-3.78,4,4,0,0,0-1.81-3.68c-.83-.53-2.64-1.19-5.43.3-2.5,1.35-4.51,1.81-5.5,1.26-.83-.45-1.1-1.74-1.18-2.75-.06-.76.62-1.61,2-2.53a3.56,3.56,0,0,0,1.35-4.92,4,4,0,0,0-5.57-1l-.33.2c-3.84,2.37-6.23,2.37-7.76,0,0-.06-1.44-2.53-.57-7.19.54-2.86.23-5.08-.9-6.59a5.52,5.52,0,0,0-4.07-2.12,4.27,4.27,0,0,0-4.23,2"/><path id="path32" d="M96.39,85.59c.16-3,1.35-3.85,2.31-3.29s.76,2.81.76,2.81l1.87-.31c.47-.8,1.18-3.91-.67-5.37A3.94,3.94,0,0,0,94.86,81a8,8,0,0,0-.25,4.93l1.78-.3Zm8.49,134c-.43-1.1-1.4-1.59-1.89-1.1s-1,1.46-.48,1.94c1,.49,1.94,1,2.38-.69a.76.76,0,0,0,0-.15m-3.18-3.34c-.7-1.79-2.28-2.57-3.07-1.79s-1.57,2.37-.78,3.15c1.57.79,3.15,1.57,3.86-1.11a2.18,2.18,0,0,0,0-.25M89.25,222c.27-1.42-1.08-2.1-1.76-1.42s-2,2-1.35,3.39c1.35.67,3.38,0,3.08-1.77l0-.2m5.35-5.94c.33-1.71-1.29-2.53-2.11-1.71s-2.44,2.45-1.63,4.07c1.63.82,4.07,0,3.71-2.12a1,1,0,0,0,0-.24m-6,14.81c-.55-1.39-1.78-2-2.4-1.39s-1.24,1.85-.62,2.46c1.24.62,2.47,1.24,3-.86a1.49,1.49,0,0,0,0-.21m2.84,6c-.55-1.41-1.78-2-2.4-1.41s-1.24,1.86-.62,2.48c1.24.61,2.47,1.23,3-.87a1.23,1.23,0,0,0,0-.2m4.19,4.44c-.67-1.72-2.19-2.48-3-1.72s-1.51,2.28-.76,3c1.52.75,3,1.51,3.73-1.07a2.29,2.29,0,0,0,0-.25m5.9,2.7c-.68-1.72-2.2-2.48-3-1.72s-1.51,2.27-.76,3c1.52.76,3,1.52,3.73-1.06a2,2,0,0,0,0-.25m3.73.66c-.48,3.25,1.57,3,2.75,2.89s2.07-1.39,1.3-2.3c-.54-.64-3.5-4.33-4.05-.59m8.41-.13c.82,1.07,1.07,2.14,1.41,2.51.51.55,1.69.11,2-1,.2-.84-.65-2.27-1.26-2.84-1.55-1.2-2.84.44-2.13,1.36m5.16-2.94c1,.91,1.43,1.92,1.84,2.22.59.45,1.68-.19,1.75-1.37,0-.86-1.05-2.12-1.74-2.56-1.75-.91-2.72.93-1.85,1.71m4.29-2.92c1.31.64,2.07,1.56,2.59,1.75.75.28,1.69-.71,1.4-2-.2-.91-1.72-1.88-2.59-2.14-2.08-.41-2.53,1.8-1.4,2.35m3-3.68c1.5.45,2.47,1.3,3,1.41.85.17,1.68-1.05,1.15-2.33-.37-.93-2.15-1.7-3.12-1.82-2.29-.08-2.39,2.35-1.08,2.74m.55-8.09a1.59,1.59,0,0,0,1.33,2c1,.23,1.28-.31,3.09.1,2.49.56,2.88-.34,3-1.52s-.83-2.54-2.08-2.23a7.72,7.72,0,0,1-2.58.12s-2.55-.78-2.8,1.57m.94-7.88a2.49,2.49,0,0,0,2.58,2.18,16.34,16.34,0,0,1,4,.88c1.28.32,3.66-2.4,1-4.67-1.93-1.63-5-.95-5-.95-1.05.11-2.68.72-2.55,2.56m-.33-4.65s6.47-.77,8-.54,2.2-.36,2.43-1.94-1.14-3.39-2.6-2.94a27.69,27.69,0,0,1-6.94,1.18c-1.69-.12-3,1-3,1.87-.07,1,.46,2.51,2.07,2.37m.53-10.61s-3.78-.3-3.17,2.55a1.59,1.59,0,0,0,2.4,1.12c2.35-.93,3.89-1.62,5.95-1.68a2.05,2.05,0,0,0,1.54-3.46c-.5-.5-1.81-.65-3.68.48a5.27,5.27,0,0,1-3,1m-3.25-8.87s-5,.57-3.6,3.82c.93,2.17,3,1.95,4.79.73a6.65,6.65,0,0,1,2.92-1.57,1.68,1.68,0,0,0,1.08-2.54,6.28,6.28,0,0,1-1.13-1.6c-.27-.4-.91-.52-1.88.18a4.36,4.36,0,0,1-2.18,1m-4.4-7.38s-3.69,3.86-4.64,4.64a2.41,2.41,0,0,0-.37,3.29c.56.56,1.56,1,3.39-.71s3.28-3,4.44-3.84a2.91,2.91,0,0,0,.84-3.94c-.7-1.13-2.67-.57-3.66.56m-4.91-5.08s-3.55,3.38-5.74,5.26-.35,3.83,0,4.22,2.19.93,3.65-1.11,3.51-3.7,5.06-5.45,1.25-3.65.49-4.18-1.85-.58-3.5,1.26m-3.56-96.11a1.5,1.5,0,0,0-.58-1.33,1,1,0,0,0-1.58.47c-.6,1.43-3.22,4.39-4.29,6.32-.68,1.24.29,1.64.51,1.71s.94,0,1.57-.93,4.26-5.7,4.37-6.24m-7.22.37a1.57,1.57,0,0,0-.86-1.29,1.08,1.08,0,0,0-1.65.78c-.4,1.61-2.76,5.2-3.59,7.42-.53,1.43.6,1.67.85,1.72s1-.21,1.56-1.28,3.66-6.76,3.69-7.35M103.11,73.9a1.81,1.81,0,0,0-1.65-.09,1,1,0,0,0-.23,1.74c1.23,1.26,3.14,5.19,4.68,7.13,1,1.25,1.84.51,2,.34s.4-.91-.26-2-4-6.8-4.55-7.17m4.22-2.23a1.77,1.77,0,0,0-1.65-.08,1,1,0,0,0-.23,1.73c1.23,1.26,3.14,5.19,4.68,7.13,1,1.25,1.84.51,2,.35s.4-.92-.27-2-4-6.8-4.55-7.17m-6,114.31a2.78,2.78,0,0,0,.34,2.65c.16.18,1.49,1.84,3-.17,1.77-2.34,7.87-6.58,10.71-9.62,1.84-2,.34-3.1,0-3.33s-1.66-.35-3.23,1c-1.41,1.23-10.34,8.49-10.82,9.44m5-12.49c-5.59,3.71-10.61,4.6-13.14,7.63-2.16,2.57.17,8.06,3.67,4.95,10.61-9.38,10.37-8.68,11.87-10,2.11-1.9,0-4.12-2.4-2.56m-24.22,8.17c1.76,1.44,6.18.16,7.54-1.29s6.18-5.21,7.78-5.69a1.65,1.65,0,0,0,.81-2.81c-.81-.57-2.25-.16-3,.4s-2.17.72-4.42,1.2S83.34,177,83,177.16c-1.92.89-2.65,3.05-.88,4.5m7.59-15.25c-1.79.6-2.76.75-7.74.23-2.91-.3-5.88-.45-7.07,1.11-.87,1.15-2.23,4.24.07,6.4,4.92,4.6,16.67-5.06,16.67-5.06,1.41-1.41-.15-3.27-1.93-2.68m-17.26-11a5,5,0,0,1-.67,4.91C70.56,162,70,164,73.46,163.59s10.63.6,14.13.67,3.27-.89,3.57-1.94a1.88,1.88,0,0,0-1.34-2.23c-1.41-.35-3.19-.22-4.68-1S80,156,78.44,155.78a10.14,10.14,0,0,1-3.5-1.64c-1.33-1-3.12-.15-2.52,1.26m2-12.19a5.61,5.61,0,0,1,0,3.64c-1.14,4.21.29,4.46,2.23,4.83s2.67.86,6,1.79c11.31,3.13,11.38,3.05,11.75.74.19-1.17-.89-1.56-1.93-1.63C83.94,152,77,142.83,77,142.83c-.67-1.41-2.82-1-2.52.38M80.3,131.6a16.77,16.77,0,0,1-2.15,3.13c-4.54,5.14,7.43,10.34,9.44,11a32.86,32.86,0,0,1,5.29,2.73c7.43,3.83,7.8-2.07,5-3.38s-7.66-4.5-9.68-7.65-5.84-9.11-7.85-5.84m6.78-1.14s5.19,6.24,9.94,8.82c1.51.83,1.35.46,2.52,1.69s5.84,3.78,7.56,2.1,2-3.22,0-5.33a23.67,23.67,0,0,1-3.78-5.46c-1.26-2.24-4.69-4.36-5.6-6.16-.63-1.25-1.82-3.92-4.06-.56s-8.3-.37-6.58,4.9m19.21-11.83c-1,1-1.23,2.05-3,2.73s-2.45,2.32-1,3.27a37.71,37.71,0,0,1,7.1,6.55c3,3.41,4.23.82,5.32.27s2-2.18.54-3.41a25.72,25.72,0,0,1-6.81-8.72c-.28-1.23-1.23-1.64-2.19-.69m7.15-.11a39.41,39.41,0,0,1,5.14,7.65c1.47,3,4,1.46,4.61.83a2,2,0,0,0,.31-2.39c-.53-.75-1-.86-1.47-2.22-1.24-3.74-1.58-4.62-2.3-5.66a12.89,12.89,0,0,1-1.36-2.09c-1.13-2-3.57-.63-3.57-.63-2.93,1.26-2.41,3.35-1.36,4.51M119,111c1.28,3.56,5.55,7,6,7.32a4.44,4.44,0,0,1,1.81,1.88c1.85,3.7,3.18.86,3.36.2s-.09-1.33.53-2.08c.75-.91,1.15-1.89.14-2.55a5.65,5.65,0,0,1-1.95-1.41c-2.25-2.6-7.58-5.84-7.58-5.84-.47-.27-3.56-1.08-2.29,2.48m7.76-7c-1.37,0-1.87.93-1.93,2.27-.12,3,.94,2,3.47,3.31s3.2,2.31,5.52,4.52,7-2,5-4.91-5.67-3.75-8.92-4.39a11.42,11.42,0,0,0-3.1-.8m2.49-1.94c2,1.11,5.79,1.09,8.34,2.47,2.22,1.19,3.18,1.35,3.66.58s1-.87,1.92-1.35a1.36,1.36,0,0,0,.58-2.21c-.67-.77-.69-.43-1-1.93-.31-1.71.29-2.69-3.17-2.49a87.37,87.37,0,0,0-10.32,1.75c-.86.29-2.81,1.67-.05,3.18m4.82-20.64c-.48-.19-1.34.16-2.27-.79-1.23-1.28-2.25-.67-3.57.2s-4.82,4.12-5.43,6.76c-.8,3.5,1.44,4.5,3.8,3a71.37,71.37,0,0,0,7-5.68c2.27-1.84,1.08-3.27.48-3.51m.6,5.54c-4.36,2.85-4.1,2.9-7.36,6-1.79,1.7-.18,5.05,3.44,3.58A29.24,29.24,0,0,1,135.48,95,8.08,8.08,0,0,0,139,93.66c1.67-1.19.62-1.92-.38-2.84-1.44-1.32-1.21-1.34-1.56-3.1-.24-1.24-1.51-1.31-2.35-.76M122.11,71.18a52.33,52.33,0,0,0-6.56,8.24,2.63,2.63,0,0,0,1.33,4c3,1.42,3.37,2.21,5.76-.18s3.81-3.63,5-5.67.35-2.21-.44-3.37-.8-6.2-5.14-3M79.86,98.76c2.6,0,4.6.4,6.2-2.2,1.41-2.3,3.5-6.31,4.2-6.71a3.19,3.19,0,0,0,1.2-2.9,38.84,38.84,0,0,1,.6-10.3c.3-.7.9-1.9-1.6-5S91.76,66,93,68.94c2.05,5,6.11,2.61,7.31,1.2s2.2-2.6.1-6.3,2.9-5.2,3.5-2.4C105,66.81,111.18,67,111.18,67c7.21.22,8-6.12,4.59-11s-.93-7.15,1.41-6.91,4.6,1.6,3.61,6.89.79,8.32.79,8.32c3.25,5.05,9,1,10.17.31,2.93-1.71,5.23,1.59,2.59,3.32-1.11.73-2.86,2.07-2.71,3.94.35,4.5,3.24,5.81,9,2.74,5.07-2.73,6.37,2.9,3.36,4.41-3.86,1.92-3.45,7.26-.62,8.86s3.94.74,6.78-.86,3.83,2,2,3.09c-7.14,4.29-2.85,10.09,0,11.57,5.28,2.75,3.33,3.82,1.61,4.68s-10.1,4.43-6,9.61,0,6.16-2.58,5.54c-5.69-1.35-9.61,4.43-7.15,7.52s.13,4.56-1.72,3.69c-5.2-2.42-9.49.87-7.15,5.54s-2,5.3-3.32,3.45-2.84-1.47-5,.13a3.82,3.82,0,0,0-1.6,3.94c1.61,4-.62,3.82-2.34,3.2-3.8-1.35-4.44,2.59-2,3.7s3.08,2.83.62,3.32c-5.52,1.11-4.93,4.07-2.59,5.18s3.2,2.46,1.48,4.31c-4.24,4.55,4.19,6.53,6.28,5.17s2.71.37,2,1.36c-3.19,4.26,0,8,1.61,8.49s3.08-.61,2.33,2.59,1.49,4.06,3.09,4.56,4.8-.12,3,2.21a3.09,3.09,0,0,0,2.33,5.05c2.22.13,3.21,0,2.59,2.35s.12,3.69,1.6,4.3c4.25,1.77,3.7,3.58,2.46,4.44s-3.08,3.2-.86,5.42,2.1,5.42.49,6.53-3.57,3.82-1.1,5.67.74,3.69-.62,3.94-4.07,1-1.85,3.69,1,3.82-.74,3.7-3.81-1-3.08,1.84.74,3.95-1.11,3.95-3.2-.13-3.69,1.85-.74,2.33-2.22,2.46-2.21.49-3.7,2.46-2.33,2.84-3.32,2.34a3.15,3.15,0,0,0-3.2.62c-2.44,1.83-4.81,1.6-5.79.37a2.52,2.52,0,0,0-3.69-.62c-2.15,1.91-3.82,1.48-5.3.25s-.74-1.61-5.42-2-9.86-8.38-10-10.23A9.19,9.19,0,0,0,84,233.17c-1.11-1.23-1.72-2.21-.86-3.32s2.46-2.34,1.11-4.93-.49-3.94,1.23-5.79,3.33-3.32,4.44-5.66A5,5,0,0,1,95.79,211c1.6.74,2.21,1.23,3.82,1s2.09-.62,2.58.24a9.18,9.18,0,0,0,2.84,3.82c2.34,2.1,2,5.79,1.6,6.9s-1,1-.87,2.09-.37,3.08-1,3-.86-.12-1.85,1.11c-3.54,4.42-5.66-.25-6.16-1.48s.25-2.71,3.45-1.6,2.47-2.71,2-3.82-.86-1.35-1.6-1.23a2.46,2.46,0,0,1-2.34-.37,3.14,3.14,0,0,0-3.69,0A17.75,17.75,0,0,1,92,222.46c-1.5,1.24-1.67,1.93-1.67,1.93a3,3,0,0,0-.23,3.93c.9,1,1.57,1.34.9,2.35s-.78,2.81,1.57,3.7,3.37,2,5.49,4.15,3.26,1.8,4.27,1.24,1.79-1.69,3.59-.12c2.82,2.47,4.15,1.12,5.16.23s1.12-1.68,3.36-2.36c4.18-1.25,5.7-3.23,5.7-3.23,2.32-2.05,2-3.21,1-4.09s-1.16-2.05.47-2.94c3.9-2.1,2.18-4.16,1.36-4.64s-2.38-1.7-.74-2.72,1.15-2.52-.41-3.41-2.8-1.71-.35-3.35.76-4.36-.88-5.25c-4-2.18-3.41-2.24-2.25-3.61s-.62-4.16-2.46-4.84a15.53,15.53,0,0,1-6.95-4.51c-2.59-2.93-4.37-1.83-4.78-1.15s-3.34,4.09-5-.75-4-2.73-4.84-1.71-3.62,4-4.58-1.84S84,184,82.87,185.65s-3,2.52-3.54-.68c-1.07-6.28-3.41-6.55-7.78-6.69s-5.32-1.36-2.73-4.43,3.55-4.37.62-6.14c-7.37-4.46-3.28-5.87-2.39-6.48s4.71-4.16,1.64-7.43-1.84-3.75.68-5,4.43-4.57.95-9-1.56-4.91,1-5c7.64-.41,7.58-5.56,7.77-7.91,0-2.26.07-5.8,3.48-3.76,3.15,1.9,9.21,2.26,10.37-1.22.8-2.42,1.43-5.12,4.37-2.59s6.58-.35,6.74-4.16c.14-3.08.49-4.1,3.42-2.53,4.07,2.18,6-2,6.2-4.43.17-2-.06-3.55,2.25-3s4.44-.48,2.87-3c-1.09-1.75-.48-2.32.34-2.73a2.58,2.58,0,0,0,1.23-3.14c-.48-1.5-2.39-1.09-3.07.14-1.16,2.08-1.91,2.32-2.86,2a4.38,4.38,0,0,0-3.55.82c-.68.75-1.64,2.46-3.07,1-3.34-3.5-8.66-2.94-12.48-.75a23.55,23.55,0,0,0-8.39,8.93c-1,2.32-2.8,1.77-3.48,1a57.56,57.56,0,0,0-6.07-5.94c-1.61-1.3-.1-4.7,2.51-4.7"/><path id="path34" d="M61.76,20.74H66.3l-2.23-7.68Zm6.16,5.74-1.07-3.86H61.23l-1.1,3.86H57.86l5-15.9h2.51l4.86,15.9Z"/><path id="path36" d="M72.83,24h2.1v2.44h-2.1Z"/><path id="path38" d="M87.21,21.58v.35A4.92,4.92,0,0,1,86,25.46a4.35,4.35,0,0,1-3.33,1.27,6,6,0,0,1-1.89-.29,3.8,3.8,0,0,1-1.42-.8,4.55,4.55,0,0,1-1.28-2.39,24.22,24.22,0,0,1-.37-5.07A22.56,22.56,0,0,1,78,14.42a6.07,6.07,0,0,1,.78-2.2,3.45,3.45,0,0,1,1.56-1.35,5.5,5.5,0,0,1,2.36-.48A4.32,4.32,0,0,1,86,11.61a5,5,0,0,1,1.14,3.53H84.86V14.9a3.31,3.31,0,0,0-.57-2.12,2,2,0,0,0-1.71-.7,2.73,2.73,0,0,0-1.27.28,2.3,2.3,0,0,0-.88.82A4.18,4.18,0,0,0,80,14.81,40.5,40.5,0,0,0,79.82,19a12.5,12.5,0,0,0,.61,4.84A2.2,2.2,0,0,0,82.58,25a2.08,2.08,0,0,0,1.82-.8A4.09,4.09,0,0,0,85,21.76v-.18Z"/><path id="path40" d="M90,24h2.1v2.44H90Z"/><path id="path42" d="M104.35,21.58v.35a4.92,4.92,0,0,1-1.2,3.53,4.35,4.35,0,0,1-3.33,1.27,6.15,6.15,0,0,1-1.9-.29,3.75,3.75,0,0,1-1.41-.8,4.48,4.48,0,0,1-1.28-2.39,24.06,24.06,0,0,1-.38-5.07,22.36,22.36,0,0,1,.24-3.76,6.07,6.07,0,0,1,.78-2.2,3.45,3.45,0,0,1,1.56-1.35,5.46,5.46,0,0,1,2.36-.48,4.32,4.32,0,0,1,3.31,1.22,5,5,0,0,1,1.14,3.53H102V14.9a3.31,3.31,0,0,0-.57-2.12,2.07,2.07,0,0,0-1.71-.7,2.73,2.73,0,0,0-1.27.28,2.3,2.3,0,0,0-.88.82,4.18,4.18,0,0,0-.47,1.63A37.69,37.69,0,0,0,97,19a12.5,12.5,0,0,0,.61,4.84A2.2,2.2,0,0,0,99.72,25a2.09,2.09,0,0,0,1.82-.8,4.16,4.16,0,0,0,.59-2.46v-.18Z"/><path id="path44" d="M107,26.48V10.58h8v1.75h-5.84v5.11h5.66v1.78h-5.66v5.52h5.84v1.74Z"/><path id="path46" d="M116.59,21.88h2.29v.29a3.53,3.53,0,0,0,.56,2.21,2.18,2.18,0,0,0,1.8.7,2.72,2.72,0,0,0,1.91-.69,2.26,2.26,0,0,0,.75-1.74q0-1.37-2.94-3.21l-.65-.41a11,11,0,0,1-2.93-2.39,4,4,0,0,1-.62-2.26,3.69,3.69,0,0,1,1.3-2.94,5,5,0,0,1,3.4-1.12,4.61,4.61,0,0,1,3.29,1.07,4,4,0,0,1,1.14,3.1v.39h-2.18v-.33a2.82,2.82,0,0,0-.58-1.93,2.25,2.25,0,0,0-1.76-.66,2.6,2.6,0,0,0-1.77.62,2,2,0,0,0-.7,1.55q0,1.53,3.17,3.56l.9.57a9.57,9.57,0,0,1,2.48,2.08,3.41,3.41,0,0,1,.6,2,4.19,4.19,0,0,1-1.27,3.25,5.14,5.14,0,0,1-3.58,1.15,4.88,4.88,0,0,1-3.47-1.1,4.35,4.35,0,0,1-1.16-3.29,2.2,2.2,0,0,1,0-.23c0-.11,0-.2,0-.25"/><path id="path48" d="M128.84,26.48V10.58h7.94v1.75H131v5.11h5.66v1.78H131v5.52h5.83v1.74Z"/><path id="path50" d="M147.93,24.65c0-.51-.05-1-.07-1.49s0-1,0-1.42V10.58h1.93v15.9h-2.84L140.81,12c.05.68.1,1.26.13,1.75s0,.91,0,1.24V26.48h-1.9V10.58h3l5.86,14.07Z"/><path id="path52" d="M155.47,20.74H160l-2.22-7.68Zm6.16,5.74-1.07-3.86h-5.62l-1.1,3.86h-2.27l5-15.9h2.51l4.86,15.9Z"/></g></g></g></svg>