<svg xmlns="http://www.w3.org/2000/svg" viewBox="0 0 299.5 299.5"><defs><style>.cls-1{fill:#fff;}.cls-2{fill:#d4021d;}</style></defs><title>Charlton_Athletic</title><g id="Слой_2" data-name="Слой 2"><g id="Слой_1-2" data-name="Слой 1"><path class="cls-1" d="M0,149.75A149.75,149.75,0,1,1,149.75,299.5,149.75,149.75,0,0,1,0,149.75"/><path d="M5.69,149.75A144.06,144.06,0,1,1,149.75,293.81,144.06,144.06,0,0,1,5.69,149.75"/><path class="cls-1" d="M49.59,149.75A100.16,100.16,0,1,1,149.75,249.91,100.16,100.16,0,0,1,49.59,149.75"/><path class="cls-1" d="M67.81,55a7.35,7.35,0,0,0-6.22,2.18,6.86,6.86,0,0,0,.22,10,6.76,6.76,0,0,0,10,0A7.78,7.78,0,0,0,74,61.07l5.75,5.71a18.92,18.92,0,0,1-3.36,5.09,14.45,14.45,0,0,1-9.6,4.22,12.71,12.71,0,0,1-9.92-4,13.6,13.6,0,0,1-4-9.43,14.09,14.09,0,0,1,4-10,15.77,15.77,0,0,1,5.29-3.45L67.81,55"/><polyline class="cls-1" points="87.47 42.81 82.06 34.35 87.76 30.71 101.76 52.63 96.06 56.27 90.32 47.29 82.1 52.54 87.83 61.53 82.13 65.17 68.13 43.24 73.83 39.6 79.24 48.06 87.47 42.81"/><path class="cls-1" d="M109.23,45,109,49.84l-6.79,2.32,1.06-27.86,7-2.38,17.68,21.45-6.82,2.33L118.05,42l-8.82,3m.12-14.26-.06,0,0,8.74,5.32-1.82Z"/><path class="cls-1" d="M150.25,41.31l-8.37.91L134.45,33h-.07l1.09,10-6.73.73-2.81-25.86,10-1.1c5.11-.55,9.25,1.46,9.85,7,.39,3.57-1.26,6.87-4.86,7.92l9.28,9.72M133.91,28.65l.65-.07c2.2-.24,4.62-.92,4.32-3.73s-2.82-3-5-2.72l-.65.07Z"/><polyline class="cls-1" points="158.26 36.55 166.35 37.1 165.96 42.81 151.13 41.8 152.88 15.85 159.63 16.3 158.26 36.55"/><polyline class="cls-1" points="177.5 45.46 170.91 43.95 175.44 24.17 169.99 22.93 171.27 17.34 188.75 21.35 187.48 26.93 182.03 25.68 177.5 45.46"/><path class="cls-1" d="M214.84,46.2c-3.6,7.62-11.59,10.41-19.14,6.84s-10.48-11.5-6.88-19.12c3.35-7.11,12-9.16,18.72-6s10.66,11.14,7.3,18.25M195.17,37a7.36,7.36,0,1,0,13.29,6.28c1.53-3.25-.07-7.62-3.71-9.35S196.7,33.71,195.17,37Z"/><polyline class="cls-1" points="227.14 39.6 232.28 43.99 231.38 64.13 231.43 64.17 241.76 52.08 246.9 56.47 230.01 76.25 224.86 71.86 225.8 51.69 225.74 51.65 215.39 63.78 210.25 59.38 227.14 39.6"/><path class="cls-1" d="M77.75,260.05,73.86,263l-6.13-3.73,22.07-17,6.32,3.84L91,273.38l-6.16-3.74.91-4.75-8-4.84m11-9-.06,0L82,256.6l4.81,2.92Z"/><polyline class="cls-1" points="101.94 277.39 95.68 274.85 103.32 256.05 98.14 253.94 100.29 248.64 116.92 255.39 114.76 260.69 109.58 258.59 101.94 277.39"/><polyline class="cls-1" points="131.77 268.84 133.68 258.98 140.32 260.27 135.36 285.81 128.71 284.52 130.75 274.05 121.17 272.19 119.13 282.65 112.49 281.36 117.46 255.82 124.1 257.12 122.18 266.97 131.77 268.84"/><polyline class="cls-1" points="149.53 280.37 157.64 280.42 157.6 286.15 142.73 286.05 142.91 260.03 149.67 260.08 149.53 280.37"/><polyline class="cls-1" points="166.08 264.69 166.7 269 174.24 267.92 175.06 273.58 167.51 274.67 168.15 279.11 176.11 277.97 176.92 283.64 162.27 285.74 158.57 259.99 173.22 257.88 174.04 263.55 166.08 264.69"/><polyline class="cls-1" points="193.38 279.07 186.92 281.07 180.94 261.68 175.6 263.32 173.91 257.85 191.06 252.57 192.75 258.04 187.4 259.68 193.38 279.07"/><polyline class="cls-1" points="208.95 272.74 202.79 275.51 192.1 251.8 198.27 249.02 208.95 272.74"/><path class="cls-1" d="M221.56,245.31a7.34,7.34,0,0,0-6.54.77,6.86,6.86,0,0,0-2,9.8,6.75,6.75,0,0,0,9.74,2.2,7.79,7.79,0,0,0,3.44-5.46l4.34,6.85a18.94,18.94,0,0,1-4.39,4.22,14.48,14.48,0,0,1-10.3,2,12.72,12.72,0,0,1-8.79-6.06,13.61,13.61,0,0,1-1.87-10.1,14.12,14.12,0,0,1,6.1-8.86,15.89,15.89,0,0,1,5.92-2.2l4.34,6.84"/><polyline class="cls-1" points="236.9 256 236.12 256.61 231.2 250.35 229.51 251.67 228.94 250.95 233.11 247.67 233.68 248.39 231.97 249.74 236.9 256"/><polyline class="cls-1" points="234.18 246.15 241.47 249.75 239.12 241.96 246.58 247.95 245.81 248.61 241.04 244.77 241.02 244.78 242.97 251.5 236.66 248.49 236.65 248.5 239.67 253.82 238.89 254.48 234.18 246.15"/><path class="cls-2" d="M55.55,149.75a94.2,94.2,0,1,1,94.2,94.2,94.2,94.2,0,0,1-94.2-94.2"/><path class="cls-1" d="M140,207.4a2.16,2.16,0,0,1,.82,1.73c.2,2-1.09,3.68-1.48,5.69-.45,2.35.45,4.32,1.34,6.35a9.87,9.87,0,0,0,3,3.63,11.22,11.22,0,0,0,11.33,1.71c3.88-1.54,6-5,7-9,.67-2.73-1.18-4.84-1.54-7.38,0-.18.44-.61.55-.56,9.7,4.17,18,10.31,26.3,17.22.6.49,1.17,1.65,2.22,1.09a85,85,0,0,0,31.82-28.18c.37-.53-.16-1-.63-1.23a203.42,203.42,0,0,0-34.88-9.32c-8-1.51-15.48-1.35-23.43-3.22-.82-.18-1.31-1.34-1.71-1.36a147.29,147.29,0,0,0-24.13.09c-1.06,2.27-1.54,4.72.16,7.16.52.76.11,2-.37,3a3.43,3.43,0,0,0,.62,3.58c.86,1.11,2.54,1.83,1.83,3.35a5.67,5.67,0,0,0-.85,3.73c.22,1.06,1.17,1.44,2,2"/><path class="cls-1" d="M136.66,175.53c-5.24.27-11.61,1.35-15.28-3.43-1.47-1.91-1.13-5.31-3.87-6.15a5.16,5.16,0,0,0-6.25,2.63,8.34,8.34,0,0,0-.29,6.94,8.54,8.54,0,0,0,6.61,5.4c21.83,2.43,43-1.55,65,1.83,4.05.62,9.17,7.79,13.15,3.22.94-6.9-7-9.41-12.42-10.3-7.63-1.25-15,.22-22.46-.77-1.53-27.16-.09-54.29-1.33-81.48a47.22,47.22,0,0,0-10.4-27.51,48.48,48.48,0,0,0-8.92,23.84c-2.27,28.47.12,56.64-2,85.14a2.51,2.51,0,0,1-1.47.64"/></g></g></svg>