<svg xmlns="http://www.w3.org/2000/svg" viewBox="0 0 299.35 299.35"><defs><style>.cls-1{fill:#dba111;}.cls-2{fill:#034694;}.cls-3{fill:#fff;}.cls-4{fill:#d1d3d4;}.cls-5{fill:#ed1c24;}.cls-6{fill:#6a7ab5;}</style></defs><title>Chelsea</title><g id="Слой_2" data-name="Слой 2"><g id="Layer_1" data-name="Layer 1"><path id="path3381" class="cls-1" d="M299.35,149.67A149.68,149.68,0,1,1,149.67,0,149.68,149.68,0,0,1,299.35,149.67"/><path id="path3383" class="cls-2" d="M294.35,149.67A144.68,144.68,0,1,1,149.67,5,144.67,144.67,0,0,1,294.35,149.67"/><path id="path3385" class="cls-1" d="M252.78,149.67A103.11,103.11,0,1,1,149.67,46.56,103.1,103.1,0,0,1,252.78,149.67"/><path id="path3387" class="cls-3" d="M249.66,149.67a100,100,0,1,1-100-100,100,100,0,0,1,100,100"/><path id="path3389" class="cls-1" d="M64,235.93l3.83,3.65,2.61-2.75-7.78-7.42-1,1.05-10.44,11,4,3.77,4.58-4.79,3.48,3.32L65.84,241l-3.47-3.33L64,235.93"/><path id="path3391" class="cls-1" d="M82.77,248.44a8,8,0,0,0-3.32-5.22,8.09,8.09,0,0,0-6-1.42,9.25,9.25,0,0,0-7.34,10.35,8.18,8.18,0,0,0,9.33,6.62,8.85,8.85,0,0,0,5.72-3.71,9,9,0,0,0,1.74-5.24,8,8,0,0,0-.12-1.38m-11.18,5.82c-1.82-1.29-.31-4,.75-5.45s3.1-3.8,4.92-2.51.12,4.29-.73,5.48S73.5,255.62,71.59,254.26Z"/><path id="path3393" class="cls-1" d="M95,252.6c-4.19-2.12-9-.39-11.26,4a8.88,8.88,0,0,0-.61,6.8,8,8,0,0,0,4.05,4.66,8,8,0,0,0,6.17.5,8.85,8.85,0,0,0,5.1-4.52c2.23-4.42.75-9.34-3.45-11.46m-4.63,12.25a1.88,1.88,0,0,1-1.49-.15,2.1,2.1,0,0,1-1.12-2,8.46,8.46,0,0,1,1-3.48c.83-1.64,2.5-4.22,4.49-3.21a1.82,1.82,0,0,1,1,1.1c.34,1,0,2.65-.9,4.42S91.37,264.52,90.37,264.85Z"/><path id="path3395" class="cls-1" d="M103.65,258.66l-.77,2.21,2.57.89c-.76,2.16-4.23,12.08-4.23,12.08l5.16,1.81s3.48-9.92,4.24-12.07l2.57.89,1.25-3.56-10.31-3.62-.48,1.37"/><path id="path3397" class="cls-1" d="M125.09,263.45l-7-1.47-.3,1.42-3.12,14.8,7.1,1.51a6,6,0,0,0,4.62-.64,5.06,5.06,0,0,0,2.13-3.25,5.22,5.22,0,0,0,.12-1.1,4.42,4.42,0,0,0-.89-2.67,4.54,4.54,0,0,0,1.61-2.65,4.82,4.82,0,0,0,.09-1,5,5,0,0,0-4.38-5m-1.92,11.31a1.65,1.65,0,0,1-.47.95,1.86,1.86,0,0,1-1.28,0l-.59-.12c.23-1.07.38-1.78.6-2.85l.69.15a1.28,1.28,0,0,1,1.1,1.36,2.39,2.39,0,0,1,0,.47Zm-.48-7.93a2.07,2.07,0,0,1,1.24.63.88.88,0,0,1,.11.48,2.45,2.45,0,0,1,0,.43c-.1.43-.22,1-1.43.79l-.36-.08c.19-.9.28-1.35.48-2.25Z"/><path id="path3399" class="cls-1" d="M138,265.86l-7.58,15.52,4.33.33,1.64-3.45,2.73.21c.33,1,1.18,3.67,1.18,3.67l5.76.44-6.44-19.94L138,265.86"/><path id="path3401" class="cls-1" d="M155.06,278.25c-.1-2.27-.53-12.59-.53-12.59l-5.47.23.69,16.57,11-.46-.17-4-5.48.22"/><path id="path3403" class="cls-1" d="M170.06,276.66l-1.95-12.45-1.44.23-4,.62,2.57,16.39,10.84-1.7-.62-3.93s-3.87.61-5.42.84"/><path id="path3405" class="cls-1" d="M201.44,265.64a3.46,3.46,0,0,1-2.19,3.16,2.6,2.6,0,0,1-2.1,0,5.46,5.46,0,0,1-2.64-3.08,5.77,5.77,0,0,1-.39-4.27,3.19,3.19,0,0,1,1.87-1.65c1-.41,2,0,3.31.75l1.22.71,2-3.18-1.2-.79a8,8,0,0,0-7.29-.8,8.67,8.67,0,0,0-4.78,4.6,8.79,8.79,0,0,0,0,6.83,8.46,8.46,0,0,0,11,4.78,7.6,7.6,0,0,0,5.1-6.84l.1-1.44-4-.29-.05,1.52"/><path id="path3407" class="cls-1" d="M214.21,261.11c-1.12-2-6.16-11-6.16-11l-1.26.71-3.52,2,8.1,14.48,9.56-5.34L219,258.43l-4.79,2.68"/><path id="path3409" class="cls-1" d="M224.85,238.78l-1.17.86-2.06,1.51,6.72,9.15a1.08,1.08,0,0,1,.28.86,2.37,2.37,0,0,1-1,1.29,1.7,1.7,0,0,1-1.17.27,1.24,1.24,0,0,1-.86-.56L219,243.1l-4.43,3.24,6.61,9a5.5,5.5,0,0,0,3.62,2.34,7,7,0,0,0,5.09-1.54c3.46-2.53,3.41-5.9,1.89-8l-6.89-9.41"/><path id="path3411" class="cls-1" d="M245,235.45a4.52,4.52,0,0,0-3.59-1.46,4.45,4.45,0,0,0-1.27-2.82,5,5,0,0,0-7.32.23l-5.12,4.95,11.54,11.92,5.21-5.05A6,6,0,0,0,246.5,239a5,5,0,0,0-1.5-3.58m-8.72-.4a1,1,0,0,1,.39.69,1.37,1.37,0,0,1-.54.93l-.25.26c-.65-.67-.95-1-1.61-1.66,1.16-1.06,1.64-.61,2-.22Zm2.74,4.1a1.4,1.4,0,0,1,2.09.16,1.54,1.54,0,0,1,.53.91h0a1.85,1.85,0,0,1-.67,1.09l-.44.41-2-2.08.51-.5Z"/><path id="path3413" class="cls-3" d="M64,234.39,67.79,238l1.11-1.17L62.69,231l-.25.26-9.69,10.17,2.38,2.28,4.58-4.8,3.49,3.32L64.31,241l-3.49-3.32,3.15-3.3"/><path id="path3415" class="cls-3" d="M78.82,244.1a7,7,0,0,0-5.19-1.23A8.15,8.15,0,0,0,67.17,252,6.88,6.88,0,0,0,70,256.47a7,7,0,0,0,5.22,1.23,7.84,7.84,0,0,0,5-3.26,8,8,0,0,0,1.54-4.62,8.09,8.09,0,0,0-.1-1.2,7,7,0,0,0-2.88-4.52m-1.4,8.31c-1,1.46-3.76,4.66-6.45,2.74s-.56-5.52.48-7,3.75-4.66,6.44-2.76.57,5.54-.47,7Z"/><path id="path3417" class="cls-3" d="M94.51,253.57c-3.63-1.84-7.84-.31-9.8,3.55a7.83,7.83,0,0,0-.55,6A7.13,7.13,0,0,0,93,267.55a7.8,7.8,0,0,0,4.47-4c2-3.86.67-8.16-3-10m-6.12,12.09c-2.94-1.48-1.37-5.37-.56-7s3-5.17,6-3.68a2.92,2.92,0,0,1,1.55,1.73c.58,1.77-.36,4.05-1,5.26s-1.89,3.3-3.65,3.88a2.88,2.88,0,0,1-2.32-.22Z"/><path id="path3419" class="cls-3" d="M104.68,259l-.42,1.18,2.58.9-4.24,12.07,3.11,1.1L110,262.19l2.57.9.54-1.52-8.26-2.9-.12.35"/><path id="path3421" class="cls-3" d="M124.87,264.51,119,263.26l-.08.36L116,277.37l6,1.27a5,5,0,0,0,3.8-.48,4,4,0,0,0,1.66-2.56,4.43,4.43,0,0,0,.09-.87,3.5,3.5,0,0,0-1.66-3,3.32,3.32,0,0,0,2.4-2.61,3.22,3.22,0,0,0,.08-.74,4,4,0,0,0-3.52-3.92m-2.07,1.22a3.07,3.07,0,0,1,2,1.13,2,2,0,0,1,.3,1.08,3,3,0,0,1-.07.65,2,2,0,0,1-2.71,1.63l-1.43-.3.93-4.39,1,.2Zm-.45,6.14a2.32,2.32,0,0,1,1.94,2.48,3,3,0,0,1-.06.63,2.41,2.41,0,0,1-.94,1.64,2.76,2.76,0,0,1-2.09.2l-1.66-.34c.13-.59.93-4.4,1-5l1.76.37Z"/><path id="path3423" class="cls-3" d="M139,266.34l-6.88,14.08,2,.15,1.65-3.45,4.2.32,1.18,3.67,3.41.26-5.11-15.83-.43.8m-.76,5.66c.34,1.06,1,3.11,1.19,3.78l-2.92-.22c.31-.63,1.25-2.56,1.73-3.56Z"/><path id="path3425" class="cls-3" d="M154,279.38c0-.68-.53-12.59-.53-12.59h-.35l-2.95.12.61,14.41,8.79-.37-.08-1.8-5.49.22"/><path id="path3427" class="cls-3" d="M169.16,277.92c-.11-.68-2-12.47-2-12.47l-.36.06-2.9.46,2.23,14.24,8.69-1.37-.28-1.78s-4.8.75-5.42.86"/><path id="path3429" class="cls-3" d="M202.52,265.66a4.54,4.54,0,0,1-2.86,4.16,3.71,3.71,0,0,1-2.94,0,6.46,6.46,0,0,1-3.23-3.68,6.83,6.83,0,0,1-.37-5.1,4.22,4.22,0,0,1,2.47-2.23c1.58-.63,3,.09,4.26.82l.31.18.89-1.39-.3-.2a6.86,6.86,0,0,0-6.29-.7,7.54,7.54,0,0,0-4.19,4,7.76,7.76,0,0,0,0,6,7.38,7.38,0,0,0,9.55,4.18,6.49,6.49,0,0,0,4.41-5.9l0-.37-1.75-.12,0,.37"/><path id="path3431" class="cls-3" d="M213.79,262.59c-.34-.59-6.16-11-6.16-11l-.32.18-2.56,1.43,7,12.58,7.67-4.29-.87-1.57-4.79,2.68"/><path id="path3433" class="cls-3" d="M224.61,240.3l-.29.22-1.18.86,6.08,8.28a2.24,2.24,0,0,1,.48,1.66,3.47,3.47,0,0,1-1.42,2,2.83,2.83,0,0,1-2,.47,2.4,2.4,0,0,1-1.59-1l-6-8.18-2.66,2,6,8.12a4.39,4.39,0,0,0,2.9,1.91,6.13,6.13,0,0,0,4.28-1.33c2.88-2.11,2.92-4.76,1.67-6.44l-6.26-8.54"/><path id="path3435" class="cls-3" d="M244.22,236.21a3.51,3.51,0,0,0-4-.85,3.19,3.19,0,0,0,.19-1.05,3.38,3.38,0,0,0-1-2.39c-.93-1-3.33-2.14-5.78.25l-4.35,4.21,10,10.35,4.44-4.31a4.82,4.82,0,0,0,1.71-3.4,3.86,3.86,0,0,0-1.19-2.81m-6.47-.45a2.49,2.49,0,0,1-.85,1.69l-1,1c-.41-.42-2.73-2.81-3.13-3.24l.69-.66c1.36-1.32,2.55-1.41,3.64-.28a2.11,2.11,0,0,1,.69,1.47Zm2.76,7.51L237,239.62l1.28-1.25a2.53,2.53,0,0,1,3.64.19,2.42,2.42,0,0,1,.83,1.66v0a2.79,2.79,0,0,1-1,1.86l-1.21,1.17Z"/><path id="path3437" class="cls-1" d="M83.18,51.07,77.13,52.7l.69,2.17a6.69,6.69,0,0,1-2,7.17A5.2,5.2,0,0,1,72,63.4a10.4,10.4,0,0,1-6.66-3.82C63,56.94,61.83,54.39,62,52.23A6.12,6.12,0,0,1,64.31,48c1.62-1.42,3.68-1.36,6.47-.81l2.07.41,1.34-5.8-2.08-.5a13.88,13.88,0,0,0-12.49,2.9c-6.53,5.71-7.06,15-1.24,21.7A14.85,14.85,0,0,0,79.3,67.39c4.41-3.85,6-8.78,4.45-14.23l-.57-2.09"/><path id="path3439" class="cls-1" d="M99.6,20.73l-6.18,2.91,4.64,9.83-5.23,2.47-4.65-9.83L80.05,30,92.44,56.23l8.14-3.84s-3.84-8.13-5.07-10.76l5.24-2.47c1.23,2.63,5.07,10.76,5.07,10.76L114,46.08,101.57,19.8l-2,.93"/><path id="path3441" class="cls-1" d="M127.16,37c-.4-2-.8-3.95-1.2-5.9l9.2-1.86L134,23.42l-9.2,1.86c-.36-1.79-.66-3.3-1-5.08l9.76-2-1.18-5.83-2.14.43-16.44,3.32,5.74,28.49,18.74-3.79L137.06,35l-9.9,2"/><path id="path3443" class="cls-1" d="M153.73,11.71l-9-.18-.05,2.17-.56,26.88L163,41l.14-6.3-9.92-.21c.08-3.56.49-22.76.49-22.76"/><path id="path3445" class="cls-1" d="M182.92,26.37c-2.34-1.72-3-2.41-2.78-3.34a1.9,1.9,0,0,1,2.32-1.63c1,.26,2,.79,2.46,3l.49,2.41,6-2L191,22.9a10.7,10.7,0,0,0-15.65-6.73,9.09,9.09,0,0,0-4.18,5.63c-1.49,6,2.52,8.82,5.18,10.72s3.41,2.71,3,4.34a1.87,1.87,0,0,1-.89,1.19,2.44,2.44,0,0,1-1.79.29c-1.43-.35-2.05-1-2.65-2.87l-.73-2.22-6,2.44.58,1.9c1.12,3.68,3.79,6,8.16,7.09,4.91,1.23,10.88-1,12.36-6.93,1.55-6.21-2.68-9.33-5.48-11.38"/><path id="path3447" class="cls-1" d="M204.41,41.87l8.37,4.23,2.69-5.31-8.37-4.23,2.33-4.63,8.89,4.49L221,31.11l-16.91-8.55-1,1.94L191,48.5,208,57.11l2.69-5.31-9-4.55c.89-1.79,1.82-3.6,2.71-5.38"/><path id="path3449" class="cls-1" d="M238.1,44.58l-27.1,14,5.18,4.51,6.1-3.24,4.18,3.64c-.58,1.73-2.24,6.59-2.24,6.59l7.15,6.22L243,42.16l-4.85,2.42"/><path id="path3451" class="cls-3" d="M82.16,52.84,79,53.71l.23.72a8.13,8.13,0,0,1-2.4,8.71,6.66,6.66,0,0,1-5,1.72,11.74,11.74,0,0,1-7.65-4.32c-2.57-2.94-3.85-5.85-3.68-8.42a7.61,7.61,0,0,1,2.84-5.23c2.29-2,5.18-1.64,7.71-1.14l.69.13.7-3-.7-.17a12.46,12.46,0,0,0-11.19,2.59c-5.9,5.17-6.37,13.61-1.1,19.66A13.42,13.42,0,0,0,78.35,66.3c4-3.52,5.36-7.81,4-12.76l-.19-.7"/><path id="path3453" class="cls-3" d="M100.22,22l-4.86,2.3L100,34.16l-7.86,3.71L87.5,28,82,30.64,93.13,54.3l5.52-2.6s-4.53-9.6-5.07-10.76l7.86-3.71C102,38.39,106.52,48,106.52,48l5.51-2.6L100.88,21.73l-.66.3"/><path id="path3455" class="cls-3" d="M126,38.72c-.23-1.14-1.54-7.61-1.76-8.75l9.19-1.85-.6-3L123.65,27c-.22-1.11-1.38-6.81-1.6-7.92l9.76-2-.61-3-15.73,3.18,5.17,25.64,15.89-3.21-.6-3-9.91,2"/><path id="path3457" class="cls-3" d="M152.24,13.14l-6.1-.14v.72l-.54,25.44,16,.34.07-3.4-9.92-.21c0-1.36.48-22.75.48-22.75"/><path id="path3459" class="cls-3" d="M182.81,20c1.94.49,3.06,1.78,3.54,4.08l.16.8,3.18-1.08-.12-.62a9,9,0,0,0-6.67-6.66,8.88,8.88,0,0,0-6.8.89,7.65,7.65,0,0,0-3.53,4.74c-1.26,5,2,7.33,4.61,9.19s4.24,3.18,3.56,5.87a3.35,3.35,0,0,1-1.56,2.09,3.91,3.91,0,0,1-2.88.45c-1.93-.48-2.92-1.52-3.67-3.83l-.25-.74-3.3,1.34.19.64c1,3.15,3.29,5.16,7.13,6.12,4.22,1,9.33-.86,10.59-5.88,1.31-5.27-2.14-7.82-4.94-9.86-2.38-1.76-3.81-2.93-3.32-4.87A3.28,3.28,0,0,1,182.81,20"/><path id="path3461" class="cls-3" d="M208.79,30l8.88,4.48,1.38-2.72-14.32-7.24-.33.64L192.93,47.86l14.46,7.31,1.38-2.73-9-4.56c.52-1,3.5-6.92,4-8l8.37,4.23,1.38-2.72-8.37-4.23L208.79,30"/><path id="path3463" class="cls-3" d="M238.77,45.87,213.56,58.92l2.82,2.45,6.1-3.24,5.67,4.94c-.26.79-2.24,6.58-2.24,6.58l4.78,4.16,9.74-28.72-1.66.78M225.4,56.63l6.09-3.16c-.69,2-1.83,5.22-2.26,6.49Z"/><path id="path3465" class="cls-4" d="M221.18,145.75c-2.07-5.48-9.19-7.86-15.92-5.32a15,15,0,0,0-6.67,4.91c4.45-12.69,22.54-15.38,22.54-27.17,0-19.78-28.08-14.24-24,0,0-6.46,10.28-7.64,10.28,0s-17.92,12.66-17.92,25.57c0,14.24,14.24,15.56,12.79,28.58a6.34,6.34,0,0,1-6.15,5.2c-21.81,0-14-26.85-21.65-35l.4-5.52c4.41,2.7,16.1-3.63,8.4-13.28,0,4.75-9.88,4.49-9.88-4.48,0-12.13,11.34-5.8,11.89-3.12-.54-4.42-.75-7.22,0-9.76-6.11,2-6.68-1.57-5.91-2.93.89-1.58,2.07-3.43,4.45-3.43a4.61,4.61,0,0,1,2.52.49c.76.52,1.32-.67,1.21.44.65-1,.39.25,1-.75a20.59,20.59,0,0,1,3-3.61l-.06-2.24,1.78.66L195,92.2c-1.85-3.83-4.35-2-6.2-6.73-1.54-.4-25.56,2.22-24.86-7.37-2,0-6.6,1.08-3.73,5-2.23.27-3.84-2.27-7.2,4.59,4.21-.79,2,3.92,2,5.26,0,8.69-11.57,8.54-11.57,4.47-2.78,2.71-1.2,8.63,3,10.09,0,0-1.6,6.34-5.56,10.36-5.87-.24-15.3-1.26-20.72-6.38a18.5,18.5,0,0,0-5.77-4v-2.88A22.26,22.26,0,0,0,122,98.08a12.65,12.65,0,0,0,2.87-9.16c0-.41-.1-.82-.17-1.21,0-.13-.05-.25-.08-.37-.06-.28-.13-.54-.21-.81s-.07-.27-.11-.4-.19-.54-.3-.8a2.15,2.15,0,0,0-.13-.32c-.14-.35-.31-.68-.48-1l-.23-.38c-.12-.2-.24-.4-.37-.6l-.32-.46-.34-.44-.39-.48c-.1-.11-.19-.21-.29-.3a12.37,12.37,0,0,0-1.1-1.07l-.11-.09-.67-.53-.19-.13c-.24-.17-.49-.34-.75-.5l0,0a14.28,14.28,0,0,0-8.6-2c-7.59.6-13.23,6.94-12.59,14.16a13.3,13.3,0,0,0,10,11.54,14.46,14.46,0,0,1-3.85,1.66l.22.14.07,0a2,2,0,0,0,.25.14l.07,0,.39.2.07,0c.13.06.25.12.39.17l.12,0a10.22,10.22,0,0,0,1.11.38l.17,0,.5.13.18,0,.67.11h.06v1.63l-.25,0c-2.46.41-4.07,1.16-4.79,3.36s0,3,1.17,4.55c-1,1.74-3.53,2.4-.19,6.25-.24,1.46.06,3.78,2.18,4.48a11.64,11.64,0,0,0,1.88.46v28.91a7.86,7.86,0,0,0-3.74,3.81s-1.69-3.76-1.58,3.7c1.93-1.5,1.17,1.73,1.17,1.73-2.63,3.4.71,3.22.71,3.22,2.26-2.26,1.8,1,1.8,1,0,4,1.62,5.57,1.63,5.57v22h-1.92l0,6.07h3.36a4.69,4.69,0,0,0-3,4.7,4.9,4.9,0,0,0,5.35,4.31,4.78,4.78,0,0,0,4.52-5.09,4.7,4.7,0,0,0-3-3.93h3.1v-6.08h-1.85V177a5.24,5.24,0,0,0,1.24.45,5,5,0,0,0,.54.07h.24a5.24,5.24,0,0,1,1-4.27,8.33,8.33,0,0,1,3.23-2.76c3.87-1.95,9.16-1.45,10.75,1.71,10-2.64,18.63-12.71,18.63-12.71l4.93,8.39c-10.46,3.5-33.24,23.3-17.43,30.16,0,2-.27,16.81-9.77,15.63-13.68-1.68-17.09,4-14.47,10.34-1.23,5.37,2.9,7.23,2.9,7.23-.62-3.1.87-5.67,6.53-5.63,0,5.65,3.62,6.67,3.62,6.67,0-4.84,3.39-6.64,6.38-6.62,0,4,4.61,5.5,4.61,5.5s-1.17-4.59,4.07-5.5c13.26-2.31.8-16,21-19.72,0,0-10.05-1.51-10.05-7,0-5,9.09-8.42,12.23-8.42,6.42,12.27,13.39,12.37,15.22,12.45,2.84,3.18,1.89,13.88-2.22,13.67-15-.8-14.47,8.34-12.79,10.21a6.91,6.91,0,0,0,2.57,5.59c0-3.8,3.62-4.87,8.26-4.62-.24,4.65,2.72,5.34,2.72,5.34.08-4.67,3.53-5.47,6-5.34-.18,3.28,3.07,4.24,3.07,4.24a3.79,3.79,0,0,1,4.06-4.15c8.31,0-3.75-17.81,12.46-35.41-14.24,6.59-21.82-9.89-21.82-13.05,7.32,8.57,31.05,10.28,31.05-4.35,0-14-15.36-19.18-8.18-24.53,4.18-3.11,12.4,3.17,7.7,9.66,6.74-2.5,10.5-9,8.44-14.5m-91,.44c-5.37,3.15-9,7.15-13.86,8.89a4.53,4.53,0,0,1-1.85.3V128.11a30.76,30.76,0,0,1,8.59,2.21c3.9,2.12,3.9,6.52-1,7.56,3.11,6,13.87,3,16.22-1.81,1.15-.1,2.17,2,3.12,3.89C139.86,140.74,136.77,142.3,130.17,146.19ZM190.25,101l-1.68,2.28A7.07,7.07,0,0,0,201.67,99l-.06-.4c-.41,2-2.78,3.71-5.79,4A7.24,7.24,0,0,1,190.25,101Z"/><path id="path3467" class="cls-2" d="M103.52,84.55s0,0,0,0h0a3.36,3.36,0,0,1,.2-.43,2.93,2.93,0,0,0-.19.4M103.77,199h0a0,0,0,0,1,0,0Zm-.17-126h0Zm-2,125.38h3.35a4.41,4.41,0,0,0-1.11.66,2.86,2.86,0,0,1,1.06-.2,3,3,0,1,1-2.89,4V203a4.88,4.88,0,0,0,5.35,4.3,4.79,4.79,0,0,0,4.52-5.09,4.73,4.73,0,0,0-3-3.92H112l0-6.08H110.1V172.66a4.7,4.7,0,0,1-2.44-5.07,5.22,5.22,0,0,1,2.88.77c-1.07,2.35,1.59,4.84,1.59,4.84a5.21,5.21,0,0,1,1-4.27,8.39,8.39,0,0,1,3.23-2.76c3.88-1.95,9.17-1.46,10.75,1.71,10-2.64,18.63-12.72,18.63-12.72l4.93,8.39c11.57,0,7.54-8.66,6.79-9.41a6.31,6.31,0,0,1,6.41,6.29c0,10.66-31,12.17-31,25.1,0,5.43,5.38,7.5,5.38,7.5,0,11.79-8.1,18.79-13.63,18.79-8.86,0-15.64-1.79-15.64,7.86h3.09c-2.93,2.93-.2,7.24-.2,7.24-.61-3.1.88-5.66,6.53-5.64H122c-2.24,2.24-.93,5.64.1,6.68,0-4.85,3.38-6.64,6.37-6.62H131c-.69.69.43,3.87,2.06,5.5,0,0-1.18-4.59,4.07-5.5,13.26-2.31.8-16,21-19.72,0,0-10-1.51-10-7,0-5,9.09-8.41,12.21-8.41a19.47,19.47,0,0,1,6.82.17c.82,7.91,9.91,7.53,11.89,7.53,7.72,7.71-2,20.1-2,20.1-11.84,0-16.52,1.63-16.52,8.52h2.24c-1.26,1.27-.54,4.74.32,5.6,0-3.8,3.63-4.87,8.27-4.62h2.44c-1.19,1.19-1,4.08.28,5.34.07-4.68,3.53-5.47,6-5.34h2c-.76.77,0,3.21,1,4.25a3.81,3.81,0,0,1,4.05-4.17c8.31,0-3.76-17.8,12.46-35.4-14.24,6.59-21.82-9.89-21.82-13.05,7.32,8.56,31,10.27,31-4.35,0-11.8-10.94-17.35-10-22a7,7,0,1,1,9.57,7.11h0a0,0,0,0,0,0,0c6.73-2.5,10.5-9,8.44-14.5s-9.19-7.86-15.91-5.32a14.78,14.78,0,0,0-6.67,4.91c4.43-12.68,22.53-15.37,22.53-27.17,0-19.77-28.08-14.23-24,0a4.49,4.49,0,0,1,0-.64c.71-8,15.1-9.69,15.1.8,0,9-18.43,13.93-18.43,26,0,12.39,13.61,15.49,13.61,28.52,0,1.55-.82,8.23-9.86,8.23-8.72,0-12.92-4.87-15.3-11.24h0c-4.44-8.58-2.81-22-7.81-27.34l.39-5.51c4.41,2.7,16.1-3.63,8.42-13.28,0,4.75-9.88,4.48-9.88-4.48,0-12.13,11.33-5.8,11.88-3.12-.55-4.42-.76-7.23,0-9.77-6.12,2-6.69-1.56-5.92-2.93.89-1.59,2.07-3.43,4.45-3.43,3.44,0,3.22,1.26,3,3,1.31-2,1.68-3.48,4.74-6.46L187.19,90l1.78.66,1.72-2.77c-1.84-3.82-4.35-2-6.2-6.72-1.54-.4-21.73-2.27-21-11.85-1.79,0-6.65,6.16-3.36,9.46h-4.19c-2.25.26-7.48-1.3-10.84,5.55,8.27-8.27,13.64,11.46-1.59,11.46h0c-2.25,0-4.18-.93-4.31-2.52-1.52,6.66,8.08,8.73,8.08,8.73,0,2-4.81,12.69-7.14,15,1.57,1.57,2.06,11.08-5.22,11.08C137.52,121,129.8,115,122.3,111h0a20.88,20.88,0,0,1-3.85-1.9,80.9,80.9,0,0,0-8.35-3.28v-5.57a22.23,22.23,0,0,0,7.5-6.49,12.57,12.57,0,0,0,2.86-9.16,9.79,9.79,0,0,0-.17-1.21c0-.12,0-.24-.07-.36-.06-.28-.13-.55-.21-.82s-.07-.26-.12-.39c-.09-.28-.19-.54-.29-.8,0-.11-.08-.22-.13-.33-.15-.34-.31-.68-.49-1-.07-.14-.15-.26-.22-.39s-.24-.4-.37-.59l-.32-.46c-.11-.15-.23-.3-.35-.44a6,6,0,0,0-.39-.49l-.28-.3c-.35-.37-.72-.73-1.1-1.06l-.11-.1c-.22-.18-.45-.36-.68-.52l-.18-.14-.75-.5,0,0a14.27,14.27,0,0,0-8.6-2.06,15.72,15.72,0,0,0-2,.32c-4.37,1.67-7.55,6.78-7.55,12.83,0,5.7,2.83,10.57,6.8,12.51l.17,0A14.7,14.7,0,0,1,99.18,100l.23.14.07,0,.25.14a.15.15,0,0,0,.07,0l.38.2s.06,0,.07,0l.4.16.11.05c.34.13.71.26,1.12.38l.16,0,.5.12.18,0c.22,0,.44.08.68.1l0,0a13,13,0,0,0,3.16-.24v3.23a9.17,9.17,0,0,1-3.16-1.36l-.24,0c-2.46.4-4.07,1.16-4.79,3.36s0,3,1.17,4.55c-1,1.74-3.53,2.39-.2,6.25-.24,1.46.07,3.78,2.18,4.48a10.89,10.89,0,0,0,1.88.46,3.37,3.37,0,0,1,3.16,3.66v24.83c1.14.07,2.38.23,3.5.32V123.76a31.47,31.47,0,0,1,8.6,2.21l.12.07h0a8.32,8.32,0,0,1,1.08.23c2.62.81,4.25,3.08,3.64,5.09s-3.24,3-5.85,2.18c3.1,6,13.87,3,16.22-1.8,1.14-.11,2.16,2,3.12,3.88,0,0,2.69,1,9.38,1,0,0-27,17.26-34.88,17.26-3.34,0-10.75,0-10.75,2.53-2,0-5,3.47-5,5.44a6.3,6.3,0,0,1,3.5-1.5,5.93,5.93,0,0,1,2.57.49c-.61.6-3.31,3.64-3.31,6,2.26-2.27,3.25-2.26,3.25-2.26s2.36-.3,3.2.54a8.36,8.36,0,0,0-1.56,5s1.4-2.71,3.16-2.71v26c0,.79-3.59,1.55-5.06,1.55m1.1-75.27c-.67,0-1-.84-1-1.16s.23-1.2.9-1.22c1.58-.06,4.75.7,4.76,1S104.23,119.68,102.65,119.74Zm-1-4.29c-.92-.06-1.23-1.3-1.2-1.74s.52-1.62,1.44-1.55c2.19.17,6.44,1.69,6.4,2.13S103.82,115.61,101.63,115.45Zm-.38-5.49c-1-.25-1-1.65-.94-2.11s.88-1.63,1.85-1.38c2.32.61,6.59,3.1,6.46,3.56s-5.05.54-7.37-.07Zm7.18-15.47A6.28,6.28,0,0,0,108.5,91h-.13a5.06,5.06,0,0,1-5.05-5,3.15,3.15,0,0,1,.19-1.37h0s0,0,0,0a5.05,5.05,0,0,1,9.91,1.39c0,3.22-2.27,6.18-5,8.55Z"/><path id="path3469" class="cls-5" d="M184.23,98.9a7.06,7.06,0,0,0,13.1-4.27l-.06-.41c-.41,2-2.79,3.71-5.8,4a7.2,7.2,0,0,1-5.57-1.59l-1.67,2.28"/><path id="path3471" class="cls-3" d="M174.8,85.81l2.43.12L176,87.61s-1.62.51-1.21-1.8m-5.82,0h3.51s-.13,2.83,2.44,3.09l-.54.9S167.49,88,169,85.81Z"/><path id="path3473" class="cls-6" d="M108.62,110c.13-.45-4.14-3-6.46-3.56-1-.25-1.72.93-1.85,1.38s0,1.86.94,2.11c2.32.61,7.26.53,7.37.07m-.34,4.26c0-.44-4.22-2-6.41-2.13-.92-.07-1.41,1.12-1.43,1.55s.27,1.68,1.19,1.74C103.82,115.62,108.25,114.73,108.28,114.29Zm-4.83-12.83v1.63a9.16,9.16,0,0,0,3.15,1.35v-3.22A12.78,12.78,0,0,1,103.45,101.46Zm-.89,15.9c-.67,0-.92.91-.9,1.22s.32,1.18,1,1.16c1.58-.06,4.69-1.06,4.67-1.37S104.14,117.3,102.56,117.36Zm-3.26,43a5.85,5.85,0,0,0-.74,6.5c0-2.37,2.7-5.42,3.3-6A5.86,5.86,0,0,0,99.3,160.38Zm8.36,7.21a4.71,4.71,0,0,0,2.45,5.07,4.77,4.77,0,0,0,1.23.45c.19,0,.37.06.55.08h.24s-2.65-2.49-1.59-4.84a5.22,5.22,0,0,0-2.88-.77Zm-4.8-69.34c-4-1.94-6.8-6.81-6.8-12.51,0-6,3.18-11.16,7.55-12.83a13,13,0,0,0-.75,25.34Zm42.21-14a4.63,4.63,0,0,1,5.65,4.3c0,5.09-4,7.14-7.24,7.16h0c15.23,0,9.86-19.73,1.59-11.46Zm-10.18,43.77c7.28,0,6.79-9.51,5.22-11.08,2.33-2.33,7.14-13,7.14-15,0,0-9.61-2.07-8.08-8.74h0l-.13,0c-2.62,2.77-1,8.53,3.13,10,0,0-1.6,6.33-5.56,10.35A46.26,46.26,0,0,1,122.3,111c7.49,4,15.22,10,12.59,17.09ZM106.45,82.41a3.38,3.38,0,0,1,3.7,3A3.31,3.31,0,0,1,107,88.92a3.38,3.38,0,0,1-3.7-3,5.06,5.06,0,0,0,5.05,5h.13a6.28,6.28,0,0,1-.07,3.51c2.73-2.37,5-5.33,5-8.55a5,5,0,0,0-9.91-1.37,3.44,3.44,0,0,1,2.94-2.16Zm53.65-3.67c-3.29-3.3,1.57-9.46,3.36-9.46-2,0-10.43,5.55-7.56,9.46Zm-42.41,54.79c2.61.8,5.23-.18,5.85-2.18s-1-4.28-3.64-5.09a6.94,6.94,0,0,0-1.08-.23C122.59,128.19,122.55,132.51,117.69,133.53Zm-7.58-27.74a81.93,81.93,0,0,1,8.35,3.28,15.94,15.94,0,0,1-2.57-1.95,18.45,18.45,0,0,0-5.78-4v2.69Zm1.42,48.12c7.83,0,34.87-17.27,34.87-17.27-6.68,0-9.37-1-9.37-1-1.51.79-4.61,2.34-11.21,6.23-5.36,3.16-9,7.15-13.86,8.9a4.51,4.51,0,0,1-1.85.3c-1.12-.1-2.36-.25-3.51-.32V125.88a3.36,3.36,0,0,0-3.15-3.65v28.91A7.76,7.76,0,0,0,99.72,155s-4-.54-3.92,6.92c0-2,2.94-5.44,5-5.44C100.78,153.91,108.19,153.91,111.53,153.91Zm67.47,40c-2,0-11.07.38-11.89-7.54a19.72,19.72,0,0,0-6.82-.16c6.43,12.26,13.41,12.36,15.24,12.46,2.84,3.17,1.88,13.87-2.22,13.65-15-.8-14.48,8.34-12.79,10.21,0-6.89,4.68-8.52,16.52-8.52C177,214,186.72,201.61,179,193.9Zm3.09,29.6h-2c-.17,3.28,3.08,4.25,3.08,4.25C182.09,226.71,181.33,224.27,182.09,223.5Zm-19,4.62c-.87-.86-1.58-4.33-.32-5.6h-2.24A6.93,6.93,0,0,0,163.08,228.12ZM207.93,114c0-10.49-14.39-8.84-15.1-.78.64-5.91,10.25-6.78,10.25.62,0,7.64-17.93,12.65-17.93,25.57,0,14.24,14.24,15.56,12.79,28.57a6.32,6.32,0,0,1-6.15,5.2c-7.49,0-11.5-3.18-13.83-7.68,2.38,6.37,6.57,11.25,15.3,11.25,9,0,9.86-6.69,9.86-8.24,0-13-13.61-16.13-13.61-28.52,0-12.06,18.42-17,18.42-26ZM101.81,164.62c0,4,1.64,5.58,1.64,5.58a8.29,8.29,0,0,1,1.56-5C104.17,164.32,101.81,164.62,101.81,164.62Zm104-22.21a7,7,0,0,0-7,6.36,4.34,4.34,0,0,1,1.85-2.52c4.19-3.11,12.39,3.16,7.71,9.63a7,7,0,0,0-2.6-13.47Zm-32,81.09h-2.44c-.24,4.64,2.73,5.34,2.73,5.34C172.81,227.58,172.59,224.69,173.78,223.5Zm-68.93-24.75a2.86,2.86,0,0,0-1.06.2,4.57,4.57,0,0,0-1.83,3.76,3,3,0,1,0,2.89-4ZM122,221.28h-3.52c0,5.66,3.62,6.68,3.62,6.68C121.06,226.92,119.75,223.52,122,221.28Zm10.94-35.75c0-12.93,31-14.44,31-25.1a6.32,6.32,0,0,0-6.41-6.29c.75.75,4.78,9.41-6.78,9.41-10.46,3.5-33.24,23.3-17.43,30.16,0,2-.28,16.81-9.77,15.65-13.68-1.7-17.09,4-14.47,10.32,0-9.65,6.78-7.86,15.64-7.86,5.54,0,13.63-7,13.63-18.79C138.31,193,132.93,191,132.93,185.53Zm-26.32,7.93v-26c-1.76,0-3.16,2.71-3.16,2.71v22h-1.92l0,2.79c1.47,0,5.06-.76,5.06-1.55Zm5.33,33.46s-2.74-4.31.19-7.24H109C107.8,225.05,111.94,226.92,111.94,226.92ZM131,221.34h-2.56c0,4,4.61,5.5,4.61,5.5C131.45,225.21,130.33,222,131,221.34Z"/><path id="path3477" class="cls-3" d="M44.92,178.23l-.18-.52-.07-.55c-.25-1.86-.7-5.34-3.38-6a3.68,3.68,0,0,0-2.26.24,3.61,3.61,0,0,0-.07-2.26c-1-2.57-4.49-2.54-6.37-2.52H32l-.54-.1c-1.85-.34-5.3-1-6.72,1.38a3.58,3.58,0,0,0-.46,2.21,3.61,3.61,0,0,0-2.17-.63c-2.76.15-3.81,3.49-4.37,5.29l-.18.52-.25.49c-.91,1.66-2.58,4.73-.77,6.81a3.59,3.59,0,0,0,2,1.13,3.58,3.58,0,0,0-1.26,1.87c-.72,2.66,2.13,4.7,3.67,5.78l.44.34.39.39c1.3,1.37,3.71,3.91,6.24,2.83a3.68,3.68,0,0,0,1.68-1.51,3.65,3.65,0,0,0,1.39,1.78c2.31,1.5,5.12-.59,6.64-1.7l.44-.33.5-.24c1.7-.81,4.87-2.32,4.63-5.06a3.62,3.62,0,0,0-.92-2.07,3.6,3.6,0,0,0,2.12-.76c2.14-1.74,1-5.06.43-6.85"/><path id="path3479" class="cls-5" d="M32.84,180.46c15.42,9.11,10.67-.91,10.33-2.39s-.47-12.56-10.33,2.39"/><path id="path3481" class="cls-5" d="M31.87,182.74c-3.9,17.47,4.16,9.87,5.47,9.09s11.8-4.33-5.47-9.09"/><path id="path3483" class="cls-5" d="M29.4,182.53c-17.83,1.68-8.1,7-7,8s7.77,9.88,7-8"/><path id="path3485" class="cls-5" d="M28.84,180.1c-7.12-16.43-9.17-5.53-9.76-4.13s-7,10.43,9.76,4.13"/><path id="path3487" class="cls-3" d="M283.5,175.82l-.25-.49-.18-.52c-.56-1.8-1.62-5.14-4.36-5.29a3.69,3.69,0,0,0-2.18.63,3.65,3.65,0,0,0-.46-2.21c-1.42-2.36-4.87-1.72-6.72-1.38l-.55.1h-.55c-1.88,0-5.38,0-6.37,2.52a3.61,3.61,0,0,0-.08,2.26,3.6,3.6,0,0,0-2.24-.24c-2.69.62-3.15,4.1-3.38,6l-.09.55-.16.52c-.61,1.79-1.72,5.11.43,6.85a3.59,3.59,0,0,0,2.12.77,3.58,3.58,0,0,0-.93,2.06c-.23,2.74,2.93,4.25,4.63,5.06l.49.24.45.33c1.52,1.12,4.34,3.2,6.64,1.71a3.67,3.67,0,0,0,1.39-1.79,3.64,3.64,0,0,0,1.68,1.52c2.53,1.07,4.95-1.47,6.24-2.84l.39-.39.44-.33c1.54-1.09,4.4-3.13,3.68-5.78a3.59,3.59,0,0,0-1.27-1.88,3.59,3.59,0,0,0,2-1.13c1.81-2.08.14-5.15-.77-6.81"/><path id="path3489" class="cls-5" d="M269.87,178.83c-13.43-11.85-2.43-10.43-.92-10.56s12.09-3.44.92,10.56"/><path id="path3491" class="cls-5" d="M268,180.46c-15.42,9.11-10.68-.91-10.33-2.39s.46-12.56,10.33,2.39"/><path id="path3493" class="cls-5" d="M269,182.74c3.9,17.47-4.16,9.87-5.47,9.09s-11.79-4.33,5.47-9.09"/><path id="path3495" class="cls-5" d="M271.44,182.53c17.83,1.68,8.1,7,7,8s-7.77,9.88-7-8"/><path id="path3497" class="cls-5" d="M272,180.1c7.12-16.43,9.17-5.53,9.77-4.13s7,10.43-9.77,4.13"/><path id="path3499" class="cls-3" d="M275.46,180.62c0-.15-.06-.27-.08-.41l3-2.18-.14-.33-3.54.61a5.34,5.34,0,0,0-4-2.55c-.54-1.62-1.08-3.27-1.08-3.27l-.36,0s-.25,1.72-.49,3.4a5.29,5.29,0,0,0-2.69,1.72,5.65,5.65,0,0,0-.87,1.5h-3.59l-.07.36,3.3,1.61c0,.15,0,.29,0,.44a5.3,5.3,0,0,0,1.83,3.56c-.56,1.74-1.18,3.69-1.18,3.69l.3.19,2.74-2.82a5.39,5.39,0,0,0,4.16-.36l3.18,2.29.27-.23-1.8-3.42a5.39,5.39,0,0,0,1.18-3.84"/><path id="path3501" class="cls-5" d="M269.84,177.93a3.14,3.14,0,0,0-2.15,1.12,3.17,3.17,0,0,0,2.7,5.19,3.17,3.17,0,0,0,2.89-3.43,3.19,3.19,0,0,0-3.44-2.88"/><path id="path3503" class="cls-5" d="M31,178.83c13.43-11.85,2.43-10.43.92-10.56S19.8,164.83,31,178.83"/><path id="path3505" class="cls-3" d="M36.06,181.12l3.3-1.61-.08-.36H35.7a5.65,5.65,0,0,0-.87-1.5,5.29,5.29,0,0,0-2.69-1.72c-.24-1.68-.48-3.4-.48-3.4l-.37,0-1.07,3.27a5.33,5.33,0,0,0-4,2.55l-3.54-.61-.14.33,3,2.18c0,.14-.06.26-.08.41a5.34,5.34,0,0,0,1.19,3.84c-.86,1.61-1.81,3.42-1.81,3.42l.28.23,3.17-2.29a5.35,5.35,0,0,0,2.05.6,5.15,5.15,0,0,0,2.11-.24C33.66,187.5,35.1,189,35.1,189l.32-.19-1.19-3.68a5.34,5.34,0,0,0,1.83-3.58,3.12,3.12,0,0,0,0-.43"/><path id="path3507" class="cls-5" d="M33.15,179.05A3.12,3.12,0,0,0,31,177.93a3.17,3.17,0,1,0,2.15,1.12"/><path id="path3509" class="cls-3" d="M32.93,104.32a13.83,13.83,0,1,0,11.22,16,13.86,13.86,0,0,0-11.22-16"/><path id="path3511" class="cls-5" d="M36.06,114.78l-.58-.38-3.42-2.26-.91-.62c-1-.66-1.87-1.23-2.7-1.71-.32-.19-.63-.36-.94-.51a10.75,10.75,0,0,0-4.09-1.2,12.26,12.26,0,0,0-3,3.05c3.44,1.25,6.8,3.23,13.79,7.58.4-.93,1.73-3.77,1.81-4"/><path id="path3513" class="cls-5" d="M32.84,122.2c.14-.35.76-1.91,1-2.51-7.17-4.45-10.49-6.42-13.94-7.63a11.74,11.74,0,0,0-1.2,3.12c2,2.7,7.24,5.35,14.13,7"/><path id="path3515" class="cls-5" d="M32.06,110.89c2.69-1.59,5.74-1.16,8.09-.35a12.06,12.06,0,0,0-3.18-2.9c-2.22-.44-5.29-.51-7.73,1.43.89.52,1.8,1.13,2.82,1.82"/><path id="path3517" class="cls-5" d="M21.36,123.71c.36.24.73.48,1.12.7A18.15,18.15,0,0,0,25,125.54c.37.14.75.28,1.14.4,1.34.44,4.42,1.24,4.65,1.3l1.65-4.07c-5.35-1.32-11.2-3.64-14-6.65a11.78,11.78,0,0,0,.19,4.07,7.79,7.79,0,0,0,2.69,3.12"/><path id="path3519" class="cls-5" d="M31,128.35l-1.11-.28c-1-.27-2.15-.56-3.29-.91A7.71,7.71,0,0,0,28.94,130a12.1,12.1,0,0,0,3.66-.07A13.75,13.75,0,0,1,31,128.35"/><path id="path3521" class="cls-5" d="M42.16,114.42a12.6,12.6,0,0,0-1-2.39c-2.11-.93-5.31-1.85-8.11-.48l3.86,2.55a21.83,21.83,0,0,1,2.22-.08q.56,0,1.05.06a12.82,12.82,0,0,1,2,.34"/><path id="path3523" class="cls-5" d="M40.18,115.12a22.94,22.94,0,0,1-5.69,14.31,12.1,12.1,0,0,0,8-13.86,12,12,0,0,0-2.27-.45"/><path id="path3525" class="cls-5" d="M28.27,108.53a9,9,0,0,1,5.92-2.17,11.2,11.2,0,0,0-1.54-.39,12.08,12.08,0,0,0-7.89,1.29,13,13,0,0,1,3.51,1.27"/><path id="path3527" class="cls-5" d="M37.05,115.13c-.92,1.91-1.46,3.09-1.91,4.15l-.41,1-.87,2.2-.4,1-1.7,4.22a7,7,0,0,0,1.6,1.53,22.1,22.1,0,0,0,5.78-14.11,17,17,0,0,0-2.09.07"/><path id="path3529" class="cls-5" d="M25.3,126.74a21.82,21.82,0,0,1-2.5-1A11.36,11.36,0,0,0,24,128.17a11.91,11.91,0,0,0,3,1.38,7.75,7.75,0,0,1-1.64-2.81"/><path id="path3531" class="cls-5" d="M21.54,125a12.42,12.42,0,0,1-1.61-1.16,12.17,12.17,0,0,0,2.1,2.74,10,10,0,0,1-.49-1.58"/><path id="path3533" class="cls-3" d="M255.19,120.34a13.83,13.83,0,1,0,11.22-16,13.84,13.84,0,0,0-11.22,16"/><path id="path3535" class="cls-5" d="M263.28,114.78l.59-.38,3.41-2.26.91-.62c1-.66,1.87-1.23,2.7-1.71.32-.19.64-.36.94-.51a10.81,10.81,0,0,1,4.09-1.2,12.09,12.09,0,0,1,3,3.05c-3.44,1.25-6.79,3.23-13.79,7.58-.4-.93-1.73-3.77-1.81-4"/><path id="path3537" class="cls-5" d="M266.5,122.2l-1-2.51c7.15-4.45,10.49-6.42,13.93-7.63a11.74,11.74,0,0,1,1.2,3.12c-2,2.7-7.24,5.35-14.13,7"/><path id="path3539" class="cls-5" d="M267.28,110.89c-2.69-1.59-5.73-1.16-8.09-.35a12.22,12.22,0,0,1,3.18-2.9c2.22-.44,5.29-.51,7.73,1.43-.88.52-1.81,1.13-2.82,1.82"/><path id="path3541" class="cls-5" d="M278,123.71c-.36.24-.72.48-1.12.7a18.56,18.56,0,0,1-2.52,1.13c-.38.14-.76.28-1.15.4-1.33.44-4.42,1.24-4.65,1.3-.05-.12-1.21-3-1.64-4.07,5.34-1.32,11.18-3.64,14-6.65a12,12,0,0,1-.2,4.07,7.71,7.71,0,0,1-2.69,3.12"/><path id="path3543" class="cls-5" d="M268.36,128.35l1.11-.28c1-.27,2.16-.56,3.3-.91a7.8,7.8,0,0,1-2.36,2.82,12.09,12.09,0,0,1-3.66-.07,14.16,14.16,0,0,0,1.61-1.56"/><path id="path3545" class="cls-5" d="M257.19,114.42a11.43,11.43,0,0,1,1-2.39c2.1-.93,5.3-1.85,8.1-.48l-3.86,2.55a22,22,0,0,0-2.23-.08c-.36,0-.71,0-1,.06a12.48,12.48,0,0,0-2,.34"/><path id="path3547" class="cls-5" d="M259.16,115.12a23,23,0,0,0,5.7,14.31,12.12,12.12,0,0,1-8-9.37,11.87,11.87,0,0,1,.06-4.49,11.85,11.85,0,0,1,2.26-.45"/><path id="path3549" class="cls-5" d="M271.07,108.53a9,9,0,0,0-5.91-2.17,10.84,10.84,0,0,1,1.54-.39,12.06,12.06,0,0,1,7.88,1.29,13.1,13.1,0,0,0-3.51,1.27"/><path id="path3551" class="cls-5" d="M262.3,115.13c.92,1.91,1.45,3.09,1.91,4.15.13.32.26.64.4,1,.22.54.87,2.2.87,2.2l.4,1,1.71,4.22a7,7,0,0,1-1.61,1.53,22.1,22.1,0,0,1-5.78-14.11,17.1,17.1,0,0,1,2.1.07"/><path id="path3553" class="cls-5" d="M274,126.74a22,22,0,0,0,2.51-1,11.37,11.37,0,0,1-1.17,2.45,12,12,0,0,1-3,1.38,7.73,7.73,0,0,0,1.63-2.81"/><path id="path3555" class="cls-5" d="M277.8,125a12.42,12.42,0,0,0,1.61-1.16,12.13,12.13,0,0,1-2.09,2.74,11.16,11.16,0,0,0,.48-1.58"/></g></g></svg>