<svg xmlns="http://www.w3.org/2000/svg" viewBox="0 0 300.15 293.54"><defs><style>.cls-1{fill:#ffd500;}.cls-2{fill:#172983;}.cls-3{fill:#006ab2;}</style></defs><title>Chievo</title><g id="Слой_2" data-name="Слой 2"><g id="Слой_1-2" data-name="Слой 1"><path class="cls-1" d="M150.08,293.54c89.88-36.75,120.3-91.28,120.3-91.28,37.12-58,29-202.1,29-202.1S232.61,27.61,150.08,0C67.54,27.61.75.16.75.16s-8.1,144.05,29,202.1c0,0,30.43,54.53,120.31,91.28"/><path class="cls-2" d="M43.52,17.86a227.42,227.42,0,0,1-33.09-6.65l-2.6-.75c-.17,5.64-.32,13.43-.32,22.75,0,45.35,3.75,126.22,28.56,165l.22.37c.07.13,7.61,13.31,25.66,30.66,16.32,15.67,44.77,38,88.13,56.16,43.35-18.18,71.8-40.49,88.12-56.16,18.05-17.35,25.59-30.53,25.66-30.66l.22-.37c24.81-38.8,28.56-119.67,28.56-165,0-9.32-.15-17.11-.32-22.75a222.93,222.93,0,0,1-35.69,7.4,248,248,0,0,1-106.55-10,248,248,0,0,1-106.56,10"/><path class="cls-1" d="M52.09,35.66c-4.84-.68-9.59-1.55-14.26-2.53v.5c0,12.72.27,28.26,1.19,44.8,2.82,51.28,10.64,90.4,22,110.13l.7,1.31-.09-.19c.07.12,6.38,12.07,21.41,27.84,12.78,13.41,34.48,32.2,67,48.35,32.49-16.15,54.2-34.94,67-48.35,15-15.77,21.34-27.72,21.41-27.84l-.1.19.7-1.31c11.36-19.73,19.17-58.84,22-110.13.91-16.54,1.19-32.07,1.19-44.8v-.48A214.78,214.78,0,0,1,150,26.65a216.39,216.39,0,0,1-97.88,9"/><path class="cls-2" d="M131.53,224.72c0-.89,0-1.48-.52-1.48-.28,0-1.7.41-1.74.41a.26.26,0,0,1-.26-.3c0-.22.13-.3.93-.54a22.25,22.25,0,0,0,2.84-1c.52-.27.56-.37.76-.37s.28.19.28.56v10.74c0,1.55.29,2,1.22,2,.67,0,1,0,1,.3s-.35.33-.63.33c-.44,0-1.44-.09-3.18-.09-.94,0-2.14.09-2.33.09s-.5,0-.5-.3.56-.33.82-.33c1.27,0,1.35-.43,1.35-1.83v-8.17"/><path class="cls-2" d="M141.07,236.11a15.5,15.5,0,0,1-2.81,1.11c-.23,0-.28-.15-.28-.24s.09-.24.33-.32c2.54-.94,7.46-4.25,7.46-9.56,0-2.94-1.52-5.06-3.22-5.06s-2.46,2.12-2.46,3.62c0,2.42,1.48,3.86,2.83,3.86a2.72,2.72,0,0,0,1.16-.31.64.64,0,0,1,.24-.06.2.2,0,0,1,.19.21c0,.3-1.13,1-2.52,1a4.08,4.08,0,0,1-4.12-4.16,4.8,4.8,0,0,1,5-4.68c3.64,0,5.23,3.29,5.23,5.73,0,4.88-4.31,7.58-7,8.86"/><path class="cls-2" d="M159,234.76c0,.22,0,.5-.54.5h-8.23c-.2,0-.46,0-.46-.28s.3-.63,2-2.53c3.59-4,4.64-5.29,4.64-7.21a2.56,2.56,0,0,0-2.68-2.79,3.8,3.8,0,0,0-3,1.66c-.39.57-.5.68-.67.68a.26.26,0,0,1-.24-.27,4.88,4.88,0,0,1,4.79-3c2.22,0,4.44,1.14,4.44,3.33a5.53,5.53,0,0,1-2.09,3.84l-3.35,2.83a7,7,0,0,0-1.48,1.5c0,.2.15.22.61.22H157c1.05,0,1.22-.33,1.39-1,.09-.26.15-.39.35-.39s.26.33.26.48v2.41"/><path class="cls-2" d="M164.16,236.11a15.55,15.55,0,0,1-2.82,1.11c-.23,0-.28-.15-.28-.24s.09-.24.33-.32c2.55-.94,7.47-4.25,7.47-9.56,0-2.94-1.53-5.06-3.22-5.06s-2.46,2.12-2.46,3.62c0,2.42,1.47,3.86,2.83,3.86a2.67,2.67,0,0,0,1.15-.31.7.7,0,0,1,.24-.06.2.2,0,0,1,.19.21c0,.3-1.13,1-2.52,1A4.09,4.09,0,0,1,161,226.2a4.81,4.81,0,0,1,5-4.68c3.64,0,5.23,3.29,5.23,5.73,0,4.88-4.31,7.58-7,8.86"/><path class="cls-2" d="M69.38,72.44l-.86-.65-.6.11a12.16,12.16,0,0,1-4.21,4V50.58a2,2,0,0,0,.49-.32c.25-.21.53-.52,1.14-1.16l2.94-3.05,0-.55-.72-1-.62,0-1.4,1.28a2.35,2.35,0,0,1-1.31.7c-.59,0-1.38-.69-2.22-2.5l-.69-.1L49.86,56.57v.57l.82.86h.62l2.16-2.41v14.9l-1.2,1.38,0,.56.81.86h.62l4.14-4.56.11-.28v-18L59,49.4a4.83,4.83,0,0,0,2.8,1.28V76.43a10.07,10.07,0,0,1-1.47.11c-6.76,0-11-5.54-11.06-14.81A22.82,22.82,0,0,1,52.21,50.1a41.3,41.3,0,0,1,3.45-4.61V45l-.87-1.08-.63,0a54,54,0,0,0-5.78,6.8,22.57,22.57,0,0,0-4,13C44.4,68.72,45.7,73,48,76a11.82,11.82,0,0,0,9.64,4.82h0c4.89,0,9-2.81,11.83-7.89Z"/><path class="cls-2" d="M83,76.15v-12l2.43-2.29,0-.57-.77-.91-.6,0-1.24,1.16-2.27-2.53-.6,0L74.57,64V51.92c0-3,.14-3.4,1.56-5.38L76.05,46l-.77-.59-.56,0A12,12,0,0,0,72.22,49c-.1-.6-.22-1.12-.41-1.94l-.54-.31-1,.33-.29.45a19,19,0,0,1,.39,4V75.06l-2.48,2.4-.05.55.73,1,.63,0,1.19-1.19,2.41,2.57.59,0,3.91-3.69,0-.57-.78-1-.61,0-.71.68-.71-.76V66.84L78,63.5l.79.82V77c0,.07.11,2.77,1.67,3.78l.51-.06,3.41-3.38-.12-.68A6.79,6.79,0,0,0,83,76.15Z"/><polygon class="cls-2" points="86.89 55.01 87.6 54.33 90.01 56.82 90.61 56.83 94.37 53.13 94.41 52.59 93.69 51.62 93.06 51.56 92.4 52.19 90.03 49.75 89.44 49.74 85.58 53.5 85.55 54.06 86.27 54.97 86.89 55.01"/><path class="cls-2" d="M94.17,74.73l-1,.94c-.49-.55-.68-1.26-.69-2.9V64.16L94.8,62l0-.55-.73-1-.62-.05-1.15,1.1L89.94,59h-.59L85,63.25l0,.57.77.92.61,0,1.19-1.16.8.86v10c0,2.75.71,4.73,2.27,6.06l.56,0,4.35-4.18,0-.56-.77-1Z"/><path class="cls-2" d="M105.37,59c-2.78,2.59-4.56,3.31-7.92,3.32h-.72l-.42.42V64l.37.42c.49,0,.86.1,1.11.11s.42,0,.64,0V75.12l-2.19,2.3,0,.54.72,1,.64,0,.9-.92,3.48,2.47h.49l7.09-5.26.11-.55-.63-1-.6-.12-4,3-1.78-1.16V72.78l8.37-6.1.09-.59-5.06-7ZM102.6,70.33v-6.7l.78-.32,3,4.17Z"/><path class="cls-2" d="M127.22,60.58l-1.33,1.3-2.56-2.79h-.6L118.82,63l0,.56.72.91.62,0,.8-.77L122,65V75.36a10.45,10.45,0,0,0-2.72,1.09L117.65,75V60.61l-.42-.42a8.4,8.4,0,0,1-1.39-.11,2.42,2.42,0,0,1-2.19-2.26c0-.88.44-1.46,1.79-2.15l.22-.49L115.32,54l-.54-.27a6.15,6.15,0,0,0-4,5.91,5,5,0,0,0,2.7,4.64V75l-2.29,2.23,0,.56.77,1,.63,0,1-1.11,3.41,2.8.59,0c2-2.42,4.57-3.43,8.22-3.44H127l.42-.42V75.35l-.34-.41a3.38,3.38,0,0,0-.76-.06h-.11V64.37l2.34-2.29,0-.57-.77-.91Z"/><path class="cls-2" d="M144.73,60.36l-1.23,1.18L140.41,59l-.55,0c-2.72,2.62-4.68,3.35-8.39,3.36h-1.06l-.42.42V64l.42.42h.78V75.22L129,77.36l0,.56.77,1,.62,0,1.08-1.07,3.23,2.66h.54c3.42-2.86,4.87-3.36,8.94-3.39h.44l.41-.41V75.45l-.41-.41h-.74v-11l2.24-2.18,0-.57-.77-.91Zm-5,4.09v11a8.15,8.15,0,0,0-2.19.84l-2.13-1.73V64.15a11,11,0,0,0,2.67-1Z"/><path class="cls-2" d="M173.81,46.92l-1.38,1-3.65-4.06-.57,0-6.56,5.25V44.79l-.42-.41h-1.11l-.42.41V50.6l-1.34,1.13a11.15,11.15,0,0,0-.55-3.66c-.82-2.47-2.87-4.32-4.92-4.34a5,5,0,0,0-4.16,2.71,16,16,0,0,0-2.1,6.83l.31.45,1,.27.52-.36c.27-2.57,1.74-4.26,3.25-4.24a1.9,1.9,0,0,1,1.46.76c.54.62.72,1.19.73,2.9v6.28a5,5,0,0,0-2,.36c-1.47.58-2.37,2.35-2.38,4.35a10.92,10.92,0,0,0,.6,3.49l.57.26,1.07-.48.22-.52a3,3,0,0,1-.22-1.2,2.5,2.5,0,0,1,.45-1.5,1.22,1.22,0,0,1,1-.54.93.93,0,0,1,.74.3V74.28a9.94,9.94,0,0,0-7.53,9.59c0,4.57,3,8.13,7.29,8.4l.44-.42V90.68l-.4-.42c-2.73-.08-5.1-2.74-5.1-5.75s2.63-5.42,6.1-5.42a8.41,8.41,0,0,1,5.51,2.14l.6,0A13.43,13.43,0,0,1,171,76.68a8.22,8.22,0,0,1,2.22.25l.5-.29.37-1.34-.3-.52a10.15,10.15,0,0,0-1.8-.31V51L175,48.6l.09-.54-.63-1Zm-14.11,6.4V74.58a8.3,8.3,0,0,0-1.33-.37V54.38Zm2,5.11a8.29,8.29,0,0,0,3.06.56,8.84,8.84,0,0,0,2.95-.57v7.94a9.56,9.56,0,0,0-3.15-.6,7.57,7.57,0,0,0-2.86.55Zm4.12-10,1.89,2.16v5.64a6.62,6.62,0,0,1-3,.75,5.27,5.27,0,0,1-3-.73v-4.5Zm-4.12,20.16a5.77,5.77,0,0,1,3.06-.75,6.24,6.24,0,0,1,2.95.75v6.27a12.52,12.52,0,0,0-4.24,1.65,12.75,12.75,0,0,0-1.77-1.08Z"/><path class="cls-2" d="M187.52,73.56l-4,3-1.78-1.16V72.77l8.37-6.09.1-.59-5.08-7-.62-.06c-2.78,2.58-4.56,3.31-7.91,3.32h-.73l-.41.42V64l.37.42c.48,0,.85.1,1.1.1h.65V75.12l-2.2,2.29,0,.55.72,1,.63,0,.91-.92,3.47,2.47h.49l7.09-5.26.11-.55-.63-1Zm-5.8-3.23v-6.7l.78-.32,3,4.17Z"/><path class="cls-2" d="M203.61,61.78,202.7,61l-.62.1-.48.75a1.18,1.18,0,0,1-.31.34c-.08.06-.11.05-.11.06s-.12,0-.4-.3a14.09,14.09,0,0,1-1.23-1.67l-.43-.58-.38-.63-.7,0-2.28,3.35A9.85,9.85,0,0,0,194,59.07l-.63-.06-4.49,4.24,0,.56.77,1,.62,0,1-.94a4.93,4.93,0,0,1,.65,3.1v8.09l-2.29,2.29,0,.56.77,1,.63,0,1-1.11,3.41,2.71h.52l4.87-3.81.1-.54-.62-1-.61-.11-1.82,1.41L196,75V65.72l.86-1.25a3.76,3.76,0,0,0,2.86,1.65A2.84,2.84,0,0,0,202,64.75l1.73-2.4Z"/><path class="cls-2" d="M219.17,60.36l-1.23,1.18L214.86,59l-.56,0c-2.72,2.62-4.69,3.35-8.39,3.36h-1.07l-.42.42V64l.42.42h.8V75.22l-2.2,2.14,0,.56.77,1,.62,0,1.08-1.07,3.23,2.65h.54c3.42-2.86,4.87-3.36,8.94-3.39H219l.42-.41V75.45L219,75h-.75v-11l2.24-2.18,0-.57-.77-.91Zm-5,4.09v11a8.15,8.15,0,0,0-2.19.84l-2.13-1.73V64.15a11.19,11.19,0,0,0,2.66-1Z"/><path class="cls-2" d="M237.94,74.78l-.95.94a6.16,6.16,0,0,1-.52-3V64.06l2.38-2.18.05-.56-.72-1-.62-.06-1.2,1.11L234,59h-.59L228,64.3c-.1-2.67-.57-3.88-2-5.28h-.58L221,63.14l-.05.56.72,1,.63,0,1-1a7.09,7.09,0,0,1,.52,3v8.51l-2.38,2.23-.05.56.73,1,.61,0L224,77.87l2.37,2.58.6,0,3.86-3.75,0-.56-.73-.91-.61,0-.94.84-.63-.69V67.11l3.59-3.51.74.72v10c0,2.84.62,4.62,2.1,6.13H235l4.29-4.13,0-.56-.76-1Z"/><path class="cls-2" d="M255.08,74.9l-.63-.08-1,.89a6.28,6.28,0,0,1-.59-3.1V64.27l2.36-2.12.06-.56-.72-1-.61-.07-1.28,1.12L250.31,59l-.67.06a9.32,9.32,0,0,1-4.44,4.09,2.5,2.5,0,1,0-4.4-1.41c0,1,.42,1.93,1.55,3.27l2.06,2.55-1.7,1.72c-2.34,2.42-3.22,4-3.21,6,0,2.68,1.51,4.54,4.5,5.28l.4-.1,4.41-4.28a8,8,0,0,0,1.77,4.24l.61,0,4.49-4,.07-.54Zm-9.4-5.72.95,1.18.62,0,.83-.8,0-.56-2.9-3.6a8.8,8.8,0,0,0,2.87-1.54l.64.64v8.93l-2.92,2.79a3.53,3.53,0,0,1-2.76-3.1,5.16,5.16,0,0,1,1.71-3Z"/><path class="cls-3" d="M63.43,76.92l-.55-.39V50.31l.24-.38a1.84,1.84,0,0,0,.54-.3c.18-.15.47-.46,1.07-1.1l2.7-2.81-.23-.31-1.08,1a3,3,0,0,1-1.86.91c-1.11,0-1.91-.91-2.7-2.42l-10.82,12,.25.25,2.59-2.88.73.27V70.63l-.1.28-1.05,1.21.24.25,3.74-4.1v-18l.12-.29,1.44-1.5h.59a4.26,4.26,0,0,0,3,1.39l.37.41V76.79l-.36.42a13,13,0,0,1-1.94.17,10.55,10.55,0,0,1-8.72-4.27c-2.06-2.73-3.18-6.62-3.19-11.38a23.66,23.66,0,0,1,3.06-12.07,40,40,0,0,1,3.29-4.44l-.36-.44a50.52,50.52,0,0,0-5.37,6.37,21.72,21.72,0,0,0-3.83,12.51c0,9.85,5,16.36,12.41,16.36,4.46,0,8.24-2.45,10.94-7.13l-.22-.17A11.64,11.64,0,0,1,63.43,76.92Z"/><path class="cls-3" d="M82.13,76.47V63.93l.13-.3,2.27-2.14-.23-.28-1.23,1.15-.59,0-2.27-2.52L74.44,65.3l-.71-.3V51.92c0-2.77.22-3.77,1.48-5.54l-.14-.12a11,11,0,0,0-2.64,4.56l-.81-.08a25.87,25.87,0,0,0-.52-3.05l-.2.07a17.24,17.24,0,0,1,.34,3.73V75.24l-.13.3L68.77,77.8l.22.29,1.15-1.16h.6l2.42,2.58,3.32-3.14-.25-.31-.68.65H75l-1.11-1.19-.12-.28V66.66l.13-.3,3.86-3.75h.59l1.21,1.23.12.3V77a9.44,9.44,0,0,0,.25,1.35,3.65,3.65,0,0,0,.77,1.55l2.72-2.71a4.13,4.13,0,0,0-.92-.3Z"/><path class="cls-3" d="M93.5,76.56l-.56,0c-.94-.79-1.27-1.86-1.26-3.81V64l.13-.3,2.14-2-.21-.29-1.11,1.07-.59,0-2.41-2.48-3.76,3.67.23.27,1.17-1.13h.6L89.08,64l.11.29V74.43c0,2.44.56,4,1.7,5.17L94.67,76l-.24-.3Z"/><polygon class="cls-3" points="87.32 53.44 87.91 53.45 90.32 55.94 93.52 52.79 93.3 52.49 92.68 53.08 92.09 53.07 89.73 50.64 86.44 53.83 86.64 54.09 87.32 53.44"/><path class="cls-3" d="M97.45,63.17h-.3v.44a6.39,6.39,0,0,0,.64.06,7.53,7.53,0,0,0,1-.05l.46.42V75.29l-.12.29-2.07,2.16.22.29.82-.83.54,0,3.52,2.5,6.54-4.84-.19-.3-3.88,2.89h-.48L102,76l-.18-.35v-3l.17-.34,8.19-6-4.54-6.31A10.59,10.59,0,0,1,97.45,63.17Zm9.76,4.74-4.78,3.59-.67-.33V63.34l.28-.4c.56-.2.74-.31,1.35-.53l.48.15,3.42,4.77Z"/><path class="cls-3" d="M126.16,62.78l-.6,0L123,60l-3.33,3.34.2.25.78-.75.6,0,1.5,1.65.1.28V75.67l-.29.4a10.55,10.55,0,0,0-3.11,1.25l-.47,0-2-1.77-.14-.31V61c-.45,0-.76-.07-1.1-.11a3.28,3.28,0,0,1-2.91-3.09,3.09,3.09,0,0,1,2-2.74l-.11-.4a5.37,5.37,0,0,0-3,5,4.23,4.23,0,0,0,2.49,4l.22.37V75.19l-.13.3-2.14,2.09.23.29,1-1,.57,0,3.41,2.79c2.15-2.39,5-3.44,8.58-3.43h.79v-.44h-.26a1.36,1.36,0,0,0-.41,0l-.53-.4V64.19l.12-.29,2.18-2.14-.23-.27Z"/><path class="cls-3" d="M143.82,62.4l-.56,0-3.09-2.55a11.09,11.09,0,0,1-8.7,3.34h-.65v.4h.79L132,64V75.4l-.13.3-2,2,.24.3,1-1,.56,0,3.25,2.68c3.27-2.74,5.2-3.38,9.22-3.36h0v-.4h-.74l-.42-.42V63.87l.13-.3,2.08-2-.23-.27Zm-3.3,13.38-.31.4a8.17,8.17,0,0,0-2.56,1l-.47,0-2.51-2-.15-.32V63.82l.31-.4a11.34,11.34,0,0,0,3-1.15l.45,0,2,1.61.16.33Z"/><path class="cls-3" d="M172.62,48.83l-.56-.06-3.64-4.05-6.92,5.54-.68-.32V45.21h-.28V50.8l-.15.32-2.17,1.82-.69-.32a12.27,12.27,0,0,0-.51-4.27c-.71-2.22-2.62-3.81-4.13-3.78a4.24,4.24,0,0,0-3.46,2.32A14.86,14.86,0,0,0,147.5,53l.21.06c.43-2.56,2-4.48,4-4.5a2.72,2.72,0,0,1,2.1,1c.71.79.93,1.71.92,3.44v6.7l-.42.42a4.84,4.84,0,0,0-2.12.29c-1,.37-1.86,1.82-1.85,3.58a9.22,9.22,0,0,0,.43,2.79l.28-.12a3.55,3.55,0,0,1-.14-1.12c0-1.54.91-2.86,2.25-2.88h0a2,2,0,0,1,1.4.65l.13.3V74.6l-.31.4a9.15,9.15,0,0,0-7.22,8.87c0,4.06,2.44,7.07,6.06,7.53v-.33a6.55,6.55,0,0,1-5.49-6.55c0-3.48,3.07-6.26,6.93-6.27a9.29,9.29,0,0,1,5.75,2.09A14.31,14.31,0,0,1,171,75.84a9.14,9.14,0,0,1,2,.19l.15-.53a8,8,0,0,0-1.62-.22l-.4-.42V50.8l.16-.33,2.8-2.28-.2-.33ZM160.54,75.19l-.58.39a9.12,9.12,0,0,0-2.1-.63l-.33-.41V54.17l.16-.32,2.17-1.72.68.33Zm8,0-.33.41a12,12,0,0,0-4.54,1.76h-.47A12.47,12.47,0,0,0,161,76l-.22-.37V68.33L161,68a6.91,6.91,0,0,1,3.68-1,7.33,7.33,0,0,1,3.56,1l.23.37v6.86Zm0-8.26-.55.4a10.26,10.26,0,0,0-3.44-.73,7,7,0,0,0-3.11.72l-.58-.39V57.82l.57-.39a7.73,7.73,0,0,0,3.32.72,8.76,8.76,0,0,0,3.22-.72l.57.39Zm0-10.45-.23.37a7.54,7.54,0,0,1-3.66.95h-.05a6,6,0,0,1-3.55-1l-.19-.35V51.55l.15-.33,4.58-3.7.58,0,2.27,2.57.1.28v6.06Z"/><path class="cls-3" d="M183.77,77.4h-.48L181.08,76l-.19-.35v-3l.17-.34,8.2-6-4.55-6.31a10.62,10.62,0,0,1-8.13,3.23h-.31v.44a6.39,6.39,0,0,0,.64.06,7.46,7.46,0,0,0,1-.05l.46.42V75.29l-.11.29-2.07,2.16.22.29.81-.83.54,0,3.52,2.5,6.54-4.84-.19-.3Zm-2.88-14.06.27-.4c.56-.2.75-.31,1.35-.53l.48.15,3.43,4.77-.09.58-4.77,3.59-.67-.34V63.34Z"/><path class="cls-3" d="M201.18,63.12a1.47,1.47,0,0,1-1-.57,16.46,16.46,0,0,1-1.31-1.75l-.43-.59,0,0,0-.09-2.48,3.64-.76-.18a6.91,6.91,0,0,0-1.58-3.6l-3.86,3.64.25.31,1-1,.63,0a5.5,5.5,0,0,1,1.09,4v8.26l-.12.29-2.15,2.16.24.29,1-1,.56,0,3.46,2.75,4.31-3.38-.18-.3L198,77.29h-.51l-2.22-1.72-.16-.33V65.59l.07-.23,1.26-1.83h.67c1,1.35,1.78,1.76,2.56,1.76a2,2,0,0,0,1.59-1l1.51-2.1-.25-.2-.23.35A1.48,1.48,0,0,1,201.18,63.12Z"/><path class="cls-3" d="M218.26,62.4l-.56,0-3.09-2.55a11.09,11.09,0,0,1-8.7,3.34h-.65v.4h.79l.42.42V75.4l-.12.3-2,2,.24.3,1-1,.56,0,3.26,2.68c3.26-2.74,5.19-3.38,9.21-3.36h0v-.4h-.74l-.42-.42V63.87l.12-.3,2.09-2-.23-.27ZM215,75.77l-.32.41a8.11,8.11,0,0,0-2.55,1l-.47,0-2.51-2-.15-.32V63.82l.31-.4a11.34,11.34,0,0,0,3-1.15l.45,0,2,1.61.16.33V75.77Z"/><path class="cls-3" d="M237.22,76.66l-.61,0c-.73-.86-1-2-1-3.91V63.87l.13-.31,2.23-2-.21-.29-1.15,1.08-.59,0-2.32-2.38-5.87,5.66-.71-.3c-.07-3.14-.31-4.08-1.48-5.37l-3.86,3.6.21.28,1.06-1,.6,0a6.31,6.31,0,0,1,1,3.92V75.4l-.14.3-2.24,2.11.23.3L223.76,77l.59,0,2.37,2.58L230,76.39l-.22-.28-.92.83-.59,0-1-1.12-.11-.28V66.93l.12-.3,4-3.91h.59L233,63.85l.13.29V74.33c0,2.54.46,4,1.58,5.24l3.7-3.57-.24-.3Z"/><path class="cls-3" d="M253.66,76.67l-.64-.08a6.65,6.65,0,0,1-1-4V64.09l.14-.31,2.22-2-.22-.29-1.25,1.09-.58,0L250.06,60a10,10,0,0,1-6.27,4.54l-.42-.12-.29-.33.25-.69a1.77,1.77,0,0,0-.08-3.51,1.69,1.69,0,0,0-1.61,1.88c0,.8.26,1.41,1.35,2.74l2.31,2.85,0,.56-2,2c-2.31,2.41-3,3.65-3,5.38,0,2.3,1,3.64,3.65,4.42L248.84,75l.71.27a7.57,7.57,0,0,0,1.43,4.3l3.88-3.48-.21-.31Zm-4.11-3-.13.31-3.19,3-.32.11a4.3,4.3,0,0,1-3.71-3.95,5.9,5.9,0,0,1,1.94-3.56l1.26-1.34.63,0,1,1.19.22-.22-3.05-3.77.2-.66a8.7,8.7,0,0,0,3.5-1.82l.55,0,1,1,.12.3v9.27Z"/><path class="cls-2" d="M198.33,177.31c-1.08-2.16-3.67-8.34-4.58-10.26s-6.67-13.85-8.61-16.91a21.79,21.79,0,0,0-8.26-7.75,13.77,13.77,0,0,0-7-1.84c-.88,0-1.56.07-1.84.07-.86,0-4.7.26-6.16.36v-5.32a44.21,44.21,0,0,1,.49-6.75,2.66,2.66,0,0,1,1.6-1.81,9.09,9.09,0,0,0,1.88-1c.64-.43,1.19-.84,1.2-.84l0,0,0,0a8.73,8.73,0,0,1,2.79-1.71,9.73,9.73,0,0,1,1-.35l.4-.1c4.41-.94,5.35-2.9,5.47-3.32a2.64,2.64,0,0,1,.51-.56l.28-.21a9.53,9.53,0,0,0,6-2.77l0,0v0a8.15,8.15,0,0,1,3.45-2.39c1.49-.55,1.87-1.58,1.85-2.1a1.18,1.18,0,0,0,0-.22v0c-.06-.92-.81-1.35-1.41-1.73a8.83,8.83,0,0,0-1.23-.6l-.14-.05-.14,0-.2,0c-.36,0-.49-.19-.64-.56A2.31,2.31,0,0,1,185,108c0-.15,0-.22,0-.22v-.09l0-.08a2.79,2.79,0,0,0-2.78-2.11,5.11,5.11,0,0,0-1.58.28,2.89,2.89,0,0,1-1,.14c-.74,0-1.58-.18-2.36-.26a7.79,7.79,0,0,0-1.87-.45,1.75,1.75,0,0,0-1.17.47,2.83,2.83,0,0,0-.78,2v.08l0,.06a1.21,1.21,0,0,1,0,.29v0l-.44-.24a2.83,2.83,0,0,0-1.59-.64,2.38,2.38,0,0,0-.58.08,14.47,14.47,0,0,1-2.09.09c-.57,0-1,0-1.75,0-.36,0-.77,0-1.28,0h-.05l0,0a12,12,0,0,0-4.14,2.26v-.19a12.32,12.32,0,0,1,.31-2.25v-.05a11.57,11.57,0,0,0,.07-1.3,14.67,14.67,0,0,0-1.84-6.81l0,0,0,0a6.86,6.86,0,0,0-5.26-2.24,7.69,7.69,0,0,0-2.06.28,7,7,0,0,0-4.34,3.69c-.7,2-2,5.08-2,5.09A5.33,5.33,0,0,0,146,108a6.22,6.22,0,0,0,1.28,3.68,1.54,1.54,0,0,1,.2.86c0,.59-.18,1.36-.2,2.18a6.53,6.53,0,0,1-1.56,2.89c-.41.48-1.66.86-2,2.13a5.46,5.46,0,0,1-.6,1.24c-.27.43-.51.77-.51.77l0,0v0a2,2,0,0,1-.36.5l-.08,0h0l0,0a.88.88,0,0,1-.19-.22l-.06-.11c-.1-.71-.81-5.94-1.55-11.42-.78-5.88-1.58-12.1-1.62-13.17v-.07c-.3-1.78-1.69-11.45-1.69-11.46l0-.1,0-.08c-.66-1.15-1.13-1.67-1.85-1.72a1.09,1.09,0,0,0-.92.58,2.29,2.29,0,0,0-.2.46v0h0a5.61,5.61,0,0,0-.06.88c0,1.71.35,4.89.35,5.9v0c.1,1.17,2.84,29.63,3.08,32.06a4.24,4.24,0,0,1-.56.53,5.89,5.89,0,0,1-.59.43l0,0,0,0a3.12,3.12,0,0,0-.9,2.28,4.93,4.93,0,0,0,.51,2.13v0l0,0c.29.43.31.57.3.59a4.14,4.14,0,0,1-.17.64,16.27,16.27,0,0,0-.56,2,119.89,119.89,0,0,0-25.59-10c0-.36,0-.7,0-1,0-6.1-3.74-8.42-4.37-8.75a1.17,1.17,0,0,0-.83-.45.73.73,0,0,0-.58.29,1.35,1.35,0,0,0-.23.79,4,4,0,0,1-.6,2.56.7.7,0,0,1-.52.3,1.4,1.4,0,0,1-1.27-.92,4.7,4.7,0,0,1-.33-1.87,6.82,6.82,0,0,1,.08-1.08l.11-.68-.69.07a5.75,5.75,0,0,0-4.72,3,9.46,9.46,0,0,0-1,4.47,13.13,13.13,0,0,0,.15,2v.06s0,.1,0,.15a1.27,1.27,0,0,0-.81-.32A1.5,1.5,0,0,0,93,122a3.07,3.07,0,0,0-.31.7,3.7,3.7,0,0,0-.15,1.08,10.33,10.33,0,0,0,2.09,5.23,4.51,4.51,0,0,1,.57,2,2.11,2.11,0,0,1-.21,1,.83.83,0,0,1-.14.21l0,0-.1.08,0,.13a10.3,10.3,0,0,0-.59,3.31,6.44,6.44,0,0,0,2,4.91c1,1.42,1.19,5.32,1.17,6.84,0,.41,0,.65,0,.65a7.06,7.06,0,0,0,2.47,5.57,7.54,7.54,0,0,0,2.49,1.44,6,6,0,0,0,1.93.35,4.76,4.76,0,0,0,3.57-1.66c2-2.16,2.68-5.69,2.93-7.37,2.4,2.27,3.91,7.49,4.68,12.85a106,106,0,0,1,1,14.56c0,.88,0,1.39,0,1.39,0,.67,0,1.32,0,2,0,11.1,3.16,16.11,3.21,16.18a8.43,8.43,0,0,0,3.53,3.2l-2.4,5.77a.12.12,0,0,0,0,.1.1.1,0,0,0,.09,0l5.24,0a.09.09,0,0,0,.09-.08l1.22-4.62a23.21,23.21,0,0,0,3.32.21h2.16l-.67,4.36a.08.08,0,0,0,0,.08.09.09,0,0,0,.08,0h4.66a.09.09,0,0,0,.07,0,.11.11,0,0,0,0-.08l-.08-4.76a16.72,16.72,0,0,0,5.38-1.9,2.38,2.38,0,0,0,1.26-2.06v-.1l.39-18.57a32.06,32.06,0,0,0,6.95.69,46.34,46.34,0,0,0,8.28-.74l.1,0,.08-.05a1.12,1.12,0,0,1,.39-.18v.08l0,.08,9.58,20c.95,1.95,2.14,4.22,3.58,5a5.71,5.71,0,0,0,2.79.63c2.93,0,6.62-1.49,10.27-3.44l-.22,2.81-1.52,1.94a.1.1,0,0,0,.08.17h5.5a.11.11,0,0,0,.08,0,.19.19,0,0,0,0-.08l-.31-6.9,1.58-1c5-3.24,9.06-6.47,9.07-6.47l.1-.08.05-.12a5.09,5.09,0,0,0,.37-2.05C200.7,182.64,199.29,179.24,198.33,177.31Z"/><path class="cls-1" d="M199.42,186.89c-.29.23-1.19.94-2.51,1.91-4.82,3.62-15.44,10.8-21.28,10.76a4.76,4.76,0,0,1-2.27-.5c-.94-.48-2.27-2.7-3.14-4.59l-9.55-19.88a1.71,1.71,0,0,0-.13-.34,1,1,0,0,0-.87-.49,1.79,1.79,0,0,0-.9.29c-.26,0-1.07.2-2.26.34a47.88,47.88,0,0,1-5.72.36,30.25,30.25,0,0,1-7.34-.81l-.64-.16-.42,19.94v.07a1.32,1.32,0,0,1-.74,1.15l.27.45-.27-.45a18.93,18.93,0,0,1-9,2.13h-2.16c-2.91,0-8-.4-10.2-4.14l-.12-.22c-.56-1-2.93-5.88-2.93-15.41,0-.62,0-1.27,0-1.93,0,0,0-.53,0-1.42a105.89,105.89,0,0,0-1-14.71c-.91-6-2.48-11.81-5.82-14.14l-.75-.51-.08.9s0,.57-.2,1.44a16.74,16.74,0,0,1-1.58,4.85c-.89,1.59-2.08,2.73-3.79,2.73a4.86,4.86,0,0,1-1.61-.3,3.29,3.29,0,0,1-.66-.27,6.15,6.15,0,0,1-3.57-5.71s0-.25,0-.67c0-1.64-.07-5.58-1.4-7.51l0-.07-.06,0,0-.05a5.43,5.43,0,0,1-1.6-4.09,9.16,9.16,0,0,1,.49-2.86,2.84,2.84,0,0,0,.62-1.87,5.51,5.51,0,0,0-.71-2.53l0,0,0,0a11.57,11.57,0,0,1-1-1.53,7.16,7.16,0,0,1-.94-3.11,3.27,3.27,0,0,1,.09-.78,4.44,4.44,0,0,1,.22-.47,1.33,1.33,0,0,1,.21-.27c.07-.06.09-.06.09-.06s0,0,.2.14a2,2,0,0,0,.31.23,1.32,1.32,0,0,0,.69.24.73.73,0,0,0,.58-.28,1,1,0,0,0,.17-.59,3.05,3.05,0,0,0-.16-.89,10.08,10.08,0,0,1-.14-1.8,8.57,8.57,0,0,1,.86-4A4.51,4.51,0,0,1,100,113c0,.16,0,.34,0,.54a6,6,0,0,0,.42,2.31,2.47,2.47,0,0,0,2.15,1.53h.08a1.8,1.8,0,0,0,1.33-.67,4.73,4.73,0,0,0,.85-3l0,0,.14.07c.7.43,3.7,2.45,3.71,7.77a13.8,13.8,0,0,1-.07,1.4l0,.46.45.1s3.29.77,8.24,2.45a115.06,115.06,0,0,1,18.15,7.87l.63.35.14-.7s.1-.47.23-1a12.62,12.62,0,0,1,.44-1.47v-.08a4.77,4.77,0,0,0,.22-.94,2.17,2.17,0,0,0-.47-1.15,4.31,4.31,0,0,1-.18-.46,3.89,3.89,0,0,1-.2-1.16,2,2,0,0,1,.57-1.5c.1-.07.34-.24.61-.46a3.07,3.07,0,0,0,.93-1l0-.12V124s-.75-7.76-1.51-15.66-1.52-15.86-1.58-16.53c0-1.18-.34-4.28-.34-5.87a5.17,5.17,0,0,1,0-.66v0a.72.72,0,0,1,.11-.19h0a3,3,0,0,1,.85,1.07c.14,1,1.38,9.59,1.67,11.37.13,2.56,3.2,24.71,3.2,24.73v.07l0,.06a2.47,2.47,0,0,0,.28.48,1.26,1.26,0,0,0,1,.58c.57,0,1-.42,1.37-1.08a9.38,9.38,0,0,0,1.25-2.35c.06-.52,1-1,1.75-1.64a7.66,7.66,0,0,0,1.84-3.47v-.1c0-.66.19-1.44.19-2.23a2.59,2.59,0,0,0-.38-1.45l0,0v0a1.51,1.51,0,0,1-.16-.21,5.27,5.27,0,0,1-.9-2.83,4.36,4.36,0,0,1,.34-1.7s1.3-3.09,2-5.11c0,0,.06-.12.18-.33A5.93,5.93,0,0,1,153,98.08a6.8,6.8,0,0,1,1.78-.23,5.85,5.85,0,0,1,4.42,1.82c0,.06.12.21.24.45a13.78,13.78,0,0,1,1.44,5.79,9,9,0,0,1-.07,1.15,13.72,13.72,0,0,0-.33,2.45,2.47,2.47,0,0,0,.11.82.87.87,0,0,0,.79.62,1.1,1.1,0,0,0,.52-.16l.06,0,0-.05a10.75,10.75,0,0,1,3.89-2.24c.47,0,.84,0,1.16,0,.66,0,1.12,0,1.75,0a14.51,14.51,0,0,0,2.26-.1h.07a1.48,1.48,0,0,1,.34,0c.31,0,.54.14,1,.47l0,0,0,0c.25.12.46.24.65.35a1.35,1.35,0,0,0,.66.23.63.63,0,0,0,.55-.31.9.9,0,0,0,.11-.41,4.85,4.85,0,0,0,0-.6,2.55,2.55,0,0,0,0-.49,2.56,2.56,0,0,1,.06-.44,1.35,1.35,0,0,1,.34-.7.74.74,0,0,1,.49-.21,8.13,8.13,0,0,1,1.62.42h.1c.69,0,1.59.27,2.51.27a3.74,3.74,0,0,0,1.31-.21,4.12,4.12,0,0,1,1.23-.22,1.7,1.7,0,0,1,1.75,1.33,3.5,3.5,0,0,0,.19,1,1.75,1.75,0,0,0,1.64,1.27l.23,0a8.84,8.84,0,0,1,.95.47,3.15,3.15,0,0,1,.68.5.64.64,0,0,1,.21.33v.1l0,.08h0v.06c0,.15,0,.62-1.18,1.12a9.05,9.05,0,0,0-3.92,2.76,8.63,8.63,0,0,1-5.4,2.39h-.13l-.11.07a3.8,3.8,0,0,0-1.29,1.3l0,0v.05s-.51,1.69-4.68,2.62a10.52,10.52,0,0,0-4.72,2.4c-.12.08-.6.43-1.14.79a8.61,8.61,0,0,1-1.56.9,3.7,3.7,0,0,0-2.35,2.54v.08a46.62,46.62,0,0,0-.5,7v6.45l.56,0s5.71-.4,6.65-.4c.39,0,1-.07,1.84-.07a12.81,12.81,0,0,1,6.47,1.69,20.66,20.66,0,0,1,7.88,7.4c1.86,2.93,7.56,14.91,8.56,16.82s3.47,8,4.59,10.26c.92,1.84,2.27,5.22,2.26,7.6A4.25,4.25,0,0,1,199.42,186.89Z"/><path class="cls-2" d="M139.26,159a.52.52,0,0,0-.57.08l-3.79,3.29a.52.52,0,0,0-.14.19,12.46,12.46,0,0,1-1.14,2.51c-.35.44-.82.71-2.12.86l-.14,0a4,4,0,0,1-1.59.23c-1.27,0-2.87-.26-4.39-.26-.66,0-.91-.18-1-.33a1,1,0,0,1-.18-.6v-.12a20.88,20.88,0,0,0,7.89-9.82,42.94,42.94,0,0,1,3.14-5.74c1.22-1.94,2.28-3.5,2.28-3.51a.51.51,0,0,0,.09-.38,6.6,6.6,0,0,1-.07-1.1,49.9,49.9,0,0,1,.47-5.42.5.5,0,0,0-.19-.48C125.1,128.09,109.49,126.3,105.84,126a8.39,8.39,0,0,0,.61-3.2,11.37,11.37,0,0,0-.94-4.43.52.52,0,0,0-.41-.29.49.49,0,0,0-.47.18,3.59,3.59,0,0,1-2.69,1.62,3,3,0,0,1-2-.86,6.26,6.26,0,0,1-.59-.63c-.13-.17-.19-.27-.2-.27a.52.52,0,0,0-.52-.24.51.51,0,0,0-.43.39,13.82,13.82,0,0,0-.41,3.34,9.7,9.7,0,0,0,.13,1.67,4,4,0,0,0-1.2.23A1.54,1.54,0,0,0,95.68,125a2.34,2.34,0,0,0,.22,1,.54.54,0,0,0,.16.21l.28.25A5,5,0,0,1,98,129.82a4.06,4.06,0,0,1-.17,1.15,16.87,16.87,0,0,0-.91,4.64,5.87,5.87,0,0,0,.63,2.72c1,2,2.45,3.65,2.48,8.9a5.19,5.19,0,0,0-.09,1,4.25,4.25,0,0,0,3.67,4.32,1.51,1.51,0,0,0,.32,0,3.07,3.07,0,0,0,2.34-1.25c.85-1.06,1.56-2.9,1.7-6.18l.12-.71h0a17.1,17.1,0,0,1,1.08-3.11c.16-.37.31-.72.45-1l.69,1.21a.53.53,0,0,0,.21.21c3.9,2,6.19,7.14,7.42,11.84a49.64,49.64,0,0,1,1.2,6.2c.18,1.41.25,2.37.26,2.6a22.45,22.45,0,0,0-.19,3.27c0,7.5,1.8,21.55,1.8,21.56a.51.51,0,0,0,.31.41.51.51,0,0,0,.52,0l3.59-2.49a.53.53,0,0,0,.21-.55l-3.69-16c0-.14-.05-.27-.07-.38a3.57,3.57,0,0,1,.27.28,5.13,5.13,0,0,1,.41.48c.14.39.73,2.12,1.36,4.06.72,2.19,1.5,4.68,1.68,5.65l0,.13a26.57,26.57,0,0,1,1.21,4.41c.24,1.08.43,2.08.54,2.67-.5.22-1.07.79-2.08,2.13a3.29,3.29,0,0,0-.94,2.11,2.92,2.92,0,0,0,1.07,2.1,14.61,14.61,0,0,0,2.08,1.55,8.53,8.53,0,0,0,4.3.86c2.09,0,4.2-.32,5-.38h.09a4.24,4.24,0,0,0,2.76-2.29l0-.21-.1-32.21A.52.52,0,0,0,139.26,159Z"/><path class="cls-2" d="M142.71,148.23a.52.52,0,0,0-.48-.33h-3.1a.54.54,0,0,0-.34.12c-1.44,1.26-3.68,5-4.55,8.12a16.3,16.3,0,0,1-3.79,4.59c-1.58,1.45-3,2.53-3,2.54a.5.5,0,0,0-.21.46.54.54,0,0,0,.29.43,5,5,0,0,0,2.2.51,4.73,4.73,0,0,0,1.73-.3,6.46,6.46,0,0,0,2.06-2,70.25,70.25,0,0,0,4.59-7.78l0-.05a15.34,15.34,0,0,1,2.5-3.57c1-1.19,2-2.12,2-2.13A.53.53,0,0,0,142.71,148.23Z"/><path class="cls-2" d="M140.19,145c1.44,1.09,4,1,5.82,1h.11a2.79,2.79,0,0,0,2.66-1.52,13.64,13.64,0,0,1,1.52-2.66l.07-.11a13.24,13.24,0,0,0,1.25-5.71,13.72,13.72,0,0,0-.52-3.86.53.53,0,0,0-.5-.36c-4.24,0-8.62,3-8.67,3l.3.44-.31-.43c-.8.63-1,1.76-1.38,3.14s-.58,3-1,4.52a3.11,3.11,0,0,0-.14.89A2,2,0,0,0,140.19,145Z"/><path class="cls-2" d="M183.57,155.17c-4-8.18-7.92-9.08-11.58-10.14a16,16,0,0,0-3.83-.41,62.8,62.8,0,0,0-8.06.79l-.77,0a3.59,3.59,0,0,1-1-.11v-.07a11.68,11.68,0,0,1-.07-1.59c0-3.68.51-11.33.56-12.1a33.23,33.23,0,0,0,1.33-9.63,35.19,35.19,0,0,0-.33-5c-.6-3.8-2.87-4.51-3.9-4.46a2.27,2.27,0,0,0-.48,0,6.71,6.71,0,0,0-5.28,3.16.57.57,0,0,0,0,.51.55.55,0,0,0,.43.27l3.34.22a6.51,6.51,0,0,1-3,1.42c-3.18.73-5,4.48-6,6a3.1,3.1,0,0,1-1.58,1.27,2.62,2.62,0,0,1-.63.16.81.81,0,0,1-.23,0,.53.53,0,0,0-.4.19,2.58,2.58,0,0,0-.57,1.52,2,2,0,0,0,.6,1.39l.12.09a1.92,1.92,0,0,0,.89.24c1.24-.07,2-1,3.85-2.27l0,0a11.85,11.85,0,0,0,3.12-4.44c1.19-1.77,2.16-2.08,2.81-2.09a1.68,1.68,0,0,1,.4,0,3,3,0,0,0-.49.58c-.26.38-.49.81-1.11,1.68a9,9,0,0,0-1.49,2.29,10.13,10.13,0,0,1-2.16,2.75c-2.31,2.39-4.29,2.64-6.24,3.16a2.86,2.86,0,0,0-1,.41,1,1,0,0,0-.44.77,1.14,1.14,0,0,0,.46.84,2.35,2.35,0,0,0,.36.25l.14.05a5,5,0,0,0,1.09.11c1.81,0,3.7-.84,6.53-2.25a13.1,13.1,0,0,0,5.19-4.28l0,0a15.54,15.54,0,0,1,2.7-3.79l0,0v0a7.82,7.82,0,0,1-.41,2.31,22.32,22.32,0,0,1-1.93,3.62c-.7,1.11-1.29,1.92-1.29,1.92a.51.51,0,0,0-.09.41,8,8,0,0,1,.08,1.29c0,2.79-.69,7.9-.68,7.91a.48.48,0,0,0,.09.37c.52.73,2.25,4.5,4,8.39s3.54,8,4.35,9.69c1.58,3.15,5.66,12.06,6.14,14.13,0,.2,0,.39,0,.56a3.31,3.31,0,0,1-.41,1.63,2.41,2.41,0,0,1-.2.31,5.17,5.17,0,0,1-1.74-1.56,13.77,13.77,0,0,1-1.1-1.6.53.53,0,0,0-1,.31,20.16,20.16,0,0,0,1.4,3.83,174.53,174.53,0,0,0,9,17.75,10.55,10.55,0,0,0,1.82,2.17,2.53,2.53,0,0,0,1.62.67h0a7.08,7.08,0,0,0,2.21-.63,9,9,0,0,0,3.7-2.67c1-1,1.72-2,1.85-2.18a5.85,5.85,0,0,0,1.59-4.09,8.56,8.56,0,0,0-1.25-4.3c-1.22-2-4.89-4.81-6.88-6.6-1.83-1.64-7.78-7-8.16-7.36a4.27,4.27,0,0,1-.87-1.3h.1a4.49,4.49,0,0,1,2,.7c.48.3,2.95,2.41,5.5,4.56s5.28,4.43,6.49,5.23a24.36,24.36,0,0,1,5.22,5.32,6.32,6.32,0,0,1,.32,2.54,54.85,54.85,0,0,1-.39,5.59.53.53,0,0,0,.26.53.55.55,0,0,0,.59,0s3.4-2.7,6.31-5.41a4,4,0,0,0,1.44-3.09c0-2.43-1.92-4.72-2.4-6.24C193.24,174.79,187.77,163.47,183.57,155.17Z"/><path class="cls-2" d="M156.44,158.77l-.06-.15a.75.75,0,0,1-.13-.44,2,2,0,0,1,.49-1.11,3.21,3.21,0,0,1,.37-.41l.15-.15a.53.53,0,0,0,.16-.58c-1-2.91-5.12-9.55-5.13-9.57a.53.53,0,0,0-.64-.22,25.31,25.31,0,0,0-6.88,4.83,32.55,32.55,0,0,0-2.65,2.74,12.09,12.09,0,0,0-.81,1.07,2,2,0,0,0-.36.93c0,1.15.81,15.08.81,15.09a.51.51,0,0,0,.23.41c1.33.85,3.49,1,5.83,1,3.69,0,7.85-.56,9.1-.56a2.85,2.85,0,0,0,2.45-1.11,2.66,2.66,0,0,0,.48-1.15v-.12a38.72,38.72,0,0,0-1.65-5.43C157.43,161.69,156.62,159.5,156.44,158.77Z"/><path class="cls-2" d="M151.68,111.53l.08,0a4.59,4.59,0,0,0,1.6.43h0a1.41,1.41,0,0,0,1.22-.74,4.47,4.47,0,0,0,.37-2.05c0-.23,0-.48,0-.75a4.25,4.25,0,0,0-2.2-3.68,4.92,4.92,0,0,0-2-.61.53.53,0,0,0-.5.28,6.84,6.84,0,0,0-.9,3.19A4.51,4.51,0,0,0,151.68,111.53Z"/><path class="cls-2" d="M151.89,103.15a4.89,4.89,0,0,1,.64.32,8.36,8.36,0,0,1,4.23,5.66.5.5,0,0,0,.29.38.46.46,0,0,0,.23.06.59.59,0,0,0,.25-.07,3.47,3.47,0,0,0,1.55-3.12,6.28,6.28,0,0,0-.31-1.88,7.91,7.91,0,0,0-1.5-3.23,3,3,0,0,0-2.39-1h-.51a3.69,3.69,0,0,0-2,.36,2.45,2.45,0,0,0-.8,2A.53.53,0,0,0,151.89,103.15Z"/><path class="cls-2" d="M162.26,124a9.36,9.36,0,0,0,2.52-1.15,21.53,21.53,0,0,1,3.9-2.06c1.14-.46,4.57-1.14,5.95-2.51s1.14-2.07,2.29-2.3,4.81-2.05,5-2.74a10.78,10.78,0,0,1,1.83-2.29c-.92-.23-1.83-2.29-1.83-2.29a12.45,12.45,0,0,1-4.13,0c-1.14-.23-.91.91-1.37,2.06s-1.06.71-4.12-.46C167.53,108.46,162,113,162,113A61.88,61.88,0,0,1,162.26,124Z"/></g></g></svg>