<svg xmlns="http://www.w3.org/2000/svg" viewBox="0 0 299.5 299.5"><defs><style>.cls-1{fill:#b70038;}.cls-2{fill:#fff;}</style></defs><title>Cosmos</title><g id="Слой_2" data-name="Слой 2"><g id="Слой_1-2" data-name="Слой 1"><g id="g3497"><g id="g3598"><path id="path3503" class="cls-1" d="M149.75,0C232.23,0,299.5,67.31,299.5,149.75S232.23,299.5,149.75,299.5,0,232.23,0,149.75,67.27,0,149.75,0"/><path id="path3505" class="cls-2" d="M261,211.16l5.09-14.75a6.54,6.54,0,0,0,4.39.31c1.39-.51,2.36-2.22,2.6-4,.31-2-.39-4.19-2.21-4.7-3-.85-4.7.35-6.68,2.45-2.95,3.18-7.61,8.5-10.87,11.25s-7.88,2.92-11.65,1.63a10.22,10.22,0,0,1-6.9-8c-.94-4.08-.63-9.12,1.43-15.14S241,170.05,244,167.64a10,10,0,0,1,5.31-2.29,16,16,0,0,1,6.45,1l-4.89,14.13c-2.65-.77-5.36-1.2-6.76,2.8-.58,1.74-.54,4.81,1.44,5.39,1.43.39,3.45-1,4.73-2.21,2.76-2.6,8-8.85,11.61-12.07,3.88-3.46,8.69-3.88,13.16-2.56a11.93,11.93,0,0,1,8.46,9c.93,4.23.31,9.71-1.82,15.95s-4.82,10.17-8.08,12.66c-4.27,3.26-8.11,3.26-12.58,1.71"/><path id="path3507" class="cls-2" d="M36.76,210.54c-4.62,1.32-8.58.66-11.84-2s-5.9-7.29-7.8-13.89-2.14-11.88-.74-15.91,4.38-6.68,9-8l18.51-5.32c4.58-1.32,8.54-.66,11.8,2s5.86,7.34,7.76,13.93,2.18,12,.82,15.92-4.35,6.6-9,7.92l-3.49,1-4.43-15.45,5.13-1.44c2.87-.85,3.8-2.52,2.91-5.74s-2.64-3.92-5.43-3.15l-21.82,6.29c-2.87.82-3.84,2.37-2.91,5.59s2.6,4.08,5.43,3.26l6.18-1.78,4.42,15.45-4.5,1.28"/><path id="path3509" class="cls-2" d="M143.15,53.91l11.06-44.6L178,14.13l-1.71,27.71,11.57-25.23,23.13,7-11.1,44.79-14.67-4.3,9-34.82L177.43,61.6l-11.77-3,.51-36.49-8.35,35-14.67-3.27"/><path id="path3511" class="cls-2" d="M63.58,80.85,66,83.22a4.46,4.46,0,0,0,2.52,1.24,3,3,0,0,0,2.56-1,3.43,3.43,0,0,0,1-2.79,4.41,4.41,0,0,0-1.44-2.56L46.15,55.23l12.23-12L81.74,65.05c3.81,3.58,5.63,7.77,5.32,11.61-.39,4.89-3.61,10-7.57,14.21-3.65,3.88-9.16,7.88-14.9,8.61s-9.08-2.56-12.81-6l11.8-12.58"/><path id="path3513" class="cls-2" d="M150.91,290l-10.4-45.26,23.91-4.31,11.37,26.75-1.47-29,23.17-6.71L208,276.87l-14.75,3.8-7.88-35.08.93,36.13-12.88,3-16.15-32.68,8.5,34.93-14.87,3"/><path id="path3515" class="cls-2" d="M90.75,263.36l15.06,4a7,7,0,0,0,0,4.39c.62,1.39,2.41,2.21,4.19,2.33,2,.15,4.16-.66,4.54-2.57.63-3-.69-4.66-3-6.44-3.33-2.76-9-7-12-10.09s-3.46-7.65-2.45-11.49a10.27,10.27,0,0,1,7.5-7.45c4-1.21,9-1.25,15.21.38s10.48,4.12,13.08,6.87a9.85,9.85,0,0,1,2.64,5.17,14.61,14.61,0,0,1-.54,6.48l-14.44-3.88c.58-2.72.81-5.48-3.26-6.56-1.79-.47-4.85-.2-5.28,1.78-.27,1.48,1.24,3.38,2.56,4.62,2.76,2.53,9.36,7.3,12.81,10.71,3.73,3.62,4.5,8.39,3.49,12.93a11.92,11.92,0,0,1-8.38,9.09c-4.15,1.2-9.67,1-16.07-.71S96,278.85,93.35,275.79c-3.57-4-3.84-7.85-2.6-12.43"/><path id="path3517" class="cls-2" d="M209,240c-3.3-3.42-4.54-7.18-3.76-11.26s3.68-8.54,8.54-13.27,9.47-7.46,13.54-8.12,7.8.78,11.14,4.19l13.24,13.75c3.34,3.41,4.58,7.22,3.8,11.29s-3.61,8.54-8.54,13.28-9.35,7.37-13.51,8-7.91-.74-11.21-4.15L209,240Zm10.83-12.31L235,243.33a4.27,4.27,0,0,0,2.91,1.6,4.2,4.2,0,0,0,2.95-1.48,3.54,3.54,0,0,0,.08-5.86l-15.14-15.68a4.33,4.33,0,0,0-2.95-1.59,4.43,4.43,0,0,0-3,1.47,4.19,4.19,0,0,0-1.51,2.87,4.47,4.47,0,0,0,1.51,3"/><path id="path3519" class="cls-2" d="M86.6,39.05c-1.59-4.5-1.25-8.42,1.12-11.84s6.72-6.25,13-8.54,11.53-2.91,15.48-1.79,6.76,3.92,8.39,8.43l6.52,18q2.44,6.75-1.05,11.88c-2.37,3.41-6.68,6.24-13,8.54s-11.41,2.87-15.41,1.74-6.87-3.92-8.5-8.42l-6.52-18Zm14.67-6.68,7.41,20.5a4.53,4.53,0,0,0,2,2.64,4.41,4.41,0,0,0,3.34-.16,4.32,4.32,0,0,0,2.6-2,4.4,4.4,0,0,0-.15-3.34L109,29.54a4.34,4.34,0,0,0-2-2.64,4.4,4.4,0,0,0-3.34.15,4.15,4.15,0,0,0-2.57,2,4.23,4.23,0,0,0,.16,3.34"/><path id="path3521" class="cls-2" d="M231.57,52.48q5.48-4.6,11.53-3c4,1.09,8.15,4.15,12.46,9.28s6.64,9.82,6.95,13.93-1.36,7.69-5.05,10.75L242.75,95.72c-3.65,3.07-7.49,4.07-11.49,3.07s-8.19-4.12-12.5-9.28-6.56-9.74-6.87-13.9,1.32-7.8,5-10.87l14.67-12.26Zm11.3,11.45-16.73,14a4.52,4.52,0,0,0-1.79,2.8,4.41,4.41,0,0,0,1.28,3.06,4.13,4.13,0,0,0,2.76,1.79,4.41,4.41,0,0,0,3.07-1.28l16.72-14A4.48,4.48,0,0,0,250,67.46a4.41,4.41,0,0,0-1.28-3.07,4.19,4.19,0,0,0-2.75-1.74,4.37,4.37,0,0,0-3.07,1.28"/><path id="path3523" class="cls-2" d="M60.4,211.35q5-5.13,11.14-4.15c4.15.66,8.65,3.37,13.54,8.07s7.81,9.16,8.58,13.24-.46,7.84-3.8,11.29L76.58,253.5q-5,5.19-11.14,4.2c-4.11-.62-8.65-3.3-13.54-8.08s-7.69-9.08-8.5-13.23.42-7.92,3.72-11.34l13.28-13.7Zm12.69,10.36L58,237.4a4.47,4.47,0,0,0-1.51,3A4.34,4.34,0,0,0,58,243.26,4.19,4.19,0,0,0,61,244.73a4.25,4.25,0,0,0,2.91-1.59L79,227.46a3.56,3.56,0,0,0-.12-5.9A4.15,4.15,0,0,0,76,220.12a4.29,4.29,0,0,0-2.91,1.59"/><path id="path3525" class="cls-2" d="M216.09,96.73l2,2.56-10.09,8.15L206,104.92l10.1-8.19"/><path id="path3527" class="cls-2" d="M197.14,89.74l0,.39c0,.35,0,.62,0,.89a1.63,1.63,0,0,0,.11.66h0a1.46,1.46,0,0,0,.23.47,2.69,2.69,0,0,0,.43.46,2.37,2.37,0,0,0,.62.39,1.19,1.19,0,0,0,.51.12,1.28,1.28,0,0,0,.46-.12.55.55,0,0,0,.31-.23,1.35,1.35,0,0,0,.2-.31,1.29,1.29,0,0,0,0-.39h0a4.14,4.14,0,0,0-.24-.62h0a9.65,9.65,0,0,0-.62-1,15.91,15.91,0,0,1-1-1.63,6,6,0,0,1-.46-1.4h0a3.48,3.48,0,0,1,.11-1.55,3.54,3.54,0,0,1,.7-1.36,4.22,4.22,0,0,1,1.25-1,4.17,4.17,0,0,1,1.55-.39,4.1,4.1,0,0,1,1.63.31,5.37,5.37,0,0,1,1.59.94,8.36,8.36,0,0,1,.78.81,4.41,4.41,0,0,1,.58.85,4.1,4.1,0,0,1,.35.9,7.33,7.33,0,0,1,.19.89h0a3.63,3.63,0,0,1,0,.66c0,.19,0,.47-.07.74l-.08.5-.51-.15-2.06-.66-.35-.12,0-.35v-.74a1.24,1.24,0,0,0-.11-.54,2.65,2.65,0,0,0-.2-.47,1.27,1.27,0,0,0-.35-.34,1.6,1.6,0,0,0-.46-.32,2.54,2.54,0,0,0-.47-.07h0a1.61,1.61,0,0,0-.42.11.64.64,0,0,0-.31.28.69.69,0,0,0-.16.23h0a.73.73,0,0,0,0,.31h0a1.48,1.48,0,0,0,.23.58c.16.27.39.62.7,1h0c.31.43.58.85.82,1.24a5.44,5.44,0,0,1,.46,1.09,5,5,0,0,1,.2,1,4.11,4.11,0,0,1-.12,1h0a3.21,3.21,0,0,1-.35.93,2.87,2.87,0,0,1-.54.81,2.78,2.78,0,0,1-.78.7,4.05,4.05,0,0,1-1,.51,4.53,4.53,0,0,1-1.16.27,6.52,6.52,0,0,1-1.21-.12,6.27,6.27,0,0,1-1.16-.47,6.48,6.48,0,0,1-1.09-.73,6.22,6.22,0,0,1-.89-.89,4.38,4.38,0,0,1-.62-1c-.16-.35-.27-.67-.39-1a4.62,4.62,0,0,1-.12-1h0a2.61,2.61,0,0,1,0-.78,7.22,7.22,0,0,1,.12-.85l.12-.51.5.16,2.13.73.35.12"/><path id="path3529" class="cls-2" d="M158.91,65l3.22.59-.77,4.46,4.85-3.65,3.88.7-5.47,4.31,3.57,8.73-3.42-.81-2.56-6.1-1.67,1.36-.66,3.81-3.26-.59L158.91,65"/><path id="path3531" class="cls-2" d="M133.8,66.06l3.22-.38,6.25,6.21L142.45,65l3.22-.42,1.6,12.92-3,.35-6.44-6.48.89,7.18-3.3.43L133.8,66.06"/><path id="path3533" class="cls-2" d="M114.27,72.27l8.5-3.26,1,2.8-5.39,2.09.73,1.91,5.28-2,1,2.52-5.28,2,.78,2.1,5.36-2.06,1.08,2.79-8.42,3.22-4.66-12.11"/><path id="path3535" class="cls-2" d="M95.41,84.07l8-5.62,1.44,2,0,9.16,4.73-3.29,1.71,2.44-8.46,5.94-1.28-1.82,0-9.48-4.42,3.11-1.71-2.45"/><path id="path3537" class="cls-2" d="M81.08,99.29l5.79-7.14,2.33,1.9-3.73,4.58L87,99.83l3.49-4.3,2.13,1.7L89,101.54,90.91,103l3.61-4.47,2.32,1.91-5.66,7-10.1-8.19"/><path id="path3539" class="cls-2" d="M184.84,72.12a7,7,0,0,1,1.43.81,4.52,4.52,0,0,1,1,1h0a5.54,5.54,0,0,1,.81,1.44,4.54,4.54,0,0,1,.31,1.59h0a6.17,6.17,0,0,1-.15,1.83,12.73,12.73,0,0,1-.7,2A9.39,9.39,0,0,1,186,83.22h0a4.94,4.94,0,0,1-1.94,1.44,4.7,4.7,0,0,1-2.17.42,5.44,5.44,0,0,1-2.29-.54,5.74,5.74,0,0,1-2-1.36,4.82,4.82,0,0,1-1.17-1.94,5.74,5.74,0,0,1-.27-2.45A10,10,0,0,1,177,76a9,9,0,0,1,.89-1.63A7.1,7.1,0,0,1,179,73.09h0a4.12,4.12,0,0,1,.74-.62c.27-.16.59-.31.9-.47a5.11,5.11,0,0,1,1-.27,4.75,4.75,0,0,1,1.05-.11,7.59,7.59,0,0,1,1,.15,5.39,5.39,0,0,1,1.05.35Zm-1,2.83a1.58,1.58,0,0,0-.89-.19A2.13,2.13,0,0,0,182,75h0a2.62,2.62,0,0,0-.94.82,11.16,11.16,0,0,0-.93,1.59,7.85,7.85,0,0,0-.54,1.71,3.21,3.21,0,0,0,0,1.24,2.47,2.47,0,0,0,.47.85,2.11,2.11,0,0,0,.81.58,2.23,2.23,0,0,0,.89.2,3,3,0,0,0,.93-.27h0a2.81,2.81,0,0,0,.9-.78,8.23,8.23,0,0,0,.89-1.55,10.33,10.33,0,0,0,.62-1.9,2.91,2.91,0,0,0-.11-1.32A1.83,1.83,0,0,0,183.83,75"/><path id="path3541" class="cls-2" d="M149.75,85.24a64.51,64.51,0,1,1-64.51,64.51,64.65,64.65,0,0,1,64.51-64.51"/><path id="path3543" class="cls-1" d="M132.32,127.74c1.05-11.22,4.08-21.35,11.65-26.74a22.79,22.79,0,0,1,18.28-4c-3.57,8.62-8.31,28.26,1,39.24,3.65-.15,44.06-1.55,44-1.43-5.83,6.75-12.11,11.72-16.19,17.85a65.55,65.55,0,0,1,5.13,18.63l-3.85,1.24,1.79,8.23a68.24,68.24,0,0,0-13.39,1.28c1.24,2.26,2.17,5.44,2,7.42a60.35,60.35,0,0,0-11.77,1.39c.7,4.39.55,7-3,10.17-3.84-3.14-17.85-15-23.48-19.68-3.22.7-9.31.39-12-3.45a39.45,39.45,0,0,1-11.69,6c-9.47,3.1-14.24-5.75-15.33-8.58-5.2-1.36-5.94-6.44-4.5-10.33-6.21-2.87-5.16-8.88-4.66-11.68-1.94-2.29-4.54-9-3-11.95,1-1.91,3.3-3.23,6.79-4.62,11.11-4.43,26.63-7.69,32.22-9"/><path id="path3545" class="cls-2" d="M125.88,140.36c-2-4.93-12.38-2.6-16.93-1.52-6,1.44-10.51,1.94-10.51,5.86,0,4.89,4.46,5.09,8.22,4.47a71.18,71.18,0,0,0,14.21-3.5,7.53,7.53,0,0,1-.27-5c.54,1.78,1.13,2.91,2.68,3.45,1.59-.27,3.45-1.67,2.6-3.76"/><path id="path3547" class="cls-2" d="M129,153.9c-.73-2-3.92-2.71-7.49-3a46.1,46.1,0,0,0-12.38,1.13c-2.76.58-4.54,1.51-4.46,3.76.07,3.3,1.47,4.31,3.22,4.51,4.89.5,11.25-1.13,15.84-2.29-.36-1.25-.47-3.61.77-4.27.35,1.59.47,2.6,1.79,3.22,1.47-.16,3.37-1.4,2.71-3.11"/><path id="path3549" class="cls-2" d="M135.58,163.34c5.13-7.07,4-10.72-3.33-17.51,1.55-2.48,3.29-7.49.58-10.29-1.32-1.36-3-1.94-2.68-2.29a6,6,0,0,1,3.37-.93c.43.08,1,.74,1.64,1.63a38.19,38.19,0,0,0,4,5.2,15.17,15.17,0,0,1,2.68,3.69c.93,1.63,2.45,1.75,2-.78-.39-1.93-1.09-4.65-1.47-6.94-1.05-5.94-1.79-16,2.79-23.8,1.63-2.83,4.66-6.87,8.93-7.37a26,26,0,0,0-5.32,12.54c-.81,5.82-.27,9.78,1,13.23,1.94,5.2,5.67,9.24,9,16.73-.11,6.56-4.69,23.33-11.83,30.16a15.26,15.26,0,0,1-6.91-4.27c1-2.68.38-5.2-4.47-9"/><path id="path3551" class="cls-2" d="M130.34,164.42c0-1.39-2.6-1.28-5.59-.54a88.68,88.68,0,0,1-11.1,1.71c-3.37.27-4.85.73-5,1.82-.12.62,1.2,2.68,3.8,2.68a65.41,65.41,0,0,0,13.23-2.6c3-.93,4.7-1.71,4.7-3.07"/><path id="path3553" class="cls-2" d="M132.48,171.72c-.82-.85-2.8-.85-5.24-.39-2.76.58-8,1.94-10.48,2.8-1.83.66-2.14,1.16-1.75,2.25.5,1.59,4,2.29,5.28,2.05,3.38-.58,6.52-2.6,9.47-4-.43-.55-.85-1.71-.12-2.26.51.74.7,1.91,1.71,1.95,1-.31,1.83-1.71,1.13-2.45"/><path id="path3555" class="cls-2" d="M152.43,181c6.13-8.35,13.74-26.83,11.56-40.53a115.66,115.66,0,0,1,27.64-.15c-2.44,2.71-8,4.73-9.51,6.79-.15.12-10.71-2.21-11.18-2.17-2,.11-3.1.69-3.26,1.47.31,3.65,6.25,8.31,8.93,8.54,5.71.54,7.57.5,8.42,8.54-6.09.74-8.19-3.07-13.66-4.39a5.2,5.2,0,0,0-4.54,1c0,3.69,4.5,6.83,5.82,8,3.11,2.68,7.49,4.38,7.84,7.06-2.33,0-4.66-.31-6.56-.15-1.12.08-2.56.66-3.65.5-1.63-.27-2.79-1.24-3.14-.66.81,1.63,1.36,4.39,3.14,6.56-2.75-.27-6.21-2.6-9-4.93-.82,2.49-.27,7.92,1.24,13.9-3.69-2.72-7.22-6.52-10.09-9.39"/></g></g></g></g></svg>