<svg xmlns="http://www.w3.org/2000/svg" viewBox="0 0 298.46 291.58"><defs><style>.cls-1{fill:#f4801c;}.cls-2{fill:#fefefe;}.cls-3{fill:#f47c16;}.cls-4{fill:#f3770d;}.cls-5{fill:#f47910;}.cls-6{fill:#f37810;}.cls-7{fill:#f37a13;}.cls-8{fill:#f37910;}.cls-9{fill:#f47b14;}.cls-10{fill:#f47a13;}.cls-11{fill:#f3780d;}.cls-12{fill:#f3760c;}.cls-13{fill:#f3790f;}.cls-14{fill:#f47a12;}.cls-15{fill:#f3770e;}.cls-16{fill:#26ac8f;}.cls-17{fill:#25ac8f;}.cls-18{fill:#1ea98b;}.cls-19{fill:#19a889;}.cls-20{fill:#1faa8c;}.cls-21{fill:#2eaf94;}.cls-22{fill:#18a788;}.cls-23{fill:#16a687;}.cls-24{fill:#15a687;}.cls-25{fill:#1ca98a;}.cls-26{fill:#19a788;}.cls-27{fill:#20aa8c;}.cls-28{fill:#1aa889;}.cls-29{fill:#17a688;}.cls-30{fill:#26ac90;}.cls-31{fill:#fcfdfd;}.cls-32{fill:#f0f9f7;}.cls-33{fill:#f7fbfa;}.cls-34{fill:#eef8f5;}.cls-35{fill:#f3f9f8;}.cls-36{fill:#eff8f6;}.cls-37{fill:#edf7f5;}.cls-38{fill:#f1f9f7;}.cls-39{fill:#e7f5f2;}.cls-40{fill:#f48424;}.cls-41{fill:#e3f4f0;}.cls-42{fill:#f2f9f7;}.cls-43{fill:#3bb49a;}.cls-44{fill:#edf7f4;}.cls-45{fill:#dcf0ec;}.cls-46{fill:#f79848;}.cls-47{fill:#f8fcfb;}.cls-48{fill:#dff2ed;}.cls-49{fill:#3cb49a;}.cls-50{fill:#daefea;}.cls-51{fill:#eaf4f0;}.cls-52{fill:#29ad91;}.cls-53{fill:#f8b173;}.cls-54{fill:#3eb59b;}.cls-55{fill:#32b095;}.cls-56{fill:#8fd2c3;}.cls-57{fill:#f48628;}.cls-58{fill:#1ba88a;}.cls-59{fill:#1ca88a;}.cls-60{fill:#8fd3c3;}.cls-61{fill:#33b196;}.cls-62{fill:#c9e8e1;}.cls-63{fill:#f6811f;}.cls-64{fill:#17a687;}.cls-65{fill:#19a789;}.cls-66{fill:#54bda6;}.cls-67{fill:#b0cbb0;}.cls-68{fill:#16a688;}.cls-69{fill:#f4b67e;}.cls-70{fill:#8fcdb9;}.cls-71{fill:#e8f5f2;}.cls-72{fill:#c8e7df;}.cls-73{fill:#d4eee8;}.cls-74{fill:#27ad90;}.cls-75{fill:#cfe9e2;}.cls-76{fill:#5fc0aa;}.cls-77{fill:#ddf0ec;}.cls-78{fill:#cfeae3;}.cls-79{fill:#e0f2ee;}.cls-80{fill:#18a789;}.cls-81{fill:#28ad90;}.cls-82{fill:#1aa88a;}.cls-83{fill:#f08f39;}.cls-84{fill:#17a788;}.cls-85{fill:#1ea98c;}.cls-86{fill:#f48322;}.cls-87{fill:#37b297;}.cls-88{fill:#3bb59b;}.cls-89{fill:#2faf93;}.cls-90{fill:#5bbfa7;}.cls-91{fill:#30b094;}.cls-92{fill:#4abaa2;}.cls-93{fill:#fbd1ad;}.cls-94{fill:#40b59c;}.cls-95{fill:#39b398;}.cls-96{fill:#6bc8b7;}.cls-97{fill:#43b69d;}.cls-98{fill:#22ac90;}.cls-99{fill:#1bad93;}.cls-100{fill:#e1c194;}.cls-101{fill:#f18426;}.cls-102{fill:#2aae91;}.cls-103{fill:#2faf94;}.cls-104{fill:#2eaf93;}.cls-105{fill:#2bae92;}.cls-106{fill:#1da98b;}.cls-107{fill:#f8af71;}.cls-108{fill:#f9b479;}.cls-109{fill:#f9b77f;}.cls-110{fill:#f58526;}.cls-111{fill:#fbd2b0;}.cls-112{fill:#f47f1c;}.cls-113{fill:#f9b880;}.cls-114{fill:#f48323;}.cls-115{fill:#f9af72;}.cls-116{fill:#fbcaa1;}.cls-117{fill:#f9b983;}.cls-118{fill:#fac292;}.cls-119{fill:#d0d6bc;}.cls-120{fill:#f48220;}.cls-121{fill:#f5780f;}.cls-122{fill:#f5b67d;}.cls-123{fill:#fbcfaa;}.cls-124{fill:#46af90;}.cls-125{fill:#dad6bd;}.cls-126{fill:#efa25b;}.cls-127{fill:#f76900;}.cls-128{fill:#46b89f;}.cls-129{fill:#f57103;}.cls-130{fill:#f4811f;}.cls-131{fill:#f3780f;}.cls-132{fill:#f9b174;}.cls-133{fill:#f9b37a;}.cls-134{fill:#f58729;}.cls-135{fill:#f8b175;}.cls-136{fill:#fabd89;}.cls-137{fill:#f3770c;}.cls-138{fill:#f47b15;}.cls-139{fill:#fbd6b7;}.cls-140{fill:#f3750a;}.cls-141{fill:#f8a965;}.cls-142{fill:#f5903b;}.cls-143{fill:#fefcfb;}.cls-144{fill:#f48425;}.cls-145{fill:#f78c31;}.cls-146{fill:#f5923d;}.cls-147{fill:#fbd4b2;}.cls-148{fill:#f47b13;}.cls-149{fill:#facda6;}.cls-150{fill:#fcdec2;}</style></defs><title>Cote d&amp;apos;Ivoire</title><g id="Слой_2" data-name="Слой 2"><g id="Layer_1" data-name="Layer 1"><path class="cls-1" d="M33,270.22c-1.36-5.82.66-12.35,1.61-19s3-12.73,7.13-18.13c2.22-2.9,3.07-5.59-.9-8.47a20.8,20.8,0,0,1-7.69-11.5c-1-3.94-3.56-6.06-6.68-6.63-5.87-1.08-10.39-4.51-15.33-7.24C-.88,192.53-3.82,179,5.5,168.73c5.63-6.16,8.1-10.88,3.89-19.42-4.95-10.05.31-20.35,10.69-25.2,5.13-2.4,7.37-5.65,5.44-11.56-2.46-7.51.94-17.35,7.54-22.06,3-2.13,3.8-4.65,5-8,3-8.45,1.67-15.32-1.71-23.6A39.68,39.68,0,0,1,34.61,34,19.23,19.23,0,0,1,45.7,20.79a46.81,46.81,0,0,0,12.09-8.1C67.78,3.86,81.29,4,91.4,13c4.95,4.37,7.8,3.93,11.17-2.2s8.09-9.44,15.18-10C123.9.29,130-.76,136.1.91a16.27,16.27,0,0,1,9.35,6.21c3.68,5.1,5.45,5.18,11.88,7.3,9.82,3.23,19.28,7.62,28.79,11.75,2.84,1.23,4.62,4.12,5.43,6.87,1.71,5.79,5.83,7.8,11.14,8.8a80.34,80.34,0,0,1,9.86,2.59,24.19,24.19,0,0,0,16.06-.14,37.49,37.49,0,0,1,32,3.23c13.15,7.87,24.49,17.94,29.06,33.26C291.5,86.93,292,93.23,295.72,99a18.51,18.51,0,0,1,2.06,14.73c-1.64,6,1.34,12,.28,18.32a31.05,31.05,0,0,1-11.69,19.73c-7.11,5.81-11.38,12.74-11.83,22.22-.29,6-3.15,11.21-7.15,16-5.73,6.83-10.32,14.25-7.24,24.06,1.78,5.65,2.8,11.54,4.05,17.35a6.17,6.17,0,0,0,1.76,3.24c9.73,9.79,11.92,23.31,5.51,35.3-3,5.7-8,8.8-14.3,10.76-12.15,3.78-23.89,2.63-36-.13-30.33-6.91-61.35-6.33-92.07-5.39-19,.58-37.18,8.45-55.57,13.64-9,2.53-17.91,3.79-27,1.66C36.81,288.24,32.12,281.3,33,270.22Z"/><path class="cls-2" d="M17.6,153.39C12,141.22,13,133.74,21.91,130.28c5.46-2.11,7.73-6,10.18-10.36a6.68,6.68,0,0,0,.28-6.52c-3.6-8.52-.43-16,8.16-20.36,2-1,5.71-1.14,2.83-5a6.22,6.22,0,0,1,0-6.1c2.87-4.84,6.15-9.75,3.6-15.63C45.4,62.73,42.13,60,40.8,56.14c-1.21-3.31-.83-6.66-.25-10C38.67,34,40.76,30.23,51.7,24.71a34.37,34.37,0,0,0,8.61-6.25c3.6-3.6,8.17-5,12.66-6.71a2,2,0,0,1,3.27,0c5,1.86,9.68,4,13.61,7.84,3.35,3.3,7.36,6,11.75.76,1-1.19,3-1.57,4.46-2.32.45-1.19,0-2.71,1.26-3.61C112.55,6.6,130.19,3,138,8.26c4.42,3,4.65,7.7,5.15,12.36.13,1.2-1.26,4.48,2.41,2.49a1.73,1.73,0,0,1,1.37-1c5.33-2.58,10.39-2.42,15.79.4,4.85,2.52,9.81,5,15.24,6.29,5.26,1.27,8.05,5.21,9.7,10.08a10.09,10.09,0,0,0,8.52,7.38,82.23,82.23,0,0,1,16,4.23c7.32,2.92,14,2,20.54-1.71a33.19,33.19,0,0,1,15.82,0c14.71,4.92,26.63,14.34,32.76,28,4.58,10.22,7.31,21.62,11,32.45.45,1.3-.06,2.92-.13,4.39a59.57,59.57,0,0,1,.15,9.06c1,10.42-2.36,18.85-10.83,25.43-6.63,5.14-11.73,11.53-12.06,20.53.79,1.66,1,3.31-.17,4.9-1.85,9.14-9.3,15-13.52,22.89-2.79,5.21-3.46,9.36-1.77,14.49v0c0,8.6,3.7,16.46,5,24.82.48,3.14,4.15,3.41,5.77,5.53s3,4.59,4.44,6.9a14.17,14.17,0,0,1,0,10.76c-2.23,6.05-3.7,12.53-10.83,15.23-3.19,1.21-6.76-.63-9.69,1.61,0,.64-.33.76-.85.41a16,16,0,0,1-11.55,1.13c-7.16-1.67-14.49-2.62-21.74-3.88-.79.57-1.54.83-2.1-.28A55.85,55.85,0,0,0,197.78,271c-1.2.51-2.38.92-3.38-.37-1.9-1.23-4.07-1.06-6.16-1.1-18.45-.38-36.9-1.06-55.35-1-14.81.08-28.49,6.18-42.74,9.3-11.94,2.6-23.21,8.16-35.91,7.53-12-.61-14.34-3.5-15.19-15.65-.44-6.31,1-12.07,1.61-18.08-.65-1.63-1.14-3.24.3-4.74,2.15-6.44,7.69-11.11,9.14-18,.6-2.85.69-4.69-2.07-6.38-5.32-3.25-8.34-8.34-10.08-14.19-.92-3.09-2.58-5.28-5.79-6.14-6.41-1.7-12.13-4.88-17.81-8.23C5,188.48,3.53,179.51,11,171.36c2.83-3.08,6.57-5.55,6.68-10.37A12.19,12.19,0,0,1,17.6,153.39Z"/><path class="cls-3" d="M248.46,48.83l-15.82,0c-.43-.37-2.67-1.05-.65-1.22a79.82,79.82,0,0,1,19.36.83Z"/><path class="cls-4" d="M292.27,122.72a12.85,12.85,0,0,1-.15-9.06C294.48,116.64,294.33,119.66,292.27,122.72Z"/><path class="cls-5" d="M269.07,259c0-3.59,0-7.17,0-10.76,3.15,3.45,1.23,7.36,1,11.12a1.13,1.13,0,0,1-.54,0A1.9,1.9,0,0,1,269.07,259Z"/><path class="cls-6" d="M132.65,4.85h-9.84l0-.52h9.84Z"/><path class="cls-7" d="M40.55,46.12c.08,3.34.17,6.68.25,10,0,.2,0,.45-.14.6a5.59,5.59,0,0,1-.73.73C39.39,53.65,38.64,49.81,40.55,46.12Z"/><path class="cls-8" d="M43.36,82v6.1c0,.21,0,.45-.15.6a5.67,5.67,0,0,1-.73.74,17,17,0,0,1,0-8.77c.16,0,.42.06.47.16C43.12,81.17,43.22,81.58,43.36,82Z"/><path class="cls-9" d="M247.7,276.2a.74.74,0,0,1,.85-.41l6.74.39C252.71,277.25,250.16,278,247.7,276.2Z"/><path class="cls-3" d="M146.88,22.11l-1.37,1c-2-1.43-1.08-3.37-1.48-7Z"/><path class="cls-10" d="M107.32,14.43c-.18,1.29.61,2.91-1.26,3.61l-1.66-.61C105.71,16.75,105,14.1,107.32,14.43Z"/><path class="cls-11" d="M76.24,11.76H73l-1.58-.82c1.67-1.11,3.42-.66,5.16-.25.07,0,.12.4.07.58S76.37,11.59,76.24,11.76Z"/><path class="cls-9" d="M212.31,273.17l2.1.28c-1.86,1.9-4,1.25-8,.61Z"/><path class="cls-12" d="M17.6,153.39a11.58,11.58,0,0,1,.1,7.6C15.82,158.49,15.9,156,17.6,153.39Z"/><path class="cls-13" d="M157.7,18.36c-2.47,1.26-4.16.78-6.62.48C153.57,17.56,155.26,18,157.7,18.36Z"/><path class="cls-14" d="M194.4,270.62l3.38.37c-1,1.34-2.52,1.14-3.92,1.09-.47,0-1.38.1-1-.76C193,270.94,193.86,270.85,194.4,270.62Z"/><path class="cls-8" d="M253.92,211c.11-1.78.23-3.56.39-6,1.39,2.64,1.36,4.42-.4,6Z"/><path class="cls-15" d="M269.21,173.58c.06-1.63.11-3.26.17-4.9C271,170.37,271.54,172,269.21,173.58Z"/><path class="cls-8" d="M41,246.92l-.3,4.74C39.57,250,37.89,248.31,41,246.92Z"/><path class="cls-16" d="M246.62,214.58c1.71,7.75,3.41,15.51,5.15,23.26.65,2.88,1.3,5.49,4.87,6.63a7.64,7.64,0,0,1,4.91,6,8.28,8.28,0,0,0,0,6.3c-.55,3.92-.83,8-5,10.05-2.14-.26-4.23.41-6.36.29-15.06,8.38-29.29-1.9-44-2.13-2.78,0-6,.1-8.59-1.67a2.57,2.57,0,0,1,2.73-.71c-1.26.12-3.16-.55-5,.53-10.32-1-20.72.52-31-1,8.37-1.84,16.86-.2,25.26-.9.85-.1-.36-1.3.1-.59-8.73,1.48-17.52.26-26.27.64-3.16-.94-6.5-.23-9.68-1.06a3,3,0,0,1-1.42-1.56,6.15,6.15,0,0,1-.3-2.09c1.45-6.65,1.73-13.53,3.65-20.11a4.9,4.9,0,0,1,3.47-3.25c2.59-.14,3.82,2.39,6.24,3.33,2.19-4.41,1.83-9,1.86-13.56,0-2.78,0-5.56,0-8.32a7.4,7.4,0,0,1,.46-3c-.74,1.39-.35,2.37-.49,3.32-.26,5.3.6,10.63-.56,15.88-1.21,3.1-3.13,4.54-5.12.92-4.14-7.58-10-13.54-16.23-19.34-3.74-3.48-3.07-7.53.26-10.57,3.9-3.54,5.22-7.26,3.31-12.14,1.16-2.05,3.19-2.06,5.15-2.25,4.43-.41,9.29,1.34,13.05-2.55a5,5,0,0,1,2.19-1.53c3.55.41,7.23,1.67,10.32-1.39,2.71-1.53,4.9-3.87,7.79-5.12a10.33,10.33,0,0,0,5.37-3.58,10.4,10.4,0,0,1,1.84-1.73c.7-.51,1.43-1,2.16-1.42a25.9,25.9,0,0,0,7.87-7.9q2-2.64,3.75-5.4c.58-.9,1.14-1.82,1.7-2.74,1.9-1.69,0-3.21-.23-4.81,0-.65,0-1.51.4-1.83,8-5.94,4.7-14.13,4.35-21.72a7,7,0,0,0-.45-3.11c-.18-.83-1.41.11-.58-.09a.19.19,0,0,1,.26.15c.89,4,2.41,8.09-1,11.73-2.35-.75-1.1-2.64-1.23-3.14-.1-1.78-.82-1-.76-.92.92,1.31.09,3.25,1.53,4.45-.41,5.87-1.41,11.48-6.56,15.3a2.42,2.42,0,0,1-2.24-1.46c-.5-4.05,3.19-8.7-1.73-12.13,5.24-5.1-6-8.24-1.58-13.24-4.33-.94-2.85-8.12-8.4-7.81a1.94,1.94,0,0,1-2-1.27c-3.26-7.65-6.45-9.87-14.38-10.76-2.73-.31-3.48-4.85-7.66-3.52-1.48.48-3.82-.92-5.79.58-1.52,1.16-2.74.69-3.3-1.25-.39-1.37-1.38-1.46-2.47-.88-5.48,2.93-10.48,1.46-16-.64-7.39-2.82-15.6-1.26-23.33-2.73-2.07-.39-4.25-.13-6.34-.64-2.84-.84-5.75-.53-8.64-.54A32.44,32.44,0,0,1,88.4,90.87c-3.62-1.66-6.42-4-6.52-8.46a24,24,0,0,0,0-10.74c.66-8.58,5.86-13.14,13.67-15.39a10.34,10.34,0,0,1,5.75.37c1.89,1.21,1.34,3.16,1.5,4.9-1,2.65-3.09,4.81-3.55,7.72a16.19,16.19,0,0,0-.66,6,17.22,17.22,0,0,1,0,1.76,12.69,12.69,0,0,0,.84,5.94c1.06,2,1.76,4.7,4.87,4,2.56-.59,3.4-2.8,4.13-5.15,2.42-7.76.54-14.57-4.23-20.84.49-1.74.43-3.34-1.3-4.45A16.25,16.25,0,0,1,102,55c-4.79-4-9.72-2.17-14.3.06C77.5,59.94,71.09,73.58,73.4,84.65a16.35,16.35,0,0,0,7.12,10.2c10.4,7.34,22.34,10.18,34.62,12.11,2.25.36,5.34-.69,6.07,2.93-1.44,1.18-3.14.34-4.26.65,1.54.09,3.56.4,5.07-1.39,11.13-.69,22.24-3.47,33.37-.05a2.85,2.85,0,0,1,.92,2.75c-.65,1.7-2.3,2-3.71,2.71a24.21,24.21,0,0,0-5.32,2.7c-2.26,1.47-4.58,2.88-5.87,5.41-.53.93-1,1.87-1.54,2.83a34.65,34.65,0,0,0-2.05,4.36c-.16.52-.34,1-.52,1.55a14.72,14.72,0,0,0,.31,8.88c1.68,4.26,3.25,8.57,6.24,12.16.94,1.13,2.43,2,1.69,3.89-3.14,2.88-6,.29-8.82-.65-4.39-1.5-8.59-2.1-12.92-.05-2.74,1.3-5.37,2.6-5.42,6.27,0,1.48-.3,3.11-2.22,3.31-1.5.16-2.17-1.07-2.84-2.16-.23-.36-.34-.85-.64-1.08-9.47-7.28-17.63-16-26.87-23.57-4.3-3.5-10.18-2.17-15.32-3.15-1.94-.8-3.65-2.27-5.74-1.78.74.35,2-.16,2.9.52.47,2.17-1.25,2.4-2.6,2.85-15.76,5.21-27,15.6-34.73,30.1-1.89,3.56-4.53,6.69-5.95,10.53-2.28,6.17-2,7.19,3.8,9.92a58.26,58.26,0,0,0,9.49,3.73,14.93,14.93,0,0,1,10.59,9.39A28.43,28.43,0,0,0,59,215.08a8.52,8.52,0,0,1,3.48,5.2,32.94,32.94,0,0,1,.39,5.95c-.23,4.08-1.19,8.06-1.69,12.1a10.05,10.05,0,0,1-2.72,4.15c-5.21,4.3-4.23,11-6.42,16.5-1.48,5,0,10.17-1,15.19a4,4,0,0,1-2.66,3.1c-1.9-.66-3.2-1.66-2.3-3.94a12.61,12.61,0,0,0-.1-7.57c1-9.06.75-18.37,7.1-26.08,3.86-4.7,4-10.92,5.26-16.57.5-2.19-1.83-3.53-3.78-4.55a19.84,19.84,0,0,1-10.43-13.47c-1.29-5.26-4.85-8.3-9.88-9.46-6.89-1.58-12.64-5.34-18.63-8.75-1.39-.78-1.84-1.5-1.65-2.9.92-1.29-.31-2.55-.07-3.83-.07-3.57,3.09-4.88,5-6.92,7.08-7.41,8.58-16.64,3.89-25.59-3.28-6.28-2.46-8.77,3.95-11.91,2.13.4,4.29,1.12,6.25-.5.89-6.56,5.32-11.44,8.13-17.09.91-1.83,2.2-3-.18-5.3-5-4.74-3.93-9.07,2.35-13,1.68.27,3.35.91,5,.07,2.46.26,4.08,2.1,6.1,3.18,2.59,1.38,4.43.16,5.93-1.89s.42-3.54-1.15-4.88-3.31-2.62-4.83-4.07c-4.55-4.39-5.1-8.41-1-13.23,2.83-3.3,3.41-6.27,1.32-9.91,1.4-1.7.12-3.73.44-4.38-.14.68.82,2.67-.44,4.39.48-5.81-4.12-9.43-6.14-14.16a9,9,0,0,0-.07-6.27c-.48-2.27-1.07-4.52-1.4-6.8-.65-4.44.5-8.42,5.13-9.67,5.61-1.53,9.44-5.39,13.57-8.9,6.44-5.47,9.73-5.61,16.53-.33,2,1.54,4.09,3,6.05,4.53,6.85,5.53,12.95,3.63,18.75-1.77,2.17.66,4.35,1.44,6.26-.61L114.3,23c2.53-1.72.18-4.7,1.73-6.67,5.7-3,11.85-2,17.88-2,1.76.64,1.44,2.14,1.46,3.5-1.84,5,0,10.16-.55,12.7.38-2.56-1.15-7.74.54-12.71,2,4.46.75,9.16.88,13.74s2.85,5.89,5.4,3.08c9.24-10.2,18.2-5.87,28.32-1.54,6.36,2.71,11.1,5.59,13.06,12.32,1,3.56,3.37,5.41,7.21,6.14A131,131,0,0,1,206.82,56c9.37,3.12,18.64,4.93,28,.23a21,21,0,0,0,11.51,0c14.86,4.32,24.8,14,30.64,28.12a12.68,12.68,0,0,0,.05,9c-.22,2.3-.61,4.67,2,6,5.32,2.7,6.13,7.44,5.88,12.74-.2,4-.2,7.93-.29,11.89-.77,2.14.39,4.26.05,6.4.5,4.11-2,7.1-4.62,9.34-8.54,7.25-16.06,15-18.35,26.54-1.44,1.59-.68,3.27-.18,4.93-.18,4.74-3.29,7.75-5.68,11.5-4.14,6.49-10.09,12.29-11.08,20.55C244.57,207.15,244.2,211.09,246.62,214.58Z"/><path class="cls-17" d="M153.12,259.35c3,.49,6.25-1.18,8.94,1.27.7.49.7,1,0,1.43-15.21.46-30.56-2.09-45.6,1.79-16,4.12-31.92,8.55-47.88,12.81-1.41.38-2.89.51-4.34.75a51.38,51.38,0,0,1-15.9-.13h0l1.31-2.6A6.63,6.63,0,0,1,54.3,273c1-.07,1.92-.06,2.88,0,2.1,0,4.21.15,6.2-.72a29.14,29.14,0,0,1,4.15-1.52c4-.93,7.38-2.43,8.36-6.93,6.71,2.86,13,.65,19.62-.95,10.19-2.48,20-7,30.89-6.21,14.61,2.61,15,2.26,15.84-12.23.13-2.34-.66-4.67-.23-7,.69-3.72,2.32-2.77,4-.57a7.91,7.91,0,0,1,.88,2.75c.23,2.12.14,4.27.53,6.38,0,2.25.31,4.5.15,6.76-.21,1.48-.82,3,.59,4.27C149.7,258.1,151.86,257.76,153.12,259.35Z"/><path class="cls-18" d="M133.91,14.33c-3.51,2.24-7.4.74-11.1,1-2.32.19-4.64.08-6.73,1.34q-.63.93-1.26,0C120.66,11.63,127.2,12.29,133.91,14.33Z"/><path class="cls-19" d="M162.05,262.05c0-.48,0-.95,0-1.43h29.22v1.46h-27Z"/><path class="cls-20" d="M246.62,214.58c-4.78-3.1-3-7.28-1.83-11.34C246.32,206.87,246.21,210.77,246.62,214.58Z"/><path class="cls-21" d="M48.33,277.27l15.9.13C58.92,279,53.62,279.27,48.33,277.27Z"/><path class="cls-22" d="M250.14,267.09c2-2,4.17-1.86,6.36-.29C254.44,268.22,252.34,268.65,250.14,267.09Z"/><path class="cls-22" d="M284.7,130.38c-1.95-2.12-1.92-4.25-.05-6.4A5.87,5.87,0,0,1,284.7,130.38Z"/><path class="cls-23" d="M246.36,56.26a11.4,11.4,0,0,1-11.51,0A43.07,43.07,0,0,1,246.36,56.26Z"/><path class="cls-24" d="M277.05,93.34a7.3,7.3,0,0,1-.05-9A19.79,19.79,0,0,1,277.05,93.34Z"/><path class="cls-20" d="M195.29,263.11c2-1.88,4.17-1.34,8-.37l-5.68.55Z"/><path class="cls-21" d="M46,265.76a6.13,6.13,0,0,1,.1,7.57C46,270.8,46,268.28,46,265.76Z"/><path class="cls-18" d="M261.55,171.19c-1.83-1.75-1.54-4.14-.85-5.94.45-1.16.73.54,1,1Z"/><path class="cls-22" d="M114.82,16.7h1.26c-.42,2.15,1.16,4.86-1.78,6.3C114.47,20.9,114.65,18.8,114.82,16.7Z"/><path class="cls-25" d="M33,135.23c-1.9,2.36-4,1.91-6.25.5Z"/><path class="cls-26" d="M13.89,180.15Q16.38,182,14,184C13,182.72,12.59,181.45,13.89,180.15Z"/><path class="cls-27" d="M48.35,99.89c-1.69,1.55-3.37,1.58-5-.07C45,98.06,46.69,99.12,48.35,99.89Z"/><path class="cls-28" d="M48.55,48.67a4.64,4.64,0,0,1,.07,6.27A10,10,0,0,1,48.55,48.67Z"/><path class="cls-29" d="M113.44,25.12c-1.84,2.8-4,2.19-6.26.61Z"/><path class="cls-25" d="M261.53,256.75a4.53,4.53,0,0,1,0-6.3Z"/><path class="cls-2" d="M125.81,257.84c-11.16.53-21.56,4.54-32.2,7.35-6.34,1.68-12.37,3.64-18.35-.66a3.82,3.82,0,0,1-3.49-2.11c-1-2.56-2.27-4.95-4.77-6.42a9,9,0,0,1-2-2.78,77.69,77.69,0,0,1-4.81-11.17c-.27-1.13.49-2.31-.15-3.43-.88-4.21,1.71-8.07,1.2-12.24a9.08,9.08,0,0,0,0-6.87c-6-5.93-12.44-11.29-15.1-20.11-1.13-3.71-5.67-6.23-10.11-7.77-17.68-6.11-18.13-4.28-9.17-22,7.29-14.38,17.42-25.37,32-32.37,2.94-1.42,6.15-1.52,9-3,.64-1,1.41-.81,2.22-.26,12-.9,21.64,3,28,13.79a15.56,15.56,0,0,0,7.29,6c5,2.22,9.11,5.22,10.1,11,.79-.27,1.3-.28,1.51-.53,1.91-2.45-3.26-6.2,2.08-8.48,5.64-2.4,10.76-4.47,17-2.22,3,1.08,5.81,4.63,9.7,2.08a1.54,1.54,0,0,1,1.6.3,8.56,8.56,0,0,1,1.11,1.36c6.87,7.15,14.36,4.91,21.92,1.46,4.77-1.82,8.17-5.32,11.24-9.21,6.43-11.47,5.12-23.26-3.4-30.44a9.17,9.17,0,0,1-1.44-.71,5.6,5.6,0,0,1-1.12-1c-.29-.36-.56-.74-.82-1.11a3.11,3.11,0,0,0-1.77-.76,3.46,3.46,0,0,1-1.31-.52,14.27,14.27,0,0,1-1.11-1.09c-1.23-1.37-3-1.65-4.58-2.1-2.91-.82-6,0-8.9-1a7.88,7.88,0,0,1-1.5-1.07c-11.45-1.87-22.92.74-34.37-.13h0c-7-1.41-14.13-2.57-21.09-4.3A58.17,58.17,0,0,1,82.15,98c-11-7.23-13.56-14.78-9.18-27.83,4.21-12.55,14.1-20.09,25.39-18.84,1.55.18,6.21-1.76,4.85,3.43-1.52,3.93-5.47,1-7.77,2.74-7,2.2-11.34,6.78-12.68,14.07.18,3.44.16,6.88,0,10.32,2.08,6.9,7.86,10.07,18.77,10.31,3,1.34,6.42-.38,9.42,1.11,11.31,1.76,23.35-.58,34,5.09,2.11,2.3,3.67-9.56,6.57.56.29,1,2,.14,2.51-.77,1-1.93,2.47-3,4.63-2.51,3.14.64-.4,3.56,1.7,4.6,2.36-.6,3.78-8.64,7.87-1,.55,1,4.23-3.43,7.65-1.51-.71,1.55-1.44,3.16-2.48,5.42,3.08-.65,4.2-3.94,7.55-3.07-1.91,4.53-.65,5.38,3.89,3.66,3.2-1.2,3.56-.37,2.28,4.08,2.41,1.09,5.56-1.47,7.59,1.5-.09,2.55-3.74,1.83-4.09,4.65,2.62,1.08,6.31-1.92,8.33,1.46,1.3,2.17-2.73,1.78-2.12,4,2.13,1.57,5.88,1,7.11,4.73-.28,2.23-3.57.58-4.27,3.14,1.64,1.79,5,1.43,6.48,3.85,2.5,4.07-.71,4-4.53,4.5,10.17,3.28,2.47,8.25,2.57,12.45-.63,4.13-3.69,7-5.31,10.68A5.37,5.37,0,0,1,197,160.7c-2.32,1.09-4.4,2.64-6.74,3.7-1.58.62-3.22,1.1-4.74,1.86a55.47,55.47,0,0,0-10.44,5.87c-4.89,3.14-7,7.68-6.81,13.38-3.32,6.14-9,2.83-13.74,3.48-2-.28-4.35-2.09-5.3,1.43,5.14,3.36,3.65,6.41-.16,9.81-6.9,6.15-6.76,7.64-.06,13.66,5.69,5.11,10.75,10.77,13.89,17.87,1.7,3.83,1.5.61,1.9-.46,2-1.2,1.68-3.15,1.75-5,0-1.07-.53-2.7,1.59-2.55,1,5.47.77,10.75-2.4,16.17L160,233.58a6.38,6.38,0,0,1-4-1.73c-4.51-4.91-10.71-5.35-16.68-6.4-2.3-.26-4.62-.09-6.92-.32C116.85,222.79,112,207,113.81,196c.94-5.73,3.46-11.49.2-17.27-1.57-7.16-3.8-13.9-11.06-17.46a5.57,5.57,0,0,0-4.49-1,1,1,0,0,0-.81.52c1.78.24,3.58-.1,5.22.75,5.46,2.77,8.53,7.29,9.65,13.23a121.11,121.11,0,0,1,0,14.88c-.47,2.71-1,5.42-1.68,8.09-1.8,7.24.19,13.38,5.12,18.76,3.16,3.43,6.59,6.6,9.8,10,4.88,5.13,7.29,10.94,4.69,18C128.83,248.88,130.09,254.33,125.81,257.84Z"/><path class="cls-30" d="M114.71,177.63c4,3.61,2.18,8.19,1.92,12.42-.29,4.79-2,9.4-1.2,14.39,1.59,10.32,7,16.94,17.27,19.28,2.52.93,5.07.65,7.62.17,7.85.63,14.9,2.87,19.7,9.69a5,5,0,0,0-3.13,2.93c-3.79.89-7.91-1.58-11.52,1.13-.85.27-2.78-2.26-2.05-.49,2.51,6.11-1.77,12.14.69,18.08.72,1.73.13,4.11-2.59,4-5.22-.17-10.61,1.27-15.61-1.4,1.39-6,2.9-11.93,4.12-17.94.78-3.81-.81-7.16-3.21-10A46,46,0,0,0,120,223.1c-11.21-8.7-14.47-19.47-9.06-32.71,1.25-1.27.32-3.06,1-4.46C113.33,183.3,110.1,179.19,114.71,177.63Z"/><path class="cls-31" d="M66.35,253.19l1.18,1.63c1.73,2.37,2.93,5.12,5.15,7.14l2.58,2.57c-.16,1.86,1.82,2.71,2.48,4.54l-14,4.41c-2.16,1.2-4.7-.07-6.87,1H55.28c-4,0-5.55-2-5-5.94.51-3.49-.73-7.11.76-10.54,1.75-5.74.89-12.46,6.33-16.8a2.88,2.88,0,0,1,3,1.41C62.37,246.17,63.38,250.23,66.35,253.19Z"/><path class="cls-32" d="M196.34,159.82l1.46-1.3c3.36-2.31,4.23-6.94,8.14-8.74,3.1-4.76,4.18-10.29,6-15.56v0c2.1-4.51.86-9.43,1.79-15.4,3.81,9,4.36,17,1.78,25-.8,2.47-4.73,3.53-4.87,7a1.31,1.31,0,0,1,.33,1.44,17.41,17.41,0,0,0-3.12,4.56c-1.19,1.82-2.16,3.77-3.27,5.64a4.82,4.82,0,0,1-1.33,1.05c-3.63,1.48-5.74,4.76-8.57,7.19-1.37,1.14-2.89,2.07-4.34,3.12-6.2,3.28-12,7.42-19.22,8.5a3.55,3.55,0,0,1-1.69-.78c-1.09-5.21,3.15-7,6.16-9.51,3.51-2.19,7.32-3.81,11-5.7,1.49-.82,3.17-1.25,4.56-2.27A18.17,18.17,0,0,0,196.34,159.82Z"/><path class="cls-33" d="M145.37,237.64c3.29-6,7.47-2.86,11.52-1.13-1.45,6.79-1.25,13.88-3.71,20.48-6.2,1.55-6.71,1.23-6.4-4,.64-2.14-1.52-4.24-.09-6.39-1.36-2,.2-4.57-1.15-6.61Z"/><path class="cls-34" d="M97.07,76.22v-.3c1.1-2.16,0-4.64,1-6.81a9.2,9.2,0,0,1,4.32-7.58,1.45,1.45,0,0,1,1.75-1.28c6.77,5.63,9.17,17.33,5,25.22-1.21,2.31-3,4-6,3.89-4.14-.2-3.65-4-5.06-6.31C97,80.86,98.14,78.39,97.07,76.22Z"/><path class="cls-35" d="M222.94,77.89l-2.16,2.66c-1.62.77.83,4.23-2.54,3.84l-1.36-1.24c-3.88,1-.93,4.1-1.81,6-.78,1.72,1.61,4.57-1.91,5.34-2.35-10.16-1.89-20.31.18-30.45a5.51,5.51,0,0,1,6,0,10.19,10.19,0,0,1,4.16,3.73C224,71.21,224.91,74.63,222.94,77.89Z"/><path class="cls-36" d="M227.15,71.62c.43-3.34-.4-7.74,5.48-6.48,1.32.28,3.27-.51,3.58,1.58.39,2.74-1.81,2.21-3.39,2.32-.9.06-1.6.31-1.85,1.27a17.4,17.4,0,0,1,.08,10.23c.41,1.33,1.55,1.15,2.56,1.25s2.19.19,2.29,1.59-.94,1.52-2,1.92c-4,1.56-5.65,10.65-2.65,13.93,1.4,1.53,5.23,2.33,3.21,5-1.41,1.84-3.29-1.58-5.21-2.07A12.48,12.48,0,0,1,227,101,173.76,173.76,0,0,1,227.15,71.62Z"/><path class="cls-37" d="M146.05,62.76c10.93.22,14.86,5,12,14.78-.92,3.2-2.76,5.81-6.5,5.82-2.41,0-5.81,1.61-6.27-2.85C145,74.57,143.61,68.59,146.05,62.76Z"/><path class="cls-36" d="M200.56,81.8c-1.95,2.75-2.62,7.44-7.47,6.21s-5.32-5.51-5.44-9.63a33.46,33.46,0,0,1,.39-6.94c.6-3.32,1.21-6.92,5.44-7.64,4.07-.7,5.37,2.53,7,5.27A33.85,33.85,0,0,1,200.56,81.8Z"/><path class="cls-38" d="M226.42,134.45c2.24,12.2-2.34,23.34-11.3,29.06-1.19.76-2.64,2.12-4,.67s.64-3,1.32-3.66C219.82,153.72,222.2,144.31,226.42,134.45Z"/><path class="cls-39" d="M130,70.42c1,1.49,2.78.61,4.08,1.22A1.6,1.6,0,0,1,135,73.7c-.44,1.61-1.86,1.49-3.09,1.49-1.81,0-2.76.74-2.69,2.65,0,1.31.07,2.52,1.67,3s4.68-.86,4.23,2.15-3.54,1.07-5.36,1.7c-.78.27-1.53.62-2.3.93-.44.42-.8.38-1.07-.19q0-9.66.05-19.3c-.79-.62-.77-1.25,0-1.9,5.68-2.87,8-2.31,8.84,2.15C133.5,67.75,129.69,66.45,130,70.42Z"/><path class="cls-40" d="M172.08,113.8l.17,1.4a6.41,6.41,0,0,1,1.57.94l.24.9a3.3,3.3,0,0,1-.8,1.67c-1.87,1.64-4.1,1.66-6.39,1.44a12.85,12.85,0,0,1-2-.35,33.81,33.81,0,0,0-14,.35c-2.64-.19-5.7,0-4.07-4.26l4.74-2.26c2.08-.77,4.56-.25,6.33-2a11.61,11.61,0,0,1,6.53.19C167,112.61,169.6,112.87,172.08,113.8Z"/><path class="cls-41" d="M177.59,84.37c-2.69-4.72-2.15-10.31-4.06-15.24a.81.81,0,0,1-.43-.8c0-.32.12-.48.21-.48,1.2-1.21-2.21-3.43.66-4,2.62-.52,2.44,1.78,2.27,3.42a5.61,5.61,0,0,0,1.26,4.09c1.41,1-1,4.23,2.4,4,.79-3.19,1.6-6.38,2.36-9.57.27-1.12.78-2.1,2.05-1.68s1,1.73.76,2.67c-1.26,5-2.61,10-3.93,15.08C180.11,82.9,180.68,86.21,177.59,84.37Z"/><path class="cls-38" d="M206.89,170.16c-1.59,7.71-4.36,14.78-11,19.86,4.21-7.15,3.2-16.4,9.67-22.59C208,167.33,207.35,168.8,206.89,170.16Z"/><path class="cls-42" d="M204.6,64.07c1.8,0,3.36.2,3.25,2.68-.34,7.55-.61,15.11-.89,22.67-.09,2.47-1.48,2-3,1.38C203.74,81.88,202.5,72.94,204.6,64.07Z"/><path class="cls-43" d="M171.34,181.63l18.71-9.3a2.41,2.41,0,0,1,1.83,1.63c-.13,2.7-2.51,2.67-4.2,3.47-2.43,1.91-4.18,4.79-7.6,5.27C177.06,183.2,173.5,188.14,171.34,181.63Z"/><path class="cls-44" d="M126.37,64.2l0,1.9c-4.56-.37-6.92,1.32-6.29,6.3a28.27,28.27,0,0,1-.35,5.55c-3-.44-1.41-2.79-1.69-4.28-.44-2.36.54-4.86-.63-7.18-1.42-.5-3.81.37-3.8-2.19s2.27-1.92,3.77-1.91C120.49,62.41,123.71,62,126.37,64.2Z"/><path class="cls-45" d="M161.89,224.62c-2.56-3.9-4.11-6.55-5.95-9-1.37-1.82-2.08-3.4.4-4.59s4.17-.26,5,2.24C162.35,216.49,162.14,219.74,161.89,224.62Z"/><path class="cls-46" d="M143.05,153.45c-3.84-3.28-5.05-7.94-6.54-12.45a21.71,21.71,0,0,1-.07-10.89,2.07,2.07,0,0,1,.27-.69c.41-.73.91-.8,1.5-.22,2.44,3.88,0,8.82,2.8,12.62,1.49,2.87,4.48,5.06,4,8.84A3.18,3.18,0,0,1,143.05,153.45Z"/><path class="cls-47" d="M168.68,74.36c-.9,2.8.61,9.06-1.26,8.67-4.35-.9-1.15-5.91-1.69-9.13-.44-2.65,0-5.47.14-8.21,0-.84.29-1.67,1.44-1.61s1.33.89,1.35,1.73C168.71,68.55,168.68,71.29,168.68,74.36Z"/><path class="cls-48" d="M218.24,84.39l2.54-3.84c.88,5.75,1.75,11.51,2.68,17.66-4.53-.52-3.39-3.9-4.05-6.19-1.24-2,.3-4.5-1.1-6.48A3,3,0,0,0,218.24,84.39Z"/><path class="cls-49" d="M176.35,172.67c-2.41,2.73-6.42,4.26-6.48,8.73a1.94,1.94,0,0,1-.1,2.58l-1.47,1.53c-2.18-7-.38-11,6.48-14.38A1.89,1.89,0,0,1,176.35,172.67Z"/><path class="cls-50" d="M168.17,223.73c-2.38,2,1.08,6.5-3.34,7.57,2.72-5.83.51-12,1.22-17.94a1.44,1.44,0,0,1,2.27,0Z"/><path class="cls-51" d="M117.44,66.49c3,3.37-.55,8.06,2.32,11.46.07,2.84.77,5.76-2.32,8.44Z"/><path class="cls-52" d="M227.15,71.62q-.06,14.7-.14,29.39A76.29,76.29,0,0,1,227.15,71.62Z"/><path class="cls-53" d="M146.83,115.89c-.11,4,2.88,2.68,5,3a2.34,2.34,0,0,1,2.83-.1,1.79,1.79,0,0,1-.38,1.88c-3,1.74-6.28,2.2-9.62,2.54-1.62,0-3.29.71-4.85-.29A14.73,14.73,0,0,1,146.83,115.89Z"/><path class="cls-49" d="M204.6,64.07q-.32,13.37-.62,26.73C202.5,81.85,201.53,72.92,204.6,64.07Z"/><path class="cls-54" d="M205.94,149.78c-2,3.55-3.37,7.74-8.14,8.74.28-4.58,4.61-6.67,6.37-10.34Z"/><path class="cls-55" d="M193.84,169.86c2.74-2.6,4.61-6.29,8.79-7.11,1.18,5.11-3.84,5.76-6.06,8.42L195,172.44A3.43,3.43,0,0,1,193.84,169.86Z"/><path class="cls-20" d="M82.78,81.88c-1.93-3.44-1.53-6.88,0-10.32A9.17,9.17,0,0,1,82.78,81.88Z"/><path class="cls-21" d="M51.06,258a110.81,110.81,0,0,1-.32,11.25c-.47,3.77,1.75,4.6,4.53,5.23l-5.59.15C50.45,269.15,48,263.37,51.06,258Z"/><path class="cls-56" d="M196.57,171.17c1.4-3.25,5.84-4.32,6.06-8.42l1.63-.47a1.5,1.5,0,0,1,1.67-.28C203.89,166.16,201.37,169.83,196.57,171.17Z"/><path class="cls-57" d="M143.05,153.45l1.12-2.34c.68-.92.2-2.26,1.14-3.09,1.54-.57,2.78.06,3.95,1a2.48,2.48,0,0,1,.54,1.56,7.72,7.72,0,0,1-1,2.3c-.7,1.14-.95,2.6-2.36,3.23-.24-.09-.48-.19-.71-.3Z"/><path class="cls-58" d="M135.36,17.82V34.21c-.72-5.48-2.91-11,0-16.38Z"/><path class="cls-59" d="M146.05,62.76q-.36,8.88-.73,17.75C143.83,74.52,142.65,68.55,146.05,62.76Z"/><path class="cls-60" d="M104.09,60.25c-.59.42-1.17.85-1.75,1.28-1.4-1.2-1.26-2.56-.45-4a1.89,1.89,0,0,1,1.43-1.21c1.46,0,3.18-.36,3.61,1.62C107.45,60.36,105.34,59.85,104.09,60.25Z"/><path class="cls-61" d="M213.16,94.53c3.44-3.55-.22-8.52,2.44-12.22.07-.1.46-.1.58,0a5.78,5.78,0,0,1,.7.84c-2.28,2.92-.63,6.33-1.19,9.46C215.45,93.94,216.07,96.63,213.16,94.53Z"/><path class="cls-62" d="M169.77,184c0-.86.07-1.72.1-2.58l1.47.23c2.33,5.15,5.94-.18,8.74,1.07C177.11,186.9,173.59,186.66,169.77,184Z"/><path class="cls-63" d="M139.77,122.87c1.54-.22,2.62-2,4.42-1.38a2.94,2.94,0,0,1,.59,2.86c-.72,1.72-1.81,3-3.85,3-1.45-.37-2.82-.8-1.84-2.78Z"/><path class="cls-64" d="M205.93,162l-1.67.28c-.55-2.68.76-4.6,2.57-6.33,1.47-.49,2.19.16,2.42,1.57C208.13,159,207.8,161.07,205.93,162Z"/><path class="cls-49" d="M200.56,81.8l-.12-12.73A15.26,15.26,0,0,1,200.56,81.8Z"/><path class="cls-65" d="M130,70.42c-.72-4-.72-4,5.24-4.07Z"/><path class="cls-66" d="M209.25,157.52,206.83,156a5.61,5.61,0,0,1,3.79-4.36,2.27,2.27,0,0,1,0,3.06A2.9,2.9,0,0,1,209.25,157.52Z"/><path class="cls-30" d="M146.78,253c-.49,5.5,3.15,4.46,6.4,4-.05.39-.09.77-.13,1.16a8.14,8.14,0,0,1-6.17,0C145,256.46,144.89,254.72,146.78,253Z"/><path class="cls-67" d="M164.53,113.52a9.46,9.46,0,0,0-6.31-.9,2.16,2.16,0,0,1-2.94-.31l.42-2.37a1.71,1.71,0,0,1,1.16-.07c2.4,1.61,5.21.07,7.7,1A1.79,1.79,0,0,1,164.53,113.52Z"/><path class="cls-68" d="M193.84,169.86a2.26,2.26,0,0,1,1.21,2.58l-1.08,1.4a1.7,1.7,0,0,1-2.18.22l-1.74-1.73C190.9,170.88,192.44,170.48,193.84,169.86Z"/><path class="cls-69" d="M139.09,124.6c.17,1.57,1.16,2.15,2.61,2.15a2.09,2.09,0,0,1,0,2.69,3.19,3.19,0,0,1-3.7.08l-1.28-.11A6.84,6.84,0,0,1,139.09,124.6Z"/><path class="cls-70" d="M136.44,130.11c0,3.63,0,7.25.07,10.88C134.44,137.38,134.63,133.75,136.44,130.11Z"/><path class="cls-52" d="M222.94,77.89l.54-10.07C225,71.27,225.8,74.68,222.94,77.89Z"/><path class="cls-71" d="M168.32,213.36h-2.27c-.71-2.83.74-4,3.28-4.56C170.53,210.79,168.35,211.82,168.32,213.36Z"/><path class="cls-23" d="M231.05,80.54A34.39,34.39,0,0,1,231,70.31,9.47,9.47,0,0,1,231.05,80.54Z"/><path class="cls-59" d="M147,85.16a8.54,8.54,0,0,1,6.33-.24C151,86.37,148.9,85.26,147,85.16Z"/><path class="cls-72" d="M191.79,174.06l2.18-.22c-1.5,2.24-3.16,4.2-6.29,3.59Z"/><path class="cls-73" d="M179.9,75.35c-.36.67-.61,1.79-1.11,1.91-.89.22-1.33-.68-1.33-1.58,0-1.44,0-2.88,0-4.32C178.92,72.32,177.53,75,179.9,75.35Z"/><path class="cls-74" d="M103.32,56.32l-1.42,1.21-6.46,0c2.3-1.73,5.8-.07,7.77-2.74Z"/><path class="cls-74" d="M111,93.3c-3.2.17-6.41.37-9.41-1.11C104.71,92.46,108.08,90.88,111,93.3Z"/><path class="cls-26" d="M219.32,64.09h-6c1.65-2.86,4.1-1,6.22-1a.9.9,0,0,1,.1.54A2,2,0,0,1,219.32,64.09Z"/><path class="cls-20" d="M126.35,85.4a2.6,2.6,0,0,1,1.07.19h6.25C131.16,86.59,128.58,88.14,126.35,85.4Z"/><path class="cls-75" d="M210.59,154.65l0-3.05a.94.94,0,0,1,0-.82c.83-.27,2-1.52,2.38.1A3.23,3.23,0,0,1,210.59,154.65Z"/><path class="cls-20" d="M70.08,134.08l-2.22.26-5.45-.57C65.89,132.73,68.08,132.29,70.08,134.08Z"/><path class="cls-76" d="M149.26,190.42c-.67-.5-1.53-1.41-.83-1.92,2-1.5,4.14-.45,6.13.49C152.84,189.63,150.59,188.33,149.26,190.42Z"/><path class="cls-23" d="M54.76,69.1V62.92c1.38,2.13,2,4.23,0,6.17Z"/><path class="cls-61" d="M218.31,85.54c1.29,2,1,4.28,1.1,6.48C217.46,90.13,218.45,87.74,218.31,85.54Z"/><path class="cls-77" d="M163.26,64.19c-.16,1.75-.63,2.41-1.51,2.47-.2,0-.6-.83-.68-1.31-.13-.83,0-1.68,1.17-1.54A2.65,2.65,0,0,1,163.26,64.19Z"/><path class="cls-78" d="M206.89,170.16l-1.36-2.73,1.73-1.58C208.63,167.41,207.53,168.77,206.89,170.16Z"/><path class="cls-18" d="M121.33,109.81c-1.58,1.76-3.37,1.82-6,.39l6-.38Z"/><path class="cls-79" d="M177.59,84.37c1.89.16,2.3-1.78,3.55-2.52C180.75,83.8,181.54,87.41,177.59,84.37Z"/><path class="cls-74" d="M97.07,76.22c1.16,2.16.7,4.54,1,6.83C96.12,81,97.18,78.52,97.07,76.22Z"/><path class="cls-74" d="M98,69.11c-.14,2.29.16,4.65-1,6.8C97.18,73.62,96.12,71.16,98,69.11Z"/><path class="cls-80" d="M61.25,219.51c2.27,2.29,2.39,4.58,0,6.87Z"/><path class="cls-81" d="M59.67,243.11l-2.28-1.87,2.66-2.62a3.22,3.22,0,0,1,1.08,2.86C60.69,242.07,60.57,242.94,59.67,243.11Z"/><path class="cls-82" d="M69.8,79.26v4.21C68.38,82,68.85,80.74,69.8,79.26Z"/><path class="cls-83" d="M155.28,112.31l2.94.31c-2,1.86-4.38,1-6.65,1Z"/><path class="cls-84" d="M146.88,258.17l6.17,0a9.66,9.66,0,0,1,.07,1.2C151,259,148.65,260.22,146.88,258.17Z"/><path class="cls-20" d="M211.9,134.22c-1.7-1.45-1.57-3.19-.79-5.3,1.36,1.79.42,3.65.79,5.32Z"/><path class="cls-85" d="M173.31,67.85l.22,1.28v3.61C172.4,71.08,171.71,69.44,173.31,67.85Z"/><path class="cls-21" d="M56.84,274.52l6.87-1C61.68,275.54,59.17,274.47,56.84,274.52Z"/><path class="cls-30" d="M145.54,240c1.49,2,1,4.37,1.15,6.61C144.61,244.65,145.73,242.18,145.54,240Z"/><path class="cls-86" d="M146.49,156.09c.36-1.36,0-2.93,1.26-4,2.57-.14,5.14-.64,7.69.1a17.77,17.77,0,0,0,10,.16,12.9,12.9,0,0,1,1.84-.42c2.82,0,5.56-1.68,8.44-.41,1.31,1.14.67,2.35.17,3.57-1.11,1.82-2.93,2.66-4.79,3.42a12,12,0,0,1-4.88,1.57c-3.92.19-7.85.09-11.78.12a12.29,12.29,0,0,1-7.91-3.36A1.08,1.08,0,0,1,146.49,156.09Z"/><path class="cls-43" d="M177.32,117.54c2.7-1,3.76,1.17,5.06,2.75,6.77,8.25,6.86,21.52.22,30.68a3.89,3.89,0,0,1-2.93-1.36,3.84,3.84,0,0,1,.69-3.14,29,29,0,0,0,2.19-4.35c.18-.53.38-1.05.57-1.57a15.41,15.41,0,0,0-.26-8.49c-.63-.84-1.35-1.6-1.92-2.47a4.19,4.19,0,0,1-.43-1.41,5.1,5.1,0,0,0-.62-2,11.19,11.19,0,0,1-.82-1.25,14,14,0,0,1-.69-1.4C177.89,121.53,175.56,119.89,177.32,117.54Z"/><path class="cls-87" d="M144.27,166.09c3.9.09,4.93,3.17,7,6.77-4.36-.4-7.87-.8-11.38-1-2.16-.13-5.4.93-5.33-2.29.06-2.71,2.89-3.77,5.72-3.45C141.64,165,143,165.24,144.27,166.09Z"/><path class="cls-18" d="M114.71,177.63c-2.72,2.45.39,6.47-2.4,8.89-1.78-4.11.36-8.59-1.23-12.72A23.19,23.19,0,0,0,102,162.14c-1.73-1.78-5.27,1.51-6.3-2.24a1.1,1.1,0,0,1,1-.25,7.42,7.42,0,0,1,6.25.12C111.08,162.62,114.87,170.8,114.71,177.63Z"/><path class="cls-88" d="M146.57,156.84l7.54,1.78c.78.3,1.56.6,2.35.88a15.82,15.82,0,0,0,6.78-.18c1.28-.48,2.82.26,4-.85L171,157.4a1.8,1.8,0,0,1,.1,2.61C161.56,166.54,151,165.17,146.57,156.84Z"/><path class="cls-89" d="M144.27,166.09l-3.94,0c-2.1-2.35-4.45-1.5-6.61-.28-1.36.76-2.51,2.95-3.78.17-1.15-2.52.45-4.28,2.55-4.84C137.52,159.82,141.47,161.76,144.27,166.09Z"/><path class="cls-24" d="M176.35,172.67l-1.57-1.54c2.82-3,6.68-4.19,10.32-5.75,1.2.06,2.56-.11,2.4,1.78A41.12,41.12,0,0,1,176.35,172.67Z"/><path class="cls-82" d="M171.07,160c0-.87-.07-1.74-.1-2.61,1.22-1.19,3.47-1,4.06-3.05a4.34,4.34,0,0,0,2.57-2.92,3.22,3.22,0,0,1,2.54-1.89A2.48,2.48,0,0,1,182.6,151C179.38,154.78,176.37,158.85,171.07,160Z"/><path class="cls-29" d="M59.67,243.11l1.46-1.63,5.22,11.71C61.36,251.66,61.53,246.72,59.67,243.11Z"/><path class="cls-90" d="M164.53,113.52l.18-2.32a2.65,2.65,0,0,1,2.87-.2c1.9.3,4.16,0,4.5,2.8C169.48,116.06,167.07,113,164.53,113.52Z"/><path class="cls-91" d="M111.08,173.8c2.46,4,.69,8.49,1.22,12.72-.1,1.41.18,3-1.35,3.87Q111,182.1,111.08,173.8Z"/><path class="cls-92" d="M72.68,262c-3.66-1-5.42-3.32-5.15-7.14C70.52,256.28,72.74,258.29,72.68,262Z"/><path class="cls-93" d="M177.32,117.54c-.71,2.84,3.49,3.69,2.68,6.57-2.72,1.5-4.55-.12-6.36-1.8a2.14,2.14,0,0,1-.12-2.42,16.47,16.47,0,0,1,1.56-1.89,2,2,0,0,1,1.44-.55A2.17,2.17,0,0,1,177.32,117.54Z"/><path class="cls-94" d="M196.34,159.82c-.14,3.13-2.62,4-4.9,5a1.83,1.83,0,0,1-1.59-1.46C192,162.14,193.24,159.31,196.34,159.82Z"/><path class="cls-95" d="M189.85,163.4l1.59,1.46c-1,1.23-2.16,2.34-3.94,2.3l-2.4-1.78A6.3,6.3,0,0,1,189.85,163.4Z"/><path class="cls-91" d="M95.71,159.9c1.63,2.06,4.73,0,6.3,2.24-2.33-.12-4.88.32-6.94-.49C92.51,160.66,94.58,160.2,95.71,159.9Z"/><path class="cls-96" d="M167.58,111l-2.87.2c-2.6-.51-5.56,1.06-7.85-1.33C160.46,110,164.15,109.26,167.58,111Z"/><path class="cls-97" d="M140.32,223.89a6.29,6.29,0,0,1-7.62-.17Z"/><path class="cls-91" d="M103,159.77l-6.25-.12C98.85,158.37,100.94,158,103,159.77Z"/><path class="cls-98" d="M173.67,115.86c.08-.74-.29-1.8.9-1.85.39,0,.81.69,1.22,1.07a5.58,5.58,0,0,1-.69,1.46l-.78.26-.64-.5-.11-.11Z"/><path class="cls-99" d="M174.83,115.86a2.28,2.28,0,0,1,1-.78l.2,1.47A.79.79,0,0,1,174.83,115.86Z"/><path class="cls-100" d="M174.83,115.86l1.16.69c.17.31.34.61.53.9l-.8.47L175,118l-.59-.36a3.91,3.91,0,0,1-.23-1.35A2.26,2.26,0,0,1,174.83,115.86Z"/><path class="cls-101" d="M173.67,115.86l-.1.33-1.32-1Z"/><path class="cls-102" d="M100.93,71.67a4.91,4.91,0,0,1,3.09-5c1.68-.61,2.59.87,2.86,2.51-.24,3.79.54,7.57.12,11.35-.2,1.72-.51,3.62-2.59,3.74-2.41.14-3-1.84-3.36-3.79A19.15,19.15,0,0,0,100.93,71.67Z"/><path class="cls-18" d="M107,80.5a13.41,13.41,0,0,1-.12-11.35C108.39,72.92,108.87,76.7,107,80.5Z"/><path class="cls-59" d="M100.93,71.67a8.61,8.61,0,0,1,.12,8.78A21.13,21.13,0,0,1,100.93,71.67Z"/><path class="cls-103" d="M215.19,73.44c.45-1.78-.87-4.71,2.76-4.39,3,.27,2.69,2.69,2.73,4.77,0,2.43-.77,4.27-3.56,4C214,77.58,215.45,75.1,215.19,73.44Z"/><path class="cls-104" d="M154.25,77.94c-1.41,1.89-4,2-4.52.38-1.13-3.49-1.39-7.59.33-10.89.78-1.49,3.42-.48,4.39,1.6C154.52,72,154.14,75,154.25,77.94Z"/><path class="cls-25" d="M154.25,77.94c-1.73-3-2-6,.2-8.91A9,9,0,0,1,154.25,77.94Z"/><path class="cls-105" d="M191.59,70.39A2.5,2.5,0,0,1,193.31,68c2.07-.73,3.36.52,3.87,2.17,1.24,4.08,1.46,8.25-.64,12.13-.82,1.5-2.34,2.55-4.13,1a5.49,5.49,0,0,1-.9-1.55C191.38,78,192.37,74.2,191.59,70.39Z"/><path class="cls-106" d="M191.59,70.39a12.57,12.57,0,0,1-.08,11.41C189.77,78,190.64,74.19,191.59,70.39Z"/><path class="cls-107" d="M154.43,118.91l-2.64-.06c4.69-1.83,9.37-2.12,14.05.05a2.91,2.91,0,0,1-1.65,2.11,14.07,14.07,0,0,1-6.35.49,6.59,6.59,0,0,1-1.74-.52C155.22,120.55,155,119.6,154.43,118.91Z"/><path class="cls-108" d="M174.82,120.15l-1.16,1.06c-2.24,2.23-4.36,1.65-6.42-.27a1.68,1.68,0,0,1-.08-2c2.19-.26,4.56.21,6.4-1.51a.73.73,0,0,1,1.23.11l.16.27A1.61,1.61,0,0,1,174.82,120.15Z"/><path class="cls-109" d="M167.16,119c0,.45.06.89.08,1.34,1,1.47,1.41,3,.4,4.65-2.33,1.33-2.77-.73-3.64-2a2.81,2.81,0,0,1,.59-2.76l1.25-1.3Z"/><path class="cls-101" d="M174.79,117.59c-.41,0-.82-.09-1.23-.11a11.79,11.79,0,0,1,.12-1.18s.55,0,.54,0Q174.49,116.95,174.79,117.59Z"/><path class="cls-110" d="M138,129.52l3.58-.35a3.58,3.58,0,0,1,1.21,1.63c.69,2.34.46,4.75.51,7.14a9,9,0,0,1-1.13,5,1.21,1.21,0,0,1-1.81.16C135.91,139.22,138.3,134.13,138,129.52Z"/><path class="cls-111" d="M140.35,143.12a2.31,2.31,0,0,0,1.25,0c.78-.94,1.44-2.19,3-1.14,1.35,2,1.24,4.1.71,6.29a2.46,2.46,0,0,1-1.12,2.84C143.42,148.19,143,145.11,140.35,143.12Z"/><path class="cls-112" d="M144.08,124.25c0-.92.07-1.84.11-2.76l10.17-1.27c1.94,2,.65,4.2.47,6.34a7.85,7.85,0,0,1-1.16,3.58,2,2,0,0,1-1.67.55,3.47,3.47,0,0,1-1.4-2.21,13.28,13.28,0,0,1-.3-1.65c-.45-2.72-1.53-2-2.78-.51a2.66,2.66,0,0,1-1.43.73,2.71,2.71,0,0,1-2-1.26A1.47,1.47,0,0,1,144.08,124.25Z"/><path class="cls-113" d="M153.27,126.59c.36-2.12.73-4.24,1.09-6.37,0-.44,0-.88.07-1.31l1.35,1.43a5.44,5.44,0,0,1,1.4,3.51,9.68,9.68,0,0,1-.69,4.67,2.07,2.07,0,0,1-1.48,1C153.4,129.15,154.07,127.43,153.27,126.59Z"/><path class="cls-114" d="M144.32,125.24l1.14,1.28a8.09,8.09,0,0,1,1.07,1.53,8.24,8.24,0,0,1,.42,1.78c.28,2.87-.24,5.81.7,8.62,1.12,1.6,3.94.23,4.63,2.59.72,1.18,1.16,2.51,2,3.64a3.44,3.44,0,0,1,.52,1.56,4.46,4.46,0,0,1-1.24,2.15c-1.25,1-2.33,2.72-4.27,1.13l-4-1.26c-2.25-1.69-.63-4.21-1.34-6.23a5.13,5.13,0,0,1-1-3c-.08-2.88,0-5.76,0-8.65C143,128.53,142.94,126.69,144.32,125.24Z"/><path class="cls-115" d="M153.18,147l1.25-1.21c3.65.83,2.58,3.58,2.44,6a3.69,3.69,0,0,1-1.24,1.74c-2.63-.45-5.53.7-7.88-1.36l1.61-1.56C151.71,150.49,152.47,148.75,153.18,147Z"/><path class="cls-8" d="M153.18,147c.12,2.68-.62,4.44-3.82,3.57,0-.34-.06-.68-.07-1C151.29,149.73,151.8,147.69,153.18,147Z"/><path class="cls-116" d="M144.32,125.24l-.34,5c-.7.85-1.4.86-2.07,0-.1-.36-.21-.71-.34-1.05.05-.81.09-1.62.13-2.42l2.38-2.5A2.77,2.77,0,0,0,144.32,125.24Z"/><path class="cls-117" d="M155.63,153.45l.13-1.67a5.8,5.8,0,0,1,2.57-1.11,12.93,12.93,0,0,1,5.63.45,2.7,2.7,0,0,1,1.68,2.13C162.34,155.4,159,154.91,155.63,153.45Z"/><path class="cls-118" d="M176.12,152.14c-3.05-.69-5.77,2-8.86.86a1.83,1.83,0,0,1,.05-2.69,12.52,12.52,0,0,1,8.91-1A2.26,2.26,0,0,1,176.12,152.14Z"/><path class="cls-57" d="M167.2,158.47c-.92,1.49-2.66.8-3.89,1.46a12.91,12.91,0,0,1-7.66-.15l-1.54-1.16Z"/><path class="cls-108" d="M167.16,150.83c0,.73.07,1.45.1,2.17l-1.62.25-1-1.1a2.05,2.05,0,0,1-.65-1.55,28.68,28.68,0,0,1,1-5.27,2.52,2.52,0,0,1,1.37-1.22,2.71,2.71,0,0,1,1.94,2A4.85,4.85,0,0,1,167.16,150.83Z"/><path class="cls-119" d="M176.12,152.14V149.4c-.26-1.09.3-1.43,1.28-1.39,1.32,1,.73,2.51,1,3.8a2.84,2.84,0,0,1-3.36,2.54C175.39,153.61,175.76,152.88,176.12,152.14Z"/><path class="cls-120" d="M177.31,148.25c-.39.39-.79.77-1.19,1.15-2.73,2-5.9,1.4-9,1.43,0-1.71,0-3.43,0-5.15-.86-5.84,0-11.77-1-17.6a3.77,3.77,0,0,1,.92-3c0-1.6.07-3.2.11-4.8a9.36,9.36,0,0,0,6.42.89l6.34,2.9a1.67,1.67,0,0,1,.17.9,2.28,2.28,0,0,1,.26,1.73c-.3.54-.61,1.07-.92,1.6-.92,4.69-.28,9.43-.41,14.16C179,144.57,179.15,146.72,177.31,148.25Z"/><path class="cls-121" d="M181.48,128.86l2.07,1.66c1.48,3.67,1,7.39.29,11.12h-.17a1.57,1.57,0,0,1-1.68.71c-1.42-.52-1.87-1.72-2.15-3-.3-2.53-.26-5.09-.56-7.62A2.89,2.89,0,0,1,181.48,128.86Z"/><path class="cls-122" d="M177.31,148.25l.21-6.11a.91.91,0,0,1,1.16-.74,4,4,0,0,1,1.84,1.55,8.13,8.13,0,0,1,.82,3c.07.25.13.5.2.75-.47.94-.93,1.89-1.4,2.83l-1.75,2.27C177,150.93,177.4,149.52,177.31,148.25Z"/><path class="cls-123" d="M179.85,143.08l-1.28-1.33c-.33-4.84-1.86-9.75.86-14.41a1.78,1.78,0,0,1,2,.8,5.85,5.85,0,0,1,.07.72l-1.39,2.76c.94,2.42.27,4.94.47,7.41C180.39,140.39,181.09,141.91,179.85,143.08Z"/><path class="cls-124" d="M183.84,141.64q-.15-5.56-.29-11.12C186.13,134.16,185.69,137.88,183.84,141.64Z"/><path class="cls-125" d="M182.47,141.83a4.06,4.06,0,0,1,1.2-.18,7.4,7.4,0,0,1-2.14,5.07l-.4.15C180.1,144.8,180.48,143.1,182.47,141.83Z"/><path class="cls-126" d="M181.41,128.14l-1.55-.5c-.39-.29-.49-.54-.32-.76a.65.65,0,0,1,.47-.28l-.07,0a4.53,4.53,0,0,0,.92-1.33C182.94,125.84,183,126.84,181.41,128.14Z"/><path class="cls-127" d="M180.86,125.22l-.92,1.33c.08-.52.15-1,.22-1.54A1.09,1.09,0,0,1,180.86,125.22Z"/><path class="cls-128" d="M155.65,159.78l7.66.15A6.19,6.19,0,0,1,155.65,159.78Z"/><path class="cls-129" d="M174.82,120.15c0-.76.08-1.53.13-2.29a2,2,0,0,0,.77.06C176,118.89,176.25,119.86,174.82,120.15Z"/><path class="cls-130" d="M167.13,125.12c0,.88,0,1.76,0,2.64a19.87,19.87,0,0,1-.39,4.68c-.68,4.36-.51,8.79-1,13.16,0,1.85.57,3.8-1,5.36-2.1.52-4.32.17-6.4.86l-2.59,0c-.49-2,.66-4.36-1.33-6l-.05-.1c-2.06-3.45-1.68-7.29-1.8-11.05a8.59,8.59,0,0,1,2-5.26,5.8,5.8,0,0,1,1-.4c1.5-1.54.76-3.22.3-4.87,0-1.25,0-2.49-.07-3.74h1.3c2.43,1.22,5.83-.72,7.7,2.34Z"/><path class="cls-131" d="M164.78,122.68l-7.7-2.34,7.51-.14C164.65,121,164.72,121.85,164.78,122.68Z"/><path class="cls-132" d="M141.91,130.22l2.07,0q0,4.51,0,9c-1.14.38-1.7-.29-2.15-1.18C141.84,135.46,141.88,132.84,141.91,130.22Z"/><path class="cls-133" d="M141.81,138.08l2.16,1.18c0,.92,0,1.85,0,2.77l-2.35,1.08Z"/><path class="cls-134" d="M154.36,134.08c0,3.86,0,7.72,0,11.57-2.65-.1-2.51-2.06-2.58-3.88-.3-2.47-2.39-2.91-4.18-3.68-.59-2.77-1.1-5.54.47-8.19a3,3,0,0,1,3.64.43h1.18C154.49,131.16,153.09,133.14,154.36,134.08Z"/><path class="cls-120" d="M146.74,126.52c0-2,.1-3.91,2.86-3.7,2.38.19,2.15,2.06,2.25,3.7C150.14,127.81,148.44,128.1,146.74,126.52Z"/><path class="cls-135" d="M151.73,130.33l-3.61.11a3.05,3.05,0,0,1-2.43-1.21c-.08-.41-.14-.83-.19-1.24a5.58,5.58,0,0,1,6.28,0C151.76,128.79,151.75,129.56,151.73,130.33Z"/><path class="cls-136" d="M154.36,134.08c-1.74-.76-1.07-2.46-1.45-3.75l.36-3.74c.43.92.85,1.84,1.27,2.75Z"/><path class="cls-137" d="M151.78,128l-6.28,0c0-.49,0-1,0-1.47h6.39C151.82,127,151.8,127.52,151.78,128Z"/><path class="cls-138" d="M155.85,124.07c1.39,1.71,2.06,3.38-.3,4.87Z"/><path class="cls-139" d="M145.69,129.23a2.22,2.22,0,0,1,2.43,1.21c-.09,2.51,1.34,5.06-.22,7.52a1.85,1.85,0,0,1-1.24,1.18C144.26,136,145.87,132.55,145.69,129.23Z"/><path class="cls-140" d="M146.66,139.14,147.9,138c2.63-.09,4.26.84,3.9,3.81-.92-.07-1.35-2.14-2.27-1.07C145.81,145,147.15,140.48,146.66,139.14Z"/><path class="cls-138" d="M158.35,151.82c2-1.26,4.09-1.86,6.4-.86,0,.39-.07.79-.12,1.19Z"/><path class="cls-141" d="M165.79,131.71c.21-1.41-.24-3,1.38-4a27.71,27.71,0,0,1,0,17.92L166,144.44C164.7,140.22,165.07,136,165.79,131.71Z"/><path class="cls-3" d="M165.79,131.71l.21,12.73c-.08.39-.16.77-.26,1.16A18.17,18.17,0,0,1,165.79,131.71Z"/><path class="cls-142" d="M173.32,138.89c.27,2.08.71,4.9-2.13,4.79-2.49-.1-1.31-3-1.46-4.7-.18-2.07,0-4.17,0-6.25-.13-5.29,2.05-6.38,6.43-3.61a7,7,0,0,1-1.39,1C170.16,132.39,173.13,135.86,173.32,138.89Z"/><path class="cls-143" d="M173.32,138.89c-5.48-.9-1.67-4.93-2.27-7.38-.71-2.89,2-2.38,3.83-2.44-.7,2.32-3.47,4.61.06,7,.43.28-.56,1.39-1.19,1.94A.69.69,0,0,0,173.32,138.89Z"/><path class="cls-144" d="M180,126.6l-.15,1.05c-2.69,4.49-.48,9.43-1.29,14.1a6.63,6.63,0,0,0-1,.39c-.05-3.8-.1-7.6-.13-11.4C177.37,128.8,177.24,126.78,180,126.6Z"/><path class="cls-144" d="M173.75,138c.59-3-3.66-6.53,1.13-9a10.37,10.37,0,0,0,1.24.05c0,2.15-3.53,3.91-.39,6.57C176.78,136.57,175.16,137.8,173.75,138Z"/><path class="cls-145" d="M182.47,141.83c-.45,1.68-.89,3.36-1.34,5-1.55-.88-.82-2.54-1.28-3.79.09-1.25.18-2.51.28-3.76.33-.6.67-.61,1.05,0A2.62,2.62,0,0,0,182.47,141.83Z"/><path class="cls-146" d="M181.18,139.28l-1.05,0c0-2.57,0-5.13,0-7.7C182.16,133.93,180.9,136.72,181.18,139.28Z"/><path class="cls-147" d="M161.86,134.17c-.68,3.41,2.61,7.63-2.1,10.21-1.64-1.59-.56-3.61-.86-5.41.43-1.51.49-3.12,1.31-4.51A1.32,1.32,0,0,1,161.86,134.17Z"/><path class="cls-148" d="M159.69,138c0,2.13.05,4.26.07,6.39-2.61-5.49-2.28-11-.17-16.55C161.88,131.19,159.94,134.6,159.69,138Z"/><path class="cls-149" d="M159.69,138c0-3.39-.07-6.78-.1-10.16a2.56,2.56,0,0,1,1.23.09,7.43,7.43,0,0,1,0,6.27C160.73,135.54,161,137,159.69,138Z"/><path class="cls-150" d="M160.79,134.19l0-6.27c2.36,1.75.85,4.14,1,6.25Z"/></g></g></svg>