<svg xmlns="http://www.w3.org/2000/svg" viewBox="0 0 294.92 268.62"><defs><style>.cls-1{fill:#fff;}.cls-2{fill:#efc031;}.cls-3{fill:#cd3529;}.cls-4{fill:#2b55a2;}</style></defs><title>Croatia</title><g id="Слой_2" data-name="Слой 2"><g id="Слой_1-2" data-name="Слой 1"><path class="cls-1" d="M281.67,124.8l-1.82-6.27L275.37,116l-3,1-2,4.78-15.21-2L238.63,60.91,57.49,60.54,53.4,206.78l199.92-.66,21.07-18L263,147.45l16.73-8.57,2-14.08Z"/><path d="M0,134.31c0,74.05,66.34,134.31,147.89,134.31a158.33,158.33,0,0,0,78.05-20.33l3.83,5.07.47-.27A151.63,151.63,0,0,0,269,221.49l.42-.49L209.7,172.52l-.39.51c-14.05,18.27-37,29.17-61.42,29.17C106.61,202.2,73,171.74,73,134.31s33.58-67.9,74.86-67.9c23.63,0,45.4,9.87,59.74,27.07l.36.44,63.8-43.51-.44-.52A151.3,151.3,0,0,0,228,14.26l-.48-.26-3.74,5.14A158.56,158.56,0,0,0,147.89,0C66.34,0,0,60.25,0,134.31Z"/><path class="cls-2" d="M1.24,134.31C1.24,60.93,67,1.24,147.89,1.24a157.31,157.31,0,0,1,75.8,19.24l.48.27,3.72-5.13A150.08,150.08,0,0,1,270,50.16L208.21,92.27c-14.58-17.22-36.52-27.1-60.32-27.1-42,0-76.1,31-76.1,69.14s34.14,69.13,76.1,69.13c24.56,0,47.68-10.89,62-29.16l57.73,46.87a150.34,150.34,0,0,1-37.53,30.58l-3.81-5.06-.48.28a157,157,0,0,1-77.91,20.42C67,267.37,1.24,207.68,1.24,134.31Z"/><path d="M237.37,202.72l-6.23-5.07-20.57-16.74-.39.43c-15.52,16.86-38.22,26.53-62.29,26.53-44.74,0-81.14-33-81.14-73.6s36.4-73.6,81.14-73.6c22.84,0,44.77,8.86,60.17,24.31l.36.36,53.47-36.46-.48-.53a145.8,145.8,0,0,0-31.64-25.83l-.49-.29-3.63,4.95A150.66,150.66,0,0,0,147.89,5.9C70,5.9,6.55,63.49,6.55,134.27S70,262.63,147.89,262.63a150.28,150.28,0,0,0,79.78-22.51l3.7,4.91.48-.31a145.68,145.68,0,0,0,28-22.86l.46-.49-22.93-18.65Z"/><path class="cls-3" d="M7.79,134.27c0-70.1,62.85-127.13,140.1-127.13A149.43,149.43,0,0,1,225.5,28.53l.49.29,3.61-4.94A144.27,144.27,0,0,1,260,48.67L208.56,83.74C193,68.29,170.87,59.43,147.89,59.43c-45.42,0-82.38,33.57-82.38,74.84s37,74.84,82.38,74.84c24.21,0,47.05-9.66,62.79-26.51l47.79,38.88a144.45,144.45,0,0,1-26.81,21.88L228,238.47l-.49.3a149,149,0,0,1-79.6,22.62c-77.25,0-140.1-57-140.1-127.12Z"/><path class="cls-1" d="M158.26,24.28a131.29,131.29,0,0,1,28.8,5.48l-7,17.76a108.68,108.68,0,0,0-23.88-4.47l2.12-18.77Zm65.08,49.39L240,62.31a120,120,0,0,0-24.72-19.86h0l-11.5,15.7a99.29,99.29,0,0,1,19.57,15.52Zm-18,135.83,11.73,15.56a119.48,119.48,0,0,0,22.86-18.68L224.44,193.8a99.06,99.06,0,0,1-19.12,15.7ZM182.5,220.3a108.74,108.74,0,0,1-23.75,5l2.71,18.71a130.43,130.43,0,0,0,28.59-6.17L182.5,220.3ZM134.23,225a108.5,108.5,0,0,1-23.11-5.47l-7,17.76a130.36,130.36,0,0,0,28,6.48ZM88.84,208.46A98.76,98.76,0,0,1,70.39,192.8L54.16,204.58A119.4,119.4,0,0,0,77,224ZM52.3,66.13a118.34,118.34,0,0,1,22.57-20L87,61.39A98,98,0,0,0,68.17,78.32L52.3,66.13Zm48.61-33.67a130.74,130.74,0,0,1,28-7.24L131.6,44a107.28,107.28,0,0,0-22.89,6ZM55,98.63l17,6.56A73.88,73.88,0,0,1,82.23,89.13L68.17,78.32A90.25,90.25,0,0,0,55,98.63Z"/><path class="cls-1" d="M147.89,42.74A109.66,109.66,0,0,0,131.6,44l2.34,16.56a90.55,90.55,0,0,1,13.95-1.08q3.21,0,6.38.23l1.87-16.61c-2.74-.2-5.5-.31-8.25-.31ZM180,47.52l-6.24,15.74a86.48,86.48,0,0,1,19.79,8.82l10.2-13.93A105,105,0,0,0,180,47.52Zm35.25-5.07,10.2-13.94A145.91,145.91,0,0,0,193.3,14l-6.24,15.75A126.61,126.61,0,0,1,215.27,42.45ZM147.89,23.87c3.49,0,7,.15,10.37.41l1.88-16.65a154.82,154.82,0,0,0-33.54,1L129,25.22a133.31,133.31,0,0,1,18.94-1.35Zm-47,8.59L94,16.93A144.58,144.58,0,0,0,64.06,32.47L74.87,46.08A125.81,125.81,0,0,1,100.91,32.46ZM52.3,66.13,38.19,55.28A125.25,125.25,0,0,0,18.9,84.68l17,6.57A109.22,109.22,0,0,1,52.3,66.13ZM87,61.39,97.75,74.93a85,85,0,0,1,17.86-9.51L108.71,50A103.38,103.38,0,0,0,87,61.39ZM20,187.43a126.39,126.39,0,0,0,16.66,24.93l6.84,0,10.7-7.76a109.73,109.73,0,0,1-16.93-24.49L20,187.43ZM77,224,66.55,237.71A144.56,144.56,0,0,0,97.91,253l6.2-15.7A126.21,126.21,0,0,1,77,224Zm70.87,20.77a133.42,133.42,0,0,1-15.84-.94l-1.92,16.57a155.07,155.07,0,0,0,33.71.2l-2.38-16.52a133.75,133.75,0,0,1-13.57.69Zm42.16-6.86,6.66,15.53a145.29,145.29,0,0,0,30.71-14.59l-10.37-13.76A126.41,126.41,0,0,1,190.05,237.88Zm15.27-28.38-10.44-13.84a85.11,85.11,0,0,1-19.09,9l6.71,15.64A104.16,104.16,0,0,0,205.32,209.5Zm-57.43,16.37q5.51,0,10.86-.53l-2.4-16.64c-2.79.27-5.62.41-8.46.41a90.47,90.47,0,0,1-11.72-.77L134.23,225A111.32,111.32,0,0,0,147.89,225.87Zm-36.77-6.31,6.24-15.79a85.5,85.5,0,0,1-18-9.08l-10.5,13.77A104.17,104.17,0,0,0,111.12,219.56ZM70.39,192.8l14.43-10.46a74.52,74.52,0,0,1-12-17.36L56,172.1a91.05,91.05,0,0,0,14.35,20.7ZM26,121.78,24,117l-3-1-4.48,2.55-1.81,6.27,2,14.08,9.45,4.77,11.1-23.34L26,121.78Z"/><path d="M141.82,72.58V81.3h-5.69V74.8H127v8.73h-6.38V79.76h-8.93v6.89h3.76v6.16h12.7V91.1h40v1.71h12.71V86.65h3.76V79.76H175.7v3.77h-6.37l.06-8.9h-9.17l0,6.67h-5.69V72.58Z"/><path class="cls-2" d="M153.28,73.82v8.72h8.17V75.87h6.64v8.9h8.85V81h6.46v4.41h-3.76v6.16H169.41V89.86H126.93v1.71H116.71V85.41h-3.77V81h6.46v3.77h8.86V76h6.63v6.5H143l0-8.72Z"/><path d="M195.52,95H100.14L108,168.39l40.15,14.89,40.15-14.89L196.21,95Z"/><path class="cls-2" d="M194.83,96.2c-.14,1.34-7.58,70.55-7.66,71.3l-39,14.45-39-14.45-7.66-71.3Z"/><path d="M190.94,98.72H104.73l6.67,66.8,36.77,13.69L185,165.52l6.67-66.8Z"/><path class="cls-4" d="M190.25,100c-.13,1.32-6.39,63.92-6.46,64.67l-35.62,13.26-35.61-13.26L106.09,100Z"/><path class="cls-1" d="M119.58,113a4.06,4.06,0,0,1-1.55,3.1,6.41,6.41,0,0,1-3.94,1.07,5.82,5.82,0,0,1-4.55-1.71,8.9,8.9,0,0,1,0-10.11,5.78,5.78,0,0,1,4.56-1.78,6.25,6.25,0,0,1,3.84,1.07,3.77,3.77,0,0,1,1.52,3h-2.66a2,2,0,0,0-.74-1.51,3.24,3.24,0,0,0-4.38.66,6.32,6.32,0,0,0-.85,3.63,6.46,6.46,0,0,0,.84,3.68,2.91,2.91,0,0,0,2.56,1.2,2.6,2.6,0,0,0,1.81-.62,2.25,2.25,0,0,0,.78-1.63Zm4.73-3.49H126a4.24,4.24,0,0,0,2.18-.4,1.56,1.56,0,0,0,.59-1.4,1.72,1.72,0,0,0-.56-1.48,4.1,4.1,0,0,0-2.21-.41h-1.7v3.69Zm-2.82,7.44V103.76h5.58a5.92,5.92,0,0,1,3.44.8,2.89,2.89,0,0,1,1.11,2.51,3.4,3.4,0,0,1-.62,2.17,3.5,3.5,0,0,1-2,1.08,2.53,2.53,0,0,1,1.61.66,3.27,3.27,0,0,1,.67,1.83l.24,1.9a8.21,8.21,0,0,0,.27,1.32,3,3,0,0,0,.41.89H129.1a2.87,2.87,0,0,1-.23-.64,6.92,6.92,0,0,1-.14-1l-.19-2c-.08-.8-.2-1.29-.39-1.45a2.29,2.29,0,0,0-1.36-.25h-2.48v5.3Zm14.86-6.63a6.33,6.33,0,0,0,.87,3.64,3.2,3.2,0,0,0,5.07,0,6.42,6.42,0,0,0,.86-3.64,6.2,6.2,0,0,0-.87-3.59,3.19,3.19,0,0,0-5.05,0,6.22,6.22,0,0,0-.88,3.59Zm-3,0a6.79,6.79,0,0,1,1.72-4.91,6.21,6.21,0,0,1,4.7-1.8,6.14,6.14,0,0,1,4.67,1.8,6.79,6.79,0,0,1,1.72,4.91,7.18,7.18,0,0,1-1.69,5,7,7,0,0,1-9.42,0A7.13,7.13,0,0,1,133.35,110.27Zm13.42,6.65,4.87-13.16H155l4.69,13.16h-2.93l-.95-2.83h-5.31l-1.05,2.83Zm4.48-5h3.87l-1.84-5.58-2,5.58Zm11.62,5v-11h-4v-2.14h10.79v2.14h-4v11Zm8.35,0V103.76h2.85v13.16Zm4.19,0,4.87-13.16h3.39l4.68,13.16h-2.92l-1-2.83h-5.3l-1,2.83Zm4.48-5h3.88l-1.85-5.58ZM130,131.51l-1.14-.85A23.23,23.23,0,0,0,127,133.4c0,.69,0,1.38,0,2a34.33,34.33,0,0,1,3-3.94Zm.93,28.21h0a63.38,63.38,0,0,1-3-8.84l-1.66.47-.35-1.19,1.71-.48a71.31,71.31,0,0,1-1.35-7.68l-.38.52-1-.72,1.2-1.63c-.13-1.49-.23-3-.29-4.46a22.52,22.52,0,0,0-1.92,9.15,22.77,22.77,0,0,0,8.25,17.54c-.42-.88-.82-1.77-1.2-2.66Zm7.3-34.51-2.33-.45a23.2,23.2,0,0,0-6.24,5l1.18.88a23.38,23.38,0,0,1,7.39-5.38Zm3.83,38.47-.06.22-.75,3.1a22.71,22.71,0,0,0,5.45.66c.43,0,.85,0,1.28,0q1.59-1,3.12-2.13c-3.22-.5-6.24-1.1-9-1.82Zm-1.2-.32a59,59,0,0,1-8.23-2.86q.79,1.77,1.68,3.48a22.62,22.62,0,0,0,5.74,2.69l.75-3.07.06-.24Zm9.81,3.95a22.46,22.46,0,0,0,4.46-1.27l-2.29-.29c-.74.55-1.46,1.06-2.17,1.56Zm-5.24-45.24a22.62,22.62,0,0,0-7.65,1.79c1.32.25,2.63.52,3.9.8,1.23-.9,2.47-1.76,3.75-2.59Zm22.09,28.17c.63-.79,1.23-1.61,1.8-2.44a24,24,0,0,0,.2-3,23,23,0,0,0-.48-4.65l-3.29.88a76,76,0,0,1,1.77,9.16Zm.4,3a22.37,22.37,0,0,0,.84-2.55l-1,1.26c.06.42.11.86.17,1.29Zm-22.6-29.59a27.38,27.38,0,0,1,12.36,2.75c-.5-.77-1-1.53-1.55-2.28a22.54,22.54,0,0,0-9-2l.18.29c-.66.41-1.31.84-2,1.28Zm14.7,4,0,.06q.91,1.52,1.74,3.09c1.46.62,2.9,1.28,4.32,2a22.84,22.84,0,0,0-7.56-7.46c.5.75,1,1.5,1.42,2.24Zm5.39,12.25,3.34-.89a22.69,22.69,0,0,0-1.59-4.23c-1.5-.81-3-1.57-4.58-2.26A48.83,48.83,0,0,1,165.45,139.89Zm-13.66-11.36c-.6,2.4-1.16,4.82-1.67,7.24l7.08,6.34,7.05-1.89a48.25,48.25,0,0,0-3.39-8.47,95.42,95.42,0,0,0-9.07-3.22Z"/><path class="cls-1" d="M133.09,133.89a74.68,74.68,0,0,0-5.67,6.64,68,68,0,0,0,1.46,8.83c2.17-.56,4.19-1,6.55-1.52l.52-.11,2.4-9.41c-1.67-1.5-3.51-3-5.26-4.43ZM131,132.28a32.77,32.77,0,0,0-3.86,5.36c0,.36,0,.71.08,1.06q2.29-2.91,4.85-5.59Zm23.24,20.53c.15-.68,1.93-9.18,2.06-9.81l-7.09-6.34-9.7,2-2.43,9.53,6.44,7.22Zm-14-27a21.35,21.35,0,0,0-8.36,5.59l1.1.85A76.45,76.45,0,0,1,140.24,125.78Zm14,38.91c1,.12,2,.24,3.06.34A23,23,0,0,0,162,161.8l-1.9-2C158.22,161.51,156.28,163.14,154.28,164.69Zm-10.49-8.1-1.41,5.89a92.76,92.76,0,0,0,10.17,2q3.47-2.61,6.69-5.52L154.55,154l-10.76,2.57Zm22.92-3.41c-1.72,1.94-3.66,3.91-5.7,5.8l1.88,2a23.27,23.27,0,0,0,4.1-5.6l-.07-.5ZM159,128.47a26.89,26.89,0,0,0-6.55-2.74c-.14.53-.27,1.06-.41,1.59,2.79.85,5.42,1.76,7.87,2.73-.3-.53-.6-1.06-.91-1.58Zm-7.76-3a24.78,24.78,0,0,0-7.89-.46l0,0q3.81.87,7.56,2c.13-.52.25-1,.38-1.53Z"/><path class="cls-4" d="M167.79,151.92l1-1.26a23.3,23.3,0,0,0,.56-2.86c-.57.83-1.17,1.65-1.8,2.44a76,76,0,0,0-1.77-9.16l3.28-.88c-.08-.4-.18-.8-.28-1.2l-3.34.89a48.83,48.83,0,0,0-2.83-7.38c1.55.69,3.08,1.45,4.57,2.26a19.24,19.24,0,0,0-1.11-2c-1.42-.72-2.86-1.38-4.32-2q-.82-1.57-1.74-3.09l0-.06-.12-.07c-.46-.76-.93-1.51-1.42-2.25a23.88,23.88,0,0,0-2.35-1.23c.53.75,1.05,1.51,1.55,2.28a27.38,27.38,0,0,0-12.36-2.75c.65-.44,1.3-.87,2-1.28l-.18-.3h-.4c-.43,0-.85,0-1.27,0-1.28.84-2.54,1.69-3.75,2.59-1.3-.28-2.6-.55-3.9-.8-.64.27-1.27.57-1.88.9l2.33.45a23.38,23.38,0,0,0-7.39,5.38l-1.18-.88c-.27.31-.54.63-.8.95l1.14.85a34.33,34.33,0,0,0-3,3.94c0-.69,0-1.37,0-2.06a22.82,22.82,0,0,0-1.18,2.31c.06,1.49.16,3,.29,4.46l-1.2,1.63,1,.72.38-.52a71.31,71.31,0,0,0,1.35,7.68c-.55.15-1.11.3-1.71.48l.35,1.19,1.66-.47a63.38,63.38,0,0,0,3,8.84h0q.57,1.35,1.2,2.67a22.34,22.34,0,0,0,2.17,1.59q-.89-1.71-1.68-3.48a59,59,0,0,0,8.23,2.86l-.06.24-.75,3.07q.6.18,1.2.33l.75-3.11.05-.21c2.81.72,5.83,1.32,9,1.82-1.08.77-2.12,1.48-3.12,2.12a22.15,22.15,0,0,0,2.69-.31c.73-.51,1.46-1,2.17-1.56l2.29.29a21.38,21.38,0,0,0,2.17-1c-1-.1-2-.22-3.06-.34,2-1.55,3.94-3.18,5.81-4.87l1.9,2c.3-.27.6-.56.89-.85L161,159c2-1.89,4-3.86,5.7-5.8l.21,1.66.06.5c.36-.7.69-1.41,1-2.13-.06-.43-.11-.87-.17-1.29Zm-15.3-26.19a26.89,26.89,0,0,1,6.55,2.74c.31.52.61,1.05.91,1.58-2.45-1-5.08-1.88-7.87-2.73.14-.54.27-1.07.41-1.59Zm-9.1-.75a24.78,24.78,0,0,1,7.89.46c-.13.5-.25,1-.38,1.53q-3.75-1.08-7.56-2Zm-3.15.8a75.19,75.19,0,0,0-7.26,6.45l-1.1-.86A21.35,21.35,0,0,1,140.24,125.78Zm-13.06,11.86a32.77,32.77,0,0,1,3.86-5.36l1.07.84c-1.7,1.78-3.32,3.65-4.85,5.58C127.23,138.35,127.21,138,127.18,137.64Zm8.25,10.2c-2.36.52-4.37,1-6.55,1.52a69.78,69.78,0,0,1-1.46-8.83,76.38,76.38,0,0,1,5.67-6.64c1.75,1.4,3.59,2.93,5.26,4.43l-2.4,9.41-.52.11Zm1.69.31,2.43-9.53,9.7-2,7.09,6.34c-.13.63-1.91,9.13-2.06,9.81l-10.71,2.56-6.45-7.22Zm15.43,16.3a92.76,92.76,0,0,1-10.17-2l1.41-5.89L154.55,154l4.69,4.91q-3.23,2.91-6.69,5.52Zm4.65-22.34-7.08-6.34c.51-2.42,1.07-4.84,1.67-7.24a92.73,92.73,0,0,1,9.07,3.22,48.46,48.46,0,0,1,3.39,8.47l-7.05,1.89Z"/><path d="M179.41,176.06H179v12.09h4.38a11.33,11.33,0,0,0,2.76-.24,3.51,3.51,0,0,0,1.55-.86,3.07,3.07,0,0,0,.71-1.09,3.9,3.9,0,0,0,.23-1.37,3.14,3.14,0,0,0-.69-2.07,3.5,3.5,0,0,0-1-.75,2.7,2.7,0,0,0,.66-.6,3.24,3.24,0,0,0-.68-4.35,6.52,6.52,0,0,0-3.56-.76Zm3.94,7.13a3.2,3.2,0,0,1,1.68.27,1,1,0,0,1,.31.88,1.12,1.12,0,0,1-.29.89c-.1.08-.48.25-1.7.25h-1.18v-2.29Zm0-4.54a2.34,2.34,0,0,1,1.31.23,1,1,0,0,1,.26.79c0,.53-.19.66-.26.71a2.44,2.44,0,0,1-1.31.23h-1.17v-2Zm-9.78,1.87h-8V192.6h8.64v-2.74h-5.29v-2.15h4.79V185h-4.79v-1.78H174v-2.72Z"/><path class="cls-2" d="M173.13,181.38v1H168v3.52h4.79v1H168v3.88h5.29v1H166.4V181.38Z"/><path d="M151.23,184.09h-.43v12.09h3.27v-4.52h1.36c1.28,0,1.5,1,1.94,3.84l.11.68h3.4l-.26-1.69c-.28-1.94-.54-3.54-1.81-4.34a2.7,2.7,0,0,0,.86-.68,3.25,3.25,0,0,0,.63-2.12,2.9,2.9,0,0,0-1.12-2.49,5.42,5.42,0,0,0-3.19-.76h-4.76Zm3.85,2.61a3.07,3.07,0,0,1,1.64.26,1.09,1.09,0,0,1,.3.91c0,.62-.24.78-.32.83a3,3,0,0,1-1.62.27h-1V186.7Zm-18.58-1.09a6.33,6.33,0,0,0-1.72,4.68,5.85,5.85,0,0,0,1.72,4.49,6.09,6.09,0,0,0,4.51,1.59,12.62,12.62,0,0,0,1.9-.15v.13h3.23v-7h-5.43V192h2.18v1.42l-.54.1-.9.06a3.22,3.22,0,0,1-2.48-.89,3.14,3.14,0,0,1-.84-2.46,4.26,4.26,0,0,1,.81-2.78,2.53,2.53,0,0,1,2.13-1,2.11,2.11,0,0,1,1.43.43A1.4,1.4,0,0,1,143,188l0,.41h3.15v-.64a3.41,3.41,0,0,0-1.39-2.85,5.82,5.82,0,0,0-3.57-1,6.42,6.42,0,0,0-4.72,1.7Z"/><path class="cls-2" d="M137.09,194.15a5,5,0,0,1-1.45-3.86,5.49,5.49,0,0,1,1.47-4.06,5.61,5.61,0,0,1,4.11-1.45,5,5,0,0,1,3.05.84,2.54,2.54,0,0,1,1,1.93h-1.5a2.21,2.21,0,0,0-.71-1.33,2.92,2.92,0,0,0-2-.65,3.39,3.39,0,0,0-2.81,1.33,5.08,5.08,0,0,0-1,3.32,3.86,3.86,0,0,0,4.19,4.21l1-.06,1.33-.24,0-.36v-2.65h-2.18v-.92h3.7v5.29h-1.51v-.3l-.51.11a12.07,12.07,0,0,1-2.25.2,5.28,5.28,0,0,1-3.92-1.35Z"/><path d="M116.71,176.06h-8.65v2.63h5.15l-5.47,6.71v2.75h9.54v-2.73h-5.54l5.4-6.6v-2.76Z"/><path class="cls-2" d="M116.28,176.93v1.58l-6.36,7.78h6.5v1h-7.81v-1.57l6.42-7.88h-6.1v-.9Z"/><path d="M127.41,180.52h-3.19l-4.47,12.08H123l.89-2.41h3.91l.82,2.41H132l-4.3-12.08Zm-1.51,4,1,3h-2.09l1.09-3Z"/><path class="cls-2" d="M127.11,181.38l3.68,10.36h-1.57l-.81-2.42h-5.14l-.89,2.42H121l3.83-10.36ZM125.52,183l-2,5.34h4.53l-2.16-6.51ZM156,185a4.66,4.66,0,0,1,2.68.6,2.06,2.06,0,0,1,.76,1.79,2.48,2.48,0,0,1-.43,1.58,2.57,2.57,0,0,1-1.45.77l-1.88.44,1.88.41c1.6.34,1.85,1.56,2.21,4.07l.11.69h-1.65c-.42-2.72-.72-4.51-2.79-4.51h-2.22v4.51h-1.54V185Zm-2.35.87h-.43v4h1.87a3.88,3.88,0,0,0,2.11-.42,1.75,1.75,0,0,0,.69-1.55,1.88,1.88,0,0,0-.65-1.61,3.8,3.8,0,0,0-2.15-.43Zm29.69-8.9a5.81,5.81,0,0,1,3.08.61,2.39,2.39,0,0,1,.47,3.1,2.24,2.24,0,0,1-1.19.74l-1.46.45,1.48.38a3,3,0,0,1,1.53.87,2.22,2.22,0,0,1,.5,1.51,3,3,0,0,1-.18,1.07,2.24,2.24,0,0,1-.51.78,2.66,2.66,0,0,1-1.16.63,10.74,10.74,0,0,1-2.54.21h-3.51V176.93Zm-1.59,5.4h-.43v4h2a4,4,0,0,0,2.22-.42,1.87,1.87,0,0,0,.64-1.59,1.8,1.8,0,0,0-.69-1.59,3.89,3.89,0,0,0-2.17-.42Zm0-4.55h-.43v3.7h2a3.2,3.2,0,0,0,1.81-.39,1.6,1.6,0,0,0,.62-1.42,1.75,1.75,0,0,0-.6-1.48,3.15,3.15,0,0,0-1.83-.41Z"/><path d="M242.67,63.93l-24.58,7.49,4.18,4.1-15.19,7.6,9.8,11.82,13-4.41,5.61,7.56-16.53,0,5.53,11.3-18.6-2.05,2.9-8.75L196.49,91l-4.85-1.24-2.48,22.63,6.6,7.52,22.68,11.58-16.93,12.38-2-2.5-9.5-3.32-3.9,4.56,1.3,18.19H201l29.48-11.75,3.94-3.05,7.29,7L226.48,167l0,19h-7.14l-15.65,6.35,2.56,3.39-3.13,3.8,6.2,7.88,14.64,0,17.94-14.12v-11l10.5-9.65,0,7.1,11.45,9.83-4.83,6-1.65-.81h-9.44l-8.92,9,3.26,3.14-1.78,3.84L246,214h21l.19-.23c8-10,13.61-19,17.67-28.16l.19-.42-8.4-7.17,1.55-12-1.73-7.53,12.49-10,5.93-22.92-6-16.54-13.06-5-7.37,1-3.63-5.43,10.27-7.09L265,87.18l7.43-10.12L261.9,75.62l2.81-8-21.9-3.7-.14,0Zm32.64,52.72,4,2.29,1.71,5.9-1.93,13.63-8.59,4.34-10.33-21.74,10.57,1.39,2.08-5Z"/><path class="cls-2" d="M242.89,65.16l20.17,3.41c-.4,1.16-2.82,8.07-2.82,8.07l10,1.37-7,9.59,9.59,5.09-9.59,6.63,4.73,7.09,7.83-1.12L288,110c.19.51,5.55,15.3,5.67,15.65l-5.73,22.15L275.12,158,277,166.1l-1.6,12.46,8.19,7c-4,8.87-9.43,17.55-17.13,27.24l-20.07,0L242,210.26l1.68-3.62-3-2.88,7.67-7.73H257l2.27,1.13,6.21-7.74-11.93-10.24c0-.53,0-9.36,0-9.36l-13,11.94v10.93l-17.13,13.48-13.61,0-5.21-6.62,3.12-3.79-2.18-2.88,13.93-5.65h8.14l.05-19.72,15.82-14.45-9-8.67-4.65,3.6-29.1,11.59h-12.2l-1.18-16.53,3-3.53,8.36,2.92,2.52,3.14,19.51-14.26L196.54,119,190.45,112c.06-.51,2.12-19.36,2.27-20.66l3.28.83,11.26,6.92-3.07,9.27,22.36,2.46-5.64-11.53,17,0L230.3,89.07l-13,4.43-8.26-10,15.34-7.68L220.45,72l22.44-6.84Zm32.28,50.23-3.26,1.11L270,121.11l-11.9-1.56L270,144.48l10.3-5.19,2.05-14.54-1.92-6.63-4.95-2.82-.26.09Z"/><path d="M242.88,67.1,224.23,73l2.64,3.37-15,7.63,5.92,7.75,12.89-5c.51.69,8.71,11.67,9.26,12.42l-1.49,1.64-14.63,0,6.19,12.3-27.86-3.52L205,99.67l-10.45-6.28-2,17.46,5.49,6.39,26.56,13.63-23.86,17.38-2.81-4L191,141.64l-1.95,2.27,1,13.88h10.21L229,146l5.37-4.47,11.38,11.6-16,15.15,0,20.45H219.61l-11.56,4.74,1.76,2.51-3.23,3.73,4.19,4.83h11.89l16.27-13.16,0-10.33,16.31-15.43c0,2.3,0,12.62,0,12.62l12.35,10.93-7.85,9.73-2.81-1.73H249l-6.38,6.44,3,2.73L244,209.63l2.84,1.49,18.61,0,.18-.23c7.32-9.1,11.25-15.29,15.55-24.53l.2-.42-8.06-6.87c.07-.62,1.41-13.19,1.41-13.19L273,157.16l13.27-11L291,126.36l-4.7-14.87L276,107.34l-8.12,1.26-2.09-.89-9.36,9.87,12.21,1.61s2-3.76,2.22-4.16l4.7-1.46,6.43,3.68,2.32,7.71c-.06.28-2.79,15-2.89,15.52L269.3,147l-14.76-30.19L265,105.7l-4.7-6.9,8-5.79-7.83-4.63,6.29-8.79-9.24-1.76L260,70.08l-16.94-3-.14,0Z"/><path class="cls-4" d="M243.11,68.33l15.23,2.72-2.51,7.74,8.72,1.65-5.95,8.32L266,93.11l-7.4,5.39,4.82,7.07-10.34,11,15.7,32.11,13.82-7.41,3.05-16.4-2.55-8.47-7.32-4.2-5.7,1.77L268,117.84,259,116.67l7.09-7.49,1.63.7,8.13-1.26,9.42,3.8,4.43,14-4.56,19.09-13.53,11.18,1.84,9.29c0,.19-1.45,13.65-1.45,13.65l7.83,6.68c-4.19,8.92-7.91,14.78-15,23.62l-17.71,0-1.51-.8,1.44-3-2.69-2.47c.75-.75,4.8-4.85,5.12-5.16h7.08l3.44,2.12,9.28-11.5-12.82-11.35c0-.54,0-14.94,0-14.94l-18.77,17.78V190.8l-15.47,12.51H211.33l-3.11-3.6,3.16-3.64L210,194l9.9-4.06H231l0-21.15,16.57-15.65-13.06-13.32-6.11,5.08L200,156.55h-8.81c-.07-1-.8-11.76-.84-12.22l1.06-1.23,5.68,2.13,3.31,4.77,26.5-19.31-28.13-14.44-5-5.79,1.76-15,8,4.8-3,10.41,31.6,4-6.33-12.57H239l2.54-2.81-10.43-14-12.9,4.95-4.45-5.82,15.06-7.65-2.47-3.14,16.8-5.3Z"/><path d="M53.83,63.89l-21.91,3.7,2.81,8L24.19,77.06s6.68,9.1,7.44,10.12L21.5,92.55l10.27,7.09-3.62,5.43-7.38-1L7.71,109l-6,16.54,5.93,22.92,12.48,10L18.41,166l1.54,12-8.39,7.17.18.42c4.07,9.19,9.69,18.14,17.68,28.16l.18.24,21,0,5.6-3.26-1.78-3.84,3.26-3.14-8.92-9H39.33l-1.64.81-4.84-6,11.46-9.83,0-7.1,10.5,9.66v11L72.73,207.4l14.64,0,6.2-7.88-3.13-3.8L93,192.35,77.35,186H70.2l0-19L54.91,153.06l7.29-7,3.94,3.06,29.47,11.74h13.6l1.3-18.19-3.9-4.56-9.49,3.32-2,2.5L78.19,131.53,100.87,120l6.6-7.52L105,89.81,100.14,91,87.89,98.57l2.9,8.75-18.6,2.05,5.52-11.3-16.53,0,5.61-7.56,13,4.41,9.8-11.82-15.19-7.6,4.17-4.1L54,63.93l-.13,0Zm-30,53.6,2.07,5,10.58-1.39L26.11,142.81l-8.59-4.34c-.08-.6-1.89-13.38-1.92-13.63l1.71-5.9,4-2.29,2.47.84Z"/><path class="cls-2" d="M76.19,72l-3.93,3.85,15.35,7.68-8.26,10-13-4.43L58.72,99.33l17,0-5.64,11.53,22.36-2.46-3.07-9.27,11.25-6.92,3.29-.83c.14,1.3,2.21,20.15,2.26,20.66L100.1,119,75.84,131.34,95.35,145.6l2.51-3.14,8.37-2.92,3,3.53-1.18,16.53H95.85L66.76,148l-4.65-3.6-9,8.67,15.82,14.45,0,19.72h8.14L91,192.89l-2.17,2.88L92,199.56l-5.21,6.62-13.61,0L56,192.68V181.75L43,169.81l0,9.36L31.14,189.41l6.21,7.73L39.62,196h8.63l7.68,7.73-3,2.88,1.68,3.62-4.34,2.52-20.08,0c-7.7-9.69-13.16-18.37-17.13-27.24l8.2-7L19.66,166.1,21.51,158,8.75,147.78,3,125.63,8.68,110l12.24-4.69,7.82,1.12,4.74-7.09-9.6-6.63,9.59-5.09-7-9.59,10-1.37-2.82-8.07,20.16-3.41L76.19,72Zm-55,43.3-4.94,2.82-1.92,6.63,2.05,14.54,10.3,5.19,11.85-24.93-11.89,1.56-1.92-4.61-3.26-1.11-.27-.09Z"/><path d="M53.61,67.06l-16.93,3,2.51,7.75L30,79.58l6.29,8.8L28.41,93l8,5.79-4.7,6.9L42.1,116.81,27.34,147l-12.17-6.53L12.29,125l2.32-7.7L21,113.56l4.7,1.46L28,119.18l12.21-1.6-9.36-9.88-2.1.9-8.11-1.26-10.28,4.15L5.61,126.36l4.74,19.82,13.27,11-1.73,8.75L23.3,179.1,15.24,186l.2.43c4.3,9.24,8.23,15.43,15.55,24.53l.19.23,18.61,0,2.83-1.48-1.55-3.28,3-2.73-6.38-6.44H39.7l-2.82,1.73L29,189.18l12.35-10.93,0-12.63,16.3,15.44,0,10.33L74,204.55h11.9l4.19-4.84L86.82,196l1.76-2.51L77,188.73H66.89l0-20.45-16-15.15,11.37-11.6L67.63,146l28.78,11.78h10.21l.95-13.89-1.95-2.27-6.85,2.58-2.81,4L72.11,130.87l26.56-13.63,5.48-6.39-2-17.46L91.67,99.66l2.85,9.94-27.86,3.52,6.19-12.3-14.63,0L56.73,99.2,66,86.78l12.89,5L84.8,84l-15-7.64L72.4,73,53.76,67.1l-.15,0Z"/><path class="cls-4" d="M70.33,73.63l-2.47,3.14,15.06,7.64-4.46,5.83-12.9-4.95-10.43,14,2.54,2.81,13.17,0-6.33,12.58,31.6-4-3-10.41,8-4.8c.19,1.66,1.69,14.52,1.75,15l-5,5.8L69.75,130.69,96.25,150l3.32-4.77,5.68-2.13c.32.37.85,1,1,1.23l-.84,12.22H96.65L68.28,144.93l-6.11-5.09L49.11,153.17l16.56,15.64,0,21.16H76.78l9.9,4.06-1.42,2,3.16,3.64-3.12,3.6H74.41L58.94,190.8l0-10.27L40.19,162.75l0,14.94L27.33,189l9.27,11.5,3.45-2.12h7.08l5.11,5.16-2.68,2.47,1.43,3-1.51.8-17.71,0c-7.1-8.84-10.82-14.7-15-23.62l7.83-6.68L23.14,166,25,156.67,11.46,145.49c-.1-.39-4.48-18.76-4.56-19.09l4.42-14,9.42-3.79,8.13,1.26,1.63-.7,7.1,7.49-9,1.17L26.59,114l-5.7-1.77-7.33,4.2L11,124.89l3.05,16.39,13.82,7.42,15.7-32.11-10.34-11,4.82-7.07-7.4-5.39L38,88.76l-5.94-8.32,8.71-1.66-2.51-7.73,15.24-2.72,16.8,5.3Z"/></g></g></svg>