<svg xmlns="http://www.w3.org/2000/svg" viewBox="0 0 300 300"><defs><style>.cls-1{fill:#fff;}.cls-2{fill:#354e93;}.cls-3{fill:#ce3b29;}</style></defs><title>Crvena_Zvezda</title><g id="Слой_2" data-name="Слой 2"><g id="Слой_1-2" data-name="Слой 1"><path class="cls-1" d="M150,1.49A148.51,148.51,0,1,1,1.49,150,148.51,148.51,0,0,1,150,1.49Z"/><path class="cls-2" d="M150,300C67.29,300,0,232.71,0,150S67.29,0,150,0,300,67.29,300,150,232.71,300,150,300ZM150,3C68.93,3,3,68.93,3,150s66,147,147,147,147-66,147-147S231.07,3,150,3Z"/><path class="cls-2" d="M150,16.34a133.66,133.66,0,0,0,0,267.32,135.55,135.55,0,0,0,16.71-1.07V17.41A135.55,135.55,0,0,0,150,16.34Z"/><path class="cls-3" d="M200.42,26.25v247.5q6.18-2.5,12.08-5.62V31.87A131,131,0,0,0,200.42,26.25ZM176.25,19V281q6.15-1.23,12.09-3s.2-253.47,0-256q-6-1.79-12.09-3Zm96.67,78.49v105a133.78,133.78,0,0,0,0-105ZM248.75,60V240a134.26,134.26,0,0,0,12.08-15.3V75.29A134.26,134.26,0,0,0,248.75,60ZM224.58,39.14V260.86a136.44,136.44,0,0,0,12.09-9.15V48.29A134.54,134.54,0,0,0,224.58,39.14Z"/><path class="cls-1" d="M81.75,83.83V39.37h30.51v7.54H90.78V57.42h18.57V65H90.78V83.83Zm37.91,0V39.37h9V59.11l18.25-19.74H159L142.17,56.71l17.65,27.12H148.21L136,63l-7.28,7.45V83.83Z"/><path class="cls-3" d="M60.68,93.37c-.79,19.87.28,61.41,18.1,103.66,12.82,30.4,34.31,61.17,70,84.5H149c85.36-55.74,89.48-154,88.12-188.16Z"/><path class="cls-1" d="M149.73,284h-1.66l-.62-.4C115.54,262.76,91.66,234,76.5,198,58.65,155.67,57.38,114.22,58.21,93.28l.09-2.38H239.49l.1,2.38c.67,16.83,0,50.5-11.66,86.84-14.3,44.38-40.4,79.2-77.59,103.48ZM63.07,95.85c-.62,21.18,1.16,60.32,18,100.22,14.57,34.56,37.39,62.33,67.84,82.55,80.16-53.23,87-143.69,85.82-182.77Z"/><path class="cls-1" d="M69.5,102.78c-.71,17.89.26,55.27,16.29,93.29q1.9,4.5,4,8.9l134.5-102.19Z"/><path class="cls-3" d="M91.32,153.37h45.62L151,109.93l14.11,43.44h45.62L173.9,180.14,188,223.53,151,196.7l-36.95,26.83,14.1-43.39L91.32,153.37Z"/><path class="cls-1" d="M115.54,225.54l-3.81-2.77,13.55-41.68L89.86,155.37l1.46-4.48h43.82l13.55-41.73h4.71L167,150.89h43.82l1.46,4.48-35.42,25.72,13.55,41.68-3.81,2.77L151,199.76Zm-16.6-69.7L131.1,179.2l-12.31,37.86L151,193.64l32.25,23.42L171,179.2l32.16-23.36h-39.8L151,117.94l-12.3,37.9Z"/></g></g></svg>