<svg xmlns="http://www.w3.org/2000/svg" viewBox="0 0 300 300"><defs><style>.cls-1{fill:#fff;}.cls-2{fill:#4e5b31;}.cls-3{fill:#d57800;}</style></defs><title>Cyprus</title><g id="Слой_2" data-name="Слой 2"><g id="Слой_1-2" data-name="Слой 1"><circle class="cls-1" cx="150" cy="150" r="150"/><path id="branch" class="cls-2" d="M143.07,226.09a.3.3,0,0,1-.13-.09l-.05,0c-.12-.12-.32-.31-.6-.63-.5-.57-1.18-1.4-1.77-2.14-1.18-1.47-2.15-2.73-2.33-3l-.3-.39-2.94-.91-2.14-1,1.15-1.28,3.93,1.68,2.93.6,5.43,4h0s-.79.65-1.57,1.36c-.34.31-.78.71-1.08,1.05a3.9,3.9,0,0,0-.36.43.73.73,0,0,0-.09.18l.34-.21.36.28-.74.07ZM122.92,220a15,15,0,0,1-7.52-2.1h0a4,4,0,0,1,1.09-1.17,6.94,6.94,0,0,1,4.19-1.19h0a22.38,22.38,0,0,1,9.21,2.56,13.6,13.6,0,0,1-7,1.91Zm-11.1-2.46a1.63,1.63,0,0,1-1.2-.5,2.47,2.47,0,0,1-.53-1.09,5.9,5.9,0,0,1-.14-1.59,1.63,1.63,0,0,1,.59-.14h0a2.38,2.38,0,0,1,2,1.64,1.68,1.68,0,0,1,.11,1.16.92.92,0,0,1-.89.52Zm19.53-2.26c-6.56-.94-9.34-3.31-10.52-5.13a5.84,5.84,0,0,1-1-3.77h0a4.18,4.18,0,0,1,1-.11c1.74,0,6.2.87,10.5,9ZM117.9,214a11.46,11.46,0,0,1-6.34-1.44,4,4,0,0,1-1.39-1.56,2.22,2.22,0,0,1-.22-.76,8.28,8.28,0,0,1,2.93-.63h.44c2.17,0,5.46.71,8.94,4.08h0a33.79,33.79,0,0,1-4.36.32Zm-13.56-.52c-3,0-7-.91-9.55-3.44h0a28.75,28.75,0,0,1,5.86-.78h.56c2.77,0,4.89.54,6.3,1.6a1.86,1.86,0,0,1,.82,1,.85.85,0,0,1-.39.81,6,6,0,0,1-3.38.76Zm-9.58-4.92a1.2,1.2,0,0,1-.93-.44,2,2,0,0,1-.42-.95,5.32,5.32,0,0,1-.11-1.39h0a1.15,1.15,0,0,1,.46-.11h0a1.43,1.43,0,0,1,1,.44,2.66,2.66,0,0,1,.63,1,1.51,1.51,0,0,1,.07,1,.71.71,0,0,1-.68.46Zm22.12-.49a1.58,1.58,0,0,1-1.2-.51,2.39,2.39,0,0,1-.54-1.08,5.38,5.38,0,0,1-.13-1.6,1.61,1.61,0,0,1,.59-.13h0a2.38,2.38,0,0,1,2,1.64,1.64,1.64,0,0,1,.1,1.15.91.91,0,0,1-.88.52Zm-10.78-.45c-5.94-.21-9-1.9-10.57-3.28a6.86,6.86,0,0,1-1.6-2.06,3.82,3.82,0,0,1-.34-.92h0a5.3,5.3,0,0,1,1.47-.22h.14c2,0,6.09.84,10.9,6.48Zm6.46-.6c-4.78-.73-7.49-2.78-8.92-4.38a9.15,9.15,0,0,1-2-3.3,7.79,7.79,0,0,1,1.47-.18h.41c2.4.06,6.77,1.15,9,7.86ZM88,204.74a18.65,18.65,0,0,1-4.52-.54c-2.5-.62-3.57-1.58-4-2.27a2.22,2.22,0,0,1-.39-1,1.54,1.54,0,0,1,0-.4h0a17.46,17.46,0,0,1,4-.5h.27a16.41,16.41,0,0,1,3.24.31,10.26,10.26,0,0,1,6.06,3.83h0a19.18,19.18,0,0,1-4.58.53Zm11.11-4a1.6,1.6,0,0,1-1.2-.5,2.48,2.48,0,0,1-.54-1.09,5.27,5.27,0,0,1-.13-1.58,1.63,1.63,0,0,1,.59-.14h0a2.38,2.38,0,0,1,2,1.64,1.58,1.58,0,0,1,.09,1.15.9.9,0,0,1-.87.52Zm-8.35-1.15a18.21,18.21,0,0,1-4.52-2c-2.1-1.29-4.66-3.57-5-7.12h0a2.6,2.6,0,0,1,.49-.06h.12a5.84,5.84,0,0,1,3.46,1.35c2,1.51,3.79,4.13,5.42,7.81Zm5.45-.2a14.6,14.6,0,0,1-3.58-2.3,22.89,22.89,0,0,1-6.31-8.81,2.88,2.88,0,0,1,1.09-.27h.29A5.43,5.43,0,0,1,91.53,190c1.77,1.91,3.35,5,4.69,9.32h0ZM82.08,199a2.61,2.61,0,0,1-2.63-1.41,2.77,2.77,0,0,1-.2-1.4h0a4.53,4.53,0,0,1,.9-.12h.07a3.76,3.76,0,0,1,3,1.45,1,1,0,0,1,.15,1c-.2.31-.65.46-1.34.46Zm-4-5.09a23.92,23.92,0,0,1-4.21-.36,4.37,4.37,0,0,1-3-2.78,9.49,9.49,0,0,1-.68-2.36h0c5,.15,7.38,1.61,8.49,2.82a4.38,4.38,0,0,1,1.21,2.61h0s-.72.07-1.79.07Zm5.22-5.22s-.58-.72-1.14-1.6A5.69,5.69,0,0,1,81,184.37c0-.77-.18-2.37-.28-3.26-.14-1.13-.27-2.09-.29-2.17h0c.13,0,3.14,1.17,3.14,4s-.28,5.67-.28,5.7h0Zm-3.9-.27h-.09a14.9,14.9,0,0,1-4.19-1.82,17.86,17.86,0,0,1-4.39-3.32,7.47,7.47,0,0,1-1.46-4.43,17,17,0,0,1,0-2.7,1.38,1.38,0,0,1,.5-.08,4.37,4.37,0,0,1,2.33,1,19.61,19.61,0,0,1,2.46,2.08,40.16,40.16,0,0,1,2.72,3h0c.1.18,1,1.73,1.63,3.23a10.79,10.79,0,0,1,.76,2.18,1.16,1.16,0,0,1,0,.67.36.36,0,0,1-.15.17.41.41,0,0,1-.16,0Z"/><path id="branch-2" data-name="branch" class="cls-2" d="M133.17,226.09a.3.3,0,0,0,.13-.09l0,0c.12-.12.32-.31.6-.63.5-.57,1.17-1.4,1.77-2.14,1.17-1.47,2.15-2.73,2.33-3l.3-.39,2.93-.91,2.15-1-1.15-1.28-3.93,1.68-2.94.6-5.42,4h0s.79.65,1.57,1.36c.34.31.77.71,1.08,1.05a3.69,3.69,0,0,1,.35.43.88.88,0,0,1,.1.18l-.34-.21-.36.28.74.07h0ZM153.32,220a15,15,0,0,0,7.52-2.1h0a4,4,0,0,0-1.09-1.17,6.94,6.94,0,0,0-4.19-1.19h-.05a22.34,22.34,0,0,0-9.2,2.56,13.6,13.6,0,0,0,7,1.91Zm11.1-2.46a1.63,1.63,0,0,0,1.2-.5,2.47,2.47,0,0,0,.53-1.09,5.9,5.9,0,0,0,.14-1.59,1.68,1.68,0,0,0-.59-.14h0a2.36,2.36,0,0,0-2,1.64,1.62,1.62,0,0,0-.11,1.16.92.92,0,0,0,.89.52Zm-19.53-2.26c6.56-.94,9.34-3.31,10.52-5.13a5.91,5.91,0,0,0,1-3.77h0a4.18,4.18,0,0,0-1-.11c-1.74,0-6.2.87-10.5,9Zm13.45-1.3a11.46,11.46,0,0,0,6.34-1.44,4,4,0,0,0,1.39-1.56,2.22,2.22,0,0,0,.22-.76,8.28,8.28,0,0,0-2.93-.63h-.44c-2.17,0-5.46.71-8.94,4.08h0a33.67,33.67,0,0,0,4.36.32Zm13.56-.52c3,0,7-.91,9.55-3.44h0a28.75,28.75,0,0,0-5.86-.78H175c-2.77,0-4.89.54-6.3,1.6a1.84,1.84,0,0,0-.83,1,.86.86,0,0,0,.4.81,6,6,0,0,0,3.38.76Zm9.58-4.92a1.2,1.2,0,0,0,.93-.44,2.15,2.15,0,0,0,.42-.95,5.32,5.32,0,0,0,.11-1.39h0a1.15,1.15,0,0,0-.46-.11h0a1.43,1.43,0,0,0-1,.44,2.68,2.68,0,0,0-.64,1,1.5,1.5,0,0,0-.06,1,.71.71,0,0,0,.68.46Zm-22.12-.49a1.58,1.58,0,0,0,1.2-.51,2.39,2.39,0,0,0,.54-1.08,5.38,5.38,0,0,0,.13-1.6,1.61,1.61,0,0,0-.59-.13h0a2.38,2.38,0,0,0-2,1.64,1.59,1.59,0,0,0-.1,1.15.91.91,0,0,0,.88.52Zm10.77-.45c6-.21,9-1.9,10.58-3.28a7,7,0,0,0,1.6-2.06,3.82,3.82,0,0,0,.34-.92h0a5.08,5.08,0,0,0-1.46-.22H181c-2,0-6.09.84-10.9,6.48h0Zm-6.45-.6c4.78-.73,7.49-2.78,8.92-4.38a9.15,9.15,0,0,0,2-3.3,7.79,7.79,0,0,0-1.47-.18h-.41c-2.4.06-6.77,1.15-9,7.86h0Zm24.55-2.3a18.53,18.53,0,0,0,4.52-.54c2.51-.62,3.58-1.58,4-2.27a2.36,2.36,0,0,0,.39-1,1.33,1.33,0,0,0,0-.4h0a17.46,17.46,0,0,0-4-.5H193a16.41,16.41,0,0,0-3.24.31,10.26,10.26,0,0,0-6.06,3.83h0a19.18,19.18,0,0,0,4.58.53Zm-11.1-4a1.6,1.6,0,0,0,1.2-.5,2.48,2.48,0,0,0,.54-1.09,5.67,5.67,0,0,0,.13-1.58,1.63,1.63,0,0,0-.59-.14h0a2.38,2.38,0,0,0-2,1.64,1.58,1.58,0,0,0-.09,1.15.89.89,0,0,0,.87.52Zm8.35-1.15a18.21,18.21,0,0,0,4.52-2c2.1-1.29,4.66-3.57,5-7.12h0a2.6,2.6,0,0,0-.49-.06h-.12a5.84,5.84,0,0,0-3.46,1.35c-2,1.51-3.79,4.13-5.42,7.81Zm-5.45-.2a14.6,14.6,0,0,0,3.58-2.3,23,23,0,0,0,6.31-8.81,2.88,2.88,0,0,0-1.09-.27h-.29A5.47,5.47,0,0,0,184.7,190c-1.76,1.91-3.34,5-4.68,9.32h0Zm14.13-.41a2.58,2.58,0,0,0,2.62-1.41,3,3,0,0,0,.21-1.4h0a4.53,4.53,0,0,0-.9-.12H196a3.74,3.74,0,0,0-3.05,1.45,1,1,0,0,0-.15,1c.2.31.64.46,1.34.46Zm4-5.09a23.92,23.92,0,0,0,4.21-.36,4.37,4.37,0,0,0,3-2.78,10,10,0,0,0,.68-2.36h0c-5,.15-7.39,1.61-8.49,2.82a4.38,4.38,0,0,0-1.21,2.61h0s.72.07,1.79.07ZM193,188.64s.58-.72,1.15-1.6a5.66,5.66,0,0,0,1.14-2.67c0-.77.18-2.37.29-3.26.14-1.13.27-2.09.28-2.17h0c-.13,0-3.14,1.17-3.14,4s.28,5.67.28,5.7Zm3.91-.27H197a14.9,14.9,0,0,0,4.19-1.82,18.06,18.06,0,0,0,4.39-3.32,7.47,7.47,0,0,0,1.46-4.43,17,17,0,0,0,0-2.7,1.38,1.38,0,0,0-.5-.08,4.39,4.39,0,0,0-2.34,1,20.34,20.34,0,0,0-2.45,2.08,37.71,37.71,0,0,0-2.72,3h0c-.1.18-1,1.73-1.63,3.23a10.79,10.79,0,0,0-.76,2.18,1.16,1.16,0,0,0,0,.67.4.4,0,0,0,.14.17.51.51,0,0,0,.17,0Z"/><path class="cls-3" d="M242.82,73.92l-.89.36-.35.13-1.07-.06-1,.49-1.8,1.22-.07.06-.67.17-.62-.26-.35.16-.13.72-.33.52-.41.29-1.43.15-1.21.62-1.57-.42-.72.29-1.55,1.39-.79.38-.28,0-1,0-.44.14-.67.64-1.25.1-.39.27-.61,1.23-.66.68-.38.08-.41-.15-.31.06-.14.79-.3.33-.84.28-.67.56-.59.3-.78,0h-.18l-.79.44-1.47.13-.62.58-.13.13-.29.17-.47.28-.11.07-.57-.1-.66.26-.27-.41-.45.27-.61,0-.75-.34-.58-.25-.42.06-.15.73v.08l-.44.59-.83.5-.11.14-.94,1.22-1.78,1.87-1.51.77-1.56.47-1.1.9-2.87,1.43-4.53,2.25-.93.3-1.33.21-2.37.87-2.09.63-.12,0-.41.13-2.95.89-1.38-.15-.81.3-2.12-.24-1.47,0-.93.2-1.75.84-3,1.42-1,.89-1.52.8-1.78.56v-.78l-.62.19-.44.15-1.45.22h-.8l-.5-.15-.08,0-3,1-3.3.32-1.64.53-1.24,0-.77.23-1.5.18-.54-.14-.13,0-4.44.19-2-.23-1,.22-1.63-.55-2.36-.27-.56-.17-1.24-.37-.57.33-.42,0-1-.36h-.36l-.83.3-.48-.12-.44-.36-1.05-.15L133,105l-3.55.47-1-.28-3.23-.94-.51,0-.65.48-1,.36-.83.21-1.14,0-1.32-.34-1.36-.66-.51-.12-1.12.11-.35,0-2.06-1.11-2.66-1.66-1.81-.87-.67-.11-.1.32.34,1.06.12,1,0,1,0,.6.17.54.65.72.27.73.2,2v2l-.32,3.23-.1.49-.38,1.67-.35,1.54-1.34,4.09-.36.51-.91.62-2,1.39-1.5.87-.48.2-1.22.09-.77,0-1-.51-.93-.24L98,123.66l-1.36-.28-1.49-.86-.38-.47L94,122l-1.13-.33h0l-.41-.13-.29-.08h0l-1.43,0-1.34-.62-.7-.17-1,0-1,.47h0l-.51.24-.65-.26-.46,0-.53.8-.08.12-.37.2h-.8l-.39.17-.51.22h0l-.46.2-.22.1h0l-.13,0-.25,0-.3.06-.53-.31-.29-.17-.47-.09-.26.18,0,.87-.23.52-.74.66-.75.66-.53.77-1.39,3.17-.87,1.28-.27.3-.91,1-.81.63-1.85,1.44-1.77.66-1.51.31h-.74l-1.39-.18-1.26-.39L63,133.39l-1.51-1.22L59.33,130l-.31-.19-.07,0-.68-.44h-.52l-.2.33-.11.48-.09.42L57.1,133l0,.14.13,1,1.66,2.32.52,1.24.08.14.34.57.27.44,0,0,.57,1.69-.4,1,.2.64-.5.39-.1.56,1.5,1.87.32.82L61.37,147l-.58.63-.16.17.08.49.69.61,1.16,1,.62,1.55.48.41.55-.12.3.24H65l.45.46.3.14.47.23.37.48.08,1.48.69,1.84v1.13l.43.74.13.58-.22,1.54.54.49.59-.12.39.06.61.51.74,1.14.73-.11.46.22,2.23,2,.51.25,0,0,.36.18.45.46.7-.47h.08l.76-.06.34.22.64.44.85,0,1.83.57.8.2,1.61,1,.68.42.41.33.53.44,1.08.46.92.23.5.11.38.15v0h0v0l2,.77,1.08.25,1,.37.73.26h.53l.76-.64.73,0,.61.15.59-.1.94-.57.18-.28.67-.31,2.24-.28.66.21,1.69-.73,1.12.31,1-.35,2.19.48.58.41.65.74h.8l-.3.5,1,1,.86,1.31.06.17.62,1.84.47.65.33.91v.59l-.5.38-.09.22,0,.09.11.24.19-.1.36-.2.44-.07.78.08.52.06.81-.41.54-.27.87.38h1l.4.17,1.13.52.58.05.21-.14.14-.32-.07-.38-.44-.5-1-1.11-.39-.57-.3-.82-.09-1.06-.07-.71.12-.94.26-.33.19-.75h0l0-.19.53-.7,1.41-.91,1.51-1.35,1.19-.79,1.23-.53,0-.15.13.05,3.14-1.06h0l1.39-.24,9.42.66.35-.1h0l.31-.88.17-.16.11-.11,1-.45.48-.07,1.35.33.55.14.88-.5h.62l1.29-.7.8,0,.3-.12,1.56-1.12,1.49-.43.39-.21.14-.07,1.53-.81,1-.75.84-.45.92-.23,2.41-.17L156,158l1-.14.63-.71.71-.29.52-.74.43-.62.6-.35,1.93-.12,2.28.29.3-.19.52-1.84.54-.34,1.45-2.12v-1.42l.24-.92-.16-1.66.19-1.68.9-2.13.8-.87,1.29-.86.65-.29.92-.15h0l.14,0,.24,0,3.18,0a11.46,11.46,0,0,1,1.16,0h1.06l2.69.47.19,0,.91.29,1,.82,1.11,1.08.21.2.71.3.22.1.59-.1.85-.44.64-.53.87-.48,0,0,.49-.74h0l.19-.3,1.68-.65,2-.12.23-.12.12-.06.52-.62h.49l1.19.43.83-.17.66.27.51-.06,1-.12,1,.73.61.08,2.14,1.25.11,0h.06l.12,0,.25-.07.38-.11,0,0,.05.07.24.34.33.05.4-.53-.16-.24-.06-.08-.76-.16-.69-1.17.65-.71-1-1.25-.17-.21-.06-.09-.35-.54-1.79-2.73L196.47,133h0l-.82-.66h0l-.29-.23-1.25-1.26-.89-1.19-.12-.25-.18-.4-.53-1.17-.93-.71-.76-.83,0-.05-1.56-2.12-.26-.36-.37-.21h-.78l-.07-.07-.05,0,0,0L188,123l.42-.1.18-.42-.8-2.3v-.08l-.06-.74.65-3.34.08-.41,1.11-2.25.68-.56.75-1.47.64-.94.62-.6.1-.07,1.11-.67.93-.13.89-.12,1.55.47,1.47,0,.29,0,.67-.08,1.1-.35.52-.32.27-.41.56-1.89.18-.6.35-.65,2-2.3,1.52-1.41,3.4-2.49,1.67-1,.85-.51,7.61-3.38,2-2,1-1,1.82-1.23,2.14-.87,1.83-1.45.4-.51.5-1.62.43-.1.37-.82.11-.24,1.5-1,.17-.09,5.81-2.91.85.12.45-.68,1.69-.28.31-.06.42-.21.35-.6v-.12l0-1.61.36-.44L242,75l.19-.25.19-.26.48-.33-.08-.2Z"/></g></g></svg>