<svg xmlns="http://www.w3.org/2000/svg" xmlns:xlink="http://www.w3.org/1999/xlink" viewBox="0 0 298.51 300.07"><defs><style>.cls-1{fill:none;}.cls-2{clip-path:url(#clip-path);}.cls-3{fill:#c50c30;}.cls-4{fill:#fefefe;}</style><clipPath id="clip-path" transform="translate(-1.11 -0.32)"><circle class="cls-1" cx="150" cy="150" r="150"/></clipPath></defs><title>Denmark</title><g id="Слой_2" data-name="Слой 2"><g id="Слой_1-2" data-name="Слой 1"><g class="cls-2"><path class="cls-3" d="M133.57.36c74.43,0,89.85,0,164.28,0,1.4,0,1.77.21,1.76,1.71q-.08,63.45,0,126.9a2.3,2.3,0,0,1-1.91.78c-1,0-2,0-3,0H138.54c-1.19,0-2.38,0-3.57-.06a2,2,0,0,1-2.15-2.11c-.06-.89-.06-1.79-.06-2.68q0-60.24,0-120.48C132.78,3,132.33,1.51,133.57.36Z" transform="translate(-1.11 -0.32)"/><path class="cls-3" d="M299.57,171.79q0,63.54,0,127.07c0,1.36-.36,1.53-1.58,1.53-74.49,0-90,0-164.46,0a2.3,2.3,0,0,1-.78-1.91c0-.89,0-1.79,0-2.68V176.36c0-1.07,0-2.14.06-3.21A2,2,0,0,1,135,171c.83,0,1.67-.06,2.5-.06,72.41,0,85.82,0,158.23,0C297,171,298.48,170.58,299.57,171.79Z" transform="translate(-1.11 -0.32)"/><path class="cls-4" d="M299.57,171.79c-74.28,0-89.56,0-163.83,0-1.79,0-2.22.4-2.21,2.2q.08,63.21,0,126.42H90.71a2.33,2.33,0,0,1-.78-1.91c0-1.07,0-2.14,0-3.21V176.66c0-4,0-4.06-4.06-4.06-39.88,0-40.77,0-80.65,0-1.37,0-2.89.45-4.05-.79V128.93a2.3,2.3,0,0,1,1.91-.78c1.07,0,2.14,0,3.21,0H85.84c4,0,4.06,0,4.06-4.06q0-59.82,0-119.64c0-1.37-.45-2.9.79-4h42.86q0,63.3,0,126.59c0,1.63.42,2,2,2,74.33-.05,89.67,0,164,0Z" transform="translate(-1.11 -0.32)"/><path class="cls-3" d="M90.71.36q0,63.29,0,126.59c0,1.62-.39,2-2,2-42.19-.05-45.39,0-87.59,0q0-63.53,0-127.06C1.11.59,1.37.32,2.66.32,45,.36,48.36.36,90.71.36Z" transform="translate(-1.11 -0.32)"/><path class="cls-3" d="M1.14,171.79c42.2,0,45.4,0,87.59,0,1.63,0,2,.39,2,2q-.07,63.29,0,126.59c-42.35,0-45.7,0-88,0-1.29,0-1.55-.26-1.55-1.55Q1.17,235.32,1.14,171.79Z" transform="translate(-1.11 -0.32)"/></g></g></g></svg>