<svg xmlns="http://www.w3.org/2000/svg" viewBox="0 0 238.8 300"><defs><style>.cls-1{fill:#fff;}</style></defs><title>Deportivo</title><g id="Слой_2" data-name="Слой 2"><g id="Слой_1-2" data-name="Слой 1"><path class="cls-1" d="M3.05,3.87H235.24V234.09S233,259,199.41,261.73s-60.11,1.18-79.61,30.4c0,0-16.74-29.61-67.28-29.61S3.05,235.27,3.05,235.27Z"/><path d="M3.82,0h235V230.05c-.92,34.14-23.43,35.1-50.29,36.24-23.07,1-49.75,2.11-65.86,28.41L119.4,300l-3.25-5.3C100,268.41,73.33,267.27,50.26,266.29,23.39,265.15.89,264.19,0,230.05V0ZM231.16,7.64H7.64V229.87c.7,27,19.94,27.8,42.92,28.78,23.52,1,50.51,2.15,68.84,27.22,18.31-25.07,45.29-26.22,68.81-27.22,23-1,42.23-1.79,42.95-28.78Z"/><path d="M3.05,188.2H235.24v39.86H3.05ZM106.8,15.86h4.93V29.49H106.8a10.07,10.07,0,0,0-2.16-4.14A14.28,14.28,0,0,0,100.39,22a22.41,22.41,0,0,0-5.85-2.22,32.05,32.05,0,0,0-7-.74,34.4,34.4,0,0,0-8.7,1,22.16,22.16,0,0,0-6.76,3,13.74,13.74,0,0,0-4.31,4.68,12.5,12.5,0,0,0-1.46,6.05,10.88,10.88,0,0,0,1.37,5.46,12.47,12.47,0,0,0,4.21,4.26,21.71,21.71,0,0,0,6.58,2.74,36.24,36.24,0,0,0,8.44.92,36.61,36.61,0,0,0,7.26-.69,23.4,23.4,0,0,0,6.09-2.11,17,17,0,0,0,4.53-3.3,10.69,10.69,0,0,0,2.52-4.23l6.14-.1a13.32,13.32,0,0,1-2.75,5.92,17.83,17.83,0,0,1-5.86,4.56,31.7,31.7,0,0,1-8.52,2.82A57.42,57.42,0,0,1,85.56,51a58.46,58.46,0,0,1-12.17-1.17,35,35,0,0,1-9.72-3.51,18.59,18.59,0,0,1-6.31-5.44A11.84,11.84,0,0,1,55.25,34a14.18,14.18,0,0,1,2-7.41,18.68,18.68,0,0,1,6.06-5.92,30,30,0,0,1,9.24-3.89,48.46,48.46,0,0,1,11.63-1.3,66.24,66.24,0,0,1,7,.35c1,.11,2,.24,3,.41s1.89.38,2.8.61c.54.13,1.09.29,1.64.48l1.75.59,1.78.66c.64.24,1.27.49,1.88.76v-.1l2.75-3.41Zm13,.35h36.42a56.3,56.3,0,0,1,11.39,1.25,31.08,31.08,0,0,1,8.93,3.39,17.1,17.1,0,0,1,5.81,5.21,11.88,11.88,0,0,1,2,6.64,13.63,13.63,0,0,1-2,7.27,17,17,0,0,1-5.82,5.55,29.46,29.46,0,0,1-9.1,3.48,57,57,0,0,1-12,1.14H119.8V47.25h3.47a.59.59,0,0,0,.23,0h.69a21,21,0,0,0,2.46-.13,4.32,4.32,0,0,0,1.47-.38,2,2,0,0,0,.87-.86,3.47,3.47,0,0,0,.32-1.58V22.12a2.93,2.93,0,0,0-.32-1.45,2.19,2.19,0,0,0-.87-.89,6.32,6.32,0,0,0-1.78-.41,26.27,26.27,0,0,0-3.07-.15l-3.47-.11v-2.9ZM153.66,47a32.84,32.84,0,0,0,8.51-.81,17.14,17.14,0,0,0,6.13-2.75A11.52,11.52,0,0,0,172,39a14.76,14.76,0,0,0,1.24-6.26A11.92,11.92,0,0,0,171.92,27a11.26,11.26,0,0,0-4-4.15,19.33,19.33,0,0,0-6.4-2.54,40.6,40.6,0,0,0-8.88-.87l-13.47-.1V47Zm-71,12.2C64.23,69.6,45.82,78.09,27.41,83.85l17.52,14.3v78.58l-13.29,6.45H95.07l-12.43-6.45Zm44.52.9H218.5c-13,20.58-44.53,68.58-56.85,123H123c20.41-48.18,47.69-51.62,67.67-90.34H137.42q-14.7,3.8-17.39,14.47l-7-2.58C122.89,90.57,126.55,78.59,127.16,60.14Z"/></g></g></svg>