<svg xmlns="http://www.w3.org/2000/svg" viewBox="0 0 300 300"><defs><style>.cls-1{fill:#b99c41;}.cls-2{fill:#fff;}</style></defs><title>Derby</title><g id="Слой_2" data-name="Слой 2"><g id="Слой_1-2" data-name="Слой 1"><path class="cls-1" d="M300,150A150,150,0,1,1,150,0,150,150,0,0,1,300,150"/><path d="M296.79,150A146.79,146.79,0,1,1,150,3.21,146.76,146.76,0,0,1,296.79,150"/><path class="cls-2" d="M293.58,150A143.58,143.58,0,1,1,150,6.42,143.57,143.57,0,0,1,293.58,150"/><path class="cls-1" d="M257.16,150A107.16,107.16,0,1,1,150,42.84,107.15,107.15,0,0,1,257.16,150"/><path d="M253.94,150A103.94,103.94,0,1,1,150,46.06,103.93,103.93,0,0,1,253.94,150"/><path class="cls-2" d="M250.72,150A100.72,100.72,0,1,1,150,49.28,100.72,100.72,0,0,1,250.72,150"/><path class="cls-1" d="M61.24,64a12.81,12.81,0,0,1,2.94,3.33,8.29,8.29,0,0,1,1.13,3.57,8.56,8.56,0,0,1-.64,3.64,12.91,12.91,0,0,1-2.24,3.64c-.79,1-1.68,1.93-2.56,2.88s-1.62,1.58-2.11,2a1,1,0,0,1-1.47,0L40.18,69.55a1,1,0,0,1-.25-1.41,13.32,13.32,0,0,1,.89-1.4c.37-.59.86-1.26,1.44-2s1.12-1.47,1.64-2.08a14.19,14.19,0,0,1,3.22-2.88,8.64,8.64,0,0,1,3.48-1.21,8.12,8.12,0,0,1,3.67.45,12.58,12.58,0,0,1,3.82,2.32L61.24,64m-3.45,4.12-3.16-2.62a7.63,7.63,0,0,0-2.87-1.66,3.17,3.17,0,0,0-2.32.16,6.34,6.34,0,0,0-2,1.64c-.58.74-1,1.32-1.4,1.81l11.37,9.51c.4-.43.92-1,1.5-1.71a5.82,5.82,0,0,0,1.28-2.3,3.15,3.15,0,0,0-.24-2.29,8.27,8.27,0,0,0-2.14-2.54"/><path class="cls-1" d="M81.48,58.21c.25.27.22.58-.06.92-.49.55-1.1,1.19-1.74,1.86S78.12,62.46,77,63.41a17.06,17.06,0,0,1-2.54,1.77A6.86,6.86,0,0,1,72,66a5.22,5.22,0,0,1-2.64-.52,9.17,9.17,0,0,1-2.69-2.23l-6.81-8a7.31,7.31,0,0,1-2-3.88A5.06,5.06,0,0,1,58.67,48a14.17,14.17,0,0,1,2.69-3c1.13-.94,2.08-1.71,2.91-2.29s1.5-1,2-1.35a.58.58,0,0,1,.87.06l1.92,2.24.15.49-.21.43-4.92,4.18a2,2,0,0,0-.89,1.38A2.4,2.4,0,0,0,64,51.7l1.9,2.2,6.27-5.32.46-.15.42.21,2,2.29.12.46-.18.43-6.3,5.35,2.2,2.57a2.31,2.31,0,0,0,1.44,1A2,2,0,0,0,73.74,60l4.93-4.16.46-.15.42.21,1.93,2.27"/><path class="cls-1" d="M100,47.17a.4.4,0,0,1-.21.58l-4.16,2.48-.37.06L94.75,50,87,45.27l-.27.22a9.82,9.82,0,0,1-1,.55c-.45.24-.76.43-.94.55l4.12,6.91.06.49-.27.39L85.12,56.5l-.46.06-.39-.28L73.35,37.94a1.36,1.36,0,0,1-.27-1.1,2.11,2.11,0,0,1,.73-1,43.46,43.46,0,0,1,5.29-3.64,18.26,18.26,0,0,1,3.51-1.65,8.55,8.55,0,0,1,3.22-.46,5.91,5.91,0,0,1,2.87,1,8.15,8.15,0,0,1,2.42,2.63l.21.37a7,7,0,0,1,1.07,4,6.3,6.3,0,0,1-1.35,3.55l8.72,5.26.24.24M86.68,36.87l-.22-.34a2.44,2.44,0,0,0-2-1.31,5.83,5.83,0,0,0-3,1c-.76.49-1.46.91-2.08,1.34l3.15,5.29c.4-.21,1.07-.58,2-1.1a5.91,5.91,0,0,0,2.57-2.36,2.6,2.6,0,0,0-.37-2.5"/><path class="cls-1" d="M116.76,34a7,7,0,0,1,.46,3.46A6,6,0,0,1,116,40.23a9.8,9.8,0,0,1-2.57,2.14,19.56,19.56,0,0,1-3.61,1.71c-.88.34-1.89.64-3,1a24,24,0,0,1-2.6.67,4.53,4.53,0,0,1-1.1.07,1.33,1.33,0,0,1-.7-.4,2.5,2.5,0,0,1-.55-1L95.15,26.35A2.18,2.18,0,0,1,95,24.79a2.07,2.07,0,0,1,1-1c.58-.33,1.37-.7,2.38-1.16s2-.83,2.81-1.13a21.83,21.83,0,0,1,5.29-1.31,6.68,6.68,0,0,1,4,.79A5.94,5.94,0,0,1,113,24.24l.19.55a5.34,5.34,0,0,1,.3,2.87,4.41,4.41,0,0,1-1.19,2.42,4.94,4.94,0,0,1,1.78.55,5.65,5.65,0,0,1,1.49,1.13,5.45,5.45,0,0,1,1,1.74l.18.46m-8.4-7.12-.15-.46a2.17,2.17,0,0,0-1.66-1.46,6.84,6.84,0,0,0-3.39.61c-1.22.46-2,.76-2.26.88l1.93,5.2,3.36-1.25c2-.77,2.75-1.93,2.17-3.52m3.39,8.84-.12-.31a2.81,2.81,0,0,0-1.47-1.65,3.42,3.42,0,0,0-2.66.18l-3.36,1.23,2,5.56c.52-.18.94-.37,1.31-.49s.77-.24,1.16-.4a5.91,5.91,0,0,0,2.88-1.8,2.45,2.45,0,0,0,.21-2.32"/><path class="cls-1" d="M133.74,14v.21l-2.67,11.71a5.85,5.85,0,0,1-.61,1.77,3.31,3.31,0,0,1-1,1l1.66,8.69-.13.45-.39.28-4.07.76-.46-.09-.27-.4-1.66-8.68a4.07,4.07,0,0,1-1.28-.61,7.09,7.09,0,0,1-1.26-1.41l-6.75-9.93-.06-.18.06-.37.33-.22,4.5-.85c.28-.06.52.09.74.43l5,8.16.25.34.3,0,.25-.15.12-.4,1.68-9.45c.09-.4.24-.61.52-.64l4.49-.86.4.06.22.31"/><path class="cls-1" d="M162,36l-.16.43-.55.25a16.6,16.6,0,0,1-4.77.3,12,12,0,0,1-3.55-.7,8.58,8.58,0,0,1-2.87-1.87,8.45,8.45,0,0,1-1.93-3.27,13.42,13.42,0,0,1-.52-4.7l.19-4a13.58,13.58,0,0,1,1-4.62,8.34,8.34,0,0,1,2.26-3.05,8.09,8.09,0,0,1,3.06-1.56,12.15,12.15,0,0,1,3.58-.34,27.21,27.21,0,0,1,2.87.3,13.89,13.89,0,0,1,1.8.46c.46.16.71.4.68.74l-.16,3.05a.54.54,0,0,1-.61.62h-.09c-1.07-.16-1.9-.25-2.48-.34s-1.34-.12-2.23-.15a4.6,4.6,0,0,0-2.08.36A3.36,3.36,0,0,0,154,19.53a7.82,7.82,0,0,0-.66,3.18l-.19,4a8.6,8.6,0,0,0,.33,3.24,3.33,3.33,0,0,0,1.29,1.71,4.3,4.3,0,0,0,2,.61H158a9.49,9.49,0,0,0,1.31,0h1.26c.49,0,.79,0,.95,0h.09c.4,0,.58.24.55.67L162,36"/><path class="cls-1" d="M184,30.94c-.7,3.45-2.08,5.78-4.1,7.06a10.61,10.61,0,0,1-13.36-2.72c-1.37-2-1.71-4.65-1-8.07l.76-3.73c.67-3.39,2-5.75,4.06-7a9.37,9.37,0,0,1,7.19-1.06,11.54,11.54,0,0,1,3.58,1.31A8,8,0,0,1,183.67,19,8.5,8.5,0,0,1,185,22.53a13.29,13.29,0,0,1-.25,4.71l-.73,3.7m-5.35-1.07.73-3.71a7.31,7.31,0,0,0-.09-4.24,3.63,3.63,0,0,0-2.69-1.87,4.21,4.21,0,0,0-2.26.13,3.25,3.25,0,0,0-1.62,1.49,9.81,9.81,0,0,0-1,2.94l-.76,3.7a10.09,10.09,0,0,0-.19,3.09,3.46,3.46,0,0,0,.88,2,4,4,0,0,0,2.09,1,3.49,3.49,0,0,0,3.18-.67,7.39,7.39,0,0,0,1.77-3.85"/><path class="cls-1" d="M205.19,40.41a11.88,11.88,0,0,1-2.33,3.82A7,7,0,0,1,200,46.1a7.79,7.79,0,0,1-3.27.25,14.92,14.92,0,0,1-3.52-1,15.17,15.17,0,0,1-3.18-1.77,7.49,7.49,0,0,1-2.1-2.48,6.46,6.46,0,0,1-.71-3.39,11.87,11.87,0,0,1,1-4.31l5.38-13.09L194,20h.46l3.82,1.59.37.34v.46l-5.42,13.08a8.32,8.32,0,0,0-.7,2.6,2.42,2.42,0,0,0,.52,1.8A4.54,4.54,0,0,0,195,41.18a4.64,4.64,0,0,0,2.26.4,2.48,2.48,0,0,0,1.65-.89,9.17,9.17,0,0,0,1.35-2.35l5.41-13.09.33-.33.49,0,3.79,1.56.38.33v.49l-5.42,13.08"/><path class="cls-1" d="M221.24,59.62a1,1,0,0,1-.77.51,1.22,1.22,0,0,1-.91-.18l-2.63-1.74a1.9,1.9,0,0,1-.64-.67,1.81,1.81,0,0,1-.19-1.08l1-14.39-.09-.4-.28.12-7.12,10.73-.4.28-.49-.09-3.14-2.09-.25-.39.09-.49,12-18.13a1.2,1.2,0,0,1,.79-.52,1.14,1.14,0,0,1,.89.19L221.76,33l.52.62a3.2,3.2,0,0,1,.06,1l-1,15,.09.33.27-.15,7.46-11.19.37-.24.49.09,3.15,2.08.27.4-.09.45L221.24,59.62"/><polyline class="cls-1" points="247.63 58.91 247.2 59.1 246.74 58.88 242.98 55.33 230.29 68.82 229.83 69.03 229.37 68.85 226.38 66 226.17 65.58 226.34 65.11 239.03 51.63 235.27 48.09 235.09 47.63 235.24 47.2 237.48 44.82 237.91 44.66 238.33 44.82 249.8 55.64 250.01 56.07 249.89 56.53 247.63 58.91"/><path class="cls-1" d="M264.59,75l-.18.1L252.76,78a6.37,6.37,0,0,1-1.83.24,3.3,3.3,0,0,1-1.34-.4l-7,5.32-.46.13-.43-.22-2.5-3.3-.13-.49.25-.43,7-5.32a3.66,3.66,0,0,1,0-1.4,5.66,5.66,0,0,1,.7-1.75l5.84-10.45.16-.16.33-.12.34.22,2.78,3.64a.75.75,0,0,1-.06.85l-5,8.1-.18.4.09.28.25.15.4-.06,9.17-2.7c.39-.09.67,0,.82.19l2.79,3.64.12.4-.22.3"/><path class="cls-1" d="M67.48,233.6l-.46.15-.46-.21-4.28-4.8a2.23,2.23,0,0,0-1.4-.89,2.52,2.52,0,0,0-1.56.8l-2.18,1.92,5.51,6.15.15.46-.21.42-2.24,2-.48.16-.43-.19L54,233.45,47,239.62l-.46.16-.43-.22-2.73-3.06-.15-.43.18-.45,12.27-11a7.31,7.31,0,0,1,3.85-2,4.91,4.91,0,0,1,3.3.64,13,13,0,0,1,3.06,2.62c1,1.11,1.77,2.05,2.38,2.85s1.07,1.49,1.41,2,.21.68-.06.92l-2.17,2"/><path class="cls-1" d="M76.22,254.08c-2.23,2.7-4.52,4.13-6.91,4.31A9.32,9.32,0,0,1,62.49,256a9.42,9.42,0,0,1-3.63-6.24c-.28-2.38.67-4.92,2.9-7.61l2.42-2.9c2.23-2.7,4.52-4.13,6.91-4.32a9.5,9.5,0,0,1,6.82,2.42,13,13,0,0,1,2.53,2.84,7.69,7.69,0,0,1,.61,7,13.59,13.59,0,0,1-2.41,4l-2.42,2.9M72,250.6l2.41-2.91a6.81,6.81,0,0,0,1.86-3.76,3.41,3.41,0,0,0-1.46-2.9,3.83,3.83,0,0,0-2-.95,3.15,3.15,0,0,0-2.11.55,10,10,0,0,0-2.27,2.08L66,245.62a9.73,9.73,0,0,0-1.62,2.62,3.16,3.16,0,0,0-.15,2.18,3.8,3.8,0,0,0,1.34,1.86,3.39,3.39,0,0,0,3.12.88A6.92,6.92,0,0,0,72,250.6"/><path class="cls-1" d="M94.63,264.94c-1.74,3-3.76,4.8-6.09,5.38a10.58,10.58,0,0,1-11.8-6.82c-.67-2.29-.15-4.95,1.59-8l1.9-3.27c1.74-3,3.76-4.83,6.08-5.38a9.38,9.38,0,0,1,7.16,1.25,11.43,11.43,0,0,1,3,2.38,7.36,7.36,0,0,1,1.64,3,8,8,0,0,1,.13,3.73,13.93,13.93,0,0,1-1.71,4.4l-1.9,3.28m-4.74-2.75,1.89-3.28A7.09,7.09,0,0,0,93,254.85a3.49,3.49,0,0,0-2-2.6,3.65,3.65,0,0,0-2.2-.62,3.24,3.24,0,0,0-2,.89A9.36,9.36,0,0,0,85,255l-1.9,3.3a9.68,9.68,0,0,0-1.19,2.88,3.43,3.43,0,0,0,.24,2.16,3.92,3.92,0,0,0,1.63,1.63,3.48,3.48,0,0,0,3.23.36,7.13,7.13,0,0,0,2.91-3.11"/><polyline class="cls-1" points="114.9 262.37 114.53 262.7 114.05 262.68 109.28 260.81 102.49 278.02 102.15 278.36 101.66 278.36 97.81 276.86 97.48 276.52 97.48 276.03 104.23 258.82 99.43 256.93 99.09 256.59 99.06 256.13 100.25 253.1 100.59 252.77 101.08 252.77 115.69 258.51 116.06 258.85 116.1 259.34 114.9 262.37"/><path class="cls-1" d="M130,279.09a6.86,6.86,0,0,1-1.49,3.15,5.28,5.28,0,0,1-2.57,1.68,8.89,8.89,0,0,1-3.31.43,18.81,18.81,0,0,1-3.94-.55c-.92-.18-2-.46-3-.76s-2-.62-2.54-.86a3.6,3.6,0,0,1-.95-.55,1.06,1.06,0,0,1-.37-.74,3,3,0,0,1,.06-1.13l4.29-18.86a2.22,2.22,0,0,1,.7-1.38,2,2,0,0,1,1.4-.27c.68.06,1.53.18,2.63.34s2.08.39,3,.58a21.07,21.07,0,0,1,5.14,1.8,6.72,6.72,0,0,1,2.87,2.81,6,6,0,0,1,.34,4.1l-.13.55a5.67,5.67,0,0,1-1.31,2.57,5,5,0,0,1-2.32,1.4,4.89,4.89,0,0,1,1.19,1.41,5.38,5.38,0,0,1,.61,1.77,5.92,5.92,0,0,1-.09,2.05l-.13.46m-5.1-1.31.06-.34a2.65,2.65,0,0,0-.34-2.17,3.52,3.52,0,0,0-2.32-1.32l-3.49-.79L117.47,279l1.37.3c.37.12.77.19,1.17.31a6.05,6.05,0,0,0,3.39.06,2.49,2.49,0,0,0,1.47-1.86m2-9.27.09-.46a2,2,0,0,0-.55-2.1,7.31,7.31,0,0,0-3.18-1.35c-1.28-.28-2.08-.46-2.39-.49l-1.19,5.35,3.49.8c2.1.48,3.36-.1,3.73-1.75"/><path class="cls-1" d="M151,287c0,.33-.21.49-.58.49l-4.4-.31c-.37,0-.55-.21-.62-.61l-.79-5.26-6.48-.43-1.5,5.14a.59.59,0,0,1-.68.52l-4.43-.31a.44.44,0,0,1-.49-.52l0-.06v-.09l6-19.35a4,4,0,0,1,2.08-2.66,7.06,7.06,0,0,1,3.42-.49,7.8,7.8,0,0,1,2.26.4,4.3,4.3,0,0,1,1.75,1.16,4.44,4.44,0,0,1,1,2.26l3.42,20,0,.1V287m-7-10.09L142.6,268c-.06-.32-.18-.46-.4-.49s-.36.15-.45.45l-2.51,8.62Z"/><path class="cls-1" d="M167.4,285.42a.69.69,0,0,1-.58.73,29.12,29.12,0,0,1-5.14.77,14.88,14.88,0,0,1-3.09-.06,6.68,6.68,0,0,1-2.47-.83,5,5,0,0,1-1.81-2,8.77,8.77,0,0,1-.86-3.4l-1.15-16.36.14-.46.43-.21,4.16-.31.46.19.22.4,1.19,16.35a2.45,2.45,0,0,0,.55,1.65,2.18,2.18,0,0,0,1.62.34l5.44-.37.43.19.24.39.22,3"/><path class="cls-1" d="M183.61,282.36c.06.37-.1.61-.49.8a28.75,28.75,0,0,1-5,1.38,17.36,17.36,0,0,1-3.06.3,7.27,7.27,0,0,1-2.57-.52,4.79,4.79,0,0,1-2-1.74,8.36,8.36,0,0,1-1.26-3.28l-3.15-16.14.12-.46.37-.27,4.1-.79.45.11.32.38,3.11,16.13a2.65,2.65,0,0,0,.77,1.59,2.13,2.13,0,0,0,1.64.16l5.36-1,.46.12.3.37.56,2.9"/><path class="cls-1" d="M208.83,273l0,.46-.4.49a16,16,0,0,1-4.19,2.3,11.49,11.49,0,0,1-3.48.85,7.84,7.84,0,0,1-6.52-2.57,13.66,13.66,0,0,1-2.5-4l-1.5-3.7a12.72,12.72,0,0,1-1.07-4.62,8.27,8.27,0,0,1,.7-3.7,7.94,7.94,0,0,1,2.11-2.71,11.77,11.77,0,0,1,3.09-1.84,23.35,23.35,0,0,1,2.75-.92,8.77,8.77,0,0,1,1.84-.37c.49-.06.76.07.91.37l1.17,2.84c.15.4.06.68-.31.83l-.09,0-2.38.76c-.55.19-1.26.46-2.08.8a4.09,4.09,0,0,0-1.72,1.22,3.1,3.1,0,0,0-.64,2.05,8.4,8.4,0,0,0,.77,3.18l1.49,3.67a8.76,8.76,0,0,0,1.71,2.78,3.06,3.06,0,0,0,1.9,1,4,4,0,0,0,2.08-.33c.28-.1.64-.28,1.1-.49s.85-.4,1.2-.55.73-.37,1.15-.55l.8-.43.09,0a.55.55,0,0,1,.8.36l1.19,2.84"/><path class="cls-1" d="M224.42,264.48a.71.71,0,0,1-.21.91,29.53,29.53,0,0,1-4.31,2.91,12.87,12.87,0,0,1-2.79,1.28,6.89,6.89,0,0,1-2.59.34,4.74,4.74,0,0,1-2.48-1,8.33,8.33,0,0,1-2.24-2.69L201.61,252l0-.49.28-.39,3.6-2.05.46-.06.4.27,8.2,14.22a2.37,2.37,0,0,0,1.22,1.25,2,2,0,0,0,1.59-.39l4.74-2.73.48,0,.4.28,1.47,2.57"/><path class="cls-1" d="M236,245.62a12.43,12.43,0,0,1,2.17,3.91,7,7,0,0,1,.22,3.42,7.83,7.83,0,0,1-1.41,2.94,13.74,13.74,0,0,1-2.6,2.56,13.06,13.06,0,0,1-3.12,1.9,7.32,7.32,0,0,1-3.21.61,6.84,6.84,0,0,1-3.27-1,13.56,13.56,0,0,1-3.25-3l-8.68-11.17-.09-.45.25-.43,3.27-2.54.46-.15.39.21,8.69,11.16a8.48,8.48,0,0,0,1.92,1.9,2.5,2.5,0,0,0,1.81.46,4.43,4.43,0,0,0,2.05-1,4.16,4.16,0,0,0,1.46-1.75,2.54,2.54,0,0,0,0-1.86,7.94,7.94,0,0,0-1.35-2.32L223,237.82l-.12-.46.25-.43,3.27-2.53.45-.16.43.22L236,245.62"/><path class="cls-1" d="M252.09,231.49a7.25,7.25,0,0,1,2,2.88,6,6,0,0,1,.18,3,11,11,0,0,1-1.28,3.09,21.93,21.93,0,0,1-2.45,3.15c-.64.7-1.37,1.44-2.2,2.26a26.52,26.52,0,0,1-2,1.77,3.45,3.45,0,0,1-.94.55,1,1,0,0,1-.83,0,3.19,3.19,0,0,1-.95-.64l-14.19-13.08a2.16,2.16,0,0,1-.85-1.29,1.94,1.94,0,0,1,.46-1.37c.36-.55.91-1.25,1.59-2.11s1.38-1.62,2-2.3a19.72,19.72,0,0,1,4.12-3.51,6.48,6.48,0,0,1,3.85-1.1,5.94,5.94,0,0,1,3.74,1.74l.43.4a5.15,5.15,0,0,1,1.55,2.41,4.24,4.24,0,0,1,.06,2.7,5.43,5.43,0,0,1,1.84-.34,4.79,4.79,0,0,1,1.83.37,5.21,5.21,0,0,1,1.72,1.07l.33.33M241.36,229l-.34-.33a2.13,2.13,0,0,0-2.1-.55,7,7,0,0,0-2.73,2.07c-.92,1-1.44,1.56-1.62,1.81l4,3.7,2.42-2.6c1.44-1.59,1.56-3,.34-4.1m7.06,6.33-.24-.24a2.94,2.94,0,0,0-2.05-.8,3.67,3.67,0,0,0-2.32,1.38l-2.42,2.63,4.38,4c.36-.4.66-.73.94-1s.55-.59.82-.89a5.63,5.63,0,0,0,1.75-2.91,2.32,2.32,0,0,0-.86-2.17"/><path d="M121.29,239l-.4.25c-.42,0-.88-.1-1.4-.16s-1.14-.24-1.9-.43a7.24,7.24,0,0,1-1.56-.55,3.3,3.3,0,0,1-1.13-.85,2.66,2.66,0,0,1-.58-1.32,4.58,4.58,0,0,1,.12-1.87l1.38-5.55a4.05,4.05,0,0,1,1.1-2.09,2.66,2.66,0,0,1,1.68-.73,8.27,8.27,0,0,1,2.17.24c.8.22,1.44.4,2,.59a6.72,6.72,0,0,1,1.22.46l.24.39-.39,1.56-.16.22-.24,0-3.39-.83a1.08,1.08,0,0,0-.89,0,1.35,1.35,0,0,0-.49.83l-.37,1.53,4.34,1.06.22.16,0,.27-.39,1.59-.16.22-.27,0L117.71,233l-.46,1.77a1.42,1.42,0,0,0,0,.92,1.17,1.17,0,0,0,.77.46l3.4.85.21.15,0,.28-.4,1.56"/><path d="M130,238.16a2.6,2.6,0,0,1-1.31,1.89,4,4,0,0,1-2.81.31c-.52-.09-1-.22-1.56-.37a8.36,8.36,0,0,1-1.47-.55l-.28-.46.28-1.38.12-.18.25-.06h.06l1.71.49c.52.12.92.24,1.13.27a1.59,1.59,0,0,0,.83,0l.3-.48-.09-.4-.43-.43-2-1.65a3,3,0,0,1-.92-1.25,2.82,2.82,0,0,1-.16-1.53,3,3,0,0,1,.65-1.38,2.39,2.39,0,0,1,1.31-.67,5.31,5.31,0,0,1,2,0c.43.09.8.18,1.14.27a6.92,6.92,0,0,1,.91.31,5.49,5.49,0,0,1,.85.37l.28.45-.24,1.38-.37.28,0,0c-.4-.13-.86-.25-1.37-.4s-1-.25-1.41-.34a1.49,1.49,0,0,0-.74,0l-.24.34.06.3.34.4,1.89,1.56a3.7,3.7,0,0,1,1.13,1.44,2.93,2.93,0,0,1,.12,1.47"/><path d="M136.49,241.39l-.4.31a9.23,9.23,0,0,1-1.34,0,5.49,5.49,0,0,1-1.26-.28,1.89,1.89,0,0,1-.82-.55,1.85,1.85,0,0,1-.43-1,4,4,0,0,1,0-1.47l.61-4.92-1.35-.4-.24-.15-.09-.25.15-1.13.15-.24.25-.07,1.37.16.16-1.41.39-.28,2.14-.12.06,0,.19.1.06.21-.22,1.8,1.41.19.22.12.09.28-.19,1.37-.12.25L137,234l-1.41-.18-.61,5,0,.52.12.24.37.12.85.1.31.33-.15,1.31"/><polyline points="140.25 241.7 140.13 241.94 139.85 242.01 137.83 241.85 137.62 241.73 137.53 241.46 137.68 239.32 137.83 239.07 138.08 239.01 140.1 239.2 140.34 239.29 140.4 239.53 140.25 241.7"/><polyline points="152.11 242.01 152.02 242.25 151.78 242.34 149.54 242.4 149.3 242.28 149.17 242.04 149.02 232.53 147.12 233.36 146.92 233.42 146.73 233.2 146.7 231.24 146.85 230.97 149.63 229.65 150.03 229.56 151.59 229.53 151.81 229.63 151.93 229.87 152.11 242.01"/><path d="M165.32,237.88a3.57,3.57,0,0,1-.4,2.11,3.23,3.23,0,0,1-1.47,1.43,6.66,6.66,0,0,1-2.35.65h-.18a6,6,0,0,1-2.42-.25,3.19,3.19,0,0,1-1.71-1.16,3.54,3.54,0,0,1-.74-2l0-.21a3.64,3.64,0,0,1,.28-1.59,3.46,3.46,0,0,1,1-1.28,3,3,0,0,1-1.62-2.45v-.21a3.3,3.3,0,0,1,.39-2,3.18,3.18,0,0,1,1.44-1.31,7.3,7.3,0,0,1,2.36-.58H160a5.38,5.38,0,0,1,3.36.6,3,3,0,0,1,1.41,2.54l0,.19a2.92,2.92,0,0,1-1.19,2.69,4.36,4.36,0,0,1,1.16,1.1,3.14,3.14,0,0,1,.52,1.53v.21m-3.24-5.2v-.09a1.72,1.72,0,0,0-.52-1.13,2,2,0,0,0-1.35-.31l-.18,0a1.8,1.8,0,0,0-1.28.52,1.45,1.45,0,0,0-.34,1.2V233a1.45,1.45,0,0,0,.49,1,1.53,1.53,0,0,0,1.19.35l.55-.07a1.63,1.63,0,0,0,1.13-.48,1.56,1.56,0,0,0,.31-1.14m.43,5.35,0-.18a1.67,1.67,0,0,0-.49-1.1,1.41,1.41,0,0,0-1.2-.4l-.52.06a1.33,1.33,0,0,0-1.12.58,1.78,1.78,0,0,0-.32,1.17l0,.18a1.6,1.6,0,0,0,1.86,1.53h.19a1.59,1.59,0,0,0,1.22-.58,1.8,1.8,0,0,0,.37-1.26"/><path d="M175.59,236.26a3.54,3.54,0,0,1-.21,2.14,3.38,3.38,0,0,1-1.38,1.53,5.94,5.94,0,0,1-2.26.82l-.22,0a5.86,5.86,0,0,1-2.41-.06,3.29,3.29,0,0,1-1.8-1,3.64,3.64,0,0,1-.89-2l0-.22a3.18,3.18,0,0,1,.15-1.59,3.46,3.46,0,0,1,.86-1.37,2.88,2.88,0,0,1-1.78-2.33l-.06-.18a3.37,3.37,0,0,1,.25-2,3,3,0,0,1,1.34-1.41,6.5,6.5,0,0,1,2.29-.76l.19,0a5.29,5.29,0,0,1,3.39.33,3.13,3.13,0,0,1,1.62,2.42l0,.19a3.07,3.07,0,0,1-1,2.78,3.49,3.49,0,0,1,1.21,1,2.76,2.76,0,0,1,.65,1.46l0,.22M172,231.31l0-.1a1.58,1.58,0,0,0-.59-1.07A1.88,1.88,0,0,0,170,230l-.19,0a1.87,1.87,0,0,0-1.25.6,1.58,1.58,0,0,0-.21,1.2v.09a1.58,1.58,0,0,0,.58,1,1.53,1.53,0,0,0,1.19.21l.55-.09a1.67,1.67,0,0,0,1.07-.58,1.56,1.56,0,0,0,.21-1.13m.86,5.32,0-.19a1.91,1.91,0,0,0-.58-1.06,1.4,1.4,0,0,0-1.22-.32l-.53.1a1.37,1.37,0,0,0-1.06.67,1.94,1.94,0,0,0-.19,1.19l0,.19a1.8,1.8,0,0,0,.65,1.16,1.56,1.56,0,0,0,1.31.27l.21,0a1.66,1.66,0,0,0,1.16-.7,1.77,1.77,0,0,0,.25-1.28"/><path d="M186,234.21l0,.27-.22.16-1.1.27.61,2.45,0,.24-.21.19-2.23.52-.21,0-.16-.22-.61-2.44L177,236.78l-.27,0-.16-.22-.4-1.62.07-.55,3.57-8.22.37-.34,1.8-.46.25.07.18.18,1.72,7.09,1.09-.24.28,0,.15.21.37,1.53m-4.65-.82-.92-3.71-.09-.06,0,0-1.77,4.23V234l.12,0Z"/><path class="cls-1" d="M230.14,158.33l-.43-.49-.12-.12c-6.31-7.53-11.22-15.12-17.58-25.7l0-.11v0a2.88,2.88,0,0,1,.49-1,17.87,17.87,0,0,1,1.89-2.39c.68-.7,1.19-1.19,1.19-1.19l.43-.42-.34-.49-.09-.13-8.4-12.75-.25-.36-.4,0s-1.71.15-4.7.27-7.31.31-12.51.31c-17.22,0-44.27-1.56-66.35-9.66l-2-.74,1.19,1.8c2.9,4.35,7.58,10.68,7.58,20.77a41.51,41.51,0,0,1-2.84,14.46c-2.32,6.34-7.86,9.89-12.06,11.74l-6.29-10.75,1.13-.26c2.67-.67,7.34-2.11,9.69-4.13,3.13-2.69,8.29-7.85,8.29-15.83a24,24,0,0,0-3.43-11.71,25.51,25.51,0,0,0-6.66-7.16,32.25,32.25,0,0,0-13.17-6.14,33.64,33.64,0,0,0-6.4-.77,24.81,24.81,0,0,0-8.25,1.53,27.06,27.06,0,0,0-11.07,7A21.08,21.08,0,0,0,76,107.47l-.23-.5a17.09,17.09,0,0,0-4.8,2.82,12,12,0,0,0-4.83,9.32,12.94,12.94,0,0,0,.16,1.83,11.67,11.67,0,0,0,.49,2.2c1,3.34,3.33,4.78,5.22,6.18s3.52,2.69,4.07,6l.1.77c0,.36.06.7.06,1A4.93,4.93,0,0,1,74.64,141a5.44,5.44,0,0,1-2.54,1.19,5.78,5.78,0,0,1-.65.09h-.12a.71.71,0,0,0-.55.71l.25.52.21.15.25.06a9.62,9.62,0,0,0,1.13.06,10.43,10.43,0,0,0,3.94-.76,6.82,6.82,0,0,0,3.33-3.12c2.75,1.41,10.24,5.95,13.89,14.61l.15.34.37.06a36.35,36.35,0,0,0,5.16.34c.49,0,1,.09,1.5.15a14.81,14.81,0,0,1,3.09.77l.06,0h.18l.62-.28a1.16,1.16,0,0,0,.24-.92,6.44,6.44,0,0,0-.12-1.16,2.35,2.35,0,0,0,1-.7,4.1,4.1,0,0,0,.82-2.72,7.74,7.74,0,0,0-.11-1.29h0c0-.24-.12-.61-.22-1.22s-.23-1.14-.37-1.79a83.94,83.94,0,0,1,3.44,7.68h0l-.82.11.3.8,1.23,3.48.21.55.58-.09,1.15-.17c.24.49.66,1.32,1.2,2.44,2.57,5.44,8,17.36,9.7,25.28l.18.76.77-.27a22.28,22.28,0,0,1,7.61-1.56,9,9,0,0,1,7.58,3.42,15,15,0,0,1,2.66,7,25.45,25.45,0,0,1,.28,3.75c0,.71,0,1.23,0,1.47l0,.24-.06,1.29,1.13-.64s1.06-.65,2.17-1.44A13.54,13.54,0,0,0,147,199a2.42,2.42,0,0,0,.88-1.59l0-.31h0l0-.1h0c-.06-.42-.12-1.78-.4-3.49a21,21,0,0,0-3.69-9.23c-2.3-3-6-5.29-11.71-5.29a26.39,26.39,0,0,0-4.91.53c-.13-.22-.3-.5-.48-.86-2.17-4.17-7.29-16.48-9.68-22.16a27.41,27.41,0,0,0,9.68-7.22,31.61,31.61,0,0,0,7.83-21.53,50.32,50.32,0,0,0-2.58-15.19C150,117,170,119,197.82,119c2.09,0,4.21,0,6.4,0l.09.12c.91,1.44,3.44,5.82,5.11,8a6.17,6.17,0,0,1-.62.69c-.58.58-1.41,1.29-2.08,1.83s-1.19.95-1.19.95l-.52.4.33.52s.86,1.35,2.14,3.43c3.9,6.16,11.91,19,14.5,23.94-.1.21-.46.7-.89,1.37-1.31,2-3.4,5.84-3.37,12.84a49.22,49.22,0,0,0,1,9.4c-3.65-4.08-13.78-13.8-36.46-17.41a57.74,57.74,0,0,0-9-.7,63.63,63.63,0,0,0-19.75,3.09c-4.43,1.74-7.09,3.6-8.68,5.41a7.34,7.34,0,0,0-2.08,4.95,7.08,7.08,0,0,0,.55,2.63v0h0c1.4,3.15,4,11.41,5.6,16.69.88,2.85,1.46,4.83,1.46,4.83l.22.76.73-.3a15.33,15.33,0,0,0,2.14-1.1,8,8,0,0,0,1.56-1.16,2.48,2.48,0,0,0,.83-1.71l0-.34V198a62.51,62.51,0,0,0-3.58-10.21c-1.32-3.12-2.48-5.9-2.76-8.1,0-.34,0-.68,0-1a4.5,4.5,0,0,1,.45-2.11c1.47-2.87,6.05-4.71,11.22-5.69a81.78,81.78,0,0,1,14.31-1.16c1.75,0,2.95,0,3.4.06h.06a67.71,67.71,0,0,1,21.08,6h0l-1.05.76c.25.49.83,1.47,1.68,2.81,1.26,2,3,4.71,4.41,7.21.7,1.26,1.31,2.45,1.77,3.46a8.38,8.38,0,0,1,.77,2.29l.09,1.78,1.13-1.38,3.36-4,.12-.13,0-.18,0-.4a10.15,10.15,0,0,0-.73-3,14.36,14.36,0,0,0-1.31-2.76h0v0l-.46-.46q.76.57,1.5,1.17c7.3,5.93,11.34,12.47,12.84,16.48l.36.52.68.24a2.17,2.17,0,0,0,1.34-.7,9.23,9.23,0,0,0,1.56-2.18,5.82,5.82,0,0,0,.83-2.5l-.06-.43v-.06l-.06-.15v0l0,0a62,62,0,0,1-5-16.08,33.91,33.91,0,0,1-.31-4.41c0-7.92,3.4-11.89,6.18-14.83Zm-8.09.61ZM77.78,127.18a55.36,55.36,0,0,1-4.43-4.56A10.21,10.21,0,0,1,71,116.14a7.79,7.79,0,0,1,0-1,8.36,8.36,0,0,1,2.78-5,12.4,12.4,0,0,1,1.4-1.2,6.44,6.44,0,0,0-.3.86,28.53,28.53,0,0,0-.92,6.94c0,7.91,4.28,11.76,8.2,12.59a38.1,38.1,0,0,1,.73,7.31V137l-2.25.59a15.15,15.15,0,0,0,.23-2.59A10.89,10.89,0,0,0,77.78,127.18ZM100,151.45l.31-.06.64-.06h.24l0,0h0a3.87,3.87,0,0,1,.47.43l-2.21-.21Zm.34-3.61-.19,0a.88.88,0,0,0-.7.4l-.22.64a14.27,14.27,0,0,0-.12,1.78l0,.15v.77c-1-.08-1.9-.15-2.47-.16a33.49,33.49,0,0,0-2.88-4.22c-1.53-2-3.27-4-4.73-5.68l-.63-.72a32.29,32.29,0,0,0,7.11.81,23.65,23.65,0,0,0,5.63-.63,36.51,36.51,0,0,0,.94,6.59c.09.4.18.77.28,1.13l.09.34A4.93,4.93,0,0,0,100.35,147.84Zm22.17-25.31h0c-1.23,5.69-3.92,9.17-6.73,11.25a14.21,14.21,0,0,1-7,2.73,15.2,15.2,0,0,0,3.34-8.51h0a3,3,0,0,1,.58-.39,5.74,5.74,0,0,0,1.93-2,12.3,12.3,0,0,0,1.28-5.08v-1a13.2,13.2,0,0,0-1.62-6.64c-1.44-2.51-4.16-4.92-8.95-6a9.31,9.31,0,0,0-2.54-.31c-4.41,0-10.07,2-12.72,5.69-1.2,1.74-1.56,4-2.39,6.27a10.47,10.47,0,0,1-4.56,5.93l-.12,0a3,3,0,0,1-1.53-1.26,16.39,16.39,0,0,1-1.68-2.63,9,9,0,0,1-.45-3.21,17.74,17.74,0,0,1,1.92-8,15.59,15.59,0,0,1,8.1-7.24,21.17,21.17,0,0,1,8.08-1.56,28.33,28.33,0,0,1,12.07,2.93c11.68,5.63,13,13.88,13,17.55C122.6,121.71,122.55,122.28,122.52,122.53Zm-21,13.21a28,28,0,0,0-2.94-2.66,6.56,6.56,0,0,1-2-4.89,5.6,5.6,0,0,1,1.09-3.49,5.72,5.72,0,0,1,3.65-2,7.75,7.75,0,0,1,1.16-.09,5.78,5.78,0,0,1,3.85,1.35,4.79,4.79,0,0,1,1.56,3.63A8.79,8.79,0,0,1,107,131a13.65,13.65,0,0,1-5.3,6,1,1,0,0,0,.17-.5A1.48,1.48,0,0,0,101.54,135.74Zm-15.38,2.38,0-.27a3.45,3.45,0,0,1,.7-1.71c.18-.31.4-.61.58-.86l.22-.4.15-.55-.09-.36v0l0,0a10.06,10.06,0,0,1-1.49-4.72l.2-.07h0v0c2.11-1,3.67-3.51,5-6.11a46.44,46.44,0,0,0,2.53-6.51,6.53,6.53,0,0,1,2.94-3.39,10.58,10.58,0,0,1,5.63-1.63,10.17,10.17,0,0,1,5.32,1.5,5.61,5.61,0,0,1,2.38,2.9,9.76,9.76,0,0,1,.58,3.52c0,.41,0,.79,0,1.13a11.47,11.47,0,0,0-7.69-4.13h-.37a12,12,0,0,0-7,2.48,11.08,11.08,0,0,0-4.22,9.11v.22c.09,1.92,1.37,4.37,2.63,6.42s2.48,3.66,2.48,3.66l.24.34.4-.06a21.94,21.94,0,0,0,2.73-.51l-.2.09a21.05,21.05,0,0,1-7.94,1.49,21.54,21.54,0,0,1-2.3-.12c-.34,0-.58-.05-.72-.07l-.07,0h-.06l-.29,1.3c-.54-.61-1-1.16-1.4-1.61l-.63-.73-.16-.22ZM212,131.86ZM71.72,142.35Zm129.65,34.17-.17-.09.77.4Z"/><path d="M199.59,176.34c.71,1.56,8.5,12.81,8.68,16l3.34-4c.21-1-1.13-4.55-1.9-5.59-2.26-2.63-9.66-6-10.12-6.39"/><path d="M228.12,194.41a63.07,63.07,0,0,1-5-16.24c-1.6-11.16,2.72-16.35,6.05-19.84l-.12-.12c-6.39-7.64-11.31-15.29-17.74-25.93l-.06-.33c0-1.59,3.79-5.2,3.79-5.2l-.08-.12-8.41-12.78s-48.22,4-83.87-9.11c4.06,6.11,12,16.54,4.83,35.86-2.54,6.91-8.69,10.58-13,12.41l-7.18-12.29.46,0c.88-.06,8.25-1.86,11.06-4.31,4.44-3.79,12.69-12.41,4.75-26.69-1.78-3.27-9.12-10.91-19.36-12.93-4.77-.92-8.1-1.38-14.28.74-10,3.36-14,10.6-14.4,12.5-3.09,12.84,2.6,18,7.22,18.74a38.18,38.18,0,0,1,.82,8.77l-3.57,1-.34.09.09-.24c.43-1.62,1.35-6.85-2.48-10.7-2.74-2.78-7.54-6.21-7-12.54.4-4.46,5.66-7.49,5.66-7.49s-10.4,3.79-9,13.21a21.27,21.27,0,0,0,.49,2.08c2,6.18,8.2,5.23,9.29,12.26a6.7,6.7,0,0,1,.13.8c.55,5.35-3,6.63-4.62,6.93a6.53,6.53,0,0,1-.73.09c-.43,0,6.11,1,8.07-4,2,1,10.76,5.56,14.86,15.28a38.56,38.56,0,0,0,5.07.31c.52,0,1.05.09,1.6.15a19.9,19.9,0,0,1,3.2.8c.25.06.25-.92-.09-2.17-.52-1.87-1.77-4.28-4-4.83-.37-.07-.31,2.26-.31,2.26s1.31-.34,1.77,0a4.57,4.57,0,0,1,1.44,1.87s-6.08-.65-6.79-.52a34.8,34.8,0,0,0-3-4.53c-1.53-2-3.28-4-4.72-5.63a46.43,46.43,0,0,1-3.05-3.6c-.52-1.59,1.77-3.67,1.56-4.1a10.61,10.61,0,0,1-1.59-5.59l.67-.25c3.58-1.59,6.33-9.75,7.1-12.2,1.13-3.88,8.49-7.82,14.91-3.88,4.69,2.78,3,9.91,3,9.91s-2.93-4.83-8.19-5.2a10.61,10.61,0,0,0-10.82,11.07c.09,3.3,5,9.72,5,9.72a18.19,18.19,0,0,0,3.55-.83c1.12-.48.49-.83-2.51-3.42-3.45-3-3.49-10.49,3-11.65,5-.8,9.35,3.18,6.45,9.38-5.17,11.19-19.11,8.75-19.11,8.75s7,1.81,13.33,0a38.52,38.52,0,0,0,.94,7.33c.1.41.19.77.28,1.11a27,27,0,0,0,1.38,3.85,5.11,5.11,0,0,0,.43.82s1.74-.43,1.22-4c0-.43-1.44-6.85-1.26-6.61,1.29,1.23,4.5,8.29,5.69,11.56l.06.19a5.49,5.49,0,0,1-.79.18h-.06L111,158l1.68-.28s8.84,17.61,11.19,28.34c14.16-5.19,17.89,3.21,18.81,9.42a29.43,29.43,0,0,1,.24,5.38l0,.21s4.59-2.66,4.25-3.79l0-.12c-.28-2.11-.49-20.94-20.34-16.87-1.43-1.78-8.22-18.11-10.76-24.19,4-1.19,25.44-13.33,14.8-44.51,19.85,4.92,41.74,7,73.75,6.6.18,0,3.73,6.33,5.63,8.63.49.66-4.22,4.21-4.22,4.21s13.39,21.19,16.72,27.61c.52,1.1-7.43,5.71-2.81,25.68.61,3-6.33-13.64-37.73-18.68a63,63,0,0,0-28.34,2.38c-13.09,5.14-10.09,11.19-9.79,12.08,1.44,3.24,4,11.46,5.65,16.75.86,2.85,1.44,4.87,1.44,4.87s4.44-1.84,4.1-3.52l0-.1c-1.59-7.06-5.75-13.63-6.33-18.37a6,6,0,0,1,.49-3.48c4.43-8.41,29.26-7.13,29.69-7.16,29.29,3.64,42.68,21.8,45.8,30.09.52,1.53,3.73-3,3.37-4.65l-.07-.15M84.48,135.92c1.56-.7,2-2.51.18-2.93l.19-.37c1.86,1.74,2.16,2.81-.37,3.3m27-8c0-1.16,3.28-.43,3.8-7.49.06-2,.49-10.42-10-13-4.16-1-11.62,1-14.52,5.14-2.14,3-1.56,9-7.19,12.38-1.38.76-3.3-2.24-4.31-4.16s-1.8-14.58,9.94-19.48c5-2,12.14-2.66,20.73,1.44,14.58,7,13.58,18.31,13.29,19.93-2.71,12.82-12.86,15-16,14.49,2.2-2,3.82-4.92,4.24-9.26"/></g></g></svg>