<svg xmlns="http://www.w3.org/2000/svg" viewBox="0 0 300.05 300"><defs><style>.cls-1{fill:#334397;}.cls-2{fill:#fff22d;}.cls-3{fill:#00acec;}.cls-4{fill:#fff;}</style></defs><title>Dinamo_Kiev</title><g id="Слой_2" data-name="Слой 2"><g id="Слой_1-2" data-name="Слой 1"><path class="cls-1" d="M150.05,300c82.67-.05,150-67.38,150-150S232.72,0,150.05,0V7.88C228.4,7.93,292.12,71.65,292.12,150S228.4,292,150.05,292.07V300Zm0-12.25V255.59c58.18-.05,105.59-47.41,105.59-105.59A105.76,105.76,0,0,0,150.05,44.41V12.2C226,12.25,287.8,74,287.8,150S226,287.7,150.05,287.75Zm0-35.41V47.61c56.35,0,102.34,46,102.34,102.39A102.56,102.56,0,0,1,150.05,252.34ZM150,0C67.38,0,0,67.33,0,150S67.38,300,150,300h.05v-7.93H150C71.7,292.07,7.93,228.35,7.93,150S71.7,7.88,150,7.88h.05V0Zm.05,12.2V44.41H150C91.87,44.41,44.46,91.82,44.46,150S91.87,255.59,150,255.59h.05v32.16H150C74.14,287.75,12.25,226,12.25,150S74.14,12.2,150,12.2Zm0,35.41V252.34H150C93.7,252.34,47.71,206.4,47.71,150S93.7,47.61,150,47.61Z"/><path class="cls-2" d="M149.9,50.86A99.31,99.31,0,0,0,50.76,150c0,54.52,44.51,99,99.14,99S249,204.52,249,150A99.34,99.34,0,0,0,149.9,50.86Z"/><path class="cls-1" d="M167.22,85.21c2.55-8.08,4.48-23.68-7-24a15.51,15.51,0,0,0-6.3,1.37V73.93a6.75,6.75,0,0,1,2.24-1c4.67-1.12,4.78,7,1.78,10.41-1.17-.2-2.59-.35-4-.5v20.73c2.65-3.25,5.34-6.51,8-9.66,11.43,1.32,20.94,20.07,21.14,32.42,2.34,15.45-7.37,47.56-29.12,49.6v10.51c30.39,2.85,48.22-19.15,51.22-43.34V128.56a50.78,50.78,0,0,0-11.53-26.93,64.71,64.71,0,0,0-26.43-16.42ZM154,157.27V117.53c3.61,2.85,8.24,4.27,11,5.13A156.62,156.62,0,0,1,154,157.27Zm0-94.72a19.49,19.49,0,0,0-4.47,2.69V79a15.82,15.82,0,0,1,4.47-5Zm-4.47,123.17,2.85.61,1.62.15V176a22.25,22.25,0,0,1-4.47,0v9.75ZM154,82.88v20.73c-1.52,1.83-2.94,3.66-4.47,5.49V97.41A56.51,56.51,0,0,0,153,91.82c-.56-.56-1.93-.71-3.46-.71V82.77a25.92,25.92,0,0,1,4.47.11Zm0,34.65v39.74c-1.37,3-2.84,6.09-4.47,9.09V111.74A14,14,0,0,0,154,117.53Zm-4.47-52.29c-4.11,3.26-8.38,9-11.48,18.86a68.78,68.78,0,0,0-17.48,5.48V103.4c5.23-7.87,12.5-9.8,16.36-9.45l-.2,13.93-9.25,5.64.46,8.28,9.6-3.46c3.15,17.89.71,48-4.17,54a43.88,43.88,0,0,0-12.8-3.61V175c3.81.36,7,1.52,7,2.74s-3.45,2.7-7,2.75v6.76a41.25,41.25,0,0,0,17.48-4c3.86,1,7.52,1.68,11.48,2.49V176a30,30,0,0,1-4.88-.92q2.56-4.28,4.88-8.69V111.74c-.2-.61-.4-1.27-.56-1.93l.56-.71V97.41A17.93,17.93,0,0,1,147,100.2a16.27,16.27,0,0,1-.61-9c.82,0,2-.1,3.1-.1V82.78a7.39,7.39,0,0,0-1.52.15,12,12,0,0,1,1.52-4V65.24Zm-29,74.75V125.41a18.09,18.09,0,0,0,8.43,3.35C128.35,135.11,124.9,138.36,120.53,140Zm0-50.41a47.69,47.69,0,0,0-15.8,12c-5.9,6.91-8.49,13.66-8.8,19.61v2.29c.56,10.92,8.9,18.44,17.59,17.83a25,25,0,0,0,7-1.37V125.41c-5.49-4.22-4.83-10.93-3.66-14.38a30.8,30.8,0,0,1,3.66-7.63V89.58Zm0,79.12c-8.54-1-14.53,1.57-17.74,4.57-2.28,4.32,1.94,11.28,12.5,13.42a34.48,34.48,0,0,0,5.24.51v-6.76h-.2c-3.61,0-6.81-1.32-6.81-2.65s3.1-3.2,7-2.84h0V168.7Z"/><path class="cls-3" d="M94.87,200.61H204.73v31.81H94.87Z"/><path class="cls-4" d="M36.28,207.77h7.37l2.23-6.91,2.29,6.91h7.32l-6,4.37,2.29,7-5.95-4.32-5.94,4.32,2.29-7Zm209.25,0h7.37l2.23-6.91,2.29,6.91h7.32l-5.95,4.37,2.29,7-5.95-4.32-5.94,4.32,2.28-7Z"/><path class="cls-1" d="M144.77,245.88v-1.83h.3c.15,0,.26-.2.36-.2a3.58,3.58,0,0,0,1-.76,3.72,3.72,0,0,0,.51-1.88,3.43,3.43,0,0,1-.76.46,1.39,1.39,0,0,1-.56.25c-.15,0-.36.1-.51.1a.63.63,0,0,0-.3,0v-1.73h0a1.66,1.66,0,0,0,1.32-.6,2,2,0,0,0,.76-1.68v-.36c0-.25-.25-.35-.25-.61a4.77,4.77,0,0,0-.61-.81,1.6,1.6,0,0,0-1.27-.51v-1.93h0a3.81,3.81,0,0,1,3,1.12,4,4,0,0,1,1.32,2.39,3.28,3.28,0,0,1,.25,1.22c0,.35.15.81.15,1.06a8.09,8.09,0,0,1-1.12,4.43,4.21,4.21,0,0,1-3.65,1.82Zm15.49-.25h-9v-.36a4.29,4.29,0,0,1,.3-1.67,9.81,9.81,0,0,1,1.07-1.48c.25-.2.71-.56,1-.81a12.68,12.68,0,0,0,1.42-1c.36-.11.71-.36,1-.46l.6-.61a2.15,2.15,0,0,0,.72-.87,2,2,0,0,0,.25-1,1.64,1.64,0,0,0-.51-1.17,2.45,2.45,0,0,0-.91-.51h-.41a2,2,0,0,0-1.32.51,1.9,1.9,0,0,0-.56,1.42v.36h-2.59v-1a4.79,4.79,0,0,1,.15-.81,2.93,2.93,0,0,1,1.22-1.57,5.74,5.74,0,0,1,3.1-.87h.25a7,7,0,0,1,3,.87,2.85,2.85,0,0,1,1.32,2.74,3.07,3.07,0,0,1-.71,2.19,16,16,0,0,1-1.57,1.42c-.1,0-.21.15-.46.25a.66.66,0,0,1-.51.26,11.65,11.65,0,0,1-1.07.71,1.41,1.41,0,0,0-.71.61c-.25,0-.35.2-.45.2,0,.25-.26.36-.26.51h5.74v2ZM161.74,234l.2.11h9.5V236a3.88,3.88,0,0,1-.71.71,10.89,10.89,0,0,0-1.32,1.67c-.25.36-.51.72-.71,1l-.51,1.22a12.9,12.9,0,0,0-1,2.64,21,21,0,0,0-.2,2.39h-3a12.66,12.66,0,0,1,.21-1.93c.25-.61.35-1.17.51-1.68a1,1,0,0,0,.2-.61c0-.1.25-.2.25-.35a14.24,14.24,0,0,1,1.48-2.39,7.18,7.18,0,0,1,1.78-2.19v-.1l.25-.1h-7V234Zm-31.2,2.14h.25a4.6,4.6,0,0,0,1.93-.46,2.11,2.11,0,0,0,1.17-1.57h2.19v11.53h-2.9v-8.18h-2.74Zm14.23-2.29v1.93h-.05a1.85,1.85,0,0,0-1.33.61,2.11,2.11,0,0,0-.71,1.68,3.39,3.39,0,0,0,.46,1.57,2,2,0,0,0,1.63.71v1.73a1.18,1.18,0,0,1-.41.05h-.1a4.8,4.8,0,0,1-2.9-1.06,3.85,3.85,0,0,1-1.22-2.9v-.36a4.53,4.53,0,0,1,1.12-2.64,4,4,0,0,1,3.35-1.32Zm0,10.21v1.83h-.31a6.29,6.29,0,0,1-2.39-.5,7.65,7.65,0,0,1-1.22-1.17,1.8,1.8,0,0,1-.2-.61,1.77,1.77,0,0,1-.25-.61h2.54a1,1,0,0,0,.56.86,5.85,5.85,0,0,0,1.11.2Z"/><path class="cls-4" d="M269.41,173.78V165l3,.51-.46,2.18v.36c0,.1-.1.36-.1.46a8,8,0,0,0,.2,1.57,1.52,1.52,0,0,0,1.32.87c.77.1,1.48-.16,1.58-.61a3.16,3.16,0,0,0,.71-1.83l.15-.21v-.25l.46-3.35-6.86-1v-6.5l12.5,1.72-1.68,11.64a8.87,8.87,0,0,1-1.78,4.68,7,7,0,0,1-2.89,1.67,5.5,5.5,0,0,1-1.22.1h-1.07a5.58,5.58,0,0,1-2.64-1.32,8.14,8.14,0,0,1-1.22-2Zm0-35.26v-6.61L280.23,130l1.07,6.35-11.89,2.19Zm0-13V119l8.69-1.52,1.07,6.35Zm0-6.51v6.51l-4.17.76c-.25.1-.5.1-.76.2s-.71.26-.91.26a4,4,0,0,0-1.58,1,3.09,3.09,0,0,0-.25,2.39,2.42,2.42,0,0,0,1.07,1.93,2.36,2.36,0,0,0,1.82.46h1.68l3.1-.56v6.61l-1.88.35a13.84,13.84,0,0,0-1.93.1,5.62,5.62,0,0,1-2.44-.1,8.39,8.39,0,0,1-3.81-2.18c-1.22-1-2.18-3-2.64-5.74s-.25-5.19.61-6.51a7.11,7.11,0,0,1,3.2-3.35,5.82,5.82,0,0,1,1.93-.71c.61-.16,1.22-.36,1.68-.51l5.28-.87Zm0,38.27v6.5l-6.35-.81-.46,3.35a7.09,7.09,0,0,0,.1,2.39,2.85,2.85,0,0,0,.87,1.07c.1,0,.35.1.46.1a.9.9,0,0,0,.35.25,1.91,1.91,0,0,0,1.68-.35,4.2,4.2,0,0,0,.86-1.07,2.81,2.81,0,0,1,.2-.87c0-.2.16-.6.16-.71l.1-.1.25-2.28,1.78.3v8.74a1.42,1.42,0,0,1-.2-.41h-.15a5,5,0,0,1-2.75,2.9,9.57,9.57,0,0,1-3.61.2,5.5,5.5,0,0,1-4-2.38c-1.07-1.43-1.42-3.71-1.07-6.71l1.68-11.49ZM94.72,56.76V50.51l.4.86,3.15-1.57a7.88,7.88,0,0,0,1.78-1.48,3.24,3.24,0,0,0,.36-1.32.73.73,0,0,0-.11-.46v-.35A2.33,2.33,0,0,0,99,44.87a5.36,5.36,0,0,0-2.18.35c-.26.11-.61.11-.71.26H96l-1.27.71V40.9h0a10.59,10.59,0,0,0,1.06-1.06,1.91,1.91,0,0,0,0-1.68,1.52,1.52,0,0,0-1.11-.86V31.66a4.5,4.5,0,0,1,1.72,0,8,8,0,0,1,3.15,1.42c.21.25.56.61.56.86.26.26.61.61.61.87a4.13,4.13,0,0,1,.51,3,5.53,5.53,0,0,1-1.12,2.49v.16a5.08,5.08,0,0,1,4,.56,10.4,10.4,0,0,1,2.43,2.79,7,7,0,0,1,.21,4.68c-.61,1.67-2.29,3.35-4.93,4.67l-7.11,3.61Zm37.14-36.84c1,1.17,2,2.49,3,3.81a26.78,26.78,0,0,1,2.54,3.86,61.09,61.09,0,0,1,3.71,7.06c1,2.29,1.93,4.58,2.64,6.36l-6.35,1.11-.1-.25-.26-.1v-.51a1.36,1.36,0,0,1-.25-.71,1,1,0,0,1-.26-.51c0-.1-.1-.36-.1-.46h-.1v-.25l-.15-.2c0-.16-.1-.41-.1-.61l-6.51,1.06c0-.71.16-1.57.16-2.28a22.88,22.88,0,0,0,.2-2.49l4-.77a10.22,10.22,0,0,1-.71-1.52,8.56,8.56,0,0,1-1-1.57A15.51,15.51,0,0,0,130.89,29c-.35-.61-.71-1-.81-1.16-.28,1.46-.52,2.94-.71,4.42s-.61,3-.76,4.42c-.1,1.22-.36,2.44-.36,3.6V43.8l-6.35,1.07c0-1.22.1-2.75.1-4.07s.26-2.79.41-4.32c.2-2.79.81-5.79,1.27-8.43A38.18,38.18,0,0,1,125.76,21l6.1-1.07Zm35.52.1-2.54,17.63,8.63,1.22-.6,5-15.1-2.13,3.1-22.61,6.51.86ZM200,28.3,193.55,45l8.28,3.15L200,52.79l-14.28-5.53L193.9,26,200,28.3Zm49.85,44c-.26-.41-.46-1-.71-1.33s-.72-1-1.07-1.32a7.55,7.55,0,0,0-4.83-2.79,7.21,7.21,0,0,0-5,1.83,9.06,9.06,0,0,0-2.54,3.71,7.14,7.14,0,0,0,.15,3.45,6.13,6.13,0,0,0,.81,1.48c.26.35.51.71.72,1.06.15.11.35.36.5.46.11.26.46.41.61.61a5.33,5.33,0,0,1,.82.51c.25.35.71.46.86.71l-3.71,3.25a7,7,0,0,1-1.83-1.47,22,22,0,0,1-2-1.88c-2.64-3.15-3.71-6.25-3.25-8.89a14.52,14.52,0,0,1,3.61-7.22c.1,0,.35-.25.35-.25a2.38,2.38,0,0,1,.61-.46,11.67,11.67,0,0,1,8.54-3.15c3.1.15,6.1,1.83,8.74,4.83a13.12,13.12,0,0,0,1.32,1.77A5.82,5.82,0,0,1,253.56,69Zm17.78,18.8-15.85,8.08,4,7.77-4.57,2.39-6.86-13.67,20.32-10.32,3,5.75ZM94.72,31.66V37.3h-.31a6.55,6.55,0,0,0-1.93.35l-.25.15-.21.11-3,1.57,5.7,11v6.25l-3.31,1.67L81.1,38.16l10.41-5.44a11.67,11.67,0,0,1,3.21-1.06Zm0,9.24a1.15,1.15,0,0,0-.41.26.4.4,0,0,0-.26.1l-2.18,1,2.18,4.31.67-.35ZM44,105.74V99a8.29,8.29,0,0,0,2.44.31c1.53,0,2.75-.92,3.61-2.64a4.32,4.32,0,0,0,0-4.42A9,9,0,0,0,46.39,89,11.53,11.53,0,0,0,44,88.11V81.5a12.78,12.78,0,0,1,5.44,1.68c3.46,1.68,5.64,4.07,6.35,7A13.31,13.31,0,0,1,54.52,99a12.16,12.16,0,0,1-6.45,6.15,9.23,9.23,0,0,1-4.12.61ZM64.38,50.25,67.89,54,64,57.72,76.27,70.43,71.6,75,59.35,62.25l-4,3.86L51.78,62.4l12.6-12.15ZM28.86,171.19l13.92-2.49,1.07,6.35-15,2.64v-6.5ZM44,81.5v6.61a9.89,9.89,0,0,0-2.38-.25A4.52,4.52,0,0,0,38,90.6,4.26,4.26,0,0,0,38,95a9.69,9.69,0,0,0,3.71,3.25l-.1-.1A9.41,9.41,0,0,0,44,99v6.71a13.1,13.1,0,0,1-5.28-1.57h-.1c-3.51-1.83-5.54-4.22-6.25-7a12.73,12.73,0,0,1,1-9,13.59,13.59,0,0,1,6.51-6.15A10.31,10.31,0,0,1,44,81.5ZM28.86,170l3.2-.56-1.52-8.33-1.68.25Zm0-25.81v-6.81a13.84,13.84,0,0,0,1.68.4l-.15-.2a12.13,12.13,0,0,0,4.93-.35,4.35,4.35,0,0,0,2.54-3.61,4.17,4.17,0,0,0-1.48-4.22,8.41,8.41,0,0,0-4.42-2,10.34,10.34,0,0,0-3.1,0v-6.61a13.28,13.28,0,0,1,4,0,11.6,11.6,0,0,1,8.28,4.58,13.19,13.19,0,0,1,1.78,8.89,11.7,11.7,0,0,1-4.22,7.77c-2.14,1.93-5.29,2.65-9.1,2.19h-.15c-.2,0-.41,0-.56-.1Zm-4.93,19.51,1.43,8.13,3.5-.61v6.5L21.39,179l-2.54-14.53,5.08-.81Zm4.93-42.89v6.61A6.92,6.92,0,0,0,27,128a4.4,4.4,0,0,0-2.64,3.71,4.23,4.23,0,0,0,1.47,4.21,10.9,10.9,0,0,0,3,1.48v6.81c-3.56-.66-6.1-2.19-7.57-4.48A11.14,11.14,0,0,1,19.36,131,12.75,12.75,0,0,1,23.42,123,10.72,10.72,0,0,1,28.86,120.78Zm0,40.55-3.25.56L27,170.22l1.83-.25v-8.64Zm192.43,99.8v-5.69a4.39,4.39,0,0,0,3.81-.82,4,4,0,0,0,2.08-3.81,8.69,8.69,0,0,0-1.47-4.72,10,10,0,0,0-3.71-3.2,2.2,2.2,0,0,0-.71-.31v-5.79a8.34,8.34,0,0,1,1.93.1c3.1.46,5.74,2.39,7.93,5.49,2.13,3.25,2.84,6.35,2.13,9.25a13.08,13.08,0,0,1-5.39,7.21,12.05,12.05,0,0,1-6.6,2.29ZM81.91,237c.61.46,1.22,1.07,2.29,1.78a13.77,13.77,0,0,1,2.64,2.8,14.4,14.4,0,0,1,2.9,5.84c.61,2.08-.26,4.83-2.19,7.47-2.29,3.25-4.78,4.93-7.42,5.13a14.65,14.65,0,0,1-7.57-1.17,13.77,13.77,0,0,0-1.22-.71,10.57,10.57,0,0,1-1.32-.86l3-4.22v.15h.15a6.2,6.2,0,0,0,1,.61c.35.36.81.36,1.42.46a1.68,1.68,0,0,0,1.07.25,4.62,4.62,0,0,0,1.47-.15,4.36,4.36,0,0,0,2-1.07,14.37,14.37,0,0,0,1.88-2c1.22-1.68,1.73-3.51,1.22-4.93a6.82,6.82,0,0,0-3-4.07l-.71-.6L69.41,256.2,64,252.49l13.11-18.75L81.91,237Zm139.38-.2v5.79a4.63,4.63,0,0,0-3.86.87,4,4,0,0,0-2,3.86,9.22,9.22,0,0,0,1.67,4.67v-.25a10,10,0,0,0,3.61,3.51,2.9,2.9,0,0,0,.61.2v5.69a9,9,0,0,1-2-.15c-2.9-.36-5.54-2.14-7.73-5.29v-.1c-2.13-3.25-2.84-6.35-2.13-9.15a11.73,11.73,0,0,1,5.13-7.31,13.3,13.3,0,0,1,6.76-2.34ZM117,255.34a4.54,4.54,0,0,0-.81,1.47c-.26.46-.76,1.07-1,1.42a34.75,34.75,0,0,1-10.11,10.67c-4.17,2.8-9.09,3.25-14.53,1.58l1.83-5a22.85,22.85,0,0,0,3.71.1,9.76,9.76,0,0,0,3.61-.81,23.14,23.14,0,0,1-2.29-6.25,34.33,34.33,0,0,1-.71-6.61,7,7,0,0,1,0-1.83,8.61,8.61,0,0,1,.35-2l6.35,2.39a15.27,15.27,0,0,0-.1,5.64,18.24,18.24,0,0,0,1.68,5.08,12.79,12.79,0,0,0,1.93-2,22.32,22.32,0,0,1,1.78-2.65,4.81,4.81,0,0,0,1-1.72,8.2,8.2,0,0,0,1.07-1.68l6.25,2.29Zm13,3.25c.35.25.76.61,1.22,1s1,.82,1.42,1.22A14.87,14.87,0,0,0,134,262.3c.36.5,1,1.11,1.33,1.57a11,11,0,0,1,1.06,1.42,8.83,8.83,0,0,1,1.07,1.33l1.32-6.36,6.4,1.22-4.47,22.41-6.35-1.27,1.42-7.11a7.09,7.09,0,0,0-.61-1,3.9,3.9,0,0,0-.45-.81,12.91,12.91,0,0,0-1.58-2.29c-.61-.71-1.17-1.57-1.68-2.18a13,13,0,0,0-1.57-1.78,9.64,9.64,0,0,1-1.42-1.58l-2.9,15-6.35-1.16,4.32-22.46,6.35,1.32Zm33.59,1.32c.86,1.32,1.83,2.64,2.64,4.06a18.17,18.17,0,0,1,2,4.22,44.28,44.28,0,0,1,3,7.32c.71,2.39,1.47,4.67,2,6.6l-6.45.51-.1-.25-.26-.26v-.45c0-.26-.15-.51-.15-.77a.9.9,0,0,0-.2-.45V280h-.16v-.61a2.12,2.12,0,0,0-.2-.61l-6.4.46c0-.71.25-1.53.25-2.29.26-.71.36-1.68.61-2.39l4-.35a7.29,7.29,0,0,1-.61-1.58,7,7,0,0,1-.72-1.67,21.78,21.78,0,0,0-1.06-2c-.36-.61-.77-1.06-.77-1.32-.35,1.32-.91,2.8-1.32,4.32s-.81,2.9-1.06,4.32a19.23,19.23,0,0,0-.72,3.61c-.1,1.22-.35,2.39-.35,3.35l-6.46.51c.16-1.22.31-2.64.56-4,.11-1.48.51-2.9.72-4.32.61-2.8,1.47-5.64,2.18-8.18a34,34,0,0,1,2.9-6.86l6.1-.46Zm29.32,12.24c-.36-.45-.87-1.22-1.33-1.93s-1.22-1.57-1.83-2.28a9.89,9.89,0,0,0-2-1.78,20.59,20.59,0,0,0-2.13-1.58l4.52,12.5-6.1,2.29-7.82-21.49,6.15-2.19a2.17,2.17,0,0,0,.81.51c.25.1.61.35,1,.46.61.35,1.33.86,1.94,1.22.71.61,1.57,1.06,2.18,1.67a7.16,7.16,0,0,1,1.78,1.68,9.28,9.28,0,0,1,1.57,1.68h.11a13.88,13.88,0,0,1,0-2.14c.1-.86.25-1.93.35-2.79a7.35,7.35,0,0,1,.61-2c.1-.72.36-1.43.46-2a5,5,0,0,1,.61-1.32c.15-.35.35-1,.51-1.22l6.09-2.28,7.83,21.49-6.15,2.18-4.57-12.5c-.1.26-.36.87-.46,1.22s-.25,1.07-.35,1.68a23.26,23.26,0,0,0-.36,3.1,20.86,20.86,0,0,0,.46,4.47Zm-53.51-47.71.2.31h-.2Zm0-15.6L145,218.6v6.15H149V218.6l5.85-10.17h-4.42l-3.36,6.81-3.35-6.81h-4.42v.41Zm21.29-.41v16.32h-4.17V208.43Zm12.5,0h4.47l-5.54,16.32h-4.32l-5.53-16.32h4.57L170,219.71Zm-39.08,0h5l-6.61,6.81,6.86,9.2v.31H134.5l-4.77-6.86-1.68,1.67v5.19h-4.22V208.43h4.22v6.46l6-6.46Zm5.29,0h-.25l.25.41Z"/></g></g></svg>