<svg xmlns="http://www.w3.org/2000/svg" viewBox="0 0 300 255.2"><defs><style>.cls-1{fill:#fff;}.cls-2{fill:#ed1c24;}.cls-3{fill:#034fa1;}.cls-4{fill:#00aded;}</style></defs><title>Dnipro</title><g id="Слой_2" data-name="Слой 2"><g id="Слой_1-2" data-name="Слой 1"><path class="cls-1" d="M150,254.26c69.78,0,126.68-56.9,126.68-126.68S219.78.89,150,.89,23.32,57.84,23.32,127.58,80.22,254.26,150,254.26"/><path class="cls-2" d="M150,254.26h0c69.78,0,126.69-56.91,126.69-126.69a126.69,126.69,0,0,0-253.38,0c0,69.78,56.91,126.69,126.69,126.69h0A126.57,126.57,0,1,1,276.68,127.58c0,69.77-56.9,126.68-126.68,126.68Z"/><path class="cls-3" d="M56.44,57.8a8.69,8.69,0,0,0-1.88,2l-.3.43-1.62-1.15-1.91,2.64,1.62,1.15L52,63.3c-3.11,4.3-1,7.29.73,8.57A5.62,5.62,0,0,0,56.44,73V69.74a3.12,3.12,0,0,1-1.71-.64c-2.51-1.84-.64-4.18-.26-4.74l.18-.21,1.79,1.32V62.19L56.18,62l.17-.21.09-.17Zm5.66-8.65v3.58L59,51.79,61.68,49ZM56.44,73c1.49-.13,3.11-1,4.64-3.12l.34-.42.69.55V63.43a5.47,5.47,0,0,1-.94,1.87l-.13.22-4.6-3.33v3.28l3,2.18-.17.21c-1,1.45-2,1.92-2.85,1.88V73ZM62.1,57.33a5.08,5.08,0,0,0-5.66.47v3.84c.55-.73,2.17-2.73,4.47-1.07a2.67,2.67,0,0,1,1.19,1.58Zm9.17-7.16v9.12a7,7,0,0,1-.94.68l-2-1.87a4.57,4.57,0,0,0,1.11-.85,1.64,1.64,0,0,0,.26-2.18l-7.63-2.34V49.15l6.56,2.34-3.2-6.39,2.43-2.56Zm0-10.87v3.5l-.3.25-1.74-2ZM63,70.59l1.92-2.65-1.58-1.15.3-.38c3.15-4.35,1.07-7.29-.72-8.57a8.18,8.18,0,0,0-.81-.51v4.82a2.31,2.31,0,0,1,0,1.28V70Zm8.27-11.3V50.17l1.45,3.24c1.24,2.86.34,4.09-.77,5.24a4,4,0,0,1-.68.64M82.65,45.44v2.34l-1.32,1.11-7.16-8.52-2.9,2.43V39.3l6.86-5.75,1.75,2-3.2,2.69Zm0-15.22v2.6L81.5,31Zm0,17.56V45.44l1.19,1.36Zm8.53-21.65v2l-5.5,3.41L87,33.59l2.81-1.79a7.85,7.85,0,0,1,1.37-.68v3c-.18.09-.35.22-.47.26L88.4,35.85l1.79,2.81,1-.6v3.16l-2.34,1.45-6.18-9.85v-2.6l8-5Zm0,2v-2L92,27.54Zm6,5.76v2.38a6,6,0,0,1-2.73,2.94l-3.23,2V38.07l1.23-.81c1.11-.69,1.92-1.5,1.24-2.61a1.73,1.73,0,0,0-2.48-.51v-3a4,4,0,0,1,5.5,1.75,3,3,0,0,1,.47,1m0-10.11V27a7.88,7.88,0,0,1,0-3.28m0,12.49V33.84a3.29,3.29,0,0,1,0,2.39m7-17.6v2.9a3.35,3.35,0,0,0-1.88.3c-2,.89-2.6,2.77-1.32,5.62.94,2.13,2.09,3,3.2,3.16V33.5c-3.28.09-5.37-2.3-6.4-4.6A14.85,14.85,0,0,1,97.14,27V23.74a6.63,6.63,0,0,1,4-4.39,8.18,8.18,0,0,1,3-.72M114.88,29c5.84-.73,5.07-5.16,4.47-7.76l-1.15-4.69,3.75-1,2.86,10.78,3.15-.85-3.58-13.34-9.89,2.64,1.62,6.39c.56,2.26,1.15,4.82-1.92,5.25Zm-10.7,4.51V30.61a3.3,3.3,0,0,0,1.87-.34c3-1.33,1.79-4.57,1.32-5.63-.38-.85-1.36-2.86-3.19-3.11v-2.9c2.9-.13,5.11,1.66,6.39,4.56,1.71,3.84.94,7.63-3.41,9.55a8.72,8.72,0,0,1-3,.76m32.39-18.28V17.9l-2.51.34.38,3.41,2.13-.29v2.73l-5,.63L129.88,11l3.2-.39.64,5Zm28.18,4.09,1.58-8.82-3.24-.56L160.7,23.57l3.2.56,7-7.93-1.58,8.86,3.2.6L175,12l-3.24-.55Zm-15.69-2.09,5,.09-.08,6,3.23.05.26-13.81-3.28-.09-.09,5.2-4.94-.08.08-5.2L146,9.29l-.21,13.86,3.24,0Zm-12.49,6.86V21.36l.64-.05c1.33-.17,2-.72,1.92-2s-1.07-1.62-2.43-1.45h-.13V15.22l.56-.09c4-.47,5.24,1.79,5.5,3.88.34,3-1.2,4.48-4.44,4.86ZM187,20.89v9L184.36,29Zm0-3.63-6.4,5.42,2.78-8.48-3.12-1L176,26.34l3.11,1L187,20.59Zm0-4.13v1.45a5.12,5.12,0,0,1-.81-.17c-1-.34-3.5-1.45-2.86-3.84l2.09.68c-.21.64,0,1.41,1.2,1.8a1.23,1.23,0,0,0,.38.08m0,1.45V13.13a1.27,1.27,0,0,0,1.66-.81l2.09.68c-.73,1.83-2.6,1.79-3.75,1.58m0,15.3v-9l.13-.43-.13.13V17.26l1.62-1.36,3.11,1-4.3,13.17Zm29.63,13.68a2.76,2.76,0,0,1-1.63-1l-1.74,2.09a6,6,0,0,0,3.37,2.13Zm0-13.47v3l-4.74,1.45,1,9.46-3.41-2.13L209,33.55l0,0-3.58,5.76-2.77-1.75,7.33-11.72,2.77,1.75-3.07,4.9,0,0Zm0,3v-3l.08,0L220,32.1Zm12.78,23.14v3.46a4.34,4.34,0,0,1-1.91-1.45,7,7,0,0,1-1.2-1.75l2-1.75a7.2,7.2,0,0,0,.76,1.19Zm0-16.11v6.35l-5.75,6.87-2.52-2.09,7.21-8.53-3-2.51-3.19,3.62c-1.24,1.41-3.16,3.37-5.54,2.94v-3.2c1.4.26,2.64-1.15,3.74-2.42l4.35-5Zm0,6.35,3.16-3.71-3.16-2.64ZM239.13,63v3.92l-.68.43.68,1.1V73A7.53,7.53,0,0,1,238,71.61l-3.62-5.54Zm0-9.08V57.2l-6.52,2.22a5.15,5.15,0,0,1-3.2.26V56.22a1.63,1.63,0,0,0,1.84.13l4.22-10.44L238,48.85l-3.11,6.73Zm0,3.32V53.88l2.43-.94,2.34,2.69Zm0,15.82V68.41l.77,1.16c.68,1.06,1.53,1.87,2.64,1.15,1.36-.9.6-2.26.17-2.94l-1.49-2.26-2.09,1.36V63L246,58.52l5.84,9L249.62,69l-4.1-6.31-2,1.37,1.83,2.77c.6,1,2.77,4.47-.94,6.9a3.86,3.86,0,0,1-5.24-.72"/><path class="cls-3" d="M83.16,225.49,94,232.31l-3.46,1.92c-.12.08-.12.17-.08.3a.27.27,0,0,0,.3.13l8.18-2.43-3.19-2,8-12.88-6.22-3.88.85,3.12-6.61,10.65-1.53-.89a3.39,3.39,0,0,1-.69-3.71c.73-1.54,3.67-1.66,4.91-2.3a4.58,4.58,0,0,0,2-3.71,3.48,3.48,0,0,0-1.06-2.56,2,2,0,0,0-3.16.6c-1,2.21,0,3.32,1.37,3.24-.13.51-.51.89-2.64-.09-2.65-1.32-4.69-.68-5.55.3-1,1.19-2.26,2.56-.76,5.24l-4-2.43,1.15,8.36a.31.31,0,0,0,.26.25.19.19,0,0,0,.21-.17Zm25.79-.3,1.41,1.84-5.5,12,5.28,2.18,2.65-6.06,5.33,2.09-2.43,6,5.58,1.92,5-13.6-7.38-2.68,1.84,1.75L119.14,235l-5.33-2.08,2-4.86ZM139,228.26c-1.83-.25-3.45.64-3.66,2s1.15,2.6,3,2.82,3.41-.64,3.62-2-1.15-2.59-2.94-2.81m11,6.31,7.71-.34,0,2.09c3-3.79,6-3.24,8.15-1.88,2.51,1.58,3.11,2.43,3.15,7.93,0,3,.34,4,1.88,4.94l-4.69.47c-1.83.17-3-1.87-3.16-3.45l-.46-5.33c-.26-3.15-2.26-3.75-4.87-.42l.14,9.93-5.85.34-.12-13.21Zm-14.67-.3-1.7-1.06,7.67,1.1-1.92,13.82-5.92-.73Zm46.76-3.15,1.28,5.67a4.35,4.35,0,0,1,1.92-2.18v5.93a4.73,4.73,0,0,1-.89-.51l.89,3.41v.17l-5.67,1.45L176.17,232l-1.7-.81,10.78-3.36v2.21a11.27,11.27,0,0,0-3.2,1.07m3.2,12.49v-.17l0,.17ZM212,213.68v3.46a5.63,5.63,0,0,0-2.56.76,5,5,0,0,0-1.79,6.82,4.74,4.74,0,0,0,4.35,2.22v3.45c-3.67.77-7.16-.29-8.83-3-2.25-3.71-.12-9.12,4.69-12.06a12.11,12.11,0,0,1,4.14-1.67m-26.73,20.93a3.87,3.87,0,0,1,1.07-.34c1.7-.17,2.51-.81,2-2.77-.3-1.11-1.36-1.66-3.07-1.45v-2.22l3.79-1.19a5.84,5.84,0,0,1,6.7,3.24,4.66,4.66,0,0,1-1.2,4.82c-.72.77-1.7,1.36-4.22,1.32-1.57,0-3.32-.77-3.83.08,2.34.43,3,2,2.55,3.25s-1.87,2-3.79,1.19ZM212,230.39v-3.45a4.69,4.69,0,0,0,2.51-.77,5,5,0,0,0,1.83-6.77,4.77,4.77,0,0,0-4.34-2.26v-3.46c3.62-.76,7.12.3,8.78,3a6.13,6.13,0,0,1,.89,3.24c0,3.19-2,6.69-5.58,8.86a12.14,12.14,0,0,1-4.09,1.62"/><polygon class="cls-3" points="74.25 207.89 74.81 214.92 77.36 214.66 77.02 210.27 81.63 209.85 81.42 207.42 74.25 207.89"/><polygon class="cls-3" points="69.35 203.88 69.91 210.91 72.46 210.66 72.12 206.27 76.72 205.88 76.52 203.41 69.35 203.88"/><polygon class="cls-3" points="228.22 207.89 227.66 214.92 225.11 214.66 225.45 210.27 220.84 209.85 221.06 207.42 228.22 207.89"/><polygon class="cls-3" points="233.12 203.88 232.57 210.91 230.01 210.66 230.35 206.27 225.75 205.88 225.96 203.41 233.12 203.88"/><path class="cls-1" d="M38.53,88.49A37.58,37.58,0,1,1,.94,126.05,37.68,37.68,0,0,1,38.53,88.49"/><path class="cls-1" d="M261.47,88.41A37.57,37.57,0,1,0,299.06,126a37.64,37.64,0,0,0-37.59-37.55"/><path class="cls-4" d="M91.82,49.62a97.87,97.87,0,0,0-32.1,42.2A40.25,40.25,0,0,1,58.65,161a97.11,97.11,0,0,0,33.16,44.67v-18.8c-3.62-1.23-7.33-2.6-11.08-4.18l2.6-2.81c2.81.94,5.67,1.83,8.48,2.6v-1.7c-2.47-.64-5-1.32-7.5-2.05l2.22-2.6c1.75.43,3.49.81,5.28,1.15v-1.62c-1.4-.25-2.85-.47-4.26-.77l2.3-2.72,2,.12v-1.87c-.59.38-1.23.77-1.87,1.19.64-.81,1.28-1.62,1.87-2.43V49.62Zm9,133.12v1.91c-3-.64-6-1.36-9-2.17v-1.7c3,.72,6.05,1.4,9,2m0-6v1.87c-3-.34-6-.77-9-1.32v-1.62c3,.47,6,.81,9,1.07m0-11.85v7.41c-3.07.13-6.09.13-9,0v-1.87c3.07-2,6.05-3.8,9-5.54m-9,40.79a98.27,98.27,0,0,0,9,6V195.57l-2.09-.6c.69-1.19,1.41-2.34,2.09-3.54v-3a12.57,12.57,0,0,1-.68,1.06c-2.73-.81-5.5-1.66-8.35-2.64Zm9-162.06a105.6,105.6,0,0,0-9,6V169.18a150.89,150.89,0,0,0,9-13.17Zm6.23,133.54v4.31c-2,3.41-4.18,6.65-6.23,10v-3c.34-.55.68-1.11,1-1.66s.72-1.11,1.06-1.66c-.68-.18-1.36-.3-2.09-.47v-1.92c1.07.21,2.13.43,3.2.59.85-1.4,1.7-2.77,2.51-4.21-1.91-.13-3.79-.3-5.71-.52v-1.87c2.05.21,4.14.34,6.23.42m0-15.81v10.57c-2.09.17-4.18.3-6.23.38v-7.41c2.09-1.2,4.18-2.39,6.23-3.54m-6.23,50.34c2.05,1.15,4.09,2.3,6.23,3.32V197.44l-6.23-1.87Zm6.23-171.44c-2.14,1.07-4.18,2.17-6.23,3.37V156c2.26-3.62,4.31-7.29,6.23-11ZM113,158.18v5.89a5.73,5.73,0,0,0-2.13,4.09,14.13,14.13,0,0,0,2.13,9.72v2.17a19.67,19.67,0,0,1-2.56-4.69c-1.07,2.13-2.17,4.14-3.32,6.1v-4.31a2.05,2.05,0,0,1,.55,0c.47-.86.9-1.66,1.32-2.52l.81-1.66a13.19,13.19,0,0,1-.17-1.32c-.85.08-1.7.17-2.51.21V161.34c2-1.07,3.92-2.13,5.88-3.16M107.08,215c1.91.94,3.87,1.84,5.88,2.65V198.46l-2.35-.63c.81-1.67,1.58-3.29,2.35-4.91v-5.24l-5.33,9.93-.55-.17ZM113,37.6c-2,.81-4,1.7-5.88,2.64V145c2.17-4.35,4.13-8.74,5.88-13.21Zm6,134.52v7.76c-1.92,4.39-3.88,8.74-6,13v-5.24l2.38-4.35-1-1.45c-.13-.17-.17-.25-.55-.72a11.27,11.27,0,0,0-.81-1.11v-2.17c.72,1.11,1.53,2.17,2.3,3.28a62.75,62.75,0,0,0,2.9-6.65c.3-.81.55-1.58.77-2.39m0-16.92v11.42a4.33,4.33,0,0,0-4.48-3.11,3,3,0,0,0-1.49.56v-5.89c2-1,4-2,6-3m-6,62.45c2,.81,4,1.53,6,2.21V200.09l-6-1.63Zm6-182.31c-2,.68-4,1.45-6,2.26v94.16a150.19,150.19,0,0,0,6-18.63Zm5.28,117.35V161a6.28,6.28,0,0,0-2.39,4.48,15.46,15.46,0,0,0,2.39,10.95v2.09a36.39,36.39,0,0,1-2.64-4.95c-.85,2.09-1.75,4.18-2.64,6.27v-7.76a13.46,13.46,0,0,0,.25-4.13,5.85,5.85,0,0,0-.25-1.37V155.2c1.74-.85,3.53-1.7,5.28-2.51m-5.28,67.17c1.74.6,3.49,1.15,5.28,1.62v-20l-3-.77,3-7.12v-4.77l-4.64,11.47-.64-.17v19.77Zm5.28-186.14c-1.79.51-3.54,1.06-5.28,1.62v77.79c5.54-22.34,6.18-46.12,2.6-71.06l2.68.77V33.72Zm6,139.9v5.71l-6,14.23v-4.77l3-7.42c-.94-.21-1.92-1.1-3-2.81v-2.09c.81,1.28,1.71,2.43,2.64,3.67,1.16-2.26,2.44-4.35,3.37-6.52m0-23.54v11.68a5.09,5.09,0,0,0-4-1.49,4.34,4.34,0,0,0-2,.77v-8.35c2-.9,4-1.75,6-2.61m-6,71.4c2,.56,4,1,6,1.45V202.51l-.17.43-5.84-1.49Zm6-189.17c-2,.38-4,.9-6,1.41v9.12l6,1.7Zm5.54,115.6v10.53a6.25,6.25,0,0,0-2.34,4.35A14.82,14.82,0,0,0,135.76,173v2.38c-.68-1.15-1.4-2.47-2.17-4l-3.37,8v-5.71c.13-.3.26-.64.39-1a14.93,14.93,0,0,0,1.23-7.29,6,6,0,0,0-1.62-3.58V150.09c1.83-.77,3.71-1.5,5.54-2.18m-5.54,75c1.83.35,3.67.69,5.54.94V204.09l-3.49-.93,3.49-9v-5.67l-5.54,14Zm5.54-191.6c-1.87.25-3.71.6-5.54,1V44.54l5.54,1.58ZM143,167.48v7.84l-7.25,18.84v-5.67l3.46-8.78a18.08,18.08,0,0,1-3.46-4.35V173c.86,1.45,1.88,2.89,2.73,4.56,1.32-2.65,2.81-5,3.75-7.51a15.74,15.74,0,0,0,.77-2.55m0-22.13v15.73c-.56-2.09-2.22-4.17-5.24-3.58a4.86,4.86,0,0,0-2,.94V147.91c2.43-.94,4.86-1.79,7.25-2.56m-7.25,78.52c2.39.38,4.82.64,7.25.81V206l-.34-.08.34-.9v-6.78l-2.86,7.08-4.39-1.24ZM143,30.52c-2.43.17-4.86.43-7.25.81V46.12L143,48.21Zm3.07,160.19v6.35L143,205v-6.78Zm0-46.33v13.08a9.22,9.22,0,0,0-.56,2.09,14.14,14.14,0,0,0,.56,6.65V170c-.22-.34-.39-.72-.6-1.06L143,175.32v-7.84a15,15,0,0,0,.21-5.29,5.38,5.38,0,0,0-.21-1.11V145.35c1-.34,2-.64,3.07-1M143,224.68c1,0,2,.13,3.07.17V206.74L143,206Zm3.07-194.33c-1,0-2.05.08-3.07.17V48.21l3.07.9ZM158.7,141.13v1.67a.94.94,0,0,0-1,.89v6.1a1,1,0,0,0,1,.89v2.94a6.78,6.78,0,0,0-.94,2.69,14.36,14.36,0,0,0,.94,8.44v3.07c-.26-.47-.56-1-.81-1.54l-11.81,30.78v-6.35l5.33-13.22a52.56,52.56,0,0,1-5.33-7.46V166.2c1.23,3.49,3.79,5.75,5.67,9.12a84.73,84.73,0,0,0,3.71-7.76,17,17,0,0,0,1-8.65c-.29-2.56-3.28-5.71-6.3-4.94a5.9,5.9,0,0,0-4,3.49V144.38c4.22-1.28,8.44-2.35,12.62-3.25m0-96.07V52.6L156,51.83l0-4.64a17.32,17.32,0,0,1,2.77-2.13M146.08,224.85c1.32,0,2.6.09,3.88.09,2.94,0,5.84-.17,8.73-.43V197.66c-.51,0-1,0-1.53,0a2.19,2.19,0,0,0-.51,0q1-2.55,2-5v-5.55q-4,10.31-7.16,20.81l-5.45-1.28ZM150,30.26c-1.28,0-2.56,0-3.88.09V49.1l8.44,2.43-.17-14.15a17,17,0,0,1,4.34-1.66V30.65c-2.89-.26-5.79-.39-8.73-.39m13.21,145.91v5.63c-.3.77-.64,1.53-.94,2.3l.94-.13v3c-.72.13-1.49.21-2.26.3-.72,1.79-1.45,3.62-2.22,5.5v-5.55c1.41-3.7,2.9-7.37,4.48-11m0-3.58v1.83c-1-.33-2.39-2.6-4.48-6.6v-3.07c1.2,2.77,3.12,4.94,4.48,7.84m0-32.31v10.49a1,1,0,0,0-.34,0,5.71,5.71,0,0,0-4.14,2.81v-2.94a.93.93,0,0,0,.94-.89v-6.1a.9.9,0,0,0-.94-.89v-1.67c1.5-.29,3-.59,4.48-.85m0-96.59V53.88l-4.48-1.28V45.06a8.64,8.64,0,0,1,3.37-1.28c.39-.05.73-.05,1.11-.09m0-12.53c-1.49-.21-3-.34-4.48-.51v5.07a10.86,10.86,0,0,1,4.48-.13ZM158.7,224.51c1.49-.13,3-.3,4.47-.47V197.27c-1.45.17-2.94.3-4.47.38Zm9.59-41.43v3.07c-1.66.3-3.37.59-5.12.81v-3c1.75-.3,3.46-.55,5.12-.89m0-21.83v7.42a7.19,7.19,0,0,1-.3.85l.3-.08v2.94l-1.49.38c-.47,1.28-1,2.56-1.54,3.92-.68,1.62-1.36,3.33-2.09,5.12v-5.63c.3-.77.64-1.49.94-2.21a.91.91,0,0,1-.77.51l-.17-.05v-1.83c0,.13.13.26.17.39,1.41-3,2.73-5.38,3.88-8.15a20.62,20.62,0,0,0,1.07-3.58m0-21.74v15.18a4.87,4.87,0,0,0-5.12-3.92V140.28c1.71-.25,3.41-.55,5.12-.77m0-95V55.33l-5.12-1.45V43.69a22.09,22.09,0,0,1,5.12.85m0-12.53c-1.71-.34-3.41-.59-5.12-.85v4.43A17.82,17.82,0,0,1,167.56,37a7.59,7.59,0,0,0,.73.34V32Zm-5.12,192c1.71-.25,3.41-.55,5.12-.85V196.51a46.26,46.26,0,0,1-5.12.76Zm17.39-43.9v3.24a118.79,118.79,0,0,1-12.27,2.77v-3.07c4.39-.85,8.52-1.83,12.27-2.94m0-14.37c-4.05,1.32-8.14,2.56-12.27,3.67v2.94c4.26-1.07,8.39-2.26,12.27-3.45Zm0-27.19v15c-3.11,1.19-6.26,2.39-9.5,3.54-.09,2.64-1.07,6.65-2.77,11.59v-7.41a18.54,18.54,0,0,0,.21-5.42,8.19,8.19,0,0,0-.21-1.15V139.52a116.76,116.76,0,0,1,12.27-.94m0-103.37A96,96,0,0,0,168.29,32v5.37c2.77,1.37,4.56,2.82,9.63,2.65-1.49,2.13-4.86.89-6.14,2.64,3.88,1.92,4.95,2,7.21,2.26-3.67,1.1-6.61.6-9.94-.22-.25,0-.51-.12-.76-.17V55.33l10.48,3c.6.73,1.2,1.5,1.79,2.26V35.21Zm-12.27,188A89.86,89.86,0,0,0,180.56,220V194.46l-.13,0,.13-.08V191.6a34.74,34.74,0,0,1-4.9,2.65,32.53,32.53,0,0,1-7.37,2.26ZM180.56,220a98,98,0,0,0,60.83-59,40.25,40.25,0,0,1-1-69.26,98,98,0,0,0-59.81-56.44V60.57a103.23,103.23,0,0,1,21.61,54.48c-12.27.47-18,8.44-19.52,23.48-.68,0-1.36,0-2.09.05v15c.9-.34,1.79-.68,2.65-1.07,5.5-2.17,10.65-4.47,15.34-6.73.21,1.41.39,2.77.51,4.09.18,1.88.3,3.67.3,5.5a36.18,36.18,0,0,1-.08,3.62c-6.1,2.43-12.37,4.73-18.72,6.82v3.16c6.87-2.13,13.05-4.44,18.38-6.65a43.24,43.24,0,0,1-2.31,9c-.38,1-.81,2-1.23,3a79.68,79.68,0,0,1-14.84,5.84v3.24a70.86,70.86,0,0,0,12.54-4.78,41.83,41.83,0,0,1-12.54,13v2.82a42.14,42.14,0,0,0,9.55-7.89,44.25,44.25,0,0,0,8.78-14.41,46.71,46.71,0,0,0,2.9-16.83c0-1.79-.17-3.71-.34-5.67s-.47-3.92-.73-5.88l-.25-1.62-1.49.72c-4.35,2.17-9.12,4.31-14.16,6.39.47-7.88.69-14.4,3.07-21.35a13.48,13.48,0,0,1,13-9.16c4.56.12,8.65,2,9.46,13.76l-3.54.39a1.6,1.6,0,0,0-1.49,2.13c2.09,10.87,6,27.49-.43,40.83-3.66,7.59-10.57,14.41-24.34,18.63V220Z"/><path class="cls-3" d="M3.92,109.17v4.77l-.34-.26a38.1,38.1,0,0,0-2,15.09l1.71-1,.68-2.51V143a38.39,38.39,0,0,1,0-33.8m1.41,10.61v4.43l-1.07,3.92,1.07,1.28v16.16c-.51-.85-1-1.71-1.41-2.6V125.24Zm0-13.22V115l-1.41-1v-4.77c.43-.9.9-1.75,1.41-2.61M15.13,137v1.15l-2.39.81,1.54,12.19.85.56v4.9a39.4,39.4,0,0,1-9.8-11.08V129.41l7.07,8.53Zm0-41.56v18.59L7.54,116l-2.21,8.22v-4.43l1.06-4.09L5.33,115v-8.4a39.56,39.56,0,0,1,9.8-11.08m7.67,60.91v4.82a41,41,0,0,1-7.67-4.56v-4.9Zm0-23.78v3.15l-7.67,2.43V137l7-2.26Zm0-41.69v1.49l-1.87,1,1.87,2.13v9.25l-3.19,7.68,3.19,4v1.84l-4.09-5.12-3.58.9V95.48a41.5,41.5,0,0,1,7.67-4.56m12.07,30.22v20.68L23,135.72l-.18,0v-3.15l3.25-10.32-3.25-4v-1.83l4.39,5.45Zm0-24.17v1.16l-9.68,1-2.39,5.66V95.52L25,98Zm0-9.25c-.56.09-1.11.13-1.66.22.51-1.54,1.06-3.07,1.66-4.61V72.51A130.58,130.58,0,0,0,28.3,88.92a42.07,42.07,0,0,0-5.5,2v1.49a38.52,38.52,0,0,1,12.07-3.28Zm0,84.11c-1-2.56-1.92-5.16-2.73-7.81.89.17,1.79.3,2.73.39v-9.25l-6.74,4.43-5.33-3.2v4.82a38,38,0,0,0,4.52,1.71,126.12,126.12,0,0,0,7.55,19.73Zm2.64-50.94V142.2l-.09.08.09.69v9.76l-1.45-10.27-1.19-.64V121.14Zm0-24.17v1.15l-2.64.26V97ZM34.87,83.33c.81-2.08,1.7-4.17,2.64-6.26V67.35c-.94,1.7-1.79,3.41-2.64,5.16Zm2.64,4.22c-.9,0-1.79.09-2.64.17v1.41c.85-.09,1.74-.13,2.64-.17Zm-2.64,76.86c.85.08,1.75.13,2.64.13V153.45l-2.64,1.71Zm2.64,13.72c-.94-2.09-1.83-4.17-2.64-6.3v10.82c.85,1.75,1.7,3.45,2.64,5.16Zm2.3-57.46V140l-2.3,2.17V120.89Zm0-24.21v1.15l-2.3.26V96.72Zm-2.3-19.39c.72-1.62,1.49-3.24,2.3-4.82v-9c-.81,1.36-1.57,2.73-2.3,4.09Zm2.3,10.53a10.87,10.87,0,0,0-1.28,0h-1V89h2.3Zm-2.3,76.94a8.7,8.7,0,0,0,1,0c.43,0,.86,0,1.28,0V153.37l-.94-.05L37.51,143v9.76l.09.64-.09.08v11.09ZM39.81,183c-.81-1.58-1.57-3.2-2.3-4.82v9.68c.72,1.41,1.49,2.77,2.3,4.14Zm4.56-68V117l-3.11,4.35L44.37,129v6.82L39.81,140V120.67l.52,0Zm0-24.47v14l-3.45-6.9-1.11.08V96.46l.64,0Zm-4.56-18.2c1.41-2.81,2.94-5.58,4.56-8.27V56c-1.57,2.39-3.11,4.77-4.56,7.25ZM44.37,88a32.75,32.75,0,0,0-4.56-.42V89a38.07,38.07,0,0,1,4.56.47Zm-4.56,76.52a32.75,32.75,0,0,0,4.56-.43V153.8l-4.56-.43Zm4.56,26.64c-1.62-2.69-3.15-5.42-4.56-8.23v9c1.45,2.47,3,4.85,4.56,7.2Zm10-56.53v1.28l-8.74-1.32-1.28,1.2V129l1.83,4.47ZM44.37,64a128.62,128.62,0,0,1,10-14.15V43.18A132.64,132.64,0,0,0,44.37,56Zm10,27a36.19,36.19,0,0,0-10-3v1.41a2.64,2.64,0,0,1,.6.08l-.6.94v14l3.11,6.14-3.11,4.35V117L48.68,111l5.71.81Zm-10,73.1a36.52,36.52,0,0,0,10-3v-1.75a2.35,2.35,0,0,1-.42.21l-1.11-4.22L54.39,154v-1.53l-2.3,2-7.72-.64v10.32Zm10,41.26a124.15,124.15,0,0,1-10-14.19v8a128.44,128.44,0,0,0,10,12.87Zm11.38-77.7v22l-5-1.45L54.39,154v-1.54l5.88-5.07-2-10.83-3.92-.6v-1.27l4.14.59ZM54.39,49.83A128.74,128.74,0,0,1,65.77,37.64V31.8A124.72,124.72,0,0,0,54.39,43.18ZM65.77,98.89A38.24,38.24,0,0,0,54.39,91v20.75l8.44,1.2,2.94,8.14v-3.71l-1.75-5,1.75-2.68V98.89ZM54.39,161.13a38.45,38.45,0,0,0,11.38-7.89v-2.3a37.27,37.27,0,0,1-11.38,8.44Zm11.38,56.43a127.53,127.53,0,0,1-11.38-12.19V212a129.56,129.56,0,0,0,11.38,11.34Zm0-179.92c1.32-1.24,2.64-2.43,4-3.58V28.43c-1.37,1.11-2.69,2.22-4,3.37Zm4,65.94a42.92,42.92,0,0,0-4-4.69v10.83l3-4.73c.34.51.64,1,1,1.53v-2.94Zm-4,49.66a42.92,42.92,0,0,0,4-4.69V125.83l-1.15-.3-2.86-8.14v3.71l1.75,4.77-1.75,1.79v22l.86.26a10,10,0,0,1-.86,1v2.3Zm4,67.9c-1.37-1.15-2.69-2.34-4-3.58v5.8c1.32,1.15,2.64,2.3,4,3.37Zm0-72.59a38.32,38.32,0,0,0,0-45v2.94c3.92,6.52,6,13.22,5.71,21l-5.71-1.71ZM149.87,250.9h0a122.48,122.48,0,0,1-80.09-29.76v5.59a126.88,126.88,0,0,0,80.09,28.47Zm0-246.59h0V0A126.85,126.85,0,0,0,69.78,28.43v5.63A122.52,122.52,0,0,1,149.87,4.31M230.22,221a122.56,122.56,0,0,1-80.35,29.93v4.3a126.9,126.9,0,0,0,80.35-28.6Zm0-117.47a38.54,38.54,0,0,0,0,45V125.75l-5.71,1.7c-.34-7.8,1.79-14.49,5.71-21ZM149.87,4.31a122.55,122.55,0,0,1,80.35,29.92V28.6A126.9,126.9,0,0,0,149.87,0Zm84.36,213.08c-1.28,1.19-2.64,2.39-4,3.58v5.63c1.37-1.11,2.69-2.26,4-3.41Zm-4-68.92a42.92,42.92,0,0,0,4,4.69v-2.31a8,8,0,0,1-.85-1l.85-.25v-22l-1.75-1.79,1.75-4.78v-3.75l-2.86,8.19-1.15.3v22.72Zm4-49.66a42,42,0,0,0-4,4.69v2.94c.34-.52.64-1,1-1.54l3,4.73V98.81Zm-4-64.58c1.37,1.15,2.69,2.34,4,3.58V32c-1.32-1.15-2.64-2.26-4-3.37Zm15.39,100.3v1.32l-3.92.6-2,10.78,5.88,5.12v1.53l-6.35-5.71-5,1.45v-22l7.24,7.55Zm0,70.59a125.74,125.74,0,0,1-11.38,12.27v5.8a119.84,119.84,0,0,0,11.38-11.38Zm-11.38-52A38.42,38.42,0,0,0,245.61,161v-1.75a36.71,36.71,0,0,1-11.38-8.44Zm11.38-62.28a39.14,39.14,0,0,0-11.38,7.93v10.82l1.75,2.69-1.75,4.94V121l2.94-8.14,8.44-1.19V90.88ZM234.23,37.81A130.06,130.06,0,0,1,245.61,50V43.39A125.15,125.15,0,0,0,234.23,32Zm21.4,91.09v6.78l-1.28-1.15-8.74,1.32v-1.32l8.18-1.15Zm0,62a125.11,125.11,0,0,1-10,14.24v6.69a123.93,123.93,0,0,0,10-13Zm-10-29.84a38,38,0,0,0,10,3V153.67l-7.72.68-2.3-2v1.54l1.53,1.36-1.1,4.27a4.26,4.26,0,0,0-.43-.22Zm10-73.15a40,40,0,0,0-10,3v20.8l5.71-.81,4.31,6v-2.09l-3.11-4.34,3.11-6.18v-14l-.6-.89a2.61,2.61,0,0,1,.6-.09ZM245.61,50a129.26,129.26,0,0,1,10,14.28v-8a128.9,128.9,0,0,0-10-12.92Zm14.49,70.5v19.31l-4.47-4.17V128.9l3.11-7.63-3.11-4.35v-2.09l4.09,5.67Zm0-24.16v1.15l-1-.09-3.45,6.87v-14l4,6Zm0,86.36c-1.4,2.77-2.89,5.5-4.47,8.14v8c1.57-2.3,3.07-4.69,4.47-7.08ZM255.63,164a36,36,0,0,0,4.47.43V153.28l-4.47.38V164Zm4.47-76.51a36.06,36.06,0,0,0-4.47.39v1.44a32.26,32.26,0,0,1,4.47-.46Zm-4.47-23.19c1.58,2.65,3.07,5.33,4.47,8.1v-9c-1.4-2.43-2.89-4.78-4.47-7.12v8Zm6.9,56.48v21.27l-2.43-2.21V120.55Zm0-24.17v1.15l-2.43-.25V96.38Zm0,81c-.77,1.71-1.58,3.41-2.43,5.08v9c.81-1.45,1.62-2.85,2.43-4.3Zm-2.43-13.21c.47,0,.94,0,1.37,0s.68,0,1.06,0V153.32l-.13,0,.13-.64v-9.8l-1.4,10.36-1,.08Zm2.43-77h-1.06c-.43,0-.9,0-1.37,0v1.36q1.22-.06,2.43,0v-1.4Zm-2.43-15c.85,1.71,1.66,3.37,2.43,5.12V67.73c-.81-1.45-1.62-2.9-2.43-4.3Zm4.95,48.64v20.71l-1.11.6-1.41,10.27v-9.8l.09-.68-.09-.09V120.8Zm0-24.17V98l-2.52-.26V96.63Zm0,74.68c-.81,2-1.62,4.09-2.52,6.09v9.81c.85-1.66,1.71-3.33,2.52-5Zm-2.52-7.12a23.77,23.77,0,0,0,2.52-.13V155l-2.52-1.7Zm2.52-76.81c-.86-.09-1.67-.13-2.52-.17v1.41c.81,0,1.66.08,2.52.16Zm-2.52-10.1c.9,2,1.75,4,2.52,6.09V72.72c-.81-1.66-1.67-3.32-2.52-5Zm14.67,38.83v1.83l-3.2,4,3.2,10.35v3.16l-.18-.09-12,6.18V121.06l7.75.77Zm0-21v9.29L274.81,99l-9.76-1V96.89l9.93,1Zm-12.15,68.92c.89-.08,1.79-.21,2.64-.34-.81,2.56-1.66,5.07-2.64,7.59v10.87a126,126,0,0,0,7.46-19.57,44.59,44.59,0,0,0,4.69-1.74v-4.86l-5.33,3.24L265.05,155v9.29Zm0-80.69c.55,1.37,1,2.77,1.53,4.18-.51-.08-1-.13-1.53-.17v1.41a36.75,36.75,0,0,1,12.15,3.28V90.84a35,35,0,0,0-5.76-2,131.75,131.75,0,0,0-6.39-16.07V83.63Zm19.82,68v4.86a39.33,39.33,0,0,1-7.67,4.61v-4.86Zm0-14.7v1.15l-7.67-2.43v-3.16l.63,2.18Zm0-41.56V114l-3.58-.89-4.09,5.11v-1.83l3.19-4-3.19-7.67V95.4l1.87-2.13c-.64-.3-1.24-.64-1.87-.94V90.84a41,41,0,0,1,7.67,4.56m9.8,33.93v16.15a38.59,38.59,0,0,1-9.8,11v-4.86l.85-.55,1.53-12.23-2.38-.77V137l2.73.89Zm0-22.85v8.35l-1.06.77,1.06,4.09v4.44l-2.22-8.23L284.87,114V95.4a39.42,39.42,0,0,1,9.8,11.08m1.41,18.67v17.73c-.43.9-.9,1.75-1.41,2.6V129.33l1.07-1.28-1.07-3.92v-4.44Zm0-16.07v4.77l-1.41,1v-8.35c.51.85,1,1.7,1.41,2.6m0,33.8V125.15l.68,2.52,1.71,1a37.08,37.08,0,0,0-2.05-15.09l-.34.25v-4.77a38.39,38.39,0,0,1,0,33.8"/><path class="cls-3" d="M144.46,120.46l28.09.26L170,126.94a.6.6,0,0,0,.09.68.49.49,0,0,0,.68-.13l10.74-12.44h-8.91V73.44h-15l5.75,4.86v36.83h-3.15a6.22,6.22,0,0,1-3.07-1,10.15,10.15,0,0,1-5.41-9.68c.51-5.83,3.58-10.44,6.26-14s4.22-5.88,4.48-7.71a8.64,8.64,0,0,0-1-4.43A5.37,5.37,0,0,0,157,75.58a4.9,4.9,0,1,0,0,9.8,5.11,5.11,0,0,0,1.61-.25c.22,1-2.77,2-6.26,3.53s-7.29,3-9.85,7.5c-3.2,5.55-2.6,11.64,2.05,15.86a26.77,26.77,0,0,0,4.22,3H136.19l10,13.3a.43.43,0,0,0,.68.13A.41.41,0,0,0,147,128Z"/></g></g></svg>