<svg xmlns="http://www.w3.org/2000/svg" viewBox="0 0 300 300"><defs><style>.cls-1{fill:#fde100;}</style></defs><title>Dortmund</title><g id="Слой_2" data-name="Слой 2"><g id="Слой_1-2" data-name="Слой 1"><circle class="cls-1" cx="150" cy="150" r="150"/><path d="M150,289.47A139.47,139.47,0,0,1,51.38,51.38,139.47,139.47,0,1,1,248.62,248.62,138.53,138.53,0,0,1,150,289.47Zm0-278.18C73.52,11.29,11.29,73.52,11.29,150S73.52,288.71,150,288.71,288.71,226.48,288.71,150,226.48,11.29,150,11.29Z"/><path d="M100.06,35.62l36.82,113.89h15.87L189.08,35.62h-22.2l-22.15,76-22-76ZM43.14,91.69V204.05H78.4c28.59,0,43-34.58,23.19-55.91v-.22c0-.1.16-.16.16-.16,16.53-18.6,9.54-51.44-21.11-56.07Zm145.94,0V204.05h35.45c28.53,0,43-34.58,23.18-55.91v-.22c0-.1.17-.16.17-.16,16.47-18.6,9.54-51.44-21.17-56.07Zm-125.29,21H81.13c11.29,0,13.58,21.6.71,25H63.79Zm146.23,0h17.24c11.23,0,13.58,21.6.65,25H210ZM63.79,157.85H79.11c12.71,0,17.4,23.13.88,26.4H63.79Zm146.23,0h15.17c12.7,0,17.4,23.13.87,26.4H210ZM122.75,206.4A16.6,16.6,0,0,0,106.22,223v24.87a16.55,16.55,0,0,0,16.53,16.53h.33a16.55,16.55,0,0,0,16.52-16.53V223a16.59,16.59,0,0,0-16.52-16.58Zm43.8,0c-9.11,0-16.86,7.09-16.86,16.2v4.09c0,9.11,8.3,16.47,16.86,16.74,0,0,3.49-.05,5.29-1L172,248a5.23,5.23,0,0,1-5.12,5.29c-2.29-.11-5.46-1.26-5.46-4.09,0,0,.55-3.77-2.18-3.77h-9.55a24.66,24.66,0,0,0,0,2.73c0,8.62,7.37,16.2,17.35,16.2,9.44-.11,16-7.31,16-16.69V222.76a16.13,16.13,0,0,0-16.2-16.36Zm.16,11.78a5.16,5.16,0,0,1,5.29,5.13v3.21a5.12,5.12,0,0,1-5.12,5.13,5.31,5.31,0,0,1-5.46-5.13v-3.21A5.27,5.27,0,0,1,166.71,218.18Zm-44,.16a5.3,5.3,0,0,1,5.45,5.13v24.71a5.26,5.26,0,0,1-5.29,5.13,5.16,5.16,0,0,1-5.29-5.13V223.47A5.12,5.12,0,0,1,122.75,218.34Z"/></g></g></svg>