<svg xmlns="http://www.w3.org/2000/svg" viewBox="0 0 300 252.72"><defs><style>.cls-1{fill:#060604;}.cls-2{fill:#f3ac26;}.cls-3{fill:#93000e;}.cls-4{fill:none;stroke:#fdfdfd;stroke-width:13.2px;}.cls-5{fill:#fdfdfd;}</style></defs><title>Dresden</title><g id="Слой_2" data-name="Слой 2"><g id="Слой_1-2" data-name="Слой 1"><g id="layer1"><g id="g3791"><g id="g3977"><path id="path3831" class="cls-1" d="M299.19,58a1,1,0,0,1,.77,1.24c-2.3,8-18.55,63.38-29.23,85.81C227.91,235,180.25,252.72,150,252.72S72.09,235,29.27,145.09C18.59,122.66,2.34,67.24,0,59.28A1,1,0,0,1,.81,58L150,17.17Z"/><g id="g3966"><g id="g3938"><path id="path3884" class="cls-2" d="M68.07,143l-18.45,7.52c3.06,9,6.51,12.91,14.41,9.69C72.27,156.85,72,151.5,68.07,143Zm10.51,3.59c4.23,10-1.78,19.06-10.77,22.47-8.12,3.08-18.75,2.45-23.32-8.92l-6.13-15.25L72,131Z"/><path id="path3886" class="cls-2" d="M99.58,175c-.22-.27-.46-.54-.7-.8l-9.55-10.48L61,187.25l5.24,6.28,10-8.36c.65.77,1.3,1.51,1.93,2.2l-1.42,16,8,7.5,1.5-16.42c6.35,4,11.19,2.88,15.06-.37,4.36-3.66,5.39-10.84-1.69-19.11Zm-8.33,3.27c5.11,6.09,4.88,8.4,3.54,9.61-2.23,2-4.27,1-12.39-7.84l6-5Q90,176.76,91.25,178.22Z"/><path id="path3908" class="cls-2" d="M112,191.84l22.44,13.54-3.7,6.41L116.21,203l-3.33,5.48,13,7.89-3.78,6.23-13-7.89-3.62,6,15,9.11-4.19,6.88L93.38,222.73Z"/><path id="path3912" class="cls-2" d="M154.44,220l9.46-.16c-.54-7.29-5.11-11.4-15.12-11.4s-14.42,5.66-14.42,10.86,1.63,9,14.42,11.71c6.56,1.39,7,2.63,7,4.57s-2.48,3.26-6,3.26-6.51-1.28-6.51-5.27l-9.54.23s-1.4,12.4,15.82,12.4c12.64,0,15.82-6.66,15.82-11.78s-2.59-9.61-12.49-11.32c-7.61-1.32-8.91-2.56-8.91-4.34s1.47-3,4.73-3S154.44,217.5,154.44,220Z"/><path id="path3916" class="cls-2" d="M248.44,174.61l3.66-8.22-20.69-9.2,25.79-2.45,3.94-8.85-33.23-14.78-3.66,8.21,20.19,9L219.16,151l-4,8.9Z"/><path id="path3919" class="cls-2" d="M176.61,208.34l10.64,16.85c8.29-4.59,11.57-8.68,7-15.89C189.53,201.78,184.31,203,176.61,208.34Zm1.7-11c9.11-5.93,19.08-1.59,24,6.67,4.46,7.46,5.69,18-4.7,24.51l-14,8.71-19.53-30.68Z"/><path id="path3921" class="cls-2" d="M193.23,184.29l17.5-19.51,5.61,4.84L205,182.2l4.76,4.3,10.18-11.28,5.41,4.89-10.18,11.27,5.17,4.67,11.76-13,6,5.4-18,19.9Z"/></g><path id="path3926" class="cls-2" d="M283.46,66.49l-23.28,69a.93.93,0,0,0,.59,1.18l3.1,1.05a1,1,0,0,0,1.19-.58l23.27-69a.93.93,0,0,0-.59-1.18l-3.09-1A.93.93,0,0,0,283.46,66.49ZM276.06,64l-23.27,69a.93.93,0,0,0,.59,1.18l3.1,1a.92.92,0,0,0,1.18-.58l23.28-69a.92.92,0,0,0-.59-1.18l-3.1-1a1,1,0,0,0-1.19.59Zm-7.39-2.5-23.27,69a.94.94,0,0,0,.59,1.19l3.09,1a.93.93,0,0,0,1.19-.58l23.28-69A1,1,0,0,0,273,62l-3.1-1a.93.93,0,0,0-1.19.58ZM261.28,59,238,128a.92.92,0,0,0,.59,1.18l3.09,1a.94.94,0,0,0,1.19-.59l23.28-69a.93.93,0,0,0-.6-1.18l-3.09-1a.93.93,0,0,0-1.19.58Zm-7.39-2.5-23.28,69a.94.94,0,0,0,.6,1.18l3.09,1a.93.93,0,0,0,1.19-.58l23.27-69a.92.92,0,0,0-.59-1.18l-3.09-1A.93.93,0,0,0,253.89,56.51Zm-237.35,10,23.28,69a.93.93,0,0,1-.59,1.18l-3.1,1.05a1,1,0,0,1-1.19-.58l-23.27-69A.93.93,0,0,1,12.26,67l3.09-1a.93.93,0,0,1,1.19.58ZM23.94,64l23.27,69a.93.93,0,0,1-.59,1.18l-3.1,1a.92.92,0,0,1-1.18-.58l-23.28-69a.92.92,0,0,1,.59-1.18l3.1-1a1,1,0,0,1,1.19.59Zm7.39-2.5,23.27,69a.94.94,0,0,1-.59,1.19l-3.09,1a.93.93,0,0,1-1.19-.58l-23.28-69A1,1,0,0,1,27,62l3.1-1a.93.93,0,0,1,1.19.58ZM38.72,59,62,128a.92.92,0,0,1-.59,1.18l-3.09,1a.94.94,0,0,1-1.19-.59l-23.28-69a.93.93,0,0,1,.6-1.18l3.09-1a.93.93,0,0,1,1.19.58Zm7.39-2.5,23.28,69a.94.94,0,0,1-.6,1.18l-3.09,1a.93.93,0,0,1-1.19-.58l-23.27-69A.92.92,0,0,1,41.83,57l3.09-1a.93.93,0,0,1,1.19.58Z"/></g></g><g id="g3786"><path id="path3823" class="cls-3" d="M230.56,16.27c9.5,4.39,14.38,10.68,16.05,13.46,8.35,14-12.34,75.66-37.12,116.23-18.32,30-39.4,53-59.49,53s-41.17-23-59.49-53C65.73,105.39,45,43.68,53.39,29.73c1.67-2.78,6.55-9.07,16-13.46C92.87,5.43,127.89,0,150,0s57.13,5.43,80.56,16.27Z"/><path id="path3826" class="cls-4" d="M87.81,116.09C71,81.89,61.62,44.23,65.17,38.09c8.4-14.54,53.26-24.32,84.83-24.47s76.43,9.62,84.83,24.16c3.55,6.14-5.83,43.8-22.64,78C196.72,147.25,170,186,150,186.19S103.28,147.56,87.81,116.09Z"/><path id="path3834" class="cls-5" d="M156.32,19.13a12.47,12.47,0,0,0-1.55.08c-8.35.85-22.2,7.42-29,16.51a85.39,85.39,0,0,0-21.95,10.12C85.55,58,82.69,70.64,81.92,73.6c-.58,2.26-.45,3.49,2.33,1.67,3.56-2.34,16.1-12.42,30.43-17.47,1.1-.39,1.82.1,1.73.83-1,9.19-.61,21.92.56,28,2.09,10.93,4.73,29.77,1.28,41.81-3.28,11.43-5.18,12.38-6.32,15.41-.51,1.37.17,1.94,2.17,1.13,5.33-2.17,19-1.36,34.35,4.3,14,5.15,26.87.89,35.4-5.62,10.72-8.19,24.48-31.51,26.63-53,3-30-12.86-47-31.64-54.44-9.76-3.88-20.53-5.14-31.16-4.5a24.19,24.19,0,0,1,8.6-10.07c2.65-1.83,2-2.5,0-2.52Zm-7.61,31.16a50.64,50.64,0,0,1,17.11,2.92c11.37,3.87,18.84,11.69,22.64,22.64,5,14.35,4.73,28.36,1,37.45s-11.63,16.59-21.63,16.59c-3.66,0-7.23-2.26-18.61-3a55.23,55.23,0,0,0-9.95,0,62.68,62.68,0,0,0,5.46-22.76,194.06,194.06,0,0,0-3.34-42,13.28,13.28,0,0,1,2.74-11.58c1.56-.13,3.08-.21,4.57-.22Z"/></g></g></g></g></g></svg>