<svg xmlns="http://www.w3.org/2000/svg" viewBox="0 0 300 300"><defs><style>.cls-1{fill:#da251d;}.cls-2{fill:#fff;}</style></defs><title>Dusseldorf</title><g id="Слой_2" data-name="Слой 2"><g id="Layer_1" data-name="Layer 1"><g id="Ebene_1"><path class="cls-1" d="M150,0c1.08,0,2.16,0,3.24,0l.81,0c1.16,0,2.32.07,3.47.13h.23C236.78,4.25,300,70,300,150c0,82.62-67.39,150-150,150C68.68,300,2.13,234.72.05,153.9c0-.23,0-.47,0-.7,0-1.07,0-2.13,0-3.2,0-.79,0-1.59,0-2.38,0-.52,0-1.05,0-1.57,0-.7.05-1.39.08-2.08s0-1.2.07-1.8.07-1.12.11-1.68c0-.71.08-1.41.14-2.12S.58,136.8.66,136l.12-1.38C7.74,66.74,60.29,12,127.17,1.74l.15,0c1.16-.18,2.33-.35,3.5-.5l.56-.06c1-.13,2.07-.25,3.1-.36l1-.09c.9-.09,1.79-.17,2.69-.24l1.36-.1L142,.21l1.26,0c.86,0,1.72-.08,2.59-.1l1.25,0c1,0,1.94,0,2.91,0Z"/><path class="cls-2" d="M150,7.45C228.49,7.45,292.55,71.5,292.55,150S228.49,292.55,150,292.55,7.45,228.51,7.45,150,71.49,7.45,150,7.45Z"/><path class="cls-1" d="M150,16.57c73.48,0,133.42,59.94,133.42,133.43S223.49,283.43,150,283.43,16.58,223.49,16.58,150,76.51,16.57,150,16.57Z"/><path class="cls-2" d="M150,37.29c62.05,0,112.7,50.65,112.7,112.72S212.06,262.7,150,262.7,37.3,212.09,37.3,150,87.93,37.29,150,37.29Z"/><path class="cls-1" d="M150,49.72A100.28,100.28,0,1,1,49.72,150,100.49,100.49,0,0,1,150,49.72Z"/><path class="cls-2" d="M225.42,97.3c-6,.5-9-2-11.57-5.08a86,86,0,0,0-135.64,10.2c6.88,2.4,11.48,6.79,11.48,13.91v62.85c-.13,7.76-6.37,13.88-13,16.11a86.25,86.25,0,0,0,72,40.89c4.59-.23,6.18-.65,1.32-3.28-15-8-34.29-25.19-34.29-42.15V165.84a8.37,8.37,0,0,1,8-8.54H173c5.39,0,9.9,3.89,13,8.64l0-42.9c-3.33,5.73-7.09,8.89-14.07,9.18H123.33c-4,0-7.61-4-7.61-8.33V104.46c0-3.61.7-5.67,4.07-7.42,8-4.2,19.19-7.8,30.22-7.72,9.71,0,22.67,3.58,29.38,7.92,19,12.36,19.06,25.67,18.12,35L225.42,97.3Z"/><path class="cls-2" d="M172.77,195.24a6.31,6.31,0,0,1-1.83,1.81,5.88,5.88,0,0,1-3.16.86,5.41,5.41,0,0,1-4.08-1.86,7.59,7.59,0,0,1-1.75-5.23,9.09,9.09,0,0,1,.54-3.35,5,5,0,0,1,2.36-2.81,5.25,5.25,0,0,1,2.44-.6,5.47,5.47,0,0,1,3.68,1.47,7.51,7.51,0,0,1,2.23,4.23c.05.5.13,1.19.18,2.08a13.8,13.8,0,0,1,.06,1.89,4.5,4.5,0,0,1-.67,1.51Zm-.52-17.53a20.62,20.62,0,0,0-4.85-.56A17.46,17.46,0,0,0,159,179a12.61,12.61,0,0,0-5.16,5.07,15.32,15.32,0,0,0-1.74,7.33,16.46,16.46,0,0,0,1.9,8.2,12,12,0,0,0,4.81,4.71,13,13,0,0,0,6.14,1.53,14.33,14.33,0,0,0,5.53-1,14.72,14.72,0,0,0,3.12-1.89,19.25,19.25,0,0,1-1.35,5.19,8.78,8.78,0,0,1-4.08,4.4,10.09,10.09,0,0,1-4.72,1,13.28,13.28,0,0,1-4.35-.7,24.09,24.09,0,0,1-2.65-1.16l-.7.32-.43,7.39.32.44c1.37.3,2.68.58,4,.78a26.5,26.5,0,0,0,4.27.34c6.38,0,11.35-1.93,14.81-5.79S184,205.52,184,197.8c0-5.37-.91-9.78-2.79-13.27a13.67,13.67,0,0,0-9-6.82Z"/><path class="cls-2" d="M212.94,195.26c-2.6-2.55-6.28-3.86-10.95-3.94a16.77,16.77,0,0,0-1.77.09c-.56,0-1.21.14-2,.22l.51-5.89,15,.36.43-.36.56-7.48-.29-.29H190.8l-.43.48c-.08,2.08-.19,3.9-.27,5.47s-.16,3.12-.26,4.66-.22,3.23-.35,5.14-.33,4.28-.54,7.06l.56.31a23.45,23.45,0,0,1,3.33-1.36,17.3,17.3,0,0,1,4.67-.64c2.84.06,5,.75,6.39,2.1a6.63,6.63,0,0,1,2.14,5,6.53,6.53,0,0,1-2.25,5.09,8.83,8.83,0,0,1-6,2,15.6,15.6,0,0,1-8.64-2.62l-.56.26c-.06,1.07-.11,2-.17,2.71s-.07,1.43-.15,2.16-.14,1.62-.25,2.71l.33.5a48.11,48.11,0,0,0,4.91,1.38,28.73,28.73,0,0,0,5.47.48c4.83-.07,8.59-1,11.25-2.66a13.94,13.94,0,0,0,5.5-6.07,15.94,15.94,0,0,0,1.45-6.69,13.72,13.72,0,0,0-4-10.17Z"/></g></g></g></svg>