<svg xmlns="http://www.w3.org/2000/svg" viewBox="0 0 252.33 300"><defs><style>.cls-1{fill:#005ca8;}.cls-2{fill:#fff;}.cls-3{fill:#161413;}</style></defs><title>Empoli</title><g id="Слой_2" data-name="Слой 2"><g id="Слой_1-2" data-name="Слой 1"><g id="Gruppe1"><path id="path2906" class="cls-1" d="M.42,27.34,0,27.55,0,28C2.18,54.58,8.68,96.69,27.52,146.44c15.94,42.1,45.91,102.83,98.15,153.09l.49.47.49-.47c52.25-50.26,82.21-111,98.16-153.09C243.65,96.69,250.15,54.58,252.29,28l0-.47-.43-.21C217.26,9.71,172.6,0,126.16,0S35.07,9.71.42,27.34Z"/><path id="path2908" class="cls-2" d="M126.16,1.41c46,0,90.29,9.58,124.68,27-2.17,26.49-8.68,68.24-27.36,117.56C207.64,187.77,177.9,248,126.16,298,74.42,248,44.68,187.77,28.84,146,10.17,96.63,3.66,54.88,1.49,28.39,35.88,11,80.13,1.41,126.16,1.41Z"/><path id="path2910" class="cls-1" d="M126.16,287.64c-43.58-42.58-70.83-93.51-89.68-143.3a478.17,478.17,0,0,1-18-58.41C48.28,73.13,85.66,65.5,126.16,65.5s77.89,7.63,107.73,20.43a478,478,0,0,1-18,58.41C197,194.13,169.74,245.06,126.16,287.64ZM16.68,78.25A384.09,384.09,0,0,1,9.42,32.3C40.85,17.59,81.66,8.68,126.16,8.68S211.47,17.59,242.9,32.3a382.09,382.09,0,0,1-7.26,46c-30.66-13-68.55-20.73-109.48-20.73S47.34,65.23,16.68,78.25Z"/><path id="path2912" class="cls-2" d="M65,141.64H188.05v2.25H65Z"/><path id="path2914" class="cls-2" d="M62.52,145.07H190.06v2.25H62.52Z"/><path id="path2916" class="cls-2" d="M62.52,157.64H189.86v2.25H62.52Z"/><path id="path2918" class="cls-2" d="M100.67,245.36V225.87H97.39v-3.08h.15a5.1,5.1,0,0,0,2.87-.77,3.5,3.5,0,0,0,1.52-2.14h4.66v25.48Zm18.6-14.54v-6.4a1.54,1.54,0,0,0-.24-1,.94.94,0,0,0-.76-.28,1,1,0,0,0-.79.28,1.52,1.52,0,0,0-.24,1v6.4a1.52,1.52,0,0,0,.24,1,1,1,0,0,0,.79.28.91.91,0,0,0,.76-.28A1.54,1.54,0,0,0,119.27,230.82Zm-2,10a1.49,1.49,0,0,0,.24.95,1,1,0,0,0,.79.29.94.94,0,0,0,.78-.28,1.58,1.58,0,0,0,.22-1v-5.38a6,6,0,0,1-1.52.72,5.84,5.84,0,0,1-1.66.23,5,5,0,0,1-3.54-1.14,4.25,4.25,0,0,1-1.23-3.28v-6.08q0-3.57,1.6-5.08c1.07-1,2.86-1.5,5.35-1.5s4.26.5,5.33,1.49,1.59,2.7,1.59,5.09v13.44c0,2.38-.54,4.08-1.61,5.08s-2.84,1.5-5.31,1.5a8.7,8.7,0,0,1-5.11-1.3,4.19,4.19,0,0,1-1.84-3.62v-3.28h5.92ZM135.5,224.2a1.56,1.56,0,0,0-.24-1,.89.89,0,0,0-.74-.3.92.92,0,0,0-.77.28,1.59,1.59,0,0,0-.22,1v4.65h-5.89v-2.94q0-3.58,1.61-5.09t5.35-1.49a8,8,0,0,1,5.22,1.46,5.43,5.43,0,0,1,1.73,4.41q0,3.47-4.29,9L136,235.91a21,21,0,0,0-2.06,3.21,5.14,5.14,0,0,0-.55,2.13,1.2,1.2,0,0,0,0,.23c0,.08,0,.16,0,.2h8.14v3.68h-14v-4.21a7.73,7.73,0,0,1,.65-3.09,21,21,0,0,1,2.63-4.17l1.27-1.66c2.23-2.91,3.35-4.93,3.35-6Zm7.92,1.71q0-3.56,1.62-5.07t5.34-1.51c2.49,0,4.28.5,5.35,1.49s1.61,2.7,1.61,5.09v13.44c0,2.38-.54,4.08-1.61,5.08s-2.86,1.5-5.35,1.5-4.28-.5-5.35-1.5-1.61-2.7-1.61-5.08Zm5.92-1.71v16.64a1.5,1.5,0,0,0,.25.95,1,1,0,0,0,.79.29.93.93,0,0,0,.77-.28,1.58,1.58,0,0,0,.22-1V224.2a1.54,1.54,0,0,0-.22-1,1.2,1.2,0,0,0-1.55,0A1.45,1.45,0,0,0,149.34,224.2Z"/><path id="path2920" class="cls-2" d="M165.42,99.45H86.91v-2.4h78.51Z"/><path id="path2922" class="cls-3" d="M178.82,147.58a4.9,4.9,0,0,0-3.48,1.44,4.87,4.87,0,0,0,0,6.93,4.93,4.93,0,0,0,8.41-3.47A4.83,4.83,0,0,0,182.3,149,4.9,4.9,0,0,0,178.82,147.58Zm0-.16a5.1,5.1,0,1,1-3.59,1.49A5.06,5.06,0,0,1,178.82,147.42Z"/><path id="path2924" class="cls-3" d="M163.36,147.58a4.93,4.93,0,0,0-3.49,1.44,4.87,4.87,0,0,0,0,6.93,4.94,4.94,0,0,0,8.42-3.47,4.87,4.87,0,0,0-1.45-3.46A4.92,4.92,0,0,0,163.36,147.58Zm0-.16a5.06,5.06,0,0,1,3.59,8.64,5.11,5.11,0,0,1-7.19,0,5.07,5.07,0,0,1,3.6-8.64Z"/><path id="path2926" class="cls-2" d="M126.16,147.15a9.47,9.47,0,0,1,9.63,9.25v29.95H116.54V156.4A9.47,9.47,0,0,1,126.16,147.15Zm-46.8,18.33a7.43,7.43,0,0,1,7.55,7.25v13.62H71.83V172.73A7.42,7.42,0,0,1,79.36,165.48Zm93.6,0a7.42,7.42,0,0,0-7.54,7.25v13.62H180.5V172.73A7.42,7.42,0,0,0,173,165.48Zm-72.4,0a7.42,7.42,0,0,1,7.54,7.25v13.62H93V172.73A7.42,7.42,0,0,1,100.56,165.48Zm51.2,0a7.43,7.43,0,0,1,7.55,7.25v13.62H144.22V172.73A7.43,7.43,0,0,1,151.76,165.48Z"/><path id="path2928" class="cls-2" d="M73.5,147.5a5,5,0,1,1-5,5A5,5,0,0,1,73.5,147.5Zm0,2.49A2.49,2.49,0,1,0,76,152.48,2.51,2.51,0,0,0,73.5,150Z"/><path id="path2930" class="cls-2" d="M89,147.5a5,5,0,1,1-5,5A5,5,0,0,1,89,147.5ZM89,150a2.49,2.49,0,1,0,2.5,2.49A2.5,2.5,0,0,0,89,150Z"/><path id="path2932" class="cls-2" d="M104.43,147.5a5,5,0,1,1-5,5A5,5,0,0,1,104.43,147.5Zm0,2.49a2.49,2.49,0,1,0,2.51,2.49A2.51,2.51,0,0,0,104.43,150Z"/><path id="path2934" class="cls-2" d="M178.82,147.5a5,5,0,1,1-5,5A5,5,0,0,1,178.82,147.5Zm0,2.49a2.49,2.49,0,1,0,2.5,2.49A2.5,2.5,0,0,0,178.82,150Z"/><path id="path2936" class="cls-2" d="M126.16,132.36a2.49,2.49,0,1,1-2.5,2.49A2.51,2.51,0,0,1,126.16,132.36Z"/><path id="path2938" class="cls-2" d="M126.16,126.88a8,8,0,1,1-8,8A8,8,0,0,1,126.16,126.88Zm0,3a5,5,0,1,0,5,5A5,5,0,0,0,126.16,129.87Z"/><path id="path2940" class="cls-2" d="M126.16,87.41a5,5,0,1,1-5,5A5,5,0,0,1,126.16,87.41Zm0,2.49a2.49,2.49,0,1,0,2.51,2.49A2.5,2.5,0,0,0,126.16,89.9Z"/><path id="path2942" class="cls-2" d="M93,97.82,125.93,80l.23-.13.24.13,32.93,17.87-.47.86-32.7-17.74L93.47,98.68Z"/><path id="path2944" class="cls-2" d="M151.83,104.73a6.5,6.5,0,0,1,6.5,6.46v11.57h-13V111.19A6.51,6.51,0,0,1,151.83,104.73Zm-51.33,0a6.51,6.51,0,0,1,6.51,6.46v11.57H94V111.19A6.51,6.51,0,0,1,100.5,104.73Zm17.09,0a6.51,6.51,0,0,1,6.52,6.46v11.57h-13V111.19A6.51,6.51,0,0,1,117.59,104.73Zm17.14,0a6.51,6.51,0,0,1,6.51,6.46v11.57h-13V111.19A6.51,6.51,0,0,1,134.73,104.73Z"/><path id="path2946" class="cls-2" d="M165.42,127.25H86.91V125h78.51Z"/><path id="path2948" class="cls-2" d="M188.6,185.15V144.94l-23.9-17.86-.48-.37V99L126.16,78.31,88.11,99v27.75l-.49.37-23.9,17.86v40.21Zm2.41,2.39H61.32V143.75l.48-.36,23.9-17.86v-28l.63-.34,39.26-21.3.57-.31.58.31L166,97.2l.63.34v28l23.91,17.86.48.36Z"/><path id="path2950" class="cls-2" d="M165.42,123.88H86.91v-2.25h78.51Z"/><path id="path2952" class="cls-2" d="M161.44,136.59c-1.36,0-1.64.57-1.63,2V140H161c.63,0,1.19.05,1.45-.52.62-1.37,4-1.93,6.72-2.49,1.54-.32.82-.42,0-.42Zm-3.12-6.13c-1.36,0-1.65.57-1.63,2v1.46h1.18c.63,0,1.19.05,1.45-.53.62-1.36,4-1.93,6.73-2.48,1.53-.32.81-.42,0-.42ZM147.48,140c1.51-.68,4.74-1.47,4.73-3.71,0-2.67-5.21-3.71-8.05-3.83,3-1.46,8.16-1.3,10.87.77,2.24,1.72,2.51,4.61-.36,6A12,12,0,0,1,147.48,140Zm-42.64,0c-1.5-.68-4.73-1.47-4.72-3.71,0-2.67,5.21-3.71,8-3.83-3-1.46-8.17-1.3-10.87.77-2.25,1.72-2.51,4.61.36,6A12,12,0,0,0,104.84,140Zm-14-3.44c1.35,0,1.64.57,1.63,2V140H91.33c-.62,0-1.18.05-1.45-.52-.62-1.37-4-1.93-6.72-2.49-1.53-.32-.82-.42,0-.42ZM94,130.46c1.35,0,1.64.57,1.63,2v1.46H94.45c-.63,0-1.18.05-1.45-.53-.62-1.36-4-1.93-6.72-2.48-1.53-.32-.82-.42,0-.42Z"/><path id="path2954" class="cls-2" d="M62.52,203.24H189.81v2.39H62.52Z"/><path id="path2956" class="cls-2" d="M62.9,187.48a8,8,0,0,0-3.07,1.89,11.2,11.2,0,0,0-2.32,3.46l-2.19-1a13.55,13.55,0,0,1,2.83-4.18,10.07,10.07,0,0,1,4-2.45Z"/><path id="path2958" class="cls-2" d="M57.53,191.9l.79,2H194l.79-2,2.24.88-1.09,2.72-.31.76H56.69l-.3-.76-1.09-2.72Z"/><path id="path2960" class="cls-2" d="M194.81,192.83a11,11,0,0,0-2.31-3.46,8,8,0,0,0-3.07-1.89l.76-2.26a10.21,10.21,0,0,1,4,2.45,13.7,13.7,0,0,1,2.82,4.18Z"/><path id="path2962" class="cls-2" d="M213.58,56.92l5.21,1.48L217.19,64,212,62.48ZM214,39.55l-.31,1.17L207.16,39l.17-.66a9.64,9.64,0,0,0,.54-3.92,1.85,1.85,0,0,0-1.48-1.35,1.88,1.88,0,0,0-2,.42,10,10,0,0,0-1.5,3.67l-3.38,12.54a9.37,9.37,0,0,0-.51,3.92,1.9,1.9,0,0,0,1.51,1.4,1.84,1.84,0,0,0,1.92-.42,8.05,8.05,0,0,0,1.36-3.18l.46-1.71,6.49,1.73-.45,1.66q-1.34,5-3.76,6.44c-1.61,1-4,1-7.15.2q-5.11-1.36-6.47-4.19t.31-9l2.63-9.76q1.65-6.18,4.26-7.93c1.74-1.17,4.32-1.29,7.74-.38q4.68,1.25,6,3.72t0,7.38ZM182.48,50l5.33,1-1.06,5.69-5.33-1Zm-8.83-27.4,13.89,2.19L186.7,30l-7-1.11-1.16,7.3,6.61,1-.81,5.09-6.61-1-2.13,13.39-6.85-1.08,4.94-31Zm-23-2.27,6.94.48-2.2,31.31-6.94-.48Zm-18.78-.77,6.92.18-.69,26.15,8,.21-.12,5.23L131,50.89l.83-31.38ZM53.28,27.07,63,25.37l6.58,19.8.13-21,9.54-1.68,5.48,30.92-6.29,1.1-4.07-23,.08,23.7L68.3,56.31,60.66,33.94l4.07,23-6,1ZM33.53,32.19l13.32-3.55,1.43,5.28-7.2,1.92,1.76,6.53,6.73-1.79L51,46l-6.73,1.79,2.08,7.73,7.77-2.07,1.43,5.33L41.7,62.51Zm94.15-2.06V40.24q0,6.39-2.06,8.78t-7.33,2.4c-3.52,0-6-.8-7.33-2.38s-2.06-4.51-2.06-8.8V30.13c0-4.24.69-7.16,2.06-8.73S114.77,19,118.29,19s6,.79,7.33,2.38S127.68,25.89,127.68,30.13Zm-6.91-1.42a9.14,9.14,0,0,0-.54-3.95,2.5,2.5,0,0,0-3.88,0,9.16,9.16,0,0,0-.54,3.92v13a9,9,0,0,0,.54,3.92,2.51,2.51,0,0,0,3.88,0,9.1,9.1,0,0,0,.54-3.91Zm-35.33-7L92.93,21q5.53-.48,8,1.28c1.63,1.16,2.58,3.29,2.85,6.37l.18,2c.26,2.93-.28,5.14-1.6,6.65S98.82,39.73,95.76,40l-2.18.19,1.07,12.18-6.46.57L85.44,21.66Zm6.87,4.11.87,9.79.88-.08a3.23,3.23,0,0,0,2.52-1.09A5,5,0,0,0,97,31.21l-.16-1.86a4.85,4.85,0,0,0-1-3,3.28,3.28,0,0,0-2.67-.64Z"/><path id="path2964" class="cls-2" d="M163.36,147.5a5,5,0,1,1-5,5A5,5,0,0,1,163.36,147.5Zm0,2.49a2.49,2.49,0,1,0,2.5,2.49A2.51,2.51,0,0,0,163.35,150Z"/><path id="path2966" class="cls-2" d="M147.89,147.5a5,5,0,1,1-5,5A5,5,0,0,1,147.89,147.5Zm0,2.59a2.39,2.39,0,1,0,2.41,2.39A2.4,2.4,0,0,0,147.89,150.09Z"/></g></g></g></svg>