<svg xmlns="http://www.w3.org/2000/svg" viewBox="0 0 249.96 297.14"><defs><style>.cls-1{fill:#fff;}.cls-2{fill:#2b57ac;}.cls-3{fill:#1c5329;}.cls-4{fill:#ea1f29;}.cls-5{fill:#f2bb0e;}</style></defs><title>England</title><g id="Слой_2" data-name="Слой 2"><g id="Layer_1" data-name="Layer 1"><g id="g3011"><g id="g3017"><path id="path3019" class="cls-1" d="M125,297.14c-40.12-10.81-73.31-28.78-94.5-52.9C10.27,221.31,0,192.66,0,160.32V0H250V160.32c0,32.34-10.25,61-30.49,83.92-21.18,24.12-54.33,42.09-94.48,52.9"/></g><g id="g3021"><path id="path3023" class="cls-1" d="M239.05,160.33c0,61.57-39.79,105.08-114.32,125.73C50.17,265.41,10.67,221.9,10.67,160.33V12.24H239.05Z"/></g><g id="g3025"><path id="path3027" class="cls-2" d="M237,160.31c0,60.32-39,102.94-112,123.17-73-20.23-111.73-62.85-111.73-123.17V15.23H237ZM7.05,9.19V160.33c0,30.87,9.69,57.58,28.74,79.26,20,22.76,50,39.64,89.18,50.21,39.22-10.57,69.23-27.45,89.22-50.21,19.05-21.68,28.71-48.39,28.71-79.26V9.19Z"/></g><g id="g3029"><path id="path3031" class="cls-3" d="M121.52,198.33l-.07-1.09h-.66a3.91,3.91,0,0,0-1.44,2l-.19.5a8.5,8.5,0,0,0-.44,2.51,24,24,0,0,0,1.72-2l.27-.41.81-1.59"/></g><g id="g3033"><path id="path3035" class="cls-4" d="M115.59,191.34a4.09,4.09,0,0,0-1.58,5.07,5.4,5.4,0,0,0,5.15,3.36l.18-.5a4,4,0,0,1,1.45-2,17.33,17.33,0,0,0-.66-3,15.38,15.38,0,0,0-1.76-2.9,3.72,3.72,0,0,1-2.78,0"/></g><g id="g3037"><path id="path3039" class="cls-4" d="M124.78,187a6.8,6.8,0,0,1-.66-3v-.3c-.84-.67-3.77-2.69-6.57-.4a5,5,0,0,0-1.34,6.38l2.37.76c.66-.51,1.75-1.35,2.78-2a14.8,14.8,0,0,1,3.42-1.47"/></g><g id="g3041"><path id="path3043" class="cls-3" d="M116,189.65a6.72,6.72,0,0,0-3.12.18s.42.86,2.7,1.51h0a3.79,3.79,0,0,0,2.78,0l.44-.62-.22-.33-2.38-.76-.25,0"/></g><g id="g3045"><path id="path3047" class="cls-4" d="M129.7,196.51a19.3,19.3,0,0,0-4,.27,23.2,23.2,0,0,0-4.2,1.55l-.81,1.58-.27.42a6.49,6.49,0,0,0,5.9,2.36c3.88-.49,4.85-3.16,5-3.81l-.26-.31-1.4-2.06"/></g><g id="g3049"><path id="path3051" class="cls-4" d="M134.25,189.22l-1,.5a10.69,10.69,0,0,1-2.45.76,9.22,9.22,0,0,0-.5,2.42,11.35,11.35,0,0,0,.22,2.72,9.53,9.53,0,0,1,1.69,1.78l.18.24.38.63c1.15,0,3.7-.28,4.24-3.9.63-4.06-2.19-5-2.75-5.15"/></g><g id="g3053"><path id="path3055" class="cls-4" d="M133.8,188.25c.11-.47.86-4.41-2.65-6.22a4.82,4.82,0,0,0-5.56.95l.1.67a8.29,8.29,0,0,1-.09,3,15.65,15.65,0,0,0,2.54,1.59,18.05,18.05,0,0,0,2.7.95l1.89-.7,1.07-.28"/></g><g id="g3057"><path id="path3059" class="cls-3" d="M125.69,183.65l-.11-.67c-.28-1.32-.91-1.51-.91-1.51s-.62.37-.55,2.24v.3a6.69,6.69,0,0,0,.66,3l.43.22.37-.48,0,0a8.24,8.24,0,0,0,.09-3"/></g><g id="g3061"><path id="path3063" class="cls-3" d="M134.25,189.22a7.44,7.44,0,0,0,1.82-1.16,8.41,8.41,0,0,0-2.26.19l-1.08.28-1.89.7-.69.92.64.33a10.69,10.69,0,0,0,2.45-.76l1-.5"/></g><g id="g3065"><path id="path3067" class="cls-3" d="M132.2,197.41a9.33,9.33,0,0,0-1.69-1.79l-.49-.31-.49.05-.06.62.23.53,1.39,2.06.26.3.21.2a3,3,0,0,0,1.73.88,3.69,3.69,0,0,0-.53-1.69l-.39-.61-.17-.24"/></g><g id="g3069"><path id="path3071" class="cls-5" d="M127.45,191.36c.33,1.23-.68,2.54-2.23,2.94s-3.07-.27-3.37-1.49.69-2.51,2.23-2.91,3,.25,3.37,1.46"/></g><g id="g3073"><path id="path3075" class="cls-3" d="M204.47,198.33l-.06-1.09h-.67a3.9,3.9,0,0,0-1.43,2l-.16.5a8.84,8.84,0,0,0-.47,2.51,22.65,22.65,0,0,0,1.74-2l.26-.41.79-1.59"/></g><g id="g3077"><path id="path3079" class="cls-4" d="M198.54,191.34a4.11,4.11,0,0,0-1.56,5.07,5.39,5.39,0,0,0,5.17,3.36l.16-.5a4,4,0,0,1,1.43-2,15.63,15.63,0,0,0-.64-3,16.51,16.51,0,0,0-1.77-2.9,3.73,3.73,0,0,1-2.79,0"/></g><g id="g3081"><path id="path3083" class="cls-4" d="M207.75,187a7.07,7.07,0,0,1-.67-3l0-.3c-.8-.67-3.75-2.69-6.54-.4a5.08,5.08,0,0,0-1.36,6.38l2.38.76c.65-.51,1.76-1.35,2.78-2a15.24,15.24,0,0,1,3.43-1.47"/></g><g id="g3085"><path id="path3087" class="cls-3" d="M198.91,189.65a6.52,6.52,0,0,0-3.09.18s.4.86,2.67,1.51h0a3.87,3.87,0,0,0,2.81,0l.44-.62-.24-.33-2.38-.76-.25,0"/></g><g id="g3089"><path id="path3091" class="cls-4" d="M212.65,196.51a19.15,19.15,0,0,0-4,.27,23.76,23.76,0,0,0-4.22,1.55l-.79,1.58-.26.42a6.41,6.41,0,0,0,5.87,2.36c3.88-.49,4.85-3.16,5-3.81l-.26-.31-1.41-2.06"/></g><g id="g3093"><path id="path3095" class="cls-4" d="M217.23,189.22l-1,.5a11.15,11.15,0,0,1-2.45.76,8.41,8.41,0,0,0-.52,2.42,11.81,11.81,0,0,0,.24,2.72,10.24,10.24,0,0,1,1.68,1.78l.17.24.39.63c1.17,0,3.7-.28,4.25-3.9.63-4.06-2.18-5-2.74-5.15"/></g><g id="g3097"><path id="path3099" class="cls-4" d="M216.77,188.25c.13-.47.86-4.41-2.65-6.22a4.82,4.82,0,0,0-5.56.95l.1.67a8,8,0,0,1-.1,3,17.52,17.52,0,0,0,2.53,1.59,18.46,18.46,0,0,0,2.71.95l1.9-.7,1.07-.28"/></g><g id="g3101"><path id="path3103" class="cls-3" d="M208.66,183.65l-.1-.67c-.3-1.32-.92-1.51-.92-1.51s-.63.37-.57,2.24l0,.3a7,7,0,0,0,.66,3l.44.22.36-.48v0a7.59,7.59,0,0,0,.1-3"/></g><g id="g3105"><path id="path3107" class="cls-3" d="M217.23,189.22a7.12,7.12,0,0,0,1.8-1.16,8.34,8.34,0,0,0-2.25.19l-1.09.28-1.89.7-.7.92.66.33a11.15,11.15,0,0,0,2.45-.76l1-.5"/></g><g id="g3109"><path id="path3111" class="cls-3" d="M215.16,197.41a10.4,10.4,0,0,0-1.67-1.79l-.51-.31-.49.05-.05.62.21.53,1.41,2.06.26.3.19.2a3.13,3.13,0,0,0,1.76.88,3.93,3.93,0,0,0-.55-1.69l-.39-.61-.17-.24"/></g><g id="g3113"><path id="path3115" class="cls-5" d="M210.42,191.36c.32,1.23-.69,2.54-2.23,2.94s-3.07-.27-3.39-1.49.69-2.51,2.24-2.91,3.06.25,3.38,1.46"/></g><g id="g3117"><path id="path3119" class="cls-3" d="M37.91,198.33l0-1.09H37.2a4,4,0,0,0-1.44,2l-.16.5a8.84,8.84,0,0,0-.47,2.51,24.63,24.63,0,0,0,1.74-2l.26-.41.78-1.59"/></g><g id="g3121"><path id="path3123" class="cls-4" d="M32,191.34a4.15,4.15,0,0,0-1.57,5.07,5.4,5.4,0,0,0,5.18,3.36l.17-.5a4,4,0,0,1,1.43-2,16.45,16.45,0,0,0-.64-3,17.13,17.13,0,0,0-1.76-2.9,3.79,3.79,0,0,1-2.81,0"/></g><g id="g3125"><path id="path3127" class="cls-4" d="M41.17,187a7.08,7.08,0,0,1-.63-3l0-.3c-.82-.67-3.75-2.69-6.56-.4a5,5,0,0,0-1.32,6.38l2.36.76c.65-.51,1.75-1.35,2.78-2A15.2,15.2,0,0,1,41.17,187"/></g><g id="g3129"><path id="path3131" class="cls-3" d="M32.36,189.65a6.63,6.63,0,0,0-3.1.18s.41.86,2.69,1.51h0a3.84,3.84,0,0,0,2.8,0l.44-.62-.24-.33-2.36-.76-.27,0"/></g><g id="g3133"><path id="path3135" class="cls-4" d="M46.1,196.51a19.29,19.29,0,0,0-4,.27,24.23,24.23,0,0,0-4.21,1.55l-.79,1.58-.26.42a6.45,6.45,0,0,0,5.89,2.36c3.87-.49,4.83-3.16,5-3.81l-.26-.31-1.41-2.06"/></g><g id="g3137"><path id="path3139" class="cls-4" d="M50.67,189.22l-1,.5a11.36,11.36,0,0,1-2.46.76,9.11,9.11,0,0,0-.53,2.42,11.18,11.18,0,0,0,.27,2.72,11.09,11.09,0,0,1,1.67,1.78l.16.24.39.63c1.16,0,3.71-.28,4.25-3.9.62-4.06-2.18-5-2.75-5.15"/></g><g id="g3141"><path id="path3143" class="cls-4" d="M50.23,188.25c.1-.47.84-4.41-2.67-6.22A4.84,4.84,0,0,0,42,183l.12.67a7.77,7.77,0,0,1-.12,3,18.73,18.73,0,0,0,2.55,1.59,18.88,18.88,0,0,0,2.71.95l1.9-.7,1.08-.28"/></g><g id="g3145"><path id="path3147" class="cls-3" d="M42.11,183.65,42,183c-.28-1.32-.9-1.51-.9-1.51s-.64.37-.57,2.24v.3a7,7,0,0,0,.65,3l.44.22.37-.48v0a7.53,7.53,0,0,0,.12-3"/></g><g id="g3149"><path id="path3151" class="cls-3" d="M50.67,189.22a7.28,7.28,0,0,0,1.81-1.16,8.41,8.41,0,0,0-2.26.19l-1.07.28-1.89.7-.7.92.65.33a11.36,11.36,0,0,0,2.46-.76l1-.5"/></g><g id="g3153"><path id="path3155" class="cls-3" d="M48.62,197.41A10.81,10.81,0,0,0,47,195.62l-.52-.31-.5.05,0,.62.19.53,1.41,2.06.26.3.2.2a3.09,3.09,0,0,0,1.75.88,3.93,3.93,0,0,0-.55-1.69l-.39-.61-.16-.24"/></g><g id="g3157"><path id="path3159" class="cls-5" d="M43.86,191.36a2.65,2.65,0,0,1-2.23,2.94c-1.55.38-3.06-.27-3.37-1.49s.69-2.51,2.23-2.91,3.07.25,3.37,1.46"/></g><g id="g3161"><path id="path3163" class="cls-3" d="M121.52,121l-.07-1.09h-.66a4.21,4.21,0,0,0-1.44,2.06l-.19.48a8.58,8.58,0,0,0-.44,2.53,25,25,0,0,0,1.72-2l.27-.4.81-1.62"/></g><g id="g3165"><path id="path3167" class="cls-4" d="M115.59,114A4.08,4.08,0,0,0,114,119.1a5.41,5.41,0,0,0,5.15,3.34l.18-.49a4.21,4.21,0,0,1,1.45-2,16.78,16.78,0,0,0-.66-2.94,15.38,15.38,0,0,0-1.76-2.9,3.88,3.88,0,0,1-2.78,0"/></g><g id="g3169"><path id="path3171" class="cls-4" d="M124.78,109.63a6.63,6.63,0,0,1-.66-3v-.29c-.84-.67-3.77-2.69-6.57-.4a5.06,5.06,0,0,0-1.34,6.39l2.37.75a30.56,30.56,0,0,1,2.78-2,16.3,16.3,0,0,1,3.42-1.48"/></g><g id="g3173"><path id="path3175" class="cls-3" d="M116,112.32a6.86,6.86,0,0,0-3.12.2s.42.85,2.7,1.49h0a3.81,3.81,0,0,0,2.78,0l.44-.62-.22-.32-2.38-.76-.25-.05"/></g><g id="g3177"><path id="path3179" class="cls-4" d="M129.7,119.2a18.62,18.62,0,0,0-4,.27,22.57,22.57,0,0,0-4.2,1.53l-.81,1.62-.27.39a6.56,6.56,0,0,0,5.9,2.35c3.88-.5,4.85-3.15,5-3.81l-.26-.31-1.4-2"/></g><g id="g3181"><path id="path3183" class="cls-4" d="M134.25,111.9l-1,.49a10.32,10.32,0,0,1-2.45.77,9.12,9.12,0,0,0-.5,2.43,11.39,11.39,0,0,0,.22,2.72,8.76,8.76,0,0,1,1.69,1.79l.18.24.38.6c1.15.06,3.7-.26,4.24-3.88.63-4.06-2.19-5-2.75-5.16"/></g><g id="g3185"><path id="path3187" class="cls-4" d="M133.8,110.93c.11-.48.86-4.41-2.65-6.22a4.8,4.8,0,0,0-5.56,1l.1.68a8.18,8.18,0,0,1-.09,3,15,15,0,0,0,2.54,1.59,20.17,20.17,0,0,0,2.7,1l1.89-.72,1.07-.27"/></g><g id="g3189"><path id="path3191" class="cls-3" d="M125.69,106.33l-.11-.68c-.28-1.31-.91-1.5-.91-1.5s-.62.38-.55,2.23v.29a6.53,6.53,0,0,0,.66,3l.43.25.37-.49,0,0a8.24,8.24,0,0,0,.09-3"/></g><g id="g3193"><path id="path3195" class="cls-3" d="M134.25,111.9a7.91,7.91,0,0,0,1.82-1.15,8.18,8.18,0,0,0-2.26.18l-1.08.27-1.89.72-.69.92.64.32a10.32,10.32,0,0,0,2.45-.77l1-.49"/></g><g id="g3197"><path id="path3199" class="cls-3" d="M132.2,120.09a8.76,8.76,0,0,0-1.69-1.79L130,118l-.49.06-.06.6.23.56,1.39,2,.26.3.21.2a2.9,2.9,0,0,0,1.73.87,3.6,3.6,0,0,0-.53-1.66l-.39-.62-.17-.24"/></g><g id="g3201"><path id="path3203" class="cls-5" d="M127.45,114c.33,1.22-.68,2.53-2.23,2.93s-3.07-.26-3.37-1.46.69-2.54,2.23-2.94,3,.25,3.37,1.47"/></g><g id="g3205"><path id="path3207" class="cls-3" d="M36.87,121l0-1.09h-.68A4.41,4.41,0,0,0,34.71,122l-.18.48a9.27,9.27,0,0,0-.45,2.53s1.08-1.09,1.75-2l.26-.4.78-1.62"/></g><g id="g3209"><path id="path3211" class="cls-4" d="M30.94,114a4.12,4.12,0,0,0-1.57,5.08,5.4,5.4,0,0,0,5.16,3.34l.19-.49a4.25,4.25,0,0,1,1.41-2,13.86,13.86,0,0,0-.62-2.94,17.14,17.14,0,0,0-1.77-2.9,3.92,3.92,0,0,1-2.8,0"/></g><g id="g3213"><path id="path3215" class="cls-4" d="M40.14,109.63a6.92,6.92,0,0,1-.66-3v-.29c-.84-.67-3.77-2.69-6.58-.4a5.09,5.09,0,0,0-1.33,6.39l2.39.75a26.6,26.6,0,0,1,2.77-2,16.7,16.7,0,0,1,3.41-1.48"/></g><g id="g3217"><path id="path3219" class="cls-3" d="M31.31,112.32a6.83,6.83,0,0,0-3.11.2s.44.85,2.69,1.49h.05a3.9,3.9,0,0,0,2.81,0l.43-.62-.22-.32-2.4-.76-.25-.05"/></g><g id="g3221"><path id="path3223" class="cls-4" d="M45.05,119.2a18.44,18.44,0,0,0-4,.27A23.38,23.38,0,0,0,36.87,121l-.78,1.62-.26.39a6.45,6.45,0,0,0,5.86,2.35c3.88-.5,4.86-3.15,5-3.81l-.26-.31-1.41-2"/></g><g id="g3225"><path id="path3227" class="cls-4" d="M49.62,111.9l-1,.49a10.52,10.52,0,0,1-2.43.77,9,9,0,0,0-.54,2.43,12.37,12.37,0,0,0,.26,2.72,10,10,0,0,1,1.68,1.79l.17.24.38.6c1.15.06,3.7-.26,4.26-3.88.61-4.06-2.19-5-2.76-5.16"/></g><g id="g3229"><path id="path3231" class="cls-4" d="M49.17,110.93c.1-.48.85-4.41-2.66-6.22a4.8,4.8,0,0,0-5.56,1l.11.68a7.9,7.9,0,0,1-.11,3A16.66,16.66,0,0,0,43.48,111a21.19,21.19,0,0,0,2.73,1l1.89-.72,1.07-.27"/></g><g id="g3233"><path id="path3235" class="cls-3" d="M41.06,106.33l-.11-.68c-.29-1.31-.91-1.5-.91-1.5s-.62.38-.56,2.23v.29a7,7,0,0,0,.66,3l.44.25.37-.49v0a7.75,7.75,0,0,0,.11-3"/></g><g id="g3237"><path id="path3239" class="cls-3" d="M49.62,111.9a7.48,7.48,0,0,0,1.81-1.15,8.19,8.19,0,0,0-2.26.18l-1.07.27-1.89.72-.71.92.67.32a10.52,10.52,0,0,0,2.43-.77l1-.49"/></g><g id="g3241"><path id="path3243" class="cls-3" d="M47.57,120.09a9.68,9.68,0,0,0-1.68-1.79l-.51-.32-.49.06-.06.6.22.56,1.41,2,.25.3.21.2a2.91,2.91,0,0,0,1.74.87,3.56,3.56,0,0,0-.54-1.66l-.38-.62-.17-.24"/></g><g id="g3245"><path id="path3247" class="cls-5" d="M42.82,114c.31,1.22-.69,2.53-2.24,2.93s-3.06-.26-3.36-1.46.66-2.54,2.23-2.94,3.06.25,3.37,1.47"/></g><g id="g3249"><path id="path3251" class="cls-3" d="M206.34,121l-.05-1.09h-.66a4.28,4.28,0,0,0-1.44,2.06l-.17.48a8.66,8.66,0,0,0-.46,2.53,22.32,22.32,0,0,0,1.73-2l.28-.4.77-1.62"/></g><g id="g3253"><path id="path3255" class="cls-4" d="M200.42,114a4.14,4.14,0,0,0-1.57,5.08,5.42,5.42,0,0,0,5.17,3.34l.18-.49a4.19,4.19,0,0,1,1.42-2A15.19,15.19,0,0,0,205,117a15.94,15.94,0,0,0-1.77-2.9,3.88,3.88,0,0,1-2.79,0"/></g><g id="g3257"><path id="path3259" class="cls-4" d="M209.62,109.63a6.81,6.81,0,0,1-.65-3l0-.29c-.81-.67-3.75-2.69-6.56-.4a5,5,0,0,0-1.33,6.39l2.38.75a27.72,27.72,0,0,1,2.77-2,16.7,16.7,0,0,1,3.41-1.48"/></g><g id="g3261"><path id="path3263" class="cls-3" d="M200.79,112.32a6.77,6.77,0,0,0-3.1.2s.41.85,2.69,1.49h0a3.86,3.86,0,0,0,2.8,0l.44-.62-.21-.32-2.39-.76-.27-.05"/></g><g id="g3265"><path id="path3267" class="cls-4" d="M214.54,119.2a18.36,18.36,0,0,0-4,.27,23.51,23.51,0,0,0-4.23,1.53l-.79,1.62-.27.39a6.57,6.57,0,0,0,5.89,2.35c3.88-.5,4.84-3.15,5-3.81l-.25-.31-1.4-2"/></g><g id="g3269"><path id="path3271" class="cls-4" d="M219.11,111.9l-1,.49a10.37,10.37,0,0,1-2.46.77,8.71,8.71,0,0,0-.51,2.43,11.3,11.3,0,0,0,.25,2.72,10,10,0,0,1,1.68,1.79l.18.24.38.6c1.14.06,3.7-.26,4.25-3.88.61-4.06-2.2-5-2.75-5.16"/></g><g id="g3273"><path id="path3275" class="cls-4" d="M218.66,110.93c.1-.48.83-4.41-2.68-6.22a4.8,4.8,0,0,0-5.55,1l.12.68a7.93,7.93,0,0,1-.1,3A15,15,0,0,0,213,111a21.21,21.21,0,0,0,2.71,1l1.9-.72,1.08-.27"/></g><g id="g3277"><path id="path3279" class="cls-3" d="M210.55,106.33l-.12-.68c-.28-1.31-.9-1.5-.9-1.5s-.65.38-.57,2.23v.29a6.89,6.89,0,0,0,.64,3l.46.25.36-.49,0,0a8,8,0,0,0,.1-3"/></g><g id="g3281"><path id="path3283" class="cls-3" d="M219.11,111.9a8.46,8.46,0,0,0,1.82-1.15,8.22,8.22,0,0,0-2.27.18l-1.08.27-1.9.72-.69.92.64.32a10.37,10.37,0,0,0,2.46-.77l1-.49"/></g><g id="g3285"><path id="path3287" class="cls-3" d="M217.05,120.09a10.43,10.43,0,0,0-1.67-1.79l-.51-.32-.5.06,0,.6.21.56,1.39,2,.27.3.19.2a3,3,0,0,0,1.76.87,3.89,3.89,0,0,0-.54-1.66l-.39-.62-.17-.24"/></g><g id="g3289"><path id="path3291" class="cls-5" d="M212.29,114c.32,1.22-.68,2.53-2.23,2.93s-3.05-.26-3.37-1.46.69-2.54,2.24-2.94,3,.25,3.36,1.47"/></g><g id="g3293"><path id="path3295" class="cls-3" d="M121.52,43.69l-.07-1.09h-.66a4,4,0,0,0-1.44,2l-.19.48a8.58,8.58,0,0,0-.44,2.52,20.74,20.74,0,0,0,1.72-1.94l.27-.4.81-1.61"/></g><g id="g3297"><path id="path3299" class="cls-4" d="M115.59,36.71A4.08,4.08,0,0,0,114,41.79a5.41,5.41,0,0,0,5.15,3.34l.18-.49a4.06,4.06,0,0,1,1.45-2,17,17,0,0,0-.66-2.94,15.07,15.07,0,0,0-1.76-2.9,3.88,3.88,0,0,1-2.78,0"/></g><g id="g3301"><path id="path3303" class="cls-4" d="M124.78,32.32a6.71,6.71,0,0,1-.66-3v-.3c-.84-.66-3.77-2.69-6.57-.4a5.06,5.06,0,0,0-1.34,6.39l2.37.75a30.77,30.77,0,0,1,2.78-2,16.38,16.38,0,0,1,3.42-1.49"/></g><g id="g3305"><path id="path3307" class="cls-3" d="M116,35a7.06,7.06,0,0,0-3.12.18s.42.86,2.7,1.51h0a3.87,3.87,0,0,0,2.78,0l.44-.64-.22-.32-2.38-.75L116,35"/></g><g id="g3309"><path id="path3311" class="cls-4" d="M129.7,41.89a18.62,18.62,0,0,0-4,.27,23.31,23.31,0,0,0-4.2,1.53l-.81,1.61-.27.4a6.54,6.54,0,0,0,5.9,2.34c3.88-.48,4.85-3.15,5-3.8l-.26-.3-1.4-2"/></g><g id="g3313"><path id="path3315" class="cls-4" d="M134.25,34.59l-1,.49a11.81,11.81,0,0,1-2.45.76,9.21,9.21,0,0,0-.5,2.43,11.22,11.22,0,0,0,.22,2.71,9.33,9.33,0,0,1,1.69,1.79l.18.24.38.63c1.15,0,3.7-.29,4.24-3.9.63-4.06-2.19-5-2.75-5.15"/></g><g id="g3317"><path id="path3319" class="cls-4" d="M133.8,33.62c.11-.48.86-4.42-2.65-6.22a4.82,4.82,0,0,0-5.56,1l.1.67a8.25,8.25,0,0,1-.09,3,14.48,14.48,0,0,0,2.54,1.58,18.81,18.81,0,0,0,2.7,1l1.89-.72,1.07-.26"/></g><g id="g3321"><path id="path3323" class="cls-3" d="M125.69,29l-.11-.66c-.28-1.33-.91-1.52-.91-1.52s-.62.38-.55,2.23v.29a6.68,6.68,0,0,0,.66,3l.43.22.37-.47,0,0a8.21,8.21,0,0,0,.09-3"/></g><g id="g3325"><path id="path3327" class="cls-3" d="M134.25,34.59a7.44,7.44,0,0,0,1.82-1.16,8,8,0,0,0-2.26.19l-1.08.26-1.89.72-.69.92.64.32a11.81,11.81,0,0,0,2.45-.76l1-.49"/></g><g id="g3329"><path id="path3331" class="cls-3" d="M132.2,42.77A9.22,9.22,0,0,0,130.51,41l-.49-.31-.49,0-.06.62.23.54,1.39,2,.26.3.21.2a3,3,0,0,0,1.73.89,3.61,3.61,0,0,0-.53-1.68l-.39-.63-.17-.24"/></g><g id="g3333"><path id="path3335" class="cls-5" d="M127.45,36.73c.33,1.22-.68,2.53-2.23,2.93s-3.07-.25-3.37-1.48.69-2.52,2.23-2.92,3,.26,3.37,1.47"/></g><g id="g3337"><path id="path3339" class="cls-3" d="M36.87,43.69l0-1.09h-.68a4.21,4.21,0,0,0-1.43,2l-.18.48a9.29,9.29,0,0,0-.45,2.52,22.29,22.29,0,0,0,1.75-1.94l.26-.4.78-1.61"/></g><g id="g3341"><path id="path3343" class="cls-4" d="M30.94,36.71a4.12,4.12,0,0,0-1.57,5.08,5.4,5.4,0,0,0,5.16,3.34l.19-.49a4.1,4.1,0,0,1,1.41-2,14,14,0,0,0-.62-2.94,16.75,16.75,0,0,0-1.77-2.9,3.92,3.92,0,0,1-2.8,0"/></g><g id="g3345"><path id="path3347" class="cls-4" d="M40.14,32.32a7,7,0,0,1-.66-3v-.3c-.84-.66-3.77-2.69-6.58-.4a5.09,5.09,0,0,0-1.33,6.39L34,35.8a26.75,26.75,0,0,1,2.77-2,16.78,16.78,0,0,1,3.41-1.49"/></g><g id="g3349"><path id="path3351" class="cls-3" d="M31.31,35a7,7,0,0,0-3.11.18s.44.86,2.69,1.51h.05a4,4,0,0,0,2.81,0l.43-.64L34,35.8l-2.4-.75-.25,0"/></g><g id="g3353"><path id="path3355" class="cls-4" d="M45.05,41.89a18.44,18.44,0,0,0-4,.27,24.17,24.17,0,0,0-4.22,1.53l-.78,1.61-.26.4A6.42,6.42,0,0,0,41.69,48c3.88-.48,4.86-3.15,5-3.8l-.26-.3-1.41-2"/></g><g id="g3357"><path id="path3359" class="cls-4" d="M49.62,34.59l-1,.49a12.08,12.08,0,0,1-2.43.76,9.07,9.07,0,0,0-.54,2.43A12.16,12.16,0,0,0,45.89,41a10.79,10.79,0,0,1,1.68,1.79l.17.24.38.63c1.15,0,3.7-.29,4.26-3.9.61-4.06-2.19-5-2.76-5.15"/></g><g id="g3361"><path id="path3363" class="cls-4" d="M49.17,33.62c.1-.48.85-4.42-2.66-6.22a4.82,4.82,0,0,0-5.56,1l.11.67a8,8,0,0,1-.11,3,16,16,0,0,0,2.53,1.58,19.71,19.71,0,0,0,2.73,1l1.89-.72,1.07-.26"/></g><g id="g3365"><path id="path3367" class="cls-3" d="M41.06,29,41,28.35C40.66,27,40,26.83,40,26.83s-.62.38-.56,2.23v.29a7.13,7.13,0,0,0,.66,3l.44.22.37-.47v0a7.73,7.73,0,0,0,.11-3"/></g><g id="g3369"><path id="path3371" class="cls-3" d="M49.62,34.59a7.06,7.06,0,0,0,1.81-1.16,8,8,0,0,0-2.26.19l-1.07.26-1.89.72-.71.92.67.32a12.08,12.08,0,0,0,2.43-.76l1-.49"/></g><g id="g3373"><path id="path3375" class="cls-3" d="M47.57,42.77A10.25,10.25,0,0,0,45.89,41l-.51-.31-.49,0-.06.62.22.54,1.41,2,.25.3.21.2a3,3,0,0,0,1.74.89,3.57,3.57,0,0,0-.54-1.68L47.74,43l-.17-.24"/></g><g id="g3377"><path id="path3379" class="cls-5" d="M42.82,36.73c.31,1.22-.69,2.53-2.24,2.93s-3.06-.25-3.36-1.48.66-2.52,2.23-2.92,3.06.26,3.37,1.47"/></g><g id="g3381"><path id="path3383" class="cls-3" d="M206.34,43.69l-.05-1.09h-.66a4.09,4.09,0,0,0-1.44,2l-.17.48a8.67,8.67,0,0,0-.46,2.52,18.84,18.84,0,0,0,1.73-1.94l.28-.4.77-1.61"/></g><g id="g3385"><path id="path3387" class="cls-4" d="M200.42,36.71a4.14,4.14,0,0,0-1.57,5.08A5.42,5.42,0,0,0,204,45.13l.18-.49a4,4,0,0,1,1.42-2,15.35,15.35,0,0,0-.64-2.94,15.6,15.6,0,0,0-1.77-2.9,3.88,3.88,0,0,1-2.79,0"/></g><g id="g3389"><path id="path3391" class="cls-4" d="M209.62,32.32a6.89,6.89,0,0,1-.65-3l0-.3c-.81-.66-3.75-2.69-6.56-.4a5,5,0,0,0-1.33,6.39l2.38.75a27.89,27.89,0,0,1,2.77-2,16.78,16.78,0,0,1,3.41-1.49"/></g><g id="g3393"><path id="path3395" class="cls-3" d="M200.79,35a7,7,0,0,0-3.1.18s.41.86,2.69,1.51h0a3.92,3.92,0,0,0,2.8,0l.44-.64-.21-.32-2.39-.75-.27,0"/></g><g id="g3397"><path id="path3399" class="cls-4" d="M214.54,41.89a18.36,18.36,0,0,0-4,.27,24.31,24.31,0,0,0-4.23,1.53l-.79,1.61-.27.4A6.55,6.55,0,0,0,211.18,48c3.88-.48,4.84-3.15,5-3.8l-.25-.3-1.4-2"/></g><g id="g3401"><path id="path3403" class="cls-4" d="M219.11,34.59l-1,.49a11.86,11.86,0,0,1-2.46.76,8.79,8.79,0,0,0-.51,2.43,11.11,11.11,0,0,0,.25,2.71,10.79,10.79,0,0,1,1.68,1.79l.18.24.38.63c1.14,0,3.7-.29,4.25-3.9.61-4.06-2.2-5-2.75-5.15"/></g><g id="g3405"><path id="path3407" class="cls-4" d="M218.66,33.62c.1-.48.83-4.42-2.68-6.22a4.81,4.81,0,0,0-5.55,1l.12.67a8,8,0,0,1-.1,3A14.47,14.47,0,0,0,213,33.63a19.72,19.72,0,0,0,2.71,1l1.9-.72,1.08-.26"/></g><g id="g3409"><path id="path3411" class="cls-3" d="M210.55,29l-.12-.66c-.28-1.33-.9-1.52-.9-1.52s-.65.38-.57,2.23v.29a7.05,7.05,0,0,0,.64,3l.46.22.36-.47,0,0a8,8,0,0,0,.1-3"/></g><g id="g3413"><path id="path3415" class="cls-3" d="M219.11,34.59a7.93,7.93,0,0,0,1.82-1.16,8,8,0,0,0-2.27.19l-1.08.26-1.9.72-.69.92.64.32a11.86,11.86,0,0,0,2.46-.76l1-.49"/></g><g id="g3417"><path id="path3419" class="cls-3" d="M217.05,42.77A11.1,11.1,0,0,0,215.38,41l-.51-.31-.5,0,0,.62.21.54,1.39,2,.27.3.19.2a3.11,3.11,0,0,0,1.76.89,3.89,3.89,0,0,0-.54-1.68l-.39-.63-.17-.24"/></g><g id="g3421"><path id="path3423" class="cls-5" d="M212.29,36.73c.32,1.22-.68,2.53-2.23,2.93s-3.05-.25-3.37-1.48.69-2.52,2.24-2.92,3,.26,3.36,1.47"/></g><g id="g3425"><path id="path3427" class="cls-3" d="M121.52,264.16l-.07-1.09h-.66a4,4,0,0,0-1.44,2.06l-.19.48a8.5,8.5,0,0,0-.44,2.51,21.48,21.48,0,0,0,1.72-1.95l.27-.41.81-1.6"/></g><g id="g3429"><path id="path3431" class="cls-4" d="M115.59,257.19a4.05,4.05,0,0,0-1.58,5.06,5.44,5.44,0,0,0,5.15,3.36l.18-.49a4,4,0,0,1,1.45-2,16.78,16.78,0,0,0-.66-2.94,15.48,15.48,0,0,0-1.76-2.91,3.91,3.91,0,0,1-2.78,0"/></g><g id="g3433"><path id="path3435" class="cls-4" d="M124.78,252.8a6.76,6.76,0,0,1-.66-3v-.28c-.84-.68-3.77-2.69-6.57-.41a5.06,5.06,0,0,0-1.34,6.39l2.37.75a27.2,27.2,0,0,1,2.78-2,16.3,16.3,0,0,1,3.42-1.48"/></g><g id="g3437"><path id="path3439" class="cls-3" d="M116,255.48a7.06,7.06,0,0,0-3.12.18s.42.86,2.7,1.52h0a3.91,3.91,0,0,0,2.78,0l.44-.62-.22-.34-2.38-.75-.25,0"/></g><g id="g3441"><path id="path3443" class="cls-4" d="M129.7,262.36a18,18,0,0,0-4,.28,21.27,21.27,0,0,0-4.2,1.52l-.81,1.61-.27.39a6.56,6.56,0,0,0,5.9,2.37c3.88-.5,4.85-3.17,5-3.82l-.26-.31-1.4-2"/></g><g id="g3445"><path id="path3447" class="cls-4" d="M134.25,255.07l-1,.47a10.45,10.45,0,0,1-2.45.78,9.13,9.13,0,0,0-.5,2.42,11.35,11.35,0,0,0,.22,2.72,9.22,9.22,0,0,1,1.69,1.78l.18.25.38.62c1.15,0,3.7-.28,4.24-3.9.63-4-2.19-5-2.75-5.14"/></g><g id="g3449"><path id="path3451" class="cls-4" d="M133.8,254.09c.11-.47.86-4.42-2.65-6.23a4.82,4.82,0,0,0-5.56,1l.1.67a8.18,8.18,0,0,1-.09,3,12.84,12.84,0,0,0,2.54,1.58,16.89,16.89,0,0,0,2.7,1l1.89-.72,1.07-.27"/></g><g id="g3453"><path id="path3455" class="cls-3" d="M125.69,249.49l-.11-.66c-.28-1.33-.91-1.51-.91-1.51s-.62.37-.55,2.22v.29a6.62,6.62,0,0,0,.66,3l.43.23.37-.49,0,0a8.23,8.23,0,0,0,.09-3"/></g><g id="g3457"><path id="path3459" class="cls-3" d="M134.25,255.07a8,8,0,0,0,1.82-1.17,8.41,8.41,0,0,0-2.26.19l-1.08.27-1.89.72-.69.92.64.32a10.45,10.45,0,0,0,2.45-.78l1-.47"/></g><g id="g3461"><path id="path3463" class="cls-3" d="M132.2,263.24a9.22,9.22,0,0,0-1.69-1.78l-.49-.31-.49,0-.06.62.23.55,1.39,2,.26.32.21.18a3,3,0,0,0,1.73.88,3.59,3.59,0,0,0-.53-1.67l-.39-.62-.17-.25"/></g><g id="g3465"><path id="path3467" class="cls-5" d="M127.45,257.21c.33,1.21-.68,2.52-2.23,2.94s-3.07-.27-3.37-1.48.69-2.54,2.23-2.93,3,.25,3.37,1.47"/></g><g id="g3469"><path id="path3471" class="cls-2" d="M196.75,208.31s3.3-4.65-8.27-9.32c-8.57-3.45-20.36-2.72-27.87-3.76-6.29-.88-7-2.3-6.64-3.87.75-3.47,6.63-1.18,10.3.78,4,2.14,11,2.84,16.2-1.94a11,11,0,0,1,4.42-2.33s-3-1.93-5.55-.21a6.82,6.82,0,0,1-4,1.6c-3.68.27-4.36-.91-4.36-.91s1.87,1.27,6.49-1.09c6-3.06,2.39-9.78,2.39-9.78a4.26,4.26,0,0,1-2.13,4.06,5.83,5.83,0,0,1-6.5.2,4.59,4.59,0,0,0,3.47-.11c2.63-1,3.49-2.37,2.6-4.15a6.79,6.79,0,0,0-1.62-1.67s2.89,3.8-8.5,3c-5.75-.4-7.75,5.4-7.75,5.4a9.7,9.7,0,0,0-4.49,0,6.64,6.64,0,0,0-.47-3.31c-.6,3-2.9,4.92-4,6.21s-3.33,4.62-.46,8.55c2.83,3.31,8,3.8,11.26,4.06,4.85.36,12.88.79,20,1.77,9.58,1.32,7.92,5.91,6.75,7.33s-3.5,1.55-10.16-.77-13.61-6.49-27.51-5.94c-19.18.74-32.83,14.77-39.84,14a10.09,10.09,0,0,1,.21,2.83c-.62,4.86-5,7.49-5,7.49l-.62-1c-.45.06,0,1.06-1.61,2.23a7.22,7.22,0,0,0-2.82,4.63s-.79-1.55-1.25-.17a2.72,2.72,0,0,1-2,2.07l-.43-.89c-.62,0-.86,3.89-7.56,3.25l-.5.13c-4.92.84-5.77-4-7.52-5.68-1.14-1.09-2.52.89-2.52.89A4,4,0,0,1,78,229c.12-2,.49-2.64-.3-4-.61-1-3.17-3.2-2.21-6.9-1.17,0-3.51-.88-4.46-7.75l.82.1c-.16-1.05-1.08-1.44-1.27-2.65-.26-1.77-.48-5.2.49-6.41,1.48-1.85,5.57-2.48,3.62-6.1l-.64,1-1,.41-1.23-1.32.68-1.18,0-.08a3.42,3.42,0,0,0-1.74.36c.08-.79,1.41-4.95-2.12-5.89l-.24,1.65-.77.71-1.6-.8.25-1.36.15-.53c-3.4.42-2.71,4.84-2.66,5.53-.09-1-2.15-3.81-4.14-2.54l-.2.16.65.68.19,1-1.51,1-1-.89-.09-.12c-.71.93-.61,2.59,1.3,4,2.83,2.14,3.79,10.82,3.35,12-.59,1.55-2.11-.65-2.11-.65a6.28,6.28,0,0,0,1.17,4c2.52,3.61,3.28,5.19,1.4,4.59l-1.18-.75s.11,1.8,2.41,3.67c.91.75.78,1.17.12,1.09a2.88,2.88,0,0,1-1.33-.58,15.09,15.09,0,0,0,1.79,3.21,15.43,15.43,0,0,0,3.71,3.7,14.69,14.69,0,0,1-5.36-2c-4.72-2.75-2.73-4.68-4.14-7.94s-2.22-3.63-3.62-3.81h-.13l.18.68-.27,1-1.78.17-.51-1.27A2.47,2.47,0,0,0,51.61,217a8.78,8.78,0,0,0-3.83-2.59,3.84,3.84,0,0,0-2.4.48l-.12,0,.25.18L46,216l-1.19,1.35-1.24-.57-.17-.12c-.83,1.49-.57,4.3,4.3,5.89,0,0-2.35.35-3.09,2.07l1.63.26.7.79-.84,1.58L44.75,227l-.21-.09c.55,2.46,2.54,2.82,4.22,2.82a26.29,26.29,0,0,1,12.93,3.41,3.62,3.62,0,0,0-2.45,1.21c-.91,1.18-.7,1.86-.7,1.86a5,5,0,0,1,2.47-.91c1.92-.34,2.3.36,2.3.36a3,3,0,0,0-1.71,3.95,7.73,7.73,0,0,1,2.87-1.86c1.45-.48,3.13-.38,3.8.56.91,1.32-3,2.61-3,2.61,2.71,1.62,8.64.84,8.64.84s-4.15.74-4.11,3.45c0,0,2.57-2,7.63,0,7.67,3,17.06,4.39,29.34-.59,15.47-6.29,15.89-19.65,37.41-26.76.7,1,5.54,5.57,11.61,7.81,4.88,1.83,11.76,3.05,13.86,3.54,3,.74,8.4,1.89,5.18,7.74a12.4,12.4,0,0,1-4.24,4.53c-.24,0-1.84-.5-4.14-1.32-1.34-.5-2.33-.2-2.75.73l1,.17.65.69-.69,1.47-1.2-.2-.1,0a1.9,1.9,0,0,0,1.54,1.82,2.43,2.43,0,0,0-1.57,2.09l.83-.22.9.27.08,1.62L164,249l.13.09c1,1.19,3.69.3,3.69.3a2.48,2.48,0,0,0,.22,2.43l.58-1.09.86-.39,1.16,1.13-.58,1.1-.14.17.48.05c1.32-.19,3.22-1.41,4.1-4.29,1.09-3.29,2.16-4,2.16-4s2.79-2.63,1.73,2.06c2.75-.73,2.42-3.75,2.42-3.75l2.88.48c.93-.73,0-2.91,1.09-4.45,1.18-1.7,1.86.27,1.43,1.65a2.83,2.83,0,0,0,1.77-2.72c.09-1.41-.49-3.06.85-4.28,1-.84,1.25.38,1,1.54,0,0,1.31.05,1.54-2.25.13-1.38-.2-1.81.21-2l.85,1.12a3.39,3.39,0,0,0-1.24-4.2c-4-2.64-14.32-.83-20.46-10.51-2.24-3.55-.58-5.18-.58-5.18s10.94,5.16,16.83,4.31c7.14-1,7.17-4.85,7.17-4.85s1.17.22.15,2.54a2.79,2.79,0,0,0,1.84-2.07,5.68,5.68,0,0,0-1.14-5.56c1.74-.12,1.78,1.95,1.78,1.95"/></g><g id="g3473"><path id="path3475" class="cls-4" d="M46.1,227.24l.84-1.58-.71-.79-1.63-.26h-.2a3.76,3.76,0,0,0-3.16,2.79,3.52,3.52,0,0,1,3.29-.5l.22.09,1.35.24"/></g><g id="g3477"><path id="path3479" class="cls-4" d="M44.81,217.34,46,216l-.51-.91-.24-.18-1.47-.5a3.73,3.73,0,0,0-3.72,1.92,3.54,3.54,0,0,1,3.33.33l.16.12,1.25.57"/></g><g id="g3481"><path id="path3483" class="cls-4" d="M53.29,215.49l1.78-.18.27-1-.18-.68-.61-1a3.66,3.66,0,0,0-4-1.12,3.5,3.5,0,0,1,2.28,2.71l.51,1.26"/></g><g id="g3485"><path id="path3487" class="cls-4" d="M71.91,195.41l1.22,1.31,1-.4.64-1,.2-.65a3.68,3.68,0,0,0-1.6-3.88,3.46,3.46,0,0,1-.7,3.37l0,.08-.68,1.18"/></g><g id="g3489"><path id="path3491" class="cls-4" d="M66.16,190.18l1.61.8.77-.71.25-1.65,0-.16A3.69,3.69,0,0,0,66,185.32a3.49,3.49,0,0,1,.59,3l-.16.53-.26,1.36"/></g><g id="g3493"><path id="path3495" class="cls-4" d="M58.9,194.1l1.52-1-.21-1-.64-.68-.82-.48a3.77,3.77,0,0,0-4.12.81,3.47,3.47,0,0,1,3.15,1.31l.09.12,1,.9"/></g><g id="g3497"><path id="path3499" class="cls-4" d="M164.69,243.2l.7-1.46-.65-.68-1-.19-.64,0a3.3,3.3,0,0,0-2.73,2.59,3.18,3.18,0,0,1,3.05-.51l.1,0,1.19.18"/></g><g id="g3501"><path id="path3503" class="cls-4" d="M165.1,247l-.9-.28-.82.22-.71.41a3.31,3.31,0,0,0-1.18,3.58A3.09,3.09,0,0,1,164,249h0l1.16-.41L165.1,247"/></g><g id="g3505"><path id="path3507" class="cls-4" d="M170.64,251.45l-1.14-1.12-.86.38-.58,1.09-.12.43a3.37,3.37,0,0,0,1.57,3.44,3.19,3.19,0,0,1,.42-2.95l.15-.18.56-1.09"/></g><g id="g3509"><path id="path3511" class="cls-2" d="M165.36,230.36c-12.48-2.38-15.07-4-20.13-8.83-.52.25-2.49,3.77,2.82,8.83a11.13,11.13,0,0,0,4.11,2.58,34.57,34.57,0,0,0-8.36-.19c-2.2-.61-3.8-3.42-6.74-4.55a3,3,0,0,0-2.44,0l.86.56.36.88-1.17,1.08-1.06-.6-.27-.24a3,3,0,0,0,1.06,2.74,2.8,2.8,0,0,0-3,2.21l1.26-.26.84.41-.15,1.62-1.19.22-.63.07.08.17c.93,2.77,5.15.73,5.15.73s-2.15,1.57-1,3.46l.48-.75.86-.4,1.15,1.14-.58,1.08-.27.38c2.95,1.14,5.33-3.33,5.33-3.47a3.77,3.77,0,0,0,2.45,4,2.21,2.21,0,0,1,1-2.3,7,7,0,0,1,3.95-.76c-.42,1.64.2,2.39,1.1,2.67.22-3.45,6.66-3.56,6.66-3.56a2.93,2.93,0,0,0,1.83,1.79,3.79,3.79,0,0,1,1.3-2.9c1.39-1.08,3.71-1.13,6.15-2.49,2.88-1.59,2.29-4.7-1.81-5.25"/></g><g id="g3513"><path id="path3515" class="cls-4" d="M138.29,241.18l-1.16-1.13-.85.4-.48.75-.21.76a3.32,3.32,0,0,0,1.55,3.44,3.14,3.14,0,0,1,.3-2.75l.27-.38.58-1.09"/></g><g id="g3517"><path id="path3519" class="cls-4" d="M133.36,236.54l.15-1.61-.84-.41-1.26.26-.35.17a3.36,3.36,0,0,0-1.68,3.38,3.14,3.14,0,0,1,2.16-1.48l.63-.08,1.19-.23"/></g><g id="g3521"><path id="path3523" class="cls-4" d="M134.67,230.68l1.17-1.09-.35-.88-.86-.56L134,228a3.39,3.39,0,0,0-3.51,1.41,3.18,3.18,0,0,1,2.85.48l.26.23,1.06.61"/></g><g id="g3525"><path id="path3527" class="cls-2" d="M103.32,206.18l-.07.16a4.45,4.45,0,0,1-3.36,2.74l-.13,0a4.91,4.91,0,0,1-2.82-.86s-.23-.08-.42,1.62c-.14,1.38-1,1.41-1,1.41a10.11,10.11,0,0,1,.27-3.49A2.46,2.46,0,0,1,98.13,206h0l-.25.89a1.49,1.49,0,0,0,1.57,1.33,1.45,1.45,0,0,0,1.33-1.58l-.21-.62h2.61l.17,0Zm-8,13.49c-1.75,1.49-1.44,3.77-1.81,5.34a3.31,3.31,0,0,1-4.1,2.42c-1.64-.26-3.2-1.25-3.33-3-.14-2,3.14-4.59,1-7.07-1.7-2-1.6-3-1.6-3a4.44,4.44,0,0,0,1.56,1.22c.41.19,3.75,1.76,4.41-.81l-.75-1.33L90,212.9l-.1-1.29a4.38,4.38,0,0,0,2.55,1.49,5.53,5.53,0,0,0,3.09-.48,1,1,0,0,1-1,1.34c-.72.1-1.78.14-1.92,1-.42,3,3.9,2.33,5.2,2.14,1-.18,1.54-.32,1.54-.32-.88,1.26-2.45,1.48-4,2.84M85.12,202.85v-.37l.16.09,2.39,1-.44.5a1.46,1.46,0,0,0,.64,2l1.95-.63.11-.91h0a2.48,2.48,0,0,1,1.47,2.57,10.23,10.23,0,0,1-1.08,3.32s-.79-.36-.38-1.68c.48-1.65.23-1.66.23-1.66a4.9,4.9,0,0,1-2.92-.29l-.12-.08a4.9,4.9,0,0,1-2-4M111.61,206c.54-4.5-2.58-4.18-2.58-4.18a4.84,4.84,0,0,0,1.66-2.49c.73-2.77-.9-6.42-.9-6.42s-1.71,3-3.72.89a5.29,5.29,0,0,0,.93-3.91c-.22.76-6.49,5.52-8.27-3-3.54.78-3.23,4.24-5.42,4-1.17-.12-2.34-1.06-1.45-3.28A4,4,0,0,0,88.18,191c-.58,4.13-2.6-1.38-5.33-1.18,0,0-2,2.18-1.91,6.78-2.47.1-3.59,2-3.83,5.13-.67,8.78-3,5.88-3,6.05.76,5.4,3.79,2.55,3.79,2.55-.52,3.75-3.91,1.7-3.91,1.7,1,5.75,3.4,3.86,3.4,3.86-1.1,4.8.72,6,1.38,7a3.86,3.86,0,0,1,.91,3.7,9.14,9.14,0,0,0-.16,2.52s1.45-1.47,2.49-.37c1.61,1.69,2.57,6.8,6.24,6.15,0,0-.44-2.23.35-2.23l1,2c1,.12,3.78.53,5.31-1.44.92-1.18,1.15-2.85,2.11-2.78.73.07.81,1.45.81,1.45.65-.4.78-.76,1.08-2.36.36-2,1.36.12,1.36.12a5.42,5.42,0,0,1,2.39-3.65c1.73-1.09,1.23-4.11,2.24-4.85s1.38,2.41,1.38,2.41a7.69,7.69,0,0,0,2.45-7.9c-.59-2.24-1.22-4.14-.51-4.33s.55,2,2,2.87c1,.62,2.66-.27,2.66-.27-1.92-2.12-1.62-5.74-1.36-7.94"/></g><g id="g3529"><path id="path3531" class="cls-4" d="M89.07,226.36c3.7,1,3.76-2.89,3.81-3.62.25-3.93,3-4.25,3.41-4.68-1.26.25-3.81.17-4.62-1.32a4.51,4.51,0,0,1-4,0l1,1.61a4.37,4.37,0,0,1-.34,3c-.37.88-2.56,4.12.82,5"/></g><g id="g3533"><path id="path3535" class="cls-2" d="M187.05,160.79c-29.93-1-37.49-9.51-37.49-9.51S146.14,157,159.87,163c0,0-4.65-.76-7.23-.87a31.24,31.24,0,0,0-6.31.44s-3.46-3.15-5.88-4a3.74,3.74,0,0,0-3.22,0l.94.56.44.94-1.26,1.25-1.18-.64-.4-.3a2.65,2.65,0,0,0,1.21,3.23c-3.47.74-4.5,1.62-4.53,3.4l1.11-.29,1,.37,0,1.77-1.29.37-.28.05c.73,1.25,2.29,1.89,4.48,1.15a6.79,6.79,0,0,0,1.27-.51s-1.9,2.16-1.1,4.23l.67-.73,1-.25,1,1.47-.85,1-.27.25.89.3c1.92.55,3.51-1.07,4.82-2.66,2.63-3.19,5.21-2.22,5.21-2.22-1.76,1.75-.13,3.86-.13,3.86s1.45-3.39,3.82-2.43c-.47,2.06,1.58,3.22,1.58,3.22s1.24-3.31,2.83-3.31c2.11,0,1,3.19,1,3.19s1.15-.14,3-2c1.19-1.19,2.21-2.49,4.66-2.31a4.34,4.34,0,0,0,2.45,3.71c0-7.91,11.12-9,13-9.34,5.35-1,4.8-5.16,4.8-5.16"/></g><g id="g3537"><path id="path3539" class="cls-4" d="M137.35,161.27,138.6,160l-.42-.94-1-.56-.7-.22a3.7,3.7,0,0,0-3.8,1.7,3.48,3.48,0,0,1,3,.33l.4.3,1.18.63"/></g><g id="g3541"><path id="path3543" class="cls-4" d="M134.53,168.82V167l-1-.36-1.11.28-.59.33a3.65,3.65,0,0,0-1.53,3.85,3.46,3.46,0,0,1,2.61-1.9l.3-.05,1.28-.37"/></g><g id="g3545"><path id="path3547" class="cls-4" d="M140.28,174.6l-1-1.48-1,.27-.66.72-.39.75a3.66,3.66,0,0,0,1,4,3.45,3.45,0,0,1,1-3l.28-.24.85-1"/></g><g id="g3549"><path id="path3551" class="cls-4" d="M82.93,150.55c4.13,1.43,4.56-3,4.69-3.78.62-4.44,3.74-4.55,4.3-5-1.46.17-4.36-.16-5.15-1.93a5.27,5.27,0,0,1-4.58-.35l1,1.89a5.12,5.12,0,0,1-.66,3.43c-.51.93-3.29,4.43.45,5.74"/></g><g id="g3553"><path id="path3555" class="cls-2" d="M101,128.9l-.1.17a5.08,5.08,0,0,1-4,2.82h-.17a5.81,5.81,0,0,1-3.14-1.22s-.24-.12-.61,1.8C92.64,134,91.67,134,91.67,134a11.5,11.5,0,0,1,.62-3.95,2.82,2.82,0,0,1,2.83-1.83h0l-.37,1a1.67,1.67,0,0,0,3.33,0l-.2-.72,3,.21h.21Zm-10.3,14.61c-2.13,1.56-2,4.15-2.55,5.9a3.77,3.77,0,0,1-4.86,2.39c-1.86-.45-3.53-1.71-3.52-3.69,0-2.27,4-5,1.83-8-1.77-2.46-1.57-3.54-1.57-3.54a5.62,5.62,0,0,0,1.69,1.54c.44.25,4.1,2.35,5.06-.52.26-.73-.25-1.2-.73-1.6l-.81-.7v-1.47a5,5,0,0,0,2.75,1.9,6.23,6.23,0,0,0,3.57-.24A1.14,1.14,0,0,1,90.34,137c-.84,0-2.06,0-2.29,1-.74,3.39,4.22,3,5.72,2.92a13.12,13.12,0,0,0,1.77-.22c-1.12,1.37-2.93,1.48-4.85,2.87m-10.1-20.06v-.21l0-.22.17.11,2.65,1.36-.55.53a1.66,1.66,0,0,0,2.82,1.76l.21-1h0a2.83,2.83,0,0,1,1.42,3.07,11.25,11.25,0,0,1-1.54,3.67s-.84-.47-.26-1.93c.7-1.82.41-1.87.41-1.87a5.68,5.68,0,0,1-3.28-.61l-.15-.1c-2.13-1.41-2-4.19-2-4.52m30.21.06c1.25-3.05-.28-8.62-.28-8.62s-2.5,4-4.62,1.83c-2-2,.13-5.09.13-5.09-2.41-.78-4.42,2.51-7.41.88-2.09-1.14.36-4.91.36-4.91a11.91,11.91,0,0,0-4.87,1c-2.11,1-3,1.87-4.51,1.83-2-.07-1.29-3.36-1.29-3.36a4.52,4.52,0,0,0-3.78,2.39,7.1,7.1,0,0,1-3,3c-.65-1-2.07-1-3.15-1.36a8,8,0,0,1-2-.91s-2.21,4.26-1.21,7.79c-1.66.45-2.12,2.32-2.39,3.24-1.93,7-4.83,3.89-4.81,4.12.56,6.2,4.14,6,3.83,7.45-.44,1.95-3.76-.71-3.76-.71.08,4.36,2,4.65,2.85,7.25.68,2.26-.74,3.77.42,7.23s.31,4.9.31,4.9a5.61,5.61,0,0,0,4-1.7c-.47,4.59,1.68,6.76,1.68,6.76s1.36-2.8,1.93-.93c1.53,5,4,6.77,4,6.77s2.26-.08,6.26-4.3c2.79-2.94,1.54.86,1.54.86s2,.18,6-7.25c1.3-2.41,3.48-3.79,4.25.1,4.63-5,3-10.39,3-12.28,0-1.68.82-1.88.9-1.11.47,4.6,5.3,3,5.3,3s-2-2,.06-9a10,10,0,0,0-.95-6.91l1.12-2"/></g><g id="g3557"><path id="path3559" class="cls-2" d="M222.47,157.51s.27-4.26-2.83-5.37c-4-1.48-9.28.43-19.68-.54-25.26-2.37-22.15-11.48-22.15-11.48s15.88,7,22.6,3.76c3.71-1.82,3.46-5,3.46-5,1,1.21-.09,3.63-.09,3.63s6.52-4.78-1.23-12.25c-2.81-2.7-8-4.69-11.8-5.19-11.11-1.45-15.36-.85-23.19-1.93-6.55-.92-8-3.23-7.7-5.07,1-5.42,13.23,2.29,19.93-.69,1.79-.81,3.27-2,4.83-2.43a6.94,6.94,0,0,1,3.25.13s-1.58-2.85-6.76-1.75c-4.26.9-4.58-.54-4.58-.54a8.5,8.5,0,0,0,4.58-1.34c1.66-1,2.12-3.08,3.93-3.87a6.4,6.4,0,0,1,4.48-.06,6.19,6.19,0,0,0-8.51-2c-3.82,2.48-5.2.65-5.2.65l4.58-3.25c1.42-2.83,3.23-3.28,3.23-3.28a4.83,4.83,0,0,0-5.3,1c-1.57,1.53-3.86,2-7.78,1.92-5-.06-7,5.85-7,5.85a10.58,10.58,0,0,0-3.67,1,16.19,16.19,0,0,0-3.22,2.43l.64-1.92s-3.7,1.83-3.8,7.5c-.18,9.56,10.2,10.34,13.6,10.61,5.06.39,14.69.64,22.07,1.66,10,1.37,10.26,6,8.94,8.12-1.45,2.39-5.58,1.17-12.51-1.27s-12.8-6.46-26.84-6c-22.16.71-45.61,16.5-52.4,12.47.34,2.57-.26,7.86-6.09,12.58-.22-3.95-1.43-3.43-2.76-1.05C93.82,161.13,90,161.8,90,161.8s.71-2.27-1.78-.09a11.12,11.12,0,0,1-5.42,2.59,12.09,12.09,0,0,1-4.36-6.52L77.67,159c-3-1.42-3.64-6.12-3.64-6.12s-1.42.92-4.66.39c0,0,1.82-2-.23-7.21C65.08,146.09,49,143.3,47,135c-.74-3.1-1.67-4.58-3.62-4.71l.42.59.07,1.11-1.73.79-1-1.1-.3-.45c-1.58,1.24-1.09,3.82-1.09,3.82-1.8-1.5-5.52-4-7.7-2.48l1,.64.5,1.09a1.41,1.41,0,0,1-1.45,1.42L30.81,135l-.63-.44c-1.91,3.12,4.32,6.5,4.32,6.5-2.36-.14-5.73,1.73-5.66,3.86l1.07-.34,1,.32.13,1.89-1.34.53-.25,0c.61,1.3,1.71,2.13,4.77,1.3,7.37-2.1,12.4-.75,12.4-.75s-.22,2.45-3.58,1.8c-.16,0,1.31,1.92,4.32,1.92A10.92,10.92,0,0,0,53.53,150a1.43,1.43,0,0,1-.94,1.49c-2.38,1.22-.83,3.83-.83,3.83,1.29-2.91,3.67-1.78,3.67-1.78a2.74,2.74,0,0,0,.43,3.57s.16-1.68,2.79-2.35A5.88,5.88,0,0,1,62,155a3.94,3.94,0,0,0,.31,4.6s.77-3.52,3.2-2.48a1.39,1.39,0,0,1,.6,2l-1.57.89c3.79,1.82,4.75-1.17,7.68,1.54-3.76,1.71-8.46,2.07-12.81,1.83-9.13-.79-11-2.58-13.17-4.54-2.93-2.81-5.25-3.1-6.64-2.67l.47.34.49,1.09A1.41,1.41,0,0,1,39.17,159l-1.38-.74-.33-.23c-.81,1.39.68,2.63,1.13,3.24l-1.69-.33c-1.94-.42-3.57.29-4,1.74l1.54.1.91.77-.69,1.91-1.54-.08-.54-.09c.58,2.47,3.44,2.78,5.61,2.87-1,.63-2.15,1.57-1.91,3l1-.64,1,.08.52,1.73-1.16.74-.37.17c1.77,1.89,6.1-.58,7.31-1.27,3.45-1.95,6.43-1.62,8.14-.77,3.23,1.6-1.13,2.93-1.13,2.93,1.08.86,2.79.46,3.85,0s1.9-1.17,2.37-.51c.25.41.12,1.14-.62,1.8l-1.38.65c4,1.55,7.77-2.16,7.77-2.16a1.79,1.79,0,0,1-.06,1.47,3.93,3.93,0,0,1-2.1,2.13c4.36,1.32,6.6-3.87,6.6-3.87s2.08,1.59-.49,3.87c3.58.11,4-2.83,5.81-1.7,1,.67.49,2.14-1,2.43,4.14,1.41,3.79-2.28,8.6-1.47,7,1.22,15.1,2.25,27.44-2.53,19-7.27,20.9-24,41.67-26.3,0,0,1.75,3.64,16,7.48,15.06,4,38.22.93,37.18,8.09-.53,3.65-10.84-1.59-12.14,2l-.05.2,1.16,0,.85.57-.41,1.74-1.35.07-.16,0a2.9,2.9,0,0,0,2.11,1.37c-1.25.66-2,1.15-2.06,2.78v.47l.75-.41,1,.06.53,1.69-1.12.76-.15.06a2.86,2.86,0,0,0,2.85.73,4.3,4.3,0,0,0,1.83-1,4.22,4.22,0,0,0-.69,3l.58,1,.44-1.15.88-.56,1.42,1.07-.47,1.26-.11.18c2.65.09,5-3.44,5.46-6.51.59-3.91,1.81-3.32,1.81-3.32l.73,1.49,1.58.75c-.12-2.66,1.86-3.48,2.71-2.74s.15,2.36.15,2.36,1.34.46,2.94-2.24c.89-1.44.82-3.29,1.88-3.4,1.43-.05.86,1.74.86,1.74,3.33-1.79,1.25-7.1,2.54-7.71,1-.26.62,1.67.62,1.67a3.08,3.08,0,0,0,1.5-3.42c-.92-3.37.74-.6.74-.6"/></g><g id="g3561"><path id="path3563" class="cls-4" d="M31.08,146.78,31,144.91l-1.05-.33-1.06.34-.73.45a3.91,3.91,0,0,0-1.31,4.23,3.67,3.67,0,0,1,2.68-2.24l.26-.05,1.34-.53"/></g><g id="g3565"><path id="path3567" class="cls-4" d="M32.17,135.72a1.41,1.41,0,0,0,1.45-1.42l-.49-1.09-1.05-.64-.84-.25a4.2,4.2,0,0,0-4.36,1.93,3.94,3.94,0,0,1,3.31.31l.62.44,1.36.72"/></g><g id="g3569"><path id="path3571" class="cls-4" d="M42.13,132.78l1.73-.79-.07-1.11-.42-.59-.95-.81a3.94,3.94,0,0,0-4.45.26,3.69,3.69,0,0,1,2.9,1.5l.3.44,1,1.1"/></g><g id="g3573"><path id="path3575" class="cls-4" d="M38.84,172.37l-.53-1.73-1-.07-1,.63-.43.45a3.66,3.66,0,0,0-.36,4.19,3.49,3.49,0,0,1,1.86-2.56l.37-.17,1.16-.74"/></g><g id="g3577"><path id="path3579" class="cls-4" d="M39.17,159a1.43,1.43,0,0,0,1.42-1.45l-.48-1.08-.49-.34-1.41-.54a4.22,4.22,0,0,0-4.36,1.92,4,4,0,0,1,3.61.5l.33.24,1.38.75"/></g><g id="g3581"><path id="path3583" class="cls-4" d="M34.62,165.46a1.45,1.45,0,0,0,.69-1.92l-.91-.77-1.54-.09-.56.09a4.16,4.16,0,0,0-3.09,3.63,3.94,3.94,0,0,1,3.33-1.12l.53.1,1.55.08"/></g><g id="g3585"><path id="path3587" class="cls-4" d="M192.64,168.06l.41-1.72-.85-.58-1.16,0-.66.17a3.62,3.62,0,0,0-2.33,3.42,3.42,3.42,0,0,1,3.07-1.26h.16l1.36-.07"/></g><g id="g3589"><path id="path3591" class="cls-4" d="M193.49,174.08l-.53-1.69-1-.06-.75.41-.71.69a3.62,3.62,0,0,0-.27,4.13,3.42,3.42,0,0,1,2-2.66l.15-.07,1.12-.75"/></g><g id="g3593"><path id="path3595" class="cls-4" d="M199.52,178l-1.41-1.07-.87.55-.46,1.15-.07.59a3.65,3.65,0,0,0,2.16,3.52,3.43,3.43,0,0,1,.09-3.3l.1-.19.46-1.25"/></g><g id="g3597"><path id="path3599" class="cls-4" d="M31.32,58.79a1.46,1.46,0,0,0,1.75-1l-.22-1.17-.33-.4-1.33-.9a4.18,4.18,0,0,0-4.68.84,4,4,0,0,1,3.66,1.65l0,.08,1.1.95"/></g><g id="g3601"><path id="path3603" class="cls-2" d="M185.28,86.88c-26.08-.77-34.7-10.23-34.7-10.23s-4.4,6.69,6.42,11.08a26.85,26.85,0,0,0-4.59-.78c-3-.26-4.37-.28-4.37-.28a10.43,10.43,0,0,0-6.34-4.17,10.26,10.26,0,0,0-3.15-.11l.18.17.35,1-1.36,1.14L136.6,84l-.5-.41-.13.13a2.84,2.84,0,0,0-.37,3.16c-3.72.5-4.94,1.67-5.23,3.18l1.82-.12.83.6-.49,1.72h-1.35l-.81-.06c.36,2,2.71,3.38,6.45,1.81.92-.38-2.3,1.13-1,4.42l.28-.63.85-.6,1.46,1L138,99.44l-.37.94h0c3.18,1.39,6.51-2.43,6.92-4.22a5.46,5.46,0,0,0,1.7,3.27,4.69,4.69,0,0,1,1-1.77c1.37-1.5,1.23.29,1.23.29,0,2.74,1.73,3.19,1.73,3.19s-.27-3.15,2.18-3.66c1,3.39,4.71-1.78,4.33-.23-.84,3.43.67,4.46.67,4.46s.31-4.11,8.54-4.57a4.3,4.3,0,0,0,2.31,3.78c.58-7.92,11.82-8,13.67-8.3,5.38-.86,3.44-5.74,3.44-5.74"/></g><g id="g3605"><path id="path3607" class="cls-4" d="M137.72,84.67l1.36-1.15-.35-1-.19-.16-1.4-.74A3.62,3.62,0,0,0,133.23,83a3.41,3.41,0,0,1,2.87.51l.5.4,1.12.73"/></g><g id="g3609"><path id="path3611" class="cls-4" d="M131.18,92.21h1.34l.49-1.72-.82-.61-1.83.13a3.63,3.63,0,0,0-2.48,3.31,3.37,3.37,0,0,1,2.48-1.17l.82.06"/></g><g id="g3613"><path id="path3615" class="cls-4" d="M138.38,98.18l-1.46-1-.85.59-.27.62-.2,1.15a3.64,3.64,0,0,0,2.33,3.42,3.44,3.44,0,0,1-.34-2.57l.36-.93.43-1.26"/></g><g id="g3617"><path id="path3619" class="cls-2" d="M99.8,54.57l-.1.19c-.15.3-1.46,2.75-4,2.87l-.17,0a5.84,5.84,0,0,1-3.16-1.18s-.24-.12-.58,1.82c-.24,1.54-1.23,1.52-1.23,1.52a11.1,11.1,0,0,1,.57-3.94A2.78,2.78,0,0,1,93.9,54h0l-.33,1a1.66,1.66,0,1,0,3.31,0l-.18-.73,3,.18h.19ZM89.74,69.35c-2.12,1.59-1.92,4.19-2.47,5.93a3.76,3.76,0,0,1-4.83,2.49c-1.86-.43-3.53-1.67-3.57-3.63,0-2.27,3.91-5,1.7-8-1.7-2.61-1.52-3.69-1.52-3.69a5.16,5.16,0,0,0,1.7,1.49c.46.27,4.15,2.29,5.07-.58.24-.73-.28-1.2-.74-1.58l-.85-.7,0-1.47A5,5,0,0,0,87,61.47a6.21,6.21,0,0,0,3.55-.31,1.15,1.15,0,0,1-1.18,1.47c-.83,0-2,0-2.27,1-.69,3.39,4.28,3,5.78,2.81a15.12,15.12,0,0,0,1.74-.25c-1.08,1.38-2.87,1.53-4.77,3M79.4,49.29v-.44l.18.11,2.67,1.32-.55.54a1.66,1.66,0,1,0,2.85,1.69l.21-1h0a2.84,2.84,0,0,1,1.48,3,11.66,11.66,0,0,1-1.48,3.71s-.87-.47-.3-1.94c.66-1.84.39-1.86.39-1.86a5.77,5.77,0,0,1-3.31-.57l-.13-.09a5.07,5.07,0,0,1-2-4.48m29.46,4.86c.91-4.26-2.44-4.35-2.44-4.35a5.6,5.6,0,0,0,2-2.76c1-3.18-.78-7.41-.78-7.41s-1.14,3.15-4.63,1.63c0,0,1.73-2,.36-5.8a4.28,4.28,0,0,1-2,2.36c-1.78,1-3.83.81-4.59-.48s-.12-2.73,1.21-3.81a9.56,9.56,0,0,0-4.71-.1,26.8,26.8,0,0,0-5.4,2.79A3.68,3.68,0,0,1,86.76,32a4.38,4.38,0,0,0-4.48,3.52,2.42,2.42,0,0,1-1.9,1.85,4.16,4.16,0,0,0-2.69-3.44,11.48,11.48,0,0,0-4.47,9.18c-1.64.5-2.31,2.41-2.47,3.37-2,12.28-5.23,6.46-5.19,6.67.69,6.18,4.9,5.3,4.9,5.3-.74,4.3-5.2,2-5.2,2,1.63,6.27,5.41,3.65,5.41,3.65-2.68,4.6-.66,8.14.78,11.68a15.46,15.46,0,0,1,1.46,6,8.31,8.31,0,0,1,2.77-1c1.36,0,.92,1.49,1,3.35.06,2.62,1.12,3.4,1.12,3.4l.59-1.16c.7-1.08,1.08-.94,1.08-.94s-.36,3.29,1.79,4.92c0,0,3-4.39,4.69-4.08,1.1.2,1.78,2.88,1.78,2.88,8.72-5.52,9.9-17.59,11.53-13.3A6.5,6.5,0,0,1,99.71,78s5.32-3.16,4.76-14.9a6.28,6.28,0,0,0,2.6,1.4,3.57,3.57,0,0,0,2.57-.06s-2.33-3.15-.78-10.26"/></g><g id="g3621"><path id="path3623" class="cls-4" d="M82.09,76.52c4.16,1.36,4.51-3,4.61-3.84.56-4.46,3.67-4.62,4.23-5.08-1.46.19-4.35-.08-5.18-1.84a5.23,5.23,0,0,1-4.6-.29l1,1.87a5,5,0,0,1-.62,3.45c-.48.95-3.2,4.48.57,5.73"/></g><g id="g3625"><path id="path3627" class="cls-4" d="M30.92,70.1l-.11-1.91-1-.32-1.53.61-.28.17a4,4,0,0,0-1.31,4.23A3.68,3.68,0,0,1,29,70.73l.58-.14,1.34-.49"/></g><g id="g3629"><path id="path3631" class="cls-4" d="M41.9,55.44,43.75,55l.1-1.12-.12-.32-1-1.29a4,4,0,0,0-4.44-.49A3.7,3.7,0,0,1,41,54l.11.25.76,1.23"/></g><g id="g3633"><path id="path3635" class="cls-4" d="M38.85,81.69l1.83-.5.12-1.1-.47-.91-.64-.68a3.9,3.9,0,0,0-4.43-.5,3.68,3.68,0,0,1,2.83,2.45l.09.24.67,1"/></g><g id="g3637"><path id="path3639" class="cls-4" d="M33.05,88.65a1.42,1.42,0,0,0,.86-1.84L33.08,86l-1.78-.22-.3,0a4.2,4.2,0,0,0-3.44,3.29,4,4,0,0,1,3.23-.83l.73.19,1.53.22"/></g><g id="g3641"><path id="path3643" class="cls-4" d="M38.81,94.82l-1.16-.27-1.41.61-.45.36a4.21,4.21,0,0,0-1.1,4.64,4,4,0,0,1,3-2.69h.06l1.35-.62-.27-2"/></g><g id="g3645"><path id="path3647" class="cls-2" d="M218.33,77.87c-1.81-.87-4.73-.5-8.22-.13a44.08,44.08,0,0,1-9,.26c-21.08-2.12-22.79-9.87-21.94-9.34a48.2,48.2,0,0,0,11.44,3.65c18.79,3.65,18.94-6.64,18.94-6.64a2.48,2.48,0,0,1,.81,1.59,6.55,6.55,0,0,1-.7,3.12A6.09,6.09,0,0,0,212,66c0-3.91-2.56-5.28-2.56-5.28s.53-.05,1.46.76a6.93,6.93,0,0,1,1.48,2.8s1-3.26-2.62-6.28c-10.09-8.44-31.91-6.78-40.3-8-7.37-1-9.29-4.08-8.75-7.21.89-5.13,7.77-5.26,7.77-5.26-.37,5.59,6.59,9.26,13.19,7.79a18.75,18.75,0,0,0,8.54-4.19,19.82,19.82,0,0,1,3.54-2.31c-3.4-.66-5.57.69-6.93,1.26a15.06,15.06,0,0,1-4.57,1.2c-4.11.35-4.5-2.39-4.5-2.39a11.51,11.51,0,0,0,7,.53c11.44-2.67,7.71-13.35,7.71-13.35s-1,4-4.6,5.54a6.48,6.48,0,0,1-6.18-.81s5.53.56,6.72-3.77a3.41,3.41,0,0,0-1.67-3.74s.51,5.51-12.72,4.7c-5.78-.37-5.76,4.57-5.76,4.57a15.05,15.05,0,0,0-3.29.71A13.41,13.41,0,0,0,161.41,35c.59-1.6,2.92-2.37,2.92-2.37A9.41,9.41,0,0,0,158.72,35l.45-1.46a14.58,14.58,0,0,0-4.15,8.8,10.6,10.6,0,0,0,2.42,8.22c3.18,3.73,9.24,4.21,12.92,4.5,5.45.42,14.42.9,22.35,2,10.74,1.47,11.39,5.06,10,7.35-1.56,2.57-6.35,2.63-13.79,0s-22.41-8-33.17-8c-28.42.12-41.16,12.17-49.64,9.93.24,10.88-7.55,15.22-7.55,15.22-1.18-6-.36,4.92-11.91,10.59,0,0-.09-2.71-1.28-2.94-1.56-.32-3.8,3.91-3.8,3.91a8.48,8.48,0,0,1-3.24-4.19l-.6,1.22a5.68,5.68,0,0,1-2.35-3.26c-.41-2.1.21-3.67-.71-3.71-1.07,0-3.33,1.49-3.33,1.49a15.82,15.82,0,0,0-1.26-7.32c-.91-2.4-2.24-4.58-2.45-7.18-9.15-1.71-20.3-5.38-20.55-8.9-.24-3.3.35-6.66-3.32-7.74l.12.34L43.76,55l-1.86.48-.75-1.23L41,54c-2.11,1.24-1.24,5-1.24,5-1.66-1.7-5.15-4.8-7.26-2.82l.32.4.22,1.17a1.46,1.46,0,0,1-1.75,1l-1.1-1C28,61,32.59,64.74,32.59,64.74c-.69.35-4.35,1.08-4.37,3.73l1.53-.6,1.06.32.1,1.91-1.33.5-.58.13A3.69,3.69,0,0,0,33.56,72c5.88-2.5,7.37-1.09,9.93-.53,1.82.39,3.46,0,3.49,1,0,.88-.84,1.53-3.57,1.19,0,0,.66,1.73,3.64,2.06,4.5.49,5.91-.61,6.51.17,1.08,1.44-3.24,2-3.24,2,3.53,2.7,8.19.63,8.19.63.24,1.57-3.1,1.9-3.1,1.9a4,4,0,0,0,4,.83,9.1,9.1,0,0,0,1.87-.72,3.46,3.46,0,0,0,1.51,3.93S64.06,80,65.9,81.19a1.39,1.39,0,0,1,.62,2,1.63,1.63,0,0,1-1.44.64c.53,1.35,2.9,1.35,2.9,1.35S65.11,87,57.12,86.84c-10.61-.87-10-2-12.57-5.18-2.07-2.73-3.27-2.89-4.22-2.48l.46.91-.1,1.1-1.84.5-.67-1a2.63,2.63,0,0,0-.46,3.55c-.52-.09-5.53-.81-6.41,1.5l1.77.22.84.85a1.43,1.43,0,0,1-.87,1.84l-1.53-.22-.74-.19,0,.24C30.7,91.9,35.69,92,38.16,92.1c-1,.63-2.18,1.56-1.91,3.06l1.39-.61,1.17.26.27,2-1.36.62c3.27,2.16,5.72-.83,6.9-1.51,3.45-2,8.74-1.74,10.09-.29,1,1.08-1.21,2.32-1.21,2.32a6,6,0,0,0,4.23-1.18,3.52,3.52,0,0,0-.66,1.67,2.68,2.68,0,0,0,.82,2.51c2-3.89,3.57-3.64,4.35-2.9s-1,2.2-1,2.2c2.35,1.19,5.38-1.22,5.38-1.22a4.16,4.16,0,0,0,.92,3.09c1.54-2.81,4.91-2.55,7.15-2.28,0,0-3.2,2.19-2,4.93,2-2,4.51-2.65,7.91-2.24,7.07.86,20.44,4.87,43.4-16.43C139.6,71.73,150,73.58,150,73.58,163.75,84.77,190.24,85,197,85.48c3.28.24,3.32,2.27,1.89,4a4.31,4.31,0,0,1-2.16,1.36s-6.52-2.7-8.93.92l1.27,0,.81.6-.48,1.66h-1.31l-.55-.06a2.29,2.29,0,0,0,1.86,1.72l.2.2a3.76,3.76,0,0,0-1.31,3.15l1-.47,1,.16.34,1.69-1.14.62-.36.11c.7,1.09,1.93,1.75,3.82,1,1.46-.54,1.86-.85,2-1a2.43,2.43,0,0,0-.12,2.22l.23.3.78-1.43.93-.37,1.16,1.26-.67,1.12-.3.39h1.66c2-.4,3.61-2.14,4.06-6.43a4.84,4.84,0,0,1,.85-2.65,6.48,6.48,0,0,1,2.22-1.34,3.13,3.13,0,0,1-.47,3c4,.65,4.56-5.66,4.56-5.66a5.43,5.43,0,0,0,1.32,2,4.45,4.45,0,0,0,2.14,1c-.73-4.5,1.05-6,1.89-6.25,1.7-.41,1.64,1.63,1.64,1.63a3.06,3.06,0,0,0,1.16-3,7.82,7.82,0,0,0-.77-2.24s1.42-.7,2.17,1.21c0,0,1.52-2.44.13-3.79l.75-.08.68.56a4.42,4.42,0,0,0-2.54-4.8"/></g><g id="g3649"><path id="path3651" class="cls-4" d="M189.42,94.05l.48-1.65-.81-.6h-1.27l-.5.14a3.57,3.57,0,0,0-2.42,3.23A3.36,3.36,0,0,1,187.55,94l.56,0h1.31"/></g><g id="g3653"><path id="path3655" class="cls-4" d="M190.6,100.46l-.34-1.7-1-.15-1,.46-.54.46a3.53,3.53,0,0,0-.68,4,3.34,3.34,0,0,1,2-2.31l.36-.12,1.14-.62"/></g><g id="g3657"><path id="path3659" class="cls-4" d="M197.85,103.2l-1.17-1.27-.92.37-.78,1.43,0,.14a3.5,3.5,0,0,0,1.47,3.74,3.3,3.3,0,0,1,.46-2.91l.3-.39.67-1.11"/></g></g></g></g></svg>