<svg xmlns="http://www.w3.org/2000/svg" viewBox="0 0 292.06 298.93"><defs><style>.cls-1{fill:#fff;}.cls-2{fill:#274488;}</style></defs><title>Everton</title><g id="Слой_2" data-name="Слой 2"><g id="Layer_1" data-name="Layer 1"><g id="g3349"><g id="g5807"><path id="path5809" class="cls-1" d="M292,188.35a.36.36,0,0,0-.34-.28l-18.21-7a15.55,15.55,0,0,1,2.27-4.86l9.38,4.12a2,2,0,0,0,1,.23,2.48,2.48,0,0,0,2.1-1.19,23.74,23.74,0,0,0,1.58-3.11,10.07,10.07,0,0,0,.56-6.44,6.71,6.71,0,0,0-3.95-4.3L261.32,154a.7.7,0,0,1-.17-.11h0a7,7,0,0,0-5-.17v-2.38c0-1.92-.05-4-.17-6s-.28-4.24-.5-6.44a121.93,121.93,0,0,0-5.6-25.39l-.45-1.13c-4.92-13.68-8.77-24.54-8.66-37.49.06-9.78,12.27-23.46,17-27.93l4.41-4.18L215.86.58,212.19,3c-8.49,5.6-19.45,8.65-30.93,8.65-12,0-23.41-3.33-32-9.38L146,0l-3.22,2.26c-8.65,6.05-20,9.38-32,9.38C99.33,11.66,88.36,8.61,79.88,3L76.21.58,34.37,38.75,29.9,42.82,34.25,47c4.7,4.47,16.91,18.15,17,27.93.06,12.95-3.78,23.81-8.7,37.49l-.4,1.13a118.62,118.62,0,0,0-5.6,25.39q-.33,3.3-.51,6.44c-.11,2-.22,4.07-.22,6,0,.8,0,1.59,0,2.38a6.78,6.78,0,0,0-4.91.17h-.06c-.06.06-.11.11-.17.11l-25,11.48a6.76,6.76,0,0,0-4,4.3,10.15,10.15,0,0,0,.57,6.44A16.78,16.78,0,0,0,4,179.36a2.31,2.31,0,0,0,2,1.19,2,2,0,0,0,1-.23l9.38-4.12a16.72,16.72,0,0,1,2.26,4.86l-18.2,7a.35.35,0,0,0-.34.28.59.59,0,0,0,0,.45l1.07,2.77a156,156,0,0,0,135.13,97.87l9.39,9.28a.51.51,0,0,0,.39.17.62.62,0,0,0,.4-.17l9.39-9.28A156.18,156.18,0,0,0,291,191.57L292,188.8a.58.58,0,0,0,0-.45"/></g><g id="g5811"><path id="path5813" class="cls-2" d="M28.84,166.88a13.67,13.67,0,0,1-.85-6.95,3,3,0,0,0,.11-.45l.23-1.13L6.9,168.18a3.82,3.82,0,0,0-2.32,2.43c-.68,2.27.74,5.21,1.36,6.39l.28.46,22.84-10.07Z"/></g><g id="g5815"><path id="path5817" class="cls-2" d="M263.24,166.88a13.77,13.77,0,0,0,.84-6.95c-.05-.11-.05-.28-.11-.45l-.28-1.13,21.48,9.83a3.78,3.78,0,0,1,2.32,2.43c.68,2.27-.73,5.21-1.36,6.39l-.28.46L263,167.39Z"/></g><g id="g5819"><path id="path5821" class="cls-2" d="M72,248l-3.34,2.66,2.89,1.87,1.13-4.08a10.53,10.53,0,0,1,.34-1.24h0c-.34.23-.68.51-1,.79"/></g><g id="g5823"><path id="path5825" class="cls-2" d="M188.37,260.65c-1.7.57-2.37,2.49-1.36,5.38,1,3.11,2.55,4.07,4.41,3.44s2.44-2.31,1.36-5.37-2.54-4.07-4.41-3.45"/></g><g id="g5827"><path id="path5829" class="cls-2" d="M201.56,255.53l-.91.45,1.87,4a5.06,5.06,0,0,0,1.07-.45,2,2,0,0,0,1.19-3c-.68-1.47-1.81-1.7-3.22-1"/></g><g id="g5831"><path id="path5833" class="cls-2" d="M170.63,137.93a37.16,37.16,0,0,0-4.58-1.13c-2.37-.39-3.78-.45-4.24-.5s-1.8-.12-1.75-.85c0-.51.57-.63,1.13-.68a32.63,32.63,0,0,1,4.36.34c3.11.45,5.08,1.07,5.08,1v-3.9a36.07,36.07,0,0,0-9-2.09c-3.17-.29-4.64-.23-6.5-.29-.34,0-1.08.12-1.08-.51s.68-.67.91-.73a53.82,53.82,0,0,1,8.59-.06,45.55,45.55,0,0,1,7.07,1.36v-4.18a21.77,21.77,0,0,0-5-1.53,50,50,0,0,0-5.26-.51.61.61,0,0,1-.62-.4c-.05-.28.12-.5.51-.62a25,25,0,0,1,4-.11c1.35.06,4.63.4,6.27.62l-.06-3.22c-3.1-1.64-7.91-2.43-11-2.89a74.39,74.39,0,0,0-9.73-.84c-.39-.06-.79-.06-.84-.46s.22-.62.84-.62a93.91,93.91,0,0,1,10,.4c2.77.22,8.26,1.3,10.74,1.81l-.05-3.17c-2.77-1.36-7.13-2.37-13.4-3.28-7.69-1.13-22.39-.62-23.18-.51-1.08.06-1.25-.17-1.3-.56s.34-.62,1.13-.79a141.09,141.09,0,0,1,19-.68c6.17.28,15,2,17.76,2.54l-.06-2.49c-4.63-3.16-12.27-3.5-12.78-3.5s-.84-.28-.9-.57.28-.51.68-.56a18.87,18.87,0,0,1,3.9,0,90.49,90.49,0,0,1,9.1,1.64l0-2.49c-3.45-2-11.43-3.22-17.59-3.79,0,0-.73,0-2.09-.11l-.11,1.64a.85.85,0,0,1-.91.85,71.57,71.57,0,0,0-8.54,0H141a.84.84,0,0,1-.85-.85L140.05,99c-3.28.11-7.13.39-11.42.85-.63,0-1.25.22-1.31-.23-.11-.28.06-.51.85-.73.62-.12,9.16-1.3,11.31-1.53h.45l-.56-10.52a1.69,1.69,0,0,1,.22-.68.92.92,0,0,1,.63-.28c4.41-.17,5.93-.17,10.23,0a.89.89,0,0,1,.62.28,1.25,1.25,0,0,1,.23.57c2,.06,4,.17,5.54.28,3.33.17,11.19,1.3,13.29,1.59V86.14a10.88,10.88,0,0,0-1.42-.67c-2.2-.85-10.74-2.32-22.9-2.32s-19.5,1.58-20.63,1.86-2.6.79-2.55,1.59l.17,27.53c-.17,1.87.06,9.27.11,11,.06,2.88,4.58,4.69,14.48,8.14,10.35,3.79,23.41,7.86,33.24,10.57v-5.94"/></g><g id="g5835"><path id="path5837" class="cls-2" d="M162,143.65c-2-.57-3-.91-5-1.53a.29.29,0,0,0-.4.28V151a.64.64,0,0,0,.34.5c2,.68,3,1,5,1.7.17.11.33-.06.33-.23v-8.82a.55.55,0,0,0-.33-.5"/></g><g id="g5839"><path id="path5841" class="cls-2" d="M153.6,141.1c-2-.63-3-.91-5-1.59a.25.25,0,0,0-.34.23v8.37a.56.56,0,0,0,.34.45c2,.68,3,1.07,5,1.75.17.06.34,0,.34-.22v-8.54a.55.55,0,0,0-.34-.45"/></g><g id="g5843"><path id="path5845" class="cls-2" d="M136.84,135.57c-2-.68-3-1-5-1.81a.24.24,0,0,0-.34.22v8.2a.55.55,0,0,0,.34.45c2,.68,3,1.08,5,1.81a.24.24,0,0,0,.34-.22V136c0-.17-.17-.34-.34-.45"/></g><g id="g5847"><path id="path5849" class="cls-2" d="M165.55,75c-.17-.28-.28-.62-.51-1.07a52.41,52.41,0,0,0-10.51-2.32c-.68-.06-1.7-.11-1.7-.62s.4-.62,1.53-.62a69.69,69.69,0,0,1,9.55,1.18c-.56-1.24-1.24-2.71-2-4.29-3.84-1.47-11.14-1.93-12.44-2s-1.86-.34-1.75-.79,1-.4,3.17-.45c2.54-.06,8.14.39,9.72.56-.51-1.13-1.07-2.31-1.64-3.62-2.15-1.47-6.22-1.75-7.35-1.8s-1.47-.46-1.41-.8.62-.5,1.07-.56,5.09-.06,5.49-.11.56-.17.34-.57c-.46-1-.74-1.64-1.25-2.66a9.42,9.42,0,0,0-2.48-.73c-.68-.12-2.89-.23-4-.34-.62-.17-.73-.28-.73-.51s.17-.45.73-.51c1.41-.11,4,0,4.58-.06.4,0,.85-.17.68-.5-.28-.68-.57-1.25-.85-1.87a13.39,13.39,0,0,0-2.37-.62,29.14,29.14,0,0,0-4.53-.45c-.39,0-.73-.23-.73-.46s.17-.45.62-.51c1.07-.17,3.34-.17,4.24-.22.74-.06,1.64-.17,1.36-.79-.51-1-.79-1.76-1.3-2.72a22.65,22.65,0,0,1-2.72-.17c-.34,0-.79-.11-.79-.39s.4-.46.79-.62,1.25-.4,1.93-.57c-.34-.62-.57-1.19-.85-1.81-1-.06-2.72-.17-4.07-.17-.57,0-.85-.28-.85-.51s.11-.39.73-.51a20.69,20.69,0,0,1,3.4-.45c-.91-1.92-1.76-3.79-2.55-5.48-6.22,13.28-17.64,37.77-19.5,41.67A97.91,97.91,0,0,1,145.82,73a118.18,118.18,0,0,1,19.73,2"/></g><g id="g5851"><path id="path5853" class="cls-2" d="M128.44,132.56c-2-.74-3-1.08-5-1.87-.17-.05-.34,0-.34.23v8.31c0,.23.17.45.34.45,2,.74,3.06,1.08,5,1.81.23,0,.34-.06.34-.28V133a.52.52,0,0,0-.34-.45"/></g><g id="g5855"><path id="path5857" class="cls-2" d="M145.23,138.42c-2-.62-3-1-5-1.7a.25.25,0,0,0-.34.23v8.2a.56.56,0,0,0,.34.45c2,.74,3,1.08,5,1.75a.21.21,0,0,0,.34-.17v-8.31a.56.56,0,0,0-.34-.45"/></g><g id="g5859"><path id="path5861" class="cls-2" d="M129,180.14a3.62,3.62,0,0,0-3.67-3.74c-2.94,0-4.19,2.21-4.41,6l5.31-.17c2,0,2.77-.62,2.77-2.09"/></g><g id="g5863"><path id="path5865" class="cls-2" d="M183.18,176.3c-3.84,0-5.31,3.5-5.31,9,0,6.5,1.92,10,5.48,10s5.48-3.06,5.48-9c0-6.45-2-9.95-5.65-9.95"/></g><g id="g5867"><path id="path5869" class="cls-2" d="M158.87,92.23a28.44,28.44,0,0,1,5.15.28c2,.28,4.86.91,6.16,1.19V91.44c-2.71-1.13-8.93-2.27-12.27-2.66-2-.28-4.41-.51-6.73-.68L150.73,97c1.19,0,2,0,2,0,1.53.12,3,.17,4.58.34a111.52,111.52,0,0,1,13,2.15V96.36c-3.34-2.78-11-3-11.48-3s-.9-.11-.9-.57.56-.51,1-.56"/></g><g id="g5871"><path id="path5873" class="cls-2" d="M122.75,83c1-.23,8.82-3.06,23.07-3.06s22.67,3.11,23.69,3.57,2.15.84,2.66,0a2,2,0,0,0-.91-2.43c-3.11-2-14-4.47-25.44-4.3s-23,2.6-24.54,3.28-2.32,1.58-1.81,2.49c.85,1.52,2.26.73,3.28.45"/></g><g id="g5875"><path id="path5877" class="cls-2" d="M170.3,146.12c-2-.62-3-.9-5-1.47-.23-.05-.34.06-.34.28-.06,3.74-.06,5.6-.06,8.94a.67.67,0,0,0,.34.51c2,.67,3.06,1,5,1.75a.25.25,0,0,0,.33-.23v-9.27a.58.58,0,0,0-.33-.51"/></g><g id="g5879"><path id="path5881" class="cls-2" d="M142.9,99.65c2.6-.06,5.88,0,5.88,0l.62-11.48c-2.72-.17-7.18,0-7.18,0Z"/></g><g id="g5883"><path id="path5885" class="cls-2" d="M207.71,255c1.42,3-.17,5.55-3.05,6.85a10.64,10.64,0,0,1-1.07.45l1.81,3.84c.16.34.11.57-.34.79l-1.87.85a.51.51,0,0,1-.79-.28l-5.6-11.87c-.23-.46-.11-.63.28-.85l3-1.36c2.15-1,3.85-1.3,5.32-.73a4.64,4.64,0,0,1,2.31,2.31m51.85-54.44a.94.94,0,0,1,0-1l.79-1.24c.17-.34.4-.4.74-.17l11.64,6.38h0c.4.23.46.51.23.8l-1.13,1.75c-.23.45-.57.45-1,.17l-6.22-3.56h0l4.75,6.61a.63.63,0,0,1,0,.85l-.4.62a.73.73,0,0,1-.85.45l-8.25-.9-.06.06,6.16,4c.51.29.46.57.17.91l-.9,1.47c-.23.39-.51.51-.91.22h0l-10.85-7.35c-.4-.33-.4-.56-.23-.9l.79-1.24a.81.81,0,0,1,1-.46L265.33,209l.05-.06Zm-5.26,20.24-5.6-4.52a.58.58,0,0,1,0-.85l1.31-1.59c.28-.28.5-.39.84-.11l5.71,4.69c3.57,3,3.68,6.17,1.08,9.16-2.72,3.28-5.77,3.28-9.16.51l-5.71-4.69c-.34-.28-.23-.62,0-.91l1.3-1.52c.28-.34.45-.4.79-.12l5.54,4.53c2.55,2.09,4,1.81,5.2.34s1.19-2.89-1.3-4.92M238,228.14a.94.94,0,0,1,.28-1l1-1c.34-.28.56-.23.79,0l9.56,9.22a0,0,0,0,0,.05.05.5.5,0,0,1-.05.79l-1.53,1.42c-.4.39-.68.28-1.07-.17l-5-5h0l2.77,7.63a.64.64,0,0,1-.17.79l-.56.51c-.34.28-.51.39-1,.22l-7.75-3.05-.06.06,4.92,5.43c.4.45.23.62-.11,1l-1.24,1.13c-.34.34-.63.39-.91,0l-.05,0-8.49-10c-.33-.4-.28-.62,0-.91l1.14-1a.79.79,0,0,1,1-.16l9.73,3.78,0-.05Zm-6.16,20.58.84-.57a.49.49,0,0,1,.74.12l.62.9a.4.4,0,0,1-.06.62L229.71,253a.59.59,0,0,1-.74-.06l-.62-.9a.48.48,0,0,1,.06-.74l.79-.56-6-8.14-.91.67a.53.53,0,0,1-.73-.17l-.62-.84a.47.47,0,0,1,.05-.68l4.53-3.28a.46.46,0,0,1,.68.06l.67.9a.5.5,0,0,1-.11.74l-.9.62Zm-10.63,9.1c.28.45.22.51-.12.74l-2,1.18c-.34.23-.4.17-.68-.17L212.63,250l-3.28,1.93a.48.48,0,0,1-.79-.23l-.79-1.3c-.23-.34-.11-.57.23-.74l8.7-5.14.91-.57c.34-.17.51-.11.68.12v.05l.73,1.53c.17.34,0,.56-.39.79l-3.17,1.87Zm-33.7.17c4.18-1.36,7.29,1,8.59,4.92,1.53,4.41-.17,8-3.9,9.27-4,1.3-7.12-.73-8.54-5s-.05-7.92,3.85-9.22M172,274.9l1-.17a.58.58,0,0,1,.63.45l.17,1.07a.48.48,0,0,1-.4.57l-5.26.9c-.28.06-.56-.11-.56-.34l-.23-1.13a.49.49,0,0,1,.4-.62l1-.17-1.7-9.95-1.13.17c-.34.06-.51-.17-.57-.45l-.22-1.08a.47.47,0,0,1,.39-.5l5.55-1a.53.53,0,0,1,.56.34l.17,1.13a.5.5,0,0,1-.4.63l-1.13.17Zm-16.85-6.34c.11.68,1,1,1.47,1.19l2.49.91a3.85,3.85,0,0,1,3,3.5c.23,2.94-2,4.86-4.86,5.09a14.81,14.81,0,0,1-4.41-.4c-.34-.05-.45-.22-.45-.39a.8.8,0,0,1,.05-.34l.46-1.75a.38.38,0,0,1,.39-.4.78.78,0,0,1,.34.06,9.39,9.39,0,0,0,3.28.39c.91-.05,1.92-.62,1.87-1.64-.06-.79-.74-1.07-1.42-1.35l-2.82-1.08a4,4,0,0,1-2.89-3.5c-.22-2.6,2.32-4.36,4.75-4.53a10.41,10.41,0,0,1,4.19.51c.33.12.45.23.5.46a1.92,1.92,0,0,0-.05.33l-.57,1.64a.42.42,0,0,1-.34.4c-.11,0-.22-.06-.39-.06a7.64,7.64,0,0,0-2.89-.45c-.84.06-1.75.45-1.69,1.41M28.26,203.43l-6.9,4.24c-.4.23-.62.11-.85-.23l-1-1.63c-.28-.4-.28-.63.12-.91l11.25-6.84c.51-.28.68-.11,1,.23l.9,1.47a1,1,0,0,1,.06,1l-3.85,9.61h0l7-4.24a.54.54,0,0,1,.85.22l1.07,1.76c.28.45.06.62-.23.79L26.33,215.7c-.45.28-.62.17-.84-.17L24.58,214a.94.94,0,0,1-.11-1l3.79-9.55Zm6.1,20.35a.54.54,0,0,1-.17.74l-.85.68a.59.59,0,0,1-.67-.06l-3.23-4.24a.52.52,0,0,1,0-.68l.91-.68a.48.48,0,0,1,.73.06l.62.79,8.09-6.22-.68-.85a.49.49,0,0,1,.11-.73l.91-.62a.4.4,0,0,1,.62.05l3.39,4.41a.46.46,0,0,1,0,.68l-.9.63a.46.46,0,0,1-.74-.06l-.73-.85-8.09,6.11Zm10.29,10.63c.29.29.23.57,0,.85l-1.13,1.08a.6.6,0,0,1-.91-.06l-5.37-5.77c-.28-.34-.34-.56.06-.9L47,220.68a.57.57,0,0,1,.85,0l1.41,1.53c.28.34.34.56,0,.85l-8.14,7.46ZM59,243.46l-1.36-2.77a3.92,3.92,0,0,1,.34-4.47c1.7-2.09,4.69-1.58,6.61-.05a11,11,0,0,1,2.66,3.22c.17.34.17.51.06.62a.63.63,0,0,1-.28.23l-1.53.85a.53.53,0,0,1-.57,0c0-.06-.11-.17-.22-.29a6.53,6.53,0,0,0-1.76-2.26c-.62-.56-1.58-.9-2.2-.17-.4.57,0,1.36.23,1.92l1.18,2.32a3.91,3.91,0,0,1-.28,4.58c-1.87,2.32-4.81,2.15-7.07.4a14.69,14.69,0,0,1-2.88-3.28c-.23-.34-.23-.51-.06-.62a.56.56,0,0,1,.29-.23l1.47-1c.22-.11.39-.23.62-.06,0,.12.11.17.17.29a10.21,10.21,0,0,0,2.15,2.54,1.77,1.77,0,0,0,2.48.11,1.8,1.8,0,0,0,0-1.92m11.36,11.2-3-2-.62-.4-2,1.64a.68.68,0,0,1-.85.06l-2-1.3a.36.36,0,0,1-.11-.46l.17-.17,11.48-8.42a.78.78,0,0,1,.85-.06L76,244.76a.68.68,0,0,1,.39.79l-3,13.74c-.05.17-.05.23-.11.28-.17.23-.34.34-.62.17l-1.92-1.3a.73.73,0,0,1-.4-.9l.62-2.43-.62-.45Zm9.44-4.36a.53.53,0,0,1-.22-.79l.73-1.41a.45.45,0,0,1,.74-.17l9,4.63,1,.51c.34.17.39.4.22.62v.06l-.9,1.41c-.28.34-.57.29-.9.06l-3.28-1.64-5.21,9.84c-.22.4-.28.45-.67.28l-2.1-1.13c-.39-.17-.39-.22-.17-.62l5.21-9.9-3.4-1.75Zm15.5,17.76a.54.54,0,0,1,.28.67l-.45,1a.41.41,0,0,1-.63.23l-4.91-1.92a.6.6,0,0,1-.34-.63l.45-1.07c.11-.34.34-.4.68-.28l.84.34L95,257l-1-.4a.48.48,0,0,1-.28-.67l.45-1a.4.4,0,0,1,.57-.28l5.2,2.09a.52.52,0,0,1,.34.62l-.45,1a.48.48,0,0,1-.68.28l-1.08-.4-3.79,9.39Zm11.7-3.62,2,1.69a3.93,3.93,0,0,1,1.47,4.41c-.84,2.83-3.67,3.79-6.38,3a14.55,14.55,0,0,1-4-2c-.28-.17-.34-.34-.28-.51s.11-.22.16-.34l1-1.41a.47.47,0,0,1,.57-.28c0,.05.17.05.28.22a12.29,12.29,0,0,0,2.94,1.53c.85.23,2,.11,2.32-.85.23-.79-.23-1.3-.79-1.75l-2.32-2a4,4,0,0,1-1.36-4.29c.79-2.55,3.79-3.23,6.11-2.49a9.5,9.5,0,0,1,3.67,1.92c.29.28.34.45.29.62a.32.32,0,0,1-.17.23l-1.08,1.36c-.17.28-.28.34-.51.28a3,3,0,0,0-.34-.23,7.9,7.9,0,0,0-2.48-1.41c-.79-.28-1.81-.23-2.1.73-.16.63.51,1.25.91,1.59m29.4,1.07-1.64,12.95c-.06.51-.34.62-.68.56l-1.75-.22a1,1,0,0,1-.85-.57l-5.14-8.87h-.06l-1,8c0,.45-.28.56-.68.51l-1.92-.23c-.45-.06-.68-.17-.56-.68l1.58-13c.06-.51.34-.62.79-.51l1.7.17a.89.89,0,0,1,.79.56l5.14,8.94h.06l1-8c.05-.45.28-.57.68-.51l2,.23c.51.05.51.39.51.73M289.81,191.1a154.82,154.82,0,0,1-134.28,97.2.5.5,0,0,0-.4.17l-9.1,9-9.1-9a.51.51,0,0,0-.4-.17A154.82,154.82,0,0,1,2.25,191.1l-.91-2.2,34.49-13.23a1.88,1.88,0,0,1,2.38.73l0,.06a8.78,8.78,0,0,0,1.36,1.64c.28.91.57,1.81.9,2.66a8.58,8.58,0,0,1-3.61-3.11l-.12-.23a.45.45,0,0,0-.28-.11H36.4l-2.43,1-1.08.45.17.45c.11.23.17.46.23.57,1,2.54,2.15,5,3.28,7.41a11,11,0,0,1,.56,1.07l1.08-.39,4.52-1.64c.28.56.57,1.07.79,1.58l-4.47,1.64-1.13.39a8.7,8.7,0,0,0,.57,1,123.15,123.15,0,0,0,38.22,43.26,121.25,121.25,0,0,0,61.8,21.42l1.92,1.87a121.78,121.78,0,0,1-64.74-21.88,123.51,123.51,0,0,1-44.27-55.64l-.22-.51L3.72,189.92l.22.51a152.75,152.75,0,0,0,133.61,96.11l8.08,8,.4.4,8.48-8.43a152.89,152.89,0,0,0,133.66-96.11l.17-.51-27.48-10.58-.17.51a124,124,0,0,1-44.33,55.64,121.89,121.89,0,0,1-64.73,21.88l1.92-1.87a121.28,121.28,0,0,0,61.8-21.42,122.66,122.66,0,0,0,38.22-43.26,10.3,10.3,0,0,0,.56-1l-1.13-.39-4.46-1.64c.22-.51.5-1,.73-1.58l4.58,1.64,1.07.39c.17-.34.4-.73.57-1.07,1.13-2.43,2.26-4.87,3.28-7.41a2.76,2.76,0,0,0,.23-.57l.22-.45-1.13-.45-2.43-1h-.17a.49.49,0,0,0-.23.11l-.11.23a9,9,0,0,1-3.62,3.16c.28-.9.62-1.8.91-2.71a8.73,8.73,0,0,0,1.35-1.64l.06-.06a1.87,1.87,0,0,1,2.37-.73l34.49,13.23ZM17,175.16l-.28-.45L6.49,179.29A1.2,1.2,0,0,1,5,178.72a13.17,13.17,0,0,1-1.53-2.88,9.59,9.59,0,0,1-.56-5.71,5.5,5.5,0,0,1,3.28-3.56l25.1-11.48c.06,0,.12-.06.17-.06a5.42,5.42,0,0,1,2.26-.51,6.52,6.52,0,0,1,2.21.46c.06.73.06,1.35.11,2a4.84,4.84,0,0,0-2.37-.73,3.24,3.24,0,0,0-1.47.34l-.17,0a4.89,4.89,0,0,0-2.26,3.62,11.58,11.58,0,0,0,1,6.56l.17.45a1.16,1.16,0,0,1-.62,1.47L18.36,174l.4.57a18.27,18.27,0,0,1,2.6,5.37l-1.7.67A16.44,16.44,0,0,0,17,175.16m120.26,79.1a119.46,119.46,0,0,1-59.87-21.2,121.75,121.75,0,0,1-37.83-42.63l4.53-1.59c.11.29.28.51.39.79,1,1.81,2.09,3.62,3.28,5.32.12.17.28.4.51.68l.06.17c20.18,30.19,49.81,49,83.56,53Zm9.45,23.07a.47.47,0,0,1,.51.51V279a.45.45,0,0,1-.46.45l-5.37-.06a.46.46,0,0,1-.51-.45v-1.13a.45.45,0,0,1,.51-.51h1l.11-10.12-1.07-.06a.47.47,0,0,1-.51-.5v-1.08a.46.46,0,0,1,.45-.51l5.6.12a.46.46,0,0,1,.51.45v1.13a.48.48,0,0,1-.51.51h-1.13l-.17,10.12ZM248,188.84l4.52,1.59a120.64,120.64,0,0,1-97.7,63.83l5.37-5.43c33.76-4,63.38-22.84,83.51-53l.12-.17c.17-.28.34-.51.5-.74a52.45,52.45,0,0,0,3.23-5.26,4.84,4.84,0,0,0,.45-.79M37.81,145.48c.11-2.09.28-4.19.57-6.34a112.08,112.08,0,0,1,5.48-25l.4-1.13c5-13.85,8.87-24.82,8.76-38.1C53,64.57,40.36,50.32,35.49,45.68l-3-2.82,3-2.77L76.37,2.83l2.49,1.64c8.82,5.76,20.13,9,31.94,9,12.33,0,24.09-3.51,33-9.73L146,2.21l2.2,1.52c8.94,6.22,20.64,9.73,33,9.73,11.76,0,23.13-3.23,31.89-9l2.49-1.64,43.93,40-3,2.88C251.7,50.32,239.09,64.57,239,74.92c-.12,13.28,3.78,24.25,8.76,38.1l.4,1.13a113.29,113.29,0,0,1,5.48,25c.23,2.15.45,4.25.57,6.34s.17,4,.17,5.93c.05,14.48-2.78,27.09-8.43,37.38a50.54,50.54,0,0,1-3.17,5.09c-.11.22-.28.45-.5.79l-.12.11c-19.9,29.85-49.19,48.45-82.55,52.36h-.28L146,260.48l-13.35-13.34h-.28C99,243.23,69.7,224.63,49.8,194.78l-.06-.11-.51-.74a60,60,0,0,1-3.16-5.14c-5.66-10.29-8.49-22.9-8.43-37.38,0-1.92.06-3.95.17-5.93M256.11,155a6.36,6.36,0,0,1,2.26-.51,5.63,5.63,0,0,1,2.26.51c.06,0,.12.06.17.06l25.11,11.48a5.55,5.55,0,0,1,3.28,3.56,9.15,9.15,0,0,1-.57,5.71,12.85,12.85,0,0,1-1.52,2.88,1.17,1.17,0,0,1-1.47.57l-10.29-4.58-.29.45a16.64,16.64,0,0,0-2.66,5.48l-1.63-.67a16.54,16.54,0,0,1,2.54-5.37l.4-.57-11.93-5.26a1.17,1.17,0,0,1-.63-1.47l.17-.45a11.51,11.51,0,0,0,1-6.56,4.73,4.73,0,0,0-2.26-3.62l-.11,0a3.69,3.69,0,0,0-1.53-.34,4.44,4.44,0,0,0-2.38.79c.06-.74.06-1.36.06-2m35.9,33.3a.69.69,0,0,0-.28-.28l-18.2-7a15.83,15.83,0,0,1,2.2-4.86l9.39,4.18a2.7,2.7,0,0,0,1,.17,2.45,2.45,0,0,0,2.09-1.19,19.27,19.27,0,0,0,1.58-3.11,10.05,10.05,0,0,0,.57-6.44,6.78,6.78,0,0,0-4-4.3l-25.05-11.42c0-.06-.05-.11-.17-.11h0a6.71,6.71,0,0,0-5-.23v-2.32c0-2-.06-4-.17-6s-.28-4.24-.51-6.38a116.65,116.65,0,0,0-5.65-25.39l-.4-1.13c-4.86-13.74-8.76-24.6-8.65-37.49.06-9.78,12.27-23.52,17-28l4.41-4.18L215.86.62,212.18,3c-8.48,5.59-19.45,8.65-30.93,8.65-12,0-23.4-3.34-32-9.39L146,0l-3.22,2.26c-8.66,6.05-20,9.39-32,9.39C99.33,11.65,88.36,8.59,79.88,3L76.2.62,34.36,38.73,29.9,42.8,34.25,47c4.69,4.47,16.9,18.21,17,28,0,12.89-3.79,23.75-8.71,37.49l-.4,1.13A117.86,117.86,0,0,0,36.57,139c-.23,2.14-.4,4.29-.51,6.38s-.23,4.07-.23,6c0,.8,0,1.53.06,2.32A6.53,6.53,0,0,0,31,154h-.06c-.05,0-.11,0-.17.11l-25,11.42a6.75,6.75,0,0,0-4,4.3,10,10,0,0,0,.56,6.44,15.4,15.4,0,0,0,1.64,3.11,2.31,2.31,0,0,0,2,1.19,2.7,2.7,0,0,0,1-.17l9.39-4.18A18.2,18.2,0,0,1,18.59,181l-18.21,7a.61.61,0,0,0-.34.28.72.72,0,0,0,0,.46l1.08,2.77A156,156,0,0,0,57,261.84a154.6,154.6,0,0,0,79.27,27.59l9.38,9.33c.12.05.23.17.4.17a.65.65,0,0,0,.39-.17l9.39-9.33a154.6,154.6,0,0,0,79.27-27.59,156,156,0,0,0,55.86-70.28l1.07-2.77a.61.61,0,0,0,0-.46"/></g><g id="g5887"><path id="path5889" class="cls-2" d="M138.24,217.78c1.25-.73,2.55-1.64,2.55-3.39a2.72,2.72,0,0,0-5.43-.06c0,1.64,1.3,2.55,2.88,3.45"/></g><g id="g5891"><path id="path5893" class="cls-2" d="M223.48,58.89a6,6,0,0,1-4.07,1,6.67,6.67,0,0,1,2.83-3.44,5.86,5.86,0,0,1,4.07-1,6.3,6.3,0,0,1-2.83,3.45M220.6,64.2a5.33,5.33,0,0,1-4.07,1,6.3,6.3,0,0,1,2.82-3.39,5.52,5.52,0,0,1,4.13-1,6.67,6.67,0,0,1-2.88,3.39m-2.77,4.69a5.57,5.57,0,0,1-4.19-.62,6.25,6.25,0,0,1,3.74-2.15,5.38,5.38,0,0,1,4.12.63,6,6,0,0,1-3.67,2.14M216.53,197c-1.53,0-3.06.06-3.9.06a52,52,0,0,0,.62-8.93V184c0-2.71-.23-5.94-4.13-5.94a5.56,5.56,0,0,0-3.79,1.59c-1.18,1.18-1.52,2.2-1.52,5.14v3.34c0,4.35.28,7,1,8.93-.74,0-2.26-.06-3.73-.06s-3.06.06-3.85.06a58.15,58.15,0,0,0,.57-8.93v-5.77a30.38,30.38,0,0,0-1-8.26c2.09,0,5,0,7-.17l-.17,4.08,1.92-1.64c2.32-1.93,4.19-2.77,6.56-2.77,5.43,0,7.29,3.11,7.29,8.42v6.11c0,4.35.29,7,1,8.93-.8,0-2.32-.06-3.79-.06m-33.7.79c-7.29,0-11.59-4.24-11.59-11.59s4.41-12.55,12.66-12.55c7.35,0,11.54,4.19,11.54,11.37,0,7.86-4.92,12.77-12.61,12.77m-12.1-23.29c-.17.68-.68,2.6-1,3.39a40.33,40.33,0,0,0-4.13-.22h-2.09c-.06,1.58-.11,3.45-.11,4.8v5.32c0,3.56.39,6.22,3.5,6.22a6.26,6.26,0,0,0,3-.85c.23-.11.68-.11.51.56-.28,1-.57,2-.85,3.17a19.48,19.48,0,0,1-5.48.9c-4.08,0-6.68-1.69-6.68-7.46v-7.18c0-2.26,0-4-.05-5.54a21.08,21.08,0,0,0-3.23.28c-.11,0-.45,0-.28-.51,0-.17.62-2.31.85-3,.57.06,1.7.11,2.83.11,0-1.86-.12-2.82-.17-4.24a35.72,35.72,0,0,0,5.93-2.65c.51-.34.74.11.68.62a43.12,43.12,0,0,0-.45,6.27h3.28a15.11,15.11,0,0,0,3.56-.34c.23-.05.45.06.34.4M161.51,229c-3.11,0-5.25-1.86-5.25-4.57,0-2.32,1.41-3.62,3.78-5-1.47-.91-2.94-2.09-2.94-4.3a4.79,4.79,0,0,1,5-4.58c2.71,0,4.75,1.76,4.75,4.13,0,2.21-1.53,3.34-3.17,4.24,2,1.13,3.73,2.49,3.73,4.92,0,3-2.49,5.14-5.94,5.14m-12.83-.62-.06.12h-.11s-2,0-3.22.11h-.06l-.23-.45,8.71-14.87h-5.48a4.61,4.61,0,0,0-2.83.79l-.11,0-.4-.22.06-.11a24.76,24.76,0,0,0,.62-2.66V211h10.35l.17-.06v.17c0,.22.17,1.36.22,1.58l.06.06-.06.05a47.11,47.11,0,0,0-4.35,6.85c-2.26,4.12-3.11,6.38-3.28,8.7m-3.9-31.32c-.74,0-2.26-.06-3.68-.06s-2.94.06-3.84.06a46.74,46.74,0,0,0,.56-8.31V183.1a34.45,34.45,0,0,0-1-8.76c1.76,0,4.53-.06,6.39-.17l-.05,5.37,1.69-2.2c2.09-2.83,3.56-3.68,5.77-3.68a4,4,0,0,1,2,.45c-.67,2.38-1.35,4.87-1.75,6.34-.11.28-.39.73-.79.22-.9-1-1.07-1.35-2.15-1.35a3.7,3.7,0,0,0-3.22,2c-.68,1.08-.91,2-.91,4.19v3.78c0,4.07.23,5.77.91,7.75m-7.29,31.61c-3.11,0-5.26-1.93-5.26-4.58,0-2.32,1.47-3.62,3.79-5-1.47-.84-2.94-2.09-2.94-4.24,0-2.6,2.2-4.58,5.08-4.58,2.72,0,4.7,1.76,4.7,4.13,0,2.21-1.53,3.34-3.17,4.24,2,1.08,3.73,2.43,3.73,4.86,0,3-2.49,5.21-5.93,5.21m-7.69-.46a9.28,9.28,0,0,0-1.42-.11c-.45,0-.9.06-1.47.11h-.22l0-.17a27,27,0,0,0,.29-4.41v-8c0-2.26-.17-2.48-.91-2.48a8.05,8.05,0,0,0-.9.11l-1.25.28a3.6,3.6,0,0,0-.9.34H123l-.34-.28.06-.11a7.24,7.24,0,0,0,.51-1.42l.05-.11h.06a11.94,11.94,0,0,0,1.87-.28l2.65-.57a11.4,11.4,0,0,0,1.53-.39h.06l.34.28-.06.06a30.18,30.18,0,0,0-.28,4.18v8.71a14.83,14.83,0,0,0,.45,4.07l.06.22Zm-15.33-42.29c0-7.24,4.58-12.21,11.2-12.21,5.77,0,9.33,3.39,9.33,8.93,0,.45,0,2.49-.85,2.49h-5.88c-2.43,0-5.82.06-7.35.11.11,5.54,3,8.71,8,8.71a7.68,7.68,0,0,0,4.8-1.53c.4-.28.85-.05.63.68-.46,1.64-.57,2-1,3.39a23,23,0,0,1-7.23,1.42c-7.18,0-11.71-4.86-11.71-12m-7,6.39a23.88,23.88,0,0,0-1.41,4.75c-.51-.06-1.59-.06-2.66-.06-.91,0-2.09.06-2.94.06a32.6,32.6,0,0,0-1.42-5.37l-3-9.33c-1-2.83-2-5.88-4.07-8.26a68.23,68.23,0,0,0,8.37-.22,32.06,32.06,0,0,0,1.36,6.61l1.69,5.88c.45,1.42,1.36,4.53,1.36,4.53a27.66,27.66,0,0,1,1-2.89l2.65-7a20.17,20.17,0,0,0,1.25-5c0-.62,0-1.24,0-2,.68.05,1.86.05,2.88.05a25.68,25.68,0,0,0,3.11-.22c.68-.06.57.34.34.56a35,35,0,0,0-4.07,7.64Zm-13.91-.06c-.34,1.13-1.3,4.7-1.41,5-5.2-.23-8.65-.23-11.71-.23H72.07a61.58,61.58,0,0,0,.62-8.76V173.78c0-2.38-.11-6.85-.9-8.94,1.52.12,2.65.12,3.78.12h8.71c3.11,0,4.35-.12,7.75-.12-.62,2.21-1.25,4.53-1.53,5.43s-.73.23-.79.11c-1.41-2.09-4.24-2.32-6.84-2.32-.85,0-1.81.06-3,.06-.06.79-.17,3-.17,5v4.7h3.85a55.21,55.21,0,0,0,6.78-.4c.45,0,.34.34.34.34-.34,1.3-.79,2.94-1.07,4a63.14,63.14,0,0,0-6.68-.34H79.64V188c0,4.24.46,5.66,5.55,5.66,2.82,0,4.41,0,7.52-2.32.5-.45,1.18-.23.9.9M70.54,66.75a5.56,5.56,0,0,1,4.19-.63,6.41,6.41,0,0,1,3.73,2.15,5.61,5.61,0,0,1-4.19.62,6.4,6.4,0,0,1-3.73-2.14m-1.92-5.94a5.33,5.33,0,0,1,4.07,1,6.33,6.33,0,0,1,2.83,3.39,5.43,5.43,0,0,1-4.07-1,6.56,6.56,0,0,1-2.83-3.39m-2.88-5.37a6,6,0,0,1,4.12,1,6.67,6.67,0,0,1,2.83,3.44,6.05,6.05,0,0,1-4.13-1,6.79,6.79,0,0,1-2.82-3.45m.67-12.72a6.59,6.59,0,0,1,3,3.28,7.32,7.32,0,0,1,.79,4.57,6.59,6.59,0,0,1-3-3.27,7.37,7.37,0,0,1-.8-4.58m3.23-4.36a7.39,7.39,0,0,1,1.92,4.13A7.84,7.84,0,0,1,71,47.13,7.11,7.11,0,0,1,69.07,43a7.47,7.47,0,0,1,.57-4.64m1.69-1a7.21,7.21,0,0,1,1.47-4.41,7.68,7.68,0,0,1,1,4.58,7.44,7.44,0,0,1-1.47,4.3,7.4,7.4,0,0,1-1-4.47M73.2,52.1a7.44,7.44,0,0,1,1.87,4.13,7.48,7.48,0,0,1-.57,4.64,7.11,7.11,0,0,1-1.92-4.19,7.68,7.68,0,0,1,.62-4.58m-1.7,4.41A6.5,6.5,0,0,1,67.94,54a7.25,7.25,0,0,1-1.58-4.3,5.79,5.79,0,0,1,3.5,2.49,7.7,7.7,0,0,1,1.64,4.35m-.73-4.35a6.59,6.59,0,0,1,.9-4,6,6,0,0,1,2.83-2.77,6.32,6.32,0,0,1-.9,4.07,5.38,5.38,0,0,1-2.83,2.72m3.56-10.69A5.14,5.14,0,0,1,77.78,40a6.29,6.29,0,0,1-2.09,3.5A5.21,5.21,0,0,1,72.24,45a6.29,6.29,0,0,1,2.09-3.51m1.53-6a6.57,6.57,0,0,1,3.28-2.88,7,7,0,0,1-1.25,4.46A5.94,5.94,0,0,1,74.61,40a7.64,7.64,0,0,1,1.25-4.47m3.28,32A6.51,6.51,0,0,1,76.2,64.2a7.19,7.19,0,0,1-.68-4.58,6.78,6.78,0,0,1,2.94,3.28,7.82,7.82,0,0,1,.68,4.58m3.61,2.88a6.07,6.07,0,0,1-3.84,1.93,5.54,5.54,0,0,1-4.13-.91,6.21,6.21,0,0,1,3.85-1.86,5.64,5.64,0,0,1,4.12.84m1.47-3a7.2,7.2,0,0,1,2.61,3.62,5.31,5.31,0,0,1-4-1.3A6.47,6.47,0,0,1,80.15,66a6,6,0,0,1,4.07,1.3m3.23,4.47a0,0,0,0,1,0,0c.46.23.91.4,1.36.63a7.24,7.24,0,0,1,1.47-.68A5.57,5.57,0,0,1,94,71.66,6.08,6.08,0,0,1,97.57,74a5.62,5.62,0,0,1-4.19.4,6.34,6.34,0,0,1-3.5-2.21c-.23.17-.4.34-.62.51a17.21,17.21,0,0,1,4.58,4.24c-.57.85-.8,1.3-1.36,2.15a22.45,22.45,0,0,0-3.62-5.94A20.83,20.83,0,0,0,85,79.07c-.57-.85-.85-1.24-1.36-2.09a16.38,16.38,0,0,1,4.75-4.3,6,6,0,0,1-.57-.56,6.26,6.26,0,0,1-3.56,2.26A5.64,5.64,0,0,1,80.1,74a5.9,5.9,0,0,1,3.62-2.32,5.7,5.7,0,0,1,3.67.12h.06m5.93-4.47a5.83,5.83,0,0,1,4-1.3,6.58,6.58,0,0,1-2.6,3.62,5.39,5.39,0,0,1-4,1.3,6.57,6.57,0,0,1,2.6-3.62M99,69.52a6.38,6.38,0,0,1,3.85,1.86,6.36,6.36,0,0,1-8-1A5.55,5.55,0,0,1,99,69.52m.17-6.62a6.55,6.55,0,0,1,2.94-3.28,7.39,7.39,0,0,1-.73,4.58,6.34,6.34,0,0,1-2.94,3.28,7.82,7.82,0,0,1,.73-4.58m-.73-30.3a6.46,6.46,0,0,1,3.33,2.88A7.47,7.47,0,0,1,102.94,40a6.17,6.17,0,0,1-3.28-2.89,7.33,7.33,0,0,1-1.24-4.46m7,12.38a5.42,5.42,0,0,1-3.5-1.53,6.26,6.26,0,0,1-2.1-3.5,5.39,5.39,0,0,1,3.51,1.52A6.29,6.29,0,0,1,105.37,45m-.62-12a6.86,6.86,0,0,1,1.47,4.41,7,7,0,0,1-1,4.47,7.44,7.44,0,0,1-1.53-4.3,8.07,8.07,0,0,1,1-4.58M108,38.36a7.47,7.47,0,0,1,.57,4.64,7.5,7.5,0,0,1-1.93,4.13,7.47,7.47,0,0,1-.56-4.64A7.08,7.08,0,0,1,108,38.36m3.17,4.36a7.36,7.36,0,0,1-.74,4.58,6.86,6.86,0,0,1-3,3.27,7.24,7.24,0,0,1,.73-4.57,6.59,6.59,0,0,1,3-3.28M104.92,59.9a6.67,6.67,0,0,1,2.83-3.44,5.86,5.86,0,0,1,4.07-1A6.3,6.3,0,0,1,109,58.89a6,6,0,0,1-4.07,1m-.51-7.8a7.71,7.71,0,0,1,.56,4.58,7.06,7.06,0,0,1-1.92,4.19,7.86,7.86,0,0,1-.56-4.64,7,7,0,0,1,1.92-4.13m3.28.06a6,6,0,0,1,3.5-2.49,7.18,7.18,0,0,1-1.58,4.3,6.36,6.36,0,0,1-3.5,2.54,7.59,7.59,0,0,1,1.58-4.35m-.85,0A5.42,5.42,0,0,1,104,49.44a6.74,6.74,0,0,1-.91-4.07,6,6,0,0,1,2.83,2.77,6.68,6.68,0,0,1,1,4M107,66.75a6.07,6.07,0,0,1-3.73,2.14,5.41,5.41,0,0,1-4.13-.62,6.07,6.07,0,0,1,3.73-2.15,5.4,5.4,0,0,1,4.13.63m-.9-2.55a5.41,5.41,0,0,1-4.08,1,6.33,6.33,0,0,1,2.83-3.39,5.44,5.44,0,0,1,4.07-1,6.3,6.3,0,0,1-2.82,3.39m14.07,13.12,23.19-49.25c-.85-1.86.56-4.18,2.37-4.18A3.1,3.1,0,0,1,148.4,28l23.35,49c4,1.92,5.71,4.35,5.48,6a4.06,4.06,0,0,1-2.88,3.39c.11,8.88-.28,40.37-.17,58.35,2,.46,2,2.55,1.81,9.33-.11,6.5.45,8.71-3.85,8.71-.56,0-1.69-.06-1.69-.06v-2.2c-.06-1.13-.06-1.47-.68-1.7-1.81-.73-3.73-1.35-5.82-2.2-1.47-.51-45.69-16.34-45.69-16.34a2.8,2.8,0,0,1-2-2.55c0-.17-.06-1.86-.06-2.43v-6.33c0-1.64,1.07-2.21,2-2.09.05,0,.05-.17.05-.29-.05-5.82-.11-36.29-.11-39.52a4,4,0,0,1-2.6-2c-1-2.09,0-5.26,4.63-7.69m64.18-20.86a7,7,0,0,1,2.82,3.44,5.85,5.85,0,0,1-4.07-1,6.41,6.41,0,0,1-2.88-3.45,6,6,0,0,1,4.13,1m-3.45-13.74a6.62,6.62,0,0,1,3,3.28,7.33,7.33,0,0,1,.8,4.57,6.56,6.56,0,0,1-3-3.27,7.42,7.42,0,0,1-.79-4.58m3.22-4.36a7,7,0,0,1,1.92,4.13,7.4,7.4,0,0,1-.56,4.64A7,7,0,0,1,183.57,43a7.4,7.4,0,0,1,.56-4.64m1.7-1a7.55,7.55,0,0,1,1.47-4.41,7.27,7.27,0,0,1,1,4.58,7.37,7.37,0,0,1-1.47,4.3,7,7,0,0,1-1-4.47m2.94,4.13A5.37,5.37,0,0,1,192.33,40a7,7,0,0,1-2.09,3.5A5.59,5.59,0,0,1,186.67,45a6.68,6.68,0,0,1,2.1-3.51m1.58-6a6.61,6.61,0,0,1,3.28-2.88,7.26,7.26,0,0,1-1.19,4.46A6.25,6.25,0,0,1,189.11,40a7.55,7.55,0,0,1,1.24-4.47m3.28,32a6.3,6.3,0,0,1-2.94-3.28,7.4,7.4,0,0,1-.74-4.58,6.26,6.26,0,0,1,2.94,3.28,7.39,7.39,0,0,1,.74,4.58m-4.41-1.36a6,6,0,0,1,3.67,2.15,5.38,5.38,0,0,1-4.12.62A6.37,6.37,0,0,1,185,66.75a5.57,5.57,0,0,1,4.18-.63m.85-.9a5.52,5.52,0,0,1-4.13-1,6.33,6.33,0,0,1-2.83-3.39,5.33,5.33,0,0,1,4.07,1,6.75,6.75,0,0,1,2.89,3.39M187.69,52.1a6.71,6.71,0,0,1,1.87,4.13,7.48,7.48,0,0,1-.57,4.64,6.75,6.75,0,0,1-1.86-4.19,7.27,7.27,0,0,1,.56-4.58m-1.75,4.41A6.62,6.62,0,0,1,182.43,54a7.25,7.25,0,0,1-1.58-4.3,6,6,0,0,1,3.51,2.49,7.25,7.25,0,0,1,1.58,4.35m-.68-4.35a6.54,6.54,0,0,1,.91-4,5.83,5.83,0,0,1,2.88-2.77,6.81,6.81,0,0,1-1,4.07,5.56,5.56,0,0,1-2.83,2.72m11.93,18.2a5.79,5.79,0,0,1-3.79,1.93,5.58,5.58,0,0,1-4.12-.91,6.16,6.16,0,0,1,3.84-1.86,5.44,5.44,0,0,1,4.07.84m1.53-3a7.17,7.17,0,0,1,2.6,3.62,5.33,5.33,0,0,1-4-1.3A6.4,6.4,0,0,1,194.65,66a6,6,0,0,1,4.07,1.3m4.52,5.15c.4-.23.85-.4,1.3-.63.06,0,.06,0,.11,0h0a5.77,5.77,0,0,1,3.68-.12A6.18,6.18,0,0,1,212,74a5.71,5.71,0,0,1-4.18.4,6.1,6.1,0,0,1-3.56-2.26,7.65,7.65,0,0,1-.62.56,15.82,15.82,0,0,1,4.8,4.3c-.56.85-.79,1.24-1.35,2.09a21.06,21.06,0,0,0-3.85-5.94,22.54,22.54,0,0,0-3.67,5.94c-.51-.85-.8-1.3-1.3-2.15a16,16,0,0,1,4.52-4.24c-.17-.17-.4-.34-.57-.51a6.47,6.47,0,0,1-3.56,2.21,5.68,5.68,0,0,1-4.18-.4,6.08,6.08,0,0,1,3.62-2.32,5.75,5.75,0,0,1,3.67.12,9.53,9.53,0,0,1,1.47.68m4.64-5.15a5.79,5.79,0,0,1,4-1.3,6.53,6.53,0,0,1-2.6,3.62,5.43,5.43,0,0,1-4.07,1.3,6.92,6.92,0,0,1,2.66-3.62m5.59,2.21a6,6,0,0,1,3.79,1.86,5.44,5.44,0,0,1-4.07.91,5.8,5.8,0,0,1-3.84-1.93,5.52,5.52,0,0,1,4.12-.84m.17-6.62a6.6,6.6,0,0,1,2.94-3.28,7.67,7.67,0,0,1-.67,4.58A6.88,6.88,0,0,1,213,67.48a7,7,0,0,1,.67-4.58m-.73-30.3a6.51,6.51,0,0,1,3.34,2.88A7.62,7.62,0,0,1,217.49,40a6.06,6.06,0,0,1-3.34-2.89,7.4,7.4,0,0,1-1.24-4.46m7,12.38a5.46,5.46,0,0,1-3.5-1.53,6.24,6.24,0,0,1-2.09-3.5,5.39,5.39,0,0,1,3.5,1.52A6.29,6.29,0,0,1,219.86,45m-.56-12a7.55,7.55,0,0,1,1.47,4.41,7.86,7.86,0,0,1-1,4.47,6.74,6.74,0,0,1-1.47-4.3,7.27,7.27,0,0,1,1-4.58m3.16,5.43A7.84,7.84,0,0,1,223,43a7.43,7.43,0,0,1-1.92,4.13,7.47,7.47,0,0,1-.57-4.64,7.08,7.08,0,0,1,1.92-4.13m-.28,13.8a6,6,0,0,1,3.51-2.49A7.27,7.27,0,0,1,224.1,54a6.36,6.36,0,0,1-3.5,2.54,7.25,7.25,0,0,1,1.58-4.35m-2.71,4.52a7.11,7.11,0,0,1-1.92,4.19,7.85,7.85,0,0,1-.57-4.64,7.08,7.08,0,0,1,1.92-4.13,7.71,7.71,0,0,1,.57,4.58m-1-7.24a6.72,6.72,0,0,1-.9-4.07,6,6,0,0,1,2.82,2.77,6.27,6.27,0,0,1,.91,4,5.56,5.56,0,0,1-2.83-2.72m7.18-6.72a7,7,0,0,1-.79,4.58,6.75,6.75,0,0,1-2.94,3.27,7.31,7.31,0,0,1,.73-4.57,6.67,6.67,0,0,1,3-3.28m28.27.17L215.28,7.72c-9.1,5.93-21,9.55-34,9.55-13.63,0-26-3.95-35.23-10.4-9.21,6.45-21.6,10.4-35.22,10.4-13.06,0-24.94-3.62-34-9.55L38.14,42.89s18.66,17.69,18.78,32-4.19,26-9.45,40.59a112.16,112.16,0,0,0-5.25,24.15c-.23,1.92-.46,4-.57,6.1-.11,1.87-.11,3.79-.17,5.71-.06,11.88,2,24.54,8,35.51a53.67,53.67,0,0,0,2.94,4.75c3.11,4.47,28.39,46.3,82,51.79l.23.17L146,255l11.42-11.36.17-.17c53.66-5.49,78.93-47.32,82-51.79a41.09,41.09,0,0,0,2.94-4.75c6-11,8-23.63,8-35.51,0-1.92-.05-3.84-.16-5.71-.12-2.09-.34-4.18-.51-6.1a111.58,111.58,0,0,0-5.32-24.15c-5.2-14.64-9.5-26.23-9.38-40.59s18.71-32,18.71-32"/></g><g id="g5895"><path id="path5897" class="cls-2" d="M162.26,218.14c1.24-.74,2.54-1.64,2.54-3.4a2.64,2.64,0,0,0-2.71-2.71,2.59,2.59,0,0,0-2.66,2.66c0,1.64,1.24,2.54,2.83,3.45"/></g><g id="g5899"><path id="path5901" class="cls-2" d="M161.51,220.3c-2.09,1-3.11,2.38-3.11,4a3.12,3.12,0,0,0,3.28,3.16,3.21,3.21,0,0,0,3.4-3.16c0-1.76-1.19-2.72-3.57-4"/></g><g id="g5903"><path id="path5905" class="cls-2" d="M137.5,220c-2.1,1-3.11,2.38-3.11,4a3.11,3.11,0,0,0,3.28,3.16,3.25,3.25,0,0,0,3.39-3.16c0-1.76-1.19-2.72-3.56-4"/></g></g></g></g></svg>