<svg xmlns="http://www.w3.org/2000/svg" viewBox="0 0 299.84 299.82"><defs><style>.cls-1{fill:#ae9962;}.cls-2{fill:#e2001a;}.cls-3{fill:#fff;}</style></defs><title>Feyenoord</title><g id="Слой_2" data-name="Слой 2"><g id="Layer_1" data-name="Layer 1"><g id="g3062"><g id="_206857656" data-name=" 206857656"><path id="path22" class="cls-1" d="M0,150.1A149.92,149.92,0,1,1,150.1,299.82,149.91,149.91,0,0,1,0,150.1Z"/><path id="path24" d="M6.45,150.09A143.46,143.46,0,1,1,150.09,293.37,143.48,143.48,0,0,1,6.45,150.09Z"/><path id="path26" class="cls-1" d="M46.66,150A103.45,103.45,0,1,1,150.24,253.38,103.46,103.46,0,0,1,46.66,150Z"/><path id="path28" class="cls-1" d="M272.47,90.64a9.16,9.16,0,0,1-1,5.75,11.93,11.93,0,0,1-3.06,3.77,23.59,23.59,0,0,1-3.81,2.54,18.21,18.21,0,0,1-9.27,2.26,9.93,9.93,0,0,1-8.76-5.87l-5.4-10.54L265.67,76l5.4,10.55a13.93,13.93,0,0,1,1.4,4.06ZM264,83.18l-16,8.16,2.41,4.72a5.72,5.72,0,0,0,6.15,3.23,14.44,14.44,0,0,0,5.06-1.62,12.52,12.52,0,0,0,5.13-4.1q1.41-2.17-.36-5.68L264,83.17ZM252.83,60.93a7,7,0,0,1,.4,3.25,8.34,8.34,0,0,1-.73,2.61,7.9,7.9,0,0,1-1.75,2.35,8.24,8.24,0,0,1-3.5,1.92,5.52,5.52,0,0,1-4.17-.57,5.13,5.13,0,0,1,.24,3.46,9.24,9.24,0,0,1-2.59,3.52l-1.35,1.26a14.44,14.44,0,0,0-1.77,1.85,2.28,2.28,0,0,0-.43,1.84l-.5.46-4.31-4.61c.31-.53.59-.94.81-1.28a14.58,14.58,0,0,1,1.57-1.79l1.84-1.78c1.28-1.2,1.9-2.23,1.9-3.1s-.55-1.85-1.72-3.12l-4-4.33-7.88,7.36L221,66.14,241.1,47.36l9.21,9.85a12.46,12.46,0,0,1,2.52,3.72Zm-11.39-6.22-5.39,5,4.44,4.76a7.58,7.58,0,0,0,2.32,1.82,3.07,3.07,0,0,0,3.43-.86A3.44,3.44,0,0,0,247.56,62,6.5,6.5,0,0,0,246,59.59l-4.56-4.88Zm-28.89,2.43q-4.29,1.22-9.41-1.71c-3.39-2-5.47-4.37-6.21-7.27-1.1-3.65-.42-7.6,2-11.92s5.59-6.94,9.29-7.73c2.85-.82,6-.24,9.4,1.71s5.47,4.38,6.21,7.27c1.14,3.57.45,7.53-2.05,11.92s-5.54,6.83-9.27,7.74Zm-1-5.41c2-.79,3.77-2.52,5.31-5.2s2.14-5.06,1.82-7.2a6.53,6.53,0,0,0-3.42-4.89,6.63,6.63,0,0,0-6-.54c-2,.78-3.77,2.52-5.33,5.19s-2.15,5.09-1.82,7.22a7.12,7.12,0,0,0,9.41,5.42ZM182.31,42.8q-3.74,2.4-9.49,1.1c-3.83-.87-6.51-2.58-8.07-5.14-2.12-3.16-2.62-7.14-1.53-12s3.32-8.27,6.61-10.11q3.73-2.41,9.5-1.12t8.06,5.14q3.18,4.61,1.51,12C187.8,37.47,185.61,40.83,182.31,42.8Zm-2.57-4.89c1.68-1.33,2.87-3.5,3.56-6.53s.57-5.45-.36-7.41a7.09,7.09,0,0,0-10.58-2.44q-2.52,2-3.58,6.52c-.69,3-.58,5.5.38,7.44a7.11,7.11,0,0,0,10.58,2.42Zm-51-23.5,6-.42L147,32.35l-1.36-19.14,5.33-.38,2,27.43-5.74.4L134.6,22,136,41.46l-5.34.38-2-27.42Zm-13.62,8L101.34,27.2l1.9,5.52,12.63-4.36,1.56,4.51L104.8,37.23l2.31,6.68,14.39-5,1.61,4.67-19.68,6.81-9-26,19.06-6.58,1.59,4.6ZM76.48,34.33l5.26-3.83,2.67,19.29,6.08,8.35-4.64,3.38-6.08-8.35L62,44.9l5.48-4,11.66,6.32-2.63-12.9ZM57.35,55.47l-9.53,11,4.41,3.81L61,60.2l3.61,3.12L55.84,73.41l5.34,4.64,10-11.5,3.73,3.23L61.24,85.52l-20.77-18L53.68,52.28l3.68,3.19ZM24.14,95.74,33,78.36l4.3,2.19L31,92.84l5.64,2.87L42.14,85l4.26,2.16L40.93,97.87l10.27,5.22-2.58,5.09L24.14,95.75Z"/><path id="path30" class="cls-1" d="M55.37,206a6.87,6.87,0,0,1-.56,3.23,8.35,8.35,0,0,1-1.46,2.28,8.1,8.1,0,0,1-6.27,2.55,5.52,5.52,0,0,1-3.83-1.76,5,5,0,0,1-.78,3.37,9.29,9.29,0,0,1-3.5,2.61l-1.66.81a13.47,13.47,0,0,0-2.23,1.25,2.31,2.31,0,0,0-.95,1.63l-.62.3-2.78-5.67c.46-.42.85-.73,1.16-1a11.68,11.68,0,0,1,2-1.26l2.27-1.16c1.57-.78,2.47-1.58,2.73-2.42s0-1.93-.73-3.48L35.57,202l-9.68,4.74-2.47-5,24.7-12.09,5.93,12.12a12.58,12.58,0,0,1,1.31,4.3Zm-9.07-9.27L39.67,200l2.87,5.85a7.36,7.36,0,0,0,1.67,2.41,3.1,3.1,0,0,0,3.54.18c1.49-.73,2.26-1.7,2.29-3a6.49,6.49,0,0,0-.8-2.72l-2.94-6Z"/><path id="path32" class="cls-1" d="M58,247.69q-4.44-.1-8.49-4.39t-3.81-8.77c0-3.82,1.82-7.39,5.43-10.79s7.37-5,11.14-4.7q4.44.09,8.49,4.4t3.81,8.77c0,3.73-1.76,7.31-5.44,10.78S61.85,247.92,58,247.7Zm.6-5.48q3.22-.26,6.61-3.42c2.25-2.1,3.52-4.21,3.84-6.35a6.59,6.59,0,0,0-1.84-5.69,6.68,6.68,0,0,0-5.56-2.26c-2.14.17-4.34,1.3-6.62,3.41s-3.55,4.24-3.85,6.37a7.11,7.11,0,0,0,7.42,7.94Z"/><polygon id="polygon34" class="cls-1" points="82.56 235.97 101.26 248.07 98.61 252.15 91.71 247.69 79.41 266.68 74.55 263.54 86.86 244.55 79.92 240.05 82.56 235.97"/><polygon id="polygon36" class="cls-1" points="107.05 250.47 128.24 257.33 126.75 261.96 118.92 259.43 111.95 280.95 106.45 279.17 113.42 257.65 105.56 255.1 107.05 250.47"/><polygon id="polygon38" class="cls-1" points="155.16 281.55 154.99 286.49 134.17 285.78 135.1 258.31 155.25 258.99 155.09 263.85 140.54 263.36 140.35 269.2 153.69 269.65 153.53 274.42 140.18 273.97 139.95 281.04 155.16 281.55"/><path id="path40" class="cls-1" d="M181.76,255a6.73,6.73,0,0,1,3,1.27,8.33,8.33,0,0,1,1.91,1.93,8.18,8.18,0,0,1,1.07,6.69,5.65,5.65,0,0,1-2.57,3.34,5,5,0,0,1,3.11,1.51,9.21,9.21,0,0,1,1.74,4l.42,1.8a12.56,12.56,0,0,0,.73,2.45,2.26,2.26,0,0,0,1.37,1.29l.16.67-6.16,1.43c-.29-.54-.51-1-.69-1.34a13.66,13.66,0,0,1-.77-2.26l-.63-2.48c-.41-1.71-1-2.76-1.74-3.2s-1.88-.44-3.55-.07l-5.78,1.34,2.44,10.51-5.47,1.26-6.22-26.77,13.13-3.06a12.73,12.73,0,0,1,4.49-.31Zm-11.07,6.74,1.67,7.2,6.34-1.47a7.2,7.2,0,0,0,2.73-1.09,3.09,3.09,0,0,0,1-3.41c-.37-1.61-1.15-2.58-2.37-2.89a6.49,6.49,0,0,0-2.83.16l-6.5,1.51Z"/><path id="path42" class="cls-1" d="M208.16,242.64a9,9,0,0,1,5.8.68,12.06,12.06,0,0,1,3.92,2.85,24.7,24.7,0,0,1,2.73,3.67,18.29,18.29,0,0,1,2.75,9.14A9.94,9.94,0,0,1,218,268L207.7,274l-13.77-23.79,10.25-5.94a13.61,13.61,0,0,1,4-1.61Zm-7,8.88,9,15.53,4.59-2.65a5.71,5.71,0,0,0,2.89-6.31,14.41,14.41,0,0,0-1.86-5,12.69,12.69,0,0,0-4.37-4.9q-2.23-1.29-5.65.66l-4.58,2.66Z"/><path id="path44" class="cls-1" d="M225.2,228.71l4.42-4.75,26.76,11.59-4.24,4.56-5.35-2.55-6.9,7.41,2.84,5.25-4.09,4.4-13.45-25.91Zm12.27,11.92,4.76-5.11L232,230.66l5.49,10Z"/><path id="path46" class="cls-1" d="M248.59,196.4l3.87-7.3L276.74,202l-2.5,4.73-17.12-9.11c-.46-.25,14.44,13.84,14.44,13.84L269,216.55s-20.37-4.28-19.89-4.05l17.28,9.16-2.5,4.73L239.6,213.51l3.91-7.39,21,4.82L248.58,196.4Z"/><polygon id="polygon48" class="cls-2" points="126.8 142.74 126.74 90.54 149.7 90.52 149.7 142.52 126.8 142.74"/><path id="path50" class="cls-1" d="M265.8,150.89a6.79,6.79,0,1,1,6.8,6.79,6.79,6.79,0,0,1-6.8-6.79Z"/><path id="path52" class="cls-2" d="M149.74,82.84l-57.89.76v7h6.88s7.6,0,7.62,10.76.12,100.46.12,100.46c0,7.64-6.44,8.14-8.93,8.14H92.38v7.42l49.65-.06v-7.42h-6.31s-9-.67-9-8.25c0-9.36-.06-51.26-.06-51.26l23,0v98.75c-54.17.07-97.92-45-98-99.12a98.09,98.09,0,0,1,98-98.19l0,31Z"/><path id="path54" class="cls-3" d="M149.7,249.16c54.16-.07,98.35-45.21,98.28-99.37A98.14,98.14,0,0,0,149.7,51.84l0,31L197,82.3l4.24,33.61h-7.64s-1.64-11.56-9.38-17.56c-5.16-4-11.66-8.07-22.93-8.06-6.06,0-11.6.17-11.6.17v52.05c1.91,0,9.65-2.16,9.65-11.28a18.12,18.12,0,0,0-.11-3.63h6.4l8.27,44.87-7.64.21c-1.41-5.35-4.88-23.49-16.58-22.28v98.75Z"/><path id="path56" class="cls-1" d="M20.22,150.89a6.79,6.79,0,1,1,6.8,6.79,6.79,6.79,0,0,1-6.8-6.79Z"/></g></g></g></g></svg>