<svg xmlns="http://www.w3.org/2000/svg" viewBox="0 0 201.82 300"><defs><style>.cls-1{fill:#50408f;}.cls-2{fill:#b1a77a;}.cls-3{fill:#fff;}.cls-4{fill:#b33a2c;}.cls-5{fill:#cc2229;}</style></defs><title>Fiorentina</title><g id="Слой_2" data-name="Слой 2"><g id="Layer_1" data-name="Layer 1"><polygon class="cls-1" points="19.67 126.96 21.45 128.53 100.91 278.63 180.41 128.53 182.19 126.96 100.91 197.44 19.67 126.96"/><path class="cls-2" d="M101.56.69,100.91,0,0,109.9,100.91,300,201.82,109.9ZM21.45,128.53l79.46,68.95,79.46-68.95L100.91,278.68Z"/><polygon class="cls-3" points="100.91 14.76 187.53 109.07 100.91 184.24 14.29 109.07 100.91 14.76"/><path class="cls-4" d="M140.21,91.44c-16.63,0-20.45,9.86-30.31,25.28,0-6.43,9.2-25.62,19.19-35L134,80.55V73.29l-6.77,1-.91,5a85.63,85.63,0,0,0-17.46,27s8.86-25.14,8.86-41.12C117.76,45.29,101,33.3,101,33.3S84.24,45.24,84.24,65.13c0,16,8.85,41.12,8.85,41.12a84.77,84.77,0,0,0-17.45-27l-.91-5-6.78-1v7.26l5,1.12c10,9.43,19.2,28.58,19.2,35.05-9.86-15.38-13.68-25.28-30.31-25.28s-17,13.07-17,16.2c0,7.12,3.91,13.07,8.16,14.46s16-2.65,19.07,6.56c0,0,3,.13,3-4.61s-7.34-8.16-7.34-10.33,1.48-3.08,3.69-3.08,17.24,2,21.63,28.57H84.93v3.91h8c-.95,4-3.3,8-6.42,12.07h6.9c0,6.51,2,10.76,7.69,11.16,5.64-.35,7.73-4.61,7.68-11.16h6.69c-3.13-4-5.51-8.08-6.43-12.07h8v-3.91H109c4.43-26.66,19.45-28.57,21.62-28.57s3.69.91,3.69,3.08S127,119.36,127,124.05s3,4.61,3,4.61c3.09-9.21,14.81-5.17,19.06-6.56s8.17-7.34,8.17-14.46C157.18,104.56,156.84,91.44,140.21,91.44Z"/><path class="cls-3" d="M84,210.94l2.08-7.56,2.08,7.56ZM90.36,219h6.16L89.36,198H82.89L75.77,219h6l1-3.48H89.4l1,3.48Z"/><path class="cls-3" d="M120.93,210.72l5.16,1.7a10.71,10.71,0,0,1-1.65,4,7,7,0,0,1-2.77,2.43,9.17,9.17,0,0,1-4.22.83,11.42,11.42,0,0,1-5.08-1,8.3,8.3,0,0,1-3.38-3.52,12.86,12.86,0,0,1-1.44-6.43c0-3.47.83-6.16,2.52-8a9.1,9.1,0,0,1,7.12-2.82,8.89,8.89,0,0,1,5.65,1.61,9.64,9.64,0,0,1,3.08,5l-5.21,1.26a5.44,5.44,0,0,0-.56-1.39,3.74,3.74,0,0,0-1.22-1.13,3.28,3.28,0,0,0-1.61-.39,3.44,3.44,0,0,0-3.08,1.78,8.25,8.25,0,0,0-.82,4.12c0,2.3.3,3.91,1,4.78a3.14,3.14,0,0,0,2.69,1.3,3,3,0,0,0,2.52-1,5.48,5.48,0,0,0,1.35-3Z"/><polygon class="cls-5" points="93.66 225.14 108.2 225.14 108.2 229.7 99.56 229.7 99.56 233.34 106.95 233.34 106.95 237.6 99.56 237.6 99.56 246.2 93.66 246.2 93.66 225.14"/></g></g></svg>