<svg xmlns="http://www.w3.org/2000/svg" xmlns:xlink="http://www.w3.org/1999/xlink" viewBox="0 0 226.65 330.14"><defs><style>.cls-1{fill:none;}.cls-2{fill:#fff;}.cls-3{clip-path:url(#clip-path);}</style><clipPath id="clip-path"><path class="cls-1" d="M27.63,164.83c0,77.84,42.44,140.95,94.79,140.95s94.78-63.11,94.78-140.95S174.77,23.89,122.42,23.89,27.63,87,27.63,164.83"/></clipPath></defs><title>Freiburg</title><g id="Слой_2" data-name="Слой 2"><g id="Слой_1-2" data-name="Слой 1"><path class="cls-2" d="M18.42,165.08c0-82.84,46.48-150,103.81-150S226,82.24,226,165.08s-46.48,150-103.81,150-103.81-67.16-103.81-150"/><path d="M122.23,315.7c-57.58,0-104.42-67.57-104.42-150.62S64.65,14.47,122.23,14.47,226.65,82,226.65,165.08,179.81,315.7,122.23,315.7Zm0-300C65.33,15.7,19,82.71,19,165.08S65.33,314.47,122.23,314.47s103.19-67,103.19-149.39S179.13,15.7,122.23,15.7Z"/><path d="M27.63,164.83C27.63,87,70.07,23.89,122.42,23.89S217.2,87,217.2,164.83s-42.43,140.94-94.78,140.94S27.63,242.68,27.63,164.83"/><g class="cls-3"><polygon class="cls-2" points="0 330.14 0 0 181.61 0 57.28 330.14 0 330.14"/></g><path d="M122.42,306C97,306,73.18,291.28,55.24,264.6s-27.8-62.08-27.8-99.77,9.87-73.12,27.8-99.77S97,23.69,122.42,23.69s49.24,14.69,67.18,41.37,27.79,62.09,27.79,99.77S207.52,238,189.6,264.6,147.8,306,122.42,306Zm0-281.89c-25.25,0-49,14.63-66.86,41.2s-27.73,61.94-27.73,99.55c0,77.61,42.43,140.75,94.59,140.75,25.25,0,49-14.63,66.86-41.19S217,202.44,217,164.83s-9.85-73-27.73-99.55S147.67,24.08,122.42,24.08Z"/><path d="M129.39,70.31a22.4,22.4,0,0,1,4.25,17.49,54.7,54.7,0,0,0-3.14,12.66c-.57,3.85.7,7.5-.85,11-.32.49-1.09,1.27-1.69.58-.93-.58-1.67-2.16-2.94-2.21a10.66,10.66,0,0,0-3.13,6.52,60.25,60.25,0,0,0,.45,12.59,5.48,5.48,0,0,1-.71,2.48,1.17,1.17,0,0,1-1.65.06l0-.06c-1.37-1.32-1.42-3.44-3.2-4.37a2.93,2.93,0,0,0-2,2,22.88,22.88,0,0,0-1.24,9.39,75.92,75.92,0,0,1,.45,10.44c-.73.64-1.63-.32-2.47-.39a1.59,1.59,0,0,0-1.64.07,63,63,0,0,0-5.54,16.64,155.25,155.25,0,0,0-2.55,23.16,1.83,1.83,0,0,1-2.22.79,13,13,0,0,1-4.43-10.38c-.32-6,.57-12.15.26-17.75-.17-1.14,0-3-1.37-3.33,0,.16-.26.33-.39.2a17,17,0,0,0-4,6.2c-4.83,11.48-9.24,23.16-13.44,34.91-.35,1-.5,2.33-1.71,2.6-2.1-.5-2.16-2.9-2.41-4.69-1.77-12.68,3.4-24.67,6.59-36.15-.21-.95.23-1.8-.65-2.35l-1.56.13a252.29,252.29,0,0,0-25.19,28.19c-.56.36-1.13-.07-1.57-.4-1-1.19-.55-3-.39-4.43A95,95,0,0,1,69.1,149.27c1.08-1.78,3.43-3.48,2-5.62a4.42,4.42,0,0,0-3.52-.32c-6.36,2.44-12.4,5.72-18.53,8.74-.59.1-.69-.59-.91-.91a18.25,18.25,0,0,1,5.35-9.4,122.06,122.06,0,0,1,23.68-15,204,204,0,0,0,24.93-13.51,5.23,5.23,0,0,0,1.5-5.36c-1.86-2.57-5.5-1.56-8.29-2a34.3,34.3,0,0,1-20.94-4,3.55,3.55,0,0,1-1.11-3.19l.39-.26c8,.63,16.39-.1,24-.07,2.13-.48,4.78.31,6.66-1.44.16-1.48-1.42-1.61-2.22-2.41a85.85,85.85,0,0,0-17.68-4c-.15-.23-.33-.61-.07-.85,1.33-1.51,3.57-.86,5.35-1.3,3.75-.21,7.28,1.3,10.83,1a3,3,0,0,0,1.37-1.44,5.32,5.32,0,0,0-.58-2.48,29,29,0,0,0-14-4.18c-3.86,0-8,1-12.33.72a30.35,30.35,0,0,0-8.35.26,4.82,4.82,0,0,0-2.81,4.57c-.17.86,1.23,1.7.07,2.35a8.13,8.13,0,0,1-6.46-2,21.06,21.06,0,0,1-.65-11.56c1-3,4.7-2.15,6.65-4.17,1.29-3.13,5.29-.78,6.92-3.52a17.11,17.11,0,0,1,5-4.24,136.38,136.38,0,0,0,30.28-1.18,21.89,21.89,0,0,1,23.81,7.83"/><path class="cls-1" d="M129.39,70.31a22.4,22.4,0,0,1,4.25,17.49,54.7,54.7,0,0,0-3.14,12.66c-.57,3.85.7,7.5-.85,11-.32.49-1.09,1.27-1.69.58-.93-.58-1.67-2.16-2.94-2.21a10.66,10.66,0,0,0-3.13,6.52,60.25,60.25,0,0,0,.45,12.59,5.48,5.48,0,0,1-.71,2.48,1.17,1.17,0,0,1-1.65.06l0-.06c-1.37-1.32-1.42-3.44-3.2-4.37a2.93,2.93,0,0,0-2,2,22.88,22.88,0,0,0-1.24,9.39,75.92,75.92,0,0,1,.45,10.44c-.73.64-1.63-.32-2.47-.39a1.59,1.59,0,0,0-1.64.07,63,63,0,0,0-5.54,16.64,155.25,155.25,0,0,0-2.55,23.16,1.83,1.83,0,0,1-2.22.79,13,13,0,0,1-4.43-10.38c-.32-6,.57-12.15.26-17.75-.17-1.14,0-3-1.37-3.33,0,.16-.26.33-.39.2a17,17,0,0,0-4,6.2c-4.83,11.48-9.24,23.16-13.44,34.91-.35,1-.5,2.33-1.71,2.6-2.1-.5-2.16-2.9-2.41-4.69-1.77-12.68,3.4-24.67,6.59-36.15-.21-.95.23-1.8-.65-2.35l-1.56.13a252.29,252.29,0,0,0-25.19,28.19c-.56.36-1.13-.07-1.57-.4-1-1.19-.55-3-.39-4.43A95,95,0,0,1,69.1,149.27c1.08-1.78,3.43-3.48,2-5.62a4.42,4.42,0,0,0-3.52-.32c-6.36,2.44-12.4,5.72-18.53,8.74-.59.1-.69-.59-.91-.91a18.25,18.25,0,0,1,5.35-9.4,122.06,122.06,0,0,1,23.68-15,204,204,0,0,0,24.93-13.51,5.23,5.23,0,0,0,1.5-5.36c-1.86-2.57-5.5-1.56-8.29-2a34.3,34.3,0,0,1-20.94-4,3.55,3.55,0,0,1-1.11-3.19l.39-.26c8,.63,16.39-.1,24-.07,2.13-.48,4.78.31,6.66-1.44.16-1.48-1.42-1.61-2.22-2.41a85.85,85.85,0,0,0-17.68-4c-.15-.23-.33-.61-.07-.85,1.33-1.51,3.57-.86,5.35-1.3,3.75-.21,7.28,1.3,10.83,1a3,3,0,0,0,1.37-1.44,5.32,5.32,0,0,0-.58-2.48,29,29,0,0,0-14-4.18c-3.86,0-8,1-12.33.72a30.35,30.35,0,0,0-8.35.26,4.82,4.82,0,0,0-2.81,4.57c-.17.86,1.23,1.7.07,2.35a8.13,8.13,0,0,1-6.46-2,21.06,21.06,0,0,1-.65-11.56c1-3,4.7-2.15,6.65-4.17,1.29-3.13,5.29-.78,6.92-3.52a17.11,17.11,0,0,1,5-4.24,136.38,136.38,0,0,0,30.28-1.18A21.89,21.89,0,0,1,129.39,70.31Z"/><path class="cls-2" d="M108.19,72.53a3.74,3.74,0,0,1,.46,3.2c-1.07,2.39-4,2.13-6.08,2.48-1.22-.58-3-.75-3.65-2.28a3.49,3.49,0,0,1,0-2.62,5.48,5.48,0,0,1,4.51-2.67c1.69.16,3.84.06,4.76,1.89"/><path class="cls-1" d="M108.19,72.53a3.74,3.74,0,0,1,.46,3.2c-1.07,2.39-4,2.13-6.08,2.48-1.22-.58-3-.75-3.65-2.28a3.49,3.49,0,0,1,0-2.62,5.48,5.48,0,0,1,4.51-2.67C105.12,70.8,107.27,70.7,108.19,72.53Z"/><path class="cls-2" d="M70.08,74c-.23.67-1.2.38-1.7.27-.39-.53-1.76-.84-1-1.64A2.93,2.93,0,0,1,68.65,72,2.69,2.69,0,0,1,70.08,74"/><path class="cls-1" d="M70.08,74c-.23.67-1.2.38-1.7.27-.39-.53-1.76-.84-1-1.64A2.93,2.93,0,0,1,68.65,72,2.69,2.69,0,0,1,70.08,74Z"/><path d="M105.05,73c.79.84,1.75,1.24,1.9,2.35-1.44.26-3,1.35-4.31.19-.62-.65-1.65-1.42-1.37-2.35,0-.37.39-.51.72-.52a10.53,10.53,0,0,1,3.06.33"/><path class="cls-1" d="M105.05,73c.79.84,1.75,1.24,1.9,2.35-1.44.26-3,1.35-4.31.19-.62-.65-1.65-1.42-1.37-2.35,0-.37.39-.51.72-.52A10.53,10.53,0,0,1,105.05,73Z"/><path class="cls-2" d="M66.62,76.77a6.46,6.46,0,0,0,4.31.91c.75,0,1.15-1.19,2-.65l1.17,1.44c-3.76.72-8.69-.32-11.35,3.13-.41,1.11-1.59,2.15-1.51,3.39-.34,0-.72.21-.84-.26A20.1,20.1,0,0,1,60,77.16c1.06-1.66,3-1.82,4.56-2.42.72.45,1.14,1.64,2.09,2"/><path class="cls-1" d="M66.62,76.77a6.46,6.46,0,0,0,4.31.91c.75,0,1.15-1.19,2-.65l1.17,1.44c-3.76.72-8.69-.32-11.35,3.13-.41,1.11-1.59,2.15-1.51,3.39-.34,0-.72.21-.84-.26A20.1,20.1,0,0,1,60,77.16c1.06-1.66,3-1.82,4.56-2.42C65.25,75.19,65.67,76.38,66.62,76.77Z"/><path class="cls-2" d="M125.61,87.21c.11,3.64.24,8.34-2.87,10.64v-.14h.06c-.76-1.26-.26-2.81-.19-4.56,0-2.38-.46-4.52-.39-6.79,1-.78,3.26-.61,3.39.85"/><path class="cls-1" d="M125.61,87.21c.11,3.64.24,8.34-2.87,10.64v-.14h.06c-.76-1.26-.26-2.81-.19-4.56,0-2.38-.46-4.52-.39-6.79C123.22,85.58,125.48,85.75,125.61,87.21Z"/><path class="cls-2" d="M118,101.63a20.87,20.87,0,0,1,.59,5.28,8.67,8.67,0,0,1-1.37,5.36,75.79,75.79,0,0,0-2.48-11c-.17-.8.73-.9,1.1-1.24a2.93,2.93,0,0,1,1.44-.06c.66.39.28,1.22.72,1.69"/><path class="cls-1" d="M118,101.63a20.87,20.87,0,0,1,.59,5.28,8.67,8.67,0,0,1-1.37,5.36,75.79,75.79,0,0,0-2.48-11c-.17-.8.73-.9,1.1-1.24a2.93,2.93,0,0,1,1.44-.06C118,100.33,117.6,101.16,118,101.63Z"/><path class="cls-2" d="M110.14,112.92a14.7,14.7,0,0,1,1.31,3.33,15,15,0,0,1-.78,8.35c-.56-.33-.51-1.29-.85-1.83a82.37,82.37,0,0,0-2.68-9.26,2.5,2.5,0,0,1,3-.59"/><path class="cls-1" d="M110.14,112.92a14.7,14.7,0,0,1,1.31,3.33,15,15,0,0,1-.78,8.35c-.56-.33-.51-1.29-.85-1.83a82.37,82.37,0,0,0-2.68-9.26A2.5,2.5,0,0,1,110.14,112.92Z"/><path class="cls-2" d="M90.83,129.49a318.93,318.93,0,0,0-29.75,12.33,81.75,81.75,0,0,1,29-16,4.31,4.31,0,0,1,.72,3.72"/><path class="cls-1" d="M90.83,129.49a318.93,318.93,0,0,0-29.75,12.33,81.75,81.75,0,0,1,29-16A4.31,4.31,0,0,1,90.83,129.49Z"/><path class="cls-2" d="M105,136.32a278.47,278.47,0,0,0-5,35.32,90.43,90.43,0,0,1,1.16-36.08,5.3,5.3,0,0,1,3.82.76"/><path class="cls-1" d="M105,136.32a278.47,278.47,0,0,0-5,35.32,90.43,90.43,0,0,1,1.16-36.08A5.3,5.3,0,0,1,105,136.32Z"/><path class="cls-2" d="M88.8,137.58c-7.77,8.27-20.4,23.72-30.34,35.3a112.63,112.63,0,0,1,27.17-37.07,2.77,2.77,0,0,1,3.17,1.77"/><path class="cls-1" d="M88.8,137.58c-7.77,8.27-20.4,23.72-30.34,35.3a112.63,112.63,0,0,1,27.17-37.07A2.77,2.77,0,0,1,88.8,137.58Z"/><path class="cls-2" d="M95,140.63A443.6,443.6,0,0,0,76.8,186.12a113.69,113.69,0,0,1,14.8-47c1.28-.49,2.59.62,3.39,1.49"/><path class="cls-1" d="M95,140.63A443.6,443.6,0,0,0,76.8,186.12a113.69,113.69,0,0,1,14.8-47C92.88,138.65,94.19,139.76,95,140.63Z"/><path class="cls-2" d="M191.48,195.61a38.65,38.65,0,1,0,2.14,31.68h6.46a44.86,44.86,0,1,1-1.74-31.68Z"/><path class="cls-2" d="M157.29,258.66a44.89,44.89,0,1,1,41.07-63.05v0h-6.91a38.62,38.62,0,1,0,2.14,31.66v0h0l6.49,0v0a44.93,44.93,0,0,1-38.62,31.15C160.08,258.59,158.69,258.66,157.29,258.66Zm0-89.76A44.85,44.85,0,1,0,200,227.32h-6.4a38.72,38.72,0,1,1-2.15-31.73l6.81,0a44.93,44.93,0,0,0-41.05-26.7Z"/><path class="cls-2" d="M150.58,197.19h28.35v5.33H155.87v15.39h22.39v5.63H155.87V247.9l-5.29,0Z"/><path class="cls-2" d="M150.58,247.93h0V197.18h28.37v5.35H155.87V217.9h22.4v5.65h-22.4v24.36h-5.29Zm0-50.73v50.72l2.48,0h2.8V223.53h22.39v-5.61H155.86V202.51h23.06V197.2Z"/><path class="cls-2" d="M172.23,191.71A17.93,17.93,0,0,0,156.78,182a15.7,15.7,0,0,0-16.48,14.87c0,.16,0,.31,0,.46,0,10.21,9.42,13.75,17.68,16.76,6,2.09,11.79,4.45,11.79,11.92a13.54,13.54,0,0,1-13.45,13.62h-.18a15.41,15.41,0,0,1-15.06-12.31l-5.76,1.83a20.83,20.83,0,0,0,20.82,16,18.69,18.69,0,0,0,19.5-17.86c0-.33,0-.67,0-1,0-21.88-29.47-14.8-29.47-29.34a10.3,10.3,0,0,1,10.35-9.43,11.52,11.52,0,0,1,10.61,6.81Z"/></g></g></svg>