<svg xmlns="http://www.w3.org/2000/svg" viewBox="0 0 287.46 300.21"><defs><style>.cls-1{fill:#fff;}.cls-2{fill:#060507;}.cls-3{fill:#0094de;}.cls-4{fill:#c61122;}</style></defs><title>FSV</title><g id="Слой_2" data-name="Слой 2"><g id="Layer_1" data-name="Layer 1"><g id="layer1"><path id="path163" class="cls-1" d="M43.05,0C56.4,4.81,79.29,8.56,93.42,8.72l.29.3,3.2,0,.29.3,3.78,0,.28.29,4.08.05.29.3,4.07,0,.28.3,4.08,0,.28.3,8.44.09.29.3,42.18.48.29-.29,8.43.1.3-.29,4.36.05.3-.28,4.07,0,.29-.28,3.49,0,.3-.29,3.49,0,.29-.29,3.49,0,.3-.29,3.49,0,.29-.28c14.75.16,33.26-3.25,47.38-7.31l41.65,45.35c-10,8.13-20.22,15.87-30.53,23.53l-1.57,138.24-.29.25-.06,5.85-.3.25c.45,2.67-1.75,10-2.43,12.72-12.9,51.86-95.28,21.2-111.17,71.65-2.3-3.81-3.09-8.29-5.66-11.87-25-35-91.07-14.62-104.25-61.35-1.18-4.19-2.6-10.07-2.2-14.42l-.28-.07.09-7.79-.29-.06,1.54-136L.07,44.53C14.3,29.59,28.72,14.86,43.05,0Z"/><path id="path165" class="cls-2" d="M182.33,132.54c1,1.46,1,3.39,2.2,4.73v.51c-1.24.37-3.33,1.09-4.64.82C180.73,136.6,181.88,134.69,182.33,132.54Zm2-2.87,1.44,3.06-.29.27,4,8.23-.3.3.58.66a6.76,6.76,0,0,1-3.46.57l-1-3.21L179.1,141a23.61,23.61,0,0,1-1.7,4,11.93,11.93,0,0,1-2.83.61,39.87,39.87,0,0,1,1.83-4.83c1.46-3.43,2.92-7.09,4.49-10.43Z"/><path id="path167" class="cls-2" d="M237.55,79.37l0,2.28c-6.94,2.6-16.1,28.13-19.38,35.81l-24.95,5.6c-2.37-4.76-12.76-27.19-17.06-27.24l-2.73-.06,0-2c3.32-.77,36-8.58,37-8.32l0,2.28c-8,4.65-.76,11.52,2.79,18.1,2.3-4.08,12-19.19,4-20l0-2C219.76,83.2,236,79,237.55,79.37Z"/><path id="path169" class="cls-2" d="M171.35,94.32l-.13,11.58-1.53.6c-4.48-4.94-20.57.19-26.32,2.35l-1.58,2.43,2.14,1.62c4-.86,30.33-10.9,30.69,1.87.11,3.9,0,7.8-2.81,10.87-3.2,3.51-50.67,15.57-55.35,14.86l.13-11.6,1.29-.3c2.53,4.84,24.29-1.93,28.89-3.21l2.17-3.12-2.17-1.48c-8.16,0-16.44,5.34-24.64,5.24-9.4-.11-7.41-15.71-.29-19.44C125.82,104.5,168.57,93.84,171.35,94.32Z"/><path id="path171" class="cls-2" d="M113,107.61l-.14,11.59-1.52.6-1.19-1.74c-5.88-2-19.11,2.28-25.25,4.17l0,4.26c4.5.15,10.07-2.1,14.51-3.1l2.22-2.49,1.66-.31-.15,12.76-1.28.3c-.93-4.24-14.3.33-17,1.37-.1,8.89-1.81,8.33,5.41,9.28l0,2.28-37.29,8.6,0-2.28c10.08-3.36,5.72-18.79,5.81-27,0-3.25-5.45-1.34-5.77-3.76-.23-1.7,8.84-3.14,10.31-3.48C68,117.6,112.35,107.5,113,107.61Z"/><path id="path173" class="cls-2" d="M210.58,123.57l-.05,4.24-.28.25c-.07,6.17-2,13-10.22,11.37l-3-3,0-2.81.3-.13.08-7.15a6,6,0,0,1,2.9-.56l-.07,6L200,132l0,3.54,1,1.56,3,0a3.58,3.58,0,0,1,2-.89c1.28-1.24,1.69-4.39,1.36-6l.3-.14.07-6A5.1,5.1,0,0,1,210.58,123.57Z"/><path id="path175" class="cls-2" d="M168.59,133c-2,2.3-4.07,4.49-6.18,6.67,1.73,2.48,4.12,4.4,6,6.73v.51l-2.62.58-5.46-5.3L158,144.29l0,4.81L155,150c.05-4.64.71-9.65.44-14.22a6.47,6.47,0,0,1,2.9-.26l-.3,5.81c2.75-2.29,4.91-5.18,7.39-7.73C166.36,133.36,167.67,132.76,168.59,133Z"/><path id="path177" class="cls-2" d="M143.13,138.78l3.55,2.95-2.91,1.11-2.61-1.75c-6.55-.08-6.91,6-4.1,10.42,8.45.1,5-5.5,9.26-4.83.67,5-6.79,7.35-10.49,7.14C127.16,148.47,135.25,138.37,143.13,138.78Z"/><path id="path179" class="cls-2" d="M124,143.23l-.06,5.2c-.55.06,0,1,0,1.18l-.31.67-.08,6.88-2.89.55.08-7.22.29-.14.07-6.55A4.31,4.31,0,0,1,124,143.23Z"/><path id="path181" class="cls-2" d="M105.49,161l-2.68-9.34h-.35L99.26,162l-3,1.21-3.82-12.93a4.65,4.65,0,0,1,3.18-.73l2,9.61c1.65-3.61,2.5-7.53,3.89-11.25l2.82-.29c.88,3,1.7,6,2.37,9h.36c1.29-3.38,1.71-7.05,3.18-10.37C118,143.37,108.15,161,105.49,161Z"/><path id="path183" class="cls-2" d="M85.76,151.81v.77l-9.46,12.8c1.32.35,7.43-1.55,9-1.94l0,2c-1.29.5-12.29,3.2-13.09,3.07l0-2,9.43-11.79-.29-.08c-2.59.73-5.21,1.43-7.86,1.93l0-2.28C75.41,153.9,84.72,151.67,85.76,151.81Z"/><path id="path185" class="cls-2" d="M251.76,134.81l-.89,79.3c-.71,62.11-86.54,33.09-109.72,75.63C111.43,246.1,30.19,272.28,33,209.11l-.27-.06.29-25.25c1.3-.45,4.11-1.43,5.51-1.12,0,3.27-2.32,44.17,4,48.38,1.52,2.87,11.5,16.53,15,15.25L58.4,178l16.33-3.61-.89,78.11c3.19,1,17.47,4.79,20.34,4.73L94.89,195l.28-.14,0-3.93-.29-.06,0-4.31.29-.13.19-16.74,16.6-3.6L111,261.64a58.93,58.93,0,0,1,20.36,11.41h.46l1.27-111.68c2.13-.49,17.59-4.44,18.67-4.16l-1.32,115.94.31.1c6-4.6,12.78-9.43,20.49-10.5l.47-41.58.28-.13,0-3.94-.28-.06.05-4.31.29-.13.68-60.08c2.14-.5,15.31-3.94,16.59-3.61L188.1,258.29c3.45.13,17.08-3.19,20.74-4.26l1.24-109.8c2.11-.5,15-3.94,16.31-3.61l-1.22,107.51.3.1c13.53-8.63,19.4-17.91,19.59-34.35l.29-.14.05-4.22.3-.14.84-73.46C247.68,135.63,250.68,134.5,251.76,134.81Zm.69-61.38-.64,57-218.7,49,.65-57.25C49.68,118.56,250.77,73,252.45,73.43ZM43,0C56.33,4.84,79.22,8.6,93.35,8.76l.29.29,3.2,0,.28.29,3.79,0,.28.29,4.08,0,.28.29,4.07,0,.29.29,4.07,0,.29.3,8.44.09.29.29,42.17.49.29-.29,8.44.1.29-.29,4.37,0,.29-.29,4.07,0,.3-.29,3.49,0,.29-.28,3.49,0,.3-.29,3.49,0,.29-.29,3.49,0,.3-.29c14.74.17,33.25-3.24,47.37-7.3l41.65,45.35c-10,8.13-20.21,15.87-30.53,23.53l-1.56,138.23-.29.26-.07,5.85-.29.25c.44,2.66-1.75,10-2.44,12.72-12.9,51.85-95.27,21.19-111.16,71.65-2.3-3.81-3.1-8.3-5.66-11.88-25-35-91.06-14.62-104.24-61.35-1.19-4.18-2.61-10.06-2.21-14.42l-.28-.06.09-7.8-.29-.06L30,68.64,0,44.56C14.23,29.63,28.65,14.89,43,0Z"/><path class="cls-3" d="M44.23,5c11.3,3.27,48,9.59,60.12,8.83l.28.29,3.79.05.28.29,4.37,0,.28.3c1.9,0,6.57.09,6.65.37l48.32.55.3-.29,5.82.07.29-.29,4.36,0,.3-.29,3.78,0,.29-.29,3.78,0,.3-.29,4.07,0,.29-.29c6.59,1,14.91-1.27,21.48-2.08,10.15-1.24,20.56-3.69,30.67-4.88.51-.06,2.87,2.47,3.2,2.8,11.08,11.26,22.69,23.4,32.81,35.49l1.21,1.7C277.48,50.34,254.9,68.35,253,69c-22.26,7.59-66.93,14.83-92.13,20.53L34,118l-.47-.61.55-49.09.29-.18C33.78,65.32,10,47.27,6.11,44.35,17.8,30.58,31.31,17.61,44.23,5Z"/><path id="path189" class="cls-4" d="M234,81.67c-4.8,4.56-13.86,27.32-17,34.67l-22.44,5c-3.75-1.92-11.07-25.19-16.56-26.74,9.53-2.66,19.22-4.67,28.86-6.84L205.48,89c-2,6.32,5.29,14.2,7.72,20.06h.36c2.15-5.16,12.56-21.24,5.91-24.32C221.49,84.28,232.75,81.34,234,81.67Z"/><path id="path191" class="cls-4" d="M169.86,96.34l-.08,7.24c-.58.22-3.67-1.47-5.69-1.21a92.93,92.93,0,0,0-21.58,5.31l-2.18,3.58,1.81,3.08c5.72,1.46,25.35-7.6,29-3.4l2.07,4.48c-.31,0-.32.58,0,.58-.07,6.56-2.44,10.82-9.27,12.49-4.31,1.06-45.21,10.42-45.95,10.28l.09-7.83h.51l1.64,1.17c0-.31.59-.31.58,0,2.8.51,23.69-4.51,27.46-5.84l2.18-4-3.6-3.24c-5.51.2-12.13,2.69-17.5,4.16.11-.52-.51,0-1.13.23a18.77,18.77,0,0,1-7.7.83c-3.12-.56-3.17-7.11-3.15-9.28C117.41,105.73,164,95.6,169.86,96.34Z"/><path id="path193" class="cls-4" d="M110.68,109.61l.86.88c-.19.3-.49,1.24,0,1.48l0,3.36c-.3,0-.31.53,0,.54v1.3c-8.55-3.15-18.84,1.73-27.55,3.51l-.71,1.56.27.46-.06,5.4.39.4,8.81-2.23.29.3c2.57-.63,6.81-1.52,8.86-3.09l-.08,7.55c-5.28-1.79-12.55,1.21-17.92,2.44L83,135.76c1.25,1.84-1.55,9.35,3.08,10-9.54,2.58-19.23,4.6-28.86,6.83,1.2-1.92,2.79-4.3,3-6.62-.11,0-.5-1,0-.58.07-6.26,3.58-20.33-3.81-23.1C74.36,117.56,92.63,113.88,110.68,109.61Z"/><path id="path195" class="cls-4" d="M246.22,135.91l-.85,74.93-.28.47c1,13.29-6.11,31.23-19.09,36.62h-.51l1.22-107.58Z"/><path id="path197" class="cls-4" d="M210.05,144.22l-1.25,109.9c-6.85,1.54-13.78,2.72-20.66,4.14l1.24-109.61C191.87,148.09,208.71,143.88,210.05,144.22Z"/><path id="path199" class="cls-4" d="M172.43,152.52l-1.25,109.9a56.74,56.74,0,0,0-20.44,10.84l1.31-116c0-.37-.31-.12-.29-.31Z"/><path id="path201" class="cls-4" d="M133,161.37,131.78,273a55.87,55.87,0,0,0-20.49-11l1.08-95.92-.28-.3C114.25,165.29,132.46,161.26,133,161.37Z"/><path id="path203" class="cls-4" d="M95.14,170l-1,87.23c-6.66-1.53-13.35-3-20-4.6l.88-78.19C77.61,173.78,93.65,169.56,95.14,170Z"/><path id="path205" class="cls-4" d="M58.38,178.25l-.77,68.05C45.3,238.5,37.84,227,38.54,211.81l-.28-.4.33-29C41.17,181.82,56.84,177.87,58.38,178.25Z"/></g></g></g></svg>