<svg xmlns="http://www.w3.org/2000/svg" viewBox="0 0 224.92 299.33"><defs><style>.cls-1{fill:#fff;}.cls-2{fill:#e53138;}</style></defs><title>Fullham</title><g id="Слой_2" data-name="Слой 2"><g id="Layer_1" data-name="Layer 1"><path class="cls-1" d="M220,14.09C219.62,14,170.45,0,113,0h-1C54.46,0,5.3,14,5,14.09A6.81,6.81,0,0,0,0,20.65v157l.12,1.27c.14,1,15.29,78.49,109.59,119.87a6.83,6.83,0,0,0,2.74.57h0a6.87,6.87,0,0,0,2.74-.57c94.3-41.38,109.45-118.84,109.58-119.87l.13-1.27v-157A6.83,6.83,0,0,0,220,14.09Z"/><path d="M218.88,17.89c-.15,0-49.76-13.84-106.42-13.94C55.79,4.05,6.19,17.85,6,17.89A2.84,2.84,0,0,0,4,20.64v157l0,.54c0,.43,14.65,76.34,107.31,117a2.86,2.86,0,0,0,1.15.24,2.89,2.89,0,0,0,1.15-.24c92.66-40.65,107.26-116.56,107.31-117l.05-.54v-157A2.84,2.84,0,0,0,218.88,17.89Z"/><path class="cls-1" d="M112.46,9.68A421.27,421.27,0,0,0,49.13,14.9V245.74c15,15.63,35.46,31.25,63.33,43.66,27.86-12.41,48.33-28,63.33-43.66V14.9A421.27,421.27,0,0,0,112.46,9.68Z"/><path d="M81.48,223.37c-8.74-8.72-12.75-19.1-12.74-29.5h0c0-12.39,5.66-24.78,15.52-34.64h0c7.74-7.73,17-12.87,26.63-14.74h0L97.43,131,74.76,153.68h.06l-2.11,2.09-.74.72a3.24,3.24,0,0,1-2.12.79h0a3.4,3.4,0,0,1-2.66-1.22h0l-7.38-7.45A3.43,3.43,0,0,1,58.58,146h0a3.39,3.39,0,0,1,.88-2.21h0l51.09-51.06L99.3,81.46,76.62,104.1h0l-2.1,2.08-.75.73a3.21,3.21,0,0,1-2.12.8h0a3.39,3.39,0,0,1-2.65-1.22h0L61.66,99a3.5,3.5,0,0,1-1.23-2.64h0a3.31,3.31,0,0,1,.89-2.21h0l57.08-57a6.43,6.43,0,0,1,4.63-2h0a6.22,6.22,0,0,1,4.53,1.91h0l38,38a3.32,3.32,0,0,1,.8,2.12h0a3.45,3.45,0,0,1-1.21,2.66h0l-.36.36h0c-.22.2-.51.49-.87.84h0l-2.64,2.63h0l-3.83,3.81h0l-.87.86L124.48,56.26,109.91,70.85l53.77,53.78a3.34,3.34,0,0,1,.8,2.12h0a3.49,3.49,0,0,1-1.21,2.67h0l-8.56,8.5-32.08-32.07-14.58,14.57,26.47,26.48a44.16,44.16,0,0,1,13.88,9.54h0c8.27,8.36,12.95,18.43,13,28.46h0a32.47,32.47,0,0,1-7.73,20.85h0l-.85,1.05-12.52-12.52.48-.82a23.84,23.84,0,0,0,3.7-12h0c0-4.8-1.89-9.62-6.65-14.38h0c-5.11-5.1-10.67-7.15-16.34-7.17h0c-8.6,0-17.53,4.91-24.57,12h0c-7,7-12,16-11.95,24.57h0c0,5.67,2.07,11.24,7.16,16.34h0a19.46,19.46,0,0,0,14,6.15h0c5.59,0,11.38-2.44,16.5-6.67h0l.86-.69,12.32,12.32-1,.86c-7.88,7-17,10.57-26.18,10.57h0c-9.66,0-19.25-4-27.18-11.92Z"/><path class="cls-2" d="M116,146.17l-2.44.33C103.73,147.86,94,152.92,86,161h0c-9.48,9.46-14.82,21.27-14.82,32.91h0c0,9.77,3.73,19.46,12,27.77h0c7.55,7.54,16.49,11.21,25.47,11.22h0c8.13,0,16.34-3,23.59-9.12h0l-8.94-8.94c-5.25,4.09-11.21,6.53-17.19,6.54h0a22,22,0,0,1-15.75-6.87h0c-5.51-5.49-7.88-11.78-7.87-18.06h0c0-9.53,5.32-18.94,12.67-26.29h0c7.35-7.35,16.75-12.65,26.28-12.67h0c6.27,0,12.57,2.37,18.06,7.87h0c5.12,5.11,7.38,10.64,7.36,16.11h0a25.88,25.88,0,0,1-3.55,12.45h0l9.27,9.27a29.76,29.76,0,0,0,6.33-18.25h0c0-9.26-4.34-18.74-12.24-26.74h0A41.74,41.74,0,0,0,133.36,149h0l-.24-.1L104.6,120.42l18-18,32.08,32.07,6.84-6.79c.58-.67.43-.4.49-.94h0a.65.65,0,0,0-.16-.48h0L106.46,70.85l18-18,32.08,32.09c1.86-1.86,6.13-6.13,6.86-6.8h0c.57-.66.42-.39.48-.93h0a.69.69,0,0,0-.16-.49h0L125.82,38.78A3.79,3.79,0,0,0,123,37.6h0a4,4,0,0,0-2.89,1.23h0l-57,57c-.22.3-.24.35-.25.58h0c.05.49-.09.23.52.92h0l7.39,7.47c.66.59.41.44.92.5h0a.75.75,0,0,0,.5-.18h0l.56-.55,0,0,0,0,.07-.07.22-.23h0l.81-.82h0c.7-.7,1.7-1.71,2.9-2.9h0c2.4-2.4,5.6-5.61,8.8-8.8h0l12.8-12.76h0l.85-.86L114,92.69,61.27,145.38c-.22.29-.24.35-.25.58h0c.06.5-.09.24.52.94h0l7.38,7.45c.66.58.41.44.93.5h0a.73.73,0,0,0,.5-.17h0l.6-.6,0,0,.07-.07.22-.23h0l.82-.82h0L75,150h0l8.8-8.79h0l12.79-12.77h0l.85-.86,16.86,16.85-.86.86.86-.86,1.74,1.73Z"/></g></g></svg>