<svg xmlns="http://www.w3.org/2000/svg" viewBox="0 0 216.51 300"><defs><style>.cls-1{fill:#ffbc00;}.cls-2{fill:#bc2626;}.cls-3{fill:#3b342c;}</style></defs><title>Galatasaray</title><g id="Слой_2" data-name="Слой 2"><g id="Слой_1-2" data-name="Слой 1"><g id="Ebene_1"><path class="cls-1" d="M46.21,191.68a62,62,0,1,0,124,0l.1-1.31c0-.08,3.29-25.91-19.33-42.81L164.79,129c30.47,22.76,29.06,57.1,28.56,63.09A85.17,85.17,0,0,1,23,191.68Z"/><path class="cls-1" d="M138.78,55.33a32.14,32.14,0,1,0-64.27,0H51.31a55.33,55.33,0,0,1,110.66,0Z"/><path class="cls-1" d="M27.23,166c-4.54,12.3-4.1,25.61-4.1,25.61l23,0s.25-14.85,3.63-25.6l-22.52,0Z"/><path class="cls-2" d="M167.28,130.46a85.09,85.09,0,1,0,26,61.29c0-2.64-.12-7.83-.38-12.85-.17-3.43-.38-6.51-.61-8l22.92-3.44c.4,2.59.69,6.43.89,10.37.25,5,.38,10.74.38,13.93a108.41,108.41,0,1,1-33.19-78l-16,16.67Z"/><polygon class="cls-2" points="159.15 167.26 214.55 167.33 214.55 190.52 159.15 190.46 159.15 167.26"/><path class="cls-3" d="M68.94,170.69h.7c4.69,0,6-2.44,6-4.29h4v24.7H74.82v-17H68.94v-3.38Z"/><path class="cls-3" d="M91.79,174.56c0-3.55,2.27-4.17,3.53-4.17,2.51,0,3.73,1.74,3.73,4.56s-1.88,4.14-3.59,4.14S91.79,178.29,91.79,174.56ZM87.4,185.39c.42,3.92,3.45,6.37,7.67,6.37,4.47,0,9-3.11,9-12.67,0-3.48-.14-12.69-8.71-12.69-4.85,0-8.44,2.81-8.44,8.86,0,4.14,2.76,7.74,7.5,7.74a5.38,5.38,0,0,0,4.71-2.09l.07.07c0,5.17-2.06,6.87-4.08,6.87a2.64,2.64,0,0,1-2.86-2.43v0Z"/><path class="cls-3" d="M111.32,179.06c0-6.35.77-8.74,3.57-8.74s3.56,2.39,3.56,8.75-.77,8.78-3.56,8.78-3.57-2.43-3.57-8.79Zm-5,0c0,8.65,2.75,12.7,8.58,12.7s8.57-4,8.57-12.69-2.75-12.67-8.57-12.67-8.58,4-8.58,12.66Z"/><path class="cls-3" d="M130.6,176.28a6.79,6.79,0,0,1,4.42-1.36c3.31,0,7.48,2.31,7.48,8,0,3.36-1.7,8.87-9,8.87-3.87,0-7.81-2.31-8-7.28h4.88c.21,2,1.29,3.37,3.44,3.37,2.34,0,3.69-2,3.69-4.61,0-2.19-1-4.41-3.62-4.41a3.45,3.45,0,0,0-3.27,1.77l-4.35-.21,1.7-13.57h13.58v4.11H131.47l-.87,5.35Z"/><path class="cls-1" d="M74.39,55.09l-23.15.08C49.63,80.94,72.82,95.43,72.82,95.43l78.4,52.43,14.13-18.48L91.18,82.23S74.39,72.16,74.39,55.09Z"/></g></g></g></svg>