<svg xmlns="http://www.w3.org/2000/svg" viewBox="0 0 210.61 299.2"><defs><style>.cls-1{fill:#ffd912;}.cls-2{fill:#061440;}.cls-3{fill:#ed171f;}.cls-4{fill:#fff;}</style></defs><title>Genoa</title><g id="Слой_2" data-name="Слой 2"><g id="Layer_1" data-name="Layer 1"><path class="cls-1" d="M0,0V233.33C0,259,28.23,278.28,65.67,278.28c17.94,0,29.29,4.23,34.69,13l4.94,8,5-8c5.39-8.72,16.74-13,34.69-13,37.43,0,65.67-19.32,65.67-44.95V0Z"/><path class="cls-2" d="M4.22,4.22V233.33c0,23.22,26.42,40.73,61.45,40.73C85.2,274.06,97.72,279,104,289l1.35,2.19,1.36-2.19c6.23-10.05,18.75-14.94,38.28-14.94,35,0,61.44-17.51,61.44-40.73V4.22Z"/><path class="cls-2" d="M108.92,68.23H105.3V285.5a28.87,28.87,0,0,1,3.62-4c7.59-7.07,19.42-10.58,36-10.58,33.21,0,58.26-16.14,58.26-37.55V68.23Z"/><path class="cls-3" d="M101.69,68.23H7.41v165.1c0,21.41,25,37.55,58.26,37.55,16.59,0,28.43,3.51,36,10.58a29.38,29.38,0,0,1,3.61,4V68.23Z"/><path class="cls-4" d="M7.41,41.44V68.23h94.28V41.44Z"/><path class="cls-4" d="M108.92,68.23H203.2V41.44H108.92Z"/><path class="cls-4" d="M203.2,34.2V7.41H108.92V34.2Z"/><path class="cls-4" d="M101.69,7.41H7.41V34.2h94.28Z"/><path class="cls-3" d="M108.92,34.2V7.41h-7.23V34.2H7.41v7.24h94.28V68.23h7.23V41.44H203.2V34.2Z"/><path d="M162.55,158.56a4.5,4.5,0,0,0-1.92-.68,2.89,2.89,0,0,1-1.88-.91,13.32,13.32,0,0,1-1.09-1.9,20.54,20.54,0,0,0-2.41-3.89c-1.57-1.7-4.08-4-7.84-4-4.13,0-8.3,2.72-8.3,8.79,0,6.51,2.22,11.33,4.56,16.43l2.1,4.74c2.57,6.22,5.52,13.84,5.52,17.64,0,2.1-2,3.45-5,3.45-2.67,0-5.52-1-9.8-3.39-.12-.31-.85-2.11-.85-2.11a22.48,22.48,0,0,0-4.5-7.7L128.44,182c-2.31-2.62-4.93-5.59-8.39-10.05l-.16-.2c-1.22-1.57-2.73-3.52-2.94-4.56a66.15,66.15,0,0,1-.92-8,22.64,22.64,0,0,1,3.66-2.4c4.07-2.22,4.87-2.89,9-8.9l16.95-4.06c1.86-.52,2.68-1.38,2.68-5.06,0-2.05-.48-3.48-1.43-4.24a3.06,3.06,0,0,0-2.65-.49l-3.71,1.07L154,129.39c1.6-.72,2.09-1.45,2.09-2.87a17.81,17.81,0,0,0-.28-2.61c-.33-2.17-1.3-3.11-2.06-3.52a3.69,3.69,0,0,0-3.36.07L142.89,124l13-7.62a2.92,2.92,0,0,0,1.74-2.76,16.94,16.94,0,0,0-.66-3.7c-.6-2.44-1.56-3.93-2.85-4.43a3.52,3.52,0,0,0-3.28.61l-6.41,4.21,7.52-5.59a2.37,2.37,0,0,0,1-1.94c0-1.3-1-2.73-2-4-1.48-2.07-2.87-3.17-4.23-3.36a3.07,3.07,0,0,0-2.4.72l-7.68,6a2.41,2.41,0,0,0,.32-1.24,6,6,0,0,0-1.44-3.57c-2.42-3-4.4-2.36-5.63-1.35l-13.84,11.48c-.61-1.14-1.2-2.17-1.73-3.07l-1.06-1.86-.26-.46a8.23,8.23,0,0,1-1.17-3,17.43,17.43,0,0,0,2.85-4.87A19.6,19.6,0,0,0,116,86.92V85.11l-1,1.48c-.72,1-1.12,1.27-1.53,1.29,0-.39.07-.78.07-1.16a14,14,0,0,0-3.35-9.11l-1.05-1.25.05,1.63a10.37,10.37,0,0,1-2.75,6.71c-2,2.35-3.9,3.5-5.86,3.5-3.12,0-6.57-1.75-9.08-3a10.85,10.85,0,0,0-3.72-1.47c-.25,0-1,0-2.59,1.82a23,23,0,0,0-5-.46c-3.9,0-6.27.4-8.45,2.58a8.82,8.82,0,0,0-2.22,4.87l-.1.62.63,0a33.83,33.83,0,0,1,4,.53c11.13,9.8,13.2,13.92,13.2,18.5,0,2.58-1.32,3.56-3,4.81a14.35,14.35,0,0,0-2.67,2.37,22.32,22.32,0,0,0-4.53,10.09c-3.46,0-5-.41-8.65-4.07a7.41,7.41,0,0,1-2.31-6.12,7.68,7.68,0,0,0-1-4.36c-.76-1.23-1.39-2.47-1.94-3.56-1.28-2.51-2.36-4.63-4.42-5.29a5.44,5.44,0,0,0-5.53-3l-.56,0,0,.56a7.12,7.12,0,0,0,1.6,4.66q0,.3,0,.57a7.2,7.2,0,0,0,2.09,5l-.48,0c-2.61-.35-5.28-.7-7.29.91l-.12,0A6.6,6.6,0,0,0,44,118l-.3.45.43.32a5.52,5.52,0,0,0,5.16,1.17,5.59,5.59,0,0,0,3.57.62A4.61,4.61,0,0,1,57,121.81a2.34,2.34,0,0,1,.59,2,7.73,7.73,0,0,1-3,4.93c-1.67,1.13-2.81,2-2.92,4a6.65,6.65,0,0,0-2.45,5.2v.57l.58,0a8,8,0,0,0,4.89-1.64c1.36.3,2.65-.44,3.87-1.25,2-1.37,2.71-2.37,3.09-3.58,2.5,2.23,7.31,5.13,15.3,5,.66,7,3.07,14.81,5.5,21.65-1,.44-2.09,1-3.43,1.72-5.2,2.79-6.84,3-11.65,2.69-4.43-7.38-7.11-10.06-9.65-9.44a7.32,7.32,0,0,0-5.54-.94l-.65.12.21.62a11.46,11.46,0,0,0,2.48,4.42,1.09,1.09,0,0,0,0,.18c0,1.66,1.66,2.94,3.52,4.38.42.32.87.67,1.32,1-2.58-.72-5-1.28-6.35-.4a2.26,2.26,0,0,0-.7.71A5.32,5.32,0,0,0,47.39,165l-.39.34.31.42a9.15,9.15,0,0,0,4.07,3.43,7.24,7.24,0,0,0,4.23,2.27,18.37,18.37,0,0,0,5.44.46,14.09,14.09,0,0,0-2.19,1.45,5,5,0,0,0-2,3.66,3.41,3.41,0,0,0,.05.55,4.7,4.7,0,0,0-1.42,4.89l.1.44h.45a7.11,7.11,0,0,0,5.27-2.08c2.27.07,3.46-1,4.86-2.34.45-.43,1-.9,1.57-1.37,2.09,3.9,4.4,7,5.61,7.44a5.73,5.73,0,0,0,1.34.34,7.1,7.1,0,0,0,4.77,1.94l.56,0,0-.56a9.81,9.81,0,0,0-.91-5,6.64,6.64,0,0,0,.14-1.24,6.27,6.27,0,0,0-1.52-3.89,15.85,15.85,0,0,0-3.38-3.33l-.85-.69c1,.06,2.09,0,3.55,0a55.58,55.58,0,0,0,13-1.83c3.81,3.89,6.49,6.37,8.36,8.1,2.56,2.36,3.42,3.15,3.42,4.1s-1.29,1.91-3.45,2.94a19.27,19.27,0,0,1-3.4,1.05c-4.91,1.25-12.33,3.13-12.33,13.68,0,4.49,2.09,8.22,3.77,11.22,1.1,2,2.06,3.68,2.06,5,0,1.58,0,1.68-2.54,2.36-.59.15-3.75-.63-6.06-1.21a37.36,37.36,0,0,0-6-1.22,3.31,3.31,0,0,0-1.47.32,7.15,7.15,0,0,0-5.87,2l-.45.37.39.44a6.94,6.94,0,0,0,5.45,2.74c1.17,1.15,3.09,1.79,5.2,2.49l.19.07c-.83,0-1.61,0-2.29,0-1.82,0-3.36,0-4.21.8a5.54,5.54,0,0,0-4.49,2.66l-.24.41.36.3c2.25,1.93,3.91,2.89,5.6,2,1.43.79,3.51.23,6.35-.57C77,231.67,76,232.71,76,234.4a5.48,5.48,0,0,0,0,.55,7.22,7.22,0,0,0-.74,5.63l.17.59L76,241a9.75,9.75,0,0,0,4.14-2.67c1.33-.51,2.28-2,3.28-3.61l.87-1.35.83-1.23c2.41-3.6,2.86-4.2,4.57-4.2s3.3,1.57,4.62,4.2c.44.89,1.55,3.09,3.64,2.75a7.22,7.22,0,0,0,3.54,2l.51.14.17-.49a6.25,6.25,0,0,0-.4-5.07,3.34,3.34,0,0,0,.35-1.27v-.12a3.88,3.88,0,0,0-1.64-3,17.78,17.78,0,0,0-3.82-2.16,7.52,7.52,0,0,1-2.28-1.35c.09-.45.16-.89.22-1.33,1.82-1.09,3.72-2.17,5.48-3.13a17.77,17.77,0,0,0,4.14,3.35c4.17,2.56,8.23,4,11.42,4a23.07,23.07,0,0,0,12.08-3.71c.58.24.66.48.66.8,0,1.8-2.22,8.26-3.44,9.47s-4.43,2.31-6.33,2.31a9.19,9.19,0,0,1-5.91-2,5.66,5.66,0,0,0-3.36-1.39,2.91,2.91,0,0,0-.59.11,10.57,10.57,0,0,0-4.85-.33l-.65.08.25,1c.5,1.9,1,3.7,2.84,4.58a3.66,3.66,0,0,0,1.94.92l.42.11a2.78,2.78,0,0,1,1.39.77,6.31,6.31,0,0,0,.87.67,6.63,6.63,0,0,0-3.69,2,3.61,3.61,0,0,0-1.28,2.6,2.61,2.61,0,0,0,.05.48c-.91,1.71-1.68,3.8-.79,5.73l.21.46.48-.15a9.9,9.9,0,0,0,4.43-2.64,5.28,5.28,0,0,0,3.48-1.93c1.33-1.51,3.5-1.64,6.25-1.77-3,2.24-4.53,4.41-4.53,6.46a3,3,0,0,0,.68,1.86,5.5,5.5,0,0,0,.5,3.63l.19.42.44-.09a7.62,7.62,0,0,0,4.16-2.55,3.16,3.16,0,0,0,1.76-.73,4.32,4.32,0,0,0,1.69-3.39,6.66,6.66,0,0,1,.28-1.5,5.81,5.81,0,0,1,.83-1.44c.32-.46.69-1,1.14-1.76A19.13,19.13,0,0,0,134,250a15.19,15.19,0,0,0,4.49,1.19,10.38,10.38,0,0,0,4.9.9h.54v-.54a6.26,6.26,0,0,0-2.21-5.26c-.81-1.42-2.62-2.3-5.6-3.63-4.61-2-4.61-2.4-4.61-3.44,0-1.91,1.15-3.24,2.74-5.08l1.15-1.35c3.66-4.46,5.44-8.13,5.44-11.24s-1.83-4.15-3.61-5.11l-.39-.21a10.91,10.91,0,0,0-5.34-1.68l-1.87.13c-1.21.14-3,.33-7.22.43a4,4,0,0,1-.45-1.19c5.89-1.19,8.85-4.49,12.25-10.42a36,36,0,0,1,6.65,1.39,16.71,16.71,0,0,0,5.22.92c5.17,0,11.2-2.55,11.2-9.72,0-6.6-3.08-14-6.23-21-3.51-7.44-6.19-13.54-6.19-18.68,0-2.43,1-3.88,2.58-3.88s7.22,3.75,7.22,6.6a14.9,14.9,0,0,1-.16,1.87,13.34,13.34,0,0,0-.15,1.72c0,1.71,1.12,5.94,4.13,10a17.55,17.55,0,0,0,6,4.75l.76.4.08-.85a23,23,0,0,1,.64-3.42,29.27,29.27,0,0,0,1-7.65C167,161.75,163.59,159.23,162.55,158.56Z"/><path class="cls-1" d="M53.91,104.19a4.19,4.19,0,0,1,3.73,2.24,3.16,3.16,0,0,1-2.38,1.19A5.54,5.54,0,0,1,53.91,104.19Z"/><path class="cls-1" d="M48.94,118.81a4.29,4.29,0,0,1-3.7-.64A5.33,5.33,0,0,1,48.41,116a2.51,2.51,0,0,1,1,1.72A1.77,1.77,0,0,1,48.94,118.81Z"/><path class="cls-1" d="M54.42,135.5a6.56,6.56,0,0,1-4.08,1.77,5.85,5.85,0,0,1,2.16-3.81c1.58.36,2,.95,2,1.66C54.45,135.24,54.43,135.37,54.42,135.5Z"/><path class="cls-1" d="M76.7,133.51c0,.78,0,1.58.09,2.39-8.33.06-13-3.23-15.11-5.36L61,129.8l-.23,1c-.29,1.3-.51,2.25-2.87,3.82a6,6,0,0,1-2.31,1.1c.25-1.84-.61-2.9-2.76-3.39.21-1.16,1-1.77,2.37-2.69a8.94,8.94,0,0,0,3.54-5.78c0-.15,0-.3,0-.45a3.33,3.33,0,0,0-.94-2.43,5.69,5.69,0,0,0-5-1.6,4.94,4.94,0,0,1-2.61-.3,2.87,2.87,0,0,0-.59-3.6c1.59-1.12,3.69-.85,6.2-.51l3.49.42-1-1.13-.27-.3c-1.42-1.59-2.52-2.81-2.52-5.13,0,0,0-.06,0-.09a4.27,4.27,0,0,0,3.1-1.57c1.47.54,2.36,2.14,3.65,4.68.56,1.11,1.2,2.37,2,3.65a6.55,6.55,0,0,1,.78,3.76,8.53,8.53,0,0,0,2.64,6.91c3.91,3.91,5.77,4.4,9.29,4.41A24.44,24.44,0,0,0,76.7,133.51Z"/><path class="cls-1" d="M53,153.79a5.87,5.87,0,0,1,3.94.79c-.09,1.66-.58,2.35-1.87,2.61A9.59,9.59,0,0,1,53,153.79Z"/><path class="cls-1" d="M51.8,168.14a7.59,7.59,0,0,1-3.22-2.6c.78-.55,1.75-.79,3.66-.55a3.84,3.84,0,0,1,.39,1.47A2.26,2.26,0,0,1,51.8,168.14Z"/><path class="cls-1" d="M56.55,181.77a5.94,5.94,0,0,1-.09-.69,3.76,3.76,0,0,1,1.6-3,2.6,2.6,0,0,1,1.92.49,2.05,2.05,0,0,1,.54,1.42A6,6,0,0,1,56.55,181.77Z"/><path class="cls-1" d="M79,185.65a5.72,5.72,0,0,1-4.17-2.37,2.71,2.71,0,0,1,1.3-1.71,2.4,2.4,0,0,1,1.91,0,8.56,8.56,0,0,1,1,4S79,185.62,79,185.65Z"/><path class="cls-1" d="M155.81,110.17c-.5-2-1.25-3.29-2.15-3.64a2.42,2.42,0,0,0-2.24.5l-22.63,14.84-.66-.93,23.07-17.16c1-.78.76-1.73-1.16-4.42-1.28-1.77-2.44-2.74-3.47-2.89A2,2,0,0,0,145,97l-21.65,16.78-.73-.88,12.9-11.28c.62-.52.16-2.37-.9-3.66-2-2.38-3.18-1.88-4-1.19l-14.92,12.38-.33-.63c-.72-1.4-1.42-2.59-2-3.64l-1.09-1.9-.24-.45a8.61,8.61,0,0,1-1.35-3.66l0-.25.17-.19a15.65,15.65,0,0,0,2.82-4.77,17.37,17.37,0,0,0,1.19-5.13,2.32,2.32,0,0,1-2.07.45l-.52-.1.06-.53a12.12,12.12,0,0,0,.1-1.59,12.8,12.8,0,0,0-2.22-7.16,12.36,12.36,0,0,1-2.86,5.87c-2.22,2.63-4.42,3.91-6.74,3.91-3.4,0-7-1.82-9.6-3.16a12,12,0,0,0-3.2-1.35s-.54,0-2,1.67l-.22.27-.34-.08a21.08,21.08,0,0,0-5.09-.5c-3.65,0-5.72.34-7.63,2.24a7.35,7.35,0,0,0-1.76,3.66,28.44,28.44,0,0,1,16.88,7l-.76.86a26.54,26.54,0,0,0-10.51-5.74c9.07,8.18,12,12.73,12,18,0,3.16-1.75,4.46-3.45,5.72a12.86,12.86,0,0,0-2.46,2.19,21.29,21.29,0,0,0-4.63,13.41c0,7.55,2.78,16.82,5.6,24.75a19.14,19.14,0,0,1,4.3-1.09,30.1,30.1,0,0,1-2.33-11.4,28.41,28.41,0,0,1,.37-4.59l1.13.18a28.05,28.05,0,0,0,2.14,16l.3.7-.76.09c-3.67.46-5.32,1.21-9.1,3.23-5.54,3-7.32,3.18-12.57,2.81l-.29,0-.16-.25c-4.49-7.54-6.71-9.44-8.38-9.21-.1,1.57-.6,3.1-2.76,3.56.17,1,1.28,1.88,3,3.23a32.1,32.1,0,0,1,3.25,2.76l1.54,1.54-3.66-1c-2.53-.72-5.15-1.47-6.25-.77-.05,0-.07.07-.11.1l0,.06c.6,1.25,1.18,3-.49,4.69a6.92,6.92,0,0,0,3.2,1.48,18.74,18.74,0,0,0,6.5.32l2.16-.15-.92,1a8.23,8.23,0,0,1-1.89,1.28,15.3,15.3,0,0,0-2.1,1.38A3.94,3.94,0,0,0,58,177a3.65,3.65,0,0,1,2.74.79,3,3,0,0,1,.9,1.93c1.6,0,2.51-.86,3.73-2a24.05,24.05,0,0,1,2.2-1.88l.54-.4.31.6c2.26,4.39,4.28,6.8,5.1,7.39l0-.16a4,4,0,0,1,2-2.71,3.43,3.43,0,0,1,2.55-.11,2.46,2.46,0,0,0,0-.26,5.28,5.28,0,0,0-1.29-3.24,15.37,15.37,0,0,0-3.17-3.12,23.29,23.29,0,0,1-2.27-1.95l-1.32-1.31,1.83.34a22.45,22.45,0,0,0,5.12.19,55.63,55.63,0,0,0,13.63-2l1.71-.43,1.45-.38c2.67-.73,4.08-1.08,9.35.53a43.07,43.07,0,0,1,8.4-7.54c1.26-.91,2.08-1.6,2.8-2.22a23.35,23.35,0,0,1,4.74-3.28c3.9-2.13,4.56-2.64,8.77-8.73l.12-.18,17.36-4.16c1.13-.32,1.82-.51,1.82-3.95,0-1.67-.35-2.82-1-3.35a1.94,1.94,0,0,0-1.65-.28l-13,3.74-.38-1.08,22.36-9.4c1.57-.71,1.64-1,1.14-4.26a3.48,3.48,0,0,0-1.48-2.69,2.68,2.68,0,0,0-2.34.1l-18.43,8.62-.53-1,23.33-13.74C156.63,114.54,156.78,114.12,155.81,110.17Zm-39.44,36.9-.26.1-1.37.44h0a3.27,3.27,0,0,1,1.4,2.3,3.93,3.93,0,0,1,.08.82,3.19,3.19,0,0,1-.57,1.88,5,5,0,0,1-3.42,1.83l-10.06,1.78-.2-1.13L112,153.31a4,4,0,0,0,2.69-1.35,2.35,2.35,0,0,0,.3-1.84,2.24,2.24,0,0,0-.88-1.54,1.62,1.62,0,0,0-1.33-.11l-11.14,3.29-.33-1.09,14.38-4.57.21-.09c1.12-.47,1.64-.68,1.13-3-.25-1.19-.66-2-1.18-2.2a1.81,1.81,0,0,0-1.59.22l-13.54,6.19-.51-1,15-8c.56-.39.85-.6.85-.94a5.16,5.16,0,0,0-.91-1.88l0-.06c-.35-.58-1.26-2.09-1.87-2.18-.06,0-.24,0-.62.3l-12.93,9.71-.7-.9,12.73-10.37c.37-.31.57-.57.58-.76s-.38-.76-.88-1.34l-.21-.25A3.7,3.7,0,0,0,109,128a1.3,1.3,0,0,0-1,.43L97.72,137.3l-.74-.86,10.3-8.87a2.38,2.38,0,0,1,1.8-.73,4.6,4.6,0,0,1,3,1.92l.21.24a3.42,3.42,0,0,1,1.16,2.06v.12a1.7,1.7,0,0,1-.29.79.69.69,0,0,1,.25,0c1,.14,1.74,1.14,2.68,2.72l.05.07a5.7,5.7,0,0,1,1.09,2.49c0,.62-.39,1.18-1.38,1.86l0,0-.79.42a2.27,2.27,0,0,1,1.3.17c.88.42,1.47,1.4,1.81,3a8,8,0,0,1,.2,1.66C118.38,146.06,117.53,146.58,116.37,147.07Z"/><path class="cls-1" d="M164.86,173.28c-.22.9-.4,1.78-.54,2.72a15.65,15.65,0,0,1-5-4,18.9,18.9,0,0,1-3.9-9.3,13.75,13.75,0,0,1,.14-1.58,16.51,16.51,0,0,0,.17-2c0-3.63-6.32-7.74-8.36-7.74-2.3,0-3.72,1.93-3.72,5,0,5.38,2.73,11.59,6.29,19.16,3.1,6.88,6.13,14.14,6.13,20.52s-5.2,8.57-10.06,8.57a15.7,15.7,0,0,1-4.9-.86,37,37,0,0,0-7.22-1.48l-.37,0-.18.33c-3.5,6.17-6.22,9.29-12.22,10.32l-.52.09,0,.53a5.27,5.27,0,0,0,.88,2.47l.18.25h.31c4.5-.1,6.4-.3,7.67-.44l1.74-.13a9.79,9.79,0,0,1,4.79,1.54l.4.22c1.75.94,3,1.62,3,4.1,0,2.83-1.69,6.27-5.18,10.52l-1.14,1.33c-1.68,1.95-3,3.49-3,5.82,0,1.85.69,2.43,5.28,4.48,2.48,1.11,3.87,1.8,4.62,2.53a3.53,3.53,0,0,0-1.87,1.34,3.67,3.67,0,0,0-.53,2.4,14.16,14.16,0,0,1-3.43-1,17,17,0,0,1-6.83-4.72l-.53-.72-.43.79a21.44,21.44,0,0,1-1.46,2.33,6.74,6.74,0,0,0-1,1.74,7.39,7.39,0,0,0-.33,1.75,3.24,3.24,0,0,1-1.29,2.63,2.19,2.19,0,0,1-.47.29,3.28,3.28,0,0,0-1.38-2.4,3.78,3.78,0,0,0-3.35,0l-.18.07-.11.18c-.12.2-.22.39-.31.58a1.35,1.35,0,0,1-.06-.41c0-2,2-4.26,5.66-6.66l1.8-1.16-3.9.21c-3,.13-5.59.25-7.28,2.17a4.16,4.16,0,0,1-2.46,1.48,3.44,3.44,0,0,0-3.36-3,3,3,0,0,1,.9-1.45,5.13,5.13,0,0,1,4.41-1.79,5.05,5.05,0,0,0,1.6-.13l2.27-.64L114,239.6c-2.16-.43-2.68-.89-3.18-1.35a3.93,3.93,0,0,0-1.86-1l-.46-.11L108,237a2.89,2.89,0,0,0,1.34-1.18,3.7,3.7,0,0,0,.16-2.76,5,5,0,0,1,2.54,1.17,10.23,10.23,0,0,0,6.56,2.22c1.89,0,5.42-.92,7.14-2.64,1.4-1.4,3.77-8.21,3.77-10.28a2,2,0,0,0-1.65-2l-.26-.09-.23.14a22,22,0,0,1-11.74,3.69c-1.73,0-5.43-.5-10.82-3.81-5-3.08-6.77-6.3-6.77-12.31,0-9.45,5.12-14,13.39-18.36,3.34-1.75,4.4-2.39,4.4-4.09H114.7c0,1-.46,1.33-3.79,3.08-8.65,4.52-14,9.34-14,19.37,0,3.84.73,6.67,2.45,9-1.79,1-3.73,2.08-5.57,3.18l-.24.14,0,.29c-.07.6-.17,1.22-.3,1.84l-.07.29.2.22a7.79,7.79,0,0,0,2.86,1.79,16.72,16.72,0,0,1,3.59,2,2.78,2.78,0,0,1,1.19,2.1v.08a2.14,2.14,0,0,1-.08.44,3,3,0,0,0-2.78,0c-.76.5-1.11,1.47-1.09,3v.1a3.91,3.91,0,0,1-1.7-2c-1.54-3.07-3.59-4.83-5.64-4.83-2.37,0-3.1,1.09-5.52,4.7l-.83,1.24-.89,1.38a15.8,15.8,0,0,1-1.75,2.44,3,3,0,0,0-1.14-1.72,3.58,3.58,0,0,0-2.46-.47c0-1.35,1-2.16,2.68-3.52L83.17,228l-2.53.7-2.35.65c-2.6.74-4.5,1.27-5.57.78a4.78,4.78,0,0,0-.64-3.9A10.21,10.21,0,0,1,75,226a30.67,30.67,0,0,0,5.07-.28l2.27-.35-4.87-1.69a14.6,14.6,0,0,1-4.58-2.06,3.86,3.86,0,0,0,.37-4,2.25,2.25,0,0,1,.6-.07,39.55,39.55,0,0,1,5.75,1.19c3.58.89,5.81,1.42,6.63,1.2,2.79-.75,3.39-1.13,3.39-3.46,0-1.59-1-3.41-2.2-5.53-1.62-2.88-3.63-6.47-3.63-10.66,0-9.66,6.36-11.27,11.47-12.57a20.8,20.8,0,0,0,3.62-1.13c2.71-1.29,4.09-2.63,4.09-4s-.95-2.33-3.79-4.94c-1.78-1.65-4.3-4-7.85-7.59l1.32-.33,1.48-.39c2.6-.71,3.79-1,9.08.62l.38.12.24-.32a41.68,41.68,0,0,1,8.42-7.6c1.19-.86,2-1.53,2.68-2.12a63.33,63.33,0,0,0,.88,7.33c.26,1.31,1.8,3.29,3.16,5l.16.21c3.48,4.48,6.11,7.46,8.43,10.09l2.7,3.1a21.36,21.36,0,0,1,4.31,7.37l1,2.51.17.09c4.56,2.58,7.61,3.63,10.53,3.63,4.24,0,6.13-2.3,6.13-4.59,0-4-3-11.76-5.6-18.08L144.71,172c-2.39-5.2-4.45-9.69-4.45-16,0-5.28,3.59-7.65,7.15-7.65,3.31,0,5.58,2,7,3.59a20.56,20.56,0,0,1,2.24,3.65,10,10,0,0,0,1.3,2.17,3.88,3.88,0,0,0,2.49,1.23,3.51,3.51,0,0,1,1.49.52c.91.59,3.88,2.81,3.88,6.38A28.07,28.07,0,0,1,164.86,173.28Z"/><path class="cls-1" d="M71.81,221.08a5.59,5.59,0,0,1-4-1.9,6,6,0,0,1,4.36-1.36,3.6,3.6,0,0,1,.39,1.55A2.47,2.47,0,0,1,71.81,221.08Z"/><path class="cls-1" d="M71.54,230c-1,.49-2,.07-4-1.54a4.71,4.71,0,0,1,3.48-1.7,3.91,3.91,0,0,1,.71,2.08A3.45,3.45,0,0,1,71.54,230Z"/><path class="cls-1" d="M76.25,239.61a6.48,6.48,0,0,1-.14-1,6.62,6.62,0,0,1,.88-3.13,2.74,2.74,0,0,1,1.92.24,2.11,2.11,0,0,1,.74,1.33A8.18,8.18,0,0,1,76.25,239.61Z"/><path class="cls-1" d="M101.25,235.6a5.93,5.93,0,0,1-3.07-2.27c0-.94.2-1.56.57-1.8s1-.16,1.88.19a6.65,6.65,0,0,1,.77,2.8A4.6,4.6,0,0,1,101.25,235.6Z"/><path class="cls-1" d="M104.7,232.76a8.69,8.69,0,0,1,3.63.33,4.64,4.64,0,0,1,.22,1.26,1.8,1.8,0,0,1-.2.89,2.38,2.38,0,0,1-1.59,1C105.54,235.58,105.13,234.39,104.7,232.76Z"/><path class="cls-1" d="M106.13,249.66a3.16,3.16,0,0,1-.13-.87,7.82,7.82,0,0,1,1.16-3.56c1.25.16,2,.67,2.3,2.36A8.55,8.55,0,0,1,106.13,249.66Z"/><path class="cls-1" d="M117.62,255.62a4.47,4.47,0,0,1-.36-1.62,4.85,4.85,0,0,1,.71-2.35,2.61,2.61,0,0,1,2.16-.05,2.22,2.22,0,0,1,.84,1.66A7.3,7.3,0,0,1,117.62,255.62Z"/><path class="cls-1" d="M141,247.18a5.08,5.08,0,0,1,1.75,3.75,8.79,8.79,0,0,1-3.7-.76,4.08,4.08,0,0,1-.08-.66,2.37,2.37,0,0,1,.36-1.34A2.71,2.71,0,0,1,141,247.18Z"/><path d="M88.93,91.12a1.6,1.6,0,0,0-1,.72,1.74,1.74,0,0,0,.62,2.37,1.91,1.91,0,0,0,1.39.25,1.62,1.62,0,0,0,1-.72,1.74,1.74,0,0,0-.63-2.37A1.9,1.9,0,0,0,88.93,91.12Z"/></g></g></svg>