<svg xmlns="http://www.w3.org/2000/svg" viewBox="0 0 283.23 299"><defs><style>.cls-1{fill:#231f20;}.cls-2{fill:#585556;}.cls-3{fill:#565354;}.cls-4{fill:#8c8a8a;}.cls-5{fill:#908e8e;}.cls-6{fill:#c7c6c6;}.cls-7{fill:#cac9c9;}.cls-8{fill:#223f88;}.cls-9{fill:#36975e;}.cls-10{fill:#c02026;}.cls-11{fill:#fefefe;}.cls-12{fill:#eae94f;}.cls-13{fill:#e5d441;}.cls-14{fill:#a79b36;}.cls-15{fill:#242021;}.cls-16{fill:#232021;}.cls-17{fill:#223f89;}</style></defs><title>Getafe</title><g id="Слой_2" data-name="Слой 2"><g id="Layer_1" data-name="Layer 1"><path class="cls-1" d="M.21,149Q3.59,98.14,38.14,60.71A139.05,139.05,0,0,1,97,22.94c2.07-.69,4.18-1.29,6.29-1.91a2.14,2.14,0,0,0,1.28-1c7.53-11.32,18-18.25,31.52-19.74,17.85-2,32.09,4.7,42.4,19.49a2.91,2.91,0,0,0,1.73,1.27,141.93,141.93,0,0,1,99.52,104.82,140.37,140.37,0,0,1,3,42.87,138,138,0,0,1-14.71,52.43,140.67,140.67,0,0,1-61.46,62,138,138,0,0,1-44.91,14.35q-5.82.82-11.68,1.19a3.66,3.66,0,0,1-1.19.08h-1.2a6.66,6.66,0,0,0-1.94.13h-8.16c-.55-.27-1.14-.06-1.71-.13h-2.52A104.42,104.42,0,0,1,110.75,296,138.7,138.7,0,0,1,75.6,283.13a141.38,141.38,0,0,1-25.68-17.35,144.86,144.86,0,0,1-11.66-11,141.69,141.69,0,0,1-31.9-54.08A143,143,0,0,1,.62,174.22a75.08,75.08,0,0,1-.5-8.48v-2.33A6.26,6.26,0,0,0,0,161.48v-8.16a6.26,6.26,0,0,0,.12-1.93v-1.2A4,4,0,0,1,.21,149Z"/><path class="cls-2" d="M0,161.48c.47.6.16,1.29.22,1.93-.08.1-.15.09-.22,0Z"/><path class="cls-2" d="M.22,151.38c-.06.65.25,1.34-.22,1.94V151.4C.07,151.29.14,151.29.22,151.38Z"/><path class="cls-2" d="M145.68,299c.6-.47,1.29-.17,1.94-.22q.09.08.06.15s-.06.07-.08.07Z"/><path class="cls-3" d="M135.8,298.8c.58,0,1.19-.25,1.72.2h-1.68c-.06,0-.09-.07-.08-.12S135.79,298.8,135.8,298.8Z"/><path class="cls-4" d="M135.8,298.8c0,.07,0,.13,0,.2H134.4c-.07,0-.1-.09-.08-.14s0-.07.06-.07Z"/><path class="cls-5" d="M0,163.4a.81.81,0,0,1,.22,0c0,.4,0,.81,0,1.21-.08.08-.14.07-.2,0Z"/><path class="cls-5" d="M.22,151.38l-.22,0v-1.2c.06-.1.12-.11.2,0Z"/><path class="cls-6" d="M.2,150.18a.44.44,0,0,0-.2,0V149H.21Z"/><path class="cls-6" d="M0,164.6l.2,0c0,.39,0,.79,0,1.19H0Z"/><path class="cls-7" d="M134.38,298.79a.75.75,0,0,1,0,.21h-1.2a.74.74,0,0,0,0-.21Z"/><path class="cls-5" d="M147.6,299a.53.53,0,0,1,0-.22l1.2,0c.06.05.08.1.05.14a.1.1,0,0,1-.07.06Z"/><path class="cls-6" d="M148.8,299a1.36,1.36,0,0,1,0-.2H150a.74.74,0,0,0,0,.21Z"/><path class="cls-8" d="M180.54,23.16q46.74,14,74.87,53.32c18.44,25.7,27,54.62,25.72,86.13-1.55,38.14-16.38,70.65-44.24,96.71-28.07,26.27-61.77,38.86-100.18,37.62-33.71-1.08-63.36-13.18-88.43-35.79-25.39-22.91-40.65-51.47-45.07-85.4-4.87-37.44,4.08-71.61,26.61-101.91C48.29,49,72.68,32.32,102.28,23.32c.31.42.06.65-.06.87a42.54,42.54,0,0,0-4.34,15.33,42.65,42.65,0,0,0,8.05,29.58c.82,1.14.84,1.16-.52,1.74a92.19,92.19,0,0,0-20,11.56,2.16,2.16,0,0,1-1.47.34c-4.32,0-8.64,0-13,0-.93,0-1.23.24-1.22,1.21.06,4,0,8,.06,12a3.73,3.73,0,0,1-1,2.57A92.87,92.87,0,0,0,49,144a83.23,83.23,0,0,0-.85,10.6,104,104,0,0,0,.32,11.58,93.87,93.87,0,0,0,5.22,23.26A95,95,0,0,0,63.83,209.4,91.68,91.68,0,0,0,72,219.9,99.89,99.89,0,0,0,90.56,236c2.23,1.52,4,3.62,6.16,5.31a72.48,72.48,0,0,0,19.72,11.18,70,70,0,0,0,16.22,4,72.29,72.29,0,0,0,29.92-2.58,68.11,68.11,0,0,0,25.82-14.22c4-3.5,8.39-6.36,12.43-9.74a99.44,99.44,0,0,0,12.71-12.67,92.84,92.84,0,0,0,11.58-17.7,90.24,90.24,0,0,0,7.93-22.64,98.29,98.29,0,0,0,2-17.79,93.17,93.17,0,0,0-18.38-57.75,16.27,16.27,0,0,0-1.76-2.26,5.3,5.3,0,0,1-1.55-4.41c.11-3.52,0-7,.06-10.56,0-1.19-.35-1.45-1.48-1.43-4.16.06-8.32,0-12.48,0a3.19,3.19,0,0,1-2.09-.65,90.37,90.37,0,0,0-19.91-11.39c-.88-.36-.85-.61-.33-1.32a42.65,42.65,0,0,0,8.14-20.59,42.66,42.66,0,0,0-4.46-24.95C180.72,23.71,180.68,23.55,180.54,23.16Z"/><path class="cls-9" d="M207.38,208.75a76.7,76.7,0,0,1-7.22,14.44,70.79,70.79,0,0,1-15.3,16.72c-1.38,1.1-2.82,2.1-4.25,3.12-.3.21-.68.72-1,.35s-.88-.55-.84-1.21a23.5,23.5,0,0,1,.27-3.46,1.44,1.44,0,0,1,1.33-1.17,24.38,24.38,0,0,0,7-2.09c.66-.33,1.55-.59,1.47-1.52s-.9-1.27-1.66-1.54a15.91,15.91,0,0,0-4.93-.85c-2.8-.1-2.11.37-3.11-2.28a10.38,10.38,0,0,0-1.17-2.61c-.89-1.23-2.08-1.24-2.91,0a15.55,15.55,0,0,0-1.59,3.87,1.2,1.2,0,0,1-1.37,1,19.13,19.13,0,0,0-5.11.52,5.26,5.26,0,0,0-.8.23c-.84.35-1.92.59-2,1.69s1,1.26,1.73,1.61a24,24,0,0,0,6.63,1.95,1.5,1.5,0,0,1,1.42,1.36c.14,1,.19,1.9.25,2.86a1.35,1.35,0,0,1-.46,1.22,3.73,3.73,0,0,0-.68,2.59,3.31,3.31,0,0,1-2.37,3.13,72.31,72.31,0,0,1-20.65,5.84,43.61,43.61,0,0,1-8.47.48.84.84,0,0,1-.31-.63,28.23,28.23,0,0,1,.1-5.59c.55-.77,1.37-.49,2.09-.51,2.64-.08,2.57.43,2-2.43a24.79,24.79,0,0,0-.88-3.22,6.26,6.26,0,0,1,.23-4.34,2,2,0,0,1,1.73-1.13,23.79,23.79,0,0,0,6.29-1.89c.58-.3,1.42-.49,1.37-1.32s-.87-1.1-1.54-1.32a16.09,16.09,0,0,0-5.2-.75c-1.71,0-1.93-.16-2.52-1.79-.22-.6-.47-1.19-.68-1.79-.41-1.2-1-2.23-2.48-2.17-.21,0-.34-.17-.43-.36a5,5,0,0,1-.16-1.67V200.85a5.24,5.24,0,0,1,.15-1.67c.22-.55.72-.55,1.2-.58.64,0,1.28,0,1.92,0,1.4,0,1.52-.11,1.24-1.43a22.6,22.6,0,0,0-1.1-4.14c-.62-1.51-.17-3.16.31-4.69.18-.6.8-.72,1.36-.84a46.3,46.3,0,0,0,5.3-1.49,8.41,8.41,0,0,0,2-1c.81-.57.81-1.1,0-1.69a5.26,5.26,0,0,0-2.11-.82,24.16,24.16,0,0,0-4.63-.53,1.73,1.73,0,0,1-1.81-1.24c-.31-.87-.58-1.75-.94-2.59-.44-1-1-1.85-2.24-1.87a.59.59,0,0,1-.54-.4,5.09,5.09,0,0,1-.17-1.78q0-9.85,0-19.7a2.91,2.91,0,0,1,.33-2c.11-1.78.11-1.78-1.6-1.78H122c-.42,0-.87.16-1.26-.17a2.45,2.45,0,0,1,1.92-.43h16.88c.72,0,1.48.07,1.78-.83.5-.65,1.19-.3,1.79-.3,3.28,0,2.87.18,2.35-2.71a17.7,17.7,0,0,0-.88-3.08,6.79,6.79,0,0,1,.26-4.46c.22-.7.95-.92,1.64-1a30.26,30.26,0,0,0,5.86-1.69c.79-.3,1.87-.59,1.83-1.63s-1.14-1.11-1.92-1.36a16,16,0,0,0-5-.69c-1.5,0-1.78-.2-2.29-1.59-.23-.64-.5-1.26-.72-1.9-.42-1.23-.95-2.32-2.53-2.25-.22,0-.33-.2-.42-.39a4.7,4.7,0,0,1-.15-1.54c0-7.8,0-15.59,0-23.38,0-.66-.16-1.38.44-1.91,1.2,0,2.4-.07,3.6,0,1,.08,1.1-.3.91-1.15-.31-1.36-.16-3-.85-4-1-1.61-.46-3.08-.37-4.62,0-.76.45-1.15,1.28-1.29a28,28,0,0,0,6.54-1.87,3.64,3.64,0,0,0,1.84-1.28.91.91,0,0,1,.92-.4c2.6,0,5.2,0,7.8,0,.26,0,.57-.08.77.19,1.39,1.8,3.56,2,5.5,2.66a20.73,20.73,0,0,0,3.14.72A1.44,1.44,0,0,1,174,89.63a8.6,8.6,0,0,1,.17,1.42,5.78,5.78,0,0,1-.5,2.85c-.77,1.44-.79,3.3-1.08,5-.08.47.37.43.68.43h6.48c.36,0,.73.06.6-.56-.32-1.56-.22-3.33-1-4.65-.9-1.6-.45-3-.36-4.55a1.29,1.29,0,0,1,1.27-1.31,29.87,29.87,0,0,0,6.22-1.71,4.53,4.53,0,0,0,2.26-1.5c.26-.38.59-.35.94-.35,2.56,0,5.12,0,7.68,0,.27,0,.58-.1.78.17,1.38,1.82,3.56,2,5.49,2.68a27.53,27.53,0,0,0,3.14.73,1.46,1.46,0,0,1,.75.3c.56.51,1.18,4.36.61,4.8-1,.76-.69,1.88-1,2.81-.21.59-.14,1.28-.34,1.87-.36,1-.07,1.38,1,1.29.83-.07,1.68,0,2.51,0s1.14.28,1.13,1.15c0,5,0,9.92,0,14.88v10.91c-1.79-.42-2.4.81-2.95,2.08a10.56,10.56,0,0,0-.8,2.13c-.24,1.21-.86,1.58-2.07,1.52a16.41,16.41,0,0,0-5.2.7,5.44,5.44,0,0,0-.68.23c-.65.31-1.41.59-1.46,1.42s.7,1.21,1.33,1.53a23.32,23.32,0,0,0,7,2.09,1.59,1.59,0,0,1,1.52,1.54,7.22,7.22,0,0,1,.16,1.3,5.79,5.79,0,0,1-.48,2.89c-.76,1.41-.79,3.22-1.09,4.86-.1.55.38.51.74.51,1,0,2.08,0,3.11,0,.66,0,.92.18.92.88,0,8.48,0,17,0,25.43,0,.29.2.8-.49.64-1-.23-1.53.5-2,1.22a16.09,16.09,0,0,0-1.43,3.55,1.24,1.24,0,0,1-1.32.93,20.75,20.75,0,0,0-6,.86,5.73,5.73,0,0,0-1,.41c-1.29.71-1.31,1.68,0,2.41a23.16,23.16,0,0,0,6.67,2.26c2,.43,2,.38,2.3,2.35a5.25,5.25,0,0,1-.44,3.59c-.75,1.36-.73,3.14-1,4.75-.08.41.14.59.54.58h.84c2,0,2,0,1.53,2-.56,2.2-1.16,4.39-1.75,6.58-.11,0-.25.09-.34,0-2.16-1.88-4.85-1.9-7.48-2a2,2,0,0,1-2.2-1.55,11.68,11.68,0,0,0-1.34-3.2c-.88-1.3-1.87-1.26-2.67.1a17.73,17.73,0,0,0-1.23,3c-.52,1.43-.77,1.59-2.27,1.63a20.88,20.88,0,0,0-5,.66,4.12,4.12,0,0,0-1.12.43c-1.11.65-1.14,1.38,0,2a21,21,0,0,0,6.47,2.12c1.93.43,2.21.74,2.45,2.65a5.88,5.88,0,0,1-.54,4c-.61,1-.56,2.39-.79,3.6-.1.57.17.83.72.84,1.8,0,3.6,0,5.4,0,.57,0,.85-.25.68-.82-.45-1.51-.25-3.18-1.28-4.56-.55-.74,0-4.26.59-5a2.12,2.12,0,0,1,1.35-.7,23.62,23.62,0,0,0,7.27-2.34C207.15,208.12,207.17,208.16,207.38,208.75Z"/><path class="cls-10" d="M141.65,198.88c0,5.92,0,11.83-.05,17.74,0,3.12,0,6.23.06,9.35.36.39.23.89.32,1.35,0,6.72.06,13.45,0,20.18a1.8,1.8,0,0,1-.29,1.12L141.6,255a65.74,65.74,0,0,1-19.36-2.77c-1.76-.52-3.48-1.16-5.23-1.71a1,1,0,0,1-.8-1.13,5.74,5.74,0,0,0,0-.72q0-45.1,0-90.21a3.61,3.61,0,0,1,.91-2.61,5.91,5.91,0,0,0,1.09-1.42c.8-1.84,2.2-2.1,4-2.07,6.44.12,12.88.06,19.31.07q0,11,0,22c0,.56,0,1.12.05,1.68a2.61,2.61,0,0,1,.37,1.44c-.11,6.14,0,12.28-.05,18.42,0,.95.34,1.41,1.33,1.36a3.42,3.42,0,0,1,1.76.21c.43.55-.13.57-.39.65a6.08,6.08,0,0,1-1.54.1A1.67,1.67,0,0,0,141.65,198.88Z"/><path class="cls-11" d="M69.8,100.68v1.38c0,27.52,0,55,0,82.56a71.23,71.23,0,0,0,14,43.32c.18.24.48.44.45.81C43,196.1,40.3,136.36,69.8,100.68Z"/><path class="cls-11" d="M213.4,100.53c32.09,40.55,23.26,99-14.5,128.23,1.21-1.77,2.33-3.33,3.36-5a70,70,0,0,0,11.14-38.2q0-41.76,0-83.52Z"/><path class="cls-12" d="M95.76,155.34a58.23,58.23,0,0,0,5.49,5.07,33.26,33.26,0,0,0,5.23,3.36,2.1,2.1,0,0,0,2.34-.11,31.55,31.55,0,0,0,4.33-3.39c.34-.32.6-.73,1.1-.88a2.13,2.13,0,0,1,.12,1.19V248c0,1.52,0,1.52-1.37.91a70.7,70.7,0,0,1-16.64-10.55,1.68,1.68,0,0,1-.65-1.44q0-40.37,0-80.73C95.72,156,95.74,155.77,95.76,155.34Z"/><path class="cls-10" d="M93.76,236a42.74,42.74,0,0,1-5.16-5.31,69,69,0,0,1-13.93-25.31A59.88,59.88,0,0,1,72,191.06c-.59-11.9-.13-23.82-.26-35.73,0-2.92,0-2.92,2.93-2.92,5.87,0,11.75,0,17.63,0,1.16,0,1.51.41,1.51,1.55q0,40.47,0,81C93.81,235.17,93.79,235.44,93.76,236Z"/><path class="cls-10" d="M141.66,99.31c0,3-.06,6-.06,9,0,6,0,12.06.05,18.1.34.38.27.88.36,1.34-.15.77.17,1.64-.45,2.33H118.3c-1.69,0-2-.37-2.11-2.11-.19-2.16.59-4.17.81-6.26a15.1,15.1,0,0,0-.65-6.47,3.4,3.4,0,0,1-.13-1.18q0-14.08,0-28.17c0-.67-.08-1.22.94-1.21,8.15,0,16.3,0,24.45,0A2.07,2.07,0,0,1,142,86.3q0,5.27,0,10.55a2.11,2.11,0,0,1-.33,1.48Z"/><path class="cls-10" d="M93.73,116.38c-.34.08-.54-.16-.8-.26-1-.37-1.63.09-1.46,1.12a32.43,32.43,0,0,0,2,7.63c.68,1.56.28,3.15.36,4.72,0,.61-.55.46-.92.47H86.4c-4.52,0-9,0-13.56,0-.81,0-1.1-.19-1.1-1.06q0-21.65,0-43.3c0-.86.27-1.06,1.09-1.06,6.64,0,13.27,0,19.91,0,.68,0,1.1,0,1.09.93q0,15.24,0,30.47A1.09,1.09,0,0,1,93.73,116.38Z"/><path class="cls-11" d="M133.37,33.58c-.09.28-.15.51-.24.73-1.38,3.74-2.78,7.47-4.13,11.23a1.84,1.84,0,0,1-1.19,1.19c-3.93,1.53-7.87,3.08-11.78,4.68a1.41,1.41,0,0,1-1.69-.29c-2.73-2.34-5.48-4.65-8.28-6.92a1.18,1.18,0,0,1-.39-1.6c2.63-7.23,5.26-14.46,7.84-21.71.28-.8.63-1,1.44-.91,3.43.3,6.86.52,10.28.76a1.33,1.33,0,0,1,1.25.7c2.16,3.86,4.37,7.7,6.57,11.54C133.17,33.19,133.27,33.4,133.37,33.58Z"/><path class="cls-11" d="M178.44,45.68c0,.35-.33.43-.58.59-3.22,2-6.45,4-9.67,6a1.13,1.13,0,0,1-1.21,0q-5.65-2.57-11.35-5.08a1.33,1.33,0,0,1-.78-1c-1.14-4-2.28-8.05-3.45-12.07a1.46,1.46,0,0,1,.17-1.33c2.28-3.7,4.55-7.41,6.78-11.14a1.22,1.22,0,0,1,1.35-.67q5.55.41,11.11.77a1,1,0,0,1,1,.77q3.21,11.27,6.47,22.53C178.35,45.29,178.38,45.45,178.44,45.68Z"/><path class="cls-11" d="M139.88,64.36c0,2.19,0,4.39,0,6.58A1.12,1.12,0,0,1,139.3,72q-5,3-9.87,6.12a.88.88,0,0,1-1.16-.07q-8.3-5.91-16.63-11.77a.93.93,0,0,1-.36-1.37q2.16-5.19,4.25-10.41a1.55,1.55,0,0,1,1-1q6.06-2.38,12.11-4.82a1.22,1.22,0,0,1,1.39.19q4.83,3.84,9.74,7.59a1.6,1.6,0,0,1,.69,1.51c-.12,2.12-.19,4.23-.29,6.35Z"/><path class="cls-11" d="M142.6,64.41c0-2.16,0-4.31,0-6.47a1.3,1.3,0,0,1,.72-1.23q5.35-3.52,10.66-7.11a1.26,1.26,0,0,1,1.41-.12q5.32,2.42,10.69,4.78a1.56,1.56,0,0,1,1,1.19q1.28,5.41,2.68,10.8a1.08,1.08,0,0,1-.51,1.37q-8.19,5.94-16.35,11.95a.88.88,0,0,1-1.31,0q-4.53-3.84-9.11-7.61a1.27,1.27,0,0,1-.4-1.17V64.41Z"/><path class="cls-11" d="M143.62,7.92c3.24,0,6.48,0,9.71,0a1,1,0,0,1,1.19.93c.8,3.3,1.61,6.59,2.46,9.87a1.83,1.83,0,0,1-.25,1.56c-2.3,3.73-4.6,7.47-6.84,11.24a1.57,1.57,0,0,1-1.62.87q-6.35-.28-12.69-.48a1,1,0,0,1-1-.63q-3-5.37-6.13-10.7a1.43,1.43,0,0,1-.07-1.44c1.44-3.46,2.87-6.92,4.24-10.41A1.24,1.24,0,0,1,134,7.82c3.2,0,6.4,0,9.59,0Z"/><path class="cls-12" d="M113.09,117.46a26.62,26.62,0,0,0-1.24-6.21c-.1-.26-.18-.53-.29-.78-.2-.47-.53-.86-1.08-.78s-.8.52-.85,1.12a17.26,17.26,0,0,1-2,6.29,39.45,39.45,0,0,0-4-9l-.45-.71c-.31-.47-.7-.83-1.29-.57s-.65.7-.56,1.3a64,64,0,0,1,.64,9.07c0,.15,0,.29-.06.66-1.89-2-3.73-3.79-4.46-6.32-.3-1-.77-1.3-1.79-1V109c0-7.72,0-15.43,0-23.15,0-.82.08-1.18,1.07-1.17,5.51.06,11,0,16.55,0,.83,0,1.06.22,1.06,1.06q0,14.75,0,29.5C114.4,116.27,113.71,116.76,113.09,117.46Z"/><path class="cls-12" d="M141.66,149c.17,1.3-.48,1.5-1.65,1.49-6.41,0-12.82,0-19.24,0a19,19,0,0,0,1.46-8.27,19.85,19.85,0,0,0-3.12-9.3c-.17-.26-.46-.46-.38-.94h22.84a1.57,1.57,0,0,1,.41,1.33c0,4.86.06,9.73,0,14.59A1.6,1.6,0,0,1,141.66,149Z"/><path class="cls-12" d="M94.11,132a18.53,18.53,0,0,0-3,6.74,17.55,17.55,0,0,0,.79,10.81c.4.95.11,1-.74,1q-9.18,0-18.36,0c-.79,0-1.1-.15-1.09-1,0-5.51,0-11,0-16.55,0-.51-.14-1,.72-1C79.6,132,86.71,132,94.11,132Z"/><path class="cls-10" d="M95.21,134.09a23,23,0,0,0,1.23-2.67,8,8,0,0,0-.8-6.25,25.06,25.06,0,0,1-1.91-6.08,21.56,21.56,0,0,1,3.67,4c.39.52.79,1,1.47.61s.5-1,.28-1.58a28.08,28.08,0,0,1-1.46-6.24,54.39,54.39,0,0,0,4,4.38c.47.42.93,1,1.66.61s.56-1,.56-1.58a65.64,65.64,0,0,0-.13-6.72,17.61,17.61,0,0,1,2,4.72c.24.75.37,1.55.58,2.32.13.49.19,1.05.88,1.12s.91-.34,1.16-.83a41.27,41.27,0,0,0,2.23-5,13.36,13.36,0,0,1,.11,6.21c-.11.68-.41,1.43.44,1.76s1.21-.47,1.56-1.1a22.38,22.38,0,0,1,2.28-3.39,11.55,11.55,0,0,1-.27,5,13.61,13.61,0,0,0-.73,3.26,7.22,7.22,0,0,0,2.06,5.68c.35.38.69.77,1,1.18s.18.7-.4.7Z"/><path class="cls-10" d="M93.7,148.8h25.54a16.62,16.62,0,0,1-2.87,5,31.18,31.18,0,0,1-7.94,7.89c-.44.28-.82.6-1.41.27a32.8,32.8,0,0,1-13-12.27A6.47,6.47,0,0,1,93.7,148.8Z"/><path class="cls-11" d="M194.72,82.68h-33c0-.44.41-.43.65-.56a43.77,43.77,0,0,0,12.1-9.5c.37-.42.64-.76,1.37-.46a91.89,91.89,0,0,1,18.32,10C194.3,82.3,194.41,82.41,194.72,82.68Z"/><path class="cls-11" d="M88.43,82.64a86.73,86.73,0,0,1,13-7.81c1.93-.94,3.93-1.75,5.88-2.65a.88.88,0,0,1,1.22.23,43.06,43.06,0,0,0,12.53,9.87,4.33,4.33,0,0,1,.51.36Z"/><path class="cls-11" d="M100.11,45.15c-1.57-8,4.25-23.78,10.86-29.4.51,1.77,1,3.33.24,5.25Q107.4,30.86,104,40.88A6.12,6.12,0,0,1,100.11,45.15Z"/><path class="cls-11" d="M173.82,247.08c.17-1,.3-1.77.45-2.56,0-.23.08-.6.22-.65,1.26-.46.72-1.46.72-2.29,0-.44,0-.88-.08-1.31-.31-3.1-.42-3.24-3.41-3.87a28.46,28.46,0,0,1-5.57-1.78c-.38-.16-1-.28-.94-.77s.66-.51,1.08-.62a21.64,21.64,0,0,1,6.4-.73c.82,0,1.23-.21,1.46-1a23.58,23.58,0,0,1,1-2.81c.32-.74.44-1.9,1.38-1.88s1,1.14,1.27,1.86c.39,1,.74,1.93,1,2.92a1.1,1.1,0,0,0,1.29.9,22.83,22.83,0,0,1,5.59.51,11.49,11.49,0,0,1,1.27.37c.34.12.76.27.77.66s-.42.43-.7.54a29.32,29.32,0,0,1-6.87,2,2.3,2.3,0,0,0-2.17,2.12c-.14,1.31-.23,2.62-.37,3.93a.8.8,0,0,0,.55,1c.54.23.51.67,0,1A38.87,38.87,0,0,1,173.82,247.08Z"/><path class="cls-11" d="M174.62,18.59c6.15,7.29,9.64,19,8.37,29a5.86,5.86,0,0,1-2.68-3.31Q177.37,33.6,174.17,23A4.87,4.87,0,0,1,174.62,18.59Z"/><path class="cls-11" d="M165.49,84.72h22.15c0,.38-.3.39-.52.49a28.74,28.74,0,0,1-7,2.06,2.28,2.28,0,0,0-2.1,2.06c-.15,1.35-.26,2.7-.38,4,0,.24-.11.53.12.67,1.5.91.86,2.58,1.38,3.84.13.31-.09.42-.37.42h-4.56c-.49,0-.5-.27-.43-.62.17-.94.35-1.88.53-2.82,0-.08,0-.2.07-.23,1.72-1,.54-2.52.71-3.8a5.74,5.74,0,0,0-.13-1.42,2.4,2.4,0,0,0-2.17-2.16A20.89,20.89,0,0,1,165.49,84.72Z"/><path class="cls-11" d="M211.44,138.07c0,3,0,6.07,0,9.1,0,.75-.19,1-.93.92s-2.05.36-2.52-.19.17-1.63.29-2.48c.09-.62.06-1.3.9-1.5.37-.1.21-.47.19-.73-.09-1.27-.19-2.54-.31-3.81a2.41,2.41,0,0,0-2.34-2.38,25.74,25.74,0,0,1-6.72-2c-.3-.13-.81-.22-.74-.66s.53-.44.86-.54a18.87,18.87,0,0,1,6.14-.81,1.84,1.84,0,0,0,2.18-1.57,25.82,25.82,0,0,1,1.35-3.44c.17-.36.38-.93.94-.72a1.13,1.13,0,0,1,.69,1.15v9.7Z"/><path class="cls-11" d="M141.66,148.1l-.06-14.21c0-.63,0-1.27,0-1.91s0-1.27,0-1.91c.15-.8-.13-1.63.19-2.42.5-.79.86-.87,1.42-.28a3.54,3.54,0,0,1,.56.91,9,9,0,0,1,.76,2c.4,1.76,1.35,2.43,3.22,2.35a13,13,0,0,1,4.84.73c.52.19,1.15.33,1.19,1s-.57.93-1.08,1.12a33.48,33.48,0,0,1-6.21,1.81,2.24,2.24,0,0,0-2.22,2.12c-.23,1.14-.09,2.31-.31,3.46a.8.8,0,0,0,.2.67c1,1,.9,2.35,1.15,3.59.15.73-.12,1.19-.91,1.18A5.27,5.27,0,0,1,141.66,148.1Z"/><path class="cls-11" d="M211.44,184.89a72.54,72.54,0,0,1-1,12c-.05.33,0,.83-.45.87a15.32,15.32,0,0,1-2,0s-.08-.12-.1-.19c-.18-.52.73-3.52,1.21-3.78s.36-.45.33-.78c-.12-1.35-.19-2.71-.34-4.06a2.32,2.32,0,0,0-2.07-2.11,27.62,27.62,0,0,1-6.85-2.05c-.35-.15-.9-.25-.84-.7s.58-.49,1-.6a26.06,26.06,0,0,1,6.75-.83,1.09,1.09,0,0,0,1.2-.86c.41-1.24.88-2.48,1.39-3.69.2-.48.45-1.24,1.05-1.13s.81.85.8,1.55C211.42,180.65,211.44,182.77,211.44,184.89Z"/><path class="cls-1" d="M207.38,208.75c-.07-.57-.31-.24-.54-.11a20.39,20.39,0,0,1-7.44,2.48,1.88,1.88,0,0,0-1.82,1.83,24.89,24.89,0,0,0-.15,3c0,.72.9,1.25,1,2.16a21.19,21.19,0,0,0,.6,3.41c.13.61-.07.76-.66.75-2.08,0-4.16,0-6.24,0-.49,0-.91-.07-.79-.71.26-1.45.15-3.16.91-4.28,1-1.49.51-2.84.51-4.27a1.69,1.69,0,0,0-1.63-1.84,22.7,22.7,0,0,1-7-2.14c-.56-.3-1.33-.54-1.26-1.41s.75-1.2,1.42-1.46a15.87,15.87,0,0,1,6.1-1,1.6,1.6,0,0,0,1.86-1.36,14,14,0,0,1,1.29-3.22c.93-1.59,2.27-1.63,3.22-.05a19.53,19.53,0,0,1,1.51,3.77,1.07,1.07,0,0,0,1.22.84,24.08,24.08,0,0,1,4.4.39,6.12,6.12,0,0,1,3.93,2A2.36,2.36,0,0,1,207.38,208.75Z"/><path class="cls-12" d="M106.52,146.84H94.29c-.24,0-.48,0-.72,0-.44,0-.69-.16-.69-.61s.46-.33.72-.35a44.36,44.36,0,0,0,10.53-1.48c5-1.54,10.05-1.66,15.15-1.86.9,0,1.2.26,1.17,1.14-.09,3.11-.11,3.16-3.13,3.16Z"/><path class="cls-11" d="M107.28,67a3.2,3.2,0,0,1,2.43.57q8.87,6.33,17.76,12.59a3.16,3.16,0,0,1,.67.5,2,2,0,0,1,.47,1.88c-.28.54-1,.08-1.51-.1A41.48,41.48,0,0,1,107.28,67Z"/><path class="cls-11" d="M152.6,82.47l10.34-7.56c2.29-1.67,4.65-3.26,6.84-5a4.82,4.82,0,0,1,4.65-1.11c.18.34-.18.53-.36.75A41.87,41.87,0,0,1,156,82.44a3.43,3.43,0,0,1-.92.26c-.78,0-1.58,0-2.37,0Z"/><path class="cls-11" d="M155.53,4.61a4,4,0,0,1-2.89,1.13q-9.63-.13-19.27-.12c-1.4,0-1.91-1.12-3.18-1.82A42,42,0,0,1,155.53,4.61Z"/><path class="cls-12" d="M94.39,143.93c-1.9.08-2.06-.13-1.86-1.69.08-.58.31-.68.84-.7a58.51,58.51,0,0,0,14.5-2.37,32.77,32.77,0,0,1,8-.77c.84,0,1.67-.08,2.51-.09a1.6,1.6,0,0,1,1.68,2c-.09.61-.58.44-.93.45-2.16.09-4.31.19-6.47.2-3.53,0-6.81,1.26-10.2,2A58,58,0,0,1,94.39,143.93Z"/><path class="cls-11" d="M199.6,84.68c3.71,0,7.42,0,11.13,0,.59,0,.72.2.72.75q0,6.06,0,12.11c0,.62-.17.8-.8.81-2.84.08-2.84.11-2.35-2.68.11-.62.06-1.29.88-1.51.36-.1.23-.46.21-.72-.1-1.31-.18-2.63-.32-3.93a2.41,2.41,0,0,0-2.22-2.23A19.76,19.76,0,0,1,199.6,84.68Z"/><path class="cls-11" d="M141.65,98.33q0-6.81-.05-13.62h11.89c.08.4-.29.41-.51.5a26.11,26.11,0,0,1-7,2.05,2.18,2.18,0,0,0-2,2c-.21,1.38-.29,2.78-.41,4.17,0,.22-.13.5.13.66,1.5.91.87,2.57,1.34,3.83.17.45-.25.39-.51.39C143.57,98.33,142.61,98.33,141.65,98.33Z"/><path class="cls-12" d="M93,139.65a.76.76,0,0,1,0-.23c.7-3.42.7-3.42,4.14-3.42h20.25a2.61,2.61,0,0,1,1.34.14c-.26.46-.73.32-1,.31a53.23,53.23,0,0,0-15.1,2.08A37.91,37.91,0,0,1,93,139.65Z"/><path class="cls-13" d="M95.77,118.27a3.54,3.54,0,0,1,0-1.48c.3.32.16.67.24,1S96.24,118.29,95.77,118.27Z"/><path class="cls-14" d="M95.77,118.27c.24-.1.2-.34.27-.51.18.27.33.59.1.84S95.82,118.47,95.77,118.27Z"/><path class="cls-11" d="M42.4,194.84a4.28,4.28,0,0,0-2.67.33c-.76.21-.95,0-1.12-.7-.71-2.82-1.5-5.63-2.21-8.45-.18-.69-.42-.9-1.14-.65-1.13.4-2.78.32-3.31,1.08s.38,2.21.67,3.36q.63,2.55,1.35,5.09c.18.61.05.83-.58,1-1.25.27-2.49.58-3.71,1-.72.24-1,.07-1.14-.65-.61-2.48-1.32-4.93-1.92-7.41-.21-.87-.55-1.09-1.39-.77-1.13.44-2.88.21-3.35,1.16s.41,2.24.71,3.4c.5,1.93,1,3.86,1.56,5.77.23.77,0,1.06-.72,1.23-1.29.27-2.56.63-3.82,1-.58.16-.84,0-1-.59q-2.31-8.79-4.68-17.57c-.18-.67,0-.87.68-1q11.88-3.08,23.73-6.23c.83-.23,1,0,1.18.72C41,181.57,42.63,187.25,44,193c.75,3.1,2.53,5.64,3.91,8.39,2.43,4.85,5,9.63,7.54,14.43.35.65.37,1-.39,1.34-1.48.68-2.93,1.44-4.36,2.24-.62.35-.85.22-1.14-.38-1-1.93-2-3.81-3-5.74-.33-.67-.6-.73-1.25-.38-5.27,2.75-10.57,5.44-15.83,8.21-.74.38-1,.22-1.29-.44-1.07-2.14-2.16-4.27-3.33-6.35-.44-.78-.39-1.08.44-1.5,5.19-2.63,10.35-5.35,15.54-8,.86-.43.93-.79.48-1.58-1-1.74-1.8-3.57-2.81-5.29-.46-.79-.23-1,.48-1.38C40.17,196,41.28,195.42,42.4,194.84Z"/><path class="cls-11" d="M270.75,170.18c-.38,3.34-.86,7.46-1.34,11.58-.12,1-.31,2.06-.35,3.09,0,.8-.36.9-1.05.81q-12.18-1.44-24.38-2.83c-.66-.08-.89-.27-.8-1,.6-4.67.93-9.39,1.79-14,1-5.14,3.94-8.94,9.17-10.35s9.91-.38,13.82,3.48C269.72,163.07,270.78,166.06,270.75,170.18Z"/><path class="cls-11" d="M30.59,172.32a16.38,16.38,0,0,0,1.92-6.71c.28-4.27-1.89-7.63-5.56-8.54-4.78-1.19-8.51,1.6-8.71,6.52,0,.2,0,.4,0,.6,0,2.22,0,2.18,2.28,2,.77-.06.9-.32.88-1-.07-2.18-.05-2.18,2.14-2.31.56,0,1.12-.07,1.67-.08,1.68,0,1.73,0,1.79,1.59.11,2.68.12,5.35.21,8,0,.45-.07.62-.56.64-4.27.11-8.54.25-12.8.39-.41,0-.76,0-.89-.54-1.1-4.73-1.92-9.5-1-14.35,1.25-6.37,5.46-10.22,11.68-10.89a13.09,13.09,0,0,1,13.46,8.19c2.22,5.21,1.94,10.51.3,15.82a.76.76,0,0,1-.83.66C34.61,172.3,32.66,172.32,30.59,172.32Z"/><path class="cls-11" d="M262.59,207.27c-1.47,2.55-2.88,5-4.27,7.45a.71.71,0,0,1-.87.4,5.72,5.72,0,0,1-.95-.14c-2.36-.85-3.63.11-4.62,2.3a67.35,67.35,0,0,1-3.83,6.76,1.21,1.21,0,0,0,.13,1.67c.77.91,2,1.78,2,2.86s-1,2-1.56,3c-.89,1.56-1.79,3.11-2.75,4.77l-6.7-9.11c-3.24-4.42-6.46-8.84-9.73-13.23a1.36,1.36,0,0,1-.14-1.79c1.36-2.21,2.62-4.48,3.89-6.74.26-.45.47-.73,1.09-.67,9.2.79,18.39,1.54,27.59,2.31C262.09,207.16,262.27,207.21,262.59,207.27Z"/><path class="cls-11" d="M53.67,254.25c-1.83-2.15-3.68-4.33-5.54-6.5A.57.57,0,0,1,48,247a3.21,3.21,0,0,0,.19-.31c.5-1.16,1.74-2.26,1.53-3.38s-1.46-1.92-2.26-2.87c-1.55-1.82-3.13-3.63-4.65-5.48a1.1,1.1,0,0,0-1.43-.42c-.93.34-1.89.61-2.83.94-.41.15-.74.24-1.07-.15-1.79-2.14-3.6-4.25-5.52-6.52,3-.86,5.78-1.68,8.59-2.48,6.06-1.73,12.12-3.43,18.17-5.18a1.39,1.39,0,0,1,1.74.49c1.64,2,3.34,4,5,5.93a1,1,0,0,1,.25,1.25q-6,12.66-11.88,25.33S53.83,254.18,53.67,254.25Z"/><path class="cls-11" d="M104.2,265.65c-.33.75-.68,1.56-1,2.36-1.08,2.39-1.08,2.39-3.51,1.31-1.86-.83-3.74-1.61-5.57-2.49-.74-.35-1-.19-1.31.53A19.76,19.76,0,0,1,91.6,270c-.41.73-.14,1,.52,1.25,2.72,1.16,5.4,2.4,8.12,3.57.63.27.84.51.48,1.21-.61,1.16-1.12,2.38-1.62,3.59-.25.58-.48.78-1.15.48q-8.36-3.76-16.74-7.43c-.6-.26-.66-.49-.4-1.07q5.07-11.22,10.09-22.48c.26-.58.47-.68,1-.42q8.31,3.72,16.63,7.37c.6.26.77.52.44,1.16a38.7,38.7,0,0,0-1.61,3.6c-.27.69-.59.65-1.16.39-2.69-1.22-5.4-2.38-8.08-3.61-.64-.3-1-.3-1.22.43-.4,1.12-1.48,2.36-1.23,3.25s2,1.1,3,1.59c1.6.73,3.21,1.42,4.81,2.14C103.82,265.12,104.23,265.13,104.2,265.65Z"/><path class="cls-11" d="M144.78,270.69c-2.42-1.61-4.71-2.87-7.46-3a11.9,11.9,0,0,0-2.86.16,6,6,0,0,0-5.1,6.18c0,3.14,2,5.48,5.44,6.21a13.79,13.79,0,0,0,8.1-.78c.48-.18.95-.38,1.48-.6-.14,2.14-.29,4.21-.42,6.28a.87.87,0,0,1-.63.9c-5.76,2-11.47,2.12-16.93-.84-4.8-2.6-7-7.56-6.13-13.47a12.54,12.54,0,0,1,9.63-10.59,22.13,22.13,0,0,1,14.84,1.56c.32.15.65.24.6.74C145.14,265.8,145,268.14,144.78,270.69Z"/><path class="cls-11" d="M220.11,239a19.93,19.93,0,0,0-4.9.45,5.39,5.39,0,0,0-2.9,1.79c-.51.62-1,1.32-.46,2.17a1.89,1.89,0,0,0,2.1.83c1.37-.22,2.74-.54,4.1-.83A14,14,0,0,1,222,243a7,7,0,0,1,6.06,4.26,7.15,7.15,0,0,1-.91,7.68,20.15,20.15,0,0,1-10.2,7,.69.69,0,0,1-.89-.31c-1.35-1.63-2.72-3.24-4.14-4.94a9.91,9.91,0,0,1,2.53-.61,9.94,9.94,0,0,0,5-2.59c.58-.61,1-1.28.6-2.14a1.78,1.78,0,0,0-2.15-.86c-1.65.3-3.29.64-4.94.93a7.65,7.65,0,0,1-8.1-3.15c-2-2.76-1.77-5.66,0-8.42a12.86,12.86,0,0,1,9.83-6.08,1.62,1.62,0,0,1,1.62.69C217.46,235.93,218.72,237.36,220.11,239Z"/><path class="cls-11" d="M90,247.79a26,26,0,0,1-3.13,4.45c-.37,0-.57-.26-.82-.44-2.21-1.57-4.44-3.14-6.62-4.75-.58-.42-.9-.47-1.31.2a20.22,20.22,0,0,1-1.69,2.32c-.47.57-.42.88.21,1.31,2.07,1.42,4.08,2.94,6.16,4.36.69.47.77.81.22,1.46a23.32,23.32,0,0,0-2,2.81c-.46.73-.8.86-1.54.29-2-1.5-4-2.87-6-4.36-.7-.54-1-.38-1.45.27-1.6,2.29-3.28,4.53-4.9,6.81-.37.53-.6.79-1.27.28-2-1.5-4-2.93-6-4.32-.67-.45-.57-.75-.16-1.31q7.19-9.87,14.33-19.8c.41-.57.67-.66,1.28-.22,4.73,3.42,9.48,6.8,14.22,10.2C89.69,247.5,89.88,247.68,90,247.79Z"/><path class="cls-11" d="M178.53,254.68c.53-.17.59.17.66.42.41,1.41.79,2.84,1.21,4.26.21.69-.27.69-.7.8-2.61.72-5.22,1.48-7.84,2.15-.85.21-1.13.49-.77,1.36.44,1.1.25,2.79,1.17,3.23s2.16-.43,3.27-.72c1.66-.45,3.32-.87,5-1.37.57-.18.79,0,.93.5.34,1.31.65,2.63,1.09,3.91.25.75-.07.87-.66,1-2.43.65-4.84,1.39-7.28,2-.83.21-1,.5-.75,1.29.78,2.6,1.46,5.22,2.24,7.82.24.81.29,1.25-.75,1.49-2.33.54-4.63,1.22-6.92,1.9-.74.22-.95,0-1.15-.69q-3.24-11.76-6.57-23.5c-.18-.64-.1-.93.57-1.11,5.69-1.54,11.38-3.11,17.07-4.67A1.19,1.19,0,0,0,178.53,254.68Z"/><path class="cls-11" d="M266.6,143a4.74,4.74,0,1,1-.05,9.48,4.67,4.67,0,0,1-4.71-4.69A4.72,4.72,0,0,1,266.6,143Z"/><path class="cls-11" d="M193.68,276.24a4.7,4.7,0,1,1,4.69-4.71A4.69,4.69,0,0,1,193.68,276.24Z"/><path class="cls-11" d="M260.82,191.28a4.81,4.81,0,0,1,4.85,4.74,4.8,4.8,0,1,1-4.85-4.74Z"/><path class="cls-11" d="M155.28,286.8a4.65,4.65,0,0,1-4.69-4.71,4.58,4.58,0,0,1,4.79-4.69,4.7,4.7,0,1,1-.1,9.4Z"/><path class="cls-11" d="M235.36,245.28a4.57,4.57,0,0,1-4.76-4.72,4.69,4.69,0,0,1,4.72-4.68,4.78,4.78,0,0,1,4.8,4.77A4.63,4.63,0,0,1,235.36,245.28Z"/><path class="cls-1" d="M176.47,198.9c-1.08,0-2.16,0-3.23,0-.41,0-.75-.09-.65-.6.29-1.57.27-3.31,1-4.64s.47-2.6.45-3.94-.69-1.84-1.86-2.05a22.27,22.27,0,0,1-6.7-2.11c-.58-.31-1.36-.52-1.31-1.38s.74-1.18,1.41-1.47a18.72,18.72,0,0,1,6.34-1,1.46,1.46,0,0,0,1.56-1.1,14.74,14.74,0,0,1,1.4-3.42c1.11-1.72,2.37-1.7,3.31.14a24.92,24.92,0,0,1,1.35,3.45,1.2,1.2,0,0,0,1.3.92c1.59.09,3.17.27,4.75.48a7,7,0,0,1,1.82.57c.67.29,1.38.68,1.4,1.49s-.69,1-1.25,1.31a21.53,21.53,0,0,1-6.58,2.1c-1.29.22-2.07.69-2.05,2.1s-.34,2.48.41,3.86.73,3.23,1,4.88c.1.54-.37.41-.65.42C178.63,198.91,177.55,198.9,176.47,198.9Z"/><path class="cls-1" d="M195.2,174.9c-1.08,0-2.16,0-3.24,0-.51,0-.77-.19-.67-.71.28-1.49.23-3.17,1-4.4.83-1.41.56-2.67.48-4s-.4-1.81-1.79-2.08a24.34,24.34,0,0,1-6.61-2,8.44,8.44,0,0,1-.83-.47,1.12,1.12,0,0,1,0-2,8.07,8.07,0,0,1,3.84-1.21,23.47,23.47,0,0,1,3.45-.26,1.21,1.21,0,0,0,1.36-1,15.51,15.51,0,0,1,1.42-3.54c1-1.66,2.29-1.63,3.28,0a16.3,16.3,0,0,1,1.27,3.23,1.58,1.58,0,0,0,1.77,1.28,18.81,18.81,0,0,1,5.32.68c1,.27,2.14.64,2.27,1.69s-1.08,1.46-1.93,1.83a22.6,22.6,0,0,1-6.07,1.76,1.84,1.84,0,0,0-1.87,1.9c-.06,1.07-.56,2.47-.07,3.14a7.84,7.84,0,0,1,1.06,3.31c.65,2.9.63,2.91-2.31,2.91Z"/><path class="cls-1" d="M158,174.9c-.92,0-1.85-.07-2.76,0s-1.19-.29-1-1.21c.3-1.23.49-2.5.72-3.75,0-.16,0-.38.1-.46,1.52-1.27.42-2.88.53-4.32.06-1-.81-1.36-1.72-1.5a25.92,25.92,0,0,1-6-1.7c-.15-.06-.3-.11-.44-.18-.74-.38-1.76-.69-1.72-1.63s1.07-1.44,2-1.71a20.33,20.33,0,0,1,5.9-.79,1.26,1.26,0,0,0,1.43-1,13.84,13.84,0,0,1,1.58-3.74c1-1.36,2.14-1.31,3,.14a16.59,16.59,0,0,1,1.43,3.55,1.4,1.4,0,0,0,1.54,1.11,18.53,18.53,0,0,1,6,.88,4.44,4.44,0,0,1,1.17.59,1.12,1.12,0,0,1-.06,2,13.65,13.65,0,0,1-4.07,1.71c-1.15.31-2.33.52-3.49.82a2.2,2.2,0,0,0-1.11.42c-.5.48-1.08,4.35-.57,4.78a2.7,2.7,0,0,1,.78,1.92,24.11,24.11,0,0,0,.57,2.81c.33,1.09-.08,1.34-1.08,1.27S159,174.9,158,174.9Z"/><path class="cls-1" d="M176.42,149H173.3c-.45,0-.82-.08-.7-.66.28-1.48.23-3.17,1-4.4.92-1.53.54-2.92.45-4.4a1.6,1.6,0,0,0-1.56-1.63,25.79,25.79,0,0,1-6.2-1.75c-.89-.38-2.12-.73-2-1.9s1.28-1.38,2.25-1.66a17.37,17.37,0,0,1,5.31-.68,1.47,1.47,0,0,0,1.72-1.18,12.74,12.74,0,0,1,1.53-3.63c.93-1.32,2.06-1.33,3,0a16.4,16.4,0,0,1,1.53,3.76A1.32,1.32,0,0,0,181,132a17.17,17.17,0,0,1,6.23.91c.78.29,1.58.66,1.6,1.57s-.82,1.15-1.44,1.45a24,24,0,0,1-6.73,2c-1.12.16-1.66.64-1.65,1.76,0,.24-.14.48-.13.7.09,1.13-.2,2.18.48,3.39s.71,3.15,1,4.76c.12.63-.37.49-.69.5C178.58,149.05,177.5,149,176.42,149Z"/><path class="cls-1" d="M158,127.4c-1,0-1.92,0-2.88,0-.71,0-1-.09-.8-.92.32-1.35.51-2.73.76-4.1,0-.12,0-.29.08-.35,1.51-1.16.44-2.71.55-4.06.08-.91-.5-1.56-1.58-1.75a24.88,24.88,0,0,1-6.73-2c-.68-.33-1.54-.67-1.56-1.5s.89-1.25,1.62-1.56c2-.85,4.13-.81,6.23-1a1.44,1.44,0,0,0,1.49-1.15,13.5,13.5,0,0,1,1.59-3.73c.91-1.22,1.89-1.22,2.8,0a14.55,14.55,0,0,1,1.61,3.84,1.3,1.3,0,0,0,1.36,1,22.61,22.61,0,0,1,5.79.76c.86.29,2,.49,2.1,1.68s-1,1.41-1.85,1.77a32,32,0,0,1-6.52,1.93,1.72,1.72,0,0,0-.89.3c-.73.66-1,4.28-.34,5a3,3,0,0,1,.52,1.67c.19,1,.42,2.1.64,3.15.14.65,0,1-.76,1C160.11,127.36,159,127.4,158,127.4Z"/><path class="cls-1" d="M158,222.24c-1,0-2,0-3,0-.56,0-.91,0-.75-.78.32-1.47.09-3.32.92-4.38,1.1-1.42.38-2.69.49-4,.1-1.11-.51-1.78-1.76-2a22.09,22.09,0,0,1-7-2.23c-.54-.28-1.13-.6-1.07-1.3a1.65,1.65,0,0,1,1.12-1.3,15.6,15.6,0,0,1,6.54-1.13,1.45,1.45,0,0,0,1.64-1.13,15.13,15.13,0,0,1,1.26-3.23c.41-.69.81-1.43,1.76-1.41a2,2,0,0,1,1.76,1.44c.51,1.12.95,2.28,1.35,3.45a1.06,1.06,0,0,0,1.2.86,19.9,19.9,0,0,1,5.8.73,5,5,0,0,1,1.11.44c.53.28,1,.63,1.06,1.33s-.56,1-1.09,1.29a23,23,0,0,1-7.05,2.2c-1.17.19-1.7.7-1.72,1.86,0,.64-.15,1.27-.17,1.9a2.18,2.18,0,0,0,.46,1.83c.66.75.54,2,.72,3,.45,2.53.46,2.53-2.11,2.53Z"/><path class="cls-1" d="M195.15,127.4c-1,0-2.08,0-3.11,0-.55,0-.87-.13-.75-.74.28-1.45.2-3.12.92-4.29.93-1.48.57-2.83.51-4.28a1.65,1.65,0,0,0-1.49-1.81,28.48,28.48,0,0,1-6.31-1.83,3.32,3.32,0,0,1-.54-.25c-.59-.42-1.54-.57-1.49-1.53s1-1.28,1.74-1.59a19.44,19.44,0,0,1,6-.9,1.5,1.5,0,0,0,1.59-1.21,17.91,17.91,0,0,1,1.23-3.12c1-1.93,2.39-1.95,3.43,0a19.53,19.53,0,0,1,1.31,3.33,1.27,1.27,0,0,0,1.34,1,26.38,26.38,0,0,1,5.45.67,9,9,0,0,1,1.24.42,1.85,1.85,0,0,1,1.29,1.45c0,.7-.63,1-1.15,1.26a23.45,23.45,0,0,1-6.68,2.17c-1.78.35-2,.59-2.13,2.42-.05.75-.07,1.51-.13,2.27,0,.2-.09.4.06.56,1.43,1.57,1,3.66,1.53,5.48.17.62-.28.52-.62.52Z"/><path class="cls-15" d="M141.66,148.1a7.48,7.48,0,0,0,1,0c.82-.14,2.4.26,2.34-.24-.13-1.3.27-2.94-1.16-3.88-.32-.21-.24-.47-.22-.72.12-1.4.22-2.79.4-4.18a2.24,2.24,0,0,1,2.12-2,28.35,28.35,0,0,0,6.87-2c.28-.11.7-.22.69-.57s-.45-.51-.78-.63a18.91,18.91,0,0,0-6.37-.88,1.61,1.61,0,0,1-1.88-1.3,19.17,19.17,0,0,0-1.52-3.88c-.41-.72-.84-.77-1.35-.11a2.31,2.31,0,0,1-.1-1.25,1.57,1.57,0,0,1,2.23.71,17.55,17.55,0,0,1,1.57,3.87,1.24,1.24,0,0,0,1.4,1,17,17,0,0,1,5.79.75,6.06,6.06,0,0,1,1.21.5c1.18.68,1.22,1.54.1,2.3a17.66,17.66,0,0,1-5.12,1.95c-.84.25-1.71.36-2.57.54s-1.31.53-1.33,1.43c0,.39-.16.79-.14,1.18a6.21,6.21,0,0,0,.46,3.15c.75,1.41.73,3.23,1,4.87.08.45-.24.57-.58.56a18.3,18.3,0,0,1-4.05-.16Z"/><path class="cls-15" d="M141.65,198.88c-.14-.71.12-1,.87-1a7.86,7.86,0,0,0,2.56-.11,4.53,4.53,0,0,1-.67-2,3.17,3.17,0,0,0-.84-1.94,1.14,1.14,0,0,1-.34-1c.16-1.27.13-2.55.34-3.82a2.91,2.91,0,0,1,2.71-2.6,26.32,26.32,0,0,0,5.65-1.57c.36-.14.95-.2.92-.64s-.65-.47-1-.59c-1.86-.57-3.8-.44-5.7-.67a1.86,1.86,0,0,1-1.74-1.36c-.36-1-.78-2-1.13-3-.24-.7-.63-1.2-1.45-1.17a2.25,2.25,0,0,1-.13-1.28c1.14-.54,1.81.1,2.36,1a17.56,17.56,0,0,1,1.4,3.56,1.32,1.32,0,0,0,1.48,1,20,20,0,0,1,5.55.72,5.83,5.83,0,0,1,1,.38c.61.31,1.27.67,1.28,1.44s-.62,1-1.15,1.26a27.09,27.09,0,0,1-7.39,2.34A1.33,1.33,0,0,0,145,189a13.48,13.48,0,0,1-.25,2.13c-.39,1.31.69,2.18.84,3.32a32.1,32.1,0,0,0,.66,3.52c.21.85-.15.93-.83.91C144.13,198.87,142.89,198.89,141.65,198.88Z"/><path class="cls-16" d="M141.68,227.28l0-1.31a1.6,1.6,0,0,1,2.23.73,9.39,9.39,0,0,1,1.27,3.08,2.08,2.08,0,0,0,2.55,1.78,14,14,0,0,1,4.26.49,9.74,9.74,0,0,1,1.57.55,1.7,1.7,0,0,1,1.2,1.38c0,.7-.59,1-1.11,1.28a22.7,22.7,0,0,1-7.14,2.25,1.7,1.7,0,0,0-1.61,1.7c-.14,1.12-.54,2.44-.06,3.28a10.1,10.1,0,0,1,.94,3.11c.68,3,.66,3-2.42,3h-1.68c0-.33,0-.65,0-1,.71-.57,1.54-.29,2.32-.32.5,0,.78-.12.65-.68-.24-1-.17-2.17-1.06-3a1,1,0,0,1-.32-.88,36.09,36.09,0,0,1,.44-4.28,2.86,2.86,0,0,1,2.58-2.3,23.14,23.14,0,0,0,5.87-1.66c.29-.12.69-.24.67-.6s-.44-.42-.74-.49a23.49,23.49,0,0,0-5.35-.62c-1.66,0-1.86-.16-2.45-1.73-.35-.93-.7-1.87-1.06-2.8A1.33,1.33,0,0,0,141.68,227.28Z"/><path class="cls-11" d="M141.68,227.28c.69-.92,1.21-.54,1.55.27.57,1.35,1.09,2.73,1.58,4.12a1,1,0,0,0,1.21.82,21.35,21.35,0,0,1,6.51.76c.44.12,1.09.19,1.09.76s-.62.55-1,.7a27.31,27.31,0,0,1-6.76,1.9,2.11,2.11,0,0,0-1.88,2c-.18,1.35-.28,2.7-.4,4.05,0,.4-.1.81.47.92.39.07.42.41.48.74.19,1.06.4,2.11.63,3.31h-3.5C141.58,240.86,141.54,234.07,141.68,227.28Z"/><path class="cls-11" d="M141.78,177.41c.52-.67.95-.56,1.33.14a29.24,29.24,0,0,1,1.64,4.22,1.17,1.17,0,0,0,1.29.89,23.85,23.85,0,0,1,6.61.85c.4.13,1,.2,1,.72s-.55.54-.89.67a28.93,28.93,0,0,1-6.75,1.93,2.17,2.17,0,0,0-2,2.12c-.16,1.34-.27,2.69-.4,4,0,.2-.06.52,0,.58,1.69,1,1,2.83,1.48,4.24-1.12,0-2.58.38-3.25-.18s-.21-2.1-.22-3.21c0-5.2,0-10.4,0-15.59A2.52,2.52,0,0,1,141.78,177.41Z"/><path class="cls-11" d="M195.2,221.28h-.48c-2.37,0-2.4,0-1.91-2.27.15-.72-.06-1.67,1.05-1.94.28-.06.11-.51.09-.77-.07-1.27-.15-2.55-.27-3.82a2.53,2.53,0,0,0-2.25-2.26,24.61,24.61,0,0,1-7-2.11c-.25-.12-.6-.2-.6-.51s.37-.47.67-.57a21,21,0,0,1,6.86-.89,1.24,1.24,0,0,0,1.43-1,22.15,22.15,0,0,1,1.57-4c.59-1,1-1,1.55,0a31.8,31.8,0,0,1,1.55,4,1.23,1.23,0,0,0,1.45,1,21.89,21.89,0,0,1,6.29.74c.44.12,1.09.21,1.16.72s-.62.61-1,.77a26.09,26.09,0,0,1-6.66,1.87,2.31,2.31,0,0,0-2,2.17c-.16,1.31-.23,2.63-.36,3.94,0,.43,0,.74.48.92.74.25.52,1,.64,1.55.51,2.45.48,2.46-2,2.46Z"/><path class="cls-17" d="M264,172.5c0,3.39,0,3.37-3.41,3q-4.69-.57-9.4-1c-.84-.09-1.18-.29-1-1.24a22.68,22.68,0,0,1,.64-3.16,5.49,5.49,0,0,1,5.89-3.93,17,17,0,0,1,2.26.27C262.62,167.07,264,168.81,264,172.5Z"/><path class="cls-17" d="M237.74,212.51c2.32.3,4.64.59,6.95.9.95.12,1.9.28,2.85.38.49.05.78.12.44.7q-1.71,2.94-3.39,5.91c-.29.53-.5.34-.75,0a3.08,3.08,0,0,0-.24-.27l-5.95-7.33Z"/><path class="cls-17" d="M57.54,229c-1.73,3.24-3.31,6.21-4.88,9.19-.21.39-.37.45-.67.09l-4.88-5.71Z"/><path class="cls-11" d="M165.06,184.11c1.31-1,2.87-1,4.33-1.23a14.45,14.45,0,0,1,3.21-.21c1,.08,1.4-.38,1.66-1.25s.71-2,1.11-3c.24-.59.5-1.41,1.13-1.43s.88.82,1.11,1.41c.43,1.11.86,2.22,1.23,3.36a1.15,1.15,0,0,0,1.26.93,23.48,23.48,0,0,1,6.62.83c.42.14,1,.24,1.05.67s-.59.59-1,.74a30.61,30.61,0,0,1-6.64,1.92,2.22,2.22,0,0,0-2.13,2.28c-.1.92-.18,1.83-.23,2.75s-.31,1.44.57,2.26c.71.66.6,2.23.78,3.4.07.41-.39.3-.63.31-1.36,0-2.72,0-4.08,0-.64,0-.74-.25-.61-.8.18-.82.3-1.64.47-2.47,0-.19.08-.51.19-.54,1.22-.34.77-1.27.73-2-.05-1-.13-2-.24-3a2.37,2.37,0,0,0-2.13-2.2,28.9,28.9,0,0,1-6.3-1.81A3.76,3.76,0,0,1,165.06,184.11Z"/><path class="cls-11" d="M195.07,173.84c-2.72,0-2.72,0-2.19-2.64.12-.6,0-1.3.86-1.53.43-.13.23-.54.21-.83-.07-1.24-.16-2.47-.27-3.7a2.44,2.44,0,0,0-2.23-2.37,26.93,26.93,0,0,1-6.41-1.86c-.45-.18-1.19-.29-1.12-.87s.8-.57,1.28-.69a21.19,21.19,0,0,1,5.93-.68,1.55,1.55,0,0,0,1.83-1.32,29.61,29.61,0,0,1,1.22-3.25c.21-.49.42-1.19,1-1.16s.76.66,1,1.14c.48,1.22,1,2.45,1.36,3.69a1.12,1.12,0,0,0,1.29.89,23,23,0,0,1,6.29.71c.48.12,1.2.19,1.27.74s-.68.68-1.12.85a28.54,28.54,0,0,1-6.42,1.82A2.26,2.26,0,0,0,196.7,165c-.16,1.31-.25,2.63-.35,3.94,0,.25-.16.55.16.75,1.44.93.88,2.56,1.3,3.84.13.4-.32.35-.58.36Z"/><path class="cls-11" d="M158.11,173.84c-2.83,0-2.84,0-2.27-2.77.11-.55.07-1.22.85-1.4.4-.08.28-.44.26-.69-.09-1.31-.16-2.63-.31-3.94a2.46,2.46,0,0,0-2.34-2.29,25.58,25.58,0,0,1-6.51-1.95c-.36-.16-1-.22-.91-.77s.67-.52,1.07-.63a23.4,23.4,0,0,1,6.4-.74,1.25,1.25,0,0,0,1.44-1,20.14,20.14,0,0,1,1.63-4.1c.55-.89.91-.89,1.44,0a17.74,17.74,0,0,1,1.47,3.78,1.57,1.57,0,0,0,1.84,1.32,20.22,20.22,0,0,1,6,.74c.44.12,1.1.23,1.16.71s-.64.63-1,.8a29.18,29.18,0,0,1-6.53,1.87,2.37,2.37,0,0,0-2.18,2.28c-.1,1.07-.19,2.14-.25,3.22a1.94,1.94,0,0,0,.57,1.71c.8.85.63,2.32.84,3.52.07.41-.38.31-.63.31C159.47,173.85,158.79,173.84,158.11,173.84Z"/><path class="cls-11" d="M179.34,148.08c-1.8,0-3.43,0-5.06,0-.55,0-.56-.27-.47-.68.17-.86.32-1.72.48-2.58a2.44,2.44,0,0,1,.14-.46c.15-.45,1-.21.9-.93-.23-1.65,0-3.37-.59-5a2.31,2.31,0,0,0-2.11-1.49,23.5,23.5,0,0,1-6.83-2.09c-.25-.11-.6-.21-.61-.5s.39-.45.67-.55a20,20,0,0,1,6.61-.9,1.55,1.55,0,0,0,1.79-1.26,24.37,24.37,0,0,1,1.48-3.77c.51-1,1-1,1.54,0a27,27,0,0,1,1.51,3.89c.27.92.78,1.12,1.65,1.1a21.13,21.13,0,0,1,5.81.67,6.31,6.31,0,0,1,1,.34c.25.11.57.26.52.56s-.32.33-.53.42a27.27,27.27,0,0,1-7,2.09,2.33,2.33,0,0,0-2.26,2.3c-.14,1.27-.25,2.54-.37,3.81,0,.2-.06.52,0,.58C179.38,144.71,178.58,146.58,179.34,148.08Z"/><path class="cls-11" d="M158.08,126.4c-2.81,0-2.83,0-2.24-2.77.11-.53,0-1.24.84-1.41.36-.07.29-.43.27-.7-.1-1.35-.14-2.71-.36-4a2.32,2.32,0,0,0-2.17-2.16,24.46,24.46,0,0,1-6.84-2.06c-.31-.14-.79-.23-.74-.66s.5-.46.84-.56a19.75,19.75,0,0,1,6.15-.81,1.93,1.93,0,0,0,2.18-1.58,13,13,0,0,1,1.41-3.54c.54-.87,1-.9,1.43,0a35.48,35.48,0,0,1,1.63,4.11,1.15,1.15,0,0,0,1.26.93,26.8,26.8,0,0,1,6.06.67c.59.15,1.5.2,1.54.88s-.86.69-1.39.89a30.89,30.89,0,0,1-6.2,1.75,2.31,2.31,0,0,0-2.12,2.18c-.11,1-.21,2.07-.25,3.11a2.35,2.35,0,0,0,.59,1.93c.69.82.61,2.33.81,3.54.05.33-.31.28-.54.28Z"/><path class="cls-11" d="M155.33,221.28c.23-1.18.43-2.23.63-3.29,0-.19.07-.51.17-.54,1.29-.37.75-1.35.72-2.14s-.09-1.76-.19-2.63a2.56,2.56,0,0,0-2.43-2.47,26.46,26.46,0,0,1-6.73-2.05c-.27-.12-.67-.23-.64-.62s.43-.43.72-.53a18.7,18.7,0,0,1,6.38-.85,1.71,1.71,0,0,0,2-1.43,28.28,28.28,0,0,1,1.31-3.46c.17-.38.37-.89.89-.87s.7.53.86.91a33.59,33.59,0,0,1,1.34,3.58c.29,1,.83,1.3,1.87,1.26a19.82,19.82,0,0,1,5.57.63,6.18,6.18,0,0,1,1,.33c.24.11.58.22.58.54s-.35.41-.6.51a26.13,26.13,0,0,1-6.85,2.05,2.45,2.45,0,0,0-2.34,2.4c-.08.95-.2,1.9-.23,2.86a2.43,2.43,0,0,0,.58,2.06c.68.78.6,2.24.82,3.41.07.36-.26.33-.49.33Z"/><path class="cls-11" d="M195.15,126.4c-2.77,0-2.77,0-2.24-2.78.11-.57,0-1.2.82-1.41.42-.11.24-.54.23-.84-.09-1.27-.17-2.55-.29-3.82a2.38,2.38,0,0,0-2.11-2.2,28.33,28.33,0,0,1-6.85-2.06c-.34-.15-.88-.23-.81-.72s.52-.45.85-.55a19.89,19.89,0,0,1,6-.8c1.23,0,2-.28,2.27-1.62a18.2,18.2,0,0,1,1.19-3.12c.19-.42.37-1,.93-1s.75.54.93,1c.5,1.26,1,2.52,1.43,3.8a1.1,1.1,0,0,0,1.16.89,27.15,27.15,0,0,1,6.29.71c.54.15,1.4.18,1.4.87,0,.54-.81.65-1.31.84a26.69,26.69,0,0,1-6.31,1.77,2.17,2.17,0,0,0-2,2c-.21,1.38-.27,2.78-.39,4.17,0,.23-.1.5.15.66,1.52.9.85,2.57,1.34,3.83.16.43-.26.39-.52.39Z"/></g></g></svg>