<svg xmlns="http://www.w3.org/2000/svg" viewBox="0 0 299.49 263.85"><defs><style>.cls-1{fill:#fff;}.cls-2{fill:#179d33;}</style></defs><title>Hannover </title><g id="Слой_2" data-name="Слой 2"><g id="Layer_1" data-name="Layer 1"><path d="M232,28.77l67.46-.07L267.43,72.16A132,132,0,0,1,67.5,235.06H0l32.08-43.48A132.11,132.11,0,0,1,35.24,66.42c.24-.43.5-.87.75-1.3s.45-.76.68-1.13A132,132,0,0,1,232,28.77M35.24,66.42c.47-.82.94-1.62,1.43-2.43-.23.38-.46.75-.68,1.13S35.48,66,35.24,66.42Z"/><path class="cls-1" d="M27,131.92A122.28,122.28,0,0,1,42.33,72.39c.47-.89,1-1.78,1.49-2.66s1-1.64,1.51-2.44A122.84,122.84,0,0,1,228.75,37.86l52.73,0-24.8,33.61A122.83,122.83,0,0,1,70.79,226H18l24.83-33.64A122.29,122.29,0,0,1,27,131.92"/><path d="M247.91,189.5a54.57,54.57,0,0,1-74.73,19.32c-26-15.3-36.09-51.83-13-83.51,2.33-3.2,58.06-78.35,58.06-78.35h45.27l-46.31,62.75a54.66,54.66,0,0,1,30.66,79.79m-28.82-27.29A18.13,18.13,0,1,0,201,180.34,18.13,18.13,0,0,0,219.09,162.21Z"/><path class="cls-2" d="M250.72,79.5,231,106.18c.63.33,1.24.68,1.85,1a63.48,63.48,0,0,1,29.6,40,115.3,115.3,0,0,0,1-15.3A113.3,113.3,0,0,0,250.72,79.5Z"/><path class="cls-2" d="M37,117.66a114.08,114.08,0,0,0,11.84,66.59L68.2,158c-.62-.34-1.23-.69-1.84-1A63.51,63.51,0,0,1,37,117.66Z"/><path d="M51.64,74.34A54.58,54.58,0,0,1,126.37,55c26,15.3,36.09,51.84,12.95,83.51-2.34,3.2-58.06,78.36-58.06,78.36H36L82.3,154.13A54.63,54.63,0,0,1,51.64,74.34m28.82,27.29A18.13,18.13,0,1,0,98.59,83.5,18.13,18.13,0,0,0,80.46,101.63Z"/><path class="cls-2" d="M149.78,18.21a113.16,113.16,0,0,1,64,19.69c-.6.8-18.67,25-34.34,46-5.89,7.92-12.95,17.49-18.28,24.69C163.85,85.09,152.7,60,131,47.19A63.45,63.45,0,0,0,82,40.6a113.21,113.21,0,0,1,67.77-22.39"/><path class="cls-2" d="M149.82,245.62a113.13,113.13,0,0,1-64-19.69c.59-.8,18.66-25,34.34-46,5.88-7.91,13.09-17.77,18.42-25-2.71,23.53,8.3,48.92,30,61.71a63.48,63.48,0,0,0,49,6.6,113.22,113.22,0,0,1-67.78,22.39"/></g></g></svg>