<svg xmlns="http://www.w3.org/2000/svg" viewBox="0 0 300 300"><defs><style>.cls-1{fill:#fff;}.cls-2{fill:#005ca9;}</style></defs><title>Hertha_Berlin</title><g id="Слой_2" data-name="Слой 2"><g id="Слой_1-2" data-name="Слой 1"><g id="Ebene_1"><circle class="cls-1" cx="150" cy="150" r="150"/><circle class="cls-2" cx="150" cy="150" r="144.24"/><circle class="cls-1" cx="150" cy="150" r="111.78"/><circle cx="150" cy="150" r="101.4"/><circle class="cls-1" cx="150" cy="150" r="94.35"/><path d="M88.67,92.11a1.48,1.48,0,0,0,.78,1.27C112.13,87,133.59,90.93,154.39,96c10.56.86,22-2.56,32.87-3.18,9.35,0,18.79-1,27.57,1.44,3.75,3.54,5,8.68,6.94,13.38,3.5,9.94,6.27,21.51,3.57,31.45.24,1.23,1.72,1.54,2.29,2.55,8.24,11.25,6.62,27.12,4.87,39.64-.71,3.28-1,6.63-2.21,9.78-18.22-12.16-41.73-12-62.48-3-13.48,2.92-24.69-5.14-37.77-4-6.19,1.58-14,1.52-18.29,6.25l5.09,18.9c5.6,2.27,13.43,2.54,16.47,9a26.26,26.26,0,0,1,.55,11.26,3.32,3.32,0,0,1-3.19,1.29c-3.84-3.22.86-9.44-4-12.46a15,15,0,0,0-7.66-2.47,107,107,0,0,0,4.61,18.32,2.76,2.76,0,0,1-2.11,1.83,3.79,3.79,0,0,1-3.08-.82L113,214.39c-4.42-1.6-9.79-4.6-12.1-8.78-2.67-6.81.79-12.86,4.88-18.37L83.28,102.43c-2.34-.52-5.92-.87-6.66-3.87a5.62,5.62,0,0,1,1.85-6.26c3-1.41,7.47-2.72,10.2-.19Z"/><path class="cls-1" d="M108.63,176.29l-7.94-29.7-9.78-37.2-.5-1.84C101.93,126.84,107.81,152.83,108.63,176.29Z"/><path class="cls-1" d="M110.67,207.14c-2.16-1.07-4.91-2.56-5.33-5.09a10.14,10.14,0,0,1,2-6.81Z"/><path class="cls-2" d="M154.83,101.33c16.42-.5,33.51-4.12,49.6-3.22,2,.13,4,.27,6.07.47,6.4,10.19,10.94,24.71,9.16,37.09-16.15-2.69-34.17-.83-51.17,4.42-10.69,1.18-20-3.88-30.4-4.11-9.23.22-19-.19-28.07,3.29-4-13.89-8.41-27.52-17-38.35L90.91,99c22.13-7.3,43.31-1.77,63.92,2.3Z"/><path class="cls-1" d="M160.54,146.09c14.34,1.1,29.78-6,44.27-5.69,6.91.9,15.68-.5,19.81,6.92,5.16,11.55,3.18,23.67,1.78,34.93-17.77-8.35-39.28-7.91-58.3.05-14.66,3.37-26.8-6-41.37-3.25-4.37.56-8.63,2.13-12.79,3.39,1.5-11.88-1-24.49-3.1-37.08,17.07-5.26,34-3.61,49.7.73Z"/><path class="cls-2" d="M183,154.66c.7,6.67,3.65,12.6,4.27,19.28-.34,1-1.64.77-2.35.61-2.7-.83-5,3.06-7.44.55-1.84-2.56-2.73-6.35-1.66-9.33,1.21-2.62,5.45-3.45,4.28-6.81-.75-.37-1.74-.86-2.58-.17-1.11.81.05,2.16-.83,3-.67.43-2.11.71-2.36-.21-.27-2.94-.31-6.59,2.69-8.07C179.2,153.23,181.43,152.8,183,154.66Zm38.37-8.35c.53,2.36,2.7,5.45.79,7.54-2.93.65-1.44-4.35-4.61-3.36-2.73,4.79-.66,12,1.92,16.44a7.3,7.3,0,0,0,1.68,1.32c1.2,0,1.39-1.31,1.75-2.13a1.86,1.86,0,0,1,.2-1.69,2.33,2.33,0,0,1,2.33.82c.8,3.74,1.44,8.17-2,11-4.3.91-5.67-3.83-7.53-6.46-3.21-7.3-5.06-16.81-1.83-24,1-1,2.52-2.06,4-1.53C219.27,144.77,220.69,145.16,221.36,146.31Zm-14.1-1.38c1.49,1.88,2.66,4.42,2.09,6.92a2.16,2.16,0,0,1-1.77.87c-1.46-1-1.25-4.54-3.72-3.39a2.23,2.23,0,0,0-.73.89c1.48,8.39,12.68,11.74,10.06,21.37-1.22,2.18-3.61,2.95-6.07,3a9.13,9.13,0,0,1-3.53-2.38c-.62-2.05-1.44-4.73.41-6.36,3.83-1.42,1.63,6.48,5.49,3.26-.86-8.65-12.77-12.24-9.66-22,1.44-2.59,5-2.53,7.43-2.12Zm-10.54,1.16c1.55,3.73,1.1,7.56.36,11.07,2.33.44,3.77,2.48,4.68,4.47.41,4-.08,8-2.81,11.31-2.69.75-6,1.61-8.3.72-1.79-8-1.17-16.37-4.51-23.95a6.34,6.34,0,0,1-.34-3.67c3.55.58,8.11-3.67,10.92.05Zm-50.15,7.73a3.05,3.05,0,0,1,2-.91c1.54.59,1.58,2.38,1.61,3.65-2.35,2.55,4,6-.77,7.17-1.82-1.66.76-5.68-2.88-5.57C144,164.57,150.24,170,149,176.51c-.94.93-2.26-.08-3.08-.82-2.36-5.23-1.73-11.63-4.15-16.76-.29-1.89-1-4,.6-5.35C144,153,145.22,156.1,146.57,153.82Zm16.54-5.31c1.71,2.28,1,5.4,2,8.21,1.85.69,4.1-.79,5.84.44,1.62,6.41,2.54,13.48,4.19,19.67-.39,1-1.7.85-2.52.86-3.38-3.16-2.44-8.72-3.67-13.12a5.07,5.07,0,0,0-1.28-3.86c-.73-.31-1.15.6-1.56,1.2.41,5.53,3.84,11.66,2,16.8a12.78,12.78,0,0,1-1.83.58l-1-.69-5.38-28.41c.21-.86.22-2,1.18-2.4A1.88,1.88,0,0,1,163.11,148.51Zm-26.17,2.69c3.44,3.07,3.88,8.82,3.21,13.06-.83,1.5-3.77.21-4,2.35.34,1.73.63,3.62,2.33,4.26,1.9-1-.56-6.32,3.14-3.83,1.13,2.33.62,4.74.15,6.93a6.64,6.64,0,0,1-4.44,1.38c-3.28-.7-3-4.41-4.18-6.88a74.91,74.91,0,0,1-1.41-15.35,3.76,3.76,0,0,1,1.14-1.8,7,7,0,0,1,4.09-.12Zm17.41-3.53c1.25,1.85,1.44,4.35,2.18,6.6,1.09,1.81,4.19,1.58,3.53,4.33.09,1.62-2.24,1.55-2.64,3,0,5.46,1.54,11.37,4.8,15.44.05,1,1.57,2.32.24,3.17-1.35,0-2.88.56-4.13-.09-4.06-5.12-3.51-13.07-4.84-19.54-1.28-.8-3.31-1.23-2.65-3.23.44-1.21,1.82-1,2.26-2.23.17-2.58-1.83-5.55-.26-7.87a1.19,1.19,0,0,1,1.51.45Zm-35.74-.38,1.45,7.42c.9.42,2,.87,3,.09,1.23-2.56-.67-5.78-.55-8.64.87-1.29,2.56-.65,3.92-1l.52.8c2,9.62,3.49,19.06,5.19,28.59-.59.79-1.83.58-2.67.89l-1.46-1c-1-5-2.16-10-3.27-14.91-.82-1.12-2.29-.23-3.21,0l-1,1.47,2.86,14.69c-.8,1.28-2.42.62-3.56.91l-1.23-2.45c-1.43-8.91-4.33-17.7-4.6-26.39C115.26,147,117.28,145.83,118.61,147.29Z"/><path class="cls-1" d="M136.65,157a10.41,10.41,0,0,1-.15,3.1c-1.44-.91-.44-2.68-.59-3.85Z"/><path class="cls-1" d="M192.91,149.52c.44,2.3,1.46,5.25-.57,7.06-1.65-1.55-1.39-4.44-1.28-6.55C191.38,149.37,192.36,149.4,192.91,149.52Z"/><path class="cls-1" d="M196.44,161.17c.91,2.36,1.22,5.14-.8,7a1.8,1.8,0,0,1-1.62-.28c-.34-2.48-1.85-5.63.74-7.32.63-.2,1.16.22,1.68.57Z"/><path class="cls-1" d="M181.93,169.6l-1,1.46c-1.22-.14-.95-1.84-1-2.71.43-.84.37-1.95,1.29-2.58C182.68,166.53,181.45,168.27,181.93,169.6Z"/><polygon class="cls-1" points="36.8 84.73 30.68 80.76 28.01 84.88 43.85 95.17 46.52 91.05 40.03 86.84 43.89 80.89 50.39 85.11 53.06 80.99 37.22 70.7 34.54 74.82 40.66 78.79 36.8 84.73"/><polygon class="cls-1" points="58.25 52.17 55.26 49.28 47.8 57.01 61.39 70.14 68.86 62.4 65.86 59.51 61.81 63.71 59.46 61.45 63.31 57.47 60.32 54.58 56.47 58.56 54.2 56.37 58.25 52.17"/><path class="cls-1" d="M83.16,41.61a5.09,5.09,0,0,0,.68-6.72c-2.14-3.42-5.48-3.43-8.65-1.45L69,37.33l10,16,4.16-2.6-3.85-6.16,0,0,7.79,3.71L92.3,45Zm-8-3.7.41-.25c1.36-.85,3-1.55,4.13.2s-.28,3-1.64,3.8l-.4.25Z"/><polygon class="cls-1" points="105.3 23.62 109.09 22.16 107.6 18.28 95.44 22.95 96.92 26.83 100.71 25.38 106 39.13 110.58 37.37 105.3 23.62"/><polygon class="cls-1" points="129.79 20.64 128.9 13.41 124.03 14.01 126.33 32.76 131.2 32.16 130.26 24.48 137.3 23.61 138.24 31.3 143.12 30.7 140.81 11.95 135.94 12.54 136.83 19.78 129.79 20.64"/><path class="cls-1" d="M168.79,29.14l.81,3.41,5.2.63L170,13.57l-5.32-.66-9.51,17.87,5.17.63,1.69-3.1Zm-.86-3.89-4.06-.5L166.62,19h0Z"/><path class="cls-1" d="M212.51,40.1l.42.27c1.35.88,3.51,2,2.27,3.92-1.14,1.75-3.16.35-4.37-.45l-.53-.34Zm-2,8c2.9,1.89,6.45,2.63,8.6-.68,1.44-2.21,1.47-4.37-.61-6.14l0-.05a3.9,3.9,0,0,0,3.84-2.1c2-3,.79-5.34-2-7.17l-5.88-3.82L204.14,44Zm6-14.14.29.19c1.12.73,2.34,1.64,1.4,3.09s-2.13.8-3.22.09l-.47-.3Z"/><path class="cls-1" d="M248.2,55.73A12.81,12.81,0,0,0,245,50.51c-2.72-2.63-6.43-2.72-9.09,0s-1.64,4.62,0,7.39c.55,1,1.6,2.63.65,3.62s-2.21.52-3-.28a6.77,6.77,0,0,1-1.78-4.44l-4.26,1.39a11.51,11.51,0,0,0,3.28,6.16,8.28,8.28,0,0,0,5.09,2.45,6.41,6.41,0,0,0,4.94-2.3c2.12-2.2,1.59-4.57.23-7l-.64-1.14c-.42-.79-1.08-2-.31-2.81s2-.31,2.61.32a5.23,5.23,0,0,1,1.47,3.16Z"/><path class="cls-1" d="M267.64,80.58A11.66,11.66,0,0,0,266,76.3a10.2,10.2,0,0,0-6.48-4.36,9.86,9.86,0,0,0-7.31,1.43,9.21,9.21,0,0,0-4.34,6.43,10.46,10.46,0,0,0,1.53,7.46,13.61,13.61,0,0,0,3.1,3.16l4.93-3.21a5.62,5.62,0,0,1-4-2.45A4.9,4.9,0,0,1,255,77.67,5,5,0,0,1,262.09,79a5.32,5.32,0,0,1,.61,4.75Z"/><path class="cls-1" d="M77.72,256l.42.28c1.35.87,3.51,2,2.27,3.92-1.14,1.74-3.15.34-4.37-.45l-.53-.34L77.72,256Zm-2,8c2.9,1.88,6.45,2.63,8.6-.69,1.44-2.21,1.47-4.37-.61-6.14l0,0a3.92,3.92,0,0,0,3.84-2.1c2-3,.79-5.35-2-7.18l-5.88-3.82L69.35,259.91,75.69,264Zm6-14.14.29.19c1.12.72,2.34,1.64,1.4,3.09s-2.13.79-3.22.09l-.47-.3Z"/><polygon class="cls-1" points="113.29 266.39 114.64 262.45 104.48 258.96 98.33 276.82 108.49 280.32 109.84 276.38 104.32 274.48 105.39 271.4 110.62 273.21 111.98 269.27 106.74 267.47 107.77 264.49 113.29 266.39"/><path class="cls-1" d="M138.09,279a5.08,5.08,0,0,0,4.75-4.8c.5-4-2.1-6.11-5.8-6.57l-7.29-.89-2.3,18.75,4.87.6.89-7.21h0l3.71,7.78,6.07.75ZM134.17,271l.47.06c1.59.19,3.34.71,3.09,2.75s-2.07,2.12-3.66,1.92l-.48-.06Z"/><polygon class="cls-1" points="163.67 267.68 158.8 268.27 161.1 287.03 171.82 285.71 171.31 281.58 165.47 282.3 163.67 267.68"/><polygon class="cls-1" points="188.79 261.93 184.07 263.28 189.28 281.44 194 280.09 188.79 261.93"/><polygon class="cls-1" points="212.94 272.75 217.2 270.29 211.41 260.27 211.45 260.24 225.03 265.77 229.28 263.32 219.84 246.95 215.58 249.41 221.36 259.41 221.32 259.44 207.75 253.93 203.5 256.39 212.94 272.75"/></g></g></g></svg>