<svg xmlns="http://www.w3.org/2000/svg" xmlns:xlink="http://www.w3.org/1999/xlink" viewBox="0 0 300 300"><defs><style>.cls-1{fill:none;}.cls-2{clip-path:url(#clip-path);}.cls-3{fill:#0073cf;}.cls-4{fill:#fff;}</style><clipPath id="clip-path" transform="translate(0)"><circle class="cls-1" cx="150" cy="150" r="150"/></clipPath></defs><title>Honduras</title><g id="Слой_2" data-name="Слой 2"><g id="Слой_1-2" data-name="Слой 1"><g class="cls-2"><rect class="cls-3" width="300" height="300"/><rect class="cls-4" y="100" width="300" height="100"/><polygon class="cls-3" points="153.74 144.85 150 133.33 146.26 144.85 134.15 144.85 143.94 151.97 140.2 163.48 150 156.37 159.8 163.48 156.05 151.97 165.85 144.85 153.74 144.85"/><polygon class="cls-3" points="223.54 136.82 233.33 129.7 243.13 136.82 239.39 125.3 249.18 118.18 237.07 118.18 233.33 106.67 229.59 118.18 217.48 118.18 227.28 125.3 223.54 136.82"/><polygon class="cls-3" points="237.07 168.18 233.33 156.67 229.59 168.18 217.48 168.18 227.28 175.3 223.54 186.82 233.33 179.7 243.13 186.82 239.39 175.3 249.18 168.18 237.07 168.18"/><polygon class="cls-3" points="66.67 106.67 62.92 118.18 50.82 118.18 60.61 125.3 56.87 136.82 66.67 129.7 76.46 136.82 72.72 125.3 82.52 118.18 70.41 118.18 66.67 106.67"/><polygon class="cls-3" points="70.41 168.18 66.67 156.67 62.92 168.18 50.82 168.18 60.61 175.3 56.87 186.82 66.67 179.7 76.46 186.82 72.72 175.3 82.52 168.18 70.41 168.18"/></g></g></g></svg>