<svg xmlns="http://www.w3.org/2000/svg" viewBox="0 0 253.97 297.4"><defs><style>.cls-1{fill:#1b1204;opacity:0.24;}.cls-1,.cls-2{isolation:isolate;}.cls-2{fill:#291c07;opacity:0.95;}.cls-3{fill:#f5a12d;}.cls-4{fill:#fff;}.cls-5{fill:#e19429;}.cls-6{fill:#f4a12d;}.cls-7{fill:#010000;}.cls-8{fill:#010100;}.cls-9{fill:#de9229;}.cls-10{fill:#f3a02d;}.cls-11{fill:#f4a02d;}.cls-12{fill:#020100;}</style></defs><title>Hull_City</title><g id="Слой_2" data-name="Слой 2"><g id="Layer_1" data-name="Layer 1"><g id="_1b12043c" data-name="#1b12043c"><path class="cls-1" d="M0,1.22C.05.81.12.41.17,0L.2.33C.29,1.61.28,2.9.26,4.18q0,86.23,0,172.45A21.81,21.81,0,0,1,0,174.21Q0,87.72,0,1.22Z"/></g><g id="_291c07f1" data-name="#291c07f1"><path class="cls-2" d="M.17,0Q124.56.15,249,.05a31.05,31.05,0,0,1,5,.17l-.35,0a32.85,32.85,0,0,1-5,.14Q124.43.34.2.33Z"/></g><g id="_000000ff" data-name="#000000ff"><path d="M.2.33q124.23.06,248.46,0a32.85,32.85,0,0,0,5-.14c.07,1.21.09,2.43.07,3.65q0,86.06,0,172.1c-.08,18.47-4.47,37.43-15.33,52.64-8,11.46-19.18,20.38-31.19,27.39-15.07,10.29-32.32,16.58-48.95,23.81-11,4.77-22,9.94-31.27,17.57-7.35-6.08-15.85-10.55-24.47-14.55-16.26-7.48-33.31-13.37-48.81-22.44-3.47-2-6.74-4.36-10.21-6.37-14.31-8.75-27-20.87-34.27-36.14C3,205.11.33,190.79.25,176.63Q.3,90.41.26,4.18C.28,2.9.29,1.61.2.33M15.05,14.24q0,76.14,0,152.28c0,6.4-.16,12.82.53,19.19,1.25,13,5.54,26,13.61,36.47,6.54,8.61,15.21,15.35,24.48,20.79,15.43,9,32.41,14.92,48.61,22.35,8.69,4,17.27,8.51,24.67,14.64,11.21-9.16,24.72-14.78,37.92-20.41,16.2-6.87,32.88-13.45,46.89-24.36a68.59,68.59,0,0,0,18.13-20.93,74.33,74.33,0,0,0,8.5-29.14c.61-6,.45-12,.47-18V14.24Z"/><path d="M109.63,38c2.42-2.57,6.24-2.55,9.5-2.5,8.28.61,16.49,2.31,24.82,1.94a23.5,23.5,0,0,1,1.69,2.15,23.2,23.2,0,0,1-8.46.78c-.91,0-2-.18-2.75.4-.4,1-.61,2-1.1,2.94,1.23.67,2.68.65,3.95,1.19a7.39,7.39,0,0,1,3.59,6c.87,1.18.54,2.87,1.71,3.84.87.73.67,1.91.61,2.91a10.34,10.34,0,0,1,1.48,2.16,3.17,3.17,0,0,1-2.42,0c-2.39-1.11-5.36-.24-7.48-2.07a11.25,11.25,0,0,1,1.27-1.8c-1.68-1.05-3.5-1.87-5.09-3.07a7.19,7.19,0,0,1,2.2-1.75,61.78,61.78,0,0,1-7.05-4.71c.74-2.22,3.46-1.64,5.27-1.75-1.26-1-2.46-2.07-3.65-3.14-3.31-.69-6.48-1.88-9.76-2.67C115.22,38,112.35,38.74,109.63,38Z"/><path d="M104.18,38.32a4.66,4.66,0,0,1,2.95.1c-.72,1.67-1.15,3.71-2.79,4.75-2.62,1.41-5.7,1-8.55,1.54-1.3,0-1.94,1.5-3.26,1.48-4.22.28-6.84,5-11.24,4.49l-.62-1.19A69,69,0,0,1,104.18,38.32Z"/><path d="M146.94,38.48c5.88.76,11.52,2.76,17.06,4.81a39.71,39.71,0,0,1,5.1,2.64c1.35.77,3,.5,4.38,1.17,2.68,1.24,5.39,2.44,8,3.74-.69.64-1.44,1.62-2.51,1.39-2.25-.46-4.4-1.32-6.62-1.91,1.7,2.5,4.26,5.54,7.66,4.69,7.45-1.67,14.56-4.63,22.07-6,2.38-.46,5.09-.41,7.09,1.14,2.56,2,3.48,5.37,3.56,8.47,0,3.36-.22,6.71-.28,10.07a2,2,0,0,0,.66,1.47c2.94,3.47,6.42,6.53,8.79,10.45.55,1.21,1.32,3.83-.72,3.86a30.54,30.54,0,0,1,3.54,3.47l-.94,1a26.72,26.72,0,0,1,4.52,4.56l-1.29,1.06a27.26,27.26,0,0,0,4.28,3.52c-1.35.78-2.93.18-4.18-.51a61,61,0,0,1-5.76-4.25l-.49.47a13.7,13.7,0,0,1,1.61,3c-2.44.49-3.68-2-5-3.56-.81-1.14-1.81-2.23-1.95-3.68a15.45,15.45,0,0,0,3-1.92c-1.67-1.55-4.75-2.47-4.87-5l1.91-.53a35.52,35.52,0,0,0-6.5-2.35c-.79,1-1.64,2-2.48,3,1.66.84,3.4,1.54,5,2.49a5.32,5.32,0,0,0,2,4.07,3.8,3.8,0,0,1-3.1,0c.58.79,1.16,1.58,1.71,2.4-1.55.56-3.08-.21-4.59-.49a31.63,31.63,0,0,0,5.23,4.12c-.3.49-.61,1-.93,1.45.44.7.84,1.42,1.24,2.15-.65.05-1.3.08-1.94.14.54.48,1.1,1,1.64,1.46a24.94,24.94,0,0,1-2,1.57,25.13,25.13,0,0,1,3.9,5c-1.46.35-3.06.17-4.33,1.09-1.23.74-2-1-2.75-1.72l-1.06.41a9.25,9.25,0,0,0,3.19,3.27c.23-.31.47-.61.71-.92,1.89.85,2.91,2.81,3.58,4.66a3.28,3.28,0,0,1-3.26-1.3L210,113.7c1.59,2.12.07,4.77.68,7.11a74.88,74.88,0,0,1,1.58,7.69,4,4,0,0,1-2.74-2.07c-.68-1.86-.4-4-1.37-5.72a5.53,5.53,0,0,1-2.95,1c.08,3.42-.95,7.22.76,10.36a4.58,4.58,0,0,1,2.6-1.06,13.58,13.58,0,0,1-.21,4.08c-.62,1.08-2.07,2.31-3.34,1.48a5.65,5.65,0,0,1-2.58-2.44c-.5-1.51.15-3.1-.08-4.64a26.21,26.21,0,0,0-1-3.79l-.81.51c-1.27-2.25-.18-4.72.63-6.92l-.68-.57c-2.25.47-1.93,2.82-1.53,4.53l-.59.46c-1.43-3.44-1-8.08-4.63-10.21a21.35,21.35,0,0,1,1.1-6.78c.73-1.45,2.87-3,4.17-1.29-.2-2.21-1.37-4.14-2-6.22l1.93-.37c.8,1.44.89,3.15,1.78,4.55,1.48-4,.38-8.17.48-12.25a7.69,7.69,0,0,0-1.08-3.9,20.31,20.31,0,0,0-2.48,2.24c-.71.82-.16,1.93-.08,2.87-1.62.11-2.56-1.39-3.71-2.26-2.34-1.61-.26-5.43,2.07-5.7,4.93.51,8.72-3.62,11.05-7.46,2.21-3.49,2.3-7.72,2.9-11.68.59-3.69.45-7.7-1.44-11a6.43,6.43,0,0,0-9.24-2.06l1.44,1.26c-1.28,2.29-3.93,2.93-6.17,3.87-2.18.77-2.94,3.48-5.36,3.83-.44,1-.65,2.22-1.74,2.64a21.4,21.4,0,0,1-4.43.92c.89,1.23.81,3.75,2.78,3.72,3.07,0,5.24-2.42,7.69-3.9a7.11,7.11,0,0,1,7.33-.44c-1.18,1.41-3.27.56-4.6,1.7-1.21,1-2,2.45-3.43,3.08s-1.32,2.23-2.07,3.29a3.23,3.23,0,0,1-2.23-.06c-1.84-.7-3.77,0-5.66-.15s-3.25-2.24-5.32-2.19c-1.75,0-2.8-1.66-4.23-2.41-1.92-.45-4.21-.37-5.5,1.35-1.41,0-2.82-.11-4.23,0,1,.51,2.15.83,2.62,1.9A73.41,73.41,0,0,1,170.22,79l-.85,1c.38.61.77,1.2,1.15,1.8-.61.52-1.25,1-1.88,1.5-1.48-1.93-2.77-4-4.09-6a20.58,20.58,0,0,1-2.48,1.14c.08.35.17.7.26,1a2.48,2.48,0,0,1,2.95-.73c-.16,1.3-1.1,2.8-.18,4a20.46,20.46,0,0,0,3.82,3.37c-.75.4-1.52.74-2.29,1.11,1.4.54,3.27.55,4.05,2,1.25,2.19,2.48,4.39,3.91,6.48a3.67,3.67,0,0,1,.44,2c-2.8.44-3.91-2.88-5.54-4.52a4.12,4.12,0,0,0,1.8,4c2,1.17,4.25,2.27,5.09,4.58-2.2.6-4.09-1.16-6.08-1.81-2.32-1.54-4.58,1.11-5.6,3,.18,1.62,1.81,2.92,1.46,4.7A15,15,0,0,0,167,116a43.1,43.1,0,0,0,.48-5.32c0-1.65-.95-3.17-.89-4.82.67-1.18,1.54-2.25,2.3-3.38,1.46-.43,2.71.77,4.05,1.13s1.84,1.64,2.45,2.69a4,4,0,0,1-3.32-.32c-1.23,1.61-1,3.69-1.06,5.59s-1.09,3.8-1.49,5.74c-.07,1.65.9,3.16.9,4.8a1.92,1.92,0,0,1-2,1.63c-.27-.37-.54-.74-.82-1.1a8.5,8.5,0,0,0,.51,3.24,3.12,3.12,0,0,1-1.94,3.64c0,.47.09.94.14,1.41.13.13.38.39.51.51l2.51,0c.65-2.17.52-5.92,3.62-5.91,1.85-2.74.89-6.13.5-9.14.47-1.46,2.37-.39,3.47-.37.1,2.39-1.13,5.19.56,7.26.36-.47.85-.94.71-1.58-.19-2.39-.69-4.74-.91-7.12-.1-1.26.84-2.3.91-3.53-.22-1.69-1.44-3.18-1.23-4.94a9.36,9.36,0,0,1,2.4-4.72A3.82,3.82,0,0,0,183,102c.68,1.93,1,4,2,5.82.82-1.91-.41-4.52,1.44-6a33.62,33.62,0,0,1,2.43,5.54c.07,2.22-3.3,2.23-3.4,4.43-.42,4,.14,8.07.14,12.11a4.82,4.82,0,0,0,1.19,3.58l2.15,0c.32-2.33.31-4.81,1.64-6.86.63.56,2,1.34,1.23,2.3-1.08,1.3-.58,3.07-.62,4.61.6-.14,1.57,0,1.75-.77.39-1.81,0-3.66-.08-5.48.16-1,1.35-2,.44-2.95-1-1.09-.26-2.59-.13-3.86.71.29,1.48.63,1.64,1.47,2.49,7,4.54,14.38,4.36,21.89-.73,4.73.19,9.56-.63,14.28-.62,2.89.09,5.82.58,8.67-2.28-1.21-2.21-4-2.61-6.2-.32-.33-.85-.58-.81-1.11-.08-2.41,0-4.82,0-7.23-2.7-.95-1.37-4.19-2.61-6.11a15.38,15.38,0,0,1-2.47,2.3c-1.54-1.57-.16-3.78,0-5.61.24-2.34.61-4.88-.19-7.13-1.54,1.34-1.77,3.34-1.6,5.26a9.52,9.52,0,0,1-2.76-3.55,56.07,56.07,0,0,0-2.25,6.66c-.24.83.48,1.53.54,2.32-.26,1.4-.88,3-2.46,3.28-.31-.86-.6-1.73-.91-2.59a7.74,7.74,0,0,1-4.51,8.06c.42,1.91-1.08,3.38-1.58,5.11-.22,1-1.29,1.28-2.12,1.64-.35,1.2-.7,2.4-1.13,3.58-2.6.72-1.27,4.06-2.8,5.75-.54,0-1.07,0-1.6,0,.06-1.29,0-2.59,0-3.88a21.49,21.49,0,0,0-.51,6.29c.28,3.42,0,6.94,1.09,10.24a26.88,26.88,0,0,0,2.54,5c2-4.11,3.59-8.61,6.8-12,.36-.6,1.6-.86,1.73,0,0,1.9-1,3.65-1.67,5.38-2.26,5.22-5.57,10-8,15-2.1.63-2,2.85-2.38,4.62-.71-.63-1.84-1.22-1.81-2.29.71-2.23,1.71-4.72.76-7-.69-1.31,1.58-2.46.42-3.67-.64-.63-1.09-1.81-2-2-1.71,2.71,1.86,5.58.29,8.3a17.24,17.24,0,0,0-1.16,6.21c-.36.22-.72.46-1.08.69l-1.1-.33c0-2.22.31-4.44.52-6.65.18-1.36-.71-2.53-.87-3.85-.06-2.26.68-4.47.52-6.73-.58-1-1.74-1.8-1.9-3.06-.19-1.77.25-3.53.09-5.3a14.28,14.28,0,0,0-3.83,1.7c-.24.85-.5,1.7-.77,2.55h-1.58a21.9,21.9,0,0,1,0-4.72c-3.69.15-3.11-4.44-4.3-6.77-.79,1.8-1.08,3.93-2.56,5.33-1,.84-2.24,0-3.26-.24.2,2,1.28,3.77,1.68,5.74a19.08,19.08,0,0,1,1.43-1.27c2,1.55.94,4.37.82,6.48.13.15.4.42.53.57a39.12,39.12,0,0,1,2.5-4.7c1.55.2,1.34,2.22,1.68,3.37.15,1.19,1.36,1.63,2.37,1.85a67.06,67.06,0,0,0,0,8c1.9-2.13.68-5.09.38-7.56a23.56,23.56,0,0,1,1.86-7.32l1.67,0c1.89,4.38,1.16,9.24,1.73,13.84.22,2.54,1,5.19.07,7.68a29.38,29.38,0,0,0-3,2l-1.9-.22c-.27.63-.51,1.27-.74,1.92a19.4,19.4,0,0,1-5.62,1.35c.08-1.06.17-2.27,1.13-2.93,1.86-1.41,1.73-5.44-1-5.7a18.45,18.45,0,0,0-1.63-6.28c-.35,2.66,1.16,5.18.81,7.82-.76,1.83-2.86.33-4-.36-.17.81.1,1.84-.46,2.49-1.49.51-2.51-1.3-2.2-2.58a4,4,0,0,1,1.82-2.27c-.27-3.12-.26-6.27-.47-9.39a3.54,3.54,0,0,0-.64-1.7c-.29.33-.8.6-.75,1.12-.11,2.57.23,5.14,0,7.71-.66.12-1.48-.09-2,.35-.15.91-.19,1.83-.34,2.75-1.84-1.75-2.13-4.37-3.07-6.61-.88.78-2.95,1.8-3.37.09-.9-1.57.65-2.84,1-4.28a7.38,7.38,0,0,0-1.68-3.2c-.94,2.57-2.16,5.19-1.95,8h-1.72c.06-3.23.35-6.7-1.29-9.63-.45.78-.86,1.59-1.29,2.38-2.69-1.74-.79-5.4-1.34-8-.69-.12-1.51-.35-2,.28-1.41,1.45-1.88,3.49-2.63,5.31h-1.3c-.6-1.46.37-2.84.94-4.13,1.56-2.9,2.91-6.06,5.27-8.41,1.55-.09,2,1.7,2.15,2.92,2.89-.64,3.44-4.44,2.58-6.87a8,8,0,0,1-2.49-2c.37-1.87,1.58-3.42,2.16-5.22.44-.9-1.1-1.34-.79-2.23.62-1.22,1.82-2.08,2.23-3.42.63-1.79.1-3.69-.5-5.41-.43.41-.85.84-1.28,1.26l-1.46,0c-.34-2.94,0-5.9-.11-8.83a10.51,10.51,0,0,1-.9-5.29l-1.46-.09a27.24,27.24,0,0,0-.65,3.21l-.5.26c-2.5.89-4.12,3.09-5.51,5.23-.28,1.36-.1,2.84-.91,4.06-1.73,3.14-3.07,6.85-6.32,8.75a4.12,4.12,0,0,1-.77,4c-1.8,1.8-4.5,2.1-6.92,2.33,0,1,.07,2,.13,3-2.64,1.53-5.34-.84-7.27-2.48-1.09,2.62,1,5.31,1.87,7.73-1.35.51-2.4-.56-3.27-1.44-2.43-.1-4.87.15-7.28-.11-1.32-1-2.36-2.51-4.21-2.58-.08-4.3-6.19-3-7.35-6.52.87-.67,2-1.37,2-2.61.78-3.64-.15-7.3-1-10.85-.35-1.6-2-2.31-3.16-3.29.27-.84.51-1.68.7-2.53a16.61,16.61,0,0,1-1.38,1.73c-.89.37-1.93.08-2.84.38a2.88,2.88,0,0,0-.16,2.61c.67,2,1.54,4,2.07,6.1-5,.89-10.59-3-10.85-8.27a22.43,22.43,0,0,1-3.1-2.74c1.65-.65,4.27-.68,4.81-2.72-.33-2.39-2.49-3.94-3.94-5.7.89-1.17,2.87-1.62,2.41-3.45-1.52-.05-2.21,1.22-2.87,2.35-1,.31-1.84-.57-2.34-1.34-1.22-1.87-1.06-4.21-1.74-6.27-.39-1.4-2.23-2.2-1.77-3.85.5-2.69,0-5.89,2.11-8-1.54,0-2.32-1.3-3.05-2.44-.42,1.12,0,2.38-.28,3.47-2.32,2.42-1.81,6.09-1.18,9.09.18,1.45,1.43,2.34,2,3.58,0,.86-.72,1.64-.53,2.51.5.63,1.22,1,1.74,1.64.37,1.86-.7,4,.56,5.65.58,1,1.85,1.18,2.84,1.63a2.29,2.29,0,0,1,0,2,16.32,16.32,0,0,0-3.21,3.11c-1.71,2.61-2.14,5.77-3.39,8.59l-1.6,0a4.33,4.33,0,0,1,0-3,39.73,39.73,0,0,1,4.5-8.4l-.78-1.15c-1.87,1.62-3.62,3.37-5.38,5.11H45.69c0-2.61,2.71-4,4.12-5.86.56-.75,1.91-1.65,1.13-2.65-1-1-2.58-.2-3.53.52-4,3.16-6.48,7.68-9.54,11.63a22.85,22.85,0,0,1,3.42-7.39c2.11-2.42,4.91-4.18,6.76-6.84a4.24,4.24,0,0,0,.83-3.2c-.55-3.83-1.17-7.66-1.85-11.46,0-.93-1-1.22-1.7-1.6a55.5,55.5,0,0,0-9.28-3.42c-2.79-.85-5.65.33-8.48.11l1.93-1a65.69,65.69,0,0,0-6.73,0c2.56-2.43,6.31-1.26,9.41-1,2.33.54,4.61-1.06,6.9-.24-.27.44-.56.86-.85,1.28,2.85,1.08,5.69,2.18,8.52,3.32.77-1.31,1-3.61-.82-4.16-2-.24-4.06,0-6.09-.13.87-1.44,2.6-1.16,4-1.28-7-2.87-14.75-2.66-22.16-2.07,2.49-.68,5-1.16,7.58-1.6,4.46-.48,8.92,1.4,13.35.49a17.85,17.85,0,0,0-.76-1.87c.1-.19.29-.58.39-.76,2.11,1.56,3.83,3.71,6.2,4.89a3.37,3.37,0,0,0,2.44-2.27,3.72,3.72,0,0,0-1.34-2C47.2,95.32,44.3,94,41.84,92c3.86,0,6.61,3.21,9.62,5.17,3.32-2.51,3.63-7.3,3-11.09a19,19,0,0,1,2.29-12.72c1.14-1.31,2.59-2.46,3-4.27h1.21c-.15.48-.28,1-.43,1.44C59.85,73.29,58,76.11,59.16,79c.85,2.31,2.24,4.76,4.76,5.51,0,1.7-1.32,2.9-2,4.36,1.49-1.49,2.53-3.41,4.34-4.57l.27-1.4c1.71-.7,3.92-1.09,3.92-3.41,2.21-1.21,3.26-3.62,3.78-6-1,1.24-1.45,3-2.92,3.83s-2,3-3.73,3.36c-4.18.86-6.47-6.53-2.52-8.1,1.28.41,2,1.71,2.84,2.62.62-.4,1.24-.81,1.83-1.25A6.76,6.76,0,0,0,65.32,71c-1,.27-1.63,1.33-2.65,1.65a1.52,1.52,0,0,1-1.23-2.29c1-.91,2.37-1.06,3.59-1.48s2.55-.85,3.67-.11c.79.71.81,1.91,1.46,2.71a2.5,2.5,0,0,0,2.46.19c-.35-1.35-1.49-2.74-.74-4.16a30.55,30.55,0,0,1,5.78-9.06c.44-.63,1.15-.13,1.72,0a3.42,3.42,0,0,1-1.3,3.14c-1.29.87-.37,2.52-1,3.69s-1.42,2.08-2,3.17a5,5,0,0,0,2-.57l.68.26c-.13,1-.24,1.94-.31,2.92a11.54,11.54,0,0,0,2.87-3.79c.34-.86-1.33-1.31-.76-2.17s1.68-1.33,2.35-2.18c.74-1.06.57-2.54,1.47-3.52A9.37,9.37,0,0,1,87.84,57c.71,1.78-.63,3.36-1.08,5a12,12,0,0,0,1.75-1.74c.71,0,1.8.08,1.82,1a6.54,6.54,0,0,1-1.56,3.55c-1.09.74-2.57.78-3.49,1.81-1.8,2-1.68,4.93-3.46,6.89a7.22,7.22,0,0,0-2.5,5.89c2.42-1.93,2.43-5.32,4.29-7.64A38.11,38.11,0,0,1,87.86,67c.51,1.38-.3,2.68-.75,4-.4,1,.19,2-.23,3a17.71,17.71,0,0,1-2.34,3.71l1.63.51c-.41.72-.83,1.43-1.23,2.16,2.58-2.18,6-1.45,9.08-1.55l.9-1.11A12.6,12.6,0,0,1,93,77.29c-.5-1.68,1.77-2.3,2-3.79a3.45,3.45,0,0,1,2.27-2.59c.48,1.58,1.33,3.12,1.41,4.79a9.6,9.6,0,0,1-2.81,4,12.78,12.78,0,0,0-4.27,1.92c-1.17.92-2.35-.37-3.52-.57-1.85.47-3.16,2.18-5,2.56-1.35,0-1.52-1.63-2-2.58-1.52,2-3.48,3.81-4.13,6.27,1.36,0,2.71-.07,4.06-.11.2.83.51,1.86-.22,2.53-1.49,1.35-3.71.89-5.42,1.72-1,.86-.72,2.45-1.71,3.31-.73.61-1.76.5-2.64.65.38.67.9,1.6.23,2.27-1.09.86-3-.12-3.71,1.3-1.14,1.91-2.15,4.06-4.3,5.05-.23-.8-.43-1.6-.67-2.4-1.32,1.72-.27,4-1.31,5.85A6.33,6.33,0,0,0,60.6,111a4.25,4.25,0,0,0,4.59-2.57c.66-1.27,1.87-2.17,2.38-3.52-2,.07-2.37,2.61-3.5,3.9a1.94,1.94,0,0,1-1.93-.76,49.23,49.23,0,0,1,5-7.16c1.09-.58,2.39-.68,3.53-1.17a11.51,11.51,0,0,1,1.42,2.51c1.2-.93,2.6-1.67,3.45-3-.86-.15-2.31,0-2-1.34.77-2.06,2.41-3.65,3.76-5.34.16.7.31,1.4.48,2.1A3.53,3.53,0,0,0,80.46,92a7.76,7.76,0,0,1,5.45-.18c2.29.82,4.75.37,7.12.48l.81-1.15c-3.51-2.1-7.78-2-11.39-3.85a8.3,8.3,0,0,1,5.29-1.71c2.64.67,5.27,2.78,8.06,1.39,1.43-.36,1.07-2,1.24-3.1,4.67-1.33,4.76-7.51,8.9-9.46,1.24-.74,2.33.88,3.55.23,2.17-.59,4.77-2.87,6.72-.62-.54-.1-1.08-.18-1.62-.26-.9,1.08-2.14,2.19-2,3.75-.12,1.23.95,2,1.82,2.61,1.5-.72,1.46-2.41,1.5-3.84a4.57,4.57,0,0,1,2.69.2c2.75.82,5.6,3.6,8.5,1.92,1.86-1,3.78-2.76,3.87-5a17.7,17.7,0,0,0-1.76-2.74,5.67,5.67,0,0,1,4.27-1.55c1.75.45,2.69,2.19,3.8,3.47.23-1.69.29-3.48,1.17-5s1.94-3.15,2.13-5c1.62-1,4.45-2.69,5.81-.49.89,1.48,2.59,2,4.13,2.46a20.9,20.9,0,0,0-1.84-4.16c-1.28-1-2.88-1.5-4.2-2.47a26.34,26.34,0,0,1,3.67-1.33c-.13-1.12-.26-2.24-.32-3.37a20,20,0,0,1,5.89,3c1.49.59,3,1.18,4.43,1.89a15.26,15.26,0,0,0,4.29-2.56c-1.2-1.52-3.27-1.39-5-1.36.76-3.63-2.64-6-3.6-9.13l.9-.74c-2.3-1.15-4.8-1.82-7.14-2.86-.21-1-.46-2-.69-3m11.81,5.73c.81,5,7.07,6.06,8.45,10.76l-1.29.7a13.46,13.46,0,0,1,2.34,1.41c.33.79.17,1.78.88,2.4s-.06,1.83-.86,2.13c-1.6.65-3.34,0-4.94-.32.09.65.19,1.29.29,1.93a62.66,62.66,0,0,0,6.68,1c.51-.75,1-1.52,1.51-2.29q1,.24,2,.54c0-.71,0-1.73.91-1.83,2.09.1,4,1.9,6.13,1.1a38,38,0,0,0,6.55-3.47c-2.69.48-5.42,1.42-8.17.76-4.92-1.1-8.73-4.86-11.51-8.89a7.38,7.38,0,0,0-2.66-2.06c-.92-.58-1-1.94-2.08-2.35a42.69,42.69,0,0,0-4.27-1.56M155.5,63c-1,1.46-2.32,2.9-2.32,4.76-.11,1-1,1.63-1.53,2.39.56.77,1.47,1.56,1.24,2.62A8.92,8.92,0,0,1,151,75.09c1.56.3,3.38.84,4.6-.53,0-1.37,0-2.74,0-4.11a9,9,0,0,1-1.29-1.25c0-1.19,1.14-1.92,1.84-2.75-1.48-1.41.86-3.22,2.22-2.2.86.6,1.74.12,2.44-.47-1.66-.6-3.6-1.84-5.33-.79m-17.32,10.5a17.6,17.6,0,0,0-.1,3.08,1.76,1.76,0,0,0,2.17-.83,10.8,10.8,0,0,0-2.07-2.25m20.52.84a2,2,0,0,0,2.89-.34,6.47,6.47,0,0,0-2.89.34m-16.8,2.83a41.66,41.66,0,0,0,5,.67c.25-.66.51-1.32.75-2-1.88.57-3.95.44-5.73,1.31m11.75,3a3.71,3.71,0,0,1,1.75,3.12c1.28-.74,2.72-1.49,3.42-2.86,0-1.35-1.32-2.39-2.45-3-1.6-.3-2.08,1.64-2.72,2.7m-15.48-2a39.54,39.54,0,0,0-7.29,2.29c2,.2,4.59-1.3,6.23.47-.22.39-.44.79-.65,1.19A11,11,0,0,1,138.85,84c-1.39,1.59-3.58,1.86-5.33,2.87.56.65,1.13,1.3,1.67,2l-1,1,.75.65c0,1.86-2.08,1.62-3.35,1.87.64,1.16,1.58,2.11,2.27,3.22-.9,1.57-3,.53-4.3.29a9.39,9.39,0,0,1,.62,2.16c1.25.66,2.55,2.1,1.87,3.6-2.11,1-3.85-1.25-5.82-1.64-.93.17-1.65,1-2.65.94-3.58,0-7.17,0-10.75,0a18.58,18.58,0,0,0-4.77-4.38c-1.66-1.22-3.81-.59-5.71-.73-1.52,1.86-3.46,4.62-6.2,4-.88-1.56,1.35-2.91.64-4.66-1.19.36-2.48.9-3.71.35-2.14-.9-4.31.4-6.48.41-2-.19-2.93,2.41-5,2.11,0-.57-.08-1.14-.12-1.7-1.39.66-1.92,2.15-2.4,3.5s-2,1.28-2.65,2.38c-1.06,1.45-1.7,3.46-3.52,4.15-1.49.38-1.81,2.37-3.43,2.57.38,2.57-2,4.43-4.24,5.12-2,.36-4,.06-6,.19a3.5,3.5,0,0,0,4,2.19c3.3-.7,6.93-1.39,9.47-3.76,1.4-1.49-.68-2.81-1.51-3.91,1.15-.5,2.34.05,3.48.28a7.17,7.17,0,0,1,3.81-5.4A46.93,46.93,0,0,1,86.93,100c1.6.22,3.06-.59,4.6-.54.24,1.06.24,2.3,1.34,2.87-2.87.6-5.83.68-8.66,1.43-3.28,1.22-4.9,4.94-4.81,8.26-1.53.7-2.92-.77-4.21-1.38-.62,2.3.35,4.69-.47,6.95a16.81,16.81,0,0,1-9,10c0,.39,0,.78,0,1.16,8.09,2.05,16.27,3.8,24.52,5.09,3.76.56,7.84.89,11.37-.79,1.16-.49,2.3-2.26,1.21-3.28-1.16,0-2.31.14-3.48.11,0-.39,0-.78,0-1.17a45.44,45.44,0,0,1,5.23-3c1.85-1,3.18-2.71,4.78-4v-1.1c-2.56-.17-2.5-3-3.13-4.83l.46-.39a10,10,0,0,1,4.54,3.7c1-1.46,1.11-4,3.15-4.33,2,.11,3.74,1.26,5.71,1.5-1.44-1.34-3-2.68-5-3-1.12-.22-2.83-.74-2.41-2.24.61-1.13,1.86-.16,2.47.45,1,1.07,2.5,1.12,3.85,1.27a25.15,25.15,0,0,1,4.6,4.62l-.69.58c-2.37-.68-4.88,1.83-3.94,4.16,1.86,2.34,5.49,1.08,7.6,3.08,2.66,2.16,2.73,5.87,4.29,8.7,1,1.85,3.81,1.92,5.15.44s1.64-3.6,3.35-4.63c1.47-.71,2.43,1.24,1.82,2.41-.85,2.14-1.1,4.67-2.85,6.34-1.53,1.57-1.5,3.91-1.47,6,.07,2.26-.21,4.83,1.44,6.64,2.28,2.7,2.73,6.32,3.58,9.63.22-3.25.23-6.51.24-9.76.08-2,.27-4.35,1.88-5.79-.08-2.7-.56-5.39-.55-8.08.43-1.44,1.82-.71,2.68-.12-.43-2.3,1-5-.68-7-2.24-2.69-5.36-4.41-8.3-6.21-1.37-.86-1.76-2.55-2.69-3.78-2.79-3.9-7.08-6.43-11.53-8-1.81-.72-4.14-1.74-4.17-4a52.81,52.81,0,0,0,8.71-.26c1.82-.22,3.38.89,5.07,1.34,2,0,4.62-1,6,1,1.12,1.37-1.73,2.69-.27,3.84,1.73.67,3.94-.34,5.49,1a21.41,21.41,0,0,1,4.52,5.6c-.5.48-1.45.94-.9,1.75,1.19,2,.61,4.54,1.52,6.69a4.42,4.42,0,0,1,2.49-2.61c.08-1-.1-2.07.59-2.84,1.16-1,3-.27,4.15-1.24.67-1.12-.7-2.27-.33-3.44.39-1.58,1-3.08,1.46-4.64a14.1,14.1,0,0,1,1.83,2.57c1.43-1.91-1.35-4.29.76-5.83.9,1.25,2,3.34,3.85,2.26.1-.38.2-.76.31-1.14-1-1.59-.92-3.49-.92-5.29-1.86-1-4.33-1.36-5.45-3.33a24.43,24.43,0,0,1-1.9-6.83c-.28-1.42,1.47-1.61,2.38-2.14a5.74,5.74,0,0,1,.78-3.35c.7-1.42.05-3-.36-4.39-2.84-1-6.56-.87-8.79,1.33.27.42.54.83.8,1.25a12.3,12.3,0,0,1-2.4,2c1.4,1,1.61,2.67,0,3.57,0,.46,0,.92,0,1.39a11.72,11.72,0,0,1,2.55,1.68,11.46,11.46,0,0,1-1.7,2.76,13.09,13.09,0,0,1-3,.8l1,1.29c-1,1.19.13,2.27,1.19,2.82,0,.19,0,.57,0,.76a62.5,62.5,0,0,1-7.42,2.44c-2,.17-5.15-.5-4.81-3.09.87-.07,1.73-.08,2.6-.09-1.35-1.11-3.95-1.6-3.83-3.74a7.59,7.59,0,0,0,6.08-1.81c-.42-.51-.85-1-1.26-1.54l1.91-1c-.49-.54-1.33-1.15-.78-1.94,1-1.42-.46-3.28.85-4.52.64-.67-.19-1.4-.46-2,.74-1.1,1.73-2,2.5-3.08l-.89-1c1.4-1.27,1.09-3.18.52-4.77-1.34-1.17-3.11-2.39-5-1.89m-32.92.2c-.81,1.41-2.42,3.16-1.3,4.82,1.38,1.75,3.65,2.37,5.39,3.67-2.54,1.06-5.1,0-7.63-.43A13.08,13.08,0,0,0,96,89.38c1.47.22,2.66-.77,4-1.2,3.59.54,7.15,1.29,10.73,1.91,1.71.24,3.45.92,5.17.35,4-.74,8.3-2.65,9.77-6.72-.94-.82-2-2.13-3.41-1.65-2.82,1.25-5,4.29-8.33,4.07l-.57-.68a19,19,0,0,0,4.18-2.76c-2.13.38-4.29,1.28-6.46.58a6.25,6.25,0,0,1-4.61-4.84h-1.17M73.57,84.06c-.11.41-.18,1.43.52,1.09A11.09,11.09,0,0,0,76.43,81a9.66,9.66,0,0,0-2.86,3.11M67.5,95.56c1.45-1.73,2.39-3.8,3.74-5.6-1.12-1-.21-2.2.35-3.18-3.47,1.51-3.52,5.59-4.09,8.78m-12.57,1c2.35.11,2.82-2.56,2.71-4.37a22.42,22.42,0,0,0-2.71,4.37m8.57.68c1.79-.64,2.08-2.75,1.87-4.4a8.1,8.1,0,0,0-1.87,4.4m-8.75,7,2.24,0c-.92-2.27.67-4.28,1.68-6.18-2.7.78-2.89,4-3.92,6.16m5.54-3.18A3.51,3.51,0,0,0,62,98.29a4.54,4.54,0,0,0-1.66,2.76m4.78,22.25c.78,1,2.21.51,3.31.62a29.29,29.29,0,0,1-2.82-3.57c-.44.87-1.25,2-.49,3M194,133.75c.54,1,1,2.11,1.54,3.16a35.21,35.21,0,0,0,0-10.25c-.44,2.4.61,5.27-1.52,7.09m-13.18,3.94c.44-.36.87-.73,1.3-1.11,0-2.84.16-5.72-.46-8.5-.94,3.1-.85,6.41-.84,9.61m-18.68-8.34a46.51,46.51,0,0,0-.66,4.84l-.75.22a4.82,4.82,0,0,1-1.24,3.43c-.49-1.13-.94-2.27-1.47-3.37-1.5,1.11-.82,3.14-1.57,4.65l-2.43-.4c-2,3.6,1.44,8.23-1.63,11.43a18,18,0,0,1-1.44-4.3c-.33,2.68-1.11,6.31-4.39,6.62,0,.39,0,.8,0,1.2,3.11-.25,6.19-.8,9.31-1a8,8,0,0,1,.89-3.2c2.25-1.62,5.42-3,6-6-.6-1.63-.89-3.39.32-4.84a15.51,15.51,0,0,0,3.14,2.19c-.27-2.38-.79-5,.7-7.08-.74-1-1.78-1.84-3.05-1.19-.59-1-1.11-2.14-1.71-3.19m5.78,4.93c.22,4.84.71,9.67,1,14.51.16,1.58.46,3.41-.65,4.75-1.38,1.47-1,3.67-1,5.51.56-2.07,2.17-3.72,2.5-5.84-.29-6.3-.65-12.59-.8-18.89l-1.11,0m-86.76.37c.72,2,3.33.94,4.43,2.41.76,3.22,1.87,6.94,5,8.6a15.76,15.76,0,0,1,2-8.68c-3.9-.22-7.64-1.41-11.42-2.33m-18,.92c-.69,3.44,3,5.1,5.47,6.51-.71-1.82-1.14-3.73-1.71-5.59-.7-1.42-2.51-.8-3.76-.92m83.46,5.06a40,40,0,0,1,.48,4.49c-.05,1.24-1.12,2-1.91,2.87,0,.61,0,1.23,0,1.84,1-.53,2.38-.84,2.85-2a11.74,11.74,0,0,0-1.44-7.23m26.5,4.47a9.93,9.93,0,0,0,0,5.05c.28-1.62,1.88-3.9,0-5.05m-37,12.78c-.21-1.54-.28-3.89-2.21-4.25-1,1.74,1.31,3,2.21,4.25m-3.77.26a9.44,9.44,0,0,0,.28,3.47c.52,1.68-.45,3.43.22,5.09A152.05,152.05,0,0,0,139,183.38c.3-2.67.25-5.35.52-8l1.86-.47c-.56-2.47-1-5-1.75-7.39-1.21,1.17.06,2.67.31,4,.47,1.26-1.27,2.93-2.34,1.76a13.08,13.08,0,0,1-2.84-6.12c-.5-1.32,1.29-2.29.72-3.57a20.91,20.91,0,0,0-3.11-5.4m-4.77,10.57a11.34,11.34,0,0,0,0,3.49c1-1,.53-2.39,0-3.49m3.87.47a7,7,0,0,0,1.41,5.86,37.89,37.89,0,0,0-1.41-5.86m33.18,8.56a8.06,8.06,0,0,0-.4-2.93C163.27,175.71,163.75,177,164.64,177.74Z"/><path d="M112.71,41c1.09.12,1.48,2,2.75,1.48a4,4,0,0,1,4,.25c-1.92,2.83-5.82,1.9-8.34,3.77-1.59,1.28-3.76-.44-5.31.89-1.83,1.49-4.34,1-6.41,1.87-2.91,1.42-5.61,3.33-8.73,4.28-1.53.52-2.25-1.76-1.19-2.63a4.58,4.58,0,0,0,1.94-3.49c2.39-.57,4.85-.14,7.26-.33A9.53,9.53,0,0,1,105,44c1.55-.13,2.27-1.75,3.57-2.36.69-.12,1.26.53,2,.56C111.28,41.92,111.89,41.25,112.71,41Z"/><path d="M140.13,41.65h5.12c.16.66.31,1.32.46,2,1.47.73,3.26,1.06,4.22,2.52,1.7,2.28,2.79,5.33,5.72,6.32-.28,1.1-1.17,2.4-2.49,2-1.84-.68-3.46-2.4-5.6-1.74-2.08-2.48-3.27-5.77-6.09-7.57a5.22,5.22,0,0,1-1.74-2C139.86,42.68,140,42.17,140.13,41.65Z"/><path d="M113.79,50.29a18.74,18.74,0,0,1,6.26-1.24c-.22.71-.45,1.41-.66,2.12a22.13,22.13,0,0,1,4.88-.06c1.48.57,1,2.44,1.06,3.68a3.16,3.16,0,0,1,1.27,3.86c1.2.5,3,.85,2.55,2.57-1.1.67-2.4,1.49-3.7.82-2.9-1.38-4.52-4.64-7.67-5.63-2.38-.72-4.68.69-6.91,1.34l-.88-.47a26.9,26.9,0,0,1,2-2.41c-1.6-.53-3.95.61-4.64-1.54A19.85,19.85,0,0,1,113.79,50.29Z"/><path d="M81.89,56.12c.91-2.6,3.48-4.1,6-4.87l.78.79c-.34,1.38,0,3.41-1.65,4-.8.46-1.33-.49-1.89-.91C84,55.41,83,55.78,81.89,56.12Z"/><path d="M71.51,54.42c.58-.76,1.62-.44,2.44-.52.64,1.59-.85,2.89-1.37,4.28-1,1.68-.44,3.64-.42,5.46-2.52,1.78-4.75-.85-6.71-2.15C67.55,59.2,69.34,56.64,71.51,54.42Z"/><path d="M89.67,58.27c.55-2.34,2.55-4.81,5.24-4-.39,2.17-2.23,3.5-3.77,4.87C90.58,59,89.52,59.12,89.67,58.27Z"/><path d="M100.51,59.16c1.74-.06,2.39-1.85,3.57-2.83.69.56,1.47,1.4.94,2.34A74.72,74.72,0,0,1,99,68.85c-.59,1-2,.87-2.72,1.71a18.35,18.35,0,0,1-2.58,2.16c-1.67-1.13.13-3.06.56-4.41-1.4-.28-3.46.55-4.27-1,1.21-1.48,2.72-2.71,3.79-4.3.47-.68-.39-1.15-.79-1.58,0-.46,0-.92,0-1.37,2-1,3.56,1,5.27,1.64C98.88,60.79,99.16,59.25,100.51,59.16Z"/><path d="M110.45,59.07a7.73,7.73,0,0,1,6.64-.49c2.26.73,2.3,4.77-.2,5.14-2.13.69-5.08.65-6.17,3-.85,1.7-1.89,4.11-4.23,3.67a7.7,7.7,0,0,1,.42-3.6A70.6,70.6,0,0,1,110.45,59.07Z"/><path d="M129.39,59.89c1.63-1,3.91-2.74,5.65-1.06-.26.51-.52,1-.8,1.54C132.63,60.2,131,60.08,129.39,59.89Z"/><path d="M118.43,67.6c2.08-1.35,4.62-.54,6.91-.39,2.1.52,2.27,3.21,2.1,5a1.93,1.93,0,0,1-2.56,1.91A83.12,83.12,0,0,1,116.46,70C116.19,68.64,117.46,68.11,118.43,67.6Z"/><path d="M168.52,72.79c.81-1.25,1.58-2.53,2.39-3.78a12.47,12.47,0,0,1,3.77,3.5q-1.19.27-2.37.51c.16.44.18,1,.6,1.28,1.19,1.18,3.1-.36,4.2,1.06A3.59,3.59,0,0,1,178,72.8c.62.35,1.24.72,1.85,1.1-.14,1.83.35,3.8-.52,5.51a53.82,53.82,0,0,1-2.71,4.72c.84,0,1.68,0,2.52-.09-.17,1.37-.25,2.76-.3,4.14-.78.12-1.57.2-2.36.27.26,1.58-.09,3.76,1.94,4.23.19-.46.38-.92.58-1.38,2.18-.1,3.2,2.16,4.4,3.6,1.58,1.75.84,4.23.52,6.3a2.8,2.8,0,0,1-3.6-1.42c-.59-1.63-1.55-3.34-3.41-3.69,1,1.07,2.34,2,2,3.67-1.62.93-3.26-.57-3.48-2.17-.38-3.3-.59-6.69-1.79-9.82-.56-1.45-2.31-2.91-1.11-4.5-.13-.88-.34-2.1.75-2.45s2.39-1.24,1.95-2.62c-.61-1.25-2.3-.8-3.42-.89A35.75,35.75,0,0,0,168.52,72.79Z"/><path d="M192.79,71.64c1.05,0,2.31-.24,3,.83a3.38,3.38,0,0,1-3.7,1.44A11.16,11.16,0,0,1,192.79,71.64Z"/><path d="M88.71,75.59a3.59,3.59,0,0,1,2.21-4C91.32,73.36,90.7,75.29,88.71,75.59Z"/><path d="M63.79,82.38c-2.62-.95-1.94-3.92-1.39-6A20.63,20.63,0,0,1,63.79,82.38Z"/><path d="M187.86,79.8c1.51-1.41,3.46-.14,5.18.06A3.74,3.74,0,0,1,189.82,83C188.37,82.71,187.75,81.11,187.86,79.8Z"/><path d="M184,85.45a4.51,4.51,0,0,1,3.31,5.84l-1.56,0C184.6,89.65,182.43,87.54,184,85.45Z"/><path d="M193.52,93.26c1.15,1.25,2.23,2.56,3.27,3.9.31.52.31,1.64-.51,1.63-1.45,0-2.35-1.38-3.23-2.35C193.2,95.38,193.35,94.31,193.52,93.26Z"/><path d="M214.09,95.25h1.17c2.12,2.71,5.41,3.93,8.27,5.64-2.66,2.56-6.28,0-8.24-2.13A3.54,3.54,0,0,1,214.09,95.25Z"/><path d="M155.35,98.85c1.22.39.22,2.05-.2,2.83-.62-.17-1.25-.31-1.87-.47A11.65,11.65,0,0,1,155.35,98.85Z"/><path d="M191.51,100.61c2.22.7,2.6,3.29,2.79,5.29C192.4,104.81,190.86,102.94,191.51,100.61Z"/><path d="M115.17,103.44c1.19-2.33,4.2-1.73,6.35-1.66,4.26.51,9.14.24,12.52,3.36a4.69,4.69,0,0,1-3.36.16c-2.94-.93-6.12.19-9-.72a6.33,6.33,0,0,0-5.7-.32Z"/><path d="M216.62,102.61c2.71-.23,4.62,2,6.56,3.58C220.71,107,216.58,105.64,216.62,102.61Z"/><path d="M95,103.93l.85.36c.31,1.92-1.31,3.23-2.45,4.51-1,1.25-2.91,1.06-3.82,2.39-.74.91-1.28,2.33-2.62,2.44-.93.13-1.38-.79-1.83-1.42.59-.93,1.23-1.83,1.91-2.7.6-.7.27-1.86,1.12-2.39C90.12,105.55,92.61,104.84,95,103.93Z"/><path d="M102.37,103.93l1.06,0c0,1,.7,1.93,1.82,1.61,1.9,0,4.76-1.82,5.86.56-2,2.51-6-.36-7.94,2.43,1.82,1.4,4-.9,5.89.23,0,.41,0,.83,0,1.24-.79,1-1.89,1.85-3.24,1.44a14.22,14.22,0,0,0-.67,2.72l.82.68c-1.48,1-3.16-.21-4.72-.33-1-1.66,1.11-2.83,2.21-3.68a4.22,4.22,0,0,0-4,.28c-.49-.37-1.05-.92-.69-1.59C99.81,107.56,101.3,105.88,102.37,103.93Z"/><path d="M22.09,108.74c.92-.94,1.92-2.1,3.38-1.9A3.22,3.22,0,0,1,22.09,108.74Z"/><path d="M151.71,111.37a6.85,6.85,0,0,1,3.88,2.51c-.2.47-.34,1.29-1,1.34C153.11,114.49,152.37,112.83,151.71,111.37Z"/><path d="M28.44,117.18a38.73,38.73,0,0,1,13.16-4.1c-.38.46-.74,1-1.38,1.12-5.58,1.56-10.62,4.46-15.86,6.86C24.84,119.06,26.77,118.05,28.44,117.18Z"/><path d="M84,113.21c1.59.63,1.26,2.45.12,3.37-.43,0-.86-.07-1.28-.15C82,115.26,83.24,114,84,113.21Z"/><path d="M96.67,117.09c.67-1.37,2.17-2.87,3.75-1.82C100.71,117.28,98.08,118.73,96.67,117.09Z"/><path d="M80.64,119.57a2.3,2.3,0,0,1,1.22-3.35C83.49,117.38,82,119.07,80.64,119.57Z"/><path d="M91.56,118a11.45,11.45,0,0,1,3.1-.13c.27.92.39,2.09-.5,2.72-1,.93-2.46.41-3.54-.15C90.57,119.48,90.6,118.39,91.56,118Z"/><path d="M124.21,118.49c.6-.21,1.32-.58,1.85,0a59.59,59.59,0,0,1,5.13,5.17c-.28.56-.88,1.37-1.52.71A38.39,38.39,0,0,1,124.21,118.49Z"/><path d="M129.78,118.1c2.58-.42,3.59,2.41,4.52,4.26-2,.22-3.62-1.17-4.65-2.71C129.26,119.17,129.67,118.6,129.78,118.1Z"/><path d="M101,123c-.5-2.21,1.7-3.42,3.6-2.87.15.72.62,1.61,0,2.24C103.71,123.45,102.15,122.84,101,123Z"/><path d="M84.75,122.92c.58-1.36,2.2-3.46,3.77-2.07C89.47,122.91,86.17,123.89,84.75,122.92Z"/><path d="M95.47,123c1-.74,2.28-.24,3.37,0-.54,2.17-2.62,3-4.67,2.54A4,4,0,0,1,95.47,123Z"/><path d="M88.71,125.53l2.5,0,.8.85c-.86.83-1.9,2.23-3.25,1.6C87.61,127.63,88,126.15,88.71,125.53Z"/><path d="M82.15,126.59a2.15,2.15,0,0,1,3.64.87C85,129.25,82,128.6,82.15,126.59Z"/><path d="M30.16,134.65c-.1-2.36,2.45-4.43,4.64-4.59C33.36,131.62,32.58,134.58,30.16,134.65Z"/><path d="M94.22,130.76q.78-.57,1.56-1.11c1.12.18,1.08,1.16,1,2.07a25.51,25.51,0,0,1-2.59.34C94.21,131.63,94.21,131.19,94.22,130.76Z"/><path d="M122.69,133.69a18.87,18.87,0,0,1,2.94,1.81c.62.95-.24,2-.38,2.94.19,1.31,1.44,2.22,1.57,3.53a48.86,48.86,0,0,1-1.54,4.71c-.2,1-1.32,1.21-2,1.7l1.71.18a3.32,3.32,0,0,1-1.07,2.6c-.86.81-.33,2.09-.75,3.07a24.28,24.28,0,0,1-2.87,2.68A22.86,22.86,0,0,0,122,158.4c-.86,1.77-2.29,3.2-3,5-.55,1.23.26,2.47.4,3.7a6.38,6.38,0,0,1-1.09,3.42,9.87,9.87,0,0,1-2.06-1.8,28.55,28.55,0,0,1-1.48,4.5,3.25,3.25,0,0,1,2.75-.22,6.59,6.59,0,0,1-6.69,6.11c-2.75.51-4.46-2.27-7-2.59-1.28,0-1.09-2-2.39-1.86-1.4-.5-2.3,1.21-3.65.86a11.69,11.69,0,0,1-5.9-2.56c-1.58.84-1,2.74-1.34,4.19-.33,1.09-1.67.61-2.44.38,0-1.28-.2-2.74.89-3.67-1.56-.44-3.29-1.11-3.69-2.89a18.76,18.76,0,0,0-4.22-.6,20.1,20.1,0,0,0-1.56-2c-.43.36-.85.74-1.27,1.12-1.39.33-2-1.13-1-2.06s-.11-2.21-.66-3.11c-.22,1.46-.81,3-2.44,3.31-.94-2.2,1.22-4,1.3-6.17-.76-2.28-2.78-3.89-3.67-6.13-.84-1.88-1.42-4.52.22-6.14,1.38-1.12,2.87.33,3.82,1.3,0,.4,0,.8,0,1.21l-1.71.1-.82-.09c-.33,3.1,1.76,5.75,4.12,7.49a38.11,38.11,0,0,0,18,6.85c-.54.58-1.12,1.12-1.71,1.65,3.53,2,7.94.76,11.07-1.45,4.16-3,6.71-7.68,8.69-12.3,1.29-2.83,1.5-6,2.73-8.84a57.36,57.36,0,0,1,6.55-11.46m-11,40c-.16.44-.31.89-.46,1.34,1.3.27,2.3-.6,3.06-1.54C113.44,173.55,112.57,173.62,111.7,173.67Z"/><path d="M187.31,136.23c.7.39,1.77.66,1.85,1.61.09,2.14,0,4.29,0,6.43a16.26,16.26,0,0,1,3,0c.15,2.66-.11,5.32,0,8l1.79-.24.84.87c-1.12,1.61-2.84,2.78-3.56,4.66-1.31,3.43-3.13,7.14-1.64,10.82-2.14.81-3.39-1.35-4.44-2.8-1.19.78-2.35,1.6-3.6,2.29,1.2-3.19-.14-6.38-.72-9.53l-1.39-.22c-.37-1.81.56-3.67-.22-5.42a7.56,7.56,0,0,1-2.53,2.34,19.88,19.88,0,0,1,0-3.45c1.06-1.44,2.72-2.27,4-3.48,2,1.33.35,3.8.75,5.71.72.28,1.43.59,2.13.91.29,1.26.56,2.53.91,3.78l1.73-1.71c-.86-.76-2-1.46-2.21-2.69.21-1.12,1.23-1.83,2-2.63v-4.58c-1.07,0-2.13,0-3.19,0-.4-2.11,1.9-3.06,2.83-4.61C186.6,140.39,186.69,138.22,187.31,136.23Z"/><path d="M33.46,148.12A7.87,7.87,0,0,1,36,144.19c.24,1.62-.68,3-1.47,4.33Z"/><path d="M177.35,155.5c1.25,1,1.54,2.67,1.89,4.16l1.19-.15c.87,3.47-.72,7-1.37,10.35a10.38,10.38,0,0,1-2.86-9.25A46.61,46.61,0,0,1,177.35,155.5Z"/><path d="M102.89,163.58c1.26-1.18,2.19-2.67,3.46-3.83.25,1.52.94,3.36-.26,4.66a8.1,8.1,0,0,1-8,2.19c0-.78,0-1.56,0-2.34C99.68,163.94,101.44,164.38,102.89,163.58Z"/><path d="M171.43,163.56a5.33,5.33,0,0,1,2.78-3.51,48.5,48.5,0,0,1,1.49,6.19l-1,.92a32,32,0,0,1-.16,5.36l-1.45.42a28.46,28.46,0,0,1-1.84,6.61,4.13,4.13,0,0,1-1.47-3.56c.5-3.23,1.51-6.37,2.15-9.58C172.2,165.41,171.53,164.52,171.43,163.56Z"/><path d="M76.05,172.77c.66-2.4,3.13-1.42,4.91-1.4,0,.53,0,1,0,1.58-.81.82-1.61,1.63-2.44,2.44A23,23,0,0,1,76.05,172.77Z"/><path d="M80.75,175.3c0-1.75,2.76-3.41,3.51-1.12C83.66,175.48,81.94,176.73,80.75,175.3Z"/><path d="M84.87,175.63c.62.27,1.7.3,1.59,1.23a11.78,11.78,0,0,1-2.15,5.4c-.69,1.15-2.41,0-2-1.19A21.43,21.43,0,0,1,84.87,175.63Z"/><path d="M73.15,177.89a1.74,1.74,0,0,1,2.38-.85c.66,1.26,0,2.7-.6,3.85,2.11-.07,1.4,2,1.11,3.28l-1.9-.09c.08-.6.17-1.18.27-1.77-.66.55-1.67,1.64-2.41.59C70.9,181.28,72.3,179.32,73.15,177.89Z"/><path d="M80.42,176.83c.62.26,1.45.29,1.8,1,.16,1.37-.73,2.54-1.34,3.69-.67-.39-1.59-.64-1.85-1.46C79,178.8,79.84,177.82,80.42,176.83Z"/><path d="M94.26,177.3a15.42,15.42,0,0,0,4.5,0c1.1,2.71-1.2,5.22-.48,7.94.22,1.14-.87,1.83-1.63,2.44-1.16-1.8-3.23-3.66-2.58-6A21.83,21.83,0,0,0,94.26,177.3Z"/><path d="M101.1,181.62c-1-1.47-.38-3.86,1.68-3.8l.76.83c0,1,0,2,0,3.08C102.78,182,101.72,182.42,101.1,181.62Z"/><path d="M88.45,178.53l1.82.05c.06,2.86-1,5.58-1.55,8.36-.18,2.2-4.28,1.27-3.43-.77C86.2,183.56,87.46,181.1,88.45,178.53Z"/><path d="M91.69,182.78a4.86,4.86,0,0,1,1.1.3,6.35,6.35,0,0,1,0,4.15c-.91,0-1.81,0-2.72,0A4.8,4.8,0,0,1,91.69,182.78Z"/><path d="M74.8,189.58c-.67-1.29,0-2.58.78-3.64l2.13.42C77.21,187.85,77.06,190.48,74.8,189.58Z"/><path d="M78.33,187.51c1.11-1,2.74-.6,3.93.05.1,1.72-.32,4.36-2.45,4.54C77.52,192.11,77.16,189,78.33,187.51Z"/><path d="M107.45,188.25l1.57,0c0,1.82,0,3.63,0,5.45a4.4,4.4,0,0,0-2.82,2c-.68,1-2,.53-3,.31,0-1.51,0-3,0-4.55.6-.34,1.22-.68,1.83-1,.49.44,1,.89,1.44,1.33A20,20,0,0,1,107.45,188.25Z"/><path d="M82.27,193.34c-.08-1.62,1-3,2-4.19l.9.44c-.1,1.71.39,3.59-.6,5.13A2,2,0,0,1,82.27,193.34Z"/><path d="M100,192c.52-.95,1.87-.65,2.5,0,0,1.45-.56,2.86-.64,4.32-.77.21-1.94.48-2.32-.47A5.22,5.22,0,0,1,100,192Z"/><path d="M92.67,196.51a3.76,3.76,0,0,1,2.52-3.8c1.22.58,1.58,2.09,2.27,3.16C96.27,197.12,93.85,198.54,92.67,196.51Z"/><path d="M99.81,212.49c.45-.37,1.38-.31,1.27.45.07,8.13-.4,16.26.16,24.38a36.56,36.56,0,0,0-6.45,0c.38-6.63.43-13.27.25-19.91a46,46,0,0,0-4.27,2.14q-.8-1.2-1.56-2.4A75.09,75.09,0,0,0,99.81,212.49Z"/><path d="M112.76,214a11.23,11.23,0,0,1,9.56.21c2.94,1.59,4.15,5.08,4.27,8.24.27,4.57-.91,9.59-4.49,12.7a12.43,12.43,0,0,1-12.28,2c.22-1.21.39-2.44.52-3.66,1.4,1.72,3.8,2.84,5.94,1.79,3.21-1.57,3.92-5.54,4-8.77-3.11,2.59-8.8,2.41-10.88-1.39-1.85-3.75-.71-9.24,3.33-11.08m3.8,1.12c-1.42.63-1.69,2.37-1.84,3.75-.09,1.85-.22,3.86.65,5.56a2.42,2.42,0,0,0,4.28-.31,12.54,12.54,0,0,0,.18-6.82C119.58,215.8,118.1,214.43,116.56,215.09Z"/><path d="M158.29,213.07a27.55,27.55,0,0,0,5.67,0c-.34,4.78-.34,9.58-.31,14.37q1.51-.1,3-.3a21,21,0,0,0,0,4.55c-1-.11-2-.19-3-.25a36.1,36.1,0,0,0,.3,5.88,30.69,30.69,0,0,0-5.83,0c.17-1.95.3-3.89.29-5.85a93.3,93.3,0,0,0-9.46.25c.13-1.57-.24-3.22.18-4.74,3.13-4.59,6.25-9.19,9.19-13.91m-6.68,14.33h6.73V217.35Q155,222.36,151.61,227.4Z"/><path d="M134.92,213.39c3-.61,6.64-.54,9.05,1.64,2.24,2.22,2.55,5.59,2.72,8.58.1,3.73.08,7.79-2,11-2.55,3.75-8.1,4-11.87,2.16-4-2.46-4-7.86-4.06-12,0-4.39,1.19-10.19,6.15-11.39m1.76,2c-1.36.79-1.5,2.56-1.71,4a92,92,0,0,0-.12,10.76c.13,1.69.16,3.55,1.19,5a2.3,2.3,0,0,0,3.86-.81c1.12-3.22.74-6.73.83-10.08-.09-2.57.1-5.27-.92-7.68A2.3,2.3,0,0,0,136.68,215.39Z"/></g><g id="_f5a12dff" data-name="#f5a12dff"><path class="cls-3" d="M15.05,14.24h223.8V167.11c0,6,.14,12-.47,18a74.33,74.33,0,0,1-8.5,29.14,68.59,68.59,0,0,1-18.13,20.93c-14,10.91-30.69,17.49-46.89,24.36-13.2,5.63-26.71,11.25-37.92,20.41-7.4-6.13-16-10.62-24.67-14.64C86.07,257.89,69.09,252,53.66,243c-9.27-5.44-17.94-12.18-24.48-20.79-8.07-10.45-12.36-23.42-13.61-36.47-.69-6.37-.5-12.79-.53-19.19q0-76.14,0-152.28M109.63,38c2.72.76,5.59.06,8.33.78,3.28.79,6.45,2,9.76,2.67,1.19,1.07,2.39,2.15,3.65,3.14-1.81.11-4.53-.47-5.27,1.75A61.78,61.78,0,0,0,133.15,51a7.19,7.19,0,0,0-2.2,1.75c1.59,1.2,3.41,2,5.09,3.07a11.25,11.25,0,0,0-1.27,1.8c2.12,1.83,5.09,1,7.48,2.07a3.17,3.17,0,0,0,2.42,0,10.34,10.34,0,0,0-1.48-2.16c.06-1,.26-2.18-.61-2.91-1.17-1-.84-2.66-1.71-3.84a7.39,7.39,0,0,0-3.59-6c-1.27-.54-2.72-.52-3.95-1.19.49-.93.7-2,1.1-2.94.78-.58,1.84-.36,2.75-.4a23.2,23.2,0,0,0,8.46-.78A23.5,23.5,0,0,0,144,37.42c-8.33.37-16.54-1.33-24.82-1.94-3.26,0-7.08-.07-9.5,2.5m-5.45.34A69,69,0,0,0,80.67,49.49l.62,1.19c4.4.48,7-4.21,11.24-4.49,1.32,0,2-1.45,3.26-1.48,2.85-.49,5.93-.13,8.55-1.54,1.64-1,2.07-3.08,2.79-4.75a4.66,4.66,0,0,0-2.95-.1m42.76.16c.23,1,.48,2,.69,3,2.34,1,4.84,1.71,7.14,2.86l-.9.74c1,3.18,4.36,5.5,3.6,9.13,1.73,0,3.8-.16,5,1.36a15.26,15.26,0,0,1-4.29,2.56c-1.44-.71-2.94-1.3-4.43-1.89a20,20,0,0,0-5.89-3c.06,1.13.19,2.25.32,3.37a26.34,26.34,0,0,0-3.67,1.33c1.32,1,2.92,1.47,4.2,2.47a20.9,20.9,0,0,1,1.84,4.16c-1.54-.5-3.24-1-4.13-2.46-1.36-2.2-4.19-.53-5.81.49-.19,1.86-1.25,3.42-2.13,5s-.94,3.3-1.17,5c-1.11-1.28-2.05-3-3.8-3.47a5.67,5.67,0,0,0-4.27,1.55A17.7,17.7,0,0,1,131,73.38c-.09,2.27-2,4-3.87,5-2.9,1.68-5.75-1.1-8.5-1.92A7.3,7.3,0,0,0,116.21,74c-1.95-2.25-4.55,0-6.72.62-1.22.65-2.31-1-3.55-.23-4.14,2-4.23,8.13-8.9,9.46-.17,1.11.19,2.74-1.24,3.1-2.79,1.39-5.42-.72-8.06-1.39a8.3,8.3,0,0,0-5.29,1.71c3.61,1.83,7.88,1.75,11.39,3.85L93,92.3c-2.37-.11-4.83.34-7.12-.48a7.76,7.76,0,0,0-5.45.18,3.53,3.53,0,0,1-2.69,2.68c-.17-.7-.32-1.4-.48-2.1-1.35,1.69-3,3.28-3.76,5.34-.32,1.32,1.13,1.19,2,1.34-.85,1.31-2.25,2-3.45,3a11.51,11.51,0,0,0-1.42-2.51c-1.14.49-2.44.59-3.53,1.17a49.23,49.23,0,0,0-5,7.16,1.94,1.94,0,0,0,1.93.76c1.13-1.29,1.46-3.83,3.5-3.9-.51,1.35-1.72,2.25-2.38,3.52A4.25,4.25,0,0,1,60.6,111a6.33,6.33,0,0,1,.67-3.55c1-1.81,0-4.13,1.31-5.85.24.8.44,1.6.67,2.4,2.15-1,3.16-3.14,4.3-5.05.76-1.42,2.62-.44,3.71-1.3.67-.67.15-1.6-.23-2.27.88-.15,1.91,0,2.64-.65,1-.86.75-2.45,1.71-3.31,1.71-.83,3.93-.37,5.42-1.72.73-.67.42-1.7.22-2.53-1.35,0-2.7.11-4.06.11.65-2.46,2.61-4.31,4.13-6.27.46,1,.63,2.57,2,2.58,1.87-.38,3.18-2.09,5-2.56,1.17.2,2.35,1.49,3.52.57a12.78,12.78,0,0,1,4.27-1.92,9.6,9.6,0,0,0,2.81-4c-.08-1.67-.93-3.21-1.41-4.79A3.45,3.45,0,0,0,95,73.5c-.26,1.49-2.53,2.11-2,3.79a12.6,12.6,0,0,0,1.93.35L94,78.75c-3.09.1-6.5-.63-9.08,1.55.4-.73.82-1.44,1.23-2.16l-1.63-.51a17.71,17.71,0,0,0,2.34-3.71c.42-1-.17-2,.23-3,.45-1.27,1.26-2.57.75-4a38.11,38.11,0,0,0-4.25,4.89c-1.86,2.32-1.87,5.71-4.29,7.64a7.22,7.22,0,0,1,2.5-5.89c1.78-2,1.66-4.94,3.46-6.89.92-1,2.4-1.07,3.49-1.81a6.54,6.54,0,0,0,1.56-3.55c0-1-1.11-1-1.82-1a12,12,0,0,1-1.75,1.74c.45-1.66,1.79-3.24,1.08-5a9.37,9.37,0,0,0-4.56,2.37c-.9,1-.73,2.46-1.47,3.52-.67.85-1.7,1.32-2.35,2.18s1.1,1.31.76,2.17a11.54,11.54,0,0,1-2.87,3.79c.07-1,.18-2,.31-2.92L77,67.88a5,5,0,0,1-2,.57c.62-1.09,1.43-2.06,2-3.17s-.26-2.82,1-3.69a3.42,3.42,0,0,0,1.3-3.14c-.57-.1-1.28-.6-1.72,0a30.55,30.55,0,0,0-5.78,9.06c-.75,1.42.39,2.81.74,4.16a2.5,2.5,0,0,1-2.46-.19c-.65-.8-.67-2-1.46-2.71-1.12-.74-2.5-.2-3.67.11s-2.62.57-3.59,1.48l.11-.36-1.07.51c.15-.48.28-1,.43-1.44H59.7c-.37,1.81-1.82,3-3,4.27A19,19,0,0,0,54.45,86.1c.64,3.79.33,8.58-3,11.09-3-2-5.76-5.2-9.62-5.17,2.46,2,5.36,3.3,7.73,5.39a3.72,3.72,0,0,1,1.34,2,3.37,3.37,0,0,1-2.44,2.27c-2.37-1.18-4.09-3.33-6.2-4.89-.1.18-.29.57-.39.76a17.85,17.85,0,0,1,.76,1.87c-4.43.91-8.89-1-13.35-.49-2.54.44-5.09.92-7.58,1.6,7.41-.59,15.15-.8,22.16,2.07-1.43.12-3.16-.16-4,1.28,2,.14,4.07-.11,6.09.13,1.79.55,1.59,2.85.82,4.16-2.83-1.14-5.67-2.24-8.52-3.32.29-.42.58-.84.85-1.28-2.29-.82-4.57.78-6.9.24-3.1-.29-6.85-1.46-9.41,1a65.69,65.69,0,0,1,6.73,0l-1.93,1c2.83.22,5.69-1,8.48-.11A55.5,55.5,0,0,1,45.33,109c.68.38,1.66.67,1.7,1.6.68,3.8,1.3,7.63,1.85,11.46a4.24,4.24,0,0,1-.83,3.2c-1.85,2.66-4.65,4.42-6.76,6.84a22.85,22.85,0,0,0-3.42,7.39c3.06-4,5.57-8.47,9.54-11.63,1-.72,2.52-1.56,3.53-.52.78,1-.57,1.9-1.13,2.65-1.41,1.89-4.1,3.25-4.12,5.86H47c1.76-1.74,3.51-3.49,5.38-5.11l.78,1.15a39.73,39.73,0,0,0-4.5,8.4,4.33,4.33,0,0,0,0,3l1.6,0c1.25-2.82,1.68-6,3.39-8.59a16.32,16.32,0,0,1,3.21-3.11l-.12.34,1.14,1.51.15,0a22.43,22.43,0,0,0,3.1,2.74c.26,5.23,5.88,9.16,10.85,8.27-.53-2.09-1.4-4.06-2.07-6.1a2.88,2.88,0,0,1,.16-2.61c.91-.3,1.95,0,2.84-.38a16.61,16.61,0,0,0,1.38-1.73c-.19.85-.43,1.69-.7,2.53,1.15,1,2.81,1.69,3.16,3.29.82,3.55,1.75,7.21,1,10.85,0,1.24-1.08,1.94-2,2.61a3.4,3.4,0,0,0-.27-.89c-.48,0-1-.08-1.43-.15l1.71-.1c0-.41,0-.81,0-1.21-1-1-2.44-2.42-3.82-1.3-1.64,1.62-1.06,4.26-.22,6.14.89,2.24,2.91,3.85,3.67,6.13-.08,2.13-2.24,4-1.3,6.17,1.63-.31,2.22-1.85,2.44-3.31.55.9,1.71,2.11.66,3.11s-.39,2.39,1,2.06c.42-.38.84-.76,1.27-1.12a20.1,20.1,0,0,1,1.56,2,18.76,18.76,0,0,1,4.22.6c.4,1.78,2.13,2.45,3.69,2.89-1.09.93-.9,2.39-.89,3.67.77.23,2.11.71,2.44-.38.3-1.45-.24-3.35,1.34-4.19a11.69,11.69,0,0,0,5.9,2.56c1.35.35,2.25-1.36,3.65-.86,1.3-.11,1.11,1.83,2.39,1.86,2.57.32,4.28,3.1,7,2.59a6.59,6.59,0,0,0,6.69-6.11,3.25,3.25,0,0,0-2.75.22,28.55,28.55,0,0,0,1.48-4.5,9.87,9.87,0,0,0,2.06,1.8,6.38,6.38,0,0,0,1.09-3.42c-.14-1.23-1-2.47-.4-3.7.74-1.83,2.17-3.26,3-5a22.86,22.86,0,0,1-1.77-1.49,24.28,24.28,0,0,0,2.87-2.68c.42-1-.11-2.26.75-3.07a3.32,3.32,0,0,0,1.07-2.6l-1.71-.18c.73-.49,1.85-.71,2-1.7a48.86,48.86,0,0,0,1.54-4.71c-.13-1.31-1.38-2.22-1.57-3.53.14-1,1-2,.38-2.94a18.87,18.87,0,0,0-2.94-1.81,16.32,16.32,0,0,0,1.19-2.91l-.33.16.5-.26a27.24,27.24,0,0,1,.65-3.21l1.46.09a10.51,10.51,0,0,0,.9,5.29c.16,2.93-.23,5.89.11,8.83l1.46,0c.43-.42.85-.85,1.28-1.26.6,1.72,1.13,3.62.5,5.41-.41,1.34-1.61,2.2-2.23,3.42-.31.89,1.23,1.33.79,2.23-.58,1.8-1.79,3.35-2.16,5.22a8,8,0,0,0,2.49,2c.86,2.43.31,6.23-2.58,6.87-.13-1.22-.6-3-2.15-2.92-2.36,2.35-3.71,5.51-5.27,8.41-.57,1.29-1.54,2.67-.94,4.13h1.3c.75-1.82,1.22-3.86,2.63-5.31.53-.63,1.35-.4,2-.28.55,2.6-1.35,6.26,1.34,8,.43-.79.84-1.6,1.29-2.38,1.64,2.93,1.35,6.4,1.29,9.63H130c-.21-2.81,1-5.43,1.95-8a7.38,7.38,0,0,1,1.68,3.2c-.34,1.44-1.89,2.71-1,4.28.42,1.71,2.49.69,3.37-.09.94,2.24,1.23,4.86,3.07,6.61.15-.92.19-1.84.34-2.75.54-.44,1.36-.23,2-.35.22-2.57-.12-5.14,0-7.71-.05-.52.46-.79.75-1.12a3.54,3.54,0,0,1,.64,1.7c.21,3.12.2,6.27.47,9.39a4,4,0,0,0-1.82,2.27c-.31,1.28.71,3.09,2.2,2.58.56-.65.29-1.68.46-2.49,1.09.69,3.19,2.19,4,.36.35-2.64-1.16-5.16-.81-7.82a18.45,18.45,0,0,1,1.63,6.28c2.74.26,2.87,4.29,1,5.7-1,.66-1,1.87-1.13,2.93a19.4,19.4,0,0,0,5.62-1.35c.23-.65.47-1.29.74-1.92l1.9.22a29.38,29.38,0,0,1,3-2c.88-2.49.15-5.14-.07-7.68-.57-4.6.16-9.46-1.73-13.84l-1.67,0a23.56,23.56,0,0,0-1.86,7.32c.3,2.47,1.52,5.43-.38,7.56a67.06,67.06,0,0,1,0-8c-1-.22-2.22-.66-2.37-1.85-.34-1.15-.13-3.17-1.68-3.37a39.12,39.12,0,0,0-2.5,4.7c-.13-.15-.4-.42-.53-.57.12-2.11,1.15-4.93-.82-6.48a19.08,19.08,0,0,0-1.43,1.27c-.4-2-1.48-3.74-1.68-5.74,1,.27,2.3,1.08,3.26.24,1.48-1.4,1.77-3.53,2.56-5.33,1.19,2.33.61,6.92,4.3,6.77a21.9,21.9,0,0,0,0,4.72h1.58c.27-.85.53-1.7.77-2.55a14.28,14.28,0,0,1,3.83-1.7c.16,1.77-.28,3.53-.09,5.3.16,1.26,1.32,2,1.9,3.06.16,2.26-.58,4.47-.52,6.73.16,1.32,1,2.49.87,3.85-.21,2.21-.48,4.43-.52,6.65l1.1.33c.36-.23.72-.47,1.08-.69a17.24,17.24,0,0,1,1.16-6.21c1.57-2.72-2-5.59-.29-8.3.89.16,1.34,1.34,2,2,1.16,1.21-1.11,2.36-.42,3.67,1,2.3,0,4.79-.76,7,0,1.07,1.1,1.66,1.81,2.29.4-1.77.28-4,2.38-4.62,2.41-5.09,5.72-9.83,8-15,.71-1.73,1.64-3.48,1.67-5.38-.13-.88-1.37-.62-1.73,0-3.21,3.37-4.78,7.87-6.8,12a26.88,26.88,0,0,1-2.54-5c-1.08-3.3-.81-6.82-1.09-10.24a21.49,21.49,0,0,1,.51-6.29c.05,1.29.1,2.59,0,3.88.53,0,1.06,0,1.6,0,1.53-1.69.2-5,2.8-5.75.43-1.18.78-2.38,1.13-3.58.83-.36,1.9-.62,2.12-1.64.5-1.73,2-3.2,1.58-5.11a7.74,7.74,0,0,0,4.51-8.06c.31.86.6,1.73.91,2.59,1.58-.27,2.2-1.88,2.46-3.28-.06-.79-.78-1.49-.54-2.32a56.07,56.07,0,0,1,2.25-6.66,9.52,9.52,0,0,0,2.76,3.55c-.17-1.92.06-3.92,1.6-5.26.8,2.25.43,4.79.19,7.13-.17,1.83-1.55,4,0,5.61a15.38,15.38,0,0,0,2.47-2.3c1.24,1.92-.09,5.16,2.61,6.11,0,2.41,0,4.82,0,7.23,0,.53.49.78.81,1.11.4,2.2.33,5,2.61,6.2-.49-2.85-1.2-5.78-.58-8.67.82-4.72-.1-9.55.63-14.28.18-7.51-1.87-14.87-4.36-21.89-.16-.84-.93-1.18-1.64-1.47-.13,1.27-.86,2.77.13,3.86.91.93-.28,2-.44,2.95.06,1.82.47,3.67.08,5.48-.18.8-1.15.63-1.75.77,0-1.54-.46-3.31.62-4.61.82-1-.6-1.74-1.23-2.3-1.33,2-1.32,4.53-1.64,6.86l-2.15,0A4.82,4.82,0,0,1,185.6,124c0-4-.56-8.09-.14-12.11.1-2.2,3.47-2.21,3.4-4.43a33.62,33.62,0,0,0-2.43-5.54c-1.85,1.44-.62,4.05-1.44,6-1-1.81-1.3-3.89-2-5.82a3.82,3.82,0,0,1-3.67-.71,9.36,9.36,0,0,0-2.4,4.72c-.21,1.76,1,3.25,1.23,4.94-.07,1.23-1,2.27-.91,3.53.22,2.38.72,4.73.91,7.12.14.64-.35,1.11-.71,1.58-1.69-2.07-.46-4.87-.56-7.26-1.1,0-3-1.09-3.47.37.39,3,1.35,6.4-.5,9.14-3.1,0-3,3.74-3.62,5.91l-2.51,0c-.13-.12-.38-.38-.51-.51,0-.47-.09-.94-.14-1.41a3.12,3.12,0,0,0,1.94-3.64,8.5,8.5,0,0,1-.51-3.24c.28.36.55.73.82,1.1a1.92,1.92,0,0,0,2-1.63c0-1.64-1-3.15-.9-4.8.4-1.94,1.43-3.73,1.49-5.74s-.17-4,1.06-5.59a4,4,0,0,0,3.32.32c-.61-1-1.15-2.37-2.45-2.69s-2.59-1.56-4.05-1.13c-.76,1.13-1.63,2.2-2.3,3.38-.06,1.65.9,3.17.89,4.82A43.1,43.1,0,0,1,167,116a15,15,0,0,1-.87-8.27c.35-1.78-1.28-3.08-1.46-4.7,1-1.87,3.28-4.52,5.6-3,2,.65,3.88,2.41,6.08,1.81-.84-2.31-3.12-3.41-5.09-4.58a4.12,4.12,0,0,1-1.8-4c1.63,1.64,2.74,5,5.54,4.52a3.67,3.67,0,0,0-.44-2c-1.43-2.09-2.66-4.29-3.91-6.48-.78-1.5-2.65-1.51-4.05-2,.77-.37,1.54-.71,2.29-1.11a20.46,20.46,0,0,1-3.82-3.37c-.92-1.2,0-2.7.18-4a2.48,2.48,0,0,0-2.95.73c-.09-.34-.18-.69-.26-1a20.58,20.58,0,0,0,2.48-1.14c1.32,2,2.61,4.1,4.09,6,.63-.49,1.27-1,1.88-1.5-.38-.6-.77-1.19-1.15-1.8l.85-1A73.41,73.41,0,0,0,166,70.53c-.47-1.07-1.67-1.39-2.62-1.9,1.41-.08,2.82,0,4.23,0,1.29-1.72,3.58-1.8,5.5-1.35,1.43.75,2.48,2.4,4.23,2.41,2.07,0,3.31,2.06,5.32,2.19s3.82-.55,5.66.15c.87,1.12,1.09,3,2.69,3.3s3.44.8,4.61,2.18c-.95.19-1.9.32-2.84.48,1.9,1.11,3.84,2.15,5.81,3.14-1.5.43-2.26,1.84-2.75,3.21-2.33.27-4.41,4.09-2.07,5.7,1.15.87,2.09,2.37,3.71,2.26-.08-.94-.63-2,.08-2.87a20.31,20.31,0,0,1,2.48-2.24,7.69,7.69,0,0,1,1.08,3.9c-.1,4.08,1,8.3-.48,12.25-.89-1.4-1-3.11-1.78-4.55l-1.93.37c.63,2.08,1.8,4,2,6.22-1.3-1.67-3.44-.16-4.17,1.29a21.35,21.35,0,0,0-1.1,6.78c3.66,2.13,3.2,6.77,4.63,10.21l.59-.46c-.4-1.71-.72-4.06,1.53-4.53l.68.57c-.81,2.2-1.9,4.67-.63,6.92l.81-.51a26.21,26.21,0,0,1,1,3.79c.23,1.54-.42,3.13.08,4.64a5.65,5.65,0,0,0,2.58,2.44c1.27.83,2.72-.4,3.34-1.48a13.58,13.58,0,0,0,.21-4.08,4.58,4.58,0,0,0-2.6,1.06c-1.71-3.14-.68-6.94-.76-10.36a5.53,5.53,0,0,0,2.95-1c1,1.77.69,3.86,1.37,5.72a4,4,0,0,0,2.74,2.07,74.88,74.88,0,0,0-1.58-7.69c-.61-2.34.91-5-.68-7.11l.88-1.06a3.28,3.28,0,0,0,3.26,1.3c-.67-1.85-1.69-3.81-3.58-4.66-.24.31-.48.61-.71.92a9.25,9.25,0,0,1-3.19-3.27l1.06-.41c.72.73,1.52,2.46,2.75,1.72,1.27-.92,2.87-.74,4.33-1.09a25.13,25.13,0,0,0-3.9-5,24.94,24.94,0,0,0,2-1.57c-.54-.5-1.1-1-1.64-1.46.64-.06,1.29-.09,1.94-.14-.4-.73-.8-1.45-1.24-2.15.32-.48.63-1,.93-1.45a31.63,31.63,0,0,1-5.23-4.12c1.51.28,3,1,4.59.49-.55-.82-1.13-1.61-1.71-2.4a3.8,3.8,0,0,0,3.1,0,5.32,5.32,0,0,1-2-4.07c-1.61-1-3.35-1.65-5-2.49.84-1,1.69-2,2.48-3a35.52,35.52,0,0,1,6.5,2.35l-1.91.53c.12,2.57,3.2,3.49,4.87,5a15.45,15.45,0,0,1-3,1.92c.14,1.45,1.14,2.54,1.95,3.68,1.29,1.57,2.53,4,5,3.56a13.7,13.7,0,0,0-1.61-3l.49-.47a61,61,0,0,0,5.76,4.25c1.25.69,2.83,1.29,4.18.51a27.26,27.26,0,0,1-4.28-3.52l1.29-1.06a26.72,26.72,0,0,0-4.52-4.56l.94-1a30.54,30.54,0,0,0-3.54-3.47c2,0,1.27-2.65.72-3.86-2.37-3.92-5.85-7-8.79-10.45a2,2,0,0,1-.66-1.47c.06-3.36.24-6.71.28-10.07-.08-3.1-1-6.5-3.56-8.47-2-1.55-4.71-1.6-7.09-1.14-7.51,1.4-14.62,4.36-22.07,6-3.4.85-6-2.19-7.66-4.69,2.22.59,4.37,1.45,6.62,1.91,1.07.23,1.82-.75,2.51-1.39-2.65-1.3-5.36-2.5-8-3.74-1.39-.67-3-.4-4.38-1.17a39.71,39.71,0,0,0-5.1-2.64c-5.54-2-11.18-4-17.06-4.81M112.71,41c-.82.28-1.43,1-2.23,1.27-.7,0-1.27-.68-2-.56-1.3.61-2,2.23-3.57,2.36a9.53,9.53,0,0,0-6.23,3c-2.41.19-4.87-.24-7.26.33a4.58,4.58,0,0,1-1.94,3.49c-1.06.87-.34,3.15,1.19,2.63,3.12-.95,5.82-2.86,8.73-4.28,2.07-.87,4.58-.38,6.41-1.87,1.55-1.33,3.72.39,5.31-.89,2.52-1.87,6.42-.94,8.34-3.77a4,4,0,0,0-4-.25c-1.27.55-1.66-1.36-2.75-1.48m27.42.68c-.14.52-.27,1-.4,1.55a5.22,5.22,0,0,0,1.74,2c2.82,1.8,4,5.09,6.09,7.57,2.14-.66,3.76,1.06,5.6,1.74,1.32.39,2.21-.91,2.49-2-2.93-1-4-4-5.72-6.32-1-1.46-2.75-1.79-4.22-2.52-.15-.66-.3-1.32-.46-2h-5.12m-26.34,8.64a19.85,19.85,0,0,0-6.44,3c.69,2.15,3,1,4.64,1.54a26.9,26.9,0,0,0-2,2.41l.88.47c2.23-.65,4.53-2.06,6.91-1.34,3.15,1,4.77,4.25,7.67,5.63,1.3.67,2.6-.15,3.7-.82.43-1.72-1.35-2.07-2.55-2.57a3.16,3.16,0,0,0-1.27-3.86c0-1.24.42-3.11-1.06-3.68a22.13,22.13,0,0,0-4.88.06c.21-.71.44-1.41.66-2.12a18.74,18.74,0,0,0-6.26,1.24m-31.9,5.83c1.07-.34,2.13-.71,3.22-1,.56.42,1.09,1.37,1.89.91,1.69-.59,1.31-2.62,1.65-4l-.78-.79c-2.5.77-5.07,2.27-6,4.87m-10.38-1.7c-2.17,2.22-4,4.78-6.06,7.07,2,1.3,4.19,3.93,6.71,2.15,0-1.82-.55-3.78.42-5.46.52-1.39,2-2.69,1.37-4.28-.82.08-1.86-.24-2.44.52m18.16,3.85c-.15.85.91.76,1.47.84,1.54-1.37,3.38-2.7,3.77-4.87-2.69-.78-4.69,1.69-5.24,4m10.84.89c-1.35.09-1.63,1.63-2.32,2.53C96.48,61,94.9,59,92.92,60.05c0,.45,0,.91,0,1.37.4.43,1.26.9.79,1.58-1.07,1.59-2.58,2.82-3.79,4.3.81,1.56,2.87.73,4.27,1-.43,1.35-2.23,3.28-.56,4.41a18.35,18.35,0,0,0,2.58-2.16c.74-.84,2.13-.69,2.72-1.71A74.72,74.72,0,0,0,105,58.67c.53-.94-.25-1.78-.94-2.34-1.18,1-1.83,2.77-3.57,2.83m9.94-.09a70.6,70.6,0,0,0-3.54,7.7,7.7,7.7,0,0,0-.42,3.6c2.34.44,3.38-2,4.23-3.67,1.09-2.33,4-2.29,6.17-3,2.5-.37,2.46-4.41.2-5.14a7.73,7.73,0,0,0-6.64.49m18.94.82c1.61.19,3.24.31,4.85.48.28-.51.54-1,.8-1.54-1.74-1.68-4,.11-5.65,1.06m-11,7.71c-1,.51-2.24,1-2,2.37a83.12,83.12,0,0,0,8.42,4.14,1.93,1.93,0,0,0,2.56-1.91c.17-1.78,0-4.47-2.1-5-2.29-.15-4.83-1-6.91.39m50.09,5.19a35.75,35.75,0,0,1,3.29,4.52c1.12.09,2.81-.36,3.42.89.44,1.38-.88,2.19-1.95,2.62s-.88,1.57-.75,2.45c-1.2,1.59.55,3,1.11,4.5,1.2,3.13,1.41,6.52,1.79,9.82.22,1.6,1.86,3.1,3.48,2.17.32-1.66-1-2.6-2-3.67,1.86.35,2.82,2.06,3.41,3.69a2.8,2.8,0,0,0,3.6,1.42c.32-2.07,1.06-4.55-.52-6.3-1.2-1.44-2.22-3.7-4.4-3.6-.2.46-.39.92-.58,1.38-2-.47-1.68-2.65-1.94-4.23.79-.07,1.58-.15,2.36-.27.05-1.38.13-2.77.3-4.14-.84.06-1.68.1-2.52.09a53.82,53.82,0,0,0,2.71-4.72c.87-1.71.38-3.68.52-5.51-.61-.38-1.23-.75-1.85-1.1a3.59,3.59,0,0,0-.87,2.56c-1.1-1.42-3,.12-4.2-1.06-.42-.29-.44-.84-.6-1.28q1.19-.24,2.37-.51a12.47,12.47,0,0,0-3.77-3.5c-.81,1.25-1.58,2.53-2.39,3.78m-79.81,2.8c2-.3,2.61-2.23,2.21-4a3.59,3.59,0,0,0-2.21,4m99.15,4.21c-.11,1.31.51,2.91,2,3.15A3.74,3.74,0,0,0,193,79.86c-1.72-.2-3.67-1.47-5.18-.06M184,85.45c-1.56,2.09.61,4.2,1.75,5.89l1.56,0A4.51,4.51,0,0,0,184,85.45M21.72,89.17c1.36,1.27,3.27,1.39,5,1.44-1-1.86-3.24-1.56-5-1.44m7.43,1.59c1.16,1.42,3,1.89,4.55,2.67C36.19,94.6,38.58,96,41.13,97a19.81,19.81,0,0,0-12-6.27m164.37,2.5c-.17,1-.32,2.12-.47,3.18.88,1,1.78,2.33,3.23,2.35.82,0,.82-1.11.51-1.63-1-1.34-2.12-2.65-3.27-3.9m20.57,2a3.54,3.54,0,0,0,1.2,3.51c2,2.18,5.58,4.69,8.24,2.13-2.86-1.71-6.15-2.93-8.27-5.64h-1.17m-22.58,5.36c-.65,2.33.89,4.2,2.79,5.29-.19-2-.57-4.59-2.79-5.29m25.11,2c0,3,4.09,4.41,6.56,3.58-1.94-1.54-3.85-3.81-6.56-3.58M22.09,108.74a3.22,3.22,0,0,0,3.38-1.9c-1.46-.2-2.46,1-3.38,1.9m6.35,8.44c-1.67.87-3.6,1.88-4.08,3.88,5.24-2.4,10.28-5.3,15.86-6.86.64-.11,1-.66,1.38-1.12a38.73,38.73,0,0,0-13.16,4.1m8.12,10.36a2,2,0,0,0,2.43-2,5,5,0,0,0-2.43,2m-6.4,7.11c2.42-.07,3.2-3,4.64-4.59-2.19.16-4.74,2.23-4.64,4.59m157.15,1.58c-.62,2-.71,4.16-1.69,6-.93,1.55-3.23,2.5-2.83,4.61,1.06,0,2.12,0,3.19,0v4.58c-.73.8-1.75,1.51-2,2.63.17,1.23,1.35,1.93,2.21,2.69l-1.73,1.71c-.35-1.25-.62-2.52-.91-3.78-.7-.32-1.41-.63-2.13-.91-.4-1.91,1.26-4.38-.75-5.71-1.29,1.21-3,2-4,3.48a19.88,19.88,0,0,0,0,3.45,7.56,7.56,0,0,0,2.53-2.34c.78,1.75-.15,3.61.22,5.42l1.39.22c.58,3.15,1.92,6.34.72,9.53,1.25-.69,2.41-1.51,3.6-2.29,1,1.45,2.3,3.61,4.44,2.8-1.49-3.68.33-7.39,1.64-10.82.72-1.88,2.44-3.05,3.56-4.66l-.84-.87-1.79.24c-.07-2.66.19-5.32,0-8a16.26,16.26,0,0,0-3,0c-.06-2.14.05-4.29,0-6.43-.08-1-1.15-1.22-1.85-1.61M33.46,148.12l1.09.4c.79-1.32,1.71-2.71,1.47-4.33a7.87,7.87,0,0,0-2.56,3.93m143.89,7.38a46.61,46.61,0,0,0-1.15,5.11,10.38,10.38,0,0,0,2.86,9.25c.65-3.39,2.24-6.88,1.37-10.35l-1.19.15c-.35-1.49-.64-3.13-1.89-4.16m-5.92,8.06c.1,1,.77,1.85.53,2.85-.64,3.21-1.65,6.35-2.15,9.58a4.13,4.13,0,0,0,1.47,3.56,28.46,28.46,0,0,0,1.84-6.61l1.45-.42a32,32,0,0,0,.16-5.36l1-.92a48.5,48.5,0,0,0-1.49-6.19,5.33,5.33,0,0,0-2.78,3.51m-95.38,9.21a23,23,0,0,0,2.42,2.62c.83-.81,1.63-1.62,2.44-2.44,0-.53,0-1,0-1.58-1.78,0-4.25-1-4.91,1.4m4.7,2.53c1.19,1.43,2.91.18,3.51-1.12-.75-2.29-3.52-.63-3.51,1.12m4.12.33a21.43,21.43,0,0,0-2.6,5.44c-.37,1.14,1.35,2.34,2,1.19a11.78,11.78,0,0,0,2.15-5.4c.11-.93-1-1-1.59-1.23m-11.72,2.26c-.85,1.43-2.25,3.39-1.15,5,.74,1,1.75,0,2.41-.59-.1.59-.19,1.17-.27,1.77l1.9.09c.29-1.29,1-3.35-1.11-3.28.6-1.15,1.26-2.59.6-3.85a1.74,1.74,0,0,0-2.38.85m7.27-1.06c-.58,1-1.46,2-1.39,3.19.26.82,1.18,1.07,1.85,1.46.61-1.15,1.5-2.32,1.34-3.69-.35-.67-1.18-.7-1.8-1m34.18,6.94c1.75-1.89,3.86-4.32,3.69-7-2.4,1.43-4.31,4.11-3.69,7M94.26,177.3a21.83,21.83,0,0,1-.19,4.35c-.65,2.34,1.42,4.2,2.58,6,.76-.61,1.85-1.3,1.63-2.44-.72-2.72,1.58-5.23.48-7.94a15.42,15.42,0,0,1-4.5,0m6.84,4.32c.62.8,1.68.33,2.46.11,0-1,0-2.06,0-3.08l-.76-.83c-2.06-.06-2.71,2.33-1.68,3.8m-12.65-3.09c-1,2.57-2.25,5-3.16,7.64-.85,2,3.25,3,3.43.77.51-2.78,1.61-5.5,1.55-8.36l-1.82-.05m3.24,4.25a4.8,4.8,0,0,0-1.57,4.4c.91,0,1.81,0,2.72,0a6.35,6.35,0,0,0,0-4.15,4.86,4.86,0,0,0-1.1-.3M110,189.46c1,0,2.33.34,3.17-.48a6.77,6.77,0,0,0,1.73-4.55l-.51-.43c-1.64,1.6-4.53,2.8-4.39,5.46m-35.23.12c2.26.9,2.41-1.73,2.91-3.22l-2.13-.42c-.75,1.06-1.45,2.35-.78,3.64m3.53-2.07c-1.17,1.44-.81,4.6,1.48,4.59,2.13-.18,2.55-2.82,2.45-4.54-1.19-.65-2.82-1-3.93-.05m29.12.74a20,20,0,0,0-.9,3.5c-.48-.44-1-.89-1.44-1.33-.61.32-1.23.66-1.83,1,0,1.52,0,3,0,4.55,1,.22,2.29.7,3-.31a4.4,4.4,0,0,1,2.82-2c0-1.82,0-3.63,0-5.45l-1.57,0m-25.18,5.09a2,2,0,0,0,2.26,1.38c1-1.54.5-3.42.6-5.13l-.9-.44c-1,1.2-2,2.57-2,4.19M100,192a5.22,5.22,0,0,0-.46,3.87c.38,1,1.55.68,2.32.47.08-1.46.61-2.87.64-4.32-.63-.67-2-1-2.5,0m-11,.54c-.74.4-1.62,1.33-1.18,2.23.72,1,2.45,1.65,3.43.64,1.07-1.36-.66-3.66-2.25-2.87m3.62,3.93c1.18,2,3.6.61,4.79-.64-.69-1.07-1-2.58-2.27-3.16a3.76,3.76,0,0,0-2.52,3.8m7.14,16a75.09,75.09,0,0,1-10.6,4.66q.77,1.2,1.56,2.4A46,46,0,0,1,95,217.41c.18,6.64.13,13.28-.25,19.91a36.56,36.56,0,0,1,6.45,0c-.56-8.12-.09-16.25-.16-24.38.11-.76-.82-.82-1.27-.45m13,1.48c-4,1.84-5.18,7.33-3.33,11.08,2.08,3.8,7.77,4,10.88,1.39-.11,3.23-.82,7.2-4,8.77-2.14,1-4.54-.07-5.94-1.79-.13,1.22-.3,2.45-.52,3.66a12.43,12.43,0,0,0,12.28-2c3.58-3.11,4.76-8.13,4.49-12.7-.12-3.16-1.33-6.65-4.27-8.24a11.23,11.23,0,0,0-9.56-.21m45.53-.9c-2.94,4.72-6.06,9.32-9.19,13.91-.42,1.52,0,3.17-.18,4.74a93.3,93.3,0,0,1,9.46-.25c0,2-.12,3.9-.29,5.85a30.69,30.69,0,0,1,5.83,0,36.1,36.1,0,0,1-.3-5.88c1,.06,2,.14,3,.25a21,21,0,0,1,0-4.55q-1.52.2-3,.3c0-4.79,0-9.59.31-14.37a27.55,27.55,0,0,1-5.67,0m-23.37.32c-5,1.2-6.18,7-6.15,11.39,0,4.18,0,9.58,4.06,12,3.77,1.8,9.32,1.59,11.87-2.16,2.07-3.26,2.09-7.32,2-11-.17-3-.48-6.36-2.72-8.58C141.56,212.85,137.94,212.78,134.92,213.39Z"/><path class="cls-3" d="M158.75,44.21A42.69,42.69,0,0,1,163,45.77c1,.41,1.16,1.77,2.08,2.35a7.38,7.38,0,0,1,2.66,2.06c2.78,4,6.59,7.79,11.51,8.89,2.75.66,5.48-.28,8.17-.76a38,38,0,0,1-6.55,3.47c-2.13.8-4-1-6.13-1.1-.92.1-.93,1.12-.91,1.83q-1-.3-2-.54c-.5.77-1,1.54-1.51,2.29a62.66,62.66,0,0,1-6.68-1c-.1-.64-.2-1.28-.29-1.93,1.6.35,3.34,1,4.94.32.8-.3,1.62-1.38.86-2.13s-.55-1.61-.88-2.4a13.46,13.46,0,0,0-2.34-1.41l1.29-.7C165.82,50.27,159.56,49.19,158.75,44.21Z"/><path class="cls-3" d="M155.5,63c1.73-1.05,3.67.19,5.33.79-.7.59-1.58,1.07-2.44.47-1.36-1-3.7.79-2.22,2.2-.7.83-1.84,1.56-1.84,2.75a9,9,0,0,0,1.29,1.25c0,1.37,0,2.74,0,4.11-1.22,1.37-3,.83-4.6.53a8.92,8.92,0,0,0,1.87-2.33c.23-1.06-.68-1.85-1.24-2.62.55-.76,1.42-1.4,1.53-2.39C153.18,65.89,154.53,64.45,155.5,63Z"/><path class="cls-3" d="M138.18,73.49a10.8,10.8,0,0,1,2.07,2.25,1.76,1.76,0,0,1-2.17.83A17.6,17.6,0,0,1,138.18,73.49Z"/><path class="cls-3" d="M141.9,77.16c1.78-.87,3.85-.74,5.73-1.31-.24.66-.5,1.32-.75,2A41.66,41.66,0,0,1,141.9,77.16Z"/><path class="cls-3" d="M153.65,80.19c.64-1.06,1.12-3,2.72-2.7,1.13.57,2.42,1.61,2.45,3-.7,1.37-2.14,2.12-3.42,2.86A3.71,3.71,0,0,0,153.65,80.19Z"/><path class="cls-3" d="M138.17,78.23c1.87-.5,3.64.72,5,1.89.57,1.59.88,3.5-.52,4.77l.89,1c-.77,1.08-1.76,2-2.5,3.08.27.62,1.1,1.35.46,2-1.31,1.24.1,3.1-.85,4.52-.55.79.29,1.4.78,1.94l-1.91,1c.41.52.84,1,1.26,1.54a7.59,7.59,0,0,1-6.08,1.81c-.12,2.14,2.48,2.63,3.83,3.74-.87,0-1.73,0-2.6.09-.34,2.59,2.85,3.26,4.81,3.09a62.5,62.5,0,0,0,7.42-2.44c0-.19,0-.57,0-.76-1.06-.55-2.19-1.63-1.19-2.82l-1-1.29a13.09,13.09,0,0,0,3-.8,11.46,11.46,0,0,0,1.7-2.76,11.72,11.72,0,0,0-2.55-1.68c0-.47,0-.93,0-1.39,1.57-.9,1.36-2.62,0-3.57a12.3,12.3,0,0,0,2.4-2c-.26-.42-.53-.83-.8-1.25,2.23-2.2,6-2.38,8.79-1.33.41,1.4,1.06,3,.36,4.39a5.74,5.74,0,0,0-.78,3.35c-.91.53-2.66.72-2.38,2.14a24.43,24.43,0,0,0,1.9,6.83c1.12,2,3.59,2.36,5.45,3.33,0,1.8,0,3.7.92,5.29-.11.38-.21.76-.31,1.14-1.84,1.08-3-1-3.85-2.26-2.11,1.54.67,3.92-.76,5.83a14.1,14.1,0,0,0-1.83-2.57c-.43,1.56-1.07,3.06-1.46,4.64-.37,1.17,1,2.32.33,3.44-1.17,1-3,.24-4.15,1.24-.69.77-.51,1.89-.59,2.84a4.42,4.42,0,0,0-2.49,2.61c-.91-2.15-.33-4.64-1.52-6.69-.55-.81.4-1.27.9-1.75a21.41,21.41,0,0,0-4.52-5.6c-1.55-1.32-3.76-.31-5.49-1-1.46-1.15,1.39-2.47.27-3.84-1.36-1.92-4-1-6-1-1.69-.45-3.25-1.56-5.07-1.34a52.81,52.81,0,0,1-8.71.26c0,2.29,2.36,3.31,4.17,4,4.45,1.58,8.74,4.11,11.53,8,.93,1.23,1.32,2.92,2.69,3.78,2.94,1.8,6.06,3.52,8.3,6.21,1.7,2,.25,4.67.68,7-.86-.59-2.25-1.32-2.68.12,0,2.69.47,5.38.55,8.08-1.61,1.44-1.8,3.77-1.88,5.79,0,3.25,0,6.51-.24,9.76-.85-3.31-1.3-6.93-3.58-9.63-1.65-1.81-1.37-4.38-1.44-6.64,0-2-.06-4.38,1.47-6,1.75-1.67,2-4.2,2.85-6.34.61-1.17-.35-3.12-1.82-2.41-1.71,1-2,3.3-3.35,4.63s-4.18,1.41-5.15-.44c-1.56-2.83-1.63-6.54-4.29-8.7-2.11-2-5.74-.74-7.6-3.08-.94-2.33,1.57-4.84,3.94-4.16l.69-.58a25.15,25.15,0,0,0-4.6-4.62c-3.16-3.25-4.18-7.78-6.13-11.72,3.58,0,7.17,0,10.75,0,1,.07,1.72-.77,2.65-.94,2,.39,3.71,2.6,5.82,1.64.68-1.5-.62-2.94-1.87-3.6a9.39,9.39,0,0,0-.62-2.16c1.34.24,3.4,1.28,4.3-.29-.69-1.11-1.63-2.06-2.27-3.22,1.27-.25,3.38,0,3.35-1.87l-.75-.65,1-1c-.54-.67-1.11-1.32-1.67-2,1.75-1,3.94-1.28,5.33-2.87a11,11,0,0,0-2.39-1.85c.21-.4.43-.8.65-1.19-1.64-1.77-4.19-.27-6.23-.47a39.54,39.54,0,0,1,7.29-2.29m17.18,20.62a11.65,11.65,0,0,0-2.07,2.36c.62.16,1.25.3,1.87.47.42-.78,1.42-2.44.2-2.83m-40.18,4.59.77.82a6.33,6.33,0,0,1,5.7.32c2.92.91,6.1-.21,9,.72a4.69,4.69,0,0,0,3.36-.16c-3.38-3.12-8.26-2.85-12.52-3.36-2.15-.07-5.16-.67-6.35,1.66m34.23,1.81c.7,1.25,2.86,3.92,3.78,1.49a6.57,6.57,0,0,0-3.78-1.49m4.19,3.23c.48,1.1,1.29,2.19,2.65,1.94-.1-.55-.22-1.11-.34-1.66-.77-.12-1.54-.21-2.31-.28m-1.88,2.89c.66,1.46,1.4,3.12,2.93,3.85.61,0,.75-.87,1-1.34a6.85,6.85,0,0,0-3.88-2.51m-27.5,7.12a38.39,38.39,0,0,0,5.46,5.86c.64.66,1.24-.15,1.52-.71a59.59,59.59,0,0,0-5.13-5.17c-.53-.56-1.25-.19-1.85,0m5.57-.39c-.11.5-.52,1.07-.13,1.55,1,1.54,2.68,2.93,4.65,2.71C133.37,120.51,132.36,117.68,129.78,118.1Z"/><path class="cls-3" d="M67.5,95.56c.57-3.19.62-7.27,4.09-8.78-.56,1-1.47,2.22-.35,3.18C69.89,91.76,69,93.83,67.5,95.56Z"/><path class="cls-3" d="M54.93,96.59a22.42,22.42,0,0,1,2.71-4.37C57.75,94,57.28,96.7,54.93,96.59Z"/><path class="cls-3" d="M63.5,97.27a8.1,8.1,0,0,1,1.87-4.4C65.58,94.52,65.29,96.63,63.5,97.27Z"/><path class="cls-3" d="M194,133.75c2.13-1.82,1.08-4.69,1.52-7.09a35.21,35.21,0,0,1,0,10.25C195,135.86,194.54,134.79,194,133.75Z"/><path class="cls-3" d="M162.14,129.35c.6,1.05,1.12,2.14,1.71,3.19,1.27-.65,2.31.2,3.05,1.19-1.49,2.11-1,4.7-.7,7.08a15.51,15.51,0,0,1-3.14-2.19c-1.21,1.45-.92,3.21-.32,4.84-.55,3-3.72,4.38-6,6a8,8,0,0,0-.89,3.2c-3.12.21-6.2.76-9.31,1,0-.4,0-.81,0-1.2,3.28-.31,4.06-3.94,4.39-6.62a18,18,0,0,0,1.44,4.3c3.07-3.2-.38-7.83,1.63-11.43l2.43.4c.75-1.51.07-3.54,1.57-4.65.53,1.1,1,2.24,1.47,3.37a4.82,4.82,0,0,0,1.24-3.43l.75-.22A46.51,46.51,0,0,1,162.14,129.35Z"/><path class="cls-3" d="M146.64,140.63a11.74,11.74,0,0,1,1.44,7.23c-.47,1.13-1.85,1.44-2.85,2,0-.61,0-1.23,0-1.84.79-.83,1.86-1.63,1.91-2.87A40,40,0,0,0,146.64,140.63Z"/><path class="cls-3" d="M173.14,145.1c1.86,1.15.26,3.43,0,5.05A9.93,9.93,0,0,1,173.14,145.1Z"/><path class="cls-3" d="M136.13,157.88c-.9-1.23-3.17-2.51-2.21-4.25C135.85,154,135.92,156.34,136.13,157.88Z"/><path class="cls-3" d="M132.36,158.14a20.91,20.91,0,0,1,3.11,5.4c.57,1.28-1.22,2.25-.72,3.57a13.08,13.08,0,0,0,2.84,6.12c1.07,1.17,2.81-.5,2.34-1.76-.25-1.3-1.52-2.8-.31-4,.78,2.41,1.19,4.92,1.75,7.39l-1.86.47c-.27,2.67-.22,5.35-.52,8a152.05,152.05,0,0,1-6.13-16.68c-.67-1.66.3-3.41-.22-5.09A9.44,9.44,0,0,1,132.36,158.14Z"/><path class="cls-3" d="M116.56,215.09c1.54-.66,3,.71,3.27,2.18a12.54,12.54,0,0,1-.18,6.82,2.42,2.42,0,0,1-4.28.31c-.87-1.7-.74-3.71-.65-5.56C114.87,217.46,115.14,215.72,116.56,215.09Z"/><path class="cls-3" d="M136.68,215.39a2.3,2.3,0,0,1,3.13,1.12c1,2.41.83,5.11.92,7.68-.09,3.35.29,6.86-.83,10.08a2.3,2.3,0,0,1-3.86.81c-1-1.42-1.06-3.28-1.19-5a92,92,0,0,1,.12-10.76C135.18,218,135.32,216.18,136.68,215.39Z"/><path class="cls-3" d="M151.61,227.4q3.34-5,6.73-10.05V227.4Z"/></g><g id="_ffffffff" data-name="#ffffffff"><path class="cls-4" d="M199.15,52.15a6.43,6.43,0,0,1,9.24,2.06c1.89,3.32,2,7.33,1.44,11-.6,4-.69,8.19-2.9,11.68-2.33,3.84-6.12,8-11.05,7.46.49-1.37,1.25-2.78,2.75-3.21-2-1-3.91-2-5.81-3.14.94-.16,1.89-.29,2.84-.48-1.17-1.38-2.95-1.76-4.61-2.18s-1.82-2.18-2.69-3.3a3.23,3.23,0,0,0,2.23.06c.75-1.06.68-2.76,2.07-3.29s2.22-2.13,3.43-3.08c1.33-1.14,3.42-.29,4.6-1.7a7.11,7.11,0,0,0-7.33.44c-2.45,1.48-4.62,3.91-7.69,3.9-2,0-1.89-2.49-2.78-3.72a21.4,21.4,0,0,0,4.43-.92c1.09-.42,1.3-1.69,1.74-2.64,2.42-.35,3.18-3.06,5.36-3.83,2.24-.94,4.89-1.58,6.17-3.87l-1.44-1.26m-6.36,19.49a11.16,11.16,0,0,0-.74,2.27,3.38,3.38,0,0,0,3.7-1.44C195.1,71.4,193.84,71.66,192.79,71.64Z"/><path class="cls-4" d="M60.48,70.54,61.55,70l-.11.36a1.52,1.52,0,0,0,1.23,2.29c1-.32,1.63-1.38,2.65-1.65a6.76,6.76,0,0,1,4.43,2.91c-.59.44-1.21.85-1.83,1.25-.88-.91-1.56-2.21-2.84-2.62-3.95,1.57-1.66,9,2.52,8.1,1.78-.4,2.23-2.52,3.73-3.36s1.9-2.59,2.92-3.83c-.52,2.35-1.57,4.76-3.78,6,0,2.32-2.21,2.71-3.92,3.41l-.27,1.4c-1.81,1.16-2.85,3.08-4.34,4.57.66-1.46,2-2.66,2-4.36C61.4,83.72,60,81.27,59.16,79c-1.19-2.85.69-5.67,1.32-8.42m3.31,11.84a20.63,20.63,0,0,0-1.39-6C61.85,78.46,61.17,81.43,63.79,82.38Z"/><path class="cls-4" d="M112.62,77.52c-.17-1.56,1.07-2.67,2-3.75.54.08,1.08.16,1.62.26a7.3,7.3,0,0,1,2.42,2.46,4.57,4.57,0,0,0-2.69-.2c0,1.43,0,3.12-1.5,3.84C113.57,79.51,112.5,78.75,112.62,77.52Z"/><path class="cls-4" d="M105.25,78.43h1.17A6.25,6.25,0,0,0,111,83.28c2.17.7,4.33-.2,6.46-.58a19,19,0,0,1-4.18,2.76l.57.68c3.36.22,5.51-2.82,8.33-4.07,1.39-.48,2.47.83,3.41,1.65-1.47,4.07-5.81,6-9.77,6.72-1.72.57-3.46-.11-5.17-.35-3.58-.62-7.14-1.37-10.73-1.91-1.32.43-2.51,1.42-4,1.2a13.08,13.08,0,0,1,5.74-2.89c2.53.39,5.09,1.49,7.63.43-1.74-1.3-4-1.92-5.39-3.67C102.83,81.59,104.44,79.84,105.25,78.43Z"/><path class="cls-4" d="M86.61,96c2.17,0,4.34-1.31,6.48-.41,1.23.55,2.52,0,3.71-.35.71,1.75-1.52,3.1-.64,4.66,2.74.6,4.68-2.16,6.2-4,1.9.14,4-.49,5.71.73a18.58,18.58,0,0,1,4.77,4.38c2,3.94,3,8.47,6.13,11.72-1.35-.15-2.86-.2-3.85-1.27-.61-.61-1.86-1.58-2.47-.45-.42,1.5,1.29,2,2.41,2.24,2,.28,3.61,1.62,5,3-2-.24-3.73-1.39-5.71-1.5-2,.35-2.2,2.87-3.15,4.33a10,10,0,0,0-4.54-3.7l-.46.39c.63,1.84.57,4.66,3.13,4.83v1.1c-1.6,1.34-2.93,3-4.78,4a45.44,45.44,0,0,0-5.23,3c0,.39,0,.78,0,1.17,1.17,0,2.32-.14,3.48-.11,1.09,1,0,2.79-1.21,3.28-3.53,1.68-7.61,1.35-11.37.79-8.25-1.29-16.43-3-24.52-5.09,0-.38,0-.77,0-1.16a16.81,16.81,0,0,0,9-10c.82-2.26-.15-4.65.47-6.95,1.29.61,2.68,2.08,4.21,1.38-.09-3.32,1.53-7,4.81-8.26,2.83-.75,5.79-.83,8.66-1.43-1.1-.57-1.1-1.81-1.34-2.87-1.54,0-3,.76-4.6.54a46.93,46.93,0,0,0-8.42,3.66,7.17,7.17,0,0,0-3.81,5.4c-1.14-.23-2.33-.78-3.48-.28.83,1.1,2.91,2.42,1.51,3.91-2.54,2.37-6.17,3.06-9.47,3.76a3.5,3.5,0,0,1-4-2.19c2-.13,4,.17,6-.19,2.19-.69,4.62-2.55,4.24-5.12,1.62-.2,1.94-2.19,3.43-2.57,1.82-.69,2.46-2.7,3.52-4.15.62-1.1,2.32-1.07,2.65-2.38s1-2.84,2.4-3.5c0,.56.07,1.13.12,1.7,2,.3,3-2.3,5-2.11m8.34,8c-2.34.91-4.83,1.62-6.84,3.19-.85.53-.52,1.69-1.12,2.39-.68.87-1.32,1.77-1.91,2.7.45.63.9,1.55,1.83,1.42,1.34-.11,1.88-1.53,2.62-2.44.91-1.33,2.84-1.14,3.82-2.39,1.14-1.28,2.76-2.59,2.45-4.51l-.85-.36m7.42,0c-1.07,1.95-2.56,3.63-3.55,5.61-.36.67.2,1.22.69,1.59a4.22,4.22,0,0,1,4-.28c-1.1.85-3.2,2-2.21,3.68,1.56.12,3.24,1.3,4.72.33l-.82-.68a14.22,14.22,0,0,1,.67-2.72c1.35.41,2.45-.43,3.24-1.44,0-.41,0-.83,0-1.24-1.93-1.13-4.07,1.17-5.89-.23,2-2.79,6,.08,7.94-2.43-1.1-2.38-4-.61-5.86-.56-1.12.32-1.8-.6-1.82-1.61l-1.06,0M84,113.21c-.78.82-2.07,2.05-1.16,3.22.42.08.85.11,1.28.15,1.14-.92,1.47-2.74-.12-3.37m12.65,3.88c1.41,1.64,4,.19,3.75-1.82-1.58-1-3.08.45-3.75,1.82m-16,2.48c1.37-.5,2.85-2.19,1.22-3.35a2.3,2.3,0,0,0-1.22,3.35M91.56,118c-1,.44-1,1.53-.94,2.44,1.08.56,2.5,1.08,3.54.15.89-.63.77-1.8.5-2.72a11.45,11.45,0,0,0-3.1.13m9.41,5c1.18-.14,2.74.47,3.6-.63.62-.63.15-1.52,0-2.24-1.9-.55-4.1.66-3.6,2.87m-16.22-.06c1.42,1,4.72,0,3.77-2.07-1.57-1.39-3.19.71-3.77,2.07m-4.08-.58c-.14.43-.26.87-.39,1.3,1.06,1.29,3.66.07,2-1.32l-1.57,0m14.8.69a4,4,0,0,0-1.3,2.53c2,.47,4.13-.37,4.67-2.54-1.09-.23-2.37-.73-3.37,0m-6.76,2.5c-.72.62-1.1,2.1.05,2.47,1.35.63,2.39-.77,3.25-1.6l-.8-.85-2.5,0m-6.56,1.06c-.15,2,2.86,2.66,3.64.87a2.15,2.15,0,0,0-3.64-.87m12.07,4.17c0,.43,0,.87,0,1.3a25.51,25.51,0,0,0,2.59-.34c0-.91.09-1.89-1-2.07Q95,130.19,94.22,130.76Z"/><path class="cls-4" d="M51.34,105.46c.31-1.09-.14-2.35.28-3.47.73,1.14,1.51,2.44,3.05,2.44-2.1,2.11-1.61,5.31-2.11,8-.46,1.65,1.38,2.45,1.77,3.85.68,2.06.52,4.4,1.74,6.27.5.77,1.33,1.65,2.34,1.34.66-1.13,1.35-2.4,2.87-2.35.46,1.83-1.52,2.28-2.41,3.45,1.45,1.76,3.61,3.31,3.94,5.7-.54,2-3.16,2.07-4.81,2.72l-.15,0-1.14-1.51.12-.34a2.29,2.29,0,0,0,0-2c-1-.45-2.26-.58-2.84-1.63-1.26-1.67-.19-3.79-.56-5.65-.52-.61-1.24-1-1.74-1.64-.19-.87.56-1.65.53-2.51-.6-1.24-1.85-2.13-2-3.58C49.53,111.55,49,107.88,51.34,105.46Z"/><path class="cls-4" d="M65.07,123.3c-.76-.92.05-2.08.49-3a29.29,29.29,0,0,0,2.82,3.57C67.28,123.81,65.85,124.34,65.07,123.3Z"/><path class="cls-4" d="M118,136.17c1.39-2.14,3-4.34,5.51-5.23l.33-.16a16.32,16.32,0,0,1-1.19,2.91,57.36,57.36,0,0,0-6.55,11.46c-1.23,2.85-1.44,6-2.73,8.84-2,4.62-4.53,9.29-8.69,12.3-3.13,2.21-7.54,3.5-11.07,1.45.59-.53,1.17-1.07,1.71-1.65a38.11,38.11,0,0,1-18-6.85c-2.36-1.74-4.45-4.39-4.12-7.49l.82.09c.47.07.95.11,1.43.15a3.4,3.4,0,0,1,.27.89c1.16,3.51,7.27,2.22,7.35,6.52,1.85.07,2.89,1.57,4.21,2.58,2.41.26,4.85,0,7.28.11.87.88,1.92,1.95,3.27,1.44-.92-2.42-3-5.11-1.87-7.73,1.93,1.64,4.63,4,7.27,2.48-.06-1-.12-2-.13-3,2.42-.23,5.12-.53,6.92-2.33a4.12,4.12,0,0,0,.77-4c3.25-1.9,4.59-5.61,6.32-8.75.81-1.22.63-2.7.91-4.06m-15.15,27.41c-1.45.8-3.21.36-4.79.68,0,.78,0,1.56,0,2.34a8.1,8.1,0,0,0,8-2.19c1.2-1.3.51-3.14.26-4.66C105.08,160.91,104.15,162.4,102.89,163.58Z"/><path class="cls-4" d="M81.16,134.65c3.78.92,7.52,2.11,11.42,2.33a15.76,15.76,0,0,0-2,8.68c-3.13-1.66-4.24-5.38-5-8.6C84.49,135.59,81.88,136.69,81.16,134.65Z"/><path class="cls-4" d="M63.18,135.57c1.25.12,3.06-.5,3.76.92.57,1.86,1,3.77,1.71,5.59C66.2,140.67,62.49,139,63.18,135.57Z"/></g><g id="_e19429ff" data-name="#e19429ff"><path class="cls-5" d="M158.7,74.33a6.47,6.47,0,0,1,2.89-.34A2,2,0,0,1,158.7,74.33Z"/></g><g id="_f4a12dff" data-name="#f4a12dff"><path class="cls-6" d="M73.57,84.06A9.66,9.66,0,0,1,76.43,81a11.09,11.09,0,0,1-2.34,4.2C73.39,85.49,73.46,84.47,73.57,84.06Z"/><path class="cls-6" d="M54.75,104.23c1-2.16,1.22-5.38,3.92-6.16-1,1.9-2.6,3.91-1.68,6.18Z"/><path class="cls-6" d="M167.92,134.28l1.11,0c.15,6.3.51,12.59.8,18.89-.33,2.12-1.94,3.77-2.5,5.84,0-1.84-.42-4,1-5.51,1.11-1.34.81-3.17.65-4.75C168.63,144,168.14,139.12,167.92,134.28Z"/></g><g id="_010000ff" data-name="#010000ff"><path class="cls-7" d="M21.72,89.17c1.79-.12,4-.42,5,1.44C25,90.56,23.08,90.44,21.72,89.17Z"/><path class="cls-7" d="M149.4,105.25a6.57,6.57,0,0,1,3.78,1.49C152.26,109.17,150.1,106.5,149.4,105.25Z"/><path class="cls-7" d="M153.59,108.48c.77.07,1.54.16,2.31.28.12.55.24,1.11.34,1.66C154.88,110.67,154.07,109.58,153.59,108.48Z"/><path class="cls-7" d="M80.67,122.34l1.57,0c1.7,1.39-.9,2.61-2,1.32C80.41,123.21,80.53,122.77,80.67,122.34Z"/><path class="cls-7" d="M89.05,192.58c1.59-.79,3.32,1.51,2.25,2.87-1,1-2.71.38-3.43-.64C87.43,193.91,88.31,193,89.05,192.58Z"/></g><g id="_010100ff" data-name="#010100ff"><path class="cls-8" d="M29.15,90.76a19.81,19.81,0,0,1,12,6.27c-2.55-1-4.94-2.43-7.43-3.6C32.13,92.65,30.31,92.18,29.15,90.76Z"/><path class="cls-8" d="M36.56,127.54a5,5,0,0,1,2.43-2A2,2,0,0,1,36.56,127.54Z"/><path class="cls-8" d="M110,189.46c-.14-2.66,2.75-3.86,4.39-5.46l.51.43A6.77,6.77,0,0,1,113.2,189C112.36,189.8,111.08,189.43,110,189.46Z"/></g><g id="_de9229ff" data-name="#de9229ff"><path class="cls-9" d="M60.29,101.05A4.54,4.54,0,0,1,62,98.29,3.51,3.51,0,0,1,60.29,101.05Z"/></g><g id="_f3a02dff" data-name="#f3a02dff"><path class="cls-10" d="M180.82,137.69c0-3.2-.1-6.51.84-9.61.62,2.78.43,5.66.46,8.5C181.69,137,181.26,137.33,180.82,137.69Z"/><path class="cls-10" d="M127.59,168.71c.48,1.1,1,2.51,0,3.49A11.34,11.34,0,0,1,127.59,168.71Z"/><path class="cls-10" d="M131.46,169.18a37.89,37.89,0,0,1,1.41,5.86A7,7,0,0,1,131.46,169.18Z"/><path class="cls-10" d="M164.64,177.74c-.89-.74-1.37-2-.4-2.93A8.06,8.06,0,0,1,164.64,177.74Z"/></g><g id="_f4a02dff" data-name="#f4a02dff"><path class="cls-11" d="M111.7,173.67c.87,0,1.74-.12,2.6-.2-.76.94-1.76,1.81-3.06,1.54C111.39,174.56,111.54,174.11,111.7,173.67Z"/></g><g id="_020100ff" data-name="#020100ff"><path class="cls-12" d="M114.6,183.77c-.62-2.91,1.29-5.59,3.69-7C118.46,179.45,116.35,181.88,114.6,183.77Z"/></g></g></g></svg>