<svg xmlns="http://www.w3.org/2000/svg" viewBox="0 0 269.62 300.25"><defs><style>.cls-1{fill:none;stroke:#231f20;stroke-miterlimit:3.86;stroke-width:0.32px;}.cls-2{fill:#231f20;}.cls-3{fill:#d71920;}.cls-4{fill:#fff;}.cls-5{fill:#484749;}.cls-6{fill:#d9dbdc;}.cls-7{fill:#df725a;}.cls-8{fill:#f2caba;}.cls-9{fill:#e89c84;}</style></defs><title>Ingolstadt</title><g id="Слой_2" data-name="Слой 2"><g id="Layer_1" data-name="Layer 1"><g id="g11"><path id="path755" class="cls-1" d="M134.93,300.09c-45.23-13.4-90.47-59-110.4-119.1C3.19,116.68-.24,81.41.19,24.49,44.89,4.13,98,.59,134.93.16c37,.43,89.81,4,134.5,24.33.43,56.92-3,92.19-24.33,156.5C225.16,241.11,180.17,286.69,134.93,300.09Z"/><path id="path759" class="cls-2" d="M9.6,47.83a19.2,19.2,0,0,1,.07-2c-.07-2.54-.07-5.07-.07-7.54.07-5.91.07-5.91.28-7.53,3.81-1.62,7.61-3.17,11.48-4.72C53.41,15,87.78,9.8,121.72,9.8c.71,0,1.48,0,2.26.07s1.62-.14,2.46-.14h5.71c.84,0,1.69.07,2.46.14s1.76-.07,2.68-.07c2.46-.07,4.93-.07,7.39-.07.78,0,1.55,0,2.33.07h5.13c13.46.28,27,1.55,40.36,3,23,3,46.34,8.17,67.54,17.89.07.84.21,1.76.35,2.68v3.66c-.07,2.39-.07,4.86-.07,7.32a19.39,19.39,0,0,0,.07,2v3.52A489.78,489.78,0,0,1,253.91,115c-2.25,11.13-4.64,22.4-7.53,33.45-2,6.27-3.95,12.61-5.85,18.95q-2.11,5.81-4.22,11.62a329.52,329.52,0,0,1-15.64,32.61c-2.11,3.31-4.16,6.62-6.2,10l-4.22,6.34c-5.22,6.9-6.2,8-6.34,8.38-3.95,4.36-7.82,8.73-11.69,13.17a187.45,187.45,0,0,1-23.66,19.65c-3.1,1.9-6.2,3.87-9.23,5.84-7.53,4-15.42,7.54-23.31,10.85-.56.13-1.06.28-1.55.42-5.92-2.25-11.76-4.93-17.61-7.54A169.23,169.23,0,0,1,84,256.09c-3.09-3-6.19-6-9.22-8.95L67,238.34c-7.25-9.44-8.38-11.27-8.73-11.48-3.24-5.07-6.48-10.15-9.65-15.22C33.2,183.76,23.48,154,17.28,122.84c-2.82-15.85-2.82-16.9-3-17.12-1.62-13-3-26-4.08-38.94-.21-6.34-.42-12.68-.57-19"/><path id="path763" class="cls-3" d="M134,171.72Q134,227,133.9,282.22c-3.94-1.69-7.88-3.38-11.83-5a167.58,167.58,0,0,1-34.58-22.74c-2.11-2-4.22-3.87-6.27-5.78-3.17-3.45-6.34-6.9-9.5-10.28a248.92,248.92,0,0,1-18.1-25.49v-.28q40.14-20.5,80.42-40.92"/><path id="path767" class="cls-4" d="M169.26,182.42h-2.82a5.46,5.46,0,0,1-3.17-3.31,8.22,8.22,0,0,1,1.34-.07h2.25c1.62-.07,3.88-.14,4.65-1.76,0-1.13,0-1.13-.21-1.41-3-.7-6,.42-9,.07a9,9,0,0,1,.21-2,9.44,9.44,0,0,1,1.69-.7c.84.07,1.83.14,2.81.28l8.25-2.33a32.33,32.33,0,0,1,7.32,1c3-.64,7-2.39,10-.92,0,2.12-2,2.05-3.59,3a8.16,8.16,0,0,0-.07,1.34c1.76.84,3.87-.07,5.49,1.13v1.19a6.76,6.76,0,0,1-3.17,1.41c-.21.57-.21.57-.07,1.62,1.27.85,2.89.36,4.08,1.13,0,2.11-2.53,1.48-3.94,2.53,0,1.63.85,1.91,2,3,0,2.33-2.11,1.27-3.94,1.34a1.86,1.86,0,0,0-.35.42c.42,1.48,1.4,2.89,1.69,4.3-.7,1.48-2.89,0-3.8-.49h-1.06c-.77,1.55,1.13,3.16-.35,4.64-1.62-.35-3.24-2.25-4.72-.77a.89.89,0,0,0,.07.42c3,2.82,6.06,5.71,9.16,8.59,0,.85,5.49,5,6.34,5.71a6.81,6.81,0,0,0,5.77-2.89c1.13-3,.92-5.42-2-7.11-2.61,0-3.24-.07-5.22,2-.56.7-1.12,1.48-1.68,2.25-2,.14-2.12-1.12-1.91-2.67a11,11,0,0,1,4.44-4.51.53.53,0,0,1,.14-.35c-3.1,0-4.79,2.47-6.48,4.65-2,0-2.11-1.48-1.76-3.24a38.12,38.12,0,0,1,7.19-5.29v-1a9.21,9.21,0,0,1,1.19-8.73c.57-.64,1.13-1.27,1.69-1.83a11.56,11.56,0,0,1,7.82-2,5,5,0,0,1,.42,2.26c-6.48,2.6-6.48,2.6-6.9,3a31,31,0,0,0,4.37-.5c2.32.43,4.71,1.69,1.83,3.45-3.59-.42-5.29-1.55-7.12,2.19.15,4.64,4.37,5.84,7.05,9.22.35.92.7,1.83,1.12,2.82,0,.77.07,1.55.15,2.39-.36,1.2-.71,2.47-1.06,3.74-2.26,3.87-6.34,5.56-10.78,5.21-.21,1.69-.42,3.38-.56,5.07l.84,2.75a2,2,0,0,1,.64.14c.91-.57,1.34-1.2,2.46-1.2,3.74,6.9-2.46,14.93-7.46,19.22a13.84,13.84,0,0,0,.49,2.19c-.56,1.69-1.83,2.6-3.24,1.19a15.23,15.23,0,0,1-.07-1.75.54.54,0,0,1,.35-.15c-.35-2.46-5.77-.84-7,.08a17.25,17.25,0,0,0-.91,2c-3.88,0,.56-4.86,1.05-5.64,0-3-2.82-.56-4.15-1.9v-1.13c1.12-1.12,5.28.43,4.71-1.9-1.54-.7-2.53-.77-2.25-2.53,1.34-.63,2.19-1.06,3.59-.21,1.27,2,1.83,4.15,4.44,3.8a9.32,9.32,0,0,0,3.59-5.71,50.67,50.67,0,0,1-6.41-7.6,24.85,24.85,0,0,1,.85-5.56c-2.68,1.26-5.29,2.6-7.89,3.94-2.68,2.18-1.62,3.1.28,5.63a10.44,10.44,0,0,0,.14,1.48c-2.32,4.09-7,6.62-10.21,10.07a12.51,12.51,0,0,0,.49,2.33c-.21.7-1.48,2-2.25,2-1.34-1.34-.71-1.9-.71-3.45-1.26-1.27-5.7-.64-7,.42-.29.78-.57,1.55-.85,2.32-3.31-.77-.21-4.36,1.27-5.49.21-2.68-2.54-1.26-4.23-2.11-.07-1.55-.14-1.27,1-1.83,1.05,0,4.15.77,3.73-1.13-.85-.56-1.69-1.13-2.47-1.62V228c3.31-2.68,4.3.78,6.2,3.31l1.69.21a24.47,24.47,0,0,0,3.8-3.88h.28c.36-.63.71-1.19,1.06-1.75,0-2.82-2.39-5.71-3.1-8.6,0-6,6.91-4.58,10.5-6.69,0-2.53-4.3-5.84-6.69-6.41-3.73,1.76-7.33,3.59-10.21,6.55.42,1.55.91,3.88-1.55,3.88l-.85-.64a5.76,5.76,0,0,0-.14-2.67,8.89,8.89,0,0,0-6.2.14c-.49.63-1,2-1.48,2.81h-.63c-2.75-2.74,3.59-4.85,1.2-7.25l-3.24-.21a1.83,1.83,0,0,1-.43-1.34c.78-.77,3.52-.56,4.66-.56.63-1.9-.64-1.9-2.26-3,0-2.47,2.68-1.9,4-.77.64,1.12,1.84,4.15,3.66,3.73,2.89-2.26,5.78-4.51,8.74-6.77a.52.52,0,0,1,.07-.35c-3.66-2.25-7.82-3.59-11.83-5.14-1.76-.21-2,.36-3.17,1.55a3.86,3.86,0,0,1-2.75-.77c0-1.62,1.69-1.48,2.39-2.47-.35-2.53-1.82-3.8-3.8-5.42-.7-.07-1.33.21-2.89.14,0-1.83.5-1.55,2.26-2.11,1.34.14,2.81.63,4-.07a4,4,0,0,1,.28-1c-.63-1.06-1.54-2.18-1.54-3.45a11.87,11.87,0,0,1,1.54.07c.71,1.27,1.34,3,3.11,3,.56-1.06.14-1.69.14-2.82a4.82,4.82,0,0,1,.91-.77c3.38.84,1.13,4.15.57,6.2v1.4c3.58,2.12,8.52,3.32,12.46,4.72,4-3.24,9.58-4.57,13.94-7.25,3.81-5.71-11.83-1.27-12.39-1.2"/><path id="path771" class="cls-4" d="M94.92,200.63c-.77.78-1.53,1.55-2.23,2.39-.07,6.83-.08,13.73-.08,20.64.63.63,1.29,1.22,2,1.92h10.55a29.21,29.21,0,0,1,2.16-2.15V202.94c-.78-.77-1.46-1.53-2.16-2.23C101.71,200.64,98.3,200.63,94.92,200.63Zm2.62,4.62h5.16v15.94H97.54Z"/><path id="path779" class="cls-4" d="M51.93,210c-5-8.87-9.3-18.1-13.45-27.4l-5.07-13.31a1.94,1.94,0,0,1,.07-.63Q145,112,256.38,55.16c.28,12-1.41,24.51-2.61,36.41-.84,5.64-1.69,11.27-2.53,17Q151.4,159.26,51.93,210"/><path id="path787" class="cls-2" d="M60.59,201.51l-5.35-1.9-3.17-6.34c6.34-3.17,6.34-3.17,6.69-3.17.63,1.27,1.26,2.6,1.9,3.94,2.47-1.27,5-2.54,7.54-3.8-1.34-2.68-2.61-5.28-3.88-7.89-2.82,0-8.17,4.08-11.48,5.28-1.55-.56-3-1-4.51-1.55-6.4-12.53-6.4-12.53-6.83-13.73.5-1.48,1-2.89,1.48-4.3,4.72-2.46,9.44-4.86,14.23-7.25,1.83.49,3.66,1,5.49,1.62,1.06,2.11,2.11,4.3,3.17,6.48-2.25,1-4.44,2.18-6.62,3.31a15.14,15.14,0,0,0-2.18-3.73c-2.47,1.26-4.93,2.6-7.4,3.94,1.2,2.39,2.47,4.79,3.74,7.18a.79.79,0,0,1,.42.08c3.52-1.84,7.11-3.67,10.7-5.43,1.55.49,3.17,1,4.79,1.48,2.33,4.51,4.65,9.08,7,13.66-.56,1.62-1.12,3.24-1.62,4.93-4.71,2.4-9.43,4.79-14.08,7.19"/><path id="path791" class="cls-2" d="M83.34,189.75c-1.55-.57-3-1.06-4.51-1.55L64.68,160.52c.42-1.48.91-3,1.41-4.37,5-2.46,10-4.93,15-7.32,1.41.42,2.89.91,4.37,1.34,1.06,2.11,2.19,4.22,3.31,6.4-2.18,1.06-4.36,2.19-6.48,3.31a14.56,14.56,0,0,1-1.69-3.31c-2.53,1.27-5,2.54-7.47,3.81a2.76,2.76,0,0,0,.08.77c3.52,6.9,7,13.88,10.63,20.85,1.13,0,7.19-3,7.61-3.8-2.32-4.72-2.32-4.72-2.68-5.92,2.11-1.13,4.3-2.18,6.48-3.24,1.41,2.89,2.89,5.78,4.37,8.73-1.2,3.87-1.2,3.87-1.62,4.65-13.53,7-13.53,7-14.65,7.33"/><path id="path795" class="cls-2" d="M104.11,179.32c-1-2-1.9-3.94-2.81-5.84.7-.43,1.4-.85,2.18-1.27-3.66-7.26-7.33-14.51-10.91-21.76-.92.35-1.77.7-2.61,1.05-.92-2-1.83-4-2.75-6,3.73-1.91,7.54-3.73,11.34-5.57.92,1.84,1.83,3.74,2.82,5.64,0,.42-1.9,1.27-2.26,1.48,1.27,2.46,2.54,4.93,3.81,7.46,1.9-1,3.8-2,5.77-2.89,0-1.83-2.61-5.77-3.52-7.6-.49.21-2.25,1.26-2.68,1.05-1-2-2-3.94-2.89-5.91,3.81-1.9,7.61-3.8,11.41-5.64.85,1.77,2.47,4,2.82,6-.7.35-1.41.7-2,1.06,3.59,7.18,7.18,14.29,10.85,21.55,1,0,1.69-.78,2.67-.78.84,1.83,1.76,3.74,2.68,5.64a1.79,1.79,0,0,0-.5.56c-10.42,5.28-10.42,5.28-10.77,5.28-1-1.9-2.32-3.87-2.82-6l2.33-1.06c-1.27-2.46-2.54-4.93-3.74-7.39a5.23,5.23,0,0,1-.56-.64c-1.9.92-3.73,1.9-5.56,2.89.63,2.75,2.46,5.42,3.73,8a6.68,6.68,0,0,0,2.46-1c1,1.9,2,3.8,3,5.78l-11.41,5.91"/><path id="path799" class="cls-4" d="M155,174.53h.21c.57,1.13,3,1.9,4.16,2.47a26.64,26.64,0,0,1-5.22-.71v.35c2.19,1.48,6.42,1,8.88,1.13.42.07.91.14,1.48.28-.35.22-.35.22-5.5.5-.7-.14-1.33-.28-2-.36-1.41,0-2.81,0-4.15.08a10.11,10.11,0,0,1-8.24-1.55c.21-1.62.77-1.83,2-3a4.22,4.22,0,0,1,.14-1,9.29,9.29,0,0,0-1.69-2.67c2.6.21,3.59.35,4.51,2.74.21.28.42.57.7.92a1.53,1.53,0,0,1,.35-.21c0-1.55-.77-2.26-1.69-3.53,2.4,0,4.23.57,4.66,3,.42.5.84,1,1.33,1.48"/><path id="path803" class="cls-4" d="M164.47,178.05c-.57-.14-1.06-.21-1.48-.28,0-.21-2.32-.7-6.27-2.46-.49-.36-1-.71-1.41-1-.06.07-.14.14-.14.21H155a21.33,21.33,0,0,0-2.68-5.49c3.52.78,4,1,5.07,4.29,1.26,1.56,3.17,2.33,4.86,3.18,1.12.42,2.39.84,3.52,1.26a5.59,5.59,0,0,0-1.27.28"/><path id="path807" class="cls-5" d="M155.17,174.53c0-.07.07-.14.14-.21.43.28.92.63,1.41,1,3.94,1.76,6.27,2.25,6.27,2.46-2.46-.14-6.69.35-8.88-1.13v-.35a26.64,26.64,0,0,0,5.22.71c-1.2-.57-3.59-1.34-4.16-2.47"/><path id="path811" class="cls-2" d="M175.24,175a2.34,2.34,0,0,1,4-1.19c-1.34.35-2.68.77-4,1.19"/><path id="path815" class="cls-2" d="M128.73,124.55c-3.31,1.62-6.63,3.23-9.94,4.92.49,2,1.78,4,2.7,5.93.42.07.42,0,1.61-.46,2,8.1,4.05,16.16,6.09,24.26-.71.35-.72.37-1,1,.91,1.83,1.85,3.65,2.77,5.55,2.81-1.48,5.59-3,8.47-4.47,0-1.48-2.14-4.51-2.85-5.85-.42.21-.88.4-1.23.61a4.45,4.45,0,0,1-.39-2.15c1.41-.78,2.91-1.53,4.39-2.24l1.24,1.24c-.21.7-1.08.76-1.08,1.46.84,1.83,1.78,3.63,2.69,5.47,3-1.55,6-3.07,9-4.55-1-1.9-1.85-3.79-2.77-5.62-.77.07-.85.29-1.62.08-5.28-6.06-10.57-12-15.71-18a6.39,6.39,0,0,1-.38-.7,7.35,7.35,0,0,1,.85-.69C130.59,128.35,129.64,126.45,128.73,124.55Zm3.85,19c1.13,1.33,2.18,2.67,3.31,4a7.74,7.74,0,0,1-2.31,1.47C133.3,147.62,132.3,144.9,132.58,143.57Z"/><path id="path819" class="cls-4" d="M46.15,158.83c.14-3.66.28-7.26.42-10.78l18.18-8.24c-.36,8.38-.36,8.38-.64,9.93q-9,4.44-18,9.09"/><path id="path823" class="cls-4" d="M28.9,155.3a24.15,24.15,0,0,1-1.27-5.21c.57-14.5.57-14.5.78-15.7,6-2.75,12-5.49,18-8.24-.28,7.11-.57,14.23-.85,21.41C40,150.09,34.47,152.7,28.9,155.3"/><path id="path827" class="cls-2" d="M153.69,154c-1-2-2.32-4-2.74-6.13,1.62-.77,1.62-.77,2.11-1.27-3.66-7.25-7.32-14.43-11-21.62-2.25,1.13-2.25,1.13-2.53,1.06-.43-.77-3.1-5.07-2.75-5.78,1.2-.56,8.8-5.07,9.72-4.64,3.73,3.66,7.46,7.32,11.27,11h.28c-1.27-2.6-2.53-5.21-3.8-7.74-2.26.91-2.26.91-2.61.84-1-1.9-1.9-3.8-2.81-5.7,1.4-.5,1.4-.5,11.61-5.71.92,1.9,1.77,3.8,2.82,5.71-.77.42-1.55.91-2.32,1.4,3.66,7.19,7.39,14.44,11.12,21.69,2-1,2-1,2.4-1,.92,1.83,1.83,3.66,2.82,5.57,0,.41-8.24,5-9.16,4.71l-13.59-13.59c0,.42,4.72,9.58,5,10.42a5.39,5.39,0,0,0,2.25-.77c2.75,5.28,2.75,5.28,2.89,6.05-3.73,1.77-7.32,3.6-11,5.5"/><path id="path835" class="cls-2" d="M178.27,106.92c-.21-.06-.21-.06-5.49,2.68.14.7.14.7,2,4.37-2.11,1-4.15,2-6.19,3-1.7-3.46-3.39-6.84-5.08-10.22,6.48-3.38,13-6.76,19.44-10.07l3.17,6.13c0,1.12,0,27.39.14,27.32,1.48-.77,3-1.47,4.51-2.18-.21-.77-.21-.77-2.47-5.14,5.71-3,5.71-3,6.48-3.17,1.76,3.59,3.6,7.18,5.43,10.84-6.48,3.25-13,6.56-19.37,9.87-.71,0-2.75-4.79-3.1-5.57-.07-1.33.35-20.63.56-27.82"/><path id="path839" class="cls-4" d="M84.4,139.39c.06-3.1.13-6.13.28-9.16,6-2.81,12-5.56,18-8.31-.07,2.75-.15,5.5-.21,8.24-6.06,3-12.12,6.13-18.1,9.23"/><path id="path843" class="cls-4" d="M65.66,138.19c.78-20.91.78-20.91,1-21.62,6-2.82,12-5.56,18-8.31q-.53,10.77-1.06,21.55c-6,2.75-12,5.57-18,8.38"/><path id="path847" class="cls-4" d="M23.69,135.66c-1.34-6.27-2.68-12.54-4-18.81a1.94,1.94,0,0,1,.07-.63c2.75-1.27,5.57-2.54,8.39-3.73-.29,7.18-.57,14.36-.78,21.62-1.27.49-2.53,1-3.73,1.55"/><path id="path851" class="cls-6" d="M186.23,130.09c-.14.07-.07-.7,0,0"/><path id="path855" class="cls-2" d="M203,129c-2.6-5.07-2.6-5.07-2.88-6.06.7-.35,1.4-.71,2.11-1-2.47-5.21-10.78-21.55-11.13-21.9a20.32,20.32,0,0,0-2.18,1.13c-1-.5-3-4.44-3.17-5.92q10.77-5.49,21.62-11h.56c.64,1.41,4.86,8.46,4.51,9.58-2.05,1-4.08,2-6.06,3-.84-.42-1.48-2.61-1.83-3.45-.42,0-.42,0-6.34,3.1-.56,1.12,2.89,6.69,3.53,8,1.68-.85,3.45-1.69,5.21-2.47.91,1.9,1.9,3.81,2.88,5.78-1.12.56-4.36,1.76-4.86,2.81,1.34,2.61,2.68,5.21,4.09,7.89,2.11-1.13,4.22-2.25,6.41-3.31-.71-1.55-1.41-3.1-2.11-4.58.84-.42,5.63-3.31,6.4-3,4.09,7.74,4.09,7.74,5.07,10.14-7.32,3.73-14.57,7.46-21.83,11.2"/><path id="path859" class="cls-4" d="M47.42,124.53q.42-10.77.85-21.55c5.91-2.82,11.9-5.63,17.88-8.38,0,1.34.07,2.68.14,4-.7,17.12-.7,17.12-.91,17.54-6,2.74-12,5.57-18,8.38"/><path id="path863" class="cls-4" d="M103.83,120.16c.15-7,.21-14.36.92-21.41,6-2.81,12-5.56,18-8.31-.28,7.12-.5,14.23-.71,21.34-6,2.75-12.11,5.57-18.17,8.38"/><path id="path867" class="cls-4" d="M134,107.34v6.77c-3.8,1.9-7.6,3.87-11.33,5.84.06-2.54.14-5.07.28-7.53,3.66-1.7,7.32-3.38,11-5.08"/><path id="path871" class="cls-2" d="M229.15,73.41c-.91.28-1,.3-18.64,9.24.28,1,2.32,6,3.24,6a19.26,19.26,0,0,1,2.07-1.08c3.66,7.26,7.36,14.46,11.09,21.72-.77.35-1.53.73-2.31,1.15,1,2,2,4,3,6.09,3.73-2,7.43-3.88,11.16-5.78-.35-1.9-1.77-4-2.61-5.77-.92.07-1.62.61-2.47.61-1-2-3.54-5.73-3.54-7.78,2.61,1.84,5.25,3.72,7.93,5.55v.31c-.28.13-.57.32-.85.46-.28,1,2.23,5.58,3,5.93,7.53-3.87,7.53-3.86,9-4.85-2.26-4.72-2.23-4.72-2.93-5.7a2.21,2.21,0,0,1-1.46.38c-8-5.28-8-5.27-8.17-5.62a18.54,18.54,0,0,1,1.93-1.15c.49-1.55,1.62-3.7,1.62-5.39-2.12-4.16-4.2-8.25-6.32-12.33C232.3,74.71,230.7,74.05,229.15,73.41Zm-.93,8.09c1.2,2.32,2.35,4.68,3.55,7,0,1-4.1,2.58-5.09,3.08-1.27-2.4-2.57-4.78-3.77-7.17C223.54,83.08,226.82,82.13,228.22,81.5Z"/><path id="path875" class="cls-3" d="M137.14,62.06c3,0,6.06,0,9.09.07h5.49c22.89.84,46.13,2.39,68.53,8q-41.83,21.22-83.53,42.61-.1-25.36-.14-50.64h.56"/><path id="path879" class="cls-4" d="M29.18,110.87c.21-7.18.49-14.37.78-21.55,6-2.82,12-5.64,18.09-8.45-.28,6.83-.49,13.66-.7,20.49a5.93,5.93,0,0,0-.28,1.19c-6,2.75-12,5.5-17.89,8.32"/><path id="path883" class="cls-4" d="M85.73,106.71c0-7-.14-14.65.78-21.62,6-2.82,12-5.63,17.95-8.38.14.28.14.28-.77,21.55l-18,8.45"/><path id="path887" class="cls-4" d="M16.43,94.74c-.49-4.58-1-9.16-1.48-13.66,5.71-2.26,5.71-2.26,14.65-5.36L29,88.83c-4.23,2-8.38,3.94-12.54,5.91"/><path id="path891" class="cls-4" d="M67.42,93c.28-7.26.57-14.44.85-21.62Q75.55,68,82.85,64.6c1.12-.14,2.25-.29,3.45-.36C86,71,85.66,77.76,85.38,84.6c-6,2.74-12,5.56-18,8.38"/><path id="path899" class="cls-4" d="M134,63.05V84.17c-3.45,1.55-6.9,3.1-10.28,4.72q.42-10.77.85-21.55c3.1-1.48,6.27-2.88,9.43-4.29"/><path id="path903" class="cls-4" d="M49,79.32l.42-9.09C60.17,68,60.17,68,67.42,66.71c-.07,3.8-.07,3.8-.28,4.3C61.08,73.75,55,76.5,49,79.32"/><path id="path907" class="cls-4" d="M13.12,46.92V38.26c.07-4.44.07-4.44.28-5.21,7.54-3,15.15-5.71,22.89-8.25l8.88-2.32c13.17-2.82,13.17-2.82,13.38-3C72.35,17.2,72.35,17.2,81.36,16c6.06-.63,12.19-1.27,18.32-1.83,11.61-.49,23.31-.85,34.93-.85h1.83c8.31-.07,8.31-.07,24.51.29,12,.84,24.15,1.76,36.12,3.38l19,3.38A271.8,271.8,0,0,1,256.8,33.12c0,2.18,0,4.36.07,6.62V51.56c0,.08-21.13,10.71-31.48,16-10.28-2.12-20.64-4.23-31-5.78-6.34-.71-12.61-1.41-18.88-2.05-42.53-2.46-86.06-2.25-128,7.19-8.1,2.11-16.13,4.51-24.09,7-3,1.13-5.84,2.26-8.73,3.38-.84-3.73-.84-8.1-1.05-11.9-.21-6.2-.43-12.39-.57-18.52"/><path id="path911" class="cls-4" d="M117.78,62.2h1.9c1.34-.07,2.68-.14,4-.14-.07,1.55-.14,3.1-.21,4.72-1,.63-1,.63-17.82,8.38.07-4.23.22-8.38.36-12.54l11.76-.42"/><path id="path915" class="cls-3" d="M26.22,44V40.65c-.63.14-1.2.28-1.76.42V36.64C30,35.58,35.59,34,41.08,33.26v7c-1.62.28-3.17.63-4.72,1-.07-.91-.14-1.76-.14-2.6-1.69.28-3.38.63-5,1,0,1.84,0,3.67.07,5.5,1.2-.28,2.47-.5,3.74-.71v4.23c-1.27.21-2.54.49-3.81.77v5.78A13.49,13.49,0,0,1,33,54.88V59.1c-2.88.57-5.7,1.13-8.52,1.76V56.64a11.66,11.66,0,0,1,1.76-.35V44"/><path id="path919" class="cls-3" d="M227.78,58.05c0-1.41.07-2.82.14-4.23l1.34.21V38.4a8.39,8.39,0,0,0-1.48-.28c-.06,1-.14,2-.14,3l-4-.84V33.12c5.42,1.05,10.84,2.18,16.34,3.3v7.12l-4-.85c-.07-1-.14-2-.14-3a8,8,0,0,0-1.27-.28c-.07,5.21-.13,10.43-.13,15.71.56.07,1.12.14,1.75.28-.07,1.41-.14,2.82-.14,4.23-2.74-.57-5.49-1.13-8.24-1.62"/><path id="path923" class="cls-3" d="M42.35,55.09V35a19.84,19.84,0,0,1,2.25-2.4l10.29-1.69c1.33,0,2,.85,3,1.62v4.79c-1.55.21-3.09.42-4.64.7-.15-.77-.28-1.55-.36-2.32-1.9.28-3.73.57-5.56.85-.07,4.51-.14,9-.14,13.59v2c1.9-.35,3.8-.64,5.7-.92,0-1.4,0-2.81.08-4.22,1.62-.28,3.23-.56,4.92-.78v6.27c-.84.85-1.69,1.76-2.53,2.68-3.66.56-7.25,1.12-10.85,1.69-.77-.57-1.48-1.13-2.18-1.69"/><path id="path927" class="cls-3" d="M205.18,54.17V50l1.76.21V34.59c-.64-.13-1.2-.21-1.76-.28V29.88l13.87,2.32c1,.92,2,1.83,3,2.75V54.6a10.15,10.15,0,0,1-3.45,1.75c-4.51-.77-9-1.47-13.45-2.18"/><path id="path931" class="cls-7" d="M42.35,55.09c-.07-2.89,0-2.89,0,0"/><path id="path935" class="cls-8" d="M205.18,54.17c-.07-.63,0-.63,0,0"/><path id="path939" class="cls-3" d="M194.61,48.54v4.22c-2.25-.28-4.43-.56-6.62-.77V47.84h.92q1.78-7.62,3.59-15.22a3.45,3.45,0,0,0-.85-.07V28.19c2.47.28,5,.63,7.54,1V33.4a2.64,2.64,0,0,0-.78.14c1.34,5.28,2.68,10.56,4.09,15.91a8.08,8.08,0,0,1,.91.36V54l-6.75-.84v-4.3a7,7,0,0,1,1.12.14c-.14-.49-.28-1-.42-1.41l-3.31-.42a7.57,7.57,0,0,0-.49,1.34,5.3,5.3,0,0,1,1.05.07"/><path id="path943" class="cls-3" d="M69.82,52.91V48.68l1.76-.21V32.83a13,13,0,0,0-1.83.15V32c0-1.13,0-2.18.07-3.24l8.52-1.06v4.37l-1.62.21V47.84c.49-.08,1-.14,1.62-.21V52c-2.89.28-5.71.56-8.52.92"/><path id="path947" class="cls-9" d="M205.18,50c0,.7-.07.7,0,0"/><path id="path951" class="cls-3" d="M81.86,47.2c0-1.48.07-3,.14-4.44V31.64a17.34,17.34,0,0,0-1.9.14c0-1.48.07-2.89.14-4.3,5.92-.63,5.92-.63,7.32-.56,1.13,3.09,2.26,6.2,3.38,9.29,0,0,.14.29.29-5.63a1.42,1.42,0,0,0-.57.07,6.37,6.37,0,0,0-1.2.14V26.56l8.67-.63v4.3a13.65,13.65,0,0,0-1.76.14V45.86a14.14,14.14,0,0,1,1.76-.07v4.37c-6.48.49-6.48.49-7,.35-1.4-3.8-2.74-7.61-4.08-11.34,0,2.46.07,4.93.14,7.47h1.34v4.29l-8.38.85V47.34a13.8,13.8,0,0,1,1.76-.14"/><path id="path955" class="cls-4" d="M212.08,51V35.37c1.48.21,3,.49,4.51.77V51.78c-1.55-.29-3-.57-4.51-.78"/><path id="path959" class="cls-3" d="M173.91,50.58V46.36a10.7,10.7,0,0,1,1.48.13V30.79a9.12,9.12,0,0,0-1.34-.07c-.07.91-.14,1.83-.14,2.82-1.41-.14-2.75-.21-4.09-.29V26.07l16.34,1.48.21,7.18c-1.4-.14-2.74-.28-4.08-.35-.07-1-.15-2-.15-3a10.34,10.34,0,0,0-1.47-.07V46.92a14,14,0,0,1,1.62.14v4.36l-8.38-.84"/><path id="path963" class="cls-3" d="M152.71,46.78V42.06c1.62.07,3.24.14,4.86.28,0,1,.07,2,.14,3,1.9.07,3.73.14,5.63.28,0-2-.06-3.95-.21-5.85-2.67-.21-5.42-.35-8.16-.49-.78-.77-1.56-1.48-2.26-2.18V27.2c.7-.64,1.41-1.27,2.11-1.83,9.79.35,9.79.35,11.13.56l2.53,2.53v4.66c-1.76-.15-3.45-.22-5.14-.29V30c-1.9-.14-3.73-.21-5.63-.28v5.35a58.87,58.87,0,0,1,8.52.71c.71.71,1.41,1.41,2.11,2.18V48l-2.11,1.9-11.13-.64c-.84-.84-1.62-1.69-2.39-2.46"/><path id="path967" class="cls-3" d="M99.32,47.91V27.77a25.58,25.58,0,0,1,2-2.05c3.87-.21,8.52-1,12.32-.49l2.11,1.9v4.65c-1.69.07-3.38.21-5,.35V29.59c-2.18.08-4.29.14-6.41.29V45.44c2.12-.14,4.23-.21,6.41-.28V41.07c-1.4,0-2.74.08-4.08.14V36.85c2.18-.14,4.36-.28,6.62-.35l2.46,2.25v8.31c-.77.7-1.48,1.41-2.18,2.18-4,.14-8,.36-12,.57-.78-.64-1.55-1.27-2.26-1.9"/><path id="path971" class="cls-3" d="M142,49c-.77-.07-4.79-.14-6-.07h-1.26v-4.3h1.69V29h-1.69V24.66h3.73c.85,0,4.09.07,4.72.14v4.37a13.18,13.18,0,0,0-1.62-.07V44.73c1.55,0,3.1,0,4.65.08l.21-3.17c1.55,0,3.1.07,4.65.14v7.46L142,49"/><path id="path975" class="cls-3" d="M122.92,24.73h2c.85-.07,1.76-.07,2.68-.07h2.81l2.47,2.26V46.71c-.71.7-1.76,2-2.68,2.25-1.27-.07-5.35,0-6.13.07-1.62-.07-3.24-.07-4.79-.07-.63-.56-1.19-1.13-1.76-1.62,0-6.76,0-13.45.08-20.14L120,24.88c1-.08,2-.15,3-.15"/><path id="path979" class="cls-9" d="M42.35,35c0,3.8-.07,3.8,0,0"/><path id="path983" class="cls-4" d="M122.64,44.88V29.17h.84c.71-.07,1.41-.07,2.11-.07h2.33V44.73h-3.1a21.33,21.33,0,0,0-2.18.15"/><path id="path987" class="cls-4" d="M195.81,44.1a7,7,0,0,0-1.13-.14,11.47,11.47,0,0,1,1-3.24c.28,1.06.56,2.11.84,3.24a2.07,2.07,0,0,0-.7.14"/><path id="path991" class="cls-4" d="M121.56,200.79c-1.61,0-3.15,0-4.69.07-2.75,4.16-5.93,8.42-8.32,12.79.49,1.41,1,2.75,1.62,4.23,2,0,4.12,0,6.23.08v3.31h-1.77v4.39h8.55v-4.47s-1.46,0-1.46,0V218a10.21,10.21,0,0,1,1.46-.08V213.8h-1.62Zm-4.69,7.77v5.16h-3.7Z"/></g></g></g></svg>