<svg xmlns="http://www.w3.org/2000/svg" viewBox="0 0 299.2 299.2"><defs><style>.cls-1{fill:#ae9962;}.cls-2{fill:#0055a0;}.cls-3{fill:#fff;}</style></defs><title>Inter</title><g id="Слой_2" data-name="Слой 2"><g id="Layer_1" data-name="Layer 1"><circle class="cls-1" cx="149.6" cy="149.6" r="149.6"/><circle class="cls-2" cx="149.6" cy="149.6" r="137.38"/><circle class="cls-1" cx="149.6" cy="149.6" r="120.6"/><circle cx="149.6" cy="149.6" r="114.79"/><circle class="cls-1" cx="149.6" cy="149.6" r="98.97"/><path class="cls-3" d="M155.75,149.31c0,35.45.26,78.08,1.07,83.06,1.41,8.67,4.13,11.49,4.13,11.49H136.73s2.71-2.82,4.12-11.49c.81-5,1-47.61,1.07-83.06Z"/><path class="cls-3" d="M62.17,151.54A87.44,87.44,0,0,1,230.75,119h-12.7a75.81,75.81,0,1,0-79.79,107.56v1.4c-.06.64-.12,1.14-.17,1.5a46.23,46.23,0,0,1-2.22,8.49,87.47,87.47,0,0,1-73.7-86.37m97.41,77.88c-.09-.56-.17-1.47-.26-2.68a75.85,75.85,0,0,0,64.48-59.65h11.84a87.5,87.5,0,0,1-73.77,71,45.94,45.94,0,0,1-2.29-8.71"/><path class="cls-3" d="M113.14,89.79h26.25v13.53h-10v30.37h35.11v12.72H133.14l-17.59-30.19V94.61c0-2.52-2.41-4.82-2.41-4.82m45.25,0h25.17V107s-3-3.67-7.23-3.67h-18V89.79Z"/><path class="cls-3" d="M106.58,133.32s31.92,50.14,31.92,51.19V163.6s-29.84-49.85-31.18-52.53c-1.08-2.15-4-10.24-5.07-13.39A71.67,71.67,0,0,0,91,110a17.88,17.88,0,0,1,2.28,5.07c.29,2.09-3.77,60.07-4.31,62.65a33,33,0,0,1-2.86,7.49,71.5,71.5,0,0,0,15,19.19c.13-2.39.42-7.51.52-10.23C101.8,190.55,106.58,133.32,106.58,133.32Z"/><path class="cls-3" d="M126.89,173l-12-19.8s-.76,45.82-1,49.25c-.24,2.7-2.41,7.34-3.32,9.18a70.5,70.5,0,0,0,19.36,8.63c-.88-2.32-2.47-6.83-2.58-8.87C127.18,208.54,126.89,173,126.89,173Z"/><path class="cls-3" d="M211.31,186a34.32,34.32,0,0,1-3.25-8.23c-.55-2.59-4.61-60.57-4.32-62.66.25-1.74,2.08-4.75,2.66-5.67A71.62,71.62,0,0,0,195,97.15c-.92,2.62-4.12,11.64-5.26,13.92-1.34,2.68-31.17,52.53-31.17,52.53v20.91c0-1,31.92-51.19,31.92-51.19s4.76,57.23,4.91,60.87c.12,3,.45,9,.56,10.93A71.73,71.73,0,0,0,211.31,186Z"/><path class="cls-3" d="M155.72,78.27v52.79H141.79V78.39c2.52-.25,5.07-.39,7.65-.39q3.18,0,6.28.27"/><path class="cls-3" d="M164,54.67a70.85,70.85,0,0,0-6.71,7.24q-3.84-.33-7.78-.33c-3,0-6,.15-8.93.43a67.15,67.15,0,0,0-6.78-7.34Z"/></g></g></svg>