<svg xmlns="http://www.w3.org/2000/svg" viewBox="0 0 238.12 298.9"><defs><style>.cls-1{fill:#de2c37;stroke:#de2c37;}.cls-1,.cls-2,.cls-3{stroke-width:0.09px;}.cls-2{fill:#fefefe;stroke:#fefefe;}.cls-3{fill:#3a64a3;stroke:#3a64a3;}</style></defs><title>Ipswich</title><g id="Слой_2" data-name="Слой 2"><g id="Слой_1-2" data-name="Слой 1"><path class="cls-1" d="M.05.13C12.21.09,24.37,0,36.49.13c.14,3.75,0,7.5.09,11.19,4.38,0,8.76,0,13.14,0,.1-3.74.05-7.49,0-11.19C62.12.09,74.53-.06,86.94.23c0,3.7-.1,7.4,0,11.14,4.37,0,8.75,0,13.13,0,0-3.74,0-7.44.05-11.19,12.41-.09,24.86,0,37.27,0-.1,3.7,0,7.45,0,11.19,4.62,0,9.19,0,13.81-.05,0-3.64,0-7.34,0-11,12.26-.39,24.67-.19,37-.1,0,3.75,0,7.45.05,11.14,4.67,0,9.34,0,14.06,0-.15-3.74-.1-7.44-.05-11.19,12,0,23.89,0,35.85,0q.08,31.25,0,62.47c-4.14.1-8.47-.1-12.31,1.75a11.82,11.82,0,0,0-6.91,10.8q.08,90.2,0,180.45A29.05,29.05,0,0,1,213,258c-.24.15-.68.39-.88.49a5.26,5.26,0,0,1-2.53,1,4.89,4.89,0,0,1-.87.49,5.37,5.37,0,0,1-2.53,1c-.2.1-.63.34-.88.44a37.57,37.57,0,0,1-6.91,2.92l-.87.48a5.1,5.1,0,0,1-2.53,1,5,5,0,0,1-.88.49,5.13,5.13,0,0,1-2.53,1c-.19.1-.63.34-.87.44a35.81,35.81,0,0,1-6.91,2.92c-.24.15-.68.39-.88.49a5.26,5.26,0,0,1-2.53,1c-.19.15-.63.34-.87.49-8.22,3.69-16.49,7.49-24.91,10.7-.24.14-.68.39-.88.49a5.26,5.26,0,0,1-2.53,1,4.86,4.86,0,0,1-.87.48,5.28,5.28,0,0,1-2.53,1c-.2.09-.63.34-.88.43a9.91,9.91,0,0,1-3.5,1.46c-.24.15-.68.39-.88.49a6,6,0,0,1-2.53,1c-.24.15-.68.39-.87.49a28.91,28.91,0,0,1-5.94,2.48c-.19.1-.63.34-.87.44a10.06,10.06,0,0,1-3.51,1.46,7.52,7.52,0,0,1-.87.48,6.27,6.27,0,0,1-2.53,1c-.24.14-.68.39-.88.48a28.79,28.79,0,0,1-5.83,2.44,42,42,0,0,1-6.82-2.92c-.24-.1-.68-.34-.87-.44a15,15,0,0,1-3.41-1.51A91.07,91.07,0,0,1,97.3,289.6c-.2-.09-.63-.34-.88-.48a40.88,40.88,0,0,1-6.91-2.92,4.89,4.89,0,0,1-.87-.49,5.46,5.46,0,0,1-2.53-1c-.2-.1-.63-.34-.88-.49-6.13-2.33-12.11-5.11-18.09-7.78a5.37,5.37,0,0,0-.88-.49,11.15,11.15,0,0,1-3.5-1.46,5.68,5.68,0,0,1-.88-.48,6,6,0,0,1-2.53-1,9.4,9.4,0,0,1-.87-.48,46,46,0,0,1-6.91-2.92c-.25-.1-.68-.34-.88-.44a6.65,6.65,0,0,1-2.53-1c-.19-.1-.63-.34-.87-.49-6.13-2.29-12.12-5.16-18.1-7.78a8.71,8.71,0,0,1-.88-.49,45.42,45.42,0,0,1-6.91-2.92c-.19-.1-.63-.34-.87-.49s-1-.34-1.36-.48c.29-22.33,0-44.71.09-67,0-4.77.2-9.54-.09-14.26-.15-32.69-.1-65.43-.05-98.12.58-5.26-2.87-10.08-7.45-12.31a7.11,7.11,0,0,1-.87-.44c-3.55-.83-7.15-.73-10.7-.78Q.1,31.37.05.13M4.52,4.27q.15,26.85,0,53.76c4.14.44,8.47,1,11.87,3.65,4,2.92,7.35,7.39,7.5,12.5Q24,163.43,24,252.63c31.58,13.72,63.1,27.54,94.73,41,32-13.42,63.68-27.58,95.64-41.06V72.72c1-9.1,10.46-14.84,19.07-14.6,0-17.95,0-35.9,0-53.85q-13.5.08-27,0c0,3.84.05,7.69,0,11.53-7.64,0-15.27.1-22.91-.05,0-3.84.14-7.69-.05-11.53q-13.93.15-27.78,0c-.24,3.84-.15,7.69-.1,11.53-7.54.15-15.13.1-22.72,0-.09-3.84.05-7.69-.09-11.48-9.3.05-18.64,0-28,0,.05,3.84.05,7.69,0,11.53-7.49,0-15,.1-22.47-.05,0-3.84.09-7.69-.15-11.48-9.24,0-18.49.05-27.73,0-.2,3.84-.1,7.69,0,11.48-7.59.25-15.18.1-22.77.1-.1-3.84,0-7.69-.05-11.53C22.52,4.32,13.52,4.27,4.52,4.27Z"/><path class="cls-2" d="M137.39.13c.19,3.7.05,7.4.09,11.14,4.48.05,9,.1,13.48,0,.15-3.65-.24-7.35.19-11,0,3.65,0,7.35,0,11-4.62.1-9.19.05-13.81.05C137.39,7.58,137.29,3.83,137.39.13Z"/><path class="cls-2" d="M4.52,4.27c9,0,18,.05,27,0,.05,3.84-.05,7.69.05,11.53,7.59,0,15.18.15,22.77-.1-.05-3.79-.15-7.64,0-11.48,9.24.1,18.49,0,27.73,0,.24,3.79.1,7.64.15,11.48,7.49.15,15,.1,22.47.05.05-3.84.05-7.69,0-11.53,9.34,0,18.68.05,28,0,.14,3.79,0,7.64.09,11.48,7.59.1,15.18.15,22.72,0-.05-3.84-.14-7.69.1-11.53q13.86.15,27.78,0c.19,3.84.05,7.69.05,11.53,7.64.15,15.27.05,22.91.05.1-3.84,0-7.69,0-11.53q13.5.08,27,0c0,18,0,35.9,0,53.85-8.61-.24-18,5.5-19.07,14.6V252.53c-32,13.48-63.68,27.64-95.64,41.06-31.63-13.42-63.15-27.24-94.73-41q0-89.17-.09-178.45c-.15-5.11-3.51-9.58-7.5-12.5C13,59.05,8.66,58.47,4.52,58q.15-26.87,0-53.76M7.39,7.14c-.09,16.15,0,32.3,0,48.41,9,.58,18.25,7,19.76,16.2q.07,89,0,178.06c-.1.73.14,1.46.92,1.6,30.26,13.14,60.37,26.47,90.64,39.56,30.84-13.29,61.59-26.81,92.38-40.19.2-58.87,0-117.73.1-176.65.34-10.07,9.53-18.1,19.36-18.63.15-16.11.1-32.21,0-48.36-7.1.1-14.16.05-21.26,0,0,3.84.2,7.64-.1,11.43-9.53-.1-19.07-.05-28.6,0-.05-3.79.1-7.59-.1-11.43-7.3.05-14.64.05-21.94,0-.19,3.79-.1,7.64-.1,11.43-9.48-.05-19-.1-28.46,0-.14-3.79,0-7.59-.14-11.43-7.4.05-14.84.05-22.24,0-.09,3.84.15,7.64-.14,11.43-9.39-.05-18.73-.1-28.12,0-.29-3.79,0-7.59-.15-11.43q-11.08.08-22.18,0c-.1,3.84.14,7.64-.15,11.43-9.34-.1-18.73-.1-28.12,0-.24-3.79-.05-7.59-.15-11.43C21.55,7.19,14.45,7.19,7.39,7.14Z"/><path class="cls-1" d="M7.39,7.14c7.06.05,14.16.05,21.21,0,.1,3.84-.09,7.64.15,11.43,9.39-.1,18.78-.1,28.12,0,.29-3.79.05-7.59.15-11.43q11.08.08,22.18,0c.1,3.84-.14,7.64.15,11.43,9.39-.1,18.73-.05,28.12,0,.29-3.79,0-7.59.14-11.43,7.4.05,14.84.05,22.24,0,.19,3.84,0,7.64.14,11.43,9.49-.1,19-.05,28.46,0,0-3.79-.09-7.64.1-11.43,7.3.05,14.64.05,21.94,0,.2,3.84,0,7.64.1,11.43,9.53-.05,19.07-.1,28.6,0,.3-3.79.1-7.59.1-11.43,7.1.05,14.16.1,21.26,0,.1,16.15.15,32.25,0,48.36-9.83.53-19,8.56-19.36,18.63-.1,58.92.1,117.78-.1,176.65-30.79,13.38-61.54,26.9-92.38,40.19-30.27-13.09-60.38-26.42-90.64-39.56-.78-.14-1-.87-.92-1.6q-.07-89,0-178.06c-1.51-9.2-10.8-15.62-19.76-16.2,0-16.11,0-32.26,0-48.41M23.89,25c0,9.54,0,19.07,0,28.56q95.23-.08,190.47,0c-.1-9.49-.1-19,0-28.51-1.41-.05-2.82-.1-4.23-.1C148.09,25,86,25,23.89,25M35.61,59.68q.07,64.72,0,129.36c55.46.2,110.92.1,166.43.05q.08-64.73,0-129.41-83.19.07-166.38,0m-.29,133.11c0,8.8-.15,17.71.1,26.51v-.39c55.6.2,111.21,0,166.82.1,0-2.53-.05-5.11.1-7.69-.1-6.17.19-12.4-.2-18.58v.34q-83.41-.15-166.72,0l-.1-.34M35.61,225c0,8.22,0,16.49,0,24.71,55.46.1,110.92,0,166.38,0,.15-8.27.1-16.54,0-24.81q-83.19-.07-166.38.05M54,255.84c21,9.24,42.33,17.9,63.44,27,1.36.88,2.77-.1,4-.58,21-8.86,42.13-17.32,63-26.37Q119.2,255.69,54,255.84Z"/><path class="cls-2" d="M23.89,25C86,25,148.09,25,210.17,25c1.41,0,2.82.05,4.23.1-.1,9.54-.1,19,0,28.51q-95.24,0-190.47,0c0-9.49,0-19,0-28.56m3,3c.05,7.59.05,15.18,0,22.77,61.5.14,122.94,0,184.39,0q.15-11.46,0-22.92c-60.18-.09-120.41,0-180.59-.05C29.38,27.86,28.12,27.91,26.9,28Z"/><path class="cls-3" d="M26.9,28c1.22-.1,2.48-.15,3.75-.15,60.18.05,120.41,0,180.59.05q.15,11.46,0,22.92c-61.45,0-122.89.09-184.39,0,.1-7.59.1-15.18,0-22.77m29,6.67c-1.66,1.21-1.46,3.79-.05,5.1,1.56,1.46,3.89,1.46,5.59,2.68.64.49,0,1.46-.63,1.56-2,.58-4-.54-5.79-1.41,0,1,0,1.94-.09,2.91,2.67,1.07,5.93,1.8,8.56.15a3.48,3.48,0,0,0,.63-5.4c-1.8-1.7-4.62-1.61-6.32-3.45,2.09-1.56,4.67-.49,6.76.34V34.43c-2.73-1-6.18-1.75-8.66.25m42.47,1.11a5.9,5.9,0,0,0-.24,8.42c3,3.11,8,3,11.72,1.17V42.56c-2.43,1-5.35,2.09-7.83.68a3.49,3.49,0,0,1-.83-5.6c2.29-2.09,5.89-1.5,8.37,0a22.93,22.93,0,0,0-.05-3.21c-3.65-1.36-8.22-1.46-11.14,1.41m55.61-2.23C150,34,146.53,38,148,42c2.34,6.42,13.43,6.08,15.23-.63,1.12-5.11-4.72-8.86-9.29-7.83m-118.32.19c0,4.28,0,8.51,0,12.8,1.27,0,2.48,0,3.7,0V33.75c-1.22,0-2.43,0-3.7,0m6.67,0c-.05,4.23-.1,8.47,0,12.7h3.5c.1-1.75.1-3.46.1-5.21,2,0,4.52.49,6-1.26a3.68,3.68,0,0,0-1.85-6.08,46,46,0,0,0-7.78-.15m23.44,0c2,4,3.75,8.17,5.75,12.21a1.13,1.13,0,0,0,2,.05c1.36-2.43,2.38-5,3.84-7.3,1.66,2.53,2.78,5.35,4.28,7.93l1.56-.19C85,42.22,87.08,38,89,33.8c-1.22,0-2.53-.39-3.7.15-1.17,2-1.94,4.33-3.06,6.37-1.32-2.09-2.29-4.38-3.41-6.62-1,0-1.94,0-2.92,0-1.07,2.19-2.09,4.48-3.35,6.57-1.17-2.09-2-4.33-3.12-6.42a9.39,9.39,0,0,0-3.7-.1m24.77-.1V46.59a33.07,33.07,0,0,0,3.74-.09q-.06-6.36,0-12.7c-1.21-.1-2.48-.1-3.74-.1m21.84,0c0,4.28-.1,8.52,0,12.75,1.17,0,2.29,0,3.41,0,.05-1.75.09-3.51.14-5.26q3.28.07,6.57,0c0,1.75,0,3.51,0,5.21,1.12,0,2.29,0,3.41-.05,0-4.23,0-8.42,0-12.65-1.12,0-2.29,0-3.41,0,0,1.66,0,3.31,0,5a49.55,49.55,0,0,1-6.67.05c0-1.65,0-3.35,0-5h-3.46m21.07.1c0,.78,0,1.56,0,2.34,1.6,0,3.21,0,4.81,0,.1,3.41.05,6.81,0,10.22,1.22.05,2.44,0,3.65,0-.1-3.41-.1-6.81,0-10.22,1.61,0,3.26,0,4.87-.09V33.85c-4.43-.29-8.91-.2-13.38-.05m30.4,0c1.8,4.38,3.9,8.61,5.89,12.89.39,0,1.17-.09,1.56-.09,1.31-2.68,2.62-5.36,4-7.93,1.55,2.57,2.72,5.35,4.13,8,.39,0,1.17,0,1.56,0,2-4.24,4-8.47,5.93-12.75-1.26,0-2.62-.44-3.74.19-1.07,2.1-1.8,4.33-3.07,6.33-1.21-2-2-4.28-3.21-6.33-1-.48-2.92-.73-3.4.64a44.59,44.59,0,0,1-3.07,5.69c-1-2.19-2-4.43-3.06-6.62-1.17,0-2.34,0-3.56,0m24.57,0c.1,4.18,0,8.37,0,12.6,1.12,0,2.24.05,3.36.1.1-2.63.1-5.21.05-7.79,2.33,2.29,4.52,4.72,6.81,7.06.87,1.07,2.43.58,3.6.63-.1-4.23-.1-8.42,0-12.6-1.12,0-2.24-.1-3.41-.1-.05,2.44-.05,4.92,0,7.35-2.19-2.14-4.28-4.33-6.37-6.52C191.49,33.22,189.73,33.8,188.37,33.8Z"/><path class="cls-2" d="M55.85,34.68c2.48-2,5.93-1.22,8.66-.25v2.73c-2.09-.83-4.67-1.9-6.76-.34,1.7,1.84,4.52,1.75,6.32,3.45a3.48,3.48,0,0,1-.63,5.4c-2.63,1.65-5.89.92-8.56-.15,0-1,0-1.94.09-2.91,1.75.87,3.75,2,5.79,1.41.68-.1,1.27-1.07.63-1.56-1.7-1.22-4-1.22-5.59-2.68C54.39,38.47,54.19,35.89,55.85,34.68Z"/><path class="cls-2" d="M98.32,35.79c2.92-2.87,7.49-2.77,11.14-1.41a22.93,22.93,0,0,1,.05,3.21c-2.48-1.45-6.08-2-8.37,0a3.49,3.49,0,0,0,.83,5.6c2.48,1.41,5.4.29,7.83-.68v2.82c-3.7,1.8-8.71,1.94-11.72-1.17A5.9,5.9,0,0,1,98.32,35.79Z"/><path class="cls-2" d="M153.93,33.56c4.57-1,10.41,2.72,9.29,7.83-1.8,6.71-12.89,7-15.23.63-1.46-4,2-8,5.94-8.46m.44,2.87c-2.63.24-3.85,3.5-2.58,5.64s4.13,2.38,6.08,1.27a3.83,3.83,0,0,0,.87-5.79A4.88,4.88,0,0,0,154.37,36.43Z"/><path class="cls-2" d="M35.61,33.75c1.27,0,2.48,0,3.7,0v12.8c-1.22,0-2.43,0-3.7,0C35.66,42.26,35.66,38,35.61,33.75Z"/><path class="cls-2" d="M42.28,33.75a46,46,0,0,1,7.78.15A3.68,3.68,0,0,1,51.91,40c-1.51,1.75-4,1.31-6,1.26,0,1.75,0,3.46-.1,5.21h-3.5c-.1-4.23-.05-8.47,0-12.7m3.55,2.39c0,1,.05,1.94.05,3,1.65,0,3.89-.19,3.5-2.43A7.4,7.4,0,0,0,45.83,36.14Z"/><path class="cls-2" d="M65.72,33.8a9.39,9.39,0,0,1,3.7.1c1.17,2.09,2,4.33,3.12,6.42,1.26-2.09,2.28-4.38,3.35-6.57,1,0,2,0,2.92,0,1.12,2.24,2.09,4.53,3.41,6.62,1.12-2,1.89-4.33,3.06-6.37,1.17-.54,2.48-.15,3.7-.15-1.9,4.23-4,8.42-5.79,12.7l-1.56.19c-1.5-2.58-2.62-5.4-4.28-7.93-1.46,2.34-2.48,4.87-3.84,7.3a1.13,1.13,0,0,1-2-.05C69.47,42,67.72,37.84,65.72,33.8Z"/><path class="cls-2" d="M90.49,33.7c1.26,0,2.53,0,3.74.1q-.06,6.35,0,12.7a33.07,33.07,0,0,1-3.74.09Z"/><path class="cls-2" d="M112.33,33.7h3.46c0,1.66,0,3.36,0,5a49.55,49.55,0,0,0,6.67-.05c0-1.65,0-3.3,0-5,1.12,0,2.29,0,3.41,0,0,4.23,0,8.42,0,12.65-1.12.05-2.29.05-3.41.05,0-1.7-.1-3.46,0-5.21q-3.28.07-6.57,0c0,1.75-.09,3.51-.14,5.26-1.12,0-2.24,0-3.41,0C112.23,42.22,112.28,38,112.33,33.7Z"/><path class="cls-2" d="M133.4,33.8c4.47-.15,8.95-.24,13.38.05v2.24c-1.61,0-3.26,0-4.87.09-.1,3.41-.1,6.81,0,10.22-1.21,0-2.43.05-3.65,0,.05-3.41.1-6.81,0-10.22-1.6,0-3.21,0-4.81,0C133.45,35.36,133.4,34.58,133.4,33.8Z"/><path class="cls-2" d="M163.8,33.75c1.22,0,2.39,0,3.56,0,1.07,2.19,2,4.43,3.06,6.62a44.59,44.59,0,0,0,3.07-5.69c.48-1.37,2.38-1.12,3.4-.64,1.17,2,2,4.29,3.21,6.33,1.27-2,2-4.23,3.07-6.33,1.12-.63,2.48-.19,3.74-.19C185,38.08,183,42.31,181,46.55c-.39,0-1.17,0-1.56,0-1.41-2.62-2.58-5.4-4.13-8-1.42,2.57-2.73,5.25-4,7.93-.39,0-1.17,0-1.56.09C167.7,42.36,165.6,38.13,163.8,33.75Z"/><path class="cls-2" d="M188.37,33.8c1.36,0,3.12-.58,4.09.73,2.09,2.19,4.18,4.38,6.37,6.52-.05-2.43-.05-4.91,0-7.35,1.17,0,2.29,0,3.41.1-.1,4.18-.1,8.37,0,12.6-1.17,0-2.73.44-3.6-.63-2.29-2.34-4.48-4.77-6.81-7.06,0,2.58,0,5.16-.05,7.79-1.12,0-2.24-.1-3.36-.1C188.42,42.17,188.47,38,188.37,33.8Z"/><path class="cls-3" d="M45.83,36.14a7.4,7.4,0,0,1,3.55.53c.39,2.24-1.85,2.43-3.5,2.43C45.88,38.08,45.83,37.11,45.83,36.14Z"/><path class="cls-3" d="M154.37,36.43a4.88,4.88,0,0,1,4.37,1.12,3.83,3.83,0,0,1-.87,5.79c-2,1.11-4.87.77-6.08-1.27S151.74,36.67,154.37,36.43Z"/><path class="cls-2" d="M35.61,59.68q83.19,0,166.38,0,.22,64.66,0,129.41c-55.51,0-111,.15-166.43-.05q.07-64.65,0-129.36M39.36,63c-.1,39.41,0,78.81,0,118.22a39.17,39.17,0,0,0,.14,4.72q79.55-.08,159,0c.1-1.07.2-2.19.2-3.26-.1-39.89,0-79.79-.1-119.68Z"/><path class="cls-3" d="M39.36,63H198.59c.14,39.89,0,79.79.1,119.68,0,1.07-.1,2.19-.2,3.26q-79.47-.08-159,0a39.17,39.17,0,0,1-.14-4.72c0-39.41-.05-78.81,0-118.22m23.69,2.43c-.15,1.75.05,3.8,1.75,4.72,2-1.12,1.36-3.4.92-5.2-.87.19-2-.2-2.67.48m8.56-.53c-.29,1.94-.58,4.18,1.22,5.49,1.85-1.26,1.8-3.4,1.55-5.4-.92,0-1.84,0-2.77-.09M54.44,66.83c-.15,2.68,2.14,4.09,3,6.28-1.8,1-3.69,2.19-5.74,2.43-2-2.72-5.3-3.65-8.46-4.23a60,60,0,0,0,2.77,7c.73,1.7-1,3.11-1.17,4.72-1,6.08.68,12.06,1.22,18.09.44,5.26.73,10.61,2.34,15.67A11.39,11.39,0,0,0,57.07,120c.53-1.75-.59-4.19,1-5.35,2.28-.1,1.7,3,2.24,4.52a4.17,4.17,0,0,0,3.26-2.38c.38-1.61-2-2.82-1-4.43,4.19-2.82,3.9-9.15,8.47-11.63a52.13,52.13,0,0,0,3.7,9.64c2.38,5.35-1.27,10.84-.54,16.34.68,6.52,6.42,11.24,12.16,13.43,1.32,4.57,4.77,8,6.86,12.16,1.27,2.34,1.12,5.21,2.83,7.3,1.89,2.53,4.42,4.72,5.25,7.93,2.14,5.45.1,11.38-3,16a52.48,52.48,0,0,0,7.84.24c1.8-.1,3.74-1,4.13-2.87s2.24-3,3-4.67c.44-4.77-3.6-8.13-5.74-12-2-2.19-.49-5.4-2-7.78-3.4-4.87.2-10.9-1.31-16.25,6.23,2.23,13.13,3.74,19.7,1.8,7.64-1.85,14.5-5.79,21.94-8.23-.34-2.18-4.47-1.31-4.42-3.79a11.94,11.94,0,0,1,6.42,3.11,48.73,48.73,0,0,0,11,7.93c2.44,1.32,5.35,1.85,7.45,3.8a30.73,30.73,0,0,0,7.39,4.77c3.26,1.6,3.11,5.88,2.14,8.9-1.46,4.18-2,8.66-3.7,12.79-1.36,3.22-5.35,4.53-6.27,7.93,3.7,1.66,8.17,1.32,11.92.15.29-2.82,2.48-4.72,5.11-5.59.34-3.36-1.32-6.62-.64-9.93,1.41-6.86,4.28-13.33,6-20.14-5.35-2.72-12.36-6.13-12.21-13.14-4.38-.19-9.25-.63-12.6-3.79-3.21-2.68-3.51-8.37-.3-11.19,5.45-5.55,13.24-7.54,19.8-11.43-1.16-2.19-3.64-3.51-4.33-6,2.34-.92,5.5-1.51,7.35.73,1.8,1.71.44,4.43-1.26,5.65-6.47,4.47-14.84,5.88-20.44,11.67-2.38,2.34-3.06,6.81-.48,9.25,3.6,3.6,9.14,3.94,14,3.74-1.46-2.87-1.9-6.42.05-9.19,4.57-6.52,13-9,17.07-16a5.85,5.85,0,0,0-1.26-7.88c-4.09-3.21-9.78-3-14.5-1.46-1.56.58-3.4,1.65-5,.54-4.48-2.88-9.53-5.16-14.94-5.21-12.94-.44-24.51,7.2-37.46,6.86-5.4,0-11.92-1.36-14.69-6.57-1.85-3.06-5.74-4.43-7.25-7.69-2.28.1-3.89-1.94-5.64-3.11,1.6-1.85,3.89-3.06,4.33-5.74-.83-.34-1.61-.68-2.43-1-1.32,1.7-2.48,3.69-1.37,5.88-2.62.88-4.76-1.6-6.95-2.67.82-2.39,3.65-3.41,3.84-6.18-.78-.34-1.6-.68-2.38-1-1.17,1.55-2.14,3.3-1.27,5.25A8.83,8.83,0,0,1,87,75.64a27,27,0,0,1-6.62-2.38c.63-2.29,3.21-3.7,2.53-6.48-3-1.26-4.48,3.07-2.68,5-.14.43-.34.92-.53,1.36-2.34-.54-5.55,0-7-2.34-.19.25-.58.78-.78,1.07-2.19-.19-5.11.88-6.71-1.07-.93,2.09-3.8,1.56-5.65,2.14a1.39,1.39,0,0,1-1.8-1.89c.83-1.51-.09-3.12-.53-4.63-.92.15-1.85.25-2.82.39M40.72,74.71a7.58,7.58,0,0,0,3.94,5.84,4.6,4.6,0,0,0-3.94-5.84m61.49,2c-1.36,1.41-2.92,3.16-2.09,5.3,2.14-.34,3.45-2,4.38-3.79-.73-.49-1.51-1-2.29-1.51M178.06,127c3.06-3.17,5.64-7.16,6.37-11.58-4,2.19-8.61,6.61-6.37,11.58M46.8,130.22c-.88.93-.49,2.29-.15,3.36,1.66,5.6,5.06,10.51,6.57,16.2,1,3.7-2.19,7.45-.24,11a38.89,38.89,0,0,0,8.37-4.28c.48-2,.87-4,2.43-5.5a19.35,19.35,0,0,1-5-14.11c3.55.19,6.57,2.34,9.83,3.45,5.2,2,11.09,2.92,16.54,1.27C80,138.5,74.63,134.75,73,128.67a130.93,130.93,0,0,0-18-1.12c-2.87.1-6.13.39-8.17,2.67m96.77,6.28c1.11,5.06,4,9.44,6.42,13.91a5.31,5.31,0,0,1-.05,5.6c-2.73,3.75-6,7.05-8.52,11-2.09,3.31-6.32,4.63-8.17,8.23,3.16.34,6.33.29,9.44.43,2.29.2,2.48-2.87,4.23-3.69,1.12-.44,2.34-.59,3.51-.93.53-7.44,5.83-13.23,11.09-18,.73-.73,2.19-1.6,1.46-2.82a25.57,25.57,0,0,1-2.82-6.57,79.15,79.15,0,0,1-12.8-8.41,16.18,16.18,0,0,0-3.79,1.31M62.08,159.61c-1.61,1.17-3.75,1.95-4.29,4.09,2,1.12,3.07-1.07,4.38-2,2.39-2,5.4-2.82,8.08-4.23-3-1.22-5.79.63-8.17,2.19m-4.67,1.65a17,17,0,0,0,3.84-2.87c-1.41.68-3.31,1.22-3.84,2.87m14.79-2.72c-4.29.83-8.57,2.68-11.39,6.08a3,3,0,0,0,3.7.34c3.55-1.94,7.73-3.45,11.09-5.06-1.07-.53-2.09-1.65-3.4-1.36m3.06,3.06c-4.13,1.42-8.42,2.83-11.87,5.5,1.12,1.66,3.21,1.8,5.06,1.75,1.85-.68,2.72-3.4,5-3,2,.24,3.55-1.41,5.45-1.71-.44-1.6-1.85-3.35-3.65-2.53m-20.14,4.33c2.82,5.26,8.42,8.47,14,10.07,1.61-1.94-.34-4.08-1-5.93-1.9-.49-4.87.15-5.64-2.14-.73-2.09-3.07-2.77-5.06-2.87-.34-.83-.73-1.7-1.07-2.53-.88.83-2.05,2.14-1.22,3.4m20.58.64A49.87,49.87,0,0,1,75.31,178l2.38-.29c1.07-3.84.44-7.83.1-11.73-.68.25-1.36.44-2.09.64m3.7-.54c-.25,3.31.24,6.57.14,9.88,1.51-2.92,2-7.11-.14-9.88m-25.69,1a6.16,6.16,0,0,0,1.8,6.67,8.08,8.08,0,0,0,1.26-3.16A10.24,10.24,0,0,0,53.71,167m15.76,3c.58,1.7,1.27,3.26,1.85,4.91a8.85,8.85,0,0,0-2.92,6.67c-1.17.63-3,.88-3,2.58,1.75,0,3.89.53,5.35-.78,3.65-4.57,4.38-10.75,3.65-16.44-2.28-.54-3.55,1.65-5,3.06m-12.36,5.16c2.87,2.58,6.81,3.55,10.61,3.6.1-.63.24-1.27.34-1.85a40.86,40.86,0,0,1-10.22-5.3c-.34,1.16-1.07,2.33-.73,3.55M54,173.86c.15,2,.93,4.24,2.92,4.92s4.28,1.36,6.08,2.67c1.56,1.27,3.7.15,4.62-1.31-5.1-.44-10.16-2.29-13.62-6.28m20.63,5.06a33.84,33.84,0,0,0-1.61,3.8,7,7,0,0,0,4.48-3.8c-1,0-2,0-2.87,0m-15.76,1.85c.68,2.34,3.55,2.58,5.49,3.21C63,182.33,60.71,181.7,58.82,180.77Z"/><path class="cls-3" d="M10.8,63.38a7.11,7.11,0,0,0,.87.44A7.11,7.11,0,0,1,10.8,63.38Z"/><path class="cls-2" d="M63.05,65.42c.68-.68,1.8-.29,2.67-.48.44,1.8,1.08,4.08-.92,5.2C63.1,69.22,62.9,67.17,63.05,65.42Z"/><path class="cls-2" d="M71.61,64.89c.93,0,1.85.09,2.77.09.25,2,.3,4.14-1.55,5.4C71,69.07,71.32,66.83,71.61,64.89Z"/><path class="cls-2" d="M54.44,66.83c1-.14,1.9-.24,2.82-.39.44,1.51,1.36,3.12.53,4.63A1.39,1.39,0,0,0,59.59,73c1.85-.58,4.72,0,5.65-2.14,1.6,2,4.52.88,6.71,1.07.2-.29.59-.82.78-1.07,1.41,2.34,4.62,1.8,7,2.34.19-.44.39-.93.53-1.36-1.8-2-.34-6.28,2.68-5,.68,2.78-1.9,4.19-2.53,6.48A27,27,0,0,0,87,75.64a8.83,8.83,0,0,0,.82-1.51c-.87-1.95.1-3.7,1.27-5.25.78.29,1.6.63,2.38,1-.19,2.77-3,3.79-3.84,6.18,2.19,1.07,4.33,3.55,6.95,2.67-1.11-2.19.05-4.18,1.37-5.88.82.29,1.6.63,2.43,1-.44,2.68-2.73,3.89-4.33,5.74,1.75,1.17,3.36,3.21,5.64,3.11,1.51,3.26,5.4,4.63,7.25,7.69,2.77,5.21,9.29,6.62,14.69,6.57,12.95.34,24.52-7.3,37.46-6.86,5.41,0,10.46,2.33,14.94,5.21,1.61,1.11,3.45,0,5-.54,4.72-1.56,10.41-1.75,14.5,1.46a5.85,5.85,0,0,1,1.26,7.88c-4,7-12.5,9.49-17.07,16-1.95,2.77-1.51,6.32-.05,9.19-4.82.2-10.36-.14-14-3.74-2.58-2.44-1.9-6.91.48-9.25,5.6-5.79,14-7.2,20.44-11.67,1.7-1.22,3.06-3.94,1.26-5.65-1.85-2.24-5-1.65-7.35-.73.69,2.48,3.17,3.8,4.33,6-6.56,3.89-14.35,5.88-19.8,11.43-3.21,2.82-2.91,8.51.3,11.19,3.35,3.16,8.22,3.6,12.6,3.79-.15,7,6.86,10.42,12.21,13.14-1.71,6.81-4.58,13.28-6,20.14-.68,3.31,1,6.57.64,9.93-2.63.87-4.82,2.77-5.11,5.59-3.75,1.17-8.22,1.51-11.92-.15.92-3.4,4.91-4.71,6.27-7.93,1.71-4.13,2.24-8.61,3.7-12.79,1-3,1.12-7.3-2.14-8.9a30.73,30.73,0,0,1-7.39-4.77c-2.1-2-5-2.48-7.45-3.8a48.73,48.73,0,0,1-11-7.93,11.94,11.94,0,0,0-6.42-3.11c0,2.48,4.08,1.61,4.42,3.79-7.44,2.44-14.3,6.38-21.94,8.23-6.57,1.94-13.47.43-19.7-1.8,1.51,5.35-2.09,11.38,1.31,16.25,1.46,2.38-.1,5.59,2,7.78,2.14,3.84,6.18,7.2,5.74,12-.73,1.7-2.63,2.72-3,4.67s-2.33,2.77-4.13,2.87a52.48,52.48,0,0,1-7.84-.24c3.12-4.63,5.16-10.56,3-16-.83-3.21-3.36-5.4-5.25-7.93-1.71-2.09-1.56-5-2.83-7.3-2.09-4.18-5.54-7.59-6.86-12.16-5.74-2.19-11.48-6.91-12.16-13.43-.73-5.5,2.92-11,.54-16.34a52.13,52.13,0,0,1-3.7-9.64c-4.57,2.48-4.28,8.81-8.47,11.63-1,1.61,1.41,2.82,1,4.43a4.17,4.17,0,0,1-3.26,2.38c-.54-1.51,0-4.62-2.24-4.52-1.56,1.16-.44,3.6-1,5.35a11.39,11.39,0,0,1-8.66-3.26c-1.61-5.06-1.9-10.41-2.34-15.67-.54-6-2.24-12-1.22-18.09.2-1.61,1.9-3,1.17-4.72a60,60,0,0,1-2.77-7c3.16.58,6.47,1.51,8.46,4.23,2-.24,3.94-1.46,5.74-2.43-.87-2.19-3.16-3.6-3-6.28m-6.81,23.5c-.54,1.51.29,3,1,4.38,1-1.26,2.63-2.63,2-4.43-.34-1.36-2.62-1.31-3,0m1.51,24.08a17.43,17.43,0,0,0,.34,1.75,10.6,10.6,0,0,0,3.06,1.76C52.49,116.12,50.79,114.85,49.14,114.41Z"/><path class="cls-2" d="M40.72,74.71a4.6,4.6,0,0,1,3.94,5.84A7.58,7.58,0,0,1,40.72,74.71Z"/><path class="cls-2" d="M102.21,76.66c.78.49,1.56,1,2.29,1.51-.93,1.8-2.24,3.45-4.38,3.79C99.29,79.82,100.85,78.07,102.21,76.66Z"/><path class="cls-3" d="M47.63,90.33c.39-1.36,2.67-1.41,3,0,.59,1.8-1.07,3.17-2,4.43C47.92,93.35,47.09,91.84,47.63,90.33Z"/><path class="cls-3" d="M49.14,114.41c1.65.44,3.35,1.71,3.4,3.51a10.6,10.6,0,0,1-3.06-1.76A17.43,17.43,0,0,1,49.14,114.41Z"/><path class="cls-2" d="M178.06,127c-2.24-5,2.38-9.39,6.37-11.58C183.7,119.81,181.12,123.8,178.06,127Z"/><path class="cls-2" d="M46.8,130.22c2-2.28,5.3-2.57,8.17-2.67a130.93,130.93,0,0,1,18,1.12c1.66,6.08,7.06,9.83,12.17,12.94-5.45,1.65-11.34.78-16.54-1.27-3.26-1.11-6.28-3.26-9.83-3.45a19.35,19.35,0,0,0,5,14.11c-1.56,1.51-2,3.5-2.43,5.5A38.89,38.89,0,0,1,53,160.78c-1.95-3.55,1.21-7.3.24-11-1.51-5.69-4.91-10.6-6.57-16.2C46.31,132.51,45.92,131.15,46.8,130.22Z"/><path class="cls-2" d="M143.57,136.5a16.18,16.18,0,0,1,3.79-1.31,79.15,79.15,0,0,0,12.8,8.41,25.57,25.57,0,0,0,2.82,6.57c.73,1.22-.73,2.09-1.46,2.82-5.26,4.82-10.56,10.61-11.09,18-1.17.34-2.39.49-3.51.93-1.75.82-1.94,3.89-4.23,3.69-3.11-.14-6.28-.09-9.44-.43,1.85-3.6,6.08-4.92,8.17-8.23,2.53-3.94,5.79-7.24,8.52-11a5.31,5.31,0,0,0,.05-5.6C147.55,145.94,144.68,141.56,143.57,136.5Z"/><path class="cls-2" d="M62.08,159.61c2.38-1.56,5.2-3.41,8.17-2.19-2.68,1.41-5.69,2.24-8.08,4.23-1.31,1-2.43,3.17-4.38,2C58.33,161.56,60.47,160.78,62.08,159.61Z"/><path class="cls-2" d="M57.41,161.26c.53-1.65,2.43-2.19,3.84-2.87A17,17,0,0,1,57.41,161.26Z"/><path class="cls-2" d="M72.2,158.54c1.31-.29,2.33.83,3.4,1.36-3.36,1.61-7.54,3.12-11.09,5.06a3,3,0,0,1-3.7-.34C63.63,161.22,67.91,159.37,72.2,158.54Z"/><path class="cls-2" d="M75.26,161.6c1.8-.82,3.21.93,3.65,2.53-1.9.3-3.41,2-5.45,1.71-2.29-.39-3.16,2.33-5,3-1.85.05-3.94-.09-5.06-1.75C66.84,164.43,71.13,163,75.26,161.6Z"/><path class="cls-2" d="M55.12,165.93c-.83-1.26.34-2.57,1.22-3.4.34.83.73,1.7,1.07,2.53,2,.1,4.33.78,5.06,2.87.77,2.29,3.74,1.65,5.64,2.14.63,1.85,2.58,4,1,5.93C63.54,174.4,57.94,171.19,55.12,165.93Z"/><path class="cls-2" d="M75.7,166.57c.73-.2,1.41-.39,2.09-.64.34,3.9,1,7.89-.1,11.73l-2.38.29A49.87,49.87,0,0,0,75.7,166.57Z"/><path class="cls-2" d="M79.4,166c2.14,2.77,1.65,7,.14,9.88C79.64,172.6,79.15,169.34,79.4,166Z"/><path class="cls-2" d="M53.71,167a10.24,10.24,0,0,1,3.06,3.51,8.08,8.08,0,0,1-1.26,3.16A6.16,6.16,0,0,1,53.71,167Z"/><path class="cls-2" d="M69.47,170c1.41-1.41,2.68-3.6,5-3.06.73,5.69,0,11.87-3.65,16.44-1.46,1.31-3.6.78-5.35.78-.05-1.7,1.8-2,3-2.58a8.85,8.85,0,0,1,2.92-6.67C70.74,173.28,70.05,171.72,69.47,170Z"/><path class="cls-2" d="M57.11,175.18c-.34-1.22.39-2.39.73-3.55a40.86,40.86,0,0,0,10.22,5.3c-.1.58-.24,1.22-.34,1.85C63.92,178.73,60,177.76,57.11,175.18Z"/><path class="cls-2" d="M54,173.86c3.46,4,8.52,5.84,13.62,6.28-.92,1.46-3.06,2.58-4.62,1.31-1.8-1.31-4-1.89-6.08-2.67S54.1,175.86,54,173.86Z"/><path class="cls-3" d="M19.17,174.25c.29,4.72,0,9.49.09,14.26,0,22.33.2,44.71-.09,67l0,.34C19,228.69,19.07,201.45,19.17,174.25Z"/><path class="cls-2" d="M74.58,178.92c.92,0,1.9,0,2.87,0a7,7,0,0,1-4.48,3.8A33.84,33.84,0,0,1,74.58,178.92Z"/><path class="cls-2" d="M58.82,180.77c1.89.93,4.13,1.56,5.49,3.21C62.37,183.35,59.5,183.11,58.82,180.77Z"/><path class="cls-2" d="M35.32,192.79l.1.34c.09.73.14,1.51.29,2.24,4.91,0,10,.09,14.59,2.19,2.44,1.12,4.72,3.06,7.59,2.77,5-.39,9.29-3.55,14.21-4.33,6.23-1.07,12.55.24,18.49,2.14,2.33.73,4.62,2,7.2,1.9,4.47.29,8.61-1.8,12.84-3a24.73,24.73,0,0,1,13.52-.83c5.5,1.22,10.71,4.09,16.45,3.85,3.11.05,5.79-1.61,8.71-2.34A45.19,45.19,0,0,1,162,195.61c5.55.1,10.56,2.82,15.82,4.33,3.11,1,6.37-.15,9.14-1.6,4.62-2.39,9.88-3,15-2.92l.15-2.34v-.34c.39,6.18.1,12.41.2,18.58a29.12,29.12,0,0,0-11.78,1.37c-3.06,1-5.69,3.45-9.1,3.31-7.24.43-13.18-5.26-20.43-4.82-6.47.19-12.36,3.11-18.58,4.47-9.3,1.51-17.57-6.08-26.91-4-7.39,1.7-15,6.08-22.77,3.31-7.63-3.12-16.63-5.6-24.52-2a21.64,21.64,0,0,1-14.64,2.24c-2.58-.59-4.67-2.39-7.2-3.12a32.18,32.18,0,0,0-10.8-.82c0,2.53.24,5.1-.19,7.63v.39c-.25-8.8-.1-17.71-.1-26.51m.29,7.88v5.21c3,0,6.08.09,9,.34,4.72.39,8.42,4.38,13.23,4.23,5.11-.2,9.44-3.31,14.4-4.14,6.13-1.16,12.31.39,18.15,2.24,2.43.68,4.77,1.85,7.3,1.9,7.49.24,14-4.67,21.45-4.38,6,0,11.48,2.68,17.18,4.14,5,1.21,9.92-1,14.59-2.58a30.49,30.49,0,0,1,12.89-1.41c5.06.63,9.73,2.87,14.65,4.23,2.77.83,5.69-.34,8.17-1.65,4.67-2.58,10.12-2.88,15.32-2.88.1-1.65.1-3.25,0-4.91-4.08-.1-8.51-.39-12.16,1.7a20.16,20.16,0,0,1-8.9,2.92c-4.19,0-8.08-1.75-11.87-3.31-6-2.28-12.6-1.31-18.59.49-3.31.88-6.37,2.77-9.87,2.63-7.84.39-14.6-5-22.38-4.48-5.69.29-10.75,3.26-16.3,4.28-7.49,1.07-14.26-3.06-21.41-4.33-6.71-.87-13,2.05-19.21,4.24a16.53,16.53,0,0,1-11.44-1.85C45.58,200.91,40.48,200.38,35.61,200.67Z"/><path class="cls-3" d="M35.42,193.13q83.32-.28,166.72,0l-.15,2.34c-5.15,0-10.41.53-15,2.92-2.77,1.45-6,2.57-9.14,1.6-5.26-1.51-10.27-4.23-15.82-4.33a45.19,45.19,0,0,0-12.69,2.09c-2.92.73-5.6,2.39-8.71,2.34-5.74.24-10.95-2.63-16.45-3.85a24.73,24.73,0,0,0-13.52.83c-4.23,1.22-8.37,3.31-12.84,3-2.58.05-4.87-1.17-7.2-1.9-5.94-1.9-12.26-3.21-18.49-2.14-4.92.78-9.2,3.94-14.21,4.33-2.87.29-5.15-1.65-7.59-2.77-4.57-2.1-9.68-2.19-14.59-2.19C35.56,194.64,35.51,193.86,35.42,193.13Z"/><path class="cls-3" d="M35.61,200.67c4.87-.29,10,.24,14.3,2.63a16.53,16.53,0,0,0,11.44,1.85c6.17-2.19,12.5-5.11,19.21-4.24,7.15,1.27,13.92,5.4,21.41,4.33,5.55-1,10.61-4,16.3-4.28,7.78-.48,14.54,4.87,22.38,4.48,3.5.14,6.56-1.75,9.87-2.63,6-1.8,12.6-2.77,18.59-.49,3.79,1.56,7.68,3.31,11.87,3.31a20.16,20.16,0,0,0,8.9-2.92c3.65-2.09,8.08-1.8,12.16-1.7.05,1.66.05,3.26,0,4.91-5.2,0-10.65.3-15.32,2.88-2.48,1.31-5.4,2.48-8.17,1.65-4.92-1.36-9.59-3.6-14.65-4.23A30.49,30.49,0,0,0,151,207.63c-4.67,1.6-9.54,3.79-14.59,2.58-5.7-1.46-11.19-4.14-17.18-4.14-7.44-.29-14,4.62-21.45,4.38-2.53,0-4.87-1.22-7.3-1.9-5.84-1.85-12-3.4-18.15-2.24-5,.83-9.29,3.94-14.4,4.14-4.81.15-8.51-3.84-13.23-4.23-3-.25-6-.39-9-.34Z"/><path class="cls-3" d="M35.61,211.28a32.18,32.18,0,0,1,10.8.82c2.53.73,4.62,2.53,7.2,3.12A21.64,21.64,0,0,0,68.25,213c7.89-3.65,16.89-1.17,24.52,2,7.74,2.77,15.38-1.61,22.77-3.31,9.34-2.05,17.61,5.54,26.91,4,6.22-1.36,12.11-4.28,18.58-4.47,7.25-.44,13.19,5.25,20.43,4.82,3.41.14,6-2.29,9.1-3.31a29.12,29.12,0,0,1,11.78-1.37c-.15,2.58-.1,5.16-.1,7.69-55.61-.1-111.22.1-166.82-.1C35.85,216.38,35.56,213.81,35.61,211.28Z"/><path class="cls-2" d="M35.61,225Q118.8,224.77,202,225c.1,8.27.15,16.54,0,24.81-55.46,0-110.92.05-166.38,0,0-8.22,0-16.49,0-24.71m3.75,2.82c0,6.42-.1,12.79,0,19.17q79.61.13,159.23,0c.1-6.38.1-12.8,0-19.17Q119,227.67,39.36,227.82Z"/><path class="cls-3" d="M39.36,227.82q79.61-.15,159.23,0c.1,6.37.1,12.79,0,19.17q-79.62.13-159.23,0c-.1-6.38,0-12.75,0-19.17m7.29,4.52q-.13,4.89,0,9.78c.93,0,1.9,0,2.87-.05,0-1.31,0-2.58,0-3.89,1.61,0,3.26,0,4.87-.1v-1.8c-1.65-.05-3.26-.05-4.87-.09,0-.64,0-1.27,0-1.85,1.61,0,3.21,0,4.82-.1v-1.85c-2.58-.1-5.16,0-7.74,0m13.38.2c-2.67.63-4.81,3.5-3.74,6.27,1.85,4,7.73,4.43,10.94,1.85a4.17,4.17,0,0,0,.88-5.93c-1.8-2.49-5.3-3-8.08-2.19m14.55,0c-2.48.53-4.72,3-4.14,5.64,1.51,5.74,11.87,5.5,12.85-.49.24-4.37-5.16-6.32-8.71-5.15m9.15-.15v1.85c1.31,0,2.62,0,3.94.05.09,2.58.09,5.2,0,7.78l2.92.15c.1-2.63.1-5.26,0-7.83,1.37-.1,2.73-.2,4.09-.2,0-.58,0-1.17,0-1.75-3.7-.1-7.4,0-11,0m12.6,0q-.08,4.89,0,9.78c2.72-.1,5.69.54,8.27-.58,1.94-1.12,1.31-3.94-.49-4.87a2.38,2.38,0,0,0-.49-3.89c-2.28-.88-4.86-.29-7.29-.44m14.69,0c-1.46,3.21-3,6.42-4.48,9.68,1,.05,2,.05,3,.1.29-.68.58-1.31.92-1.95h4.77a16.62,16.62,0,0,0,1.12,1.8,11.42,11.42,0,0,0,2.92,0c-1.51-3.35-3.31-6.47-4.91-9.73-1.12,0-2.24,0-3.36,0m9.58-.1c-.09,3.31,0,6.57,0,9.83a71.52,71.52,0,0,0,8.66-.15v-1.75c-1.94.05-3.84.05-5.74-.05-.1-2.57-.1-5.2,0-7.83-1,0-1.89,0-2.87-.05m10.12.05q-.15,4.89,0,9.78c2.87,0,5.69.1,8.56-.05a13.39,13.39,0,0,1-.14-1.9,45,45,0,0,1-5.69,0c0-2.63,0-5.21,0-7.79h-2.73M146,234.29a4.42,4.42,0,0,0,.63,6.61c2.63,1.9,6.18,1.46,9.1.59,0-.83.05-1.61.05-2.39-2.14.78-4.67,1.71-6.72.34a2.46,2.46,0,0,1-.43-4c1.89-1.85,4.86-1.07,7-.2,0-.83,0-1.6,0-2.43-3.16-.93-7.15-1.17-9.58,1.46m12-2c-.1,3.26-.1,6.52,0,9.83,2.87,0,5.74.1,8.61-.05a11.92,11.92,0,0,1-.15-1.85c-1.85.05-3.7.05-5.55-.05,0-2.57,0-5.2,0-7.78-1,0-1.94,0-2.91-.1m9.92.05c.1,2.53-.49,5.3.49,7.74,2.28,3,7.83,3,10.26.09,1-2.43.44-5.25.49-7.88-1,.05-1.95.05-2.92.1a37.52,37.52,0,0,1-.1,6.18c-.68,2.29-4.57,2.19-5.15-.1-.3-2-.1-4.08-.2-6.13h-2.87m13.62,0c0,3.26,0,6.52,0,9.78,2.73-.1,5.65.54,8.22-.58,2-1.12,1.37-3.94-.48-4.82.83-1,1.41-2.68.1-3.55C187.06,231.61,184.09,232.59,181.51,232.34Z"/><path class="cls-2" d="M46.65,232.34c2.58,0,5.16-.05,7.74,0v1.85c-1.61.1-3.21.1-4.82.1,0,.58,0,1.21,0,1.85,1.61,0,3.22,0,4.87.09v1.8c-1.61.1-3.26.15-4.87.1,0,1.31,0,2.58,0,3.89-1,.05-1.94.05-2.87.05Q46.52,237.23,46.65,232.34Z"/><path class="cls-2" d="M60,232.54c2.78-.83,6.28-.3,8.08,2.19a4.17,4.17,0,0,1-.88,5.93c-3.21,2.58-9.09,2.14-10.94-1.85-1.07-2.77,1.07-5.64,3.74-6.27m1.46,1.89a3,3,0,0,0-2.33,3.85c1.26,2.87,6.37,2.43,6.81-.78C66.21,235.16,63.49,233.9,61.49,234.43Z"/><path class="cls-2" d="M74.58,232.49c3.55-1.17,9,.78,8.71,5.15-1,6-11.34,6.23-12.85.49-.58-2.67,1.66-5.11,4.14-5.64m1,2a2.9,2.9,0,0,0-2,4c1.31,2.82,6.81,2.05,6.66-1.31C80.27,234.87,77.5,233.9,75.6,234.48Z"/><path class="cls-2" d="M83.73,232.34c3.64,0,7.34-.05,11,0,0,.58,0,1.17,0,1.75-1.36,0-2.72.1-4.09.2.1,2.57.1,5.2,0,7.83L87.71,242c.05-2.58.05-5.2,0-7.78-1.32-.05-2.63-.05-3.94-.05Z"/><path class="cls-2" d="M96.33,232.34c2.43.15,5-.44,7.29.44a2.38,2.38,0,0,1,.49,3.89c1.8.93,2.43,3.75.49,4.87-2.58,1.12-5.55.48-8.27.58q-.08-4.89,0-9.78m2.91,1.75c0,.68,0,1.41.05,2.1.93-.15,3,.24,2.78-1.32-.64-1-1.9-.63-2.83-.78m0,3.9v2.23a28.66,28.66,0,0,0,3.46-.19,10.82,10.82,0,0,1,0-1.8C101.53,238.13,100.36,238,99.24,238Z"/><path class="cls-2" d="M111,232.39c1.12,0,2.24,0,3.36,0,1.6,3.26,3.4,6.38,4.91,9.73a11.42,11.42,0,0,1-2.92,0,16.62,16.62,0,0,1-1.12-1.8h-4.77c-.34.64-.63,1.27-.92,1.95-1,0-2,0-3-.1,1.46-3.26,3-6.47,4.48-9.68m.39,6h2.92a16.43,16.43,0,0,0-1.56-3.31A10.48,10.48,0,0,0,111.41,238.42Z"/><path class="cls-2" d="M120.6,232.29c1,.05,1.9.05,2.87.05,0,2.63,0,5.26,0,7.83,1.9.1,3.8.1,5.74.05V242a71.52,71.52,0,0,1-8.66.15C120.55,238.86,120.51,235.6,120.6,232.29Z"/><path class="cls-2" d="M130.72,232.34h2.73c0,2.58,0,5.16,0,7.79a45,45,0,0,0,5.69,0,13.39,13.39,0,0,0,.14,1.9c-2.87.15-5.69.1-8.56.05Q130.57,237.23,130.72,232.34Z"/><path class="cls-2" d="M146,234.29c2.43-2.63,6.42-2.39,9.58-1.46,0,.83,0,1.6,0,2.43-2.14-.87-5.11-1.65-7,.2a2.46,2.46,0,0,0,.43,4c2.05,1.37,4.58.44,6.72-.34,0,.78-.1,1.56-.05,2.39-2.92.87-6.47,1.31-9.1-.59A4.42,4.42,0,0,1,146,234.29Z"/><path class="cls-2" d="M158,232.29c1,.05,1.94.05,2.91.1,0,2.58,0,5.21,0,7.78,1.85.1,3.7.1,5.55.05a11.92,11.92,0,0,0,.15,1.85c-2.87.15-5.74.1-8.61.05C157.87,238.81,157.87,235.55,158,232.29Z"/><path class="cls-2" d="M167.89,232.34h2.87c.1,2-.1,4.09.2,6.13.58,2.29,4.47,2.39,5.15.1a37.52,37.52,0,0,0,.1-6.18c1,0,1.95,0,2.92-.1,0,2.63.53,5.45-.49,7.88-2.43,2.87-8,2.92-10.26-.09C167.4,237.64,168,234.87,167.89,232.34Z"/><path class="cls-2" d="M181.51,232.34c2.58.25,5.55-.73,7.84.83,1.31.87.73,2.53-.1,3.55,1.85.88,2.43,3.7.48,4.82-2.57,1.12-5.49.48-8.22.58,0-3.26,0-6.52,0-9.78m2.87,1.75c.05.68.05,1.41.05,2.1,1-.15,3,.24,2.77-1.32-.58-1-1.84-.63-2.82-.78m0,3.9c0,.77,0,1.5.05,2.23a27.84,27.84,0,0,0,3.41-.19,10.82,10.82,0,0,1,0-1.8C186.67,238.13,185.55,238,184.38,238Z"/><path class="cls-3" d="M61.49,234.43c2-.53,4.72.73,4.48,3.07-.44,3.21-5.55,3.65-6.81.78A3,3,0,0,1,61.49,234.43Z"/><path class="cls-3" d="M75.6,234.48c1.9-.58,4.67.39,4.67,2.68.15,3.36-5.35,4.13-6.66,1.31A2.9,2.9,0,0,1,75.6,234.48Z"/><path class="cls-3" d="M99.24,234.09c.93.15,2.19-.19,2.83.78.24,1.56-1.85,1.17-2.78,1.32C99.24,235.5,99.24,234.77,99.24,234.09Z"/><path class="cls-3" d="M184.38,234.09c1,.15,2.24-.19,2.82.78.2,1.56-1.8,1.17-2.77,1.32C184.43,235.5,184.43,234.77,184.38,234.09Z"/><path class="cls-3" d="M111.41,238.42a10.48,10.48,0,0,1,1.36-3.31,16.43,16.43,0,0,1,1.56,3.31Z"/><path class="cls-3" d="M99.24,238c1.12,0,2.29.14,3.46.24a10.82,10.82,0,0,0,0,1.8,28.66,28.66,0,0,1-3.46.19Z"/><path class="cls-3" d="M184.38,238c1.17,0,2.29.14,3.46.24a10.82,10.82,0,0,0,0,1.8,27.84,27.84,0,0,1-3.41.19C184.38,239.49,184.38,238.76,184.38,238Z"/><path class="cls-3" d="M54,255.84q65.23-.15,130.48,0c-20.87,9-42,17.51-63,26.37-1.27.48-2.68,1.46-4,.58C96.28,273.74,75,265.08,54,255.84Z"/><path class="cls-3" d="M20.53,256c.24.15.68.39.87.49C21.21,256.42,20.77,256.18,20.53,256Z"/><path class="cls-3" d="M212.11,258.47c.2-.1.64-.34.88-.49C212.75,258.13,212.31,258.37,212.11,258.47Z"/><path class="cls-3" d="M28.31,259.44a8.71,8.71,0,0,0,.88.49A8.71,8.71,0,0,1,28.31,259.44Z"/><path class="cls-3" d="M208.71,259.93a4.89,4.89,0,0,0,.87-.49A4.89,4.89,0,0,1,208.71,259.93Z"/><path class="cls-3" d="M205.3,261.39c.25-.1.68-.34.88-.44C206,261.05,205.55,261.29,205.3,261.39Z"/><path class="cls-3" d="M197.52,264.79l.87-.48Z"/><path class="cls-3" d="M194.11,266.25a5,5,0,0,0,.88-.49A5,5,0,0,1,194.11,266.25Z"/><path class="cls-3" d="M190.71,267.71c.24-.1.68-.34.87-.44C191.39,267.37,191,267.61,190.71,267.71Z"/><path class="cls-3" d="M47.29,267.71c.24.15.68.39.87.49C48,268.1,47.53,267.86,47.29,267.71Z"/><path class="cls-3" d="M50.69,269.22c.2.1.63.34.88.44C51.32,269.56,50.89,269.32,50.69,269.22Z"/><path class="cls-3" d="M182.92,271.12c.2-.1.64-.34.88-.49C183.56,270.78,183.12,271,182.92,271.12Z"/><path class="cls-3" d="M179.52,272.58c.24-.15.68-.34.87-.49C180.2,272.24,179.76,272.43,179.52,272.58Z"/><path class="cls-3" d="M58.48,272.58a9.4,9.4,0,0,0,.87.48A9.4,9.4,0,0,1,58.48,272.58Z"/><path class="cls-3" d="M61.88,274a5.68,5.68,0,0,0,.88.48A5.68,5.68,0,0,1,61.88,274Z"/><path class="cls-3" d="M66.26,276a5.37,5.37,0,0,1,.88.49A5.37,5.37,0,0,0,66.26,276Z"/><path class="cls-3" d="M153.73,283.77c.2-.1.64-.35.88-.49C154.37,283.42,153.93,283.67,153.73,283.77Z"/><path class="cls-3" d="M85.23,284.25c.25.15.68.39.88.49C85.91,284.64,85.48,284.4,85.23,284.25Z"/><path class="cls-3" d="M150.33,285.22a4.86,4.86,0,0,0,.87-.48A4.86,4.86,0,0,1,150.33,285.22Z"/><path class="cls-3" d="M88.64,285.71a4.89,4.89,0,0,0,.87.49A4.89,4.89,0,0,1,88.64,285.71Z"/><path class="cls-3" d="M146.92,286.68c.25-.09.68-.34.88-.43C147.6,286.34,147.17,286.59,146.92,286.68Z"/><path class="cls-3" d="M142.54,288.63c.2-.1.64-.34.88-.49C143.18,288.29,142.74,288.53,142.54,288.63Z"/><path class="cls-3" d="M96.42,289.12c.25.14.68.39.88.48C97.1,289.51,96.67,289.26,96.42,289.12Z"/><path class="cls-3" d="M139.14,290.09c.19-.1.63-.34.87-.49C139.77,289.75,139.33,290,139.14,290.09Z"/><path class="cls-3" d="M132.33,293c.24-.1.68-.34.87-.44C133,292.67,132.57,292.91,132.33,293Z"/><path class="cls-3" d="M107.61,294a5.37,5.37,0,0,0,.88.49A5.37,5.37,0,0,1,107.61,294Z"/><path class="cls-3" d="M128,295a7.52,7.52,0,0,0,.87-.48A7.52,7.52,0,0,1,128,295Z"/><path class="cls-3" d="M111,295.49c.19.1.63.34.87.44C111.65,295.83,111.21,295.59,111,295.49Z"/><path class="cls-3" d="M124.54,296.41c.2-.09.64-.34.88-.48C125.18,296.07,124.74,296.32,124.54,296.41Z"/></g></g></svg>