<svg xmlns="http://www.w3.org/2000/svg" xmlns:xlink="http://www.w3.org/1999/xlink" viewBox="0 0 300.99 300"><defs><style>.cls-1{fill:none;}.cls-2{clip-path:url(#clip-path);}.cls-3{fill:#da0000;}.cls-4{fill:#fff;}.cls-5{fill:#239f40;}</style><clipPath id="clip-path"><circle class="cls-1" cx="150.09" cy="150" r="150"/></clipPath></defs><title>Iran</title><g id="Слой_2" data-name="Слой 2"><g id="Слой_1-2" data-name="Слой 1"><g class="cls-2"><path class="cls-3" d="M300.59,99.65c0-.21,0-.43,0-.65s0-.43,0-.65V0H.59V300h300V215.18c0-.93,0-1.85,0-2.77V201.15c0-.21,0-.43,0-.65s0-.43,0-.65Z"/><path class="cls-4" d="M300.56,99c0-.22,0-.43,0-.65V0H.59V200h300c0-.05,0-.1,0-.15V99.65C300.58,99.44,300.56,99.22,300.56,99Z"/><path class="cls-5" d="M300.56,99c0-.22,0-.43,0-.65V0H.59V100h300v-.35C300.58,99.44,300.56,99.22,300.56,99Z"/><g id="tb4"><g id="tb1"><polygon class="cls-4" points="30.09 83.67 30.09 93.17 27.42 93.17 27.42 83.67 25.42 83.67 25.42 93.17 22.76 93.17 22.76 83.67 20.76 83.67 20.76 88.5 11.42 88.5 11.42 95.17 18.26 95.17 18.26 93.17 13.42 93.17 13.42 90.5 20.76 90.5 20.76 95.17 32.09 95.17 32.09 83.67 30.09 83.67"/><rect class="cls-4" y="83.83" width="18.26" height="2"/><polygon class="cls-4" points="1.92 90.5 6.76 90.5 6.76 93.17 0 93.17 0 95.17 8.76 95.17 8.76 88.5 1.92 88.5 1.92 90.5"/><rect class="cls-4" y="99" width="8.92" height="2"/><rect class="cls-4" x="11.26" y="99" width="21" height="2"/><rect class="cls-4" x="11.26" y="199" width="21" height="2"/><rect class="cls-4" y="199" width="8.92" height="2"/><polygon class="cls-4" points="1.92 211.5 6.76 211.5 6.76 214.17 0 214.17 0 216.17 8.76 216.17 8.76 209.5 1.92 209.5 1.92 211.5"/><rect class="cls-4" y="204.83" width="18.26" height="2"/><polygon class="cls-4" points="30.09 204.67 30.09 214.17 27.42 214.17 27.42 204.67 25.42 204.67 25.42 214.17 22.76 214.17 22.76 204.67 20.76 204.67 20.76 209.5 11.42 209.5 11.42 216.17 18.26 216.17 18.26 214.17 13.42 214.17 13.42 211.5 20.76 211.5 20.76 216.17 32.09 216.17 32.09 204.67 30.09 204.67"/></g><g id="tb3"><g id="tb1-2" data-name="tb1"><path class="cls-4" d="M36.76,95.33h-2V88.5H46.09v4.67h7.33V90.5H48.59v-2h6.83v6.67H44.09V90.5H36.76Zm42-.16H67.42V90.5H60.09v2.67h4.83v2H58.09V88.5h9.33V83.67h2v9.5h2.67v-9.5h2v9.5h2.67v-9.5h2Zm-37.17,0H39.26v-2h2.33Zm23.33-9.34H34.59v-2H64.92Z"/><path class="cls-4" d="M78.92,101h-21V99h21Zm-23.33,0h-21V99h21Z"/><path class="cls-4" d="M78.92,201h-21v-2h21Zm-23.33,0h-21v-2h21Z"/><path class="cls-4" d="M36.76,216.33h-2V209.5H46.09v4.67h7.33V211.5H48.59v-2h6.83v6.67H44.09V211.5H36.76Zm42-.16H67.42V211.5H60.09v2.67h4.83v2H58.09V209.5h9.33v-4.83h2v9.5h2.67v-9.5h2v9.5h2.67v-9.5h2Zm-37.17,0H39.26v-2h2.33Zm23.33-9.34H34.59v-2H64.92Z"/></g></g></g><g id="tb1-3" data-name="tb1"><path class="cls-4" d="M83.42,95.33h-2V88.5H92.76v4.67h7.33V90.5H95.26v-2h6.83v6.67H90.76V90.5H83.42Zm42-.16H114.09V90.5h-7.33v2.67h4.83v2h-6.83V88.5h9.33V83.67h2v9.5h2.67v-9.5h2v9.5h2.66v-9.5h2Zm-37.16,0H85.92v-2h2.34Zm23.33-9.34H81.26v-2h30.33Z"/><path class="cls-4" d="M125.59,101h-21V99h21Zm-23.33,0h-21V99h21Z"/><path class="cls-4" d="M125.59,201h-21v-2h21Zm-23.33,0h-21v-2h21Z"/><path class="cls-4" d="M83.42,216.33h-2V209.5H92.76v4.67h7.33V211.5H95.26v-2h6.83v6.67H90.76V211.5H83.42Zm42-.16H114.09V211.5h-7.33v2.67h4.83v2h-6.83V209.5h9.33v-4.83h2v9.5h2.67v-9.5h2v9.5h2.66v-9.5h2Zm-37.16,0H85.92v-2h2.34Zm23.33-9.34H81.26v-2h30.33Z"/></g><g id="tb1-4" data-name="tb1"><path class="cls-4" d="M130.09,95.33h-2V88.5h11.33v4.67h7.34V90.5h-4.84v-2h6.84v6.67H137.42V90.5h-7.33Zm42-.16H160.76V90.5h-7.34v2.67h4.84v2h-6.84V88.5h9.34V83.67h2v9.5h2.66v-9.5h2v9.5h2.67v-9.5h2Zm-37.17,0h-2.33v-2h2.33Zm23.34-9.34H127.92v-2h30.34Z"/><path class="cls-4" d="M172.26,101h-21V99h21Zm-23.34,0h-21V99h21Z"/><path class="cls-4" d="M172.26,201h-21v-2h21Zm-23.34,0h-21v-2h21Z"/><path class="cls-4" d="M130.09,216.33h-2V209.5h11.33v4.67h7.34V211.5h-4.84v-2h6.84v6.67H137.42V211.5h-7.33Zm42-.16H160.76V211.5h-7.34v2.67h4.84v2h-6.84V209.5h9.34v-4.83h2v9.5h2.66v-9.5h2v9.5h2.67v-9.5h2Zm-37.17,0h-2.33v-2h2.33Zm23.34-9.34H127.92v-2h30.34Z"/></g><g id="tb3-2" data-name="tb3"><g id="tb1-5" data-name="tb1"><path class="cls-4" d="M176.76,95.33h-2V88.5h11.33v4.67h7.33V90.5h-4.83v-2h6.83v6.67H184.09V90.5h-7.33Zm42-.16H207.42V90.5h-7.33v2.67h4.83v2h-6.83V88.5h9.33V83.67h2v9.5h2.67v-9.5h2v9.5h2.67v-9.5h2Zm-37.17,0h-2.33v-2h2.33Zm23.33-9.34H174.59v-2h30.33Z"/><path class="cls-4" d="M218.92,101h-21V99h21Zm-23.33,0h-21V99h21Z"/><path class="cls-4" d="M218.92,201h-21v-2h21Zm-23.33,0h-21v-2h21Z"/><path class="cls-4" d="M176.76,216.33h-2V209.5h11.33v4.67h7.33V211.5h-4.83v-2h6.83v6.67H184.09V211.5h-7.33Zm42-.16H207.42V211.5h-7.33v2.67h4.83v2h-6.83V209.5h9.33v-4.83h2v9.5h2.67v-9.5h2v9.5h2.67v-9.5h2Zm-37.17,0h-2.33v-2h2.33Zm23.33-9.34H174.59v-2h30.33Z"/></g></g><g id="tb1-6" data-name="tb1"><path class="cls-4" d="M223.42,95.33h-2V88.5h11.34v4.67h7.33V90.5h-4.83v-2h6.83v6.67H230.76V90.5h-7.34Zm42-.16H254.09V90.5h-7.33v2.67h4.83v2h-6.83V88.5h9.33V83.67h2v9.5h2.67v-9.5h2v9.5h2.66v-9.5h2Zm-37.16,0h-2.34v-2h2.34Zm23.33-9.34H221.26v-2h30.33Z"/><path class="cls-4" d="M265.59,101h-21V99h21Zm-23.33,0h-21V99h21Z"/><path class="cls-4" d="M265.59,201h-21v-2h21Zm-23.33,0h-21v-2h21Z"/><path class="cls-4" d="M223.42,216.33h-2V209.5h11.34v4.67h7.33V211.5h-4.83v-2h6.83v6.67H230.76V211.5h-7.34Zm42-.16H254.09V211.5h-7.33v2.67h4.83v2h-6.83V209.5h9.33v-4.83h2v9.5h2.67v-9.5h2v9.5h2.66v-9.5h2Zm-37.16,0h-2.34v-2h2.34Zm23.33-9.34H221.26v-2h30.33Z"/></g><g id="tb1-7" data-name="tb1"><rect class="cls-4" x="267.92" y="83.83" width="30.33" height="2"/><polygon class="cls-4" points="281.92 90.5 286.76 90.5 286.76 93.17 279.42 93.17 279.42 88.5 268.09 88.5 268.09 95.33 270.09 95.33 270.09 90.5 277.42 90.5 277.42 95.17 288.76 95.17 288.76 88.5 281.92 88.5 281.92 90.5"/><path class="cls-4" d="M301,93c0-.28,0-.55,0-.82s0-.31,0-.47,0-.35,0-.53,0-.38,0-.57,0-.37,0-.56,0-.18,0-.27,0-.15,0-.23,0-.24,0-.36a2.46,2.46,0,0,1,0-.26c0-.21,0-.42,0-.63s0-.41,0-.62,0-.21,0-.32,0-.2,0-.31,0-.07,0-.11a11.44,11.44,0,0,1,0-2.55s0-.06,0-.09,0-.17,0-.25,0-.17,0-.25,0-.06,0-.08h-.18V88.5h-9.34v6.67h6.84v-2h-4.84V90.5h7.34v4.67H301c0-.39-.06-.78-.06-1.17S301,93.29,301,93Z"/><path class="cls-4" d="M300.56,99h-9.3v2h9.46A14.71,14.71,0,0,1,300.56,99Z"/><rect class="cls-4" x="267.92" y="99" width="21" height="2"/><rect class="cls-4" x="267.92" y="199" width="21" height="2"/><path class="cls-4" d="M300.56,200.5a12.33,12.33,0,0,1,.09-1.5h-9.39v2h9.32C300.58,200.83,300.56,200.67,300.56,200.5Z"/><rect class="cls-4" x="267.92" y="204.83" width="30.33" height="2"/><polygon class="cls-4" points="281.92 211.5 286.76 211.5 286.76 214.17 279.42 214.17 279.42 209.5 268.09 209.5 268.09 216.33 270.09 216.33 270.09 211.5 277.42 211.5 277.42 216.17 288.76 216.17 288.76 209.5 281.92 209.5 281.92 211.5"/><path class="cls-4" d="M300.84,208.17c0-.16,0-.33,0-.5l0,.41,0-.55c0-.41,0-.81,0-1.21s-.07-.87-.07-1.32c0-.11,0-.22,0-.33h-.06v4.77C300.78,209,300.81,208.6,300.84,208.17Z"/><path class="cls-4" d="M293.42,211.5h7.21l.12-2h-9.33v6.67h6.84v-2h-4.84Z"/></g><g id="emblem_half" data-name="emblem half"><path class="cls-3" d="M129.54,181.36a34.2,34.2,0,0,0,32.87-58.45,37.49,37.49,0,0,1-32.87,58.45"/><path class="cls-3" d="M173.28,174.8a28.64,28.64,0,0,0-7.38-52.59,37.49,37.49,0,0,1,7.44,52.51l-.06.08"/><path class="cls-3" d="M150.09,187.5,148.22,150l1.87-29.52a11.55,11.55,0,0,0,4.43,3.71v22L153,183.48Z"/><path class="cls-3" d="M149.34,118.12l.75.71a5.41,5.41,0,0,0,9.45-5.12,5.11,5.11,0,0,1-6,4.08,5.17,5.17,0,0,1-3.48-2.46"/></g><g id="emblem_half-2" data-name="emblem half"><path class="cls-3" d="M170.65,181.36a34.2,34.2,0,0,1-32.88-58.45,37.49,37.49,0,0,0,32.88,58.45"/><path class="cls-3" d="M126.9,174.8a28.65,28.65,0,0,1,7.38-52.59,37.49,37.49,0,0,0-7.44,52.51l.06.08"/><path class="cls-3" d="M150.09,187.5,152,150l-1.88-29.52a11.55,11.55,0,0,1-4.43,3.71v22l1.51,37.25Z"/><path class="cls-3" d="M150.84,118.12l-.75.71a5.41,5.41,0,0,1-9.45-5.12,5.11,5.11,0,0,0,9.45,1.62"/></g></g></g></g></svg>