<svg xmlns="http://www.w3.org/2000/svg" viewBox="0 0 183.23 299"><defs><style>.cls-1,.cls-4{fill:#1d1d1b;}.cls-1,.cls-2,.cls-3{fill-rule:evenodd;}.cls-2{fill:#fff;}.cls-3{fill:#fcbf00;}</style></defs><title>Juventus </title><g id="Слой_2" data-name="Слой 2"><g id="Layer_1" data-name="Layer 1"><path class="cls-1" d="M91.62,0c50.58,0,91.61,67,91.61,149.5S142.2,299,91.62,299,0,232.05,0,149.5,41,0,91.62,0Z"/><path class="cls-2" d="M91.62,11.52c47.54,0,86.11,61,86.11,136.25S139.16,284,91.62,284,5.5,223,5.5,147.77,44.07,11.52,91.62,11.52Z"/><path class="cls-1" d="M91.62,15.79a52.43,52.43,0,0,1,15.56,2.39v48c-5.32-.4-10.75-.6-16.26-.6q-7.55,0-14.87.5V18.18a52.45,52.45,0,0,1,15.57-2.39ZM129.9,31.15C142.64,42.06,153.39,58.22,161,77.84v.07a173.76,173.76,0,0,0-29.92-8.55q-.54-8.74-1.2-17.15V31.15ZM22.21,77.3c7.34-18.67,17.51-34.17,29.53-44.94V52.22q-.66,8.4-1.2,17.14A173.18,173.18,0,0,0,22.21,77.3Z"/><path class="cls-1" d="M49.13,128.66a115.88,115.88,0,0,0-27.72,19.07v57.69c7.43,19.61,18.21,35.85,31.13,46.89v-25.4c-2.23-27-3.46-56.68-3.46-87.91q0-5.19.05-10.34Zm58.74-8.53a94.38,94.38,0,0,0-31.13-.23v55a33.24,33.24,0,0,1,14.88-3.61,33.65,33.65,0,0,1,16.25,4.33V120.13Zm53.95,27.6a116,116,0,0,0-27.71-19.07q0,5.15,0,10.34c0,31.23-1.23,60.95-3.46,87.92v26.55c12.75-10.4,23.5-25.82,31.13-44.54v-61.2Z"/><path class="cls-3" d="M90.47,110c30,0,58.78,6.77,82.17,18.32.32,4.57.5,9.22.5,13.92,0,1.75,0,3.48-.08,5.22-23.47-20.1-52.4-31.88-82.59-31.88s-57.32,11-80.35,30c0-1.11,0-2.22,0-3.34q0-7.65.58-15.06C33.6,116.32,60.5,110,90.47,110Z"/><path class="cls-1" d="M108.68,208.93H74.55c-4,0-7.32,3-7.32,6.62v11.38c0,16.39,5.8,25.76,24.39,41.22C110.2,252.69,116,243.32,116,226.93V215.55c0-3.64-3.29-6.62-7.32-6.62Z"/><path class="cls-2" d="M80.3,212.84s1.28,2,.94,2.26c-.51.34-2.2-.73-2.2-.73a35.29,35.29,0,0,0,1.75,3.36c.26.38.84.65,1,1.14.72,1.91-1.59,4.86.58,6.18a2.53,2.53,0,0,0,2.45-.21s.26-.14.41-.06c.4.2-.06,1.18-.12,1.33-.9,2.07-1.67,1-2.67.11-2-1.79-2.18.74-2.82,1-2.29.82-2-.12-2.79.21-.47.2-.55,1.17-.69,1.63-.28.95-1,3.37,1.15,2.64,1.22-.42,1.59-3.47,2.78-1.92,1.42,1.86-.5,3.75,1.44,6,.53.6,1.14.88,1.76.24a2.13,2.13,0,0,0,.54-.85,2.53,2.53,0,0,0,0-1.44c-.39-1.15-1.38-1.2-1-2.8a.92.92,0,0,1,.91.12,11.15,11.15,0,0,1,2.43,1.25,15.3,15.3,0,0,0,3,2.7c.37.79-.48,1.8-.76,2.23A8.92,8.92,0,0,0,87,239.88c-.36,1.76,1.33,3.56-.6,4.18-2.23.7-5.89.14-6.12,2.56a2.33,2.33,0,0,0,.2,1.63,2.49,2.49,0,0,0,1.56.63c1.88,0,.21-2,1.72-2.51.73-.22,1.6.27,2.19.32a20.29,20.29,0,0,0,2.07,0c2.25-.08,2.61-1,3.72-1.67,1.46-.91,2.76,1.6,3.28,2.54.4.78,1.47,1.12,1.78,2a7.66,7.66,0,0,1,.26,3.14c-.1.67-.78.57-1.06,1.08-.45.82-.61,4.31.75,4.78,1.09.36,2.95-.9,2.58-1.9-.11-.31-.64-.55-.71-.91-.45-2.35,3.54-4.35,3.64-4.91.18-.89-1.32-.76-1-2.66.22-1.38,1.65-2.32,2.3-3.44.35-.59.22-1.71.65-2.25s1-.6,1.27-1.11c1.51-2.8-.24-7.16-1.35-10.27-.32-.9-2.05-4.53-.92-5,.29-.11.47,0,.63,0,.65.7.23,1.76.56,2.53.47,1,1.82,1.52,2.76,2-.1.08.21,0,.21,0a4.09,4.09,0,0,1-.51-1.78c0-2-.32-3.54-1.59-4.42a2.69,2.69,0,0,0-2.67-.31c-3.76,2-.06,8.11.9,11.39.43,1.43-.57,2.28-1.76,1.75-1-.43-1.47-2.73-1.76-3.84C98.82,229,97.17,221,95.11,218.66c-1.89-2.14-6.89-3.16-10.25-3.77a11.26,11.26,0,0,1-1.94-.43c-.43-.17-2.62-1.62-2.62-1.62Z"/><path class="cls-4" d="M156.5,109.12h0Zm0-17.17,5.93,2v-.52a28.62,28.62,0,0,0-.16-3.16,9.46,9.46,0,0,0-.47-2.13,6.12,6.12,0,0,0-.93-1.62,10.93,10.93,0,0,0-1.63-1.64h0a13.91,13.91,0,0,0-3.27-2c-.25-.11-.5-.22-.74-.31s-.51-.19-.78-.28h0a10.81,10.81,0,0,0-3.26-.64,4.73,4.73,0,0,0-.53,0l-.5,0h0a4,4,0,0,0-1.44.5,3,3,0,0,0-.93.93h0a5,5,0,0,0-.56,1.73,18.66,18.66,0,0,0-.2,2.94,17.36,17.36,0,0,0,.14,2.24h0a10.25,10.25,0,0,0,.43,1.87h0a10.59,10.59,0,0,0,1,2.17l.22.35h0l.23.33-.4.31.4-.31h0c.29.39.74.92,1.35,1.6s1.38,1.53,2.31,2.5h0c.94,1,1.7,1.81,2.27,2.47h0a14.8,14.8,0,0,1,1.28,1.6h0a4.23,4.23,0,0,1,.52,1.35c0,.09.05.2.07.32h0A13.78,13.78,0,0,1,157,107h0v0a5,5,0,0,1-.21,1.59c0,.09-.07.17-.11.24h0a1,1,0,0,1-.13.22h0l-.41-.3.4.3a1.21,1.21,0,0,1-.75.53,1.62,1.62,0,0,1-.91-.07h0a2.37,2.37,0,0,1-1-.68h0l-.15-.19-.12-.21h0a6.55,6.55,0,0,1-.35-2.58v-3.41l-5.92-2v1.33a26,26,0,0,0,.16,3.09,12.84,12.84,0,0,0,.47,2.38h0a7.2,7.2,0,0,0,1,1.93,10.76,10.76,0,0,0,1.68,1.9h0a13.05,13.05,0,0,0,3.37,2.22c.23.11.49.22.76.33l.79.29h0a11.36,11.36,0,0,0,2.46.57,7.52,7.52,0,0,0,2.08,0,3.76,3.76,0,0,0,2-.9h0a2.85,2.85,0,0,0,.23-.26h0a2.4,2.4,0,0,0,.19-.29h0v0h0a4.77,4.77,0,0,0,.35-1c0-.21.09-.43.13-.67a19.12,19.12,0,0,0,.17-2.73h0v0a22.1,22.1,0,0,0-.31-4,10.45,10.45,0,0,0-.92-2.86,17.7,17.7,0,0,0-2.16-3q-1.54-1.82-4-4.24A17,17,0,0,1,154.19,93a4.4,4.4,0,0,1-1.08-2.21h0l0-.2h0a10.73,10.73,0,0,1-.1-1.47v0a4.58,4.58,0,0,1,.21-1.53h0l.09-.23a2.14,2.14,0,0,1,.13-.22h0a1.24,1.24,0,0,1,.72-.5,1.44,1.44,0,0,1,.86.06,2,2,0,0,1,.69.37,1.85,1.85,0,0,1,.49.62h0a2.7,2.7,0,0,1,.22.78h0l0,.16h0a12.92,12.92,0,0,1,.07,1.39h0v2Zm-12.66,8V79.56l-6.62-1.7v22.28c0,.77,0,1.42-.05,1.92a4.76,4.76,0,0,1-.18,1.16h0a1.07,1.07,0,0,1-1,.75h-.25l-.25,0h0a1.72,1.72,0,0,1-.74-.4h0a1.77,1.77,0,0,1-.45-.72h0a5.3,5.3,0,0,1-.18-1.11c0-.46-.06-1-.06-1.72V77l-6.6-1.7V93.1h0c0,1.75,0,3.2,0,4.36s.07,2,.13,2.54h0a6.65,6.65,0,0,0,.36,1.58,8.46,8.46,0,0,0,.75,1.63h0a8.37,8.37,0,0,0,1.18,1.57,11.71,11.71,0,0,0,1.68,1.45h0a12.85,12.85,0,0,0,3.08,1.61l.67.22.7.2h0a10.52,10.52,0,0,0,2.9.37c.17,0,.33,0,.49,0l.47-.07h0a4.67,4.67,0,0,0,1.43-.51,4.1,4.1,0,0,0,1.1-.9h0a5.7,5.7,0,0,0,.78-1.15,4.09,4.09,0,0,0,.38-1.2c.06-.35.1-.84.14-1.44l0-.38c0-.8.05-1.77.05-2.9h0V100ZM124.6,80.47V75.29l-16-2.32v5.19l4.16.6.44.06v24.91l6.76,1V79.81l.58.08,4,.58Zm-18.8,22.77V73.14l-5.56-.2V86.42l-1,.16L95,72.75l-5.69-.21v30.1l5.56.2V89.23l1-.15,4,13.94,6,.22ZM85.47,72.63l-12.06.87v30.1L86,102.69V97.5l-5.21.37-.53,0V90l.46,0,4.42-.32V84.79l-4.35.31-.53,0V78.2l.46,0,4.76-.34v-5.2Zm-18.2,31.44,3.8-30.77L64,74.59l-.5,5.49h0q-.47,5-.92,11.2l-.17,2.42-.17,2.5v0h-1c-.3-4.2-.72-9.05-1.29-14.55-.1-1-.22-2.12-.34-3.29-.11-1-.21-1.93-.33-3l-7.15,1.3L56.41,106l10.86-2Zm-21.94,4.07h0Zm4.07-11V77L42.86,78.9v22.55q0,1.17-.06,2a5.49,5.49,0,0,1-.17,1.21h0a1.76,1.76,0,0,1-.78,1h0a1.19,1.19,0,0,1-.22.12,1.06,1.06,0,0,1-.25.09h0a1.33,1.33,0,0,1-.84,0,1,1,0,0,1-.6-.63h0a3.87,3.87,0,0,1-.19-1c0-.44-.06-1-.06-1.7V79.84l-6.53,1.93v18h0c0,1.75,0,3.2,0,4.34s.07,1.94.13,2.46h0a4.79,4.79,0,0,0,.34,1.34,4.53,4.53,0,0,0,.71,1.16h0a3.27,3.27,0,0,0,1.08.84,5.71,5.71,0,0,0,1.59.51,8.64,8.64,0,0,0,3-.08l.66-.15.69-.18h0a12.84,12.84,0,0,0,2.94-1.26h0c.17-.1.34-.2.5-.31l.47-.33h0l.3.42-.3-.42a10.14,10.14,0,0,0,1.49-1.35A10.35,10.35,0,0,0,48,105.17a11.86,11.86,0,0,0,.8-1.66,7.06,7.06,0,0,0,.4-1.47h0c.06-.4.1-.91.14-1.52l0-.39c0-.82,0-1.8,0-2.94h0v-.1Zm-20,5.91V82.93L23,85.32v21.54h0c0,.54,0,1,0,1.5s0,.75,0,1a2.65,2.65,0,0,1-.21.78,2.81,2.81,0,0,1-.43.71h0a3.14,3.14,0,0,1-.64.62,3.54,3.54,0,0,1-.82.43,6.5,6.5,0,0,1-.63.21v4.31l3-1.13A20.52,20.52,0,0,0,26,114h0l.39-.23.33-.22h0a5.75,5.75,0,0,0,1.36-1.38h0c.07-.09.14-.2.21-.31h0a3,3,0,0,0,.19-.33h0a6.39,6.39,0,0,0,.64-1.75h0a2.86,2.86,0,0,0,.06-.35c0-.12,0-.23,0-.35h0v0h0c0-.46.06-1.18.07-2.17s0-2.19,0-3.83Z"/><path class="cls-1" d="M106.8,200.35c.06-.28,1-1.79,2-3.67,2.74-4.8,6.52-12-.26-7.08-1.78,1.29-2.92,3.28-5,2.62h0a4,4,0,0,1-2.63-5c1.85-5.5-4.56-4.78-4.65-.49-.11,5.38-9.24,5.38-9.35,0-.09-4.29-6.5-5-4.65.49a4,4,0,0,1-2.62,5h0c-2.1.66-3.24-1.33-5-2.62-9.43-6.83,1.58,9.76,1.79,10.75,8.21-2.45,17.75-3.28,30.37,0Z"/></g></g></svg>