<svg xmlns="http://www.w3.org/2000/svg" viewBox="0 0 299.39 299.37"><defs><style>.cls-1{fill:#ed1c24;}.cls-2{fill:#fff;}.cls-3{fill:#231f20;}</style></defs><title>Koln </title><g id="Слой_2" data-name="Слой 2"><g id="Layer_1" data-name="Layer 1"><g id="g104"><path id="path106" class="cls-1" d="M0,149.69A149.7,149.7,0,1,1,149.65,299.37,149.7,149.7,0,0,1,0,149.69"/></g><g id="g108"><path id="path110" class="cls-2" d="M18.13,149.69A131.67,131.67,0,1,1,149.82,281.28,131.68,131.68,0,0,1,18.13,149.69"/></g><g id="g114"><path id="path116" class="cls-1" d="M27.9,149.68a121.91,121.91,0,1,1,121.92,121.9A121.93,121.93,0,0,1,27.9,149.68"/></g><g id="g176"><path id="path178" class="cls-2" d="M162.67,75.56l-.29,1.32-8.44-12.57c-.24,3-3.55,43.9-3.55,43.9h-1.14l-3.45-43.9-8.46,12.57S122.88,10.34,121.85,5.54c-1,4.8-15.5,71.34-15.5,71.34s-7-10.4-8.46-12.57C97.64,67.53,83,250.93,83,250.93v.22a120.78,120.78,0,0,0,66.73,20h.17a120.62,120.62,0,0,0,66.73-20v-.25S203.31,82.62,201.86,64.31l-8.45,12.57S178.92,10.33,177.87,5.53c-1,4.8-15.2,70-15.2,70"/></g><g id="g180"><path id="path182" class="cls-3" d="M217.24,250.89,202.3,62.62l-8.61,12.81L177.87,2.82,162.11,75.43l-8.6-12.81-3.69,45.55-3.58-45.55-8.62,12.81L121.85,2.82,106.07,75.43,97.46,62.62l-15,188.27v.58a121.53,121.53,0,0,0,67.31,20.25h.17a121.26,121.26,0,0,0,67.31-20.25Z"/></g><g id="g184"><path id="path186" class="cls-2" d="M277,143,257.81,76.55,20.66,143.25l14.68,67.68Z"/></g><g id="g188"><path id="path190" class="cls-1" d="M65.28,139.3l31.09-9.65-5.48,58.54-21.72,6.06,3.71-39.78-9.34,3.23Z"/></g><g id="g192"><path id="path194" class="cls-1" d="M123.26,170.61c-.56,6.07-7,11.24-12.8,13-5.91,1.54-11.61-.16-11-6.29.58-6.36,7-11.71,12.86-13.23s11.53.23,11,6.51"/></g><g id="g196"><path id="path198" class="cls-1" d="M137.57,118.07l40.3-11.41-1.49,16.9-18.36,5-.53,6.17,16.11-4.48-1.48,15.08-16.07,4.56-2,20.48L132,176.61Z"/></g><g id="g200"><path id="path202" class="cls-1" d="M229.78,115.31a14.59,14.59,0,0,0-12.36-2.21c-6.57,1.85-12.41,8.34-13,14.74s4.64,9.78,11.17,7.93c5.06-1.39,9.25-4.59,13.07-9l-2.71,22.08c-3.63,2.62-11.86,5.59-15.77,6.69-17.22,4.82-29.44-4.36-27.87-21C183.85,117.49,199,100,216.72,94.94a41.69,41.69,0,0,1,14.46-1.64Z"/></g><g id="g204"><path id="path206" class="cls-2" d="M134.84,193.23a6.54,6.54,0,0,1-3.68,5.26c-1.71.41-2.95-1.15-2.78-3.49s1.76-4.64,3.53-5c1.81-.72,3.12.9,2.93,3.23m9.35-2.71a6.12,6.12,0,0,1-3.59,5.24c-1.79.59-3-1-2.81-3.31s1.74-4.6,3.56-5.16,3.08.93,2.84,3.23m6.17,24.65c-1,12.39-8.91,22-17.86,24.4s-15.62-3-14.57-15.39c1-12.1,8.95-22,17.89-24.49s15.51,3.4,14.54,15.48m-21.74,6.23c-.39,4.47,1.67,6.81,4.84,6s5.75-4.61,6.13-8.91-1.49-7.07-4.84-6.08-5.75,5-6.13,9"/></g><g id="g208"><path id="path210" class="cls-2" d="M155.69,194.75l10.63-2.87L164.15,218l8.9-2.49L172,228l-19.56,5.34Z"/></g><g id="g212"><path id="path214" class="cls-2" d="M178,188.51l10.24-2.72L196,204.53h.23a90.1,90.1,0,0,1,0-9.73l1-11.54,10.16-2.81L204.17,219,194,221.78l-7.63-17.62-.42.07a50.74,50.74,0,0,1,0,7.6l-1,12.58-10.08,2.74Z"/></g><g id="g216"><path id="path218" class="cls-2" d="M92,212.5l10.32-2.88-1.69,16.84.24-.08a30.83,30.83,0,0,1,1.87-4.81l6.16-13.8,11.61-3.21-10.74,21.31,8.52,17L106,246.37,101.8,236c-.5-1.27-1.28-2.45-1.31-3.93l-.29.07-1.15,16.13L88.73,251.1Z"/></g></g></g></svg>