<svg xmlns="http://www.w3.org/2000/svg" viewBox="0 0 300 300"><defs><style>.cls-1{fill:#fff;}.cls-2{stroke:#fff;}.cls-3{fill:#cd2e3a;}.cls-4{fill:#0047a0;}</style></defs><title>Korea_Republic </title><g id="Слой_2" data-name="Слой 2"><g id="Layer_1" data-name="Layer 1"><circle class="cls-1" cx="150" cy="150" r="150"/><path class="cls-2" d="M208.93,189.76,243.72,213"/><circle class="cls-3" cx="149.78" cy="150.33" r="50.17"/><path class="cls-4" d="M108,122.5a25.08,25.08,0,1,0,41.74,27.83,25.09,25.09,0,1,1,41.75,27.83A50.17,50.17,0,1,1,108,122.5Z"/><rect x="53.87" y="64.58" width="6.89" height="45.85" transform="translate(58.27 -17.09) rotate(33.75)"/><rect x="66.82" y="73.23" width="6.89" height="45.85" transform="translate(65.26 -22.83) rotate(33.75)"/><rect x="78.78" y="81.22" width="6.89" height="45.85" transform="translate(71.71 -28.13) rotate(33.75)"/><rect x="239.68" y="64.58" width="6.89" height="45.85" transform="translate(493.88 25.19) rotate(146.25)"/><rect x="226.72" y="73.23" width="6.89" height="45.85" transform="translate(474.96 48.24) rotate(146.25)"/><rect x="214.76" y="81.22" width="6.89" height="45.85" transform="translate(457.5 69.52) rotate(146.25)"/><rect x="53.44" y="189.58" width="6.89" height="45.85" transform="translate(-108.47 67.41) rotate(-33.75)"/><rect x="66.39" y="180.92" width="6.89" height="45.85" transform="translate(-101.48 73.15) rotate(-33.75)"/><rect x="78.35" y="172.93" width="6.89" height="45.85" transform="translate(-95.02 78.44) rotate(-33.75)"/><rect x="239.25" y="189.58" width="6.89" height="45.85" transform="translate(326.43 524.02) rotate(-146.25)"/><rect x="226.29" y="180.92" width="6.89" height="45.85" transform="translate(307.51 500.96) rotate(-146.25)"/><rect x="214.33" y="172.93" width="6.89" height="45.85" transform="translate(290.05 479.68) rotate(-146.25)"/></g></g></svg>