<svg xmlns="http://www.w3.org/2000/svg" xmlns:xlink="http://www.w3.org/1999/xlink" viewBox="0 0 299.42 201.65"><defs><style>.cls-1{fill:#15366f;}.cls-2{fill:url(#Безымянный_градиент_3);}.cls-3{fill:#87d8f7;}.cls-4{fill:#fff;}.cls-5{fill:url(#Безымянный_градиент_2);}</style><linearGradient id="Безымянный_градиент_3" x1="-2.23" y1="511.25" x2="69.17" y2="511.25" gradientTransform="translate(99.69 -583.88) scale(1.39 1.41)" gradientUnits="userSpaceOnUse"><stop offset="0" stop-color="#d7d7d7"/><stop offset="0.4" stop-color="#fff"/><stop offset="1" stop-color="#fff"/></linearGradient><linearGradient id="Безымянный_градиент_2" x1="-71.51" y1="443.26" x2="143.27" y2="443.26" gradientTransform="translate(99.69 -583.88) scale(1.39 1.41)" gradientUnits="userSpaceOnUse"><stop offset="0" stop-color="#c59a17"/><stop offset="0.5" stop-color="#d7a819"/><stop offset="1" stop-color="#dbab19"/></linearGradient></defs><title>Lazio</title><g id="Слой_2" data-name="Слой 2"><g id="Layer_1" data-name="Layer 1"><path id="path16" class="cls-1" d="M167.3,71.34h31v68.23s1.22,46.67-51.19,62.08c0,0-47.33-9.6-52.63-61.19V71.67h24.1l48.76-.33h0"/><path id="path18" class="cls-2" d="M166.44,73.47h29.67v65.41s1.17,44.74-49.07,59.52c0,0-45.37-9.21-50.46-58.66V73.8h23.11l46.75-.33h0"/><path id="path20" class="cls-1" d="M163.06,106.2h24.7v32.18s1,37.24-40.84,49.53c0,0-37.75-7.66-42-48.81V106.25h19.23l38.89,0h0"/><path id="path22" class="cls-3" d="M162.23,108.23H185.7v30.58s.93,35.39-38.81,47.07c0,0-35.87-7.28-39.9-46.39V108.27h18.28l37,0h0"/><path id="path24" class="cls-1" d="M131.6,99.72a2.07,2.07,0,0,0,1-.36,2,2,0,0,0,.55-1.09l2.39-9c.07-.26.12-.47.16-.64a2.91,2.91,0,0,0,.05-.46c0-.34-.09-.56-.27-.64a3.86,3.86,0,0,0-1.16-.22v-.52h6.19v.52a3.54,3.54,0,0,0-1.37.34,1.86,1.86,0,0,0-.59,1.1l-2.53,9.6c0,.11-.05.21-.07.3a2.88,2.88,0,0,0,0,.32.51.51,0,0,0,.29.48,1.91,1.91,0,0,0,.8.14,7.93,7.93,0,0,0,3.47-.71,6.31,6.31,0,0,0,2.58-2.64l.46.09-1.14,3.91H131.6v-.51"/><path id="path26" class="cls-1" d="M156.71,99.65l9.75-12.16h-1.55a6.06,6.06,0,0,0-3.27,1,9.91,9.91,0,0,0-2,2l-.53-.07,1.44-3.59h9.3l-.05.59-9.72,12.16h1.41a8.57,8.57,0,0,0,2.82-.41,6.79,6.79,0,0,0,3.46-2.89l.52.09-1.52,3.91H156.66l.05-.58h0"/><path id="path28" class="cls-1" d="M168.66,99.72a2.15,2.15,0,0,0,1.05-.36,2.09,2.09,0,0,0,.56-1.09l2.44-9c.07-.26.12-.47.15-.64a2.15,2.15,0,0,0,.06-.46c0-.34-.09-.56-.28-.64a4,4,0,0,0-1.18-.22v-.52h5.92v.52a2.33,2.33,0,0,0-1.06.36,2.14,2.14,0,0,0-.54,1.08l-2.45,9-.15.7a1.55,1.55,0,0,0,0,.21,1.09,1.09,0,0,0,0,.18c0,.34.09.56.27.65a3.8,3.8,0,0,0,1.17.22v.51h-5.91v-.51"/><path id="path30" class="cls-4" d="M133.16,108.2h27.78v71.69a50.77,50.77,0,0,1-14.12,5.92s-7.91-1.9-13.66-5.53V108.2"/><path id="path32" class="cls-1" d="M104.21,100.52l1-4.49.57,0a9.39,9.39,0,0,0,.07,1.4,2.85,2.85,0,0,0,.58,1.3,2.57,2.57,0,0,0,2.17,1.06,2.45,2.45,0,0,0,1.9-.76,2.91,2.91,0,0,0,.78-1.79c.06-.84-.68-1.91-2.21-3.19s-2.26-2.59-2.18-3.73a4.1,4.1,0,0,1,4.33-3.88,5.82,5.82,0,0,1,1.09.1,4.54,4.54,0,0,1,.64.17l.49.17.33.08.31,0a.94.94,0,0,0,.54-.14,1.55,1.55,0,0,0,.35-.37h.59l-1.08,4-.52-.07,0-.66a3.67,3.67,0,0,0-.46-1.59,2.14,2.14,0,0,0-2-1,2,2,0,0,0-1.72.84,2.33,2.33,0,0,0-.43,1.2,2.06,2.06,0,0,0,.27,1.22,2.86,2.86,0,0,0,.57.63l1.61,1.42a6.9,6.9,0,0,1,1.43,1.72,3.61,3.61,0,0,1,.49,2.2,4.3,4.3,0,0,1-1.44,2.86,4.75,4.75,0,0,1-3.47,1.27,5.67,5.67,0,0,1-1.09-.1,6.7,6.7,0,0,1-1.06-.3l-.49-.18a1.76,1.76,0,0,0-.34-.12.73.73,0,0,0-.22,0,.66.66,0,0,0-.49.17,2.7,2.7,0,0,0-.34.55h-.61"/><path id="path34" class="cls-1" d="M113.83,98a1.5,1.5,0,0,1,1.06-.43,1.37,1.37,0,0,1,1.37,1.48,1.55,1.55,0,0,1-.51,1,1.48,1.48,0,0,1-1.06.43,1.32,1.32,0,0,1-1-.43,1.36,1.36,0,0,1-.35-1,1.54,1.54,0,0,1,.5-1h0"/><path id="path36" class="cls-1" d="M116.67,100.53l1-4.5.57,0a8.45,8.45,0,0,0,.06,1.4,2.85,2.85,0,0,0,.58,1.3,2.88,2.88,0,0,0,1,.8,2.91,2.91,0,0,0,1.23.26,2.44,2.44,0,0,0,1.89-.76,2.86,2.86,0,0,0,.78-1.79c.06-.84-.68-1.91-2.21-3.19s-2.25-2.59-2.17-3.73a4.14,4.14,0,0,1,1.25-2.75,4.24,4.24,0,0,1,3.08-1.14,5.82,5.82,0,0,1,1.08.11,3.91,3.91,0,0,1,.64.17l.49.17.34.08.31,0a.94.94,0,0,0,.54-.14,1.51,1.51,0,0,0,.34-.37H128l-1.08,4-.52-.07,0-.66a3.53,3.53,0,0,0-.46-1.59,2.12,2.12,0,0,0-2-1,2,2,0,0,0-1.73.84,2.33,2.33,0,0,0-.43,1.21,2,2,0,0,0,.28,1.21,3.05,3.05,0,0,0,.56.63l1.62,1.42a7.17,7.17,0,0,1,1.43,1.73,3.74,3.74,0,0,1,.49,2.19,4.39,4.39,0,0,1-1.44,2.86,4.8,4.8,0,0,1-3.48,1.28,5.84,5.84,0,0,1-1.09-.11,6.3,6.3,0,0,1-1-.3l-.49-.18a1.78,1.78,0,0,0-.35-.12.69.69,0,0,0-.22,0,.62.62,0,0,0-.48.17,2.19,2.19,0,0,0-.35.56h-.6"/><path id="path38" class="cls-1" d="M126.92,98a1.5,1.5,0,0,1,1.06-.43,1.3,1.3,0,0,1,1,.44,1.35,1.35,0,0,1,.37,1,1.55,1.55,0,0,1-.51,1,1.5,1.5,0,0,1-1.07.43,1.32,1.32,0,0,1-1-.43,1.36,1.36,0,0,1-.35-1,1.54,1.54,0,0,1,.5-1h0"/><path id="path40" class="cls-1" d="M179.52,89.52a7.59,7.59,0,0,1,5.83-3.09,5,5,0,0,1,3.53,1.31,4.63,4.63,0,0,1,1.38,3.53,9.5,9.5,0,0,1-2.44,6.18,7.68,7.68,0,0,1-6,3.13,4.79,4.79,0,0,1-3.47-1.31,4.71,4.71,0,0,1-1.33-3.5,9.56,9.56,0,0,1,2.49-6.25Zm.61,9.15a1.73,1.73,0,0,0,1.73,1.21A3.11,3.11,0,0,0,184,99a9.83,9.83,0,0,0,2-3.36,17.73,17.73,0,0,0,1-3.29,13.71,13.71,0,0,0,.37-2.8,3,3,0,0,0-.49-1.72,1.74,1.74,0,0,0-1.55-.73q-2.47,0-4.17,4.45a16.61,16.61,0,0,0-1.28,5.62,4.12,4.12,0,0,0,.24,1.49h0"/><path id="path42" class="cls-1" d="M151.77,95.39l-.06-4.89-3.62,4.89Zm-8.87,4.49a3.07,3.07,0,0,0,.87-.36,4.52,4.52,0,0,0,1-1.06l9-11.81h.51l.31,11.49a2.85,2.85,0,0,0,.27,1.42,1.86,1.86,0,0,0,1.15.32l-.06.49h-6l.07-.49a3.13,3.13,0,0,0,1.24-.27,1.11,1.11,0,0,0,.48-.88c0-.15,0-.51,0-1.08,0-.12,0-.61,0-1.47h-4.29l-1.45,2a3.16,3.16,0,0,0-.28.45,1.51,1.51,0,0,0-.15.47c0,.27,0,.45.17.53a3.81,3.81,0,0,0,1,.2l-.06.49h-3.91l.07-.49h0"/><path id="path44" class="cls-5" d="M117.52,72l-1-.6s-2.13-.16-4.6-2.66c0,0,6.12-2,7.77-4.16,0,0-1.89-.6-2.24-1.55,0,0,5.89-1.78,6.48-3,0,0-12.38-2.51-14.5-7.15,0,0-6.72-.13-9.08-4.41s-.23-.24-.23-.24a6.49,6.49,0,0,1-7-3.46s-4.71,0-7.07-3.58c0,0-7.77-1.07-10.37-4.53,0,0-9.42-1.43-13.79-6.08s0-.24,0-.24A14.58,14.58,0,0,1,52,25.88s-8.71-.48-13.43-6.56c0,0-11.19-1.55-16.15-8.22,0,0-10.6-1.32-17-6.44S.06,0,.06,0L100.35.1s20.38-1.24,32.81,14.22,26,7.28,32.68,1.74S178.51.22,200.86.24l98.56.08S292.5,8,276.16,11.66A29.79,29.79,0,0,1,259.57,20s-3.27,4.75-14.9,7.12c0,0-3,4.22-10.45,5.14,0,0-2.87,4.62-10.72,4.75s-.26.13-.26.13S219.59,43.05,211,43.7s-.26,0-.26,0-1.83,2.38-7.84,3.56-.39,0-.39,0-1.05,3.3-7.84,4-.53.13-.53.13-.78,2-4.57,2.5h0a28.91,28.91,0,0,1-16.2,7.78s-.56,2.92-6.18,7a10.17,10.17,0,0,1,1.6,4.44V73s.51-1.9-.17,1.13S162,79.82,162,79.82c3.68-6.29-.38-6.9-.38-6.9.91,3.64-6.67,6.52-6.67,6.52,3.6-4.93-.31-6.83-.31-6.83,1.13,4.93-7.21,6.29-7.21,6.29,4.43-5.46-1.28-7.08-1.28-7.08h-5.33c.45,6.75-7.81,8.43-7.81,8.43,4.36-6.22-.08-7.06-.08-7.06,1,4.56-6,6.91-6,6.91,3.45-6.76-1.28-7.52-1.28-7.52,2,5.32-9,8.65-7.43,7.66S121,74.93,121,74.93c1.2-1.59-3.46-2.89-3.46-2.89h0"/><path id="path46" class="cls-4" d="M54.56,2.46a12.42,12.42,0,0,0,6,4.77H25.74S10.5,7.47,6.37,2.46H54.56"/><path id="path48" class="cls-4" d="M72.25,11.77a12.83,12.83,0,0,0,6,4.58H46.65s-15.24.43-19.38-4.58h45"/><path id="path50" class="cls-4" d="M87.37,19.88s1.66,2.31,6,4.1H61.76s-14.88.43-19.37-4.1h45"/><path id="path52" class="cls-4" d="M97.67,26.2a29.62,29.62,0,0,0,6,3.05H75.94s-15,.41-19.37-3.05h41.1"/><path id="path54" class="cls-4" d="M108.78,32s.61.79,5,2.58H87S72,35.5,67.67,32h41.11"/><path id="path56" class="cls-4" d="M117.66,36.94s0,.78,4.42,2.57H97.91s-15,.88-19.37-2.57h39.12"/><path id="path58" class="cls-4" d="M128.43,41.83s-1.84.21,2.53,2H108.3s-13.34.26-19-2h39.12"/><path id="path60" class="cls-4" d="M130.61,45.79s1.79-.74-1.35,2H115.77s-13.35.26-19-2h33.83"/><path id="path62" class="cls-4" d="M127.91,50s1.8-1.12-1.34,1.62h-3.48s-13.35.65-19-1.62h23.81"/><path id="path64" class="cls-4" d="M124.7,53.16s1.8-1.12-1.34,1.62h-3.48s-3.61.65-9.26-1.62H124.7"/><path id="path66" class="cls-4" d="M244.5,2.46a12.48,12.48,0,0,1-6,4.77h34.85s15.24.24,19.37-4.77H244.5"/><path id="path68" class="cls-4" d="M226.8,11.77a12.76,12.76,0,0,1-6,4.58h31.63s15.24.43,19.37-4.58h-45"/><path id="path70" class="cls-4" d="M211.68,19.88s-1.65,2.31-6,4.1h31.63s14.88.43,19.37-4.1h-45"/><path id="path72" class="cls-4" d="M201.38,26.2s1.25.42,1.25,2.77h20.49s15,.69,19.37-2.77H201.38"/><path id="path74" class="cls-4" d="M178.1,47.18s.17-1.17-1.15,1.49l4.93.09s13.35.65,19-1.62l-22.78,0h0"/><path id="path76" class="cls-4" d="M175,53.82s-2.42-1.11.72,1.63h3.47s3.62.64,9.27-1.62H175"/><path id="path78" class="cls-4" d="M151.29,24.75H193.4s6.08-.5,6.74,4.65c0,0,.5,1.16-1.15,1.33s-17.1,0-17.1,0l-1.48,1.83h11.51a1.6,1.6,0,0,1,1.81,1.82L201,31.23h7.23s8.39-.67,7.4,8.8c0,0-1.15-4.15-7.23-4.15H191.59l-1.48,1.83,18.91.16s4.12.33,5.1,3.33h-26s-1.31-1.67-4.76-.34-.33,0-.33,0-8.23,5.32-12.17,4.66-4.94-2.83-2.8-5c0,0-9.38,1-2.3-4,0,0-5.1-1.82,3.78-6.14H160.5s-5.92-.5-8.39-4-.82-1.66-.82-1.66h0"/><path id="path80" class="cls-4" d="M183.81,43.32s-.44-.46-3.24,1.62h8.06s16.12,1.24,19-1.62H183.81"/><path id="path82" class="cls-4" d="M215.67,31.73s-.4-.34,1.35,2.67h7.72A16,16,0,0,0,232,31.73H215.67"/><path id="path84" class="cls-4" d="M175.8,50.08s.17-1.17-1.15,1.49l.66.09s15.46,1.16,19-1.53l-18.5-.05h0"/><path id="path86" class="cls-4" d="M217.91,36.88l-.17,2s3.62-1,3.13-2h-3"/><path id="path88" class="cls-4" d="M65.11,6s-5.27-.72-6.42-3.52h45.89a41,41,0,0,1,25.66,12c11,11.46,13.49,10.13,18.59,10.63l2.3,3.66s-3,.66-7.24-1.33H107.54s-4.77,0-5.92-1.83h38.32a18,18,0,0,1-5.09-3.16H100s-7.24.34-8.39-2.49H130.9a13.38,13.38,0,0,0-6.25-5.65H81.39s-4.11-.16-5.43-2.65H122S116.75,7.14,111,6H65.11"/><path id="path90" class="cls-4" d="M116.59,33.55s-3-.66-4.11-1.82H147s3.78-2.16,6.25-1.33c0,0,2.3,1.49,3.29,1.16,0,0-4.12,4.49-13.66,4a2.88,2.88,0,0,1,1.65-2.16l-28,.16h0"/><path id="path92" class="cls-4" d="M158.53,31.89H164s-.17,3.16-7.9,2.83l2.47-2.83h0"/><path id="path94" class="cls-4" d="M162.15,35.71a10.31,10.31,0,0,1-4.77,1.17s-.82,1.49-3.95,3.32a8.75,8.75,0,0,0,9.7-3.49l-1-1h0"/><path id="path96" class="cls-4" d="M153.92,35.22s-3.78,1.82-6.58,1.49a12,12,0,0,1-3.28,3.82,11.53,11.53,0,0,0,11.51-4.15l-1.65-1.16h0"/><path id="path98" class="cls-4" d="M161.49,40.37a16.63,16.63,0,0,1-3.78,1.32c-1.81.34-.33.17-.33.17a3.77,3.77,0,0,1-2.3,2.49A6.92,6.92,0,0,0,164,42.69s-2.31-1-2.31-1.83-.16-.49-.16-.49h0"/><path id="path100" class="cls-4" d="M152,41.36s-3.62,1.16-4.77,1a3.39,3.39,0,0,1-2.47,2.32c-2.13.67-.32,0-.32,0s6.9,2.66,10.52-2.49l-3-.83h0"/><path id="path102" class="cls-4" d="M153.92,45.35s-1.64,1.33-6.25,2.66c0,0,3.46,5,12.5-.83,0,0-4.6-.17-5.42-1.17s-.83-.66-.83-.66h0"/><path id="path104" class="cls-4" d="M154.75,51.16a7.21,7.21,0,0,1-3.46,2.66c-2,.5-.49.17-.49.17a8.77,8.77,0,0,0,9.37-4c2-3-2.3,1-5.42,1.16h0"/><path id="path106" class="cls-4" d="M151.62,51.33s-4.28.17-4.77-1.83c0,0-3.12,1.66-5.1,1.33s-.33,0-.33,0a5,5,0,0,1-2.3,2.66s5.92,3,10.86-.83,1.64-1.33,1.64-1.33h0"/><path id="path108" class="cls-4" d="M142.41,45.51a9.13,9.13,0,0,0,4.28,1.17s-2.47,3.82-9.54,2.16-.33-.17-.33-.17a9.6,9.6,0,0,0,2.3-2,20.5,20.5,0,0,0,2.63-.83l.66-.34h0"/><path id="path110" class="cls-4" d="M142.41,41.2s.49,1.16,2.47.83c0,0-3,4-10.36,3s-.33-.17-.33-.17,3.62-1.83,4.44-3.16l3.78-.49h0"/><path id="path112" class="cls-4" d="M132.71,46.18s3.12,1.16,3.62.83c0,0-1.48,1.5-5.27,2s-.33,0-.33,0l2-2.82h0"/><path id="path114" class="cls-4" d="M135,49.67s2.63,1.66,4,1.33c0,0-.33,4.15-11.68,2.49s-.33-.17-.33-.17a67.85,67.85,0,0,0,6.91-3.15c1.15-.83,1.15-.5,1.15-.5h0"/><path id="path116" class="cls-4" d="M143.89,36.88s.5,3.15-6.74,3.82-.33,0-.33,0l1.31-2.33H123.66s-2.8-.66-3.29-1.49h23.52"/><path id="path118" class="cls-4" d="M130.4,41.53h4.12s.26,1-1.65,1.66l-2.47-1.66h0"/><path id="path120" class="cls-4" d="M121.19,63.79a64.86,64.86,0,0,0,11.19-6.48s7.89-5.32,10.52-.83-12.33,8-12.33,8l-9.38-.66h0"/><path id="path122" class="cls-4" d="M121.19,65.62s7.41,1.49,10.2.33c0,0-7.07,5.65-15.46,3.65s0-.33,0-.33a23.45,23.45,0,0,0,4.28-2.66c1.8-1.49,1-1,1-1h0"/><path id="path124" class="cls-4" d="M119.55,71.93s5.59-2.66,2.79,1.66l-2.79-1.66h0"/><path id="path126" class="cls-4" d="M126,72.43s6.25-4.32,3.79,1.16c0,0-1.48-1.66-2.47-1s-.33,0-.33,0l-1-.16h0"/><path id="path128" class="cls-4" d="M132.87,72.59s5.43-2.82,3.95,1.33a2.52,2.52,0,0,0-2.63-1l-1.32-.34h0"/><path id="path130" class="cls-4" d="M151,63.62s11-6.14,12.67-8.14c0,0,5.26-5.48,8.55-1.83s-7.56,8.81-9.54,9.47-11.68.5-11.68.5h0"/><path id="path132" class="cls-4" d="M150.31,65s7.07,1.66,12,0c0,0-5.1,7-18.58,4.15,0,0,3.94-1.66,5.42-3.15s1.16-1,1.16-1h0"/><path id="path134" class="cls-4" d="M148.33,71.76s5.59-2.66,2.8,1.66l-2.8-1.66h0"/><path id="path136" class="cls-4" d="M155.24,72.26s6.25-4.32,3.78,1.16c0,0-1.48-1.66-2.46-1s-.33,0-.33,0l-1-.17h0"/><path id="path138" class="cls-4" d="M161.65,72.43s6.75-3.49,3.95,1.32a2.54,2.54,0,0,0-2.63-1l-1.32-.33h0"/><path id="path140" class="cls-4" d="M159.14,23.57A77.06,77.06,0,0,0,174,11.94a32,32,0,0,1,25.33-9.33h40.13s1,1.85-4.93,3.52h-42.6s-2.8-1.5-12,5l43.42.16s-1.81,3-8.38,3.35l-38.49,0-7.08,5.15s33.23-.17,39.63,0a15.27,15.27,0,0,1-8.37,2.69H166.42s-3,1.54-4.71,1.54a5.11,5.11,0,0,1-2.57-.4h0"/></g></g></svg>