<svg xmlns="http://www.w3.org/2000/svg" xmlns:xlink="http://www.w3.org/1999/xlink" viewBox="0 0 240.67 297.92"><defs><style>.cls-1,.cls-10,.cls-2,.cls-8,.cls-9{fill:none;}.cls-2{clip-path:url(#clip-path);}.cls-3{clip-path:url(#clip-path-2);}.cls-4{clip-path:url(#clip-path-3);}.cls-5{fill:#0560a7;}.cls-6{fill:#ffdf1a;}.cls-7{fill:#fff;}.cls-10,.cls-8,.cls-9{stroke:#0560a7;}.cls-8{stroke-width:1.17px;}.cls-9{stroke-width:0.49px;}.cls-10{stroke-width:0.94px;}</style><clipPath id="clip-path"><rect class="cls-1" y="0.04" width="240.64" height="297.88"/></clipPath><clipPath id="clip-path-2" transform="translate(0 0)"><rect class="cls-1" width="240.67" height="297.92"/></clipPath><clipPath id="clip-path-3" transform="translate(0 0)"><rect class="cls-2" y="0.04" width="240.64" height="297.88"/></clipPath></defs><title>Leeds </title><g id="Слой_2" data-name="Слой 2"><g id="Layer_1" data-name="Layer 1"><g class="cls-3"><g class="cls-4"><path class="cls-5" d="M115.89,295.14C66.07,264,36.71,227.08,20,191.45-7,133.84-.84,79.44,5.33,57.82l1.55-2.93c9.1-11.38,30.79-26,53.85-37.12C81.8,7.58,104.46,0,120.33,0s38.53,7.58,59.61,17.77C203,28.92,224.69,43.51,233.79,54.89l1.54,2.93c6.18,21.62,12.38,76-14.65,133.63C204,227.08,174.6,264,124.77,295.14l-4.36,2.78-4.52-2.78" transform="translate(0 0)"/><path class="cls-6" d="M120.33,288C-5.64,209.26,3.88,93.53,13.42,60.12c15.9-19.89,76.32-51.7,106.91-51.7s91,31.81,106.92,51.7C236.79,93.53,246.3,209.26,120.33,288" transform="translate(0 0)"/></g><g class="cls-3"><path class="cls-5" d="M120.36,37.45c24.24,0,70.33,21.08,81.85,36.59,4,6,2.39,29.95,2.39,29.95H120.36V37.45" transform="translate(0 0)"/></g><g class="cls-3"><path class="cls-5" d="M120.36,37.45C96.12,37.45,50,58.53,38.5,74c-4,6-2.39,29.95-2.39,29.95h84.25V37.45" transform="translate(0 0)"/></g><g class="cls-3"><path class="cls-7" d="M102.47,242.36l6.16,5.77c3.73,2.65,7.61,5.26,11.7,7.81,4.16-2.59,8.1-5.24,11.88-7.94l6-5.64V115.94H102.47V242.36" transform="translate(0 0)"/></g><g class="cls-3"><path class="cls-5" d="M154.07,115.92l43.13,47.65a156.88,156.88,0,0,0,5.21-18.69l-26.21-29H154.07" transform="translate(0 0)"/></g><g class="cls-3"><path class="cls-5" d="M193,115.92l11.94,13.2c.49-4.59.76-9,.84-13.2H193" transform="translate(0 0)"/></g><g class="cls-3"><path class="cls-5" d="M150.08,216V232.7q4.28-3.81,8.15-7.69l-8.15-9" transform="translate(0 0)"/></g><g class="cls-3"><path class="cls-5" d="M150.08,173v24.44l16.64,18.39q5.63-6.51,10.27-13.1L150.08,173" transform="translate(0 0)"/></g><g class="cls-3"><path class="cls-5" d="M150.08,130.05V154.5L184,192a161.08,161.08,0,0,0,8.08-15.51l-42-46.39" transform="translate(0 0)"/></g><g class="cls-3"><path class="cls-5" d="M86.64,115.92,43.51,163.57a156.88,156.88,0,0,1-5.21-18.69l26.21-29H86.64" transform="translate(0 0)"/></g><g class="cls-3"><path class="cls-5" d="M47.74,115.92,35.8,129.12c-.5-4.59-.75-9-.84-13.2H47.74" transform="translate(0 0)"/></g><g class="cls-3"><path class="cls-5" d="M90.63,216V232.7q-4.27-3.81-8.15-7.69l8.15-9" transform="translate(0 0)"/></g><g class="cls-3"><path class="cls-5" d="M90.63,173v24.44L74,215.86c-3.75-4.34-7.16-8.71-10.27-13.1L90.63,173" transform="translate(0 0)"/></g><g class="cls-3"><path class="cls-5" d="M90.63,130.05V154.5L56.73,192a159,159,0,0,1-8.09-15.51l42-46.39" transform="translate(0 0)"/></g><g class="cls-3"><path class="cls-5" d="M120.34,40.73a31.19,31.19,0,1,0,31.19,31.19,31.22,31.22,0,0,0-31.19-31.19" transform="translate(0 0)"/></g><g class="cls-3"><path class="cls-7" d="M120.36,71.75h0m22.47-7.35a17.7,17.7,0,0,0-22.52-16.3A17.7,17.7,0,0,0,97.84,64.48a18.53,18.53,0,0,0-2.1,15.28A18.51,18.51,0,0,0,106.48,90.9a17.7,17.7,0,0,0,27.8,0,17.71,17.71,0,0,0,8.55-26.46Z" transform="translate(0 0)"/></g><g class="cls-3"><polyline class="cls-7" points="120.34 52.92 122.63 48.05 120.34 41.3 118.06 48.05 120.34 52.92"/></g><g class="cls-3"><polyline class="cls-7" points="102.44 65.94 98.51 62.26 91.2 62.27 97.1 66.61 102.44 65.94"/></g><g class="cls-3"><polyline class="cls-7" points="109.28 86.98 104.57 89.59 102.22 96.68 108.27 92.27 109.28 86.98"/></g><g class="cls-3"><polyline class="cls-7" points="131.43 86.98 132.44 92.27 138.42 96.61 136.14 89.58 131.43 86.98"/></g><g class="cls-3"><polyline class="cls-7" points="138.26 65.92 143.6 66.59 149.44 62.28 142.18 62.24 138.26 65.92"/></g><g class="cls-3"><path class="cls-5" d="M120.34,52.05s1.07-.33,1.07-2.29a50.76,50.76,0,0,0-1.07-6.84,51.21,51.21,0,0,0-1.06,6.84c0,2,1.06,2.29,1.06,2.29" transform="translate(0 0)"/></g><g class="cls-3"><path class="cls-5" d="M132,87.68s-.67.9.48,2.48a51.07,51.07,0,0,0,4.89,4.91,52.19,52.19,0,0,0-3.16-6.16C133,87.33,132,87.68,132,87.68" transform="translate(0 0)"/></g><g class="cls-3"><path class="cls-5" d="M139.09,65.65s.65.91,2.51.31a51.34,51.34,0,0,0,6.17-3.13,51.48,51.48,0,0,0-6.83,1.1c-1.86.6-1.85,1.72-1.85,1.72" transform="translate(0 0)"/></g><g class="cls-3"><path class="cls-7" d="M130.7,68.38a1.35,1.35,0,0,0,1.53.84c1.78-.35.09-1.36,5.86-3.23,1.85-.6,4-.42,4.91,1.53a4.15,4.15,0,0,1-1,5c-1.43,1.25-2.65,5.44-2.65,5.44h0s-1.47,4.1-1.05,6a4.16,4.16,0,0,1-2.12,4.59c-1.86,1.05-3.72-.07-4.87-1.65-3.56-4.91-1.61-4.73-2.83-6.06a1.33,1.33,0,0,0-1.73-.2,1.35,1.35,0,0,0-.33,1.72c.88,1.57,1.32-.34,4.88,4.57,1.15,1.58,1.64,3.69.07,5.14a4.15,4.15,0,0,1-5,.59c-1.64-1-6-.83-6-.83h0s-4.35-.14-6,.83a4.15,4.15,0,0,1-5-.59c-1.57-1.45-1.08-3.56.07-5.14,3.56-4.91,4-3,4.88-4.57a1.33,1.33,0,0,0-.34-1.71,1.35,1.35,0,0,0-1.73.22c-1.23,1.33.72,1.15-2.84,6.06-1.15,1.58-3,2.69-4.87,1.65a4.17,4.17,0,0,1-2.12-4.59c.42-1.86-1.05-6-1.05-6h0s-1.21-4.18-2.65-5.43a4.15,4.15,0,0,1-1-5c.89-1.94,3-2.13,4.9-1.53,5.77,1.88,4.09,2.88,5.86,3.24A1.35,1.35,0,0,0,110,68.4a1.37,1.37,0,0,0-.75-1.59c-1.64-.75-.87,1-6.64-.83-1.85-.6-3.49-2-3.07-4.11a4.16,4.16,0,0,1,3.71-3.44c1.89-.17,5.34-2.84,5.34-2.84h0s3.6-2.44,4.35-4.19a4.15,4.15,0,0,1,4.41-2.47c2.12.25,3,2.25,3,4.19,0,6.07-1.47,4.78-1.26,6.58a1.34,1.34,0,0,0,1.28,1.18,1.37,1.37,0,0,0,1.28-1.2c.21-1.8-1.27-.51-1.27-6.57,0-2,.85-4,3-4.2a4.17,4.17,0,0,1,4.41,2.47c.75,1.75,4.36,4.2,4.36,4.2h0s3.44,2.67,5.34,2.84a4.14,4.14,0,0,1,3.7,3.43c.43,2.09-1.21,3.51-3.07,4.12-5.76,1.87-5,.07-6.63.82a1.35,1.35,0,0,0-.73,1.59" transform="translate(0 0)"/></g><g class="cls-3"><path class="cls-5" d="M103.9,71.92a16.45,16.45,0,1,1,16.44,16.44A16.45,16.45,0,0,1,103.9,71.92" transform="translate(0 0)"/></g><g class="cls-3"><path class="cls-7" d="M130.7,68.38a1.35,1.35,0,0,0,1.53.84c1.78-.35.09-1.36,5.86-3.23,1.85-.6,4-.42,4.91,1.53a4.15,4.15,0,0,1-1,5c-1.43,1.25-2.65,5.44-2.65,5.44h0s-1.47,4.1-1.05,6a4.16,4.16,0,0,1-2.12,4.59c-1.86,1.05-3.72-.07-4.87-1.65-3.56-4.91-1.61-4.73-2.83-6.06a1.33,1.33,0,0,0-1.73-.2,1.35,1.35,0,0,0-.33,1.72c.88,1.57,1.32-.34,4.88,4.57,1.15,1.58,1.64,3.69.07,5.14a4.15,4.15,0,0,1-5,.59c-1.64-1-6-.83-6-.83h0s-4.35-.14-6,.83a4.15,4.15,0,0,1-5-.59c-1.57-1.45-1.08-3.56.07-5.14,3.56-4.91,4-3,4.88-4.57a1.33,1.33,0,0,0-.34-1.71,1.35,1.35,0,0,0-1.73.22c-1.23,1.33.72,1.15-2.84,6.06-1.15,1.58-3,2.69-4.87,1.65a4.17,4.17,0,0,1-2.12-4.59c.42-1.86-1.05-6-1.05-6h0s-1.21-4.18-2.65-5.43a4.15,4.15,0,0,1-1-5c.89-1.94,3-2.13,4.9-1.53,5.77,1.88,4.09,2.88,5.86,3.24A1.35,1.35,0,0,0,110,68.4a1.37,1.37,0,0,0-.75-1.59c-1.64-.75-.87,1-6.64-.83-1.85-.6-3.49-2-3.07-4.11a4.16,4.16,0,0,1,3.71-3.44c1.89-.17,5.34-2.84,5.34-2.84h0s3.6-2.44,4.35-4.19a4.15,4.15,0,0,1,4.41-2.47c2.12.25,3,2.25,3,4.19,0,6.07-1.47,4.78-1.26,6.58a1.34,1.34,0,0,0,1.28,1.18,1.37,1.37,0,0,0,1.28-1.2c.21-1.8-1.27-.51-1.27-6.57,0-2,.85-4,3-4.2a4.17,4.17,0,0,1,4.41,2.47c.75,1.75,4.36,4.2,4.36,4.2h0s3.44,2.67,5.34,2.84a4.14,4.14,0,0,1,3.7,3.43c.43,2.09-1.21,3.51-3.07,4.12-5.76,1.87-5,.07-6.63.82a1.35,1.35,0,0,0-.73,1.59" transform="translate(0 0)"/></g><g class="cls-3"><path class="cls-8" d="M130.7,68.38a1.35,1.35,0,0,0,1.53.84c1.78-.35.09-1.36,5.86-3.23,1.85-.6,4-.42,4.91,1.53a4.15,4.15,0,0,1-1,5c-1.43,1.25-2.65,5.44-2.65,5.44h0s-1.47,4.1-1.05,6a4.16,4.16,0,0,1-2.12,4.59c-1.86,1.05-3.72-.07-4.87-1.65-3.56-4.91-1.61-4.73-2.83-6.06a1.33,1.33,0,0,0-1.73-.2,1.35,1.35,0,0,0-.33,1.72c.88,1.57,1.32-.34,4.88,4.57,1.15,1.58,1.64,3.69.07,5.14a4.15,4.15,0,0,1-5,.59c-1.64-1-6-.83-6-.83h0s-4.35-.14-6,.83a4.15,4.15,0,0,1-5-.59c-1.57-1.45-1.08-3.56.07-5.14,3.56-4.91,4-3,4.88-4.57a1.33,1.33,0,0,0-.34-1.71,1.35,1.35,0,0,0-1.73.22c-1.23,1.33.72,1.15-2.84,6.06-1.15,1.58-3,2.69-4.87,1.65a4.17,4.17,0,0,1-2.12-4.59c.42-1.86-1.05-6-1.05-6h0s-1.21-4.18-2.65-5.43a4.15,4.15,0,0,1-1-5c.89-1.94,3-2.13,4.9-1.53,5.77,1.88,4.09,2.88,5.86,3.24A1.35,1.35,0,0,0,110,68.4a1.37,1.37,0,0,0-.75-1.59c-1.64-.75-.87,1-6.64-.83-1.85-.6-3.49-2-3.07-4.11a4.16,4.16,0,0,1,3.71-3.44c1.89-.17,5.34-2.84,5.34-2.84h0s3.6-2.44,4.35-4.19a4.15,4.15,0,0,1,4.41-2.47c2.12.25,3,2.25,3,4.19,0,6.07-1.47,4.78-1.26,6.58a1.34,1.34,0,0,0,1.28,1.18,1.37,1.37,0,0,0,1.28-1.2c.21-1.8-1.27-.51-1.27-6.57,0-2,.85-4,3-4.2a4.17,4.17,0,0,1,4.41,2.47c.75,1.75,4.36,4.2,4.36,4.2h0s3.44,2.67,5.34,2.84a4.14,4.14,0,0,1,3.7,3.43c.43,2.09-1.21,3.51-3.07,4.12-5.76,1.87-5,.07-6.63.82A1.35,1.35,0,0,0,130.7,68.38Z" transform="translate(0 0)"/></g><g class="cls-3"><polyline class="cls-6" points="120.36 68.22 123.71 70.52 122.42 74.89 117.93 74.89 116.86 70.52 120.36 68.22"/></g><g class="cls-3"><polygon class="cls-9" points="120.36 68.22 123.71 70.52 122.42 74.89 117.93 74.89 116.86 70.52 120.36 68.22"/></g><g class="cls-3"><line class="cls-9" x1="113.54" y1="69.03" x2="116.87" y2="70.52"/></g><g class="cls-3"><line class="cls-9" x1="120.36" y1="64.33" x2="120.36" y2="68.22"/></g><g class="cls-3"><line class="cls-9" x1="127.17" y1="69.79" x2="123.64" y2="70.8"/></g><g class="cls-3"><line class="cls-9" x1="117.88" y1="74.84" x2="115.87" y2="77.65"/></g><g class="cls-3"><line class="cls-9" x1="122.14" y1="74.89" x2="124.52" y2="77.65"/></g><g class="cls-3"><path class="cls-6" d="M117.49,63.58l2.87.79,3-.83.08-1.09a12.9,12.9,0,0,0-3.14-.65,25.47,25.47,0,0,0-2.82.49l0,1.29" transform="translate(0 0)"/></g><g class="cls-3"><path class="cls-9" d="M117.49,63.58l2.87.79,3-.83.08-1.09a12.9,12.9,0,0,0-3.14-.65,25.47,25.47,0,0,0-2.82.49Z" transform="translate(0 0)"/></g><g class="cls-3"><path class="cls-6" d="M127.31,66.81l-.08,3,1.64,2.61,1.29-.31a12.94,12.94,0,0,0-.21-3c-.28-.67-1.32-2.76-1.32-2.76l-1.32.46" transform="translate(0 0)"/></g><g class="cls-3"><path class="cls-9" d="M127.31,66.81l-.08,3,1.64,2.61,1.29-.31a12.94,12.94,0,0,0-.21-3c-.28-.67-1.32-2.76-1.32-2.76Z" transform="translate(0 0)"/></g><g class="cls-3"><path class="cls-6" d="M127.44,76.61l-2.81,1.15-1.75,2.36.67,1.07a13.71,13.71,0,0,0,2.85-1.46c.53-.57,2-2.11,2-2.11l-1-1" transform="translate(0 0)"/></g><g class="cls-3"><path class="cls-9" d="M127.44,76.61l-2.81,1.15-1.75,2.36.67,1.07a13.71,13.71,0,0,0,2.85-1.46c.53-.57,2-2.11,2-2.11Z" transform="translate(0 0)"/></g><g class="cls-3"><path class="cls-6" d="M117.71,80.06l-2-2.29-2.62-1.29-1,1a15.07,15.07,0,0,0,2.27,2.34c.64.33,2.6,1.24,2.6,1.24l.67-1" transform="translate(0 0)"/></g><g class="cls-3"><path class="cls-9" d="M117.71,80.06l-2-2.29-2.62-1.29-1,1a15.07,15.07,0,0,0,2.27,2.34c.64.33,2.6,1.24,2.6,1.24Z" transform="translate(0 0)"/></g><g class="cls-3"><path class="cls-6" d="M111.62,71.39,113.54,69l.29-3.06-1-.47a17,17,0,0,0-1.67,2.59c-.27.84-.74,2.89-.74,2.89l1.18.41" transform="translate(0 0)"/></g><g class="cls-3"><path class="cls-9" d="M111.62,71.39,113.54,69l.29-3.06-1-.47a17,17,0,0,0-1.67,2.59c-.27.84-.74,2.89-.74,2.89Z" transform="translate(0 0)"/></g><g class="cls-3"><path class="cls-10" d="M110.48,71.76a9.87,9.87,0,1,1,9.88,9.87A9.87,9.87,0,0,1,110.48,71.76Z" transform="translate(0 0)"/></g><g class="cls-3"><polyline class="cls-5" points="106.54 52.63 111.67 50.08 107.73 54.26 102.54 56.73 106.54 52.63"/></g><g class="cls-3"><polyline class="cls-5" points="120.23 95.23 114.58 94.27 120.23 93.2 125.87 94.26 120.23 95.23"/></g><g class="cls-3"><polyline class="cls-5" points="142.65 79.04 140 84.12 140.73 78.42 143.48 73.38 142.65 79.04"/></g><g class="cls-3"><polyline class="cls-5" points="134.19 52.72 138.2 56.81 133.01 54.35 129.06 50.18 134.19 52.72"/></g><g class="cls-3"><polyline class="cls-5" points="97.91 78.9 97.07 73.23 99.83 78.27 100.57 83.97 97.91 78.9"/></g><g class="cls-3"><path class="cls-5" d="M101.62,65.68s0-1.12-1.85-1.73a51.07,51.07,0,0,0-6.84-1.09A50.54,50.54,0,0,0,99.11,66c1.86.61,2.51-.3,2.51-.3" transform="translate(0 0)"/></g><g class="cls-3"><path class="cls-5" d="M108.79,87.7s-1.06-.36-2.21,1.23a50.64,50.64,0,0,0-3.16,6.16,51.07,51.07,0,0,0,4.89-4.91c1.14-1.58.48-2.48.48-2.48" transform="translate(0 0)"/></g><g class="cls-3"><path class="cls-5" d="M134.88,142c0-.33-.46-.16-.62,0s-3.47,3.3-5.72,3.38a18.74,18.74,0,0,1-9.85-2.17,52.35,52.35,0,0,0,5.51-12.18c4-.71,7.26-2.85,8.51-4.47,1.42-1.84,2-4.34.88-5.42-2.13-2.13-7.64-1.88-10.77,4.13-.65,1.26-1.26,2.6-1.83,4a7.72,7.72,0,0,1-3-1.05c-.29-.25-.5-.38-.46,0a2.19,2.19,0,0,1,0,.71s-.21.46.13.58a7.74,7.74,0,0,0,2.88.94c-1.92,4.82-3.39,9.73-4.8,12.21a8.7,8.7,0,0,0-5.38-.3c-1.67.5-4.72,2-4.42,4.59s5.12,2.46,5.54,2.42a8.05,8.05,0,0,0,5.59-3.67c3.26,2.17,6,3.38,8.39,3.34a10.24,10.24,0,0,0,9.39-5.63,4.53,4.53,0,0,0,0-1.34" transform="translate(0 0)"/></g><g class="cls-3"><path class="cls-7" d="M114.81,144.09c-1.75-1.25-4.34-1.42-5.67.46s.75,2.42,1.21,2.42,2.54.41,4.46-2.88" transform="translate(0 0)"/></g><g class="cls-3"><path class="cls-5" d="M129.21,176.44c.33-.11.62,0,.7.18a4.73,4.73,0,0,1,0,4c-.81,1.56-2.63,2.47-5,2.15-1.74-.23-4.23-2.25-4.28-4.58a8.81,8.81,0,0,1-8.75,4.11c-5.89-.82-2.86-7.82-2.06-9,2.36-3.62,6.82-11.52,7.29-12.49s1.38-3.34-.06-4-3.55.5-4.68,2.36c-.34.57-.41.26-.61.12a1.92,1.92,0,0,1-.42-.56c-.1-.2.33-.61.47-.81s2.61-3.31,6.42-2.38c3,.73,3.36,2.41,3.21,3.88s-7.59,13.58-8.59,16.22-.39,4.2,1,4.31,4.89-.31,7.17-5.28,5.9-12.63,6.68-14.22,2-3.78,2.17-4.11.2-.48.87-.39,2.3.3,2.63.3.13.68-.12,1-7.89,15.48-8.89,18.59.87,3.88,1.25,4c.65.18,2.67.31,3-1.25a3,3,0,0,0-.17-1.63.19.19,0,0,1,.11-.24,4.2,4.2,0,0,1,.65-.26" transform="translate(0 0)"/></g><g class="cls-3"><path class="cls-5" d="M135.17,187.88c-.13-.26-.46-.28-.66.08a2.82,2.82,0,0,1-1.88,1.47c-3.4.68-6,.35-9.83.13s-8.74.08-10.16,1.87-.83,3.08-.54,3.59a4,4,0,0,0,2.5,1.75,3.12,3.12,0,0,0,2.55-.24c.41-.3-.3-.63-.55-.8s-1.87-.54-1.9-1.29a1.93,1.93,0,0,1,1.16-1.75,12.21,12.21,0,0,1,5.38-.46,36.44,36.44,0,0,1-2.13,9c-1.3,0-5.42.23-6.34,2.67a2.4,2.4,0,0,0,.33,2.58c.42.34.71.3.71-.12a2.74,2.74,0,0,1,.46-1.71,5.14,5.14,0,0,1,4.25-.75c-.71,2.5-2.83,8.81-5.09,10s-3.68.29-3.87,0a2.46,2.46,0,0,1-.55-1.38c0-.29-.79-1.2-1,.09s1,3.24,2.86,3.72a6.26,6.26,0,0,0,6-1.63c.62-.5,4-3.85,5.7-10.41a11.18,11.18,0,0,0,4.26-.21,4,4,0,0,0,2.66-2.74,3.27,3.27,0,0,0-.1-1.75c-.17-.37-.75-.92-.84-.46a2.31,2.31,0,0,1-.79,1.84c-.24.17-1.46,1.13-4.47.62.59-1.83,2-9.17,2-9.17a28.24,28.24,0,0,0,6.13-.42c1-.29,2.92-1.15,3.54-2.38a2,2,0,0,0,.25-1.76" transform="translate(0 0)"/></g><g class="cls-3"><path class="cls-7" d="M124.91,129.15c.46-1.42,1.46-4.93,2.08-5.68s2.38-2.08,3.8-.75-.32,3.72-.71,4a12.1,12.1,0,0,1-5.17,2.38" transform="translate(0 0)"/></g><g class="cls-3"><path class="cls-5" d="M130.79,223.27c1.51-2.39-.07-5.42-1.54-5.94-.57-.21-4-1.33-8.74,1.66s-9.68,7.8-10.79,15.48,4.22,10.4,4.82,10.56,5.74,2.16,9.29-2.34c2.09-2.64,2.09-3.37,2.26-3.79s-.59-.94-.93-.43-2.31,3.41-3.76,4.18-4.47,1.15-5.75-.68-1.62-4.82-.94-7.63,2.86-9.38,7-12.88,6.65-3.28,7.5-2.68a3.63,3.63,0,0,1,.67,4c-.25.48.59,1.1,1,.5" transform="translate(0 0)"/></g></g></g></g></svg>