<svg xmlns="http://www.w3.org/2000/svg" viewBox="0 0 236.93 300"><defs><style>.cls-1{fill:#fff;}.cls-2{fill:#eb1b23;}.cls-3{fill:#00a352;}</style></defs><title>Legia</title><g id="Слой_2" data-name="Слой 2"><g id="Слой_1-2" data-name="Слой 1"><path class="cls-1" d="M36.88,4.1H198.67l26.12,29.6s-19.55,30.39-12.68,60.52,29.08,71.32,19.82,98.59-22.2,36.2-22.2,36.2L179.6,249.36S134.24,270.24,118.46,294c0,0-20.79-25.11-77.61-54.44s-32.25-93-32.25-93S37.94,80.84,19.7,50.4L11.24,34.76Z"/><path id="path3344" class="cls-2" d="M114.46,295.57c-11-14.16-23.55-23.68-52.59-39.83-17.21-9.56-22.26-12.62-28.76-17.43C20.63,229.08,11.23,218.25,6,207c-2.18-4.65-5-13.9-5-16.5a3.36,3.36,0,0,0-.59-2c-.38-.38-.51-4-.36-10.3.36-16.44,2.32-24.32,14.34-57.74C23,96.61,24.84,83.71,21.91,68.25c-1.62-8.57-6.13-19.62-12.1-29.72-1.22-2.07-2.1-4.08-2-4.46S14,26.22,21.09,17.49,34.19,1.29,34.35.88C34.58.27,49.2.14,118.2.14c82.08,0,83.57,0,84.24,1.08.37.6,6.46,8.17,13.53,16.83s12.86,16.05,12.86,16.42A46.57,46.57,0,0,1,225.48,41C214.55,59.87,211.29,76.75,214.9,95.8c1.57,8.27,3,13,12.24,38.56,5.54,15.43,8.27,26.41,9.54,38.33.53,4.91.15,15.49-.59,16.47a12.3,12.3,0,0,0-.82,3.35c-1.09,7.54-6.11,18.91-11.58,26.24-4.25,5.7-12.73,14-19.25,18.84-7.47,5.55-13,8.94-30.27,18.53-17.1,9.5-22.93,13.07-30.11,18.44a117.39,117.39,0,0,0-23.14,22.51,13.71,13.71,0,0,1-2.63,2.93,30.21,30.21,0,0,1-3.83-4.43Zm64.37-49c2.14-1.22,4.35-2.13,4.64-2.58.39-.62-17.69-30.58-71.54-118.31C72.42,61.28,39.54,7.47,39.35,7s-.76-.16-1.26-.07C36.72,7.17,21.69,25.75,22,26.82c.2.74,134.47,219.32,139.08,226.45l1.38,2.12,6.26-3.33C172.14,250.23,176.7,247.74,178.83,246.53Zm26.92-17.93c10.23-8.17,18.9-20.69,22.19-32,4.73-16.35,2.91-33.69-6.19-58.78-10.66-29.39-13-37.66-14.13-49.36-1.5-15.86,2.41-32.09,11.95-49.71,1.36-2.51,1.8-3.85,1.45-4.47-1.12-2-22-27.16-22.82-27.51-1.2-.5-130.73-.49-132,0-.85.34-.88.56-.22,1.82,2,3.93,136.24,222.2,136.62,222.2A15.86,15.86,0,0,0,205.75,228.6ZM157.36,86.36A37.14,37.14,0,0,1,130.8,59c-1.23-5.55-.87-14.59.79-19.76a37.87,37.87,0,0,1,23.53-23.56c5-1.63,15.17-2,20.15-.79a37,37,0,0,1,25.85,48.89c-4.06,10.8-14.44,20-25.4,22.62-4.53,1.07-14.3,1-18.36,0Zm16.69-4.44A33.5,33.5,0,0,0,194.9,65.69a31.7,31.7,0,0,0-5.71-37.63c-9.81-9.79-24-12.12-36.81-6-5.12,2.43-12.06,9.39-14.51,14.56-5.45,11.48-4.17,23.59,3.57,33.82a33.81,33.81,0,0,0,19,11.81,38.09,38.09,0,0,0,13.62-.29ZM153.45,50.4V28.62h7.8l.15,18,.15,18,10,.27,10.05.28.16,3.49.17,3.49H153.45Z"/><path id="path3342" class="cls-3" d="M114.46,295.57c-11-14.16-23.55-23.68-52.59-39.83-17.21-9.56-22.26-12.62-28.76-17.43C20.63,229.08,11.23,218.25,6,207c-2.18-4.65-5-13.9-5-16.5a3.36,3.36,0,0,0-.59-2c-.38-.38-.51-4-.36-10.3.36-16.44,2.32-24.32,14.34-57.74C23,96.61,24.84,83.71,21.91,68.25c-1.62-8.57-6.13-19.62-12.1-29.72-1.22-2.07-2.1-4.08-2-4.46S14,26.22,21.09,17.49,34.19,1.29,34.35.88C34.58.27,49.2.14,118.2.14c82.08,0,83.57,0,84.24,1.08.37.6,6.46,8.17,13.53,16.83s12.86,16.05,12.86,16.42A46.57,46.57,0,0,1,225.48,41C214.55,59.87,211.29,76.75,214.9,95.8c1.57,8.27,3,13,12.24,38.56,5.54,15.43,8.27,26.41,9.54,38.33.53,4.91.15,15.49-.59,16.47a12.3,12.3,0,0,0-.82,3.35c-1.09,7.54-6.11,18.91-11.58,26.24-4.25,5.7-12.73,14-19.25,18.84-7.47,5.55-13,8.94-30.27,18.53-17.1,9.5-22.93,13.07-30.11,18.44a117.39,117.39,0,0,0-23.14,22.51,13.71,13.71,0,0,1-2.63,2.93,30.21,30.21,0,0,1-3.83-4.43Zm59.37-46.26c3.69-2,7.71-4.36,8.93-5.24s7-4.75,12.85-8.6c15-9.9,22.76-17.9,28.51-29.35,9.15-18.22,8.45-38.49-2.37-68.33-10.66-29.39-13-37.66-14.13-49.36-1.5-15.86,2.41-32.09,11.95-49.71,1.36-2.51,1.8-3.85,1.45-4.47C219.7,31.87,199,7.06,198,6.69S84.36,6.58,51.54,7.05l-14,.2-7.72,9.36c-4.78,5.8-7.86,9.26-7.71,9.82.2.73,134.28,219.67,138.9,226.81l1.36,2.1,2.36-1.19c1.3-.66,5.38-2.84,9.06-4.84ZM157.36,86.36A37.14,37.14,0,0,1,130.8,59c-1.23-5.55-.87-14.59.79-19.76a37.87,37.87,0,0,1,23.53-23.56c5-1.63,15.17-2,20.15-.79a37,37,0,0,1,25.85,48.89c-4.06,10.8-14.44,20-25.4,22.62-4.53,1.07-14.3,1-18.36,0Zm16.69-4.44A33.5,33.5,0,0,0,194.9,65.69a31.7,31.7,0,0,0-5.71-37.63c-9.81-9.79-24-12.12-36.81-6-5.12,2.43-12.06,9.39-14.51,14.56-5.45,11.48-4.17,23.59,3.57,33.82a33.81,33.81,0,0,0,19,11.81,38.09,38.09,0,0,0,13.62-.29ZM153.45,50.4V28.62h7.8l.15,18,.15,18,10,.27,10.05.28.16,3.49.17,3.49H153.45Z"/><path id="path3340" d="M114.46,295.57c-11-14.16-23.55-23.68-52.59-39.83-17.21-9.56-22.26-12.62-28.76-17.43C20.63,229.08,11.23,218.25,6,207c-2.18-4.65-5-13.9-5-16.5a3.36,3.36,0,0,0-.59-2c-.38-.38-.51-4-.36-10.3.36-16.44,2.32-24.32,14.34-57.74C23,96.61,24.84,83.71,21.91,68.25c-1.62-8.57-6.13-19.62-12.1-29.72-1.22-2.07-2.1-4.08-2-4.46S14,26.22,21.09,17.49,34.19,1.29,34.35.88C34.58.27,49.2.14,118.2.14c82.08,0,83.46-.55,84.12.52.38.59,6.58,8.73,13.65,17.39s12.86,16.05,12.86,16.42A46.57,46.57,0,0,1,225.48,41C214.55,59.87,211.29,76.75,214.9,95.8c1.57,8.27,3,13,12.24,38.56,5.54,15.43,8.27,26.41,9.54,38.33.53,4.91.15,15.49-.59,16.47a12.3,12.3,0,0,0-.82,3.35c-1.09,7.54-6.11,18.91-11.58,26.24-4.25,5.7-12.73,14-19.25,18.84-7.47,5.55-13,8.94-30.27,18.53-17.1,9.5-22.93,13.07-30.11,18.44a117.39,117.39,0,0,0-23.14,22.51,13.71,13.71,0,0,1-2.63,2.93,30.21,30.21,0,0,1-3.83-4.43Zm11.59-14.17c10.86-10.65,24.43-20.47,35.78-25.9,7-3.34,18.13-9.42,20.93-11.43,1.23-.87,7-4.75,12.85-8.6,15-9.9,22.76-17.9,28.51-29.35,9.15-18.22,8.45-38.49-2.37-68.33-10.66-29.39-13-37.66-14.13-49.36-1.5-15.86,2.41-32.09,11.95-49.71,1.36-2.51,1.8-3.85,1.45-4.47-1.32-2.38-22.28-27.13-23.26-27.5S84,6.58,51.54,7.05l-14,.2-7.14,8.59c-3.93,4.73-7.55,9.34-8,10.27A41.17,41.17,0,0,1,18.8,31a17.67,17.67,0,0,0-2.72,3.84c0,.32,1.75,4.13,3.89,8.47C27.43,58.5,29.69,67.46,29.69,82c0,14.66-1.74,21.58-13.88,55C9.33,154.81,7,165.52,7,178c-.06,18.65,5.6,32.06,19.21,45.55,8.55,8.46,17.19,14.3,39,26.35,15.73,8.7,24.59,14.13,31.5,19.33a143.71,143.71,0,0,1,18,16.12,26.63,26.63,0,0,0,3.47,3.49c.18,0,3.74-3.34,7.91-7.43Zm31.31-195A37.14,37.14,0,0,1,130.8,59c-1.23-5.55-.87-14.59.79-19.76a37.87,37.87,0,0,1,23.53-23.56c5-1.63,15.17-2,20.15-.79a37,37,0,0,1,25.85,48.89c-4.06,10.8-14.44,20-25.4,22.62-4.53,1.07-14.3,1-18.36,0Zm16.69-4.44A33.5,33.5,0,0,0,194.9,65.69a31.7,31.7,0,0,0-5.71-37.63c-9.81-9.79-24-12.12-36.81-6-5.12,2.43-12.06,9.39-14.51,14.56-5.45,11.48-4.17,23.59,3.57,33.82a33.81,33.81,0,0,0,19,11.81,38.09,38.09,0,0,0,13.62-.29ZM153.45,50.4V28.62h7.8l.15,18,.15,18,10,.27,10.05.28.16,3.49.17,3.49H153.45Z"/></g></g></svg>