<svg xmlns="http://www.w3.org/2000/svg" viewBox="0 0 298.2 298.19"><defs><style>.cls-1{fill:#fff;}.cls-2{fill:#0053a0;}.cls-3{fill:#fdbe11;}</style></defs><title>Leicester</title><g id="Слой_2" data-name="Слой 2"><g id="Layer_1" data-name="Layer 1"><path id="ellipse-big" class="cls-1" d="M288.6,149.1A139.51,139.51,0,1,1,149.1,9.59,139.49,139.49,0,0,1,288.6,149.1Z"/><path class="cls-2" d="M149.1,298.19C66.89,298.19,0,231.31,0,149.1S66.89,0,149.1,0A149.1,149.1,0,0,1,298.2,149.1C298.2,231.31,231.31,298.19,149.1,298.19Zm0-279A130.06,130.06,0,0,0,19.18,149.1C19.18,220.73,77.46,279,149.1,279S279,220.73,279,149.1A129.91,129.91,0,0,0,149.1,19.18Z"/><path id="ellipse-small" class="cls-2" d="M20.1,150.75A129,129,0,1,1,150.72,278.11,129,129,0,0,1,20.1,150.75h0ZM147.44,18.51a130.62,130.62,0,1,0,132.26,129,130.62,130.62,0,0,0-132.26-129Z"/><path id="kinda-ellipse" class="cls-2" d="M144.36,63.37c-15.84,0-34.24,6.24-46.6,16.48,0,0,0,.13,0,.18,7.07,2.8,11.92,6.52,19.48,10.76.27.15.37.08.43-.16,3.65-18.58,26.33-13.42,28.44-27-.09-.09-.07-.26-.27-.27l-1.52,0Zm9.43,0c-.15,0-.21.07-.2.32-1,2.38,1.85,4.87,3.47,6.47a2.72,2.72,0,0,0,.61.41c10.13,4.12,21.33,7.16,23.78,18.8.05.18.09.3.28.14,5.39-3.58,10.74-7.21,16.2-10.65.28-.12.18-.25,0-.36a82.35,82.35,0,0,0-44.14-15.13ZM90.67,85.74c-9.87,8.75-18.34,20.2-22.75,33.06,0,.13,0,.19.2.21,9.66.87,12.82-11.73,20.22-16.41.1-.06.19-.11.18-.23C88,96.63,87.74,91.8,90.67,85.74ZM209.81,88.5a31.66,31.66,0,0,1-1.05,12.79.4.4,0,0,0,.18.5c7.14,3.81,11,15,19.25,15.4.1,0,.26,0,.2-.09C225.53,107.16,217.3,95.38,209.81,88.5ZM231,123.62c-10.12,10.15,6.31,27.16-16,36.65a21.69,21.69,0,0,1-5.63,1.28c-5,0-12-3.76-12,3.76,0,.14.13.23.29.3,6.88,2.95,16.19,9.34,16.34,19.19.34,11.74-12,19.64-10.06,30.8C230.44,192.76,241.3,159,231,123.62ZM65.94,125.3c-.08,0-.14.12-.22.3-10,27.33-.17,69.81,30.51,92.25a8.65,8.65,0,0,1,.69-2.59,1.72,1.72,0,0,0,0-1.1c-1.12-4.94-4.07-9.92-6.88-14.77-9.67-16.07-4.3-27.08,11.32-34.23.2-.06.25-.18.14-.38l-.72-1.6c-.07-.14,0-.43-.36-.38a67.33,67.33,0,0,1-11,.59c-5.36-1.2-10.48-3.33-14.34-9-6.91-9.65,2.55-22.61-8.86-29a.39.39,0,0,0-.27-.07Zm144.63,39.5a3.07,3.07,0,0,1,.79.11c3.46.63,8.7,2.67,11.81,6.52.2.25.11.46-.2.43-5-.15-10.62-.7-14.5-3.76a1.46,1.46,0,0,1-.68-1.91,2.81,2.81,0,0,1,2-1.3,4.67,4.67,0,0,1,.81-.09Zm-123.67,2c.28,0,.56,0,.84,0a1.05,1.05,0,0,1,.62.18c1,1.15.77,2.75-1,4-3.79,2.43-8.19,2.57-12.24,2.74-.15,0-.43-.17-.15-.43C78.63,170,82.71,166.88,86.9,166.84Zm68.58,46.07a.2.2,0,0,0-.16,0c-3.11,1.48-8,2.2-10.74.65a.45.45,0,0,0-.65.15c-4.94,8.36-16.66,8.16-25,6-6.18-1.4-12.24-3.16-17.24,1.79,26,18.77,66.16,19.36,96.28-1.3-5.68-2.68-10.84-.75-17.09.7-7.07,1.64-17,3.13-25-7.89-.13,0-.26-.18-.4-.18Zm-5.2,1.88.24,0a2.88,2.88,0,0,1,2,1.19,1.6,1.6,0,0,1,.32,1.19,35.36,35.36,0,0,1-2.11,11.14c0,.16-.14.19-.2,0-1.51-4.76-4.08-9.57-.83-13.31A.8.8,0,0,1,150.28,214.79Z"/><path id="leicester" class="cls-2" d="M158.61,27.41c.78,1,1.55,2.16,1.28,3.39q-1.5,8.41-3.2,16.79c-.21,1.25-1.11,1.78-2,2.62,6.13,1.11,17.61,3.28,23.76,4.44-.16-2.43,1.7-3.85,2.44-6A9.12,9.12,0,0,1,173.79,50c-2.52-.47-8.78-1.72-11.3-2.24.41-1.95.67-3.94,1.12-5.9,2.46.44,6.41,1.37,8.86,1.66,2.08.5,3.66-2.4,4.79-3.76a9,9,0,0,1-3.11.09c-2.57-.5-7.19-1.48-9.75-2,.22-1.86.62-3.7,1-5.51,4.4,1.16,13.61,1.59,16.87,5.29.11-2-1-4.58.12-5.94-6.08-1.18-17.7-3.17-23.79-4.31Zm-2.93.09c-5.86,0-17.09.65-23,.72,1.25,2.06-.61,3.88-.66,5.94,2-1.8,7-2.34,9.53-2.26,0,5.65.57,11.33.65,17A2.58,2.58,0,0,1,140.77,51c2.55,0,6.58-.34,9-.38C148.56,49.58,148,49.49,148,48c-.42-5.2-.63-11.27-.77-16.45,2.64-.2,7.49.28,9.64,1.59C156.81,30.83,154.61,28.57,155.68,27.5ZM130,29c-3.75.81-12.09,1.4-15.32,3.85-3.86,2.68-4.75,8.63.25,11.23,3.15,1.29,9.13-.11,12.24.14,2.14.09,3,3,1.64,4.5-3,2.71-11.3,2.71-14.91,1.62.88,2.06,1.87,3.85,2.81,5.89,1.22-.77,3.4-1,4.79-1.21,2.95-.43,10-2.32,11.93-4.7a7.12,7.12,0,0,0,.17-9.33c-2.06-2.26-8.46-1.86-11.18-1.68-1.55,0-2.83.55-4.3-.18a2.25,2.25,0,0,1,.22-3.74c2.7-1.43,8.82-1.65,11.63-.5C129.85,33,130.1,31,130,29Zm60.34,5a4.22,4.22,0,0,1,.2,3.61c-2.23,4.79-4.75,9.54-7.1,14.37a5.11,5.11,0,0,1-3.07,2.89c2.08,1.07,5.66,2.86,7.77,3.92-.88-3.22,1.31-6.11,2.56-8.72,1.2.66,4.43,2.17,5.22,3.48a13.24,13.24,0,0,1,1.54,5.49c.11,1.68.24,3-1.49,3.54,2.44,1,6.27,3,8.53,4.13-1.8-3.71-.69-8.76-3.09-12.4,1.57.07,4.19.33,5.85-.69,3-1.77,3.74-4.55,2.72-8.23-.57-1.94-2.47-3-4.09-3.81C202.08,39.74,194.24,36,190.38,34.07Zm-87.9,2.47c-5.37,3-15.71,8.18-21,11.29a4.24,4.24,0,0,1,3,2.09q4,7.15,7.94,14.3a4.43,4.43,0,0,1-.07,3.92c5.52-3.06,15.85-8.43,21.39-11.47-1.73-1-.63-4.26-1.33-6.41-.54,1.88-2.49,3.59-4.07,4.75-2.57,1.72-8.6,4.8-11.28,6.32-1-1.73-2-3.5-2.89-5.27,2.09-1.29,6.92-3.43,9-4.79,1.19-1.5.49-3.67.76-5.43a6.44,6.44,0,0,1-2,1.59c-2.24,1.25-7.16,4-9.43,5.2-.87-1.63-1.9-3.18-2.64-4.88,4.15-1.89,11.6-6.93,16.33-6.66C105,39.36,103.1,38.58,102.48,36.54Zm92.76,4.34c2,1,5.06,2.37,6.93,3.39,4.94,2.57,1.43,7.94-2.15,5.92-2.05-.68-5.63-2.7-7.62-3.52.86-2,2-3.79,2.84-5.79ZM76.6,51.44a6.42,6.42,0,0,1-2.2,2c-3,1.38-8.25,6.16-9.52,9.17-1.78,3.45-1.76,6.62.33,10.65,2.38,4.75,5.75,7,10.92,7,5.13-.32,9.74-4.81,11.85-7.58,1.17-1.34,2.29-2.81,4-3.56-1.43-1.59-2.94-3.1-4.4-4.66a14.3,14.3,0,0,1-2.69,5.13c-1.84,2.09-4.7,5.38-8,5.22s-4.28-1.71-5.73-3.29A7.66,7.66,0,0,1,69,65.23c.25-2.84,5.89-8.09,10-8.25C78,55.21,77.53,53.24,76.6,51.44ZM56.81,70.56c-1.49,1.92-4.13,5.25-5.7,7.09a4.88,4.88,0,0,1,3.9.78q6.41,5,12.78,10a4.68,4.68,0,0,1,1.72,3.46c1.58-1.87,4.1-5.14,5.63-7a4.5,4.5,0,0,1-3.63-.58C67.17,81,62.91,77.63,58.6,74.26A4.25,4.25,0,0,1,56.81,70.56ZM46.67,83.43c-2.7,5.56-8.3,15.89-11,21.45a4.26,4.26,0,0,1,3.92.2c4.82,2.41,9.65,4.75,14.46,7.13a5.9,5.9,0,0,1,2.69,3C59.46,109.57,64.41,99.57,67.5,94a2.81,2.81,0,0,1-1.73-1c-1.27-1.21-1.91-2.58-3.2-3.76a13,13,0,0,1-1,7.1c-1.13,2.43-4.15,8.31-5.29,10.74a57.16,57.16,0,0,1-5.15-2.54c.91-2.17,3.59-7.1,4.53-9.25,0-1.26-1.49-3.39-2.56-4.92a6.32,6.32,0,0,1-.78,2.41c-1.16,2.36-3.78,7.59-5,9.92-1.65-.83-3.81-1.65-5.47-2.46C43.1,97.86,46,92,47.23,89.62a9.81,9.81,0,0,1,4.31-4.31c-1.93-.77-3.21-.54-4.87-1.88Zm3.48,30.91a10.88,10.88,0,0,1,1,4.86c.21,2.83-1.45,8.18-1.88,10.92-5.2-1-10.42-2.27-15.6-3.41-1.43-.27-2-1.42-2.85-2.64-.54,2.34-1.47,6.76-2,9.12,1-.77,1.82-1.37,3.05-1.09q8.31,1.74,16.56,3.63a5.07,5.07,0,0,1,3.21,2.44C52.83,132.81,55,123,56.2,117.64a2.61,2.61,0,0,1-1.66-.18c-1.61-.89-2.76-2.28-4.39-3.12Z"/><path id="football" class="cls-2" d="M50.21,160.25A5.25,5.25,0,0,1,47,162.54c-5.06,1.43-10.47,2.53-16.25,3.92-1.16.42-1.86-.07-3-.92.52,2.35,1.31,6.17,1.86,8.52,2.06-2.89,5.89-2.78,8.93-3.79.72,2.43,1.56,7.53,2.37,9.9,1.27,1.33,3.39,1.51,5,2.09a9.35,9.35,0,0,1-1.37-2.8c-.59-2.57-1.7-7.48-2.29-10,1.94-.43,3.84-1,5.81-1.28,1,4.07,3.48,11.64,1.59,15.51,2-.63,3.61-2.81,5.38-2.35-1.17-5.46-3.81-15.56-4.89-21.07Zm.27,24.86a14.17,14.17,0,0,0-1.95.11c-4.39.94-8.46,3.1-10.33,7.69-2.46,6.39,2.4,16.22,8.92,18.63a12.13,12.13,0,0,0,11.45-1.95,11.11,11.11,0,0,0,4.78-9.73,16.78,16.78,0,0,0-7.06-12.8,10.29,10.29,0,0,0-5.81-1.95Zm-.18,5.58c2.42,0,4.88.61,6.55,3.09,2.07,2.58,2.7,6.2,1.23,8.37a10.81,10.81,0,0,1-9,4.23c-3.85-.14-7.75-5.06-6.61-9.79C43.56,192.74,47.93,190.89,50.3,190.69Zm15.18,18.63a8.66,8.66,0,0,0-2.78.56c-4.38,1.62-7.6,4.44-8.88,9.28-1.8,6.62,5.44,15.32,12.28,16.54A12,12,0,0,0,77,232a11.29,11.29,0,0,0,3.21-10.48c-1.06-4.9-5-9.1-9.53-11.17a13.61,13.61,0,0,0-5.24-1.05Zm2.17,5.36a6.82,6.82,0,0,1,5,2.13C75,219,76.13,221.74,75,224.63a10,10,0,0,1-7.87,6.05c-3.82.53-8.75-4.52-8.23-8.68.62-3.81,3.11-5.37,5.16-6.45a8,8,0,0,1,3.56-.87Zm17,9.88c0,2.18-2.27,1.54-4,4.29,2.65-.27,7.1,2.1,9.18,3.65-3.09,4.68-6.3,9.26-9.42,13.89-.59,1-1.6,1.08-2.67,1.17,2,1.35,5.49,3.71,7.44,5.06a4.84,4.84,0,0,1,.61-4.12c2.76-4.08,5.56-8.16,8.31-12.26.16-.17.29-.55.59-.45,2.26,1.23,5.79,4.3,6.58,6.77,1-1.82.77-4.73,2.51-5.45-4.8-3.3-14.27-9.31-19.09-12.55ZM105,238.12a5.16,5.16,0,0,1,.12,4.08c-1.57,5.25-3.57,10-5.14,15.2a3.23,3.23,0,0,1-2.75,2.4c5,1.58,10.76,3.68,16,5.29,5.46,1.77,10.35.45,10.94-5.27.35-3.29-3.15-4.81-4.52-5.54,3.6.45,6-1.48,6.22-4.86.31-2.41-1.89-5-6.85-6.66-3.57-1.16-10.44-3.64-14-4.64Zm75.46,4.12c-2.31.6-6.18,2.21-8.45,3,1.27.54,2.14.92,2.57,2.19,1.62,4.93,3.58,9.53,5.27,14.44.46,1.55,1,3.3.18,4.82,5.23-1.61,14.31-4.89,19.5-6.61-.29-.43-.74-.78-.72-1.33-.13-1.85.34-3.35.18-5.22-1.2,2.5-3.83,3.77-6.52,4.82-1.51.49-5.77,2.38-7.27,2.53-1.65-5-3.63-10.23-5.3-15.22A3.71,3.71,0,0,1,180.43,242.24Zm-70.52,1.64c1.91.67,7.37,1.92,9.23,2.7,2.6,1.07.91,5.72-1.79,5.12a76.81,76.81,0,0,1-9-2.46C108.84,247.45,109.36,245.65,109.91,243.88Zm25.39,2.7a2,2,0,0,1-.22,1.56l-9.75,16.5a10,10,0,0,1-2.9,3c2.23.35,6.07,1.45,8.3,1.88a4.82,4.82,0,0,1,.51-5c3.44.3,9.88.77,13.3,1.18.69,1.63,1.58,3.58,0,5.07,2.27,0,6.22-.1,8.43.05a10.39,10.39,0,0,1-2.38-3.91c-1-3-4.89-14.39-6.1-17.91a2.72,2.72,0,0,1,.09-1.5l-9.28-.91Zm25.76.12c-2.49.41-6.72.9-9.1,1.2,1.13.79,2,1.28,2.13,2.62.58,5.15,1.62,10.09,2.29,15.24.13,1.61.16,3.68-1,5,5.45-.52,15.48-2.15,20.91-2.78-.2-.48-.56-.93-.42-1.45.25-1.85.93-3.43,1.16-5.3a12.08,12.08,0,0,1-7.24,3.66,74.85,74.85,0,0,1-7.84,1c-.62-5.23-1.52-10.74-2.16-16a3.78,3.78,0,0,1,1.24-3.24Zm-21.77,3.84,4,10.83c-2.48-.15-7.23-.44-9.71-.72l5.74-10.11Zm-31.83,2.14c2.28.88,6.07,2.17,8.09,2.95,4.44,1.55,3.28,7.5-2.11,5.65-2.41-.77-5.63-1.77-7.93-2.64C106.07,256.68,106.91,254.65,107.46,252.68Z"/><path id="city" class="cls-2" d="M226.6,59a11,11,0,0,0-8.29,2.89c-2.75,2.5-4.62,5.4-4.6,9.76.09,3.42,3.84,8.81,8.34,11.65,1.27.94,3.28,2.11,3.47,3.68,1.5-1.53,3-3,4.58-4.47-3.66-1.09-9.85-4.64-10.74-8.73-.56-3.26.23-4.32,1.62-6.1,2.58-3.12,5.2-4.25,9.12-3.16,3.51,1.39,6.65,5.79,6.92,9,1.83-1,3.55-1.72,5.4-2.65a11.18,11.18,0,0,1-3.11-3.32c-2.15-3.14-6.2-7.62-11.12-8.4C227.64,59,227.1,59,226.6,59ZM245.94,75.7c-.07,2.3-1.28,3-2.93,4.23-4,2.74-7.79,5.53-11.79,8.19-1.13.72-2.6,1.65-4.22.87,1.3,2,3.87,5.43,5.18,7.42a4.58,4.58,0,0,1,2.49-3.81c4.32-2.88,8.38-6,12.71-8.85,1.25-.85,2-1.21,3.63-.66-1.29-2-3.77-5.42-5.07-7.39Zm7.67,10.8c-1.19,1.81-3.85.71-5.73,1.44,2.29,1.29,4.82,5.43,5.78,7.87-5.13,2.4-9.37,4.56-14.51,7a4.91,4.91,0,0,1-3.51-.2c1.06,2.15,2.83,5.93,3.89,8.07a7.13,7.13,0,0,1,3.77-3.75c4.59-2.08,8.37-4.1,13-6.07,1.17,2.31,3.14,6.67,2.48,9.28,1.78-1.07,2.64-3.4,4.67-3.18-2.46-5.32-7.37-15.14-9.85-20.45Zm11.14,23c-.48,2.23-2.51,3.51-3.76,5.18-2.51,2.93-5.53,6.24-8.47,9.21-.71.66-2.45.87-3.5,1.1-2.19.32-3.21.58-4.89-.83.53,2.36,1.38,6.57,1.86,8.92a5.79,5.79,0,0,1,3.76-2.71c1.64-.29,3.09-.92,4.26-.41,5.37,2.92,15.44,7.08,16.7,8.39l-1.83-8.81c-.6.86-1.3,1.28-2,1-3.22-1.25-7-3-9.77-4.08,2-2.32,4.33-4.57,6.45-6.77.92-1.12,2.18-1.56,3.3-.47l-2.09-9.73Z"/><path id="club" class="cls-2" d="M252,161.48a6.66,6.66,0,0,0-3.41,1.21c-1.75,1.55-2.4,4-3,6.13-.79,3.65-2.75,11.15-3.47,14.81a3.82,3.82,0,0,1,3.63-.79c5.36,1.16,10.69,2.37,16,3.53a4.88,4.88,0,0,1,3,2.39c.79-5.08,3.94-15.4,3.86-20.58a6.36,6.36,0,0,0-7.81-6.07c-2.14.6-3.34,3.07-3.81,4.8,0-2.58-2-5.51-5-5.43Zm0,6.16a2.69,2.69,0,0,1,2.61,3.28c-.42,1.9-1.17,5.88-1.64,7.76-1.82-.37-3.72-.78-5.51-1.19.51-2,1-4.74,1.52-6.73.51-2.25,1.8-3.12,3-3.12Zm9.82.34a3.1,3.1,0,0,1,2.78,3.7c-.51,2.41-1.44,6.85-1.88,9.21-2-.4-4.05-.88-6.05-1.27.51-2.41,1.29-5.89,1.93-8.3s1.95-3.38,3.22-3.34Zm-20.08,16.7c-1.51,2.71-2.88,5.29-4.46,8a3.65,3.65,0,0,1,3.36-.12c3.5,1.85,6.48,3.59,9.95,5.52a5.54,5.54,0,0,1,2.94,4.12c-.06,2.56-1.82,5.65-4.17,6.69-1.7.8-3.64,0-4.93-.77-3.18-1.91-5.68-3.26-8.86-5.2-1.1-.63-2.07-1.1-2.17-3.13-1.52,2.57-2.89,5.39-4.49,8.05,2.12-1,3.58-.32,5.1.62,2.82,1.62,5.17,3,8,4.62a9.43,9.43,0,0,0,7.2,1.36c2.51-.58,4.65-3,6.19-5.53s3-5.7,2.89-8.61a8.14,8.14,0,0,0-4-6.41c-3.33-2-6-3.4-9.33-5.36-1.29-.78-3.14-1.94-3.18-3.88Zm1.83,31a13.18,13.18,0,0,1-3.29,7.58c-.91,1.22-3.84,4.54-5,5.81-4-3.4-7.65-6.49-11.68-9.87a4.88,4.88,0,0,1-2-3.48c-1.66,1.72-3.91,4.26-5.45,6.1a4.81,4.81,0,0,1,3.7,1.35c4,3.36,7.77,6.81,11.77,10.13a5,5,0,0,1,1.88,3.88c3.63-4.1,10.37-11.84,13.9-16-.48-.21-1.12-.29-1.39-.86A38.19,38.19,0,0,0,243.61,215.66Zm-27.77,6.61c-1.12,1.48-3.38,2.34-5,3-3.51,1.68-8.43,5.68-9.45,10.36a12,12,0,0,0,2.3,10.24,10.79,10.79,0,0,0,8.84,4.82c4.3,0,8.88-2.8,12.28-6.25,1.12-1.12,2.49-2.66,4.12-2.78-1.36-1.62-2.5-3.45-4-5-1,3-5.59,7.82-8.72,8.68-2.76.62-4.61-.13-6.63-1.87-2.25-2.32-3.65-5.19-2.72-8.54,1.39-4.31,7.12-7.48,10.72-6.85-.65-1.93-1.15-4-1.75-5.85Z"/><path id="leaf-top" class="cls-2" d="M149.74,64.13a36.23,36.23,0,0,0-1.07,4.58,1.8,1.8,0,0,1-.44.8c-10.2,10.26-22.8,7.28-27.5,22.33-.53,1.27.15,2.62,2.42,3.87.23.14.43.08.43-.16C123,79.21,145.09,80.31,149.92,69c.05-.11.22-.08.27,0,4.06,7.57,10.76,8.57,16.89,12.11,4.59,2.65,7.9,5,8.84,12.57,0,.36.13.29.31.11.7-.77,2.38-1.16,2.33-2.31-1.48-11.1-13.7-13.49-23.51-18.06l-1.23-.94a16.65,16.65,0,0,1-4.08-8.32ZM149.56,78a.7.7,0,0,0-.29.08.66.66,0,0,0-.27.28,1.69,1.69,0,0,0,0,.64c0,.15.17.23.25.32a2.28,2.28,0,0,0,.51.47.45.45,0,0,0,.65-.25,2.41,2.41,0,0,0,0-1.07c0-.12-.11-.19-.18-.3a.5.5,0,0,0-.38-.17,1.4,1.4,0,0,0-.29,0Zm3.34,3.09a.18.18,0,0,0-.09,0,.35.35,0,0,0-.12.23c0,.44-.2,1.09.21,1.33a.51.51,0,0,0,.61-.06c.07-.12.23-.17.22-.4s-.15-.14-.2-.26,0-.5-.1-.63-.11-.19-.22-.21a.67.67,0,0,0-.31,0Zm-6.14.07a1.05,1.05,0,0,0-.72.69.43.43,0,0,0,0,.54,1.78,1.78,0,0,0,.62.63c.23.11.53.11.64-.39s.12-1-.07-1.14-.18-.41-.47-.33Zm3.25,5.4c-1.31,3.93-1.65,5.91-2.58,9l3.87,0A34.84,34.84,0,0,1,150,86.57Z"/><path id="leaf-left" class="cls-2" d="M89.75,106a.35.35,0,0,0-.2.09C80.46,112.48,78,123.85,66.31,122c8.29,3.88,8.09,13.41,8.94,22.26.71,7.45,6.41,17.48,21.77,15.39.17,0,.29-.15.18-.31-1-1.4-4.28-.94-5.09-1.08C80,156,77.89,144.77,75.36,132.12c-.58-3.66-3-6-4.41-8.72-.11-.28-.2-.37.15-.43,7.75-1.48,13.59-8.2,19.8-15.35a.23.23,0,0,0,0-.39,11.37,11.37,0,0,1-1-1.16c-.06-.06-.09-.09-.16-.09Zm-1.16,14.71a.89.89,0,0,0-.32.08.81.81,0,0,0-.27.28,1.69,1.69,0,0,0,0,.64c0,.15.2.23.27.32a2.57,2.57,0,0,0,.52.47.43.43,0,0,0,.63-.25,2.75,2.75,0,0,0,0-1.07,1,1,0,0,0-.18-.3.5.5,0,0,0-.38-.17Zm3.5,3.18a.22.22,0,0,0-.11,0,.26.26,0,0,0-.12.22c0,.44-.25,1.08.16,1.32a.48.48,0,0,0,.6,0c.09-.13.25-.16.25-.38s-.13-.15-.17-.27,0-.51-.1-.63-.11-.21-.22-.22a.61.61,0,0,0-.29,0Zm-6.19.47a1.12,1.12,0,0,0-.72.72c-.13.22-.12.38,0,.51a1.71,1.71,0,0,0,.65.63c.23.11.53.14.63-.36s.1-1-.09-1.16S86.2,124.27,85.9,124.34Zm3.59,5.34a40.65,40.65,0,0,1-3.35,11.48,2.55,2.55,0,0,1,3.08,2.05c.41-1.44,1.52-2.56,2.84-2.17C91.2,137.44,90.13,133.57,89.49,129.68Z"/><path id="leaf-bottom-left" class="cls-2" d="M102.46,168.32l-.22.07c-14.07,5.44-16.89,18.08-9,29.2,5.92,9.94,8.53,14,5.72,22,11-13.1,30.49,8.09,41.68-8.25.15-.2-.09-.34-.32-.56a8.62,8.62,0,0,0-1.68-.86.65.65,0,0,0-.89.3c-4.58,4.82-19.42,3.75-30.65,3.78a5.41,5.41,0,0,0-1.7.37,6.26,6.26,0,0,1-3.32.93.65.65,0,0,1-.69-.8c.55-8.16-4.3-13.35-7.38-20.08-1-2.3-8.09-15.18,9.06-23,.07-.15.24-.24.22-.46a11.59,11.59,0,0,0-.45-2.41.28.28,0,0,0-.36-.24Zm12.74,15.56a.84.84,0,0,0-.32.08.64.64,0,0,0-.26.28,1.4,1.4,0,0,0,0,.65c0,.14.18.21.26.31a2.91,2.91,0,0,0,.52.47.46.46,0,0,0,.65-.25,2.62,2.62,0,0,0,0-1.08c0-.11-.14-.17-.2-.28a.45.45,0,0,0-.36-.18.94.94,0,0,0-.29,0Zm3.54,3a.31.31,0,0,0-.12.05.33.33,0,0,0-.11.22c0,.44-.24,1.08.16,1.33a.47.47,0,0,0,.58,0c.08-.13.27-.15.27-.39s-.15-.13-.2-.26,0-.5-.07-.63-.11-.21-.22-.22A.59.59,0,0,0,118.74,186.88Zm-6.32.38a1.1,1.1,0,0,0-.72.72.4.4,0,0,0,0,.52,1.63,1.63,0,0,0,.63.62c.22.12.53.14.62-.36s.13-1-.07-1.16-.17-.41-.46-.34Zm3.23,5.11a40.89,40.89,0,0,1-3.34,11.48,2.54,2.54,0,0,1,3.07,2c.41-1.45,1.52-2.54,2.84-2.15C117.35,200.14,116.28,196.27,115.65,192.37Z"/><path id="leaf-bottom-right" class="cls-2" d="M195.6,168.3a.25.25,0,0,0-.18.15c-.31.67-.62,1.3-.94,2s-.29,1.38.83,1.74c20.17,8.24,10.24,23.84,5,33a18.06,18.06,0,0,0-1.95,4.93,28.12,28.12,0,0,0,0,3.79c0,.31-.44.4-.69.35-12.91-2.48-24.08,8.93-34.66-3.38-1-1.05-2.14-1.15-2.57-.82a4.56,4.56,0,0,0-1.14,1.25.53.53,0,0,0,0,.8c11,15.43,27.26-2.79,41.22,4.89-3.27-7.85,3.17-15.46,6.82-22.3,8.09-13.76-1.38-22.22-11.66-26.36,0,0,0,0-.07,0Zm-10.69,15.28a.89.89,0,0,0-.29.09.7.7,0,0,0-.27.27,1.91,1.91,0,0,0,0,.68c0,.14.17.2.24.29a2.91,2.91,0,0,0,.52.47.45.45,0,0,0,.65-.25,2.41,2.41,0,0,0,0-1.07c0-.13-.11-.19-.18-.3a.55.55,0,0,0-.38-.18A2.79,2.79,0,0,0,184.91,183.58Zm3.39,3.1a.28.28,0,0,0-.12,0,.32.32,0,0,0-.11.23c0,.44-.25,1.08.15,1.32a.51.51,0,0,0,.61-.05c.08-.12.25-.15.25-.38s-.13-.14-.18-.27,0-.49-.09-.62-.09-.21-.21-.23a.8.8,0,0,0-.3,0Zm-6.26.47a1.06,1.06,0,0,0-.69.72c-.13.22-.13.37,0,.51a1.61,1.61,0,0,0,.62.62c.23.12.53.14.63-.35s.1-1-.09-1.17-.17-.4-.47-.33Zm3.43,5.11a40.56,40.56,0,0,1-3.34,11.48,2.54,2.54,0,0,1,3.07,2.06c.41-1.45,1.52-2.56,2.84-2.17-.86-3.61-1.93-7.47-2.57-11.37Z"/><path id="leaf-right" class="cls-2" d="M207.84,105.78a.23.23,0,0,0-.11.09,5.77,5.77,0,0,0-.32,1.81c0,.14,0,.25.14.34,2.89,1.76,11.55,11.58,19.09,13.29.33.07.38.35.21.52-9,10.55,1.73,27-16,33.29-3.28.9-6.59.48-7.2,2.66,0,.08.09.18.16.18,10.63.68,17.27-2.91,19.26-10.51,2.56-8.46-2.26-20.49,6.81-27,.23-.18.11-.48-.09-.46-9.18.94-15-8.8-21.86-14.14a.19.19,0,0,0-.13,0Zm2.92,14.16a1.12,1.12,0,0,0-.32.12.64.64,0,0,0-.27.27,2,2,0,0,0,0,.65c0,.14.17.22.25.31a2.2,2.2,0,0,0,.51.45.44.44,0,0,0,.65-.23,2.41,2.41,0,0,0,0-1.07,1.1,1.1,0,0,0-.17-.32.6.6,0,0,0-.39-.18Zm3.11,3.46-.11,0a.3.3,0,0,0-.09.23c0,.44-.25,1.08.16,1.32a.45.45,0,0,0,.58,0c.08-.13.25-.15.25-.38s-.14-.13-.18-.26,0-.51-.09-.63-.1-.21-.21-.23a.8.8,0,0,0-.31,0Zm-6.41,0a1.08,1.08,0,0,0-.69.72.4.4,0,0,0,0,.52,1.61,1.61,0,0,0,.62.62c.23.12.53.14.63-.36s.1-1-.09-1.14S207.76,123.37,207.46,123.44Zm3.45,5.07A40.65,40.65,0,0,1,207.57,140a2.53,2.53,0,0,1,3.07,2.06c.42-1.45,1.53-2.57,2.85-2.18C212.62,136.28,211.55,132.4,210.91,128.51Z"/><path id="fox-outline" class="cls-2" d="M201.74,81.21l-.11,0c-8.15,2.3-19.15,11.7-28.22,19.94a.84.84,0,0,1-.92.27c-6-2-13-2.24-18.87-2.4a71.32,71.32,0,0,0-27.31,3.16c-.38.14-.67-.21-1-.56-7.09-7.89-17.08-14.35-27.87-18.85-.3-.14-.55-.27-.89,0-5.54,5.1-4.32,20.22.43,28.42a12.14,12.14,0,0,1,.7,4,60.42,60.42,0,0,0,2.35,12.33,16.79,16.79,0,0,0,2.73,7.35.64.64,0,0,1,0,.9c-1.88,1.88-3.6,3.66-5.47,5.54a1.33,1.33,0,0,1-.65.26c-1.56.18-2,.69-2.78,2.49a.61.61,0,0,0,0,.65,35.06,35.06,0,0,0,3.56,5.29c1.44,1.43.91,2.79-.31,4.08,2.3,1.72,6.42,5,6.66,5.52.26,1.32,2.6,1.77,1.21,3.67a2,2,0,0,1,.87.45,1,1,0,0,1,.27.68,13.52,13.52,0,0,0,1.73,5.91c4.66,7.91,9.88,6.69,16.09,13.43,3.72,4,7.38,4.2,9.91,11.32-.23,2.71-.38,4.36.74,6.7,1.32,2.86,4.57,3,8.74,4.86a3.12,3.12,0,0,1,1.28.81,13,13,0,0,0,3.76,2.42,4.35,4.35,0,0,0,3.57,0c2-1.15,2.43-.32,6.14-3,3.5-1,9.22-5.34,8.61-12.68a2.25,2.25,0,0,1,.13-.54,3.23,3.23,0,0,1,.72-1c1.41-1.69,3-3.18,4-5.23a3.12,3.12,0,0,1,.82-1.35c14-11.4,9-6.39,14.08-10.26,10.36-7.88,3.56-17.07,15.69-22.21-1.64-3.48-1.08-3.8,4.26-11.21a57.6,57.6,0,0,1-6.75-4.58c-6.15-4.82-.57-8.91-.06-11.27a26.9,26.9,0,0,0,1-4.75c.65-4,.28-8.61,2.3-10.67,1.49-1.44,1.92-9.29,2.15-9.93,1.63-5.13,1-5.82,1.33-9a2.13,2.13,0,0,0,0-1.25,68.51,68.51,0,0,0-4.13-9.15c-.14-.26-.25-.51-.45-.56Zm-4.83,12.06c-.66,6.44-3,10.7-2.27,16.09-2.73,3.36-1.82,9.62-4.33,13.37a.73.73,0,0,1-.65.31c-3.34-.55-5.68-4.75-8.51-7.13-.29-.23-.44-.44-.34-.67,1.15-2.57,3.81-5.15,1.75-7.76.1-7.48,9-8.68,14.35-14.21Zm-96.1,1.24c5.24,2.93,8.58,7.86,11.16,7.93a12.12,12.12,0,0,0,1.45,1.77c3.86,4.39.8,6,4.19,11.66.37.79.53,1.55,0,2a62.75,62.75,0,0,0-6.16,6.15c-2.49,3-3.7,1.9-4.44,0a6.78,6.78,0,0,1-.31-4.65,2.2,2.2,0,0,0-.52-2.48,37,37,0,0,1-2.35-4,4.94,4.94,0,0,1-.51-1.56c-.9-5.55-.73-13.85-2.51-16.9Zm65.11,55a.69.69,0,0,1,.77.6.73.73,0,0,1-.63.79.7.7,0,1,1-.14-1.39Zm-35.8.06a.68.68,0,0,1,.76.61.69.69,0,0,1-.62.76.67.67,0,0,1-.76-.6.7.7,0,0,1,.62-.77Zm57.68,15.58c.57,0,.74.54.68,1.08-.61,7.6-4.15,5.51-12.25,12.71-2.12,1.69-1.42,3.33-4.28,5.74a47.33,47.33,0,0,0-6.66,7.47c-.33.49-.57,0-.6-.26a3.83,3.83,0,0,0-1-1.83c-1.34-1.51.79-1.32-1.61-4.93-1-1.46-2.16.42-2.85-2-.43-1.53,0-.78-.56-4.33l1.41-1.17a17.11,17.11,0,0,0,2.62,4.8c.15.18-.13,1.78.49,3.19.13-2.22,2.12-3.5-.71-7.49a4.34,4.34,0,0,1-.7-1.64,1,1,0,0,1,0-.18,106.76,106.76,0,0,1,17-8.68l-.85,1c-.13.16.12.22.2.19a1.29,1.29,0,0,1,.78,0c.18.1.16.29.16.46,0,.66-.49.7-.33,1.43.93-1.19,1.82-2.35,2.77-3.45a1.12,1.12,0,0,1,1-.55l1,.13a3.26,3.26,0,0,0,1.08-.16,12.14,12.14,0,0,0,2.46-1.39,1.64,1.64,0,0,1,.72-.18Zm-76.17,1.21a.6.6,0,0,1,.14.05c2.69,1.35,6.35,2.19,8.22,3a14.51,14.51,0,0,0,2.8,1.26c.32,0,.32-.15.16-.34s-.4-.62-.6-.9A102,102,0,0,1,135.77,177s0,.07,0,.11q-.19.57-.39,1c-.07.18-.15.38-.22.54s-.12.28-.18.4-.21.48-.31.68-.27.54-.38.76l-.11.24c-.07.16-.15.32-.2.47s-.06.21-.1.32,0,.1,0,.16,0,.28-.05.44v.45c0,.17,0,.33.05.52.06.45.19.62.34.69s.11,0,.16,0,.31.05.38-.12a3.76,3.76,0,0,1,.2-.46,4.81,4.81,0,0,1,.22-.46c.17-.3.36-.6.56-.89a1.43,1.43,0,0,1,.14-.2c.36-.52.76-1,1.14-1.52a.48.48,0,0,1,.09-.14c.15-.22.29-.45.42-.68l.16-.24a6.19,6.19,0,0,0,.36-.67l2.89,2.15a20.64,20.64,0,0,0-1.28,3.9c-.33,2.55-1.9,2-3.07,1,.07,2.62.28,3.75-1.19,6.05-.19.33-.37.21-.49,0-3.54-6.82-7-5.2-11.43-12.46a4.31,4.31,0,0,0-2.63-2.61c-5.51-2.17-9.45-3.66-9.32-10,0-.12.06-.23.18-.23Zm48.64,22.78a.64.64,0,0,1,.52.45c1.11,2.51,2.49,6.93,2,8.36-1.64,6.27-6.05,7.31-10.16,6.77-3.07-.4-3.09-1.13-3.14-3.18,0-.23.32-.31.57-.39,3.72-1.16,6-3.19,6.05-7.05a2.9,2.9,0,0,0-.18-1.55,21.39,21.39,0,0,0,2.94-2.22l.08-.09a2.84,2.84,0,0,1,1.06-1.06.45.45,0,0,1,.22,0Zm-20.67.47c.13,0,.24,0,.37.18s.22.42.51.42a9.21,9.21,0,0,0,1.86,1.66,1.53,1.53,0,0,0-.4.68,5.63,5.63,0,0,0,0,2.53,3.91,3.91,0,0,0,.53,1.5,12.43,12.43,0,0,0,3.81,4.06,3.45,3.45,0,0,0,2.13.63c.23,0,.36.12.32.31-.24,3.07-1.64,3.28-5.18,2.85-7.83-1.57-8.52-6.67-4.28-14.37A.65.65,0,0,1,139.6,189.57Zm10.16,16.65a24,24,0,0,1,3.36.16.19.19,0,0,1,.14.29,3.66,3.66,0,0,1-.88,1.17,1.75,1.75,0,0,1-.58.22,9.69,9.69,0,0,1-2.4.29,1.85,1.85,0,0,1-.61-.24c-.73-.42-1.42-.9-2.15-1.34-.15-.12-.16-.31,0-.34,1-.09,2-.18,3.1-.21Z"/><path id="fox-background" class="cls-3" d="M200.87,86.9a.31.31,0,0,0-.13,0c-8.91,3.23-20,9.67-25.69,18.22a87.86,87.86,0,0,1-7.15,5.29c5.11-6.8-5.1-7.25-17.4-8.59-8.46-.72-18.55,1.92-21.83,3.73a.54.54,0,0,0-.25.81,17.66,17.66,0,0,1,1.74,4.28c.08.16-.07.17-.19.06-10.71-9.58-26.7-22.51-32-23.78a.54.54,0,0,0-.61.27A17.08,17.08,0,0,0,96.57,89a3.13,3.13,0,0,1-.78,1.32c-3.05,3,2.29,8.61,3.09,18.86.53,4.34,1.58,6.28,2.57,9.26a6.08,6.08,0,0,1,.32,1.14c1.38,4.78,2.28,9.65,4.12,14.08,2.19,7.11-6.39,5.94-6.74,11.83-.2,4,4.5,6.2,3.69,9.13,0,.18-.39.38-.2.62,3.62,3.75,5,2.88,6.48,6,3.39,6,7.08-.56,13.23,8.11A102,102,0,0,1,135.77,177a26.69,26.69,0,0,0,.9-3.9,17.7,17.7,0,0,0-1.61-11,2,2,0,0,1,.51-2.3c.34-.25.48-.35.52.17.57,6,5.49,10.05,2.46,15.72a1.06,1.06,0,0,0-.2.72,4.3,4.3,0,0,1-.38,2.11l2.89,2.15c.19-.47.37-.86.48-1.14,1.28-6.67,2.3-17.43,3.26-18.77.09-.12.2-.33,0-.47-1.12-1.16-2.38-3.09-1.81-3.67s4.21,1,4.19,3.59c-.15,2.33-2.42,23.91-5.27,27a.27.27,0,0,0,0,.38c1.24,1.75,1,2.18.54,2.4s-1.22.09-1.59.22a.58.58,0,0,1-.18,0,9.21,9.21,0,0,0,1.86,1.66,3.73,3.73,0,0,1,2.09-.82c4-.7,7.83-.58,10.76.8a1.81,1.81,0,0,1,.78.7,21.39,21.39,0,0,0,2.94-2.22.66.66,0,0,1-.94-.45c-1.61-8.75-3.32-10.1-4.33-16.7a18.42,18.42,0,0,1-.19-6.73,4.43,4.43,0,0,0,0-2.08,13.82,13.82,0,0,1-.06-6.55,18.5,18.5,0,0,1,1.77-2.49,7.42,7.42,0,0,0,1.12-2.23c.28-.86,3.06-5,5.43-5.66.2-.05.22-.17.25-.36s-.37-.21-.34-.53c.09-1.65,10.46-.76,15.92-.25,2.08-.18,4.15-.51,6.11-.87.35-.07.37.05.16.27a10.11,10.11,0,0,1-6.09,3.05.65.65,0,0,0-.59.58c-1.22,6.09-10,9-13.85,8.31-.25,0-.26.13-.25.25.28,3.12-1.06,3.44-2.22,12.56a4.84,4.84,0,0,0,0,1.47c.18,1.48.61,2.89.94,4.44a106.76,106.76,0,0,1,17-8.68c1.15-1.29,2.28-2.46,3.47-3.78a3.34,3.34,0,0,1,1.58-.92,36.66,36.66,0,0,0,12.51-8.56c.1-.13.3-.33.24-.56-1.05-4.9,2.18-6.35,4.21-10,.31-.47,0-.59-.36-.76a26.78,26.78,0,0,1-5.82-5.18,5.15,5.15,0,0,1-.66-1.84c-1.61-7.6,1.73-8.16,2.34-12.55a24,24,0,0,1,1.23-7c.81-2.64,1.17-4.8,2.11-6.27.46-13.24,4.57-10.26,3.45-17.31a27.09,27.09,0,0,0-1.93-5.74.35.35,0,0,0-.31-.25Zm-2.53,2.59a.54.54,0,0,1,.22,0,.94.94,0,0,1,.9.82,20.84,20.84,0,0,0,.44,2.45c-3.06,7.31-1.28,17.36-5.29,23.51-.2,5.39-.87,8.83-4.07,11a.36.36,0,0,1-.43,0c-5.11-2.49-9.68-7.7-14.14-11.79,6.94-4.52.65-9.27,5.6-14.45,5.76-6.09,10.83-6.69,16.1-11.22A1.22,1.22,0,0,1,198.34,89.49Zm-99.53.38a2.91,2.91,0,0,1,1.88.84c5.13,2.25,4.67,4.3,8.67,6.31a17.23,17.23,0,0,0,3.44,1.5c.52,1.79,1.36,1.74,3.25,5,.45.79,2.11,2.08,2.26,3.16a7.67,7.67,0,0,1,0,1.91c0,1.83-.81,3.57.2,4.39.82.42.28.84,1.77,1.59.75.37,1.14.74.74,1.53-1.19,2.09-2.65,3.81-4,5.72a4.65,4.65,0,0,1-1.37,1.09c-2.89,1.74-5.29,4.18-7.89,6.48-.16.12-.24,0-.36,0-2.49-1.42-3.15-3.88-3.48-7.25-.86-9-2.66-1.21-5.69-27.95-.4-1.21-.85-3.36-.47-3.85a1.27,1.27,0,0,1,1-.38Zm58.57,17.41c-2.3,4.27-3.47,3.87-4.86,5.54l-.32.4c-.1.15-.21.3-.31.47a2.53,2.53,0,0,0-.23.47s0,0,0,0a2.45,2.45,0,0,0-.06.43c.06,1.4-.17,2,.2,2.42a.25.25,0,0,1,0,.11.79.79,0,0,1,0,.13.44.44,0,0,1-.05.26,10,10,0,0,1-1-.78,2.59,2.59,0,0,1-.59-.66v0a.42.42,0,0,1,0-.18,2.33,2.33,0,0,0,0-.32c0-.32-.12-.27-.2-.62a5.8,5.8,0,0,1-.09-.94c0-.24,0-.54,0-.9a.65.65,0,0,1,0-.45.51.51,0,0,1,.09-.13,1.34,1.34,0,0,1,.11-.14c2.08-2.14,4.84-3.55,7.26-5.11Zm-16.58.52c2.18,1.48,4.62,3.46,7,5.44l.14.18a1,1,0,0,1,.18.76,15,15,0,0,1-.92,2.69.26.26,0,0,1-.07.1s0,0-.09.06a.2.2,0,0,1-.2,0c-.43-.55-.9-1.1-1.28-1.66a1,1,0,0,1-.27-.58,4.79,4.79,0,0,0,0-.52,2.82,2.82,0,0,0,0-.42,1.51,1.51,0,0,0-.22-.65,0,0,0,0,1,0,0,2,2,0,0,0-1.26-.75,5,5,0,0,1-1.35-.64h0a3.65,3.65,0,0,1-1.23-1.59s0,0,0,0a6.18,6.18,0,0,1-.4-2.35Zm28.85,21a6.66,6.66,0,0,1,1.81.18,7.32,7.32,0,0,1,1.72.62c.16.1.2.3,0,.36a23.87,23.87,0,0,0-2.63.88c-.44.17-.87.36-1.32.56-2.22,1-4.49,2.21-6.74,3.34-.24.1-.4.07-.5-.07a1,1,0,0,1-.09-.18,2.48,2.48,0,0,1,0-.72c0-.23.06-.46.07-.72s.23-.36.36-.53c.42-.17.78-.31,1.07-.45a5.4,5.4,0,0,0,1.54-1c.21-.18.4-.34.66-.54a6.48,6.48,0,0,1,1.19-.69c.34-.16.69-.3,1-.46l1-.4a2,2,0,0,1,.81-.22Zm-43.74.47h.14l.36.15a1.66,1.66,0,0,1,.24.18,3.36,3.36,0,0,0,1.06.82c.16.07.37.17.62.26s.55.17.9.27c.84.28,1.45.43,2,.65,0,0,0,0,0,0a7.87,7.87,0,0,1,1.76,1c.24.16.48.34.75.56s.57.46.9.74c.13.1.26.18.29.38a.49.49,0,0,1,0,.2v0c0,.07-.05.13-.08.21a1.5,1.5,0,0,1-.32.38l-.11.06h-.16a3.57,3.57,0,0,1-.56-.13,3.29,3.29,0,0,1-.42-.2,2,2,0,0,1-.36-.23,3.85,3.85,0,0,1-.3-.27,6.83,6.83,0,0,0-.67-.58,2.47,2.47,0,0,0-.43-.29,4.68,4.68,0,0,0-.55-.29.77.77,0,0,0-.56-.07.56.56,0,0,0-.18.07,1.14,1.14,0,0,1-.68-.07,3.51,3.51,0,0,1-.55-.18h0c-1.4-.55-3.13-1.91-3.14-3.54a.31.31,0,0,1,0-.07l0,0Zm3,15.6c.37,0,.76,0,1.15,0s.79.07,1.2.14l.93.18.3.07a5.15,5.15,0,0,1,.56.16,6,6,0,0,1,.72.22c.35.12.69.25,1,.4s.6.27.89.43.59.33.88.51l.71.47c.11.08.22.13.32.2l.51.41a.31.31,0,0,1,.11.09l.1.06a1.07,1.07,0,0,0,.16.14c.22.19.44.42.66.62s.56.56.84.86l.07.06c.24.28.47.58.71.88l.43.56.33.47c.26.37.48.76.72,1.17a1.09,1.09,0,0,1,.16.54.58.58,0,0,1,0,.16,6.41,6.41,0,0,0-.47,1.5.19.19,0,0,1-.16.15.15.15,0,0,1-.09,0c-.39-.24-.74-.46-1.1-.72s-.65-.5-1-.76h0c-.31-.26-.6-.54-.9-.81-2.63-2.43-4.48-5.07-8-5.78h0a13.36,13.36,0,0,0-6,.4,14.8,14.8,0,0,1-2.67,0,25.62,25.62,0,0,1-2.79-.35c-.43-.08-.89-.18-1.3-.28a0,0,0,0,1,0,0c-.4-.09-.79-.2-1.14-.31h0a10,10,0,0,1-1.73-.65c1.85,0,3.89,0,5.65-.06a32.76,32.76,0,0,0,3.92-.34c.24-.11.53-.21.84-.32a8.76,8.76,0,0,1,1-.26h.09a9.12,9.12,0,0,1,1-.16l.16,0c.42,0,.86-.06,1.32-.07Zm39.07,3a8.53,8.53,0,0,0-5.22,2.37,44.09,44.09,0,0,0-7.31,9.88,1.76,1.76,0,0,0-.2,1.24c2.15,9.91,3.07,14.84,3.48,17.46l1.41-1.17a20.64,20.64,0,0,1-1-8.74,44.23,44.23,0,0,0,2-8.79c1.54-3.28,1.7-4.67,3.2-4.59a15.14,15.14,0,0,0,4-.13,3.8,3.8,0,0,0,1.33-.57,20.59,20.59,0,0,0,5.46-4.95,1,1,0,0,0,.21-.83.31.31,0,0,0-.34-.22c-2.23.13-4.42-1.12-7-1Zm-.72.24a3.3,3.3,0,0,1,3,2,3.23,3.23,0,0,1,.27,1.19,3,3,0,0,1-.23,1.25,3.19,3.19,0,0,1-.69,1.06,3.26,3.26,0,0,1-3.48.72,3.19,3.19,0,0,1-.58-.3,3,3,0,0,1-.47-.4,3.2,3.2,0,0,1-.72-3.45,2.71,2.71,0,0,1,.23-.45l0,0c0-.06.07-.12.11-.17a2.92,2.92,0,0,1,.28-.32l.08-.09a3.89,3.89,0,0,1,.43-.38c.12-.09.27-.15.4-.23a.08.08,0,0,0,.07,0s.07,0,.11-.06a3.35,3.35,0,0,1,.54-.16,3.11,3.11,0,0,1,.6-.09Zm-35.77.05a3,3,0,0,1,1.24.22,3.49,3.49,0,0,1,.58.29,2.59,2.59,0,0,1,.46.41,2.94,2.94,0,0,1,.41.46,3.68,3.68,0,0,1,.5,1.13,3.24,3.24,0,0,1-.16,1.86,3.32,3.32,0,0,1-.3.56,0,0,0,0,1,0,0,3.22,3.22,0,0,1-2,1.35,3.39,3.39,0,0,1-1.23,0,3.48,3.48,0,0,1-.63-.18,3.16,3.16,0,0,1-.58-.3,2.92,2.92,0,0,1-.88-.87,3.17,3.17,0,0,1-.33-3,2.77,2.77,0,0,1,.31-.56,3.72,3.72,0,0,1,.33-.45.53.53,0,0,1,.1-.06,2.16,2.16,0,0,1,.42-.38,2.73,2.73,0,0,1,.4-.23s0,0,0,0,.28-.08.41-.12a2,2,0,0,1,.4-.12H131a2.42,2.42,0,0,1,.47,0Zm-10.18,1.56.25,0s0,0,0,0a1.36,1.36,0,0,1,.44.13,4.52,4.52,0,0,1,.54.27l.61.4.06.05c.19.14.38.28.58.45l.68.52c.45.35,1,.73,1.48,1.11a8.58,8.58,0,0,0,.83.56c.22.15.45.31.7.46l.3.17c.28.16.58.31.88.45s.6.27.91.4c.11,0,.2.1.3.14.32.12.65.21,1,.31s.81.23,1.24.32a11.33,11.33,0,0,0,1.32.17c.46,0,.94.07,1.44.07a.38.38,0,0,1,.22.07.2.2,0,0,1,.11.18c0,.77-.69,1-1.46,1.09-.45,0-.9,0-1.36,0a29,29,0,0,1-4-.36,1.38,1.38,0,0,1-.4-.1,3.21,3.21,0,0,1-.38-.23c-.42-.28-.86-.6-1.3-1s-.87-.74-1.28-1.1-.81-.72-1.14-1-.6-.57-.79-.76-.34-.31-.47-.45l-.32-.35c-.16-.21-.23-.34-.32-.47s-.11-.12-.16-.18a4.47,4.47,0,0,0-1.12-.74c-.08,0-.13-.07-.14-.11a.16.16,0,0,1,0-.09.48.48,0,0,1,.09-.11,1,1,0,0,1,.23-.14.72.72,0,0,1,.2-.09l.22,0Z"/></g></g></svg>