<svg xmlns="http://www.w3.org/2000/svg" viewBox="0 0 246.78 300"><defs><style>.cls-1{fill:#1d1d1b;}.cls-2{fill:#0d0802;}.cls-3{fill:#fff;}.cls-4{fill:#b4053f;}.cls-5{fill:#dca43e;fill-rule:evenodd;}.cls-6{fill:#005ca5;}.cls-7{fill:#b2b2b2;}.cls-8{fill:#fac400;}</style></defs><title>Levante</title><g id="Слой_2" data-name="Слой 2"><g id="Слой_1-2" data-name="Слой 1"><path class="cls-1" d="M202.29,149.45v-4l4-.8v4ZM49.23,179.9V155.32l4.22-.84v20.9l6.64-1.32v3.68Zm13.45-2.68V152.65L74,150.4v3.67l-7.08,1.41v6.33l5.44-1.08v3.68l-5.44,1.08v7.22l7.56-1.5v3.67ZM86.4,147.93l4.16-.83-5.14,25.6-4.22.84L76.06,150l4.15-.82,3.06,16.44Zm10.32,13.4,3.4-.68-1.66-10.22Zm-1.36,9.39-4.09.82,4.53-25.48L101,145l4.53,23.68-4.08.81-.75-5.29-4.63.92ZM108,168.2V143.63l3.92-.78,5.14,13,.07-14.07,3.81-.76v24.58l-3.68.73-5.38-14.28-.06,15.37Zm19.48-24.77-4.09.81v-3.68l12.39-2.46v3.68l-4.08.81v20.9l-4.22.84Zm10.79,18.75V137.61l11.3-2.25V139l-7.08,1.41v6.33l5.45-1.08v3.68l-5.45,1.08v7.22l7.56-1.5v3.67ZM161,133.1l4.22-.84v18.55c0,1.79.75,2.54,2.25,2.24s2.25-1.34,2.25-3.13V131.36l4.22-.84v18.39a7.68,7.68,0,0,1-1.74,5.21,8,8,0,0,1-4.73,2.61,5.77,5.77,0,0,1-4.77-.72q-1.69-1.33-1.7-4.53Zm16.75,21.24v-4l4-.8v4Zm12-5.87,1.47-.29a3.67,3.67,0,0,0,2.34-1.21,4.62,4.62,0,0,0,.69-2.83V133.38a3.44,3.44,0,0,0-.69-2.55,2.62,2.62,0,0,0-2.34-.28l-1.47.29Zm-4.22-20.26L191.8,127c2.21-.44,3.86-.17,5,.82s1.71,2.73,1.71,5.27v9.74a9.33,9.33,0,0,1-1.71,6,8,8,0,0,1-5,2.79l-6.26,1.25Z"/><path class="cls-2" d="M96.15,13.59C96.15,0,96.17,0,109.74,0a13.58,13.58,0,0,1,11.82,6.88h3.67A13.58,13.58,0,0,1,137.05,0c13.57,0,13.59,0,13.59,13.59a13.59,13.59,0,0,1-12.48,13.55,20.4,20.4,0,1,0,29.05-10.89L172,6.57c70.81,19.69,99.85,94.57,49.49,185.82a20.39,20.39,0,0,1-16.26,32.69,20.85,20.85,0,0,1-4.42-.48c-14.76,20.17-33.35,40.88-56.11,61.76-19.84,18.2-22.76,18.16-42.51.05C79.38,265.52,60.78,244.79,46,224.6a20,20,0,0,1-4.4.48,20.39,20.39,0,0,1-16.28-32.67C-25,101.15,4,26.26,74.8,6.57l4.76,9.67a20.38,20.38,0,1,0,29.05,10.9A13.59,13.59,0,0,1,96.15,13.59M130.61,243a29,29,0,0,0,8-3.9,25.72,25.72,0,0,1-8,3.9m8-3.9c.75-.54,1.46-1.13,2.15-1.74a20.39,20.39,0,0,1-2.15,1.74"/><path class="cls-3" d="M202.29,149.45l4-.79v-4l-4,.8ZM49.23,179.9l10.86-2.16v-3.68l-6.64,1.32v-20.9l-4.22.84Zm13.45-2.67,11.78-2.35v-3.67l-7.56,1.5v-7.22l5.45-1.08v-3.68l-5.45,1.08v-6.33L74,154.07V150.4l-11.3,2.25Zm23.72-29.3L83.27,165.6l-3.06-16.44-4.15.82,5.14,23.56,4.22-.84,5.14-25.6Zm9,22.79.75-5.59,4.63-.92.75,5.3,4.08-.82L101,145l-5.24,1.05-4.53,25.48ZM108,168.2l3.82-.75.06-15.37,5.38,14.28,3.68-.73V141.05l-3.81.76-.07,14.07-5.14-13-3.92.78Zm19.48-24.77v20.9l4.22-.84v-20.9l4.08-.81V138.1l-12.39,2.46v3.68Zm10.79,18.76,11.78-2.35v-3.67l-7.56,1.5v-7.22l5.45-1.08v-3.68l-5.45,1.08v-6.33l7.08-1.41v-3.67l-11.3,2.25ZM161,133.1v18.38q0,3.2,1.7,4.53a5.77,5.77,0,0,0,4.77.72,8,8,0,0,0,4.73-2.61,7.68,7.68,0,0,0,1.74-5.21V130.52l-4.22.84v18.56c0,1.79-.75,2.83-2.25,3.13s-2.25-.45-2.25-2.24V132.26Zm16.75,21.24,4-.8v-4l-4,.8Zm7.83-26.13v24.58l6.26-1.25a8,8,0,0,0,5-2.79,9.33,9.33,0,0,0,1.71-6v-9.74q0-3.81-1.71-5.27c-1.11-1-2.76-1.26-5-.82Zm33.83-10.14a109.22,109.22,0,0,1-2.22,32.22L41.79,185.17a162,162,0,0,1-10.87-29.62ZM96.72,161.33l1.74-10.9,1.66,10.22Zm93-12.86V130.84l1.47-.29a2.62,2.62,0,0,1,2.34.28,3.44,3.44,0,0,1,.69,2.55v10.76a4.64,4.64,0,0,1-.69,2.83,3.67,3.67,0,0,1-2.34,1.21Z"/><path class="cls-4" d="M183.27,221.3a334.28,334.28,0,0,1-38,43.16V236.82a28.76,28.76,0,0,0,0-37.26v-32l38-7.55Zm-38-126.21a16.38,16.38,0,0,0,5.36.89,21.26,21.26,0,0,0,5.22-.79A16.79,16.79,0,0,0,167.73,105L183.27,108v14.21l-38,7.55ZM101.48,264.42a334.4,334.4,0,0,1-38-43.18V183.85l38-7.55v23.34a28.75,28.75,0,0,0,0,37.11Zm-38-156.28c9-1.79,15.59-3.19,15.59-3.19a16.8,16.8,0,0,0,11.83-9.77,21,21,0,0,0,5.24.8,16.32,16.32,0,0,0,5.3-.87v43.41l-38,7.55Z"/><path class="cls-5" d="M146.48,229.79c-.24-4.57-4.82-7.45-10.69-5.82,0-5.28-6-8-12-6.81-5.25-5.89-3.48-13.11,6.34-11.57,5.69.88,14.29,5.22,19.1,14.08a25.69,25.69,0,0,1-2.71,10.12m-44.55,2.67c4,2,8.75-.56,10.26-6.38,4.6,2.63,10-1.16,12-7,7.72-1.61,13.09,3.54,6.86,11.27-3.6,4.47-11.59,9.71-21.59,9.51a26,26,0,0,1-7.48-7.4m6.5-35.26a29.78,29.78,0,0,0-1.17,22.26,15.14,15.14,0,0,0,3.22,5.3c-1.47,7.82-9,9.19-12,0a25.83,25.83,0,0,1,10-27.58m13.5-4.76c-3.87,2.47-4.11,7.9.24,12.18-4.55,2.68-4,9.21.11,13.83-2.47,7.5-9.61,9.57-13.19.31-2.08-5.38-2.62-15,2.63-23.56a25.5,25.5,0,0,1,10.21-2.76m27.2,23.42a29.76,29.76,0,0,0-18.74-12.21,15,15,0,0,0-6.23.15c-6.19-5.33-3.29-12.81,6.72-10.24A27.42,27.42,0,0,1,143,201.37a25.72,25.72,0,0,1,6.14,14.49m-10.55,23.22a20.39,20.39,0,0,0,2.15-1.74c-.69.61-1.4,1.2-2.15,1.74m-8,3.9a25.95,25.95,0,0,1-17.85-1.29,29.8,29.8,0,0,0,19.76-10.11,15,15,0,0,0,3-5.47c7.72-2.72,12.77,3.54,5.52,10.92l-.3.31a20.39,20.39,0,0,1-2.15,1.74,25.72,25.72,0,0,1-8,3.9m0,0a25.72,25.72,0,0,0,8-3.9,29,29,0,0,1-8,3.9"/><path class="cls-6" d="M104.42,196.64V175.71l38-7.55v28.42a28.74,28.74,0,0,0-38,.06M60.58,217.12a226.58,226.58,0,0,1-17.46-29.21l17.46-3.48Zm81.8,50.16c-1.72,1.63-3.48,3.27-5.26,4.91-1.42,1.29-11.15,11.21-13.47,11.27-2.5.07-12.5-10-13.93-11.27q-2.7-2.47-5.3-4.95V239.75a28.75,28.75,0,0,0,38,.05Zm74.06-113.85c-4.65,19.6-14.39,41.12-30.23,63.76V159.44ZM30.22,152.7c-3.64-15.74-4-30.23-1.6-43,2.27-12.11,8.52-18,13-18a3.89,3.89,0,1,1-.11,7.77h-3l.14,12.72a50.26,50.26,0,0,0,8.88-.87c4.47-.83,8.93-1.69,13-2.5v37.93Zm156-44.08,13.07,2.61a40.74,40.74,0,0,0,8.87.87l.15-12.72h-3a3.89,3.89,0,1,1-.11-7.77c4.49,0,10.74,5.94,13,18,.33,1.79.62,3.62.84,5.47l-32.85,6.54ZM104.42,93.79a16.66,16.66,0,0,0,4-3.28,23.36,23.36,0,0,0,29.92,0,16.44,16.44,0,0,0,4,3.24v36.64l-38,7.55Z"/><path class="cls-7" d="M180,17.54c38.12,14.75,61.22,48.91,58.6,94.88-.59-32-15.31-57.17-39.6-72l-1.71-1c-3.17,15.67-16.05,27.83-32.67,27.83a32.5,32.5,0,0,1-24.28-10.52A28.23,28.23,0,0,0,180,17.54m-113.45,0a28.23,28.23,0,0,0,39.66,39.24A32.5,32.5,0,0,1,82,67.3c-16.63,0-29.5-12.16-32.68-27.83l-1.7,1c-24.29,14.79-39,40-39.6,72-2.62-46,20.48-80.13,58.6-94.88"/><path class="cls-8" d="M123.43,93A20.41,20.41,0,0,1,108.08,86a13.61,13.61,0,0,1-11.9,7,13.3,13.3,0,0,1-3.37-.42,17.52,17.52,0,0,0,.45-4A18.55,18.55,0,0,0,93,85.43a6.8,6.8,0,0,0,10-6l0-4.6h7a13.6,13.6,0,0,0,26.82,0h7l0,4.6a6.8,6.8,0,0,0,10,6,17.65,17.65,0,0,0,.17,7.19A13.66,13.66,0,0,1,138.78,86,20.4,20.4,0,0,1,123.43,93m-75,2.5a6.82,6.82,0,0,0-6.83-6.82c-6.81,0-13.58,8.1-15.89,20.45-8,42.85,13.85,102.71,82,165.23,17.93,16.44,14.27,15.69,31.38,0,68.15-62.52,90-122.38,82-165.23-2.31-12.35-9.08-20.45-15.9-20.45a6.83,6.83,0,1,0,.12,13.65l-.08,6.84a13.66,13.66,0,1,1,.05-27.31c13.57.06,19.47,13.74,21.84,27.26,8,45.51-15.95,107.09-84.06,169.57-21,19.29-18.3,19.29-39.32,0C35.64,216.2,11.71,154.62,19.7,109.11,22.07,95.59,28,81.91,41.54,81.85a13.66,13.66,0,1,1,.05,27.31l-.08-6.84a6.86,6.86,0,0,0,6.94-6.83M74.16,75a6.31,6.31,0,0,1,1.42-.15,13.77,13.77,0,0,1,2.93,27.22l-.47.1-22.93,4.55a17.57,17.57,0,0,0-5.47-26.84Zm98.52,0,24.52,4.88a17.57,17.57,0,0,0-5.48,26.84l-22.92-4.55-.47-.1a13.77,13.77,0,0,1,2.93-27.22,6.31,6.31,0,0,1,1.42.15"/></g></g></svg>