<svg xmlns="http://www.w3.org/2000/svg" viewBox="0 0 298.53 282.79"><defs><style>.cls-1{fill:#004b93;}.cls-1,.cls-2{fill-rule:evenodd;}.cls-2{fill:#ffd000;}</style></defs><title>Lion</title><g id="Слой_2" data-name="Слой 2"><g id="Layer_1" data-name="Layer 1"><path class="cls-1" d="M26.51,169.85a13.21,13.21,0,0,0,8.22,3.78l2.13.17a1.2,1.2,0,0,0,.89-.21.86.86,0,0,0,.22-.82l-1.63-1.37c-1.59-1.33-2.62-3.75-3.31-5.71,4.12-2.29,8.88-4.59,13.54-5.33l.26,0a10.77,10.77,0,0,1,3.6,2.47,31,31,0,0,0-1.69,8.52,25.12,25.12,0,0,0,.58,6.86,14.88,14.88,0,0,0-5,6.18l-.67.38a43.65,43.65,0,0,1-2.54-7.67.74.74,0,0,0-.74-.54.72.72,0,0,0-.62.32,18.49,18.49,0,0,0-2.4,8.73l0,1.71v.25l-.58-.1A2.71,2.71,0,0,0,34,189.75c-.28,2-.52,4.06-.61,6.1a24.27,24.27,0,0,0,.79,7.4,9.27,9.27,0,0,0,2.18,4l11.92,12a6,6,0,0,0,2.21,1.21v.14a9.72,9.72,0,0,0-1.69,5.5,10.24,10.24,0,0,0,3.13,7.3,141.41,141.41,0,0,0,30.68,22.69,138.25,138.25,0,0,0,51.53,16.2,16.33,16.33,0,0,0,30.56,0,138.49,138.49,0,0,0,57.16-19.27,131.1,131.1,0,0,0,25.55-20,10.28,10.28,0,0,0,3-6.57v-.29a9.84,9.84,0,0,0-1.55-5.45l0-.15a7.82,7.82,0,0,0,5.09-4.64,104.27,104.27,0,0,1,4.74-9.89,10.12,10.12,0,0,1,2.16-2.63,7.48,7.48,0,0,0,1.62-9.35l-1-1.84a15.22,15.22,0,0,0,.89-3.8l.08-1.26a16.42,16.42,0,0,0-2.13-8.47.7.7,0,0,0-.62-.32.73.73,0,0,0-.74.55,33.41,33.41,0,0,1-3.15,8.55,22,22,0,0,1-8.29-13.31,35.93,35.93,0,0,1-.66-5.06,21,21,0,0,1,.06-3.07.46.46,0,0,1,.51-.4,24.21,24.21,0,0,1,7.25-1.4,29.84,29.84,0,0,1,7.93.78l1.57,1.17a19,19,0,0,1-4.14,6.12,5.67,5.67,0,0,1-1.22.82.74.74,0,0,0-.29.9.81.81,0,0,0,.8.53,25.52,25.52,0,0,0,11.68-3.54,8.34,8.34,0,0,0,1.8.2,8.74,8.74,0,0,0,6.34-3,80.08,80.08,0,0,1,10-9.18c2-1.61,4-3.29,5.91-5a11.45,11.45,0,0,0,2.54-3.05,7.91,7.91,0,0,0,1-4.09,15.83,15.83,0,0,0-1.77-6.69,234.92,234.92,0,0,0-18.76-30.71,8.2,8.2,0,0,1-1.5-3.54,38.36,38.36,0,0,1-.49-6.25,6.64,6.64,0,0,0-1.58-4.16c-3.26-4.11-6.23-8.44-9.11-12.83a20.72,20.72,0,0,1-1.28-2.18,21.11,21.11,0,0,0-10.77-22.77c-2.08-1.12-4.09-2.36-6.06-3.66a10,10,0,0,0,2.87-7,10.61,10.61,0,0,0-3.42-7.58,143.94,143.94,0,0,0-31.74-23.13,139.59,139.59,0,0,0-159,19.39A59.61,59.61,0,0,0,50.9,41a9.52,9.52,0,0,0-2.23,5.43,9.9,9.9,0,0,0,1.53,6.13,36.88,36.88,0,0,0-7.73,5,9.47,9.47,0,0,0-2.95,5.29A20.37,20.37,0,0,1,37.39,68l-3,5.62a6.1,6.1,0,0,0-.53,2.5,31.59,31.59,0,0,0,.22,4.56,22.56,22.56,0,0,0-9.3,19l.18,3.18a231.43,231.43,0,0,0-17.31,24.2c-2,3.29-3.63,6.84-5.43,10.26a14.2,14.2,0,0,0-2,6.5,9.33,9.33,0,0,0,2.52,6.47,23.88,23.88,0,0,0,4.83,3.77A31.46,31.46,0,0,1,19,166.23l1.21,2.46a2.24,2.24,0,0,0,1.73.95l3.68.36.85-.15Z" transform="translate(-0.17 -0.16)"/><path class="cls-2" d="M146,30a8.18,8.18,0,0,0-6.56-8.06,10.94,10.94,0,0,0-1.89-.21A8.41,8.41,0,0,0,129,29.81a8.62,8.62,0,0,0,8.52,8.85A8.5,8.5,0,0,0,146,30Zm6.13,11.09a18.07,18.07,0,0,0,3.75-11.16,17,17,0,0,0-10.68-16,20.82,20.82,0,0,0-6.41-1.46,18.92,18.92,0,0,0-17.64,9.44,15.9,15.9,0,0,0-2,7.81,17.76,17.76,0,0,0,18,18.22,18.8,18.8,0,0,0,15-6.88ZM104,20.78l-8.8,3.81L108.36,55.3l8.82-3.78L104,20.78Zm71.56,10.47,7.78,22.18,8.7,2.94,10.68-31.68-8.22-2.78-.85-.19L187.7,39.15,179.92,17l-8.72-3L160.44,45.69l9,3.09.12,0,5.94-17.49ZM78.81,75a3.31,3.31,0,0,1,2.29,1.17l2.24,2.24A4.21,4.21,0,0,0,86.2,79.5a4.62,4.62,0,0,0,3.28-1.44,84.52,84.52,0,0,1,37.67-21.94,83.49,83.49,0,0,1,21-3A84.76,84.76,0,0,1,200.18,70a113.91,113.91,0,0,1,9.92,8.57,3.73,3.73,0,0,0,2.58.89,5.11,5.11,0,0,0,3.45-1.67l2.12-2.13a2.44,2.44,0,0,1,1.93-.68l2.39.36a16.26,16.26,0,0,0,18.08-16.15c0-1.5-.32-3-.48-4.46-.11-1,.73-1.91,1.44-2.62l1.89-1.89a4.64,4.64,0,0,0-.34-6.5,139.23,139.23,0,0,0-35.24-24.68,134.32,134.32,0,0,0-122.75,3,129.48,129.48,0,0,0-30,22.44,3.84,3.84,0,0,0-1,2.71,4.7,4.7,0,0,0,1.43,3.23l2.5,2.5a2.39,2.39,0,0,1,.63,1.89l-.38,2.61c-1.29,8.92,6.22,17.55,16.11,18,1.31.06,2.84-.41,4.15-.46Zm143.58-9.87a10.57,10.57,0,0,0,2.7-6v-.31a10.43,10.43,0,0,0-2.51-6.69,46.57,46.57,0,0,1-3.18-4.22,2.92,2.92,0,0,1-.47-1.51A1.49,1.49,0,0,1,220.35,45a3.91,3.91,0,0,1,3,1.08,9.91,9.91,0,0,1,2.74,4.85l7.65-4.08a21.3,21.3,0,0,0-8.64-9.54,11,11,0,0,0-14.68,3.36,9.63,9.63,0,0,0-2,5.53,8.79,8.79,0,0,0,2.06,5.46c1.18,1.45,2.3,3,3.43,4.44a3.16,3.16,0,0,1,.68,2.65,2,2,0,0,1-2.13,1.45,5.73,5.73,0,0,1-4.28-2.7A16.75,16.75,0,0,1,206,52L198,56.08a19.31,19.31,0,0,0,11.66,12.38,12.28,12.28,0,0,0,4.45.79,10.8,10.8,0,0,0,8.25-4.11ZM96.9,51.65l-7.73,6.29L73.26,38.57,65.8,44.69,83.23,66,87,70.56l15.22-12.47L96.9,51.65ZM45.67,106.5a9.77,9.77,0,0,0,.19-2.15l-.18-2.53-1.1-.39a3,3,0,0,0-1.78,2.45l0,.37a13,13,0,0,0,.09,3.11.77.77,0,0,1-.38.71,9.1,9.1,0,0,1-3.16-4l-1.1-2.54a4.92,4.92,0,0,0-1.38.48,9.93,9.93,0,0,0,3.61,6.28,3.66,3.66,0,0,0,2.41.85,3,3,0,0,0,2.83-2.66ZM229.2,95.33a10.43,10.43,0,0,1-4.48-6.13,19.18,19.18,0,0,1-.65-3.68,16.1,16.1,0,0,0-.95,5,4.69,4.69,0,0,0,1.43,3.81,5.43,5.43,0,0,0,3.78,1.08l.87,0ZM18.11,141.76q3-.58,6-.92L28,137.37l0,0a18.42,18.42,0,0,0-1.49,6.31,19.39,19.39,0,0,0,.19,3.65,10.72,10.72,0,0,0-9.54,6.75l-.31.84-1.65.63A34.18,34.18,0,0,1,23,166c1.43.24,2.87.44,4.31.57a61.31,61.31,0,0,1,22.3-9.06,40.45,40.45,0,0,1,6.59-.67,35.83,35.83,0,0,1,9.05.93,20.8,20.8,0,0,1,4.25,6.57,34.43,34.43,0,0,1,2.91,13.1,5.58,5.58,0,0,1-1.8,3.56A11.12,11.12,0,0,1,65,184.29a10.6,10.6,0,0,1-8.43,5.15,13.51,13.51,0,0,1-3.11-.18l-.11,0a5.93,5.93,0,0,1-5.51,3l-1.11-.07L45,193a8.23,8.23,0,0,1-3.29.62,7.51,7.51,0,0,1-3.51-.84l0,.3h0a20.76,20.76,0,0,0,2.45,11A10.93,10.93,0,0,0,43,206.94l0,0a26.56,26.56,0,0,1-2.32-8.44l-.28-2.57,0-.15a43.84,43.84,0,0,0,4.41,5.68l1.53,1.72,0-.08a32.28,32.28,0,0,1-.85-6.4v-.08a6.75,6.75,0,0,0,3.29,1.79l1.59.37,0-.85a3.46,3.46,0,0,1,.31-1.58,4.39,4.39,0,0,0,2.58,1.07l.76.08,2.26,0,0-.39.38-3.07.06-.11a4.14,4.14,0,0,0,1.74.28,20.35,20.35,0,0,0,4.85-.76,8.88,8.88,0,0,1-2.6-2A20.4,20.4,0,0,0,67,189.94c1.56-.61,3.12-1.21,4.63-1.91a32.78,32.78,0,0,1-2.83-2.44,73.48,73.48,0,0,0,9.31-2.72l-3.95-2.24a15.94,15.94,0,0,0,3.53-1,81.27,81.27,0,0,1-9.77-24.41l-1.35,0v0a16.22,16.22,0,0,1-5.71-.67,5.34,5.34,0,0,1-2.57-1.67,13.93,13.93,0,0,0,.79-3.76,16.27,16.27,0,0,0-2.82-10.07l.06,0a21.16,21.16,0,0,1,8,4.45A18.86,18.86,0,0,0,65.84,136v-.44A31.91,31.91,0,0,1,55,137.17a6.21,6.21,0,0,1-1.81-.32q4.31-2,8.44-4.33l-.06,0a14.69,14.69,0,0,1-4.22.7,9.61,9.61,0,0,1-5.08-1.28,15,15,0,0,1,5.52-3.34,21.38,21.38,0,0,1-11.17-4.91,29.82,29.82,0,0,1-5.08-5.33,16.74,16.74,0,0,1,3.39-.35,14.07,14.07,0,0,1,7.76,2.16l0,0A17,17,0,0,1,49,112.65l-.12-.54.08,0c3.28.22,7.05,1.16,9.61,3.24l.07,0,0,0a22.87,22.87,0,0,0-4.47-6.42l-.6-.62a16.74,16.74,0,0,0,12.12-4.55l0,0a16.18,16.18,0,0,1-8.47,2.65,10.62,10.62,0,0,1-6.52-2.07,17,17,0,0,1-4.87,4.35,7.18,7.18,0,0,1-3.52,1,5.68,5.68,0,0,1-3.92-1.53,18.78,18.78,0,0,1-13.87,6.48h-.31L26,112.66a8.19,8.19,0,0,0,1.8-3.56,8.4,8.4,0,0,1,2.67-4.22,3.5,3.5,0,0,0,.89-1,7.6,7.6,0,0,1-.41-2.46,8.72,8.72,0,0,1,1.42-4.73,24.67,24.67,0,0,1,6.81-1.1,15.22,15.22,0,0,1,7.41,2,43.45,43.45,0,0,0,4.69,2.32,12.14,12.14,0,0,0,4.5.88A10.48,10.48,0,0,0,62,98.86,9,9,0,0,1,59.36,94a9.5,9.5,0,0,0,6-2,5.33,5.33,0,0,0,1.94-4.23A6.69,6.69,0,0,0,66,83.57a3.27,3.27,0,0,0-2.74-1.19A9.32,9.32,0,0,0,60,83.2l-1.31-1.31a15.5,15.5,0,0,1,4.07-3.4L65,77.17l-2.41-1.51a34,34,0,0,0-7.67,4.45l-2-.86A12.4,12.4,0,0,1,57,73l1.55-1.23-.67-.92a22.43,22.43,0,0,0-7.17,5.61l-1.36,1.64a10.14,10.14,0,0,0-2.73-5.42,6,6,0,0,0-4.21-1.72q2.05-4.23,4.29-8.38a65,65,0,0,0,7.52-3.28,30.34,30.34,0,0,1,.38-4.14L54,54.6a75.38,75.38,0,0,1-9.63,6.18,107.2,107.2,0,0,1-6.9,15.3l0,.19.46,6.06v.19A18.76,18.76,0,0,0,28.4,98l0,1.42.32,4.6A241.21,241.21,0,0,0,11,128.47a65.58,65.58,0,0,0-5.25,10.12,7.7,7.7,0,0,0-2,5.07A6.93,6.93,0,0,0,5.31,148a27.76,27.76,0,0,1,12.8-6.19ZM274.4,122.51a11.43,11.43,0,0,0,5.18,4.32,5.85,5.85,0,0,0,1.61.34A.93.93,0,0,0,282,127a.83.83,0,0,0,.3-.73,7.1,7.1,0,0,0-1.66-3.36l-1-1.19a1.76,1.76,0,0,1-1.61,1.4l-.51,0a7.44,7.44,0,0,1-3-.63l-.06,0Zm-20.49-15.1,0,0a7,7,0,0,1-.41-2,16.93,16.93,0,0,1,.16-3.26,1.38,1.38,0,0,1,.69-.38l1.31-.42a2.9,2.9,0,0,1,.65,1.88l0,.36-.54,3.14a1.08,1.08,0,0,0,.69,1.2,12.43,12.43,0,0,0,3.95-5.09l.48-1.11a6.81,6.81,0,0,1,1.53.42l.06.12a9.4,9.4,0,0,1-3.92,6.45,3.8,3.8,0,0,1-2.06.67,2.44,2.44,0,0,1-1-.18,9.31,9.31,0,0,0-3.58,2.27,1,1,0,0,0-.25.61,1.34,1.34,0,0,0,1.45,1,19.85,19.85,0,0,0,10.11-3.7,7.74,7.74,0,0,1,2.46,2.86l1.23,2.44a12.62,12.62,0,0,1,5.44,2.11c1.12.87,2.46,1.93,3.89,2h.08a1.74,1.74,0,0,0,1.06-.29,32.7,32.7,0,0,1-4.84-7.48,37.9,37.9,0,0,1-2.54-9.67,4.28,4.28,0,0,0-4-3.45l-1.3-.09c-3.64-.27-7.73,1-11.11,2.33l-3.55,1.43a20.39,20.39,0,0,1-5.87,1,15.14,15.14,0,0,1-4.79-.43,7.22,7.22,0,0,1-3.84-2.46l-.09,0-.1.06a11.27,11.27,0,0,0,6.18,6.5,9.63,9.63,0,0,0,3.83.69,18.38,18.38,0,0,0,6.48-1.44l2,2ZM49.63,128.85a18.62,18.62,0,0,1-9.84-8.36l-.06,0a12.76,12.76,0,0,0,.76,5.48A5.61,5.61,0,0,0,46,129.56a11.38,11.38,0,0,0,3.65-.71ZM286.18,134a.88.88,0,0,0,.23-.7,4.43,4.43,0,0,0-1.29-2.78,1.11,1.11,0,0,1-1.15.61,12.1,12.1,0,0,1-4.76-2l-.55-.36,0,0a20.5,20.5,0,0,0,5.22,4.91,3.42,3.42,0,0,0,1.64.53.9.9,0,0,0,.7-.25Zm-239,5.26a22.06,22.06,0,0,1,2.56,8.63,14,14,0,0,1-.93,6.46l-.25.6a13.59,13.59,0,0,0,6.67-1A6.09,6.09,0,0,0,57,152.86a12.06,12.06,0,0,0,.62-3.14,16.32,16.32,0,0,0-3.92-11.24l0,.06.24,1.76a19.29,19.29,0,0,1-.47,6.14l-.08.09a11.36,11.36,0,0,0-6.17-7.28l0,0ZM16.46,135a36,36,0,0,1,2-8.75c1.27-3.54,2.62-7,4.17-10.46v0a126,126,0,0,0-10.95,17.91l-1.5,2.95a3.87,3.87,0,0,0,1.31.16A8.36,8.36,0,0,0,16.46,135Zm234.94,9.53a19.74,19.74,0,0,0-3.68-.49,2.77,2.77,0,0,0-1.53.26.34.34,0,0,0-.16.29,1.33,1.33,0,0,0,1,.58,43.05,43.05,0,0,1,10.94,3.75A77.33,77.33,0,0,1,269.86,156l0,.1a.33.33,0,0,1-.1.25.27.27,0,0,1-.24.06,178.28,178.28,0,0,0-22.09-6.3,34.21,34.21,0,0,0-4.17-.54,2.05,2.05,0,0,0-1.41.33.34.34,0,0,0-.05.17.84.84,0,0,0,.72.52,73,73,0,0,1,8,1.67,211,211,0,0,1,21.69,7.46l1.13.46a4.59,4.59,0,0,0,3.16-1.48,3.38,3.38,0,0,0,1-1.69l0-.13a80.77,80.77,0,0,0-15.2-13.21,33.76,33.76,0,0,0-7.71-3.87,8.13,8.13,0,0,0-1.62-.31.87.87,0,0,0-.85.32l0,.1a.54.54,0,0,0,.34.39,36.76,36.76,0,0,1,7.65,4.09,125.32,125.32,0,0,1,11.16,9.15.52.52,0,0,1,0,.44.51.51,0,0,1-.32.29,51.15,51.15,0,0,0-19.52-9.72Zm31.4-9.13c1.08,1.34,2.73,3,4.41,3.37l.14,0a1.12,1.12,0,0,0,1.19-1.16v-.07l-.32.13h-.14c-1.75.05-3.83-1.27-5.23-2.33l0,0Zm-52.72,23.78A39,39,0,0,1,246,155.43c2.06,0,4.31.26,6.37.25a45.24,45.24,0,0,0-11.79-1.51l-4.28.07-1.47-1.8a1.09,1.09,0,0,0-.88.23c-.94.65-1.9,1.26-2.8,2l0,0,.57-2.59a20.09,20.09,0,0,1,5-2.19l1.8-5.85a52.76,52.76,0,0,1-5.56-2.7l0-3.21,8.94,4-.06-.48a4,4,0,0,1,2.61-3.79,13.61,13.61,0,0,1,3.8-1L233,134l-.08-1.8c2.37.26,4.75.47,7.13.57a53.24,53.24,0,0,0,9-.43,22.61,22.61,0,0,0,10.39-3.75l.23-.17,0,0a37.27,37.27,0,0,1-7.59.8l-3.72-.07-.07-.06a26.31,26.31,0,0,0,10.5-7.44l0,0a26.86,26.86,0,0,1-9.43,2.09c-1.37,0-2.74,0-4.1,0a48.89,48.89,0,0,0,8.93-5.85,8.64,8.64,0,0,0,1.65-1.82l-.06,0a49.43,49.43,0,0,1-15.32,3.79l-.76,0h-.31a29,29,0,0,0,8-4.39l1-.82-8.07.65h-.21l2.19-3.38a22.34,22.34,0,0,1-10.74-7.26,13.15,13.15,0,0,1-2.45-5l0-.08,3.89.5.1,0a26.07,26.07,0,0,1-.77-4.89,20.8,20.8,0,0,1,.31-4.79A8.44,8.44,0,0,1,237,84.27a26.25,26.25,0,0,0-5.09-2.07l-2.24-.71a57,57,0,0,1,6.79.09,15.8,15.8,0,0,1,4,.79l.06,0a11.56,11.56,0,0,0-4.95-3.89L234.42,78c2.61-.81,5.62.07,8.28.73a5.73,5.73,0,0,1,2.38,1.21l0,0a34.34,34.34,0,0,0-3.43-5,5.14,5.14,0,0,0-1-.94h0a19.19,19.19,0,0,1,7.77,4.87l0,.07,2.1-.19A22.77,22.77,0,0,0,248,70.14l0,0a21.73,21.73,0,0,1,6.5,8.82,6.38,6.38,0,0,0,4,1.81,8.62,8.62,0,0,0,1.76,0l.16.06,0,.19c1,3,2.73,6.36,5.22,8.33l.68.55A20.89,20.89,0,0,0,271,97.65a6,6,0,0,0,1.5,1.14,32.24,32.24,0,0,0,1.23,10.3,10,10,0,0,0,1.74,3,232.57,232.57,0,0,1,18.17,29.77,12.88,12.88,0,0,1,1.44,5.1,2.78,2.78,0,0,1-.12,1l-2.53-2-1.38,1.3a16.82,16.82,0,0,0-9.16-4.17,7.87,7.87,0,0,0-2.42.13c-2.14,1.32-4.24,2.7-6.32,4.12a10.52,10.52,0,0,1,7.92,3.44,11.81,11.81,0,0,1,2.74,8.18,97,97,0,0,0-8.07,7.63,3.83,3.83,0,0,1-3,1.14,10.35,10.35,0,0,1-5-1.65c-2.6-1.66-5.08-3.49-7.53-5.35a12.57,12.57,0,0,0-5.35-2.2,51.56,51.56,0,0,0-8.76-.92c-5.12-.08-10.76,1-15.07,3.71L229,162.68l1.11-3.51ZM23.92,156a46.5,46.5,0,0,1,11.2-7.75l11.09-5.5.08-.14a.44.44,0,0,0-.42-.16,34.5,34.5,0,0,0-8.06,2.42,63.25,63.25,0,0,0-15.49,9.33A3.7,3.7,0,0,0,21,156h0a.89.89,0,0,0,.82,1,3.18,3.18,0,0,0,2.13-1ZM26,159.09a44.84,44.84,0,0,1,10.39-7.65l9.89-5.19a.61.61,0,0,0,.23-.25l-.08-.1c-2-.47-4.44.95-6.37,1.78a58.65,58.65,0,0,0-15,9.3,4.75,4.75,0,0,0-1.34,1.68.84.84,0,0,0,.56,1.07h.06a2.18,2.18,0,0,0,1.65-.65Zm125.56-55.83a6.36,6.36,0,0,1,5.94-6.09H161v-7H120.67v7h3.09a6.26,6.26,0,0,1,6,6l0,24.59h0v35.67a6.25,6.25,0,0,1-5.81,5.83h-3.35v9.24H190.1v-8.82a11.79,11.79,0,0,1-5.22-9.83,12,12,0,0,1,3.84-8.77l-4.56-4.49c-4.37,2.18-7.79,7-7.61,11.9l.12,3.59a5.19,5.19,0,0,1-5,5.22H151.57V103.26ZM34.67,172a20.72,20.72,0,0,1-3-5.49l-.06,0a23.37,23.37,0,0,0-3.74,2.41,10.67,10.67,0,0,0,5.57,2.91l1.22.24,0,0Zm-7.25-9.92A46.41,46.41,0,0,1,38,154.4l7.72-4.09a.21.21,0,0,0,.12-.19l0-.06a11.12,11.12,0,0,0-3.55.77,48.58,48.58,0,0,0-16.16,9.89,1.87,1.87,0,0,0-.59,1.1.67.67,0,0,0,.19.54.69.69,0,0,0,.54.21,1.82,1.82,0,0,0,1.18-.49Zm243.15,7.48a18,18,0,0,1-4.87-2.3l-.15,0a22.29,22.29,0,0,1-3.49,5.45,20.23,20.23,0,0,0,8.51-3.17ZM56.26,182.37a10.26,10.26,0,0,0,2.75-5.7l.05-.78-.25-3,0-1.6a9.14,9.14,0,0,1,1.93-4.88,3,3,0,0,0,.62-1.76,1.9,1.9,0,0,0-2-1.79,3.32,3.32,0,0,0-2.6,1.38A11.53,11.53,0,0,0,54.19,171l.11,4.83a8.39,8.39,0,0,1-1.47,5A4.42,4.42,0,0,0,52,183a1.05,1.05,0,0,0,1,1.17,4.67,4.67,0,0,0,3.22-1.79Zm191.81,5.77a13.44,13.44,0,0,1-4.46-9.7q-.08-4.53-.35-9.05a4.85,4.85,0,0,0-2.61-4,8.76,8.76,0,0,0-3.65-1.24,3.54,3.54,0,0,0-3,1.33,1.93,1.93,0,0,0-.36,1.32,5.52,5.52,0,0,0,2.1,3.88l1.57,1.23a2.56,2.56,0,0,1,1.06,1.66v.23l-.51,2.72v.24a10.07,10.07,0,0,0,2.47,6.23,15,15,0,0,0,7.56,5.15l.16,0ZM45.29,190.48a29.28,29.28,0,0,1-5-10.51.34.34,0,0,0-.09-.15A17.82,17.82,0,0,0,39,186.19a13.52,13.52,0,0,0,.9,4.95,4.92,4.92,0,0,0,1.9.34,6.63,6.63,0,0,0,3.52-1Zm214.81,1a10.92,10.92,0,0,0,.79-3.43,14.18,14.18,0,0,0-1-6.25,23,23,0,0,1-4.9,9.75l-.26.28a7,7,0,0,0,1.92.28,10.14,10.14,0,0,0,3.41-.63Zm-48,42,4-2.62,3.32,3.45,2.7-1.79-17.46-17.39-2.09,1.36,8.66,23.07a14.85,14.85,0,0,0,2.65-1.72l-1.77-4.36Zm14.57-50.93c-1.22,1.1-2.59,2.78-2.79,4.41a1.64,1.64,0,0,0,1.53,1.47l.45.05a12.38,12.38,0,0,0,6.25-1.57h0a7.45,7.45,0,0,0-1.6,3.73v.13a1.38,1.38,0,0,0,1.08,1.41,28.06,28.06,0,0,0,8.59-1.07l.06,0a7.29,7.29,0,0,0-2.12,4.15,1.39,1.39,0,0,0,.57,1.18,2.6,2.6,0,0,0,1.39.36c3.15.06,6.38-1.07,9.3-2.25l0,0a27.64,27.64,0,0,0-2.71,10.1v.35a4.86,4.86,0,0,0,1.13,3.52,2.12,2.12,0,0,0,1.56.6,2.28,2.28,0,0,0,1.82-1l3.39-5.16a11.26,11.26,0,0,1,5.08-3.91,1.39,1.39,0,0,0,.71-1.44,8.3,8.3,0,0,0-1.23-3.64l-.09,0a12,12,0,0,1-2.67.22,38.48,38.48,0,0,1-12-2.51,70.35,70.35,0,0,1-15.79-8.22,8.73,8.73,0,0,1-2.68-2.73,8.09,8.09,0,0,1-1-3.71,22.19,22.19,0,0,1,.42-5.21l0,0a85.06,85.06,0,0,1-5.66,10.24,1.45,1.45,0,0,0,.34,1.21,1.63,1.63,0,0,0,1.19.49l.25,0a12.14,12.14,0,0,0,5.1-1.19l.06,0Zm-8.83,14.92a11.65,11.65,0,0,0-4-3.4,3,3,0,0,0-1.41-.26,3.92,3.92,0,0,0-2.86,1.15,80.89,80.89,0,0,1-30.45,20,84.39,84.39,0,0,1-66.53-3,78.43,78.43,0,0,1-23.24-16.88,4,4,0,0,0-3-1.24,5.36,5.36,0,0,0-3.54,1.74l-2.62,2.71a2.08,2.08,0,0,1-1.68.5,36.11,36.11,0,0,0-3.59-.53,16,16,0,0,0-16.89,15.24,37.65,37.65,0,0,0,.56,5.42,2.48,2.48,0,0,1-1,2,15.81,15.81,0,0,0-3,3.39,3.7,3.7,0,0,0-.6,2,4.37,4.37,0,0,0,1.27,3.14A122.27,122.27,0,0,0,95.4,257a136.1,136.1,0,0,0,43.13,10.45,11,11,0,0,0,21.86,0,132.74,132.74,0,0,0,58.38-18.25,121.58,121.58,0,0,0,24.77-19.63,4.34,4.34,0,0,0,1.3-3.16,5.74,5.74,0,0,0-1.85-3.67l-2.09-2.1a2.22,2.22,0,0,1-.64-1.75l.42-2.65c1.4-8.81-6.12-17.45-15-17.92-1.78-.1-3.8.46-5.55.55a2.68,2.68,0,0,1-2.23-1.32Zm-3.51,31.53c-2.73-2.88-5.36-6-8-9l-.23-.26,0,0,5,11.28,3.22-2.09ZM86.75,218.32c.21-.34.38-.79.62-1.1l0,.05-6,18.35,2.42,1.73L96.69,219l.88-1.27c0-.19-.26-.32-.42-.43L95,215.8a92.61,92.61,0,0,0-5.34,7.7l-4.55,7.67,0,0L91,213a18.86,18.86,0,0,0-2-1.51l-.43-.28-12.84,18.3-1,1.4,2.57,1.86c2-2.74,4.07-5.57,5.85-8.48l3.67-6Zm36.05,19.15a7.31,7.31,0,0,0,.91-4.91c-.18-.88-1.22-1.35-2.1-1.61l-.16,0-2,7.63a2,2,0,0,0,1.19.28,2.58,2.58,0,0,0,2.21-1.35ZM190,223.39l12.87,14.19v-.06L197.55,228l-3.08-6.63,2.89-1.38,10.18,21.82a25.93,25.93,0,0,1-2.66,1.27l-13-14.42,0,0c2,3.4,3.95,6.91,5.61,10.48l2.79,6a24.38,24.38,0,0,1-2.92,1.39l-10.16-21.83,2.76-1.3Zm-85.61,21.23,3.11-7.54,4.39,1.77a21.27,21.27,0,0,0,1-2.52,23.74,23.74,0,0,0-2.43-1.05l-2-.83,2.81-7,5,2c.42-.74.71-1.66,1.06-2.44l.05-.11-7.94-3.2a18.57,18.57,0,0,0-1,2.33l-8.08,20,7.93,3.24a23.76,23.76,0,0,0,1.08-2.55l-5-2.07ZM119,240.19l1.23,12.54,3.1.8-1.23-12.33a5.25,5.25,0,0,0,3.66-2.38,9.78,9.78,0,0,0,1.3-7,4.26,4.26,0,0,0-3.07-3c-1.65-.49-3.31-.95-5-1.32l-6.21,23.22,3,.83.21-.23,3-11.12Zm78.32-51.72a71.76,71.76,0,0,0,22.5-48.7l0-.35c1.06-19-6.55-38-19.81-51.72a70.28,70.28,0,0,0-42.27-20.91c-2.15-.26-4.32-.42-6.48-.48a70.43,70.43,0,0,0-72.25,67.76l0,.85c-.78,18.12,6.26,36.13,18.52,49.5a70.29,70.29,0,0,0,44.41,22.42,72.71,72.71,0,0,0,7.52.4,70.39,70.39,0,0,0,47.88-18.77Zm-90.72,37.14,1.32-2.45-8.82-4.7-.57-.21-1.23,2.36c1.06.64,2.15,1.22,3.26,1.76l-9.89,18.89,2.72,1.46,10.06-18.79,3.15,1.68Zm80.3,20.09c.19-2.52-.83-5.39-1.64-7.79a33.92,33.92,0,0,0-2.71-6.28,3,3,0,0,0-1.91-1.49,1.9,1.9,0,0,0-1.66.5,2.27,2.27,0,0,0-.69,1.64v.39a21.17,21.17,0,0,0,1.36,6.72,40.48,40.48,0,0,0,2.78,6.82,3.46,3.46,0,0,0,2.24,1.85h0A2.19,2.19,0,0,0,186.9,246l0-.29Zm43.57-23.27-.33-.21-4,3.36-13.8-16.27a28.4,28.4,0,0,1-2.37,2l15.48,18.46,6.56-5.52-1.55-1.84ZM149.4,236.77l-.06,0L147.69,249h.85l3,0-2.09-12.2Zm40.81,8.4a25.73,25.73,0,0,0-1.62-8.14,28.45,28.45,0,0,0-3.57-7.58,5.59,5.59,0,0,0-4.43-2.42,5.38,5.38,0,0,0-5.54,5.21,23.11,23.11,0,0,0,1.12,7.38,45.94,45.94,0,0,0,3,7.59,7.76,7.76,0,0,0,3.72,3.61,4.55,4.55,0,0,0,1.72.34,5.5,5.5,0,0,0,5.57-5.39l0-.6ZM83.69,206.94,67.57,224.85,69.91,227l16.14-17.91-2.36-2.14Zm86.57,23-3,.63,4.6,23.61,3.11-.6-4.66-23.64ZM161,255.64l3-.36.15-.14-2.57-21,3.58-.42-.36-2.78-10.47,1.28.31,2.8,3.76-.46L161,255.64Zm-11.4,10a1.16,1.16,0,0,0,1-.48l.11-.48a1,1,0,0,0-.84-1.11l-.54-.05-.74.07v2.07l1.06,0Zm-18.58-10.85A150.56,150.56,0,0,0,133,236.43l.06,0,3,19.18,3,.4,3.35-23.87-3.17-.45-1.22,8.84-.56,9.32-.06,0-3-18.91-3.06-.38-3.35,23.86,3,.42.19-.06ZM148.58,267a1.23,1.23,0,0,1,1.13.3l1.4,2.84h1.65a15.94,15.94,0,0,0-1.84-3.55,2.08,2.08,0,0,0,1.27-2,2.34,2.34,0,0,0-2.26-2.34l-.62,0a5.07,5.07,0,0,0-2.23.46v7.44h1.5V267Zm6.14-.55a5.29,5.29,0,1,0-5.3,5.3,5.29,5.29,0,0,0,5.3-5.3Zm-8.29-10.19.81-4.72,4.79,0,1,4.64,3.22,0-5.56-24-2.54,0-4.82,24.2,2.87,0,.27,0Zm9.71,10.18a6.71,6.71,0,1,0-6.72,6.72,6.7,6.7,0,0,0,6.72-6.72Zm42.13-69.56A77.45,77.45,0,0,0,168.7,61.76a78.62,78.62,0,0,0-16.86-2.4,77.45,77.45,0,0,0-23.43,151.93,78.14,78.14,0,0,0,19.4,2.89,77.25,77.25,0,0,0,50.46-17.34Z" transform="translate(-0.17 -0.16)"/></g></g></svg>