<svg xmlns="http://www.w3.org/2000/svg" viewBox="0 0 300 300"><defs><style>.cls-1{fill:#f9b300;}.cls-2{fill:#711d38;}.cls-3{fill:#fff;}</style></defs><title>Livorno</title><g id="Слой_2" data-name="Слой 2"><g id="Слой_1-2" data-name="Слой 1"><path class="cls-1" d="M0,150A150,150,0,0,1,150,0h0A150,150,0,0,1,300,150h0A150,150,0,0,1,150,300h0A150,150,0,0,1,0,150Z"/><path class="cls-2" d="M47,47A145.21,145.21,0,0,0,4.31,150h0A145.21,145.21,0,0,0,47,253h0a145.21,145.21,0,0,0,103,42.67h0A145.21,145.21,0,0,0,253,253h0a145.21,145.21,0,0,0,42.67-103h0A145.21,145.21,0,0,0,253,47h0A145.21,145.21,0,0,0,150,4.31h0A145.21,145.21,0,0,0,47,47Z"/><path class="cls-3" d="M13.5,173.28l-.79-5.21L34.52,156l.8,5.27-4.89,2.52,1.3,8.65,5.42,1,.77,5.14Zm14.25-1.64-.9-6-8,4.19v.06Z"/><path class="cls-3" d="M29.87,150.23l.1-5.14,5,.1-.1,5.14Z"/><path class="cls-3" d="M28.37,132.18c3.05.57,4.69-1.59,5.19-4.29.33-1.77.31-4.57-2-5S28,125.79,26.46,129s-3.49,6.44-7.8,5.64c-4.7-.87-6.13-5.73-5.35-9.88.89-4.79,3.8-8.81,9.11-7.83l-.91,4.89c-2.8-.35-3.87,1.48-4.32,3.89-.3,1.61,0,3.6,2,4,1.77.33,2.2-.72,4.75-6.2.73-1.6,2.74-6.55,8-5.58,4.21.78,6.75,4.68,5.59,10.92-1,5.09-4.34,9.38-10,8.26Z"/><path class="cls-3" d="M36.27,111.2,38,106.37l4.73,1.73L41,112.93Z"/><path class="cls-3" d="M33.45,74.91l3-4.16L51.89,81.92l6.68-9.22,3.5,2.54-9.7,13.38Z"/><path class="cls-3" d="M50.37,53.86,54,50.23,70.52,66.76l-3.64,3.63Z"/><path class="cls-3" d="M85.48,54.67,80.76,58,61,43.45l4.31-3.09L79.1,50.7l.05,0L73.89,34.24l4.31-3.09Z"/><path class="cls-3" d="M96.87,21.53c6.68-2.77,12.68.59,15.33,7,2.58,6.23.72,12.85-6,15.62S93.56,43.55,91,37.33C88.32,30.91,90.19,24.3,96.87,21.53Zm7.71,18.63c4.27-1.77,4.37-6.06,2.88-9.66-1.57-3.78-4.67-6.74-8.94-5s-4.36,6.06-2.8,9.84C97.21,39,100.32,41.92,104.58,40.16Z"/><path class="cls-3" d="M119.51,14.6,132,12.7c4.14-.63,7.2,1.84,7.73,5.34.42,2.72-.37,4.92-2.77,6.35v.06c2.59.27,3.67,2.59,4.19,4.89.32,1.44.7,4.17,1.81,5.32l-5.08.78c-.84-1.36-1.12-3.61-1.66-5.41-.72-2.37-1.83-3.3-4.38-2.91l-5.08.78,1.38,9L123,37.7Zm6.68,9.68,5.56-.86c2.27-.34,3.35-1.5,3-3.83s-1.72-3-4-2.67l-5.57.85Z"/><path class="cls-3" d="M151.46,11.23l5.09.42L165,28.06h.06l1.27-15.62,4.79.39-1.88,23.28-5.12-.41L155.7,19.32h-.06l-1.27,15.59-4.79-.39Z"/><path class="cls-3" d="M194.22,18.2c6.86,2.3,9.17,8.77,7,15.35-2.15,6.39-7.9,10.16-14.75,7.86s-9.18-8.77-7-15.16C181.61,19.67,187.36,15.9,194.22,18.2Zm-6.41,19.11c4.37,1.47,7.27-1.7,8.51-5.39,1.3-3.88.9-8.15-3.47-9.62s-7.27,1.7-8.57,5.58C183,31.57,183.44,35.85,187.81,37.31Z"/><path class="cls-3" d="M236.83,52.31a5.06,5.06,0,0,0-1.38-6.4c-3.57-2.91-7.4-1-10,2.21s-3.6,7.16,0,10.07c2.43,2,5.17,1.43,7.42-.71l3.85,3.15c-4.08,4.18-9.56,4.53-14,.91-5.61-4.56-5.5-11.44-1.24-16.67s11.09-6.88,16.7-2.31c4,3.25,5.43,8.31,2.51,12.89Z"/><path class="cls-3" d="M258,63.3l3.22,4.17L248,88.67l-3.26-4.21,3-4.58L242.46,73l-5.23,1.73L234,70.59Zm-11.64,8.38L250,76.47l5-7.57,0-.06Z"/><path class="cls-3" d="M271.59,83.37,273.81,88l-17.16,8.25,4.94,10.26-3.9,1.87-7.16-14.89Z"/><path class="cls-3" d="M278.47,125.86a5,5,0,0,0,2.83-5.9c-1-4.49-5.26-5.29-9.25-4.37-3.79.88-7.22,3.46-6.18,8,.71,3.06,3.22,4.29,6.31,4l1.12,4.84c-5.79.81-10.34-2.26-11.63-7.84-1.64-7,2.65-12.42,9.22-13.94,6.76-1.57,13,1.35,14.62,8.39,1.17,5-.79,9.9-5.91,11.73Z"/><path class="cls-3" d="M288.13,140.51l.25,5.13-23.33,1.16-.25-5.13Z"/><path class="cls-3" d="M287.75,168.56c-1,7.16-6.87,10.67-13.75,9.75-6.68-.9-11.47-5.83-10.51-13s6.87-10.66,13.55-9.77C283.92,156.46,288.71,161.39,287.75,168.56Zm-20-2.67c-.61,4.57,3.05,6.81,6.91,7.32,4.05.55,8.18-.65,8.79-5.23s-3.05-6.81-7.11-7.35C272.5,160.11,268.38,161.31,267.77,165.89Z"/><path class="cls-3" d="M114.51,283.89l-4.46-1.31,4.19-14.25-5.53-1.63,1-3.36c3.09,1,6.26.75,7.72-2.47l3.55,1Z"/><path class="cls-3" d="M133.6,281.58a3.29,3.29,0,0,0,2.8,3.13c3.35.32,4.65-4,5-6.52l-.06-.07a5.84,5.84,0,0,1-5.39,2.05,7.3,7.3,0,0,1-5-2.85,7.85,7.85,0,0,1-1.27-5.25c.44-4.66,4-8,8.78-7.58,6.9.67,8.18,6.87,7.63,12.64-.54,5.57-3.62,11.68-10.1,11.06-3.95-.38-6.66-3-6.79-7Zm7.91-8.67c.2-2.12-1-4.37-3.28-4.59s-3.69,1.78-3.88,3.83.69,4.41,3.07,4.64S141.29,275.15,141.51,272.91Z"/><path class="cls-3" d="M166.46,287.51l-4.62.42-1.36-14.79-5.73.52-.32-3.49c3.23-.23,6.09-1.6,6.26-5.14l3.69-.33Z"/><path class="cls-3" d="M190.17,262.66l-9.09,2.62.56,5.26.09,0a5.81,5.81,0,0,1,3.81-2.94c4.34-1.25,7.77,1.4,9,5.52a8.29,8.29,0,0,1-5.89,10.29c-4.28,1.23-8.8,0-10.19-4.62l4.46-1.29a3.7,3.7,0,0,0,4.57,2.26,4.15,4.15,0,0,0,2.58-5.35c-.66-2.29-2.6-3.71-5-3a3.85,3.85,0,0,0-2.86,2.73l-4,1.17-1.34-12.8,12.3-3.55Z"/><path class="cls-1" d="M42.2,150A107.8,107.8,0,0,1,150,42.2h0A107.8,107.8,0,0,1,257.8,150h0A107.8,107.8,0,0,1,150,257.8h0A107.8,107.8,0,0,1,42.2,150Z"/><path class="cls-3" d="M76.82,76.82A103.14,103.14,0,0,0,46.51,150h0a103.18,103.18,0,0,0,30.31,73.18h0A103.14,103.14,0,0,0,150,253.49h0a103.18,103.18,0,0,0,73.18-30.31h0A103.18,103.18,0,0,0,253.49,150h0a103.14,103.14,0,0,0-30.31-73.18h0A103.18,103.18,0,0,0,150,46.51h0A103.14,103.14,0,0,0,76.82,76.82Z"/><path class="cls-2" d="M227.66,150A77.67,77.67,0,0,1,180,221.64V210.27a67.34,67.34,0,0,0,34.6-79.22H180V111a49.69,49.69,0,0,1,8.19,8L201,106.1a67.54,67.54,0,0,0-21-16.37V59.06a95.46,95.46,0,0,0-20.24-4.29V83.39a66.84,66.84,0,0,0-9.76-.71l-1.29,0V54.27A95.74,95.74,0,0,0,82.3,217.7l12.79-12.79A77.75,77.75,0,0,1,77.55,178h50.92v9.92a43.21,43.21,0,0,0,20.24,5.65V150h11v48.26a49.27,49.27,0,0,1-45.71-14.64H91.69A67.26,67.26,0,0,0,150,217.32a68.26,68.26,0,0,0,9.76-.71v28.64a95.76,95.76,0,0,0,86-95.25Zm-99.19,5.61H72.55c-.13-1.85-.2-3.72-.2-5.61a77.67,77.67,0,0,1,56.12-74.62V86.22A67.32,67.32,0,0,0,82.68,150h45.79v5.61Zm0-49.9v25.34H104.55A49.47,49.47,0,0,1,128.47,105.71Zm20.24,25.34V100.79l1.29,0a49.78,49.78,0,0,1,9.76,1v29.3ZM180,150h19.23A49.16,49.16,0,0,1,180,189Z"/></g></g></svg>