<svg xmlns="http://www.w3.org/2000/svg" viewBox="0 0 248.05 296.93"><defs><style>.cls-1{fill:#fff;}.cls-1,.cls-2,.cls-3,.cls-4{fill-rule:evenodd;}.cls-2{fill:#1d1d1b;}.cls-3{fill:#e32213;}.cls-4{fill:#00883e;}</style></defs><title>Lokomotiv_Moscow </title><g id="Слой_2" data-name="Слой 2"><g id="Layer_1" data-name="Layer 1"><path class="cls-1" d="M161.27,195.14h79.47l-5.8-19.49L233,176s-3.34.58-10.08-1c-8.6-2-11.25-7.59-11.86-9.27,0-.08-.1-.3-.21-.64-1.35-15.57-2.78-32.21-3.09-36.49-.64-8.55-1.27-13.62-6.34-18.69-2.1-2.1-5.84-2.84-9.49-3L158.81,4.71l-2,.65c-.18.06-18.8,5.91-28.49,5.91S95.19.8,95,.69L93.41,0l-1,1.35L82.65,14.07l10.74,6.11a12.64,12.64,0,0,1,4,6.12,5.28,5.28,0,0,1,.19,1.51c0,3.36-2.09,8.77-3.65,11.84L33,158.12c-.05.09-4.54,8.72-9.78,12.24S7.56,174.69,7.46,174.7L6,174.81,0,195.14H79.43a43.2,43.2,0,0,0,2.35,5.4h-71L11,201.8c2.9,16.55,11.87,25.58,26.64,26.9,1.72,11.22,9.42,16.78,22.92,16.54,2.77,7.21,8.54,11.08,17.18,11.5,2.92,9.54,11.57,14,25.78,13.11,3.13,8.56,6.58,14.22,10.53,17.24a12.3,12.3,0,0,0,6.7,2.64H121l.24-.08a9.17,9.17,0,0,0,6.53-2.62c3.4-3,6.51-8.73,9.5-17.42,15.37.7,24.19-3.66,26.28-12.92,9.19-.91,15-4.94,17.39-12,10.77-.41,17.83-4.06,21-10.89a23.62,23.62,0,0,0,1.59-6c15.57-1.12,24.57-9.82,26.73-25.91l.16-1.21h-71.6a44.92,44.92,0,0,0,2.48-5.63ZM61.55,170.48a8.06,8.06,0,0,1-.2-1.87c0-3.56,1.85-7.86,2.7-9.44L114.1,63.94c3.11,8.38,10.19,28.11,17.87,49.65l-36.31,4.27s-22.85,43.65-23.89,45.57-3.69,6.72.09,9.66c1.08.83,2.2,1.61,3.28,2.31H69.66c-2-.33-7.36-1.85-8.11-4.92Z"/><path class="cls-2" d="M93.28,20.39l-1.86-1.05L90,21.26l6.81,3.88a12.29,12.29,0,0,0-3.48-4.75Z"/><path class="cls-2" d="M158.32,201.84c-.23.35-.46.67-.69,1a43.37,43.37,0,0,1-63.39,12.43,35.69,35.69,0,0,1-5.13-4.55,43.28,43.28,0,0,1-6.75-9.12H12.09q4.32,24.64,26.57,26.12v.37c1.51,11.13,9,16.51,22.63,16.05,2.57,7.5,8.25,11.36,17.26,11.58,2.57,9.69,11.2,14.08,25.73,13q4.66,13.06,10.45,17.49a11.2,11.2,0,0,0,6.13,2.42l.23-.08a8,8,0,0,0,6-2.34c3.33-3,6.43-8.78,9.38-17.49v-.23c15.9.91,24.61-3.4,26.27-12.79q14.31-1.12,17.48-12h.31c10.59-.31,17.41-3.71,20.43-10.3a23,23,0,0,0,1.67-6.51c15.59-.83,24.45-9.23,26.57-25Zm-36.48,74.94a10.93,10.93,0,0,1-1.28,4.46c-.61.76-1.67.76-3.11,0-8.7-7.87-10.74-18.54-6.43-32l-4.09-2-.15-.07a48.29,48.29,0,0,0-3.33,17.18,34.07,34.07,0,0,1-11.35-.83c-5.07-1.59-8.1-4.24-9.16-7.87H100.8l.08-4-22.94.07q-8.28-.1-12.26-7.72l26,.08-.07-4.32H55q-11-2-11.81-12H81.73v-4.09L39,223.71c-12.34-2-19.68-8.09-21.88-18.31l62.67-.15a44.34,44.34,0,0,0,14.76,15.13,41.13,41.13,0,0,0,18.7,6.59l.08.07q10.56,17.15,8.47,49.74Zm5.37-.31q1.94-35.76-7.26-49.12a13.1,13.1,0,0,0,5.44,0q11.7,27.59,1.82,49.12ZM200.93,223l-.6.07H160.74v3.79l37.32.07c-.38,7.57-5.22,11.58-14.54,12.11H150.3v4.24l25.51.08a13.05,13.05,0,0,1-10,7.49l-6.28.3c-1.21,7.27-4.69,11.13-10.29,11.59l-11.44.53c2.5-13.78.23-26-6.73-36.87l.07-.07q21.47-5.34,29.6-20.59h63c-.83,9.84-8.4,15.52-22.79,17.26Z"/><path class="cls-3" d="M77,177.55H69.46s-8.71-1.31-10-6.56c-1.33-5.41,2.7-12.84,2.7-12.84s50.7-96.49,52.22-99.37c.8,1.51,10.63,28.91,19.77,54.55l47.65-5.61a52.33,52.33,0,0,1,7.88-.79C175,61.76,157.42,7.4,157.42,7.4s-19,6-29.14,6S94.08,2.65,94.08,2.65L85.84,13.42l8.73,5a14.49,14.49,0,0,1,4.92,7.28C101,30.59,95.9,40.62,95.9,40.62l-61,118.49s-4.72,9.15-10.49,13-16.75,4.7-16.75,4.7L2.87,193H78.73a43.32,43.32,0,0,1-1.81-12.39c0-1,0-2,.12-3Z"/><path class="cls-3" d="M213.29,193h24.58l-4.44-14.88s-3.55.72-11-1a19.11,19.11,0,0,1-11.13-6.64c.86,9.87,1.62,18.61,2,22.5Z"/><path class="cls-4" d="M212.31,194.07c-.71-8.15-5-57.57-5.6-65.36-.62-8.27-1.2-13.18-6-18-3.82-3.82-14.77-2.68-18.67-1.92h0L96.35,118.86c-2.61,5-22.65,43.26-23.64,45.08A11.8,11.8,0,0,0,71,169.11a3.77,3.77,0,0,0,1.55,3.13,56.82,56.82,0,0,0,4.71,3.22,43.43,43.43,0,1,1,84.4,18.61Zm-3.58-20.61a4.75,4.75,0,1,1-4.75-4.75,4.75,4.75,0,0,1,4.75,4.75Zm-15.87-59.4a7.29,7.29,0,1,1-7.28,7.28,7.29,7.29,0,0,1,7.28-7.28Zm2.4,17.23a50.63,50.63,0,0,1,9.42.87l-1.12,6a45.56,45.56,0,0,0-16.41,0l-1.93-5.79a50.13,50.13,0,0,1,10-1Zm-7.82,17.88c2.58,0,7.64,4.82,7.64,4.82s1.35,1.17,2.11,1.17,1.58-1,1.58-1l4.41-6c1.58-1.42,3.46.82,3.46.82-4.75,4.17-8.75,15.21-8.75,15.21-5.1-7.69-13.27-13-13.27-13s.24-2,2.82-2Zm.07,19.54a4.75,4.75,0,1,1-4.75,4.75,4.75,4.75,0,0,1,4.75-4.75Zm-7.4-35.09,2.91,5.44a36.57,36.57,0,0,0-7.16,2.93l-2.9-5.32a41.78,41.78,0,0,1,7.15-3Zm-81-.13L171,121.42v10.13l-71.89,1.94Z"/><path class="cls-2" d="M133.22,167.28l-6,.93a14.55,14.55,0,0,1-13.65,19.64,14.8,14.8,0,0,1-3-.31l-.83,5.28a14.6,14.6,0,0,1,10.49,10.43l5.73-1.05a14.55,14.55,0,0,1,13.75-19.34,15,15,0,0,1,2.53.22l.68-5.65a14.58,14.58,0,0,1-9.67-10.15Z"/><path class="cls-2" d="M120.35,141.67a38.94,38.94,0,1,0,38.93,38.93,39,39,0,0,0-38.93-38.93Zm-19.17,8a13.89,13.89,0,0,1,.18,2.16,14.57,14.57,0,0,1-14.54,14.57,36.6,36.6,0,0,1,14.36-16.73ZM138.84,212A14.54,14.54,0,0,1,127.28,205l-6.63,1.22c0,.22,0,.45,0,.68a14.46,14.46,0,0,1-3.92,9.91A36.39,36.39,0,0,1,92,203.42a14.55,14.55,0,0,1,14.12-11.06c.21,0,.4,0,.6,0l.92-5.8a14.56,14.56,0,0,1-8-9L95,179a14.54,14.54,0,0,1-6.62,19A36.33,36.33,0,0,1,85.24,171a14.64,14.64,0,0,1,8.15,5.42L99,174.61c0-.44-.07-.88-.07-1.33a14.56,14.56,0,0,1,13.77-14.53l-.17-5a14.63,14.63,0,0,1-6.53-6.62,36.36,36.36,0,0,1,14.32-2.93,36,36,0,0,1,12.19,2.11,14.54,14.54,0,0,1-16.91,8.58l.14,4a14.6,14.6,0,0,1,10,6.47l7-1.08c0-.25,0-.5,0-.75a14.55,14.55,0,0,1,8.1-13,36.41,36.41,0,0,1,15.5,24.43,14.43,14.43,0,0,1-9,3.17c-.48,0-1,0-1.42-.07l-.72,5.89A14.59,14.59,0,0,1,154,194.62,36.72,36.72,0,0,1,138.84,212Z"/><path class="cls-2" d="M207.78,128.63c.31,4.28,1.74,20.92,3.09,36.49.11.34.18.56.21.64a14.46,14.46,0,0,0,7.55,7.79q-.15-.35-.24-.6l-.22-.64c-1.34-15.57-2.77-32.21-3.09-36.49-.63-8.55-1.26-13.62-6.33-18.69a8.91,8.91,0,0,0-3.58-2c1.75,3.65,2.18,7.81,2.61,13.53Z"/><path class="cls-2" d="M192,107a23.3,23.3,0,0,1,5.21.73l-31-95.78-4.52,1.39L192,107Z"/><path class="cls-2" d="M93.39,20.18l-1.82-1L90,21.26l7.13,4.06a12.75,12.75,0,0,0-3.69-5.14Z"/><path class="cls-2" d="M11,201.8l-.22-1.26h71a43.2,43.2,0,0,1-2.35-5.4h-70L7.3,202.33h3.84c0-.18-.08-.35-.11-.53Z"/><path class="cls-2" d="M68.67,175.19a20.2,20.2,0,0,1,1.26-5.55c-.23-2.41,1.15-4.93,1.84-6.21,1-1.92,23.89-45.57,23.89-45.57l1.27-.15,21.71-41.32c-1.9-5.25-3.46-9.54-4.54-12.45l-50,95.23c-.85,1.58-2.7,5.88-2.7,9.44a8.06,8.06,0,0,0,.2,1.87c.65,2.65,4.73,4.14,7.12,4.71Z"/><path class="cls-2" d="M240.74,195.14H161.27a44.92,44.92,0,0,1-2.48,5.63h71.6l-.16,1.21c0,.12,0,.23-.06.35h17.88l-5.81-19.49-1.91.35a16.19,16.19,0,0,1-3.12.08l3.53,11.87Z"/><path class="cls-2" d="M103.55,269.85q-10.68.64-17.16-2.68c3.34,6.43,10.12,9.76,20.24,9.95a72.34,72.34,0,0,1-3.08-7.27Z"/><path class="cls-2" d="M203.5,227.89a23.62,23.62,0,0,1-1.59,6c-3.14,6.83-10.2,10.48-21,10.89-2.36,7-8.2,11-17.39,12-2.09,9.26-10.91,13.62-26.28,12.92-3,8.69-6.1,14.41-9.5,17.42a9.17,9.17,0,0,1-6.53,2.62l-.24.08h-.22a11.81,11.81,0,0,1-4.5-1.26,22.65,22.65,0,0,0,5.1,5.81,12.33,12.33,0,0,0,6.71,2.64h.21l.25-.08a9.15,9.15,0,0,0,6.52-2.62c3.4-3,6.51-8.73,9.51-17.42,15.37.7,24.18-3.66,26.27-12.91,9.19-.92,15-4.95,17.4-12,10.77-.41,17.82-4.06,21-10.89a23.61,23.61,0,0,0,1.6-6c15.57-1.12,24.57-9.82,26.73-25.91l.16-1.21H229c-3.43,12.26-12,19-25.51,19.93Z"/><path class="cls-2" d="M37.67,228.7a29.49,29.49,0,0,1-13.59-4.38A25.4,25.4,0,0,0,39.55,235a22.49,22.49,0,0,1-1.88-6.29Z"/><path class="cls-2" d="M77.77,256.74a22.41,22.41,0,0,1-8.88-2.11c2.57,4.87,6.82,7.86,12.7,8.91a17.5,17.5,0,0,1-3.82-6.8Z"/><path class="cls-2" d="M60.59,245.24c-5.45.1-9.94-.77-13.48-2.55,3.16,6.12,9.3,9.39,18.4,9.72a17.45,17.45,0,0,1-4.92-7.17Z"/></g></g></svg>