<svg xmlns="http://www.w3.org/2000/svg" viewBox="0 0 224.47 300.36"><defs><style>.cls-1{fill:#1d1d1b;}.cls-2{fill:#fff;}.cls-3{fill:#00632e;}.cls-4{fill:#f7a82d;}.cls-5{fill:#ffef92;}.cls-6{fill:#424344;}.cls-7{fill:#ffe809;}.cls-8{fill:#c0c0c1;}.cls-9{fill:#626366;}</style></defs><title>Ludogorets</title><g id="Слой_2" data-name="Слой 2"><g id="Layer_1" data-name="Layer 1"><path class="cls-1" d="M190.81,242c33.1-41.71,36.94-90.7,31.77-138.74s-17.86-67.43-17.86-67.43c-14.83,2.51-25.17-4.41-40.22-13.31S131.1,0,112.24,0h0C93.38,0,75,13.61,60,22.5S34.58,38.32,19.76,35.81c0,0-12.7,19.38-17.87,67.43S.56,200.27,33.67,242c40.37,50.86,78.57,58.38,78.57,58.38S150.44,292.84,190.81,242Z"/><path class="cls-2" d="M58.13,25.85,61,24.17l7.54-4.6C81.84,11.3,97,1.94,112.24,1.94S142.63,11.3,156,19.57l7.54,4.6,2.83,1.68c13,7.76,23.46,13.9,37.35,12,2.55,4.56,12.56,24.62,17,65.56a305.42,305.42,0,0,1,1.88,32.74,205.24,205.24,0,0,1-3.39,38.43c-4.79,25.24-14.55,46.88-29.85,66.15-20.59,25.94-40.55,40.24-53.67,47.68-12.66,7.17-21.53,9.49-23.38,9.93-1.85-.44-10.73-2.76-23.39-9.93C75.73,281,55.77,266.71,35.19,240.77,19.88,221.5,10.12,199.86,5.33,174.62A205.27,205.27,0,0,1,2,136.19a305.3,305.3,0,0,1,1.87-32.74c4.4-40.94,14.41-61,17-65.56C34.67,39.75,45.08,33.61,58.13,25.85Z"/><path class="cls-1" d="M105.51,127.09c-.63,1.82-1.14,3.71-1.14,3.71.68-1.66,1.71-3.71,1.71-3.71,1.88-.74,5.53-1.77,5.53-1.77.46-1.42.8-3.14.8-3.14a24.77,24.77,0,0,1,7.25.58,17.86,17.86,0,0,0-7.42-1.59A18.09,18.09,0,0,0,106,156.24S97.09,151,95.93,143.15c-1-6.8,1.37-13.74,7-17.76,0,0,.83.56,1.4.9S105.51,127.09,105.51,127.09Z"/><path class="cls-3" d="M46.35,141.59l-39.42,7-.21,0q-.33-6.07-.33-12.44a302,302,0,0,1,1.85-32.27C12,69.09,19.82,49.82,23.33,42.62c13.79.85,24.22-5.31,37.08-12.95L63.22,28l7.62-4.65c12.84-8,27.39-17,41.4-17s28.55,9,41.39,17L161.25,28l2.82,1.67c12.85,7.64,23.28,13.8,37.07,12.95,3.52,7.2,11.35,26.47,15.09,61.3q.41,3.72.72,7.34l-.19,0-33.29,5.93-.22,0a26.38,26.38,0,0,0,.94-3.39c.67-3.4.08-5.71-1.06-5.78s-3.2,3-3.2,3a79.35,79.35,0,0,0,2.21-13.07c.38-6.16,0-7.76-1-8s-2,2-4.18,7.45a104.33,104.33,0,0,1-4.41,9.58c.46-10-.08-13.15-1.44-13.22s-2.36,4.86-4.57,12.54a70.57,70.57,0,0,1-2.88,8s-.31-1-.76-1.21-.47,1-.81,2.36l0-.26c-.9-4.73-1.58-7.5-1.58-7.5-29.95-9.58-41.13-17.79-48.23-17.79h0c-6.43,0-16.19,6.72-40.17,15.09l-.29.1a40.32,40.32,0,0,1,1.65-3.86c3.27-6.69,4.94-9,3.95-9.28s-5.47,2.81-10.49,11.63c0,0,.08-2-1.64-1.94s-3.76,3.61-6.11,12.28a49.14,49.14,0,0,1-.46-7.75c.15-3.58,1.06-6.92-.08-6.77s-3.19,2.36-4.41,8.44a82.37,82.37,0,0,0-1.44,9.58s-.76-2-2.21-1.83-2.28,2.66-1.52,13.08c0,0-1.52-1.52-2.58-.61s-.3,4.94,1.14,8.82a1.19,1.19,0,0,0-1.52.23c-.5.55-.63,1.65.59,4.47Z"/><path class="cls-1" d="M103.17,135.41a29.54,29.54,0,0,0-5.53,4.79,38,38,0,0,0,2.62,6.16,26.32,26.32,0,0,0,.52,4.34s0-2.17.17-3.94a15.47,15.47,0,0,0,5.36-1.6,25.11,25.11,0,0,1,3.82,3s-1.77-2.28-3-3.65c0,0,.74-3.82,1-6.33A29.9,29.9,0,0,0,103.17,135.41Z"/><path class="cls-1" d="M109.33,137.87s2.91-1.14,5.3-2.23c0,0,3.14,1.66,5.3,2.68a24.35,24.35,0,0,0,5.14-4.56,44.62,44.62,0,0,0-2.46-5.42l-5.87.63s-2.56-1.94-4.16-3.19c0,0,1.94,2,3.7,3.88,0,0-1.42,4.16-1.82,5.3Z"/><path class="cls-3" d="M185.38,129.1a34.15,34.15,0,0,1-2.33,4.7c-.32.53-.64,1.06-1,1.56l.29-.05,35.42-6.3.19,0c0-1.85-.12-3.71-.21-5.6h-.21l-32,5.69Z"/><path class="cls-3" d="M180.19,148c-1.3,1.33-2.82,2.77-4.59,4.32,0,0,3.5-2.28,5.7-2.51s3.65,1,2.36,2.89c-.1.14-.2.29-.32.44l.25-.05,34-6,.27-.08c.08-1.85.15-3.73.19-5.62h-.25l-37.26,6.63Z"/><path class="cls-3" d="M71.43,141.55l-.13-.43c-1.14-3.77-1.11-4.05-1.54-5.59-.29-1-.63-1.14-1.25-.17a119,119,0,0,1,0-14.79A65.17,65.17,0,0,1,70.8,108l.32-.09C83.26,103.78,91.87,100,98.4,97.15s10.92-4.78,13.84-4.78h0c2.91,0,7.25,1.9,13.83,4.78a320.56,320.56,0,0,0,32.28,12.44c.39,1.77,1.11,5.18,1.92,9.75l.06.34c-.32.7-.54,1.2-.54,1.2s-1.14-1.3-3.42,1.06a49,49,0,0,0-5.11,7.19l-.06-.38-.73-4c-.33-1.91-.65-3.62-.94-5.12-12.21-4.12-20.88-7.83-27.48-10.66-3.86-1.66-8.18-3.51-9.81-3.82-1.63.31-5.95,2.16-9.81,3.82-6.6,2.83-15.28,6.54-27.49,10.66-.29,1.5-.61,3.21-.94,5.12l-.39,2.14c-.59,3.17-1.49,8-2.11,13.91Z"/><path class="cls-3" d="M48.68,153.45,8,160.68l-.31,0q.31,2.82.72,5.58l.34-.08,41.54-7.4.19,0c-2.33-2.33-3.1-4.32-2.41-5a3,3,0,0,1,1.28-.47Z"/><path class="cls-1" d="M115.69,233.1a4.37,4.37,0,0,1-1.06,1.28,3.65,3.65,0,0,1-.23,1,9.34,9.34,0,0,1-2.13,3.34c-1.29,1.37-1.74,3.72-1.9,5.85s-.39,3.29-1.67,4.18c-1.52,1.07-4.1-2.35-4.1-2.35-.76,0-1.45-1.37-1.45-3.19a3.71,3.71,0,0,1,.91-2.67s0,.38.08,1.6.68,1.29.68,1.29a.59.59,0,0,1,.61-.68c.69,0,.61-.53-.3-1.83a7.19,7.19,0,0,1-1.14-3.57c-.15-1.06-.38-2.05-.38-2.05-.38.23-1.52-.15-1.52-.15a5,5,0,0,1-.76,3.11l-.31-.76c-.3-.76-.83-2.66-.83-2.66-.76-.07-1.45-1.29-1.52-2.81s1-2.13,1.52-2.74a12.86,12.86,0,0,0,1.59-1.82,3.32,3.32,0,0,1,2.25-1.34l.1,0a11.59,11.59,0,0,1,.47-3.42,5.52,5.52,0,0,1,2.05-2.66,13.07,13.07,0,0,1,0-4,16.9,16.9,0,0,0-2.28-.15,20.93,20.93,0,0,0-2.4.14l0,.09a18.2,18.2,0,0,1-2.06,4.71c-2.13,3.65-4.48,4.94-4.71,3.34a3.44,3.44,0,0,1-1.24,1.22,3.51,3.51,0,0,1-1,.4A6.16,6.16,0,0,1,91.52,229c-1.37,1.82-2.81,2.74-3.8.61a6.08,6.08,0,0,1-2.28,1.67,2.79,2.79,0,0,1-2.36-.08s.23.92-1.37,2.89-3.8,3.27-4.18-.68c0,0-2.1-.84-2.2-2.36a15.21,15.21,0,0,1,.15-3.18v-.14l-.23.21a11.07,11.07,0,0,1-1,.76l-.11.09.15.13-.67.22-.14.1a6.54,6.54,0,0,0-2.61,2.72,2,2,0,0,0,1.07,2.66c.83.46,1.67.84,1.75,2.21s-1.07,2-.84,3.65-.76,1.75-.76,1.75a5.23,5.23,0,0,1-.69,3.42c-1,1.21-3,.53-3,.53a7.92,7.92,0,0,0,.91-1.44,1.93,1.93,0,0,0,.23-1.07c-.91.31-1.82-.45-2.36-1.22a2.4,2.4,0,0,1,.08-2.73c.61-.76.76-1.14-.08-1.6s-1.21-.91-1.82-.76a14.22,14.22,0,0,1-2.59.08,5.31,5.31,0,0,0-3,1.75c-.76.83-1.37.83-1.67,1.9a2.69,2.69,0,0,1-2.44,1.82c-1,0-1.82-.07-1.82-.07a6.92,6.92,0,0,1-.61,2.81c-1.44-.61-1.52-1.9-1.52-3.27a4,4,0,0,1,.53-2.13,4.82,4.82,0,0,1,0-1.06c.08-.46.84-.92,1.37-1.52a10.83,10.83,0,0,0,.91-1.22,6.31,6.31,0,0,1-2.81.3A2.24,2.24,0,0,1,50,235.29a13.18,13.18,0,0,0-.38,1.6A2.2,2.2,0,0,1,49,238c-1.14-.61-1.29-2.66-.84-3.81a2.33,2.33,0,0,1,1.6-1.36.85.85,0,0,1,.45-.69c-.91,0-1.59-1.14-1.59-1.14s-1,.15-1.14.84a2.86,2.86,0,0,1-.91,1.29c-1.07-1.82.53-3.88,1.29-4.41a1.4,1.4,0,0,1,1.44-.15,2.32,2.32,0,0,1,1.22-1.29,23.54,23.54,0,0,0,4-2.44,2.61,2.61,0,0,1,2.28-.83,6.49,6.49,0,0,1,3.12,1.75c1.44,1.21,3,2.13,4.1,2.13a4.1,4.1,0,0,0,1.3-.22l.19-.07c-1.09-1.8-.41-3.46.72-5.11a7.58,7.58,0,0,0,1.36-3.35,6.87,6.87,0,0,1,1.68-2.66c-.38-3.8,2.2-6,3.57-7.14s5.17-3.43,7.22-5a15.9,15.9,0,0,0,3.19-3.11s-.68-.46-2.43-1.37a3.1,3.1,0,0,1-1.67-2.74c-3.27-1.06-2.43-3.5-2.43-3.5a31.36,31.36,0,0,1-5.4-2,2.67,2.67,0,0,1-1.6-3.57c-4.18-1.68-2.66-4.57-2.66-4.57-4.18-2-6.84-4.1-7-5.7s.38-1.75.38-1.75c-4-2.51-5.4-4.71-5.32-6.08s2.5-.3,2.5-.3c-5.55-3.8-6.53-6.77-6.38-7.91s1.6-1.06,1.6-1.06c-4.11-3.12-5.6-6.12-4.72-7a4,4,0,0,1,1.67-.53c-2.73-3.27-3.49-5.17-3-7,.3-1.19,2-.69,2-.69-3.34-5.93-3.34-7.75-2.66-8.51a1.19,1.19,0,0,1,1.52-.23c-1.44-3.88-2.2-7.91-1.14-8.82s2.58.61,2.58.61c-.76-10.42.08-12.85,1.52-13.08s2.21,1.83,2.21,1.83a82.37,82.37,0,0,1,1.44-9.58c1.22-6.08,3.27-8.29,4.41-8.44s.23,3.19.08,6.77a49.14,49.14,0,0,0,.46,7.75c2.35-8.67,4.35-12.22,6.11-12.28s1.64,1.94,1.64,1.94c5-8.82,9.5-11.86,10.49-11.63s-.68,2.59-3.95,9.28S69.05,115,68.56,120.57a119,119,0,0,0,0,14.79c.62-1,1-.86,1.25.17.43,1.54.4,1.82,1.54,5.59a46.34,46.34,0,0,0,3.8,9.25,35.55,35.55,0,0,0,7.68,9.35c1.9,1.6,7.52,5.25,11.17,7.83,3.06,2.17,6.77,5.93,6.85,9.13s.07,5.62.07,5.62c.61.08,1.45-.38,3.12-1.44a7.43,7.43,0,0,1,3.34-1.14c.38-3.58,4.49-7.91,8.37-10.49s10.11-6.54,13.83-9.66c5.74-4.8,8.21-12.32,9.66-17.1S141,129.31,141,129.31a10.4,10.4,0,0,1,2.89,5.25s4-5.47,5.63-5.55,1.44.61,1.44.61a54.1,54.1,0,0,1,5.4-7.68c2.28-2.36,3.42-1.06,3.42-1.06s1.06-2.36,1.82-4,.84-4,1.3-3.8.76,1.21.76,1.21a70.57,70.57,0,0,0,2.88-8c2.21-7.68,3.2-12.62,4.57-12.54s1.9,3.19,1.44,13.22A104.33,104.33,0,0,0,177,97.38c2.2-5.47,3.19-7.67,4.18-7.45s1.37,1.83,1,8A79.35,79.35,0,0,1,179.93,111s2.06-3,3.2-3,1.73,2.38,1.06,5.78C183,120,177.65,129,177.65,129s3-2.81,5.4-4.87,3.73-2.58,3.65-.22-1.52,6.31-3.65,9.88a55.52,55.52,0,0,1-4.64,6.54,60.87,60.87,0,0,1,5.17-3.5c1.83-1,4-1.37,4,.15s-2.21,6.77-11.94,15.28c0,0,3.5-2.28,5.7-2.51s3.65,1,2.36,2.89-4.49,5.1-9.66,8.37c0,0,4.26-1.37,6.31-1.15s2.51,1.83,1.6,3.27-3.8,3.65-14.44,8.21c0,0,3.19-.15,5,.84s1.25,3-1.14,4.56a30.58,30.58,0,0,1-7.83,3s3.27.16,4.57,1.6-1.53,5.47-9,6c0,0,1.11,1.35-.76,3s-5.55,2-8.81,2.13c0,0,1.9,1.75.53,3.72s-4.11,2-7.07,1.9a79.75,79.75,0,0,1,8.59,4.24c6,3.42,14.06,8.84,14.9,12.26a18.72,18.72,0,0,1,3,3.5c1,1.67.76,3.65-1,3.65,0,0,1.07,2.05-.23,3.11s-4.1.38-4.1.38,1.44,1.68.45,3-6.76,0-6.76,0,1.37,1.3.68,2.44-4.25.91-6.76-.31a1.66,1.66,0,0,1-1.07,1.75c-1.29.61-4,.31-6.61-1.59a2.07,2.07,0,0,1-.08,2c-.68.83-4.56-.76-7.07-3.19a3.19,3.19,0,0,1-2.73-.31c-1.68-.84-4-3.5-6.09-7.14a18.63,18.63,0,0,1-1.74,4.71c-1.07,1.67-2.06.76-2.44-.69a10.63,10.63,0,0,1-1.59,5c-1.45,2-3,1.59-3.27.68a3.67,3.67,0,0,1-1.6,1.9,1.57,1.57,0,0,1-1.79-.56Z"/><polygon class="cls-2" points="92.59 41.14 89.86 41.33 90.37 27.06 101.92 26.25 101.42 40.53 98.73 40.71 99.15 28.77 93.01 29.2 92.59 41.14"/><path class="cls-2" d="M113.93,29.81l-.74,6.26c3,0,3.49-.88,3.75-3.08S116.87,29.93,113.93,29.81ZM110.5,36l.74-6.24c-2.82.07-3.34.86-3.61,3.08s.1,3,2.87,3.16m3.9-10.23-.21,1.79c4.75.29,5.92,1.89,5.5,5.42s-2,5.11-6.76,5.27l-.22,1.83-2.69,0,.22-1.82c-4.67-.29-5.73-1.89-5.31-5.44s1.86-5.09,6.58-5.26l.21-1.78,2.68,0"/><path class="cls-2" d="M129.68,41.45c-.54-5.67-1.65-7-4.06-7.62l-1.83,6.63L121.14,40l3.85-14,2.65.45-1.86,6.73a57.91,57.91,0,0,0,7.35-5.82l3.21.54a51.3,51.3,0,0,1-6.85,5.42c1.51.84,2.67,2,3.34,8.61Z"/><path class="cls-2" d="M39.56,66.53,26.89,72.76,27,73a71.84,71.84,0,0,1,4.93,18.75l.05.39,5.5-2.7,0-.21A62.33,62.33,0,0,0,34,75l3-1.45,6.38,13L48.48,84,39.81,66.41Z"/><path class="cls-2" d="M61,58.28l-5.92,2.26v.2q0,.9,0,1.92c0,2-.09,4.25-.24,6.34a69.25,69.25,0,0,0-6.08-5.91L48.67,63l-6.56,2.5.4.31A116,116,0,0,1,53.8,76.33,51.68,51.68,0,0,1,52.59,82l-.16.55,7-2.65,0-.16a150.77,150.77,0,0,0,2-21.21v-.42Z"/><path class="cls-2" d="M74.6,59.86c.14.51,2.21,8.23,2.34,8.73l-4.73,1.27a61.16,61.16,0,0,0-.79-9.14Zm4-6.41L64.92,57.11l.06.27a57.89,57.89,0,0,1,1.31,12.9c0,.38,0,.78,0,1.18l-3.15.84,3.14,9.15,5-1.35s-1-3.6-1.09-4.07l11.24-3,1.09,4.07,5-1.35-1.86-9.5-3.21.87c-.15-.53-3.69-13.72-3.69-13.72l-.27.07"/><path class="cls-2" d="M94.79,55.72c1.57-.2,2.47-.22,3,.19s.87,1.68,1.15,4c.31,2.53.37,3.86-.15,4.53s-1.32.74-2.81.92c-3.19.4-3.62.26-4.21-4.57C91.21,56.31,91.54,56.12,94.79,55.72Zm-.66-5.38h0c-3.58.44-5.77,1.4-7.12,3.12s-1.82,4.33-1.37,8,1.6,6.38,3.44,7.82,4.13,1.79,7.55,1.37c6.87-.84,9.31-4.19,8.4-11.57-.45-3.7-1.49-6.07-3.27-7.46s-4.07-1.74-7.63-1.31"/><path class="cls-2" d="M107.15,49.92l-.52,19.35,5.79.16s.38-13.93.39-14.47l8.7.24.15-5.17-14.5-.39Z"/><path class="cls-2" d="M130.41,66h0c-3.18-.54-3.55-.79-2.73-5.59.75-4.45,1.13-4.54,4.36-4s3.52.75,2.76,5.2C134,66.39,133.56,66.51,130.41,66Zm-5.18-14c-1.84,1.3-3,3.62-3.61,7.3-1.25,7.33,1,10.79,7.89,12,3.37.58,5.78.25,7.57-1s3.15-3.86,3.8-7.66.31-6.24-1-8.08-3.4-2.84-6.94-3.44-5.93-.31-7.71,1"/><path class="cls-2" d="M150.21,60.17l3.69,1.08a1,1,0,0,1,.75,1.08,4.72,4.72,0,0,1-.22,1.29,2.58,2.58,0,0,1-1,1.6,1,1,0,0,1-.77,0L149,64.2C149.17,63.75,150.08,60.63,150.21,60.17ZM146,54l-5.44,18.58,5.57,1.63s1.43-4.89,1.57-5.39l5.61,1.65a5,5,0,0,0,3.81-.36,7.65,7.65,0,0,0,3.36-4.71c1.34-4.56.25-7.39-3.23-8.4l-11.17-3.27L146,54"/><path class="cls-2" d="M164.68,59.75l-7,18,14.14,5.52,1.88-4.81-8.75-3.42c.16-.38.72-1.83.87-2.22l6.3,2.46,1.85-4.74-6.3-2.46.67-1.71,8.75,3.41L178.92,65l-14.14-5.52Z"/><path class="cls-2" d="M182.38,66.85l-8.72,17.28,13.07,6.6-1.9,3.76,4.65,2.34,4.94-8.32-3-1.5c.24-.49,6.39-12.68,6.39-12.68l-5.15-2.6L186.3,84.41l-5-2.52,6.4-12.69-5.18-2.61Z"/><path class="cls-3" d="M104.59,240a4.86,4.86,0,0,0,.54.95c.91,1.3,1,1.83.3,1.83a.59.59,0,0,0-.61.68s-.6-.07-.68-1.29-.08-1.6-.08-1.6a3.71,3.71,0,0,0-.91,2.67c0,1.82.69,3.19,1.45,3.19,0,0,2.58,3.42,4.1,2.35,1.28-.89,1.52-2.05,1.67-4.18l.06-.66.09,0c1.1.68,1.72,1,1.72,1a114,114,0,0,0,21.24-16.15l.09-.07a5.58,5.58,0,0,0,.68.41,3.19,3.19,0,0,0,2.73.31c2.51,2.43,6.39,4,7.07,3.19a2.07,2.07,0,0,0,.08-2c2.66,1.9,5.32,2.2,6.61,1.59a1.66,1.66,0,0,0,1.07-1.75c2.51,1.22,6.08,1.45,6.76.31s-.68-2.44-.68-2.44,5.78,1.37,6.76,0-.45-3-.45-3,2.81.69,4.1-.38.23-3.11.23-3.11c1.75,0,2-2,1-3.65a18.72,18.72,0,0,0-3-3.5c-.75-3.05-7.24-7.69-12.9-11.09l.11-.19a92,92,0,0,0,5.11-10.39c.78-1.86,1.48-3.73,2.12-5.61l.07-.16c6-1,8.26-4.47,7.09-5.78s-4.57-1.6-4.57-1.6a30.58,30.58,0,0,0,7.83-3c2.39-1.53,3-3.57,1.14-4.56s-5-.84-5-.84a98.18,98.18,0,0,0,10.41-5l.35-.08,38.42-6.84h.24q-.79,7.4-2.12,14.37c-4.65,24.51-14.12,45.52-29,64.22-20,25.16-39.26,39.07-51.93,46.31-10.78,6.17-18.7,8.67-21.63,9.47-2.94-.8-10.86-3.3-21.64-9.47-12.67-7.24-32-21.15-51.93-46.31A140.81,140.81,0,0,1,15.36,195.4l-.06-.12L61.68,187l.08,0a99.94,99.94,0,0,1-3.06-11.73l-.08,0-46.77,8.33v-.14c-.45-1.75-.86-3.53-1.25-5.32h.14L55,170.27l.13,0c.06,1.38,1.48,3.5,5.33,5.89,0,0-.53.16-.38,1.75A3.76,3.76,0,0,0,61.39,180l0,.12a92.84,92.84,0,0,0,4.24,12.78,96.36,96.36,0,0,0,8.22,15.5l.06.08c-.46.32-.85.61-1.13.85-1.37,1.14-3.95,3.34-3.57,7.14a6.87,6.87,0,0,0-1.68,2.66,7.58,7.58,0,0,1-1.36,3.35c-1.13,1.65-1.81,3.31-.72,5.11l-.19.07a4.1,4.1,0,0,1-1.3.22c-1.14,0-2.66-.92-4.1-2.13A6.49,6.49,0,0,0,56.78,224a2.61,2.61,0,0,0-2.28.83,23.54,23.54,0,0,1-4,2.44,2.32,2.32,0,0,0-1.22,1.29,1.4,1.4,0,0,0-1.44.15c-.76.53-2.36,2.59-1.29,4.41a2.86,2.86,0,0,0,.91-1.29c.15-.69,1.14-.84,1.14-.84s.68,1.14,1.59,1.14a.85.85,0,0,0-.45.69,2.33,2.33,0,0,0-1.6,1.36c-.45,1.15-.3,3.2.84,3.81a2.2,2.2,0,0,0,.68-1.14,13.18,13.18,0,0,1,.38-1.6,2.24,2.24,0,0,0,1.75,1.44,6.31,6.31,0,0,0,2.81-.3,10.83,10.83,0,0,1-.91,1.22c-.53.6-1.29,1.06-1.37,1.52a4.82,4.82,0,0,0,0,1.06,4,4,0,0,0-.53,2.13c0,1.37.08,2.66,1.52,3.27a6.92,6.92,0,0,0,.61-2.81s.84.07,1.82.07a2.69,2.69,0,0,0,2.44-1.82c.3-1.07.91-1.07,1.67-1.9a5.31,5.31,0,0,1,3-1.75,14.22,14.22,0,0,0,2.59-.08c.61-.15,1,.31,1.82.76s.69.84.08,1.6a2.4,2.4,0,0,0-.08,2.73c.54.77,1.45,1.53,2.36,1.22a1.93,1.93,0,0,1-.23,1.07,7.92,7.92,0,0,1-.91,1.44s2,.68,3-.53a5.23,5.23,0,0,0,.69-3.42s1-.08.76-1.75.91-2.28.84-3.65-.92-1.75-1.75-2.21a2,2,0,0,1-1.07-2.66,6.54,6.54,0,0,1,2.61-2.72l.14-.1.67-.22-.15-.13.11-.09a11.07,11.07,0,0,0,1-.76l.23-.21v.14a15.21,15.21,0,0,0-.15,3.18c.1,1.52,2.2,2.36,2.2,2.36.38,4,2.59,2.66,4.18.68s1.37-2.89,1.37-2.89a2.79,2.79,0,0,0,2.36.08,6.08,6.08,0,0,0,2.28-1.67c1,2,2.33,1.27,3.66-.43l.13.12c3.29,3.08,6.45,5.72,9.28,7.9l.16.12c0,.07,0,.14.07.19l.31.76a2.52,2.52,0,0,0,.26-.44Z"/><polygon class="cls-2" points="91.81 272.89 89.83 262.33 86.92 264.2 85.55 261.61 92.25 257.58 95.01 272.28 91.81 272.89"/><path class="cls-2" d="M106.32,262.82a5.67,5.67,0,0,0,0-1.17c-.12-1.91-.53-2.19-2.17-2.08s-2,.59-2,1.9.46,1.68,2.42,1.55A16.35,16.35,0,0,0,106.32,262.82Zm-.65,2.88c-.25,0-1.09.12-1.27.13-4.08.27-5.38-.79-5.6-4-.25-3.73,1-5,5.17-5.24,4.48-.3,5.62.78,5.87,4.55a11.64,11.64,0,0,1-2,7.41c-2.28,3.44-7,3.85-7,3.85l-.4-2.91a7.91,7.91,0,0,0,3.93-1.6,4.09,4.09,0,0,0,1.36-2.16"/><path class="cls-2" d="M119.89,259.93a50.66,50.66,0,0,0-3.42,4.89l3.14.17Zm-7.51,7.43.06-1.12c1.7-2.68,4.61-7,6.56-9.42l4.22.24-.46,8.11,1.85.1-.16,2.77-1.84-.1-.19,3.4-3.16-.18.19-3.4-7.07-.4"/><path class="cls-2" d="M139.07,259.53l-.54,2.85-6-1.14-.46,2.42c.47,0,.94.12,1.41.2,4,.76,4.93,2.19,4.33,5.37-.69,3.67-2.32,4.47-6.44,3.7a25.15,25.15,0,0,1-4.61-1.37l1.15-2.77a14.35,14.35,0,0,0,3.26,1c2.32.44,2.81.26,3.07-1.11s0-1.8-2.42-2.26a31.46,31.46,0,0,0-3.36-.42l1.54-8.19Z"/><path class="cls-3" d="M156.48,192a90.7,90.7,0,0,1-4.95,10.08l-.12.2a81.55,81.55,0,0,0-8.42-4.15c3,.08,5.7.08,7.07-1.9s-.53-3.72-.53-3.72a21.13,21.13,0,0,0,7.23-1.17Z"/><path class="cls-3" d="M111.06,241.31c.45.28.84.53,1.18.73a119.81,119.81,0,0,0,19.39-15l.06-.07a31.78,31.78,0,0,1-3.53-5,18.63,18.63,0,0,1-1.74,4.71c-1.07,1.67-2.06.76-2.44-.69a10.63,10.63,0,0,1-1.59,5c-1.45,2-3,1.59-3.27.68a3.67,3.67,0,0,1-1.6,1.9,1.57,1.57,0,0,1-1.79-.56l0,.12a4.37,4.37,0,0,1-1.06,1.28,3.65,3.65,0,0,1-.23,1,9.34,9.34,0,0,1-2.13,3.34,6.36,6.36,0,0,0-1.33,2.51Z"/><path class="cls-3" d="M64.67,182.48A87.93,87.93,0,0,0,68,192a91.56,91.56,0,0,0,8,15l.08.15c1.41-.93,2.94-1.92,4-2.71a15.9,15.9,0,0,0,3.19-3.11s-.68-.46-2.43-1.37a3.1,3.1,0,0,1-1.67-2.74c-3.27-1.06-2.43-3.5-2.43-3.5a31.36,31.36,0,0,1-5.4-2,2.67,2.67,0,0,1-1.6-3.57c-4.18-1.68-2.66-4.57-2.66-4.57-.87-.41-1.68-.83-2.41-1.25Z"/><path class="cls-3" d="M100.57,219.87q1.94,1.75,3.78,3.28l.08.09a13.56,13.56,0,0,0-.3,2.85l-.1,0a3.32,3.32,0,0,0-2.25,1.34,12.86,12.86,0,0,1-1.59,1.82c-.54.61-1.6,1.22-1.52,2.74,0,.07,0,.14,0,.21l-.11-.09c-1.87-1.56-3.83-3.3-5.83-5.2l-.07-.08a4.27,4.27,0,0,0,.24-1.13,3.51,3.51,0,0,0,1-.4,3.44,3.44,0,0,0,1.24-1.22c.23,1.6,2.58.31,4.71-3.34.21-.35.39-.69.56-1Z"/><path class="cls-2" d="M98.27,198.19a13,13,0,0,1-2.11,3C98.61,199.5,98.27,198.19,98.27,198.19ZM87.83,209.71a35.06,35.06,0,0,0,4.34-4.28c1.19-1.65,1.48-2.17,1.48-2.17a6.66,6.66,0,0,0-4.22,2.06,19.73,19.73,0,0,1,3.08-1.26,14.33,14.33,0,0,1-2.17,2.63,21.19,21.19,0,0,0-2.51,3m-5.64,9.92a6.79,6.79,0,0,0,.34-1.26c-.68-.34-2.51.23-4.22.86a5.89,5.89,0,0,1-3.93.4c-.91-.34-.91-1-.46-1.14a4.82,4.82,0,0,1,1-.12,2.77,2.77,0,0,0,3.13-.22,2.86,2.86,0,0,0,.29-3.2c-.46-1-.46-1.14.63-2.16A6.66,6.66,0,0,0,80.42,211,12.18,12.18,0,0,1,77.51,213c-1.71.8-1.71,2-1.82,3.25s-2.17,2.34-3,2.28-.91-1.37-1.31-1.43a6.41,6.41,0,0,1-1.43-.68S69.76,213,72.1,211a66.64,66.64,0,0,1,7.24-5.19,26.27,26.27,0,0,0,6.5-6.72c1.77-2.57,1-4.79,3.13-5.48a17.37,17.37,0,0,1,.12,3s3.19-3.6,6.67-3.94a13.49,13.49,0,0,1-2.28,3.82C91.71,198.65,91,200,90.8,201.1c0,0,1.94-.91,4.33-2.17a22,22,0,0,0,4.11-2.79,8,8,0,0,1-.74,3.13,27,27,0,0,1-3.14,5.59,14.72,14.72,0,0,1-1,1.48s2.57-3.19,3.71-3.82,3.93-1.71,5.3-2.45a12.77,12.77,0,0,0,2.4-1.71,3.48,3.48,0,0,1-.35,2.68,10.45,10.45,0,0,1-2,2.17,3.57,3.57,0,0,0,1.26.17,13.1,13.1,0,0,1-2.23,2.62,16.66,16.66,0,0,0-3.25,3.65s2.91-2.39,5.19-2.34a9.51,9.51,0,0,1-1.42,1.71c-1,1-1.83,1.6-1.94,2.68a11.67,11.67,0,0,1,3-1.54,12.75,12.75,0,0,1,3.14-.45s0,.45-1.32,1.54a8,8,0,0,1-2.68,1.42,8.76,8.76,0,0,0,1.32.34s0,.46-.63.63-1.48,1.43-3.54,1.83-6,.85-8.55,1.36-7.07,1.6-9.86,4a6.82,6.82,0,0,1,.34-1.2"/><path class="cls-2" d="M146.05,203.26a72.17,72.17,0,0,1,10.43,5.59c6.62,4.11,9.47,6.22,11.18,8s1.76,2.85,1.31,3.48-1,.63-4.11-.68-9.46-5.76-12-7.53-6.9-5-6.9-5a3.68,3.68,0,0,0,1.54-.63s6.62,4,10.61,6.56c0,0-6.39-4.67-10.44-7.35A7.81,7.81,0,0,0,146.05,203.26Z"/><path class="cls-2" d="M146.73,208.28s1.26.8,4.51,3.14,8.15,5.81,11.17,7.52,4.85,2.28,5.53,3.25a1.52,1.52,0,0,1-.51,2.17,6.94,6.94,0,0,1-4.73-.63c-1.88-1-6-3.93-9.35-6.15s-6.28-4.34-6.28-4.34a15.56,15.56,0,0,0,1.6-.23s3,2.17,6.84,4.62a50,50,0,0,0,7,3.71,135,135,0,0,1-13.51-9S149.07,210.56,146.73,208.28Z"/><path class="cls-2" d="M145.88,213.19s4.44,3,8.78,5.93a70.82,70.82,0,0,1,8.55,6.44c1.37,1.31,1.25,2.22-.17,2.45a11.2,11.2,0,0,1-6.44-1.2,87.7,87.7,0,0,1-12.78-8.95s3.25.74,4.05.17c0,0,6.62,3.76,9.24,5.76,0,0-6.1-4.73-9.12-6.56A8.66,8.66,0,0,0,145.88,213.19Z"/><path class="cls-2" d="M143.77,218.37a5.64,5.64,0,0,1-.12,2.11,45.32,45.32,0,0,0,6.22,5.08,67,67,0,0,1-6.73-4.62,9.77,9.77,0,0,1-5.19-2.22s1.26,2.16,6.62,5.93,6.89,4.9,10,5.93c1.5.49,2.91.39,3-.46s-.74-2.05-3.25-3.82S143.77,218.37,143.77,218.37Z"/><path class="cls-2" d="M138.46,219.8s1.37,1.69,6.56,5.59c3.65,2.73,5.65,4.27,5.82,4.79s-.29,1.36-1.26,1.59-3.53-.57-5.47-2.16a42.82,42.82,0,0,1-8.55-9.18,4.19,4.19,0,0,0,1.42.51s3.48,3.48,5.48,5.13a61.68,61.68,0,0,1-4.62-5.19S138.41,220.83,138.46,219.8Z"/><path class="cls-2" d="M131,216.89a33.31,33.31,0,0,0,4,3.31,28,28,0,0,0,3.94,5.19c2.91,3.19,4.33,4.44,4.67,5.36s0,1.65-.74,1.54a10.56,10.56,0,0,1-4-2.17,36.92,36.92,0,0,1-4.67-5.25c-1.8-2.29-3.57-4.65-4.29-6.77-.44-1.32,0-1.68.7-.47a28,28,0,0,0,5.47,7s-2.28-2.86-3.76-5.08S129.57,215.64,131,216.89Z"/><path class="cls-4" d="M75.63,217.8c.64-.58,1.55-.13,1.77-1a7.55,7.55,0,0,0-.17-2.28,2.78,2.78,0,0,1,.91.8c.29.45.51,2.16-.57,2.73S75,218.43,75.63,217.8Z"/><path class="cls-5" d="M113.89,235s-.68.45-.68.68a6.14,6.14,0,0,1-1,2.45A8.27,8.27,0,0,0,113.89,235Z"/><path class="cls-6" d="M92.22,222.19s.12,1.32.18,2.11a6.9,6.9,0,0,1-1.09,3.82c-.85,1.2-1.88,1.83-2.28,1.77s-1-.74-.8-2,.34-2.4,1-3.14,2.11-1.94,2.11-1.94a23.09,23.09,0,0,1-.74,3c-.46,1.31-.52,1.82,0,.85A46.23,46.23,0,0,0,92.22,222.19Z"/><path class="cls-6" d="M87,223.9s.28,1,.68,1.26a8.15,8.15,0,0,1-.57,3.13c-.63,1.43-2.45,2.4-3.08,2.23s-.8-1.26-.4-3.25.86-2.85,1.48-3.42,1.37-.52,1,1a25.42,25.42,0,0,1-1.08,3.37,4.19,4.19,0,0,0,1.19-1.83A23.63,23.63,0,0,0,87,223.9Z"/><path class="cls-6" d="M79,228.75c.43.65.82,1.2,1.07,1.54,0,0,0,.63-.11,1.31s-.14,1,0,.91.24-.43.47-1.14.3-1,.3-1c2-1.69,1.42-3.63,1.2-5.64,0-.32-.06-.61-.07-.87l.12.23a8.8,8.8,0,0,1,.76,4.16,16,16,0,0,1-.33,2.85c-.46,1.77-2.45,4-3,4s-1.2-.34-1.26-1.43a17,17,0,0,1,.75-5Z"/><path class="cls-6" d="M84.56,220.06c-.6,1.25-1,2.61-.43,1.79a25.68,25.68,0,0,0,1.39-2.24l.18-.31a15.73,15.73,0,0,1,2.17-.77l-.09.24a17.36,17.36,0,0,1-2.4,3.94c-1.31,1.37-1.71,2-2.39,1.59a2.7,2.7,0,0,1-1.08-1.58l-.06-.13a5,5,0,0,1,.09-.91s.12-.32,2.13-1.52c.21-.12.4-.24.6-.34Z"/><path class="cls-6" d="M90.31,218.09a7.09,7.09,0,0,0-.54,2c0,1.14-.28,1.48.52-.34a18.66,18.66,0,0,1,.95-1.94l.11-.19c.68-.14,1.32-.26,1.94-.35l0,.14a9.48,9.48,0,0,1-1.79,4.28c-1.71,2.28-3,2.79-3.42,2.45s-.57-2.45,0-4.16a14.54,14.54,0,0,1,.62-1.58l.06-.16c.4-.11.85-.22,1.34-.33l.29-.07Z"/><path class="cls-6" d="M96.07,217.06a23.41,23.41,0,0,0-1,2.45c-.39,1.26-.68,1-.17-.68.23-.75.41-1.29.54-1.65l.07-.19-1.45.21,0,.15a13.79,13.79,0,0,0-.87,3.25c-.17,1.65-.52,4.39.51,4.1.71-.2,2.68-3.53,3.25-5.24.34-1,.6-2,.76-2.57l0-.23-1.57.25Z"/><path class="cls-6" d="M100.14,216.43c-.35.77-1,2.22-1.47,3-.63,1.14-.8,1.08-.06-.74.42-1,.71-1.76.89-2.19l.07-.22-1.06.2-.28.06,0,.14A11.81,11.81,0,0,1,97,220.48a7.91,7.91,0,0,0-1.26,3c0,.28,1,.74,2.4-1.2a24.16,24.16,0,0,0,3.15-6.08l.06-.18-1,.15Z"/><path class="cls-4" d="M79.43,228.36a19.5,19.5,0,0,1-2.63-5.54l0-.15a2,2,0,0,1,.93-.76c1.14-.38.92.07,1.14,2.43a27,27,0,0,0,.78,4.27Z"/><path class="cls-5" d="M76.47,223.45a17.8,17.8,0,0,0,.62,1.74l0,.12A8.6,8.6,0,0,1,75.4,227c-.5.38-1,.76-1.56,1.14l-.19.14a2.31,2.31,0,0,1-.6-2.09c.45-1.37,1.75-1.83,3-2.06a4.66,4.66,0,0,1,.31-.84Z"/><path class="cls-6" d="M76.08,227.17a13.87,13.87,0,0,0-.16,2.78c.11,1.08.51,2.22.85,2.28s.9-2.21,1.77-4l.06-.13a17.44,17.44,0,0,1-1.22-2.24l-.15.12c-.28.3-.63.66-1,1Z"/><path class="cls-5" d="M108.87,241.92c0,1.26-.05,1.94.12,1.31a6.49,6.49,0,0,0,.22-2C109.1,239.47,108.87,240.67,108.87,241.92Zm-2.22-.68c.28.91.57.91.4.51s0-.61,0-1.42-.69,0-.4.91m1.65-4.51c-.85-.1-1.19.29-.4.35a2.78,2.78,0,0,1,1.77.68c.63.46.91.46.29,0s-.75-.91-1.66-1m1.2-1.19a3,3,0,0,1-1.77-.29c-.4-.17-.51.29.23.51a5.27,5.27,0,0,0,2.11.06c.23-.06,0-.4-.57-.28m.74,5.81a35.08,35.08,0,0,0-.74,4.68,2.4,2.4,0,0,1-1.6,2.22,1.27,1.27,0,0,1-1.08-1.08c-.06-.57-.57.4-.91.11s-.29-1.2-.17-1.77-.29-.74-.29-1.54.69-.79,1.2-.57a2.62,2.62,0,0,1,1.2,1.6c.05.51.11,1,.28.17a1.43,1.43,0,0,0-.57-1.71,4.75,4.75,0,0,1-1.31-1.48c-.17-.4-1-1.5-1.54-2.74a7.45,7.45,0,0,1-.51-2.79,4.94,4.94,0,0,0,1.25,1.65,8.22,8.22,0,0,1,1-3.31,4.49,4.49,0,0,0,.74-1,2.6,2.6,0,0,0,1.54-.4,2.94,2.94,0,0,0,1.31-1.43,5.44,5.44,0,0,0,.8,2.34s-.06,1.37-.06,2.57a10.81,10.81,0,0,0,.4,2.56,6.43,6.43,0,0,0-1,1.94"/><path class="cls-5" d="M65.68,228.29a4.72,4.72,0,0,1-2.31.29,8.27,8.27,0,0,1-3.59-2.05,13,13,0,0,0-2.68-1.94c-.8-.34-2.05.68-3.25,1.54s-2.39,1.25-3.25,1.94-.34,1.25-1.25,2.05,0,1.25.74,1.42,1.82-.39,3-1.14,1.71-1.76,2.85-3,2-.74,3.08.17a7.4,7.4,0,0,0,3.48,1.83,11.61,11.61,0,0,0,2.79.05,4.35,4.35,0,0,1-2.28.4,6,6,0,0,1-3.65-1.6,4.48,4.48,0,0,0-2.28-.91c-.63,0-1.42.57-2.16,1.77s-2.11,1.94-3.08,2.79-.52,1.32-.86,1.94-.4.86.06,1.43a2,2,0,0,0,2.22.68c1-.28,1.6-.51,1.83-1.48s.68-1.08,1.25-2,.91-.4,1.54-.34a1.66,1.66,0,0,0,1.6-.52c.57-.57.79.23,1.59.63a4.77,4.77,0,0,0,3.14.17c1.14-.28,1,.11,0,.51a8.25,8.25,0,0,1-3.37,0,4.21,4.21,0,0,0-3,.35c-1.82.74-1.71,1.36-2,2.85s-1.6,1.93-2.11,2.9-.06.75.57.8.34.69,0,1.48.57.86,1.71.8,1.42-1.14,1.71-1.76,0-1,.63-1,.91-.63,1-1.31.34-.17.69-.17.68-.52.85-.8.34-.69.63-.12.91-.34,1.14-.68.74,0,1.42.23,1.14-.06,1.77-.51.29.11,1,.79,1.25.86,1.77.46.68-.57.4.34,0,.69.28.91-.23.57-1.08,1a1.93,1.93,0,0,0-.57,2.28c.22.46,1.25,1.14,1.59,1s1.09-1.14,1.54-1.2,1.26-.34,1.26-.91a4.44,4.44,0,0,1,.23-2,2.79,2.79,0,0,0,.51-2.39c-.34-1-1.43-1.14-2.34-1.71s-.91-2.17.06-3.54a8.45,8.45,0,0,1,1.32-1.39l.14-.13c-3,.55-5-.11-6.1-1.31Z"/><path class="cls-5" d="M48.78,229.83c.2-.6,0-.74-.46-.74s-1.77,1.26-1.6,3.2a7,7,0,0,1,.86-1.43C47.86,230.63,48.55,230.52,48.78,229.83Z"/><path class="cls-5" d="M50.2,233.88c.1-.53-.51-.4-1.08-.17s-1,2.23-.29,3.59c0,0,.23-.22.52-1.59S50,234.79,50.2,233.88Z"/><path class="cls-5" d="M53.05,244.66a8.3,8.3,0,0,0,.4-2.17c0-1,.52-1.94.17-2s-1.19-.06-1.36,1.25S52.2,243.92,53.05,244.66Z"/><path class="cls-5" d="M69.3,245.86a7.18,7.18,0,0,0,.86-2.11,1.69,1.69,0,0,1,1-1.49c.46,0,.29,1,.18,1.83S70.67,245.63,69.3,245.86Z"/><path class="cls-5" d="M105.57,227c-1.18-.06-2-.28-2.63.23s-.85.86-.11.86.63.62-.29.51a1.46,1.46,0,0,0-1.59.68c-.46.52-.06.92.45.92s.46.4-.62.4a1.34,1.34,0,0,0-1.49,1.31c0,.57.29,2.05.69,2.16s.51-.05.8-.79.79-.52.91,0,.17,1.14.85,1.19.92-.28,1-1.14a7,7,0,0,1,.57-2.51c.4-.68,1.37-1.36,1.65-1.94S106.71,227,105.57,227Z"/><path class="cls-5" d="M109.44,225.9a1.73,1.73,0,0,0-2,.86c-.28.45-.4.57.17.74s1.26.57.29.57-1.83,1-1.37,1,1.77.69.85.63a2.22,2.22,0,0,0-1.94.91c-.62.63-1.59,2-1.19,2.34s1,.63,1.37.17.79-1.37,1.25-.74.74.8,1.31.8,1.37-1.31,2-2.17a3.76,3.76,0,0,0,.85-3A2.59,2.59,0,0,0,109.44,225.9Z"/><path class="cls-5" d="M113.72,227.1c-1-.16-1.26.11-1.54,1s-.29.68.51.79,1.54.12.52.18-1.37.17-1.54.57.17.34,1.08.4.8.34-.17.34a1.9,1.9,0,0,0-1.83.91,1.85,1.85,0,0,0,0,1.88c.34.69.74,2,1.14.63s1.14-1.43,1.14-.23.23,1.31.91.63a4.7,4.7,0,0,0,1.77-3.31C115.71,229.15,115.54,227.38,113.72,227.1Z"/><path class="cls-5" d="M103.68,241.69a9.88,9.88,0,0,0-.11,2.57c.17.91.91,1.77.91.91s-.28-.85-.45-1.59S103.68,241.69,103.68,241.69Z"/><path class="cls-5" d="M101.4,237.13a7.64,7.64,0,0,0,.17-2.28c-.17-.57-.34-.8-.62-.4S101,236.11,101.4,237.13Z"/><path class="cls-5" d="M105.91,233.6c-.54.18-.8.57-1.26.4s-.28.68-.17,1.54a7.5,7.5,0,0,0,.74,2,7.17,7.17,0,0,1,.4-2.05C106,234.28,106.08,233.54,105.91,233.6Z"/><path class="cls-5" d="M112.41,234.79c-.33,0-.86.58-1,1.09a9.14,9.14,0,0,0,.12,2.34,5.33,5.33,0,0,0,1-1.49C112.58,236.22,112.92,234.85,112.41,234.79Z"/><path class="cls-7" d="M71.81,219.69c-.38-.12-.68.68-.11.79S73,220,71.81,219.69Zm0-1.43c.22,1,1.31.68,1.31.68s0,.8,1.82,1.14,2.91-.22,4.33-.68a11.69,11.69,0,0,1,2.8-.51c-.52,1.48-1.37,3.19-1,4.62a13.91,13.91,0,0,1,.4,4,3.67,3.67,0,0,1-.85,2.16A53.82,53.82,0,0,1,79.4,224a10,10,0,0,1,.17-3.48,8.28,8.28,0,0,0-2,.57,3.69,3.69,0,0,0-2,2.45,4.31,4.31,0,0,0-2.8,1.54c-1.14,1.43.18,3.48.18,3.48-4.79,1.2-6.73-.68-7.07-1.94a4.72,4.72,0,0,1,1-3.53,19.82,19.82,0,0,0,1.26-2.06,7.29,7.29,0,0,1,2.39.74c1,.58,1.14.52-.06-.57a3,3,0,0,0-2.16-1s-.12-.46.45-1.54a20.08,20.08,0,0,1,1-1.77s1.74.22,2,1.31"/><path class="cls-8" d="M135.73,196.31a35.82,35.82,0,0,1,6.44,2.05,92.42,92.42,0,0,1,12.43,6.39,54.37,54.37,0,0,1,9.18,6.9c1.65,1.59,2.28,2.79,1.2,2s-6-3.94-10.38-6.67a75.08,75.08,0,0,0-12.49-6.1c-2.73-1-4.27-1.54-4.27-1.54a5.08,5.08,0,0,0-1.09-1.88A12.73,12.73,0,0,1,135.73,196.31Z"/><path class="cls-8" d="M130.25,219.69a23.8,23.8,0,0,0,3.25,4.84c2,2.57,2.8,3.82,2.74,4.28s-2.11-.17-3.25-1.26a20.21,20.21,0,0,1-3.76-5.07c-.74-1.65-1.14-2.85-.74-3.08s.28.17,1.36,2a15,15,0,0,0,2.06,2.85s-1-1.82-1.77-3.19S129.12,217.48,130.25,219.69Z"/><path class="cls-8" d="M137.61,199.9s2.91,1,5,1.88a8.91,8.91,0,0,1,3.93,2.85c.63.92.4,1.88-1,1.88a13.42,13.42,0,0,1-6.72-2.11c-3.08-1.76-4.28-2.56-3.2-2.79s2.51.86,3.71,1.65a10.65,10.65,0,0,0,2.57,1.2s-2-1.25-3.48-2.28-2.06-1.37-2.06-1.37a1.89,1.89,0,0,0-.91-1.08A3.5,3.5,0,0,0,137.61,199.9Z"/><path class="cls-8" d="M134.76,202.35a35.1,35.1,0,0,0,5.87,3.48,22.05,22.05,0,0,0,4.62,1.2s1,1.19,2.05,2.56,1.2,2.51.69,2.91-2.4.12-3.88-.63a37.62,37.62,0,0,1-7-4.61c-2.63-2.23-3.54-3.2-3.54-3.2s.06-.68.8-.11,5.13,3.65,7.64,5.07c0,0-2.4-1.54-5-3.59s-2.85-2.68-2.91-2.91S134.76,202.35,134.76,202.35Z"/><path class="cls-8" d="M133.1,204.23a49,49,0,0,0,6,5.08c3.19,2.22,5.76,3.53,6.67,4.45a8.52,8.52,0,0,1,1.77,3.42c.06.51-.29.74-1.48.62s-2.23-.79-4-2.05a78,78,0,0,1-7-5.47c-3.36-2.91-5.36-4.62-5.36-5.13s.86-.17,2,.74,8.84,6.44,8.84,6.44-3-2.39-5.42-4.5-3.53-2.85-3.53-3.25S131.85,204.52,133.1,204.23Z"/><path class="cls-8" d="M130.54,207c.94.82,4.56,4,7.75,6.55s4.34,3.31,4.79,4.68-.11,1.88-1.19,1.82-3.48-1.48-5.42-3.19-6-5.7-6.5-6.73-.12-2,.57-.91a28.62,28.62,0,0,0,6.21,5.87,45.41,45.41,0,0,1-4.27-4.39,31.19,31.19,0,0,1-3.14-4C129.11,206.06,129.63,206.23,130.54,207Z"/><path class="cls-8" d="M129.8,210.85c.93.86,3.25,3.25,5,5.07s2.79,2.68,2.85,3.37-.52,1.31-1.14,1.14a14.48,14.48,0,0,1-4.05-2.85c-1.83-1.66-3.2-2.63-3.25-3.54s.05-1.37.91-.23a36.37,36.37,0,0,0,3.71,3.54s-.29-.4-2.17-2.63S129,210.11,129.8,210.85Z"/><path class="cls-9" d="M151.07,130.17s2.33-3.48,4.33-6,3-3.19,3.59-2.45.34,2.34-.51,4.39a46,46,0,0,1-4.34,7.13s3.25-4.39,4.91-5.65,3-.75,3.13-.17c.29,1.71-.51,3.54-3.47,6.84s-7.13,7.53-7.13,7.53a3.16,3.16,0,0,0-2,0,13.61,13.61,0,0,0,3.25-4.9c.74-2.51-1.25-2.8-2.62-2.74A7.36,7.36,0,0,0,151.07,130.17Z"/><path class="cls-9" d="M159.77,134.33c-1.55,1.7-5,5.43-7.91,8,0,0,1.89,3.36-3.7,6.33a4.84,4.84,0,0,1,2,.23,73.41,73.41,0,0,0,8-6.05,21.84,21.84,0,0,0,4.56-6.1,2.71,2.71,0,0,0-.52-3C161.56,133.25,160.28,133.76,159.77,134.33Z"/><path class="cls-9" d="M137.67,155a29,29,0,0,0,8.26-1.6c2.91-1,3.71-2.28,3.71-3.36s-2.34-.57-4.45-.29-4.05.63-4.05.63,3.65-1.2,6.33-2.28,3.65-2.68,3.94-3.65.11-2.11-.74-2.11a6.46,6.46,0,0,0-3.43,1.14c-1.48.91-3,2-3,2a12.15,12.15,0,0,1,1.94-1.71,25.45,25.45,0,0,0,4.9-5.25c1.37-2,1.54-3.19.34-3.53s-2.05.11-3.47,1.93-3.2,4.05-3.2,4.05a26.21,26.21,0,0,1,2.74-4c2.17-2.79,2.68-4.45,2.79-6.27s-1.25-.91-2.79.51a38.42,38.42,0,0,0-3.65,4.34,18.53,18.53,0,0,1,.12,3.93c-.12,2.85-.06,4.62-.63,6.39s-1.14,2-2.23,3.07a10.4,10.4,0,0,0-2.39,3.54C138.12,154,137.67,155,137.67,155Z"/><path class="cls-9" d="M137.38,155.71a14.48,14.48,0,0,1-1.6,3.42,23.29,23.29,0,0,0,6.39-.22c2.26-.5,5.07-2.51,4.85-3.54s-.7-1.37-3.31-.68A39.78,39.78,0,0,1,137.38,155.71Z"/><path class="cls-9" d="M150.5,149.38s3.36-2.51,5-3.47,4.22-1.66,5.08-1.2.62,1.42-1.54,3.19-5,4.28-7.87,5.36-3.71,1.37-3.71,1.37a1.17,1.17,0,0,0-.68-.8,7.24,7.24,0,0,0,3-2A2.72,2.72,0,0,0,150.5,149.38Z"/><path class="cls-9" d="M147.64,155.31s.29,1.26-1.42,2.51a9.52,9.52,0,0,1-2.74,1.54,4.2,4.2,0,0,1,1.48,1,22,22,0,0,0,7.42-1.14c3-1.25,5.47-2.57,6.15-3.59s-.22-1.83-1.54-2a15.71,15.71,0,0,0-5.13.17A41.15,41.15,0,0,0,147.64,155.31Z"/><path class="cls-9" d="M135.44,159.7a12.94,12.94,0,0,1-3,3.25,46.7,46.7,0,0,0,5.87.4c3.08,0,4.68-1,5.53-1.88s-.4-1.42-1.31-1.77A34.3,34.3,0,0,1,135.44,159.7Z"/><path class="cls-9" d="M145,161s-.45,2-4.27,3.07a3.15,3.15,0,0,1,.79,1.83,41.46,41.46,0,0,0,6.62.4,16.93,16.93,0,0,0,6.67-2.23c.74-.57.57-1.65-.91-2.22a13.1,13.1,0,0,0-4.74-1C147.47,160.84,145,161,145,161Z"/><path class="cls-9" d="M131.85,163.52a30.08,30.08,0,0,1-3.82,3,23.77,23.77,0,0,0,5.93.91c4.28.28,6-.46,6.44-1a1.53,1.53,0,0,0-1.08-2.22A64.22,64.22,0,0,1,131.85,163.52Z"/><path class="cls-9" d="M141.43,166.77s-.74,1.2-3.31,1.6a2.4,2.4,0,0,1-.4,2.91,23.79,23.79,0,0,0,5,.74c3.88.34,6.39-.17,7.3-1s.86-2.05-.74-2.56A24.62,24.62,0,0,0,141.43,166.77Z"/><path class="cls-9" d="M127.35,167.06s-.8.34-1.66.63-1.19,1.31-1.48,1.93a61.08,61.08,0,0,0,7,1.54c3,.4,5.08.18,5.82-.57a1.34,1.34,0,0,0-.74-2.22C135.33,168.26,131,168.48,127.35,167.06Z"/><path class="cls-9" d="M124,170.37a16.28,16.28,0,0,1-1.71,3s4,1,6.56,1.43,3.93.11,4.56-.63,0-2-1.71-2.22A37.09,37.09,0,0,1,124,170.37Z"/><path class="cls-9" d="M134.36,172.25a2.45,2.45,0,0,1-1.31,3.19,50.3,50.3,0,0,0,8.15,1.25c2.8,0,4.62-.85,4.9-1.48s-.53-1.81-2.1-2.11c-2.4-.45-4.17-.68-6.9-1.19A21.8,21.8,0,0,1,134.36,172.25Z"/><path class="cls-9" d="M122.1,174a7.94,7.94,0,0,1-2.45,2.91,37.12,37.12,0,0,0,5.59,1.2c3.47.51,4.84.23,5.07-.68s-.63-1.6-3.08-2.23S122.1,174,122.1,174Z"/><path class="cls-9" d="M130.71,175.9a2.07,2.07,0,0,1,.4,1.93c-.34,1.15-3.14,1.49-3.14,1.49a3.64,3.64,0,0,1,.74,1.25,31.13,31.13,0,0,0,7,1c4.9.29,6.78-.45,7.3-.74s.17-1.82-1.26-2.57-3.31-1-6.1-1.48S130.71,175.9,130.71,175.9Z"/><path class="cls-9" d="M119.14,177.32a10.47,10.47,0,0,0-2.11,1.77,11.21,11.21,0,0,0,3.36,1.94,9.92,9.92,0,0,0,5.76.63c1.2-.35,2-1.32,1-1.94a10.73,10.73,0,0,0-4.22-1.37A25.23,25.23,0,0,1,119.14,177.32Z"/><path class="cls-9" d="M116.68,179.43s-.28.74-1.14,2.68a7.43,7.43,0,0,0-.79,2.11,16.54,16.54,0,0,0,3.25,1.14,19.94,19.94,0,0,0,3.82-.11c.85,0,1.19-1.37.74-1.94s-.57-.91-2.63-1.83A12.43,12.43,0,0,1,116.68,179.43Z"/><path class="cls-9" d="M123.24,182.62a4.52,4.52,0,0,1,.06,2.11,34.88,34.88,0,0,0,5.19,1.37,21.29,21.29,0,0,0,7.41.29c1.2-.17,1.77-1.31.57-2.45s-1.37-1.49-4.33-1.94l-3.65-.57s-.46.62-2.23.91A21.29,21.29,0,0,1,123.24,182.62Z"/><path class="cls-9" d="M123,185.36a10.13,10.13,0,0,1-3.54.74s.29,1.14,2.28,2.17a21.35,21.35,0,0,0,6.5,2.34c2,.22,3.37-.52,3.71-1.09s-.29-1.59-1.54-2.11a39.69,39.69,0,0,0-4.34-1.19C123.93,185.65,123,185.36,123,185.36Z"/><path class="cls-6" d="M145.88,191.92a54.83,54.83,0,0,0,6.61-.23c3-.34,4.5-.86,5.47-1.77s1.14-2.56-1.08-2.51-8.84.23-12.94-.11l-4.11-.34h11.24c5.75,0,9.57-.06,12.42-1.09s3.71-2.39,4-2.9.4-1.43-1.14-1.94a18.5,18.5,0,0,0-6.39-.86c-2.85.06-8.38.74-11.57,1l-4,.29a15.78,15.78,0,0,1-2.17.57,28.72,28.72,0,0,1-6,.51,5.38,5.38,0,0,0,2.05.91c1.48.4,5,.46,10.15.46a100.75,100.75,0,0,0,10.09-.46c1-.11.8.12-.68.4a69.48,69.48,0,0,1-9.87.63c-4.05,0-8.15.17-9,.06a7.28,7.28,0,0,1-1.54-.4s1,1.14.86,1.82-1.25,1-3,1.26l-1.71.28s2.34.46,7.07,1,6.33.91,1,.57-9.12-.91-9.12-.91a2.79,2.79,0,0,1,.45,1.54c-.11.62-.17.68,3.65,1.14l5.25.63a26.75,26.75,0,0,1-5.13-.23,32.4,32.4,0,0,1-4.45-.69,7.93,7.93,0,0,1-2.57.92s1.54.57,1.89,1.19c0,0,1.53.12,6.27.86s6.1.85,7.47.8,2.39.34-.4.34a46.14,46.14,0,0,1-7.59-.69c-3.93-.51-5.58-.68-5.58-.68a1.76,1.76,0,0,1,.22,1s2.63.17,3.43,1.42a24.75,24.75,0,0,1,3.25.74,16,16,0,0,0,5.75,1.09c2.4-.06,4.39-.63,5-1.6a2.37,2.37,0,0,0-.28-2.68C148.44,192.37,145.88,191.92,145.88,191.92Z"/><path class="cls-6" d="M142.8,177.83s1.88,1.32,1.77,3c0,0,4.84-.35,10.32-.86s8.78-.91,12.65-2.34,5.42-2.73,5-3.93-3.08-1.77-5-1.77-3.48.34-9.69,1.94-8.55,2.22-11.63,2.22a4.77,4.77,0,0,1-1.83,1s1.2.63,6.79.29a75.63,75.63,0,0,0,13.11-1.94c2.06-.57,2.11-.11-1.37.74a71.63,71.63,0,0,1-13,2.11A24.89,24.89,0,0,1,142.8,177.83Z"/><path class="cls-6" d="M148.73,167.29A46.85,46.85,0,0,0,162,163.58c4.33-2,9.18-4.62,9.18-4.62a69.6,69.6,0,0,1-9.52,5.36,66.45,66.45,0,0,1-11.75,3.54c2.17.62,1.6,2.33,1.6,2.33s4.28-1,9.24-2.62a54.15,54.15,0,0,0,7.52-2.91,42.64,42.64,0,0,1-4.79,2.28,83.68,83.68,0,0,1-12.08,3.77A11.14,11.14,0,0,1,150,172a37.3,37.3,0,0,0,7.3-1.31,84.47,84.47,0,0,0,12.26-4.51c3.42-1.42,2.11-.57-1.94,1.26a73.72,73.72,0,0,1-14.14,4.67,65.26,65.26,0,0,1-7.53,1.14c1.6,1,.92,2.28.92,2.28a35,35,0,0,0,7.58-1.31c4.22-1.19,10.72-2.79,13.51-3.87s9.07-3.88,10.89-5.19,3.25-2.8,2.45-3.82-2.62-.8-4.27-.4a45.38,45.38,0,0,0-6.67,2.51,18.91,18.91,0,0,1,3.7-3.42,54,54,0,0,0,6.84-5.31c1.66-1.71,2.79-3,2.29-3.82s-2.08-.85-5.54.92c-4.56,2.33-8,4.27-8,4.27a97,97,0,0,0,9.86-8.49c3.48-3.71,6.33-7.3,6.84-8.73s.63-1.82,0-2.11-2.79,1-5.7,2.91-6.27,5.36-9.69,8-4.62,3.37-4.62,3.37,5.87-4.79,8.32-7.42a54.08,54.08,0,0,0,6.85-9.06c2.79-4.39,3.64-6.61,4.1-8.38s.63-2.45.23-2.8-1,.29-3.65,2.63a47.61,47.61,0,0,0-6.79,6.84c-1.93,2.56-3.93,5.76-6.44,8.27a26,26,0,0,1-4,3.42,39.37,39.37,0,0,0,6-6.45,91.88,91.88,0,0,0,7.76-12.71,57.35,57.35,0,0,0,4.5-10.89c.52-2.34.8-4.39.06-5s-2.62,1.71-3.54,3.31-2.5,4.79-4.16,7.24a64.89,64.89,0,0,0,3.82-11.12,70,70,0,0,0,2.06-14.82c-.12-2.4-.32-4.07-1.43-1.48-1.37,3.19-3.54,8.43-5.87,13.45S168,118.54,168,118.54a72.25,72.25,0,0,0,2.91-9.3,61.4,61.4,0,0,0,1-10.66c-.11-2.51-.22-3.48-.79-3.7s-1.26,1.76-2.06,4.56-1.71,7.12-3.3,11.29-1.77,4.39-1.77,4.39a8.64,8.64,0,0,1,.68,2.9l-.05,1.14a43,43,0,0,0,3.13-8.49c1.2-4.79,1.77-7.64,1.77-7.64A60.82,60.82,0,0,1,167,115a43.68,43.68,0,0,1-5.87,11s1.94-.17,2.05,1.37a83.72,83.72,0,0,0,4.22-7.25,89.43,89.43,0,0,1-4.39,8.73,7.45,7.45,0,0,1-1.82,3.76,2.8,2.8,0,0,1,1.42.46,134.22,134.22,0,0,0,8.56-13.69,80.48,80.48,0,0,0,5-10.89,72.67,72.67,0,0,1-5.82,13.69,128,128,0,0,1-7.13,11.51,5.55,5.55,0,0,1,.23,3.37,83.55,83.55,0,0,0,8.21-10.55l3-4.85a54.83,54.83,0,0,1-6.05,10.1,86.66,86.66,0,0,1-6,7A20.77,20.77,0,0,1,159.1,143a35.17,35.17,0,0,0,10.38-8.78,85.9,85.9,0,0,0,8.21-12.77,53.64,53.64,0,0,1-7.87,13.22,44,44,0,0,1-10.6,9.41s2.45-.68,2.91.57-.8,3.54-8.61,8.15a12.88,12.88,0,0,1,2.39-.05,95.94,95.94,0,0,0,9.69-6.1,56.54,56.54,0,0,0,7.82-7s-4.39,5.53-8.56,8.44a79.36,79.36,0,0,1-7.75,4.79s2.11.23,2.39,1.6a47.35,47.35,0,0,0,6.1-3.08,38.16,38.16,0,0,1-6,3.59s.4,2.23-6.61,4.79a65.08,65.08,0,0,0,9.69-4.33c4.5-2.57,12.71-8.67,12.71-8.67a63.64,63.64,0,0,1-11.46,8.55,81.92,81.92,0,0,1-10.77,5.53s2.39.69,3,1.77c0,0,7.53-3,11.52-5.24a95.89,95.89,0,0,1-11.4,5.87s-.06,1.37-2.28,2.28S148.73,167.29,148.73,167.29Z"/><path class="cls-6" d="M159,126.63a7.19,7.19,0,0,0,1-5.18,37.37,37.37,0,0,0,2.62-5.54c.4-1.59.74-1.59,1.14.29s.8,3.08-.68,5.47-2.86,4.39-2.86,4.39A3.14,3.14,0,0,0,159,126.63Z"/><path class="cls-6" d="M141.54,131.42a49.28,49.28,0,0,1-1,8.1A48.17,48.17,0,0,1,137,150.64a26.79,26.79,0,0,1-9.92,11.8c-6.33,4.39-11.69,7.87-14,9.75s-4.62,5.19-5.13,7.81a18.33,18.33,0,0,0-2.91,1c-1,.51-2.39,1.14.06,1.08s2.74-.51,3.08-1.08.4.23.68,1,.8,1.2.69,2.22l-.12,1a8,8,0,0,0,3.08-.4,4.83,4.83,0,0,1,1.54-.57s1.08-2.62,1.65-4.05a7.77,7.77,0,0,1,2.86-3.25,15.14,15.14,0,0,0,4-5.3c1.37-2.68,1.32-4.39,2.63-4.5s2.85-1.49,4.5-2.8a31,31,0,0,0,4.68-4.27,29.59,29.59,0,0,0,3.47-7,10,10,0,0,1,3-4.79c1.88-1.82,1.94-3.36,2.17-5.25a30.33,30.33,0,0,0,.11-7.92A7.28,7.28,0,0,0,141.54,131.42Z"/><path class="cls-6" d="M105.17,182.68c1.31,0,2.33.06,2.79-.4,0,0,1,.86,1,1.6a3.19,3.19,0,0,1-.4,1.42,12.22,12.22,0,0,1-2.28,1.2c-.57.23-.8.06-1.31-.4s-.69-1,.74-1.54,2.11-1.31.34-.51-2.4,2-2.28.8S103.68,182.68,105.17,182.68Z"/><path class="cls-6" d="M105.74,188.9c-1.2,0-3.54,1.82-3.54,1.82a4.78,4.78,0,0,0-2-.06v-1.93a2.2,2.2,0,0,0-1.2-1.89c.46-1.36-.29-1.71-1.08-1.82s-.12-.91.39-1.08a24.39,24.39,0,0,1,3.43-1c1.14-.23,2.22-.12,1.71,1.19a3.93,3.93,0,0,1-1.32,1.83s1.77-.46,2.57.28A5.32,5.32,0,0,1,105.74,188.9Z"/><path class="cls-6" d="M113.15,186.5c-.41-.09-.57.57-1.26.51s.23.46.86.52S114.18,186.73,113.15,186.5Zm2.74,0c.17,1-.35,1.83-1.94,2a8.1,8.1,0,0,1-2.91-.23s0,1.08-1.48,1.08a14,14,0,0,1-3.14-.45c-.34-.92-.11-1.66,1.14-2.28l1.6-.8a6.88,6.88,0,0,0,3-.17,18.18,18.18,0,0,0,2.28-.74s1.31.62,1.49,1.59"/><path class="cls-6" d="M96.67,185.36c-.74,0-3.82,2.09-4.79,3.25a8.67,8.67,0,0,0-2.22,6s3.42-3,7.3-2.79c0,0,1.76-.91,2.22-1.25s.29-1.14.06-1.94-.35-1.09-2-.8A10.26,10.26,0,0,0,91.71,191a4.62,4.62,0,0,1,2.74-2.74c2.22-.91,3.59-1.2,3.76-1.43s.57-1-.11-1.25A4.1,4.1,0,0,0,96.67,185.36Z"/><path class="cls-6" d="M91.88,199.9A17.07,17.07,0,0,1,94,196.59c1.43-1.76,2-2.79,3.31-3.82s2.84-1.93,3.76-1.48c1.88.91,1.31,2.79.34,2.85s-3,1.94-5,3.37a21,21,0,0,1-3.08,1.76s1-1.31,2-2.39Z"/><path class="cls-6" d="M102.49,191.18a9.27,9.27,0,0,1,2.68-1.54,13.16,13.16,0,0,1,3,.45c.4.06.4,1.54.34,2.34s-1.08.8-1.88,1.71-1.48.8-1.48.8,0-1-.92-1.08a8.63,8.63,0,0,0-1.42,0A3.77,3.77,0,0,0,102.49,191.18Z"/><path class="cls-6" d="M98.72,200.13a11.33,11.33,0,0,0,1-3c.06-1,.12-1.48.12-1.48a5.35,5.35,0,0,1,2.85-1.31c1.37,0,1.94.46,2,1.94s-.4,2.51-1.14,2.85-1.48.68-2.79,1.37a27.48,27.48,0,0,1-2.51,1.14s1.48-1.71,2.4-2.62a8.53,8.53,0,0,0,1.42-1.94Z"/><path class="cls-6" d="M100.15,182.45s-2.57.4-3.48,1.83a16.19,16.19,0,0,0-2.45-1.54,1.57,1.57,0,0,0-.51-1.88,4,4,0,0,1-1.43-3.14c-.17-1.48-.68-2.91-.68-3.88s.17-.68.68-1,.34-.39-.85-.85a31.62,31.62,0,0,1-5.31-2.57,8.24,8.24,0,0,0-3-1.31,7.65,7.65,0,0,0-2.22-2.22c-1.09-.51-.91-1-2.17-2.28s-1.2-1.88-2.51-3.48-1.25-2.11-1-2.68.4-.4-.92-1.37-3-1.31-4-3-.8-2.11-1.42-3.6-.63-2.79-.17-3,.09-2.06-.4-3.54a10,10,0,0,1-.06-5.24c.4-2.05,1-2.45,1.43-.63a52.48,52.48,0,0,0,4.1,12.15c2.51,4.79,5.15,8.72,10.61,12.48s8.78,6.16,11.06,8a12.64,12.64,0,0,1,4.39,6.55A35,35,0,0,1,100.15,182.45Z"/><path class="cls-6" d="M66.5,140.23a4.44,4.44,0,0,0-1.13-.65,60.85,60.85,0,0,1-.8-7,129.88,129.88,0,0,1,.06-14.19c.13-2.8.4-9,2.22-13.12a41.34,41.34,0,0,1,5.82-8.78c1.94-2.22,3.59-3.7,4-3.59s.17.57-.92,2.34a57.75,57.75,0,0,0-5.19,11.23,62.63,62.63,0,0,0-2.9,18.3c-.06,5,.34,11,.34,11a13.2,13.2,0,0,0-.8,4.39,58.34,58.34,0,0,1-.74-7.87c-.23-5.3-.11-16.14.57-20.36a89,89,0,0,0-1.25,15.17C65.83,137,66.5,140.23,66.5,140.23Z"/><path class="cls-6" d="M64.11,136a117.38,117.38,0,0,1-.34-14.31,89.13,89.13,0,0,1,1.43-13.8c.57-2.56,1-4,.68-4.84s-1.25-.86-2.11.45a64.82,64.82,0,0,0-3.59,8.84,39.89,39.89,0,0,0-1.42,10.55,45.16,45.16,0,0,0,.39,6,6.81,6.81,0,0,1,1.71,1.66s0-9,.57-13.23c0,0,.12,5.36.12,9.18a41.91,41.91,0,0,0,.17,5S62.58,132.91,64.11,136Z"/><path class="cls-6" d="M58.81,115.12a33.75,33.75,0,0,1-.8-8.33c.18-4.39.75-6.21.29-6.27s-1.77,1.77-2.45,3.65a60.89,60.89,0,0,0-2.17,10.32,41.7,41.7,0,0,0,.23,11,26.25,26.25,0,0,0,3.7,11.86s-.51-2.46.63-2.4c0,0-3.82-7-2.91-17.39,0,0,0,10.61,3.48,16.54,0,0-1.82-3.88-.34-5.14A47.6,47.6,0,0,1,58.81,115.12Z"/><path class="cls-6" d="M51.57,116.83c-.63-.63-1.82-.17-1.94,1.19a72,72,0,0,0,.17,8.79c.29,3.82,1.54,6.21,2.91,9.29a79.14,79.14,0,0,0,4.68,8.15,3.93,3.93,0,0,1,0-2.34,37,37,0,0,1-4.61-9.75,30.81,30.81,0,0,1-1.37-8,37.37,37.37,0,0,0,2.45,9.52,53.6,53.6,0,0,0,3.93,7.87s.52.06,1,.06a6,6,0,0,1-1.31-3.31A24,24,0,0,1,54,130.63a53.24,53.24,0,0,1-1.37-10C52.46,118.6,52.2,117.45,51.57,116.83Z"/><path class="cls-6" d="M62,158.28A38.13,38.13,0,0,1,54.36,152,36.5,36.5,0,0,1,48,143c-1.26-2.51-1.83-4.85-1.26-5.19s1.31-.29,2.17,1.08,5.81,8.78,5.81,8.78-1.14-2-3.59-5.81a29.59,29.59,0,0,1-4-8.73c-.63-2.28-.74-4.44-.34-4.67s1.6.34,2,1,1.48,3.37,4,8.39a82.31,82.31,0,0,0,5.36,8.95,1.92,1.92,0,0,0-.74,1.14,57.37,57.37,0,0,1-4.28-6.62c-1.88-3.47-2.91-5.58-2.91-5.58a67.94,67.94,0,0,0,3.94,8.09c2.11,3.54,3.3,5.19,3.3,5.19a8.37,8.37,0,0,0,1.83,3.71s-2.85-2.8-3.88-4.11a40.09,40.09,0,0,0,4.22,5.08,9.7,9.7,0,0,0,.57,1.31,59.64,59.64,0,0,1-6-6.27,31.17,31.17,0,0,1-3.42-4.68,39,39,0,0,0,4.67,6.9,35.11,35.11,0,0,0,4.91,4.85A19.2,19.2,0,0,0,62,158.28Z"/><path class="cls-6" d="M61.66,158.73a36,36,0,0,1-7.52-6.21c-3.31-3.71-4.62-5.53-5.36-6.1s-1.49.11-1.43,1a14.48,14.48,0,0,0,4.22,7,44.2,44.2,0,0,0,11,7.53,4.05,4.05,0,0,1-.8-1.77,38.67,38.67,0,0,1-8.38-6.1s4.16,3,8.32,5.53A3.07,3.07,0,0,1,61.66,158.73Z"/><path class="cls-6" d="M65.43,164.61a10.11,10.11,0,0,1-2.23-1.71,33.37,33.37,0,0,1-7.41-4.28c-3.59-2.79-5.36-4.22-6.1-4.5s-1.2,0-.74,1.36,2.22,3.43,4.45,5.14a75.93,75.93,0,0,0,12.25,7.29,5.11,5.11,0,0,1-.85-2s-7.93-4-12.77-8a88.09,88.09,0,0,0,12.77,7.35A.77.77,0,0,1,65.43,164.61Z"/><path class="cls-6" d="M66.17,168.71a44.76,44.76,0,0,1-7.36-3.82c-4.27-2.68-5.64-3.53-6.44-3.13s-.34,1.88.85,3.3a24,24,0,0,0,6.45,5.31,40.65,40.65,0,0,0,10.72,4.44,4.13,4.13,0,0,1-1.49-1.76,66.47,66.47,0,0,1-8.72-4.17,21.47,21.47,0,0,1-3.48-2.62,50.94,50.94,0,0,0,12,5.87s0-.79.29-.91A18.45,18.45,0,0,1,66.17,168.71Z"/><path class="cls-6" d="M73.47,176.92a27.7,27.7,0,0,1-2.68-1.54,21.75,21.75,0,0,1-7-1.88c-3.82-1.71-5.36-2.62-6.56-3.08s-1.42.17-1,1.09,1.54,2.33,5.08,4.33,8.44,4.73,14.37,5a17.49,17.49,0,0,1-2.17-1.71,46.6,46.6,0,0,1-9-3.2,50.92,50.92,0,0,1-4.67-2.62s7,3.71,13.28,4.85A1.21,1.21,0,0,1,73.47,176.92Z"/><path class="cls-6" d="M76.26,181.71a28.58,28.58,0,0,1-8.84-2.28c-5.36-2.17-6-2.79-6.5-1.94s.46,2.11,2.11,3.14a33.93,33.93,0,0,0,7.3,3.53,37.31,37.31,0,0,0,9.92,2.51,8.84,8.84,0,0,1-3.36-2,30.12,30.12,0,0,1-7.19-2,20.47,20.47,0,0,1-5.93-3.36s6.27,3.87,12.38,4.33C76.15,183.65,75.4,183,76.26,181.71Z"/><path class="cls-6" d="M80.36,187.19a31.19,31.19,0,0,1-7.18-1.49c-4-1.31-5.53-2.16-5.59-.79s1,2,3.65,3.13a35.91,35.91,0,0,0,12,2.79s.23-.51.4-.57a6,6,0,0,1-1.82-.91s-6-.45-9.35-2.34c0,0,5.64,1.66,8.55,1.66A2.16,2.16,0,0,1,80.36,187.19Z"/><path class="cls-6" d="M83.16,191.41s-1.71.28-5.87-.8-7-2.51-6.85-1.31.57,1.65,2.63,2.62a22,22,0,0,0,7.58,1.71,27.54,27.54,0,0,0,3.82.06s-1.14-.35-1.43-.92c0,0-6.44-.22-9.8-1.88a40.26,40.26,0,0,0,9.69,1.31S82.76,191.92,83.16,191.41Z"/><path class="cls-6" d="M87.15,194.14a20.06,20.06,0,0,1-4.79.29c-3.08-.12-5.3-.69-5,.34s1.26,1.48,2.51,1.88a13.45,13.45,0,0,0,4.11.74h2a5.09,5.09,0,0,0,.57-1.42,18,18,0,0,1-5.7-.46,35.28,35.28,0,0,0,5.76-.17A7.22,7.22,0,0,1,87.15,194.14Z"/><path class="cls-6" d="M85.44,198a22.49,22.49,0,0,1-2.91,0c-1.37-.12-2.56-.57-2.39.23s1.71,1.65,3.36,2.56c0,0,.51-.68.8-1.14,0,0-1.54-.45-2-.68,0,0,1.82.17,2.56.17A4.34,4.34,0,0,0,85.44,198Z"/><path class="cls-6" d="M118.17,187.87c-.78-.21-1.37.17-.69.46S118.79,188,118.17,187.87Zm.34-1.6a17.79,17.79,0,0,1,1.82,2.34c.35.74-1,1-2.51.8s-1.71-1.08-1.71-1.08a2.73,2.73,0,0,0,0-2.8,5.07,5.07,0,0,0,2.4.74"/><path class="cls-6" d="M115.6,188.9a6.35,6.35,0,0,1-4,.17,3.19,3.19,0,0,1-2.45,1,11.73,11.73,0,0,1,.34,1.89s2.85-.23,4.11,1.36a3.76,3.76,0,0,0,2.33-.91c1-.91,1.37-1.82,1-2.39A4.51,4.51,0,0,0,115.6,188.9Z"/><path class="cls-6" d="M117.48,191.23a4,4,0,0,0,.29-1c0-.28.51-.11,1.59-.17a3.65,3.65,0,0,0,1.49-.28,8,8,0,0,1,2.73,1.65,1.45,1.45,0,0,1-1.19,2.34,23.07,23.07,0,0,1-4.68-.34c-1-.12-1.71-.29-1.71-.29a8.47,8.47,0,0,0,1.2-1.14,25.83,25.83,0,0,1,3.82.23c.74.23,1.14-.23-.63-.51S117.48,191.23,117.48,191.23Z"/><path class="cls-6" d="M115.6,193.57a6,6,0,0,1-1.88.46,18.06,18.06,0,0,0-1,1.94c-.29.74-.51,1.31.68,1.42a30.5,30.5,0,0,0,3.43.57c.91-.06,1.59,0,2.1-.45s1-1.09.06-2.17S117.14,194.08,115.6,193.57Z"/><path class="cls-6" d="M112.58,194.26c.21-.68-.17-1-1.2-1.43a3.8,3.8,0,0,0-2.11-.11s.12.74-1,1.25-1.54,1.31-2.16,1.6a1.3,1.3,0,0,0-.75,1.19c0,.29,1.83-.17,2.46-.68s.68.11-.06.51a19.09,19.09,0,0,1-2.4.92s1.2-.12,1.2.28,1.71-.06,2.74-.4A4,4,0,0,0,112.58,194.26Z"/><path class="cls-6" d="M104.88,202.75a7.24,7.24,0,0,0,1.88-4.05,12.65,12.65,0,0,0,2.45-.68,5.41,5.41,0,0,1-.57,3A4.23,4.23,0,0,1,104.88,202.75Z"/><path class="cls-6" d="M102.77,206.57s1.31-1.42,2.34-2.45a6.25,6.25,0,0,1,3.71-1.71c1.71-.34,2.05.57.74,2.39a4.56,4.56,0,0,1-3.37,2.23c-1.08.23-1.08-.4-1.65-.46A16.4,16.4,0,0,0,102.77,206.57Z"/><path class="cls-6" d="M121.87,189.35a33.43,33.43,0,0,0,6.73,2.06,16.09,16.09,0,0,1,1.83,1.31c.62.57.85,1.42-.4,1.42s-1.89-.4-3.6-1.31A32.81,32.81,0,0,1,121.87,189.35Z"/><path class="cls-6" d="M108.82,201.67a7,7,0,0,0,1-2.4c.22-1.31.74-1.54,1.59-1.54s3,.4,3.65,1.32a1.76,1.76,0,0,1-1.14,2.85C112.24,202.18,110.47,201.55,108.82,201.67Z"/><path class="cls-6" d="M111.1,202.58a3.88,3.88,0,0,1-.46,1.94,15.32,15.32,0,0,1,2.51,1.6c1,.85,1.88,1.65,2.51,1.42s1-.34.62-2.56a6,6,0,0,0-1.08-3S114.52,203.09,111.1,202.58Z"/><path class="cls-6" d="M115.66,198.65a4,4,0,0,1,.11,2.79,8.12,8.12,0,0,0,2.4,1.82c1,.35,1.42.57,1.59-1.08s.12-3.36-.74-3.48S116.68,198.93,115.66,198.65Z"/><path class="cls-6" d="M121.7,196.42c-.45-.35-.8-.17-.17.52s1.43,1.25,1.31.85A3.46,3.46,0,0,0,121.7,196.42Zm-1.94,1.2s1.09-2.05-.17-3.08c0,0,1.88.17,2.68.17s1.66,1.64,2.17,2.8a1.94,1.94,0,0,1-.8,2.73c-.63.12-1.71-1-2.45-1.54s-1.43-1.08-1.43-1.08"/><path class="cls-6" d="M124.67,192.49a1.7,1.7,0,0,1-.4,1.31s3,2.22,3.82,3.08a5,5,0,0,1,1,1.14,38.79,38.79,0,0,0-5.25-3.82s-.45.11-.8.23a5.91,5.91,0,0,1,2.17,2.79c.28,1.26.57,1.71,2.51,2.51s3.19.57,2.85-.91a7.33,7.33,0,0,0-2.79-4.22A26.78,26.78,0,0,0,124.67,192.49Z"/><path class="cls-6" d="M128.6,194.54s3,.4,4.33,1.6,2.06,2.11.69,2.39a8.94,8.94,0,0,1-2.51.17,8.24,8.24,0,0,0-.86-2,5.85,5.85,0,0,0,1.66.57c.51,0-.06-.34-.8-.74a10.42,10.42,0,0,0-1.2-.57A10.7,10.7,0,0,0,128.6,194.54Z"/><path class="cls-6" d="M134.25,196.65a6.36,6.36,0,0,1,2.05,1.25c.57.69,1.14,1.6,0,1.43s-2.22-.46-2.22-.46S135.9,198.3,134.25,196.65Z"/><path class="cls-6" d="M128.26,200.64a3.11,3.11,0,0,0,2.17-.23,25.2,25.2,0,0,1,2,1.83c.74.8.34,1.4-.46,1.48-1.19.11-2,.51-2.33.29A6.44,6.44,0,0,0,128.26,200.64Z"/><path class="cls-6" d="M133.05,200.13c-.69-.49-.8,0-.06.4S134.42,201.1,133.05,200.13Zm-1.83-.91a13.11,13.11,0,0,0,2.34-.12,6.37,6.37,0,0,1,1.6,1.2c.51.63-.57,1.65-1.43,1.65s-1.48-1.31-3-1.82c0,0,.63-.4.51-.91"/><path class="cls-6" d="M125.46,199.22a9.39,9.39,0,0,1,2.86,2.68c.62,1.08,1.53,2.9.17,3.25a4,4,0,0,1-4-1.14,6.78,6.78,0,0,1-1.2-3.08s1.25,0,1.48-.63a9.83,9.83,0,0,1,1.48,2.57c.35,1.14,1,1.14.46-.35a10.89,10.89,0,0,0-1.37-2.51Z"/><path class="cls-6" d="M120.39,198.93s.17,2.17.11,3.42a1.5,1.5,0,0,0,1.66,1.71c.91,0,.91-.45.74-1.76l-.17-1.32S121.53,200,120.39,198.93Z"/><path class="cls-6" d="M120.05,203.55s-.46.74-.8.8,0,2,0,2a11.17,11.17,0,0,0-.91-2.11,13.65,13.65,0,0,0-2-1.36,5.22,5.22,0,0,1,.8,2.45c.06,1.37,1.48,4.22,2.22,4.27s1.54.57,1.49-2.05S120.73,204.23,120.05,203.55Z"/><path class="cls-6" d="M121.36,204.58s.17,1.76.17,2.62,1,1.31,1.54,1.77,1,1.36,1.43.05a4.17,4.17,0,0,0-.06-3.59,7.56,7.56,0,0,0-1-1.54S123.24,205,121.36,204.58Z"/><path class="cls-6" d="M125.35,205.6a23.41,23.41,0,0,0,.86,3c.4.91,2.22,2.39,2.68,1.31a3.6,3.6,0,0,0-.18-3.14c-.51-1.19-1.65-1.08-1.36-.34s.45,2.11-.06,1.08a4,4,0,0,0-1.31-1.76A.72.72,0,0,0,125.35,205.6Z"/><path class="cls-9" d="M96,184.73a22.87,22.87,0,0,0-3.87,2.63,10.26,10.26,0,0,0-3.37-1,25.39,25.39,0,0,0-1.62-2.28c-.19-.23-.18-.51.38-.44a18.52,18.52,0,0,0,3.18.15,8.25,8.25,0,0,0,2.8-.57A4.89,4.89,0,0,1,96,184.73Z"/><path class="cls-9" d="M85.5,180.23c-1.14,0-1.77.51-.92,1.54s1.14,1.08,3.37,1.37a10.4,10.4,0,0,0,5.19-.52c.57-.39.62-.68,0-1.36s-1.32-1.49-2.11-1.43A33.42,33.42,0,0,1,85.5,180.23Z"/><path class="cls-9" d="M91.54,178.29a2.42,2.42,0,0,0-.46-1.88c-.4-.4-1-.17-2.73.11a37.12,37.12,0,0,1-5.59.12,5.18,5.18,0,0,1-1.71-.17,2.57,2.57,0,0,1,.8,2.05s2.11.28,2.39,1.14c0,0,2.34-.06,4.28-.23S91.48,179.2,91.54,178.29Z"/><path class="cls-9" d="M78.65,172.48a1.9,1.9,0,0,1,.12,1.48,6.79,6.79,0,0,1,2.11,2,22.07,22.07,0,0,0,5.87.06c3.25-.4,4.06-.74,4.16-1.94s-.33-1.64-1-1.71c-1.09-.11-1.31.59-4.68.63C80.25,173.05,78.65,172.48,78.65,172.48Z"/><path class="cls-9" d="M75.4,168.71a2.35,2.35,0,0,0,1.2,2c1.31.91,2.91,1.54,6.39,1.65s5.19-.11,5-.68-1.14-1-2.68-1.77-2-1-3.54-.91a19.61,19.61,0,0,1-4.1-.17C76.26,168.66,75.4,168.37,75.4,168.71Z"/><path class="cls-9" d="M71.7,163.75a6,6,0,0,0,2,2.91,5.74,5.74,0,0,0,3.14,1.43,25.7,25.7,0,0,0,4.33.22c.85,0,1.25-.34.17-1.08a6.92,6.92,0,0,0-3.31-1.6,7.82,7.82,0,0,1-4-1.14C72,163.41,71.58,163.12,71.7,163.75Z"/><path class="cls-9" d="M70.16,160.22c0,.45.17,1.42,2.39,2.73s3.88,2,5,2,1.31-.11.57-1.08A4.39,4.39,0,0,0,75,161.76a10.12,10.12,0,0,1-3.42-1.26C70.61,160,70.16,159.48,70.16,160.22Z"/><path class="cls-9" d="M75.12,161c.62.12.68-.46,0-1.37a4.88,4.88,0,0,0-2.85-2.28c-2-.86-4.62-2.34-4.62-1.54s.68,1.48,1.14,2.11A15.87,15.87,0,0,0,75.12,161Z"/><path class="cls-9" d="M74.09,157.25c-.06-.4-.8-1.14-2-1.77a7.25,7.25,0,0,1-2.51-2.39A6.58,6.58,0,0,0,67,151.38c-1.25-.63-2-1.08-1.48.34A7.32,7.32,0,0,0,68.22,155C69,155.48,74.21,158,74.09,157.25Z"/><path class="cls-9" d="M65.25,145.34c-.94-.8-1.19-.12-1.08,1a5.25,5.25,0,0,0,1.54,3.19,8,8,0,0,0,2.85,1.89c.46.11,0-.86-.34-1.83A9.38,9.38,0,0,0,65.25,145.34Z"/><path class="cls-9" d="M65.43,140.72c-1.19-.67-1.66.23-1.14,1.76s1.08,1.72,2,3,1.71,1.14,1.94.63-.35-2.4-.74-3.31A4.61,4.61,0,0,0,65.43,140.72Z"/><path class="cls-9" d="M60.24,130.63c-1-1.33-1.6-1.09-1.83-.18s.46,2.57,1.6,5a34.47,34.47,0,0,0,3.31,5.19,2.13,2.13,0,0,1,.57-.85,41.48,41.48,0,0,1-3.6-6.84s3,5.41,3.88,6.5a9.38,9.38,0,0,0-.45-2.8A43.22,43.22,0,0,0,60.24,130.63Z"/><path class="cls-9" d="M63.49,145.85a5.59,5.59,0,0,0-1.2-1.2,18.87,18.87,0,0,1-3.48-4.39,6.75,6.75,0,0,1-.62-4.16c.22-.34,1-.37,2.22,1.42s2.85,3.94,2.85,3.94a13.67,13.67,0,0,0,1,2.45,3.2,3.2,0,0,0-.75.68C63.26,145,63.49,145.85,63.49,145.85Z"/><path class="cls-9" d="M63.32,146.53s-1.43-1.31-2.68-2.68-2.11-1.65-2.57-1.31S57.9,145,58.7,146a19.68,19.68,0,0,0,5.76,4.62s.28-.57.62-.63a27.74,27.74,0,0,1-4.67-4.16,20.49,20.49,0,0,0,3.65,2.74A11.12,11.12,0,0,1,63.32,146.53Z"/><path class="cls-9" d="M67,155c-.35.34-.12,1-.12,1a34.36,34.36,0,0,1-6-3.37c-2-1.42-2.57-2.9-2.57-4.22s1.14-.74,2.68.63a21.79,21.79,0,0,0,3.71,2.51,5.85,5.85,0,0,0,.74,1.65A16.59,16.59,0,0,0,67,155Z"/><path class="cls-9" d="M67.08,157a41.89,41.89,0,0,1-3.93-2.11c-1.94-1.2-2.86-1.77-2.51-.57A8.69,8.69,0,0,0,63,158.11a22.34,22.34,0,0,0,7.53,4.22,3,3,0,0,1-1.31-2.91A5.53,5.53,0,0,1,67.08,157Z"/><path class="cls-9" d="M70.56,163.18a24.4,24.4,0,0,1-5-2.39c-2.11-1.43-3.08-2.06-3.08-1s.75,2,3.25,4.1a18.57,18.57,0,0,0,8.5,4.11A13.28,13.28,0,0,1,72,166.26a23.36,23.36,0,0,1-5.64-3.48,31.54,31.54,0,0,0,5.13,2.57A3,3,0,0,1,70.56,163.18Z"/><path class="cls-9" d="M74.55,168.77a12.41,12.41,0,0,1-4.73-1.48c-2.8-1.43-4.22-2.68-4.11-1.2s.86,2.22,3.14,3.88A24.32,24.32,0,0,0,78,173.73a2.31,2.31,0,0,0-.12-1.48,12.73,12.73,0,0,1-2.33-1.2A14.47,14.47,0,0,1,68.33,168s3.48,2.45,6.9,2.57A2.56,2.56,0,0,1,74.55,168.77Z"/><path class="cls-9" d="M78.14,174.41a28.81,28.81,0,0,1-4.73-1.25c-2.28-.86-4.14-2.33-3.94-.91.18,1.19,1.09,2.05,3.43,3.36,3.18,1.79,6,2.74,8,2.68a3.53,3.53,0,0,0-.69-1.65,31,31,0,0,1-5.7-1.31,46.2,46.2,0,0,0,4.79.57S79.45,175.27,78.14,174.41Z"/><path class="cls-9" d="M83.44,179.94a6.06,6.06,0,0,0-2.62-.85,21.1,21.1,0,0,1-5.3-1.37c-1.43-.63-1.54-.34-1.48.34s.85,1.54,3.13,2.85a20.63,20.63,0,0,0,6,2.06,6.17,6.17,0,0,1-2.68-.17c-2.11-.4-3.59-1-3.59.11s1.31,1.65,2.28,2.34a10.81,10.81,0,0,0,5.64,1.19l2.91-.05a9.62,9.62,0,0,0-1.08-1.88l-.63-.8a4.38,4.38,0,0,1-2.11-1.54C83,180.74,83.44,179.94,83.44,179.94Z"/><path class="cls-9" d="M91.43,187.76a13.06,13.06,0,0,0-1.89,3,18,18,0,0,1-3.82-.46c-1.82-.45-4.1-1.71-4.39-2.39s-.79-1,1.09-.86a27.51,27.51,0,0,0,6.27,0A10.23,10.23,0,0,1,91.43,187.76Z"/><path class="cls-9" d="M89.2,191.23a4.79,4.79,0,0,1-.8,1.71c-.51.57-1.59.46-2.85.35s-1.76-.69-1.59-1.6.4-1,2.16-.68A12.16,12.16,0,0,0,89.2,191.23Z"/><path class="cls-6" d="M131.62,194.65s2.17.18,2.8.86.57.74,0,.74h-.63A6.7,6.7,0,0,0,131.62,194.65Z"/><path class="cls-6" d="M102.89,209.82s1.93-1.77,2.16-2.11.74-.17,1.49-.34.11.74-.75,1.31S103.86,209.19,102.89,209.82Z"/><path class="cls-6" d="M106.48,208.8a11.72,11.72,0,0,1,2.79-2.51c1.31-.69,2.62-.46,2.51.51a4.31,4.31,0,0,1-1.88,2.79,2.75,2.75,0,0,1-2.17.52s-.28-.69.63-1.31a6.14,6.14,0,0,0,1.37-1.26,7.92,7.92,0,0,1-1.77,1.08C106.93,209.08,106.48,208.8,106.48,208.8Z"/><path class="cls-6" d="M106.31,211.65a4.66,4.66,0,0,1,1.82-1c1.08-.29,1.71.22,2.8.85s1,1.2-.8,1.6a21.85,21.85,0,0,1-5,.51c-.23-.11.45-.68.51-.85a8.75,8.75,0,0,1,2.62-.4,3.31,3.31,0,0,0-1.31-.17C106,212.22,105.34,212.33,106.31,211.65Z"/><path class="cls-6" d="M106.14,214.15a6.54,6.54,0,0,0-2.51.69,15.92,15.92,0,0,0,2.51,0c1.19,0,1.76.4,2.45-.17S108.19,214,106.14,214.15Z"/><path class="cls-6" d="M112.58,206.74a2.87,2.87,0,0,1-1,2.34c-1.14,1-.63,1.71,0,2s2.11,1.31,2.22-.23.69-2.73,0-3.25S112.58,206.74,112.58,206.74Z"/><path class="cls-6" d="M116.86,207.2a1.46,1.46,0,0,1-2.11,1.08,21.94,21.94,0,0,0-.23,2.45c0,.92,1,2.17,1.71,1.77a3.47,3.47,0,0,0,1.25-2.74A6.19,6.19,0,0,0,116.86,207.2Z"/><path class="cls-6" d="M114.18,212.22s.68,1,1.42,1.19.57,2.11.06,3.94-1.31,2.16-1.83,2.16-.68-.85-.22-2,.91-3.08.22-3.82a16.05,16.05,0,0,1-.62,3.25c-.46,1.26-.23,2.28-1.2,2.28s-1.43-1.77-1.43-2.85a4.15,4.15,0,0,1,1.26-3.13A3.66,3.66,0,0,1,114.18,212.22Z"/><path class="cls-6" d="M117.71,214.38c-.11,1.2-.23,1.66,0,1.66s.23-.86.23-1.83C117.94,212.9,117.82,213.19,117.71,214.38Zm.46-4.84s.51,2,.91,3.08a6.6,6.6,0,0,1-.8,4.44c-.57.52-1.88.69-1.77-1.19s.29-3,.29-3a4.17,4.17,0,0,0,1.37-3.36"/><path class="cls-6" d="M110.36,214a11.76,11.76,0,0,0-.52,2.57c0,.91-.74,1.65-1.42,3s-1.37,1.43-1.37-.74.06-2.91,1-3.19A9.25,9.25,0,0,0,110.36,214Z"/><path class="cls-6" d="M121.53,208.62s-.28,1.37-1,1.66a2.47,2.47,0,0,1-1.71-.29,7.37,7.37,0,0,1,.86,2.51c.05,1.08,0,2.91.62,2.91s1.66-1.65,2.06-3a12.27,12.27,0,0,0,.39-2.91A14.68,14.68,0,0,1,121.53,208.62Z"/><path class="cls-6" d="M116.51,217.92a7.38,7.38,0,0,0-.34,2.22c.06,1,.74,2.62,1.26,2.45s1-.85,1-2.79,1-.68.4,1.25-.57,2.74-.11,3.25,1.42,1.14,2-.74,1.09-2.85.57-4.79a6,6,0,0,0-1.76-3,3.86,3.86,0,0,1-1.43,2.11C117,218.72,116.51,217.92,116.51,217.92Z"/><path class="cls-6" d="M123.3,210.16a29.14,29.14,0,0,1-.57,3.14c-.23.63.28,1.65.57,2.74s.63,1.54,1.31-.06a15.74,15.74,0,0,0,.85-5.47c0-1.49-.34-1.32-.74-.52S123.3,210.16,123.3,210.16Z"/><path class="cls-6" d="M122.21,214.33s-.79,1.36-1.53,1.65a8.06,8.06,0,0,1,1.19,3c.12,1.37.8,1.94,1.43,1.2s.4-2.17-.12-3.25A22.64,22.64,0,0,1,122.21,214.33Z"/><path class="cls-6" d="M123.41,220.94a.88.88,0,0,1-1.37.11s-.05,3.48-.11,4.85a5.82,5.82,0,0,1-.68,2.85c-.29.29.45-3.13.17-5.87,0,0-.63,2.39-1.2,2.68l-.57.28s0,1.14-.17,2.85,0,2.63.63,2.74,2.16-.74,2.73-2.85A30,30,0,0,0,123.41,220.94Z"/><path class="cls-6" d="M125.46,214.9a12.39,12.39,0,0,1-.79,2.5,6.73,6.73,0,0,0-.57,3c0,1-.12,3.65.34,4.79s1.2,2,1.88.68a15.19,15.19,0,0,0,1.2-5.64,31.21,31.21,0,0,0-.52-5c-.17-.86-.74,0-.79.85a45.87,45.87,0,0,1-.46,6c-.34,1.08-.11-1.08-.11-3.42S125.64,215,125.46,214.9Z"/><path class="cls-6" d="M106.08,221.33a6.66,6.66,0,0,0-1.14,3.51,1.31,1.31,0,0,0,1.08,1.47c.29.13,1.09-.38,1.54-.83a3.72,3.72,0,0,0,.8-2.81c-.11-1.28-1.14-2.11-1.43-.51s-.62,1.91-.51.51S107,220.24,106.08,221.33Z"/><path class="cls-6" d="M109.92,218.61a3.6,3.6,0,0,0-1.15,3.73c.27,1.58-.54,2.72.07,2.85a2.89,2.89,0,0,0,2.42-.57c.54-.63,1.55-2.47,1.15-3.67s-1.35-1.71-1.55-.38-.81,2.59-.54.76S110.59,218,109.92,218.61Z"/><path class="cls-6" d="M116,222.19c-.62-1-1-1.49-1.65.32s-1.14,2.3-.8.62,1.77-3,.85-3-1.08.81-1.59,2.37-1.43,2.73-1.14,3.23,1.42.44,2.22.44,1.25.24,1.82-.75S116.86,223.56,116,222.19Z"/><path class="cls-6" d="M126.15,209.71a7.37,7.37,0,0,0,1.94,1.25c.68.17.62,1.31-.12,2.11s-2.33,1.77-2.16.51A10.09,10.09,0,0,0,126.15,209.71Z"/><path class="cls-6" d="M128.54,214.33c.05.62,1,2.45.69,3.25s-1,1.71-1.37-.35-.29-2.51.06-3.13S128.49,213.58,128.54,214.33Z"/><path class="cls-6" d="M115.78,226.75a13.74,13.74,0,0,0,.62-1.31,4.22,4.22,0,0,1,.85-1.31v3.71c0,1.94.4.8.57-.8a19.08,19.08,0,0,0,.12-2.79c.23.57.74,1.42,1,1.42s0,.63,0,2.34,0,3.25-.74,4.22a1.32,1.32,0,0,1-2,.4l-.16-.18a4,4,0,0,0,.25-1.27c.06-1.62.26-3.25-.64-4.16Z"/></g></g></svg>