<svg xmlns="http://www.w3.org/2000/svg" viewBox="0 0 253.76 300"><defs><style>.cls-1{fill:#f5c400;}.cls-1,.cls-2,.cls-3,.cls-4{fill-rule:evenodd;}.cls-2{fill:#e42313;}.cls-3{fill:#0057a5;}.cls-4{fill:#fff;}</style></defs><title>Lyon</title><g id="Слой_2" data-name="Слой 2"><g id="Слой_1-2" data-name="Слой 1"><path class="cls-1" d="M126.88,300c-9.22-11.5-17.18-19.48-26.15-24.79a84.51,84.51,0,0,0-29.19-10.42c-11.77-1.93-21.53-1.74-30.38-2.32-8.49-.55-15.7-1.57-25.38-6.09-2.86-1.34-8.47-3.93-11.58-8.16A21.77,21.77,0,0,1,0,235V0H253.76V235a21.77,21.77,0,0,1-4.19,13.22c-3.12,4.23-8.72,6.82-11.59,8.16-9.67,4.52-16.88,5.54-25.37,6.09-8.85.58-18.61.39-30.38,2.32A84.63,84.63,0,0,0,153,275.21c-9,5.31-16.93,13.29-26.14,24.79Z"/><polygon class="cls-2" points="4.28 84.59 126.88 84.59 249.48 84.59 249.48 4.28 126.88 4.28 4.28 4.28 4.28 84.59 4.28 84.59"/><path class="cls-3" d="M126.88,293.05c-18.39-22.55-37-29.69-54.48-32.62-22.3-3.74-39,.81-57.17-9.37-2.15-1.21-6-3.05-8.48-7.25-1.5-2.52-2.47-6-2.47-10.69V88.87h245.2V233.12c0,4.68-1,8.17-2.48,10.69-2.5,4.2-6.32,6-8.47,7.25-18.19,10.18-34.88,5.63-57.17,9.37-17.47,2.93-36.1,10.07-54.48,32.62Z"/><path class="cls-1" d="M210.83,67.22l5.36-.59c.6,3.93,2.57,5.89,5.93,5.89a5.87,5.87,0,0,0,3.9-1.21,3.74,3.74,0,0,0,1.43-3,3.13,3.13,0,0,0-.5-1.78,3.59,3.59,0,0,0-1.51-1.2,45.75,45.75,0,0,0-4.93-1.58,17.5,17.5,0,0,1-5.14-2.13,8.29,8.29,0,0,1-2.58-3,8.59,8.59,0,0,1-1-4,8.46,8.46,0,0,1,1.23-4.51,7.84,7.84,0,0,1,3.4-3,12.59,12.59,0,0,1,5.36-1c3.2,0,5.69.8,7.49,2.4a9.21,9.21,0,0,1,2.84,6.89l-5.49.27a4.37,4.37,0,0,0-5-4.44,5.82,5.82,0,0,0-3.41.86,2.55,2.55,0,0,0-1.2,2.13,2.59,2.59,0,0,0,1.09,2.12,16,16,0,0,0,5,1.88,21.65,21.65,0,0,1,6,2.33A8.16,8.16,0,0,1,232,63.61a10.37,10.37,0,0,1,1,4.7A9.26,9.26,0,0,1,230.27,75q-2.67,2.72-8.32,2.72-10,0-11.12-10.53Zm-10.94,10V46.53h5.23V77.2Zm-5.31,0h-6l-2.39-7H175.27l-2.25,7h-5.87L177.8,46.53h5.84L194.58,77.2ZM184.42,65.07l-3.76-11.39L177,65.07Zm-83,12.13V46.53h6.22l13,20.48V46.53h6V77.2h-6.43l-12.76-20v20ZM73.2,61.85q0,5.29,2.07,7.93a6.29,6.29,0,0,0,5.14,2.65,6.22,6.22,0,0,0,5.12-2.62c1.35-1.76,2-4.44,2-8.07s-.66-6.19-2-7.89a6.53,6.53,0,0,0-10.38,0q-2,2.57-2,8Zm-5.4.21a21.19,21.19,0,0,1,1.67-9,12.3,12.3,0,0,1,4.38-5.28A11.87,11.87,0,0,1,80.39,46a11.37,11.37,0,0,1,9.08,4.12Q93,54.24,93,61.87t-3.71,12a11.05,11.05,0,0,1-8.86,3.83,11.14,11.14,0,0,1-8.9-3.79Q67.79,69.6,67.8,62.06ZM48.73,77.2V64.29L39.22,46.53h6.14l6.11,12.13,6-12.13h6L54,64.34V77.2Zm-25.92-.11V46.66H28.2V71.92H40.37v5.17ZM213.49,41.62V10.94h19v5.19H218.64v6.8h12.83V28.1H218.64v8.35h14.28v5.17Zm-24.3-30.56h5.14V27.67a39.77,39.77,0,0,0,.19,5,5.27,5.27,0,0,0,7.93,3.47A4,4,0,0,0,204,34a26.67,26.67,0,0,0,.42-6v-17h5.16V27.17a42.34,42.34,0,0,1-.67,8.92,7.57,7.57,0,0,1-3,4.46,10.3,10.3,0,0,1-6.2,1.71,11.56,11.56,0,0,1-6.23-1.42,8,8,0,0,1-3.26-4q-1-2.57-1-9.45V11.06ZM177.88,34.23c1.32-1.81,2-4.46,2-7.93s-.66-6.26-2-8a6.27,6.27,0,0,0-10.17,0c-1.32,1.73-2,4.38-2,8s.66,6.34,2,8.08A6,6,0,0,0,172.65,37a5.25,5.25,0,0,0,2.11-.44,14.53,14.53,0,0,0-3.19-1.92L173,31.09a16.86,16.86,0,0,1,4.86,3.14ZM182,37.72a16.64,16.64,0,0,0,4.12,2.6l-1.89,4.37A11.29,11.29,0,0,1,182,43.56q-.25-.15-3.47-2.74a12.31,12.31,0,0,1-5.78,1.32,11.13,11.13,0,0,1-8.94-4.07q-3.4-4.07-3.41-11.79t3.43-11.8a11.22,11.22,0,0,1,9-4.06,11.07,11.07,0,0,1,8.92,4.07q3.41,4.06,3.41,11.79a24.37,24.37,0,0,1-.75,6.45,16.18,16.18,0,0,1-2.39,5Zm-31.79,3.9V10.94h5.14V41.62ZM131.61,16.13v8.71h2.85a12.76,12.76,0,0,0,3.9-.4A3.49,3.49,0,0,0,140.05,23a4.6,4.6,0,0,0,.66-2.53,4.68,4.68,0,0,0-.68-2.58,3.39,3.39,0,0,0-1.68-1.4,15.47,15.47,0,0,0-4.23-.36Zm-5.14,25.49V10.94h8.29a25.75,25.75,0,0,1,6.05.44,6.8,6.8,0,0,1,3.75,3,10.93,10.93,0,0,1,1.48,6A11.29,11.29,0,0,1,144.77,26a7.4,7.4,0,0,1-3.19,3.16c-1.28.6-3.47.91-6.59.91h-3.38V41.62Zm-36.68,0,3.77-30.68h8.07l4.83,20.93,4.8-20.93h8.09l3.42,30.68h-5l-3.43-24.15-5.3,24.15h-5.21L98.58,17.47,95.16,41.62Zm-14.6-.15V28.57L65.84,10.8h6l6,12.14L83.8,10.8h5.93l-9.4,17.81V41.47Zm-25.32.15V11.19H55V36.45H67.16v5.17ZM26.13,26.26q0,5.29,2,7.94a6.16,6.16,0,0,0,10.1,0q2-2.62,2-8.07c0-3.55-.64-6.18-1.94-7.88a6.36,6.36,0,0,0-10.21,0q-2,2.57-2,8Zm-5.31.21a21.49,21.49,0,0,1,1.65-9,12.24,12.24,0,0,1,4.3-5.28,11.5,11.5,0,0,1,6.44-1.74,11.13,11.13,0,0,1,8.94,4.12q3.45,4.13,3.45,11.74t-3.66,12a10.76,10.76,0,0,1-8.71,3.83,10.87,10.87,0,0,1-8.76-3.79C22,35.47,20.82,31.5,20.82,26.47ZM135,77.2V46.53h6.22l13,20.48V46.53h6V77.2h-6.43L141,57.2v20Z"/><path class="cls-1" d="M79.69,103.12a71,71,0,1,1-71,70.95,71.09,71.09,0,0,1,71-70.95Z"/><polygon class="cls-1" points="153.59 103.13 204.57 103.13 204.57 194.04 242.77 194.04 242.77 245.03 153.59 245.03 153.59 103.13 153.59 103.13"/><path class="cls-4" d="M79.69,107.4A66.68,66.68,0,1,1,13,174.07,66.8,66.8,0,0,1,79.69,107.4Z"/><polygon class="cls-4" points="157.88 107.4 200.28 107.4 200.28 198.33 238.48 198.33 238.48 240.74 157.88 240.74 157.88 107.4 157.88 107.4"/><path class="cls-1" d="M114.76,139.22c-2.24,3.92-5.92,4.87-10.78,6.78a6.85,6.85,0,0,1,2.56-4.69,7.85,7.85,0,0,1-4.87-.25c1.21-2.47,2.29-2.61,3.33-3.27a5.66,5.66,0,0,1-3.81-2.14c2.61-1.72,8.3-2.53,13.21-.18,6.65-.34,12.3,1.42,12.45,8.8a9.29,9.29,0,0,1-5.34,8.78c-3.86,1.8-9.4,2.27-12.65,4.94-1.09.9-2.83,3.82-2,6.4,4.24-9.82,15.67-2.22,23.85-8.82-5,10.85-14,6.35-18.91,10.62-2.21,1.92-2.89,4.06-2.16,6.09,2.78-8.39,12.85-2.65,21.09-9.21-4.15,9.8-12.3,7-16.51,10.74-1.48,1.31-2.63,4.2-1.84,6.12,4.84-7.15,10.33-3.27,15.68-8.25-2.44,5.21-5.85,6.77-9.88,8-2.18.68-3.85,2.44-5.57,4.67-2,3.34-4.29,4.88-6.53,5.42a9.14,9.14,0,0,1-4.87-.32c-.06,1.17,2.55,4.74,3.08,4.95,1.06.05,3.28-3.48,7.24.42-2.48-.45-3.32-.06-3.86,1a1.74,1.74,0,0,0,2.19.73c1.21-.11,4.07-.16,3.87,2.84-.54-.61-2.73-.29-3,.22s0,1.5,1.91.74c.45,0,2.38-.59,3,1.37-1.42-.34-2.09.07-2.46,1.07-.1.63.36,1.32.53,2,.84.1,2-.82,2.56-1.18a2.68,2.68,0,0,1-1.56,2.9c.72.86,1.14,2.78-.36,3.56-.24-1-.65-1.61-1.39-1.44-.84,1.9-1.74,2-2.73,3.81a1,1,0,0,0,1.09.3c1.14-.59,1.57-.68,2.59.29a5.89,5.89,0,0,1-2.46,3.65c-1.35,1-.37,2.1-.33,2.56-.28.44-1.28.1-1.92,0a2.11,2.11,0,0,1-2.62-1.37c-.38-.28-.77-.16-.83.32-.1.82,1.2,2.66-.82,3.24-.11.1-.11.53-.37.76-.22-.1-.51-.47-.63-.53-1.36.23-1.63-1.11-1.81-1.58a.82.82,0,0,0-1.36.32,15.51,15.51,0,0,1-.19,1.87c-.3.9-1.55,1.24-2.35,1.29a2,2,0,0,1-2.2-2.39,2.65,2.65,0,0,0-1.39,2.18,2.44,2.44,0,0,1,.14-3.6,2.83,2.83,0,0,1-2.28-1,1.9,1.9,0,0,0-1.36.82,1.65,1.65,0,0,1,.78-2.36c-.07-1.73,1-2.42,2.51-3.21,2.37-1.24,4.28.52,4.93,1.34a7.93,7.93,0,0,1,2.25-3.14c1.13-1.41-.19-4.5.19-5.52-2.4-1.33-5.46-1.85-6-3.7-1.94,1.72-.77.43-3.68,1.07-.86.24-.23,1.84,0,2.23-1.71,0-3.81-1.71-5.09-1.71-1.59.09-2.47,3.46-2,5-4.06-1.69-1.72-6-.9-6.94a2,2,0,0,0-2.39-.31c.89-2.53,2.81-2.15,4.25-2.09-.1-2.57-.08-1.26-.08-2.06a8.72,8.72,0,0,0-2.76-3.94c-3.52-.59-7-1.49-7.79.9-1.86,5.75-1.38,4.24.36,5.78,1,.67.76,2.08.92,3.55a.82.82,0,0,0-.93.07,6.25,6.25,0,0,0-.84,1.24c-.94.93-2.19,2-2.6,2.47a3.66,3.66,0,0,0-1.58,1.47,2.55,2.55,0,0,0,.54,2c-1.28.82-2.81-.62-3-.91-.83,1-.21,2.49.51,3.24a3.26,3.26,0,0,1-3.35-1.15c-.26-.66-.88-1-2-.6-2.1.7-1.92.34-3,1.13.35.93.76,2.1,0,2.93s-.69,1.56-2.15,1.41a2.45,2.45,0,0,1-1.22.59c-.06-.25,0-1-.09-1.24A7.74,7.74,0,0,1,55.93,214c-1.39-.44-1.65-1-3.12-.87a6.21,6.21,0,0,1-5.6,1.86,3.32,3.32,0,0,0-.56,2.06c-1.6-1-2.37-3.33.66-5.42a2.5,2.5,0,0,0-.2-1.68c-1.21.67-2.34.63-3.11-.4a4.3,4.3,0,0,0-2,1.14,2.24,2.24,0,0,1,1-2.76c1.66-3,3.08-1.55,4-1.91a4.34,4.34,0,0,0,.15-2c-.35-.66-3.14-.74-4.08.06.65-2.26,4.11-3.62,5.66-3,.24-.08,3.32-.1,3.4,2.41a7.83,7.83,0,0,0,2.22,2.79,1.55,1.55,0,0,0,2.07,0c2-1.8,3-.4,5.15-2.15a8.93,8.93,0,0,0,1.73-1.87,2.24,2.24,0,0,0,.13-1.4c-2.14-1.14-.59-5.53-.84-5.57l-4.42,1.05c-.79-.41-1.39-.14-2-1.31-2.52-.69-4.12.88-3.89,3.69-2.91-1.49-1.27-5.26,1.66-5.89-2.53-4.35-9.87-1.52-8.06,3.68-3.92-1.33-3.59-6.08-.12-8.76,2.53-2,7.31-2.12,10.72,1.27,1.19-2,3.25-4.2,5.51-3.21a3.88,3.88,0,0,0-2.35,3.78c.41,1.13,4.63-1.69,4.94-2.89,4-2.67,3.4-1.62,7.93-1.62a13.23,13.23,0,0,1,9-1.43,10,10,0,0,0-6.48-2.45,6.8,6.8,0,0,1,3.9-.5c-1.07-.84-3.11-4.44-6.73-4.27-1.4-.25-1.9,2.11-3.22,2a12.3,12.3,0,0,0-.65-1.31c-.3.17-1.68.4-2,.59-1.41-.24-7.82-.26-7.76-1.5-.58.86-.09,2.7.61,3.56a6.35,6.35,0,0,1-3.51-2.06c0,1.36.05,2.41,1,3.21-2.79.43-5.56.22-6.46-2.29a3.31,3.31,0,0,0-.64,3.14c-1.43,0-2.25-1.42-2.61-2.05a6.27,6.27,0,0,0-3.09-1c-.83,0-1.55-.29-2,.7s.15,2.58-1.93,3.27a11,11,0,0,0-.76,1.37,8.84,8.84,0,0,1-.65-1.25c-1.66,0-2.37-2.19-1.79-3.43a3.72,3.72,0,0,0-.44-.65,4.26,4.26,0,0,1-3.77,2,2.63,2.63,0,0,0-.26,1.74,2.14,2.14,0,0,1-1.09-2.31c-2.35-2-.68-3.13.83-4.46a7.42,7.42,0,0,1-3.48-1.1,8.87,8.87,0,0,0-1.3.5,1.82,1.82,0,0,1,.68-1.59c0-3.63,3.67-3.57,6.39-3a2.65,2.65,0,0,1-.82-2.55c-.15-.79-.66-1.11-1.6-1.31.92-1.07,2.74-.66,2.94.33,2.3-.64,6.07.15,7.13,3,1.09-.06,8.73,1.16,12.66-1.35.29-.79,3.54-3.79,4.49-4.52-1.15-.07-3.26-.42-3.79-2.19.83.5,2.66.43,3.1-.75-.48.11-3.4.61-4.05-1.22,1,.72,2-1,1.58-1.73-.24-1.42-2.4.79-8.42,2.37,4.58-5.11,2.58-8.67,1.89-9.4-1.48,0-2.44.53-4,2-.37-1,.2-4.24,2.55-5.89-1.68-.13-2.68,1.45-4.21,1.4a2.78,2.78,0,0,1-2.87-1,2.27,2.27,0,0,0,2-1,4.82,4.82,0,0,1,.53-1.71,4.1,4.1,0,0,0-1.85-1.76c-1-.25-1.23-.72-1.78-.7-1,.06-1.71,1.22-2.15,2.12a2.7,2.7,0,0,1,.12-3.35c-.87-1.86.37-2.73,1.89-4.18a2.06,2.06,0,0,0-3-.31c0-1.08.75-1.61,1.37-2.12.53-2.19,3.3-2.5,4.38-2.27a12.28,12.28,0,0,1,4.15,1.42,2.07,2.07,0,0,0-.6-2.37c1.58-.55,1.73-.16,3,.83,2.5.46,2.18,6.78,1.62,7.74.94,2.77,3.9,4,5.76,6.33.79.62,4.69.91,5.11,3.45,2-1.3,11.81-.3,15.91.91a4.14,4.14,0,0,0,2.12-1.91,7.16,7.16,0,0,1-4.34-.1c-1.29-.41-2.17-2.76-1-3.12,2,1.53,4.58,1.44,5.15-.1a27.84,27.84,0,0,0-8.38.1c-3.23.36-6.52.77-8.55-.32-2.62-1.39-3-4-1-6.79-.74,3.27,1.24,5.4,4.76,5.39,2.92,0,4.15-.37,6.7-.5a13.21,13.21,0,0,1,6.69,1.24c.24-1.31-1.05-2.75-1.7-3.11-1.66-.93-4.46.45-4.79,1.37-1.36-.48-3.44-3.4-2.76-4.54a2.39,2.39,0,0,1,.5-3.11,11.22,11.22,0,0,1,1-1.86c1.16-.6,2.08-.19,3.08-.35,3.16-5,7-4.41,12.6-3.73.43.06,1.38-.78,1.8-1.08.23.4.23.85.45.94,1.29.56,3.12-.21,4.58-.8a7.49,7.49,0,0,1-.39,2.79c-.18.55-.43,1-.3,1.46a30.86,30.86,0,0,0,1.43,4c.27.77.44,1.17,1.49,1.07a2.08,2.08,0,0,1-1.14,1.66c.12,2.2,1.52,4.8,1.09,7.42.6.61.84.58,2.35.21-.67,2.53-1,3.53-3.25,4.51a47.69,47.69,0,0,1-2.07,5.71,3.86,3.86,0,0,0,2.81-.33c-.31,2.43-3.57,3.29-3.75,3.12-.47.66-1.79,3.79-1.45,4.61s2.87.4,3.5,0c-.17,1.94-3.12,3.28-3.79,3.25,0,.88.17,4,4,2.14.14,1.75-1.54,2.38-1.86,2.63a22.15,22.15,0,0,0,4.36,5.47,13.12,13.12,0,0,1,3.55,7.38c2.22.91,4,1,5.5-.73,2.33-2.76-1.15-8.82-3-11-3.5-4.3-4.42-13.64,1.4-18.21,8.68-6.79,16.62-3.12,17.9-9.93,1.41-7.52-6.45-7.34-8-6.41Z"/><path class="cls-4" d="M79.55,134.12c.6.22,1.74.76,1.59,1.19s-1.65.77-2.26.61a1,1,0,0,1-.76-1.28,1.08,1.08,0,0,1,1.43-.52Z"/></g></g></svg>