<svg xmlns="http://www.w3.org/2000/svg" xmlns:xlink="http://www.w3.org/1999/xlink" viewBox="0 0 241.44 300"><defs><style>.cls-1,.cls-2,.cls-3{fill-rule:evenodd;}.cls-1{fill:url(#radial-gradient);}.cls-2{fill:#501e70;}.cls-3{fill:#ffcb00;}</style><radialGradient id="radial-gradient" cx="118.04" cy="117.41" r="148.83" gradientUnits="userSpaceOnUse"><stop offset="0" stop-color="#ffe943"/><stop offset="0.24" stop-color="#fcd636"/><stop offset="0.71" stop-color="#f4a416"/><stop offset="1" stop-color="#ef8300"/></radialGradient></defs><title>Maribor</title><g id="Слой_2" data-name="Слой 2"><g id="Слой_1-2" data-name="Слой 1"><path class="cls-1" d="M121.54,300s119.83-68.67,119.9-199.24v-.1c-42.87-30.6-119-30.18-119-30.18C46.24,70.48.08,100.84.08,100.84S-7.48,217.31,121.54,300Z"/><path class="cls-2" d="M64.7,213.93c-44.17-32.34-24.06-50.88-24.06-50.88,20.51-16.56,46.93,10.25,46.93,10.25l3.94-3.74s-10.25-36.28,8.88-49.5c0,0,20.29-14.81,41.17-.39,19.13,13.21,9,50,9,50l3.94,3.75s26.42-26.82,46.94-10.26c0,0,20.11,18.53-24.06,50.87A118,118,0,0,1,152.64,226v5.32s12.82,7.5,9.07,19.92c0,0-3.55,11.83-17.94,10.85-5.6-.39-9.49-5.06-14.4-7.18a20.58,20.58,0,0,0-16.75.08l.13-.08c-4.92,2.12-8.8,6.79-14.4,7.18C84,263,80.4,251.19,80.4,251.19c-3.74-12.42,9.07-19.92,9.07-19.92V226A118.07,118.07,0,0,1,64.7,214Zm82.87-30.73s-.12,5.53-5.71,5.72a5.86,5.86,0,0,1-6.32-5.72H130v9.46H113.27V183.2h-5.53a5.92,5.92,0,0,1-6.17,5.72h-.14a5.62,5.62,0,0,1-5.72-5.72H89.6v39h23.67V203s7.43-9,16.56,0v19.23h23.66v-39Zm-19.91-1.31V157.6h0a.75.75,0,0,0-.74-.74h-.86a.75.75,0,0,0-.75.74h0v20.5H124.1V155h0a.79.79,0,0,0-.77-.68h-3.69a.77.77,0,0,0-.75.68h0V178.1h-1.19V157.6h0a.79.79,0,0,0-.77-.7H116a.78.78,0,0,0-.77.7h0v24.29l3.77,0a4.1,4.1,0,1,0,5.18,0h1.09Z"/><polygon class="cls-3" points="120.72 0 129.2 17.18 148.15 19.93 134.43 33.3 137.68 52.19 120.72 43.27 103.76 52.19 107 33.3 93.28 19.93 112.24 17.18 120.72 0"/><path class="cls-2" d="M6.78,105.18s43-28.79,115.16-28.79c0,0,72.17-.4,112.79,28.79,0,124.62-113.19,191.67-113.19,191.67C-.71,218,6.78,105.18,6.78,105.18Zm218.09,25.63c-38.65-27.61-103.33-25.24-103.33-25.24C49.38,105.57,17,130.42,17,130.42s-2.76,95.83,104.5,162.48C121.54,292.9,218.57,237.69,224.87,130.81ZM28.26,119.39l2.91-1.23L26.86,108l0,0,12.29,7.1,2.1-.9L34.82,99l-2.91,1.24,4.27,10h0l-12.3-7.09-2.09.89Zm16-16.34h0l-2-6.52-3,.95L44,113l3-.95-2.19-7,.05,0,7.13,5.4,3.88-1.21-8.82-6.39,3.63-9L47,95Zm33.36,1.55,3.13-.6L75.3,88.1l-2.24.42L71.28,99.74,65.37,90l-2.2.42.41,16.86,3.12-.59L66.25,96.5h0l5.4,9.45,1.08-.2L74.47,95h0ZM87.92,91.23l2.68,5.63-3.82.44,1.1-6.06ZM86.17,100l-.93,3.54-3.31.38,4.39-17.25,2.43-.28,8,15.84-3.36.38-1.63-3.26Zm14.88-6.78-.29-4.87.42,0a6.39,6.39,0,0,1,1.17,0,2.52,2.52,0,0,1,1,.29,1.74,1.74,0,0,1,.67.7,2.72,2.72,0,0,1,.3,1.18,2.9,2.9,0,0,1-.14,1.24,1.91,1.91,0,0,1-.56.8,2.49,2.49,0,0,1-.92.46,6.92,6.92,0,0,1-1.19.18l-.41,0Zm8.34,8.26-3.82.23-4.34-6.28h0l.4,6.53-3.15.19-1-16.18,4.27-.27a8.39,8.39,0,0,1,2.22.14,4.77,4.77,0,0,1,1.76.77,4,4,0,0,1,1.2,1.45,5.55,5.55,0,0,1,.53,2.18,5.69,5.69,0,0,1-.12,1.54,4.4,4.4,0,0,1-.55,1.4,4,4,0,0,1-1,1.11,3.35,3.35,0,0,1-1.39.64Zm4.45-16.31-3.16.1.47,16.2,3.15-.09Zm7,13.6-.09-4.51h.52a11.76,11.76,0,0,1,1.19,0,3.17,3.17,0,0,1,1.07.23,1.8,1.8,0,0,1,.78.64,2.25,2.25,0,0,1,.31,1.23,2.56,2.56,0,0,1-.23,1.27,1.67,1.67,0,0,1-.68.71,2.68,2.68,0,0,1-1,.32,11.25,11.25,0,0,1-1.21.09Zm-.14-6.92h.39a4.74,4.74,0,0,0,1-.12,1.78,1.78,0,0,0,.72-.34,1.41,1.41,0,0,0,.41-.67,3.47,3.47,0,0,0,.13-1,2.82,2.82,0,0,0-.2-1,1.57,1.57,0,0,0-.48-.64,1.78,1.78,0,0,0-.73-.31,3.85,3.85,0,0,0-.92-.08h-.4l.07,4.22Zm-3.28-6.69,3.93-.08a8.46,8.46,0,0,1,2,.19,4,4,0,0,1,1.56.74,3.32,3.32,0,0,1,1,1.35,5.66,5.66,0,0,1,.38,2,5.07,5.07,0,0,1-.3,1.77A2.85,2.85,0,0,1,125,92.53a3,3,0,0,1,1.24.5,3.26,3.26,0,0,1,.89,1,4,4,0,0,1,.53,1.22,5.62,5.62,0,0,1,.19,1.33,4.93,4.93,0,0,1-.36,2.08,3.83,3.83,0,0,1-1.06,1.44,4.22,4.22,0,0,1-1.62.87,7.15,7.15,0,0,1-2.05.31l-5,.1ZM138.08,88a4.08,4.08,0,0,1,1.89.55,4.75,4.75,0,0,1,1.44,1.27,5.51,5.51,0,0,1,.89,1.74,5.4,5.4,0,0,1,.25,2,5.34,5.34,0,0,1-.46,1.88A6.8,6.8,0,0,1,141,97.17a5.45,5.45,0,0,1-1.57,1.26,3.63,3.63,0,0,1-3.76-.19,5.4,5.4,0,0,1-1.44-1.42,6.9,6.9,0,0,1-.9-1.85,5.44,5.44,0,0,1-.27-1.92,5.62,5.62,0,0,1,.46-1.91,5.85,5.85,0,0,1,1.06-1.64,4.76,4.76,0,0,1,1.57-1.11,4.08,4.08,0,0,1,1.93-.35ZM137.36,102a7.58,7.58,0,0,1-3.22-.86,8,8,0,0,1-2.43-2,8.63,8.63,0,0,1-1.5-2.81,9.22,9.22,0,0,1-.42-3.32,9,9,0,0,1,.76-3.22,8.51,8.51,0,0,1,1.79-2.63,7.6,7.6,0,0,1,5.9-2.25,7.62,7.62,0,0,1,3.21.86,7.77,7.77,0,0,1,2.44,2,8.68,8.68,0,0,1,1.5,2.8,9,9,0,0,1,.42,3.27,9.2,9.2,0,0,1-.76,3.27,8.42,8.42,0,0,1-1.78,2.63,7.94,7.94,0,0,1-2.63,1.72A7.6,7.6,0,0,1,137.36,102Zm14.47-8.09.54-4.85.42,0a6.34,6.34,0,0,1,1.15.22,2.42,2.42,0,0,1,.89.46,1.72,1.72,0,0,1,.54.79,2.64,2.64,0,0,1,.09,1.22,3,3,0,0,1-.35,1.2,1.76,1.76,0,0,1-.69.69,2.34,2.34,0,0,1-1,.29,6.08,6.08,0,0,1-1.2,0l-.41,0Zm6.8,9.56-3.81-.42-3.19-6.93h0l-.72,6.5-3.14-.34,1.78-16.12,4.25.47a8.22,8.22,0,0,1,2.17.52,4.52,4.52,0,0,1,1.6,1.06,4.08,4.08,0,0,1,.94,1.62,5.62,5.62,0,0,1,.14,2.25,5.19,5.19,0,0,1-.38,1.49,4.32,4.32,0,0,1-.78,1.29,4,4,0,0,1-1.15.92,3.42,3.42,0,0,1-1.47.4Zm15.61-11-2.63,13.2,3.1.62,3.17-15.9-5.18-1-.54,2.7Zm13.18,2.38a2.13,2.13,0,0,1,1,.53,2.84,2.84,0,0,1,.61.88,3.48,3.48,0,0,1,.25,1.08,3.64,3.64,0,0,1-.1,1.1,3.54,3.54,0,0,1-.46,1,3.18,3.18,0,0,1-.74.81,2.86,2.86,0,0,1-1,.47,2.16,2.16,0,0,1-1.1,0,2.09,2.09,0,0,1-1-.54,2.55,2.55,0,0,1-.6-.88,3.36,3.36,0,0,1-.25-1.06,3.72,3.72,0,0,1,.12-1.1,3.34,3.34,0,0,1,.44-1,2.89,2.89,0,0,1,.73-.82,2.69,2.69,0,0,1,1-.47,2.09,2.09,0,0,1,1.11,0Zm-6.16,11.89,4.42-3.72,0-.05a3.55,3.55,0,0,1-1.29-.09,4.5,4.5,0,0,1-1.83-1,4.71,4.71,0,0,1-1.16-1.54,5.18,5.18,0,0,1-.5-1.9,6.39,6.39,0,0,1,.19-2,5.83,5.83,0,0,1,1-2.13,5.16,5.16,0,0,1,1.6-1.46,5.36,5.36,0,0,1,2-.69,5.86,5.86,0,0,1,2.34.17,6,6,0,0,1,2,1,5.47,5.47,0,0,1,1.46,1.54,5.08,5.08,0,0,1,.73,2,5.78,5.78,0,0,1-.14,2.29,7.08,7.08,0,0,1-1.3,2.62,16.17,16.17,0,0,1-2,2.13L183.09,109ZM196.35,110a2.06,2.06,0,0,1-.93-.6,2.6,2.6,0,0,1-.54-.92,3.31,3.31,0,0,1-.18-1.08,3.49,3.49,0,0,1,.18-1.08,3.42,3.42,0,0,1,.53-1,3.19,3.19,0,0,1,.8-.76,2.73,2.73,0,0,1,1-.4,2.21,2.21,0,0,1,1.1.1,2.14,2.14,0,0,1,.93.6,2.53,2.53,0,0,1,.53.93,2.78,2.78,0,0,1,.16,1.08,3.51,3.51,0,0,1-.19,1.09,3.3,3.3,0,0,1-.51,1,3.12,3.12,0,0,1-.79.75,2.68,2.68,0,0,1-1,.4,2,2,0,0,1-1.1-.1Zm7-11.39-4.68,3.38,0,0a4.54,4.54,0,0,1,.63,0,3.79,3.79,0,0,1,.64.17,4.3,4.3,0,0,1,1.76,1.08,4.71,4.71,0,0,1,1,1.62,5.37,5.37,0,0,1,.35,1.93,6.44,6.44,0,0,1-.34,2,6,6,0,0,1-1.16,2,5.27,5.27,0,0,1-3.8,1.85,5.9,5.9,0,0,1-2.31-.34,6,6,0,0,1-2-1.11,5.39,5.39,0,0,1-1.34-1.65,5.54,5.54,0,0,1-.58-2,5.8,5.8,0,0,1,.31-2.26,7.21,7.21,0,0,1,1.49-2.51,15.83,15.83,0,0,1,2.15-2l6.14-4.65Zm10.09,5.55a1.65,1.65,0,0,1,.77.68,2.92,2.92,0,0,1,.31,1,5.16,5.16,0,0,1,0,1.24,10.89,10.89,0,0,1-.25,1.29,11.18,11.18,0,0,1-.36,1.19,8.89,8.89,0,0,1-.37.91c-.11.25-.26.55-.44.89s-.41.69-.66,1a11.33,11.33,0,0,1-.82,1,4.83,4.83,0,0,1-.92.85,3.32,3.32,0,0,1-1,.46,1.51,1.51,0,0,1-1-.12,1.47,1.47,0,0,1-.76-.69,2.86,2.86,0,0,1-.32-1,5.38,5.38,0,0,1,0-1.26,11.06,11.06,0,0,1,.25-1.3,9.94,9.94,0,0,1,.36-1.2q.21-.56.36-.9c.12-.25.26-.55.45-.89s.41-.69.66-1a9.9,9.9,0,0,1,.81-1,5.51,5.51,0,0,1,.92-.84,2.72,2.72,0,0,1,1-.44,1.51,1.51,0,0,1,1,.12Zm1.14-2.51a4.41,4.41,0,0,1,2.15,1.91,6.42,6.42,0,0,1,.74,2.67,10.09,10.09,0,0,1-.25,2.93,14.52,14.52,0,0,1-.89,2.68,11.63,11.63,0,0,1-.87,1.61,11.12,11.12,0,0,1-1.17,1.58,11.3,11.3,0,0,1-1.43,1.34,6,6,0,0,1-1.63.94,5.17,5.17,0,0,1-1.79.34,4.55,4.55,0,0,1-1.91-.45A4.44,4.44,0,0,1,206,116a4.89,4.89,0,0,1-.94-1.56,6.2,6.2,0,0,1-.36-1.85,10.75,10.75,0,0,1,.07-2,12.62,12.62,0,0,1,.41-1.92,14.35,14.35,0,0,1,.64-1.72,14.9,14.9,0,0,1,1.43-2.43,10,10,0,0,1,2-2.12,6.37,6.37,0,0,1,2.5-1.2A4.39,4.39,0,0,1,214.6,101.6Z"/></g></g></svg>