<svg xmlns="http://www.w3.org/2000/svg" viewBox="0 0 281.77 297.45"><defs><style>.cls-1{fill:#e40f1b;}.cls-2{fill:#fff;}</style></defs><title>Middlesbrough </title><g id="Слой_2" data-name="Слой 2"><g id="Layer_1" data-name="Layer 1"><path class="cls-1" d="M35.26,24.2s94.56-52.74,210.94,0h0s-8.29,153.42-18.79,178.21c-5.79,13.66-12.43,26.67-71.83,65.77h0c-4.72,3.35-13.13,7.93-14.85,8.18h0s-5.79-3.14-14.86-8.18h0c-59.4-39.1-68.46-56.19-71.82-65.77C45.12,177,35.26,24.2,35.26,24.2Z"/><path class="cls-2" d="M42.64,29.66s87.94-49.58,196.18,0h0s-7.72,144.23-17.48,167.53C216,210,209.79,222.26,154.54,259h0c-4.38,3.16-12.21,7.46-13.81,7.69h0s-5.38-2.95-13.82-7.69h0c-55.24-36.76-63.66-52.82-66.8-61.83C51.81,173.32,42.64,29.66,42.64,29.66Z"/><path d="M34.91,23.56c.27-.15,94.88-52.91,211.59,0l.45.21,0,.49c0,.44-8.3,153.55-18.85,178.46-2.92,6.9-6.06,13.64-16,23.58S185.74,249.2,156,268.77h0a94.07,94.07,0,0,1-8.44,5.21c-3.05,1.68-5.77,3-6.73,3.1l-.46-.08s-4.62-2.5-14.85-8.18l0,0c-29.76-19.59-46.91-33.67-57-44.06s-13.37-17.22-15.07-22.08c-9-25.49-18.81-178-18.84-178.4l0-.47.41-.22Zm210.53,1.1C206.2,7,169.49,1.26,138.1,1.46,80.2,1.83,40.37,22.29,36,24.61c.6,9.2,10.1,153,18.72,177.56,1.65,4.71,4.72,11.29,14.73,21.54S96.62,248,126.25,267.54c7,3.92,13.31,7.35,14.59,8a40.59,40.59,0,0,0,6-2.9,88.31,88.31,0,0,0,8.3-5.11l0,0c29.65-19.51,46.12-32.51,55.9-42.32s12.79-16.36,15.66-23.12c10.11-23.88,18.17-167.89,18.7-177.46Z"/><path class="cls-1" d="M43.31,65.56c.26-.14,91.21-48.59,195.26,0l-.92,2c-103.06-48.11-193.07-.16-193.33,0l-1-2Z"/><path class="cls-1" d="M168.71,55.22s-5.06-.2-7.58,1.75a25.94,25.94,0,0,0-4.85,5.63s-7.39-.39-10.5,1.16-7.57,4.28-9.91,4.67-4.47.19-5.63-1-3.69.19-3.89,1.55,1.36,3.49,2.33,6.21,1.55,6.61,4.66,5.83,8.17-2.13,8.17-2.13l1,1.55s-5.64,2.72-8,3.11-6.8,1.94-8.16-1.75-3.89-9.32-7.77-7.38-4.47,4.66-4.47,4.66l1.36,1.17s1.17-1,2.14-2,3.69-2.33,4.66,1,2.91,6.6,5.25,7.19,4.27,0,4.08,1.94.39,4.86-.78,6.22-2.33,2.33-.58,2.72,3.1.38,4.27-.78A22.91,22.91,0,0,1,137,94.45l.77.2a2.3,2.3,0,0,0-.38,1.55c0,1.16.58,2.13,1.94,1.16a23.44,23.44,0,0,1,3.69-1.94l-1.16,2.33a8.83,8.83,0,0,1-5.25,1.17c-3.3-.2-10.49.58-12.63,1.75s-5.63,5.43-9.52,6.6-6.22,2.33-7,3.3-1.36,2.33,1,2.13,4.27-.19,4.27-.19-4.66,3.11-5.83,6.22-2.33,4.66,1,2.91a10,10,0,0,1,8.36-.78c2.53.78,6.22,0,6.22,0a28.21,28.21,0,0,0-5.44,6.22,15.7,15.7,0,0,0-1.94,6,16,16,0,0,1,6.6-4.08c3.7-1,9.33-3.11,9.33-3.11s.58,1.17-.78,3.89a11.74,11.74,0,0,0-1.16,7.38,4.28,4.28,0,0,1-1,3.88,5,5,0,0,0-.58,2.91,11.15,11.15,0,0,0,6.22-1.35c3.11-1.75,6-3.69,7-5.44a21.38,21.38,0,0,1,2.34-3.3,6,6,0,0,1,.19,3.88,13,13,0,0,1-3.11,5.63,8.78,8.78,0,0,1-1.94,1.56,7.81,7.81,0,0,0,5.63-.39c3.3-1.36,8.16-5.05,9.32-8.54s2.53-10.49,2.53-10.49,2.72,1.55,4.67,2.72,4.27,2.91,3.88,4.27-.59,2.52-.59,2.52,3.31-.19,5.06-1.94,4.47-6.8,2.14-11.26-5.25-8.35-5.25-11.46a9.36,9.36,0,0,1,1-4.66,3.86,3.86,0,0,0,3.89,1.16c2.52-.58,5.25-3.1,5.25-3.1a4.75,4.75,0,0,1-3.7-.59c-1.55-1.16-2.33-3.88-2.14-6.41s1-5.63,1-7-.58-2.52,1.36-2.52,5.25-.78,6.22-2.52a11.36,11.36,0,0,0,1.17-3.89,2.84,2.84,0,0,1-2.72.39A5.63,5.63,0,0,1,173,77.56c-.58-2.13,0-3.69,2.72-4.46a8.58,8.58,0,0,0,5.44-4.47,12.89,12.89,0,0,0,1.16-4.08,8.53,8.53,0,0,1-4.46,2.33c-2.92.58-3.89,1.16-5.64.78a4.6,4.6,0,0,1-2.52-1.36,38.06,38.06,0,0,0,3.69-1.75,19,19,0,0,0,3.88-3.5l-5.63,1a9.59,9.59,0,0,0-4.28-1,9,9,0,0,1-3.69-.58l5.06-5.25Z"/><path class="cls-1" d="M120.71,101.25s-4.85,4.66-9.13,5.82-7.19,1.17-9.32,2a11.53,11.53,0,0,1-3.5.77s.58-2.72,1.55-3.69a20.28,20.28,0,0,0,2.33-3.49,8.91,8.91,0,0,1-5.25,1.16c-2.72-.38-4.66-.58-5.24-1.94s-.78-2.13,1.36-1.74,3.69.38,4.47-1.17-1.36-2.33-3.69-3.11S90,92.7,88.46,93.29a25.05,25.05,0,0,0-2.33,1s0-3.3,2.52-3.89a16.88,16.88,0,0,0,4.67-1.94l-1-1.36s-1.75.78-2.52.2a8.15,8.15,0,0,0-2.14-1l-.78,1.55s-1.36-.78-2.14,0-1.55,1.75-1.55,1.75-2.72-1.55-.39-3.3a17.88,17.88,0,0,1,3.3-2.14s-1.55-.77,0-2.52,3.5-2.34,3.7-3.11-1-1.17-2.72-1.17-2.14-1-2.14-1l-.39-1.55.59-.78s1-1.16-.59-1.16H81.46S82,70,83.6,70.37a21.35,21.35,0,0,1,2.91,1l1.37-3.7,5.64,3.11V65.51S95.85,62.6,97.6,64s4.66,1.55,3.69,3.88S100.9,71,100.9,71s1.36-2.33,2.72-2.52a4.84,4.84,0,0,1,2.72.58,8.83,8.83,0,0,0,1.36-1.75,6.82,6.82,0,0,0,.39-2.33s1.94,1.36,1.55,2.91.2,2.53-1.16,3.11-1.56,1.17-1.56,2.14a2.37,2.37,0,0,1-2.33,2.52c-1.75,0-3.69-.39-3.88,2.52s-.78,6.22,1.55,8,5.63,4.27,8.75,7,9.7,8.16,9.7,8.16Z"/><path class="cls-1" d="M91.77,130.57s4.08.2,6.79-1.16,7.19-3.3,9.91-4.47,4.86-2.13,6.8-1.55,2,1.16.59,2.53a9.51,9.51,0,0,0-2.53,6.21c0,2.33-.19,5.25,3.11,3.49s3.11-4.27,7-4.07,4.66,2.33,4.08,3.68.58,2.73-.58,2.92-1.56-.58-2.73-1.36-2.52-1.75-2.52-1.75a3.71,3.71,0,0,0-1.94,3.11c-.2,2.33-.59,3.11.58,3.69s1.94,2.13-.2,2.13-5.44,0-6.79-1.74-3.31-5.25-3.89-2.14,0,3.69,1.36,4.08,4.08.39,1.75,1.94-5.83,1-8-1.16a33.75,33.75,0,0,0-5.83-4.27l-.78.58a2.19,2.19,0,0,1,.78,2.13c-.38,1.17-3.3,2.34-3.3,2.34a3.33,3.33,0,0,1,1.36,1.94,3.42,3.42,0,0,0,1.36,1.94s-1.75,1.36-3.3.39-1.36-3.3-1.36-3.3l-2.72,1.16a2.52,2.52,0,0,1-1.17-2.33v-2.91s-2.72-1.36-3.3.58a16.94,16.94,0,0,0-.59,2.13s-1.36,2.14-2.52,1.95S81.67,151,81.67,151A3.8,3.8,0,0,1,79,148.25c-.39-2.14-2.14-4.28-.78-6.41S83,137.57,83,137.57s-2.53-.39-3.89.38-2.14-.38-2.33-1.36-2.33-1.36-3.11-.38-3.11.77-2.52-.78a6,6,0,0,1,2.91-2.91c1-.59,2.14.38,2.14.38s1-2.72,2.91-2.52a23.06,23.06,0,0,1,3.89.78s-1.36-1.56-.39-2.92a9.45,9.45,0,0,1,2.13-2.13s0-2-.58-2.53a3.78,3.78,0,0,0-1.74-.77s.58-2.33,3.11-1,2.71,2.52,2.71,2.52,2.53.39,3.31,1.36.19,4.85.19,4.85Z"/><path class="cls-1" d="M107.11,169.42a12.81,12.81,0,0,1,1.75-2.34c1-1,2.91-1.55,4.08.78s2.33,2.53,3.89,2.33,2.13.39,2.33,3.69,1.75,7-4.08,10.3-7.58,3.3-8.74,1.55.78-3.69-1-4.85a6.34,6.34,0,0,0-4.08-.78A2.72,2.72,0,0,0,99.14,178c-1.74-.19-3.29-.39-3.29-.39a6.53,6.53,0,0,1,1.36,2.72,4.21,4.21,0,0,0,1.35,2.33S96,183.2,96.24,185l.38,3.49s-1.36-1.54-2.53-.19a6.13,6.13,0,0,0-1.35,2.92A1.83,1.83,0,0,0,90,191c-1.36,1.36-3.5,4.47-1.17,3.89s4.47-1.36,4.47-1.36-.78,2.91,1.75,2.13,5.44-1.55,5.44-1.55A4.53,4.53,0,0,0,98,196.6a4.66,4.66,0,0,0,.2,3.69s-1.75-.39-1.75,2a7,7,0,0,0,1.16,3.88,12.73,12.73,0,0,0,2.33-2.72,6.79,6.79,0,0,1,1.56-2s.19,2.14,1.94,1,2-2.53,2.92-4.47,3.11-1,2.33,1-.39,2.92.78,3.31a5,5,0,0,0,2.52,0s-1.36.77.2,2.32a3.68,3.68,0,0,0,3.49,1,11.8,11.8,0,0,0-.58-2.33c-.39-1,.78-2,.78-2s1.94,0,2.14-1.55a4.06,4.06,0,0,0-1.17-2.91,3.75,3.75,0,0,1,1.17-2.14,6.71,6.71,0,0,1,2.91-1,6.48,6.48,0,0,0,.19,3.89c.78,1.93,2.33,3.29,3.89,3.29a29.26,29.26,0,0,0,3.11-.19,3.92,3.92,0,0,1-2.33-1.94c-.78-1.55.19-4.08.19-4.08a4.73,4.73,0,0,0,2.52,2.92c2,.77,3.69,1.35,5.25.57s3.11-1.74,3.11-1.74-1.36.38-2.91-1.37a4.2,4.2,0,0,1-1.17-3.49,5,5,0,0,0,4.28-.19,12,12,0,0,0,4.27-3.88s-2.92,1.16-4.67-1-.19-4.67,2.72-5.06a3.88,3.88,0,0,0,3.7-3.49,3,3,0,0,0-.59-2.13,2.78,2.78,0,0,1-3.3.58c-1.94-1-2.52-3.11-1.36-5.25s3.5-4.85,6.22-5.24,5.44,0,6.41-5.24.78-7.19,0-8.35-1.94-1-3.3-.4-5.44,1.76-8.36,0-8.93-4.27-14.77-.58-6,6.61-6.6,8.55-2.33,2.72-5,1.75-4.66.78-5.25,3.11a10.88,10.88,0,0,0,0,4.66Z"/><path class="cls-1" d="M147.49,146.3c.83,1,2,2.49,3,3.89,1.74,2.52,3.11,5.05,2.13,8.35s-6,12.82-6,15.73.78,7.18.78,10.29.39,6.61-1.75,8.94-4.47,5.24-4.07,8,1.16,3.3,1.16,3.3a7.86,7.86,0,0,1,2.91-3.88,40.43,40.43,0,0,1,4.86-2.53s.39.59-.39,2.33a28.36,28.36,0,0,0-1.36,4.28,12.09,12.09,0,0,0,5.63-4.08c2.34-3.11,3.5-5.63,3.5-7.58a7.29,7.29,0,0,1,1-3.49s2,2.72,6.81.58a58,58,0,0,0,7-3.49s3.5,3.88,2.92,6.6a9,9,0,0,1-4.28,6.21c-2.33,1.37-4.08,1.37-4.85-.19s-1.56-2.91-3.89-.78-3.89,2.34-4.67,2.92-1.16.58-1.16,1.74a4.65,4.65,0,0,0,.58,2.14s2.53-1.94,3.69-1.17,1.36,2.92,1.36,2.92-2.52,1.16-2.33,2.72a3.19,3.19,0,0,0,1,2.13s-1.94,1-1.94,2.53-.78,4.46,1.17,3.69,2.91-3.69,2.91-3.69,1.94,1.55,3.31.77.77-3.49,2.52-2.52,1.55,3.3,2.72,2.91,1.94.59,2.14,1.75a1.84,1.84,0,0,0,2.33,1.75,7.8,7.8,0,0,0,2.33-.58s-1.55-1.16-1.75-2.14a4.49,4.49,0,0,1,0-1.75s.78.78,1.36-1-.39-4.85-.39-4.85a12,12,0,0,0,2.92,0c1.74-.19,1.55,1.36,3.49,1.16s4.86,1,4.08-1-.78-1.94-3.11-2.33-1.36-1.55-.58-2.33-1.55-1.36-.78-2.52,2.92-1.75,4.86-2.33,4.86-3.11,3.69-3.3-2.52.38-3.88.38,1.16-1.36,3.11-2.32,5.24-5.25,4.46-6-2.33,1.36-4.66,1.75a6.81,6.81,0,0,1-3.89-.39s4.67-.39,6.22-3.49a28.86,28.86,0,0,0,2.14-7.77,6.47,6.47,0,0,1-2.53,2.72,20.25,20.25,0,0,1-3.88,1.55,5.82,5.82,0,0,0,2.33-4.66c0-3.11,1-8.54-.78-7s-1.55,4.27-4.27,5.05-3.5.78-3.89-1.55-.58-4.08-2.72-3.31-4.47,1.76-6,2.33-.77-1.55-.77-3.49a12.11,12.11,0,0,1,.77-3.88s6.41,3.3,10.3,3.3,12.83-1,16.72-9.52,3.1-12.23,2.91-13.4a1.66,1.66,0,0,0-.11-.38h-1.57a9.22,9.22,0,0,1-1,3.3,12.11,12.11,0,0,1-2.33,2.91l-3-6.21H179.85c2.74,2.36,6,4.51,8.67,5,3.89.78,6.41,7.39,3.69,9.91S183.86,164,178,160.11c-4.71-3.14-8.15-8.18-11-13.79h-19.5Z"/><path class="cls-1" d="M167,146.3q-1-2-2-4.07c-3.31-7.19-6-13.41-7.78-12.82s-1.55,4.46-2.72,7.18a14.85,14.85,0,0,1-4.46,5.64,28.5,28.5,0,0,1-3.7,2.71s.47.54,1.13,1.36Z"/><path class="cls-1" d="M195.8,146.3l-4-8.15s2.73-5.25,2.53-8.55-1-9.13-2-10.1a4.24,4.24,0,0,0-1.74-1.16,12.19,12.19,0,0,1,.58,7.77,24.17,24.17,0,0,1-2.92,6.6s-3.5-2.92-4.08-6.6-2.72-7.58.78-11.66,7.58-6,10.49-8,3.69-7.18,2.72-9.9a48.94,48.94,0,0,0-3.11-6.41s2,6-.19,8.54a9.82,9.82,0,0,1-5.05,3.11s3.11-5.63,2.33-9.32-2.92-10.49-1-13,3.69-4.47,5.24-4.66a7.1,7.1,0,0,0,2.53-.78s-2.92-1.55-5.44-.77-9.13,2.91-10.3,7.18-.78,6.41-.78,8.94v5a23.35,23.35,0,0,0-2.91-3.1A24.77,24.77,0,0,0,174,88.24a28,28,0,0,1,3.89,6.6c1,2.91,1.35,8.35.19,15.93s-2.52,12.62,2.33,21.55S187.55,144,185.8,144s-5.05-.39-7-3.11-3.1-6.22-3.88-5.83-1.36,4.66,1.55,8a36.7,36.7,0,0,0,3.37,3.31h16Z"/><path class="cls-1" d="M203.77,146.3a3.67,3.67,0,0,0-1.45-1.55,10.85,10.85,0,0,1-.12,1.55Z"/><path class="cls-1" d="M138.59,88.82l3.11-1-1.17-1.75-3.88.19a3.89,3.89,0,0,0,.39,1.56,2.37,2.37,0,0,0,1.55,1Z"/><path class="cls-1" d="M148.5,70.17a2.38,2.38,0,0,0,2.33.78,18.1,18.1,0,0,0,3.3-1.55,1.92,1.92,0,0,0-2.33-.58c-1.55.58-3.3,1.35-3.3,1.35Z"/><path class="cls-1" d="M18.4,235.44S3.59,233.05,1.32,253v-.32C5.14,261,16.21,258,17.64,257.56v0l-.16.08.1-.18A14.4,14.4,0,0,0,13,253.62l.17.16C5.8,247.12,14,247,14,247h0s8.77-.3,5.14-10.87h0l.3.08a5,5,0,0,0-1.31-.74Zm-.12.08c-.06-.5.15.44,0,0,.1.45-.11-.49,0,0Z"/><path d="M17.27,235.81c-2.49-.19-13.61-.1-15.69,16.51A8.56,8.56,0,0,0,7,256.87a18.13,18.13,0,0,0,8.81,0c-.24-.26-.52-.55-.85-.85h0a14.63,14.63,0,0,0-2.77-2l0,0c-8.77-7.89,1.2-8.08,1.22-8.08h0s7.72-.27,4.49-9.83l-.13-.24a1.52,1.52,0,0,0-.51-.06ZM.1,252.36c2.2-18.34,14.81-18.22,17.41-18h.22a1.15,1.15,0,0,1,.22,0,2.91,2.91,0,0,0,.41.27h0a6,6,0,0,1,1,.6l-.16.3.11,0C23.2,247,13.58,247.4,13.46,247.4h0c-.11,0-6.11.15-.51,5.32a17.28,17.28,0,0,1,3,2.18h0a13.32,13.32,0,0,1,1.67,1.85l.13.17.46.61-.79.39-.16.09,0,0c-1.1.32-6.12,1.65-10.64.3A10,10,0,0,1,.14,252.7H.06v-.32Zm17.25-17h0l-.09,0h0l.08,0Zm0,0h0l-.09,0h0l.09,0Zm0,0v0h-.05l0,.05.09,0Z"/><path class="cls-2" d="M.94,252.9S8.12,273.73,15.88,278c2.71,1.49,14.08,1.08,16.36-.36h0c67.89-51.52,90.32-37,90.32-37s-3.64-11.52-10.92-19.39h0C88,215.81,52.85,243.09,28,254S.72,252.18.72,252.18l.22.72Z"/><path d="M1.64,252.69l0,.08c1,2.42,5.73,9.47,26,.56,7.09-3.12,15.07-7.59,23.38-12.26,20.76-11.65,43.6-24.47,60.73-20.52l.37.22c7.39,8,11.06,19.63,11.07,19.66l-1.07.86c-.07,0-22-14.29-89.5,36.93l0,0c-1.28.81-5,1.32-8.67,1.4-3.48.08-7-.22-8.43-1-8-4.4-15.26-25.44-15.28-25.5v0l0,0a5.62,5.62,0,0,1-.23-.76L1.41,252l.23.73ZM3.26,257c2.52,6.26,7.63,17.45,13,20.39,1.2.66,4.43.91,7.7.84,3.44-.08,6.86-.51,7.91-1.18,58.07-44.06,83.21-39.95,89.46-37.71-1.24-3.36-4.59-11.39-10-17.38-16.56-3.66-39,8.95-59.47,20.42-8.33,4.67-16.32,9.17-23.51,12.32C13.91,261,6.77,259.5,3.26,257Z"/><path class="cls-1" d="M263.74,234.51s14.85-2.52,17.12,17.43v-.33c-3.81,8.34-14.89,5.32-16.32,4.89v0l.16.08-.09-.18a14.16,14.16,0,0,1,4.55-3.86l-.17.16c7.4-6.65-.76-6.8-.76-6.8h0s-8.76-.31-5.14-10.88h0l-.3.08a3,3,0,0,1,1.24-.62Zm.17,0c.06-.5-.15.44,0,0-.1.44.11-.5,0,0Z"/><path class="cls-2" d="M260,256.41s-2.88-19.77,2.87-21h0C259.24,246,268,246.31,268,246.31h0s8.17.16.76,6.8l.17-.15a12.59,12.59,0,0,0-5,4.58h0a8.18,8.18,0,0,1-4-1.79l.08.66Z"/><path d="M259.28,256.52c0-.07-3-20.45,3.44-21.8l1.26-.27-.42,1.22c-3.31,9.64,4.45,9.91,4.46,9.91h0s10,.19,1.22,8.08l0,0a11.75,11.75,0,0,0-4.65,4.21l-.24.54-.57-.12a9.76,9.76,0,0,1-4.15-1.79l-.34,0Zm2.34-19.43c-2.64,3.46-1.43,14.95-1,18.29a7.82,7.82,0,0,0,3,1.34,14.6,14.6,0,0,1,4.92-4.36c5.61-5.17-.4-5.32-.51-5.32h0c-.11,0-8.64-.35-6.36-9.95Z"/><path d="M264,234.46c2.6-.22,15.55-1,17.75,17.36l-.37.48v.32h-.07a10,10,0,0,1-6.47,5.57c-4.52,1.35-9.54,0-10.65-.3l0,0-.17-.08-.78-.4.46-.61.12-.17a13,13,0,0,1,1.68-1.85,17.28,17.28,0,0,1,3-2.18c5.6-5.17-.41-5.32-.52-5.32h0c-.11,0-9.73-.39-5.8-11.85v0l.45-.32a3.47,3.47,0,0,1,.65-.43c0-.05.36-.07.41-.11s.11,0,.19,0l.13-.06Zm15.87,17.79c-2.08-16.59-13.18-16.7-15.68-16.51a.65.65,0,0,1-.6.27l-.06,0c-3.23,9.56,4.48,9.82,4.5,9.82h0s10,.19,1.22,8.08l0,0a15.58,15.58,0,0,0-2.77,2c-.33.3-.61.59-.85.85a18.13,18.13,0,0,0,8.81,0,8.59,8.59,0,0,0,5.45-4.55Zm-15.79-17v0l.1,0-.05-.06Zm0,0h0l.11,0h0l-.1,0Zm0,0h0l.08,0h0l-.09,0Zm-.31-1,.15,0-.15,0Zm0,0h0Z"/><path class="cls-2" d="M280.83,252.31s-7.17,20.82-14.93,25.09c-3.07,1.69-13.39,1.53-16.36-.36-67.89-51.52-90.32-37-90.32-37a53.8,53.8,0,0,1,10.92-19.39c23.64-5.45,58.79,21.82,83.65,32.73s27.28-1.82,27.28-1.82l-.24.73Z"/><path d="M281.52,252.54c0,.07-7.26,21.1-15.27,25.51-1.66.91-5.2,1.32-8.67,1.24s-6.85-.62-8.43-1.63l-.05,0c-67.49-51.22-89.44-37-89.5-36.93l-1.08-.84a57.58,57.58,0,0,1,4.68-10.72,48.36,48.36,0,0,1,6.4-9L170,220c17.13-4,40,8.86,60.73,20.52,8.31,4.66,16.29,9.14,23.37,12.25,20.31,8.92,25.05,1.86,26-.56l0-.07h0l.23-.72,1.41.36a3.94,3.94,0,0,1-.23.77v0Zm-16,24.22c5.33-2.94,10.44-14.13,13-20.39-3.5,2.53-10.64,4-25-2.3-7.18-3.15-15.18-7.64-23.51-12.32-20.44-11.47-42.9-24.08-59.46-20.42a46.58,46.58,0,0,0-6,8.51,56.48,56.48,0,0,0-4,8.87c6.2-2.22,31.32-6.41,89.48,37.71,1.36.86,4.49,1.34,7.68,1.41s6.5-.28,7.94-1.07Z"/><path class="cls-1" d="M101.77,265.13s-11-6-14.85-11h0l10-12.88s17.32-5.78,25.11-.94l.07-.08-20.36,24.89Z"/><path d="M101.42,265.77s-11.15-6.06-15.08-11.19l-.34-.44.35-.45,10-12.88.34-.24s17.65-5.89,25.73-.87l-.33.53.58.48-20.36,24.88-.39.48-.53-.3ZM87.85,254.13c3.48,4.14,11.59,8.85,13.74,10.06l19.35-23.65c-7.29-3.65-21.66.74-23.55,1.35l-9.54,12.24Z"/><path class="cls-2" d="M86.79,254s43,47.07,107.25,2.82h0l-2.66,25.12h0c-58.79,34.56-102-2.39-102-2.39L86.79,254Z"/><path d="M87.32,253.5c.13.13,42.58,46.61,106.3,2.72a.74.74,0,0,1,1,.18.82.82,0,0,1,.13.5h0L192.11,282a.7.7,0,0,1-.39.57C132.49,317.37,89,280.21,88.89,280.11a.75.75,0,0,1-.27-.54l-2.55-25.5a.72.72,0,0,1,1.25-.57Zm105.83,4.8C135.9,296.8,95.71,263.56,87.72,256l2.33,23.21c3.37,2.75,44.82,34.92,100.64,2.33l2.46-23.2Z"/><path class="cls-1" d="M179.86,265s12.28-6.7,14.22-8.55h0l-9.31-15.77s-17.76-5.42-25.55-.59h0L179.86,265Z"/><path d="M180,264c2.2-1.21,10.63-5.88,13.1-7.77l-8.85-15c-2.14-.62-16.67-4.62-23.94-1L180,264ZM194.58,257c-2,1.91-14.33,8.64-14.37,8.66l-.52.29-.39-.46-20.64-24.91-.53-.64.71-.44c8.07-5,26.09.49,26.15.51l.41.32,9.31,15.78.3.49-.43.4Z"/><path class="cls-2" d="M21.91,256.36s2.88-19.77-2.86-21h0c3.63,10.58-5.14,10.88-5.14,10.88h0s-8.16.16-.75,6.8l-.17-.15a12.59,12.59,0,0,1,5,4.58h0a8.07,8.07,0,0,0,4-1.79l-.09.66Z"/><path d="M21.31,255.34c.42-3.35,1.63-14.84-1-18.3,2.29,9.61-6.24,10-6.35,10h0c-.11,0-6.11.14-.51,5.32a14.57,14.57,0,0,1,4.93,4.35,7.79,7.79,0,0,0,3-1.33ZM19.2,234.67c6.41,1.35,3.45,21.74,3.44,21.8l-.35-.05a9.57,9.57,0,0,1-4.14,1.79l-.57.12-.24-.54a11.94,11.94,0,0,0-4.65-4.21l0,0c-8.78-7.88,1.19-8.07,1.22-8.08h0s7.78-.27,4.47-9.91l-.42-1.22,1.26.27Z"/><path class="cls-1" d="M67.86,45l-.06.13c-.6.21-1.52.58-2.76,1.1s-2.18.93-2.73,1.21l-.11,0L62,46.76l.06-.13a9.33,9.33,0,0,0,1-.54.43.43,0,0,0,.17-.47,22.16,22.16,0,0,0-1-2.92l-2.43-6.28-.34,5.08c0,.28-.07,1.31-.15,3.08L59.07,49l-.6.26c-.61-.64-1.4-1.43-2.38-2.38l-2.32-2.24-4.3-4.07L52,47a22.15,22.15,0,0,0,1.23,2.83.42.42,0,0,0,.44.22c.1,0,.46-.13,1.08-.35l.12.06.25.63L55,50.5c-.7.25-1.34.5-1.93.75s-1.36.6-2,.92l-.13-.05-.24-.63,0-.13a11.27,11.27,0,0,0,1-.53.45.45,0,0,0,.17-.47,22.12,22.12,0,0,0-1-2.93L49,42.52a21.36,21.36,0,0,0-1.23-2.83.42.42,0,0,0-.43-.22c-.1,0-.46.13-1.08.35l-.12,0-.25-.63L46,39c.63-.22,1.42-.53,2.36-.93.73-.3,1.36-.59,1.88-.85l1.61,1.63,1.07,1,5.22,5,.25-3.46.29-5.64c0-.66,0-1.37,0-2.12.68-.25,1.14-.42,1.37-.52,1.17-.49,2.05-.88,2.65-1.18l.13.05.24.64,0,.12a11.27,11.27,0,0,0-1,.53.46.46,0,0,0-.17.47,22.12,22.12,0,0,0,1,2.93l1.91,4.91A20.74,20.74,0,0,0,66,44.45a.39.39,0,0,0,.43.21,8.36,8.36,0,0,0,1.08-.34l.13.06.24.62Zm7.28-2.28-.06.13c-.62.15-1.58.43-2.86.84s-2.21.73-2.81,1l-.11-.07-.19-.64.07-.12c.61-.24,1-.39,1-.44a.43.43,0,0,0,.21-.46,23.49,23.49,0,0,0-.75-3l-1.49-5.06a22.61,22.61,0,0,0-1-2.93.41.41,0,0,0-.41-.26q-.15,0-1.11.24l-.12-.06-.19-.65.07-.12q.9-.21,2.85-.84c1.29-.41,2.23-.73,2.8-1l.12.06.19.65-.06.13c-.62.24-1,.38-1,.43a.46.46,0,0,0-.21.46,24.64,24.64,0,0,0,.76,3l1.48,5.06a25.05,25.05,0,0,0,1,2.93.43.43,0,0,0,.42.25,8.44,8.44,0,0,0,1.1-.24l.12.06.19.64ZM89,30.87a7.9,7.9,0,0,1-.75,6,7.4,7.4,0,0,1-2,2.28,9.43,9.43,0,0,1-3.45,1.52l-3.3.8c-.9.22-1.64.43-2.21.63L77.12,42l-.06-.27,0-.13a3.51,3.51,0,0,0,.61-.77,5.2,5.2,0,0,0-.21-1.32L77,37.35l-1.18-4.93a23.37,23.37,0,0,0-.84-3,.4.4,0,0,0-.4-.28,10.88,10.88,0,0,0-1.12.18l-.12-.07-.16-.66.07-.11c.67-.13,1.3-.28,1.9-.43Q77.32,27.53,79,27q.87-.26,1.74-.48a9.74,9.74,0,0,1,3.86-.39,4.79,4.79,0,0,1,2.69,1.4A7,7,0,0,1,89,30.87Zm-2.75,1.21A6.14,6.14,0,0,0,84,28.26a3.6,3.6,0,0,0-1.89-.64,9.77,9.77,0,0,0-2.67.38,11.14,11.14,0,0,0-1.63.56c.11.74.5,2.51,1.17,5.29l1,4.24c.24.94.41,1.57.53,1.87a10.25,10.25,0,0,0,1.71-.31,6.77,6.77,0,0,0,2.8-1.32,4.54,4.54,0,0,0,1.33-2.55,8.51,8.51,0,0,0-.14-3.7Zm19.26-4.54a7.9,7.9,0,0,1-1.16,5.93,7.16,7.16,0,0,1-2.19,2.12,9.5,9.5,0,0,1-3.55,1.28l-3.35.55c-.91.15-1.65.31-2.24.47l-.11-.08,0-.28,0-.12a3.82,3.82,0,0,0,.66-.72,5.06,5.06,0,0,0-.12-1.33l-.34-2.22-.85-5a24.39,24.39,0,0,0-.64-3,.44.44,0,0,0-.38-.31c-.1,0-.48,0-1.13.11L90,24.83l-.11-.67.08-.11c.67-.09,1.31-.18,1.92-.29,1.47-.27,2.79-.54,4-.79.59-.13,1.17-.25,1.77-.36a9.71,9.71,0,0,1,3.87-.11,4.81,4.81,0,0,1,2.6,1.6,7.11,7.11,0,0,1,1.44,3.44Zm-2.82,1a6.19,6.19,0,0,0-2-4,3.42,3.42,0,0,0-1.84-.78,9.27,9.27,0,0,0-2.69.18,11.85,11.85,0,0,0-1.66.44c.06.75.33,2.53.81,5.36l.75,4.3a17.43,17.43,0,0,0,.4,1.9,11.39,11.39,0,0,0,1.73-.17,6.54,6.54,0,0,0,2.87-1.12,4.52,4.52,0,0,0,1.51-2.45,8.74,8.74,0,0,0,.11-3.7Zm15.79,1.72a24.83,24.83,0,0,0,.18,3.31l-.08.12-6.94.82c-1.16.15-2,.27-2.44.37l-.12-.08,0-.28,0-.13a3.87,3.87,0,0,0,.7-.68,5.65,5.65,0,0,0-.06-1.33l-.23-2.24-.59-5a23.53,23.53,0,0,0-.49-3.07.44.44,0,0,0-.37-.33c-.1,0-.48,0-1.13.05l-.1-.09-.08-.67.08-.1c.66-.05,1.63-.15,2.89-.31s2.3-.32,3-.44l.11.08.08.68-.09.1a9.35,9.35,0,0,0-1.1.24.43.43,0,0,0-.28.41,22.17,22.17,0,0,0,.24,3.1l.7,5.94c.1.87.21,1.71.34,2.52l1.3-.17a15.3,15.3,0,0,0,3.39-.66.38.38,0,0,0,.14-.14,1.82,1.82,0,0,0,.11-.61l.08-1.27.08-.12.59-.07.11.08Zm12.23-.85a22.43,22.43,0,0,0-.05,3.32l-.09.11-7,.32c-1.17.06-2,.12-2.46.19l-.11-.09V33l0-.13a3.08,3.08,0,0,0,.74-.63,5.24,5.24,0,0,0,0-1.33l-.09-2.25-.25-5.06a23.16,23.16,0,0,0-.28-3.1.45.45,0,0,0-.34-.35c-.11,0-.48,0-1.14,0l-.09-.09,0-.68.09-.1c.65,0,1.65,0,3-.1s3.49-.21,6.86-.44l.11.08-.07,1.11c0,.36,0,.66,0,.91l0,.93-.09.12-.56,0-.1-.1a4.55,4.55,0,0,0-.23-1.54,2.17,2.17,0,0,0-1-.16c-.62,0-1.17,0-1.64,0s-1.11.08-1.68.16c0,.7,0,1.68,0,2.92l.1,2.07c.51,0,.92,0,1.23,0l1.26-.08c.59,0,.92-.1,1-.2a3.23,3.23,0,0,0,.13-1.36l.09-.11.6,0,.1.09c0,.75,0,1.43.07,2.05s.08,1.41.14,2.21l-.09.1-.64,0-.1-.1a3.33,3.33,0,0,0-.22-1.35c-.11-.14-.42-.22-1-.24s-.8,0-1.24,0-.91.07-1.31.12l.15,3.06c0,.87.11,1.72.18,2.53l1.31-.07a14.8,14.8,0,0,0,3.42-.41.32.32,0,0,0,.15-.13,1.66,1.66,0,0,0,.15-.61l.17-1.25.09-.11.59,0,.11.09Zm11.63-1.69a4.85,4.85,0,0,1-2.89,4.62,7.29,7.29,0,0,1-2.79.55,8.83,8.83,0,0,1-4-.89l-.12-.22a15.29,15.29,0,0,0,.21-3.28l.1-.1h.61l.09.1v.23a11,11,0,0,0,.14,1.48A2.79,2.79,0,0,0,135,31.28a4.19,4.19,0,0,0,2,.45,2.68,2.68,0,0,0,2.6-1.43,3,3,0,0,0,.36-1.48A1.92,1.92,0,0,0,138.83,27a5.37,5.37,0,0,0-1.66-.42,8.13,8.13,0,0,1-3.38-1,3.41,3.41,0,0,1-1.27-2.89,4.22,4.22,0,0,1,1.27-3.29,5.53,5.53,0,0,1,3.88-1.35,7.52,7.52,0,0,1,3.65.68l.07.24a18.7,18.7,0,0,0-.24,2.87l-.1.1h-.6l-.1-.1a11.44,11.44,0,0,0-.13-1.56,2.23,2.23,0,0,0-1.05-.78,4.07,4.07,0,0,0-1.65-.31,2.77,2.77,0,0,0-2,.75,2.32,2.32,0,0,0-.68,1.74,1.91,1.91,0,0,0,.83,1.68,7.48,7.48,0,0,0,2.46.62l1.13.19a4.75,4.75,0,0,1,1,.27,2.85,2.85,0,0,1,1.48,1.13,3.83,3.83,0,0,1,.57,2.11Zm13.14.54A4.32,4.32,0,0,1,153,32.08a5.84,5.84,0,0,1-3,.57l-1,0-2.29-.14c-.82,0-1.45,0-1.9,0l-.1-.11v-.28l.06-.12a3.6,3.6,0,0,0,.79-.56,5.62,5.62,0,0,0,.15-1.33l.1-2.24.17-5.08a21.74,21.74,0,0,0,0-3.1.43.43,0,0,0-.31-.38,9.58,9.58,0,0,0-1.12-.14l-.1-.1,0-.68.1-.09c.57.06,1.54.12,2.94.17.88,0,1.68,0,2.39,0,.56,0,1,0,1.43,0,1.79.07,3,.53,3.48,1.4a2.75,2.75,0,0,1,.39,1.56,3,3,0,0,1-1.15,2.33,3.54,3.54,0,0,1-1.08.63,10.38,10.38,0,0,1-1.39.38q3.95.33,3.84,3.5Zm-3.14-6.46a2,2,0,0,0-2.13-2.29,9.3,9.3,0,0,0-1.24,0c-.05.7-.09,1.34-.11,1.94l-.09,2.76c.15,0,.44,0,.88,0A2.27,2.27,0,0,0,152,23.23a3.28,3.28,0,0,0,.36-1.42Zm.19,6.67c.07-2-.91-3-2.92-3.12h-.88L148.57,30c0,.5,0,1,0,1.48a6.67,6.67,0,0,0,1.1.1,2.51,2.51,0,0,0,2.1-.8,3.59,3.59,0,0,0,.76-2.29Zm17.67,5.44-.11.1-.36,0-1.64-.17c-.32,0-.84,0-1.55-.05a3.16,3.16,0,0,0-.31-.83l-2.1-4.31-.95-1.76a2.76,2.76,0,0,0-.53-.65l.13-.33.32,0a2.92,2.92,0,0,0,1.5-.2,2.57,2.57,0,0,0,1-.91,3.25,3.25,0,0,0,.52-1.64A2.3,2.3,0,0,0,165,20.79a4,4,0,0,0-1.66-.4,5.61,5.61,0,0,0-.92,0c-.11.65-.22,1.76-.32,3.33L161.79,29a21.19,21.19,0,0,0-.08,3.11.41.41,0,0,0,.3.39,8,8,0,0,0,1.12.19l.08.1-.05.67-.09.1c-.63-.09-1.62-.19-2.95-.28s-2.36-.15-3-.16l-.09-.09,0-.68.11-.09c.65,0,1,0,1.13,0a.43.43,0,0,0,.34-.35,22.6,22.6,0,0,0,.34-3.09l.35-5.28a21.19,21.19,0,0,0,.08-3.11.44.44,0,0,0-.3-.39q-.13,0-1.11-.18l-.09-.11L158,19l.1-.08c.62.08,1.6.18,2.94.27.79.06,1.42.1,1.9.11,1,0,1.7.06,2.17.1a7,7,0,0,1,2.42.49,2.34,2.34,0,0,1,1.3,1.52,3.55,3.55,0,0,1,.1,1.17,4,4,0,0,1-3.2,3.64c.29.58.59,1.17.91,1.77L168,30.46A11.07,11.07,0,0,0,169.55,33a1.09,1.09,0,0,0,.6.19l.09.11,0,.64Zm16.72-4.3A7.82,7.82,0,0,1,184,35a7.3,7.3,0,0,1-5.73,1.12,7,7,0,0,1-4.81-2.74,7.48,7.48,0,0,1-1.05-5.61c.49-3.17,2-5.17,4.49-6a8.46,8.46,0,0,1,4-.18,7.19,7.19,0,0,1,4.88,2.66,6.91,6.91,0,0,1,1.1,5.37Zm-3,0a8.28,8.28,0,0,0-.41-4.74,3.76,3.76,0,0,0-3-2.22,3.64,3.64,0,0,0-4.15,2,9.27,9.27,0,0,0-.93,3,9.38,9.38,0,0,0,.35,5,3.73,3.73,0,0,0,3.07,2.38,3.59,3.59,0,0,0,4.06-2.17,10.2,10.2,0,0,0,1-3.23ZM204,27.73l-.11.07c-.74-.18-1.2-.07-1.39.32a11.07,11.07,0,0,0-.44,1.45c-.14.56-.33,1.38-.57,2.44l-.66,3c-.43,1.93-1.1,3.22-2,3.87a5.3,5.3,0,0,1-4.5.64,7.52,7.52,0,0,1-3.64-1.77,3.5,3.5,0,0,1-1.06-2.41,23.55,23.55,0,0,1,.76-4.48l.55-2.52a23.79,23.79,0,0,0,.55-3.05.44.44,0,0,0-.24-.44,9.29,9.29,0,0,0-1.07-.36l-.07-.12.14-.66.12-.07c.59.18,1.55.43,2.87.75s2.31.54,2.89.63l.07.12-.15.66-.11.07c-.65-.11-1-.16-1.12-.16a.42.42,0,0,0-.4.28,22.1,22.1,0,0,0-.79,3l-.45,2a18.55,18.55,0,0,0-.68,4.59c.18,1.19,1.11,2,2.77,2.39a3.7,3.7,0,0,0,2.75-.22,2.39,2.39,0,0,0,.78-.67,5,5,0,0,0,.54-1.2,14.59,14.59,0,0,0,.45-1.6l.45-2c.37-1.7.62-2.87.75-3.5a4.66,4.66,0,0,0,.14-1.16.63.63,0,0,0-.26-.39,5.52,5.52,0,0,0-1.12-.42l-.07-.12.14-.66.12-.07c.54.17,1.09.32,1.66.46l2.5.54.07.12-.15.66Zm13.81,13.4-.12.07c-.41,0-.67,0-.79.17a11.59,11.59,0,0,0-.69,1.9,15.6,15.6,0,0,0-.42,1.63,16.11,16.11,0,0,1-5.92-.68,8,8,0,0,1-4.7-3.7,7.26,7.26,0,0,1-.4-5.89,6.45,6.45,0,0,1,5.48-4.91,9.51,9.51,0,0,1,4.42.57,15.07,15.07,0,0,1,2.86,1.33,10,10,0,0,1,1.75,1.29l0,.2a16.82,16.82,0,0,0-1.3,2.78l-.13.06-.55-.18-.06-.13c0-.12.11-.37.2-.76s.14-.66.16-.82a3.35,3.35,0,0,0-1.07-1.44,6.74,6.74,0,0,0-2.12-1.18,4.62,4.62,0,0,0-5.32,1.21,7.31,7.31,0,0,0-1.48,2.72,7.42,7.42,0,0,0,0,4.86,4.79,4.79,0,0,0,3.1,3,5.46,5.46,0,0,0,2.48.25q.27-.65.63-1.8a5.88,5.88,0,0,0,.3-1.17.47.47,0,0,0-.28-.33,15.05,15.05,0,0,0-1.5-.67l-.08-.13.19-.6.13-.06c.88.32,1.8.64,2.77,1l2.52.82.07.13-.15.45Zm14,11-.12.06c-.58-.28-1.5-.67-2.74-1.16s-2.22-.87-2.79-1l-.06-.12.23-.64.14-.05a10.62,10.62,0,0,0,1.08.32.4.4,0,0,0,.43-.22,22.49,22.49,0,0,0,1.19-2.85l.82-2.25c-.29-.16-1.25-.56-2.88-1.21s-2.51-1-3-1.15l-.83,2.26A22.74,22.74,0,0,0,222.3,47a.44.44,0,0,0,.18.47,10.46,10.46,0,0,0,1,.51l.06.13-.24.62-.11.06c-.59-.28-1.5-.66-2.75-1.16s-2.21-.86-2.78-1l-.06-.12.23-.63.13-.06a10.62,10.62,0,0,0,1.08.32.4.4,0,0,0,.43-.22,22.49,22.49,0,0,0,1.19-2.85l1.82-4.95a22.74,22.74,0,0,0,.95-2.94.47.47,0,0,0-.18-.47,10.46,10.46,0,0,0-1-.51l-.05-.13.23-.63.12-.05c.56.26,1.48.65,2.75,1.16s2.22.86,2.78,1l0,.12-.24.64-.12,0a9.35,9.35,0,0,0-1.08-.33.42.42,0,0,0-.43.23,22.3,22.3,0,0,0-1.18,2.85l-.57,1.54c.62.28,1.49.65,2.6,1.1,1.75.69,2.84,1.11,3.29,1.25l.56-1.54a22.74,22.74,0,0,0,.95-2.94.44.44,0,0,0-.18-.47,11,11,0,0,0-1-.51l-.07-.14.24-.63.12,0c.56.27,1.48.66,2.74,1.16s2.23.87,2.79,1.05l.06.12-.24.64-.11.05a10.39,10.39,0,0,0-1.1-.33.43.43,0,0,0-.43.23,24,24,0,0,0-1.18,2.85l-1.82,4.95a21.19,21.19,0,0,0-.95,2.94.44.44,0,0,0,.18.47,11,11,0,0,0,1,.51l.06.13-.24.63Z"/><path class="cls-1" d="M128.05,293.16l-.17.09c-1.2-.33-2.67-.7-4.42-1.1S120,291.39,118,291l-.11-.15.15-.66.18-.07,1.31.19a6.8,6.8,0,0,0,1.47.14.86.86,0,0,0,.47-.31,17.22,17.22,0,0,0,1.17-4l.6-2.67c.18-.79.39-1.82.64-3.06l.16-.8q.12-.54-.15-.6a3.59,3.59,0,0,0-.83.07c-1.28.18-2.39.34-3.32.5l-.13-.11a11,11,0,0,0,0-1.43l0-.08q3.78,0,8.53-.43l.23.22c-.13.42-.31,1-.57,1.85-.09.31-.31,1.15-.65,2.52l-1,4.21a27.54,27.54,0,0,0-.92,4.9.53.53,0,0,0,.32.39,18.58,18.58,0,0,0,2.39.75l.14.14-.14.66Zm14-3.65a4.59,4.59,0,0,1-.63,2.26,5.51,5.51,0,0,1-3.54,2.47,8.31,8.31,0,0,1-2.41.21,5.77,5.77,0,0,1-4.56-2,3.27,3.27,0,0,1-.65-2.23,3.32,3.32,0,0,1,1.38-2.66,9.91,9.91,0,0,1,1.9-.93c-1.75-.89-2.61-2.09-2.56-3.6.05-1.7,1-2.93,2.94-3.66a7.14,7.14,0,0,1,2.8-.43,6.14,6.14,0,0,1,3.58,1.06,2.77,2.77,0,0,1,1.17,2.39c0,1.31-.92,2.36-2.64,3.13a5.82,5.82,0,0,1,2.59,1.69,3.55,3.55,0,0,1,.63,2.31Zm-2.85-6.89a2.16,2.16,0,0,0-.73-1.76,3.19,3.19,0,0,0-2.09-.72,2.8,2.8,0,0,0-1.92.56,1.79,1.79,0,0,0-.69,1.4,1.94,1.94,0,0,0,.8,1.54,5.74,5.74,0,0,0,1.31.76l.92.4.71.28a2.71,2.71,0,0,0,1.69-2.46Zm-.16,8.07a2.56,2.56,0,0,0-1.64-2.44,23.48,23.48,0,0,0-2.37-1l-.36-.13a3.51,3.51,0,0,0-2,2.94,2.83,2.83,0,0,0,.42,1.71,3.39,3.39,0,0,0,2.87,1.55,3.05,3.05,0,0,0,2.17-.69,2.48,2.48,0,0,0,.89-1.9Zm15.62-11.78q-2.56,5-4.11,8.78c-.92,2.3-1.64,4.25-2.13,5.84l-.2.15a12.91,12.91,0,0,0-1.32.08c-.46.06-1,.13-1.52.23l-.17-.23L150,285c.39-.71.7-1.29.91-1.73l1-2.16-.12-.19-3.35.37-2.37.29a7,7,0,0,0-1.44.26.59.59,0,0,0-.33.37,12,12,0,0,0-.18,2.11l-.13.14-.83.06-.15-.1q-.06-1.23-.18-2.34c-.09-.86-.22-1.8-.39-2.8l.16-.14c2.12-.15,4.19-.34,6.2-.55q3.93-.44,5.53-.67l.15.09.1.89Zm12.62,5.51a5.13,5.13,0,0,1-1.38,5.29,6.3,6.3,0,0,1-2.88,1.55,5.54,5.54,0,0,1-4.53-.46,6.43,6.43,0,0,1-2.74-4.08,8.54,8.54,0,0,1-.05-5,9.83,9.83,0,0,1,2.55-4,10.39,10.39,0,0,1,4.5-2.49l1.2.42-.3.47a5.6,5.6,0,0,0-.89.18,5.54,5.54,0,0,0-3.14,2.14,5.23,5.23,0,0,0-.8,1.68,10,10,0,0,0-.07,4.1,14.26,14.26,0,0,1,1.67-2,6.12,6.12,0,0,1,1.84-.81,4,4,0,0,1,3,.27,4.15,4.15,0,0,1,2,2.76Zm-2.78,2A4,4,0,0,0,163,284.1a2.38,2.38,0,0,0-2.09-.32,2.07,2.07,0,0,0-1.73,1.65,3.41,3.41,0,0,0,.15,1.48,4.5,4.5,0,0,0,2,3,2.32,2.32,0,0,0,1.67.14c1.53-.42,2-1.63,1.47-3.63Z"/><path class="cls-1" d="M28.15,261.57l.25.95c.05.21.13.48.23.83l.2.66,0,.11-.46.18-.11-.05a3.92,3.92,0,0,0-.6-1.18c-.19-.12-1,.08-2.33.61-.22.08-.56.23-1,.44.15.57.5,1.56,1,3l.41,1.08.92-.32c.27-.1.77-.31,1.5-.62.14-.06.22-.13.24-.22a2.76,2.76,0,0,0-.26-1.12l.05-.11.5-.19.11.05c.21.61.41,1.16.6,1.66s.44,1.12.71,1.76l0,.1-.53.2-.12-.05a3.51,3.51,0,0,0-.45-.95c-.16-.16-.48-.17-1,0-.32.09-.63.19-.94.31l-1,.4.73,1.91a17.7,17.7,0,0,0,1.06,2.44.35.35,0,0,0,.38.19s.44-.12,1.18-.35l.11.05.21.53-.06.12-3.24,1.19c-.46.17-1.09.42-1.89.77l-.11,0-.21-.54.05-.11c.54-.25.83-.39.91-.44a.39.39,0,0,0,.16-.4,20.41,20.41,0,0,0-.85-2.53l-1.63-4.23a19.48,19.48,0,0,0-1.06-2.45.38.38,0,0,0-.39-.19c-.08,0-.41.11-1,.28l-.11-.05-.21-.54.05-.11c.52-.16,1.35-.46,2.48-.9.74-.28,2.53-1,5.39-2.12l.1,0Zm13-1.82a6.22,6.22,0,0,1-1.83,9.34,6.25,6.25,0,0,1-4.74,1.21,6.19,6.19,0,0,1-4-2.87c-1.53-2.28-1.73-4.45-.58-6.5a7.85,7.85,0,0,1,2.52-2.57,6.57,6.57,0,0,1,4.75-1.31,5.77,5.77,0,0,1,3.85,2.7Zm-1.94,1.85a6.91,6.91,0,0,0-3-2.72,3.32,3.32,0,0,0-3.24.43,3.28,3.28,0,0,0-1.53,3.79,7.41,7.41,0,0,0,1.12,2.42,7.79,7.79,0,0,0,3.15,2.93,3.36,3.36,0,0,0,3.4-.38,3.24,3.24,0,0,0,1.38-3.84,8.58,8.58,0,0,0-1.24-2.63Zm13.54-10.77A6.58,6.58,0,0,1,54.06,256a6.66,6.66,0,0,1-3,4.25,6.28,6.28,0,0,1-4.72,1.29,6.18,6.18,0,0,1-4-2.81q-2.37-3.37-.7-6.49a7.84,7.84,0,0,1,2.47-2.61,6.52,6.52,0,0,1,4.72-1.39,5.74,5.74,0,0,1,3.9,2.64Zm-1.91,1.88A7,7,0,0,0,47.73,250a3.34,3.34,0,0,0-3.24.49A3.28,3.28,0,0,0,43,254.34a7.9,7.9,0,0,0,1.16,2.4,7.7,7.7,0,0,0,3.21,2.87,3.35,3.35,0,0,0,3.39-.43,3.22,3.22,0,0,0,1.31-3.86,8.8,8.8,0,0,0-1.29-2.61Zm10-13.14a8.54,8.54,0,0,0,.56,1.19l.7,1.25,0,.12-.47.27-.12,0a10.34,10.34,0,0,0-.72-1.07.61.61,0,0,0-.68-.07q-.17.06-1.41.78l-1,.58c.09.18.48.87,1.18,2.07l2.44,4.22a21.12,21.12,0,0,0,1.42,2.25.38.38,0,0,0,.42.13,8.54,8.54,0,0,0,.91-.43l.12,0,.29.5,0,.12c-.51.25-1.28.68-2.31,1.28s-1.82,1.07-2.26,1.36l-.11,0-.3-.5,0-.12a8.94,8.94,0,0,0,.82-.57.39.39,0,0,0,.1-.43,20.76,20.76,0,0,0-1.24-2.36l-2.43-4.21c-.71-1.23-1.12-1.91-1.22-2.06l-1.07.61a9.62,9.62,0,0,0-1.5,1,.4.4,0,0,0-.1.21,1.6,1.6,0,0,0,.16.54c.12.28.25.57.4.85l0,.12-.47.27-.12,0L52,246.13a9.49,9.49,0,0,0-.73-1l0-.11c.33-.12,1.4-.71,3.24-1.77l3-1.74q2.55-1.47,3.15-1.92l.13,0Zm14.17,2a3.67,3.67,0,0,1-.41,3.91,5.36,5.36,0,0,1-2.13,1.69l-.77.36-1.86.87c-.66.32-1.16.58-1.5.79l-.12,0-.11-.22v-.11a3.14,3.14,0,0,0,.39-.75,3.94,3.94,0,0,0-.42-1.07l-.82-1.74-1.9-3.91A19.2,19.2,0,0,0,64.1,239a.38.38,0,0,0-.4-.15,8.3,8.3,0,0,0-.94.36l-.11,0-.26-.53,0-.1c.47-.19,1.26-.56,2.38-1.11.71-.34,1.34-.67,1.9-1l1.13-.6c1.43-.69,2.54-.83,3.3-.39a2.16,2.16,0,0,1,.93,1,2.55,2.55,0,0,1,0,2.24,3.24,3.24,0,0,1-.6.93,10.24,10.24,0,0,1-1,.87q3.25-1.41,4.45,1ZM70,238a1.72,1.72,0,0,0-2.61-.84,6.83,6.83,0,0,0-1,.55c.25.55.48,1.05.7,1.51l1,2.13.72-.33a2.06,2.06,0,0,0,1.4-1.79A2.77,2.77,0,0,0,70,238Zm2.83,5c-.76-1.54-1.94-1.92-3.56-1.13l-.69.36,1.74,3.58c.19.38.38.75.58,1.12a6.79,6.79,0,0,0,.92-.39A2.27,2.27,0,0,0,73.1,245a3,3,0,0,0-.32-2.05Zm17.13-3.31,0,.1c-1.2.43-1.92.68-2.16.78-1,.38-1.89.75-2.73,1.1l-.1-.05-.19-.51,0-.12.68-.3c.29-.13.39-.29.32-.48a3.23,3.23,0,0,0-.52-.67l-1.29-1.44c-.75.27-1.5.55-2.27.85l-1.85.73,0,1.11a7,7,0,0,0,.13,1.55c.08.2.25.27.52.21a7.72,7.72,0,0,0,.84-.25l.11.05.2.51,0,.12c-1,.34-1.64.57-1.92.68s-.76.31-1.61.67l-.11,0-.2-.52.06-.12c.54-.24.83-.48.88-.72s.1-1.52.13-3.88l.08-6c0-.47,0-1.17,0-2.11l1.13-.43,8.09,8.36c.3.31.54.47.69.47a2.63,2.63,0,0,0,.8-.2l.1.06.2.52Zm-6.73-2.36-3.33-3.54,0,4.82c.45-.15,1-.36,1.72-.63l1.64-.65Zm16.17-3a18.39,18.39,0,0,0,.51,2.8l-.07.1-6.06,1.46c-1,.25-1.72.45-2.13.59l-.11-.07,0-.23v-.11a2.87,2.87,0,0,0,.55-.66,4.79,4.79,0,0,0-.19-1.13l-.44-1.87L90.32,231a19.08,19.08,0,0,0-.75-2.55.37.37,0,0,0-.36-.24,9.07,9.07,0,0,0-1,.16l-.11-.06-.14-.57.07-.09c.58-.11,1.42-.3,2.53-.58s2-.52,2.59-.7l.1.06.14.57-.06.1c-.56.17-.88.28-1,.32a.37.37,0,0,0-.2.38,18.18,18.18,0,0,0,.54,2.61l1.24,5q.27,1.09.57,2.1l1.13-.28a13.62,13.62,0,0,0,2.93-.93.33.33,0,0,0,.11-.13,1.47,1.47,0,0,0,0-.54l-.06-1.08.06-.11.51-.13.1,0Zm11-1.34a18.48,18.48,0,0,0,0,2.85l-.08.09-6.22.49q-1.55.14-2.19.24l-.09-.07,0-.24,0-.11a2.94,2.94,0,0,0,.64-.56,3.87,3.87,0,0,0,0-1.15l-.15-1.92-.37-4.33a17.42,17.42,0,0,0-.35-2.64.37.37,0,0,0-.31-.29,7.39,7.39,0,0,0-1,0l-.09-.07,0-.58.07-.09c.59,0,1.46-.08,2.59-.17s2.06-.2,2.67-.29l.09.07.06.59-.08.08a8.19,8.19,0,0,0-1,.17.38.38,0,0,0-.27.34,18.67,18.67,0,0,0,.12,2.66l.45,5.12c.06.74.14,1.47.23,2.16l1.16-.1a14.09,14.09,0,0,0,3-.46.36.36,0,0,0,.13-.11,1.51,1.51,0,0,0,.12-.53l.11-1.08.07-.09.53-.05.1.07Z"/><path class="cls-1" d="M206,244.34l-.72.64a8.19,8.19,0,0,1-4.11-.71q-4.11-1.78-4.32-5.41a7.06,7.06,0,0,1,.59-3.27,5.7,5.7,0,0,1,3.51-3.36,7.55,7.55,0,0,1,5.48.51,11.35,11.35,0,0,1,3.46,2.35l.05.16a14.08,14.08,0,0,0-1.43,2.4l-.11,0-.46-.2-.05-.12a11.78,11.78,0,0,0,.5-1.36,4,4,0,0,0-2.36-2.35,4.2,4.2,0,0,0-3.53-.09,5.17,5.17,0,0,0-2.51,2.81,5.61,5.61,0,0,0,0,5.16,4.77,4.77,0,0,0,2.41,2,7,7,0,0,0,3.43.54l.12.26Zm10.31,3.55a20.2,20.2,0,0,0-1.48,2.43l-.12,0-5.5-2.94c-.92-.48-1.58-.8-2-1l0-.12.12-.21.08-.07a3.59,3.59,0,0,0,.84-.13,4.1,4.1,0,0,0,.61-1l.92-1.69,2-3.86a17.23,17.23,0,0,0,1.14-2.41.37.37,0,0,0-.11-.41c-.07-.06-.35-.24-.85-.55l0-.11.27-.52.11,0c.51.31,1.27.72,2.27,1.25s1.85.94,2.41,1.19l0,.11-.27.53-.12,0c-.53-.24-.84-.37-.92-.39a.37.37,0,0,0-.41.15,18.2,18.2,0,0,0-1.33,2.3l-2.38,4.55c-.35.67-.67,1.31-1,1.95l1,.54a13,13,0,0,0,2.82,1.25.25.25,0,0,0,.17,0,1.84,1.84,0,0,0,.38-.38l.67-.85.12,0,.47.24,0,.11Zm16.52-.21-.12,0c-.58-.35-1-.4-1.26-.14a9.69,9.69,0,0,0-.77,1.06c-.28.42-.66,1-1.15,1.82l-1.39,2.25a5.33,5.33,0,0,1-2.76,2.58,4.91,4.91,0,0,1-4-.76,6.93,6.93,0,0,1-2.6-2.48,3,3,0,0,1-.24-2.26,20.14,20.14,0,0,1,1.86-3.43l1.16-1.89a19.55,19.55,0,0,0,1.3-2.32.38.38,0,0,0-.08-.43,9.93,9.93,0,0,0-.81-.59l0-.12.3-.49.12,0c.45.32,1.19.79,2.23,1.43s1.81,1.09,2.27,1.34l0,.11-.31.49-.12,0a6.54,6.54,0,0,0-.9-.45.36.36,0,0,0-.41.12,17,17,0,0,0-1.49,2.2l-.93,1.51A15.13,15.13,0,0,0,221,250.8c-.17,1,.39,1.93,1.69,2.73a3.41,3.41,0,0,0,2.39.6,2,2,0,0,0,.83-.32,4.15,4.15,0,0,0,.8-.82c.29-.37.55-.76.81-1.17l.93-1.52c.79-1.28,1.32-2.16,1.6-2.63a3.58,3.58,0,0,0,.43-.91.51.51,0,0,0-.11-.39,5.88,5.88,0,0,0-.83-.66l0-.12.31-.49.12,0c.41.3.83.58,1.28.85s1,.59,2,1.15l0,.12-.29.49Zm5.27,13.3a3.65,3.65,0,0,1-3.66,1.43A5.24,5.24,0,0,1,232,261.3c-.27-.2-.5-.37-.67-.51l-1.63-1.26c-.58-.43-1.05-.76-1.39-1l0-.12.14-.2.1-.05a2.94,2.94,0,0,0,.85,0,4.11,4.11,0,0,0,.76-.86l1.16-1.53,2.6-3.49a18.56,18.56,0,0,0,1.49-2.2.36.36,0,0,0,0-.43c-.06-.07-.31-.29-.76-.67v-.12l.34-.46.12,0c.39.33,1.08.87,2.07,1.61.64.47,1.22.89,1.75,1.24s.77.52,1,.73c1.28.95,1.91,1.87,1.88,2.75a2.37,2.37,0,0,1-.47,1.3,2.6,2.6,0,0,1-2,1.06,3.25,3.25,0,0,1-1.1-.1,10,10,0,0,1-1.21-.44c1.83,1.49,2.21,3,1.12,4.42Zm.84-6.15a1.71,1.71,0,0,0-.46-2.7,8.52,8.52,0,0,0-.93-.61l-1,1.32-1.41,1.9c.1.09.31.25.63.49a2.05,2.05,0,0,0,2.23.42,2.8,2.8,0,0,0,1-.82Zm-3.1,4.8q1.53-2.07-.64-3.68c-.18-.14-.4-.29-.64-.45l-2.37,3.2c-.25.33-.5.68-.73,1a6.8,6.8,0,0,0,.76.63,2.3,2.3,0,0,0,1.94.5,3,3,0,0,0,1.68-1.23Z"/></g></g></svg>