<svg xmlns="http://www.w3.org/2000/svg" xmlns:xlink="http://www.w3.org/1999/xlink" viewBox="0 0 163.81 297.39"><defs><style>.cls-1{fill:none;}.cls-2{clip-path:url(#clip-path);}.cls-3{fill:#9f8c50;}.cls-4{fill:#231f20;}.cls-5{fill:#fff;}.cls-6{fill:#ee2722;}.cls-7{fill:#fff200;}</style><clipPath id="clip-path" transform="translate(-1.39 -1.23)"><rect class="cls-1" width="166.6" height="300"/></clipPath></defs><title>Monaco</title><g id="Слой_2" data-name="Слой 2"><g id="Слой_1-2" data-name="Слой 1"><g id="g3979"><g id="g3981"><g id="g3987"><g class="cls-2"><g id="g3989"><g id="g3995"><path id="path3997" class="cls-3" d="M82.87,298.54c-53.14-30-78-74.6-81.41-136.59V106.08H165.13v56.71c-3.4,62-29.12,105.78-82.26,135.75" transform="translate(-1.39 -1.23)"/></g><g id="g3999"><path class="cls-4" d="M82.87,298.62l0,0a175.1,175.1,0,0,1-34.68-25.28,142,142,0,0,1-24.7-31,152.13,152.13,0,0,1-15.38-37A209.5,209.5,0,0,1,1.39,162V106H165.2v56.77A201.14,201.14,0,0,1,158.38,206a148.74,148.74,0,0,1-15.67,36.75,143.16,143.16,0,0,1-25,30.75,181.79,181.79,0,0,1-34.8,25.14ZM1.53,106.15V162C5,225.74,30.88,269.13,82.87,298.46c52.63-29.69,78.74-72.8,82.2-135.67V106.15Z" transform="translate(-1.39 -1.23)"/></g><path id="path4003" class="cls-5" d="M12.36,151.73H153.74V115.62H12.36Z" transform="translate(-1.39 -1.23)"/><path class="cls-4" d="M153.81,151.8H12.29V115.55H153.81Zm-141.38-.14H153.67v-36H12.43Z" transform="translate(-1.39 -1.23)"/><g id="g4007"><path id="path4009" class="cls-5" d="M82.87,286.28C3.16,235.18,12.7,158.2,12.7,158.2H154.07s7.49,79-71.2,128.08" transform="translate(-1.39 -1.23)"/></g><g id="g4011"><path class="cls-4" d="M82.87,286.36l0,0c-18.18-11.66-33.19-25.65-44.61-41.59A139.11,139.11,0,0,1,17.83,203.1c-7.5-25.35-5.22-44.71-5.2-44.91v-.06H154.13v.07c0,.19,1.78,20.06-6.1,45.67a142.27,142.27,0,0,1-20.79,41.74,156.44,156.44,0,0,1-44.34,40.73ZM12.76,158.27c-.13,1.21-2.08,20.17,5.2,44.8,6.91,23.36,23.78,56.75,64.91,83.13,40.6-25.33,57.78-58.77,65-82.37,7.65-24.87,6.2-44.32,6.1-45.56Z" transform="translate(-1.39 -1.23)"/></g><g id="g4015"><path id="path4017" class="cls-6" d="M27.69,159.22V224.8a147.62,147.62,0,0,0,19.07,29.29V159.22" transform="translate(-1.39 -1.23)"/></g><g id="g4019"><path id="path4021" class="cls-6" d="M95.64,276.74V158.37l-26.22.51V275.72l14,9.88" transform="translate(-1.39 -1.23)"/></g><g id="g4023"><path id="path4025" class="cls-6" d="M136.35,158.88l.52,70.52s-10.06,18-19.42,27.25l-.17-97.77" transform="translate(-1.39 -1.23)"/></g><g id="g4027"><path class="cls-4" d="M82.87,286.36l0,0c-18.18-11.66-33.19-25.65-44.61-41.59A139.11,139.11,0,0,1,17.83,203.1c-7.5-25.35-5.22-44.71-5.2-44.91v-.06H154.13v.07c0,.19,1.78,20.06-6.1,45.67a142.27,142.27,0,0,1-20.79,41.74,156.44,156.44,0,0,1-44.34,40.73ZM12.76,158.27c-.13,1.21-2.08,20.17,5.2,44.8,6.91,23.36,23.78,56.75,64.91,83.13,40.6-25.33,57.78-58.77,65-82.37,7.65-24.87,6.2-44.32,6.1-45.56Z" transform="translate(-1.39 -1.23)"/></g><g id="g4031"><path id="path4033" class="cls-3" d="M84.05,7.62,86.4,1.29H78.63L81,7.62a4.19,4.19,0,0,0-2.7,2.53L72.12,8v7.59l6.15-2.17A4.19,4.19,0,0,0,81,15.93l-1.26,3.44a6.68,6.68,0,0,1,2.71-.72,7.55,7.55,0,0,1,2.89.72l-1.26-3.44a3.59,3.59,0,0,0,2.53-2.53l6.31,2.17V8l-6.31,2.17a3.59,3.59,0,0,0-2.53-2.53" transform="translate(-1.39 -1.23)"/></g><g id="g4035"><path id="path4037" class="cls-3" d="M116.21,30.38c-2.89-.9-6.69-.54-11.74.55L92.18,34a22.12,22.12,0,0,1-5.78.36c.18.91.54,1.81.72,2.9v.17h.18c.72,0,1.45.19,2.35.19,1.08,0,4.15-.36,9.57-.9,3.8-.55,6.69-.37,8.49.35a6.61,6.61,0,0,1,4.34,4.16,7.26,7.26,0,0,1,.55,2.17,18.34,18.34,0,0,1,.36,4.51,24.37,24.37,0,0,1-1.45,6.87C111,56.41,110.06,58,109.16,60a54.48,54.48,0,0,1-3.07,5.07,112.25,112.25,0,0,0-5.78,10.12A21.71,21.71,0,0,0,97.78,85a35.42,35.42,0,0,1,4.15.37,23.21,23.21,0,0,1,4.52-13c1.63-2.35,4.7-5.59,9.22-9.93a4.58,4.58,0,0,1,1.08-.91c3.43-3.61,5.79-6.32,6.87-8.67a11,11,0,0,0,1.45-3.8,16.89,16.89,0,0,0-.73-8.85v-.36c-1.8-5.06-4.52-8.13-8.13-9.4" transform="translate(-1.39 -1.23)"/></g><g id="g4039"><path id="path4041" class="cls-3" d="M88.38,24.61a6,6,0,0,0-1.62-4.16c-.54-.36-.9-.73-1.44-1.09a7.65,7.65,0,0,0-2.9-.72,6.68,6.68,0,0,0-2.71.72c-.54.36-.91.73-1.45,1.09a6.23,6.23,0,0,0-1.8,4.16,6.67,6.67,0,0,0,1.8,4.33,10.49,10.49,0,0,0,2.35,1.44,5.05,5.05,0,0,0,3.8,0,10.06,10.06,0,0,0,2.35-1.44,6.48,6.48,0,0,0,1.62-4.33" transform="translate(-1.39 -1.23)"/></g><g id="g4043"><path id="path4045" class="cls-3" d="M87.12,37.43v-.18c-.18-1.09-.54-2-.72-2.89a13.06,13.06,0,0,0-2-4,5.13,5.13,0,0,1-3.78,0A6.8,6.8,0,0,0,79,33.64a15.78,15.78,0,0,0-.91,3.07c-.18.36-.18.36-.18.54A30,30,0,0,0,76.82,43,82.12,82.12,0,0,0,75.91,57v1.8a72.72,72.72,0,0,0,2,17.71c1.09,4.52,2.36,7.23,3.8,8h1.63c1.44-.72,2.7-3.43,3.79-8a85.13,85.13,0,0,0,2-18.07V57A106.36,106.36,0,0,0,88.21,43a25.86,25.86,0,0,0-1.09-5.6" transform="translate(-1.39 -1.23)"/></g><g id="g4047"><path id="path4049" class="cls-3" d="M88.2,43a12.49,12.49,0,0,0,3.07,1.27c3.44,1.26,8.85,2.35,15.91,3.07l5.78.54a18.42,18.42,0,0,0-.36-4.52,7.28,7.28,0,0,0-.55-2.16h-.36a62.54,62.54,0,0,1-18.07-1.45,31,31,0,0,1-6.32-2.35h-.18A25.87,25.87,0,0,1,88.2,43" transform="translate(-1.39 -1.23)"/></g><g id="g4051"><path id="path4053" class="cls-7" d="M124.34,39.78h0v.36" transform="translate(-1.39 -1.23)"/></g><g id="g4055"><path id="path4057" class="cls-3" d="M125.06,49c5.06.72,8.5,1.62,10.12,3.06,2.35,2,2.89,4.52,1.44,7.78a28.92,28.92,0,0,1-4.15,6.5c-.9.91-1.81,2-2.89,3.08L120,79.35c-2.71,3.07-4.52,5.78-5.24,8A52.51,52.51,0,0,1,120,88.57a60.47,60.47,0,0,1,7.23-6l12.83-8.49c11-7.77,16.26-15.17,15.89-22-.53-9.21-5.78-13.72-15.53-13.9a102.06,102.06,0,0,0-14.1,1.26,7.66,7.66,0,0,1-2,.36v.37a17,17,0,0,1,.72,8.85" transform="translate(-1.39 -1.23)"/></g><g id="g4059"><path id="path4061" class="cls-6" d="M120,79.35l9.57-9.94c1.09-1.08,2-2.17,2.9-3.07a74.41,74.41,0,0,0-15.72-4.88,4.82,4.82,0,0,0-1.09.91c-4.51,4.33-7.58,7.58-9.2,9.93a23.18,23.18,0,0,0-4.53,13,91,91,0,0,1,12.83,2c.73-2.16,2.53-4.88,5.24-8" transform="translate(-1.39 -1.23)"/></g><g id="g4063"><path id="path4065" class="cls-3" d="M120.91,88.75a8.05,8.05,0,0,0-.91-.18,53,53,0,0,0-5.23-1.27,90,90,0,0,0-12.84-2A33.39,33.39,0,0,0,97.78,85c-4.7-.36-9.4-.54-14.45-.54H81.7c-5.24,0-10.3.18-14.82.54-1.44.18-2.88.18-4.33.37a114.48,114.48,0,0,0-12.29,2,45.72,45.72,0,0,0-5.42,1.27,7.8,7.8,0,0,0-.9.18c-1.09.36-1.63,1.09-2.17,2.53a9.7,9.7,0,0,0-.18,4c.72,3.44,2.53,4.88,5.24,4.34.36,0,.72-.18,1.08-.18a114.64,114.64,0,0,1,34.51-4.88,116.7,116.7,0,0,1,34.69,4.88.66.66,0,0,1,.54.18c3.07.54,4.89-.72,5.79-4.34a9.7,9.7,0,0,0-.18-4,3.7,3.7,0,0,0-2.35-2.53" transform="translate(-1.39 -1.23)"/></g><g id="g4067"><path id="path4069" class="cls-6" d="M106.09,65.08A55.74,55.74,0,0,0,109.16,60,178.16,178.16,0,0,0,89.1,58.39a85.11,85.11,0,0,1-2,18.07c-1.08,4.52-2.35,7.23-3.79,8,5,0,9.75.18,14.45.55a21.83,21.83,0,0,1,2.52-9.76c.91-2,2.91-5.43,5.79-10.12" transform="translate(-1.39 -1.23)"/></g><g id="g4071"><path id="path4073" class="cls-6" d="M117.65,99.59a.66.66,0,0,0-.54-.18,116.38,116.38,0,0,0-34.69-4.88,114.32,114.32,0,0,0-34.51,4.88c-.36,0-.72.18-1.08.18L47,105h70.64" transform="translate(-1.39 -1.23)"/></g><g id="g4075"><path id="path4077" class="cls-7" d="M40.14,39.78H40" transform="translate(-1.39 -1.23)"/></g><g id="g4079"><path id="path4081" class="cls-3" d="M38.7,39.42a106.76,106.76,0,0,0-14.09-1.26c-9.94.17-15.18,4.69-15.54,13.91-.36,6.86,4.87,14.27,15.89,22L37.61,82.6a48.63,48.63,0,0,1,7.23,6,46.19,46.19,0,0,1,5.42-1.27,30.82,30.82,0,0,0-5.42-8l-9.58-9.93c-.9-1.09-1.8-2.17-2.71-3.08a24.88,24.88,0,0,1-4.33-6.5c-1.27-3.26-.9-5.79,1.62-7.77,1.45-1.45,4.7-2.35,9.58-3.07A16.32,16.32,0,0,1,40,39.78c-.36-.18-.9-.18-1.26-.36" transform="translate(-1.39 -1.23)"/></g><g id="g4083"><path id="path4085" class="cls-3" d="M40.14,39.78H40A16.32,16.32,0,0,0,39.42,49a19.3,19.3,0,0,0,1.26,3.43c1.09,2.35,3.8,5.42,7.59,9l.36.36c4.7,4.33,7.78,7.76,9.22,10.12a23.62,23.62,0,0,1,4.7,13.36c1.45-.18,2.89-.18,4.34-.36a29.32,29.32,0,0,0-2.72-10.3,109.45,109.45,0,0,0-6-10.12c-.9-1.44-1.8-2.89-2.53-4.33A32.26,32.26,0,0,1,53,54.42a16.85,16.85,0,0,1-1.45-6.51A22.05,22.05,0,0,1,51.7,43c.18-.55.36-1.27.54-1.81a7.55,7.55,0,0,1,4.34-4.7c2-.73,4.88-.73,8.68-.37a86.15,86.15,0,0,0,9.57.91,10.06,10.06,0,0,0,3.26-.36,15.11,15.11,0,0,1,.9-3.07,17.92,17.92,0,0,1-6.87-.18L59.83,30.38C55,29.3,51,29.12,48.27,30q-5.69,1.9-8.13,9.76" transform="translate(-1.39 -1.23)"/></g><g id="g4087"><path id="path4089" class="cls-3" d="M51.71,43a22.16,22.16,0,0,0-.18,4.88l6.32-.54a72.59,72.59,0,0,0,15.9-3.07A16.6,16.6,0,0,0,76.82,43a30,30,0,0,1,1.08-5.78,25.79,25.79,0,0,1-6.68,2.53,61.79,61.79,0,0,1-17.89,1.45H52.25c-.18.54-.36,1.26-.54,1.8" transform="translate(-1.39 -1.23)"/></g><g id="g4091"><path id="path4093" class="cls-6" d="M77.9,76.46a72.76,72.76,0,0,1-2-17.71c-7.59.19-14.28.73-20.24,1.45.73,1.44,1.63,2.89,2.53,4.33a109.45,109.45,0,0,1,6,10.12A29.08,29.08,0,0,1,66.88,85c4.52-.36,9.58-.54,14.82-.54-1.45-.72-2.71-3.43-3.8-8" transform="translate(-1.39 -1.23)"/></g><g id="g4095"><path id="path4097" class="cls-6" d="M57.85,71.94c-1.45-2.34-4.52-5.78-9.22-10.12l-.35-.36a73.18,73.18,0,0,0-15.73,4.88c.91.91,1.81,2,2.71,3.08l9.58,9.94a30.63,30.63,0,0,1,5.42,7.94,114.28,114.28,0,0,1,12.28-2,23.59,23.59,0,0,0-4.69-13.38" transform="translate(-1.39 -1.23)"/></g><g id="g4099"><path class="cls-4" d="M124.34,39.84a.08.08,0,0,1-.06,0c-1.79-5-4.44-8.08-8.09-9.36-2.6-.81-6.1-.65-11.71.54L92.2,34.06a22.36,22.36,0,0,1-5.81.36.05.05,0,0,1,0-.07s0-.05.07-.05a22,22,0,0,0,5.76-.36l12.28-3.07c5.63-1.21,9.15-1.37,11.78-.54,3.69,1.29,6.36,4.38,8.17,9.43a.06.06,0,0,1,0,.07Z" transform="translate(-1.39 -1.23)"/></g><g id="g4103"><path class="cls-4" d="M84.41,30.44a.06.06,0,0,1-.06,0s0-.07,0-.08a9.92,9.92,0,0,0,2.34-1.44,6.43,6.43,0,0,0,1.6-4.28,6,6,0,0,0-1.6-4.12c-.28-.18-.51-.37-.74-.55s-.44-.35-.7-.53a.05.05,0,0,1,0-.08.08.08,0,0,1,.09,0c.26.18.49.36.71.54s.46.36.73.54h0a6.15,6.15,0,0,1,1.63,4.21A6.59,6.59,0,0,1,86.81,29a10.46,10.46,0,0,1-2.38,1.46Z" transform="translate(-1.39 -1.23)"/></g><g id="g4107"><path class="cls-4" d="M87.12,37.49a.06.06,0,0,1-.06-.06v-.18a15.3,15.3,0,0,0-.41-1.68c-.12-.41-.23-.8-.31-1.19a.07.07,0,0,1,0-.08.08.08,0,0,1,.07.05c.08.39.19.78.31,1.19a14.62,14.62,0,0,1,.41,1.7v.19A.06.06,0,0,1,87.12,37.49Z" transform="translate(-1.39 -1.23)"/></g><g id="g4111"><path class="cls-4" d="M112.05,41.29s0,0,0,0a6.53,6.53,0,0,0-4.3-4.12c-1.89-.76-4.82-.88-8.47-.36l-4.07.42c-3,.3-4.73.48-5.52.48a10.26,10.26,0,0,1-1.3-.1,9.46,9.46,0,0,0-1-.08.05.05,0,0,1-.06-.06.06.06,0,0,1,.06-.06,9.64,9.64,0,0,1,1,.08,10.24,10.24,0,0,0,1.29.1c.78,0,2.56-.18,5.51-.49l4.07-.41c3.66-.53,6.61-.4,8.52.37a6.63,6.63,0,0,1,4.37,4.18.06.06,0,0,1,0,.08Z" transform="translate(-1.39 -1.23)"/></g><g id="g4115"><path class="cls-4" d="M113,48h0l-5.78-.55c-6.88-.7-12.38-1.76-15.91-3.07a12,12,0,0,1-3.09-1.26.06.06,0,0,1,0-.08.07.07,0,0,1,.08,0,11.9,11.9,0,0,0,3.06,1.26c3.53,1.3,9,2.36,15.89,3.06l5.78.55a.07.07,0,0,1,.06.07A.06.06,0,0,1,113,48Z" transform="translate(-1.39 -1.23)"/></g><g id="g4119"><path class="cls-4" d="M88.21,43.1a.06.06,0,0,1-.06-.06,25.4,25.4,0,0,0-1.09-5.59.07.07,0,0,1,0-.05.05.05,0,0,1,.05,0h.18a.06.06,0,0,1,0,.12h-.1A25.33,25.33,0,0,1,88.27,43a.09.09,0,0,1-.06.07Z" transform="translate(-1.39 -1.23)"/></g><g id="g4123"><path class="cls-4" d="M107.65,41.4a60.13,60.13,0,0,1-14-1.56,30.06,30.06,0,0,1-6.34-2.36.06.06,0,1,1,.06-.1,29.86,29.86,0,0,0,6.31,2.34,63,63,0,0,0,18,1.45h.36a.05.05,0,0,1,.06.06.06.06,0,0,1-.06.06h-.36C110.32,41.36,109,41.4,107.65,41.4Z" transform="translate(-1.39 -1.23)"/></g><g id="g4127"><path class="cls-4" d="M113,48a.05.05,0,0,1-.06-.06,18.14,18.14,0,0,0-.36-4.5,6.63,6.63,0,0,0-.47-1.95l-.08-.21a.07.07,0,0,1,0-.08.07.07,0,0,1,.08,0c0,.06,0,.14.07.21a6.46,6.46,0,0,1,.48,2,18.18,18.18,0,0,1,.36,4.51A.06.06,0,0,1,113,48Z" transform="translate(-1.39 -1.23)"/></g><g id="g4131"><path class="cls-4" d="M109.17,60.08h0a.06.06,0,0,1,0-.08c.29-.65.59-1.25.87-1.84a29,29,0,0,0,1.47-3.39,23.5,23.5,0,0,0,1.44-6.85.07.07,0,0,1,.07-.06.05.05,0,0,1,.05.07,23.31,23.31,0,0,1-1.45,6.88,29.12,29.12,0,0,1-1.47,3.4c-.28.59-.58,1.2-.87,1.84A.05.05,0,0,1,109.17,60.08Z" transform="translate(-1.39 -1.23)"/></g><g id="g4135"><path class="cls-4" d="M86.4,34.42a.05.05,0,0,1-.06,0L86.2,34a11.7,11.7,0,0,0-1.84-3.59.06.06,0,1,1,.09-.09A11.82,11.82,0,0,1,86.31,34l.14.36a.07.07,0,0,1,0,.08Z" transform="translate(-1.39 -1.23)"/></g><g id="g4139"><path class="cls-4" d="M120,88.63l0,0a.06.06,0,0,1,0-.08,58.77,58.77,0,0,1,7.24-6L140,74.06c10.9-7.68,16.24-15.08,15.87-22-.53-9.14-5.6-13.68-15.48-13.86a103.29,103.29,0,0,0-14.09,1.27l-.34.09a6.4,6.4,0,0,1-1.65.27.06.06,0,0,1,0-.12,5.85,5.85,0,0,0,1.62-.27l.35-.09a103.67,103.67,0,0,1,14.11-1.27c4.9.09,8.68,1.3,11.27,3.59s4.06,5.81,4.33,10.38c.37,7-5,14.39-15.92,22.1l-12.83,8.5a59.57,59.57,0,0,0-7.23,6Z" transform="translate(-1.39 -1.23)"/></g><g id="g4143"><path class="cls-4" d="M116.74,61.52h0a.08.08,0,0,1,0-.09c3.45-3.62,5.8-6.34,6.86-8.65A10.78,10.78,0,0,0,125,49s0-.06.07-.05a.05.05,0,0,1,.05.07,10.8,10.8,0,0,1-1.45,3.81c-1.07,2.33-3.43,5-6.88,8.69Z" transform="translate(-1.39 -1.23)"/></g><g id="g4147"><path class="cls-4" d="M125.07,49.06h0a.06.06,0,0,1,0-.07,17,17,0,0,0-.73-8.83v-.38a.06.06,0,0,1,.06-.06.06.06,0,0,1,.06.06v.35a16.93,16.93,0,0,1,.72,8.88A.05.05,0,0,1,125.07,49.06Z" transform="translate(-1.39 -1.23)"/></g><g id="g4151"><path class="cls-4" d="M132.47,66.4h0a.07.07,0,0,1,0-.09,28.24,28.24,0,0,0,4.15-6.48c1.41-3.18.94-5.7-1.43-7.71-1.49-1.33-4.6-2.27-10.08-3,0,0-.06,0,0-.07a.05.05,0,0,1,.06-.05c5.51.78,8.64,1.73,10.15,3.08,2.42,2,2.9,4.61,1.46,7.84a28.63,28.63,0,0,1-4.16,6.52Z" transform="translate(-1.39 -1.23)"/></g><g id="g4155"><path class="cls-4" d="M114.76,87.36h0a.06.06,0,0,1,0-.08c.71-2.15,2.48-4.83,5.25-8l9.57-9.93c.59-.59,1.11-1.16,1.62-1.72s.85-.94,1.27-1.36a.07.07,0,0,1,.09,0,.06.06,0,0,1,0,.08c-.42.43-.83.88-1.27,1.36s-1,1.14-1.62,1.72l-9.57,9.93c-2.76,3.13-4.52,5.8-5.23,7.93A.05.05,0,0,1,114.76,87.36Z" transform="translate(-1.39 -1.23)"/></g><g id="g4159"><path class="cls-4" d="M118.92,99.77a7.44,7.44,0,0,1-1.28-.12.08.08,0,0,1,0-.07s0-.06.07,0c3.08.54,4.85-.78,5.72-4.29a9.5,9.5,0,0,0-.18-3.95,3.62,3.62,0,0,0-2.3-2.48,1.71,1.71,0,0,1-.32-.07,2.06,2.06,0,0,0-.58-.11.06.06,0,0,1-.06-.06.06.06,0,0,1,.06-.06,2.29,2.29,0,0,1,.62.11,1.07,1.07,0,0,0,.29.07h0a3.75,3.75,0,0,1,2.38,2.56,9.62,9.62,0,0,1,.19,4C122.73,98.33,121.3,99.77,118.92,99.77Z" transform="translate(-1.39 -1.23)"/></g><g id="g4163"><path class="cls-4" d="M101.93,85.38h0a.06.06,0,0,1-.06-.06,23.15,23.15,0,0,1,4.53-13c1.56-2.24,4.49-5.4,9.22-9.95l.08-.08a4.38,4.38,0,0,1,1-.83.06.06,0,0,1,.08,0s0,.06,0,.08a4.11,4.11,0,0,0-1,.81l-.08.08c-4.72,4.54-7.65,7.7-9.2,9.93a23,23,0,0,0-4.51,13A.06.06,0,0,1,101.93,85.38Z" transform="translate(-1.39 -1.23)"/></g><g id="g4167"><path class="cls-4" d="M97.78,85a.06.06,0,0,1-.06-.06,22,22,0,0,1,2.53-9.78A112.67,112.67,0,0,1,106.05,65,58.33,58.33,0,0,0,109.11,60a.08.08,0,0,1,.09,0,.08.08,0,0,1,0,.09,58.67,58.67,0,0,1-3.07,5.06,113.19,113.19,0,0,0-5.79,10.12A21.87,21.87,0,0,0,97.84,85,.06.06,0,0,1,97.78,85Z" transform="translate(-1.39 -1.23)"/></g><g id="g4171"><path class="cls-4" d="M83.33,84.47l-.06,0a.06.06,0,0,1,0-.08c1.41-.71,2.67-3.37,3.76-7.91s1.79-10.37,2-18.06a.07.07,0,0,1,.07-.06.06.06,0,0,1,.06.06c-.2,7.7-.83,13.45-2,18.09s-2.38,7.26-3.82,8Z" transform="translate(-1.39 -1.23)"/></g><g id="g4175"><path class="cls-4" d="M89.1,58.45a.06.06,0,0,1-.06-.06V57A106.06,106.06,0,0,0,88.14,43,.07.07,0,0,1,88.2,43a.06.06,0,0,1,.06.06A106.11,106.11,0,0,1,89.17,57v1.44A.07.07,0,0,1,89.1,58.45Z" transform="translate(-1.39 -1.23)"/></g><g id="g4179"><path class="cls-4" d="M97.78,85h0c-4.73-.36-9.46-.54-14.44-.54a.06.06,0,0,1-.06-.06.06.06,0,0,1,.06-.06c5,0,9.71.18,14.45.54,0,0,.06,0,.06.07A.06.06,0,0,1,97.78,85Z" transform="translate(-1.39 -1.23)"/></g><g id="g4183"><path class="cls-4" d="M117.66,99.65l0,0a.63.63,0,0,0-.5-.16h0a116.8,116.8,0,0,0-34.67-4.88,114.72,114.72,0,0,0-34.49,4.87h0a2,2,0,0,0-.54.09,2.63,2.63,0,0,1-.55.09.06.06,0,0,1-.06-.06.05.05,0,0,1,.06-.06,2.47,2.47,0,0,0,.52-.09,2.11,2.11,0,0,1,.56-.09,114.53,114.53,0,0,1,34.51-4.88,117,117,0,0,1,34.7,4.88.74.74,0,0,1,.58.19.07.07,0,0,1,0,.09Z" transform="translate(-1.39 -1.23)"/></g><g id="g4187"><path class="cls-4" d="M114.76,87.36h0a91,91,0,0,0-12.82-2,.06.06,0,0,1-.06-.06.07.07,0,0,1,.07-.06,91.07,91.07,0,0,1,12.84,2,.06.06,0,0,1,0,.07A.06.06,0,0,1,114.76,87.36Z" transform="translate(-1.39 -1.23)"/></g><g id="g4191"><path class="cls-4" d="M109.16,60.08h0A182.71,182.71,0,0,0,89.1,58.45a.06.06,0,0,1-.06-.06.07.07,0,0,1,.07-.06A182.71,182.71,0,0,1,109.17,60a.05.05,0,0,1,0,.07A.06.06,0,0,1,109.16,60.08Z" transform="translate(-1.39 -1.23)"/></g><g id="g4195"><path class="cls-4" d="M101.93,85.38h0l-.17,0a34,34,0,0,0-4-.34.06.06,0,0,1-.06-.06.05.05,0,0,1,.06-.06,33.94,33.94,0,0,1,4,.34l.17,0a.05.05,0,0,1,0,.06A.06.06,0,0,1,101.93,85.38Z" transform="translate(-1.39 -1.23)"/></g><g id="g4199"><path class="cls-4" d="M117.65,105.07a.06.06,0,0,1-.06-.06V99.58a.06.06,0,0,1,.06-.06.06.06,0,0,1,.06.06V105A.06.06,0,0,1,117.65,105.07Z" transform="translate(-1.39 -1.23)"/></g><g id="g4203"><path class="cls-4" d="M120,88.63h0c-1.79-.54-3.39-.9-5.24-1.27,0,0-.06,0,0-.07s0-.06.07-.05A53.56,53.56,0,0,1,120,88.51a.06.06,0,0,1,0,.08A.07.07,0,0,1,120,88.63Z" transform="translate(-1.39 -1.23)"/></g><g id="g4207"><path class="cls-4" d="M132.47,66.4s0,0,0,0a73.55,73.55,0,0,0-15.71-4.87.05.05,0,0,1,0-.07.07.07,0,0,1,.07-.05,74.4,74.4,0,0,1,15.74,4.88.07.07,0,0,1,0,.08A.06.06,0,0,1,132.47,66.4Z" transform="translate(-1.39 -1.23)"/></g><g id="g4211"><path class="cls-4" d="M79.71,19.42h0a.06.06,0,0,1,0-.08L80.89,16a4.27,4.27,0,0,1-2.66-2.49l-6.09,2.15h0a.05.05,0,0,1,0,0V8a.05.05,0,0,1,0-.05,0,0,0,0,1,0,0l6.09,2.15a4.27,4.27,0,0,1,2.66-2.49L78.58,1.31a0,0,0,0,1,0-.05.05.05,0,0,1,0,0H86.4s0,0,0,0a0,0,0,0,1,0,.05L84.13,7.58a3.63,3.63,0,0,1,2.49,2.49l6.26-2.15a0,0,0,0,1,.05,0A.05.05,0,0,1,93,8v7.59a.05.05,0,0,1,0,0h-.05l-6.26-2.15A3.63,3.63,0,0,1,84.13,16l1.24,3.37a.06.06,0,0,1,0,.08s-.07,0-.08,0L84,16v0l0,0a3.5,3.5,0,0,0,2.49-2.49,0,0,0,0,1,0,0h0l6.24,2.14V8.06L86.6,10.2a0,0,0,0,1,0,0s0,0,0,0A3.52,3.52,0,0,0,84,7.67a.05.05,0,0,1,0,0v0l2.32-6.25H78.72L81,7.6v0a.05.05,0,0,1,0,0,4.18,4.18,0,0,0-2.67,2.5.06.06,0,0,1-.08,0L72.18,8.06v7.42l6.06-2.14a.07.07,0,0,1,.08,0A4.13,4.13,0,0,0,81,15.87l0,0v0l-1.26,3.43A.05.05,0,0,1,79.71,19.42Z" transform="translate(-1.39 -1.23)"/></g><g id="g4215"><path class="cls-4" d="M44.84,88.63l-.05,0a46.82,46.82,0,0,0-7.22-6L24.93,74.16C14,66.46,8.64,59,9,52.06c.18-4.57,1.6-8.07,4.2-10.38s6.42-3.5,11.41-3.59A103.81,103.81,0,0,1,38.7,39.36h0a2.81,2.81,0,0,0,.62.17,2.63,2.63,0,0,1,.64.18h.16a.06.06,0,0,1,0,.12H40s0,0,0,0a3,3,0,0,0-.62-.17,2.4,2.4,0,0,1-.64-.18,103.6,103.6,0,0,0-14.07-1.27c-10.06.18-15.13,4.72-15.49,13.86-.36,6.91,5,14.31,15.87,22l12.65,8.5a46.57,46.57,0,0,1,7.24,6,.05.05,0,0,1,0,.08Z" transform="translate(-1.39 -1.23)"/></g><g id="g4219"><path class="cls-4" d="M39.42,49.06a.07.07,0,0,1-.06-.05,16.34,16.34,0,0,1,.55-9.25s0,0,.05,0h.18a.06.06,0,0,1,0,.12H40A16.13,16.13,0,0,0,39.48,49a.06.06,0,0,1,0,.08Z" transform="translate(-1.39 -1.23)"/></g><g id="g4223"><path class="cls-4" d="M32.55,66.4s0,0,0,0a25.11,25.11,0,0,1-4.35-6.52C26.83,56.44,27.35,54,29.81,52c1.34-1.35,4.31-2.3,9.6-3.08,0,0,.06,0,.07.05a.07.07,0,0,1-.06.07c-5.26.78-8.2,1.72-9.53,3C27.47,54,27,56.45,28.27,59.82A25.28,25.28,0,0,0,32.6,66.3a.06.06,0,0,1,0,.09Z" transform="translate(-1.39 -1.23)"/></g><g id="g4227"><path class="cls-4" d="M48.27,61.52h0c-4.11-3.92-6.6-6.88-7.6-9A19.46,19.46,0,0,1,39.36,49a.06.06,0,0,1,0-.07.06.06,0,0,1,.08,0,19.22,19.22,0,0,0,1.26,3.43c1,2.16,3.48,5.11,7.57,9a.06.06,0,0,1,0,.09Z" transform="translate(-1.39 -1.23)"/></g><g id="g4231"><path class="cls-4" d="M80.62,30.44h0A10.26,10.26,0,0,1,78.23,29a6.75,6.75,0,0,1-1.83-4.38,6.24,6.24,0,0,1,1.82-4.21h0c.27-.17.5-.36.72-.53s.46-.37.73-.55a.07.07,0,0,1,.09,0s0,.07,0,.08c-.27.18-.5.37-.72.54a9,9,0,0,1-.72.54,6.09,6.09,0,0,0-1.79,4.12,6.61,6.61,0,0,0,1.79,4.29,10.34,10.34,0,0,0,2.33,1.43s0,0,0,.08A.05.05,0,0,1,80.62,30.44Z" transform="translate(-1.39 -1.23)"/></g><g id="g4235"><path class="cls-4" d="M85.31,19.42h0a7.53,7.53,0,0,0-2.84-.71,6.57,6.57,0,0,0-2.69.72.06.06,0,0,1-.08,0,.05.05,0,0,1,0-.08,6.86,6.86,0,0,1,2.75-.73,7.74,7.74,0,0,1,2.89.72h0a.06.06,0,0,1,0,.08A.06.06,0,0,1,85.31,19.42Z" transform="translate(-1.39 -1.23)"/></g><g id="g4239"><path class="cls-4" d="M82.42,30.81a6.42,6.42,0,0,1-1.82-.37s0,0,0-.08a.05.05,0,0,1,.07,0,6.74,6.74,0,0,0,1.79.36,6.59,6.59,0,0,0,2-.36s.07,0,.08,0a.06.06,0,0,1,0,.08A6.48,6.48,0,0,1,82.42,30.81Z" transform="translate(-1.39 -1.23)"/></g><g id="g4243"><path class="cls-4" d="M79,33.7h0a.06.06,0,0,1,0-.08,6.79,6.79,0,0,1,1.65-3.28.06.06,0,0,1,.08,0,.07.07,0,0,1,0,.09,6.81,6.81,0,0,0-1.61,3.22A.06.06,0,0,1,79,33.7Z" transform="translate(-1.39 -1.23)"/></g><g id="g4247"><path class="cls-4" d="M40.14,39.84h0a.06.06,0,0,1,0-.08c1.63-5.23,4.37-8.52,8.17-9.79,2.65-.89,6.55-.76,11.6.35L72.14,33.4a17.89,17.89,0,0,0,6.84.18s.06,0,.07.05,0,.06,0,.07a17.94,17.94,0,0,1-6.89-.18L59.82,30.44c-5-1.11-8.9-1.23-11.53-.36-3.76,1.26-6.48,4.53-8.09,9.72A.05.05,0,0,1,40.14,39.84Z" transform="translate(-1.39 -1.23)"/></g><g id="g4251"><path class="cls-4" d="M55.68,60.26a.05.05,0,0,1,0,0,31.82,31.82,0,0,1-2.72-5.79,17,17,0,0,1-1.44-6.53.06.06,0,0,1,.06-.06.06.06,0,0,1,.06.06A16.85,16.85,0,0,0,53,54.39a32,32,0,0,0,2.71,5.78.05.05,0,0,1,0,.08Z" transform="translate(-1.39 -1.23)"/></g><g id="g4255"><path class="cls-4" d="M51.53,48a.06.06,0,0,1-.06,0A22.72,22.72,0,0,1,51.64,43v0c.09-.27.18-.58.26-.89s.19-.64.28-.92a.07.07,0,0,1,.08,0,.06.06,0,0,1,0,.08c-.09.27-.18.6-.27.92s-.18.62-.27.88a22.46,22.46,0,0,0-.17,4.85s0,.07-.06.07Z" transform="translate(-1.39 -1.23)"/></g><g id="g4259"><path class="cls-4" d="M52.25,41.29h0a.06.06,0,0,1,0-.07,7.49,7.49,0,0,1,4.37-4.73c1.82-.67,4.42-.78,8.7-.38a88.89,88.89,0,0,0,9.58.91,9.88,9.88,0,0,0,3.22-.36s.07,0,.08,0a.07.07,0,0,1,0,.08,10.15,10.15,0,0,1-3.26.36,89,89,0,0,1-9.59-.91c-4.26-.4-6.84-.29-8.64.37a7.37,7.37,0,0,0-4.3,4.66A.08.08,0,0,1,52.25,41.29Z" transform="translate(-1.39 -1.23)"/></g><g id="g4263"><path class="cls-4" d="M51.53,48a.06.06,0,0,1-.06,0,.05.05,0,0,1,.05-.07l6.32-.55a71.92,71.92,0,0,0,15.89-3.06A15.36,15.36,0,0,0,76.79,43a.06.06,0,0,1,.08,0,.06.06,0,0,1,0,.08,15.39,15.39,0,0,1-3.09,1.26,71.25,71.25,0,0,1-15.9,3.07L51.53,48Z" transform="translate(-1.39 -1.23)"/></g><g id="g4267"><path class="cls-4" d="M57.31,41.4c-1.31,0-2.63,0-4-.11H52.25a.06.06,0,0,1-.06-.06.06.06,0,0,1,.06-.06h1.08a62.26,62.26,0,0,0,17.88-1.45,25.08,25.08,0,0,0,6.66-2.52.07.07,0,0,1,.09,0,.07.07,0,0,1,0,.08,25.51,25.51,0,0,1-6.7,2.54A59.73,59.73,0,0,1,57.31,41.4Z" transform="translate(-1.39 -1.23)"/></g><g id="g4271"><path class="cls-4" d="M77.9,37.31a.06.06,0,0,1-.06-.06c0-.19,0-.2.19-.57a.05.05,0,0,1,.08,0,.06.06,0,0,1,0,.08c-.18.35-.18.35-.18.51A.06.06,0,0,1,77.9,37.31Z" transform="translate(-1.39 -1.23)"/></g><g id="g4275"><path class="cls-4" d="M76.82,43.09h0a.06.06,0,0,1,0-.06,30,30,0,0,1,1.09-5.8.06.06,0,0,1,.07,0,.07.07,0,0,1,0,.08A29.65,29.65,0,0,0,76.88,43,.06.06,0,0,1,76.82,43.09Z" transform="translate(-1.39 -1.23)"/></g><g id="g4279"><path class="cls-4" d="M78.08,36.77h0s0,0,0-.07a14.85,14.85,0,0,1,.92-3.09.05.05,0,0,1,.07,0,.07.07,0,0,1,0,.08,15.18,15.18,0,0,0-.91,3.06A.06.06,0,0,1,78.08,36.77Z" transform="translate(-1.39 -1.23)"/></g><g id="g4283"><path class="cls-4" d="M75.92,58.81a.05.05,0,0,1-.06-.06V57A83.18,83.18,0,0,1,76.76,43a.05.05,0,0,1,.07-.05s0,0,0,.07A82.88,82.88,0,0,0,76,57v1.8A.06.06,0,0,1,75.92,58.81Z" transform="translate(-1.39 -1.23)"/></g><g id="g4287"><path class="cls-4" d="M81.7,84.47h0c-1.43-.71-2.72-3.4-3.82-8a72.51,72.51,0,0,1-2-17.72.06.06,0,0,1,.06-.06.06.06,0,0,1,.06.06,72.77,72.77,0,0,0,2,17.69c1.1,4.56,2.37,7.22,3.77,7.92a.06.06,0,0,1,0,.08Z" transform="translate(-1.39 -1.23)"/></g><g id="g4291"><path class="cls-4" d="M62.55,85.38a.06.06,0,0,1-.06-.06A23.6,23.6,0,0,0,57.8,72c-1.49-2.43-4.68-5.92-9.21-10.11l-.36-.37a.06.06,0,0,1,0-.08.06.06,0,0,1,.09,0l.36.36c4.53,4.2,7.73,7.7,9.22,10.13a23.66,23.66,0,0,1,4.71,13.4.07.07,0,0,1-.06.07Z" transform="translate(-1.39 -1.23)"/></g><g id="g4295"><path class="cls-4" d="M66.88,85a.06.06,0,0,1-.06-.05,29.27,29.27,0,0,0-2.7-10.28,105.76,105.76,0,0,0-6-10.11l-.11-.18c-.85-1.37-1.73-2.78-2.42-4.16a.06.06,0,1,1,.1-.06c.69,1.38,1.57,2.79,2.42,4.16l.11.17a109.7,109.7,0,0,1,6,10.13A29.28,29.28,0,0,1,66.94,85a.06.06,0,0,1-.06.06Z" transform="translate(-1.39 -1.23)"/></g><g id="g4299"><path class="cls-4" d="M50.26,87.36a.05.05,0,0,1-.06,0,.07.07,0,0,1,0-.08,114.33,114.33,0,0,1,12.29-2s.06,0,.07,0a.08.08,0,0,1,0,.07,114.33,114.33,0,0,0-12.29,2Z" transform="translate(-1.39 -1.23)"/></g><g id="g4303"><path class="cls-4" d="M66.88,85s0,0-.06-.06a.06.06,0,0,1,.06-.06c4.5-.36,9.48-.54,14.82-.54h1.63a.06.06,0,1,1,0,.12H81.7c-5.33,0-10.32.18-14.81.54Z" transform="translate(-1.39 -1.23)"/></g><g id="g4307"><path class="cls-4" d="M55.68,60.26a.06.06,0,0,1-.06,0,.05.05,0,0,1,.05-.07c6.62-.81,13.25-1.28,20.25-1.45a.07.07,0,0,1,.06.06.06.06,0,0,1-.06.06c-7,.17-13.62.64-20.24,1.45Z" transform="translate(-1.39 -1.23)"/></g><g id="g4311"><path class="cls-4" d="M62.55,85.38a.06.06,0,0,1-.06,0,.05.05,0,0,1,0-.07c.74-.1,1.49-.14,2.22-.19s1.41-.09,2.11-.18c0,0,.07,0,.07,0a.05.05,0,0,1,0,.07c-.71.09-1.43.14-2.13.18s-1.47.09-2.21.19Z" transform="translate(-1.39 -1.23)"/></g><g id="g4315"><path class="cls-4" d="M50.26,87.36a.05.05,0,0,1,0,0,31.17,31.17,0,0,0-5.42-7.93l-9.58-9.93c-.78-.95-1.76-2.13-2.7-3.08a0,0,0,0,1,0-.08.06.06,0,0,1,.08,0c.95,1,1.93,2.13,2.71,3.08l9.58,9.93a31.52,31.52,0,0,1,5.44,8,.06.06,0,0,1,0,.08Z" transform="translate(-1.39 -1.23)"/></g><g id="g4319"><path class="cls-4" d="M45.79,99.76c-2.17,0-3.64-1.54-4.26-4.5a9.73,9.73,0,0,1,.18-4c.59-1.55,1.17-2.22,2.21-2.57h0a1.11,1.11,0,0,0,.28-.07,2.36,2.36,0,0,1,.62-.11.06.06,0,0,1,.06.06.06.06,0,0,1-.06.06,2.21,2.21,0,0,0-.59.11,1.05,1.05,0,0,1-.3.07c-1,.33-1.56,1-2.13,2.49a9.79,9.79,0,0,0-.18,3.94c.72,3.39,2.46,4.83,5.18,4.29,0,0,.06,0,.07,0a.08.08,0,0,1,0,.07A5.68,5.68,0,0,1,45.79,99.76Z" transform="translate(-1.39 -1.23)"/></g><g id="g4323"><path class="cls-4" d="M32.55,66.4a.07.07,0,0,1-.06,0,.07.07,0,0,1,0-.08A75,75,0,0,1,48.26,61.4s.07,0,.07.05a.05.05,0,0,1,0,.07,73.81,73.81,0,0,0-15.7,4.87Z" transform="translate(-1.39 -1.23)"/></g><g id="g4327"><path class="cls-4" d="M44.84,88.63a.07.07,0,0,1-.06,0,.06.06,0,0,1,0-.08,47.87,47.87,0,0,1,5.43-1.27.08.08,0,0,1,.07.05s0,.06,0,.07a45.41,45.41,0,0,0-5.41,1.27Z" transform="translate(-1.39 -1.23)"/></g><g id="g4331"><path class="cls-4" d="M47,105.07A.05.05,0,0,1,47,105l-.18-5.42a.06.06,0,0,1,.06-.06s.06,0,.06.06l.18,5.42a.06.06,0,0,1-.06.06Z" transform="translate(-1.39 -1.23)"/></g><g id="g4335"><path id="path4337" class="cls-6" d="M29.47,128.16c-.43,1-3.41,7.78-3.69,8.49h7.38C32.92,136.13,29.83,129.07,29.47,128.16Zm8,18.73c-.24-.6-2.11-4.88-2.42-5.6H24c-.23.48-2.18,5-2.41,5.6h-5.2c.31-.72,11.14-26.19,11.35-26.63h3.53c.15.4,11,25.63,11.46,26.63H37.45" transform="translate(-1.39 -1.23)"/></g><g id="g4339"><path id="path4341" class="cls-6" d="M53.59,147.52a9.85,9.85,0,0,1-9.83-7.62c.71-.2,3.68-.83,4.52-1A5.58,5.58,0,0,0,53.75,143c3.06,0,5-1.83,5.32-5.16-.68-.24-14.29-5.36-15.48-5.79,0-.52-.08-1.39-.08-2.22a10.22,10.22,0,0,1,20.09-2.51c-.8.24-3.62.8-4.57,1a5.43,5.43,0,0,0-10.67.72c1,.36,14.72,5.51,15.35,5.76a12.8,12.8,0,0,1,.2,2.53,10,10,0,0,1-10.32,10.12" transform="translate(-1.39 -1.23)"/></g><g id="g4343"><path id="path4345" class="cls-6" d="M87.31,146.89V129.23c-1,.79-6.55,5.08-7.74,6-1.11-.79-6.7-5.2-7.7-5.95v17.62H67.15v-27c1.71,1.27,10.92,8.18,12.46,9.37,1.27-1,11.12-8.33,12.42-9.37v27H87.31" transform="translate(-1.39 -1.23)"/></g><g id="g4347"><path id="path4349" class="cls-6" d="M109.6,125.06v6.23h12V136h-12v10.92h-4.79V120.42h20v4.64H109.6" transform="translate(-1.39 -1.23)"/></g><g id="g4351"><path id="path4353" class="cls-6" d="M139.52,119.78a13.71,13.71,0,0,1,10.08,4.41c-.36.35-2.9,3-3.41,3.45a8.88,8.88,0,0,0-6.67-3.1,9.11,9.11,0,1,0,6.71,15L149.6,143a14,14,0,0,1-10.08,4.56,13.87,13.87,0,1,1,0-27.74" transform="translate(-1.39 -1.23)"/></g></g></g></g></g></g></g></g></svg>