<svg xmlns="http://www.w3.org/2000/svg" viewBox="0 0 287.13 300"><defs><style>.cls-1{fill:#fff;}.cls-2{fill:#ee2722;}</style></defs><title>Nancy_Lorraine</title><g id="Слой_2" data-name="Слой 2"><g id="Слой_1-2" data-name="Слой 1"><path id="path5338" class="cls-1" d="M269.38,17.63l-.65-3.88H18.41l-.66,3.88a282.35,282.35,0,0,0-4,47.42c0,98.71,51.46,186.83,128.06,219.28l1.76.74,1.75-.74c76.6-32.45,128.07-120.57,128.07-219.28a282.36,282.36,0,0,0-4-47.42"/><path id="path5340" class="cls-2" d="M282.94,15.32l-.67-3.89L280.32,0H6.81L4.86,11.43,4.2,15.32A296,296,0,0,0,0,65.05C0,169.22,54.84,262.42,136.46,297l1.75.75,5.36,2.27,5.37-2.28,1.74-.74C232.3,262.42,287.13,169.22,287.13,65.05a297.16,297.16,0,0,0-4.19-49.73Zm-23.3,49.73c0,93.27-48.09,176.3-119.69,206.62l-1.75.74h10.73l-1.75-.74C75.59,241.35,27.49,158.32,27.49,65.05A268.3,268.3,0,0,1,31.3,20L32,16.06,18.41,27.49H268.73L255.17,16.06l.67,3.89a269.43,269.43,0,0,1,3.8,45.1"/><path id="path5342" class="cls-1" d="M269.38,17.63l-.65-3.88H18.41l-.66,3.88a282.35,282.35,0,0,0-4,47.42c0,98.71,51.46,186.83,128.06,219.28l1.76.74,1.75-.74c76.6-32.45,128.07-120.57,128.07-219.28a282.36,282.36,0,0,0-4-47.42"/><path id="path5344" class="cls-1" d="M277,16.33l-.67-3.88L275.25,6H11.89l-1.1,6.44-.67,3.88A291.35,291.35,0,0,0,6,65.05C6,166.83,59.38,257.81,138.8,291.45l1.75.74,3,1.28,3-1.28,1.74-.74c79.43-33.64,132.8-124.62,132.8-226.4A290.4,290.4,0,0,0,277,16.33ZM265.65,65.05c0,95.65-49.57,180.91-123.35,212.16l-1.75.74h6l-1.76-.74C71.05,246,21.48,160.7,21.48,65.05a275.07,275.07,0,0,1,3.89-46.11L26,15.05l-7.63,6.43H268.73l-7.63-6.43.67,3.89a276.2,276.2,0,0,1,3.88,46.11"/><path id="path5346" class="cls-2" d="M269.38,17.63l-.65-3.88H18.41l-.66,3.88a282.35,282.35,0,0,0-4,47.42c0,98.71,51.46,186.83,128.06,219.28l1.76.74,1.75-.74c76.6-32.45,128.07-120.57,128.07-219.28a282.36,282.36,0,0,0-4-47.42"/><path id="path5348" class="cls-2" d="M19.69,90.16H267.57V18.66H19.69v71.5Z"/><path id="path5350" class="cls-1" d="M65.9,45.08l1.64-7.71H46.41l-1.65,7.71ZM44.79,20.63h32c8.87,0,12.73,5.06,11,12.77l-11,49.14H57.51l5.59-25H42l-5.59,25H17.15l11-49.14c1.73-7.71,7.82-12.77,16.68-12.77"/><path id="path5352" class="cls-1" d="M87.11,65.63h40l1.55-6.71H107.3c-12.1,0-18-1.24-15.77-11.27l3.3-14.83c2-9.12,8.72-12.19,21-12.19h36.38l-3.77,16.74H112.71l-1.52,6.88h25.69c9.45,0,13,3.73,11.15,12L144.7,71.43c-1.53,6.8-7.39,11.11-16.09,11.11H83.36"/><path id="path5354" class="cls-1" d="M163,20.63h23.7L196.32,45c.66,1.74,1.38,4.47,2.29,8a56.86,56.86,0,0,1,1.53-11.52l4.68-20.89h18.39l-13.8,61.91H191l-13.19-32.4a54.11,54.11,0,0,1-2.21-8A62.56,62.56,0,0,1,174,53.53l-6.43,29H149.17"/><path id="path5356" class="cls-1" d="M230.84,20.63H251.3l-10.05,45H271l-3.74,16.91H217"/><path id="path5358" class="cls-1" d="M26.6,96.21l1.32-5.62H24l-1.31,5.62Zm3.07,1.6h1.22l-.77,3.35H27.35c-1.22,0-1.68-.38-1.59-1.59H21c-2,0-2.75-1.1-2.22-3.31l1.32-5.67c.53-2.27,1.74-3.34,3.77-3.34h5.67c2.05,0,2.75,1.06,2.22,3.34l-1.38,5.89c-.15.61-.23,1-.71,1.33"/><path id="path5360" class="cls-1" d="M39.86,99.57H33.48c-1.77,0-2.53-1-2.17-2.54l2.29-9.78h3.85l-2.1,9h4.2l2.1-9h3.83L43.19,97a3.21,3.21,0,0,1-3.33,2.54"/><path id="path5362" class="cls-1" d="M47,87.25h3.84L47.94,99.57H44.1"/><path id="path5364" class="cls-1" d="M56.46,96.21h8l.32-1.34H60.49c-2.41,0-3.58-.25-3.11-2.24l.69-2.95c.42-1.81,1.76-2.43,4.2-2.43h7.24l-.79,3.34H61.61L61.3,92h5.11c1.88,0,2.57.75,2.19,2.4l-.69,3a3,3,0,0,1-3.23,2.21h-9"/><path id="path5366" class="cls-1" d="M70.55,87.25H74.1l-.9,3.86A2,2,0,0,1,71,92.86H69l.35-1.48h2.18l.16-.68h-2"/><path id="path5368" class="cls-1" d="M79.13,95.12l-2.87-7.87h4.43l1.19,4.64,3.35-4.64h4.45l-6.59,7.87-1,4.45h-4"/><path id="path5370" class="cls-1" d="M97,87.25h10.28l-.78,3.34h-6.42L99.72,92h6.42l-.65,2.79H99.08L98,99.57H94.09"/><path id="path5372" class="cls-1" d="M115.28,92.19l.37-1.6h-3.94l-.37,1.6Zm-6.6-4.94h8.65c2,0,2.74.78,2.32,2.51l-.37,1.57a2.41,2.41,0,0,1-1.93,2c1.11.43,1.23,1,1,2.05l-1,4.17h-3.78L114.64,95h-4l-1.07,4.58h-3.81"/><path id="path5374" class="cls-1" d="M127.27,96.21l1.32-5.62h-4l-1.3,5.62Zm.08,3.36h-5.68c-2,0-2.75-1.1-2.22-3.31l1.32-5.67c.53-2.27,1.75-3.34,3.79-3.34h5.67c2,0,2.73,1.06,2.2,3.34l-1.32,5.67c-.52,2.21-1.78,3.31-3.76,3.31"/><path id="path5376" class="cls-1" d="M137.21,90.59h-3.78l.79-3.34h11.43l-.79,3.34h-3.61l-2.09,9h-4"/><path id="path5378" class="cls-1" d="M149.34,90.59h-3.78l.78-3.34h11.44L157,90.59h-3.61l-2.1,9h-4"/><path id="path5380" class="cls-1" d="M158.86,87.25h10.27l-.78,3.34h-6.41L161.61,92H168l-.64,2.79H161l-.34,1.42H167l-.78,3.36H156"/><path id="path5382" class="cls-1" d="M174.64,96.21h8l.32-1.34h-4.25c-2.41,0-3.58-.25-3.12-2.24l.69-2.95c.43-1.81,1.76-2.43,4.21-2.43h7.23l-.78,3.34H179.8L179.48,92h5.12c1.88,0,2.57.75,2.18,2.4l-.68,3a3,3,0,0,1-3.23,2.21h-9"/><path id="path5384" class="cls-1" d="M188.73,87.25h3.55l-.89,3.86a2,2,0,0,1-2.21,1.75h-2l.36-1.48h2.17l.16-.68h-2"/><path id="path5386" class="cls-1" d="M197.31,95.12l-2.87-7.87h4.44l1.18,4.64,3.35-4.64h4.46l-6.59,7.87-1.05,4.45h-3.95"/><path id="path5388" class="cls-1" d="M221.38,92.73l.49-2.14H218.1l-.49,2.14Zm-6.29-5.48H224c1.72,0,2.36.71,1.93,2.53l-.79,3.39a2.78,2.78,0,0,1-3,2.4H217l-.94,4h-3.84"/><path id="path5390" class="cls-1" d="M227.75,87.25h3.84l-2.88,12.32h-3.85"/><path id="path5392" class="cls-1" d="M239,96.21l1.32-5.62h-4l-1.3,5.62Zm3.06,1.6h1.22l-.76,3.35h-2.78c-1.22,0-1.68-.38-1.59-1.59h-4.75c-2,0-2.74-1.1-2.23-3.31l1.33-5.67c.52-2.27,1.74-3.34,3.77-3.34H242c2,0,2.75,1.06,2.21,3.34l-1.37,5.89c-.15.61-.23,1-.72,1.33"/><path id="path5394" class="cls-1" d="M252.3,99.57h-6.39c-1.76,0-2.52-1-2.16-2.54L246,87.25h3.85l-2.1,9H252l2.1-9h3.82L255.63,97a3.21,3.21,0,0,1-3.33,2.54"/><path id="path5396" class="cls-1" d="M259.36,87.25h10.28l-.78,3.34h-6.42L262.11,92h6.39l-.64,2.79h-6.39l-.34,1.42h6.36l-.78,3.36H256.49"/><path id="path5398" class="cls-1" d="M182.83,197.63c-2.53-3-1.35-6.9-1.71-11.4a25.38,25.38,0,0,1,2.59-13,20.22,20.22,0,0,1,4.54,11.44C188.6,189.15,184.81,193.6,182.83,197.63Zm-15.23,8.84c-2.73-4.09-1.44-9.16-1.33-14.89a33.39,33.39,0,0,1,4.78-16.21,25.77,25.77,0,0,1,4.15,14.92c-.13,5.73-4.69,11.27-7.6,16.18Zm-17.5,5.38c-2.58-4.94-.89-10.9-.12-17.45a39.64,39.64,0,0,1,7.12-18.16A30,30,0,0,1,160,193.73c-.76,6.56-6.15,12.76-9.93,18.12ZM133,219.23a36.7,36.7,0,0,1-1.35-21.09A49.1,49.1,0,0,1,142,177.19a36.73,36.73,0,0,1,1.35,21.1A49,49,0,0,1,133,219.23Zm-6.28-25.12c-2,6.54-2.88,12.51-7.54,17.36-1.49-5.43-4.2-11.73-2.18-18.28a43.8,43.8,0,0,1,10.36-17.32,32.67,32.67,0,0,1-.64,18.24Zm-15.19-2.82c-2.31,5.7-3.18,10.78-7.64,14.78-.82-4.95-3-10.58-.68-16.27a40.53,40.53,0,0,1,10.46-14.74,30.11,30.11,0,0,1-2.14,16.23Zm-12.6-6c-2.27,4.46-2.74,8.34-6.55,11.3-.25-4.06-2.13-8.58.13-13.05a33.79,33.79,0,0,1,9.37-11.26,25.54,25.54,0,0,1-3,13Zm28.27,97.31,1.54-6.29c13.14-58.51,53.69-70,78.86-74.45l32.18-5.51-28.35-4.73,25.32-8.71-24.31-1.67,33.14-14-35.51,4.05,23.43-15.07-26,6.91L240.26,136l-38.33,19,16.78-20.58-23.57,14.17,22.36-33-31.06,27,9.08-22.91-18.94,19.18,8.09-30.93-19.17,29,6.34-43-16.73,42.46.78-31.43-12,32.2-5.09-27.27-6.6,28-11.71-31.15.41,34.62-13.16-16.87,2.11,22.15-26-27.07L99,152.72,79.29,142.09l10,18.63L49.65,145.11l31.95,24.1-24.06-3.46L75.24,180l-33.11-.88,28.05,10.3L44.79,194,68,199.34c24.09,4.36,60.38,18.27,48.57,76.79"/><path id="path5400" class="cls-1" d="M126.19,279.38c11.08-34.7,39.45-59.88,64.88-59.64,25.82.25,23.84,20,22.71,25.23,1.8-8.32-3.09-19.13-24.36-19.34-20.38-.2-45.49,26.38-54.06,58.82"/><path id="path5402" class="cls-1" d="M117.5,278.82c5.58-36.59-12.13-64-38.45-64.27-10.55-.1-17.89,3.14-22.95,7.37l1.6,2.83c5-2.65,11.77-4.38,20.46-4.3,18.61.18,31.53,22.64,29.5,51.24"/></g></g></svg>