<svg xmlns="http://www.w3.org/2000/svg" viewBox="0 0 299.33 298.32"><defs><style>.cls-1{fill:#fff;}.cls-2{fill:#231f20;}.cls-3{fill:#00b6f1;}.cls-4{fill:#ef3e2e;}.cls-5{fill:#bbbdbf;}.cls-6{fill:#f0b83d;}</style></defs><title>Newcastle </title><g id="Слой_2" data-name="Слой 2"><g id="Layer_1" data-name="Layer 1"><g id="g2737"><g id="g3315"><path id="path2981" class="cls-1" d="M237.7,199.43v0Z"/><rect class="cls-1" x="237.59" y="199.43" width="0.22" height="0.21"/><path id="path2985" class="cls-1" d="M237.7,199.64h0Z"/><polygon class="cls-1" points="237.81 199.65 237.59 199.65 237.81 199.64 237.81 199.65"/><path id="path2999" class="cls-2" d="M237.7,199.43v0"/><path id="path3001" class="cls-2" d="M237.7,199.65c0,.14,0,.24,0,0"/><path id="path3003" class="cls-2" d="M237.7,199.64h0"/><path id="path3005" class="cls-2" d="M294.13,215.48c-2.86-5.2-2.34-13.42-9.6-14.95-7.55-.22-15.68,2.71-22.43,6.81-2.64,2.64.95,4.91,1.1,7.48.81,3.66,2.64,6.89,3,10.7-1.68.58-3.37,1.39-5.13,1.83a3.59,3.59,0,0,1-3.67-1.1c-4.32-2-8.65.3-12.24,2.12-1.54,2.49-4.47.37-6.67,1.25-6.3.37-14.14.22-19.42,5.06-3.59,3.52.22,7.62-.15,11.58-9.88,2.64-19.64,5.64-30,7-2.86.52-5.87.88-8.8,1.32a220.82,220.82,0,0,1-27.33,2.64l-.29-.29c.07-.37.44-.66.29-1.1,6.3-7.85,15.24-13.85,24-18.18a24.39,24.39,0,0,1,3.81-2.12c1.1-1.47,2.79-1.33,4-2.71,7.48-4.62,15.68-10,19.49-18.33,1.18-1.75,1.47-3.81,2.21-5.79.58-1.76.58-3.3,1.17-5,1.83,4.47,2.12,10,6.89,12.68a22.11,22.11,0,0,0,20.88,3.07c9.38-3.66,14.52-13.78,15.4-23.37.44-1.25,1.9-1.47,2.27-2.72a4.16,4.16,0,0,1-1.32-4.62c.51-1.68,2.93-1.38,3.15-3.15a10.92,10.92,0,0,0-1.54-.94,5.22,5.22,0,0,1-2.28-5.36c.16-1.68,2.35-2.34,2.64-4-1.32-.44-2.86-.66-3.66-1.84,0-.59.74-.88,1.18-1,4.46-.81,11.87-2.35,15.09,2.7,4.77,5.88-1.17,12.47-.73,18.77.51,1.39.07,3.52,1.54,4.25,0-5.13,5.13-6.52,7.91-10.18l.74,1.1c1.75-2.64-.38-6.6,1.83-9.17.66-.44,1.32.44,2,0v-.8c-1.84-1.68-1.76-4.11-2.13-6.38.22-1.1,1.54-.37,2-1.24a9.1,9.1,0,0,1-3-3.81c-.44-2.72-3.08-4.41-5.07-5.79l1.4-1.69c.51-1.47,1.54-2.79,2.13-4.25a14.65,14.65,0,0,1-5.06-2c2.57-3.95,2.27-9.37,2.42-13.4l-.73.44c-.37-2.72-.44-5.71-1.69-7.92-.59.15-.15,1.1-.88.88-1.4-2.93-2.49-6.15-5.06-8.5-1.24-.3-.15,1.1-.87,1.32a8.94,8.94,0,0,1-3.67-6.52c-.66,0-.81.65-1,1.09-1,7.7,2.56,15.4.44,22.87-1,2.06-1,4.55-2.72,6.38-1.69,4.69-6,7.77-10,10.4-.3-.07-.67.08-.81-.14-.52-2.2,1.47-4,1.39-6a6.88,6.88,0,0,1-4-2.85,4.77,4.77,0,0,1,2.13-5.06c.58-1.4-1.4-.74-2-1.4a7.54,7.54,0,0,1-2.79-5.94c-.14-1.76,1.84-2.85,1.84-4.39-1.91,0-3.38-1.83-4.25-3.37a12,12,0,0,1,.44-9.16c1.75-7.63,12.38-7.55,12.52-15.83.44-1.62,2.94.07,4-1.54.66-.73-.52-.51-.74-.73-2.2-1.18-1.76-3.81-2-5.65,1-.37,1.61.73,2.56.15.45-.37,1.47-.52,1.11-1.25-1.39.15-1.76-1.39-2.64-2.13.58-.43,1.17.22,1.84,0,.43-.14,1.23-.28.94-1.09a4.81,4.81,0,0,1-2.12-3.81h1c2-.66-.44-1.76-.3-2.86a.6.6,0,0,1,.74-.29c.28-.22.51-.59.36-.81-2.86-.73-1.76-4.18-4.47-5.13,2.05-1.62-1.17-2.13-1-3.67-.3-.8-1.1-.88-1.69-1.1a1.08,1.08,0,0,1,.44-1.1c.88-1.39-.81-1.53-1.68-1.83,0-.88.22-2.93-1.69-2.27.95-2.5-2.12-1.61-3.22-1.84.07-1,.58-2,.22-3-1.18-.29-1.84.52-2.79.44l-.14-2c-1-.3-1.55.5-2.43.44-2.56,2.56-2.2-2.21-4.32-2.72-.51-.29-1.39-.81-2-.15.29,1.33,1.47,2.57.81,4.11-.44.59-1.17,1.61-2,1.17A28.53,28.53,0,0,0,226,64.58c-.58-.66-.65-2-1.83-2.12-.73,1.75-.51,3.87-.73,5.78-1.1-.22-2.2-1.39-3.23-.73-.8,2.64.36,5.13,2.27,7-1.39,1.26-2.41,2.64-3.66,4-1.84,3.59-5.64,5.72-8.35,8.87-3,2.35-3.23,6.16-3.67,9.45,1.1,1.84,3,1.25,4.69,2.13.22.58-.51.8-.73,1.18-.81.28-1-1-1.68-.74-1,.14-1.1,1.18-1.4,1.83.36.66.22,1.54,1.1,2,1.69,1,3.59,0,5.06-1.25,1.24.3,2.78-.51,4.1.15v-.29c2.63-.81,3.74-4,6.38-5.21,1,.38,2-.66,2.63.52-2.12,3-6.08,3.88-8.72,6.23a29.58,29.58,0,0,0-11.43,12.38c-.88,1.25-.66,3.15-2,4.11-2.57-4.11-3.53-8.94-6.6-12.68a6.85,6.85,0,0,0-6.82-.73c-4.4,3.15-9.82,3.66-14.08,7l-.28-.3a6.09,6.09,0,0,0-1.55-3.51,11,11,0,0,0-4.39-1.17c-2.42-.22-4.77,1.68-7,.14a8.26,8.26,0,0,1-.88-3.22c-.43-1,.3-3.45-1.24-3.82-1.17-1.9-.95-4.39-1.1-6.74-.15-.51-.81,0-1-.44-1-3.59-.44-7.92-.73-11.29.44-1.53-1.1-3.44.73-4.39.3-.44.52-1.32-.14-1.54a.56.56,0,0,1,.14-.88c3-.29,2.42-4.76,5.65-4.32.43-.37.36-1,.58-1.47-.15-1.68.52-3.3-.15-5l-4.68.14-.37-.3c-.59-2.41-.29-5.34,1.54-7,1.54-.45,2.79-1.4,4.33-.6a4.07,4.07,0,0,1,1.83,3,1.59,1.59,0,0,1-1.83,1c-1.47-.59-1.18-2.65-2.51-2.65a5.49,5.49,0,0,0,2.29,5.65,3.9,3.9,0,0,0,3.37,0,5.35,5.35,0,0,0,2.49-3.81c-1.1-2.72,2.49-.88,3.44-2.12,2.64-1,1.83-3.6,2-5.8,0-1.39,2.06-2.34,2.06-3.51A5.76,5.76,0,0,0,177,48.9c-2.2,0-2.13,2.49-3.37,3.66L173.5,50a6.65,6.65,0,0,0-2.42-2.49c-.74.08-1.54-.66-2.12,0-.15,1,.88.88,1.16,1.54-.28,2.57-3.22,2.05-5,2.79-2.35.36-2.57,3.22-4.77,3.66-3.37,2-3.44,6.37-3,9.9-1.84.44-.3,2.34-1.4,3.37-1.39-.37-1.69-2.06-2.12-3.23-.81-2.35-.45-5.35-.29-7.92.5-3.59,4.46-5.71,6.52-8.57-1.25-2.49,2.12-3.08,2.27-5.2-.66-.52-1.39.51-2-.3a1.64,1.64,0,0,1,.15-.87c4.1-.74,1.17-4.48,2.93-6.89-.15-1.18-.8-1.54-1.54-2.42-.8.29-1.54-.37-1.69-1.25a4.08,4.08,0,0,0-4.11-1.68c-.65-.3-1.38-.88-2.12-.44-1.53,1.9-3.88,2.56-5.2,4.91l-.58-.52c-.89,1.18-2,2.49-2,4.18.73,1.9-1.83,1.84-2.64,3-1.32,1.4-1,3.53-2.56,4.62-1.77-2.86-4.7-4.32-6.09-7.33.07-3.88-5.06-6-2.93-10.4,9.82-6,21-.81,31.73-.29,15.46,2.19,35,2.41,45.14-11.59.08-.94,1.25-1.9.74-2.71-4.91,3-11.29,3-17.08,3.45-4-.15-8.5-.08-11.72-1.18-8.06-1-15.39-3.95-22.43-7.32A35.6,35.6,0,0,0,137.81,6c-.74.08-1.61.58-2.13.14.37-1.46-.44-2.93-1.24-4.25-1-.58-2.05-1.83-3.15-1.83a6.41,6.41,0,0,0-5.79,2.13A6,6,0,0,0,125,8.36a11.1,11.1,0,0,0,3.22,3.16c.38,9,0,16.71.3,24.91-.3,1.32-1.32,2.94-.3,4.25.22,5.65.22,12.9,0,18.91l-.44.59a1.46,1.46,0,0,0,.3,1.68l.14,46.55c-.94,1-2.12,1.46-2.7,2.71a5,5,0,0,0,.58,3.37c2.93,4,7.18,2.71,11.43,2.27l.3.29a6.17,6.17,0,0,0,.51,5.65c.44,1.46-1,2.56-2,3.36a25.57,25.57,0,0,1-17.81,2.43c-3.15-.44.15-3-.45-4.84-.57-2.56-2-5.43-4.9-5.93a7,7,0,0,0-7.18,2.26c-.07-2.12.21-4.76,2.49-5.79a12.07,12.07,0,0,1,5.94,2.43c1.31,1.6,2.27,2.85,4.39,2.92,1,1.83.67,4,.3,6.08l.51.44c2.57.52,5.42.3,8.06.74,1.54-2.42,4.18.59,5.64-2.28.52-.51,1.84.22,1.84-.87-2.5-4-7-5.79-10.41-8.58-3.89-5.2-10.85-5.2-15.83-8.79-9.24-2.28-8.79,9-12.83,13.7l-.58-.8c-2.57-8.8-11.14-15.54-18.91-19.35-1-.66-2.35-1.32-2.64-2.57,4.18-2.12,5.79,4.69,10,4.84,3.08-1.1,4.4,2.35,7.76,1.54A2,2,0,0,0,93,102.25a2.06,2.06,0,0,0-.74-2.57c-1-.73-1.32.81-2.27.45-.3-.3-.8-.67-.58-1,1.61-.66,4-.37,4.83-2.5.37-5.56-4-9.67-8.06-13-3.66-2.2-4.47-6.52-7.92-9a9.38,9.38,0,0,0,2.57-3.66c-.22-1.39.51-2.64-.59-3.67a19.49,19.49,0,0,0-2.78,1.18c-.59-1-.14-2.42-.3-3.59-.21-.81-.07-2.64-1.25-2.2-.72,2.63-3.29,3.59-4.53,6H70.9c-2.87-1.1-.88-4.1-.81-5.79-2.42-.15-3.44,2.35-4.54,3.95a10.19,10.19,0,0,0-3.82-1.38c-1.1.5.15,1.38-.43,2.12-.89-.07-1.61-.59-2.49-.59-1.18.88.36,2.28-.31,3.52a4.94,4.94,0,0,0-2.7-.22c0,1.25-.51,2.27-1.83,2-.52.66.22,1.4,0,2-.66.22-1.55,0-2,.73a9.19,9.19,0,0,0,.59,2.13c-2.34-.15-1,2.78-3.22,3.08-.51.66.29,1.1.51,1.69-2.78.94-1.61,4.39-4.47,5.13-.37,1,.73.8,1.1,1.24-.07,1-1.17,1.32-1.1,2.27.15,1.25,1.54.14,2,1-.74,1.09-.88,2.71-2.27,3.29-.15,2,2,.67,2.79,1.25a4.31,4.31,0,0,1-2.79,2.27c.73,1.54,2.57,1,4,1.1.36,1.24-.67,1.83-.3,3.08-.59,1.17-1,2.78-2.71,2.71.58,1.69,2.64,1,4.1,1.39a8.63,8.63,0,0,0,3.67,7.48c5.06,2.35,9.75,7.32,10.34,13-.44,2.71-.08,5.72-2.57,7.62A7,7,0,0,1,59,135.81c.37,1.25,1.61,2,1.84,3.23a7.33,7.33,0,0,1-2.29,6.74c-.72.44-1.75.36-2.41,1a7.73,7.73,0,0,1,2.41,5.35,6.07,6.07,0,0,1-2.26,2.43c-5.13,1.09,1.68,4.39-.73,7A24.31,24.31,0,0,1,44.07,150c-3.08-5.93-2.93-12.23-2.2-18.91,1-2.34.59-4.83.81-7.18a3.71,3.71,0,0,0-1.1-3.23c-.59,2.5-1.61,5.07-3.81,6.6-.29-.14-.07-.44-.15-.66s0-.87-.44-.73c-3.15,2-3.89,5.72-5.5,8.72-.29-.37-.36-.95-.94-1.1a41.46,41.46,0,0,0-1,4.4c-.44,1.1.21,2.78-.59,3.52a1.09,1.09,0,0,0-.8-.29v.44c.22,4.69.58,9.23,2.63,13.11-.8.66-1.83.59-2.63,1.25s-2.42-.08-2.28,1.24c1.61,1.69,1.69,4,3.52,5.64-4.91,1.4-4.1,6.75-8.06,9.31.07,1.1,1.46.3,2,1.18-.22,2.56-.66,4.91-2.2,6.88.07,1.32,1.18.15,1.83.44.88.74.81,1.84,1.25,2.79.66,2.12-.74,4.55.58,6.37.81.59.44-.65,1-.94,2.27,2.85,6.37,4.54,7.77,8.13.36.58-.15,1.61.44,2a2.09,2.09,0,0,0,1-2.13c2.34-5.94-3.74-11.73-1.83-18,.94-2.93,3.66-5.86,7-6.37,3.88-.22,7.62-.44,10.85,1.32-.6,1.38-2.13,1.83-3.53,2-.43.65.22,1.17.66,1.53a4.31,4.31,0,0,1,2,4.11,7.42,7.42,0,0,1-3.95,4.91c.07,1.32,1.47,1.24,2.27,1.83a4.15,4.15,0,0,1,1.25,3.52,5.1,5.1,0,0,1-1.55,2.12c.08,1.18,1.25,1.84,2,2.56,1,7.41,3.45,14.22,9,19.72,6.45,6.09,16.7,6.6,24.54,3,6.83-2.2,8.29-9.17,10.2-14.88.51.81.29,2.2.73,3.15,1.83,13.93,16.49,22.72,27.34,29,9.89,4.91,19.64,10.85,27.12,20.09V257c-9.17.74-18.25-1.1-27.42-2a240.8,240.8,0,0,1-32.53-6.38c-2.64-1.1-5.57-1.46-8.22-2.57.44-4,3.23-9.22-.87-12.38-6.53-4.91-15.54-4-23.38-4.25-4-2.78-9-4.84-13.86-3.52-1.16.29-1.83,1.9-3.37,1.4-2.05-.74-4.25-1-6.08-2.13a106.74,106.74,0,0,1,5.21-15c.58-1.75-.74-3.15-1.84-4.17h-.66C31,202.87,25.17,201.56,19.45,200c-3.37-.58-7.55.22-9.6,3.67A119.8,119.8,0,0,0,5.3,215.77c-1.75,6.67-6,12.75-5.2,20.08,3.45,9,13,14.59,21,18.76a19.41,19.41,0,0,0,4.77,2c1.39,1.33,3.3,1.25,4.69,2.35-1.39,3.88-2.79,9.09.66,12.46,4.32,3.44,9.45,5,14.14,7.48C57.63,284.59,71,287.37,84,291.25c2.64.59,5.64,1.32,8.07,1.69,20.44,4.54,42.14,5.79,63,5.27A279.28,279.28,0,0,0,217.25,291c7.77-2.79,16.05-4.26,23.82-7,1.54-.66,3.22-1.1,4.77-1.84a98,98,0,0,0,22-10.55c3.66-3.22,2.13-8.5.81-12.32l.58-.65c2.72-.59,5-2.34,7.63-3.16,8.42-4.61,18.91-10.18,22.42-19.85C299.41,228.3,295.82,222.15,294.13,215.48Zm-67.72-31s7.79,7.7,8.75,9.41,2.52,4.71,2.54,5.55c0,0-1.16,4.87-7.44,5.19s-11.7-4.68-11.49-10.53S223.09,186.47,226.41,184.47Zm-25.2-23.09c.07-2,.36-4.19,2.2-5s1.92-.63,1.92-.63,3.39,5.74,4.47,7.23,6.23,8.16,9.08,12.71c0,0-11.14,9.64-11.64,21.28a30,30,0,0,0-.57-4.62c-.43-1.56-.56-4,1.63-5.24l.15-.86s-2.13-.49-2.13-1.77,1.77-1.49,1.77-2.48-1.28-1.28-1.63-1.35-2.27-.14-3.13-3.27l-3.47-12.91A4.33,4.33,0,0,0,201.21,161.38ZM163.64,118.1a4.41,4.41,0,0,0,2.67.22,20.51,20.51,0,0,0,3.51-1.17l1.49.85-5,4.89s-1.17,1.7.11,1.7,1.59.43,1.8,1,1.81.74,2.66.53,2.56.42,2.77,1.06l8.08-1.06.53-.75s-.84-3.72-.31-5.11,1.81-.32,3.08-1.91,4.58-4.26,6.81-4.15,2.88,2.24,3.3,5.53a5.53,5.53,0,0,0-5.1-2.45c-3.31.43-6.07.85-7.13,7a7.32,7.32,0,0,0,1.06,3.4,21,21,0,0,1-7,1.28c-3.84,0-9.79-1.17-11.5-2.24s-2.55-2.87-2.45-3.4A8.56,8.56,0,0,0,163.64,118.1ZM82.45,195.15c-.11,1.39-.21,8.73-11.18,9.9,0,0-7.19,0-7.85-4.89-.34-2.56,5.09-9.27,6.46-10.44S75,184.91,75,184.91s5.56,3.56,7,5.94A25.18,25.18,0,0,1,82.45,195.15Zm14.68-15.59a33.57,33.57,0,0,1-3.62,1.92c-.21.16-.64.48.16,1.49s1.76,1.91,1.17,2.39-.79.64-.79.64-1.49.1-1.12.85a13.89,13.89,0,0,0,1.6,2.4,2,2,0,0,1,.31,1.81,6.48,6.48,0,0,0-.47,1.64c-.06.75-.32,3.25-.32,3.25s-1-6.86-6.71-14.64a26.76,26.76,0,0,0-5.1-5.21,5.38,5.38,0,0,1,1.32-2.24c1.18-1.32,8.94-12.55,10-14.2s2-3.51,2.88-3.51a7.14,7.14,0,0,1,3.3,2.13s.21,4.57,1.6,6.81C101.29,165.09,97.4,179.19,97.13,179.56ZM132.31,49.34c.22,0,.29.21.51.36a1.43,1.43,0,0,0-.37,1,3.85,3.85,0,0,0,2.21,1.1c.58,1-.74,2.34.58,3,.81-.21,1.91-.73,2.71-.15-.07.59-.88.74-1.32,1.1a3.72,3.72,0,0,1-3.65,2c-1-.37-.67-1.1-1-1.83Zm8.35,44.32-1.23.91-1,6.64s-1.13-.12-1.24,1.23-.56,4.84-1.13,5.06-1.46.23-2,.46a2,2,0,0,1-1.92.11s-.89-33.42,0-43.21c0,0,5.29.11,6.53-.33v.78a3,3,0,0,1-1.57.23c-.9-.11-2.7-.23-3.49.34V72.4s2,.12,2.81,1.24,2.25,2.81,3.61,2.7v1.35s.22,1,.66,1,.8.22.8,1.12-.8,13.84-.8,13.84"/><path id="path3007" class="cls-3" d="M154.44,9.39l.15,3.08a45.18,45.18,0,0,1-6.82-1.1,4.66,4.66,0,0,1,.15-4C150.19,7.85,152.76,8,154.44,9.39Z"/><path class="cls-3" d="M154.59,12.47h0a44.58,44.58,0,0,1-6.82-1.1h0c-.31-.93-.71-2.68.15-4h0c.45.09.92.16,1.38.24,1.86.3,3.8.62,5.15,1.74h0Zm-6.82-1.1a45.88,45.88,0,0,0,6.81,1.09l-.14-3.07c-1.35-1.11-3.28-1.43-5.14-1.73-.46-.08-.93-.15-1.38-.24A4.74,4.74,0,0,0,147.77,11.37Z"/><path id="path3009" class="cls-3" d="M139.93,8c0,1.1.89,3.37-.73,3.52-2.42.07-4.4,1.17-6.75,1.39-.72-.95.08-2.2-.14-3.22C133,9,134.22,9.25,135,8.51,136.49,8.22,138.25,7.27,139.93,8Z"/><path class="cls-3" d="M132.45,12.91h0a2.34,2.34,0,0,1-.21-1.92,3.6,3.6,0,0,0,.07-1.3h0a2.54,2.54,0,0,1,1.32-.58A2.56,2.56,0,0,0,135,8.51a12.89,12.89,0,0,0,1.25-.33A5.45,5.45,0,0,1,139.93,8h0A8,8,0,0,0,140,9c.13.8.27,1.71-.11,2.2a1,1,0,0,1-.73.35,14.32,14.32,0,0,0-3.66.72,17.12,17.12,0,0,1-3.09.67Zm-.14-3.22a3.59,3.59,0,0,1-.06,1.3,2.35,2.35,0,0,0,.2,1.91,16.83,16.83,0,0,0,3.08-.67,14.47,14.47,0,0,1,3.67-.71,1,1,0,0,0,.72-.35c.38-.49.24-1.4.12-2.2a6.39,6.39,0,0,1-.11-1,5.39,5.39,0,0,0-3.73.19,12.89,12.89,0,0,1-1.25.33,2.51,2.51,0,0,1-1.32.58A2.56,2.56,0,0,0,132.31,9.69Z"/><path id="path3011" class="cls-3" d="M154.44,20.1l.15,5c-2.35-.37-4.54-.52-7-1.1-.73-1.61.15-3.45-.14-5.64a7.27,7.27,0,0,1,3.08,0A9.76,9.76,0,0,1,154.44,20.1Z"/><path class="cls-3" d="M154.59,25.15h0c-.77-.12-1.54-.22-2.28-.31a45.78,45.78,0,0,1-4.76-.79h0a5.72,5.72,0,0,1-.2-3,10.66,10.66,0,0,0,.05-2.66h0a7.27,7.27,0,0,1,3.08,0,10.13,10.13,0,0,1,4,1.69h0Zm-7-1.1a45.64,45.64,0,0,0,4.76.78c.74.1,1.51.19,2.27.31l-.14-5a9.86,9.86,0,0,0-3.95-1.69,7.27,7.27,0,0,0-3.08,0,10.66,10.66,0,0,1,0,2.66A5.73,5.73,0,0,0,147.55,24.05Z"/><path id="path3013" class="cls-3" d="M139.79,18.41c.73,2-.08,3.52.14,5.64-2.56.66-5.2,1.1-7.76,2V20.82C134.36,19,136.85,18.7,139.79,18.41Z"/><path class="cls-3" d="M132.16,26V20.82h0A8.9,8.9,0,0,1,135.7,19a25.87,25.87,0,0,1,4.09-.64h0a6.62,6.62,0,0,1,.21,3.28,10.82,10.82,0,0,0-.07,2.37h0c-.88.23-1.78.43-2.65.63A47.56,47.56,0,0,0,132.17,26Zm0-5.21V26a47.56,47.56,0,0,1,5.11-1.35c.87-.19,1.77-.4,2.65-.62a10.8,10.8,0,0,1,.07-2.37,6.69,6.69,0,0,0-.22-3.27C137,18.69,134.42,19,132.17,20.82Z"/><path id="path3015" class="cls-4" d="M145.72,8c.59,1.75-.73,4.84,1.69,5.2,2.49.66,5.13.52,7.18,2.13l-.15,2.34c-2.63-.58-5.2-1.46-8.06-1.54-1.09,1.32-.44,3.67-.66,5.13l-.29,2.65c-1.54-.6-4.69,1.39-4-1.69-.16-1.76,1.39-4.62-.89-5.93a38.67,38.67,0,0,0-8.28,1.82V15.33a24.07,24.07,0,0,1,8.87-2.13l.44-.44v-5c1-.81,2.56-.3,3.81-.44l.29.73"/><path id="path3017" class="cls-4" d="M203.4,17.67l3.08-.51v.29c-5.57,7-13.71,8.5-21.7,10-10,1.61-19.05-.88-28.5-2-.59-1.1-.22-2.05-.3-3.37,0-3.81-.14-7,.14-11.58l.44-.66c14.23,6.6,30.49,11.22,46.84,7.84"/><path id="path3019" class="cls-5" d="M81.37,80.63c4,5,11.07,8.35,11.29,15.09-1,.66-2.12,1.91-3.67,1.26-1.39-1-2.71-3.45-4.83-2.5a2.66,2.66,0,0,0-1.25,3.22,3.16,3.16,0,0,1,.59,1.54c-1.17-.22-1.61-1.46-1.75-2.42.28-.8-.45-2-1.25-2.63a5.46,5.46,0,0,1-2.64-.88c-1-1.1,1.46-3.37-.88-3.08-1.54,1.61-1.76,5.13-4.76,4.25-.88-1.47-2.64.59-3.31-1.47a3.43,3.43,0,0,1-2.93-.5c-1.39-1.47-1.61-3.38-2.56-5h-.29a10.39,10.39,0,0,0,5,8.95l.14.52c-.65.8-2.27-.38-2.41.72a5.75,5.75,0,0,0,4.4.74c-.3,1-2.79.58-1.33,1.69,1.33.14,2.5-.74,3.82-.45v.45c-.29,0-.45.36-.66.5,0,.22.29.37.51.59,1,.15,1.91-1.54,2.86-.29C85,105,94,114.27,95.89,124.52c2.85,3.09,3.22,7.34,3.81,11.15a23,23,0,0,1-.88,7.91c-.36-2.56.58-5.86,0-8.35-.22-1-.15-2.49-1.25-2.93-1.17.95-.22,1.75-.29,2.93-.23,2.2.59,5.05-1.39,6.23-1.25,0-1.1-1.32-1.54-2.13.07-2.78.88-7.47-1.83-9.31-.52.74.28,1.69.44,2.42a42.83,42.83,0,0,1-.44,7.48c.07,1.25.94,2.05,1.68,2.93,4.1,4,9.31,8.64,12.53,13.56,2.72,5.35-1.46,10.7.59,16.35a25.66,25.66,0,0,1-1.24,7.32c0,3.81,1.75,10.33-2.42,12.83a23,23,0,0,0,1.83-10.85c-.29-.08-.52-.58-.74-.15a30.82,30.82,0,0,0-1.54,4.25c-.14-1.83,1.84-3.29.45-5.06a2,2,0,0,0-1.69.52c.08.07-.07-.66-.45-.8-1.09.22-1.67,1.68-2.7,2-.66,0-1.1.66-1.69.66,1.61-1.76,3.89-3.07,5-5.2.74.07,1.69-.07,1.55-1a22.74,22.74,0,0,0-1-3.15c1.32-4,3.37-8.94.58-13,.74-5.28-4.75-7.11-8.2-9a10.43,10.43,0,0,1-5.21-2.42l-.65.74c-.74-.36-1.18-1.46-2.13-1.54-.74-2.05-1.9-4.54-4.11-5.35-2.56.59-4.76-.73-6.82-1.83-.5.3-.36.95-.22,1.25,1.11,3.22,5.14,1,6.31,4.25,1.76,3,4,5.27,7.33,6.15,1.32.8,3,.88,4.4,1.61-2.93,2.2-7,2.56-10.56,1.84a33.19,33.19,0,0,1-9.89-2c-.8-.59-2-.59-2.71-1.33-1.84-1.31-4.47-2.63-4.62-5.2-.36-1.82.52-3.07,1.1-4.76,3.15,3.67,7.92,5,12.83,5.35.07-.14.37-.22.29-.44-2-1.32-4.62-1.1-6.74-2-2.35-1-5.2-2.64-6.08-5.35-.08-2.13.66-4,.58-6.08,3.81.8,7.92-.3,10-3.67a7.61,7.61,0,0,0-1.39-7.48,9.21,9.21,0,0,0-4-1.69,4.83,4.83,0,0,1,4,.59c1.68.3,1.75,4.4,3.21,1.54a6.25,6.25,0,0,0-1.24-4.54c1.62-.52.08-2,.15-2.94-1-1.17-2.64-1.9-2.12-3.51-1.32-2.57-4.18-4.62-6.89-4.4.58-.29,1.39.07,1.83-.58-1.39-3.38-5.79-.3-7.47-3.67-6.46-6-6.31-14-4.26-22a16.92,16.92,0,0,1,5.65-6.68c1.68-.5,4.17,0,5.35-2.19,3-1.32,5.5,1.46,7.91,2.93.65,1.32,2.34,2.27,2.56,3.81"/><path id="path3021" class="cls-5" d="M120.14,112.51c3.09,1.76,4.11,4.91,7.34,6.08a25.71,25.71,0,0,1,5.64,4.4c-.73.22-1.1,1-1.83,1a16.74,16.74,0,0,0-5.35-5.06c-.3,1.55,1.9,2.35,2.42,3.67l.95,1.54c-.52.15-1.76,1.32-1.83-.15-1-2-1.84-4-3.67-5.64-.36,0-.88,0-1,.44l1.83,5.94-.3.36c-1.1-2.05-.44-5.49-2.71-6.89-.8,1.1.08,2.35.45,3.38.21,1.09.43,2.27.73,3.29-.37.66-1.1.07-1.69,0a8.76,8.76,0,0,0-2.27-7.26c-2.19.45-2.42-2.49-4.4-3.37-2.34-1.39-5.42-3.22-8.06-1.39-1,1.39-4.11.81-2.93,3.37l.73,2c-1.09,5.28-.81,10.56-2.56,15.54-.52-1.76-.81-3.81-1.54-5.64-.22-2.21-2.2-4.25-1-6.52,1.17-3.38,1.83-7,2.86-10.56.29-1.91,2.2-3.38,4-3.81,5.34.37,9.23,4.18,14.21,5.35"/><path id="path3023" class="cls-5" d="M197.25,108.3c0,.14-.07.36.15.43a.34.34,0,0,0,.15-.3c2.18,3,2.1,7.15,3.85,10.42.18,1.83,1.6,3.64.68,5.34-1.49,2.88-1.8,6.19-2.4,9.35-1.71-5-2-10.89-3-16.08.56-1,1.27-2.36.52-3.52a1.3,1.3,0,0,0-1.26-.42c-1.71-1.14-3.7-2.13-6-1.43a14.8,14.8,0,0,0-6.94,5.62c-.22-.3-.74-.14-1-.14a7.91,7.91,0,0,0-2,7,2.19,2.19,0,0,1-1.69.54c-.19-2.5,1.25-4.28,1.42-6.63l-.51-.43c-1.95,1.73-1.61,4.57-2.45,6.86-.15,0-.22.15-.29.23,0-2.13,1.32-4.2,1.57-6.48-.22-.36-.59-.29-1-.28a20.24,20.24,0,0,0-3.86,6.3c-.36.22-1-.12-1.39-.42.42-.73.92-1.54,1.35-2.29.27-1,2.46-1.73,1.63-3-1.87,1.56-4,3.14-5.25,5.28a7,7,0,0,0-1.56-.85c.64-1.33,2-2.09,3-3.13.94-.09,1.16-1,1.95-1.42a12.48,12.48,0,0,0,5.27-4.5,26.45,26.45,0,0,0,2.82-2.17c5.63-.84,10.12-7.73,16-4.38l.15.44"/><path id="path3025" class="cls-6" d="M148.66,118.44a17.27,17.27,0,0,1,.94,3.53,8.84,8.84,0,0,1-.8,4.24c-1.68,5.06-7.26,8.43-11.87,10.26-8,2.57-17.29,3-24.85-.8-3-2.12-6.44-4.83-6-9-.44-1.76.8-2.85,1.1-4.4a4.62,4.62,0,0,1,3.37-2.41c1.53-.44,2.56.73,3.65,1.17,1,.88,1.18,2.13,1.55,3.23.58,2-3.81,4.53,0,5.64l2.26.44c1.85.73,4,.52,6.1.8,6-.44,12.74-1.39,16.33-6.88,1-1.69-1.31-2.87-.94-4.4-.23-1.18.29-2,.8-3.08,1-1.54,2.86-1.69,4.55-1.39,1.39.73,3.07,1.53,3.81,3.07"/><path id="path3027" class="cls-6" d="M161.48,117.86c0,1.54.14,3.51-1.1,4.69-.44,2.27,1.76,3.66,3.22,5.06,6.38,3.58,16.2,4.83,23,1.39.37-1.47-.5-2-1-3.08-.06-1.91-.5-3.23.89-4.77a5.15,5.15,0,0,1,5.35-1.17c2.85,2,3.51,5.72,2.85,9-1.24,4-5.19,6.67-9.09,7.92a8.74,8.74,0,0,0-2.34.73c-11.43,2-24-.38-30.63-9.9a10.33,10.33,0,0,1,.8-10.55,6,6,0,0,1,5.65-1.69c.81.66,2,1.25,2.42,2.35"/><path id="path3029" class="cls-6" d="M152.17,114.78v.59c-3.81.95-6.74-2.28-8.72-5,1.1-.95,2.57-.14,3.81-.14a9.23,9.23,0,0,1,4.91,4.54"/><path id="path3031" class="cls-6" d="M158.4,112.8c-1.24.15-2.56,1-4,1.1L152,111c1-.59,2.64-1.32,4-.59a5.55,5.55,0,0,1,2.42,2.42"/><path id="path3033" class="cls-6" d="M142.42,113c-1.54,0-2.12,1.17-3.51,1.39l-3.52-3.66.15-.44a6.62,6.62,0,0,1,6.88,2.71"/><path id="path3035" class="cls-6" d="M174.6,112.07a2.65,2.65,0,0,1,0,2.56c-.81.59-1.61,1.54-2.64.88-2-1-2.56-2.85-3.81-4.54a8.79,8.79,0,0,1,4.32-.59c.66.52,1.68.74,2.13,1.69"/><path id="path3037" class="cls-6" d="M167,113.09c0,.81,1.31,1.1,1,2a4.83,4.83,0,0,1-4.69.15c-1.69-.81-2.71-2.78-3.52-4.4,1.55-.95,2.35-.07,4.11-.14a7.64,7.64,0,0,1,3.08,2.41"/><path id="path3039" class="cls-6" d="M136,114.34v.44c-2.78.66-6.31,1-8.06-1.53a2.77,2.77,0,0,1,.28-2.28c3.16-1.54,5.87.81,7.78,3.37"/><path id="path3041" class="cls-5" d="M141.32,67.8c.44.81-.28,2.06.6,2.64,1.82-.22,4.9,1.25,5.63-1.24V68a10.86,10.86,0,0,1,4.33-.15c.59.81-.15,2.57,1.17,2.64,1.54-.66,4.33.81,4.91-1.24V67.8c1.76-.73,3.81.15,5.64-.14a2,2,0,0,1,.3,2c-.81.28-2,0-2.28,1.09a3.42,3.42,0,0,1-1.83,2.86c-.8.74-2.63-.22-2.56,1.39-.15.6.22,1.32-.37,1.69a71.07,71.07,0,0,1-13.7-.15c-.59-.72.07-2.34-1.4-2.78-1.24-.37-2.93-.15-3.66-1.47-.22-.73-.07-1.54-.87-2-.45-.36-1.25.22-1.55-.44-.8-3.59,3.89-2,5.64-2"/><path id="path3043" class="cls-5" d="M156.72,79.67c-.3,1,.87,3.23-1,2.79L144,82.32c-.73-.89-.07-2,0-2.93a117.66,117.66,0,0,1,12.46,0l.3.28"/><path id="path3045" class="cls-5" d="M156.86,84.59l.37,10.7c-3.82.14-9,0-13.93-.15.15-3.52-.36-7.91.44-11.14l.51-.3,12.17.15.44.74"/><path id="path3047" class="cls-5" d="M158.25,96.82c.74,1.18.22,2.93.59,4.25l-.59.3-16.63-.15a10.08,10.08,0,0,1,.3-4.24c5.78-.66,10.77-.08,16.33-.16"/><path id="path3049" class="cls-5" d="M160.53,103.78a3.44,3.44,0,0,1,0,2.94c-6.67-.37-14.08.15-20.89-.44a3.74,3.74,0,0,1,.29-2.64c7-.22,14.07-.22,20.6.14"/><path id="path3051" class="cls-6" d="M140.44,51.17c-1.17,1.32,1.62,3.15-.65,3.22-.59-2.93-4.91.29-3.81-3.37-.3-.59-1.62-.51-1.32-1.17a3.63,3.63,0,0,0,2-1.55c-.8-1.53-2.34.66-3.21-.28.22,0,2,.14,2.41-.81-.15-1.69-2.35-.44-3.38-1l-.28.44c-.52-2.35.87-4.18.65-6.22-.59-.74.3-1.25.44-1.84,1.47,4.47,8.58,7.11,7.18,12.61"/><path id="path3053" class="cls-6" d="M172.47,50.43a2.56,2.56,0,0,1-.8,2.13c-1.25,1.1-3.6.8-4,2.56,1.32,1.1,2.27-.5,3.52-.58a5,5,0,0,0,2.92-.59c1.18-1,1.55-2.34,2.13-3.66.37-.3.88-.15,1.32-.15-1.83,2.13.66,6.3-2.56,7.62a3.61,3.61,0,0,1-3.52-.58c-.66-.66-1.24-1.47-2.12-1.4-.88,1.55,1.9,2.35,1.68,4a3.41,3.41,0,0,1-1.68,3.52h-2.13c.73-.44,2-.59,2.41-1.68.66-1.47-.5-2.57-.72-3.82a4.53,4.53,0,0,0-4.26-1.68c-2,.51-4.61,1.61-5,4-.3,1.69-.3,4-.44,5.36a7.79,7.79,0,0,1,.44-7.78c.95-1.75,3.37-1.24,3.81-3.37,2.41-2.27,7-.88,8.06-4.76.58,0,.58.66.95,1"/><path id="path3055" class="cls-6" d="M143.45,55.49c-.22,1-.88,2.5,0,3.44,1.1.15,1.54-1.24,2.49-1.6l3.3-.67c-1.47,1-2.86,2.42-4.39,3.23-.52.29-.67-.44-1.11-.44-.87.51-.65,1.91-1.82,2.27a2.92,2.92,0,0,0,.5-2.13c-.22-.14-.36-.44-.66-.29-.8.73-.8,1.76-1.68,2.42-.22-.44,0-1.32-.73-1.69-1.25.15-.59,3.38-2.12,1.39-.81-.06-1.18,1-1.84,1.18A1.07,1.07,0,0,0,134.8,61l-1.54,1.17-.14-1.39c-1.17-.51-1.91.95-2.79,1.39-.44-.8,2.65-1.32,1-2.42-1-.15-1.4,1-2.28,1,.44-1.4,2.13-.88,2.57-2.12a4.61,4.61,0,0,0,4.54-.3c1.91-2.2,4.76-2.79,7.33-2.86"/><path id="path3057" class="cls-6" d="M151.73,58.65a9.75,9.75,0,0,0,.15,5.78v1.1c-2,.36-4.69-.14-6.16.44-.37,1,.15,1.83-.43,2.79l-1.84-.15c-.58-1,.66-2.72-1-3.08a1,1,0,0,1-1.24-.3c-.14-1.31,1.1-1.61,2-2.12,1.39-1.75,3.59-2.34,5.06-4a4.47,4.47,0,0,0,2.85-2.34c1.47-.07.22,1.18.66,1.84"/><path id="path3059" class="cls-6" d="M157.52,32.92c.51-.3.44-1.1,1.17-.81,1.47,1,.66,4.26,3.23,3.37.88,1.54-3.15,1.25-1.54,3.08.51-.15,1.24-.29,1.39.44-.07.74.15,1.76-.73,2h-.37c0-.58.81-1.32-.14-1.69-.66-.14-.88.37-1.18-.29.08-.37.74-.73.3-1.25-.81-.14-1.54-1.54-2.42-.58-.51-.3-.22-1.17-.95-1.1a1.92,1.92,0,0,0-1.69.8,13.85,13.85,0,0,1,.15-5.5c1.1.23,1.68,1.47,2.78,1.55"/><path id="path3061" class="cls-6" d="M132.45,35.78c-1.75.65.37,2.63-1.16,3.51.07,1.25.44,2.27-.3,3.38a7,7,0,0,1-2.13-3.23c.45-1.47.81-3.15,1.76-4.25l.37-1.1c.74.22,1,1.17,1.46,1.69"/><path id="path3063" class="cls-6" d="M151.37,36.43a1,1,0,0,0,.51,1h.43c.16.44-.43.37-.43.73a1.52,1.52,0,0,0,1.17,1.55,1.44,1.44,0,0,0,1.24-.3c-.58.22-1.38.88-2.12.58-1.1-.5.3-2.41-1.24-2.56-1,.88-.44,2.56-1.18,3.38-.29,1.24-1.46,2.34-.8,3.81-.37,1.46-1.69,1.61-2.86,2.12a15,15,0,0,0-3.81.88c.51-3.08,5-1.76,5.79-5-1-.81-1.83.73-2.78,1l-1.55.52c-.14-.74.51-1.4.95-2,.88-.29,1.91-1.32,2.86-.66.81-.07.44-1.1.37-1.54-.8-.73-.51-1.68-.15-2.56l.3-.29a2.45,2.45,0,0,0,1.68,1.24c.88-.88-.59-2.41.59-3.37.59.44,1.68.22,1,1.39"/><path id="path3065" class="cls-6" d="M151.59,47.21c-1.18,1.54-2.21,2.78-2.21,4.62a1.14,1.14,0,0,0,1.11.44c-1,2.35-3.74,2-5.36,3.51.08-2.12,3.37-3.07,3.53-5.49a.64.64,0,0,0-.74-.3c-1.24,1.47-2.85,2.94-4,4.55-.87-1.91,3.3-3.37,2.72-6.24,1.82.22,3.22-3.87,4.91-1.09"/><path id="path3067" class="cls-6" d="M145,48.6c.52,2.13-2.42,2.93-2.86,4.69-.73-.95-.59-1.76-.21-3s1.82-1.61,3.07-1.69"/><path id="path3069" class="cls-6" d="M154.29,43.4c-.07.37-.43.51-.58.81h-.66c-.14-.44.3-.67.36-1,.3.07.66-.07.88.15"/><path id="path3071" class="cls-6" d="M159.94,44.93c.22.44-.29.44-.44.59-.81,0-.87-.87-1.1-1.47,0-.28.07-.8.44-.65a1.76,1.76,0,0,0,1.1,1.53"/><path id="path3073" class="cls-6" d="M157.67,46a2.54,2.54,0,0,1,1.17,2.12c-.07-.08-.15-.22-.29-.14-.08.44.29.88-.3,1.32-.8-.82-.22-2.87-1.69-3.3-.94.65-.06,1.68-.14,2.56-.66-.73-2.13-1.1-1.54-2.27.74-.44,1-1.62,2-1.84l.81,1.55"/><path id="path3075" class="cls-6" d="M155.25,51c-.73-.66-.51-1.68-1.39-2.27A2.58,2.58,0,0,1,155.25,51"/><path id="path3077" class="cls-6" d="M153.86,53.29l-.45,1c.37-1.53-2.56-2.78-.21-4,.43,1,1.09,2,.66,3"/><path id="path3079" class="cls-6" d="M151.94,42.74l-.67-.51a1.22,1.22,0,0,0,.16,1c.34.42.51-.51.51-.51"/><path id="path3081" class="cls-6" d="M155.83,42.13a3.57,3.57,0,0,1,1.57-.68c-.24,0-1,0-1,0a3.21,3.21,0,0,1-.35-1.62,8.26,8.26,0,0,1-.55,1.88l.3.37"/><path id="path3083" class="cls-5" d="M233.74,75.58c3.15.94,6.08,4.24,7.18,7.32,2.13,8.21,1.39,17.45-5.79,22.86-2.12.52-5,0-5.94,2.35.22,1,1.25,0,1.69.73-2.49-.29-4.62,1.47-6.3,3.38-.15.8-.88,1.61-.59,2.41-1.46,1.25-2.64,2.65-2.42,4.55a.77.77,0,0,0,.74.37c-1.1,1.54-1.83,3.66-.88,5.27.14.22.3.44.58.36a6.5,6.5,0,0,1,4-3.37h2.27c-2,.59-4.39,1.4-5.13,3.67a6.3,6.3,0,0,0,0,5.79,8.92,8.92,0,0,0,8.07,3.82l1.53-.45c.15,2.86,1.76,6.38-.8,8.51-2.86,3.29-7,3.73-10.84,4.61-.16.14-.45.29-.45.58,1.11.89,2.42-.36,3.81-.14,3.38-1,6.75-2,9.31-4.91.8,1.91,1.69,4.47.44,6.44a14.23,14.23,0,0,1-5.64,4.11,30.21,30.21,0,0,1-17.37,2.71h-.44c-.29-.36-1-.36-1.54-.58-.52-.74-2.05-.22-2-1.39,4.91-1.1,9.89-3.67,12.24-8.36,1.39-2.27,5.49-.88,5.79-4.47-.81-.58-1.54.52-2.35.8-1.76.45-3.15,1.1-5,.74-2.2.88-3.3,3.3-3.8,5.35-1,.07-1.41,1.17-2.13,1.53-1.1-1.6-2.21,1-3.37,1.25s-1.77.07-2.79.6c-2.79,1.68-6.82,3-7.77,6.66.29,3.23-2.34,5.86-1.32,8.72.29,3.08,3.3,6.23.88,9.31-.29.66.44,1.17.88,1.24.95-.36,1,.59,1.4,1a46.24,46.24,0,0,0,4.47,4c-1.69.14-3.31-1.25-4.33-2.42-.22.22-.74.22-.74.58,1.1,1.91,2,4.47,4.26,5.21.29.22.07.66.43.73.16-.8,1.1-.29,1.55-.29.14.22.36.29.29.51-3.45,1-4.69-2.79-6.38-4.91a1.5,1.5,0,0,0-.73-1.53c-.66,0-1.39,0-1.54.58.73,3.67,1.75,7.55,5,10.26-4.1-1.84-3.73-6.75-5.64-10-.44-.22-.8.29-.88.58.15,3.74.59,7.4,2.27,10.49-2.35-.44-2.49-3.16-3-5-.36-4.25,1-8.35-.8-12.09.08-4.47.58-9.75-.44-14.29.37-2,.3-4.18,1.24-5.94a43.68,43.68,0,0,1,5.43-6.15l.23.14.58-1.17,7-7c.36-3-.67-6.6.14-9.75,0-.52.88-1.1.14-1.54-1.24.51-1.39,2-1.82,3.08-.31,2.85.58,5.64-.81,8.06-1.1.51-1.54-.08-1.84-1.1,0-2.27-.65-4.33,0-6.37a1.67,1.67,0,0,0-.43-1.4c-1.54.37-.81,2.2-1.18,3.22v8.06c-1.76-6.74-1.24-13.92,3-19.78,1.68-8.94,8.87-17.66,17.37-21.4,1.61-.59,3.22-3,5.06-1.32a.86.86,0,0,0,.73-.3c.14-.66-.59-.5-.73-.95,1.1-1,2.56.81,4.25.15.29-.08.14-.37.14-.59-.51-.44-1.17-.36-1.69-.95a4.16,4.16,0,0,0,4.33-1.17c-.8-.52-1.61.36-2.27-.3A10.34,10.34,0,0,1,235.13,94c1-2.13,3.08-4.18,2.28-6.67-1.18.36-1,1.83-1.4,2.71-.73,1-.8,2.49-2.27,2.71-1.24,0-2.27-.07-3.23,1.1-1.16-1-2,1.25-3.29.44-2.35-.51-2.06-3.44-4-4.39-1,1.1.73,3.51-1.53,3.81a3.44,3.44,0,0,0-2.8,1.83c.08,1.4.15,2.93-1.31,3.52L217.1,99c.52-1,1.32-2,.81-3.23-.15-.8-1.1-1.17-1.68-1.53-3.08-.37-4.91,5.27-7.92,1.69-.51-8.43,9.89-11.07,12.46-18,2.34-2.2,5-4.69,8.42-4.47,1.4.88,2.57,2.41,4.55,2.13"/><path id="path3085" class="cls-5" d="M236.67,156.7c-5.13,5.57-12.24,7.84-19.57,7.33a28.06,28.06,0,0,1-4.84-1.54c-1.9-1-2.56-3-3.51-4.7A31.09,31.09,0,0,0,231.18,154c1.46-1.24,3-2.41,4.54-3.65.73,2,2.41,4.25.95,6.37"/><path id="path3087" class="cls-5" d="M239.53,159.34a5.66,5.66,0,0,1,.29,3.67c-2.41,4.47-7.55,6.29-12.31,7.1-5.2-.07-12,1.18-14.22-5.13l-.14-.15c1.39-.14,3.3,1,5.2.74A23.38,23.38,0,0,0,238,157.36c1.17.15.88,1.4,1.54,2"/><path id="path3089" class="cls-5" d="M242.61,166.82c.58,2.19-1.25,3.44-2.13,5-5.35,4-13.56,6.74-19.86,2.93a37.88,37.88,0,0,1-2.42-3.52c3.45.3,8,1.47,11.73.15a22.11,22.11,0,0,0,9-4.69c.74-.81,1.47-2.06,2.42-2.35l1.25,2.5"/><path id="path3091" class="cls-5" d="M245,173c-.59,3.89-5,7-8.5,8.06s-8.21,1.62-11.14-1L223.56,178c2.92-.07,7,.3,10-.94,2.34-.52,4.68-2.13,6.88-3.38,1.25-1.1,1.91-2.78,3.37-3.66.66.88.59,2.12,1.18,3.07"/><path id="path3093" class="cls-5" d="M246.57,177.59a5,5,0,0,1-1,5.06c-2.92,3.95-7.91,5.13-12.75,4.25a8.4,8.4,0,0,1-4.47-3.3c6.6.73,14.07-1.54,17.08-8,.73.29.65,1.4,1.1,2"/><path id="path3095" class="cls-5" d="M247.44,187.85c-2.78,3.59-7.91,4-11.87,3.22a5.63,5.63,0,0,1-2.41-2.49c5.41.81,11.43-1.1,14.51-6.23a5.47,5.47,0,0,1-.23,5.5"/><path id="path3097" class="cls-5" d="M248.55,193.64a11.78,11.78,0,0,1-10.7,1.24c-.81-.29-.88-1.24-1.32-1.83,4.32.15,9.31-.36,12.16-4.47.66,1.47.81,3.74-.14,5.06"/><path id="path3099" class="cls-5" d="M248.1,199.13c-2.26,1.4-5.85,1.25-8.42.15-.44-.66-1.18-1.39-.88-2.12A14.59,14.59,0,0,0,249,195c-.3,1,.66,3.3-.89,4.1"/><path id="path3101" class="cls-5" d="M247.81,203.09c-2.05,1.69-5.28,1.32-7.47.3-.88-.67-.59-1.25-.66-2.28,2.49.73,6.16,1.33,8.57-.44a4.74,4.74,0,0,1-.44,2.42"/><path id="path3103" class="cls-5" d="M247,205.21a13.17,13.17,0,0,1-2,4c-1.68.29-3.67.36-4.84-1-.44-1.1-1-1.9-.37-3.08,2.28.74,4.92,1.24,7.18.14"/><path id="path3105" class="cls-5" d="M242.17,210.71a2.42,2.42,0,0,1,2-.15c-3.15,4.33-7.48,7.63-12.39,8.51-3.44-.08-6.82,1.24-9.16-1.61a3.07,3.07,0,0,1,.81-3.08c4-2.93,8.65-2.93,13.12-4.76l.14.22c-1,2-3.29,3.81-5.2,5v.44c2.05.66,3.29-1.61,5.2-2,.22,1.25,1.61,1.25,2.43,1.4.14-.15.43-.29.43-.58-.8-.59-1.76-.88-2-2,.37-1.1.52-2.27,1.55-3.09a4.41,4.41,0,0,0,3.07,1.69"/><path id="path3107" class="cls-5" d="M226.7,69.49l-.88-.88-.43.59c.21.14.07.44.15.58a9.42,9.42,0,0,1-.81-4.25,7,7,0,0,1,2,4"/><path id="path3109" class="cls-5" d="M223.26,70.88c.15.29-.88-.58-1.09.29v.74c-.66-.74-1.33-1.69-.88-2.71a3,3,0,0,1,2,1.68"/><path id="path3111" class="cls-6" d="M197.46,133.55c.44,3.29,2.06,6.07,2.71,9.3-1.46,1.25-3.37-.74-4.39,1.25-2.41,3,1.18,8-2.57,10.48-2.13,4.62-.66,10.47-.51,14.95a24.87,24.87,0,0,0,.67,10.85c-3.38-13.5-9.91-27.86-3.82-41.78,1.61-2.64,4.18-5.5,7.47-5.5l.44.45"/><path id="path3113" class="cls-6" d="M233.74,67.66c.44,1.46-1.47,2.78-.14,3.66,1.61-1.17,1.53-4.25,4.1-4.4,0,1.69-1,3.3-1.32,5l.29.36c1.83-1.1,1.83-3.51,4.11-3.88.14,1.91-1.25,3.52-1.84,5.2,1.18.52,1.54-1,2.57-1.54.66-.22,1.18-.8,2-.58-.58,1.54-2.64,2.64-2.27,4.25,1.47,0,2.13-2.42,3.81-2.27-.74,1.61-3.08,2.49-2.42,4.25,1.61-.3,2.42-2.5,4.25-2.12-.44,1.53-3.59,2.56-2.57,4.46,1.11-.29,1.83-1.69,3.15-1.39-1.1.88-3.29,1.83-2.85,3.52,1.61-.44,2.93-2.42,4.69-1.69-.21.51-1.18.74-1,1.54s1,.58,1.54,1a3.3,3.3,0,0,0-3.52.66c.3,1.18,1.69.15,2.28.89-.37.14-.88,0-1.11.44.37,1.1,1.77,1.38,2.93,1.38a6,6,0,0,1,2.43,2.94c-2.05,0-2.93-1.84-4.84-2-.44,0-.66.66-.29.88,1.68,1.76,4.91,2.86,5,5.64-1.84-.88-3.44-2.35-5.65-2.41-.58,1.46,1.4,1.53,2.13,2.27A6.16,6.16,0,0,1,251.26,97c-1.33-1.32-3.08-2.94-5-2.79-.29.22-.15.66-.15,1,.22.66,1,.29,1.32.58,3.15,2.06,2.65,5.94,4,8.88-3.08-1-2.93-4.85-5.87-5.94-1,1,1.11,2,1.39,3,1.47,2.64,2.43,6.31,1,9.16-4.11,4.11-10.33,6-11.58,12-1.84,4.18-8.21,3.45-8,8.72-1-.88-.37-2.35-.15-3.37,1.61-3.07,6-1.83,6.89-5.2-.22-.37-.59-.3-.95-.3-2.71,2.2-7.55,2.72-8.06,7-.15,1.11.58,1.91.8,2.93a5.32,5.32,0,0,1-2.63-3.81,5.41,5.41,0,0,1,3.07-4.76c2.86-.74,6.24-1.32,8.65-3.66a.6.6,0,0,0-.29-.74c-1.9.66-4.18,1.32-6.23.59-2.2-.88-4.69.22-6.6,1.39,0-1.17,1.1-2,2-2.79,3.74-1.38,7.4,1.18,11.51.52a2.06,2.06,0,0,0,.73-1.84c.74-.28,1.69-.66,2-1.39-.74-.36-2.13,0-3.09-.29-2.56-.95-2.34-4.54-5.5-4.62h-2.7a4,4,0,0,1,3.66-.58c3.37,1.17,4.1,6.52,8.5,4.54.51-.37,1.32-.15,1.69-.88l-.59-.59c-1.47-.22-3.22.37-4.4-.5-1.39-1.77-1.54-4.19-3.66-5.5a6.25,6.25,0,0,1,3.37.8c2.05,2.35,4.32,5.14,7.77,4,.44-.29,1.1-.29,1.46-1l-.14-.44c-2.12-.3-5.43.44-6.53-2.28-.37-.51,0-1,.16-1.54,1.52,1.62,3.87,3.74,6.74,2.94.73-.66,2.34-.44,2.41-1.83-.95-1.25-1.75.36-2.78.29-1.25.07-2.5,0-3.3-1-1.55-4,3.23-6.46,2.71-10.63,1.54-8.14-.37-18.11-8.06-23.23a32.14,32.14,0,0,0-6.31-2.72c-.58-1.17,1-2,1.55-2.78.21-.81.8-1.54.65-2.56a3.67,3.67,0,0,1,1,1.83"/><path id="path3115" class="cls-6" d="M234.18,117.56c-3.08.88-5.64-4-9.31-2,1.39-1.54,3.52-1.39,5.35-1,1.62.58,2.13,2.93,4,3.07"/><path id="path3117" class="cls-6" d="M239.38,136.11c-.51,2.19-1.68,5.42-.14,7.62a12,12,0,0,0,3.07,3.52c-1.16,2-2.19,4.39-.65,6.45,1,1.75,4.54,1.83,2.34,4.25a8.74,8.74,0,0,0-.51,4c-4-8.87-7.84-18.48-7.33-28.66,1,1,2,2.42,3.22,2.86"/><path id="path3119" class="cls-6" d="M248.25,167.4c-.29,1.76-2,3.29-.95,5.2a9,9,0,0,0,3.51,3.52,33.26,33.26,0,0,0-1.53,4.11c-1.9-5.28-2.86-11-5-16.2a25.78,25.78,0,0,0,4,3.37"/><path id="path3121" class="cls-6" d="M252.06,186.16l-1.53,1.69a31.89,31.89,0,0,1-.6-4.62c.53,1.32,1.69,1.54,2.13,2.93"/><path id="path3123" class="cls-2" d="M195.87,131c-.48.14.54-.74.6-1.28s.34,1.22.34,1.22a2.56,2.56,0,0,0-.94.06"/><path id="path3125" class="cls-5" d="M223.7,118l.59-.45h.44l-1,.45"/><path id="path3127" class="cls-6" d="M232.35,129.59c.58,1,.22,2.34.36,3.51-.44.66-1.09,0-1.53,0a2.15,2.15,0,0,1-1-2.64c.37-.51.52-1.31,1.1-1.61.74-.3.66.66,1,.74"/><path id="path3129" class="cls-2" d="M227.36,79a2.59,2.59,0,0,1,2.43.44c.37.8-.6.87-.88,1.24-3.09.73-5.5,4-9,2.27a11,11,0,0,1,1.18-2.27,4.76,4.76,0,0,1,2.34-1.84c1.32.08,2.79,2,4,.16"/><path id="path3131" class="cls-5" d="M249,171.07c-.59-2,4.76-4.84,0-5.21a5.47,5.47,0,0,1-2.42-2.27,67.15,67.15,0,0,1,8.86-1.39c.44.29,1.1.15,1.47.65.87.44.66,1.76.51,2.57a13.93,13.93,0,0,1-2.49,2.28c0,.29-.58.73,0,1a32.35,32.35,0,0,1-5.93,2.42"/><path id="path3133" class="cls-6" d="M259.54,125.63c1.39,1.39,2.34,3.22,4.25,4.1.44-.07.66-.52.8-.88,2,2.27,2.79,5.42,4,8.21.3,0,.66.08.88-.29.81,2.12.3,4,.43,6.52,1.47,2.41.53,5.72-.28,8.13-.52,2.06-3,2.5-3.52,4.55.74.88,1.32,0,2.12-.15a5.57,5.57,0,0,1,4.33,1.25,7.56,7.56,0,0,1-3.66,4.69.8.8,0,0,0-.44,1.09c1.45,1.11,3.59.66,4.83,2.42,1.54,1.61,2.12,3.6,2.94,5.5-1.47.74.07,2-.15,3.15-.23,1.69,2.05,3.81.15,5.21a18.92,18.92,0,0,0-1.1,5.78c-1.62,1.91-2.13,4.26-4.55,5.36a15,15,0,0,0-3.51,3.37c-.74-1.47.66-3.07.58-4.76,1.1-3.53,3.3-7,1.83-11.07a11,11,0,0,0-7.91-7.7,27.24,27.24,0,0,0-10.71.52l-1.82.44c2.85-1.06,4.11-1.63,5.93-2.42,1.61-1.11,4-2.13,4.32-4.33a8.71,8.71,0,0,0-.8-2.71c-1.83-1.69-3.88-.59-6.09-1l-3.22.36a26.2,26.2,0,0,0,11.29-17.29c.73-5.93-.59-12.31-1.18-18.1h.3"/><path id="path3135" class="cls-2" d="M262.25,130.17c2.71,8.06,1.76,17.3-1.54,24.7-.29.58-.95,1.32-1.61.8-.51-1.17.58-2.41,1.17-3.52,2.2-5.93,3.66-12.75,1.69-19.19a4.91,4.91,0,0,1-.3-3.23c.22,0,.44.29.59.44"/><path id="path3137" class="cls-2" d="M267.46,141.89v.52H267v-.8c.21,0,.44.07.44.28"/><path id="path3139" class="cls-2" d="M265.62,152.6c-1.09,1.38-1.61,3.67-3.66,4-.88-1.9,1.91-2.71,2.27-4.53,1.61-2.5,2-5.5,2.64-8.44l.43-.29a26,26,0,0,1-1.68,9.31"/><path id="path3141" class="cls-2" d="M272.22,169.67a12.57,12.57,0,0,1,1.61,9.31c-.59-.8-.08-1.53-.44-2.41a14.6,14.6,0,0,0-5.93-9.75c-.08-.52.22-1.18,1-1a17.65,17.65,0,0,1,3.81,3.81"/><path id="path3143" class="cls-2" d="M271.55,181.4a31.16,31.16,0,0,1-3.37,10.11c-.22-.14-.29-.51-.29-.94a8,8,0,0,0,.81-2.43,47.94,47.94,0,0,0,2-8.06,14.3,14.3,0,0,0-4.1-8.87.62.62,0,0,1,.44-.88c3.66,2.43,5.06,7.12,4.53,11.07"/><path id="path3145" class="cls-3" d="M283.28,208.73c.59,4.84-4.1,9.17-7.62,11.73L273,222.15a72.42,72.42,0,0,1-3.67-10.7c2.94-2.49,6.68-3.15,10.41-4.11C281,208,282.48,207.12,283.28,208.73Z"/><path class="cls-1" d="M273,222.15h0a72,72,0,0,1-3.66-10.7h0a13.91,13.91,0,0,1,4.24-2.4,45.08,45.08,0,0,1,4.74-1.36l1.43-.35h0a3.81,3.81,0,0,0,1.53.31,2,2,0,0,1,2.06,1.08h0c.27,2.15-.5,4.41-2.26,6.72a26.53,26.53,0,0,1-5.36,5Zm-3.66-10.7A70.31,70.31,0,0,0,273,222.14l2.71-1.68a25.9,25.9,0,0,0,5.35-5c1.77-2.31,2.53-4.57,2.27-6.72a2,2,0,0,0-2.06-1.08,3.6,3.6,0,0,1-1.53-.3l-1.42.35C275,208.51,271.85,209.28,269.29,211.45Z"/><path id="path3147" class="cls-3" d="M292.15,215.48c1.61,6.88,6.16,13,4.91,20.88-4.83,10.34-16.2,15.1-25.65,19.5a12.71,12.71,0,0,1-3.37.73c-2.79-7.55-4.91-15.32-7-23.16.95-.5,2.56-.36,3.66-1.1,10-3.37,21.62-8.57,25.87-19.64C291.34,213.21,291.64,214.52,292.15,215.48Z"/><path class="cls-1" d="M268,256.59h0c-2.85-7.7-5-15.66-7-23.16h0a5.15,5.15,0,0,1,1.55-.42,5.46,5.46,0,0,0,2.11-.68c9.8-3.29,21.59-8.49,25.87-19.64h0a4.17,4.17,0,0,1,1.09,1.8c.14.34.28.68.44,1h0a51.05,51.05,0,0,0,2.27,6.72A52,52,0,0,1,296.7,229a20.49,20.49,0,0,1,.55,3.58,17.69,17.69,0,0,1-.19,3.79c-4.56,9.75-14.89,14.53-24,18.75l-1.64.76c-.28.07-.56.15-.83.24A9,9,0,0,1,268,256.59Zm-7-23.16c2,7.5,4.12,15.46,7,23.16a9,9,0,0,0,2.54-.49c.27-.08.55-.17.83-.24l1.63-.76c9.12-4.22,19.46-9,24-18.74.83-5.23-.94-9.77-2.65-14.16a49.58,49.58,0,0,1-2.26-6.72c-.16-.3-.31-.65-.45-1a4.1,4.1,0,0,0-1.08-1.8,24.2,24.2,0,0,1-4.43,7.26,31.68,31.68,0,0,1-6.34,5.44,49.43,49.43,0,0,1-7.43,4c-2.24,1-4.75,1.95-7.67,2.94a5.55,5.55,0,0,1-2.12.67A5.46,5.46,0,0,0,261.08,233.43Z"/><path id="path3149" class="cls-3" d="M251.92,232.33a2.92,2.92,0,0,1-1.39,1.54,23.29,23.29,0,0,1-3.53,2A10.81,10.81,0,0,1,251.92,232.33Z"/><path class="cls-3" d="M247,235.86h0a10.76,10.76,0,0,1,4.92-3.52h0a2.85,2.85,0,0,1-1.39,1.54l-.45.29a19.72,19.72,0,0,1-3.08,1.69Zm4.93-3.52a10.14,10.14,0,0,0-2.9,1.54,8.74,8.74,0,0,0-2,2,19.1,19.1,0,0,0,3.06-1.69l.45-.28A3,3,0,0,0,251.92,232.34Z"/><path id="path3151" class="cls-3" d="M65.84,248.68c12.31,3.59,24.48,7.33,37.23,9.74,10.11,2.71,21.32,3.53,32.32,4.62,16.05,2.06,32.32-.44,47.56-2a259.74,259.74,0,0,0,34.67-7.61c13.34-3.75,26.89-6.9,38.54-14.66l2.94-3.38.58.59c2.2,8.72,5.06,17.15,8.06,25.51.74,3,1.47,7-1.16,9.15-20.08,11.43-42,16.78-64.72,21.77-4.62.51-9.6,1.47-14.15,2.13C171.23,296.61,153,297,136,296.61c-5.87-.23-11.22-.74-16.93-1.4-8.43-.36-16.34-2.12-24.41-3.52-21.18-4.54-42.51-10-61.27-20.59-2.35-1.68-2.85-4.17-2.42-6.74,2.2-8.06,5.35-15.68,7.63-23.75a22.58,22.58,0,0,1,1.83-5.49C47.45,242.82,56.82,245.45,65.84,248.68Z"/><path class="cls-1" d="M147.72,296.76c-3.85,0-7.77-.05-11.74-.15-6.43-.25-12.17-.84-16.93-1.39a141.14,141.14,0,0,1-19.32-2.61c-1.67-.31-3.39-.62-5.09-.91-6.13-1.32-11.18-2.48-15.87-3.65-5.72-1.43-10.85-2.87-15.67-4.39a155.44,155.44,0,0,1-29.73-12.55,5.93,5.93,0,0,1-2.26-3,8,8,0,0,1-.16-3.71c1.14-4.17,2.55-8.29,3.92-12.27,1.28-3.73,2.6-7.58,3.7-11.48.1-.36.19-.73.29-1.09a17.15,17.15,0,0,1,1.55-4.4h0c6.27,6.86,14.51,9.74,22.48,12.52l3,1,4,1.18c5.38,1.58,10.93,3.21,16.44,4.68,6.18,1.64,11.66,2.91,16.75,3.88,8.77,2.35,18.51,3.29,27.93,4.19l4.39.43a103.51,103.51,0,0,0,13,.78,249.46,249.46,0,0,0,27.35-2l7.19-.77c5.7-.8,11.45-1.86,17.55-3.22,5.43-1.22,11-2.65,17.12-4.39l4.5-1.24c11.65-3.21,23.7-6.52,34-13.41l2.94-3.39h0l.59.59c2.27,9,5.21,17.58,8.06,25.5a19.18,19.18,0,0,1,.68,4.89,7,7,0,0,1-.45,2.34,4.87,4.87,0,0,1-1.4,1.94,140.07,140.07,0,0,1-15.39,7.52c-5,2.08-10.21,4-16,5.78-11.32,3.54-23.15,6.22-33.35,8.46-2.9.32-6,.83-9,1.31-1.73.28-3.51.57-5.2.82-7.8,1-16.43,1.63-25.67,2C157.42,296.68,152.63,296.76,147.72,296.76ZM40.41,235.13a17.33,17.33,0,0,0-1.55,4.39c-.09.36-.18.73-.28,1.09-1.1,3.9-2.42,7.75-3.7,11.48-1.37,4-2.79,8.11-3.92,12.27a7.81,7.81,0,0,0,.16,3.7,5.88,5.88,0,0,0,2.25,3A155.71,155.71,0,0,0,63.1,283.65c11.17,3.53,22.72,6.15,31.54,8,1.7.29,3.42.61,5.09.91a141.14,141.14,0,0,0,19.32,2.61c4.76.55,10.5,1.15,16.93,1.4,9.05.22,17.82.19,26.06-.1,9.24-.33,17.87-1,25.67-2,1.69-.24,3.47-.53,5.2-.81,3-.49,6-1,9-1.32,22.71-5,44.75-10.39,64.72-21.76a5.43,5.43,0,0,0,1.84-4.27,18.2,18.2,0,0,0-.68-4.88C264.9,253.58,262,245,259.68,236l-.58-.59-2.94,3.38a65.87,65.87,0,0,1-8,4.55c-2.59,1.24-5.35,2.4-8.44,3.52-5.74,2.08-11.76,3.74-17.59,5.34l-4.5,1.25c-6.09,1.73-11.68,3.17-17.12,4.38-6.1,1.37-11.84,2.42-17.55,3.23-2.37.24-4.82.51-7.19.77a249.46,249.46,0,0,1-27.35,2,103.4,103.4,0,0,1-13-.78l-4.4-.43c-4.7-.45-9.57-.92-14.26-1.56a111.69,111.69,0,0,1-13.66-2.63c-5.09-1-10.57-2.24-16.75-3.89-5.51-1.47-11.07-3.1-16.44-4.67l-4-1.19h0l-3-1A99.06,99.06,0,0,1,51,242.9a41.2,41.2,0,0,1-5.54-3.32A33,33,0,0,1,40.41,235.13Z"/><path id="path3153" class="cls-3" d="M235,235.85a14.31,14.31,0,0,1-8.43,2c-.3-.87,1.1-.59,1.54-1.17A30.17,30.17,0,0,1,235,235.85Z"/><path class="cls-3" d="M227.64,237.88c-.36,0-.72,0-1.08,0h0a.46.46,0,0,1,0-.4c.1-.19.39-.27.7-.36a1.43,1.43,0,0,0,.83-.41h0a24,24,0,0,1,5.7-.75l1.19-.07h0a14.52,14.52,0,0,1-4.08,1.65A14.14,14.14,0,0,1,227.64,237.88Zm-1.08,0c.37,0,.74,0,1.1,0a14.13,14.13,0,0,0,7.32-2l-1.18.07a24.55,24.55,0,0,0-5.7.74,1.53,1.53,0,0,1-.84.42c-.31.08-.59.16-.7.36A.52.52,0,0,0,226.56,237.83Z"/><path id="path3155" class="cls-3" d="M224.87,244.43a9.62,9.62,0,0,1-3.8.88,3.13,3.13,0,0,1-.3-1.83Z"/><path class="cls-3" d="M221.07,245.31h0a2.61,2.61,0,0,1-.29-1.61v-.22h0l4.11,1h0A9.78,9.78,0,0,1,221.07,245.31Zm-.29-1.83c0,.07,0,.14,0,.22a2.62,2.62,0,0,0,.3,1.61,9.77,9.77,0,0,0,3.79-.88Z"/><path id="path3157" class="cls-6" d="M288.05,204.92c2.71,6.09-1.1,11.88-5.35,16-5.5,4.84-12.17,7.62-18.91,9.82l-3.23.44c.3-.73-.58-1.1-.29-1.83,9.46-3.08,19.28-7.11,24.7-16.78a6.43,6.43,0,0,0,0-5.21c-1.69-2.27-4.11-1.61-6.52-1.53-3.81,1.09-7.62,2.05-10.85,4.47l-.44,1c1.47,3.88,2.57,7.85,3.81,11.8a26.82,26.82,0,0,1-2.56,1.32c-1.61-2.34-1.91-5.57-3.23-8.21-.14-2.78-4.1-6.37-.44-8.43a48.62,48.62,0,0,1,17.81-5.64,6.94,6.94,0,0,1,5.5,2.78"/><path id="path3159" class="cls-6" d="M68.11,239.23c2.64.58,6,1.09,8-1,.6-1.54-1.24-2.28-2-2.93-4.11-2-9.31-1.76-14-2a12.86,12.86,0,0,1-2.13-1.83c5.72-.66,11.8.36,17.23,1.53,1.76,1.24,4.61,1.62,5.06,4.25a3.38,3.38,0,0,1-1.84,3.82c-4.25,1.76-7.91.73-12.39.14-4.39-.81-8.13-3.3-11.43-6.81-2.57-2.5-5.35-5.65-8.86-4.47a2.59,2.59,0,0,0-.44,2.63l.8,1.32c5.79,4.55,12.39,7,19.06,9.31,2.42.74,5,1.9,7.77,2.64,16.33,4.32,31.8,9.38,49.25,11.14,7.25,1.24,15.68,1.54,23,2.26l.3-.28a245.28,245.28,0,0,0,60.89-7.34c4.33-1.16,8.07-2.34,12.47-3.37a160.46,160.46,0,0,0,28.51-10c2.71-2.06,8-2.93,7.19-7.48-.59-1.17-2.14-.95-3.23-.8-5.94,2.63-9.38,10.26-16,11.14-5.27.58-11.65,3.22-15.54-1.69a4.84,4.84,0,0,1,.74-3.52c3.51-3.36,8.43-3.44,13.12-4.25H242c-1.41,3.74-5.72,1.17-8.15,2.13-3.22.5-7,.58-9.59,2.93-.3.58-.81,1.38-.15,2,3.59,2.71,8.5.29,12.24-1,6.59-3.37,11.43-12.75,20.08-9.74a3.56,3.56,0,0,1,2,2.78c-.07,2.79-2,5.2-4.26,6.67-5,3.88-10.83,6-16.63,8.28A331.16,331.16,0,0,1,175,260.11c-6.23.3-12.54,1.24-18.92,1.54a239.28,239.28,0,0,1-44.7-3.67c-1.17.3-2.27-.5-3.51-.44-19.2-4.32-38.33-8.5-56.21-16.48-4.19-2.42-11.22-5.36-10.27-11.44.88-1.68,2.49-2.35,4.26-2.71,9.08.3,13.77,10.77,22.42,12.32"/><path id="path3161" class="cls-3" d="M30.59,211.15l-3.67,10.56c-4.54-2.2-8.79-6.08-10.62-11a4,4,0,0,1,.58-2.93c2.86-1.39,6,0,8.72.66A33.33,33.33,0,0,1,30.59,211.15Z"/><path class="cls-1" d="M26.93,221.71h0a23.09,23.09,0,0,1-2.65-1.5,26.21,26.21,0,0,0,2.65,1.49l3.67-10.54a31.08,31.08,0,0,0-5-2.71L24.07,208c-2.27-.65-4.85-1.38-7.19-.24a4,4,0,0,0-.58,2.92,17.58,17.58,0,0,0,2.57,4.57q-.42-.54-.78-1.08a17.19,17.19,0,0,1-1.8-3.48,4,4,0,0,1,.59-2.94,6.49,6.49,0,0,1,3.6-.55,20.7,20.7,0,0,1,3.59.79c.53.16,1,.3,1.53.42a31.89,31.89,0,0,1,5,2.71h0Z"/><path id="path3163" class="cls-3" d="M12.77,219.07c6.6,8.14,16.43,11,25.66,14.07-.22,2.71-1.47,5.35-2,8.06-1.32,4.33-2.71,8.57-4.11,12.83-.88.66,0,3.29-2,2.27-8.73-2.85-17-7-23.9-14-3-3.37-5.79-7.54-4.18-12.1,1.55-5.78,4.25-11.13,5.94-16.93l.66-1.16A23.56,23.56,0,0,0,12.77,219.07Z"/><path class="cls-1" d="M31,256.54a1.73,1.73,0,0,1-.75-.24,69.35,69.35,0,0,1-12.63-5.45A54.53,54.53,0,0,1,11.81,247a51,51,0,0,1-5.41-4.72A24.1,24.1,0,0,1,3,237.68a23.84,23.84,0,0,0,3.37,4.62c6.08,6.15,13.89,10.73,23.89,14,.45.23.77.29,1,.17s.4-.64.48-1.16a2,2,0,0,1,.49-1.28l.22-.69c1.3-4,2.64-8,3.89-12.14.23-1.07.57-2.15.9-3.2a23,23,0,0,0,1.15-4.85l-1.74-.58C28,229.68,19,226.7,12.77,219.07h0a23.31,23.31,0,0,1-3.95-6.95l-.66,1.16c-.79,2.73-1.83,5.41-2.84,8a84.67,84.67,0,0,0-3.09,8.93,8.29,8.29,0,0,0-.1,5.25,9.52,9.52,0,0,1-.36-1.92,8,8,0,0,1,.45-3.34,86.31,86.31,0,0,1,3.1-8.93c1-2.58,2-5.26,2.84-8l.66-1.17h0a23.51,23.51,0,0,0,4,7h0C19,226.69,28,229.68,36.69,232.56l1.74.58h0A23.22,23.22,0,0,1,37.28,238c-.33,1-.67,2.12-.9,3.2-1.25,4.09-2.58,8.18-3.88,12.14l-.23.68a2,2,0,0,0-.48,1.28c-.09.52-.16,1-.49,1.17A.53.53,0,0,1,31,256.54Z"/><path id="path3165" class="cls-3" d="M52.87,235.7C51,235,48.69,233.73,48,232,49.94,232.63,51.48,234.31,52.87,235.7Z"/><path class="cls-3" d="M52.87,235.71A15.51,15.51,0,0,1,50,234.24a5.06,5.06,0,0,1-2-2.2h0c1.74.53,3.19,2,4.47,3.28l.37.38ZM48,232a5.12,5.12,0,0,0,2,2.19,15.4,15.4,0,0,0,2.85,1.47l-.37-.37A11.77,11.77,0,0,0,48,232Z"/><path id="path3167" class="cls-3" d="M73.31,237.24c0,.88-1.09.22-1.53.59-2.06-.44-4.77-.66-6.53-2.13C68.11,235.85,71,235.85,73.31,237.24Z"/><path class="cls-3" d="M71.78,237.84h0c-.4-.09-.81-.16-1.25-.24-1.81-.33-3.86-.71-5.29-1.89h0l.79,0a34.14,34.14,0,0,1,3.81.32,9.65,9.65,0,0,1,3.47,1.18h0a.46.46,0,0,1-.13.37.91.91,0,0,1-.68.11,1.08,1.08,0,0,0-.73.12Zm-6.52-2.13c1.42,1.18,3.47,1.55,5.27,1.88l1.25.24a1.08,1.08,0,0,1,.73-.12c.28,0,.53,0,.68-.1a.5.5,0,0,0,.12-.37c-2.12-1.26-4.63-1.37-7.28-1.49Z"/><path id="path3169" class="cls-3" d="M79.25,243.33c-.29.65,0,1.68-.73,2l-3.52-1C76.4,243.84,77.86,243.7,79.25,243.33Z"/><path class="cls-3" d="M78.52,245.31h0l-3.54-1h0a20.81,20.81,0,0,1,2.4-.56c.61-.11,1.25-.23,1.86-.4h0a2.59,2.59,0,0,0-.17.81c0,.5-.1,1-.57,1.17Zm-3.51-1,3.51,1c.46-.19.51-.67.56-1.17a2.65,2.65,0,0,1,.17-.81c-.61.16-1.25.28-1.86.4A22.13,22.13,0,0,0,75,244.28Z"/><path id="path3171" class="cls-6" d="M30,205.07c2.27,1.18,4.84,1.76,6.74,3.81-.51,3.23-2.12,5.94-2.93,9-1,2-1.1,4.32-2.27,6.23A7,7,0,0,1,29,222.88c.22-1.83,1.1-3.95,1.46-5.79a30.43,30.43,0,0,0,2.13-5.64c.44-1.54-1.32-2.13-2.27-2.72-4-2.26-8.87-3.81-13.42-3.36a3.93,3.93,0,0,0-2.56,2.27c-.88,6.74,5.49,11.43,10.33,14.94A71.5,71.5,0,0,0,39.16,229c.37.51,0,1.39-.29,2a50.55,50.55,0,0,1-16.64-6.6c-6.45-3.59-12.53-10.19-11.43-17.66a6.64,6.64,0,0,1,5.2-4.92c4.91-.06,9.67,1.69,14,3.23"/><path id="path3173" class="cls-2" d="M40.54,265.48c1.28.35,1.9.44,2.45-.91l3.91-9.66c-.58-1.87-.88-2.06-1.14-2.17l.2-.51,4.3,1.74,3.56,11.57h0l2.5-6.17c.49-1.23.51-2-1.08-2.79l.2-.5,4.38,1.77-.2.5c-1.54-.4-1.86,0-2.25,1l-4.85,12-.58-.24-4.6-14.72h0L44,264.55c-.59,1.47-.32,2,1.12,2.8l-.2.51L40.33,266l.21-.51"/><path id="path3175" class="cls-2" d="M60,258,72.1,261.9l-1.36,4.21-.53-.17c.49-3.13-.82-4.13-3.65-5.05-1.15-.37-1.55-.41-1.85.48l-1.58,4.86c2,.67,3.26.47,4.41-2l.55.18-2.3,7.07-.55-.18c.6-2.69-.26-3.67-2.33-4.34L61.27,272c-.31.92,0,1.3,1.37,1.74a5.6,5.6,0,0,0,6.7-1.91l.59.19-2.25,4.08-12.23-4,.17-.53c1.23.26,1.9.41,2.32-.89l3.29-10.12c.44-1.38-.42-1.71-1.37-2.08L60,258"/><path id="path3177" class="cls-2" d="M93.05,267.54a1.77,1.77,0,0,0-1.8,1L84,280.48l-.57-.14-1.29-10.86-.15,0-6.22,9.12-.6-.14L73.6,264.49c-.12-1.12-.29-1.37-1.16-1.71l.12-.54,6.31,1.45-.13.54c-.79-.11-1.4-.21-1.58.59a2.28,2.28,0,0,0,0,.74l.76,8.32h0l4-6-.27-2.23c-.17-.53-.36-.82-1.37-1.1l.12-.53,6.69,1.53-.13.54c-.94-.15-1.56-.27-1.73.46a6.7,6.7,0,0,0,0,1.25L86,275.5l0,0,4-6.73a2.53,2.53,0,0,0,.36-.87c.21-.88-.54-1.07-1.26-1.29l.12-.53,3.91.91-.13.53"/><path id="path3179" class="cls-2" d="M104.73,281.06c-1.87,1.54-3.78,2.64-6.56,2.2-5.06-.8-7.23-4.8-6.59-8.85a7.58,7.58,0,0,1,8.92-6.58c2,.31,3.47,1.63,4,1.73s.86-.33,1.16-.85l.59.1-.81,5.08-.54-.09c-.46-2-1.88-4.83-4.36-5.23-3.17-.5-4.54,2.69-5.13,6.35a10.78,10.78,0,0,0,.18,4.93,4.05,4.05,0,0,0,3,2.41c1.69.27,3.42-.12,5.54-1.86l.57.66"/><path id="path3181" class="cls-2" d="M118.54,285.71l-7.07-.88.06-.54c1.37.06,1.77.09,1.85-.63a12.71,12.71,0,0,0-.65-3l-4.9-.6a14.32,14.32,0,0,0-1.31,2.7c-.11.83.93,1,1.68,1.15l-.08.55-4.43-.54.07-.55c1.21,0,1.6-.73,2.45-2.28l6.32-11.38.61.08,3.46,12.08c.69,2.45,1,3.24,2,3.32Zm-6-6L111,274.17l-2.7,5.05,4.25.52"/><path id="path3183" class="cls-2" d="M129.34,275.88c-.28-1.56-1.42-4.17-4-4.35a2.15,2.15,0,0,0-2.5,1.91c-.08,1.19.3,1.7,2.09,2.76L128,278a4.55,4.55,0,0,1,2.12,4.21c-.13,1.92-1.72,4.48-5.76,4.2-2.08-.15-3-1-3.7-1-.45,0-.6.36-.71.71l-.63-.05.38-5.41.63,0c.29,2.25,1.39,4.81,4.17,5a2.46,2.46,0,0,0,2.91-2.26c.11-1.47-.88-2.07-2.26-2.85l-1.42-.8c-3.63-2.07-3.5-4-3.43-5,.1-1.34,1-4.28,5.15-4,1.76.12,2.74.91,3.37.95s.64-.28.78-.69l.66.05-.33,4.76-.62-.05"/><path id="path3185" class="cls-2" d="M141.4,286.93l-7.84-.28,0-.55c1.61-.08,2.13-.1,2.2-2l.41-11.58c-1.54,0-3.81.07-4.38,3.57l-.63,0,.22-4.41,13.18.47-.11,4.42-.64,0c-.31-3.53-2.57-3.72-4.09-3.86l-.4,11.58c-.07,1.86.46,1.93,2.08,2.09l0,.56"/><path id="path3187" class="cls-2" d="M157.92,287.07H145.21v-.55c1.23-.15,1.89-.22,1.89-1.55V274.32c0-1.45-.9-1.49-1.89-1.55v-.56h7.67v.56c-1.54.06-2.21.08-2.21,2v10.36c0,1.06.48,1.24,2,1.24,3.32,0,4.55-1.83,5.56-4.3h.64l-.9,5"/><path id="path3189" class="cls-2" d="M158.37,272.18l12.67-.66.23,4.41-.55,0c-.66-3.1-2.26-3.56-5.22-3.41-1.21.07-1.59.18-1.55,1.12l.27,5.09c2.11-.09,3.2-.71,3.39-3.46l.56,0,.39,7.41-.57,0c-.4-2.73-1.56-3.33-3.73-3.21l.28,5.3c.05,1,.48,1.22,1.9,1.14,2.15-.1,4.37-.8,5.58-4.19l.61,0-.64,4.61-12.84.67,0-.54c1.25-.2,1.92-.3,1.85-1.66l-.56-10.62c-.07-1.46-1-1.45-2-1.46l0-.55"/><path id="path3191" class="cls-2" d="M191.45,270.21c-1.19.29-1.67.59-1.51,2l.73,7a6.84,6.84,0,0,1-.78,4.34,6.11,6.11,0,0,1-4.15,2.05,7,7,0,0,1-4.57-.91c-1-.73-1.68-1.43-1.93-3.79l-.77-7.31c-.19-1.84-.76-1.82-2-1.82l-.06-.54,7.39-.78.06.54c-1.44.22-2.11.31-1.91,2.24l.77,7.3c.13,1.25.45,4.26,3.59,3.93,3.85-.4,3.55-3.75,3.4-5.15l-.7-6.67c-.14-1.34-.48-2-2.37-1.94l-.06-.54,4.81-.5.06.54"/><path id="path3193" class="cls-2" d="M193.65,283.68c1.28-.36,1.86-.61,1.64-2l-1.64-10.29c-1.45-1.31-1.81-1.32-2.08-1.27l-.1-.55,4.59-.72,9,8.08h0l-1-6.58c-.2-1.3-.58-2-2.36-1.83l-.08-.54,4.66-.74.09.54c-1.53.44-1.58,1-1.41,2l2,12.8-.61.09-11.53-10.23h0l1.38,8.67c.24,1.57.77,1.91,2.4,1.83l.08.55-4.92.77-.09-.54"/><path id="path3195" class="cls-2" d="M217,279.91l-7.53,1.6-.12-.54c1.14-.35,2-.62,1.68-2l-2.21-10.41c-.31-1.42-1.33-1.25-2.33-1.11l-.11-.53,7.52-1.6.11.54c-1,.25-2,.5-1.71,2l2.21,10.41c.3,1.37,1.17,1.25,2.37,1.09l.12.54"/><path id="path3197" class="cls-2" d="M228.3,277l-7.59,2-.13-.53c1.51-.55,2-.72,1.53-2.51l-3-11.19c-1.46.48-3.63,1.18-3.14,4.69l-.61.16-1.08-4.29L227,261.91l1.19,4.26-.62.17c-1.34-3.29-3.55-2.81-5-2.5l3,11.19c.48,1.81,1,1.71,2.61,1.4l.14.53"/><path id="path3199" class="cls-2" d="M227.91,261.65l12-4.12,1.44,4.18-.51.17c-1.51-2.78-3.15-2.8-6-1.84-1.15.4-1.49.61-1.19,1.51l1.66,4.82c2-.67,2.89-1.57,2.31-4.26l.54-.18,2.42,7-.54.18c-1.15-2.51-2.42-2.77-4.48-2.06l1.73,5c.31.92.8,1,2.15.56a5.61,5.61,0,0,0,4.2-5.56l.58-.2.66,4.62-12.17,4.18-.17-.52c1.14-.53,1.76-.82,1.32-2.11L230.43,263c-.48-1.37-1.37-1.11-2.34-.85l-.18-.52"/><path id="path3201" class="cls-2" d="M246.79,270.11c1.27-.56,1.4-1.32,1.08-2.06l-4.41-9.91c-.55-1.22-1.45-.87-2.27-.6L241,257l6.14-2.72c5.62-2.51,9,.17,10.38,3.26,1.64,3.7.87,7.8-4.12,10.21L247,270.62Zm4.31-3.55c.36.8.7,1.08,1.67.66,2.24-1,3.44-3.08,1.3-7.88-.81-1.83-3.17-5.9-6.63-4.36-1.29.57-1,1.06-.83,1.5l4.49,10.08"/><path id="path3203" class="cls-2" d="M75.44,79.67a2.42,2.42,0,0,1,2.93-.28A11.68,11.68,0,0,1,80.93,83c-1.61-.06-3.88,1-5.34-.28S72.66,81,71,80.33c-.07-.22-.29-.58,0-.8.44-.58,1.18-.58,2-.58.81.28,1.47,1.38,2.42.72"/><path id="path3205" class="cls-2" d="M89.15,90.82c-.08.22-.37.29-.3.51a3.63,3.63,0,0,1,2.13.44c.8.8.22,1.76.22,2.71a1.46,1.46,0,0,1-1.69.15c-.73-.37-.66-1.18-1.24-1.62-.3.3-.08,1.18-.74,1a14.14,14.14,0,0,1-1.69-3.22c.38.07,1.11.58,1.69.14A2.4,2.4,0,0,1,89,90.08c.3.15.16.52.16.74"/><path id="path3207" class="cls-1" d="M79,82.38l-1.51.19a1.55,1.55,0,0,1-1.32-.51c-.13-.11-.23-.3-.4-.4a.66.66,0,0,0,.48-.24,1.07,1.07,0,0,0,1.07.84,1.17,1.17,0,0,0,1-.68l.73.8"/><path id="path3209" class="cls-2" d="M214.54,90.67H215c-.29,1-1.25,2-1.54,3.08-.74.22-.74-.66-.88-1.1-.51.66-.66,1.61-1.54,2a1.55,1.55,0,0,1-1.54-.44c.29-1-.65-2.57.81-2.86a3.14,3.14,0,0,1,1.17-.15l.36.3c.23-.37-.28-.88-.21-1.4,1.31-.58,1.76,1.83,2.93.59"/><path id="path3211" class="cls-1" d="M221.32,82.3a2.79,2.79,0,0,0,1.14.33,2.84,2.84,0,0,0,1.7-.55c.13-.1.24-.29.41-.4a.6.6,0,0,1-.46-.24,1.07,1.07,0,0,1-1.11.8,1.18,1.18,0,0,1-.92-.72l-.76.78"/><path id="path3213" class="cls-5" d="M77.86,118.88a21.66,21.66,0,0,0-2.27-1.54,5.85,5.85,0,0,1,2.27,1.54"/><path id="path3215" class="cls-6" d="M70.24,70.44v.73C64.67,72.71,58.5,77.11,56.82,83c-2.49,7-2.19,16.49,2.13,22.72a2.7,2.7,0,0,1-1.17,2.94,5.31,5.31,0,0,1-4.47-.44c-.36-.07-.89,0-.89.44.23,1.68,2.21,1.61,3.52,2a6.71,6.71,0,0,0,5.65-3.38c.51.74.07,1.4,0,2.13-1.25,2.64-4.69,1.32-6.6,2.27.88,1.91,3.15,1,4.62,1.1,3.22-.8,4.25-5.64,8.06-4.69-3.15,1.39-1.61,6.3-5.79,6.23-1,0-2.12-.73-2.93.15a4.9,4.9,0,0,0,4.62,1.24c3.15-1,4.1-6.3,8.35-4.76.36.15.66.44,1.1.44-1.68,0-3.52,0-5,1.1s-1.69,4-4.11,3.81c-.8.36-2-.81-2.27.44.58,1.1,2.93.58,2.13,2.27,1.75,1.47,4.47.59,6.37.15l.15.22a14,14,0,0,1,3.07-.81c1.69.37,3.74.66,4.55,2.56l.22.82c-2.27-1.47-5.72-2.35-8.14-1.1a14.14,14.14,0,0,1-5-.89.5.5,0,0,0-.14.89c3.43,4.39,13,1.38,11.58,9.45A5.28,5.28,0,0,1,74.05,133a5.71,5.71,0,0,0,.51-4c-1.32-3.82-5.49-3.74-8.14-6a.81.81,0,0,0-.73.36c-.29,1.17,1.17,1.61,1.84,2.13,1.83,1,4.47,1,5.35,3.52.07.81.43,2.05-.3,2.71-.07-1.83-1.68-4-3.67-5.06a7.9,7.9,0,0,1-5.49-6.08c-2.19-4.91-8.06-5.42-11-9.75-1.83-4.1.45-7.91,2.94-11,0-.37-.07-.88-.51-.88-2.79,1.18-2.72,5.13-5.79,5.93,1.46-3.14,1-8.12,5.2-9.16.15-.29.37-.51.29-1-1.24-1-2.63.52-3.81,1.11-.59.44-1,1.24-1.68,1.38.73-1.68,2.27-3.73,4.11-4.25a2.11,2.11,0,0,0,.65-1c-.73-.66-1.54,0-2.34,0L48,94.19c-.22-2.93,3.52-3.89,5-6.23-1.17-.51-2.42.8-3.66,1.24l-1.68.44c.06-.73,1-1.54,1.53-2.27A26,26,0,0,1,53,85.83c.16-.44-.22-.66-.44-1h-.73c.66-.52,2-.15,2.42-.88a3.67,3.67,0,0,0-3.37-.8c0-.08,1.68-.22,1.39-1.33-.36-.29-.66-.8-1.1-1v-.29c1.83-.44,3.29,1.17,4.76,1.83a.84.84,0,0,0,.3-.73c-.59-1.4-2.05-2-3.23-2.78,1.1-.45,2.13.8,3.23,1.24,1-2-1.91-2.42-2.57-4.11,1.69-1,2.79,1.54,4.25,2,.58-.22.22-.88.15-1.24-.66-1.24-1.83-1.84-2.56-3.08,1.53-.37,2.27,1.76,3.81,2.34.29-.44,0-1.32-.37-1.83a11.51,11.51,0,0,1-2-2.64c1.9-.14,2.92,1.84,4.46,2.42.08-1.83-2-3.22-1.68-5.42,2.34.07,2.49,2.93,4.24,3.81.3-1.83-1-3.38-1.24-5.21.73-.44,1.54.59,2.35.89.87,1,.51,3.73,2.42,2.93-.59-1.61-1-3.74.28-5.2.38,1.61,1,3.51,2.43,4.61"/><path id="path3217" class="cls-6" d="M75.73,115.73c.08.15-.36-.07-.88,0a6.8,6.8,0,0,0-4.39.89c-1.18.58-2.27,1.6-3.52,1.24,2.2-1.24,3.81-4.61,7.47-3.08l1.32,1"/><path id="path3219" class="cls-6" d="M70.6,130.46c.22,1,.22,2.34-.8,2.79a1.88,1.88,0,0,1-1.55.44c-.28-1.61-.14-3.52,1.11-4.54.66.06,1,.8,1.24,1.31"/><path id="path3221" class="cls-5" d="M69.5,154c3.74,2.43,7.92,4.41,12.53,4.41,3.31,1,7.18.07,10.34-.3A9.19,9.19,0,0,1,85.84,164c-6.22.95-12.6.08-17.73-3.37-2.13-1.9-5.28-3.74-4.25-7.12.66-.8.58-2.92,2-2.48A10.61,10.61,0,0,0,69.5,154"/><path id="path3223" class="cls-5" d="M85.84,165.71l2-.73c0,1.32-1.68,2.28-2.27,3.53-3.74,2.34-8.57,2.7-13.11,1.82s-9.24-2.57-11.29-6.89c-.74-2.05.44-4,1.61-5.65,6,6.82,14.58,9.17,23.08,7.92"/><path id="path3225" class="cls-5" d="M79.25,172.16a11,11,0,0,1,2.64-.21c.22-.08.07-.38.44-.3h.44A8.66,8.66,0,0,1,75.15,177a21,21,0,0,1-15-5.06c-.73-1.4-2.49-2.65-1.83-4.55.66-.8.45-2,1.4-2.71,4.91,5.64,11.94,8.94,19.49,7.47"/><path id="path3227" class="cls-5" d="M57.48,170.63c4.84,6.3,12.24,8.57,19.94,7.62a8.12,8.12,0,0,1-8.06,4.25c-4.84-.07-10.34-2.27-12.83-6.89-1.46-1.76.29-3.15.59-5h.36"/><path id="path3229" class="cls-5" d="M72.58,184c-1.46,2.5-3.73,3.38-6.3,3.82-4.91.22-9.75-1.83-12-6.23-.59-1.83.37-3.74.88-5.5,3.44,6.45,10.41,8.65,17.44,7.91"/><path id="path3231" class="cls-5" d="M67.81,189.24c-1.53,3.45-5.49,2.71-8.86,2.57-2.79-.59-5.72-2.64-6.38-5.5.3-1,0-2.35.74-3.23,3.22,5.06,9.16,6.82,14.5,6.16"/><path id="path3233" class="cls-5" d="M64.44,193.64a3,3,0,0,1-2,2.12,13.1,13.1,0,0,1-8.21-.14c-.87-.59-2.06-1.25-2.42-2.28a7.87,7.87,0,0,1,.29-4.1c2.86,4,7.7,4.62,12.31,4.4"/><path id="path3235" class="cls-5" d="M62.32,197.75A2.81,2.81,0,0,1,61.15,200c-2,.66-4.84,1.47-7,.52-1-.22-1.54-1.1-2.13-1.84v-2.93c2.87,2.05,6.83,2.49,10.34,2"/><path id="path3237" class="cls-5" d="M61.44,201.7c.08,1-.07,2.05-1.1,2.49-2.27,1-5,1.4-7-.36-.74-.59-.44-1.61-.74-2.43a10.69,10.69,0,0,0,8.87.3"/><path id="path3239" class="cls-5" d="M61.59,206.31c.36,1-.74,1.47-.66,2.42-1,.67-1.91,1.55-3.15,1.4a13.41,13.41,0,0,0-2-.29c-.59-1.32-1.47-2.43-1.69-3.89,2.27,1.17,4.84.58,7.19-.14l.29.5"/><path id="path3241" class="cls-5" d="M63.57,212.4c.43,2-2.64,1.25-1.69,2.86,1.18.37,1.84-.44,2.56-1v-.29c1.84.37,3.16,2.34,5.06,2.12.3-.14.15-.5.15-.8a11.09,11.09,0,0,1-4.1-3.3c-.3-.59-1-1-1-1.68,4.4,2.27,10.19,1.46,13.78,5.35.22.73.81,1.83.15,2.56-3.37,3-7.84,1.39-11.73.74a22.14,22.14,0,0,1-10-7.78,5.15,5.15,0,0,0,5.06-1.31c1,.36,1.1,1.69,1.69,2.56"/><path id="path3243" class="cls-5" d="M46.05,169.23l.15-.15c-.81-1.9-4-2.63-2.78-5.19,1.53-1.76,3.43-.38,5.49-.6,1.68.52,3.66.3,5.35.74-.73,2-3.15,2.2-4.4,3.51.15,1.62,2.56,2.21,2,4.11-1.09-.47-4.58-2-5.79-2.42"/><path id="path3245" class="cls-5" d="M76.09,65.83a10.49,10.49,0,0,1-.8,3.66c-.14.29.3-.73-.29-.59-.44-.22-.81.3-1,.59-.37-1.25,1.17-2.42,1.68-3.66h.36"/><path id="path3247" class="cls-5" d="M79.4,69.34a2.75,2.75,0,0,1-.88,2.71V71h-1.1c.51-.59,1.1-1.61,2-1.69"/><path id="path3249" class="cls-6" d="M40.05,136.47c-.38,7.33.58,14.3,5.64,19.8a42.52,42.52,0,0,0,5.79,5.19c-2.87.22-6.31-1.16-9.09.59a4.33,4.33,0,0,0-.66,3.66,8.6,8.6,0,0,0,4.32,3.52,23.43,23.43,0,0,1,5.79,2.42c-4.91-1.39-11.65-2.05-16.2.67-4,2.41-4.9,7-4.54,11.13.66,3.81,2.86,7,2.86,11.07-2.28-3.38-7.47-4.62-8.36-9.09a11.22,11.22,0,0,0-1.83-6.6c.44-2,.88-4,1.32-6.07a1.26,1.26,0,0,0-.44-1.25H24.5v-.44c1.17-3.31,3.52-7,7.48-7.18,1.31-1.62-1.61-1.69-2.12-2.87-.88-.94-1.1-2.12-1.69-3.23a5.07,5.07,0,0,1,4.91-1.09c.29.15.59.44,1,.37.73-.37.29-1,.14-1.4-3.59-2.27-4.61-6.88-4.25-10.84,1.54-1.9,0-4.91.95-7.33.15-.29.51.44,1,.15a58.89,58.89,0,0,1,3.66-8.22l.44-.14a1,1,0,0,0,.52.88h.58l4-4.11c.66,3.37-1.17,6.74-1.09,10.41"/><path id="path3251" class="cls-6" d="M58.22,160.36l-.74,1.84c.74-2.57-3.59-5.79.59-7a5.67,5.67,0,0,0,2-2.78c1-2.42-3.59-4.69,0-6.09a7.58,7.58,0,0,0,1.83-8.06c-.44-.36-.29-1-.73-1.38a21.73,21.73,0,0,0,3.67-3.52c.14,10-2.79,18.68-6.6,27"/><path id="path3253" class="cls-2" d="M39,130.32c-.22,4.91-2.27,9.89-.58,15.1.36,3.66,1.83,6.81,3.44,10a.78.78,0,0,1-.58,1c-1.18.14-1.32-1.18-1.84-1.83a33.75,33.75,0,0,1-.87-24.26H39"/><path id="path3255" class="cls-2" d="M33.67,142.55V143c-.22,0-.52.15-.59-.15a.62.62,0,0,1,.29-.74c.08.22.37.08.3.44"/><path id="path3257" class="cls-2" d="M33.81,144.24c.81,4.4,2,8.65,5.35,12,.15.43-.29.8-.58.94-1.4-.14-2.06-1.68-2.79-2.63-1.83-3.09-2.42-6.75-2.71-10.48.29-.3.44,0,.73.14"/><path id="path3259" class="cls-2" d="M33.37,167c0,1.18-1.17,1-1.69,2-3.22,2.79-4.17,6.82-4.76,10.85h-.29a13.17,13.17,0,0,1,5.79-13.27c.44-.14.66.22.95.44"/><path id="path3261" class="cls-2" d="M32.27,174.44c-4.25,5.64-.59,12,.52,17.81-.81-.15-1-1.18-1.25-1.84-2-5.2-4.54-12.75,0-17.65.73-.6,1.25-1.55,2.13-1.84,1.53,1.46-1.1,2.27-1.4,3.52"/><path id="path3263" class="cls-5" d="M126.52,125.18c-.22-.22-.73-.72-.58-1.24a3.8,3.8,0,0,1,.58,1.24"/><path id="path3265" class="cls-5" d="M174.75,125.18c-.37-.22-.08-.8.29-1.09a5.4,5.4,0,0,1-.29,1.09"/><path id="path3267" class="cls-5" d="M82.18,179.79c.51,2.34,1.47,5,.88,7.47.22.15.37.37.65.3,1.55-2,.82-4.91.6-7,2.71,3.3,3,7.92,3.22,12.17.15.36.44.36.74.22,1.53-1.77.14-4.25.58-6.45,2.2,3.22,2.13,7.91,1.83,11.57.22.16.37.44.66.3a3.06,3.06,0,0,0,.88-2A21.91,21.91,0,0,1,91,208c.65-10.25-6.3-19-14.58-24.55a4.24,4.24,0,0,1,2.26-2.79c.22,1.18-.58,2.79.44,3.53,1.77-1.69-.51-5.5,2-6.6l1.1,2.2"/><path id="path3269" class="cls-5" d="M222.31,183.75c.8-1.1-.3-2.35.29-3.52a5.36,5.36,0,0,1,2.27,2.56c-8.28,5.87-15.24,14.37-14.58,24.85a22,22,0,0,1-1.24-12c.14.88.28,1.83,1.09,2.27,1.25-.73-.51-2.57.3-4,0-2.79.21-5.86,2.12-8.06,0,2.35-.8,5,.59,6.67.36.15.66-.15.8-.44a16.54,16.54,0,0,1,2.86-11.72c.14,2.34-1.1,5.12,1.1,6.66l.29-.29c-.22-3.37,0-7,2.13-9.6,2.27,1.6-.07,5,2,6.6"/><path id="path3271" class="cls-1" d="M96.33,187.7l-.88-.14c.88-.74,2.34-.44,3.37-1.25,1.25-1.1,1.68-2.56,2.86-3.81-1.25,2.13-2.57,5-5.35,5.2"/><path id="path3273" class="cls-1" d="M99.55,189.24c-.88-1,.88-1.39,1.25-2.34.07,1-1,1.46-1.25,2.34"/><path id="path3275" class="cls-1" d="M99.4,191.81a16,16,0,0,0,3.53-5.35c.06,2.12-1.91,4-3.53,5.35"/><path id="path3277" class="cls-1" d="M201.86,189.24a14.9,14.9,0,0,1-1.69-2.93c.38,1.17,2.64,1.39,1.69,2.93"/><path id="path3279" class="cls-1" d="M204,189.53v.59c-.22.07-.28-.15-.43-.3v-.58c.21-.07.29.15.43.29"/><path id="path3281" class="cls-1" d="M97.43,190.57c-.38-.16,0-.6.14-.89h.3l-.44.89"/><path id="path3283" class="cls-2" d="M105.54,131.23c.45.21-.39-.83-.37-1.37s-.55,1.14-.55,1.14a2.39,2.39,0,0,1,.92.23"/><path id="path3285" class="cls-1" d="M130.62,44.21c.08,4-.07,8.64-.14,12.45-.15.3-.44.15-.73.15a130.45,130.45,0,0,1,0-13.12c.36,0,.87.08.87.52"/><path id="path3287" class="cls-1" d="M84.75,97.85a4.22,4.22,0,0,1,2.45,1c.64.85,2.35,3.48,4.58,2.34,0,0,.67,1.14-1.39,1.14a4.32,4.32,0,0,1-3.68-2.49,2.74,2.74,0,0,0-1.81-1.43l-.15-.59"/><path id="path3289" class="cls-1" d="M216.07,97.7a3.94,3.94,0,0,1-1.64,1.68,1.46,1.46,0,0,0-1,1.25s-1.66,1.65-3.08,1.65-1.23-.2-1.35-.7.5-.64.85-.43,1.21.71,2.42-.92,3.13-2.71,3.79-2.53"/><path id="path3291" class="cls-6" d="M112.82,141.89c3.59,13.42-1.61,26-4.77,38.34a39.22,39.22,0,0,0,.81-8.87c-1.62-4.69,1.76-9.09-.3-13.41a7.06,7.06,0,0,0-2.26-5.21c-.16-3.29.43-7-1.69-9.45-1.18.14-2.71.51-3.67-.29.81-3.38,2-6.53,3-9.75,4.47.51,7.69,4.69,8.87,8.64"/><path id="path3293" class="cls-1" d="M133.7,4a3,3,0,0,1,.16,2.5,2,2,0,0,1-1.19.73c.22-.95.89-1.83.45-2.86-.81-1-1.76-2.2-3.08-2.2a4.26,4.26,0,0,0-3,2c-1.18,1.83.72,3.3.88,4.76a4.34,4.34,0,0,1-2-2,4.62,4.62,0,0,1,.58-3.81c1.62-.88,3.59-2.28,5.5-1.1a8.43,8.43,0,0,1,1.68,2"/><path id="path3295" class="cls-1" d="M130.85,5.72l-.37,2c.14,8.2.44,16.12.37,24.54-.37.37-.44,1.18-1.1,1.11-.08-10.19-.59-19-.15-28.22.51,0,1.25-.07,1.25.58"/><path id="path3297" class="cls-6" d="M51.7,180.66c-.59-1.31-.74-2.71-1.69-3.81,1.83-.87,3.81-2.78,3.81-5,.15-1.39-.81-2.42-1.25-3.66,1.18-1.26,2.94-2.06,4-3.67-2.12,5.2-3.22,11-4.83,16.19"/><path id="path3299" class="cls-6" d="M50.44,188.29c-.43,0-1.09-1.25-1.68-1.69A14,14,0,0,0,51,183.89a20.84,20.84,0,0,1-.6,4.4"/><path id="path3301" class="cls-6" d="M204.14,193.05c.66.95.66,2.71.66,4,.95,12.31-4.25,23.16-14.66,29.24-13,9.53-28.3,15.32-39.21,28.36l-.44.15c-6.16-7.91-15.17-13-23.16-18.24-2.94-1.25-5.43-3.23-8.28-4.63-1.76-1.31-3.81-2.12-5.5-3.66-10.48-5.93-17.3-15.32-17.08-27.41.58-2.13-.51-5.13.37-7,.88-.51,2.2.38,3.3-.14l.66-.3c.14.52-.52,1.47.44,2a8,8,0,0,0,3.22-.66c-1.31,12.46,4.84,23.17,15.54,28.88,10.55,5.86,21.7,11,30.63,20.3,1.39.08,1.39-1.54,2.28-2.2,10.18-9.89,23.37-14,34.3-22.35a27.83,27.83,0,0,0,9.52-24.92c1.32,0,2.93,1.39,4,0l-.52-1.68a3.59,3.59,0,0,0,4,.36"/><path id="path3303" class="cls-1" d="M127.33,141s10.2-1.72,13.55-3.52v94.69s-.19.57-1.61-.57-12.09-6.91-12.09-6.91l.15-83.69"/><path id="path3305" class="cls-1" d="M160.13,137.5a53.89,53.89,0,0,0,8.09,2.46c2.83.42,5.17.73,5.43,1.5v83.47s-12,6.72-13.42,7.77l-.1-95.2"/><path id="path3307" class="cls-1" d="M130.32,64.3l.11,40.39-.45,3.6s-.45-6.07-.45-9.34V65.31s0-1,.79-1"/></g></g></g></g></svg>