<svg xmlns="http://www.w3.org/2000/svg" viewBox="0 0 267.82 298.45"><defs><style>.cls-1{fill:#00a650;}.cls-2{fill:#241f20;}.cls-3{fill:#fff200;}</style></defs><title>Norwich</title><g id="Слой_2" data-name="Слой 2"><g id="Layer_1" data-name="Layer 1"><path id="path3857" class="cls-1" d="M263,86.06h0l.38-81.59H4.47L4.85,86h0C4.85,189.61,68.48,294,133.91,294S263,189.61,263,86.06Z"/><path d="M133.91,298.45c-32.64,0-66.48-24.51-92.85-67.25a275.32,275.32,0,0,1-29.52-67.74A280.74,280.74,0,0,1,.41,86.06L0,0H267.82l-.41,86.06h0a280.74,280.74,0,0,1-11.13,77.4,275.32,275.32,0,0,1-29.52,67.74C200.39,273.94,166.55,298.45,133.91,298.45ZM8.94,8.89,9.3,86.05c0,48.77,14.34,100,39.33,140.48,24.71,40,55.79,63,85.28,63s60.57-23,85.28-63c25-40.52,39.33-91.71,39.33-140.47v0l.36-77.13Z"/><path id="path10" class="cls-2" d="M19.07,15.73c4.83-.12,9.67-.12,14.48,0,.06,1.92,0,3.82.06,5.71,3,.06,6.1.06,9.16,0,0-1.89-.06-3.79.06-5.68,5.11-.12,10.25-.12,15.39,0,.09,1.89.06,3.79.06,5.68,2.94.06,5.89.06,8.83,0,0-1.89-.06-3.79,0-5.71q8-.13,16,0c.09,1.92.06,3.82,0,5.71,2.73.06,5.5.06,8.23,0,0-1.89,0-3.79.06-5.71,4.81-.09,9.65-.09,14.48,0,.07,1.89,0,3.79,0,5.68q5.19.09,10.37,0c0-1.89-.06-3.79,0-5.68,5.74-.12,11.51-.12,17.25,0q.14,15.83,0,31.58c-17.43,0-34.86.06-52.28,0-.09-3.49.09-6.94-.09-10.4q-6.14,0-12.2,0c0,3.46.09,6.94-.06,10.4q-25,0-50,0-.13-15.78,0-31.55M21,17.2c0,9.47,0,18.9,0,28.37,15.38.06,30.77.12,46.15,0,0-3.58-.12-7.18.06-10.76,5.38.06,10.76,0,16.14,0,0,3.58-.06,7.18.06,10.76,16.13.06,32.27.09,48.41,0,0-9.47,0-18.9,0-28.37-4.45-.06-8.93-.09-13.38,0,0,2,0,4-.06,6-4.71,0-9.46,0-14.18,0-.12-2-.06-4-.06-6-3.54-.12-7.12-.12-10.67,0,0,2,0,4-.09,6-4,0-8,0-11.92,0,0-2,0-4-.06-6-4.09-.09-8.18-.09-12.26,0,0,2,.06,4,0,6q-6.36,0-12.71,0c-.09-2-.06-4,0-6-3.85-.15-7.73-.12-11.57,0,0,2,0,4-.06,6q-6.49,0-13,0c-.09-2,0-4,0-6-3.55-.15-7.12-.09-10.67,0Z"/><path class="cls-2" d="M103.5,47.33c-7.38,0-14.77,0-22.11,0h0c0-1.49,0-3,0-4.47,0-1.94,0-3.94-.08-5.91-4,0-8.15,0-12.17,0,0,1.23,0,2.48,0,3.69,0,2.2,0,4.47-.07,6.69h0c-16.57,0-33.38,0-50,0h0C19,36.81,19,26.2,19.05,15.73h0c4.59-.12,9.46-.13,14.48,0h0c0,1.15,0,2.31,0,3.43,0,.75,0,1.51,0,2.27,3,.05,6.09.05,9.14,0,0-1.86-.06-3.78.06-5.67h0c5.09-.12,10.27-.12,15.39,0h0c.07,1.51.07,3.05.07,4.54,0,.38,0,.75,0,1.13,2.92.05,5.89.05,8.81,0,0-1.86-.06-3.78,0-5.7h0c5.33-.09,10.72-.09,16,0h0c.09,1.92.06,3.84,0,5.7,2.72.05,5.49.05,8.21,0V20.27c0-1.49,0-3,.06-4.57h0c5-.1,9.89-.09,14.49,0h0c0,1.42,0,2.87,0,4.26V21.4c3.43.05,6.91.05,10.34,0,0-1.86-.06-3.78,0-5.67h0c5.45-.12,11.25-.13,17.25,0h0c.09,10.49.09,21.12,0,31.58h0C123.75,47.31,113.64,47.33,103.5,47.33Zm-22.1-.06c7.33,0,14.72,0,22.1,0,10.13,0,20.24,0,30.15,0,.09-10.46.09-21.07,0-31.56-6-.09-11.77-.08-17.22,0-.08,1.9-.05,3.81,0,5.67h0c-3.44.06-6.93.06-10.37,0h0V20c0-1.39,0-2.83,0-4.25-4.58-.11-9.45-.12-14.45,0-.08,1.54-.07,3.07-.07,4.56,0,.38,0,.76,0,1.14h0c-2.73.06-5.5.06-8.23,0h0c0-1.86.06-3.77,0-5.7-5.32-.09-10.71-.09-16,0-.09,1.93-.06,3.84,0,5.7h0c-2.93.06-5.9.06-8.83,0h0c0-.38,0-.76,0-1.14,0-1.48,0-3-.06-4.53-5.11-.12-10.28-.12-15.36,0-.12,1.9-.09,3.81-.06,5.67h0c-3.05.06-6.13.06-9.16,0h0c0-.76,0-1.53,0-2.28,0-1.11,0-2.27,0-3.42-5-.09-9.88-.08-14.46,0C19,26.2,19,36.81,19.08,47.27c16.59,0,33.39,0,49.94,0,.1-2.22.08-4.49.07-6.68,0-1.22,0-2.47,0-3.71h0c4,0,8.13,0,12.2,0h0c.1,2,.09,4,.07,5.93C81.37,44.27,81.36,45.78,81.4,47.27ZM45.6,45.65c-8.27,0-16.51,0-24.61-.07h0c0-9.29,0-18.9,0-28.37h0c3.5-.06,7.11-.12,10.67,0h0c0,.58,0,1.16,0,1.73,0,1.39,0,2.83,0,4.24,4.3,0,8.66,0,13,0,.08-1.59.07-3.21.07-4.78,0-.4,0-.79,0-1.19h0c4.32-.14,8.11-.14,11.57,0h0v0c0,2.05-.06,4,0,6,4.21,0,8.47,0,12.68,0,.09-2,.06-4,0-6h0c3.92-.12,7.93-.13,12.26,0h0c.06,1.26,0,2.53,0,3.75,0,.74,0,1.5,0,2.25,3.95,0,7.95,0,11.9,0,.1-1.65.1-3.34.09-5v-1h0c3.54-.12,7.13-.12,10.67,0h0c0,.5,0,1,0,1.49,0,1.47,0,3,.07,4.48,4.69,0,9.46,0,14.15,0,.07-1.58.07-3.2.06-4.77v-1.2h0c4.57-.13,9.13-.09,13.38,0h0c0,9.47,0,19.08,0,28.37h0c-7.4,0-14.78.06-21.94.06-9.35,0-18.33,0-26.47-.06h0c-.07-2.28-.06-4.6,0-6.85,0-1.28,0-2.6,0-3.9h-4c-4,0-8.06,0-12.08,0-.12,2.32-.1,4.67-.08,7,0,1.24,0,2.53,0,3.79h0C60,45.62,52.77,45.65,45.6,45.65ZM21,45.55h0c15.11.06,30.74.12,46.11,0,0-1.25,0-2.53,0-3.77,0-2.29,0-4.65.07-7h0c4,0,8.13,0,12.1,0h4c0,1.3,0,2.63,0,3.91,0,2.24,0,4.56.06,6.83,14.36.06,31.34.1,48.38,0,0-9.28,0-18.88,0-28.33-4.24-.06-8.78-.1-13.34,0v1.18c0,1.57,0,3.2-.06,4.78v0h0c-4.7,0-9.47,0-14.18,0h0v0c-.09-1.49-.08-3-.07-4.49,0-.48,0-1,0-1.47-3.53-.12-7.11-.12-10.64,0v1c0,1.64,0,3.34-.09,5v0h0c-4,0-8,0-11.92,0h0v0c0-.75,0-1.52,0-2.26,0-1.22,0-2.48,0-3.73-4.31-.1-8.31-.09-12.23,0,0,2,.06,4,0,6v0h0c-4.22,0-8.5,0-12.71,0h0v0c-.09-2-.06-3.91,0-6-3.45-.14-7.23-.14-11.54,0v1.17c0,1.58,0,3.2-.06,4.79v0h0c-4.31,0-8.68,0-13,0h0v0c-.06-1.41-.05-2.86,0-4.25,0-.56,0-1.14,0-1.71-3.54-.15-7.15-.09-10.64,0C21,26.67,21,36.27,21,45.55Z"/><path id="path12" class="cls-3" d="M21,17.2c3.55-.06,7.12-.12,10.67,0,0,2-.06,4,0,6q6.48,0,13,0c.09-2,.06-4,.06-6,3.84-.12,7.72-.15,11.57,0,0,2-.06,4,0,6q6.35,0,12.71,0c.09-2,.06-4,0-6,4.08-.12,8.17-.12,12.26,0,.09,2,0,4,.06,6,4,0,8,0,11.92,0,.12-2,.09-4,.09-6,3.55-.12,7.13-.12,10.67,0,0,2-.06,4,.06,6,4.72,0,9.47,0,14.18,0,.09-2,.06-4,.06-6,4.45-.12,8.93-.09,13.38,0,0,9.47,0,18.9,0,28.37-16.14.09-32.28.06-48.41,0-.12-3.58,0-7.18-.06-10.76-5.38,0-10.76,0-16.14,0-.18,3.58,0,7.18-.06,10.76-15.38.15-30.77.09-46.15,0,0-9.47,0-18.9,0-28.37M37.46,28.89c0,2.71-.09,5.41,0,8.14.69,0,1.35,0,2,0,.09-2.73.06-5.43,0-8.14h-2.1m72.77,0c0,2.71,0,5.41,0,8.08h2.07c.13-2.7.1-5.4,0-8.11C111.64,28.89,110.92,28.89,110.23,28.92Z"/><path class="cls-3" d="M45.6,45.65c-8.27,0-16.51,0-24.61-.07h0c0-9.29,0-18.9,0-28.37h0c3.5-.06,7.11-.12,10.67,0h0c0,.58,0,1.16,0,1.73,0,1.39,0,2.83,0,4.24,4.3,0,8.66,0,13,0,.08-1.59.07-3.21.07-4.78,0-.4,0-.79,0-1.19h0c4.32-.14,8.11-.14,11.57,0h0v0c0,2.05-.06,4,0,6,4.21,0,8.47,0,12.68,0,.09-2,.06-4,0-6h0c3.92-.12,7.94-.13,12.26,0h0c.06,1.26,0,2.53,0,3.75,0,.74,0,1.5,0,2.25,3.95,0,7.95,0,11.9,0,.1-1.65.1-3.34.09-5v-1h0c3.54-.12,7.13-.12,10.67,0h0c0,.5,0,1,0,1.49,0,1.47,0,3,.07,4.48,4.69,0,9.46,0,14.15,0,.07-1.58.07-3.2.06-4.77v-1.2h0c4.57-.13,9.13-.09,13.38,0h0c0,9.47,0,19.08,0,28.37h0c-7.4,0-14.78.06-21.93.06-9.36,0-18.34,0-26.48-.06h0c-.07-2.28-.06-4.6,0-6.85,0-1.28,0-2.6,0-3.9h-4c-4,0-8.06,0-12.08,0-.12,2.32-.1,4.67-.08,7,0,1.24,0,2.53,0,3.79h0C60,45.62,52.77,45.65,45.6,45.65ZM21,45.55h0c8.1,0,16.34.07,24.61.07,7.17,0,14.36,0,21.5-.1,0-1.25,0-2.53,0-3.77,0-2.29,0-4.65.07-7h0c4,0,8.13,0,12.1,0h4c0,1.3,0,2.63,0,3.91,0,2.24,0,4.56.06,6.83,14.36.06,31.34.1,48.38,0,0-9.28,0-18.88,0-28.33-4.23-.06-8.78-.1-13.34,0v1.18c0,1.57,0,3.2-.06,4.78v0h0c-4.7,0-9.47,0-14.18,0h0v0c-.09-1.49-.08-3-.07-4.49,0-.48,0-1,0-1.47-3.53-.12-7.11-.12-10.64,0v1c0,1.64,0,3.34-.09,5v0h0c-4,0-8,0-11.92,0h0v0c0-.75,0-1.52,0-2.26,0-1.22,0-2.48,0-3.73-4.31-.1-8.31-.09-12.23,0,0,2,.06,4,0,6v0h0c-4.22,0-8.5,0-12.71,0h0v0c-.09-2-.06-3.91,0-6-3.45-.14-7.23-.14-11.54,0v1.17c0,1.58,0,3.2-.06,4.79v0h0c-4.31,0-8.68,0-13,0h0v0c-.06-1.41-.05-2.86,0-4.25,0-.56,0-1.14,0-1.71-3.54-.15-7.15-.09-10.64,0C21,26.67,21,36.27,21,45.55Zm18.57-8.5h0c-.69,0-1.36,0-2,0h0v0c-.1-2.34-.07-4.7,0-7,0-.38,0-.76,0-1.15h2.13c0,2.66.06,5.41,0,8.14ZM37.47,28.9c0,.38,0,.76,0,1.14,0,2.28-.06,4.64,0,7,.68,0,1.34,0,2,0,.08-2.73,0-5.47,0-8.12ZM112.32,37h-2.1v0c0-1.78,0-3.61,0-5.37,0-.89,0-1.81,0-2.71h0c.69,0,1.41,0,2.11,0h0c.06,2.57.09,5.34,0,8.11Zm-2.07,0h2c.12-2.77.09-5.52,0-8.09-.68,0-1.39,0-2.07,0,0,.9,0,1.82,0,2.7C110.23,33.39,110.23,35.21,110.25,37Z"/><path id="path14" class="cls-2" d="M199.38,28.05c4.75-5.35,11.12-9.68,18.39-10.43,2.74-.21,5.65-.51,8.21.72,5.8,3,12.68,1.69,18.6,4.24a12.93,12.93,0,0,1,4.65,3.4c-2.88,5-9.82,5.31-13.1,10-1.23,1.71-1.17,3.91-1,5.92a162.81,162.81,0,0,1-10.31,66.83c-4.38,12-12.83,22.26-23,29.84a87.67,87.67,0,0,1-40.48,16.34c-1.38.12-2.19,1.38-3,2.41-3.91,5.31-3.91,12.74-1.23,18.57,16.52.81,32.09,10.6,40.38,24.84a37.06,37.06,0,0,1,4.78,12.35,49.31,49.31,0,0,1-6.67,35.85c-8.45,12.92-23.8,20.58-39.09,20.64-3.85.06-7.76.06-11.45-1.08-14.94-4.14-28.1-15.32-33.3-30.11-4.8-14.12-2.22-30.43,6.25-42.69a45.55,45.55,0,0,1,20.17-15.93c1.11-6.67-3.49-12.77-2.38-19.44.3-2.13,1.78-3.79,3-5.44-4.24-2.13-9.11-.69-13.55-1.83-19.45,19-36.69,40.11-54.45,60.7-3.82,5.61-7.48,11.44-9.65,17.93-3.3-7.09-.87-15-.3-22.38-5.8-.75-11.45,1.23-17.18,1.5,1.89-1.77,4.08-3.21,6.07-4.9,18.62-15.35,33.17-34.79,49.09-52.76,1.84-2,3.58-4,5.29-6.13q35.52-42.73,71.07-85.49c2.31-2.79,4.71-5.53,6.91-8.38,5.74-8.38,10.42-17.55,17.3-25.09M204,26.61c-15.86,15.92-24.82,37.38-41,53A7.35,7.35,0,0,0,160.26,83c-2,6.25-3.12,12.89-6.55,18.63,5.11,2.1,10.76,1.08,15.9-.33,6.07-1.72,12-5.14,15.14-10.79a39.26,39.26,0,0,0,8.95,1,35.81,35.81,0,0,0,24-10.52c.24.3.48.57.75.88a19,19,0,0,1-7.3,6.58c-.78.36-1.8.66-1.95,1.65a58.29,58.29,0,0,1-12.47,23.29c-12,13.67-29.27,21.54-46.79,25.39-1.38.39-2.94.36-4.14,1.2-5.23,4.87-11,9.73-18.21,11.15a105.1,105.1,0,0,0,31.55,1.62,80.63,80.63,0,0,0,35-11.33,65.91,65.91,0,0,0,22-20.67,89,89,0,0,0,11.57-26.29c4.75-17.52,5.68-35.76,5.86-53.82a28.88,28.88,0,0,1-12.26,16.14,14.58,14.58,0,0,1-10.49.78,9.62,9.62,0,0,1-6.94-9c-.24-4.17-1.26-9.13,1.77-12.59,1.33-1.77,3.7-1.89,5.53-2.85,1.29-.84.72-2.71,1.53-3.88,1.33-1.89,3.64-2.67,5.8-3.24,3.1-1.06,6.49.12,9.2,1.71,3,1.92,3.12,6.64.57,9-2.25,2.2-5.62,2.62-8.62,2.38a7.94,7.94,0,0,1-5.68-2.41c-.69-.72-1.33-1.86-2.5-1.53-2.79.48-5.47,2.89-5.59,5.83-.48,4.18-.33,8.71,1.84,12.44a10,10,0,0,0,8.77,2.79,18.1,18.1,0,0,0,10.79-7.87c1.95-3.09,3.93-6.31,4.72-9.91a21.8,21.8,0,0,0-2.65-16.29c-1.05-1.71-3.18-2.25-5-2.76C216.9,18,209,21.14,204,26.61m28.25-4.48c.36,1.68.81,3.34,1.26,5,3.3-.78,6.64-1.47,9.88-2.47a30.3,30.3,0,0,0-11.14-2.52m2.13,7.54a33.91,33.91,0,0,0,1.2,4.12c2.59-3.34,6.88-4.24,10-6.85-3.85.09-7.88.63-11.18,2.73M220,27.84c-2.29.48-4.72,1.38-6.16,3.3-.18,2,.84,4.45,2.91,5.2a12.46,12.46,0,0,0,7,.42,14.71,14.71,0,0,0,4.09-2.82c.93-1.83-.48-4.3-2.37-4.87s-3.61-1.41-5.5-1.23M153.41,90.55c-20.58,24.67-41,49.46-61.81,74a41.42,41.42,0,0,0-3.42,4.17,73.38,73.38,0,0,0,7.57-3.93c5.44-3.22,10.79-7.3,13.61-13.1-.36-.36-.69-.72-1-1.06,4.75-5.37,9.73-10.54,14.42-15.95,9.41-10.76,20.13-20.49,27.65-32.75a59.6,59.6,0,0,0,6.91-15.87c-1.39,1.38-2.59,3-3.88,4.48m48.2,1.59c-1.14.6-1.35,2-1.81,3.07-3.48,9.55-10.69,17.39-19.2,22.83-9.16,5.89-19.62,9.47-30.25,11.6-6.49,1.8-13.2-1.95-19.69.06a9.06,9.06,0,0,0-5.73,6.07c6.7.57,13.34,2.53,20.1,1.62,14.78-2.13,29.26-7.57,41-16.88,9.47-7.46,17-17.67,20.28-29.39a14.11,14.11,0,0,0-4.74,1m-21.79,6.49c-7.6,6.19-18.21,7.87-27.55,5.2-2.53,2.85-5,5.74-7.39,8.74,1.14,1.57,3.18,1.51,4.89,1.81,1.48.18,2.86.78,4.33.72,14.33-1.23,28.52-9,35.7-21.67a39.43,39.43,0,0,0-4.18-.78,34.55,34.55,0,0,1-5.8,6m12.68-4.48c-2.37,1.81-2.94,5-5.2,6.86a91.62,91.62,0,0,1-13.64,10.42c-6,3.58-12.8,6.34-19.92,6.1a26.91,26.91,0,0,1-10.82-2.22q-5,5.58-9.76,11.39c8,1.35,16.31,1.71,24.16-.45,9.13-3.46,18.33-7.22,26.2-13.1,6.73-5,12.29-12,14.39-20.17a6.53,6.53,0,0,0-5.41,1.17m-69.32,43.33c-3.66,4-7.39,7.85-10.91,12,10.85,1.66,22.81-1.56,30.41-9.76a67.63,67.63,0,0,1-19.5-2.2M111,152.69c-2.1,2.25-3,5.5-5.44,7.48-.6.54-1.35,1-1.41,1.92a12.55,12.55,0,0,0,1.53,8.57c5.53-6.34,11.27-12.53,17.22-18.51-1.71,0-3.39.15-5.08.21-1.53.12-2.76-1.11-4.29-1a3.85,3.85,0,0,0-2.53,1.35m29.78,3.06a9.73,9.73,0,0,0-2.94,7.55c.18,5.13,2.49,9.94,2.49,15.11a30.25,30.25,0,0,0,3.27-.72c-.81-3.64-2.88-7-3-10.79,0-4.33,2.88-7.84,4.27-11.78-1.36,0-3-.48-4.12.63m11.42-.36c-1.2,2.2-.6,5.05-2.38,7a3.24,3.24,0,0,0-.81,2.41c-.36,8.5,5.95,15.59,5.86,24.07a4.29,4.29,0,0,1-1.17,2.91c-3.21,3.79-9.31,3.52-12,7.87,3.88-2,7.66-4.47,12.08-5.17,1.68-.21,3.07,1.09,4.12,2.26,2.76,3.3,3.09,7.81,5.14,11.48.72-3.1-1.15-6.07-.7-9.2,3-1.05,5,1.68,7.64,2.53-2.68-3.37-7-4.69-10-7.67,2.07-3.15,6.25-2.34,9.47-2.49-3.7-.75-7.52-.69-11.27-1.35-.78-8.54-5.95-16.23-5.44-24.94.12-3.7,2-6.91,4.39-9.65-1.63-.09-3.28-.06-4.9,0m-4.66.51a72.27,72.27,0,0,0-3.94,7.43c-1.32,4.65.82,9.34,2.77,13.52a7.77,7.77,0,0,0,2.82-.9,13.19,13.19,0,0,1-2.43-5.95c-.69-4.84,1.08-9.47,1.89-14.16-.36,0-.75,0-1.11.06m-47.35,9.74a166.76,166.76,0,0,1-36.42,41.68c-1,.81-.9,2.28-1.14,3.42-.7,4.81-2.26,9.74-.94,14.54,1.45-2.25,2.65-4.65,4.15-6.88,10.73-16.91,25.33-30.8,38-46.15a21.8,21.8,0,0,1-2.46-8.38c-.39.57-.81,1.14-1.2,1.77M86.55,171.8c-1.47.21-2.43,1.35-3.33,2.4-10.76,11.72-20.73,24.4-33.53,34,3.36-1.12,7-.18,10.39-1,1.59-.34,2.77-1.6,4-2.62,12.83-11,24.25-23.74,32.87-38.31-3.24,2.19-6.46,4.66-10.37,5.5m71.4,6.28c.33,3.3,1,6.55,1.56,9.82,4.36.55,8.77.61,13.13,1.36a12.31,12.31,0,0,1,4.09,1.86c.66.3.6,1.08.69,1.68-4.42,1.29-9,.12-13.52,1,2.37,2.14,5.17,3.73,7.42,6,2.19,2.11,4.09,4.93,3.91,8.12-3.94-1.45-6.07-5.86-10.37-6.64A12.79,12.79,0,0,1,162.12,214c-1.23-3.25-2-6.61-3.15-9.92-.81-2.46-1.23-5.41-3.52-7-1.65-1.2-3.63-.12-5.28.51-4.18,1.68-7.67,4.81-12,6.07a8,8,0,0,1,2-5.89c3.18-3.25,8.05-3.88,11.39-6.94,1.17-1.11,1-2.92,1.08-4.39-.12-2.76-.72-5.83-2.89-7.72a12.56,12.56,0,0,0-3.93.66,47,47,0,0,0-18,8.74,45.81,45.81,0,0,0-16.59,37.71c.87,19.15,16,36.66,34.77,40.48,14.18,3.12,30.44.18,40.92-10.37C198.57,244.63,204,227,199.5,211.22c-3.66-12.05-12-22.83-23.34-28.57A43.54,43.54,0,0,0,158,178.08Z"/><path class="cls-2" d="M154.32,269.61a31.39,31.39,0,0,1-9.33-1.1,51.53,51.53,0,0,1-20.3-11.07,48.6,48.6,0,0,1-7.7-8.69,43.93,43.93,0,0,1-5.3-10.36,47.24,47.24,0,0,1-1.86-22,49.37,49.37,0,0,1,8.11-20.66,42.71,42.71,0,0,1,8.93-9.41,48,48,0,0,1,11.23-6.52c.56-3.33-.33-6.57-1.18-9.71s-1.75-6.38-1.19-9.72a10.51,10.51,0,0,1,2.58-4.85l.45-.58c-2.46-1.23-5.17-1.27-7.79-1.3a24,24,0,0,1-5.74-.53C109.54,168.42,95,185.39,81,201.81c-3.34,3.92-6.81,8-10.23,11.94-3.48,5.13-7.39,11.17-9.64,17.94v0l0,0c-2.51-5.38-1.71-11.27-.93-17,.24-1.79.49-3.64.63-5.42a36.68,36.68,0,0,0-10.57.68,55.86,55.86,0,0,1-6.6.82h0l0,0c1.1-1,2.32-2,3.51-2.88.85-.64,1.73-1.32,2.56-2,13.81-11.38,25.57-25.24,36.93-38.63,4-4.67,8-9.49,12.16-14.13,1.68-1.82,3.41-3.82,5.29-6.13l25.2-30.3c15-18.08,30.58-36.78,45.86-55.19.72-.87,1.46-1.74,2.18-2.59,1.59-1.88,3.22-3.82,4.73-5.79,1.87-2.72,3.65-5.57,5.37-8.32C191,39.07,194.72,33.14,199.37,28h0a35.46,35.46,0,0,1,8.25-6.94,24.77,24.77,0,0,1,10.15-3.49l.4,0c2.64-.21,5.38-.42,7.81.75,3.05,1.57,6.46,2,9.75,2.33a31.07,31.07,0,0,1,8.85,1.91,13,13,0,0,1,4.66,3.4h0c-1.51,2.64-4.17,4-6.74,5.31-2.36,1.21-4.8,2.46-6.37,4.7-1.19,1.66-1.17,3.74-1,5.91a170.59,170.59,0,0,1-1.64,34,155.7,155.7,0,0,1-8.66,32.86,60.49,60.49,0,0,1-9.34,16.59,72,72,0,0,1-13.71,13.26,86.52,86.52,0,0,1-19.21,10.73,88.64,88.64,0,0,1-21.28,5.62c-1.24.1-2,1.16-2.74,2.1l-.22.29c-3.64,5-4.13,12.24-1.23,18.55A47.48,47.48,0,0,1,171,178.72a47.55,47.55,0,0,0-13.94-2.82h0a20.34,20.34,0,0,1-1.48-4.61,20.08,20.08,0,0,1-.37-4.87,16.56,16.56,0,0,1,3.09-9.1l.22-.3c.71-.94,1.51-2,2.76-2.11a87.47,87.47,0,0,0,40.47-16.35c10.9-8.07,18.87-18.39,23-29.83A163.54,163.54,0,0,0,235.07,41.9c-.13-2.17-.15-4.26,1.05-5.93,1.57-2.24,4-3.49,6.38-4.7,2.56-1.31,5.21-2.67,6.72-5.29a13.14,13.14,0,0,0-4.65-3.39,30.91,30.91,0,0,0-8.84-1.9c-3.3-.38-6.71-.77-9.76-2.33-2.43-1.17-5.16-1-7.8-.75l-.4,0c-6.48.67-13,4.37-18.38,10.42h0c-4.64,5.09-8.35,11-11.94,16.76-1.72,2.76-3.5,5.61-5.36,8.33-1.51,2-3.15,3.91-4.74,5.79-.71.84-1.45,1.72-2.17,2.59-15.29,18.41-30.83,37.1-45.87,55.19L104.11,147c-1.88,2.31-3.61,4.31-5.29,6.13-4.11,4.64-8.2,9.46-12.16,14.12C81,174,75.11,180.89,69,187.43a198.7,198.7,0,0,1-19.32,18.48c-.82.71-1.7,1.38-2.55,2a44.76,44.76,0,0,0-3.49,2.85,59.85,59.85,0,0,0,6.57-.82,36.4,36.4,0,0,1,10.58-.69h0c-.14,1.79-.39,3.64-.64,5.43-.77,5.68-1.57,11.55.92,16.92,2.26-6.76,6.16-12.79,9.64-17.91,3.42-4,6.88-8,10.23-12,14-16.42,28.52-33.4,44.22-48.75h0a24.55,24.55,0,0,0,5.74.52c2.63,0,5.35.07,7.81,1.31h0l-.46.59a10.51,10.51,0,0,0-2.57,4.84c-.56,3.33.33,6.58,1.18,9.72s1.75,6.39,1.19,9.72h0A45.77,45.77,0,0,0,118,195.69c-8.59,12.43-11,28.79-6.25,42.69,5,14.26,17.76,25.79,33.28,30.1,3.59,1.11,7.31,1.14,11.45,1.08a48.27,48.27,0,0,0,13.1-1.87,47.92,47.92,0,0,1-13.1,1.9Zm2.52-2.12A50.29,50.29,0,0,1,146,266.31a40.72,40.72,0,0,1-11.49-4.23A41.68,41.68,0,0,0,146,266.29a51.52,51.52,0,0,0,11,1.2c11.63,0,22.52-4.09,30-11.57a46.47,46.47,0,0,0,7.19-8.89,45.93,45.93,0,0,1-7.17,8.91,36.07,36.07,0,0,1-8.82,6.51,42,42,0,0,1-10.26,3.81,48.37,48.37,0,0,1-10.95,1.23Zm28-7.31a44.16,44.16,0,0,0,10.68-11.26,49.1,49.1,0,0,0,6.66-35.83,36.66,36.66,0,0,0-4.77-12.35,50.48,50.48,0,0,0-8.2-10.53,49.28,49.28,0,0,1,8.22,10.52,36.69,36.69,0,0,1,4.78,12.35,48.67,48.67,0,0,1,.92,9.28,49.84,49.84,0,0,1-.82,9.29,49,49,0,0,1-2.54,9,46.37,46.37,0,0,1-4.23,8.31A43.89,43.89,0,0,1,184.85,260.18Zm-71.11-22a40.44,40.44,0,0,1-2.56-12.33,45.84,45.84,0,0,1,16.59-37.73,45.24,45.24,0,0,1,8.53-5.34,48.92,48.92,0,0,1,9.47-3.4l.88-.23a8.85,8.85,0,0,1,3.07-.43h0c1.79,1.56,2.73,4.09,2.89,7.73,0,.21,0,.42,0,.64,0,1.31-.06,2.8-1.07,3.76a21.39,21.39,0,0,1-5.52,3.3,19.12,19.12,0,0,0-5.87,3.64,7.93,7.93,0,0,0-2,5.86,29.55,29.55,0,0,0,6.83-3.31,36.85,36.85,0,0,1,5.2-2.75l.65-.26c1.5-.61,3.2-1.31,4.65-.25,1.86,1.27,2.48,3.44,3.09,5.54.14.47.28,1,.43,1.44.46,1.35.87,2.74,1.27,4.09.57,1.91,1.16,3.9,1.88,5.8a12.78,12.78,0,0,0,2.72-12.65v0h0c2.36.43,4.1,2,5.78,3.48a15.15,15.15,0,0,0,4.57,3.16c.19-3.41-2-6.28-3.9-8.09a36,36,0,0,0-4.14-3.41c-1.1-.81-2.24-1.66-3.28-2.6h0a30.38,30.38,0,0,1,6.16-.35,25,25,0,0,0,7.35-.64l0-.32c-.06-.54-.11-1.09-.65-1.34a12.4,12.4,0,0,0-4.08-1.86c-2.57-.44-5.2-.65-7.74-.85-1.77-.14-3.6-.28-5.39-.5h0c-.16-1-.34-1.95-.51-2.9-.4-2.26-.82-4.6-1.06-6.93v0h0a43.71,43.71,0,0,1,18.21,4.57,43.07,43.07,0,0,1,7.92,5.2,46.4,46.4,0,0,1,6.63,6.73,49.31,49.31,0,0,1,5.2,7.91,50.07,50.07,0,0,1,3.61,8.75,42.22,42.22,0,0,1,1.29,16.56,42.23,42.23,0,0,0-1.32-16.55c-3.83-12.58-12.33-23-23.34-28.57A43.66,43.66,0,0,0,158,178.09c.24,2.33.65,4.66,1.06,6.91.17.95.34,1.93.5,2.89,1.79.22,3.62.37,5.38.5,2.55.2,5.18.41,7.74.85a12.52,12.52,0,0,1,4.1,1.87c.54.25.6.83.65,1.35,0,.12,0,.23,0,.34h0a25.16,25.16,0,0,1-7.37.64,30.67,30.67,0,0,0-6.12.34c1,.93,2.16,1.77,3.26,2.58a36,36,0,0,1,4.14,3.41c1.89,1.82,4.1,4.7,3.91,8.13v0h0a14.84,14.84,0,0,1-4.6-3.17c-1.67-1.49-3.4-3-5.74-3.47a13.65,13.65,0,0,1,.35,6.71,11.81,11.81,0,0,1-3.1,6h0v0c-.72-1.91-1.31-3.9-1.89-5.82-.39-1.35-.81-2.74-1.26-4.1-.16-.46-.3-1-.44-1.44-.6-2.09-1.23-4.26-3.07-5.52-1.44-1-3.13-.35-4.63.25-.22.1-.44.18-.65.26a39,39,0,0,0-5.2,2.75,29.53,29.53,0,0,1-6.85,3.32h0v0a9.71,9.71,0,0,1,.41-3.16,6.71,6.71,0,0,1,1.61-2.74A19.27,19.27,0,0,1,146,194.1a20.76,20.76,0,0,0,5.52-3.29c1-.95,1-2.44,1.06-3.74,0-.22,0-.43,0-.64-.16-3.63-1.1-6.15-2.88-7.71a9,9,0,0,0-3.05.44c-.29.08-.59.16-.88.22a47.14,47.14,0,0,0-18,8.75,45.77,45.77,0,0,0-16.58,37.69A40.73,40.73,0,0,0,113.74,238.16ZM61.67,225.32v0c-1-3.71-.32-7.54.37-11.24.2-1.08.4-2.21.56-3.31a8.3,8.3,0,0,0,.13-.91,3.45,3.45,0,0,1,1-2.53,165.48,165.48,0,0,0,36.41-41.67c.28-.44.57-.86.85-1.27l.36-.5,0,0v0a21.85,21.85,0,0,0,2.46,8.38h0c-4.18,5.06-8.64,10-13,14.86C82.1,196.93,73,207.07,65.83,218.41c-.83,1.23-1.58,2.53-2.3,3.8-.59,1-1.2,2.07-1.84,3.08Zm38.5-59.68h0A171.77,171.77,0,0,1,83.71,188a163,163,0,0,1-19.95,19.32,3.35,3.35,0,0,0-1,2.5,8,8,0,0,1-.13.91c-.16,1.1-.37,2.23-.57,3.32-.68,3.68-1.38,7.49-.37,11.19.64-1,1.24-2.05,1.82-3.06.73-1.26,1.48-2.57,2.31-3.79a160.82,160.82,0,0,1,11.88-16.16c4.24-5.16,8.78-10.23,13.17-15.14s8.78-9.79,13-14.85a21.7,21.7,0,0,1-2.45-8.34l-.33.47c-.29.4-.58.82-.85,1.27ZM163,208.23l0,0a28,28,0,0,1-1.94-4.83,19.89,19.89,0,0,0-3.19-6.64c-1-1.14-2.25-2.27-3.74-2.27a2.36,2.36,0,0,0-.37,0c-3.57.56-6.76,2.3-9.86,4l-2.21,1.19,0,0,0,0c1.43-2.34,3.9-3.37,6.28-4.36,2.07-.87,4.22-1.76,5.71-3.52a4.25,4.25,0,0,0,1.17-2.9c0-4.15-1.47-8-2.94-11.79-1.53-3.9-3.1-7.94-2.92-12.28a3.3,3.3,0,0,1,.81-2.42,7.11,7.11,0,0,0,1.49-3.89,9.68,9.68,0,0,1,.89-3.07h0c1.61,0,3.27-.06,4.9,0h0l0,0c-2.85,3.32-4.28,6.47-4.39,9.64-.28,4.9,1.26,9.57,2.75,14.08A49.65,49.65,0,0,1,158.14,190c1.76.3,3.56.46,5.3.61a50.52,50.52,0,0,1,6,.74v0c-.63,0-1.28,0-2,0h-.9c-2.49,0-5.1.22-6.59,2.47a25.18,25.18,0,0,0,4.54,3.3,20.44,20.44,0,0,1,5.49,4.36l0,0h0a12,12,0,0,1-2.49-1.28c-1.61-1-3.14-1.94-5.12-1.25a12.7,12.7,0,0,0,.39,4.35,11,11,0,0,1,.3,4.84Zm-8.89-13.81c1.5,0,2.73,1.14,3.76,2.28a19.75,19.75,0,0,1,3.19,6.65,28.83,28.83,0,0,0,1.93,4.8,11.06,11.06,0,0,0-.3-4.79,12.6,12.6,0,0,1-.4-4.37h0a4.06,4.06,0,0,1,2.73,0,11.94,11.94,0,0,1,2.43,1.26,12.27,12.27,0,0,0,2.44,1.26,20.59,20.59,0,0,0-5.45-4.31,25.43,25.43,0,0,1-4.56-3.32h0a5.14,5.14,0,0,1,3.34-2.21,17.51,17.51,0,0,1,4.18-.28c.64,0,1.25,0,1.84,0a55.74,55.74,0,0,0-5.84-.72c-1.75-.14-3.55-.3-5.31-.61h0a49.09,49.09,0,0,0-2.69-10.85c-1.49-4.52-3-9.18-2.74-14.09.1-3.17,1.53-6.32,4.37-9.63-1.62-.09-3.27-.06-4.86,0a9.6,9.6,0,0,0-.88,3.06,7.22,7.22,0,0,1-1.49,3.9,3.17,3.17,0,0,0-.81,2.4c-.19,4.33,1.39,8.37,2.92,12.27s3,7.64,2.94,11.8a4.33,4.33,0,0,1-1.18,2.92c-1.5,1.76-3.64,2.66-5.72,3.53-2.36,1-4.81,2-6.24,4.3.73-.38,1.46-.78,2.17-1.17,3.09-1.68,6.29-3.42,9.87-4ZM49.69,208.2v0c9.89-7.41,18.23-16.82,26.29-25.91,2.36-2.66,4.8-5.42,7.24-8.08l0,0c.91-1.06,1.85-2.16,3.31-2.37,3.43-.73,6.35-2.74,9.18-4.68l1.18-.81,0,0c-8.11,13.71-19.17,26.6-32.87,38.31-.21.17-.41.36-.61.54a7.68,7.68,0,0,1-3.37,2.08,21.14,21.14,0,0,1-4.76.36A17.9,17.9,0,0,0,49.69,208.2Zm47.19-41.85-1.14.77c-2.83,1.94-5.75,3.95-9.18,4.69h0c-1.45.21-2.39,1.3-3.3,2.36l0,0c-2.44,2.66-4.88,5.41-7.24,8.08-4,4.54-8.19,9.24-12.51,13.64a122.05,122.05,0,0,1-13.72,12.22,18.07,18.07,0,0,1,5.56-.58,21.18,21.18,0,0,0,4.76-.36,7.65,7.65,0,0,0,3.35-2.07c.2-.18.4-.37.61-.54C77.72,192.91,88.77,180,96.88,166.35Zm43.42,12.08v0a33.5,33.5,0,0,0-1.26-7.87,37.42,37.42,0,0,1-1.24-7.24,9.77,9.77,0,0,1,2.95-7.56h0c.82-.84,2-.76,3.08-.68.37,0,.71.05,1,.05h0v0a33.14,33.14,0,0,1-1.77,3.94c-1.23,2.45-2.5,5-2.5,7.83a21,21,0,0,0,1.65,6.62,33.17,33.17,0,0,1,1.33,4.17h0a28,28,0,0,1-3.28.72Zm.46-22.68h0a9.75,9.75,0,0,0-2.94,7.53,36.42,36.42,0,0,0,1.24,7.24,33.49,33.49,0,0,1,1.25,7.86,29.56,29.56,0,0,0,3.25-.71,33.4,33.4,0,0,0-1.33-4.15,20.69,20.69,0,0,1-1.64-6.63c0-2.85,1.27-5.39,2.49-7.84a35.34,35.34,0,0,0,1.77-3.92c-.33,0-.67,0-1,0-1.11-.08-2.25-.16-3.06.67Zm5.58,21.11h0a40.28,40.28,0,0,1-2.61-6.58,12.8,12.8,0,0,1-.16-7,43,43,0,0,1,2.77-5.36c.39-.67.79-1.37,1.17-2.06h0c.18,0,.37,0,.56,0l.55,0h0v0c-.23,1.31-.54,2.64-.83,3.92-.77,3.31-1.56,6.74-1.07,10.22a13.2,13.2,0,0,0,2.44,5.95h0a7.77,7.77,0,0,1-2.83.9Zm1.19-20.94c-.38.69-.78,1.38-1.17,2.05a43,43,0,0,0-2.76,5.36c-1.34,4.73.93,9.59,2.76,13.5a7.61,7.61,0,0,0,2.79-.89,13.19,13.19,0,0,1-2.42-5.94c-.5-3.49.29-6.92,1.06-10.24.29-1.27.6-2.6.83-3.9l-.54,0A5.07,5.07,0,0,0,147.53,155.92Zm-41.87,14.76v0a12.66,12.66,0,0,1-1.53-8.57,2.52,2.52,0,0,1,1.12-1.68l.29-.25a14.09,14.09,0,0,0,3.15-4.14,18.14,18.14,0,0,1,2.29-3.34h0a3.92,3.92,0,0,1,2.54-1.36,4.89,4.89,0,0,1,2.13.52,5.27,5.27,0,0,0,2,.51h.21c.63,0,1.27-.05,1.88-.09,1-.06,2.13-.12,3.2-.12h0l0,0c-5.78,5.81-11.57,12-17.22,18.51Zm8-19.33h-.16A3.86,3.86,0,0,0,111,152.7h0a18,18,0,0,0-2.28,3.33,14.34,14.34,0,0,1-3.16,4.15,3.47,3.47,0,0,1-.29.25,2.49,2.49,0,0,0-1.11,1.66,12.63,12.63,0,0,0,1.52,8.54c5.63-6.46,11.41-12.67,17.18-18.47-1.07,0-2.13.06-3.16.12l-1.89.09a4.81,4.81,0,0,1-2.17-.51A5.37,5.37,0,0,0,113.67,151.35ZM88.14,168.76l0,0a30.78,30.78,0,0,1,2.67-3.32l.76-.86c14.42-17.05,28.93-34.5,43-51.38,6.17-7.42,12.55-15.09,18.84-22.63h0c.41-.48.82-1,1.21-1.45.85-1,1.72-2.08,2.67-3l0,0v0a59,59,0,0,1-6.91,15.86c-5.34,8.71-12.41,16.26-19.24,23.57-2.79,3-5.68,6.07-8.41,9.19-2.56,3-5.25,5.88-7.86,8.72-2.16,2.35-4.4,4.79-6.55,7.22l.68.68.36.37h0a24.77,24.77,0,0,1-5.83,7.53,47.07,47.07,0,0,1-7.78,5.58l-1.46.82a55.81,55.81,0,0,1-6.12,3.12Zm65.28-78.2h0c-6.29,7.53-12.67,15.21-18.84,22.63-14,16.88-28.55,34.33-43,51.38l-.76.86a33.38,33.38,0,0,0-2.64,3.27,53.26,53.26,0,0,0,6.07-3.1l1.46-.81c4.36-2.58,10.5-6.74,13.6-13.09l-.35-.36c-.23-.24-.45-.47-.69-.68h0c2.15-2.45,4.4-4.89,6.56-7.24,2.61-2.84,5.3-5.77,7.86-8.72,2.73-3.12,5.62-6.21,8.41-9.19,6.83-7.3,13.9-14.86,19.23-23.56a59.1,59.1,0,0,0,6.9-15.81c-.93.93-1.79,2-2.63,3C154.24,89.59,153.83,90.08,153.42,90.56Zm-4.68,62.76a106.65,106.65,0,0,1-21.17-2.15v0c7.28-1.42,13.21-6.5,18.2-11.14a6.69,6.69,0,0,1,2.76-.92,13.19,13.19,0,0,0,1.39-.29c13.85-3,33.21-9.91,46.78-25.38a58.31,58.31,0,0,0,12.47-23.29c.13-.86.93-1.21,1.63-1.51l.33-.15c2.59-1.17,4.9-3.25,7.29-6.56-.26-.29-.5-.56-.74-.86a38.85,38.85,0,0,1-5.16,4.25,37.37,37.37,0,0,1-5.84,3.28,33.14,33.14,0,0,1-13,3,38.48,38.48,0,0,1-8.94-1,20.33,20.33,0,0,1-6.48,6.87,30,30,0,0,1-8.67,3.92c-5,1.36-10.72,2.47-15.9.33h0c2.42-4.06,3.69-8.65,4.92-13.08.51-1.83,1-3.72,1.63-5.55a7.07,7.07,0,0,1,2.51-3.31l.14-.12c8.32-8,14.85-17.71,21.15-27.1,3-4.46,6.08-9.06,9.33-13.43A113.34,113.34,0,0,1,203.94,26.6h0a24.1,24.1,0,0,1,9.31-6.19,20.78,20.78,0,0,1,11.08-1l.22.07c1.76.49,3.76,1.06,4.77,2.7a22.06,22.06,0,0,1,2.93,7.89,21.59,21.59,0,0,1-.28,8.41,21.18,21.18,0,0,1-1.92,5.15c-.82,1.61-1.75,3.11-2.8,4.77a18.08,18.08,0,0,1-10.8,7.88,11.16,11.16,0,0,1-4.74-.34,8.76,8.76,0,0,1-4-2.46c-1.84-3.16-2.44-7.24-1.84-12.45a5.82,5.82,0,0,1,1.8-3.85,7.27,7.27,0,0,1,3.8-2c1-.27,1.55.42,2.12,1.09a5.79,5.79,0,0,0,.39.44,7.85,7.85,0,0,0,5.67,2.4c2.6.21,6.21,0,8.61-2.37A5.9,5.9,0,0,0,230,31.89a5.32,5.32,0,0,0-2.35-4.1c-2.37-1.4-5.89-2.83-9.18-1.71-2.25.59-4.51,1.4-5.79,3.24a4,4,0,0,0-.54,1.73,2.77,2.77,0,0,1-1,2.15,12.53,12.53,0,0,1-2,.78,6.7,6.7,0,0,0-3.54,2.07c-2.57,2.92-2.23,7-1.92,10.6.05.69.11,1.34.14,2a9.6,9.6,0,0,0,6.94,8.94,14.45,14.45,0,0,0,10.47-.78A28.93,28.93,0,0,0,233.5,40.67h0c-.11,11-.48,19.34-1.21,27.11a158.25,158.25,0,0,1-4.65,26.71A103.49,103.49,0,0,1,223,108.11a78.39,78.39,0,0,1-6.86,12.68,65.87,65.87,0,0,1-22,20.67,74,74,0,0,1-16.82,7.68,87.91,87.91,0,0,1-18.16,3.65A99.52,99.52,0,0,1,148.74,153.32Zm-21.1-2.16a106.75,106.75,0,0,0,21.1,2.13,99.66,99.66,0,0,0,10.38-.53,80.86,80.86,0,0,0,35-11.32,65.94,65.94,0,0,0,22-20.67,89.06,89.06,0,0,0,11.57-26.29c4.84-17.88,5.68-36.38,5.85-53.71a29.92,29.92,0,0,1-4.65,9.1,27.17,27.17,0,0,1-7.58,7,14.58,14.58,0,0,1-10.5.78,9.59,9.59,0,0,1-4.94-3.36,9.14,9.14,0,0,1-2-5.61c0-.64-.09-1.29-.15-2a29.18,29.18,0,0,1-.12-5.6,8.75,8.75,0,0,1,2-5A6.79,6.79,0,0,1,209.15,34a14.81,14.81,0,0,0,2-.78,2.79,2.79,0,0,0,1-2.14,4.12,4.12,0,0,1,.53-1.74c1.3-1.85,3.56-2.65,5.81-3.25,3.3-1.12,6.83.32,9.21,1.72A5.35,5.35,0,0,1,230,31.88a6,6,0,0,1-1.79,4.89c-2.41,2.35-6,2.59-8.64,2.38a7.88,7.88,0,0,1-5.68-2.41,5.79,5.79,0,0,1-.39-.44c-.57-.66-1.15-1.35-2.09-1.09-2.65.46-5.46,2.76-5.58,5.82-.6,5.21,0,9.28,1.83,12.43a10,10,0,0,0,8.76,2.79,18.08,18.08,0,0,0,10.78-7.87c1.83-2.9,3.91-6.19,4.71-9.91A21.69,21.69,0,0,0,229.3,22.2c-1-1.64-3-2.2-4.76-2.7l-.22-.06c-7-1.37-15,1.45-20.36,7.18h0c-7.72,7.75-13.9,17-19.88,25.86-3.16,4.7-6.42,9.55-9.87,14.14a107,107,0,0,1-11.29,13l-.14.12a7.11,7.11,0,0,0-2.51,3.3c-.59,1.83-1.12,3.72-1.62,5.54-1.23,4.44-2.5,9-4.92,13.08,5.18,2.12,10.93,1,15.87-.34,7-2,12.36-5.79,15.14-10.78h0a42.61,42.61,0,0,0,8.26,1h.69a35.89,35.89,0,0,0,24-10.52h0v0l.75.87h0c-2.39,3.32-4.71,5.42-7.31,6.59l-.32.14c-.7.3-1.5.65-1.63,1.5a58.31,58.31,0,0,1-12.47,23.29,72.42,72.42,0,0,1-21.32,16.39,103.63,103.63,0,0,1-25.47,9,13.19,13.19,0,0,1-1.39.29,6.58,6.58,0,0,0-2.75.91,68.44,68.44,0,0,1-8.36,6.87A27.15,27.15,0,0,1,127.64,151.16Zm-9.77-1.28a37.4,37.4,0,0,1-5.6-.42h0v0c2.64-3.09,5.45-6.1,8.17-9l2.74-3h0c5.3,1.25,12.31,2.62,19.49,2.19h0l0,0a29.75,29.75,0,0,1-6.43,5.22,33.91,33.91,0,0,1-7.56,3.36A37,37,0,0,1,117.87,149.88Zm-5.57-.45c11.52,1.75,23.14-2,30.35-9.74-7.17.42-14.17-.95-19.46-2.19-.91,1-1.84,2-2.74,2.95C117.74,143.35,114.94,146.35,112.3,149.43Zm29.05-11.79a66.16,66.16,0,0,1-9.88-1c-2.14-.33-4.36-.67-6.55-.85h0a10.59,10.59,0,0,1,2.14-3.75,7.75,7.75,0,0,1,3.61-2.33c3.31-1,6.73-.55,10-.09s6.47.91,9.65,0c11.78-2.36,22-6.27,30.26-11.6,9.14-5.84,16-14,19.19-22.83.1-.24.19-.49.28-.75a3.68,3.68,0,0,1,1.53-2.32h0a11,11,0,0,1,3.86-.92l.89-.1h0v0a52.91,52.91,0,0,1-7.81,16.3,62.34,62.34,0,0,1-12.48,13.1C175,129.29,160.79,135.13,145,137.41A28.52,28.52,0,0,1,141.35,137.64Zm-16.41-1.88c2.19.19,4.4.52,6.53.85,4.43.68,9,1.38,13.56.77,15.75-2.27,29.94-8.11,41-16.88,10-7.88,17.21-18.31,20.28-29.36l-.88.1a11,11,0,0,0-3.85.91h0a3.67,3.67,0,0,0-1.51,2.31c-.09.25-.18.51-.28.75a42.07,42.07,0,0,1-7.72,13,52.14,52.14,0,0,1-11.49,9.87A75.87,75.87,0,0,1,166,125.26a103.9,103.9,0,0,1-15.68,4.4c-3.19.88-6.48.42-9.66,0s-6.72-.94-10,.09A9,9,0,0,0,124.94,135.76Zm20.2-8a71.44,71.44,0,0,1-12-1.09h0l0,0c3.18-3.87,6.46-7.7,9.76-11.39h0a26.69,26.69,0,0,0,10.81,2.22h.87c5.9,0,12.14-2,19-6.11A93.81,93.81,0,0,0,187.3,101a11.87,11.87,0,0,0,2.48-3.33,11.08,11.08,0,0,1,2.71-3.53A6.61,6.61,0,0,1,197.91,93h0v0a32.87,32.87,0,0,1-5.47,11.29,42.25,42.25,0,0,1-8.93,8.88c-8,6-17.31,9.73-26.21,13.1A45.54,45.54,0,0,1,145.14,127.8Zm-12-1.11c9.37,1.59,17.27,1.44,24.13-.46,8.9-3.36,18.24-7.14,26.2-13.1C190.85,107.7,196,100.55,197.89,93a6.56,6.56,0,0,0-5.38,1.18h0a11,11,0,0,0-2.71,3.51,11.44,11.44,0,0,1-2.49,3.34,92.58,92.58,0,0,1-13.64,10.42c-6.91,4.11-13.15,6.12-19.06,6.12H153.1a27.33,27.33,0,0,1-10.17-2.23C139.63,119,136.36,122.83,133.18,126.69Zm20.72-11.57a10.28,10.28,0,0,1-2.42-.39,16.16,16.16,0,0,0-1.71-.34c-.32-.06-.66-.1-1-.14-1.47-.2-3-.39-3.91-1.67h0c2.51-3.18,5.14-6.21,7.39-8.75h0c9.66,2.76,20.21.77,27.54-5.2h0a35.13,35.13,0,0,0,5.8-6h0a39.17,39.17,0,0,1,4.18.78h0v0a39.18,39.18,0,0,1-6.59,8.58,44.38,44.38,0,0,1-8.58,6.56,49,49,0,0,1-20.54,6.53Zm-9-2.55c.93,1.26,2.43,1.46,3.89,1.65l1,.14a13.47,13.47,0,0,1,1.7.35,11,11,0,0,0,2.42.38h.2c15.2-1.3,28.86-9.59,35.68-21.64a39,39,0,0,0-4.15-.77,35.08,35.08,0,0,1-5.8,6,28.94,28.94,0,0,1-13.13,5.93,32.15,32.15,0,0,1-14.43-.72C150,106.38,147.4,109.4,144.89,112.57Zm75.93-75.48a11.24,11.24,0,0,1-4.1-.73,4.24,4.24,0,0,1-2.31-2.13,5.81,5.81,0,0,1-.62-3.09h0c1.2-1.61,3.22-2.69,6.16-3.31h0a9.83,9.83,0,0,1,4.09.78c.46.15.94.31,1.41.45a4,4,0,0,1,2.38,2.23,3.09,3.09,0,0,1,0,2.66h0a15,15,0,0,1-4.09,2.83h0A15.07,15.07,0,0,1,220.82,37.09Zm-7-5.94c-.17,1.94.79,4.41,2.91,5.18a12.44,12.44,0,0,0,7,.42,15,15,0,0,0,4.08-2.82,3,3,0,0,0,0-2.62,4,4,0,0,0-2.36-2.23c-.47-.13-1-.29-1.41-.45a10,10,0,0,0-4.08-.78C217,28.47,215,29.55,213.82,31.15Zm21.71,2.67v0a32.12,32.12,0,0,1-1.2-4.12h0a16.2,16.2,0,0,1,5.39-2.12,31.62,31.62,0,0,1,5.8-.62h0l0,0a23.4,23.4,0,0,1-4.25,2.65,16.7,16.7,0,0,0-5.73,4.2Zm-1.18-4.14a32,32,0,0,0,1.19,4.08,16.65,16.65,0,0,1,5.72-4.18A23.91,23.91,0,0,0,245.47,27C242.41,27,237.94,27.39,234.35,29.68Zm-.9-2.55h0c-.44-1.62-.9-3.3-1.26-5h0a30,30,0,0,1,11.15,2.52l0,0h0c-2.5.76-5.08,1.35-7.59,1.93l-2.3.53Zm-1.24-5c.36,1.67.82,3.34,1.26,5l2.29-.53c2.49-.57,5.06-1.16,7.54-1.92A30.11,30.11,0,0,0,232.21,22.15Z"/><path id="path16" class="cls-3" d="M204,26.61c5.08-5.47,13-8.63,20.37-7.18,1.81.51,3.94,1.05,5,2.76A21.8,21.8,0,0,1,232,38.48c-.79,3.6-2.77,6.82-4.72,9.91a18.1,18.1,0,0,1-10.79,7.87,10,10,0,0,1-8.77-2.79c-2.17-3.73-2.32-8.26-1.84-12.44.12-2.94,2.8-5.35,5.59-5.83,1.17-.33,1.81.81,2.5,1.53a7.94,7.94,0,0,0,5.68,2.41c3,.24,6.37-.18,8.62-2.38,2.55-2.34,2.43-7.06-.57-9-2.71-1.59-6.1-2.77-9.2-1.71-2.16.57-4.47,1.35-5.8,3.24-.81,1.17-.24,3-1.53,3.88-1.83,1-4.2,1.08-5.53,2.85-3,3.46-2,8.42-1.77,12.59a9.62,9.62,0,0,0,6.94,9,14.58,14.58,0,0,0,10.49-.78,28.88,28.88,0,0,0,12.26-16.14c-.18,18.06-1.11,36.3-5.86,53.82a89,89,0,0,1-11.57,26.29,65.91,65.91,0,0,1-22,20.67,80.63,80.63,0,0,1-35,11.33,105.1,105.1,0,0,1-31.55-1.62c7.21-1.42,13-6.28,18.21-11.15,1.2-.84,2.76-.81,4.14-1.2,17.52-3.85,34.8-11.72,46.79-25.39a58.29,58.29,0,0,0,12.47-23.29c.15-1,1.17-1.29,1.95-1.65a19,19,0,0,0,7.3-6.58c-.27-.31-.51-.58-.75-.88a35.81,35.81,0,0,1-24,10.52,39.26,39.26,0,0,1-8.95-1c-3.15,5.65-9.07,9.07-15.14,10.79-5.14,1.41-10.79,2.43-15.9.33,3.43-5.74,4.51-12.38,6.55-18.63a7.35,7.35,0,0,1,2.65-3.43c16.22-15.59,25.18-37,41-53Z"/><path class="cls-3" d="M148.74,153.32a106.65,106.65,0,0,1-21.17-2.15v0c7.28-1.42,13.21-6.5,18.2-11.14a6.53,6.53,0,0,1,2.76-.91c.46-.09.94-.17,1.39-.3,13.85-3,33.21-9.91,46.78-25.38a58.31,58.31,0,0,0,12.47-23.29c.13-.86.93-1.21,1.63-1.51l.33-.15c2.59-1.17,4.9-3.25,7.29-6.56-.25-.28-.5-.56-.74-.86a38.85,38.85,0,0,1-5.16,4.25,37.37,37.37,0,0,1-5.84,3.28,33.14,33.14,0,0,1-13,3,38.48,38.48,0,0,1-8.94-1,20.33,20.33,0,0,1-6.48,6.87,30,30,0,0,1-8.67,3.92c-5,1.36-10.72,2.47-15.9.33h0c2.42-4.06,3.69-8.65,4.92-13.08.51-1.83,1-3.72,1.63-5.55a7.07,7.07,0,0,1,2.51-3.31l.14-.12c8.32-8,14.85-17.71,21.15-27.1,3-4.46,6.08-9.06,9.33-13.43A113.34,113.34,0,0,1,203.94,26.6a24.1,24.1,0,0,1,9.31-6.19,20.78,20.78,0,0,1,11.08-1l.22.07c1.76.49,3.76,1.06,4.77,2.7a22.06,22.06,0,0,1,2.93,7.89,21.59,21.59,0,0,1-.28,8.41,21.18,21.18,0,0,1-1.92,5.15c-.82,1.61-1.75,3.11-2.8,4.77a18.08,18.08,0,0,1-10.8,7.88,11.16,11.16,0,0,1-4.74-.34,8.76,8.76,0,0,1-4-2.46c-1.84-3.16-2.44-7.24-1.84-12.45a5.82,5.82,0,0,1,1.8-3.85,7.27,7.27,0,0,1,3.8-2c1-.27,1.55.42,2.12,1.09a5.79,5.79,0,0,0,.39.44,7.85,7.85,0,0,0,5.67,2.4c2.6.21,6.21,0,8.61-2.37A5.9,5.9,0,0,0,230,31.89a5.32,5.32,0,0,0-2.35-4.1c-2.37-1.4-5.89-2.83-9.18-1.71-2.25.59-4.51,1.4-5.79,3.24a4,4,0,0,0-.54,1.73,2.77,2.77,0,0,1-1,2.15,12.53,12.53,0,0,1-2,.78,6.76,6.76,0,0,0-3.55,2.07c-2.56,2.92-2.22,7-1.91,10.6.05.69.11,1.34.14,2a9.6,9.6,0,0,0,6.94,8.94,14.45,14.45,0,0,0,10.47-.78A28.93,28.93,0,0,0,233.5,40.67h0c-.11,11-.48,19.34-1.21,27.11a158.25,158.25,0,0,1-4.65,26.71A103.49,103.49,0,0,1,223,108.11a78.39,78.39,0,0,1-6.86,12.68,65.87,65.87,0,0,1-22,20.67,74,74,0,0,1-16.82,7.68,87.91,87.91,0,0,1-18.16,3.65A99.52,99.52,0,0,1,148.74,153.32Zm-21.1-2.16a106.75,106.75,0,0,0,21.1,2.13,99.66,99.66,0,0,0,10.38-.53,80.86,80.86,0,0,0,35-11.32,65.94,65.94,0,0,0,22-20.67,89.06,89.06,0,0,0,11.57-26.29c4.84-17.88,5.68-36.38,5.85-53.71a29.92,29.92,0,0,1-4.65,9.1,27.17,27.17,0,0,1-7.58,7,14.58,14.58,0,0,1-10.5.78,9.59,9.59,0,0,1-4.94-3.36,9.14,9.14,0,0,1-2-5.61c0-.64-.09-1.29-.15-2a29.18,29.18,0,0,1-.12-5.6,8.75,8.75,0,0,1,2-5A6.79,6.79,0,0,1,209.15,34a14.81,14.81,0,0,0,2-.78,2.79,2.79,0,0,0,1-2.14,4.12,4.12,0,0,1,.53-1.74c1.3-1.85,3.56-2.65,5.81-3.25,3.3-1.12,6.83.32,9.21,1.72A5.35,5.35,0,0,1,230,31.88a6,6,0,0,1-1.79,4.89c-2.41,2.35-6,2.59-8.64,2.38a7.88,7.88,0,0,1-5.68-2.41,5.79,5.79,0,0,1-.39-.44c-.57-.66-1.15-1.35-2.09-1.09-2.65.46-5.46,2.76-5.58,5.82-.6,5.21,0,9.28,1.83,12.43a10,10,0,0,0,8.76,2.79,18.08,18.08,0,0,0,10.78-7.87c1.83-2.9,3.91-6.19,4.71-9.91A21.69,21.69,0,0,0,229.3,22.2c-1-1.64-3-2.2-4.76-2.7l-.22-.06c-7-1.37-15,1.45-20.36,7.18h0c-7.72,7.75-13.9,17-19.88,25.86-3.16,4.7-6.42,9.55-9.87,14.14a107,107,0,0,1-11.29,13l-.14.12a7.11,7.11,0,0,0-2.51,3.3c-.59,1.83-1.12,3.72-1.62,5.55-1.23,4.43-2.5,9-4.92,13.07,5.18,2.12,10.93,1,15.87-.34,7-2,12.36-5.79,15.14-10.78h0a42.62,42.62,0,0,0,8.27,1h.68a35.89,35.89,0,0,0,24-10.52h0v0l.75.87h0c-2.39,3.32-4.71,5.42-7.31,6.59l-.32.14c-.7.3-1.5.65-1.63,1.5a58.31,58.31,0,0,1-12.47,23.29,72.42,72.42,0,0,1-21.32,16.39,103.63,103.63,0,0,1-25.47,9,13.19,13.19,0,0,1-1.39.29,6.58,6.58,0,0,0-2.75.91,68.44,68.44,0,0,1-8.36,6.87A27.15,27.15,0,0,1,127.64,151.16Z"/><path id="path18" class="cls-3" d="M232.2,22.13a30.3,30.3,0,0,1,11.14,2.52c-3.24,1-6.58,1.69-9.88,2.47-.45-1.65-.9-3.31-1.26-5Z"/><path class="cls-3" d="M233.45,27.13h0c-.44-1.62-.9-3.3-1.26-5h0a30,30,0,0,1,11.15,2.52l0,0h0c-2.49.76-5.08,1.35-7.58,1.93l-2.31.53Zm-1.24-5c.36,1.67.82,3.34,1.26,5l2.29-.53c2.49-.57,5.06-1.16,7.54-1.92A30.11,30.11,0,0,0,232.21,22.15Z"/><path id="path20" class="cls-3" d="M234.33,29.67c3.3-2.1,7.33-2.64,11.18-2.73-3.1,2.61-7.39,3.51-10,6.85A33.91,33.91,0,0,1,234.33,29.67Z"/><path class="cls-3" d="M235.53,33.82v0a32.47,32.47,0,0,1-1.2-4.11h0a16.2,16.2,0,0,1,5.39-2.12,31.62,31.62,0,0,1,5.8-.62h0l0,0a23.4,23.4,0,0,1-4.25,2.65,16.7,16.7,0,0,0-5.73,4.2Zm-1.18-4.14a32,32,0,0,0,1.19,4.08,16.65,16.65,0,0,1,5.72-4.18A23.91,23.91,0,0,0,245.47,27C242.41,27,237.94,27.39,234.35,29.68Z"/><path id="path22" class="cls-3" d="M220,27.84c1.89-.18,3.69.72,5.5,1.23s3.3,3,2.37,4.87a14.85,14.85,0,0,1-4.09,2.82,12.46,12.46,0,0,1-7-.42c-2.07-.75-3.09-3.15-2.91-5.2,1.44-1.92,3.87-2.82,6.16-3.3M219,29.07c-1.75.45-3.31,2.19-2.83,4.09s2.73,2.46,4.45,2.82,3.24-.66,4.32-1.83a3.06,3.06,0,0,0-.75-4.42A6.82,6.82,0,0,0,219,29.07Z"/><path class="cls-3" d="M220.82,37.09a11.24,11.24,0,0,1-4.1-.73,4.24,4.24,0,0,1-2.31-2.13,5.81,5.81,0,0,1-.62-3.09h0c1.2-1.61,3.22-2.69,6.16-3.31h0a9.83,9.83,0,0,1,4.09.78c.46.15.94.31,1.41.45a4,4,0,0,1,2.38,2.23,3.09,3.09,0,0,1,0,2.66h0a15,15,0,0,1-4.09,2.83h0A15.07,15.07,0,0,1,220.82,37.09Zm-7-5.94c-.17,1.94.79,4.41,2.91,5.18a12.44,12.44,0,0,0,7,.42,15,15,0,0,0,4.08-2.82,3,3,0,0,0,0-2.62,4,4,0,0,0-2.36-2.23c-.47-.13-.94-.29-1.41-.45a10,10,0,0,0-4.08-.78C217,28.47,215,29.55,213.82,31.15Zm7.64,5a3.29,3.29,0,0,1-.81-.11,11.3,11.3,0,0,1-2.67-.83,3.15,3.15,0,0,1-1.78-2c-.48-1.89,1.07-3.65,2.83-4.1h0a6.91,6.91,0,0,1,5.21.66,3.13,3.13,0,0,1,1.36,2.16,2.86,2.86,0,0,1-.6,2.28A5.27,5.27,0,0,1,221.46,36.11Zm-2.42-7c-1.75.46-3.29,2.2-2.82,4.07s3,2.51,4.44,2.82c1.72.49,3.29-.73,4.31-1.83a2.77,2.77,0,0,0,.6-2.26,3.14,3.14,0,0,0-1.34-2.14A7,7,0,0,0,219,29.08Z"/><path id="path24" class="cls-2" d="M37.46,28.89h2.1c0,2.71.06,5.41,0,8.14-.69,0-1.35,0-2,0C37.37,34.3,37.43,31.6,37.46,28.89Z"/><path class="cls-2" d="M39.54,37.05h0c-.69,0-1.36,0-2,0h0v0c-.1-2.34-.07-4.7,0-7,0-.38,0-.76,0-1.15h2.13c0,2.66.06,5.41,0,8.14ZM37.47,28.9c0,.38,0,.76,0,1.14,0,2.28-.06,4.64,0,7,.68,0,1.34,0,2,0,.08-2.73,0-5.47,0-8.12Z"/><path id="path26" class="cls-2" d="M110.23,28.92c.69,0,1.41,0,2.11,0,.06,2.71.09,5.41,0,8.11h-2.07C110.2,34.33,110.23,31.63,110.23,28.92Z"/><path class="cls-2" d="M112.32,37h-2.1v0c0-1.78,0-3.61,0-5.37,0-.89,0-1.81,0-2.71h0c.69,0,1.41,0,2.11,0h0c.06,2.57.09,5.34,0,8.11Zm-2.07,0h2c.12-2.77.09-5.52,0-8.09-.68,0-1.39,0-2.07,0,0,.9,0,1.82,0,2.7C110.23,33.39,110.23,35.21,110.25,37Z"/><path id="path28" class="cls-2" d="M219,29.07a6.82,6.82,0,0,1,5.19.66,3.06,3.06,0,0,1,.75,4.42c-1.08,1.17-2.64,2.31-4.32,1.83s-3.94-.9-4.45-2.82S217.29,29.52,219,29.07Z"/><path class="cls-2" d="M221.46,36.11a3.29,3.29,0,0,1-.81-.11,11.3,11.3,0,0,1-2.67-.83,3.15,3.15,0,0,1-1.78-2c-.48-1.89,1.07-3.65,2.83-4.1h0a6.91,6.91,0,0,1,5.21.66,3.13,3.13,0,0,1,1.36,2.16,2.86,2.86,0,0,1-.6,2.28A5.27,5.27,0,0,1,221.46,36.11Zm-2.42-7c-1.75.46-3.29,2.2-2.82,4.07s3,2.51,4.44,2.82c1.72.49,3.29-.73,4.31-1.83a2.77,2.77,0,0,0,.6-2.26,3.14,3.14,0,0,0-1.34-2.14A7,7,0,0,0,219,29.08Z"/><path id="path30" class="cls-2" d="M39.86,59.93a24.54,24.54,0,0,1,7.48-8.71c.66,1.08,1.17,2.58,2.56,2.85,2.1.24,4-1.23,6.13-1,1.53.15,1.26,2.55,2.79,2.73A32.94,32.94,0,0,0,63,55c-1.18,6.46-5.83,11.45-8.39,17.31a159.84,159.84,0,0,1,20.74-1.5c6.22,0,12.47,0,18.69.36,8.65,0,17.36.39,26-.27,2.16.09,3.15-3.7,1-4.39-5.62-2.46-11.84-.63-17.7-.42-3.94-.09-7.78.66-11.66,1.14-6.82,1-13.82,1.59-20.64.33-2.19-.3-3.37-2.43-4.12-4.26-1.5-4.21,1.78-8.93,6-9.8,13.49-3.7,27.59.87,41.2-2a16.15,16.15,0,0,1,12.2,2,9.18,9.18,0,0,1,4.77,8,21.28,21.28,0,0,1-5,.6,11.15,11.15,0,0,1,5.71,7.22c.36,3.27-2.5,5.88-5.32,6.94-4.6,1.56-9.95.81-13.94,3.93A4.16,4.16,0,0,0,115.34,83c3.28.69,6.52-1.23,9.8-.48,1.35.3,2.22,1.47,3.09,2.46,1.71-1.08,3.73-1,5.68-.93,1,4.69-2.46,8.41-3.91,12.56-.87,2.22-.09,4.54.63,6.7-3.57.06-5.28-3.4-7.57-5.5-1.29-1.38-3.48-.9-4.84-2.07-.69-2,1.78-4.18.3-6.07-3.21-.93-6,1.56-8.68,3a9,9,0,0,1-6.31.93,17.29,17.29,0,0,0-.72,4.09c-.18,2.52-2,4.54-4.06,5.83-1.62,1.17-3.15-.81-4.77-1-5.71-1.17-10.28,4.17-15.93,3.63-2.34-.33-5.23-1.62-5.11-4.41-1.44.21-2.85.51-4.29.69a4.21,4.21,0,0,1,.72-4c1-1.53,2.79-2.1,4.35-2.91-.06-.9-.87-1.54-1.38-2.23a7,7,0,0,1,5.86-1.68c4.57.93,8.74,4.84,13.67,3.16-1.62-2.29-4.17-3.7-5.71-6a4.1,4.1,0,0,1,1.57-5.89c2.64-1,5.58,0,8.23-1-.18-.76-.42-1.87-1.44-1.66-2.41.15-4.87-.78-7.18.12-6.77,2.14-10.79,8.75-17.4,11.18-2.41,1-5,.6-7.51,1.17-3.43.75-7,.75-10.43,1.2.24,1.84.48,3.79-.36,5.5s-2.35,3.7-4.51,3.79a27.11,27.11,0,0,1-3-2.68A10.75,10.75,0,0,1,36,103.71c-1.11-.21-1.83-1.41-3-1.32-2.23-.15-5.11.72-6.64-1.47A5.78,5.78,0,0,0,27.63,99c-.24-1-1.41-1.47-2.34-1.62-2.26-.33-4.54.15-6.79.06-2.05,0-3.64-1.53-5.05-2.85,1.86-2-.33-4.36.24-6.65,7,0,13.16,4.6,20.22,4.27a9.34,9.34,0,0,0,.21-4.27c-3.76-.6-7.63-.66-11.33-1.62a10.91,10.91,0,0,1-6.07-3.51,18.74,18.74,0,0,1-2.46-5.38c.54-.45,1.08-.87,1.62-1.29-.15-2.32-.93-4.63-.39-6.94.24-1.12,1.47-1.48,2.34-2-1.17-2.34-2.91-4.78-2.28-7.54.15-1.47,1.89-2,2.25-3.37-.24-1.38-1.23-2.52-1.59-3.9a6.41,6.41,0,0,1,5.29.6c2.31,1.17,4.54,3.73,7.36,2.82,1.59-1,3.07-2.25,5-2.13-1.44,5.74-6.73,9.56-8.14,15.29-.81,3.22,1.38,6.34,4.08,7.85,1.51.69,3.22.39,4.81.39,1.14-5.92,2.31-12,5.2-17.31m72.75-6.31c-1.3.48-2.5,1.47-3.94,1.23a193.88,193.88,0,0,0-24.34-1.11c-4.6-.06-9.37.48-13.52,2.61-3,1.66-2.86,6-.93,8.39A9.54,9.54,0,0,0,73,65.85c9.41,2.28,18.78-1.65,28.19-1.35,6.22-.27,12.5-2.47,18.63-.69a6.07,6.07,0,0,1,4.62,4.86c.09,1.9-1.62,3.4-3.36,3.91a24.94,24.94,0,0,1-8.17.63C92.14,72,71.29,72.19,50.68,75c.3-.63.57-1.29.87-2a5.29,5.29,0,0,1-4.9-5.32c2.82-.21,5.68-.15,8.5-.39a82.42,82.42,0,0,0,4.6-9.85,6.58,6.58,0,0,1-2.73,1c-1-.9-1.05-2.38-1.51-3.55a31.66,31.66,0,0,0-5.1,1.66c-1-.82-1.81-2.2-3-2.62a19.12,19.12,0,0,0-6.31,8c1.44,2,4.69,3.76,3.25,6.64-2,.12-3.94.06-5.89.09a17.27,17.27,0,0,0-1.17,7.19A21.2,21.2,0,0,1,40,73.36a6.38,6.38,0,0,1,6,2.07,46,46,0,0,0,5,5.2c-4.84.3-9.29-2.43-14.13-2.19-3.21,4.54,1,9.8-.42,14.69-6.73,2-13.22-1.47-19.65-2.85.51.21,1.05.45,1.6.66-.64,1.29-1.33,2.55-2,3.82C20.6,96.44,25.23,95,29.55,96c0,1.65,0,3.27.09,4.9,2.74.51,4.69-1.66,6.34-3.46a7.74,7.74,0,0,1,2.83,3.7c2.73.18,3.63-3.25,6.13-3.88.78,1.17,1.26,2.49,2,3.67,1,.72,2-.36,2.34-1.21,1.42-2.37.49-5.16-.39-7.57,4.48-1.11,9.17-.78,13.74-1.35a27.21,27.21,0,0,0,11.38-3.88c4.48-2.76,8.24-6.76,13.2-8.71a13.59,13.59,0,0,1,10.24.18c.9,2.94.15,6,.63,9,.39,1.84,1.81,4,3.91,3.91,3.09,0,6.46.24,9.13-1.53a14.09,14.09,0,0,1,5.92-2.29,3.46,3.46,0,0,1,3.94,2.8,10.83,10.83,0,0,1-.66,4.12c1.17-.06,2.58-.43,3.48.54,1.54,1.71,1.78,4.53,4.21,5.37a13.93,13.93,0,0,1-.57-3.12c.18-4.39,5.32-7,4.69-11.54-1.72.15-2.68,1.86-4.27,2.22-1.29-.48-1.71-2.13-2.94-2.76-2.32-1.29-5.17-.75-7.61-.21-3.24,1.26-6.88-1.86-7-5.11a6.25,6.25,0,0,1,3.25-2.88c3.84-1.69,8.29-1,12.17-2.56a6,6,0,0,0,3.66-6,10.53,10.53,0,0,0-3.54-3.45c-7.3-4.78-16.8-4.81-24.94-2.35-2-3.12-6-3.6-9.44-3.33-2.34.63-2.46,4.24-5.05,4.42-3.78.57-7.63,1.44-11.44.72-1.69-.45-3.58-1.29-4.3-3,.18-2,.51-5,2.94-5.44a55.59,55.59,0,0,1,16.38-1.05c13,.72,25.69,4.54,38.76,4.3a10.26,10.26,0,0,0-6.58-5.29c-3.09-1-6.55-1.53-9.64-.3m-92.79.51a8.88,8.88,0,0,1,.27,2.16c-.48,1.63-2.68,2.35-2.53,4.21-.51,3.7,3.52,5.89,3.55,9.44a19.61,19.61,0,0,1-2.95-.21,8.08,8.08,0,0,0-.12,6c.61,1.11,1.93,1.53,2.83,2.34.18.45-.24.69-.57.84-1.23-.06-2.44-.45-3.64-.12C17.59,80.9,19,83,21.14,84.06c3.85,1.41,8,1.35,12.11,1.29.12-1.92.3-3.88.57-5.83a11,11,0,0,1-8.47-3.9c-2.2-2.11-2.17-5.47-1.48-8.24C25.11,63,28.71,60,31.12,56.26c-1.6,0-2.53,1.48-3.91,1.93-2.92-.27-4.69-3.1-7.39-4.06m55.35,3.55a3,3,0,0,0-1.93,3.66c3.37,2.32,7.66,1,11.36.39,2.71-.21,3.58-3.21,5.71-4.44-5-.24-10.25-1.3-15.14.39m22.65.21c2.41,2.52,6.28,2,9.38,1.29-3.13-.51-6.25-1.08-9.38-1.29m-9.1,26.83c-.81.42-1.78,1.56-.93,2.4,2.34,2.74,4.83,5.32,7.21,8.06A7.16,7.16,0,0,1,90,97c-4.57-.06-8.47-3-13-3.49l1.62,1.81c-2.52,1.83-6.25,2-8,4.8,1.38-.3,2.73-.72,4.09-1.14.45,1.41.57,2.89,1.14,4.24a4.69,4.69,0,0,0,3.6,1c3.25-.33,5.8-2.79,9-3.15,2.85-.24,5.56,1.29,8.41,1A3.93,3.93,0,0,0,100,100c.9-1.62,1.86-3.6,1.08-5.46-1.23-2.71-4.3-4-5.56-6.74a6.7,6.7,0,0,1-.27-3.69c-2.17.12-4.54-.39-6.55.66Z"/><path class="cls-2" d="M78.86,106.23c-.27,0-.54,0-.81,0a8.28,8.28,0,0,1-3.49-1.29,3.53,3.53,0,0,1-1.63-3.13c-.62.09-1.24.2-1.84.31-.8.14-1.62.28-2.44.38h0a4.21,4.21,0,0,1,.73-4A7.65,7.65,0,0,1,72.74,96l1-.47a3,3,0,0,0-.93-1.67,5.6,5.6,0,0,1-.45-.54h0a7,7,0,0,1,5.87-1.68,23.32,23.32,0,0,1,4.67,1.68c2.84,1.26,5.77,2.56,9,1.48a18.7,18.7,0,0,0-2.75-2.87,16.71,16.71,0,0,1-2.95-3.16,4.19,4.19,0,0,1-.48-3.47,3.74,3.74,0,0,1,2-2.44,11.21,11.21,0,0,1,4.18-.52,11.26,11.26,0,0,0,4-.46v0c-.18-.76-.43-1.8-1.41-1.59a17.38,17.38,0,0,1-2.7-.13,9.32,9.32,0,0,0-4.48.25c-3.49,1.1-6.3,3.43-9,5.69-2.55,2.12-5.19,4.31-8.39,5.48a14.45,14.45,0,0,1-4.39.79,19.29,19.29,0,0,0-3.12.39,48.47,48.47,0,0,1-6.51.82c-1.28.1-2.61.21-3.91.38.24,1.76.49,3.75-.36,5.49a8.12,8.12,0,0,1-1.75,2.54,4.24,4.24,0,0,1-2.77,1.25h0a10.79,10.79,0,0,1-1.91-1.65c-.35-.34-.71-.69-1.08-1A10.32,10.32,0,0,1,40.4,103a11,11,0,0,1-4.42.74,3.43,3.43,0,0,1-1.31-.65A2.74,2.74,0,0,0,33,102.4a17.24,17.24,0,0,0-1.75,0c-1.84.08-3.75.16-4.9-1.5h0a5.07,5.07,0,0,1,.37-.44A3.92,3.92,0,0,0,27.62,99c-.28-1.15-1.73-1.51-2.34-1.61a19.61,19.61,0,0,0-4,0,26.22,26.22,0,0,1-2.81.08c-2,0-3.57-1.47-5-2.77l-.1-.09h0c1.09-1.19.78-2.47.45-3.83a6,6,0,0,1-.22-2.81h0c3.39,0,6.62,1.1,9.74,2.15,3.35,1.12,6.81,2.29,10.47,2.12A9.37,9.37,0,0,0,34.11,88c-1.41-.23-2.86-.38-4.26-.53a47.27,47.27,0,0,1-7.06-1.09,10.78,10.78,0,0,1-6.08-3.52,18,18,0,0,1-2.41-5.23l-.06-.17h0c.54-.45,1.09-.88,1.62-1.29,0-.75-.17-1.5-.28-2.23a12.24,12.24,0,0,1-.11-4.71c.19-.9,1.05-1.32,1.81-1.69l.53-.26c-.2-.4-.42-.8-.63-1.2-1.07-2-2.18-4-1.65-6.34a3.09,3.09,0,0,1,1.17-1.86,3.64,3.64,0,0,0,1.08-1.51A7.58,7.58,0,0,0,17,54.24a9.12,9.12,0,0,1-.77-1.82h0a6.64,6.64,0,0,1,2.73-.27,6.3,6.3,0,0,1,2.57.88,19.89,19.89,0,0,1,1.88,1.16c1.68,1.14,3.42,2.31,5.47,1.66.3-.18.6-.38.89-.57a6.85,6.85,0,0,1,4.16-1.56h0c-.72,2.87-2.42,5.29-4.07,7.63S26.49,66.13,25.78,69c-.84,3.35,1.52,6.4,4.08,7.82a7.91,7.91,0,0,0,3.68.43c.37,0,.74,0,1.11,0,1.13-5.86,2.3-11.93,5.2-17.3h0a24.73,24.73,0,0,1,7.48-8.72h0c.13.21.26.44.39.68.52,1,1,2,2.16,2.17a7.63,7.63,0,0,0,3.06-.5A7.48,7.48,0,0,1,56,53.07c.77.07,1.1.73,1.41,1.36s.62,1.28,1.38,1.37a12,12,0,0,0,2.53-.43c.53-.13,1.07-.27,1.61-.35h0v0c-.73,4-2.86,7.55-4.91,10.95a54.67,54.67,0,0,0-3.46,6.33,165.61,165.61,0,0,1,19.56-1.5h3.61c5.34,0,10.83,0,16.23.36,2.34,0,4.72,0,7,.06,6.23.08,12.68.16,19-.33h.07a2.29,2.29,0,0,0,2.06-2.07,1.91,1.91,0,0,0-1.18-2.3c-4.08-1.79-8.53-1.3-12.84-.83-1.6.18-3.25.36-4.85.41h-.65a59.78,59.78,0,0,0-8.18.76c-.92.13-1.88.27-2.83.39-6.61.93-13.69,1.61-20.64.33A4.09,4.09,0,0,1,68.38,66a10.32,10.32,0,0,1-1.52-2.71,6.9,6.9,0,0,1,.61-5.76,8.22,8.22,0,0,1,5.38-4A45.91,45.91,0,0,1,83.58,52c3.6-.12,7.29,0,10.85.22,6.46.3,13.15.61,19.61-.78a16.09,16.09,0,0,1,12.21,2,9.18,9.18,0,0,1,4.79,8h0a19.19,19.19,0,0,1-4.37.57l-.54,0a11,11,0,0,1,5.67,7.19c.36,3.29-2.51,5.91-5.33,7a29.37,29.37,0,0,1-5.35,1.1c-3,.43-6.08.88-8.58,2.83A4.12,4.12,0,0,0,115.34,83a12.52,12.52,0,0,0,4.84-.25,12.19,12.19,0,0,1,5-.23A5.61,5.61,0,0,1,128,84.64l.28.33c1.77-1.11,3.84-1,5.68-.93h0c.67,3.23-.78,6-2.18,8.78A29.72,29.72,0,0,0,130,96.62c-.87,2.21-.11,4.47.61,6.66l0,0h-.11c-2.59,0-4.2-1.86-5.77-3.66a23.21,23.21,0,0,0-1.72-1.84,4.63,4.63,0,0,0-2.54-1.15,5.07,5.07,0,0,1-2.29-.92h0a4.25,4.25,0,0,1,.33-2.74c.39-1.12.78-2.28,0-3.32-2.52-.73-4.76.64-6.93,2-.6.36-1.17.71-1.74,1a7.42,7.42,0,0,1-3.07,1,11.54,11.54,0,0,1-3.24-.11,17.49,17.49,0,0,0-.72,4.07,6.29,6.29,0,0,1-1.34,3.39,10.46,10.46,0,0,1-2.72,2.45c-1,.74-2,.22-3-.29a5.12,5.12,0,0,0-1.77-.67c-3-.61-5.71.59-8.35,1.75A17.1,17.1,0,0,1,78.86,106.23ZM73,101.74v0a3.49,3.49,0,0,0,1.62,3.12,8.13,8.13,0,0,0,3.47,1.28c2.69.26,5.16-.83,7.56-1.89,2.64-1.16,5.37-2.36,8.37-1.75a5.24,5.24,0,0,1,1.78.67c1,.53,2,1,3,.3,1.42-.92,3.84-2.89,4-5.82a16.66,16.66,0,0,1,.72-4.09h0a8.89,8.89,0,0,0,6.3-.93c.58-.3,1.15-.65,1.75-1,2.17-1.32,4.42-2.69,7-2h0c.82,1,.41,2.22,0,3.35a4.14,4.14,0,0,0-.33,2.72,5,5,0,0,0,2.28.92,4.59,4.59,0,0,1,2.55,1.15,21.74,21.74,0,0,1,1.72,1.85c1.56,1.79,3.17,3.65,5.75,3.65h.07v0c-.73-2.2-1.49-4.46-.62-6.68a31.26,31.26,0,0,1,1.73-3.78c1.39-2.72,2.83-5.54,2.18-8.76-1.83-.08-3.91-.18-5.66.93h0l-.29-.34a5.57,5.57,0,0,0-2.8-2.12,12.15,12.15,0,0,0-4.95.23,12.52,12.52,0,0,1-4.84.25,4.15,4.15,0,0,1-2.84-2.86h0c2.51-2,5.6-2.4,8.6-2.83a29.46,29.46,0,0,0,5.34-1.11c2.81-1,5.67-3.66,5.31-6.92a11,11,0,0,0-5.7-7.2l0,0h0l.59,0a18.42,18.42,0,0,0,4.35-.57,9.17,9.17,0,0,0-4.77-8,16.09,16.09,0,0,0-12.19-2c-6.47,1.39-13.16,1.08-19.62.78-7.13-.33-14.5-.67-21.57,1.26a8.25,8.25,0,0,0-5.37,4,6.89,6.89,0,0,0-.6,5.74c.68,1.68,1.86,3.95,4.1,4.26,7,1.29,14,.6,20.64-.33.94-.12,1.9-.25,2.83-.39a59.78,59.78,0,0,1,8.18-.76h.65c1.6-.06,3.25-.24,4.85-.42,4.31-.47,8.76-1,12.85.84a1.92,1.92,0,0,1,1.2,2.32,2.31,2.31,0,0,1-2.09,2.09H120c-6.31.48-12.76.41-19,.33-2.31,0-4.69-.06-7-.06-5.4-.34-10.89-.36-16.23-.36H74.17a166.37,166.37,0,0,0-19.59,1.51h0v0A55.71,55.71,0,0,1,58,66c2.05-3.4,4.17-6.91,4.91-10.93-.53.08-1.07.22-1.6.34a11.36,11.36,0,0,1-2.53.44c-.77-.09-1.1-.75-1.41-1.38s-.63-1.28-1.39-1.36a7.66,7.66,0,0,0-3.06.5,7.48,7.48,0,0,1-3.07.49c-1.11-.21-1.66-1.21-2.18-2.18l-.37-.66a24.63,24.63,0,0,0-7.47,8.7h0C37,65.3,35.81,71.37,34.68,77.24h0l-1.12,0a7.84,7.84,0,0,1-3.69-.42,8.93,8.93,0,0,1-3.37-3.28A6.13,6.13,0,0,1,25.75,69c.71-2.88,2.42-5.32,4.08-7.67s3.34-4.76,4.06-7.61a6.88,6.88,0,0,0-4.12,1.56c-.29.2-.6.39-.9.58-2.07.66-3.81-.52-5.5-1.66A17.14,17.14,0,0,0,21.49,53a6.29,6.29,0,0,0-5.26-.6,9.81,9.81,0,0,0,.76,1.8,7.25,7.25,0,0,1,.83,2.09h0a3.69,3.69,0,0,1-1.09,1.52,3.12,3.12,0,0,0-1.17,1.84C15,62,16.15,64,17.21,66c.22.4.44.81.64,1.21h0c-.17.1-.35.18-.54.28-.79.38-1.6.78-1.8,1.67a12.33,12.33,0,0,0,.12,4.69c.11.74.23,1.5.28,2.25h0c-.53.41-1.08.83-1.61,1.28l.05.15a18.2,18.2,0,0,0,2.4,5.22A10.74,10.74,0,0,0,22.8,86.3a48.41,48.41,0,0,0,7.06,1.1c1.4.14,2.85.3,4.26.52h0a9.27,9.27,0,0,1-.21,4.28h-.74c-3.39,0-6.63-1.08-9.76-2.14S17.08,88,13.7,88a5.89,5.89,0,0,0,.22,2.79c.33,1.36.64,2.64-.45,3.83l.08.08c1.38,1.3,2.95,2.77,4.95,2.77.93,0,1.88,0,2.8-.09a19,19,0,0,1,4,0c.61.1,2.08.45,2.35,1.63h0a3.84,3.84,0,0,1-.95,1.49c-.12.14-.25.28-.36.43,1.14,1.63,3,1.55,4.87,1.47a17.24,17.24,0,0,1,1.75,0,2.68,2.68,0,0,1,1.73.68,3.83,3.83,0,0,0,1.31.65,10.83,10.83,0,0,0,8.13-3.21h0c.38.33.74.69,1.08,1a11.49,11.49,0,0,0,1.91,1.64c2.57-.1,4-2.67,4.5-3.77.85-1.74.59-3.73.35-5.49v0h0c1.3-.17,2.63-.28,3.91-.38a48.07,48.07,0,0,0,6.51-.82,19.43,19.43,0,0,1,3.12-.39,14.7,14.7,0,0,0,4.39-.78c3.2-1.18,5.83-3.37,8.38-5.48,2.72-2.26,5.53-4.6,9-5.7a9.36,9.36,0,0,1,4.49-.25,17.38,17.38,0,0,0,2.7.13c1-.21,1.26.84,1.44,1.61l0,.06h0a11.15,11.15,0,0,1-4.06.47,11,11,0,0,0-4.17.52,3.77,3.77,0,0,0-2,2.42,4.19,4.19,0,0,0,.49,3.45,16.29,16.29,0,0,0,2.94,3.15,18.45,18.45,0,0,1,2.76,2.89h0a8.35,8.35,0,0,1-4.64.16,25.44,25.44,0,0,1-4.38-1.63,24.15,24.15,0,0,0-4.66-1.69,7,7,0,0,0-5.84,1.68c.13.17.29.35.44.52a3.08,3.08,0,0,1,.94,1.7h0c-.32.17-.66.33-1,.48a7.65,7.65,0,0,0-3.37,2.43,4.15,4.15,0,0,0-.72,4c.81-.1,1.63-.24,2.42-.38.61-.11,1.24-.22,1.86-.31Zm6,2.51a4.39,4.39,0,0,1-3.07-1h0a14.08,14.08,0,0,1-.69-2.44c-.13-.59-.26-1.19-.44-1.78-1.33.41-2.7.84-4.08,1.14h0l0,0c1.07-1.77,2.94-2.5,4.74-3.21a14.38,14.38,0,0,0,3.24-1.6c-.54-.59-1.07-1.19-1.61-1.79l0,0h0a23.66,23.66,0,0,1,6,1.72A20.59,20.59,0,0,0,90,97h.22A7.12,7.12,0,0,0,95,95.18c-1.12-1.29-2.28-2.57-3.41-3.8s-2.56-2.8-3.79-4.25a1,1,0,0,1-.32-.91,2.35,2.35,0,0,1,1.25-1.51h0A9.35,9.35,0,0,1,93.37,84c.63,0,1.28,0,1.9,0h0v0c0,.08,0,.16,0,.24a6.21,6.21,0,0,0,.29,3.45,11.62,11.62,0,0,0,2.77,3.35,11.1,11.1,0,0,1,2.79,3.38c.78,1.86-.15,3.8-1.08,5.48A3.94,3.94,0,0,1,97,102.07a13.15,13.15,0,0,1-4.28-.49,13.68,13.68,0,0,0-4.13-.5,13.74,13.74,0,0,0-4.45,1.57,13.65,13.65,0,0,1-4.57,1.58A4.52,4.52,0,0,1,79,104.25Zm-3-1a4.82,4.82,0,0,0,3.59,1,13.7,13.7,0,0,0,4.55-1.59,14.09,14.09,0,0,1,4.47-1.57,13.78,13.78,0,0,1,4.14.5A12.82,12.82,0,0,0,97,102a3.89,3.89,0,0,0,3-2.09c.93-1.67,1.86-3.61,1.08-5.46a11,11,0,0,0-2.78-3.37,11.38,11.38,0,0,1-2.77-3.36,6.16,6.16,0,0,1-.3-3.46,1.79,1.79,0,0,0,0-.23c-.61,0-1.26,0-1.88,0a9.32,9.32,0,0,0-4.65.66h0a2.36,2.36,0,0,0-1.23,1.49,1,1,0,0,0,.31.89C89,88.56,90.33,90,91.59,91.36s2.3,2.52,3.42,3.81h0A7.15,7.15,0,0,1,90.26,97H90a20.34,20.34,0,0,1-7-1.76,23.9,23.9,0,0,0-6-1.72c.54.59,1.07,1.19,1.6,1.78h0a14.52,14.52,0,0,1-3.26,1.6c-1.79.71-3.64,1.44-4.71,3.17,1.37-.3,2.73-.72,4-1.13h0v0c.19.59.32,1.2.45,1.79A13.84,13.84,0,0,0,75.93,103.22Zm-28.29-2a1.12,1.12,0,0,1-.67-.24h0a17.33,17.33,0,0,1-1-1.83,17.2,17.2,0,0,0-1-1.82,6,6,0,0,0-2.68,1.94c-.94,1-1.84,1.94-3.23,1.94h-.23A7.78,7.78,0,0,0,36,97.45l0,0a16.81,16.81,0,0,1-2.75,2.57,4.64,4.64,0,0,1-3.56.84h0c0-1.09-.05-2.2-.07-3.27,0-.53,0-1.08,0-1.62a23.78,23.78,0,0,0-5.83-.38,18.56,18.56,0,0,1-7.32-.85h0c.28-.56.57-1.13.86-1.68S18,91.66,18.33,91c-.34-.13-.68-.28-1-.42l-.57-.24v0c1.74.38,3.52.91,5.24,1.43,4.67,1.4,9.49,2.85,14.39,1.43.59-2.1.15-4.3-.27-6.43a21.26,21.26,0,0,1-.56-4.23,6.91,6.91,0,0,1,1.25-4h0a23,23,0,0,1,7,1.1,22.68,22.68,0,0,0,7.09,1.09,28.68,28.68,0,0,1-3.5-3.56C47,76.52,46.47,76,46,75.44a6.42,6.42,0,0,0-6-2.07A9.91,9.91,0,0,0,38.25,75c-.31.32-.63.66-1,1l0,0v0a17.28,17.28,0,0,1,1.17-7.19h2c1.29,0,2.62,0,3.92-.08,1.05-2.11-.43-3.61-1.86-5.06A13.93,13.93,0,0,1,41.08,62h0a21.24,21.24,0,0,1,2.63-4.43A17.07,17.07,0,0,1,47.39,54h0a5.12,5.12,0,0,1,1.94,1.56,9.54,9.54,0,0,0,1.06,1A32.25,32.25,0,0,1,55.51,55h0c.13.35.24.74.34,1.12A4.68,4.68,0,0,0,57,58.53h.06A4.06,4.06,0,0,0,59,57.89c.25-.13.5-.27.76-.38h0l0,0a64.6,64.6,0,0,1-3.7,8.11l-.89,1.75h0c-1.49.12-3,.17-4.48.21s-2.68.08-4,.18a5.31,5.31,0,0,0,4.89,5.29h0v0l-.36.81c-.16.37-.33.75-.5,1.12a273.14,273.14,0,0,1,31-2.43c9.77-.23,20,0,31.15.6a24.86,24.86,0,0,0,8.17-.63c1.73-.51,3.44-2,3.35-3.9a6.09,6.09,0,0,0-4.62-4.85c-4.12-1.19-8.39-.58-12.51,0-2,.28-4.08.58-6.11.67a63.33,63.33,0,0,0-11.42,1c-2.75.41-5.59.84-8.38,1A29,29,0,0,1,73,65.86l-.44-.11a8,8,0,0,1-2.66-1h0a6.67,6.67,0,0,1-1.3-5.29,4.42,4.42,0,0,1,2.23-3.12,22.94,22.94,0,0,1,6.6-2.13,37.15,37.15,0,0,1,6.93-.48c1.23,0,2.48,0,3.74,0a206.2,206.2,0,0,1,20.6,1.16,4.61,4.61,0,0,0,2.81-.73c.37-.18.74-.36,1.12-.5h0c2.62-1,5.77-1,9.66.3a10.22,10.22,0,0,1,6.58,5.29v0h-1.2c-7,0-14-1.12-20.83-2.21a163.38,163.38,0,0,0-16.75-2.09A55.24,55.24,0,0,0,73.7,56a3,3,0,0,0-2.31,2.12,12.13,12.13,0,0,0-.63,3.3c.59,1.36,2,2.36,4.29,3,3.22.61,6.5.08,9.68-.44l1.76-.28c1.37-.09,2-1.12,2.72-2.21a4.31,4.31,0,0,1,2.33-2.2,15,15,0,0,1,5.24.39,7.08,7.08,0,0,1,4.2,2.94A36,36,0,0,1,113.76,61a24.87,24.87,0,0,1,12.16,3.89l.29.2a9.59,9.59,0,0,1,3.26,3.26h0a5.92,5.92,0,0,1-.86,3.59,5.84,5.84,0,0,1-2.82,2.41,22.41,22.41,0,0,1-5.94,1.21,21.56,21.56,0,0,0-6.23,1.34,6.33,6.33,0,0,0-3.23,2.87,5.83,5.83,0,0,0,2.66,4.5,4.68,4.68,0,0,0,4.29.6c2.62-.59,5.36-1,7.61.21a4.37,4.37,0,0,1,1.39,1.35,3.75,3.75,0,0,0,1.55,1.41,5.4,5.4,0,0,0,1.93-1.07,4.54,4.54,0,0,1,2.34-1.15h0c.34,2.45-1,4.36-2.3,6.22-1.13,1.61-2.3,3.28-2.39,5.32a10.8,10.8,0,0,0,.42,2.51c0,.2.11.41.15.61v0h0c-1.55-.54-2.23-1.89-2.88-3.2A9.45,9.45,0,0,0,123.83,95c-.73-.79-1.8-.69-2.82-.59l-.65,0h0v0c.06-.2.12-.41.17-.61a8.67,8.67,0,0,0,.49-3.5,3.07,3.07,0,0,0-1.26-2.1,3.56,3.56,0,0,0-2.66-.68,13.86,13.86,0,0,0-5.91,2.28c-2.46,1.63-5.46,1.59-8.37,1.54h-.86c-2,0-3.41-2-3.83-3.92a22,22,0,0,1-.17-3.88,16.51,16.51,0,0,0-.46-5.13,13.45,13.45,0,0,0-10.23-.18,35.56,35.56,0,0,0-8.34,5.25c-1.56,1.19-3.17,2.43-4.85,3.47A26.88,26.88,0,0,1,62.67,90.8c-1.76.22-3.56.31-5.31.4a43.52,43.52,0,0,0-8.41,1,18.09,18.09,0,0,1,1,3.79,5.74,5.74,0,0,1-.66,3.78,2.54,2.54,0,0,1-1.41,1.41A1.45,1.45,0,0,1,47.64,101.17Zm-.65-.26a1.06,1.06,0,0,0,.93.19,2.47,2.47,0,0,0,1.39-1.39c1.46-2.46.39-5.41-.39-7.56v0h0a43,43,0,0,1,8.43-1c1.75-.09,3.55-.18,5.3-.39A27.07,27.07,0,0,0,74.05,86.9c1.68-1,3.29-2.27,4.84-3.46a35.41,35.41,0,0,1,8.35-5.25,11.87,11.87,0,0,1,4.7-.92h.44a15.33,15.33,0,0,1,5.12,1.1h0A16.26,16.26,0,0,1,98,83.52a21.81,21.81,0,0,0,.17,3.87c.41,2,1.85,3.9,3.8,3.9h.86c2.9,0,5.9.08,8.36-1.54a13.86,13.86,0,0,1,5.92-2.29,3.57,3.57,0,0,1,2.67.69A3.1,3.1,0,0,1,121,90.28a8.75,8.75,0,0,1-.49,3.51c-.05.19-.11.39-.16.59l.62,0c1-.1,2.11-.2,2.85.6a9.54,9.54,0,0,1,1.34,2.18c.65,1.3,1.32,2.65,2.84,3.18l-.15-.59a10.79,10.79,0,0,1-.41-2.51c.08-2,1.25-3.72,2.39-5.34,1.29-1.84,2.62-3.75,2.29-6.18a4.52,4.52,0,0,0-2.3,1.14,5.35,5.35,0,0,1-1.95,1.08h0a3.81,3.81,0,0,1-1.56-1.42A4.34,4.34,0,0,0,125,85.12c-2.24-1.25-5-.79-7.59-.21a4.71,4.71,0,0,1-4.32-.6,5.88,5.88,0,0,1-2.67-4.52h0a6.35,6.35,0,0,1,3.25-2.9,21.62,21.62,0,0,1,6.24-1.34,22.26,22.26,0,0,0,5.93-1.21,5.91,5.91,0,0,0,3.66-6,9.74,9.74,0,0,0-3.26-3.25l-.28-.2c-6.57-4.3-15.65-5.15-24.93-2.34h0C98.9,59.37,94.7,59,91.54,59.25a4.35,4.35,0,0,0-2.3,2.19c-.67,1.05-1.37,2.13-2.75,2.23L84.73,64c-3.17.52-6.46,1-9.69.44-2.27-.61-3.72-1.61-4.3-3h0a12.6,12.6,0,0,1,.63-3.31A3.07,3.07,0,0,1,73.69,56,55.33,55.33,0,0,1,90.07,54.9,165.49,165.49,0,0,1,106.82,57c6.8,1.09,13.81,2.22,20.84,2.22h1.15a10.24,10.24,0,0,0-6.56-5.27c-3.88-1.24-7-1.34-9.64-.3h0a11.14,11.14,0,0,0-1.11.51,4.69,4.69,0,0,1-2.83.73,191.92,191.92,0,0,0-24.34-1.12h-.64c-5.24,0-9.46.86-12.87,2.62a4.41,4.41,0,0,0-2.22,3.1,6.65,6.65,0,0,0,1.29,5.26,8.19,8.19,0,0,0,2.65,1l.44.11c5.59,1.35,11.26.5,16.75-.33a70.88,70.88,0,0,1,10.39-1h1a59.25,59.25,0,0,0,6.1-.67c4.13-.6,8.4-1.21,12.53,0a6.11,6.11,0,0,1,4.64,4.88c.09,1.9-1.63,3.41-3.38,3.92a24.55,24.55,0,0,1-8.17.64c-23.4-1.33-43.75-.73-62.2,1.83h0v0c.18-.37.35-.76.52-1.14l.35-.8A5.32,5.32,0,0,1,48,71.41a5,5,0,0,1-1.4-3.64h0c1.34-.1,2.71-.14,4-.18s3-.09,4.46-.21l.9-1.75a67,67,0,0,0,3.69-8.07c-.25.11-.49.24-.72.36a4.15,4.15,0,0,1-1.93.65H57a4.66,4.66,0,0,1-1.17-2.43c-.1-.37-.2-.76-.33-1.11a31.91,31.91,0,0,0-5.1,1.65h0a9.72,9.72,0,0,1-1.07-1.06,5.24,5.24,0,0,0-1.93-1.55A18.92,18.92,0,0,0,41.11,62a13.73,13.73,0,0,0,1.38,1.55c1.44,1.46,2.93,3,1.86,5.1h0c-1.3.08-2.64.08-3.93.08H38.46a17,17,0,0,0-1.17,7.14c.33-.3.64-.63.94-1A9.55,9.55,0,0,1,40,73.35h0a5.38,5.38,0,0,1,3.25.24A7.14,7.14,0,0,1,46,75.43c.49.52,1,1.07,1.43,1.61A27.75,27.75,0,0,0,51,80.62l0,0h0a22.38,22.38,0,0,1-7.14-1.1,23.47,23.47,0,0,0-7-1.1C35,81,35.56,83.78,36.14,86.69c.43,2.13.87,4.33.28,6.45h0c-4.91,1.42-9.75,0-14.42-1.43-1.67-.5-3.39-1-5.09-1.39l.43.18,1,.42h0v0c-.35.72-.73,1.44-1.09,2.14-.29.54-.58,1.11-.86,1.66a18.46,18.46,0,0,0,7.3.84,24,24,0,0,1,5.85.38h0c0,.54,0,1.1,0,1.63,0,1.07,0,2.17.07,3.25,2.69.5,4.59-1.57,6.27-3.4l0-.06h0a7.79,7.79,0,0,1,2.83,3.69c1.5.1,2.43-.88,3.41-1.92a6,6,0,0,1,2.7-2h0a17.47,17.47,0,0,1,1,1.84A18.39,18.39,0,0,0,47,100.91ZM30.77,85.39a27.77,27.77,0,0,1-9.64-1.32,7.52,7.52,0,0,1-2.7-2.23,13.4,13.4,0,0,1-1.78-3.06v0h0a6.09,6.09,0,0,1,2.48,0c.38,0,.77.11,1.16.13.35-.16.72-.4.56-.82a8.32,8.32,0,0,0-1.09-.78A4.62,4.62,0,0,1,18,75.71a8.06,8.06,0,0,1,.12-6h0a19.42,19.42,0,0,0,2.93.21,8.41,8.41,0,0,0-1.8-4.37c-1-1.52-2-3.08-1.75-5A3.18,3.18,0,0,1,18.84,58a4.4,4.4,0,0,0,1.23-1.74,6,6,0,0,0-.16-1.62c0-.17-.08-.36-.11-.54v0h0A11.93,11.93,0,0,1,23,56a8.47,8.47,0,0,0,4.25,2.13,5.9,5.9,0,0,0,1.54-.88,4.24,4.24,0,0,1,2.37-1h0v0a43.84,43.84,0,0,1-2.72,3.62c-1.82,2.26-3.71,4.6-4.52,7.5-.52,2-1,5.84,1.47,8.22a10.9,10.9,0,0,0,8.36,3.9h.11c-.25,1.83-.44,3.74-.57,5.83h0C32.43,85.38,31.6,85.39,30.77,85.39ZM16.68,78.78c1.17,2.68,2.63,4.4,4.47,5.27,3.84,1.41,8,1.35,12.09,1.29.13-2.08.31-4,.56-5.8h-.08a11,11,0,0,1-4.57-1,11.11,11.11,0,0,1-3.81-2.91c-2.49-2.38-2-6.18-1.48-8.24.82-2.91,2.7-5.25,4.53-7.51a43.14,43.14,0,0,0,2.7-3.59,4.28,4.28,0,0,0-2.32,1,5.78,5.78,0,0,1-1.56.89h0a8.47,8.47,0,0,1-4.27-2.14,12.4,12.4,0,0,0-3.1-1.91c0,.17.06.35.09.52a5.58,5.58,0,0,1,.17,1.63,4.46,4.46,0,0,1-1.24,1.75,3.1,3.1,0,0,0-1.28,2.45c-.27,2,.75,3.52,1.74,5a8.27,8.27,0,0,1,1.8,4.4h0a19.65,19.65,0,0,1-2.94-.21,8,8,0,0,0-.11,6,4.51,4.51,0,0,0,1.72,1.55,7.86,7.86,0,0,1,1.1.79h0c.18.45-.21.7-.58.86h0a11.31,11.31,0,0,1-1.17-.12A6.12,6.12,0,0,0,16.68,78.78ZM78,62.69a8.19,8.19,0,0,1-4.79-1.34h0a2.64,2.64,0,0,1,.13-2,3.27,3.27,0,0,1,1.8-1.65h0C79,56.36,83,56.7,86.87,57c1.13.1,2.3.2,3.44.25h0l0,0a8.68,8.68,0,0,0-2.14,2c-1,1.14-1.94,2.31-3.58,2.44L83.2,62a28.08,28.08,0,0,1-5.13.68Zm-4.77-1.36c2.94,2,6.66,1.3,9.94.66l1.41-.27c1.62-.13,2.57-1.24,3.56-2.42a8.85,8.85,0,0,1,2.1-2c-1.12-.06-2.27-.15-3.39-.25-3.89-.32-7.92-.66-11.7.64h0a3.25,3.25,0,0,0-1.79,1.63A2.66,2.66,0,0,0,73.25,61.33Zm29.66-1.53-.66,0a6.48,6.48,0,0,1-4.44-1.88l0,0h0c2.68.18,5.41.64,8,1.07l1.34.23v0A18.2,18.2,0,0,1,102.91,59.8Zm-5-1.9c2.45,2.54,6.44,2,9.27,1.28L105.86,59C103.24,58.54,100.52,58.09,97.86,57.9Z"/><path id="path32" class="cls-3" d="M112.61,53.62c3.09-1.23,6.55-.69,9.64.3a10.26,10.26,0,0,1,6.58,5.29c-13.07.24-25.78-3.58-38.76-4.3A55.59,55.59,0,0,0,73.69,56c-2.43.45-2.76,3.43-2.94,5.44.72,1.69,2.61,2.53,4.3,3,3.81.72,7.66-.15,11.44-.72,2.59-.18,2.71-3.79,5.05-4.42,3.4-.27,7.42.21,9.44,3.33,8.14-2.46,17.64-2.43,24.94,2.35a10.53,10.53,0,0,1,3.54,3.45,6,6,0,0,1-3.66,6c-3.88,1.57-8.33.87-12.17,2.56a6.25,6.25,0,0,0-3.25,2.88c.09,3.25,3.73,6.37,7,5.11,2.44-.54,5.29-1.08,7.61.21,1.23.63,1.65,2.28,2.94,2.76,1.59-.36,2.55-2.07,4.27-2.22.63,4.57-4.51,7.15-4.69,11.54a13.93,13.93,0,0,0,.57,3.12c-2.43-.84-2.67-3.66-4.21-5.37-.9-1-2.31-.6-3.48-.54a10.83,10.83,0,0,0,.66-4.12,3.46,3.46,0,0,0-3.94-2.8,14.09,14.09,0,0,0-5.92,2.29c-2.67,1.77-6,1.56-9.13,1.53-2.1.06-3.52-2.07-3.91-3.91-.48-3,.27-6.07-.63-9a13.59,13.59,0,0,0-10.24-.18c-5,2-8.72,6-13.2,8.71a27.21,27.21,0,0,1-11.38,3.88c-4.57.57-9.26.24-13.74,1.35.88,2.41,1.81,5.2.39,7.57-.36.85-1.38,1.93-2.34,1.21-.78-1.18-1.26-2.5-2-3.67-2.5.63-3.4,4.06-6.13,3.88A7.74,7.74,0,0,0,36,97.43c-1.65,1.8-3.6,4-6.34,3.46-.06-1.63-.06-3.25-.09-4.9-4.32-1-8.95.45-13.16-1.23.63-1.27,1.32-2.53,2-3.82-.55-.21-1.09-.45-1.6-.66,6.43,1.38,12.92,4.81,19.65,2.85,1.39-4.89-2.79-10.15.42-14.69,4.84-.24,9.29,2.49,14.13,2.19a46.72,46.72,0,0,1-5-5.19,6.37,6.37,0,0,0-6-2.08,21.2,21.2,0,0,0-2.73,2.56,17.27,17.27,0,0,1,1.17-7.19c1.95,0,3.93,0,5.89-.09C45.78,65.76,42.53,64,41.09,62a19.12,19.12,0,0,1,6.31-8c1.2.42,2,1.8,3,2.62A31.66,31.66,0,0,1,55.51,55C56,56.17,56,57.65,57,58.55a6.58,6.58,0,0,0,2.73-1,82.42,82.42,0,0,1-4.6,9.85c-2.82.24-5.68.18-8.5.39a5.29,5.29,0,0,0,4.9,5.32c-.3.66-.57,1.32-.87,2,20.61-2.85,41.46-3,62.2-1.83a24.94,24.94,0,0,0,8.17-.63c1.74-.51,3.45-2,3.36-3.91a6.07,6.07,0,0,0-4.62-4.86c-6.13-1.78-12.41.42-18.63.69-9.41-.3-18.78,3.63-28.19,1.35a9.54,9.54,0,0,1-3.09-1.11c-1.93-2.41-2.11-6.73.93-8.39,4.15-2.13,8.92-2.67,13.52-2.61a193.88,193.88,0,0,1,24.34,1.11c1.44.24,2.64-.75,3.94-1.23Z"/><path class="cls-3" d="M47.64,101.17a1.12,1.12,0,0,1-.67-.24h0a17.33,17.33,0,0,1-1-1.83,17.2,17.2,0,0,0-1-1.82,6,6,0,0,0-2.68,1.94c-1,1-1.93,2-3.44,1.93h0A7.78,7.78,0,0,0,36,97.45l0,0a16.81,16.81,0,0,1-2.75,2.57,4.64,4.64,0,0,1-3.56.84h0c0-1.09-.05-2.2-.07-3.28,0-.52,0-1.07,0-1.61a23.78,23.78,0,0,0-5.83-.38,18.56,18.56,0,0,1-7.32-.85h0c.28-.56.57-1.13.86-1.68S18,91.66,18.33,91c-.34-.13-.68-.28-1-.42l-.57-.24v0c1.74.38,3.52.91,5.24,1.43,4.67,1.4,9.49,2.85,14.39,1.43.59-2.1.15-4.3-.27-6.43a21.26,21.26,0,0,1-.56-4.23,6.91,6.91,0,0,1,1.25-4h0a23,23,0,0,1,7,1.1,22.68,22.68,0,0,0,7.09,1.09,28,28,0,0,1-3.5-3.56C47,76.52,46.47,76,46,75.44a6.42,6.42,0,0,0-6-2.07A9.91,9.91,0,0,0,38.25,75c-.31.32-.63.66-1,1l0,0v0a17.28,17.28,0,0,1,1.17-7.19h2c1.29,0,2.62,0,3.92-.08,1.05-2.11-.43-3.61-1.86-5.06A13.93,13.93,0,0,1,41.08,62h0a21.24,21.24,0,0,1,2.63-4.43A17.07,17.07,0,0,1,47.39,54h0a5.12,5.12,0,0,1,1.94,1.56,9.54,9.54,0,0,0,1.06,1A32.25,32.25,0,0,1,55.51,55h0c.13.35.24.74.34,1.12A4.68,4.68,0,0,0,57,58.53h.06A4.06,4.06,0,0,0,59,57.89c.25-.13.5-.27.76-.38h0l0,0a64.6,64.6,0,0,1-3.7,8.11l-.89,1.75h0c-1.49.12-3,.17-4.48.21s-2.68.08-4,.18a5.31,5.31,0,0,0,4.89,5.29h0v0l-.36.81c-.16.37-.33.75-.5,1.12a273.14,273.14,0,0,1,31-2.43c2.66-.06,5.34-.09,8.07-.09,7.31,0,14.93.23,23.08.69a24.86,24.86,0,0,0,8.17-.63c1.73-.51,3.44-2,3.35-3.9a6.09,6.09,0,0,0-4.62-4.85c-4.12-1.19-8.39-.58-12.51,0-2,.28-4.08.58-6.11.67a63.33,63.33,0,0,0-11.42,1c-2.75.41-5.59.84-8.38,1A29,29,0,0,1,73,65.86l-.44-.11a8,8,0,0,1-2.66-1h0a6.67,6.67,0,0,1-1.3-5.29,4.42,4.42,0,0,1,2.23-3.12,22.94,22.94,0,0,1,6.6-2.13,37.15,37.15,0,0,1,6.93-.48c1.23,0,2.48,0,3.74,0a206.2,206.2,0,0,1,20.6,1.16,4.61,4.61,0,0,0,2.81-.73c.37-.18.74-.36,1.12-.5h0c2.62-1,5.77-1,9.66.3a10.22,10.22,0,0,1,6.58,5.29v0h-1.2c-7,0-14-1.12-20.83-2.21a163.38,163.38,0,0,0-16.75-2.09A55.24,55.24,0,0,0,73.7,56a3,3,0,0,0-2.31,2.12,12.13,12.13,0,0,0-.63,3.3c.59,1.36,2,2.36,4.29,3,3.22.61,6.5.08,9.68-.44l1.76-.28c1.37-.09,2-1.12,2.72-2.21a4.31,4.31,0,0,1,2.33-2.2,15,15,0,0,1,5.24.39,7.08,7.08,0,0,1,4.2,2.94A36.2,36.2,0,0,1,113.76,61a24.87,24.87,0,0,1,12.16,3.89l.29.2a9.59,9.59,0,0,1,3.26,3.26h0a5.92,5.92,0,0,1-.86,3.59,5.84,5.84,0,0,1-2.82,2.41,22.41,22.41,0,0,1-5.94,1.21,21.56,21.56,0,0,0-6.23,1.34,6.33,6.33,0,0,0-3.23,2.87,5.83,5.83,0,0,0,2.66,4.5,4.68,4.68,0,0,0,4.29.6c2.62-.59,5.36-1,7.61.21a4.37,4.37,0,0,1,1.39,1.35,3.75,3.75,0,0,0,1.55,1.41,5.4,5.4,0,0,0,1.93-1.07,4.54,4.54,0,0,1,2.34-1.15h0c.34,2.45-1,4.36-2.3,6.22-1.13,1.61-2.3,3.28-2.39,5.32a10.63,10.63,0,0,0,.42,2.5c0,.21.11.42.15.62v0h0c-1.55-.54-2.23-1.89-2.88-3.2A9.45,9.45,0,0,0,123.83,95c-.73-.79-1.8-.69-2.82-.59l-.65,0h0v0c.06-.2.12-.41.17-.61a8.67,8.67,0,0,0,.49-3.5,3.07,3.07,0,0,0-1.26-2.1,3.56,3.56,0,0,0-2.66-.68,13.86,13.86,0,0,0-5.91,2.28c-2.46,1.63-5.46,1.59-8.37,1.54h-.86c-2,0-3.41-2-3.83-3.92a22,22,0,0,1-.17-3.88,16.51,16.51,0,0,0-.46-5.13,13.45,13.45,0,0,0-10.23-.18,35.56,35.56,0,0,0-8.34,5.25c-1.56,1.19-3.17,2.43-4.85,3.47A26.88,26.88,0,0,1,62.67,90.8c-1.76.22-3.56.31-5.31.4a43.52,43.52,0,0,0-8.41,1,17.72,17.72,0,0,1,1,3.79,5.74,5.74,0,0,1-.66,3.78,2.54,2.54,0,0,1-1.41,1.41A1.45,1.45,0,0,1,47.64,101.17Zm-.65-.26a1.06,1.06,0,0,0,.93.19,2.47,2.47,0,0,0,1.39-1.39c1.46-2.46.39-5.41-.39-7.56v0h0a43,43,0,0,1,8.43-1c1.75-.09,3.55-.18,5.3-.39A27.07,27.07,0,0,0,74.05,86.9c1.68-1,3.29-2.27,4.84-3.46a35.41,35.41,0,0,1,8.35-5.25,11.87,11.87,0,0,1,4.7-.92h.44a15.33,15.33,0,0,1,5.12,1.1h0A16.26,16.26,0,0,1,98,83.52a21.81,21.81,0,0,0,.17,3.87c.41,2,1.85,3.9,3.8,3.9h.86c2.9,0,5.9.08,8.36-1.54a13.86,13.86,0,0,1,5.92-2.29,3.57,3.57,0,0,1,2.67.69A3.1,3.1,0,0,1,121,90.28a8.75,8.75,0,0,1-.49,3.51c-.05.19-.11.39-.16.59l.62,0c1-.1,2.11-.2,2.85.6a9.54,9.54,0,0,1,1.34,2.18c.65,1.3,1.32,2.65,2.84,3.18l-.15-.59a10.8,10.8,0,0,1-.42-2.51c.09-2,1.26-3.72,2.4-5.34,1.29-1.84,2.62-3.75,2.29-6.18a4.52,4.52,0,0,0-2.3,1.14,5.35,5.35,0,0,1-1.95,1.08h0a3.81,3.81,0,0,1-1.56-1.42A4.34,4.34,0,0,0,125,85.12c-2.24-1.25-5-.79-7.59-.21a4.71,4.71,0,0,1-4.32-.6,5.88,5.88,0,0,1-2.67-4.52h0a6.35,6.35,0,0,1,3.25-2.9,21.62,21.62,0,0,1,6.24-1.34,22.26,22.26,0,0,0,5.93-1.21,5.91,5.91,0,0,0,3.66-6,9.71,9.71,0,0,0-3.26-3.24l-.28-.21c-6.57-4.3-15.65-5.15-24.93-2.34h0c-2.07-3.2-6.27-3.58-9.43-3.33a4.35,4.35,0,0,0-2.3,2.19c-.67,1.05-1.37,2.13-2.75,2.23L84.73,64c-3.17.52-6.46,1-9.69.44-2.27-.61-3.72-1.61-4.3-3h0a12.6,12.6,0,0,1,.63-3.31A3.07,3.07,0,0,1,73.69,56,55.33,55.33,0,0,1,90.07,54.9,165.49,165.49,0,0,1,106.82,57c6.8,1.09,13.81,2.22,20.83,2.22h1.16a10.24,10.24,0,0,0-6.56-5.27c-3.88-1.24-7-1.34-9.64-.3h0a11.14,11.14,0,0,0-1.11.51,4.69,4.69,0,0,1-2.83.73,191.92,191.92,0,0,0-24.34-1.12h-.64c-5.24,0-9.46.86-12.87,2.62a4.41,4.41,0,0,0-2.22,3.1,6.65,6.65,0,0,0,1.29,5.26,8.19,8.19,0,0,0,2.65,1l.44.11c5.59,1.35,11.26.5,16.75-.33a70.88,70.88,0,0,1,10.39-1h1a59.25,59.25,0,0,0,6.1-.67c4.13-.6,8.4-1.21,12.53,0a6.11,6.11,0,0,1,4.64,4.88c.09,1.9-1.63,3.41-3.38,3.92a24.55,24.55,0,0,1-8.17.64c-23.4-1.33-43.75-.73-62.2,1.83h0v0c.18-.37.35-.76.52-1.14l.35-.8A5.32,5.32,0,0,1,48,71.41a5,5,0,0,1-1.4-3.64h0c1.34-.1,2.71-.14,4-.18s3-.09,4.46-.21l.9-1.75a67,67,0,0,0,3.69-8.07c-.25.11-.49.24-.72.36a4.15,4.15,0,0,1-1.93.65H57a4.66,4.66,0,0,1-1.17-2.43c-.1-.37-.2-.76-.33-1.11a31.91,31.91,0,0,0-5.1,1.65h0a9.72,9.72,0,0,1-1.07-1.06,5.24,5.24,0,0,0-1.93-1.55A18.92,18.92,0,0,0,41.11,62a12.82,12.82,0,0,0,1.38,1.55c1.44,1.46,2.93,3,1.86,5.1h0c-1.3.08-2.64.08-3.93.08H38.46a17,17,0,0,0-1.17,7.14c.33-.3.64-.63.94-1A9.55,9.55,0,0,1,40,73.35h0a5.38,5.38,0,0,1,3.25.24A7.14,7.14,0,0,1,46,75.43c.49.52,1,1.07,1.43,1.61A27.75,27.75,0,0,0,51,80.62l0,0h0a22.38,22.38,0,0,1-7.14-1.1,23.47,23.47,0,0,0-7-1.1C35,81,35.56,83.78,36.14,86.69c.43,2.13.87,4.33.28,6.45h0c-4.91,1.42-9.75,0-14.42-1.43-1.67-.5-3.39-1-5.09-1.39l.43.17c.33.15.68.29,1,.43h0v0c-.35.72-.73,1.44-1.09,2.14-.29.54-.58,1.1-.86,1.66a18.46,18.46,0,0,0,7.3.84,24,24,0,0,1,5.85.38h0c0,.54,0,1.09,0,1.62,0,1.07,0,2.18.07,3.26,2.69.5,4.59-1.57,6.27-3.4l0-.06h0a7.79,7.79,0,0,1,2.83,3.69c1.5.1,2.43-.88,3.41-1.92a6,6,0,0,1,2.7-2h0a17.47,17.47,0,0,1,1,1.84A18.39,18.39,0,0,0,47,100.91Z"/><path id="path34" class="cls-3" d="M19.82,54.13c2.7,1,4.47,3.79,7.39,4.06,1.38-.45,2.31-1.9,3.91-1.93-2.41,3.73-6,6.74-7.25,11.12-.69,2.77-.72,6.13,1.48,8.24a11,11,0,0,0,8.47,3.9c-.27,2-.45,3.91-.57,5.83-4.09.06-8.26.12-12.11-1.29-2.16-1-3.55-3.16-4.48-5.29,1.2-.33,2.41.06,3.64.12.33-.15.75-.39.57-.84-.9-.81-2.22-1.23-2.83-2.34a8.08,8.08,0,0,1,.12-6,19.61,19.61,0,0,0,2.95.21c0-3.55-4.06-5.74-3.55-9.44-.15-1.86,2.05-2.58,2.53-4.21a8.88,8.88,0,0,0-.27-2.16Z"/><path class="cls-3" d="M30.77,85.39a27.77,27.77,0,0,1-9.64-1.32,7.52,7.52,0,0,1-2.7-2.23,13.4,13.4,0,0,1-1.78-3.06v0h0a6.09,6.09,0,0,1,2.48,0c.38,0,.77.11,1.16.13.35-.16.72-.4.56-.82a7.8,7.8,0,0,0-1.1-.78A4.67,4.67,0,0,1,18,75.71a8.06,8.06,0,0,1,.12-6h0a19.42,19.42,0,0,0,2.93.21,8.41,8.41,0,0,0-1.8-4.37c-1-1.52-2-3.08-1.75-5A3.18,3.18,0,0,1,18.84,58a4.4,4.4,0,0,0,1.23-1.74,6,6,0,0,0-.16-1.62c0-.17-.08-.36-.11-.54v0h0A11.93,11.93,0,0,1,23,56a8.47,8.47,0,0,0,4.25,2.13,5.9,5.9,0,0,0,1.54-.88,4.24,4.24,0,0,1,2.37-1h0v0a43.84,43.84,0,0,1-2.72,3.62c-1.82,2.26-3.71,4.6-4.52,7.5-.52,2-1,5.84,1.47,8.22a10.9,10.9,0,0,0,8.36,3.9h.11c-.25,1.83-.44,3.74-.57,5.83h0C32.43,85.38,31.6,85.39,30.77,85.39ZM16.68,78.78c1.17,2.68,2.63,4.4,4.47,5.27,3.84,1.41,8,1.35,12.09,1.29.13-2.08.31-4,.56-5.8h-.08a11,11,0,0,1-4.57-1,11.11,11.11,0,0,1-3.81-2.91c-2.49-2.38-2-6.18-1.48-8.24.82-2.91,2.7-5.25,4.53-7.51a43.14,43.14,0,0,0,2.7-3.59,4.28,4.28,0,0,0-2.32,1,5.78,5.78,0,0,1-1.56.89h0a8.47,8.47,0,0,1-4.27-2.14,12.4,12.4,0,0,0-3.1-1.91c0,.17.06.35.09.52a5.58,5.58,0,0,1,.17,1.63,4.46,4.46,0,0,1-1.24,1.75,3.1,3.1,0,0,0-1.28,2.45c-.27,2,.75,3.52,1.74,5a8.27,8.27,0,0,1,1.8,4.4h0a19.75,19.75,0,0,1-2.94-.21,8,8,0,0,0-.11,6,4.51,4.51,0,0,0,1.72,1.55,7.86,7.86,0,0,1,1.1.79h0c.18.45-.21.7-.58.86h0a11.31,11.31,0,0,1-1.17-.12A6.12,6.12,0,0,0,16.68,78.78Z"/><path id="path40" class="cls-3" d="M88.72,84.72c2-1,4.38-.54,6.55-.66a6.7,6.7,0,0,0,.27,3.69c1.26,2.71,4.33,4,5.56,6.74.78,1.86-.18,3.84-1.08,5.46A3.93,3.93,0,0,1,97,102.06c-2.85.3-5.56-1.23-8.41-1-3.22.36-5.77,2.82-9,3.15a4.69,4.69,0,0,1-3.6-1c-.57-1.35-.69-2.83-1.14-4.24-1.36.42-2.71.84-4.09,1.14,1.74-2.85,5.47-3,8-4.8l-1.62-1.81C81.57,94,85.47,97,90,97a7.16,7.16,0,0,0,5-1.83c-2.38-2.74-4.87-5.32-7.21-8.06-.85-.84.12-2,.93-2.4Z"/><path class="cls-3" d="M79,104.25a4.39,4.39,0,0,1-3.07-1h0a14.08,14.08,0,0,1-.69-2.44c-.13-.59-.26-1.19-.44-1.78-1.33.41-2.7.84-4.08,1.14h0l0,0c1.07-1.77,2.94-2.5,4.74-3.21a14.38,14.38,0,0,0,3.24-1.6L77,93.51h0a23.66,23.66,0,0,1,6,1.72A20.59,20.59,0,0,0,90,97h.22A7.12,7.12,0,0,0,95,95.18c-1.12-1.29-2.28-2.57-3.41-3.8s-2.56-2.8-3.79-4.25a1,1,0,0,1-.32-.91,2.35,2.35,0,0,1,1.25-1.51h0A9.35,9.35,0,0,1,93.37,84c.63,0,1.28,0,1.9,0h0v0c0,.08,0,.16,0,.24a6.21,6.21,0,0,0,.29,3.45,11.62,11.62,0,0,0,2.77,3.35,11.1,11.1,0,0,1,2.79,3.38c.78,1.86-.15,3.8-1.08,5.48A3.94,3.94,0,0,1,97,102.07a13.15,13.15,0,0,1-4.28-.49,13.68,13.68,0,0,0-4.13-.5,13.74,13.74,0,0,0-4.45,1.57,13.65,13.65,0,0,1-4.57,1.58A4.52,4.52,0,0,1,79,104.25Zm-3-1a4.82,4.82,0,0,0,3.59,1,13.7,13.7,0,0,0,4.55-1.59,14.09,14.09,0,0,1,4.47-1.57,13.78,13.78,0,0,1,4.14.5A12.82,12.82,0,0,0,97,102a3.89,3.89,0,0,0,3-2.09c.93-1.67,1.86-3.61,1.08-5.46a11,11,0,0,0-2.78-3.37,11.38,11.38,0,0,1-2.77-3.36,6.16,6.16,0,0,1-.3-3.46,1.79,1.79,0,0,0,0-.23c-.61,0-1.26,0-1.88,0a9.32,9.32,0,0,0-4.65.66h0a2.36,2.36,0,0,0-1.23,1.49,1,1,0,0,0,.31.89C89,88.56,90.33,90,91.59,91.36s2.3,2.52,3.42,3.81h0A7.15,7.15,0,0,1,90.26,97H90a20.34,20.34,0,0,1-7-1.76,23.9,23.9,0,0,0-6-1.72l1.61,1.79h0a14.52,14.52,0,0,1-3.26,1.6c-1.79.71-3.64,1.44-4.71,3.17,1.37-.3,2.73-.72,4-1.13h0v0c.19.59.32,1.2.45,1.79A13.84,13.84,0,0,0,75.93,103.22Z"/><path id="path42" class="cls-3" d="M153.41,90.55c1.29-1.5,2.49-3.1,3.88-4.48a59.6,59.6,0,0,1-6.91,15.87c-7.52,12.26-18.24,22-27.65,32.75-4.69,5.41-9.67,10.58-14.42,15.95.36.34.69.7,1,1.06-2.82,5.8-8.17,9.88-13.61,13.1a73.38,73.38,0,0,1-7.57,3.93,41.42,41.42,0,0,1,3.42-4.17C112.37,140,132.83,115.22,153.41,90.55Z"/><path class="cls-3" d="M88.14,168.76l0,0a30.78,30.78,0,0,1,2.67-3.32l.76-.86c14.42-17.05,28.93-34.5,43-51.38,6.17-7.42,12.55-15.09,18.84-22.63h0c.41-.48.82-1,1.21-1.45.85-1,1.72-2.08,2.67-3l0,0v0a59,59,0,0,1-6.91,15.86c-5.34,8.71-12.41,16.26-19.24,23.57-2.79,3-5.68,6.07-8.41,9.19-2.56,3-5.25,5.88-7.86,8.72-2.16,2.35-4.4,4.79-6.55,7.22l.68.68.36.37h0a24.77,24.77,0,0,1-5.83,7.53,47.07,47.07,0,0,1-7.78,5.58l-1.46.82a55.81,55.81,0,0,1-6.12,3.12Zm65.28-78.2c-6.29,7.53-12.67,15.21-18.84,22.63-14,16.88-28.55,34.33-43,51.38l-.76.86a33.38,33.38,0,0,0-2.64,3.27,53.26,53.26,0,0,0,6.07-3.1l1.46-.81c4.36-2.58,10.51-6.74,13.6-13.09l-.35-.36c-.23-.24-.45-.47-.69-.68h0c2.15-2.45,4.4-4.89,6.56-7.24,2.61-2.84,5.3-5.77,7.86-8.72,2.73-3.12,5.62-6.21,8.41-9.19,6.83-7.3,13.9-14.86,19.23-23.56a59.1,59.1,0,0,0,6.9-15.81c-.93.93-1.79,2-2.63,3-.39.48-.8,1-1.21,1.45Z"/><path id="path44" class="cls-3" d="M201.61,92.14a14.11,14.11,0,0,1,4.74-1c-3.24,11.72-10.81,21.93-20.28,29.39-11.78,9.31-26.26,14.75-41,16.88-6.76.91-13.4-1-20.1-1.62a9.06,9.06,0,0,1,5.73-6.07c6.49-2,13.2,1.74,19.69-.06,10.63-2.13,21.09-5.71,30.25-11.6,8.51-5.44,15.72-13.28,19.2-22.83C200.26,94.12,200.47,92.74,201.61,92.14Z"/><path class="cls-3" d="M141.35,137.64a66.16,66.16,0,0,1-9.88-1c-2.14-.33-4.36-.67-6.55-.85h0a10.59,10.59,0,0,1,2.14-3.75,7.75,7.75,0,0,1,3.61-2.33c3.31-1,6.73-.55,10-.09s6.47.91,9.65,0c11.78-2.36,22-6.27,30.26-11.6,9.14-5.84,16-14,19.19-22.83.1-.24.19-.49.28-.75a3.68,3.68,0,0,1,1.53-2.32h0a11,11,0,0,1,3.86-.92l.89-.1h0v0a52.91,52.91,0,0,1-7.81,16.3,62.34,62.34,0,0,1-12.48,13.1C175,129.29,160.79,135.13,145,137.41A28.52,28.52,0,0,1,141.35,137.64Zm-16.41-1.88c2.19.19,4.4.52,6.53.85,4.43.68,9,1.38,13.56.77,15.75-2.27,29.94-8.11,41-16.88,10-7.88,17.21-18.31,20.28-29.36l-.88.1a11,11,0,0,0-3.85.91h0a3.67,3.67,0,0,0-1.51,2.31c-.09.25-.18.51-.28.75a42.07,42.07,0,0,1-7.72,13,52.14,52.14,0,0,1-11.49,9.87A75.87,75.87,0,0,1,166,125.26a103.9,103.9,0,0,1-15.68,4.4c-3.19.88-6.48.42-9.66,0s-6.72-.94-10,.09A9,9,0,0,0,124.94,135.76Z"/><path id="path46" class="cls-3" d="M179.82,98.63a34.55,34.55,0,0,0,5.8-6,39.43,39.43,0,0,1,4.18.78c-7.18,12.71-21.37,20.44-35.7,21.67-1.47.06-2.85-.54-4.33-.72-1.71-.3-3.75-.24-4.89-1.81,2.37-3,4.86-5.89,7.39-8.74,9.34,2.67,19.95,1,27.55-5.2Z"/><path class="cls-3" d="M153.9,115.12a10.28,10.28,0,0,1-2.42-.39,16.16,16.16,0,0,0-1.71-.34c-.32-.06-.66-.1-1-.14-1.47-.2-3-.39-3.91-1.67h0c2.51-3.18,5.14-6.21,7.39-8.75h0c9.66,2.76,20.21.77,27.54-5.2h0a35.13,35.13,0,0,0,5.8-6h0a39.17,39.17,0,0,1,4.18.78h0v0a39.18,39.18,0,0,1-6.59,8.58,44.38,44.38,0,0,1-8.58,6.56,49,49,0,0,1-20.54,6.53Zm-9-2.55c.93,1.26,2.43,1.46,3.89,1.65l1,.14a13.47,13.47,0,0,1,1.7.35,11,11,0,0,0,2.42.38h.2c15.2-1.3,28.86-9.59,35.68-21.64a39,39,0,0,0-4.15-.77,35.08,35.08,0,0,1-5.8,6,28.94,28.94,0,0,1-13.13,5.93,32.15,32.15,0,0,1-14.43-.72C150,106.38,147.4,109.4,144.89,112.57Z"/><path id="path48" class="cls-3" d="M192.5,94.15A6.53,6.53,0,0,1,197.91,93c-2.1,8.21-7.66,15.18-14.39,20.17-7.87,5.88-17.07,9.64-26.2,13.1-7.85,2.16-16.2,1.8-24.16.45q4.77-5.82,9.76-11.39a26.91,26.91,0,0,0,10.82,2.22c7.12.24,13.91-2.52,19.92-6.1A91.62,91.62,0,0,0,187.3,101c2.26-1.87,2.83-5.05,5.2-6.86Z"/><path class="cls-3" d="M145.14,127.8a71.44,71.44,0,0,1-12-1.09h0l0,0c3.18-3.87,6.46-7.7,9.76-11.39h0a26.69,26.69,0,0,0,10.81,2.22h.87c5.9,0,12.14-2,19-6.11A93.81,93.81,0,0,0,187.3,101a11.87,11.87,0,0,0,2.48-3.33,11.08,11.08,0,0,1,2.71-3.53A6.61,6.61,0,0,1,197.91,93h0v0a32.66,32.66,0,0,1-5.46,11.29,42.25,42.25,0,0,1-8.93,8.88c-8,6-17.31,9.73-26.21,13.1A45.54,45.54,0,0,1,145.14,127.8Zm-12-1.11c9.37,1.59,17.27,1.44,24.13-.46,8.9-3.36,18.24-7.14,26.2-13.1C190.85,107.7,196,100.55,197.89,93a6.56,6.56,0,0,0-5.38,1.18h0a11.15,11.15,0,0,0-2.71,3.51,11.44,11.44,0,0,1-2.49,3.34,92.58,92.58,0,0,1-13.64,10.42c-6.91,4.11-13.15,6.12-19.06,6.12H153.1a27.33,27.33,0,0,1-10.17-2.23C139.63,119,136.36,122.83,133.18,126.69Z"/><path id="path50" class="cls-3" d="M123.18,137.48a67.63,67.63,0,0,0,19.5,2.2c-7.6,8.2-19.56,11.42-30.41,9.76C115.79,145.33,119.52,141.45,123.18,137.48Z"/><path class="cls-3" d="M117.87,149.88a37.4,37.4,0,0,1-5.6-.42h0v0c2.64-3.09,5.45-6.1,8.17-9l2.74-3h0c5.3,1.25,12.31,2.62,19.49,2.19h0l0,0a29.75,29.75,0,0,1-6.43,5.22,33.91,33.91,0,0,1-7.56,3.36A37,37,0,0,1,117.87,149.88Zm-5.57-.45c11.52,1.75,23.14-2,30.35-9.74-7.17.42-14.17-.95-19.46-2.19-.91,1-1.84,2-2.74,2.95C117.74,143.35,114.94,146.35,112.3,149.43Z"/><path id="path52" class="cls-3" d="M111,152.69a3.85,3.85,0,0,1,2.53-1.35c1.53-.09,2.76,1.14,4.29,1,1.69-.06,3.37-.21,5.08-.21-5.95,6-11.69,12.17-17.22,18.51a12.55,12.55,0,0,1-1.53-8.57c.06-.9.81-1.38,1.41-1.92,2.47-2,3.34-5.23,5.44-7.48Z"/><path class="cls-3" d="M105.66,170.68v0a12.66,12.66,0,0,1-1.53-8.57,2.52,2.52,0,0,1,1.12-1.68l.29-.25a14.09,14.09,0,0,0,3.15-4.14,18.64,18.64,0,0,1,2.29-3.34h0a3.92,3.92,0,0,1,2.54-1.36,4.89,4.89,0,0,1,2.13.52,5.27,5.27,0,0,0,2,.51h.21c.63,0,1.27-.05,1.88-.09,1-.06,2.13-.12,3.2-.12h0l0,0c-5.78,5.81-11.57,12-17.22,18.51Zm8-19.33h-.16A3.86,3.86,0,0,0,111,152.7h0a18,18,0,0,0-2.28,3.33,14.34,14.34,0,0,1-3.16,4.15,3.47,3.47,0,0,1-.29.25,2.49,2.49,0,0,0-1.11,1.66,12.63,12.63,0,0,0,1.52,8.54c5.63-6.45,11.41-12.67,17.18-18.47-1.07,0-2.13.06-3.16.12l-1.89.09a4.81,4.81,0,0,1-2.17-.51A5.37,5.37,0,0,0,113.67,151.35Z"/><path id="path54" class="cls-3" d="M140.76,155.75c1.08-1.11,2.76-.6,4.12-.63-1.39,3.94-4.27,7.45-4.27,11.78.09,3.79,2.16,7.15,3,10.79a30.25,30.25,0,0,1-3.27.72c0-5.17-2.31-10-2.49-15.11a9.73,9.73,0,0,1,2.94-7.55Z"/><path class="cls-3" d="M140.3,178.43v0a33.5,33.5,0,0,0-1.26-7.87,37.42,37.42,0,0,1-1.24-7.24,9.77,9.77,0,0,1,2.95-7.56h0c.82-.84,2-.76,3.08-.68a9.56,9.56,0,0,0,1,.05h0v0a33.14,33.14,0,0,1-1.77,3.94c-1.23,2.45-2.5,5-2.5,7.83a21,21,0,0,0,1.65,6.62,33.17,33.17,0,0,1,1.33,4.17h0a28,28,0,0,1-3.28.72Zm.47-22.67h0a9.75,9.75,0,0,0-2.94,7.53,36.42,36.42,0,0,0,1.24,7.24,33.49,33.49,0,0,1,1.25,7.86,29.56,29.56,0,0,0,3.25-.71,33.4,33.4,0,0,0-1.33-4.15,20.69,20.69,0,0,1-1.64-6.63c0-2.85,1.27-5.39,2.49-7.84a35.34,35.34,0,0,0,1.77-3.92c-.33,0-.67,0-1,0C142.73,155,141.58,154.93,140.77,155.76Z"/><path id="path56" class="cls-3" d="M152.18,155.39c1.62,0,3.27-.06,4.9,0-2.35,2.74-4.27,6-4.39,9.65-.51,8.71,4.66,16.4,5.44,24.94,3.75.66,7.57.6,11.27,1.35-3.22.15-7.4-.66-9.47,2.49,3,3,7.36,4.3,10,7.67-2.59-.85-4.63-3.58-7.64-2.53-.45,3.13,1.42,6.1.7,9.2-2.05-3.67-2.38-8.18-5.14-11.48-1-1.17-2.44-2.47-4.12-2.26-4.42.7-8.2,3.16-12.08,5.17,2.68-4.35,8.78-4.08,12-7.87a4.29,4.29,0,0,0,1.17-2.91c.09-8.48-6.22-15.57-5.86-24.07a3.24,3.24,0,0,1,.81-2.41c1.78-1.92,1.18-4.77,2.38-7Z"/><path class="cls-3" d="M163,208.23l0,0a28,28,0,0,1-1.94-4.83,19.89,19.89,0,0,0-3.19-6.64c-1-1.14-2.25-2.27-3.74-2.27a2.36,2.36,0,0,0-.37,0c-3.57.56-6.76,2.3-9.86,4l-2.21,1.19,0,0,0,0c1.43-2.34,3.9-3.37,6.28-4.36,2.07-.87,4.22-1.76,5.71-3.52a4.25,4.25,0,0,0,1.17-2.9c0-4.15-1.47-8-2.94-11.79-1.53-3.9-3.1-7.94-2.92-12.28a3.3,3.3,0,0,1,.81-2.42,7.11,7.11,0,0,0,1.49-3.89,9.68,9.68,0,0,1,.89-3.07h0c1.6,0,3.27-.06,4.9,0h0l0,0c-2.85,3.32-4.28,6.47-4.39,9.64-.28,4.9,1.26,9.57,2.75,14.08A49.65,49.65,0,0,1,158.14,190c1.76.3,3.56.46,5.3.61a50.52,50.52,0,0,1,6,.74v0c-.63,0-1.28,0-2,0h-.9c-2.49,0-5.1.22-6.59,2.47a25.18,25.18,0,0,0,4.54,3.3,20.44,20.44,0,0,1,5.49,4.36l0,0h0a12,12,0,0,1-2.49-1.28c-1.61-1-3.14-1.94-5.12-1.25a12.7,12.7,0,0,0,.39,4.35,11,11,0,0,1,.3,4.84Zm-8.89-13.81c1.5,0,2.73,1.14,3.76,2.28a19.75,19.75,0,0,1,3.19,6.65,28.83,28.83,0,0,0,1.93,4.8,11.06,11.06,0,0,0-.3-4.79,12.6,12.6,0,0,1-.4-4.37h0a4.06,4.06,0,0,1,2.73,0,11.94,11.94,0,0,1,2.43,1.26,12.27,12.27,0,0,0,2.44,1.26,20.59,20.59,0,0,0-5.45-4.31,25.43,25.43,0,0,1-4.56-3.32h0a5.14,5.14,0,0,1,3.34-2.21,18,18,0,0,1,4.18-.28c.64,0,1.25,0,1.84,0a55.6,55.6,0,0,0-5.85-.72c-1.74-.14-3.54-.3-5.3-.61h0a49.09,49.09,0,0,0-2.69-10.85c-1.49-4.52-3-9.18-2.74-14.09.1-3.17,1.53-6.32,4.37-9.63-1.62-.09-3.27-.06-4.86,0a9.6,9.6,0,0,0-.88,3.06,7.22,7.22,0,0,1-1.49,3.9,3.17,3.17,0,0,0-.81,2.4c-.19,4.33,1.39,8.37,2.92,12.27s3,7.64,2.94,11.8a4.33,4.33,0,0,1-1.18,2.92c-1.5,1.76-3.64,2.66-5.72,3.53-2.36,1-4.81,2-6.24,4.3.73-.38,1.46-.78,2.17-1.17,3.09-1.68,6.29-3.42,9.87-4Z"/><path id="path60" class="cls-3" d="M100.17,165.64c.39-.63.81-1.2,1.2-1.77a21.8,21.8,0,0,0,2.46,8.38c-12.68,15.35-27.28,29.24-38,46.15-1.5,2.23-2.7,4.63-4.15,6.88-1.32-4.8.24-9.73.94-14.54.24-1.14.09-2.61,1.14-3.42A166.76,166.76,0,0,0,100.17,165.64Z"/><path class="cls-3" d="M61.67,225.32v0c-1-3.71-.32-7.54.37-11.24.2-1.08.4-2.21.56-3.31a8.3,8.3,0,0,0,.13-.91,3.45,3.45,0,0,1,1-2.53,165.48,165.48,0,0,0,36.41-41.67c.28-.44.57-.86.85-1.26l.36-.51,0,0v0a21.85,21.85,0,0,0,2.46,8.38h0c-4.18,5.06-8.64,10-13,14.86C82.1,196.93,73,207.07,65.83,218.41c-.83,1.23-1.58,2.53-2.3,3.8-.59,1-1.2,2.07-1.84,3.08Zm38.51-59.67A171.77,171.77,0,0,1,83.71,188a163,163,0,0,1-19.95,19.32,3.35,3.35,0,0,0-1,2.5,8,8,0,0,1-.13.91c-.16,1.1-.37,2.23-.57,3.32-.68,3.68-1.38,7.49-.37,11.19.64-1,1.24-2.05,1.82-3.06.73-1.26,1.48-2.57,2.31-3.79a162,162,0,0,1,11.88-16.17c4.24-5.15,8.78-10.22,13.17-15.13s8.78-9.79,13-14.85a21.7,21.7,0,0,1-2.45-8.34l-.33.47c-.29.4-.58.82-.85,1.27Z"/><path id="path62" class="cls-3" d="M86.55,171.8c3.91-.84,7.13-3.31,10.37-5.5-8.62,14.57-20,27.34-32.87,38.31-1.2,1-2.38,2.28-4,2.62-3.42.78-7-.16-10.39,1,12.8-9.59,22.77-22.27,33.53-34,.9-1,1.86-2.19,3.33-2.4Z"/><path class="cls-3" d="M49.69,208.2v0c9.89-7.41,18.23-16.82,26.29-25.91,2.36-2.66,4.8-5.42,7.24-8.08l0,0c.91-1.06,1.85-2.16,3.31-2.37,3.43-.73,6.35-2.74,9.18-4.68l1.18-.81,0,0c-8.11,13.71-19.17,26.6-32.87,38.31-.21.17-.41.36-.61.54a7.77,7.77,0,0,1-3.37,2.08,21.14,21.14,0,0,1-4.76.36A17.9,17.9,0,0,0,49.69,208.2Zm47.19-41.85-1.14.77c-2.83,1.94-5.75,3.95-9.18,4.69h0c-1.45.21-2.39,1.3-3.3,2.36l0,0c-2.44,2.66-4.88,5.41-7.24,8.08-4,4.54-8.19,9.24-12.51,13.64a122.05,122.05,0,0,1-13.72,12.22,18.07,18.07,0,0,1,5.56-.58,21.18,21.18,0,0,0,4.76-.36,7.65,7.65,0,0,0,3.35-2.07c.2-.18.4-.37.61-.54C77.72,192.91,88.77,180,96.88,166.35Z"/><path id="path64" class="cls-3" d="M158,178.08a43.54,43.54,0,0,1,18.21,4.57c11.32,5.74,19.68,16.52,23.34,28.57,4.54,15.78-.93,33.41-12.62,44.71C176.4,266.48,160.14,269.42,146,266.3c-18.78-3.82-33.9-21.33-34.77-40.48a45.81,45.81,0,0,1,16.59-37.71,47,47,0,0,1,18-8.74,12.56,12.56,0,0,1,3.93-.66c2.17,1.89,2.77,5,2.89,7.72-.06,1.47.09,3.28-1.08,4.39-3.34,3.06-8.21,3.69-11.39,6.94a8,8,0,0,0-2,5.89c4.38-1.26,7.87-4.39,12-6.07,1.65-.63,3.63-1.71,5.28-.51,2.29,1.56,2.71,4.51,3.52,7,1.11,3.31,1.92,6.67,3.15,9.92a12.79,12.79,0,0,0,2.74-12.68c4.3.78,6.43,5.19,10.37,6.64.18-3.19-1.72-6-3.91-8.12-2.25-2.28-5-3.87-7.42-6,4.47-.87,9.1.3,13.52-1-.09-.6,0-1.38-.69-1.68a12.31,12.31,0,0,0-4.09-1.86c-4.36-.75-8.77-.81-13.13-1.36-.54-3.27-1.23-6.52-1.56-9.82m-24.7,37.44c-1.68,3.6-1.74,7.72-1.23,11.6.48,0,1,.06,1.44.12a41.83,41.83,0,0,1,1.62-12.65c-.69.09-1.56.15-1.83.93m-5.56,1a11.6,11.6,0,0,0-.36,9.77l1.35.09c-1-3.52-.36-7.19.78-10.58-.6.15-1.47,0-1.77.72m-4.24.27a14.73,14.73,0,0,0,.21,8.74h1.27a36,36,0,0,1,0-8.92l-1.45.18m-3,.69a12.69,12.69,0,0,0,0,6.7c.06.63.78.63,1.23.87a45.27,45.27,0,0,1,0-7.81c-.39.09-.81.18-1.2.24m-2.56.39c-.87,2.05-.45,4.24-.09,6.34l1,.09a32.59,32.59,0,0,1,0-6.4l-.94,0m-4,5.56.69.21c-.06-1.74,0-3.51-.09-5.26-1.59,1.17-.84,3.43-.6,5m2,.33a6.14,6.14,0,0,1,.72.15c-.18-1.92,0-3.81-.15-5.74-1.83,1.26-.93,3.82-.57,5.59m-3.85-4.72c-.18,1.48-.54,3.28.64,4.48.15-1.56.09-3.12.09-4.69l-.73.21Z"/><path class="cls-3" d="M156.84,267.49A50.29,50.29,0,0,1,146,266.31a41.11,41.11,0,0,1-11.5-4.24,41.45,41.45,0,0,0,11.5,4.22,51.52,51.52,0,0,0,11,1.2c11.63,0,22.52-4.09,30-11.57a46.54,46.54,0,0,0,7.19-8.89,46,46,0,0,1-7.17,8.91,36.07,36.07,0,0,1-8.82,6.51,42,42,0,0,1-10.26,3.81,48.37,48.37,0,0,1-10.95,1.23Zm-43.1-29.31a40.56,40.56,0,0,1-2.56-12.35,45.84,45.84,0,0,1,16.59-37.73,44.74,44.74,0,0,1,8.53-5.34,48.92,48.92,0,0,1,9.47-3.4l.88-.23a8.85,8.85,0,0,1,3.07-.43h0c1.79,1.56,2.73,4.09,2.89,7.73,0,.21,0,.42,0,.64,0,1.31-.06,2.8-1.07,3.76a21.39,21.39,0,0,1-5.52,3.3,19.12,19.12,0,0,0-5.87,3.64,7.94,7.94,0,0,0-2,5.86,30,30,0,0,0,6.83-3.31,36.85,36.85,0,0,1,5.2-2.75l.65-.26c1.5-.61,3.21-1.3,4.65-.25,1.86,1.27,2.48,3.44,3.09,5.53.14.48.28,1,.43,1.45.46,1.35.87,2.74,1.27,4.09.57,1.91,1.16,3.89,1.88,5.8a12.78,12.78,0,0,0,2.72-12.65v0h0c2.36.43,4.1,2,5.78,3.48a15.15,15.15,0,0,0,4.57,3.16c.19-3.41-2-6.28-3.9-8.09a36,36,0,0,0-4.14-3.41c-1.1-.81-2.24-1.66-3.28-2.6h0a30.38,30.38,0,0,1,6.16-.35,25,25,0,0,0,7.35-.64l0-.32c-.06-.54-.11-1.09-.65-1.34a12.4,12.4,0,0,0-4.08-1.86c-2.57-.44-5.2-.65-7.74-.85-1.77-.14-3.6-.28-5.39-.5h0c-.16-1-.34-1.95-.51-2.9-.4-2.26-.82-4.6-1.06-6.93v0h0a43.71,43.71,0,0,1,18.21,4.57,43.07,43.07,0,0,1,7.92,5.2,46.4,46.4,0,0,1,6.63,6.73,49.31,49.31,0,0,1,5.2,7.91,50.07,50.07,0,0,1,3.61,8.75,42.22,42.22,0,0,1,1.29,16.56,42.23,42.23,0,0,0-1.32-16.55c-3.83-12.58-12.33-23-23.34-28.57A43.66,43.66,0,0,0,158,178.09c.24,2.33.65,4.66,1.06,6.91.17.95.34,1.93.5,2.89,1.79.22,3.62.37,5.38.5,2.55.2,5.18.41,7.74.85a12.52,12.52,0,0,1,4.1,1.87c.54.25.6.83.65,1.35,0,.12,0,.23,0,.34h0a25.16,25.16,0,0,1-7.37.64,30.67,30.67,0,0,0-6.12.34c1,.93,2.16,1.77,3.26,2.58a36,36,0,0,1,4.14,3.41c1.89,1.82,4.1,4.7,3.91,8.13v0h0a14.84,14.84,0,0,1-4.6-3.17c-1.67-1.49-3.4-3-5.74-3.47a13.65,13.65,0,0,1,.35,6.71,11.81,11.81,0,0,1-3.1,6h0v0c-.72-1.91-1.32-3.9-1.89-5.83-.4-1.34-.81-2.73-1.26-4.09-.16-.46-.3-1-.44-1.44-.6-2.09-1.23-4.26-3.07-5.52-1.44-1-3.13-.35-4.63.25l-.65.26a39,39,0,0,0-5.2,2.75,29.53,29.53,0,0,1-6.85,3.32h0v0a9.71,9.71,0,0,1,.41-3.16,6.71,6.71,0,0,1,1.61-2.74A19.27,19.27,0,0,1,146,194.1a20.76,20.76,0,0,0,5.52-3.29c1-.95,1-2.44,1.06-3.74,0-.22,0-.43,0-.64-.16-3.63-1.1-6.15-2.88-7.71a9,9,0,0,0-3.05.44c-.29.08-.59.16-.88.22a47.14,47.14,0,0,0-18,8.75,45.77,45.77,0,0,0-16.58,37.69A40.92,40.92,0,0,0,113.74,238.18Zm19.73-10.93h0c-.48-.06-1-.09-1.44-.12h0c-.62-4.7-.21-8.5,1.24-11.61.25-.74,1-.83,1.71-.92l.13,0h0v0a42.06,42.06,0,0,0-1.62,12.65ZM132,227.1c.46,0,.94.06,1.41.12a41.9,41.9,0,0,1,1.62-12.62l-.11,0c-.67.08-1.44.18-1.69.9h0C131.81,218.62,131.41,222.41,132,227.1Zm-3.33-.66h0l-1.35-.09h0a11.53,11.53,0,0,1,.36-9.78c.22-.54.75-.59,1.27-.65l.51-.07h0v0c-1.41,4.2-1.66,7.55-.79,10.57Zm-1.36-.12,1.32.09a13.88,13.88,0,0,1-.41-5.32,23.94,23.94,0,0,1,1.19-5.22l-.49.07c-.5.05-1,.11-1.25.64h0A11.51,11.51,0,0,0,127.34,226.32Zm-2.4-.72h-1.29a19,19,0,0,1-.77-4.38,11.65,11.65,0,0,1,.56-4.37h0l1.46-.19v0a36.64,36.64,0,0,0,0,8.92Zm-1.27,0h1.24a36.4,36.4,0,0,1,0-8.89l-1.42.17A14.67,14.67,0,0,0,123.67,225.57Zm-2-.44h0a2.3,2.3,0,0,0-.42-.17c-.38-.12-.77-.25-.82-.72a12.69,12.69,0,0,1,0-6.7h0c.43-.07.89-.17,1.2-.24h0v0a46.2,46.2,0,0,0,0,7.81Zm-1.21-7.59a12.65,12.65,0,0,0,0,6.69c0,.45.43.57.8.7a2.37,2.37,0,0,1,.4.15,45.73,45.73,0,0,1,0-7.77C121.36,217.38,120.91,217.48,120.49,217.54Zm-1.65,6.83-1-.1,0-.22c-.35-2-.71-4.16.13-6.13h.48l.47,0h0a32.37,32.37,0,0,0,0,6.4Zm-1-.12,1,.09a32.06,32.06,0,0,1,0-6.37l-.45,0h-.46c-.83,2-.47,4.07-.12,6.11Zm-1.14-.27h0a6.14,6.14,0,0,0-.72-.15h0c0-.22-.1-.46-.16-.72-.39-1.68-.87-3.77.73-4.88h0v0c.07.92.06,1.85.06,2.75s0,2,.09,3Zm-.73-.18a5.78,5.78,0,0,1,.7.14c-.1-1-.09-2-.09-3s0-1.81-.06-2.72c-1.56,1.1-1.09,3.17-.71,4.84C115.88,223.34,115.94,223.57,116,223.8Zm-1.35-.09h0l-.34-.1-.35-.11h0c0-.25-.08-.51-.13-.79-.29-1.53-.61-3.27.74-4.27h0v0c0,1,.06,2,.06,2.92,0,.77,0,1.57,0,2.34Zm-.69-.24.34.1.32.1c0-.77,0-1.55,0-2.32,0-.95,0-1.93,0-2.89-1.32,1-1,2.71-.72,4.22C113.85,223,113.9,223.22,113.94,223.47Zm-1.17.13,0,0c-1.08-1.1-.87-2.69-.69-4.1,0-.13,0-.26,0-.39h0l.36-.11.36-.1h0v0c0,.35,0,.7,0,1a34.29,34.29,0,0,1-.1,3.65Zm-.63-4.5c0,.13,0,.26,0,.38-.18,1.39-.39,3,.65,4.06a33.81,33.81,0,0,0,.1-3.62c0-.33,0-.68,0-1l-.34.1Z"/><path id="path66" class="cls-2" d="M133.25,215.52c.27-.78,1.14-.84,1.83-.93a41.83,41.83,0,0,0-1.62,12.65c-.48-.06-1-.09-1.44-.12-.51-3.88-.45-8,1.23-11.6Z"/><path class="cls-2" d="M133.47,227.25h0c-.48-.06-1-.09-1.44-.12h0c-.62-4.7-.21-8.5,1.24-11.61.25-.74,1-.83,1.71-.92l.13,0h0v0a42.06,42.06,0,0,0-1.62,12.65ZM132,227.1c.46,0,.94.06,1.41.12a41.9,41.9,0,0,1,1.62-12.62l-.11,0c-.67.08-1.44.18-1.69.9h0C131.81,218.62,131.41,222.41,132,227.1Z"/><path id="path68" class="cls-2" d="M127.69,216.57c.3-.72,1.17-.57,1.77-.72-1.14,3.39-1.8,7.06-.78,10.58l-1.35-.09A11.6,11.6,0,0,1,127.69,216.57Z"/><path class="cls-2" d="M128.7,226.44h0l-1.35-.09h0a11.53,11.53,0,0,1,.36-9.78c.22-.54.75-.59,1.27-.65l.51-.07h0v0c-1.41,4.2-1.66,7.55-.79,10.57Zm-1.36-.12,1.32.09a13.88,13.88,0,0,1-.41-5.32,23.94,23.94,0,0,1,1.19-5.22l-.49.07c-.5.05-1,.11-1.25.64h0A11.51,11.51,0,0,0,127.34,226.32Z"/><path id="path70" class="cls-2" d="M123.45,216.84l1.45-.18a36,36,0,0,0,0,8.92h-1.27a14.73,14.73,0,0,1-.21-8.74Z"/><path class="cls-2" d="M124.94,225.6h-1.29a19,19,0,0,1-.77-4.38,11.65,11.65,0,0,1,.56-4.37h0l1.44-.18h0v0a36.64,36.64,0,0,0,0,8.92Zm-1.27,0h1.24a36.4,36.4,0,0,1,0-8.89l-1.42.17A14.67,14.67,0,0,0,123.67,225.57Z"/><path id="path72" class="cls-2" d="M120.48,217.53c.39-.06.81-.15,1.2-.24a45.27,45.27,0,0,0,0,7.81c-.45-.24-1.17-.24-1.23-.87A12.69,12.69,0,0,1,120.48,217.53Z"/><path class="cls-2" d="M121.7,225.13h0a2.3,2.3,0,0,0-.42-.17c-.38-.12-.77-.25-.82-.72a12.69,12.69,0,0,1,0-6.7h0c.43-.07.89-.17,1.2-.24h0v0a46.2,46.2,0,0,0,0,7.81Zm-1.21-7.59a12.65,12.65,0,0,0,0,6.69c0,.45.43.57.8.7a2.37,2.37,0,0,1,.4.15,45.73,45.73,0,0,1,0-7.77C121.36,217.38,120.91,217.48,120.49,217.54Z"/><path id="path74" class="cls-2" d="M117.92,217.92l.94,0a32.59,32.59,0,0,0,0,6.4l-1-.09C117.47,222.16,117.05,220,117.92,217.92Z"/><path class="cls-2" d="M118.84,224.37h0l-.91-.09h-.09l0-.23c-.35-2-.71-4.16.13-6.13h.48l.47,0h0a32.37,32.37,0,0,0,0,6.4Zm-1-.12h.06l.9.08a32.06,32.06,0,0,1,0-6.37l-.45,0h-.46c-.83,2-.47,4.07-.12,6.11Z"/><path id="path76" class="cls-2" d="M113.93,223.48c-.24-1.62-1-3.88.6-5,.09,1.75,0,3.52.09,5.26Z"/><path class="cls-2" d="M114.63,223.71h0l-.34-.1-.35-.11h0c0-.25-.08-.51-.13-.79-.29-1.53-.61-3.27.74-4.27h0v0c0,1,.06,2,.06,2.92,0,.77,0,1.57,0,2.34Zm-.69-.24.34.1.32.1c0-.77,0-1.55,0-2.32,0-.95,0-1.93,0-2.89-1.32,1-1,2.71-.72,4.22C113.85,223,113.9,223.22,113.94,223.47Z"/><path id="path78" class="cls-2" d="M116,223.81c-.36-1.77-1.26-4.33.57-5.59.15,1.93,0,3.82.15,5.74A6.14,6.14,0,0,0,116,223.81Z"/><path class="cls-2" d="M116.71,224h0a3.85,3.85,0,0,0-.72-.15h0c0-.22-.1-.46-.16-.72-.39-1.68-.87-3.77.73-4.88h0v0c.07.92.06,1.85.06,2.75s0,2,.09,3Zm-.73-.18a6.66,6.66,0,0,1,.7.14c-.1-1-.09-2-.09-3s0-1.81-.06-2.72c-1.56,1.1-1.09,3.17-.71,4.84C115.88,223.34,115.94,223.57,116,223.8Z"/><path id="path80" class="cls-2" d="M112.12,219.09l.73-.21c0,1.57.06,3.13-.09,4.69-1.18-1.2-.82-3-.64-4.48Z"/><path class="cls-2" d="M112.77,223.6l0,0c-1.08-1.1-.87-2.69-.69-4.1,0-.13,0-.26,0-.39h0l.36-.11.36-.1h0v0c0,.35,0,.7,0,1a34.29,34.29,0,0,1-.1,3.65Zm-.63-4.5c0,.13,0,.26,0,.38-.18,1.39-.39,3,.65,4.06a33.81,33.81,0,0,0,.1-3.62c0-.33,0-.68,0-1l-.34.1Z"/></g></g></svg>