<svg xmlns="http://www.w3.org/2000/svg" viewBox="0 0 300 242.16"><defs><style>.cls-1{fill:#fff;}.cls-2{fill:#23326a;}.cls-3{fill:#fabb23;}.cls-4{fill:#ed1e36;}.cls-5{fill:#c6ccd2;}</style></defs><title>NY_RedBulls</title><g id="Слой_2" data-name="Слой 2"><g id="Слой_1-2" data-name="Слой 1"><path id="path4907" class="cls-1" d="M299.87,149.8c-.11-.43-.28-.9-.41-1.27l-.13-.34c-.11-.28-.21-.55-.31-.85a2.54,2.54,0,0,1-.11-.38,1,1,0,0,1,0-.24,5.24,5.24,0,0,0-.88-3.52,2.18,2.18,0,0,0-1.62-1.2.82.82,0,0,1-.79.54h-.14a.87.87,0,0,1-.71-1c0-.11,0-.22,0-.35a2.22,2.22,0,0,0-.29-1.2c-.54-1-4.4-4.19-5.87-4.19a4.47,4.47,0,0,0-3.34,1.75.86.86,0,0,1-.66.31h-.08a.82.82,0,0,1-.66-.44,5.87,5.87,0,0,1-.35-.76,15.26,15.26,0,0,1-.57-2.1l-.11-.53c-.41-1.79-1-3.6-3.4-4.29a4.11,4.11,0,0,0-.75-.13l-.83,0h-.22a12.21,12.21,0,0,1-1.47-.09c-1-.14-1.64-.46-1.64-1.56a.87.87,0,0,1,0-.28l.27-.76a21.05,21.05,0,0,0,.69-2.41,11.71,11.71,0,0,0,.09-5.12.85.85,0,0,1,.21-.76.84.84,0,0,1,.62-.28l.12,0a15.84,15.84,0,0,0,2,.16c5.1,0,13.19-3.33,13.19-12.27,0-5.13-4.16-10-7.65-13.2a.88.88,0,0,1-.25-.83.85.85,0,0,1,.61-.62c5-1.29,7.69-4.6,7.69-9.29V82a13.47,13.47,0,0,0-.14-2.46,9,9,0,0,0-1.4-3.52.52.52,0,0,0-.48-.25.66.66,0,0,0-.21,0,2,2,0,0,0-.55.28,18.56,18.56,0,0,0-1.66,1.33,6.7,6.7,0,0,1-2.36,1.24c-.62.21-1.26.38-1.95.56l-1.11.3a18.65,18.65,0,0,0-7.82,4.15,7.32,7.32,0,0,0-2.31,4.91A7.57,7.57,0,0,0,274,93.38a32.94,32.94,0,0,0,4,4.35l.54.51c.54.52,1.09,1,1.61,1.56.78.78,1.37,1.42,1.86,2a6.29,6.29,0,0,1,1.75,3.8c0,2.4-1.71,4-4.32,4-2.87,0-5.09-1.13-8.16-3.16l-1.45-1c-1-.69-2.07-1.4-3.25-2.14a48.75,48.75,0,0,0-6.2-3.32c-.58-.26-1.16-.49-1.75-.7V0H43.3V99.54a18.06,18.06,0,0,0-3.21,1.14,32.4,32.4,0,0,0-4.74,2.83c-.79.55-1.57,1.11-2.33,1.67s-1.36,1-2,1.45c-3,2.12-5.61,3.53-8.41,3.53s-4.75-1.62-5-4.13c-.23-2.22.9-4.46,3.19-6.31l1.26-1c.94-.76,1.82-1.46,2.62-2.15a19.7,19.7,0,0,0,2.94-3A8.22,8.22,0,0,0,29,86c-.67-2.66-2.72-4.47-6.26-5.54A30.6,30.6,0,0,0,19,79.67l-.42-.07-1-.16a4,4,0,0,1-.82-.21A67.72,67.72,0,0,1,9.79,75l-.34-.23-.24.34c-.76,1.1-1.36,2-1.82,5.78-.51,4.21,3,9.35,8.94,10.29a.85.85,0,0,1,.39,1.5c-6.32,5-7.67,7.11-8,12.69a12.49,12.49,0,0,0,3.33,9.31c2.53,2.69,6.2,4.11,10.62,4.11a24,24,0,0,0,3.69-.3h.13a.86.86,0,0,1,.52.18.82.82,0,0,1,.32.6c.3,3.89,1,7,1.88,8.46a.84.84,0,0,1-.14,1.07,4,4,0,0,1-1.25.7,15.91,15.91,0,0,1-5.42.86c-1.28,0-2.22.87-3,2.75-.25.6-.45,1.25-.65,1.88l-.06.18c-.1.32-.19.61-.29.87a4.56,4.56,0,0,1-.27.65A5.57,5.57,0,0,1,17,138.05a.85.85,0,0,1-.56.21h-.14a.83.83,0,0,1-.6-.42,4.22,4.22,0,0,0-2.92-2.13h-.16a7.91,7.91,0,0,0-6.53,4.72.84.84,0,0,1-.69.52l-.15,0a3.37,3.37,0,0,0-3.07,2.26,10.22,10.22,0,0,0-.48,1.8l-.08.42c-.09.48-.18,1-.3,1.42a4.31,4.31,0,0,1-.44,1.08c-.09.18-.19.34-.29.5l-.2.34a3,3,0,0,0-.24,2.38,2.15,2.15,0,0,0,1.18,1.3,8,8,0,0,0,1.88.67,16.38,16.38,0,0,0,2.93.44,1.12,1.12,0,0,0,.55-.16c.13-.07.25-.17.4-.27a.93.93,0,0,1,.56-.2l.13,0,.63.11,1.8.36.1,0,1.71.34.67.12.45,0h0c2.67-.13,3.8-1.17,4.54-2.16.21-.28.4-.58.59-.89l.3-.51.23-.39a10.89,10.89,0,0,1,.67-1,.86.86,0,0,1,.69-.35l.22,0c.3.08.61.14.87.19.62.1,1.18.16,1.42.17l.52,0c2.52,0,4.41-1.41,6-2.73l.51-.43.71-.61a14.26,14.26,0,0,1,1.15-.87,3.57,3.57,0,0,1,2-.74h.15c.61,0,2.89.2,6.76.81a2.78,2.78,0,0,0,.51,0,7.14,7.14,0,0,0,2.34-.5v18.28c0,12.82,1.64,17.75,5.59,24.61l.22.39.25.37a121.93,121.93,0,0,0,203.19,0l.25-.37.22-.39c3.94-6.85,5.59-11.78,5.59-24.61V144.66a6.15,6.15,0,0,0,.87.06,8,8,0,0,0,2-.26,8.88,8.88,0,0,1,2.19-.27,9.73,9.73,0,0,1,1.1.06,17.82,17.82,0,0,1,2.48.49l.18,0a12.17,12.17,0,0,1,3.21,1.34,26.06,26.06,0,0,1,2.29,1.61l.19.14c1.4,1.06,2.85,2.16,4.87,2.16h.25a1.77,1.77,0,0,0,.35-.07l.39-.12c.28-.1.61-.24.93-.37a6.68,6.68,0,0,1,1.09-.34l.16,0a.84.84,0,0,1,.7.38c.11.15.21.32.33.5a11,11,0,0,0,.67,1c.78,1,2.2,2.35,5.52,2.43h.87a20.6,20.6,0,0,0,3.27-.21h.14a.83.83,0,0,1,.48.15,1.92,1.92,0,0,0,1.14.37,10.64,10.64,0,0,0,3.3-.67,6.36,6.36,0,0,0,1.55-.79A2,2,0,0,0,300,151a3.26,3.26,0,0,0-.11-1.23"/><path id="path4909" class="cls-2" d="M250.49,140.13a16.11,16.11,0,0,1-2.81-7.54.82.82,0,0,0-.38-.6.86.86,0,0,0-.46-.14,1,1,0,0,0-.25,0,6.94,6.94,0,0,1-1,.24v30.14c0,11.07-1.28,13.67-3.86,18.16a109,109,0,0,1-181.66,0c-2.57-4.49-3.86-7.09-3.86-18.16v-30h-.47a.83.83,0,0,0-.76.46c-.38.75-.75,1.51-1.09,2.23l-.63,1.29a20.07,20.07,0,0,1-1.62,2.9,5.94,5.94,0,0,1-1.26,1.17v22c0,11.76,1.42,15.45,4.64,21.06l.1.18.12.16a114.79,114.79,0,0,0,191.33,0l.11-.16.1-.17c3.23-5.62,4.64-9.3,4.64-21.07V141.14a5.81,5.81,0,0,1-1-1"/><path id="path4911" class="cls-2" d="M55.05,95.66l.31-.29.9-.81V13H245.64V94.12l1.72,1.15,1.48,1a10.66,10.66,0,0,0,2.63,1.25V7.14h-201V98.43a9.05,9.05,0,0,0,2.63-1.14,17.45,17.45,0,0,0,2-1.63"/><path id="path4913" class="cls-2" d="M49.05,98.71v-93h203.8V97.91l1.12.25.39.08c.56.11,1.13.24,1.72.38V2.53H45.82V99.08l1.46-.16c.6-.06,1.19-.12,1.77-.21"/><path id="path4915" class="cls-2" d="M253,142.18l-.17-.11v20.2c0,12.1-1.47,15.92-4.82,21.76l-.12.21-.14.2a116.18,116.18,0,0,1-193.63,0l-.14-.2-.12-.21c-3.36-5.84-4.83-9.66-4.83-21.76V141.1l-.68.31-.09.05a7.74,7.74,0,0,0-.87.44c-.54.33-1.07.65-1.59.93v19.44c0,12.82,1.68,17.15,5.25,23.37l.18.31.2.29a119.4,119.4,0,0,0,199,0l.2-.29.18-.31c3.57-6.22,5.25-10.55,5.25-23.37V143.92a22.27,22.27,0,0,1-2.45-1.36c-.2-.14-.4-.26-.61-.38"/><path id="path4917" class="cls-3" d="M197.3,128.07c-.26,1.53,1.71,3.93,2.27,5,.28-.56,1.92-4.32,2.17-4.78-.8-.05-3-.07-4.44-.24"/><path id="path4919" class="cls-3" d="M102.51,132c.78-1.39,1.64-1.61,2.22-2.32a7.39,7.39,0,0,1,1.45-2.32c-1.58.24-4.56.8-5.83,1,.29.9.57,3,2.16,3.6"/><path id="path4921" class="cls-3" d="M199.73,142.25c-.09-.3-.17-.62-.25-.94a.85.85,0,0,0-.79-.66h0a.85.85,0,0,0-.81.6,5,5,0,0,1-4.64,3.83H193a13.9,13.9,0,0,1-4.36-1.15l-.55-.21c-.61-.23-1.21-.46-1.77-.65a8.22,8.22,0,0,0-1.87-.46l-.36,0-.55,0c-.35,0-.72.06-1.1.1a20.68,20.68,0,0,1-2.42.18h-.19a6.21,6.21,0,0,1-4.25-1.53.85.85,0,0,0-.58-.23.87.87,0,0,0-.61.26,13.39,13.39,0,0,1-10,4.26h-.35a4.34,4.34,0,0,1-2.86-1.24,1.14,1.14,0,0,1-.22-1,.85.85,0,0,0-.16-.72.84.84,0,0,0-.65-.32c-2.21,0-3.52-1.1-3.84-2.12a2,2,0,0,1,.95-2.2l.22-.15c.3-.21.67-.46,1.15-.86a29.42,29.42,0,0,0,2.54-2.43,22.49,22.49,0,0,0,4.83-8.19,75,75,0,0,0,2.49-9.25l.11-.47c1.45-6.38,3.09-13.63,8.32-19.34,3.86-4.22,6.81-6.54,15-12.35,1.39-1,2.8-2.16,4.17-3.34a56.44,56.44,0,0,0-24.25-19,28.18,28.18,0,1,1-42.84.2A56.4,56.4,0,0,0,106.26,80.3c1.46,1,2.87,2.11,4.58,3.52,1.16,1,2.43,2,3.91,3.29l3.52,3a36.27,36.27,0,0,1,3,3.39c.4.5.78,1,1.16,1.48.54.7,1.05,1.36,1.5,1.91,3.66,4.48,5.91,7.46,6.43,11.14,1,7.17,1.67,11.25,4.48,18.44a2.63,2.63,0,0,0,.33.51,5.91,5.91,0,0,0,.54.61l.64.68c.22.23.43.46.61.68a14,14,0,0,1,1.16,1.87l.29.55c.26.48.52,1,.8,1.46a8.91,8.91,0,0,0,3.19,3.4,11.4,11.4,0,0,1,2.59,1.67,1.19,1.19,0,0,1,.4.9,2.26,2.26,0,0,1-.78,1.54,4.25,4.25,0,0,1-2.09.93.83.83,0,0,0-.57.38.87.87,0,0,0-.1.67,1.85,1.85,0,0,1-.32,1.62,3.51,3.51,0,0,1-2.79,1.18h-.54a15.91,15.91,0,0,1-10.56-4,.86.86,0,0,0-.56-.22.9.9,0,0,0-.5.16l-.22.17a13,13,0,0,1-2.73,1.59,6.39,6.39,0,0,1-2.9.57c-.42,0-.83,0-1.22-.05l-.82-.06-1.22-.09h-.64a5.79,5.79,0,0,0-1.17.09,22.49,22.49,0,0,0-3.06.87l-.72.24a16,16,0,0,1-4,.9h-.32a4.2,4.2,0,0,1-4-2.16,6.26,6.26,0,0,1-.4-1,.83.83,0,0,0-.73-.6h-.08a.83.83,0,0,0-.75.46l0,.1a56.26,56.26,0,0,0,98.31.2.14.14,0,0,0,0-.06"/><path id="path4923" class="cls-4" d="M89,32A12,12,0,0,0,77.14,19.79H62.07V61h8.35V26.91l5-.05a5.36,5.36,0,0,1,5.43,5.4,5.49,5.49,0,0,1-5.58,5.39l-1.94.05v9.81L81.65,61h9.84L80,43.79A12.1,12.1,0,0,0,89,32"/><path id="path4925" class="cls-4" d="M98.12,45.15a4.92,4.92,0,1,1,9.84,0ZM103,34.36a13.79,13.79,0,0,0,0,27.56c5.61,0,10-2.6,12.25-6.66l-6.54-3.09a5.5,5.5,0,0,1-5.05,3.13,5.31,5.31,0,0,1-5.48-5.13c0-.18-.07-.11-.05-.29h17.79c0-.56.08-1.14.08-1.73.12-8.91-5.65-13.8-13-13.8"/><path id="path4927" class="cls-4" d="M126.66,48.4a6,6,0,1,1,6,6.45,6.23,6.23,0,0,1-6-6.45m20,4.81V18.46h-8.14l0,19.95A11.66,11.66,0,0,0,130.33,35c-6.72,0-12.17,5.88-12.17,13.14s5.45,13.14,12.17,13.14h.14a28.08,28.08,0,0,1,16.15-8.08"/><path id="path4929" class="cls-4" d="M232,61.08h7.85V18.77H232Z"/><path id="path4931" class="cls-4" d="M205.52,50.61a4.6,4.6,0,0,1-9.2,0V35.75h-8V52.19c0,5.57,5.63,10.08,12.57,10.08s12.56-4.51,12.56-10.08V35.75h-7.93V50.61Z"/><path id="path4933" class="cls-4" d="M172.16,53.83h-7.51V27h5.24a4.4,4.4,0,0,1,0,8.78h-2.72v7.44h5a5.06,5.06,0,0,1,4.9,5.31c-.1,3-1.87,5.13-4.9,5.33m6.57-15.35A11.14,11.14,0,0,0,179.37,23c-1.88-2.18-5.19-3.14-9.67-3.14H156.29V53.54a28,28,0,0,1,14,7.51h3.34a12.08,12.08,0,0,0,12-11.91c0-4.72-1.58-8.08-6.87-10.66"/><path id="path4935" class="cls-4" d="M218.71,61.08h7.84V18.77h-7.84Z"/><path id="path4937" class="cls-5" d="M129.32,96.32a27.75,27.75,0,0,0,43.73-24.87,29,29,0,0,0-.86-4.78,26.07,26.07,0,0,1-42.87,29.65"/><path id="path4939" class="cls-2" d="M142.81,87.63c-6.09-1.47-10.25-2.95-10.25-2.95a64,64,0,0,1-.1-11.77c2.63-1.37,9.79-4.57,9.79-4.57a82.54,82.54,0,0,1,6.65,9c-1.57,3-6.09,10.26-6.09,10.26M132.77,62a69.2,69.2,0,0,0-4,7.6c-1.52,1.9-2.85,3.84-3.42,4.69A26.05,26.05,0,0,1,132.77,62m27.35,15.16a68.06,68.06,0,0,1,5-8.63,49.94,49.94,0,0,1,7.77,4.52s.91,2.84.3,11.17a32.37,32.37,0,0,1-7.71,2.94s-3.1-5.23-5.38-10M148.29,96.71l11.27-.3,2.18,6.14a41.62,41.62,0,0,1-9.39,3.86,23.49,23.49,0,0,1-8.47-3.51Zm2.21-41.66a25.93,25.93,0,0,1,9.72,1.88,12.27,12.27,0,0,1-1.52,3.6,60.1,60.1,0,0,0-11.47-.15l-5-4a25.82,25.82,0,0,1,8.29-1.35m-16.7,46.08a26,26,0,0,1-8.73-14.27c1.39,1.45,4.09,4.22,4.09,4.22a94.3,94.3,0,0,0,5.68,9.18,6.15,6.15,0,0,1-1,.87"/><path id="path4941" class="cls-2" d="M67.24,178.58l2.51,3,8.5-7c2.59-2.15,7.6-6.71,9.93-8.91l.07.08c-5.78,6.31-10.57,12.9-15.85,19.06l2.38,2.88,29.33-24.26-2.51-3-8.51,7c-2.58,2.14-7.6,6.71-9.93,8.91l-.07-.09c5.79-6.3,10.58-12.89,15.85-19.06l-2.37-2.87L67.24,178.58Z"/><path id="path4943" class="cls-2" d="M117.51,174.47l-6.27-4.8a4,4,0,0,0-5.53.74l-18.33,24a3.94,3.94,0,0,0,.74,5.53l6.27,4.79,2.39-3.14-6.26-4.79,8-10.42,4.7,3.6,2.4-3.13-4.7-3.6,8-10.42,6.27,4.79,2.4-3.13Z"/><path id="path4945" class="cls-2" d="M108.58,213,112,214.3c3.13-4.9,6.58-9.62,10.1-17l.1,0c-2.43,7.81-3.1,13.62-4.14,19.34l3.42,1.34,15.08-35-3.72-1.45c-2.54,6.33-5.2,12.67-7.69,19-.89,2.28-1.69,4.6-2.58,6.89l-.1,0c1.65-6.11,2.24-10.4,3.22-14.66l-3.07-1.2c-2.18,3.79-4.66,7.34-7.6,12.94l-.09,0c.89-2.28,1.88-4.52,2.78-6.81,2.49-6.35,4.85-12.81,7.29-19.19l-3.72-1.46L108.58,213Z"/><path id="path4947" class="cls-2" d="M158.67,221.72l3.92-.43-1.86-16.91a6.35,6.35,0,0,0,2.62-2.48,6,6,0,0,0,.69-3.51L162.35,183l-3.92.43,1.87,17-3.92.43-1.88-17-3.92.44,1.7,15.36a6,6,0,0,0,1.43,3.28,6.25,6.25,0,0,0,3.1,1.85l1.86,16.91Z"/><path id="path4949" class="cls-2" d="M187.6,210.47l-3.67,1.43-11-28.12,3.67-1.43,10.95,28.12Zm-7.95,1.32a5.92,5.92,0,0,0,11-4.3l-9.75-25a5.92,5.92,0,1,0-11,4.29l9.75,25Z"/><path id="path4951" class="cls-2" d="M189.36,175.24l3.18-2.33,7.76,10.57-3.18,2.33Zm17,29.84,3.18-2.33L199.46,189l3.17-2.33,8.43,11.48a6.59,6.59,0,0,0,2.36,1.77l3.26-2.4a5.58,5.58,0,0,1-2.44-1.71l-7.51-10.23c-1.39-1.89-2.51-2.06-3.5-1.79a3,3,0,0,0-.38-3.5l-7.13-9.71a3.93,3.93,0,0,0-5.51-.84l-6.36,4.66,22.52,30.69Z"/><path id="path4953" class="cls-2" d="M205.74,154l-2.65,3.08a7.26,7.26,0,0,0,1.86,2.77l7.25,6.23s2.86,2.2.18,5.32L200,160.71l-2.56,3,28.86,24.81,2.55-3-13.35-11.48s2.56-3,5.05-.85l8.57,7.37a5,5,0,0,0,2.86,1.33l2.64-3.07a6.81,6.81,0,0,1-3.45-1.68L224,171s-4.74-4.53-9,.41c0,0,3.68-5-1.67-9.56L207,156.42a5.13,5.13,0,0,1-1.26-2.43"/><path id="path4955" class="cls-4" d="M80,138c1,1.08.94,2.75,2.07,3.58A5,5,0,0,0,86,140.38c.64-.54-.29-1.23-.39-1.87-.64-.93-.2-2.8-1.77-2.85a31.17,31.17,0,0,1-4.72.3l-.44.29c-.29.94,1.08.94,1.32,1.77"/><path id="path4957" class="cls-4" d="M5.5,143.23a3.34,3.34,0,0,0-1.82,2c-.25,1.58.1,3-1.13,4.18,0,.29-.34.64,0,.93a17.22,17.22,0,0,0,3.44.94c.59-1.92,1-4,1.72-5.7v-.5c-.59-.73-1.18-1.67-2.16-1.86"/><path id="path4959" class="cls-4" d="M127.29,122s-.15.42-.15.42l-.13.43a1,1,0,0,1-.71.68.58.58,0,0,1-.53-.08.64.64,0,0,1-.24-.5s0-.44,0-.44l-.15-1.51a4,4,0,0,0-.65-1.7l-.67-.78-.75-.85a2.47,2.47,0,0,0-1.63-.87,2.73,2.73,0,0,0-1.21.86l-.53.64-.46.62c-.16.29-.54.13-.54.12l-.07,0,0-.07a2.24,2.24,0,0,1-.16-.85,3.05,3.05,0,0,1,.29-1.23l.4-.82.45-1,.07-.09a2.22,2.22,0,0,0,.42-.77l.12-.33.27-.69a1.29,1.29,0,0,1,1.9-.73A3.8,3.8,0,0,1,124,114l.22.36.28.46.58.74a7.81,7.81,0,0,1,2.35,5.19,6.56,6.56,0,0,1-.14,1.31m-6,13.39s0,0,0,0h-.05a8.8,8.8,0,0,1-3.06.35h-.07l-.2-.09-.22-.14a.49.49,0,0,1-.18-.55,4.81,4.81,0,0,1,3.29-3.08h.36l.36,0a.73.73,0,0,1,.54.61c0,.24,0,.5,0,.77a2.46,2.46,0,0,1-.81,2.06M102.54,103l-.12,0a.1.1,0,0,0,0,0l0,0a.48.48,0,0,1-.63.07l-.07,0a.37.37,0,0,1,0-.08,31.38,31.38,0,0,0-1.62-6l-.45-.78L99.41,96,99,95.47a1.86,1.86,0,0,1-.2-2l.05-.06a1.41,1.41,0,0,1,1.42-.23l.06,0a6.63,6.63,0,0,1,1.77,2.23,10.78,10.78,0,0,1,.75,4.1,13,13,0,0,1-.45,3.41l.12,0m38.57,34.61c-3-1.73-4.13-5-6-7.52-.63-.94-1.76-1.53-2.36-2.46a67.77,67.77,0,0,1-4.47-18.08,19.16,19.16,0,0,0-1.67-4.82,105.57,105.57,0,0,0-9.43-12.23c-.3-.3-.3-.33-.93-.94L104.65,81.9A23.29,23.29,0,0,0,100,79.4a11.76,11.76,0,0,0-8.2.29C89.27,81,87,82.94,84.36,83.82c-3.83,1.72-8.16,2.06-11.45,5-1.91,1.68-3.54,4.28-6.39,3.83a12.38,12.38,0,0,0-8.45,3c-2.16,2-4.22,4.28-7,4.82-2.46,1-5.46.54-8,1.47-4,1-7.13,4.13-10.52,6.54-3.39,2-6.63,4.07-10.86,4a7.33,7.33,0,0,1-6.29-4.77,8,8,0,0,1,2.51-8.25c2.51-3,6.48-4.77,8.45-8.21a6.31,6.31,0,0,0-.49-6.48c-2.6-2.71-6.34-2.81-9.73-3.64-2.16-.59-3.83-2.26-5.75-3.29a5.81,5.81,0,0,0-.88,3.73,8.93,8.93,0,0,0,5.7,7c1.72.74,3.68.2,5.45.59a1.6,1.6,0,0,1,1,1.22,1.9,1.9,0,0,1-.58,1.33,56.63,56.63,0,0,0-8,7.37c-2.45,2.66-2.75,7.32-1.47,10.67,1.43,3.83,5.41,6.33,9.24,6.82,2.8.45,5.31-.29,7.86-.83.34,0,.49.34.64.54.24,2.26-.1,4.27.39,6.34a39.14,39.14,0,0,0,1.77,5.11,2.21,2.21,0,0,1-.44,1.82A21.51,21.51,0,0,1,26.68,132l-3.83.24-.74.35c-1.43,1.67-1.48,3.39-2.36,5.25-1.18,2-3.34,2.9-5.16,4a12.09,12.09,0,0,1-2.06,2.65,3.79,3.79,0,0,1-2.26.84c-1.33,1.52-1.62,3.64-2,5.7,2.16.2,4.42,1.38,6.54.2,1.81-.84,2.21-3,3.58-4.38,1.08-1.18,2.71-.29,4,0,1.92.1,3.29-1.27,4.92-1.91,1.12-.74,2.06-2,3.24-2.76,2.26-1.07,5.4-.49,7.76,0a8.24,8.24,0,0,0,5.45-.55c1.53-.93,2.95-2.11,4.67-2.5,1.52-.78,2.26-2.51,2.9-3.93.49-1.33,1.77-2.36,1.67-3.88-.39-.35-.83-1.09-1.42-1-.74,1-1.28,2.12-2.12,3.1-3.55,4.85-6.34,5.31-13.56,5.31-5.35-.2-10.17,1.43-13.85,5.6a.68.68,0,0,1-.79-.15,3.67,3.67,0,0,1,.59-2c3.3-4.66,8.4-5.75,13.81-5.84a21,21,0,0,0,8.25-2,12.42,12.42,0,0,0,5.9-6.4c.63-3.09.88-6.43,1.67-9.38.1-.29.83-.51,1.08-.42s.88.32.88.67c-.54,3-1.52,6.63-.34,9.57,2.36,3.11,6.73,1.43,9.93,1.28a58.85,58.85,0,0,1,9.22.16c1.57,0,2.73.34,4-.64a2.82,2.82,0,0,0,.38-1.86c-.1-.89-.84-1.42,0-2.16a1.13,1.13,0,0,1,1.18.18,13.57,13.57,0,0,0,1.42,3.64,18.73,18.73,0,0,0,6,4.72c2.06,1.42,3.79,3.44,3.93,5.94,0,1.28-1.17,2.16-2.16,2.75a9.92,9.92,0,0,1-5.45,1.33c-2.61-1.28-3.29-4-5-6A4.12,4.12,0,0,0,73,136.55a17.74,17.74,0,0,0-4.13.64,1.3,1.3,0,0,0-.39,1.18c.88,1.61,1.87,3.19,2.85,4.81,1.13.69,2.7-.4,3.68.83s1.38,2.81,2.66,3.79a4.56,4.56,0,0,0,4.71.88,59.61,59.61,0,0,0,10.67-4.13h1.12c1.38-.14,2.91,0,3.89-1.08a38.93,38.93,0,0,0,2.8-4.71c.83-1.13.44-2.86.1-4.08a23,23,0,0,1-3.49-6.74,7.74,7.74,0,0,0-2.51-.69c-.44.2-1.08.1-1.33.59l3.89,7.67a4.1,4.1,0,0,1,.39,2.21,10,10,0,0,1-2.7,4.38c-.25.15-.54.29-.74,0,.44-1.67,1.23-3.49,1.13-5.41l-3.78-6.83c-.44-.93-1.23-1.77-1.18-2.85a1.28,1.28,0,0,1,.83-1c1.67-.54,3.69-.44,5-1.77,1.68-2.61,2-5.16,2.47-8.26a1.22,1.22,0,0,1,.79-.57c.29-.1.63.33.77.48a12.73,12.73,0,0,1-2.16,9.48c-.09.34-.24.79.15,1a7.14,7.14,0,0,0,5.4-.83,30.51,30.51,0,0,0,5.71-.74.64.64,0,0,1,.39.49,9.38,9.38,0,0,0-2.26,4.67c-1.48,1.53-3.59,2.85-3.74,5.07.25,1.07,1.18,0,1.82.14a.58.58,0,0,1,.49.59l-1.47,2.16c-.79,1.28.15,2.75.15,4a2.65,2.65,0,0,0,2.55,1.48,21.32,21.32,0,0,0,6.14-1.63,13.41,13.41,0,0,1,7.23-.49c2.31-.14,4-1.67,5.74-3.19a3.51,3.51,0,0,1,2.41,1.33,12.71,12.71,0,0,0,10,4l.34-.2a.58.58,0,0,0-.15-.88l-2.31-1.18c-1.62-1-3.63-2.41-4.17-4.23a21.75,21.75,0,0,0-2.36-5c-.34-.79-1.13-1.43-1.47-2.22.09-.1.19-.24.34-.19,2.55.88,4.08,3.39,5.25,5.65,1.87,2.6,4.57,4.81,8.11,4.23l.3-.25a.51.51,0,0,0,0-.59l-1.77-.88Z"/><path id="path4961" class="cls-4" d="M10.66,143.08a10,10,0,0,0,3.29-4c-.15-.54-.69-.93-1.13-1.33-.29-.24-.73-.05-1.08,0a26.14,26.14,0,0,1-3.39,2.41c-.49.34-.29,1.08-.39,1.62s.59.84.88,1.13a2.53,2.53,0,0,0,1.82.1"/><path id="path4963" class="cls-4" d="M219.22,136.55c-1.32.24-2.85-.05-4.17.14a4.79,4.79,0,0,0-1,3.15c.15,1.23,1.53,1.32,2.41,1.67.84.09,2.06.39,2.51-.49a19.13,19.13,0,0,0,1.13-4,.67.67,0,0,0-.89-.44"/><path id="path4965" class="cls-4" d="M206.81,91.39l-.21.41-.23.37-1.55,1.44-1.66,1.55a18.5,18.5,0,0,0-2.75,3.22,14.43,14.43,0,0,0-1.31,2.38.46.46,0,0,1-.57.19l-.1,0,0-.09a3,3,0,0,1-.16-1,4.69,4.69,0,0,1,.09-.88l.3-1.23.16-.55A17,17,0,0,1,204.57,90a2.06,2.06,0,0,1,1.5-.23,1,1,0,0,1,.64.59,1.07,1.07,0,0,1,.18.6,1.12,1.12,0,0,1-.08.43l.12,0-.12,0m-20,27.94-.14.47a1.74,1.74,0,0,1-.44.46.58.58,0,0,1-.65,0,1.36,1.36,0,0,1-.64-.5l-.21-.32-.18-.31c-.22-.38-.43-.67-.94-.63a1.74,1.74,0,0,0-1.09.37l-.32.24-.18.13-.52.35-.7.6-.31.26-1,.92a4.05,4.05,0,0,0-1.23,2.13l-.14.52,0,.22-.06.32a1.35,1.35,0,0,1-.54.94.9.9,0,0,1-.75-.14.67.67,0,0,1-.28-.52,7.31,7.31,0,0,1,2.28-6.08,15.25,15.25,0,0,0,2.13-2.24l.64-.82,1.29-1.59.15-.08a1.73,1.73,0,0,1,1.72,1,15.15,15.15,0,0,1,2.09,3.73,1.27,1.27,0,0,1,.05.34,1.48,1.48,0,0,1,0,.21m-1.13,17,0,.06a1.9,1.9,0,0,1-1.27.29l-.94-.11-.32,0-.06,0a3.13,3.13,0,0,1-1.28-2.67,1,1,0,0,1,.37-.84l0,0h.07a3.59,3.59,0,0,1,2.9,1.15l0,.06.19.38.29.61.12,0-.12,0a1.64,1.64,0,0,1,.13.62,1.21,1.21,0,0,1-.13.56m104.68,9.39c-2.51.15-3.74-2.55-5.21-4.13-1.23-1.42-3.63-2.25-3.58-4.37a29.76,29.76,0,0,1-.94-3.24c-.34-.88-.69-2.16-1.87-2.36-2.11-.34-4.66.24-6-1.72-1.37-1.48.15-3.19.39-4.62a14.25,14.25,0,0,0,.35-6.09c-.05-1.09-.79-2-.59-3,.49-.93,1.67-.25,2.4-.15a13.21,13.21,0,0,0,8.5-.68c3.44-1.68,6.2-5.16,6.05-9.14-.49-5.16-4.18-9.39-8.16-12.73a5.3,5.3,0,0,1-1.91-2.26c-.1-2,2.16-1,3.29-1.52a11.67,11.67,0,0,0,3.88-1.48c3-2,3.64-5.55,3.05-9-.1-.29-.1-.74-.54-.74a13.86,13.86,0,0,1-1.77,1.48c-1.92,1.13-4.48.93-6.49,1.92-2.51,1.08-5.6,2.6-6.68,5.45a6.08,6.08,0,0,0,.69,4.08c3,4.81,9.48,8,10.51,13.75.39,2.36-.78,4.08-2.6,5.41-2.76,1.67-6.88,1.08-9.63-.39-5.31-2.66-9.93-7.08-15.63-8.9-3.58-1.62-8-1.23-11.2-3.73-2.41-1.58-4.62-3.64-7.32-4.32-1.87-.64-4-.55-5.7-1.48a27.06,27.06,0,0,0-5.7-4.08,39,39,0,0,0-9.14-2.85c-1.87-.44-2.55-2.5-4.08-3.54-2.6-2.06-5.5-3.53-9-3.24-1.47.1-2.6,1.08-3.73,2.07-7.52,6.58-16.12,11.1-23,18.62-4.63,4.77-5.85,10.81-7.57,16.65-2.46,8.85-3.49,18.58-12.38,24a.69.69,0,0,0,.14.89,6.54,6.54,0,0,0,6.24-2,45.67,45.67,0,0,1,5.21-6.93l.5-.25c.24.05.53.2.43.54-.58,2-2.35,3.39-2.94,5.35-.79,2.36-3,4.18-5,5.85l0,.3a.64.64,0,0,0,.5.54c4.32.19,7.42-2.9,10.31-5.8a1.08,1.08,0,0,1,1.09-.15c1.27,1,2.45,2.46,4.12,2.8a26.43,26.43,0,0,1,5.51-.34c2.6.79,5.11,1.87,7.71,2.75,1.32,0,2.31-1.33,3-2.41.54-1.27-.25-2.55-.15-3.78.64-.39,1.38.1,2.06-.1a1.15,1.15,0,0,0,.54-.88c-.49-2.26-2.5-3.94-3.14-6.05-1-2.7-4.18-4.32-4.77-7.22.15-.2.39-.49.64-.3,2.12,1.53,4,3.54,6.59,3.93a33.76,33.76,0,0,0,5.94.25.68.68,0,0,0,.44-.79,30.74,30.74,0,0,1-2.11-5.45c-.69-2.41-1.18-5.75-.39-8.4.14-.2.78-.58,1.08-.48a1.47,1.47,0,0,1,.93.92c.29,4.18-.14,8,2.36,11.3,1.08,1.72,2.95,2.06,4.28,3.39a2.9,2.9,0,0,1,.24,2.61l-3,4.42a9.55,9.55,0,0,0-1.62,3.15,12.63,12.63,0,0,0,0,3.58c-.19.1-.29-.19-.49-.29-.79-1.62-1.67-3.69-.84-5.6l3.79-5.85.15-.45a11.43,11.43,0,0,0-2.66-1.08,3.07,3.07,0,0,0-1,1L201,135.12a3.75,3.75,0,0,0-.3,2.21,10.09,10.09,0,0,0,.89,2.8,12.28,12.28,0,0,0,1.17,3.54c.94,1,2.22.1,3.4.39s1.62,1.72,2.79,2.07c2.66.88,5.51,1.37,8.16,2.4,1.38.44,3.34,1,4.57-.15,1.72-.93,2.16-2.74,2.46-4.47.54-.73,1.62-.44,2.41-.68,1.47-1,2-2.75,3-4.08l.2-.69a1.46,1.46,0,0,0-.94-.84h-5c-2.31.3-2.51,2.86-3.48,4.43a2.77,2.77,0,0,1-2.76,1.28c-2.36-.64-5.25-1-6.34-3.54a2,2,0,0,1,.35-1.87,31.16,31.16,0,0,1,4.22-4.22,8.7,8.7,0,0,0,5.41-4c.59-.84.49-2.06,1.47-2.7.3-.05,1-.07,1.15.22.44,1.43-.35,2.45-.8,3.68,5.36.54,9.51-1,14.72-.81,2.21,0,4.19.25,6.35.1s4.52-1,5.21-3.24c1-2.9-.38-6.19-.88-8.94l.6-.47c.34-.2.92.07,1.17.27a44.66,44.66,0,0,1,2,8.6c.39,2.51,1.48,4.14,2.85,6.25a10.63,10.63,0,0,0,11.31,4.27c5.3-.39,9.87,2.41,13.11,6.53v.25c-.1.19-.29.44-.54.39-2.8-2.16-5.6-4.47-9.19-4.91-3.62-.66-6.88,1.23-10.66-.3-4.56-1.5-6.47-4.31-8.4-8.8h-.4a.75.75,0,0,0-.53.65l.49,3c.59,2.46,1.38,5.36,4,6.49,2.06,1.23,4.07,3,6.63,2.31a15.54,15.54,0,0,1,12.43,2.8c1.13.64,2,1.82,3.24,2.26a4.12,4.12,0,0,0,4-.64c2.51-.83,3.1,2.31,4.82,3.44,1.52,1.47,4.56.86,6.58.86l-.05-.22a17.78,17.78,0,0,0-1.57-5.36"/><path id="path4967" class="cls-4" d="M297,148.29c-.24-1.13.05-2.7-.69-3.74-.64-.49-1.22-1.22-2.06-1-.69.59-1.72,1.28-1.57,2.31a35,35,0,0,1,1.33,4.86c.19.35,0,1,.54,1l3.14-1c.54-.88-.49-1.57-.69-2.4"/><path id="path4969" class="cls-4" d="M289,138.07c-1-.84-2,.39-2.5,1.13a12.63,12.63,0,0,0,2.06,3.24,2.29,2.29,0,0,0,1.72,1,2.74,2.74,0,0,0,1.72-.73,2,2,0,0,0,.59-1.62c-.94-1.28-2.41-2.07-3.59-3.05"/></g></g></svg>