<svg xmlns="http://www.w3.org/2000/svg" viewBox="0 0 216.64 299"><defs><style>.cls-1{fill:#fff;}.cls-2{fill:#c0a25e;}.cls-3{fill:#f7b7d3;}.cls-4{fill:#221e1f;}.cls-5{fill:#c5a55e;}</style></defs><title>Palermo</title><g id="Слой_2" data-name="Слой 2"><g id="Layer_1" data-name="Layer 1"><g id="layer2"><g id="g7655"><path id="path5816" class="cls-1" d="M114.71,293.82c31.86-13,58.72-30.37,75.86-49.07,12.44-13.56,19.74-27.6,22.58-43.44.78-4.35.85-11.43.85-83.71v-79H2.88l-.14,74c-.15,74.75,0,84.44,1.67,92.2,7.25,34.4,41.35,65.59,97,88.78,3.44,1.43,6.48,2.61,6.78,2.63A56.85,56.85,0,0,0,114.71,293.82Z"/><path id="path1449" d="M103.09,297c-2.75-1.1-5.55-2.23-6.24-2.53s-1.92-.8-2.75-1.13c-1.83-.74-24.37-11.95-26.44-13.16-9.25-5.38-23.85-15.28-28.54-19.33-.32-.28-1.54-1.29-2.72-2.25a215,215,0,0,1-15.59-15.73c-1.14-1.37-2.29-2.75-2.57-3.06A19.83,19.83,0,0,1,17,238.12a16,16,0,0,0-1.37-1.77A2.25,2.25,0,0,1,15,235.2a.75.75,0,0,0-.41-.66c-1.26-.5-8-13.14-9.82-18.38,0-.14-.22-.59-.39-1-.5-1.24-2.23-7.49-3.18-11.48-.83-3.51-.89-10-1-103.71L0,0H216.64V97.23c0,64.43-.18,98.66-.52,101.47a106.84,106.84,0,0,1-3.35,15c-.16.41-.34.92-.39,1.12a6.22,6.22,0,0,1-.23.63,2.81,2.81,0,0,0-.21.62,8.82,8.82,0,0,1-.7,1.5c-.35.62-.52,1.12-.38,1.12.68,0-6.58,13-9.38,16.73-.86,1.16-2,2.74-2.56,3.5a24.37,24.37,0,0,1-1.5,1.94c-.28.3-2.36,2.71-4.62,5.37a82.73,82.73,0,0,1-7.23,7.47c-1.72,1.47-3.59,3.12-4.16,3.67s-1.81,1.61-2.75,2.35-3.16,2.5-4.95,3.92c-5.68,4.52-16.41,11.6-26.45,17.46-2.09,1.22-22.45,11.31-24,11.88-1,.36-2.42.95-3.24,1.32-2.9,1.3-11.48,4.77-11.73,4.74S105.83,298.08,103.09,297Zm11.51-3.39c31.86-13,58.71-30.34,75.86-49C202.9,231,210.19,217,213,201.19c.78-4.35.85-11.42.85-83.63V38.69H2.77l-.15,73.88c-.14,74.68,0,84.35,1.67,92.1,7.26,34.37,41.36,65.53,97.05,88.69,3.43,1.43,6.48,2.61,6.77,2.63A55.91,55.91,0,0,0,114.6,293.6Zm-14.26-10.25c-10.6-4.61-17-7.67-17-8.13a7.6,7.6,0,0,1,2.26-1.83,52.73,52.73,0,0,0,5.6-4.49c4.9-4.49,23.35-23.75,31.86-33.28,13.84-15.47,14.78-16.43,17-17.53,2.44-1.18,7.25-1.48,8.22-.51.43.42.28,1-.57,2.11-.62.84-1,1.66-.86,1.81a10.69,10.69,0,0,0,3.51-.54c3.74-.93,7.4-1.05,8.85-.27,1,.51,1,.58.14,1.5s-.82.95.12.95a3.89,3.89,0,0,0,1.94-.73c1.36-1,3.74-.94,7.35.28,3.88,1.31,6.12,1.1,10.71-1a13.79,13.79,0,0,1,4.68-1.44c1.14.16,1.19.34,1.22,4.24,0,4.52.44,5.39,3.11,6.51l1.65.68-3.08,3.73a159.44,159.44,0,0,1-17.93,17.38c-9.79,7.88-26,17.86-40.18,24.77-7.19,3.51-20,9-20.84,9C107.86,286.51,104.32,285.08,100.34,283.35ZM69.65,268l-2.5-1.62,3.2-.15c3.83-.19,4.52.29,3,2.07l-1.16,1.31Zm-16.1-10.48c-.88-.62-1.61-1.3-1.61-1.5s1.22-.38,2.73-.38c2.22,0,2.75.16,2.75.82a3.14,3.14,0,0,1-2,2.16A9.09,9.09,0,0,1,53.55,257.47Zm-14-11.53-1.67-1.73,1.51-.33c1.5-.33,3.58.36,3.58,1.19a4.16,4.16,0,0,1-.88,1.51l-.87,1.08Zm-8.86-10.61c-.84.25-1.43-.17-2.9-2.06-1-1.3-1.67-2.42-1.45-2.49m163.57-2.43c-.7-1.68-.7-2.07,0-4.33,1.13-3.47,2.94-6.16,6.32-9.43,2.85-2.75,4.92-3.92,4.91-2.76,0,1.9-8.39,17.07-9.94,18C190.88,230.07,190.36,229.48,189.89,228.35ZM26.4,230.85c-.31,0-8.06-13.71-7.32-14.32s9-8.09,18.37-16.6,17.22-15.54,17.46-15.63c.51-.18,25.47,16.3,25.46,16.8,0,.18-7.92,2.41-17.59,5s-1.72,17.14-9,19.06-15.9-6.84-35.51-7.46m161.39-8.78c-8.38-4-20-10.42-19.85-11,.19-.84,23.49-26.67,26.71-29.62,3.92-3.59,7.59-5.22,11.74-5.22h3.36v-1.5c0-2.68-1.6-4.56-4.66-5.45a22.21,22.21,0,0,1-6.34-3.51c-4.49-3.41-5.87-3.64-13.45-2.3a72.54,72.54,0,0,1-10.35,1h-4.6l.5,1.31.49,1.3-5-.2-5-.2.31,1.64.3,1.64h-9.63l-2.82-2.89c-5.88-6-21.16-28.54-20.24-29.82.25-.35,19.21-17.66,42.13-38.47l41.68-37.84.14,10.21c.07,5.61.06,39.63,0,75.6-.18,69.57-.09,66.88-2.41,74-.46,1.43-.64,1.56-1.54,1.08a6.17,6.17,0,0,0-3.21-.22c-2.88.43-3-.7-.21-2.61,2.33-1.6,2.43-1.9.8-2.31s-3.24.3-5.52,2.71c-2.89,3-5.7,5-7.19,4.95A26.94,26.94,0,0,1,179.7,208.87Z"/><path id="path1495" class="cls-2" d="M84.27,1.78c.4.55,1.21,2.12,1,2.41,0,0,0,0,0,0v0h0v0h0l0,0a9.42,9.42,0,0,1-3-2C81.63,1.65,83.92,1.29,84.27,1.78ZM204.74,6.11A4.83,4.83,0,0,1,208.81,8c1.81,2.15,2.59,6,2.54,12.5-.06,7.68-.85,11.23-3,13.34a4.31,4.31,0,0,1-3.64,1.63c-1.64,0-2.24-.29-3.49-1.71-2.13-2.43-2.74-6-2.5-14.48.17-5.8.4-7.43,1.27-9.36A5.9,5.9,0,0,1,204.74,6.11ZM29.84,6.3h.27a.41.41,0,0,1,.11.07.38.38,0,0,1,.09.09l.05.06a2.83,2.83,0,0,1,.26.61c.31.81.19,1.24-.45,1.61a21.65,21.65,0,0,0-2.4,1.82c-2.35,2-2.11,4.68.87,9.71,3.58,6,3.71,9.13.52,12.32-2.29,2.29-4.59,3.18-5,1.95a12.82,12.82,0,0,0-.49-1.19h0v0h0v0h0a5.18,5.18,0,0,1,1.81-1.38c3.79-2.13,3.86-5.1.28-10.64-2.55-3.92-3.11-6.08-2.31-8.76A8.4,8.4,0,0,1,28.18,7,8.26,8.26,0,0,1,29.84,6.3Zm69,0,3,.33c6.68.7,7.72,2.63,7.72,14.31,0,6.88-.12,8-1.08,10.06a6.67,6.67,0,0,1-2.6,3.12,11.25,11.25,0,0,1-4.28.8H98.85V6.34ZM8,6.42V18.9c0,10.68.11,12.59.78,13.26a2.86,2.86,0,0,0,1.68.8c2.07,0,2.26-1.07,2.45-14.06l.19-12.4H15.5V19c0,13.62-.25,15-2.81,16-2.34.89-4.65.58-5.93-.81C5.16,32.43,4.92,30,5.11,17.23L5.26,6.75l1.38-.17Zm46.42,0V35h-3l.12-14.11.14-14.1,1.37-.17Zm-8.07.08h.41a4.51,4.51,0,0,1,1.89.19l.07.06,0,0,0,.06,0,0a.43.43,0,0,0,0,0,1.47,1.47,0,0,1,0,.7C48.72,8.47,48.27,8.81,47,9c-3.38.49-4.51,3.62-4.53,12.48,0,8.5,1,11,4.57,11.17a2.88,2.88,0,0,1,1.31.26l.13.1a1.68,1.68,0,0,1,.37,1.07,2.4,2.4,0,0,1,0,.94l0,.08-.05.07,0,0,0,0,0,0a3.61,3.61,0,0,1-1.54.16c-2.68,0-4.79-1.47-6.2-4.31-1.1-2.23-1.19-3-1.2-9.9,0-6.06.17-7.94.91-9.85C41.81,8.27,43.72,6.65,46.36,6.5Zm14.32,0H62c2.72,0,3.58,0,3.79.42a1.33,1.33,0,0,1,0,.7A1.39,1.39,0,0,1,64.53,8.9l-1.12.16V35h-3V9h-1.5c-1.53,0-1.74-.31-1.2-1.72C57.92,6.75,58.58,6.55,60.68,6.5Zm11,0H73c2.72,0,3.58,0,3.79.42a1.24,1.24,0,0,1,0,.7A1.39,1.39,0,0,1,75.51,8.9l-1.12.16V35h-3V9H69.9c-1.52,0-1.74-.31-1.2-1.72C68.9,6.75,69.56,6.55,71.66,6.5Zm40.66,0h3V35h-3V6.5Zm9.49,0,2.37,0c5.65.06,8.11,2.42,8.11,7.8s-1.56,7.68-5.62,8.42l-1.87.34V35h-3V6.5Zm25.45,0h2.5v26h2a3.35,3.35,0,0,1,1.7.22.24.24,0,0,1,.08.06s0,0,0,0l0,0a1.58,1.58,0,0,1,.16.89,1.72,1.72,0,0,1-.11.79c-.23.42-1,.46-3.13.46h-3.25V6.5Zm10,0h3c2,0,2.71.07,3.11.52a2.25,2.25,0,0,1,.33.6,2.18,2.18,0,0,1,.17.69v.06s0,0,0,.05v.05l0,0,0,0,0,0v0h0l-.09.06a4.5,4.5,0,0,1-1.47.24L160.24,9V20.48h2.24c1.41,0,1.94,0,2.14.43a2,2,0,0,1,.11.82,1.65,1.65,0,0,1-.15.87.77.77,0,0,1-.19.17,4.69,4.69,0,0,1-1.91.2h-2.24v4.75c0,3,0,4.1.33,4.51.18.21.45.23.87.23,1.86,0,2.79.51,2.79,1.54a1.22,1.22,0,0,1-.06.41,1,1,0,0,1-.11.17c-.32.31-1.17.38-3.32.38h-3.5V29.2c0-4.66-.14-5.82-.74-6.05a1.64,1.64,0,0,1-.75-1.49c0-.73.29-1.18.75-1.18l.06,0h.09a.49.49,0,0,0,.14-.11c.37-.44.45-2.07.45-6.85Zm10,0,2.37,0c5.63.06,7.6,2.1,8,8.25.21,3.28.08,4-1.16,6.52l-1.38,2.84,1.49,5.13,1.52,5.12-1.24.31a2.93,2.93,0,0,1-1.45.06l-.06,0h0l0,0,0,0c-.2-.31-1.12-2.92-2.09-5.94l-1.82-5.68,1.47-1.46c1.66-1.67,2.2-4.23,1.65-7.88C174.11,11.28,172.42,9,171,9h-.08c-.6.16-.69,2.13-.69,13V35h-3V6.5ZM84.7,7h0c.48.51,5.64,25.2,5.64,27.1,0,.64-.4.88-1.46.88s-1.5-.26-1.63-1.13-.43-1.12-2.9-1.12c-1.58,0-2.27,0-2.6.34l0,.05a1.45,1.45,0,0,0-.25.73C81.35,34.7,81,35,79.85,35a2.32,2.32,0,0,1-1.12-.19l0,0a.47.47,0,0,1-.14-.14s0,0,0,0a.09.09,0,0,1,0,0,1.82,1.82,0,0,1-.13-.79,2.05,2.05,0,0,0-.37-1.3l-.09-.06h0c-.72-.25,0-2.41.8-2.41a1.15,1.15,0,0,0,.53-.12s0,0,0,0h0s0,0,0,0h0l0-.05s0,0,0,0h0v0h0v0h0c.08-.81,5-21.81,5.31-22.64Zm52.89,0,0,0c.51.77,5.62,25.42,5.64,27.33,0,.36-.6.63-1.45.63-1.13,0-1.5-.26-1.62-1.13s-.43-1.12-2.9-1.12c-1.58,0-2.28,0-2.61.34l0,.05a1.29,1.29,0,0,0-.25.73c-.13.87-.49,1.13-1.62,1.13a2.89,2.89,0,0,1-1-.13.75.75,0,0,1-.15-.09l-.07-.05,0-.06a1.56,1.56,0,0,1-.19-.92,1.86,1.86,0,0,0-.3-1.13l-.06-.06a.35.35,0,0,0-.14-.06h0a.29.29,0,0,1-.17-.06l0,0,0,0c-.26-.48.34-2.06,1.13-2.64.44-.34,1.73-4.95,3.17-11.23,1.35-5.89,2.58-11,2.75-11.45Zm46.62-.84h0l0,0v0c.26.41,1.22,5.13,2.19,8.56a60.33,60.33,0,0,0,2.23,6.89v0h0a.12.12,0,0,0,.05.05l0,0h.07c.21,0,.46-.44.62-1.07,1.72-6.88,3.28-13.88,3.74-14.4l0,0h.08v0c.31.93,3.32,26.39,3.32,27.85,0,.56-.44.82-1.43.82h-1.45l-.59-5.12c-.5-4.24-.79-6.48-1.13-6.93,0,0,0,0,0,0v0h0l0,0h-.06l0,0h0c-.32.25-.75,1.8-1.45,4.48a39.93,39.93,0,0,1-1.7,5.59h0v0h0a.1.1,0,0,1,0,0h0a43.58,43.58,0,0,1-1.67-5.43,26,26,0,0,0-1.68-5.07l0,0h0l0,0,0,0h0v0s0,0,0,0v0a36.5,36.5,0,0,0-.89,5.57c-.32,2.88-.7,5.63-.84,6.11s-.76.88-1.74.88a2.81,2.81,0,0,1-1-.13l0,0h0a.38.38,0,0,1-.11-.11.09.09,0,0,1,0,0l0,0v0a1.62,1.62,0,0,1,0-.74c.13-.62,1-6.8,1.86-13.74.82-6.45,1.64-13.38,1.92-13.91v0Zm20.84,2.59a3.22,3.22,0,0,0-2.48,1.89c-.84,1.51-1.16,14.28-.45,18.1a8.48,8.48,0,0,0,1.29,3.52l.05,0,0,0c2.07,1.54,3.92-.16,4.41-4.07.51-4.07.06-16.83-.64-18.09A2.43,2.43,0,0,0,205.05,8.73Zm-103.21.19V20.68c0,11.2,0,11.78.94,11.78a4,4,0,0,0,2-.89c1.46-1.18,2.16-7,1.72-14.26-.35-5.79-1-7.33-3.57-8.06Zm23,.08V20h1.25c2.57,0,4.24-3.44,3.52-7.27-.4-2.18-1.86-3.71-3.52-3.71ZM84.5,20.48h0l0,0a.08.08,0,0,1,0,0s-.06.1-.09.17c-.6,1.44-1.75,8.16-1.56,8.91h0v0h0c.45.46,3,.3,3.33-.2a0,0,0,0,0,0,0h0s0,0,0,0,0,0,0-.05a24.74,24.74,0,0,0-.58-5,13.91,13.91,0,0,0-.95-3.79v0l0,0h0l0,0h0Zm52.86,0,0,0-.08.08a1.33,1.33,0,0,1-.06.12c-.59,1.44-1.74,8.15-1.54,8.9h0v0h0c.49.49,3.37.29,3.59-.22h0s0,0,0,0h0v0c0-.3-.37-2.6-.83-5.1a14.89,14.89,0,0,0-.92-3.68.59.59,0,0,0-.08-.08v0h-.08ZM18.49,32c.14,0,.31,0,.5,0a2.31,2.31,0,0,1,1.15.17l.05,0,.08.08a2.07,2.07,0,0,1,.22,1.22,2.69,2.69,0,0,1-.13,1,.47.47,0,0,1-.05.1l0,0c-.19.26-.57.32-1.29.32a2.54,2.54,0,0,1-1.11-.16l-.06,0c-.27-.19-.33-.57-.33-1.31a2.46,2.46,0,0,1,.16-1.14l0,0s0,0,0,0l.08-.08.09-.06A1.77,1.77,0,0,1,18.49,32ZM35,32c.14,0,.31,0,.5,0a2.31,2.31,0,0,1,1.15.17l0,0,.08.08A2.07,2.07,0,0,1,37,33.46a2.69,2.69,0,0,1-.13,1l0,.1,0,0c-.19.26-.57.32-1.29.32a2.54,2.54,0,0,1-1.11-.16l-.06,0C34,34.58,34,34.2,34,33.46a2.46,2.46,0,0,1,.16-1.14l0,0,0,0,.08-.08.09-.06A1.77,1.77,0,0,1,35,32Z"/><path id="path1362" class="cls-3" d="M114.53,291c31.11-12.69,57.33-29.66,74.07-47.93,12.15-13.24,19.27-27,22.05-42.43.76-4.25.83-11.17.83-81.77V41.7H5.33l-.14,72.24c-.14,73,0,82.48,1.63,90.06,7.09,33.6,40.39,64.07,94.76,86.72,3.36,1.39,6.33,2.55,6.62,2.57A56.48,56.48,0,0,0,114.53,291Z"/><path id="path2240" class="cls-1" d="M114.35,287.43c30.2-12.39,55.67-29,71.92-46.79,11.8-12.93,18.71-26.32,21.41-41.42.74-4.15.81-10.9.81-79.83V44.11H8.32l-.14,70.52c-.13,71.28,0,80.52,1.59,87.92,6.88,32.8,39.21,62.54,92,84.65,3.25,1.36,6.14,2.49,6.42,2.51A52.61,52.61,0,0,0,114.35,287.43Z"/><path id="path3115" class="cls-3" d="M114.15,284.32c29.16-12.07,53.75-28.19,69.45-45.55,11.39-12.59,18.07-25.62,20.67-40.33.72-4,.78-10.61.79-77.7V47.44H11.75l-.13,68.66c-.13,69.39,0,78.38,1.52,85.58C19.79,233.62,51,262.57,102,284.09c3.15,1.33,5.94,2.43,6.2,2.45A52,52,0,0,0,114.15,284.32Z"/><path id="path3990" class="cls-4" d="M114.15,284c29.16-12.07,53.75-28.2,69.45-45.55,11.39-12.59,18.07-25.63,20.67-40.33.72-4,.78-10.61.79-77.71V47.16L18.58,217.27c-.07.06.07.15.11.23C31.05,243,59.73,266,102,283.81c3.15,1.33,5.94,2.43,6.2,2.45A52,52,0,0,0,114.15,284Z"/><g id="g5810"><path id="path4867" class="cls-5" d="M64.51,39.3a1.4,1.4,0,0,0-.81.38c-3.52,3.5-4.4,7.1-3.49,14.12.37,2.88.32,3.15-.66,3.69-1.23.67-4.26-.5-7.13-2.76l-1.71-1.32L50,54.82c-2,4.08-3,9-3,15.1,0,5.6.11,6.33,1.42,9.36,2.72,6.33,1.76,8.21-3,5.79l-3.21-1.64h0l0,0a6.62,6.62,0,0,0-1,2.26A33.41,33.41,0,0,0,43,111.59c2.08,4.23.88,5.92-3,4.18a23.2,23.2,0,0,1-3.9-2.35,4.94,4.94,0,0,0-1.94-1.14h0l0,0a0,0,0,0,0,0,0,32,32,0,0,0-.69,4.73,44,44,0,0,0,4.26,23.63,13.32,13.32,0,0,1,1.54,4.56c-.22,1.62-2.44,1.25-5.66-.95a10.58,10.58,0,0,0-2.87-1.56h0v0h0a.43.43,0,0,0-.07.1c-.47,1.11-.08,8.77.65,12,1.43,6.36,5.48,13.15,10.09,16.92,1.27,1,10.86,7.69,21.3,14.79,14.51,9.85,18.51,12.76,19,13.83a.21.21,0,0,0,0,.07s0,0,0,.06v.06c0,.87-.4,1.22-1.83,1.6l-29.86,8.16c-15.4,4.22-28.44,7.75-29,7.83-1.24.19-4,1.27-4.17,1.59h0c0,.78,2.1,4.2,3.27,5.33,2,1.91,7,4.26,11.08,5.23,3.9.91,4.8,1.43,4.8,2.82,0,1.72-4,3.61-7.73,3.61a3.79,3.79,0,0,0-1.51.23l-.08.08h0v0h0a14.44,14.44,0,0,0,2.14,2.48c2.63,2.65,5.6,3.67,10.78,3.67,4.68,0,5.26.22,5.25,1.91,0,1.31-2,4-3.8,5.11a2,2,0,0,0-.41.31l0,0a.1.1,0,0,0,0,0h0v0l0,0v.06s0,0,0,0v0s0,0,0,0a.17.17,0,0,0,0,.07.6.6,0,0,0,.06.11,5.72,5.72,0,0,0,1,1,13.56,13.56,0,0,0,7.74,2.79,7.35,7.35,0,0,1,2.86.53c.44.24.72.31.85.23l.05,0a.73.73,0,0,0,0-.09v-.13h0v0l0,0h0a.35.35,0,0,1,.1-.11l0,0c.9-.53,4.83-.32,5.63.39l0,0,0,0c.9,1.12.42,2.44-1.21,3.3a7.8,7.8,0,0,0-1.73,1.12,4.23,4.23,0,0,1-1.62.68l-1.37.36,1,1.17a13.91,13.91,0,0,0,3.59,2.33c2.27,1.05,3.27,1.18,9.65,1.19a44.9,44.9,0,0,1,7.73.4h0a1.69,1.69,0,0,1,.59,1.28c0,1-2.26,3.66-4.12,4.92a3.73,3.73,0,0,0-1.25,1.2l0,0v0h0v0a6.45,6.45,0,0,0,2.07,1.42,12.69,12.69,0,0,0,8.91.46c6.21-1.85,14.2-9.89,49.28-49.59,7.9-8.94,9.44-10,14.25-10,3.35,0,4.35.71,3.95,2.84a3.54,3.54,0,0,0-.09.85.19.19,0,0,0,0,.07v0s0,0,0,0a.1.1,0,0,0,0,0l0,0,0,0s0,0,0,0h0l0,0a3.34,3.34,0,0,0,1.18-.14c5.26-1.15,10.14-.65,10.14,1a.72.72,0,0,0,.08.41l0,0h0a.19.19,0,0,0,.08,0,1.49,1.49,0,0,0,.73-.26c1.43-.79,3.48-.64,6.66.48,4.07,1.44,6.15,1.29,10.56-.76s5.46-2.14,6.66-.9c.7.71.78,1.45.51,4.53-.29,3.28-.22,3.79.67,4.71,1.34,1.38,2.72,1.41,2,.05-1.59-3.08.73-9.4,5.26-14.29,3-3.25,5.17-4.71,6.31-4.27h.06v0h0l0,0a.13.13,0,0,0,0-.05,3.55,3.55,0,0,0-3.13-1.45c-1.4.28-3.07-.36-3.07-1.17a8.27,8.27,0,0,1,1.53-2.25,6,6,0,0,0,1-1.47l0,0V204h0v0h0v0h0l0,0h0l0,0h0a.75.75,0,0,0-.23,0h-.08a22.33,22.33,0,0,0-4.58,3.77c-2.11,2.07-4.43,3.92-5.16,4.11-1.81.47-6.33-1.48-16.94-7.29-10.19-5.58-10.84-6-10.84-6.85s23.57-28,27.14-31.1c4.17-3.64,7.73-5.32,11.3-5.37,1.62,0,2.33-.08,2.63-.37l.07-.09a.75.75,0,0,0,.06-.13,2.07,2.07,0,0,0,.07-.56c0-1.68-1.93-3.52-4.66-4.42a18.24,18.24,0,0,1-4.92-2.82c-4.75-3.91-5.88-4.12-14.25-2.53a61.17,61.17,0,0,1-8.93,1c-2.24,0-3.1,0-3.42.37a.6.6,0,0,0-.09.13,1.09,1.09,0,0,0-.08.51c0,1.33-1.67,1.71-5.94,1.4a8.85,8.85,0,0,0-3,0,.31.31,0,0,0-.16.21,1.69,1.69,0,0,0,.09.71,1.33,1.33,0,0,1-.72,1.72c-1.4.77-7.65.67-9.54-.14s-5.82-5.08-9.73-10.48c-3.1-4.28-13.69-21-13.85-21.92a2.34,2.34,0,0,0-.69-1.09c-.45-.39-34-53.58-50.7-80.33C67.69,40.28,65.77,39.15,64.51,39.3ZM60.45,62.44h.08c.95.06,4.45,4.18,17.7,20.78,37,46.28,58.48,73.92,60.21,77.31.46.89.52,1.51.28,1.84a1,1,0,0,1-.15.14l-.08.05c-.7.34-2.33-.25-4.26-1.82-10-8.15-46.68-45-58.8-59.12-8.3-9.67-13.86-17.23-16.15-22-1.65-3.39-1.8-4.09-1.78-7.86C57.54,66.79,58.82,62.71,60.45,62.44ZM50.33,89.83a2,2,0,0,1,1.1.22c1.89,1.12,66.56,64.64,74.9,73.58,2.64,2.82,4.21,4.9,4.19,5.5v0a1.75,1.75,0,0,1-.23.6c-.7,1-2.78,0-7.84-3.65-10.18-7.29-28.86-21.58-55.28-42.33-5.48-4.3-10.54-8.62-11.27-9.6-3.42-4.62-5.87-12.11-6.44-19.74-.2-2.64-.21-3.71.07-4.19a.76.76,0,0,1,.08-.11s0,0,0,0a.48.48,0,0,1,.11-.09,1,1,0,0,1,.18-.09A1.56,1.56,0,0,1,50.33,89.83ZM43.7,120.62h.23c1,0,20.19,13.71,51.69,36.91,23.23,17.1,28.08,21,28.09,22.26a1.76,1.76,0,0,1-.08.62l0,.08a.64.64,0,0,1-.24.25,3.66,3.66,0,0,1-1.5.15,22.57,22.57,0,0,1-5.65-1.47c-9.73-3.72-29.61-14.59-54.8-29.94-8.16-5-11.74-8.67-15-15.56-1.78-3.7-3.49-9.36-3.49-11.59,0-.79.07-1.24.28-1.47v0l0,0,0,0,.08,0,0,0A1,1,0,0,1,43.7,120.62Zm-1.12,29.24a2.28,2.28,0,0,1,1.1.18c2.14.84,43.75,23.23,61.41,33.05,8.86,4.92,11.35,6.48,11.62,7.58a1,1,0,0,1,0,.56c-.47,1.24-2.71,1-9.49-.92-14.52-4.16-43.44-16.46-54.62-23.24-4.18-2.53-8.34-6.36-10-9.18C40.4,154,40.56,150.09,42.58,149.86Zm143.65,3.54c1.72,0,2.2-.35,2.55,0l0,0,.07.08a1.24,1.24,0,0,1,.12.23c.48,1.28-1,2.69-2.74,3.05-2,.41-1.87.42-3.81-.45a2.85,2.85,0,0,1-1.33-.89,1.82,1.82,0,0,1-.15-1.24c.15-1.38.48-.61,4.18-.75A4.37,4.37,0,0,0,186.23,153.4ZM89.62,205.75h.06a19.81,19.81,0,0,1,4.52,1.37c2.77,1.11,3.39,1.57,3.39,2.48s-1.22,1.6-10,5.17C74.19,220.22,61,225.12,54.42,227.06c-7.52,2.23-13.91,2.53-18.56.86-3.64-1.31-5.31-2.57-5.31-4a2,2,0,0,1,0-.27.66.66,0,0,1,.05-.15c.2-.43.94-.51,3.13-.51,3.51,0,3.45,0,36-10.93C79.86,208.67,88.64,205.88,89.62,205.75Zm12.46,4.69a5.86,5.86,0,0,1,1.18.05,24.55,24.55,0,0,1,4.43.93c3.57,1.22,2.87,2.06-6.74,8.08-15.59,9.76-28.56,16.79-36.13,19.57-4.3,1.57-12.72,2.07-15.61.93s-4.42-2.36-4.26-3.53c.11-.77.55-1.11,1.62-1.22,4.89-.5,11.69-3.47,36.24-15.91C97.27,212,100.16,210.57,102.08,210.44Zm13.53,2.61a4.14,4.14,0,0,1,.92.08c7.42,1.15,7.45,1.64.43,7.6C99.6,235.45,82.32,247,74,249.54c-3.58,1.08-7.68,1-10.19-.15-3.22-1.51-3.21-3.07,0-3.88S71,242.29,99,223.3C111.68,214.73,114,213.16,115.61,213.05Zm11.3,1.78L130,215c3.24.18,4.33.89,3.56,2.36-.89,1.69-23.34,25.4-29,30.67-7.25,6.74-7.25,6.85-11.59,8.81-7,3.16-20.11,2.58-12.39-1.78,3.24-1.82,6.84-4.65,29.06-24.69Z"/><path id="path5807" class="cls-1" d="M80.61,255.09c3.24-1.83,6.83-4.66,29.05-24.7l17.25-15.56L130,215c3.24.18,4.32.9,3.55,2.38-.89,1.68-23.33,25.39-29,30.66-7.25,6.74-7.26,6.85-11.6,8.81C86,260,72.89,259.44,80.61,255.09Zm-16.83-5.7c-3.23-1.51-3.2-3.08,0-3.88S71,242.3,99,223.3c15.13-10.24,15.53-10.48,17.5-10.17,7.43,1.14,7.45,1.65.43,7.61C99.59,235.46,82.32,247,74,249.55,70.39,250.62,66.28,250.56,63.78,249.39ZM49.21,240c-3-1.19-4.43-2.36-4.26-3.53.1-.77.56-1.11,1.62-1.22,4.9-.5,11.68-3.47,36.23-15.91,17.47-8.84,18.06-9.1,20.46-8.85a24.36,24.36,0,0,1,4.43.93c3.57,1.23,2.87,2.07-6.74,8.09-15.58,9.76-28.57,16.78-36.14,19.56C60.51,240.64,52.09,241.14,49.21,240ZM35.87,227.91c-3.65-1.31-5.32-2.56-5.32-4,0-.81.42-.93,3.2-.93,3.51,0,3.45,0,36-10.93,10.32-3.47,19.27-6.3,19.9-6.3a19.77,19.77,0,0,1,4.52,1.36c2.76,1.11,3.39,1.57,3.39,2.48s-1.22,1.61-10,5.17c-13.42,5.46-26.64,10.36-33.19,12.3C46.9,229.3,40.52,229.59,35.87,227.91Zm71.31-37.59c-14.53-4.16-43.45-16.47-54.63-23.24-4.18-2.53-8.33-6.37-9.94-9.19-2.56-4.5-1.94-9,1.07-7.85,2.14.84,43.75,23.23,61.41,33.05,10.45,5.81,12,6.92,11.57,8.14S114,192.26,107.18,190.32Zm9-10.9c-9.72-3.72-29.61-14.58-54.8-29.93-8.15-5-11.73-8.68-15-15.57-1.78-3.7-3.47-9.35-3.47-11.58,0-1.42.18-1.72,1-1.72s20.18,13.7,51.69,36.91c23.22,17.1,28.08,21,28.09,22.26,0,1-.25,1.13-1.85,1.11A22.84,22.84,0,0,1,116.2,179.42Zm6.25-13.31c-10.18-7.29-28.86-21.59-55.28-42.33-5.48-4.3-10.55-8.62-11.28-9.6-3.42-4.61-5.87-12.11-6.44-19.74-.26-3.56-.19-4.25.47-4.51a2,2,0,0,1,1.5.12c1.89,1.12,66.56,64.65,74.91,73.59,2.7,2.89,4.29,5,4.19,5.52C130.17,171,128.31,170.3,122.45,166.11Zm11.78-5.37c-10-8.15-46.69-45-58.8-59.12-8.3-9.66-13.87-17.23-16.16-22-1.65-3.39-1.8-4.08-1.78-7.85,0-5,1.34-9.11,3-9.36.85-.12,4.19,3.79,17.76,20.78,37,46.28,58.49,73.93,60.22,77.32C139.84,163.27,137.48,163.39,134.23,160.74Zm48.22-4.4c-1.36-.61-1.61-1-1.48-2.14.16-1.38.22-.61,3.92-.76,3.15-.12,3.81-.79,4.08-.08.48,1.28-.92,3.06-2.69,3.43C184.29,157.19,184.4,157.21,182.45,156.34Z"/></g></g></g></g></g></svg>