<svg xmlns="http://www.w3.org/2000/svg" xmlns:xlink="http://www.w3.org/1999/xlink" viewBox="0 0 299.45 300"><defs><style>.cls-1,.cls-8{fill:none;}.cls-2{clip-path:url(#clip-path);}.cls-3{fill:#0038a8;}.cls-4,.cls-6{fill:#fff;}.cls-5{fill:#d52b1e;}.cls-10,.cls-11,.cls-12,.cls-13,.cls-14,.cls-15,.cls-16,.cls-17,.cls-18,.cls-19,.cls-20,.cls-6,.cls-7,.cls-8,.cls-9{stroke:#000;}.cls-6,.cls-8{stroke-miterlimit:10;}.cls-6{stroke-width:1.84px;}.cls-10,.cls-11,.cls-12,.cls-13,.cls-14,.cls-15,.cls-16,.cls-17,.cls-18,.cls-19,.cls-20,.cls-7{fill:#009b3a;}.cls-7{stroke-width:0.49px;}.cls-8{stroke-width:0.74px;}.cls-9{fill:#fedf00;}.cls-11,.cls-9{stroke-width:0.3px;}.cls-10{stroke-width:0.38px;}.cls-12{stroke-width:0.4px;}.cls-13{stroke-width:0.42px;}.cls-14{stroke-width:0.43px;}.cls-15{stroke-width:0.41px;}.cls-16{stroke-width:0.49px;}.cls-17{stroke-width:0.42px;}.cls-18{stroke-width:0.32px;}.cls-19{stroke-width:0.42px;}.cls-20{stroke-width:0.39px;}</style><clipPath id="clip-path" transform="translate(-0.27)"><circle class="cls-1" cx="150" cy="150" r="150"/></clipPath></defs><title>Paraguay</title><g id="Слой_2" data-name="Слой 2"><g id="Слой_1-2" data-name="Слой 1"><g class="cls-2"><rect id="rect4" class="cls-3" width="299.45" height="300"/><rect id="rect6" class="cls-4" width="299.45" height="200"/><rect id="rect8" class="cls-5" width="299.45" height="100"/><path id="path2542" class="cls-6" d="M188,150a38,38,0,1,1-38-38A38,38,0,0,1,188,150Z" transform="translate(-0.27)"/><path id="path2618" class="cls-7" d="M168.4,144.09c-.93,0-.93,1-.93,1s0-.3,0,0,.15,1.16.84,1.23.95-.78,1-1.19c0-.16-.05-1-.87-1.06" transform="translate(-0.27)"/><g id="g4938"><path id="path2462" d="M126.15,165.2l-.32-.54a1.61,1.61,0,0,0-.26-.3.34.34,0,0,0-.25-.13.48.48,0,0,0-.52.37.91.91,0,0,0,.18.54l.33.56Zm3.22-.18-4.13,2.46L124,165.35a3.71,3.71,0,0,1-.43-1,1.15,1.15,0,0,1,.07-.73,1.4,1.4,0,0,1,.56-.6,1.44,1.44,0,0,1,.67-.2,1.31,1.31,0,0,1,.65.16,2,2,0,0,1,.44.35,1.42,1.42,0,0,1-.05-.42,1.74,1.74,0,0,1,.1-.33,2.76,2.76,0,0,1,.14-.34L127,161l.86,1.45-.86,1.43a1.33,1.33,0,0,0-.18.42.78.78,0,0,0,.09.37l.07.12,1.68-1Z" transform="translate(-0.27)"/><path id="path2466" d="M122.09,161.65l-1.26-3.78,1-.32.79,2.36.73-.24-.74-2.2.93-.3.74,2.18.89-.29-.8-2.43,1-.35,1.28,3.84Z" transform="translate(-0.27)"/><path id="path2470" d="M122.23,154l-.06-.36A.9.9,0,0,0,122,153a.51.51,0,0,0-.41-.13.7.7,0,0,0-.36.19.77.77,0,0,0-.08.58l0,.43Zm-1.87,1.72-.29-2.45a1.74,1.74,0,0,1,.24-1.25,1.43,1.43,0,0,1,1-.52,1.49,1.49,0,0,1,1.18.3,1.94,1.94,0,0,1,.56,1.28l.09.81,1.77-.21.18,1.49Z" transform="translate(-0.27)"/><path id="path2474" d="M120.19,146.31l.15-1.48,2.86.31a2.37,2.37,0,0,1,.77.22,1.49,1.49,0,0,1,.62.48,1.82,1.82,0,0,1,.34.64,3,3,0,0,1,0,1.05,4.73,4.73,0,0,1-.13.75,1.77,1.77,0,0,1-.73,1.14,1.66,1.66,0,0,1-.59.25,3,3,0,0,1-.82.05l-2.84-.3.15-1.48,2.92.31a.81.81,0,0,0,.63-.15.87.87,0,0,0,.29-.57.82.82,0,0,0-.16-.62.8.8,0,0,0-.59-.29Z" transform="translate(-0.27)"/><path id="path2478" d="M125,142.27l.26-.72a.8.8,0,0,0,0-.56.42.42,0,0,0-.29-.26.4.4,0,0,0-.37,0,.84.84,0,0,0-.31.47l-.25.71Zm-1.78-.63.21-.6a.67.67,0,0,0,0-.51.4.4,0,0,0-.28-.23.43.43,0,0,0-.35,0,.78.78,0,0,0-.26.41l-.23.62Zm-2.27.8.91-2.64a1.57,1.57,0,0,1,.69-.89,1.13,1.13,0,0,1,.92-.07,1.07,1.07,0,0,1,.6.5,1.17,1.17,0,0,1,.14.59,1.28,1.28,0,0,1,.65-.57,1.19,1.19,0,0,1,.81,0,1.33,1.33,0,0,1,.57.38,1.5,1.5,0,0,1,.29.61,1.77,1.77,0,0,1,0,.58c-.08.34-.12.55-.16.65l-.85,2.42Z" transform="translate(-0.27)"/><path id="path2482" d="M123.37,136.28l.78-1.27,3.09,1.87,1.21-2,1,.62-2,3.25Z" transform="translate(-0.27)"/><path id="path2486" d="M126.54,131.55l1-1.14,3.67,3.1-1,1.14Z" transform="translate(-0.27)"/><path id="path2490" d="M133.21,129l1.25-.53a2.39,2.39,0,0,1,.26,1,1.84,1.84,0,0,1-.18.87,3,3,0,0,1-.69.83,3.33,3.33,0,0,1-1.14.64,2.11,2.11,0,0,1-1.18-.07,2.79,2.79,0,0,1-1.21-.9,2.53,2.53,0,0,1-.68-1.81,2.85,2.85,0,0,1,2.3-2.27,2.11,2.11,0,0,1,1.31.37l-.82,1.06a1,1,0,0,0-.32-.15.78.78,0,0,0-.4,0,.9.9,0,0,0-.36.19.87.87,0,0,0-.34.81,1.72,1.72,0,0,0,.45.85,1.85,1.85,0,0,0,.88.69.82.82,0,0,0,.72-.21.78.78,0,0,0,.34-.59,1.46,1.46,0,0,0-.19-.74" transform="translate(-0.27)"/><path id="path2494" d="M138.07,126.07l-1.26-1.3.32,1.79Zm.75.79-1.51.77.16.81-1.36.69-.57-5.1,1.45-.74,3.79,3.46-1.38.71Z" transform="translate(-0.27)"/><path id="path2498" d="M144.66,121.85l.37,2.6.37-.06a1.35,1.35,0,0,0,.64-.19.7.7,0,0,0,.25-.41,2.23,2.23,0,0,0,0-.83,1.65,1.65,0,0,0-.39-1,1.07,1.07,0,0,0-.87-.16Zm-1.61-.87,2.18-.31a2.62,2.62,0,0,1,1.06,0,1.91,1.91,0,0,1,.74.41,2.22,2.22,0,0,1,.48.71,3.69,3.69,0,0,1,.25.91,2.78,2.78,0,0,1,0,1.2,2,2,0,0,1-.37.78,1.76,1.76,0,0,1-.61.47,3.26,3.26,0,0,1-.87.26l-2.18.31Z" transform="translate(-0.27)"/></g><path id="path2502" d="M149.59,120.05l4,.29-.08,1-2.48-.19-.06.76,2.3.17-.08,1-2.29-.16-.07.93,2.56.19-.08,1.09-4.05-.3Z" transform="translate(-0.27)"/><path id="path2506" d="M155.7,120.61l1.43.4-1,3.49,2.23.63-.32,1.13-3.66-1Z" transform="translate(-0.27)"/><path id="path2510" d="M163.81,125.94l.31.2a.9.9,0,0,0,.58.21.46.46,0,0,0,.35-.22.58.58,0,0,0,.09-.41c0-.14-.16-.28-.39-.44l-.35-.23Zm-.12-2.53,2.07,1.36a1.72,1.72,0,0,1,.79,1,1.41,1.41,0,0,1-.27,1.13,1.48,1.48,0,0,1-1,.71,1.92,1.92,0,0,1-1.34-.39l-.68-.45-1,1.49-1.25-.83Z" transform="translate(-0.27)"/><path id="path2514" d="M168.91,130.74l.83-1.6-1.59.86Zm-.51,1-1.21-1.19-.72.4-1.08-1.06,2.22-1,2.44-1.13,1.15,1.14-2.09,4.7-1.1-1.1Z" transform="translate(-0.27)"/><path id="path2518" d="M172.86,133.78l.34.54a2.54,2.54,0,0,0,.27.29.39.39,0,0,0,.25.12.48.48,0,0,0,.29-.07.46.46,0,0,0,.22-.32.85.85,0,0,0-.2-.53l-.34-.55Zm-3.21.29,4-2.59,1.33,2.08a4.19,4.19,0,0,1,.48.95,1.22,1.22,0,0,1-.06.73,1.36,1.36,0,0,1-.54.61,1.23,1.23,0,0,1-.67.23,1.43,1.43,0,0,1-.66-.14,2.17,2.17,0,0,1-.43-.34,2.08,2.08,0,0,1,.06.42c0,.07,0,.18-.08.33a2,2,0,0,1-.15.34l-.78,1.36-.91-1.42.81-1.45a1,1,0,0,0,.17-.43.56.56,0,0,0-.11-.37l-.06-.11-1.65,1Z" transform="translate(-0.27)"/><path id="path2522" d="M175.33,140.54l1.44-1.09-1.8.1Zm-.88.64-.57-1.59-.82.06-.53-1.43,5.14.06.56,1.52-3.91,3.34-.53-1.47Z" transform="translate(-0.27)"/><path id="path2526" d="M176.75,146.29l1-.13.29,2.29-2,.25a4.33,4.33,0,0,1-.75-1.08,3.45,3.45,0,0,1-.31-1.17,2.68,2.68,0,0,1,.12-1.42,2,2,0,0,1,.75-.95,3,3,0,0,1,1.28-.45,2.63,2.63,0,0,1,1.39.15,2.17,2.17,0,0,1,1,.83,2.93,2.93,0,0,1,.39,1.28,3.19,3.19,0,0,1,0,1.2,1.47,1.47,0,0,1-.37.71,1.85,1.85,0,0,1-.7.48l-.43-1.39a.74.74,0,0,0,.37-.35,1,1,0,0,0,.08-.55,1,1,0,0,0-.43-.73,1.64,1.64,0,0,0-1.11-.16,1.72,1.72,0,0,0-1.07.43,1.12,1.12,0,0,0-.23.86,1.74,1.74,0,0,0,.13.46,3,3,0,0,0,.31.49l.45-.06Z" transform="translate(-0.27)"/><path id="path2530" d="M179.8,153.5l-.17,1.47-2.84-.32a2.26,2.26,0,0,1-.79-.22,1.72,1.72,0,0,1-.61-.49,1.6,1.6,0,0,1-.33-.63,3,3,0,0,1,0-1.06c0-.23.08-.48.13-.75a2.08,2.08,0,0,1,.28-.67,2,2,0,0,1,.46-.46,1.83,1.83,0,0,1,.59-.25,2.66,2.66,0,0,1,.83,0l2.84.33-.17,1.46-2.91-.33a.85.85,0,0,0-.64.15.82.82,0,0,0-.28.57.78.78,0,0,0,.15.62.88.88,0,0,0,.58.3Z" transform="translate(-0.27)"/><path id="path2534" d="M175.37,159l1.81.07L175.72,158Zm-1.07-.05.55-1.6-.67-.48.5-1.43,3.95,3.28-.55,1.54-5.12.12.51-1.47Z" transform="translate(-0.27)"/><path id="path2538" d="M177,163.34l-.83,1.42h-1.9l.91,1.66-.83,1.41-1.46-3-1.73-1,.76-1.29,1.73,1Z" transform="translate(-0.27)"/><path id="path2546" class="cls-8" d="M181.83,150A31.83,31.83,0,1,1,150,118.17,31.83,31.83,0,0,1,181.83,150Z" transform="translate(-0.27)"/><path id="path2550" class="cls-8" d="M173.69,149.88A23.69,23.69,0,1,1,150,126.2,23.68,23.68,0,0,1,173.69,149.88Z" transform="translate(-0.27)"/><path id="path2554" class="cls-9" d="M150,141.36l2,5.69,6,.14-4.8,3.65,1.74,5.77-5-3.43-5,3.43,1.73-5.77-4.8-3.65,6-.14Z" transform="translate(-0.27)"/><path id="path2562" class="cls-10" d="M160.94,166.23a3.81,3.81,0,0,1-1.22.29c-.22,0-1.06,0-1.42,0-.2,0-.58.07-.78.07-1.74-.2,2.83-.17,3.42-.41m-4.56-1.35c.12-.2.69-1.47.89-1.83s.68-1.3,1-1.69c.14-.21.71-.83.85-.55a9.55,9.55,0,0,0-2.19,3.35,9,9,0,0,1-.5.81c-.11.14-.07.41-.25.44s-.06.05-.06.05S156.26,165.1,156.38,164.88Zm6.56,1a7.78,7.78,0,0,1-1.27-.29,6.58,6.58,0,0,0-2-.27,5.69,5.69,0,0,0-1.88.43,4.66,4.66,0,0,1-1.28.23s-.41.06-.22,0a8.77,8.77,0,0,0,.82-.59l.41-.56c.12,0,2.2-2.76,2-3.49.32-.54.69-1.51.55-1.67a6,6,0,0,0-2,.8,3.44,3.44,0,0,0-.79,1.46c-.11.4-.71.74-.71.74a4.27,4.27,0,0,0-1,2.36c-.17.89-2.37,1.39-2.37,1.39s-.61.22-.07.4c.1,0,.34.43.53.44s1.64-.55,1.85-.51.85.21,1.37.38a2.11,2.11,0,0,0,1.32.13,2.68,2.68,0,0,1,1.29,0,2.54,2.54,0,0,0,1.08,0,8.16,8.16,0,0,0,1-.48s.77-.33,1.21-.54.17-.3.17-.3" transform="translate(-0.27)"/><path id="path2558" class="cls-11" d="M157,168.51s-3-1.59-3.19-1.62-1.37-.72-2-.9a3.74,3.74,0,0,0-1.21-.16,8.75,8.75,0,0,0-1.32.25l.76.31,1.05.53c.49.26.51.58.51.58l2.75,1.21.55.4s.51-.7,2.06-.6" transform="translate(-0.27)"/><path id="path2566" class="cls-12" d="M160,162.22c1-.85,1.42-2.06,2.2-2.73.13.09.13.24,0,.51s-.35.36-.44.49-.63.61-.76.85a1.63,1.63,0,0,1-.68.78c-.41.25-.28.64-.32.81s-.67.64-1,1.2c-.06.59-.08.34-.44.55a25.27,25.27,0,0,0,1.44-2.46m-2.14,2.69c-.06.13-1.94,1.19-1.35,1s2.32-.78,2.81-1a5,5,0,0,0,1.42-1.26,17.24,17.24,0,0,0,2.14-2.35c.24-.55.46-1.3-.51-3a2.19,2.19,0,0,1-.51.65,10.51,10.51,0,0,1-.89.68l-.62.59s-2.2,4-2.49,4.66" transform="translate(-0.27)"/><path id="path2570" class="cls-10" d="M165.5,163.49l-1.3-.11c-.12,0-.78-.09-1.73-.09a1.87,1.87,0,0,0-1.56.59c-.27.3-1,1-1,1l.41,0a2.5,2.5,0,0,1,2-.5A4.32,4.32,0,0,0,164,164c1-.34.92,0,.81,0a5.4,5.4,0,0,1-1.45.3c-.73,0-1.36.18-1.65.18s-2.4.58-2.4.58,2.29.13,2.53.21a1.3,1.3,0,0,0,.95-.1,7,7,0,0,1,1.64-.56,3.12,3.12,0,0,0,.79-.32,1.39,1.39,0,0,0,.45-.53c.22-.4-.13-.29-.13-.29" transform="translate(-0.27)"/><path id="path2574" class="cls-10" d="M166.63,157.21a4.55,4.55,0,0,1,.89-1.53,2.79,2.79,0,0,1,.85-.39c.09,0,.75-.06-.08.16a1.65,1.65,0,0,0-1,.64,5,5,0,0,1-1.07,2,4,4,0,0,0-.64.95l-.42.14A4.91,4.91,0,0,0,166.63,157.21Zm3.72-.45a2.16,2.16,0,0,0-.59.27,3.55,3.55,0,0,0-1.81,1.41,3.93,3.93,0,0,1-1.56.9,8.4,8.4,0,0,0-1.7,1s-.3.06-.24.21.27,0,.27,0a10.34,10.34,0,0,0,2.77-.77,3.56,3.56,0,0,0,1.3-1.32c.22-.34.47-1,.48-.57,0,1.08-1.64,2.13-2.37,2.45a7.22,7.22,0,0,1-1.59.35c-.67.12-1.08.08-1-.06s.14-.26.32-.47c.32-.39,1.1-.52,1.67-.79a5,5,0,0,0,1.63-1.13,1.89,1.89,0,0,0,.53-.85,6.36,6.36,0,0,1,.5-1.62c.82-1,.94-1.34,1-1.8,0-.1-.42.24-.65.37a5,5,0,0,1-1.52.5c-.92.23-.9.83-1,1.11a2.16,2.16,0,0,1-.6.66,3.54,3.54,0,0,0-.78,1.1c-.12.27-.33.46-.5.44a7.79,7.79,0,0,1,.46-2.32,4.36,4.36,0,0,0,.15-1.17c0-.2,0-.73-.35-.79s-.37-.55-.37-.55c-.85.73-.38,2-.29,2.81a10,10,0,0,1-.17,2.18c.82.35.17,1.35-.08,1.67s-.78.39-1,.68-2,2.7-2,2.7l2.15-.6s.2,0-.12-.21.1-1.14.38-1.36a1.35,1.35,0,0,1,1.24-.11,4.69,4.69,0,0,0,2.21-.33,5.18,5.18,0,0,0,1.95-1.55,12.57,12.57,0,0,0,1-1.68c.19-.3.51-.88.31-.81" transform="translate(-0.27)"/><path id="path2582" class="cls-13" d="M164.27,162.53c.16-.06.18-.09.48-.42a.52.52,0,0,0-.42-.86c-.22,0-.46,0-.9.56s.2.8.44.83a1.1,1.1,0,0,0,.4-.11" transform="translate(-0.27)"/><path id="path2586" class="cls-14" d="M163.16,158.79c-.29.48-.44,1-.22,1.19a.91.91,0,0,0,.42.2,1.46,1.46,0,0,0,.9-.63c.26-.4.48-.84-.06-1.11a.73.73,0,0,0-1,.35" transform="translate(-0.27)"/><path id="path2590" class="cls-10" d="M164.78,153s0-.07-.14-.27a7.42,7.42,0,0,1-.67-.84,1.57,1.57,0,0,0-.79,1.23,7.41,7.41,0,0,1,0,1.45,4.5,4.5,0,0,1-.35,1.18,2.19,2.19,0,0,0,.11,1.63c.05.24.29,1,.29,1a1.94,1.94,0,0,1,.31-.17,2.92,2.92,0,0,1,.4,0,3.12,3.12,0,0,0,.37-1,6.8,6.8,0,0,0-.16-1.39,4,4,0,0,1,0-1.84,1.74,1.74,0,0,1,.66-.94" transform="translate(-0.27)"/><path id="path2594" class="cls-15" d="M165.66,154a.85.85,0,0,0,.5-.39,1.22,1.22,0,0,0,.16-.75.68.68,0,0,0-1.22-.2c-.62,1.28.56,1.34.56,1.34" transform="translate(-0.27)"/><path id="path2598" class="cls-16" d="M167.43,152.13c-.78,0-1.16,1.43-1.16,1.43a1.3,1.3,0,0,1-.54.61c-.44.28-.18.67-.18,1.36a7.34,7.34,0,0,1-.48,1.92l-.18.41s0,.31.3-.25c.48-1,1-.72,1.2-1.75.13-.76,1.39-1,1.39-1l-.35-.07c-1.32-.62.07-2.15.3-2.42s.46-.27-.3-.24" transform="translate(-0.27)"/><path id="path2602" class="cls-17" d="M167.21,153.78c-.36.76.65.8.88.67a2.19,2.19,0,0,0,.31-.31c.41-.59,0-1-.18-1s-.64-.12-1,.68" transform="translate(-0.27)"/><path id="path2606" class="cls-10" d="M165.29,150.83c.26.49,1,1.87,1.18,1.78s0-.33,0-.33a4.48,4.48,0,0,0-.14-.82,5.2,5.2,0,0,0-.33-1.41,7,7,0,0,1-1-1.39,4.73,4.73,0,0,1,0-1.84c0-.13.09,0,0-.18a8,8,0,0,0-1.05-.64,6.75,6.75,0,0,1,0,1c0,.16,0,.35-.08.62a3.24,3.24,0,0,0,.52,1.35c.45.88.66,1.42.9,1.84" transform="translate(-0.27)"/><path id="path2610" class="cls-10" d="M170.9,144.3a5.27,5.27,0,0,1-.37.55c-.1.1-1.62,1.41-1.71,1.47s-.87.31-1.59,2.26a8,8,0,0,0-.41,3.78l.35-.05.06-.19s.12-.64.21-1.14a5.91,5.91,0,0,1,1-1.66,6.75,6.75,0,0,0,.62-1.19,18.8,18.8,0,0,1,1-2.13c0,.68-2.58,4.88-2.86,6.31l.77-.11a18.69,18.69,0,0,0,2-2.5,6.74,6.74,0,0,0,.88-2.49c.1-.52.08-2.91.08-2.91" transform="translate(-0.27)"/><path id="path2614" class="cls-10" d="M165.72,144.74a2.24,2.24,0,0,0-.7-.48,11,11,0,0,1,.1,1.15c0,.43,0,1.16,0,1.55a3.34,3.34,0,0,0,.07,1.67A10,10,0,0,0,166,150a19.3,19.3,0,0,1,.58,2.38,31,31,0,0,1,0-3.45,7.42,7.42,0,0,0,0-2.5,4,4,0,0,0-.84-1.64" transform="translate(-0.27)"/><path id="path2626" class="cls-10" d="M167.51,142.11a4.23,4.23,0,0,0,.51-1.43,8.5,8.5,0,0,0,.06-1.15c0-.23-.1-.63,0-.65s0,.12.07.46c0,.12-.06.46-.08.89a3.84,3.84,0,0,1-.18,1.1c-.14.41,0,.87-.1,1s-.32.63-.32.63a2.05,2.05,0,0,0-.12.76c0,.37,0,.77,0,.77a.78.78,0,0,1,.56-.37s.08-.62.08-.82a13.26,13.26,0,0,1,.38-1.85,5.5,5.5,0,0,0,0-2.72,11.17,11.17,0,0,1-.13-1.29,2.51,2.51,0,0,0-.59,1.41c-.07.34.08,1.24,0,2.21a21.32,21.32,0,0,1-.6,2.83" transform="translate(-0.27)"/><path id="path2630" class="cls-10" d="M167.51,142.11l0,0,0,0" transform="translate(-0.27)"/><path id="path2634" class="cls-10" d="M166.06,136.5c.2,0,.2.22.16.38a4.34,4.34,0,0,0,0,.56,7.15,7.15,0,0,0,.15.78,1.37,1.37,0,0,1,.14.81c0,.31-.35.68-.24,1.2a6,6,0,0,0,.35.81,3.29,3.29,0,0,1,.06.9,1,1,0,0,0,.19.54s-.22.41-.29-.1a4.48,4.48,0,0,0-.22-1.12,2.41,2.41,0,0,1-.07-1.84,1.61,1.61,0,0,0,.09-.59,9.65,9.65,0,0,0-.2-1c0-.22,0-.69,0-.86m-1,2.47a3.5,3.5,0,0,0,.53,1.25,8.36,8.36,0,0,1,.41,1.05,3.24,3.24,0,0,1,.09.48c0,.07,0,.53,0,.53V143s-1-.61-1.5-.94-1-.77-1.3-1a3.84,3.84,0,0,1-1.27-2.21l-.41-.38a3.53,3.53,0,0,0,1.16,3.1,7.48,7.48,0,0,0,1.88,1.19c1,.45.86.86,1.28,1.74a12.57,12.57,0,0,1,.71,1.65c0,.26-.11,4-.11,4l0,.34s.91-3.48,1.35-3.87c0,0-.87-.13-.8-1.49l-.15-.9a3.64,3.64,0,0,1,.15-1.75,6.36,6.36,0,0,0,.26-2.29c-.09-.63-.12-.82-.19-1.43a21.91,21.91,0,0,0-.54-2.46,6.19,6.19,0,0,0-.33-.93c0-.13-.13-.57-.27-.57s-.2.56-.2.56-.18.62-.22.79a9.24,9.24,0,0,0-.52,2c0,.2,0,.75-.07.83a2,2,0,0,0,0,.5" transform="translate(-0.27)"/><path id="path2638" class="cls-10" d="M165.89,144.2a2.28,2.28,0,0,0-.31-.5,5.27,5.27,0,0,0-1.91-1.26c-1.18-.59-1.49-1.55-2.09-1.95a2.57,2.57,0,0,0-.81-.28s.52.72.65,1a2.82,2.82,0,0,0,.85,1.14,4.45,4.45,0,0,0,1.94,1,8,8,0,0,1,1.68.91" transform="translate(-0.27)"/><path id="path2642" class="cls-10" d="M162.17,138.62a6.36,6.36,0,0,0,1,1.94,9.47,9.47,0,0,0,2.86,2.12,8.12,8.12,0,0,0-.72-2.05,6.34,6.34,0,0,0-3.12-2.06s0-.06,0,.05" transform="translate(-0.27)"/><path id="path2646" class="cls-10" d="M164.87,139.2c.5-1.11-1-2.17-1.43-2.94.15-.13.34.2.51.42l1,1.28.21-1-1.8-1.64c0,.24-.57.43-.57.43-.27,1.52,2.13,3.46,2.13,3.46" transform="translate(-0.27)"/><path id="path2650" class="cls-10" d="M161.73,136.63a1.79,1.79,0,0,1-.59.19l.25.65.14.17s.56.82.89.92a9.23,9.23,0,0,1,1.17.36,9.38,9.38,0,0,1,1.71,1.21,18.6,18.6,0,0,1-2.44-3.48l-.23-.87-.64.05s.18.6-.26.8" transform="translate(-0.27)"/><path id="path2654" class="cls-10" d="M155.12,135.36a7.72,7.72,0,0,0,1,.71,8.94,8.94,0,0,0,2.36,1.05l1.25.17a.59.59,0,0,1,.54-.51l-1.49-.16a4,4,0,0,1-2.84-1.4c1,.58,2.34,1.5,3.45,1.45,4.58-.45-1.38-.57-1.9-.9a5.11,5.11,0,0,1-1-.9l-1.34-.06s-.66,0,0,.55" transform="translate(-0.27)"/><path id="path2658" class="cls-10" d="M160.52,138c.29,0,.5-.07.57-.4a.57.57,0,0,0-.52-.72.67.67,0,0,0-.84.36c-.19.44.5.72.5.72a.59.59,0,0,0,.29,0" transform="translate(-0.27)"/><path id="path2662" class="cls-10" d="M161,135.34c-.39,0-.52.32-.44.93s1.06.35,1.06.35l.17-.09s.13-.1.06-.59-.46-.6-.85-.6" transform="translate(-0.27)"/><path id="path2666" class="cls-10" d="M162.59,135.78h0" transform="translate(-0.27)"/><path id="path2670" class="cls-10" d="M162.57,135.78l.14-.05c.2-.08.4-.55.4-.55a.67.67,0,0,0-.36-.8c-.78-.16-.8.52-.8.52-.21.89.51.88.62.88" transform="translate(-0.27)"/><path id="path2674" class="cls-10" d="M159.12,132.73a2.09,2.09,0,0,0,.53.8,9.77,9.77,0,0,1,.79.87c.18.25.78,1.38.78,1.38a.25.25,0,0,0,.15-.1,5.92,5.92,0,0,0-.46-1.65,3.82,3.82,0,0,0-.79-1.05,8.29,8.29,0,0,1-.59-.71,28.93,28.93,0,0,1,2.34,3.54s-.05-.93-.1-1.43a4.34,4.34,0,0,0-.68-2.13,2.37,2.37,0,0,0-1.16-.92c-.39-.14-.85-.33-1.35-.49s-.12.3.07.7a4.36,4.36,0,0,1,.47,1.19" transform="translate(-0.27)"/><path id="path2678" class="cls-10" d="M157.21,135.14A2.7,2.7,0,0,0,159,136c1.06.17,1.15.1,1.15.1s.55-.27.27-.5a10.67,10.67,0,0,1-3.78-2.41s.13-.13.67.41a5.09,5.09,0,0,0,.71.62,11.89,11.89,0,0,0,1.38.82,6.45,6.45,0,0,0,1.05.34s.11-.23.2-.25-.06-.38-.71-.91a5.43,5.43,0,0,1-1-1s-.77-.17-1.61-.31c-.62-.09-1.8-1-1.78-.76a4.26,4.26,0,0,0,.49,1.55,6.37,6.37,0,0,0,1.13,1.46" transform="translate(-0.27)"/><path id="path2686" class="cls-11" d="M148.47,166.77c-.46.13-3.9,1.42-3.9,1.42l-1,.39A3.24,3.24,0,0,1,146,169l3.83-1.78s0,0-.1-.12a1.8,1.8,0,0,0-1.21-.28" transform="translate(-0.27)"/><path id="path2690" class="cls-18" d="M143.47,168.7a.09.09,0,0,0,0,.14c.19.1.14.14,1,.25a2.23,2.23,0,0,0,1.6-.24c.17-.19-2.17-.55-2.62-.15" transform="translate(-0.27)"/><path id="path2694" class="cls-19" d="M138,156.33l-.16-1.08a17.21,17.21,0,0,0-.53-3.49c-.06-.12,0-.43-.25-.43-.4,0-.4.91-.45,1.77-.65,4.32,2.8,7.62,2.8,7.62Z" transform="translate(-0.27)"/><path id="path2698" class="cls-20" d="M155,169.12s-.36-.08-.13-.36a1.82,1.82,0,0,1,1-.41,2.71,2.71,0,0,1,.76.1c.28.07.66.31.55.48a1.28,1.28,0,0,1-1,.38,3,3,0,0,1-.85-.07l-.33-.12" transform="translate(-0.27)"/><path id="path2682" class="cls-11" d="M151.28,167.07s-1.19-.55-2.31-1.09a11,11,0,0,1-4.48-3.56,17.86,17.86,0,0,0-3.22-3.74c-.34-.25-.39-.34-.51-.17s0,.28.06.44c.32.52,1.1,1.49,1.38,2,.49.93,1.49,1.95,1.48,2.55,0,.09-.29-.06-.29-.06a5.8,5.8,0,0,1-3.29-3.64,12,12,0,0,1-.56-3.68,11.07,11.07,0,0,0-1.24-4c0-.05-.55-.9-.62-.71a3.75,3.75,0,0,0,.09,1.16l.1,1.05s-.08,2.34-.08,2.49-.59,1.6,1.92,4.05c0,0,0,.42-.3.06a8.17,8.17,0,0,1-2.58-3.91c-.56-2.27-.64-4.54-.22-5.48a8.87,8.87,0,0,0,.83-4.75c0-.19-.09-.74-.21-.6s-.28,1-.41,1.31-.49.87-.58,1.17a4.49,4.49,0,0,0-.87,2.75,9.1,9.1,0,0,0,.5,2.52c.07.22.24.77.13.83s-.45-.66-.45-.66-1.59-3.12-.61-5.65a16.68,16.68,0,0,1,3.47-4.9s2-1.68,2.42-2.07c.16-.15.13-.26.07-.24a7.7,7.7,0,0,0-5.74,5.55s-.07.19-.17.14,0-.27,0-.27.85-3.27,3.25-4.76c2.61-1.63,2.3-1.39,3.17-1.9a4.89,4.89,0,0,0,1.64-1.8,2.94,2.94,0,0,0,.28-.8c0-.1-.15,0-.21.2a4.13,4.13,0,0,1-1.84,1.53c-1.11.39-2-.16-3.13,1.07a16.38,16.38,0,0,0-2,3s-.29.44-.35.43.06-.47.06-.47,1.49-3.17,2.69-3.81a23.38,23.38,0,0,0,3-1.8,34.38,34.38,0,0,0,2.77-2.79c.11-.11.87-.89,1-1.14s.35-.34.31-.37-.84.27-.84.27a12.4,12.4,0,0,0-6.41,4.8,5.56,5.56,0,0,1-.53.67,2,2,0,0,0-.39.73c-.16-.14,1.39-2.08,1.39-2.08l.27-1.25a10.74,10.74,0,0,1,1.42-3.21c.1-.12.67-.7.77-.82s-.37.18-.27.1-3.69,2.64-3.69,6a3.65,3.65,0,0,1-.88,1.89,6,6,0,0,0-1.07,2.68c-.18.92-.33,1.62-.33,1.62s0,.48-.12.44-.11-.43-.11-.43a31.14,31.14,0,0,1,.65-3.25c.26-.74.43-1.25.43-1.25a8.27,8.27,0,0,1,.26-2.89,19.91,19.91,0,0,1,1.38-2.36,6.71,6.71,0,0,0,.59-1.92c0-.13-.09,0-.25.35a8.65,8.65,0,0,1-1.41,2s-1.71,1.24-2.33,4.92c0,0,0,1.37-.23,3.53a14.34,14.34,0,0,0,.16,3.94c.11.54.33.55.19.61s.06,0-.14-.4a5.53,5.53,0,0,1-.42-2.3c0-1.92.17-3.47.17-3.47s.13-3.1-1.16-4.5c-.06-.07.22.63.35,1.33a7.84,7.84,0,0,1-.21,2.53,11.11,11.11,0,0,0-.64,4.45,22.22,22.22,0,0,0,1.66,4.85s.59.68.07,0a24.72,24.72,0,0,1-1.65-3.39,9.05,9.05,0,0,0-1.53-2.43,11.46,11.46,0,0,0-1.37-.95s-.55-.41-.13.14.76,1.22,1,1.56a18.15,18.15,0,0,1,1.16,2.19c.34.74,1.12,2.91,1.12,2.91l.5,1.38a6.12,6.12,0,0,1,1.29,1,9.56,9.56,0,0,1,1.8,3A5.63,5.63,0,0,0,137,157s-.12.24-.63-.65a16.18,16.18,0,0,0-2.23-3.91,12.65,12.65,0,0,0-3.43-2s1.61,2.79,2,3.29c.68.8,1.65,1.93,1.91,2.22s1.77,2.17,2,2.47a6.31,6.31,0,0,0,.77.86c.4.43,1.58,1.2,1.67,1.32s0,0-.06-.05c-.52-.31-1.15-.8-1.8-1.22a14.37,14.37,0,0,1-4.8-3.8c-.4-.68-.58-.95-.72-.88s1.13,4.51,3.87,5.92c0,0,3,1.34,3.69,1.74a16,16,0,0,1,1.45.83c.2.16-.17.15-.2.15a14,14,0,0,1-5.32-1.16s-.61-.43-.11.17a6.81,6.81,0,0,0,2.6,2.25,15.5,15.5,0,0,0,4.34,1.05,37,37,0,0,1,4,.23c.5.17,1.37.72,1.86.88s1.81.67,1.81.67.41.22.62.3,1.27.09,1.34-.1-.29-.43-.29-.43" transform="translate(-0.27)"/><path id="path2622" class="cls-10" d="M168.84,144.11c.31.12.44,1,.44,1s0-.52,0-.78-.13-1.23-.13-1.23l-.27.19a2,2,0,0,0-.51.72,1.14,1.14,0,0,1,.49.07" transform="translate(-0.27)"/></g></g></g></svg>