<svg xmlns="http://www.w3.org/2000/svg" viewBox="0 0 255.62 300"><defs><style>.cls-1{fill:#fff;}.cls-1,.cls-2,.cls-3{fill-rule:evenodd;}.cls-2{fill:#1d1d1b;}.cls-3{fill:#e30613;}</style></defs><title>Partizan</title><g id="Слой_2" data-name="Слой 2"><g id="Слой_1-2" data-name="Слой 1"><path class="cls-1" d="M130.18,5.34l-1.63,1.34-1.34.3h-.14l-1.19-.3-1.49-1.34-4.3,10.84v.15a2.82,2.82,0,0,1-.74,1l-1.34.15a1.82,1.82,0,0,1-1.34-.45l-4.3-4.3-7.72,10.54c-.15.44-.59.59-.89.74h-1.19a2.79,2.79,0,0,1-1-.3L96,18.56c-6.53,19.14-2.52,37.11,12,53.14a1.72,1.72,0,0,1,.59,1.48,1.46,1.46,0,0,1-.59,1.34,1.94,1.94,0,0,1-1.49.59,1.72,1.72,0,0,1-1.48-.59h.14c-11.43-12.47-16.92-26-16.32-40.23C71.1,40.08,55.37,49.88,41.27,64.13Q5.42,100,5.34,150.82t35.93,86.54C57.89,254,76.89,265,98.27,270a3.07,3.07,0,0,1,1.63.59L128,293.91l27.9-23.3a3.11,3.11,0,0,1,1.49-.59c21.52-5,40.67-16,57.15-32.66q35.85-35.85,35.92-86.54T214.5,64.13c-14.4-14.55-30.88-24.64-49-30.29.6,14.55-4.75,28.06-16.33,40.68a1.61,1.61,0,0,1-1.33.59,1.74,1.74,0,0,1-1.49-.59,1.72,1.72,0,0,1-.89-1.34,1.63,1.63,0,0,1,.89-1.48q21.6-24,12-53.14l-5.5,5.19-1.18.3h-1c-.45-.15-.74-.3-.89-.74l-7.72-10.54-4.45,4.3-1.19.45-1.34-.15c-.3-.3-.74-.6-.74-1.19L130.18,5.34Z"/><path class="cls-2" d="M163.43,27.76V33.1c18.86,5.64,35.93,15.89,50.92,31C238.4,88,250.12,117,250.42,150.67c-.3,34-12,62.64-36.07,86.54-16.63,16.77-35.48,27.61-57,32.81h.44a2.19,2.19,0,0,1,1.93.89l.6,1v1.49l-.75,1.34c22-5.35,41.42-16.78,58.64-33.7C243,216,255.32,186,255.62,150.67c-.3-35.18-12.62-65.32-37.41-90.11-16.18-16.18-34.29-27-54.78-32.8Z"/><path class="cls-2" d="M91.14,33.55V27.91C71.4,33.7,53.44,44.53,37.56,60.56,12.62,85.35,0,115.49,0,150.67,0,186,12.62,216,37.56,241.07c17.07,16.92,36.66,28.35,58.63,33.7l-.74-1.34v-1.49l.59-1c.3-.6.89-.89,1.93-.89h.3c-21.38-5.2-40.38-16-57.15-32.81C17.22,213.31,5.2,184.66,5.2,150.67c0-33.7,12-62.64,35.92-86.54C56,49.28,72.74,39,91.14,33.55Z"/><path class="cls-2" d="M155.86,270.61,128,293.77,99.9,270.61a2.47,2.47,0,0,0-1.93-.74,3.89,3.89,0,0,0-1.93.89,2.83,2.83,0,0,0-.59,2.08,2.38,2.38,0,0,0,.89,1.93L126,299.41,128,300l1.78-.59,29.69-24.64a2.41,2.41,0,0,0,.89-1.93c.29-.75,0-1.34-.6-2.08a2.91,2.91,0,0,0-1.93-.89,2.48,2.48,0,0,0-1.93.74Z"/><path class="cls-2" d="M163.14,37.7v5.79a112.49,112.49,0,0,1,44.23,27.76c22,21.82,33,48.39,33,79.42s-11,57.44-33,79.41C190,247.45,170,257.84,147.11,261.55v5.5q36.73-5.79,64.12-33.11,34.52-34.29,34.59-83.27,0-48.76-34.59-83.28A118.43,118.43,0,0,0,163.14,37.7Z"/><path class="cls-2" d="M91.14,44.09V38.3C74.07,43.79,58.49,53.59,44.53,67.39c-22.86,23-34.44,50.77-34.44,83.28,0,32.66,11.58,60.41,34.44,83.27,18,18.11,38.75,28.95,62.64,33v-5.64q-33.61-5.79-58.78-31.18-33-33-32.95-79.41c0-31,11-57.6,33-79.42Q67.54,51.89,91.14,44.09Z"/><path class="cls-2" d="M185.11,93.52C169.37,77.63,150.37,69.77,128,69.77S86.54,77.63,70.51,93.52c-15.59,15.73-23.45,34.88-23.45,57.15s7.86,41.41,23.45,57.3q24,23.6,57.45,23.6c22.41,0,41.41-7.87,57.15-23.6,15.73-15.89,23.6-34.89,23.9-57.3-.3-22.27-8.17-41.42-23.9-57.15ZM128,75.11q31.17,0,53.44,22.27c14.69,14.54,22.11,32.51,22.11,53.29s-7.42,38.74-22.11,53.44C166.55,219,148.74,226.22,128,226.22S89.21,219,74.37,204.11c-14.55-14.7-22.12-32.66-22.12-53.44s7.57-38.75,22.12-53.29C89.21,82.53,107,75.11,128,75.11Z"/><path class="cls-2" d="M178.28,100.35Q157.57,79.41,128,79.42c-19.6,0-36.37,7-50.47,20.93-13.81,14-20.79,30.72-20.79,50.32s7,36.51,20.79,50.32c14.1,14.1,30.87,21.08,50.47,21.08s36.51-7,50.32-21.08c13.95-13.81,20.78-30.58,20.78-50.32s-6.83-36.37-20.78-50.32ZM97.67,120.68l.3-.29a41.22,41.22,0,0,1,30-12.32,40.7,40.7,0,0,1,30.13,12.61l.15.15a40.58,40.58,0,0,1,12.32,29.84,41.6,41.6,0,0,1-12.32,30.13l-.6.6A41.63,41.63,0,0,1,128,193.27c-11.88,0-22-4-30.29-12.32-8.16-8.46-12.46-18.56-12.46-30.28a41.16,41.16,0,0,1,12.46-30Z"/><polygon class="cls-3" points="137.75 137.9 128.4 108.81 118.75 137.9 87.28 137.9 112.37 156.31 102.42 186.15 127.96 167.74 153.64 186.74 143.84 156.31 169.67 137.9 137.75 137.9 137.75 137.9"/><polygon class="cls-2" points="134.49 226.67 129 226.67 129 285.45 134.49 280.85 134.49 226.67 134.49 226.67"/><polygon class="cls-2" points="142.21 226.67 136.71 226.67 136.71 279.07 142.21 274.47 142.21 226.67 142.21 226.67"/><polygon class="cls-2" points="149.93 226.67 144.43 226.67 144.43 272.54 149.93 268.08 149.93 226.67 149.93 226.67"/><polygon class="cls-2" points="126.77 226.67 121.28 226.67 121.28 280.55 126.77 285.16 126.77 226.67 126.77 226.67"/><polygon class="cls-2" points="119.2 226.67 113.56 226.67 113.56 274.17 119.2 278.92 119.2 226.67 119.2 226.67"/><polygon class="cls-2" points="111.48 226.67 105.99 226.67 105.99 267.94 111.48 272.54 111.48 226.67 111.48 226.67"/><path class="cls-2" d="M128.4,6.53l1.78-1.19,4,10.84a2.31,2.31,0,0,0,.74.89l1.49.45,1.19-.6,4.45-4.15,7.57,10.54.89.59,1.19.15,1.18-.6,5.35-5.19c6.53,19.44,2.52,37.26-12.17,53.29a2.6,2.6,0,0,0-.6,1.48l.89,1.49a1.35,1.35,0,0,0,1.49.44,1.61,1.61,0,0,0,1.33-.59c16.63-18.26,20.64-38.3,12-60.71l-.89-.89L159,12.32l-1.34.74h.15l-6.08,5.79L144,8.31l-1-.74h-1.34l-.89.3-3.86,3.86L133,1.34l-.74-1h.15L131.07,0a2.73,2.73,0,0,0-1.18.3l-2.68,1.93L124.39.3a2.24,2.24,0,0,0-1.18-.3L122,.3l-.74,1-3.86,10.39-3.86-3.86-1.19-.3h-1.19l-.89.74-7.57,10.54-6.08-5.79-1.19-.74H95.3l-1.19.45-1,.89c-8.46,22.41-4.6,42.45,12,60.71a1.72,1.72,0,0,0,1.48.59,1.14,1.14,0,0,0,1.34-.44h.15l.59-1.49a1.91,1.91,0,0,0-.59-1.48c-14.55-16-18.56-33.85-12-53.29l5.49,5.19c.3.45.6.45,1,.6l1.19-.15c.3,0,.74-.45.89-.59l7.72-10.54,4.3,4.15,1.34.6,1.34-.45a1.54,1.54,0,0,0,.74-.89l4-10.84,1.78,1.19,1.19.45h.14l1.19-.45Z"/><path class="cls-3" d="M155.86,27.17l-7.27,7.57a65.27,65.27,0,0,1-5.2,30.72l3.27,1.19c8.46-13.8,11.58-27,9.2-39.48Z"/><path class="cls-3" d="M143.25,19l-7.43,7.57c3.12,10.84,3,23.31-.29,37.41l4.6,1.33C148.29,52,149.18,36.66,143.25,19Z"/><path class="cls-3" d="M128.25,64.42h3.27c5.94-16,5.19-33.25-2.38-51.51,0,22.72-.44,39.94-.89,51.51Z"/><path class="cls-3" d="M105.69,34.74l-7.42-7.57C96,39.63,99,52.85,107.62,66.65L111,65.46a62,62,0,0,1-5.34-30.72Z"/><path class="cls-3" d="M118.6,26.57,111,19c-5.93,17.66-5,33,3.12,46.31L118.9,64c-3.41-14.1-3.56-26.57-.3-37.41Z"/><path class="cls-3" d="M122.76,64.42H126c-.6-11.57-.89-28.79-.89-51.51-7.57,18.26-8.32,35.48-2.38,51.51Z"/><polygon class="cls-2" points="181.1 245.37 173.82 232.76 179.76 229.04 188.22 241.07 195.94 235.87 180.21 216.28 174.57 220.29 177.39 224.59 171.6 228.3 169.07 223.7 162.54 227.56 172.79 250.12 181.1 245.37 181.1 245.37"/><path class="cls-2" d="M199.36,194.46l-3.57,4.3,2.23,3.42-5.49,6.53-4-1-5.79,6.68,25.38,9.35,4.9-5.49-13.65-23.75ZM197.58,210l2.82-3.71,2.67,5.5L197.58,210Z"/><path class="cls-2" d="M231.12,186.15l-4.75-2.68-4.9,9.95-4-6.68L213,188.67l1.34,3s-6.83,1.48-6.83-4.46c0-4.89,8.31-5.64,8.31-5.64l-.29-1.78s-13.36-1.63-13.81,10.1c-.44,11.58,13.21,10.24,13.21,10.24l4.75,8.61,11.43-22.56Z"/><polygon class="cls-2" points="236.17 165.51 220.58 164.32 226.08 171.6 234.54 173.97 232.91 181.54 208.41 173.53 209.3 168.18 215.09 168.63 210.94 162.99 211.38 156.01 236.62 156.31 236.17 165.51 236.17 165.51"/><polygon class="cls-2" points="211.68 139.39 229.94 137.31 229.49 130.78 235.87 130.33 237.36 152.45 231.27 152.45 230.83 145.47 211.83 145.62 211.68 139.39 211.68 139.39"/><polygon class="cls-2" points="168.04 76 180.06 54.18 202.32 69.77 185.7 88.92 179.91 84.31 191.94 68.28 185.11 63.38 173.82 79.86 168.04 76 168.04 76"/><path class="cls-2" d="M213.16,81.94l-26,8.61,3.27,3.71,3.56-1,5.79,7-1.93,3.56,5,7.13,15.14-23.46-4.9-5.49ZM202,95.6l-3-3.71,5.49-1.64L202,95.6Z"/><path class="cls-2" d="M232.31,114.3l-6.53-14.1-22.12,12.32,2.82,6.23,3.86-1.78s4.16,7.13,5.35,9.21,5.19,5.93,12.46,2.52c9.36-4.45,4.16-14.4,4.16-14.4Zm-9.05,6.09c-5.94,2.37-7.72-4-7.72-4l9.05-3.86s3.71,5.79-1.33,7.87Z"/><path class="cls-2" d="M36.37,88.92,32.66,95.3l17.81,20.78,2.67-4.9-2.82-3,4.16-7.42,4.15.3,4.61-7.57-26.87-4.6ZM47.2,104.65l-3.56-4.9,5.79.74-2.23,4.16Z"/><polygon class="cls-2" points="44.24 165.51 26.27 168.93 27.16 175.46 20.78 176.5 17.66 154.53 23.6 153.93 24.79 161.06 43.64 159.28 44.24 165.51 44.24 165.51"/><path class="cls-2" d="M70.21,212.27l-3.41,1.34-6.53-6.39,1.78-3.56L56.26,197,43.49,221.92l5.35,4.9,25.08-11.13-3.71-3.42Zm-13.65,5.35,2.07-5.5,3.27,3.42-5.34,2.08Z"/><path class="cls-2" d="M86,223.4l-2.23,3.72L74.07,223c-2.37-1-7.72-1.63-11.43,5.49-4.9,9.06,5.35,14,5.35,14l13.5,7.28,10.4-23L86,223.4ZM75,239.14s-6.38-2.38-3.56-7c3.27-5.49,8.61-1.48,8.61-1.48L75,239.14Z"/><path class="cls-2" d="M52.1,187l-4,1.78s-.59-1.19-1.48-2.67l3.12-4.46-3.12-9.2-5,5.49c-1.93-1.93-5.49-3.56-11.13-.89-9.35,4.45-4.16,14.4-4.16,14.4l6.54,14.1,22.11-12.32L52.1,187ZM34,193.27s-3.71-5.79,1.34-7.87c5.94-2.37,7.72,4,7.72,4L34,193.27Z"/><polygon class="cls-2" points="43.05 140.87 18.11 139.09 17.66 148.14 42.9 148.14 43.05 140.87 43.05 140.87"/><polygon class="cls-2" points="24.34 134.64 27.61 122.91 44.38 137.46 49.73 118.46 44.38 115.93 42.31 123.06 25.53 108.36 18.55 133.3 24.34 134.64 24.34 134.64"/><polygon class="cls-2" points="63.53 60.86 71.7 55.96 84.61 77.34 80.6 80.75 65.76 80.16 70.95 87.58 66.06 92.18 47.35 75.56 53.59 69.32 71.4 72.44 63.53 60.86 63.53 60.86"/><path class="cls-1" d="M75.85,151.11l.3-2.82-5.34-.44.44-5.35-2.08-.14-.59,5.34-2.82-.3.44-6.08-2.37-.3-.74,9,12.76,1ZM71.7,117.42l-1.19,2.52,7.27,3.41c1.64.75,2.23,1.79,1.34,3.57-.89,2.08-2.38,1.78-3.56,1.18l-7.28-3.41-1.18,2.52,7.27,3.42c3.12,1.48,5.49.3,6.83-2.67s.89-5.79-2.23-7.13l-7.27-3.41Zm18.11-3L94,110.89c3-2.53,2.53-5.94.15-8.76C91.29,99,88,99,85.5,101.24l-4.15,3.56,8.46,9.65Zm-4.75-9.65,1.48-1.34c2.08-1.78,3.86-1.18,5.64.75,1.78,2.22,1.34,4,0,5l-1.78,1.64-5.34-6.09Zm23.45-8.91,3-.89a1.72,1.72,0,0,1,2.37,1.19c.3,1.34-.44,1.93-1.48,2.23l-3,.74-.89-3.27Zm-1.19,6.24,5.94-1.78c2.23-.6,4-2.23,3.41-4.75a3.18,3.18,0,0,0-3.26-2.53,2.83,2.83,0,0,0,1-3c-.74-2.37-2.53-2.67-4.9-1.93l-5.79,1.64,3.56,12.32Zm-.15-11,2.53-.74c.89-.3,1.93-.3,2.22.89.3,1-.29,1.63-1.18,1.93l-2.82.74-.75-2.82Zm19,6.83,2.82.15,1.33-2.82,4.75.44.74,2.83,2.82.29-3.86-13.21L132,85.5,126.18,98Zm7-9.2h0l1.34,4.75-3.42-.15,2.08-4.6ZM147.55,102l7.87,4.16,1.19-2.08-5.5-3,4.9-9.2-2.52-1.19L147.55,102ZM166,108.66c-2.38,2.08-1.64,5,.15,7.12,2.37,2.53,4.89,2.82,6.68,1.19,2.07-1.93.59-4.45.14-5.34-1.48-3-1.78-3.42-1-4.16a1.74,1.74,0,0,1,2.37.6c.89.89,1.34,2.07.3,3.11l1.78,2.08c2.23-2.08,1.33-4.6-.45-6.68-1.48-1.63-4-2.67-5.93-.89-1.79,1.63-1.19,3.56-.15,5.2.74,1.78,1.93,3.41.89,4.3s-2.23-.15-2.82-.74c-1-1.19-1.49-2.67-.15-3.71L166,108.66Zm8.9,19.3,1,2.67,3.86-1.34,2.08.89-4.16,5.64,1,3.27,5.64-7.72,6.39,3.12-1.19-3.27-6.68-3.12,5.05-1.63L187,123.8,174.86,128Zm4.61,20.48.14,2.82,12.77-.3-.15-2.82-12.76.3Z"/><path class="cls-1" d="M93.81,204.11l2.53,1.33,1.93-3.71,2.22-.59.75,6.83,3.11,1.63L103,200.25l6.83-2.08-3.12-1.63-6.83,2.22,2.52-4.6-2.52-1.33-6.09,11.28Zm19.45,8,8.91,1.64.44-2.38-6.23-1,1.93-10.24-2.82-.59-2.23,12.61ZM141,199.51l-2.82.44,1.19,7.87c.14,1.93-.3,2.82-2.38,3.12s-2.67-1-3-2.38l-1-7.87-2.82.45,1.19,7.87c.45,3.41,2.67,4.75,6.09,4.3s5.19-2.52,4.6-5.94l-1-7.86Zm11.58,3,2.67-1.48c1-.45,2.08-.45,2.67.74s-.15,1.93-1,2.38l-2.67,1.48-1.63-3.12Zm.15,6.39,5.49-3c2.08-1,3.41-3.12,2.23-5.35a3,3,0,0,0-3.57-1.78,2.71,2.71,0,0,0,.3-3.11c-1.19-2.08-3-2.08-5.2-.89l-5.19,2.82,5.94,11.28Zm-2.53-10.69L152.6,197c.89-.59,1.78-.74,2.37.3a1.45,1.45,0,0,1-.74,2.23l-2.52,1.33-1.49-2.67Z"/></g></g></svg>