<svg xmlns="http://www.w3.org/2000/svg" viewBox="0 0 214.38 300"><defs><style>.cls-1{fill:#424242;}.cls-2{fill:#7f7f7f;}.cls-3{fill:#c4c4c4;}.cls-4{fill:#fefefe;}.cls-5{fill:#feeb00;}.cls-6{fill:#e12118;}.cls-7{fill:#0061a8;}.cls-8{fill:#55ab42;}.cls-9{fill:#fdfdfd;}.cls-10{fill:#0060a7;}.cls-11{fill:#f6f6f6;}.cls-12{fill:#f4f4f4;}.cls-13{fill:#52a640;}.cls-14{fill:#d1d1d1;}.cls-15{fill:#4a963a;}.cls-16{fill:#8d8d8d;}.cls-17{fill:#e3e3e3;}.cls-18{fill:#941610;}.cls-19{fill:#010101;}.cls-20{fill:#090909;}.cls-21{fill:#fcfcfc;}.cls-22{fill:#f8f8f8;}</style></defs><title>Plzen</title><g id="Слой_2" data-name="Слой 2"><g id="Слой_1-2" data-name="Слой 1"><path d="M125.57.53c19.38,1.37,38.51,4,56.86,10.82,2,.77,2.55,1.68,2.51,3.89-.33,21,10.69,37.07,28.12,44.32,1.63.68,1.16,1.61,1.16,2.53q.06,21.87,0,43.74c0,20.51.43,41-.21,61.53C213,201.45,200.36,231,176.91,255.79c-18.74,19.81-41.22,34-66.69,43.59a8.17,8.17,0,0,1-6.29,0C69.73,286.1,41,265.77,20.84,234.59,6.86,213,.23,189,.09,163.35c-.18-33.48,0-67-.09-100.45C0,60.81.65,60,2.57,59,19.9,50.58,28.7,36.55,29.29,17.35c.15-5.06,0-5.1,4.85-6.81,15-5.3,30.46-7.84,46.19-9.37C83.54.86,86.84,1.16,90,0h1.21c1.19.66,2.48.15,3.72.31C96.45.14,98.07.68,99.6,0h15.09c1.58.66,3.24.15,4.85.31h3C123.56.4,124.59.11,125.57.53Z"/><path class="cls-1" d="M119.56.55c-1.63-.19-3.36.65-4.87-.55h4.83c.18.11.25.23.2.35S119.61.55,119.56.55Z"/><path class="cls-1" d="M99.6,0c-1.51,1.2-3.24.37-4.87.54-.16-.13-.21-.26-.14-.37s.13-.17.19-.17Z"/><path class="cls-2" d="M94.78,0a1.4,1.4,0,0,1,0,.54c-1.2-.13-2.53.62-3.57-.54Z"/><path class="cls-3" d="M125.57.53l-3,0c-.23-.09-.31-.2-.25-.32s.13-.19.2-.19h3A1.06,1.06,0,0,0,125.57.53Z"/><path class="cls-2" d="M122.53,0a4.4,4.4,0,0,0,0,.51l-3,0a1.45,1.45,0,0,1,0-.55Z"/><path class="cls-4" d="M47.65,261.82c-12.47-11.45-22.93-23.91-30-38.73C8.1,203,8.4,210.2,16.41,190.27c18.57-46.25,50.39-80.59,95-103a238.61,238.61,0,0,1,75-22.83c7.67-1.06,15.36-1.73,23.09-2.11,1.58-.08,1.86.34,1.86,1.73,0,13.27-.08,26.54,0,39.82,0,2.53-1.64,2.1-3,2.14a179.55,179.55,0,0,0-38.67,5.59c-29.09,7.33-55,20.56-76.16,42.14-19.6,20-31.92,44-39.21,70.79A236.67,236.67,0,0,0,47.65,261.82Z"/><path class="cls-5" d="M123.21,134a150.67,150.67,0,0,1,27.24-13.33,191.31,191.31,0,0,1,58.74-11.9c2-.09,2.17.64,2,2.15-3.36,37.32-19,66.74-53.83,83.86-1.11.55-2.48,1.89-2.88-.88-3.29-22.45-13.93-41.19-29.29-57.51-.48-.51-1-1-1.43-1.54C123.61,134.64,123.47,134.39,123.21,134Z"/><path class="cls-6" d="M119.51,291.42c20.16-19.37,31.82-43.05,35.45-70.68a74.23,74.23,0,0,0,.36-19.53,2.46,2.46,0,0,1,1.61-3.05c28.54-12.86,45.56-35.26,53.66-65,.08-.28.16-.55.23-.76.29-.23.41-.16.41.15-.08,14,.68,27.93-.52,41.87a127.38,127.38,0,0,1-27.28,69.29c-16.91,21.54-38.44,37.14-63.27,48.37C119.52,292.28,119.36,292,119.51,291.42Z"/><path class="cls-4" d="M161.75,8.5c6.57,1,12.8,3.18,19.05,5.34,1.32.45,1.2,1.29,1.22,2.32.15,10.45,2.53,20.25,8.56,29a83.32,83.32,0,0,0,7,8.5q-90.16-32.2-180.46-.33A52.29,52.29,0,0,0,29.66,32.94a43,43,0,0,0,2.39-15.38c-.14-2.65.92-3.57,3.22-4.38C47.65,8.83,60.43,6.39,73.4,4.83a287.27,287.27,0,0,1,62.25-.58c4.69.46,9.36,1.24,14,1.87a8,8,0,0,1,1.76,1q3.87,4.8,9.07,1.48A3.47,3.47,0,0,1,161.75,8.5Z"/><path class="cls-4" d="M58.46,222.42A150.27,150.27,0,0,1,86.84,165.7,142.54,142.54,0,0,1,118.36,137c1.38-.92,2.26-1.28,3.68.2,15.71,16.32,26.42,35.18,29.87,57.83.25,1.67-.25,2.27-1.69,2.8a128.25,128.25,0,0,1-40.29,7.74c-3.11.12-6.24-1.37-9.4-1.73-17.1-2-30.85,4-41.31,17.63C59,221.82,58.72,222.12,58.46,222.42Z"/><path class="cls-7" d="M8.71,201.44A131.2,131.2,0,0,1,3,164.52c0-33.16,0-66.31-.06-99.47,0-2.27.68-3.36,2.82-4.16Q16,57.07,26.46,53.57c2.17-.73,3-.62,3,2q-.11,50.18,0,100.37a6.3,6.3,0,0,1-.9,3.43,211.49,211.49,0,0,0-19,40.52A16.11,16.11,0,0,1,8.71,201.44Z"/><path class="cls-6" d="M32.11,152.91V63.67c0-2.91.22-5.85-.06-8.73-.25-2.6.89-3.46,3.16-4.06,7.27-1.93,14.57-3.71,21.9-5.4,2.24-.51,2.72.09,2.71,2.26q-.14,35.1-.11,70.21a4.12,4.12,0,0,1-1.15,3.26A200.47,200.47,0,0,0,32.94,152.3C32.84,152.45,32.64,152.53,32.11,152.91Z"/><path class="cls-7" d="M62.71,117.26c-.76-3.08.06-5.54,0-8-.07-20.29,0-40.57-.09-60.86,0-2.82.41-4.24,3.68-4.65,7.06-.87,14.1-1.9,21.18-2.65,2.08-.22,3,.12,3,2.6-.09,16.57,0,33.14,0,49.72,0,1.17.16,2.3-1.15,3.14A195.23,195.23,0,0,0,62.71,117.26Z"/><path class="cls-6" d="M93.66,93.75c-.72-8.7-.43-16.93-.46-25.14,0-8.44,0-16.87,0-25.3,0-1.87.43-2.79,2.46-2.78,7.62.06,15.25,0,22.88,0,1.48,0,2.34.34,2.35,2.2.07,11.84-.35,23.68.21,35.52a1.72,1.72,0,0,1-1.2,1.84A227.32,227.32,0,0,0,93.66,93.75Z"/><path class="cls-8" d="M98.38,289.72c20.24-2.43,34.74-15.4,38.91-34.79,3.64-17-4.21-35.28-19.22-44.77-.8-.51-1.85-.74-2.47-1.89,10.59-1.08,20.93-2.75,30.94-6.07,6-2,6.11-2,6.18,4.29.34,28.24-9.37,52.82-27.2,74.42a85.49,85.49,0,0,1-15.88,14.69,5,5,0,0,1-5.47.77c-4.33-1.85-8.77-3.44-13-5.63.25-1.45,1.39-.69,2.12-.78C95,289.75,96.71,290.17,98.38,289.72Z"/><path class="cls-7" d="M123.74,59.45c0-5.43.06-10.86,0-16.28,0-1.76.56-2.29,2.26-2.13q12,1.11,23.87,3.07c1.25.21,1.61.93,1.6,2.11-.07,6.93-.12,13.86-.1,20.79,0,1.55-.77,2.06-2.08,2.43A211.12,211.12,0,0,0,126,77.56c-1.74.73-2.28.35-2.25-1.53C123.79,70.5,123.74,65,123.74,59.45Z"/><path class="cls-4" d="M104.26,272.94c-1.35,0-8.61-8.33-8.15-9.22,1.33-2.57,3.08-4.94,4.27-7.57,1.69-3.72,4.27-6.12,8.29-6.95a12.24,12.24,0,0,0,1.69-.61c7.94-3,7.91-2.93,13,4a2.35,2.35,0,0,1,.38,2.67c-1.77,4.13-3.46,8.3-5.18,12.45-.23.54-.3,1.25-1,1.44C113.06,270.47,108.54,271.73,104.26,272.94Z"/><path class="cls-6" d="M154.13,56.58c0-3.11.05-6.22,0-9.33,0-1.51.34-2.31,2-1.94,8.13,1.74,16.4,3.21,24.13,6.22,3.51,1.37.72,5.78,1.44,8.71.31,1.27-.26,2.06-1.66,2.27a236.42,236.42,0,0,0-24.42,5.14c-1.5.39-1.69-.17-1.67-1.43.05-3.21,0-6.42,0-9.64Z"/><path class="cls-4" d="M96.76,225.26a3,3,0,0,1-.16.61c-2.3,4.33-4.39,8.79-7,12.91-1.1,1.72-3.89,1.31-5.72,2.25-3.76,1.94-6.19.81-8.76-2.4-4.37-5.46-4.38-5.18-1.7-11.54,1.56-3.72,3.71-6.24,7.68-7.11.77-.17,1.48-.64,2.24-.87,2.36-.73,5.14-3.27,6.85-2.2,2.63,1.66,4.24,5,6.26,7.55A3.11,3.11,0,0,1,96.76,225.26Z"/><path class="cls-4" d="M79.52,264.79c-1.06.28-1.46-.36-2-1-4.66-5.89-4.08-5.66-1.41-12.68,2.52-6.67,8.16-7.05,13.4-8.74,1-.33,1.45.44,2,.93,2.41,2.11,4.75,4.3,7.23,6.33,1.18,1,1.23,1.71.43,3a52.49,52.49,0,0,0-4,7c-1.25,2.81-3.21,3.93-6.2,4.08C85.76,263.82,82.6,264.4,79.52,264.79Z"/><path class="cls-4" d="M116.22,225c-5.46-.43-10.45-.87-15.45-1.18-1.62-.1-2.15-1.32-2.91-2.31-1.68-2.23-4.54-4.51-4.56-6.79,0-2.51,3.45-4.35,5.16-6.68a2.77,2.77,0,0,1,3.09-1.16,40.1,40.1,0,0,1,20.69,10.24c.46.44,1.37.76.62,1.64-1.69,2-3.42,3.92-5.13,5.88A1.51,1.51,0,0,1,116.22,225Z"/><path class="cls-4" d="M125.62,220.66a39.23,39.23,0,0,1,9.59,25.94c0,.77-.14,1.37-1,1.56-.19,0-.34.22-.53.28-2.53.86-5.43,3.66-7.28,2.67-2.69-1.42-4.33-4.83-6.42-7.39-.49-.61-.33-1.34-.36-2-.08-2,.18-4.08-.25-6C117.88,229.24,120.29,224.45,125.62,220.66Z"/><path class="cls-4" d="M63.2,258.18a4,4,0,0,0,.45,0c6.64-1.21,9.27,3.56,12.08,8.08a3.09,3.09,0,0,1,.27,2.31,30,30,0,0,1-.9,5c-.43,1.28.63,3.55-1.51,3.71s-4.68.81-6.74-1.32a65.05,65.05,0,0,1-8.23-10.68c-1.54-2.44-.72-4.12.49-6.23S62,258.48,63.2,258.18Z"/><path class="cls-9" d="M98.9,286.72c-1.1-.1-2.13.69-2.74-.31s.14-1.88.8-2.65a1.06,1.06,0,0,0,.19-.24c4.1-8.15,12.16-9.27,19.8-11,2.46-.55,2.12,2.28,3.15,3.47s.16,1.88-.77,2.58A40.82,40.82,0,0,1,98.9,286.72Z"/><path class="cls-9" d="M56.94,238.86c-.9-.42-2.19-.19-1.68-2.06a41.32,41.32,0,0,1,10.6-18.56c.84-.85,1.37-.7,2.26-.14,5,3.11,4.44,2.9,2.58,8.44-2.22,6.62-7.61,9.08-12.94,11.93C57.5,238.61,57.22,238.73,56.94,238.86Z"/><path class="cls-10" d="M203.91,59.62c-5.56.62-11.14,1.19-16.7,1.89-2,.26-2.57-.32-2.58-2.35,0-6.7-.1-6.72,6.13-4.6,4.44,1.51,8.85,3.07,13.27,4.6Z"/><path class="cls-11" d="M73.44,280.5c7.14-.08,13.11,3.59,19.52,5.83A31.14,31.14,0,0,1,73.44,280.5Z"/><path class="cls-12" d="M55.9,258.51a38.1,38.1,0,0,1-1.62-15.9c0-.44-.13-1.11.49-1.23.83-.16.92.56,1,1.14.67,4.23,1.41,8.46,1.95,12.71C57.88,256.41,56.89,257.32,55.9,258.51Z"/><path class="cls-13" d="M57.75,269.89c-8.72-6.72-7.84-3.29-6.15-15.79C53.28,260.12,54.86,265.27,57.75,269.89Z"/><path class="cls-14" d="M153.9,6.74l3.59.61c.6.24,1,.59.74,1.3-2.45,1.8-2.87,1.7-4.63-1.12A1.1,1.1,0,0,1,153.9,6.74Z"/><path class="cls-15" d="M98.38,289.72c-2.24,1.39-4.93-.37-7.17,1-.55-.14-1.13-.22-1.45-1Z"/><path class="cls-16" d="M158.12,8.42l-.63-1.07c1.41.43,3,0,4.26,1.15a.52.52,0,0,1-.59.56C160.19,8.64,158.94,9.55,158.12,8.42Z"/><path class="cls-17" d="M153.9,6.74l0,.62c-1,.81-2,.48-2.92-.1a2.08,2.08,0,0,1-1.27-1.14Z"/><path class="cls-18" d="M119.51,291.42l.65.66c-.47.51-1.15,1.17-1.66.49C118.12,292.08,119,291.7,119.51,291.42Z"/><path d="M161.8,93.09c4.59,2.07,7.38,5.94,10.82,9.12-3.9,2.48-5.4,2.37-8.46-.47-1.69-1.57-3.38-3.15-5.14-4.63a7.18,7.18,0,0,0-2.57-1.49c-2.57-.68-3.71.53-3,3,.66,2.31,1.22,4.66,2.05,6.91s-.68,2.21-2.05,2.61-2.56,1.1-3.16-1.1q-3.21-11.75-6.68-23.4c-.44-1.5-.23-2.06,1.38-2.43,3.71-.86,7.32-2.09,11-2.94,4.36-1,7,.23,8.8,3.74,2,3.93,1.27,7.4-2.06,10.22C162.47,92.49,162.19,92.74,161.8,93.09Z"/><path d="M131,116.45a9,9,0,0,1-4.74-1.09c-6.47-3.18-10.72-13.37-8.38-20.13,2.26-6.54,11.26-9.85,17.25-6.06,5.81,3.68,8.39,9.49,8.27,16.12S137.8,116.43,131,116.45Z"/><path class="cls-19" d="M82,130.45c0-4.11.38-7.74-.09-11.26-.58-4.39,1.77-6.54,5.32-8.69,0,4.28.09,8.26,0,12.24a2.38,2.38,0,0,0,2,2.74c2.77.84,5.5,1.82,8.25,2.75l8.35,2.88c-1,1.72-2.68,2.48-3.89,3.78-1,1.11-2,.35-3,0-3.89-1.49-7.78-3-11.56-4.5-1.41,4.61.65,7.77,3.72,10.5,1.68,1.49,1.16,2.41-.38,3.69s-2.21,1.73-3.71-.08c-5-6-10.08-12-15.36-17.74-1.9-2.07-.39-2.68.75-3.92,1.51-1.65,2.33-1,3.42.42C77.66,125.57,79.69,127.79,82,130.45Z"/><path d="M208.53,97.62c-1.25.24-2.15.34-3,.58-2,.56-3.31-.13-3.82-2.12-.84-3.22-2.75-4.3-5.93-3.24a7.59,7.59,0,0,1-2.39.2c-2.57,0-4,.94-4.17,3.79-.08,1.27.29,3.24-2.3,3.46-3.9.32-3.86.53-3-3.43q2.58-11.42,5.12-22.84c.34-1.52.67-2.83,2.73-2.79,1.83,0,3.42-.58,4.59,1.92C200.17,81.29,204.34,89.25,208.53,97.62Z"/><path d="M46.25,200.62c-8-.07-15.51-5.42-16.9-12a10.43,10.43,0,0,1,10.79-12.59c.9.06,2-.12,1.57,1.35s.54,3.62-1.57,3.83c-3,.29-5.07,1.25-5.73,4.26-.73,3.27,1.13,5.31,3.67,6.88a21.39,21.39,0,0,0,7.8,3,5.53,5.53,0,0,0,6.3-3,4.71,4.71,0,0,0-1.5-6.2c-2.56-1.9-.22-2.71.55-3.9,1.06-1.65,2.07-1.28,3.31-.07a10,10,0,0,1,2.6,11.52C55.34,198.22,51.5,200.66,46.25,200.62Z"/><path d="M57.29,138.56c5.73,7.74,11.24,15.25,16.83,22.69,1.24,1.64-.25,2.34-.87,3.29s-1.2,2.58-3.17,1.93c-8.8-2.94-17.62-5.8-26.43-8.68a2.51,2.51,0,0,1,.11-.72c2.74-4,2.74-4,7.21-2.54L67,160,56.93,147C53.83,143,53.83,143,57.29,138.56Z"/><path class="cls-19" d="M24.82,199.78c2.67,0,3.66,1.31,2.85,4.15-.44,1.54-.9,3.08-1.35,4.62-1.2,4.12-.31,5.28,4,5.65,1.27.11,1.29-.72,1.5-1.39a51.06,51.06,0,0,0,1.81-6.36c.36-2,1.17-2,2.9-1.55s2.68,1,1.91,3c-.68,1.77-.92,3.72-1.67,5.45-.92,2.13,0,2.75,1.86,3.17,2.15.5,4.22,1.33,6.37,1.76s2.73,1.11,2,3.36-1.58,2.35-3.61,1.74c-7.39-2.23-14.83-4.3-22.28-6.28-1.94-.52-2.19-1.35-1.65-3.09,1.29-4.11,2.37-8.29,3.64-12.41C23.36,200.94,23.13,199.64,24.82,199.78Z"/><path class="cls-19" d="M108.36,96.86c1.37.44,1.52,1.93,2.32,2.87s.17,1.28-.55,1.85c-1.57,1.25-4.61,1.58-4.6,3.6,0,1.79,2,3.59,3.09,5.37,2.56,4.08,5,8.23,7.74,12.19,1.48,2.13-.21,2.48-1.34,3.26s-2,1.72-3.23-.28c-3.15-5.35-6.63-10.51-9.81-15.85-1.11-1.87-2.06-2.51-3.82-.9-.51.46-1.22.7-1.77,1.13-1.47,1.14-2.48,1.46-3.7-.6-1.13-1.89-.79-2.6,1-3.61,4.33-2.52,8.54-5.25,12.8-7.89C107,97.63,107.65,97.28,108.36,96.86Z"/><path class="cls-19" d="M64.52,130.75c.55.45.94.74,1.3,1.06,6.08,5.51,12.11,11.07,18.26,16.5,1.57,1.39,1,2.19-.18,3.29-1.05.94-1.57,2.56-3.47.77-5.89-5.57-12-10.94-17.93-16.42-.5-.45-1.74-.72-1-1.76C62.39,133,63.45,132,64.52,130.75Z"/><path class="cls-19" d="M174.06,74.09c1.27-.43,1.43.39,1.63,1.4,1.55,8,3.08,16,4.76,23.91.43,2.08-.62,2.4-2.17,2.56-1.36.14-2.76,1-3.19-1.49-1.31-7.51-2.88-15-4.29-22.47C170.16,74.62,170.55,74.2,174.06,74.09Z"/><path d="M157.31,28.88c1-5.74,1.94-10.67,2.63-15.63.3-2.13,1.23-2.18,3-1.87s2.41.49,2,2.56c-1.46,7.59-2.61,15.23-4,22.83-.17.88.5,2.88-1.54,2.56-1.71-.28-3.9.34-4.74-2.21-1.7-5.13-3.57-10.21-5.37-15.31a2.42,2.42,0,0,0-1.05-1.39c-.79,4.58-1.56,9.17-2.37,13.75-.27,1.52-.21,3.1-2.79,2.57-2.25-.46-2.58-1.22-2.17-3.33,1.42-7.29,2.6-14.62,3.92-21.92.19-1.06-.29-3,1.25-2.85,1.81.17,4.18-.36,5,2.62,1.49,5.19,3.47,10.24,5.25,15.35C156.54,27.15,156.8,27.67,157.31,28.88Z"/><path d="M130.84,12c-1-.11-2-.24-3-.33-4-.37-3.91-.36-4.18,3.8-.12,1.87.6,2.11,2.14,2.17,2.9.1,5.8.49,8.71.57,1.62,0,2,.84,1.54,2.07-.36,1,.88,3.11-1.78,2.83-3.1-.32-6.21-.38-9.3-.71-1.49-.16-1.81.33-1.94,1.74-.52,5.8-.57,5.78,5.14,6.08,2,.1,4,.49,6,.42,2.16-.06,2.64.68,2.42,2.78-.19,1.78-.54,2.39-2.46,2.19-5.09-.53-10.2-.88-15.31-1.16-1.51-.08-1.85-.65-1.74-2,.65-8.2,1.29-16.41,1.84-24.61.11-1.6.87-1.73,2.15-1.62,5,.42,10,.88,15,1.12,2.06.09,1.95,1.13,1.75,2.55s.21,2.93-2.19,2.4A29.34,29.34,0,0,0,130.84,12Z"/><path class="cls-19" d="M99.87,29.24c4.47,0,8.49.12,12.5-.07,1.54-.07,1.82.54,1.58,1.66s1.1,3.15-1.37,3.23q-8.88.27-17.77.3c-2,0-2.57-3.81-.82-6.36,3.12-4.55,6.32-9,9.49-13.57.35-.5.69-1,1-1.47,1.22-1.57.65-2.08-1.12-2-2.41.1-4.82.05-7.22.23-2,.15-2.13-.9-2-2.39C94.25,7.46,93.7,6,96.1,6.08c4.32.14,8.65-.07,13-.09,1.26,0,3.28-.66,3.6.41a5.94,5.94,0,0,1-.64,5.43c-3.57,4.85-7,9.83-10.44,14.76C101,27.39,100.53,28.22,99.87,29.24Z"/><path d="M66.42,20.4c0,4-1.94,6.43-5.8,7.76-2.15.73-5.45,0-6.28,1.95-.75,1.74.5,4.45,1.13,6.66.7,2.45.21,3.54-2.56,3.86-1.76.2-2.19-.18-2.49-1.72-1.57-8-3.16-16.1-4.85-24.13-.27-1.28.16-1.56,1.21-1.75,3.74-.67,7.46-1.59,11.23-2C63,10.45,66.43,14.45,66.42,20.4Z"/><path class="cls-19" d="M74.79,36.3c-2.15.78-2.76-.36-3-2.66-.68-7.49-1.51-15-2.44-22.43-.25-2,.33-2.6,2.27-2.77s2.91.07,3.1,2.29c.53,6.09,1.33,12.16,1.89,18.25.15,1.67.59,2.24,2.37,1.95,2.77-.45,5.61-.47,8.37-.92,2-.32,2.45.44,2.56,2.19.1,1.59.1,2.62-2,2.76C83.67,35.25,79.39,35.81,74.79,36.3Z"/><path class="cls-20" d="M151,7.26l2.92.1c1.07,1.75,2.37,2.57,4.25,1.06,1,.3,2.21-.48,3,.64C155.79,12,155.09,11.89,151,7.26Z"/><path class="cls-21" d="M156.32,83.24c2.72-.22,3.54,1,4,2.49a2.75,2.75,0,0,1-1.62,3.68c-1.27.55-2.69.78-3.92,1.4-2.71,1.37-3.5.26-4.38-2.34-1-3-.18-4.09,2.68-4.46A24.46,24.46,0,0,0,156.32,83.24Z"/><path class="cls-4" d="M129.5,92.65a16.06,16.06,0,0,1,2.43.8c3.66,1.79,6.88,9,5.86,12.92a6.22,6.22,0,0,1-10.17,3.42,14.2,14.2,0,0,1-5-10.55C122.4,95.7,125.59,92.68,129.5,92.65Z"/><path class="cls-22" d="M193.19,78.17c1.44,3.07,2.43,5.47,3.66,7.73,1,1.81,0,1.94-1.37,2.12-4.46.57-4.46.6-3.58-3.77C192.26,82.5,192.64,80.75,193.19,78.17Z"/><path class="cls-21" d="M61,20c0,2.57-3.43,5.25-7,4.37-2.66-.66-2.28-4.31-2-6.33s3.2-1.68,5.07-1.82A3.53,3.53,0,0,1,61,20Z"/></g></g></svg>