<svg xmlns="http://www.w3.org/2000/svg" xmlns:xlink="http://www.w3.org/1999/xlink" viewBox="0 0 299.65 300"><defs><style>.cls-1{fill:none;}.cls-2{clip-path:url(#clip-path);}.cls-3,.cls-8{fill:red;}.cls-4{fill:#060;}.cls-10,.cls-5,.cls-6,.cls-9{fill:#ff0;}.cls-10,.cls-5,.cls-6,.cls-7,.cls-8{stroke:#000;}.cls-5,.cls-6{stroke-linecap:round;stroke-linejoin:round;}.cls-5{stroke-width:0.57px;}.cls-6{stroke-width:0.55px;}.cls-12,.cls-7{fill:#fff;}.cls-7{stroke-width:0.67px;}.cls-8{stroke-width:0.51px;}.cls-10{stroke-width:0.5px;}.cls-11{fill:#039;}</style><clipPath id="clip-path"><circle class="cls-1" cx="150" cy="150" r="150"/></clipPath></defs><title>Portugal</title><g id="Слой_2" data-name="Слой 2"><g id="Layer_1" data-name="Layer 1"><g class="cls-2"><rect class="cls-3" width="299.65" height="300"/><rect class="cls-4" width="120.91" height="300"/><path class="cls-5" d="M179.59,196.53C156.94,195.85,53,131,52.33,120.67l5.73-9.57c10.31,15,116.52,78,127,75.81l-5.43,9.62"/><path class="cls-5" d="M56.86,109.8c-2,5.47,27.11,23.49,62.17,44.82s65.3,34.5,67.54,32.61a19.22,19.22,0,0,0,1-1.89c-.42.63-1.44.83-3,.37-9.47-2.73-34.18-14.07-64.78-32.63s-57.22-35.66-61.36-42.92A4.41,4.41,0,0,1,58,108h-.1L57,109.56l-.12.24Zm123.27,87c-.39.7-1.1.72-2.46.57-8.48-.94-34.2-13.44-64.63-31.66-35.4-21.19-64.65-40.51-61.47-45.55l.86-1.53.17,0c-2.85,8.56,57.71,43.19,61.28,45.39,35,21.71,64.58,34.39,67.2,31.1l-1,1.63Z"/><path class="cls-5" d="M121,126.92c22.68-.18,50.66-3.1,66.77-9.52l-3.47-5.63c-9.52,5.27-37.66,8.73-63.49,9.25-30.55-.28-52.12-3.13-62.92-10.38l-3.28,6c19.87,8.4,40.22,10.19,66.39,10.27"/><path class="cls-5" d="M188.74,117.53c-.55.89-11.05,4.51-26.53,7.18a274.4,274.4,0,0,1-41.25,3,293.53,293.53,0,0,1-39.51-2.5c-16.24-2.55-24.63-6.09-27.72-7.34.29-.59.48-1,.77-1.56a119.63,119.63,0,0,0,27.21,7.21,288.4,288.4,0,0,0,39.2,2.51,276.15,276.15,0,0,0,41-3c15.86-2.56,24.53-5.85,25.75-7.38l1.12,1.93h0Zm-3-5.71c-1.72,1.38-10.29,4.42-25.36,6.82a271.06,271.06,0,0,1-39.2,2.75A262.81,262.81,0,0,1,83.27,119a104,104,0,0,1-26.39-6.65c.29-.51.59-1,.89-1.51,2.29,1.15,10.15,4.34,25.67,6.54a271,271,0,0,0,37.7,2.34,269.33,269.33,0,0,0,38.91-2.76c15.15-2.09,23.31-6,24.55-6.93l1.1,1.83Z"/><path class="cls-5" d="M46.57,154.25c14,7.5,44.93,11.28,74.25,11.54,26.69,0,61.47-4.13,74.47-11l-.35-7.51c-4.07,6.36-41.34,12.46-74.41,12.21s-63.78-5.36-74-12l0,6.74"/><path class="cls-5" d="M196,153.17V155c-2,2.33-14.21,5.86-29.58,8.35a304.36,304.36,0,0,1-45.95,3.15,288.83,288.83,0,0,1-43.61-3c-17.65-2.57-28.93-7.07-31.2-8.42V153c6.81,4.52,25.25,7.83,31.44,8.84a285.74,285.74,0,0,0,43.36,3,304,304,0,0,0,45.7-3.12c11-1.59,26.73-5.74,29.82-8.49Zm0-6.37v1.79c-1.95,2.33-14.21,5.86-29.57,8.35a305.68,305.68,0,0,1-45.95,3.15,288.83,288.83,0,0,1-43.61-3c-17.65-2.57-28.94-7.07-31.2-8.42v-2.08c6.8,4.52,25.24,7.83,31.44,8.84a285.74,285.74,0,0,0,43.36,3,304.1,304.1,0,0,0,45.7-3.12c11-1.6,26.73-5.74,29.82-8.5Z"/><path class="cls-5" d="M120.76,195.24c-32.08-.19-59.57-8.74-65.37-10.16l4.23,6.63c10.25,4.31,37.07,10.74,61.44,10s45.69-2.6,60.7-9.91L186.1,185c-10.23,4.82-45,10.23-65.34,10.28"/><path class="cls-6" d="M183.39,190.29c-.64,1-1.29,1.94-1.95,2.87a171.15,171.15,0,0,1-22.95,5.89,208.11,208.11,0,0,1-37.7,3.45c-28.42-.42-51.68-6-62.62-10.73l-.89-1.52.15-.22,1.5.58c19.46,7,41.31,9.74,62,10.24a211.5,211.5,0,0,0,37-3.42c16.33-3.27,22.93-5.73,25-6.85l.52-.29Zm3.76-6.21,0,.06c-.48.81-1,1.63-1.47,2.45-3.78,1.35-14,4.35-29,6.44-9.87,1.34-16,2.64-35.61,3-36.76-.94-60.57-8.13-66.22-9.9l-.84-1.61c21.31,5.56,43.07,9.45,67.06,9.84a248.28,248.28,0,0,0,35.36-3c17.45-2.72,26.25-5.59,28.89-6.42a1.58,1.58,0,0,0-.12-.15l1.89-.71Z"/><path class="cls-5" d="M187.54,148.32c.1,21.1-10.7,40-19.4,48.39a69.79,69.79,0,0,1-47.67,19.78c-21.28.39-41.34-13.48-46.72-19.58-10.53-11.91-19.09-27-19.37-47.43,1.31-23,10.35-39.08,23.46-50.08s30.55-16.36,45.09-16c16.76.44,36.35,8.66,49.89,25,8.86,10.69,12.7,22.31,14.72,39.89ZM120.65,76.06c40.86,0,74.47,33.26,74.47,74s-33.61,74-74.47,74a74,74,0,1,1,0-148.06"/><path class="cls-5" d="M120.85,75.81a74.27,74.27,0,1,1-74.26,74.27,74.41,74.41,0,0,1,74.26-74.27ZM48.22,150.08c0,39.94,32.81,72.63,72.63,72.63a72.64,72.64,0,1,0-72.63-72.63Z"/><path class="cls-5" d="M120.91,82a68,68,0,1,1-68,68,68.3,68.3,0,0,1,68-68ZM54.52,150a66.39,66.39,0,1,0,66.39-66.39A66.66,66.66,0,0,0,54.52,150Z"/><path class="cls-5" d="M123.9,75.51h-6.36V224.73h6.39Z"/><path class="cls-5" d="M123.26,74.66h1.62l0,150.94h-1.63V74.66Zm-6.31,0h1.63V225.6H117V74.66Z"/><path class="cls-5" d="M195.16,153v-5.52l-4.5-4.18-25.5-6.75-36.75-3.75L84.16,135l-31.5,7.5-6.36,4.71v5.52l16.11-7.23,38.25-6h36.75l27,3,18.75,4.5Z"/><path class="cls-5" d="M120.88,138.58a257.58,257.58,0,0,1,48.05,4.29c13.92,2.78,23.72,6.26,27.07,10.18V155c-4-4.87-17.23-8.43-27.39-10.47a255.69,255.69,0,0,0-47.73-4.26,266.58,266.58,0,0,0-48.74,4.35c-10.59,2.1-24.71,6.28-26.48,10.4v-2c1-2.85,11.49-7.11,26.24-10.06a265.93,265.93,0,0,1,49-4.34Zm0-6.37a257.42,257.42,0,0,1,48.05,4.29c13.93,2.78,23.73,6.26,27.08,10.18v1.93c-4-4.86-17.23-8.43-27.39-10.47a255.72,255.72,0,0,0-47.74-4.26,265.61,265.61,0,0,0-48.65,4.35c-10.22,1.94-24.92,6.28-26.56,10.4v-2c1-2.82,11.7-7.23,26.24-10.06a266.61,266.61,0,0,1,49-4.34Z"/><path class="cls-5" d="M120.52,99.72c27.64-.14,51.75,3.86,62.78,9.51l4,7c-9.59-5.16-35.59-10.53-66.75-9.73-25.4.15-52.53,2.79-66.14,10.06l4.81-8c11.17-5.79,37.51-8.73,61.29-8.76"/><path class="cls-5" d="M120.89,105.46c15.76,0,31,.85,43.11,3,11.28,2.1,22,5.25,23.58,6.94l1.19,2.11c-3.74-2.44-13.05-5.16-25-7.43s-27.22-3-42.9-3c-17.79-.06-31.61.88-43.47,3-12.55,2.34-21.25,5.7-23.4,7.29l1.17-2.23c4.17-2.13,10.79-4.69,21.92-6.7,12.26-2.24,26.23-2.91,43.81-3h0Zm0-6.36c15.08,0,30,.8,41.58,2.89,9.16,1.78,18.22,4.57,21.53,7l1.75,2.77c-3-3.29-14.13-6.42-24-8.17-11.52-2-25.8-2.77-40.88-2.9-15.84,0-30.47,1-41.82,3.09-10.83,2.06-17.82,4.5-20.78,6.4l1.54-2.31c4.08-2.15,10.67-4.12,19-5.74,11.43-2.08,26.15-3,42.08-3.07Z"/><path class="cls-5" d="M157.78,180.94a193.25,193.25,0,0,0-36.92-2.8c-46,.54-60.93,9.45-62.74,12.15l-3.45-5.61c11.73-8.5,36.81-13.26,66.44-12.78,15.39.26,28.67,1.28,39.84,3.44L157.78,181"/><path class="cls-6" d="M120.6,177.35c12.81.19,25.39.72,37.52,3l-.87,1.55a195.62,195.62,0,0,0-36.61-2.81c-17-.13-34.19,1.45-49.15,5.75-4.73,1.31-12.54,4.35-13.34,6.86l-.87-1.44c.25-1.49,5-4.57,13.81-7.05,17.14-4.91,33.17-5.73,49.51-5.85Zm.58-6.45c13.27.25,27,.86,40.31,3.5l-.92,1.61c-12-2.38-23.53-3.18-39.31-3.42-17.05,0-35.14,1.24-51.58,6-5.31,1.55-14.48,4.89-14.78,7.54L54,184.6c.2-2.4,8.13-5.54,15.27-7.61,16.57-4.82,34.71-6.06,51.89-6.09Z"/><path class="cls-5" d="M186.6,185.54l-5.53,8.58L165.16,180l-41.25-27.75-46.5-25.5-24.14-8.26L58.42,109l1.74-1,15,3.75,49.5,25.5,28.5,18,24,17.25,9.75,11.25Z"/><path class="cls-5" d="M52.4,118.72c4.24-2.87,35.36,11,67.92,30.62s63.51,41.94,60.7,46.11l-.92,1.45-.42.33c.09-.06.56-.64,0-2.18-1.39-4.55-23.4-22.12-59.93-44.17-35.6-21.23-65.28-34-68.24-30.37l.93-1.79Zm135.33,66.69c2.68-5.29-26.18-27-62-48.2-36.61-20.75-63-33-67.82-29.32l-1.07,2c0,.1,0-.14.27-.31a4.73,4.73,0,0,1,3-.73c8.3.13,32,11,65.26,30.1,14.57,8.49,61.55,38.62,61.37,47.09,0,.73.06.88-.21,1.24l1.19-1.82Z"/><path class="cls-7" d="M76.36,158.26a44.89,44.89,0,0,0,44.45,44.49,44.59,44.59,0,0,0,44.6-44.45h0V98.9l-89.06-.1v59.46Z"/><path class="cls-8" d="M78,158.34v0a42.29,42.29,0,0,0,12.58,30,42.65,42.65,0,0,0,60.33.06,42.26,42.26,0,0,0,12.52-30h0V100.79H78.08l0,57.56M146.29,118V154.7l0,3.88h0a27.68,27.68,0,0,1-.18,3.17,24.92,24.92,0,0,1-7.31,14.78,25.52,25.52,0,0,1-18,7.46,25.78,25.78,0,0,1-25.39-25.54V117.94l50.95.09h0Z"/><g id="castle"><path class="cls-9" d="M83.56,115.82c.1-4.14,3-5.12,3.06-5.13s3.17,1,3.16,5.17l-6.22,0"/><path class="cls-10" d="M81,110.77l-.51,4.76h3.11c0-3.93,3-4.59,3-4.57a4.57,4.57,0,0,1,3.07,4.57h3.11l-.56-4.79-11.27,0Z"/><path class="cls-10" d="M80.3,115.54H93a.55.55,0,0,1,.49.59.54.54,0,0,1-.49.59H80.3a.54.54,0,0,1-.48-.59A.54.54,0,0,1,80.3,115.54Z"/><path class="cls-10" d="M84.92,115.52a3.26,3.26,0,0,1,1.71-3.18,3.32,3.32,0,0,1,1.77,3.18H84.92"/><path class="cls-10" d="M80.57,108.79H92.76a.5.5,0,0,1,.46.53.49.49,0,0,1-.46.52H80.57a.49.49,0,0,1-.46-.52A.5.5,0,0,1,80.57,108.79Z"/><path class="cls-10" d="M80.83,109.85H92.48a.54.54,0,0,1,0,1.06H80.83a.54.54,0,0,1,0-1.06Z"/><path class="cls-10" d="M84.59,101.91h.92v.66h.67v-.67h.95v.67h.67v-.67h.94v1.51a.4.4,0,0,1-.41.39H85a.43.43,0,0,1-.43-.4v-1.49Z"/><path class="cls-10" d="M88.06,103.93l.2,4.84-3.22,0,.21-4.84,2.81,0"/><path id="cp1" class="cls-10" d="M84.12,106.17l.1,2.61h-3.1l.09-2.61Z"/><path id="cp1-2" data-name="cp1" class="cls-10" d="M92.08,106.17l.1,2.61h-3.1l.09-2.61Z"/><path id="cp2" class="cls-10" d="M80.64,104.28h.9v.66h.66v-.67h.92v.67h.66v-.67h.92v1.51a.39.39,0,0,1-.4.39H81.06a.42.42,0,0,1-.42-.4v-1.49Z"/><path id="cp2-2" data-name="cp2" class="cls-10" d="M88.6,104.28h.9v.66h.65v-.67h.93v.67h.66v-.67h.92v1.51a.4.4,0,0,1-.41.39H89a.42.42,0,0,1-.42-.4v-1.49Z"/><path d="M86.34,105.46a.33.33,0,1,1,.65,0v1.15h-.65v-1.15"/><path id="cp3" d="M82.34,107.13a.31.31,0,1,1,.62,0V108h-.62v-.89"/><path id="cp3-2" data-name="cp3" d="M90.32,107.13a.31.31,0,1,1,.62,0V108h-.62v-.89"/></g><g id="castle-2" data-name="castle"><path class="cls-9" d="M83.56,150.56c.1-4.14,3-5.12,3.06-5.13s3.17,1,3.16,5.17l-6.22,0"/><path class="cls-10" d="M81,145.51l-.51,4.76h3.11c0-3.93,3-4.59,3-4.57a4.57,4.57,0,0,1,3.07,4.57h3.11l-.56-4.79-11.27,0Z"/><path class="cls-10" d="M80.3,150.28H93a.55.55,0,0,1,.49.59.54.54,0,0,1-.49.59H80.3a.54.54,0,0,1-.48-.59A.54.54,0,0,1,80.3,150.28Z"/><path class="cls-10" d="M84.92,150.26a3.26,3.26,0,0,1,1.71-3.18,3.32,3.32,0,0,1,1.77,3.18H84.92"/><path class="cls-10" d="M80.57,143.53H92.76a.5.5,0,0,1,.46.53.49.49,0,0,1-.46.52H80.57a.49.49,0,0,1-.46-.52A.5.5,0,0,1,80.57,143.53Z"/><path class="cls-10" d="M80.83,144.59H92.48a.54.54,0,0,1,0,1.06H80.83a.54.54,0,0,1,0-1.06Z"/><path class="cls-10" d="M84.59,136.65h.92v.65h.67v-.66h.95v.67h.67v-.67h.94v1.51a.4.4,0,0,1-.41.39H85a.43.43,0,0,1-.43-.4v-1.49Z"/><path class="cls-10" d="M88.06,138.67l.2,4.84-3.22,0,.21-4.84,2.81,0"/><path id="cp1-3" data-name="cp1" class="cls-10" d="M84.12,140.91l.1,2.61h-3.1l.09-2.61Z"/><path id="cp1-4" data-name="cp1" class="cls-10" d="M92.08,140.91l.1,2.61h-3.1l.09-2.61Z"/><path id="cp2-3" data-name="cp2" class="cls-10" d="M80.64,139h.9v.66h.66V139h.92v.67h.66V139h.92v1.51a.39.39,0,0,1-.4.39H81.06a.42.42,0,0,1-.42-.4V139Z"/><path id="cp2-4" data-name="cp2" class="cls-10" d="M88.6,139h.9v.66h.65V139h.93v.67h.66V139h.92v1.51a.4.4,0,0,1-.41.39H89a.42.42,0,0,1-.42-.4V139Z"/><path d="M86.34,140.2a.33.33,0,1,1,.65,0v1.15h-.65V140.2"/><path id="cp3-3" data-name="cp3" d="M82.34,141.87a.31.31,0,1,1,.62,0v.89h-.62v-.89"/><path id="cp3-4" data-name="cp3" d="M90.32,141.87a.31.31,0,1,1,.62,0v.89h-.62v-.89"/></g><g id="castle3"><g id="castle-3" data-name="castle"><path class="cls-9" d="M97.1,186.72c-2.86-3-1.49-5.76-1.48-5.79s3-1.51,5.9,1.4l-4.42,4.39"/><path class="cls-10" d="M91.73,185l3,3.72,2.19-2.2c-2.77-2.8-1.16-5.35-1.1-5.39a4.59,4.59,0,0,1,5.41,1l2.2-2.21-3.8-3-7.92,8Z"/><path class="cls-10" d="M94.61,188.84l9-9a.6.6,0,0,1,.83.83l-9,9a.55.55,0,0,1-.76-.06A.55.55,0,0,1,94.61,188.84Z"/><path class="cls-10" d="M97.85,185.54a3.3,3.3,0,0,1-1.06-3.45,3.32,3.32,0,0,1,3.51,1l-2.45,2.46"/><path class="cls-10" d="M90,183.88l8.58-8.64a.52.52,0,0,1,.71,0,.5.5,0,0,1,0,.7l-8.58,8.65a.53.53,0,0,1-.75-.75Z"/><path class="cls-10" d="M90.94,184.45l8.21-8.27a.49.49,0,0,1,.69.06.48.48,0,0,1,.06.69l-8.21,8.27a.49.49,0,0,1-.69-.06A.5.5,0,0,1,90.94,184.45Z"/><path class="cls-10" d="M88,176.19l.65-.66.46.46.48-.47-.48-.47.67-.67.47.47.47-.48-.47-.47.67-.67,1.06,1.07a.38.38,0,0,1,0,.56l-2.33,2.35a.42.42,0,0,1-.58,0L88,176.19Z"/><path class="cls-10" d="M91.83,175.15l3.58,3.26-2.28,2.28-3.28-3.56,2-2"/><path id="cp1-5" data-name="cp1" class="cls-10" d="M90.65,179.52l1.92,1.77-2.18,2.2-1.79-1.9,2.05-2.07Z"/><path id="cp1-6" data-name="cp1" class="cls-10" d="M96.26,173.88l1.92,1.76L96,177.84l-1.79-1.9,2.05-2.06Z"/><path id="cp2-5" data-name="cp2" class="cls-10" d="M86.86,180.66l.63-.64.47.46.46-.46-.47-.47.65-.66.47.47.46-.46-.47-.48.65-.65,1.07,1.06a.38.38,0,0,1,0,.56l-2.28,2.3a.42.42,0,0,1-.57,0l-1.06-1.05Z"/><path id="cp2-6" data-name="cp2" class="cls-10" d="M92.46,175l.64-.63.46.46.47-.47-.48-.47.65-.65.48.47.46-.47-.47-.47.65-.66,1.07,1.07a.4.4,0,0,1,0,.56L94.1,176a.41.41,0,0,1-.58,0l-1.06-1Z"/><path d="M91.71,177.45a.33.33,0,1,1,.46-.47l.81.82-.45.46-.82-.81"/><path id="cp3-5" data-name="cp3" d="M90.08,181.46a.31.31,0,1,1,.44-.44l.63.63-.44.44-.63-.63"/><path id="cp3-6" data-name="cp3" d="M95.7,175.8a.31.31,0,1,1,.44-.44l.63.62-.44.44-.63-.62"/></g></g><g id="castle-4" data-name="castle"><path class="cls-9" d="M117.84,115.82c.1-4.14,3-5.12,3.06-5.13s3.18,1,3.17,5.17l-6.23,0"/><path class="cls-10" d="M115.31,110.77l-.51,4.76h3.1c0-3.93,3-4.59,3-4.57a4.56,4.56,0,0,1,3.07,4.57h3.12l-.57-4.79-11.26,0Z"/><path class="cls-10" d="M114.59,115.54H127.3a.55.55,0,0,1,.48.59.54.54,0,0,1-.48.59H114.59a.54.54,0,0,1-.49-.59A.55.55,0,0,1,114.59,115.54Z"/><path class="cls-10" d="M119.21,115.52a3.25,3.25,0,0,1,1.7-3.18,3.31,3.31,0,0,1,1.77,3.18h-3.47"/><path class="cls-10" d="M114.86,108.79H127a.5.5,0,0,1,.47.53.49.49,0,0,1-.47.52H114.86a.49.49,0,0,1-.47-.52A.5.5,0,0,1,114.86,108.79Z"/><path class="cls-10" d="M115.11,109.85h11.66a.54.54,0,0,1,0,1.06H115.11a.54.54,0,0,1,0-1.06Z"/><path class="cls-10" d="M118.88,101.91h.92v.66h.67v-.67h.94v.67h.67v-.67h1v1.51a.4.4,0,0,1-.41.39h-3.31a.42.42,0,0,1-.43-.4v-1.49Z"/><path class="cls-10" d="M122.34,103.93l.21,4.84-3.23,0,.22-4.84,2.8,0"/><path id="cp1-7" data-name="cp1" class="cls-10" d="M118.41,106.17l.09,2.61h-3.09l.09-2.61Z"/><path id="cp1-8" data-name="cp1" class="cls-10" d="M126.36,106.17l.1,2.61h-3.09l.08-2.61Z"/><path id="cp2-7" data-name="cp2" class="cls-10" d="M114.93,104.28h.89v.66h.66v-.67h.92v.67h.66v-.67H119v1.51a.4.4,0,0,1-.41.39h-3.23a.42.42,0,0,1-.42-.4v-1.49h0Z"/><path id="cp2-8" data-name="cp2" class="cls-10" d="M122.88,104.28h.9v.66h.66v-.67h.92v.67H126v-.67h.92v1.51a.39.39,0,0,1-.4.39H123.3a.43.43,0,0,1-.42-.4v-1.49Z"/><path d="M120.63,105.46a.32.32,0,1,1,.64,0v1.15h-.64v-1.15"/><path id="cp3-7" data-name="cp3" d="M116.63,107.13a.31.31,0,1,1,.62,0V108h-.62v-.89"/><path id="cp3-8" data-name="cp3" d="M124.61,107.13a.31.31,0,1,1,.62,0V108h-.62v-.89"/></g><g id="castle-5" data-name="castle"><path class="cls-9" d="M158.12,115.82c-.1-4.14-3-5.12-3.06-5.13s-3.18,1-3.17,5.17l6.23,0"/><path class="cls-10" d="M160.65,110.77l.51,4.76h-3.1c0-3.93-3-4.59-3.05-4.57a4.56,4.56,0,0,0-3.07,4.57h-3.12l.56-4.79,11.27,0Z"/><path class="cls-10" d="M161.37,115.54H148.66a.55.55,0,0,0-.49.59.54.54,0,0,0,.49.59h12.71a.54.54,0,0,0,.49-.59A.55.55,0,0,0,161.37,115.54Z"/><path class="cls-10" d="M156.75,115.52a3.27,3.27,0,0,0-1.7-3.18,3.31,3.31,0,0,0-1.77,3.18h3.47"/><path class="cls-10" d="M161.1,108.79H148.92a.5.5,0,0,0-.47.53.49.49,0,0,0,.47.52H161.1a.49.49,0,0,0,.47-.52A.5.5,0,0,0,161.1,108.79Z"/><path class="cls-10" d="M160.85,109.85H149.19a.54.54,0,0,0,0,1.06h11.66a.54.54,0,0,0,0-1.06Z"/><path class="cls-10" d="M157.08,101.91h-.92v.66h-.67v-.67h-.94v.67h-.68v-.67h-.94v1.51a.4.4,0,0,0,.41.39h3.31a.43.43,0,0,0,.43-.4v-1.49Z"/><path class="cls-10" d="M153.62,103.93l-.21,4.84,3.23,0-.22-4.84-2.8,0"/><path id="cp1-9" data-name="cp1" class="cls-10" d="M157.55,106.17l-.09,2.61h3.09l-.09-2.61Z"/><path id="cp1-10" data-name="cp1" class="cls-10" d="M149.6,106.17l-.1,2.61h3.09l-.08-2.61Z"/><path id="cp2-9" data-name="cp2" class="cls-10" d="M161,104.28h-.9v.66h-.65v-.67h-.93v.67h-.66v-.67H157v1.51a.4.4,0,0,0,.41.39h3.23a.42.42,0,0,0,.42-.4v-1.49Z"/><path id="cp2-10" data-name="cp2" class="cls-10" d="M153.08,104.28h-.9v.66h-.66v-.67h-.92v.67h-.66v-.67H149v1.51a.39.39,0,0,0,.4.39h3.24a.43.43,0,0,0,.42-.4v-1.49Z"/><path d="M155.33,105.46a.33.33,0,1,0-.65,0v1.15h.65v-1.15"/><path id="cp3-9" data-name="cp3" d="M159.33,107.13a.31.31,0,1,0-.62,0V108h.62v-.89"/><path id="cp3-10" data-name="cp3" d="M151.35,107.13a.31.31,0,1,0-.62,0V108h.62v-.89"/></g><g id="castle-6" data-name="castle"><path class="cls-9" d="M158.12,150.56c-.1-4.14-3-5.12-3.06-5.13s-3.18,1-3.17,5.17l6.23,0"/><path class="cls-10" d="M160.65,145.51l.51,4.76h-3.1c0-3.93-3-4.59-3.05-4.57a4.56,4.56,0,0,0-3.07,4.57h-3.12l.56-4.79,11.27,0Z"/><path class="cls-10" d="M161.37,150.28H148.66a.55.55,0,0,0-.49.59.54.54,0,0,0,.49.59h12.71a.54.54,0,0,0,.49-.59A.55.55,0,0,0,161.37,150.28Z"/><path class="cls-10" d="M156.75,150.26a3.27,3.27,0,0,0-1.7-3.18,3.31,3.31,0,0,0-1.77,3.18h3.47"/><path class="cls-10" d="M161.1,143.53H148.92a.5.5,0,0,0-.47.53.49.49,0,0,0,.47.52H161.1a.49.49,0,0,0,.47-.52A.5.5,0,0,0,161.1,143.53Z"/><path class="cls-10" d="M160.85,144.59H149.19a.54.54,0,0,0,0,1.06h11.66a.54.54,0,0,0,0-1.06Z"/><path class="cls-10" d="M157.08,136.65h-.92v.65h-.67v-.66h-.94v.67h-.68v-.67h-.94v1.51a.4.4,0,0,0,.41.39h3.31a.43.43,0,0,0,.43-.4v-1.49Z"/><path class="cls-10" d="M153.62,138.67l-.21,4.84,3.23,0-.22-4.84-2.8,0"/><path id="cp1-11" data-name="cp1" class="cls-10" d="M157.55,140.91l-.09,2.61h3.09l-.09-2.61Z"/><path id="cp1-12" data-name="cp1" class="cls-10" d="M149.6,140.91l-.1,2.61h3.09l-.08-2.61Z"/><path id="cp2-11" data-name="cp2" class="cls-10" d="M161,139h-.9v.66h-.65V139h-.93v.67h-.66V139H157v1.51a.4.4,0,0,0,.41.39h3.23a.42.42,0,0,0,.42-.4V139Z"/><path id="cp2-12" data-name="cp2" class="cls-10" d="M153.08,139h-.9v.66h-.66V139h-.92v.67h-.66V139H149v1.51a.39.39,0,0,0,.4.39h3.24a.43.43,0,0,0,.42-.4V139Z"/><path d="M155.33,140.2a.33.33,0,1,0-.65,0v1.15h.65V140.2"/><path id="cp3-11" data-name="cp3" d="M159.33,141.87a.31.31,0,1,0-.62,0v.89h.62v-.89"/><path id="cp3-12" data-name="cp3" d="M151.35,141.87a.31.31,0,1,0-.62,0v.89h.62v-.89"/></g><g id="castle3-2" data-name="castle3"><g id="castle-7" data-name="castle"><path class="cls-9" d="M144.57,186.72c2.87-3,1.49-5.76,1.49-5.79a5.15,5.15,0,0,0-5.9,1.4l4.41,4.39"/><path class="cls-10" d="M149.94,185l-3,3.72-2.2-2.2c2.78-2.8,1.16-5.35,1.1-5.39a4.59,4.59,0,0,0-5.41,1l-2.19-2.21,3.8-3,7.91,8Z"/><path class="cls-10" d="M147.06,188.84l-8.95-9a.6.6,0,0,0-.84.83l9,9a.55.55,0,0,0,.76-.06A.54.54,0,0,0,147.06,188.84Z"/><path class="cls-10" d="M143.82,185.54a3.27,3.27,0,0,0,1.06-3.45,3.32,3.32,0,0,0-3.51,1l2.45,2.46"/><path class="cls-10" d="M151.67,183.88l-8.59-8.64a.5.5,0,0,0-.7,0,.5.5,0,0,0,0,.7l8.59,8.65a.53.53,0,0,0,.75-.75Z"/><path class="cls-10" d="M150.73,184.45l-8.21-8.27a.54.54,0,0,0-.75.75L150,185.2a.54.54,0,0,0,.75-.75Z"/><path class="cls-10" d="M153.71,176.19l-.65-.66-.46.46-.47-.47.47-.47-.66-.67-.48.47-.47-.48.47-.47-.66-.67-1.07,1.07a.39.39,0,0,0,0,.56l2.33,2.35a.42.42,0,0,0,.58,0l1.06-1.05Z"/><path class="cls-10" d="M149.84,175.15l-3.58,3.26,2.28,2.28,3.29-3.56-2-2"/><path id="cp1-13" data-name="cp1" class="cls-10" d="M151,179.52l-1.92,1.77,2.18,2.2,1.79-1.9-2-2.07Z"/><path id="cp1-14" data-name="cp1" class="cls-10" d="M145.42,173.88l-1.92,1.76,2.18,2.2,1.79-1.9-2.05-2.06Z"/><path id="cp2-13" data-name="cp2" class="cls-10" d="M154.82,180.66l-.64-.64-.46.46-.47-.46.48-.47-.65-.66-.48.47-.46-.46.47-.48-.65-.65-1.07,1.06a.4.4,0,0,0,0,.56l2.28,2.3a.43.43,0,0,0,.58,0l1.06-1.05Z"/><path id="cp2-14" data-name="cp2" class="cls-10" d="M149.21,175l-.64-.63-.46.46-.46-.47.47-.47-.65-.65-.47.47-.47-.47.48-.47-.65-.66-1.07,1.07a.39.39,0,0,0,0,.56l2.29,2.29a.4.4,0,0,0,.57,0l1.06-1Z"/><path d="M150,177.45a.33.33,0,1,0-.45-.47l-.82.82.46.46.81-.81"/><path id="cp3-13" data-name="cp3" d="M151.59,181.46a.31.31,0,1,0-.43-.44l-.63.63.43.44.63-.63"/><path id="cp3-14" data-name="cp3" d="M146,175.8a.31.31,0,1,0-.44-.44l-.63.62.44.44.63-.62"/></g></g><g id="quina"><path class="cls-11" d="M115.39,151.8h0a6.28,6.28,0,0,0,1.66,4.27,5.33,5.33,0,0,0,8,0,6.24,6.24,0,0,0,1.66-4.27v-8.07H115.41l0,8.07"/><circle class="cls-12" cx="117.97" cy="146.8" r="1.11"/><circle class="cls-12" cx="124.21" cy="146.81" r="1.11"/><circle class="cls-12" cx="121.08" cy="149.8" r="1.11"/><circle class="cls-12" cx="117.97" cy="152.94" r="1.11"/><circle class="cls-12" cx="124.2" cy="152.93" r="1.11"/></g><g id="quina-2" data-name="quina"><path class="cls-11" d="M115.39,132.29h0a6.23,6.23,0,0,0,1.66,4.26,5.32,5.32,0,0,0,8,0,6.24,6.24,0,0,0,1.66-4.27v-8.07H115.41l0,8.07"/><circle class="cls-12" cx="117.97" cy="127.29" r="1.11"/><circle class="cls-12" cx="124.21" cy="127.29" r="1.11"/><circle class="cls-12" cx="121.08" cy="130.29" r="1.11"/><circle class="cls-12" cx="117.97" cy="133.42" r="1.11"/><circle class="cls-12" cx="124.2" cy="133.42" r="1.11"/></g><g id="quina-3" data-name="quina"><path class="cls-11" d="M99.79,151.8h0a6.28,6.28,0,0,0,1.66,4.27,5.34,5.34,0,0,0,8,0,6.28,6.28,0,0,0,1.65-4.27v-8.07H99.81l0,8.07"/><circle class="cls-12" cx="102.37" cy="146.8" r="1.11"/><circle class="cls-12" cx="108.61" cy="146.81" r="1.11"/><circle class="cls-12" cx="105.48" cy="149.8" r="1.11"/><circle class="cls-12" cx="102.37" cy="152.94" r="1.11"/><circle class="cls-12" cx="108.6" cy="152.93" r="1.11"/></g><g id="quina-4" data-name="quina"><path class="cls-11" d="M131,151.8h0a6.28,6.28,0,0,0,1.66,4.27,5.33,5.33,0,0,0,7.95,0,6.23,6.23,0,0,0,1.65-4.27v-8.07H131l0,8.07"/><circle class="cls-12" cx="133.53" cy="146.8" r="1.11"/><circle class="cls-12" cx="139.77" cy="146.81" r="1.11"/><circle class="cls-12" cx="136.64" cy="149.8" r="1.11"/><circle class="cls-12" cx="133.53" cy="152.94" r="1.11"/><circle class="cls-12" cx="139.76" cy="152.93" r="1.11"/></g><g id="quina-5" data-name="quina"><path class="cls-11" d="M115.39,171.14h0a6.23,6.23,0,0,0,1.66,4.26,5.32,5.32,0,0,0,8,0,6.24,6.24,0,0,0,1.66-4.27v-8.07H115.41l0,8.07"/><circle class="cls-12" cx="117.97" cy="166.14" r="1.11"/><circle class="cls-12" cx="124.21" cy="166.14" r="1.11"/><circle class="cls-12" cx="121.08" cy="169.14" r="1.11"/><circle class="cls-12" cx="117.97" cy="172.28" r="1.11"/><circle class="cls-12" cx="124.2" cy="172.27" r="1.11"/></g></g></g></g></svg>