<svg xmlns="http://www.w3.org/2000/svg" viewBox="0 0 300.28 300.28"><defs><style>.cls-1{fill:#0057a4;}.cls-2,.cls-4{fill:#fff;}.cls-2{stroke:#002561;stroke-width:0.7px;}.cls-3{fill:#002561;}.cls-5{fill:#ed1c24;}</style></defs><title>PSG</title><g id="Слой_2" data-name="Слой 2"><g id="Layer_1" data-name="Layer 1"><g id="g13148"><path id="path13154" class="cls-1" d="M235.27,217.15A108.43,108.43,0,0,0,164.82,42.52c0,92.64,35.14,142.89,70.45,174.63"/><path id="path13156" class="cls-2" d="M299.93,150.14A149.79,149.79,0,1,1,150.14.35,149.79,149.79,0,0,1,299.93,150.14Z"/><path id="path13158" class="cls-3" d="M294.49,150.33A144.53,144.53,0,1,1,150,5.8,144.53,144.53,0,0,1,294.49,150.33"/><path id="path13160" class="cls-4" d="M36.33,150.76A113.66,113.66,0,1,0,150,37.1,113.66,113.66,0,0,0,36.33,150.76"/><path id="path13162" class="cls-5" d="M150.15,184.21c43.56,0,50.64,34.72,49.34,64.15a109.72,109.72,0,0,0,30.64-22.93c-18-18.68-35.08-39-47.8-66.62H118c-12.72,27.65-29.78,47.94-47.8,66.62a109.76,109.76,0,0,0,30.65,22.93c-1.31-29.43,5.77-64.15,49.33-64.15"/><path id="path13164" class="cls-5" d="M181.12,156.12c-12.61-28.49-20.63-64.72-20.63-114.68-3.39-.31-6.87-.47-10.34-.47s-7,.16-10.34.47c0,50-8,86.19-20.63,114.68h61.94"/><path id="path13166" class="cls-3" d="M64.13,218.41A109.54,109.54,0,0,1,135.36,42c0,93.62-35.52,144.39-71.23,176.46"/><path id="path13168" class="cls-3" d="M150.15,260a110,110,0,0,0,35.22-5.76c11-29.29,4-67.37-35.22-67.37S103.91,225,114.93,254.28A110,110,0,0,0,150.15,260"/><path id="path13170" class="cls-3" d="M236.17,218.41A109.54,109.54,0,0,0,164.94,42c0,93.62,35.52,144.39,71.23,176.46"/><path id="path13172" class="cls-4" d="M162.48,209.82v21H120.29a5.89,5.89,0,0,1,2.92,2.92c1.13,2.14,1.8,5.84,4.5,8.31s3.93,2.93,9.1,2.93c.5,0,1.9,1.46,1.9,3.09h.57c0-1.63,1.4-3.09,1.91-3.09h19.38c.5,0,1.91,1.46,1.91,3.09H163c0-1.63,1.41-3.09,1.91-3.09,10.45,0,13.08-6.75,13.08-14.27,0-11.68-5.84-20.9-15.55-20.9"/><path id="path13174" class="cls-4" d="M149.75,209.26c-.79,0-1.43.11-2.05,2.7-.66,2.76-2.36,3.59-3.48,3.59h-.9v-4c2.47-3.59,2.25-7-.78-10.34-3,3.37-3.26,6.75-.79,10.34v4h-.9c-1.12,0-2.82-.83-3.48-3.59-.62-2.59-1.26-2.7-2.05-2.7s-2.45.51-2.22,2,1.07,2.61,1.74,2.3c.36-.17.29-.72.48-1s.68-.25,1.15.25,1.14,2.59,2.58,4.1a3.77,3.77,0,0,0,2.7,1.34v1.59a1.69,1.69,0,0,1-1.24,1.56l2,2.25,2-2.25a1.69,1.69,0,0,1-1.24-1.56v-1.59a3.77,3.77,0,0,0,2.7-1.34c1.44-1.51,2-3.5,2.58-4.1s.94-.55,1.15-.25.12.81.48,1c.68.31,1.52-.84,1.74-2.3s-1.53-2-2.22-2"/><path id="path13176" class="cls-4" d="M122.14,270.84l.68-3.74,6.79,1.24-3.08,17-4.4-.8,2.41-13.24-2.4-.43"/><path id="path13178" class="cls-4" d="M140,278.08a2.83,2.83,0,1,1,3.05-2.61A2.81,2.81,0,0,1,140,278.08Zm.13,8.75,4.18-4.77a11.88,11.88,0,0,0,3.09-6.44c.26-3.62-2.55-6.43-6.73-6.74-4.34-.31-7.55,2.13-7.83,6a6.05,6.05,0,0,0,3.67,6.12,9.29,9.29,0,0,0,2.13.66l.6.06h.15l.19,0-4.48,4.72,5,.37"/><path id="path13180" class="cls-4" d="M150.42,273.86l-.21-3.78,14.81-.83L156.16,287l-4.92.28,7-13.87-7.87.44"/><path id="path13182" class="cls-4" d="M173,271.16c1.76-.32,3.09,1.37,3.7,4.7s-.07,5.41-1.82,5.73-3.18-1.43-3.77-4.71S171.22,271.49,173,271.16Zm-.81-3.92c-4.24.77-6.45,5-5.46,10.44s4.54,8.56,8.85,7.78,6.48-4.95,5.5-10.38-4.54-8.64-8.89-7.84"/><path id="path13184" class="cls-4" d="M37.53,84.43,33.86,82.2l.77-1.29c.85-1.39,1.88-1.71,3.12-1s1.43,1.76.55,3.22Zm3.09,1.87,1.45-2.4c2-3.22,1.28-6-1.93-8a5.4,5.4,0,0,0-8,2.14l-3.7,6.09L43.19,93.1l2.32-3.83-4.89-3"/><path id="path13186" class="cls-4" d="M51.39,69.74l-2.33,2.91L46,67.75Zm3.43,1.19,3,1,3-3.73L43.31,62.5l-3,3.8,9.34,16,3-3.7L51,75.76l3.86-4.83"/><path id="path13188" class="cls-4" d="M58.67,57.25l-3-3.1.6-.57a3.37,3.37,0,0,1,1.7-1,2.22,2.22,0,0,1,1.77.63c.93,1,.73,2.26-.52,3.45ZM63.58,56a4.33,4.33,0,0,0,.86-3.1,5.75,5.75,0,0,0-1.48-3,5.68,5.68,0,0,0-3.7-1.75,5.34,5.34,0,0,0-4.11,1.8l-5,4.8L62,67.24l3.25-3.08-4.56-4.81,7.66,1.86,4-3.83L63.58,56"/><path id="path13190" class="cls-4" d="M77.2,53.87l-3.53,2.75L63.06,43l3.54-2.76,10.6,13.6"/><path id="path13192" class="cls-4" d="M80.84,36a4.45,4.45,0,0,0-3.09.59,1.72,1.72,0,0,0-.82,2.31,1.12,1.12,0,0,0,.81.49,3.07,3.07,0,0,0,1.3-.1c.27-.06.78-.23,1.55-.45a6.17,6.17,0,0,1,3.56-.24,4.1,4.1,0,0,1,2.59,2,8,8,0,0,1,1.15,3c.2,2.09-1.12,4.34-3.46,5.84a10,10,0,0,1-3.74,1.42,8.21,8.21,0,0,1-2.38.16L78,46.94a6.07,6.07,0,0,0,4.28-.66c1.12-.73,1.45-1.74.89-2.61a1.32,1.32,0,0,0-.8-.57,4.54,4.54,0,0,0-2.53.37,12.32,12.32,0,0,1-2.73.6,3.88,3.88,0,0,1-3.77-2.14,5.53,5.53,0,0,1,1.78-8.06,11.88,11.88,0,0,1,5.36-1.78L80.84,36"/><path id="path13194" class="cls-4" d="M101.22,26a4.51,4.51,0,0,0-3.15.06,1.73,1.73,0,0,0-1.2,2.13,1.07,1.07,0,0,0,.72.62,3.07,3.07,0,0,0,1.3.13c.27,0,.81-.1,1.6-.18a6.16,6.16,0,0,1,3.55.36,4.12,4.12,0,0,1,2.22,2.41,8.31,8.31,0,0,1,.63,3.13c-.17,2.09-1.84,4.08-4.41,5.16a9.69,9.69,0,0,1-3.92.77,8.38,8.38,0,0,1-2.38-.24l.36-4a6,6,0,0,0,4.33.07c1.22-.53,1.73-1.46,1.32-2.41a1.32,1.32,0,0,0-.7-.71,4.54,4.54,0,0,0-2.55-.07,12.36,12.36,0,0,1-2.79.14,3.93,3.93,0,0,1-3.36-2.74,5.54,5.54,0,0,1,3.13-7.65,11.83,11.83,0,0,1,5.58-.85L101.22,26"/><path id="path13196" class="cls-4" d="M117.87,27.29l-3.59,1,.36-5.8Zm2.09,3,1.87,2.59,4.62-1.27L115.6,16.68,110.9,18l-1.82,18.39,4.57-1.25.34-3.2,6-1.64"/><path id="path13198" class="cls-4" d="M132.47,30.89l-4.42.72-2.78-17,4.42-.72,2.78,17"/><path id="path13200" class="cls-4" d="M134.81,13l4.48-.2L148,22.92l-.49-10.54,4.48-.21.8,17.23-4.48.21-8.72-10.16.5,10.54-4.48.21L134.81,13"/><path id="path13202" class="cls-4" d="M162.34,30.28l-4.46-.38L159,16.5l-3.62-.3.31-3.78,11.81,1-.32,3.78-3.71-.3-1.13,13.4"/><path id="path13204" class="cls-4" d="M172.74,24.7l-.47,3-5.74-.9.47-3,5.74.9"/><path id="path13206" class="cls-4" d="M192.24,26.79c-.16.62-.31,1.1-.42,1.41a12.65,12.65,0,0,1-.9,2.14,8.23,8.23,0,0,1-9.82,4c-5.27-1.41-7.94-6-6.55-11.21s6-8,11.45-6.53A8,8,0,0,1,190.94,20a9.39,9.39,0,0,1,1.28,3.34l-4.57.62a4.85,4.85,0,0,0-.64-2,3.44,3.44,0,0,0-2.18-1.63c-2.54-.67-5,1-5.75,4.09s.45,5.73,3.1,6.43a3.61,3.61,0,0,0,2.51-.14,3.37,3.37,0,0,0,.8-.59,4.21,4.21,0,0,0,.84-1.3l-3.56-.95.89-3.35,8.58,2.28"/><path id="path13208" class="cls-4" d="M201.15,26.32,200.06,29l4.66,1.92-1.45,3.51-4.66-1.92-1.14,2.76,4.91,2-1.44,3.5-9.06-3.73,6.58-15.94,9,3.73-1.45,3.51-4.91-2"/><path id="path13210" class="cls-4" d="M211.66,35.63l2.08-3.74.73.4a3.42,3.42,0,0,1,1.44,1.33,2.25,2.25,0,0,1-.07,1.88c-.65,1.17-2,1.37-3.45.53Zm2.69,4.3a4.33,4.33,0,0,0,3.21-.1,5.69,5.69,0,0,0,3-6.37,5.36,5.36,0,0,0-3-3.38l-6.09-3.38-8.37,15.08L207,44l3.21-5.79.53,7.87,4.86,2.7-1.29-8.8"/><path id="path13212" class="cls-4" d="M229.13,37.06l3.49,2.75-2.93,9.39,8.59-4.94L241.77,47l-8.59,15.19-3.53-2.78,5.13-8.6L225.37,56,224,54.93l3-10.25-7.3,6.9-3.51-2.76,12.95-11.76"/><path id="path13214" class="cls-4" d="M245.46,66.29,243,63.54l5.33-2.31Zm-1.72,3.21-1.45,2.85,3.23,3.53,8.36-16.42-3.29-3.61-17.2,6.72,3.19,3.51,3-1.15,4.16,4.57"/><path id="path13216" class="cls-4" d="M248.89,80.93l-2.65-3.61L260.13,67.1l2.66,3.61-13.9,10.22"/><path id="path13218" class="cls-4" d="M265.92,74.86l2.22,3.89-5.09,12.38,9.17-5.22,2.22,3.89-15,8.55-2.22-3.9,5.09-12.38-9.17,5.23-2.22-3.89,15-8.55"/></g></g></g></svg>