<svg xmlns="http://www.w3.org/2000/svg" viewBox="0 0 283.39 300"><defs><style>.cls-1{fill:#1d1d1b;}.cls-2{fill:#287ab0;}.cls-3{fill:#fff;}.cls-4{fill:#a58d57;}</style></defs><title>PSV</title><g id="Слой_2" data-name="Слой 2"><g id="Слой_1-2" data-name="Слой 1"><path class="cls-1" d="M118.14,0C105.3.2,96.82,7.48,90.62,12.79l-1.85,1.62c-5,4.45-10.72,9.49-21,9.49-9.42,0-14.9-3.59-15-3.62l-3.8-2.6a1.43,1.43,0,0,0-1.91.26l-3,3.54L11.09,61.94a1.44,1.44,0,0,0,.13,2l3.47,3.22c.21.19,20.72,19.8,19.67,54.32C33.29,156.8,3.62,177,3.32,177.19L.64,179A1.44,1.44,0,0,0,0,180.38l.48,3.18c.1.61,2.39,15.05,8.21,27.14,12,24.9,28,40.22,49,46.85,3.8,1.2,7.89,2.15,12.63,3.25,9.51,2.21,21.34,5,35.49,11.09,20.79,9,30.52,21.9,30.62,22l4,5.5a1.44,1.44,0,0,0,2.31,0l4.06-5.51c.1-.12,9.83-13,30.61-22,14.16-6.13,26-8.88,35.49-11.09,4.74-1.1,8.83-2.05,12.64-3.25,21-6.63,37-22,49-46.85,5.81-12.07,8.12-26.52,8.21-27.13l.5-3.18a1.44,1.44,0,0,0-.63-1.42l-2.69-1.78c-.3-.2-30-20.38-31-55.75-1-34.52,19.47-54.13,19.68-54.32l3.45-3.21a1.43,1.43,0,0,0,.14-2l-3-3.66-33-40.37a1.45,1.45,0,0,0-1.93-.27l-3.84,2.63s-5.52,3.62-15,3.62c-10.23,0-15.93-5-20.95-9.49l-1.84-1.61C186.57,7.48,178.08.2,165.25,0a41.29,41.29,0,0,0-23.56,6.45A41.25,41.25,0,0,0,118.14,0Z"/><path class="cls-2" d="M142.66,22.71l3.64-3.62c.27-.27,6.43-6.37,18.75-6.18,7.59.11,12.79,4.08,19.32,9.68l1.7,1.49c5.72,5.06,14.38,12.73,29.5,12.73a48.35,48.35,0,0,0,9-.87L45,236.77c-9.72-7.11-17.8-17.47-24.64-31.67A92,92,0,0,1,14,185.34c8.39-6.62,32.22-28.47,33.28-63.51l.05-3c0-29.43-13.21-48.87-19.71-56.66L50.91,33.65a44.92,44.92,0,0,0,16.9,3.16c15.13,0,23.78-7.67,29.51-12.74L99,22.58c6.51-5.59,11.72-9.56,19.31-9.67,12.31-.19,18.46,5.9,18.71,6.16l3.57,3.63a1.44,1.44,0,0,0,2,0Z"/><path class="cls-2" d="M208.91,202.88c-.5.61-1,1.22-1.54,1.8a29.79,29.79,0,0,1-6.05,4.89,16.35,16.35,0,0,0-9-2.68,15.1,15.1,0,0,0-8.42,2.5,15.1,15.1,0,0,0-8.42-2.5,16.35,16.35,0,0,0-9,2.68,29.79,29.79,0,0,1-6.05-4.89c-.56-.58-1-1.19-1.54-1.8Z"/><path class="cls-2" d="M201.32,189.75a29.79,29.79,0,0,1,6.05,4.89c.56.57,1,1.19,1.54,1.79h-50c.5-.6,1-1.21,1.54-1.79a29.79,29.79,0,0,1,6.05-4.89,16.35,16.35,0,0,0,9,2.68,15.1,15.1,0,0,0,8.42-2.5,15.18,15.18,0,0,0,8.42,2.5A16.35,16.35,0,0,0,201.32,189.75Z"/><path class="cls-2" d="M192.31,213.34a9.9,9.9,0,0,1,5.52,1.64v23.64a41.23,41.23,0,0,1-10.72,2.27V215A8.64,8.64,0,0,1,192.31,213.34Z"/><path class="cls-2" d="M150.88,202.88a36.22,36.22,0,0,0,4.88,6.27,35.73,35.73,0,0,0,7.75,6.17v20.33a41.62,41.62,0,0,1-20.86-32.77Z"/><path class="cls-2" d="M187.12,158.42a41.68,41.68,0,0,1,10.71,2.28v23.63a9.87,9.87,0,0,1-5.52,1.65,8.67,8.67,0,0,1-5.19-1.64Z"/><path class="cls-2" d="M180.66,158.42c0,1.45,0,25.22,0,25.92a8.64,8.64,0,0,1-5.2,1.64,9.92,9.92,0,0,1-5.51-1.64V160.7A41.52,41.52,0,0,1,180.66,158.42Z"/><path class="cls-2" d="M163.51,163.66c0,2.16,0,19.61,0,20.34a37.69,37.69,0,0,0-12.62,12.43h-8.23A41.62,41.62,0,0,1,163.51,163.66Z"/><path class="cls-2" d="M204.28,163.67a41.61,41.61,0,0,1,20.85,32.76H216.9A37.83,37.83,0,0,0,204.28,184Z"/><path class="cls-2" d="M175.47,213.34a8.64,8.64,0,0,1,5.2,1.64c0,.7,0,24.45,0,25.91a41.09,41.09,0,0,1-10.7-2.27V215A9.83,9.83,0,0,1,175.47,213.34Z"/><path class="cls-2" d="M225.13,202.88a41.63,41.63,0,0,1-20.85,32.77V215.32a36.21,36.21,0,0,0,7.74-6.17,36.61,36.61,0,0,0,4.88-6.26Z"/><path class="cls-1" d="M55.41,172.26l-3.88,4.34a.68.68,0,0,0-.18.5.66.66,0,0,0,.23.47l18,16.11a.68.68,0,0,0,1-.06l3.89-4.34a.69.69,0,0,0,.17-.5.66.66,0,0,0-.23-.47l-18-16.11A.7.7,0,0,0,55.41,172.26Z"/><path class="cls-1" d="M91,143c1.51-.1,3.2.73,5.32,2.62,1.94,1.74,2.9,3.33,3,5l0,.6c0,1.44-.44,2.77-2.67,5.29l-1.48,1.65L83.94,148.13l1.74-1.95h0C87.54,144.11,88.6,143.18,91,143Zm1.16-6.59h0a11.2,11.2,0,0,0-6.42,2.45,33.45,33.45,0,0,0-4.38,4.38l-5.93,6.62a.72.72,0,0,0-.18.5.71.71,0,0,0,.23.47l18,16.11a.67.67,0,0,0,.49.17.69.69,0,0,0,.48-.23l5.84-6.53a26.59,26.59,0,0,0,3.7-5,12.52,12.52,0,0,0,1.6-7.13,12,12,0,0,0-4.37-8.05c-2.89-2.58-6.11-3.92-9.07-3.75"/><path class="cls-1" d="M109.21,112.19a.71.71,0,0,0-.48.23l-.13.15-3.84,4.3a.67.67,0,0,0-.18.46.69.69,0,0,0,.23.51l6.87,6.14-6.21,7-6.87-6.15a.68.68,0,0,0-.5-.17.66.66,0,0,0-.47.23l-4,4.45a.68.68,0,0,0,.06,1l18,16.1a.68.68,0,0,0,1-.06l4-4.44a.75.75,0,0,0,.17-.46.71.71,0,0,0-.23-.52l-7.23-6.46,6.21-6.95,7.23,6.47a.72.72,0,0,0,.5.18.71.71,0,0,0,.47-.23l4-4.45a.72.72,0,0,0,.18-.5.71.71,0,0,0-.23-.47l-18-16.1A.68.68,0,0,0,109.21,112.19Z"/><path class="cls-1" d="M123.25,103.45a5.93,5.93,0,0,1,3.65-2.19c1.87-.2,4,.77,6.44,3s3.69,4.22,3.69,6.1a7.31,7.31,0,0,1-5.45,6c-1.86.21-4-.77-6.43-3s-3.7-4.22-3.7-6.1A6,6,0,0,1,123.25,103.45ZM128.63,95h0c-3.11.39-6.1,2.18-8.9,5.31s-4.23,6.31-4.26,9.46c0,3.38,1.53,6.5,4.63,9.28s6.42,4,9.76,3.59c3.11-.4,6.11-2.18,8.9-5.31S143,111,143,107.87c0-3.38-1.53-6.51-4.63-9.28s-6.43-4-9.77-3.59"/><path class="cls-1" d="M145.44,71.18l-4.15,4.64a.67.67,0,0,0-.18.46.62.62,0,0,0,.09.32s8.15,15.23,8.41,15.73l-16.49-6.7a.69.69,0,0,0-.77.18l-4.41,4.93a.7.7,0,0,0-.15.64.67.67,0,0,0,.44.47l25,8.45a.67.67,0,0,0,.73-.19l3.77-4.21a.69.69,0,0,0,.11-.75L146.57,71.34a.69.69,0,0,0-.52-.38A.67.67,0,0,0,145.44,71.18Z"/><path class="cls-1" d="M159.35,56.23a.74.74,0,0,0-.48.22l-.13.15h0L147.7,69a.68.68,0,0,0,.06,1l18,16.1a.68.68,0,0,0,1,0l11.5-12.85a.69.69,0,0,0,0-1l-2.87-2.57a.72.72,0,0,0-.5-.18.75.75,0,0,0-.48.23l-7.14,8L163,73.85,169.12,67a.64.64,0,0,0,.18-.45v0a.73.73,0,0,0-.23-.48l-2.51-2.24a.68.68,0,0,0-1,.05l-6.14,6.87L156,67.55l6.81-7.61a.67.67,0,0,0,.18-.46v0a.71.71,0,0,0-.23-.47l-2.87-2.57A.71.71,0,0,0,159.35,56.23Z"/><path class="cls-1" d="M49.06,179.58a.71.71,0,0,0-.47.23l-.13.15h0l-11,12.34a.69.69,0,0,0,0,1l18,16.1a.69.69,0,0,0,.5.18.66.66,0,0,0,.47-.23l11.49-12.85a.68.68,0,0,0,0-1L65,192.94a.68.68,0,0,0-.5-.18.66.66,0,0,0-.47.23l-7.15,8-4.22-3.77,6.15-6.88a.65.65,0,0,0,.18-.46v0a.67.67,0,0,0-.23-.48l-2.51-2.24a.69.69,0,0,0-1,0L49.16,194l-3.49-3.13,6.82-7.61a.71.71,0,0,0,.17-.46v0a.71.71,0,0,0-.23-.48l-2.87-2.56A.72.72,0,0,0,49.06,179.58Z"/><path class="cls-1" d="M176.76,36.68a.66.66,0,0,0-.47.23l-.13.15h0l-2.78,3.11a.71.71,0,0,0-.17.46v0a.66.66,0,0,0,.23.47l11,9.81L167,47.84a.69.69,0,0,0-.64.21l-4.83,5.4a.7.7,0,0,0,.06,1l18,16.1a.68.68,0,0,0,1-.06l2.9-3.24a.67.67,0,0,0,.18-.46v0a.71.71,0,0,0-.23-.48L172.1,56.17l18,3.14a.7.7,0,0,0,.64-.22l4.62-5.16a.68.68,0,0,0-.06-1l-18-16.1A.65.65,0,0,0,176.76,36.68Z"/><path class="cls-1" d="M73.35,152.5a.69.69,0,0,0-.48.23l-.13.14h0L70,156a.65.65,0,0,0-.18.46v0A.67.67,0,0,0,70,157l11,9.8-17.45-3.1a.7.7,0,0,0-.64.22l-4.82,5.4a.68.68,0,0,0-.18.5.66.66,0,0,0,.23.47l18,16.1a.68.68,0,0,0,.5.18.66.66,0,0,0,.47-.23L80,183a.7.7,0,0,0,.17-.45.71.71,0,0,0-.23-.52L68.68,172l18,3.14a.69.69,0,0,0,.63-.22l4.62-5.16a.7.7,0,0,0-.05-1l-18-16.1A.67.67,0,0,0,73.35,152.5Z"/><path class="cls-3" d="M236.12,38.1c1.36,1.65,18.3,22.36,19.67,24-6.5,7.79-19.71,27.23-19.71,56.66l0,3c1.07,35,24.9,56.89,33.29,63.51a92.55,92.55,0,0,1-6.36,19.76c-10.36,21.52-23.87,34.65-41.29,40.14-3.33,1-7.2,1.95-11.67,3-10,2.33-22.49,5.22-37.71,11.82a98.44,98.44,0,0,0-30.69,20.41A98.19,98.19,0,0,0,111,260.05c-15.22-6.6-27.68-9.49-37.7-11.82-4.48-1-8.34-1.94-11.67-3a57.77,57.77,0,0,1-7.9-3.2Zm-10.2,163.35H216.5a.71.71,0,0,0-.61.36,36.49,36.49,0,0,1-12.68,12.48.72.72,0,0,0-.37.63v22a.72.72,0,0,0,.37.61.74.74,0,0,0,.72,0,43.09,43.09,0,0,0,22.7-35.25.79.79,0,0,0-.19-.55.72.72,0,0,0-.52-.25M168.82,214a.73.73,0,0,0-.3.58v24.54a.74.74,0,0,0,.47.68,42.65,42.65,0,0,0,12.35,2.59.69.69,0,0,0,.53-.2.68.68,0,0,0,.23-.52V214.6a.72.72,0,0,0-.27-.56,10.15,10.15,0,0,0-6.36-2.14,11.41,11.41,0,0,0-6.65,2.11m34.37-52.19a.73.73,0,0,0-.35.61v22a.72.72,0,0,0,.37.62,36.6,36.6,0,0,1,12.63,12.41l.11.15a.7.7,0,0,0,.57.29h9.39a.77.77,0,0,0,.52-.26.8.8,0,0,0,.2-.57A43.1,43.1,0,0,0,203.9,161.8a.72.72,0,0,0-.71,0m-39.3,0A43,43,0,0,0,141.16,197a.77.77,0,0,0,.71.83h9.41a.69.69,0,0,0,.61-.35A36.62,36.62,0,0,1,164.57,185a.7.7,0,0,0,.37-.62v-22a.71.71,0,0,0-1.05-.63m17.38-4.88A42.92,42.92,0,0,0,169,159.51a.71.71,0,0,0-.47.67v24.55a.7.7,0,0,0,.3.58,11.39,11.39,0,0,0,6.65,2.1,10.22,10.22,0,0,0,6.36-2.13.74.74,0,0,0,.27-.57V157.64a.75.75,0,0,0-.26-.52.8.8,0,0,0-.57-.2m4.66.19a.76.76,0,0,0-.25.52v27.08a.72.72,0,0,0,.27.56,10.15,10.15,0,0,0,6.36,2.14,11.46,11.46,0,0,0,6.65-2.1.72.72,0,0,0,.3-.58V160.18a.71.71,0,0,0-.47-.67,42.32,42.32,0,0,0-12.3-2.59.8.8,0,0,0-.56.19m-44.05,44.34a.74.74,0,0,0-.53.25.75.75,0,0,0-.2.55,43.09,43.09,0,0,0,22.74,35.27.7.7,0,0,0,.7,0,.71.71,0,0,0,.35-.62v-22a.73.73,0,0,0-.36-.63,36.32,36.32,0,0,1-12.69-12.49.71.71,0,0,0-.61-.35h-9.4M186,214.05a.71.71,0,0,0-.27.56v27.07a.68.68,0,0,0,.23.52.69.69,0,0,0,.53.2,42.7,42.7,0,0,0,12.31-2.58.78.78,0,0,0,.51-.69V214.58a.7.7,0,0,0-.3-.58,11.46,11.46,0,0,0-6.65-2.1,10.14,10.14,0,0,0-6.36,2.15m15-25.74a14.9,14.9,0,0,1-8.59,2.69,13.83,13.83,0,0,1-8-2.5.69.69,0,0,0-.81,0l-.05,0a13.9,13.9,0,0,1-8,2.47,14.93,14.93,0,0,1-8.59-2.69.72.72,0,0,0-.77,0,31.51,31.51,0,0,0-6.74,5.36,35.5,35.5,0,0,0-2.63,3.08.72.72,0,0,0-.07.75.74.74,0,0,0,.65.4h53.14a.73.73,0,0,0,.63-.43.76.76,0,0,0-.09-.77,34.89,34.89,0,0,0-2.59-3,31.51,31.51,0,0,0-6.74-5.36.72.72,0,0,0-.77,0m9.57,13.14H157.32a.72.72,0,0,0-.58,1.15,35.64,35.64,0,0,0,2.63,3.07,31.63,31.63,0,0,0,6.74,5.37.72.72,0,0,0,.77,0,15,15,0,0,1,8.59-2.68,13.87,13.87,0,0,1,8,2.46.81.81,0,0,0,.87,0,13.8,13.8,0,0,1,8-2.5A15,15,0,0,1,200.9,211a.72.72,0,0,0,.77,0,31.3,31.3,0,0,0,6.74-5.37A35.39,35.39,0,0,0,211,202.6a.73.73,0,0,0,.07-.75.71.71,0,0,0-.64-.4"/><path class="cls-4" d="M144.27,17.06l-2.61,2.6-2.57-2.6c-.29-.3-7.27-7.23-20.8-7-8.55.13-14.15,4.38-21.14,10.37l-1.72,1.51c-5.41,4.79-13.58,12-27.62,12A41.75,41.75,0,0,1,51.05,30.6a1.45,1.45,0,0,0-1.69.41L24.62,61.24a1.44,1.44,0,0,0,0,1.85c6,6.87,19.79,26.05,19.79,55.71l0,3c-1,34.75-25.42,56.15-32.87,61.88a1.45,1.45,0,0,0-.53,1.43c.95,4.67,3.09,13.66,6.77,21.29,7.29,15.15,16,26.12,26.58,33.54a1.44,1.44,0,0,0,1.89-.22L229.77,34.43a1.44,1.44,0,0,0-1.49-2.33,43.45,43.45,0,0,1-12.71,1.84c-14,0-22.2-7.23-27.61-12l-1.71-1.51c-7-6-12.61-10.25-21.16-10.38C151.56,9.83,144.56,16.77,144.27,17.06ZM235.1,34.94,50.32,241.56a1.44,1.44,0,0,0-.35,1.21,1.43,1.43,0,0,0,.74,1A60.14,60.14,0,0,0,60.77,248c3.43,1.08,7.35,2,11.88,3,9.9,2.3,22.22,5.17,37.21,11.66,15.27,6.62,25.18,15,30.8,20.8a1.44,1.44,0,0,0,2.07,0c5.62-5.84,15.53-14.19,30.79-20.8,15-6.49,27.3-9.36,37.2-11.66,4.55-1.05,8.47-2,11.9-3,18.22-5.75,32.29-19.37,43-41.63a97,97,0,0,0,6.77-21.29,1.45,1.45,0,0,0-.53-1.43C264.42,177.9,240,156.5,239,121.75l0-3c0-29.66,13.84-48.84,19.79-55.71a1.45,1.45,0,0,0,0-1.85L237.28,35a1.46,1.46,0,0,0-1.08-.52,1.41,1.41,0,0,0-1.1.48M142.5,9.34a38.5,38.5,0,0,1,22.71-6.47C177,3.05,185,9.94,190.9,15l1.82,1.59c5.4,4.78,11.53,10.21,22.85,10.21,10.45,0,16.51-4.08,16.57-4.13l2.76-1.88L267.09,60.1l2.13,2.62L266.74,65c-.21.2-20.62,19.51-20.62,53.87,0,.87,0,1.76,0,2.65,1.12,37,32,57.84,32.32,58.05l1.92,1.27c-.14.93-.35,2.27-.35,2.27-.09.6-2.33,14.65-8,26.34-11.63,24.15-27.1,39-47.32,45.35-3.69,1.17-7.74,2.11-12.41,3.19-9.62,2.24-21.59,5-36,11.26-21.64,9.38-31.68,22.82-31.78,22.95l-2.9,3.94-2.89-3.94c-.1-.13-10.14-13.57-31.79-22.95-14.39-6.24-26.36-9-36-11.26-4.68-1.08-8.72-2-12.42-3.19-20.21-6.37-35.69-21.2-47.31-45.35-5.64-11.72-7.87-25.74-8-26.34,0,0-.21-1.34-.35-2.27l1.92-1.27c.31-.21,31.2-21.08,32.32-58.05,0-.89,0-1.78,0-2.65,0-34.36-20.42-53.67-20.63-53.87l-2.48-2.3L46.4,23.3l2.12-2.52,2.72,1.87c.25.17,6.16,4.12,16.57,4.12,11.32,0,17.45-5.43,22.86-10.21L92.5,15c5.85-5,13.88-11.91,25.68-12.09a38.4,38.4,0,0,1,22.69,6.47,1.43,1.43,0,0,0,1.63,0"/><path class="cls-3" d="M56,173.69l17,15.18-3,3.32L53,177Z"/><path class="cls-3" d="M90.88,141.64c-3,.21-4.33,1.51-6.23,3.63l-2.19,2.46a.69.69,0,0,0,.05,1l12.28,11a.68.68,0,0,0,1,0l1.93-2.17c2.21-2.47,3-4.15,3-6.2l0-.7c-.15-2.06-1.25-4-3.47-5.94C94.81,142.45,92.79,141.51,90.88,141.64Zm9.41-.44a10.7,10.7,0,0,1,3.92,7.12c0,.29,0,.57,0,.85a11.4,11.4,0,0,1-1.47,5.53,25.47,25.47,0,0,1-3.51,4.74l-5.39,6-17-15.18,5.47-6.12A32,32,0,0,1,86.53,140a9.93,9.93,0,0,1,5.69-2.2c2.59-.14,5.46,1.07,8.07,3.41"/><path class="cls-3" d="M109.3,113.85l17,15.18-3.06,3.43L116,126a.72.72,0,0,0-.5-.18.75.75,0,0,0-.48.23l-7.12,8a.67.67,0,0,0-.18.46v0a.66.66,0,0,0,.23.47l7.23,6.47-3.06,3.42-17-15.18,3.06-3.42,6.87,6.14a.69.69,0,0,0,1,0l7.13-8a.71.71,0,0,0,.17-.46v0a.66.66,0,0,0-.23-.47l-6.87-6.15Z"/><path class="cls-3" d="M126.75,99.9a8.57,8.57,0,0,0-6.67,7.4h0c0,2.29,1.35,4.62,4.15,7.12s5.23,3.57,7.51,3.31a8.6,8.6,0,0,0,6.67-7.4c0-2.3-1.36-4.63-4.15-7.12S129,99.64,126.75,99.9Zm10.73-.28c2.79,2.5,4.2,5.27,4.17,8.23s-1.34,5.69-3.91,8.56-5.28,4.51-8.05,4.86c-2.93.37-5.85-.72-8.68-3.25s-4.16-5.22-4.16-8.15v-.09c0-2.8,1.34-5.68,3.91-8.56s5.27-4.5,8-4.86c2.93-.37,5.84.73,8.67,3.26"/><path class="cls-3" d="M145.77,72.87l10.59,22.45-3.16,3.53-23.54-8,3.39-3.79,17.8,7.23a.71.71,0,0,0,.77-.18.69.69,0,0,0,.18-.46.67.67,0,0,0-.08-.33l-1.45-2.72s-7.21-13.45-7.63-14.25C143.1,75.85,145.08,73.64,145.77,72.87Z"/><path class="cls-3" d="M159.44,57.88l1.85,1.65-6.81,7.62a.67.67,0,0,0-.18.46.71.71,0,0,0,.23.51l4.51,4a.68.68,0,0,0,.5.18.66.66,0,0,0,.47-.23l6.14-6.87,1.49,1.33-6.16,6.88a.69.69,0,0,0-.17.46v0a.7.7,0,0,0,.22.48l5.25,4.69a.69.69,0,0,0,1,0l7.15-8,1.84,1.65L166.17,84.54l-17-15.19Z"/><path class="cls-3" d="M49.16,181.24,51,182.89l-6.81,7.62A.66.66,0,0,0,44,191a.68.68,0,0,0,.22.51l4.52,4a.68.68,0,0,0,.49.18.71.71,0,0,0,.48-.23l6.14-6.87,1.48,1.33L51.2,196.8a.7.7,0,0,0-.18.46.71.71,0,0,0,.23.52l5.24,4.69a.7.7,0,0,0,1-.06l7.14-8,1.85,1.65L55.88,207.9l-17-15.19Z"/><path class="cls-3" d="M176.86,38.34l17,15.18-3.91,4.37L170,54.4a.7.7,0,0,0-.74.38.82.82,0,0,0-.07.3.68.68,0,0,0,.23.51l12.56,11.23L180,69,163,53.86l4.11-4.6,19.46,3.46a.68.68,0,0,0,.73-.38.66.66,0,0,0,.07-.3.71.71,0,0,0-.23-.52l-12.25-11Z"/><path class="cls-3" d="M73.44,154.16l17,15.18c-.7.78-3.51,3.91-3.91,4.37l-20-3.49a.68.68,0,0,0-.73.38.63.63,0,0,0-.07.3.68.68,0,0,0,.23.51l12.55,11.23-2,2.22-17-15.19,4.11-4.59,19.46,3.45a.69.69,0,0,0,.74-.37.67.67,0,0,0,.07-.31.69.69,0,0,0-.23-.51l-12.26-11Z"/></g></g></svg>