<svg xmlns="http://www.w3.org/2000/svg" viewBox="0 0 298.02 300"><defs><style>.cls-1,.cls-2{fill:#fff;}.cls-1,.cls-4,.cls-5{fill-rule:evenodd;}.cls-3,.cls-4{fill:#344183;}.cls-5{fill:#cd1719;}</style></defs><title>Rangers</title><g id="Слой_2" data-name="Слой 2"><g id="Слой_1-2" data-name="Слой 1"><path class="cls-1" d="M149,1.53C230.42,1.53,296.49,68,296.49,150S230.42,298.47,149,298.47,1.53,232,1.53,150,67.6,1.53,149,1.53Z"/><path class="cls-2" d="M149,300C66.85,300,0,232.71,0,150S66.85,0,149,0,298,67.29,298,150,231.18,300,149,300ZM149,3.06C68.53,3.06,3.06,69,3.06,150S68.53,296.94,149,296.94,295,231,295,150,229.49,3.06,149,3.06Z"/><path class="cls-3" d="M149,289.55C72.17,289.55,9.65,227,9.65,150S72.17,10.47,149,10.47,288.37,73.06,288.37,150,225.85,289.55,149,289.55Zm0-276C73.85,13.52,12.71,74.75,12.71,150S73.85,286.49,149,286.49,285.31,225.26,285.31,150,224.17,13.52,149,13.52Zm-.16,239.83c-57.19,0-103.72-46.09-103.72-102.75S91.66,47.86,148.85,47.86,252.57,94,252.57,150.6,206,253.35,148.85,253.35Zm0-202.44c-55.51,0-100.66,44.72-100.66,99.69s45.15,99.7,100.66,99.7,100.66-44.73,100.66-99.7S204.36,50.91,148.85,50.91Z"/><path class="cls-4" d="M105.91,108.71c-6.81,25.92-4.74,48.43-.16,70,28.94,27,57.7,27.89,86.22.33,4.05-23.13,5.46-46.39,0-70-27-23.7-55.24-29.66-86.06-.32Z"/><path class="cls-5" d="M118.25,166.1c1.84-2.17,2.38-4.34-.31-6.5,4.43-3.89,8.72-6.09,12.29.31,1.25,2.08,2.45,4.24,5.53,2.63a12,12,0,0,0-2.15-3.88l-2.31-6.18c-.54-1.27.19-2,2.47-2,2.75-1.85,5.59-2.83,8.75-.46a35.62,35.62,0,0,0,6.15,5.88c.26-3.25,1.52-7.12-3.38-7.27-2.18-3.27-4.73-5.15-8.14-3.88-2.46-1.57-4.91-3.15-6.46-.15a6.65,6.65,0,0,0-5.68,2.17c-1.59.95-3.17,0-4.76-.93-2-1-4-.8-6,1.08-2.24-.56-2.66-1.48-2.76-2.48-.86-1.09-1.81-2.08-3.53-1.85-1.16-.67-1-1.34-.16-2a5.38,5.38,0,0,0-.15-3.56c-.6-1.62.37-2.27,1.84-2.63,2.16-3.29,4.28-7.37,6.92-.63,4.61,3.72,7.37,3.72,6.14-1.23-.54-2-1.25-4-4-5.1-1.77-1.44-3.85-2.91-.92-3.87,0-1.05-1.38-1.63-3.84-1.86-2.59-1.77-2.28-2.94-.76-3.87-1.09-4.74-1.39-8.85,3.53-8.83.26-1.74,1.63-2.17,4.3-1.08,2.55.09,4.56.88,4.15,4.8-1,3.79-1.72,7.37,1.69,8,3,1.55,5.19,3.84,10.45,3.1,4-1.4,3.2-3.24.76-4.5-.69-2.06-.14-3.59,4.15-3.56.92-2.79-.66-3.38-3.07-3.25-4.16-1.6-5.33-3.65-.92-6.49,2.09-2,5-3,8.75-2.94,1.74-2.07,4.87-2,8.3-1.56,1.33-3.12,2.66-3,4,3.72,1.87.4,2.21,6,2,13.46.48,4.52.5,8-1.55,7-2,1.6-2.74,3.2-.15,4.79,1.56,1.62.87,3-1.23,4.19l-2.31,6.81c3.08,4.64,8.77,12.38,12.31,11.76,2.31-.28,4.26-1,4.91-3.4-.84-2.81-2.33-2.69-4-1.7-4.09,0-3.47-3.17-2-7a4.55,4.55,0,0,1,3.38-2.16c1.14-2,1-3.66-2-4.79-3.94-.22-6.63-1.05-2.92-5.12,1.73-.57,2.5-2.34,2.62-4.94.2-5.27.14-10.8,3.21-13.16,1.29-2.27,2.18-4.51-.46-6.35-1.4-4.32,1.24-6.35,6.31-1.85,1.34,1.28,2.88,2.3,2.76,5.56-.49,1.71.06,2.72,2,2.79,3.08,2.38,2.55,3.89-1.23,4.64-2.37.54-3.41,2.27-1.69,6.5.95,3-.22,3.9-2.91,3.25-4-1.62-4.12.27-3.08,3.26.73,2.41,4.3,1.69,6.14,1.54,4.3,2.32,5.22,7.59-.46,9-.86,1.37,0,4.9.92,8.51,1,4.27-1,6.8-4.91,8.21-3.16,2.41-5.2,2.16-7.07,1.54-5,4.37-3.72,7-.77,9.29,3.79.39,9.62-.71,7.07,4.33,1.25,3.9,2.18,7.53-2.31,7-2.26.44-2.52,2.15-1.53,4.64,1.82,3.41,1,6.38-2,9l-2.77-2.63c-2.52-2-4-.07-5.22,2.63l-2-6.19a6,6,0,0,0-3.84-2.17c1.36-2.84,2.25-5.37,1.08-6.5,1.7-1.16,3.38-2.35,6.91.62,2.37-.76,3.68-1.91-1.22-5.27a42.28,42.28,0,0,0-6-2.63c-3.17.32-4-1.72-3.54-5.1-.07-2.08-2.63-3.66-5.06-5.26-2.89,0-4.57,1-2.46,5.1,1.46,5.29.23,7.1-2.76,6.66l-4,2.16c-1.57-.08-2.52-.48-2.46-1.39a3.31,3.31,0,0,0-2.76.93c-1.28,1.42-2.57.56-3.84-1.7-1.36-1.41-2.84-1.72-4.61.62a10.25,10.25,0,0,0-5.38-5.57Z"/><polygon class="cls-5" points="128.11 110.96 130.04 112.89 133.09 114.33 131 112.24 130.52 110.31 128.11 110.96 128.11 110.96 128.11 110.96"/><polygon class="cls-4" points="144.19 106.45 145.96 106.29 148.06 105.17 147.09 107.42 144.19 106.45 144.19 106.45 144.19 106.45"/><path class="cls-4" d="M95.13,97.93l9.17,5.15c29.87-26.29,59.51-25.19,89-.33l8.68-5c-35.4-29.53-71-30.76-106.81.16Z"/><path class="cls-4" d="M84.68,95.84l4.66.8c36.38-34.71,75.89-36.7,119-.8l4.67-1c-33.79-40.05-88.64-45.36-128.37,1Z"/><path class="cls-4" d="M71.32,122.54c1-7.14,5-14.62,10-22.2,6.77,1.2,13.69,2,19,7.24a180,180,0,0,0-3.54,22.36,74.89,74.89,0,0,1-25.42-7.4Z"/><path class="cls-4" d="M226.4,122.55c-1-7.14-5-14.62-10-22.2-6.77,1.2-13.69,2.05-19,7.24A180,180,0,0,1,201,130a75,75,0,0,0,25.42-7.4Z"/><path class="cls-4" d="M69.88,126.24c-1.85,11.39-3.16,22.67,0,33.13,8.74-2.47,17.45-4.9,26.7-8.36l-.32-16.25c-10.29-1-19.55-3.23-26.38-8.52Z"/><path class="cls-4" d="M227.7,126.41c1.84,11.38,3.15,22.66,0,33.13-8.75-2.47-17.48-4.91-26.71-8.36l.32-16.25c10.29-1,19.55-3.23,26.39-8.52Z"/><path class="cls-4" d="M71,163.39A56.41,56.41,0,0,0,80.17,187a62.06,62.06,0,0,0,20.27-7.56,127.45,127.45,0,0,1-3.7-23C88.16,159.33,79.58,163,71,163.39Z"/><path class="cls-4" d="M226.48,164.21a56.42,56.42,0,0,1-9.17,23.64A62.2,62.2,0,0,1,197,180.29a128.49,128.49,0,0,0,3.7-23c8.58,2.85,17.16,6.51,25.74,6.92Z"/><path class="cls-4" d="M95.13,190.31l9.17-5.15c29.87,26.29,59.51,25.2,89,.32l8.68,5c-35.4,29.54-71,30.76-106.81-.16Z"/><path class="cls-4" d="M84.35,193.2l4.67-.8c36.38,34.71,75.9,36.7,119,.8l4.66,1c-33.78,40.05-88.63,45.36-128.37-1Z"/><path class="cls-4" d="M121.37,229.88a2,2,0,0,0,0-2,3,3,0,0,0-1.59-1.1l-1-.39-2,4.18,1,.38a4.82,4.82,0,0,0,2.33.35,2.93,2.93,0,0,0,1.23-1.45Zm-.88,10-3.18-1.22a5.22,5.22,0,0,1,.47-2.13c.14-.31.33-.79.59-1.44a9,9,0,0,0,.38-1.12,1.29,1.29,0,0,0,0-.92,3.3,3.3,0,0,0-1.48-1l-.94-.36-2.62,5.57-3-1.15,5.65-12,4.62,1.78a7,7,0,0,1,2.87,1.83,2.78,2.78,0,0,1,.61,3.19,3.42,3.42,0,0,1-1.37,1.41,3,3,0,0,1-1.82.49,2.84,2.84,0,0,1-1.27-.19,3.31,3.31,0,0,1,1.53,1.35,2.69,2.69,0,0,1-.06,2.08,27.48,27.48,0,0,0-.91,2.66,4.68,4.68,0,0,0,0,1.18Z"/><polygon class="cls-4" points="138.04 243.63 128.96 242.01 131.74 229.21 140.04 230.69 139.75 232.01 134.64 231.11 133.81 234.91 138.15 235.67 137.87 236.92 133.53 236.16 132.42 241.3 138.32 242.35 138.04 243.63 138.04 243.63 138.04 243.63"/><path class="cls-4" d="M151.36,239.86l-1.82-6-1.81,6,3.63,0Zm4.52,4.3-3.23,0-1-3-4.3,0-.94,3h-1.51L149,231.16l2.73,0,4.13,13Z"/><path class="cls-4" d="M169.76,235.77a15.65,15.65,0,0,0-1.3-3.56,2.57,2.57,0,0,0-1.35-1.21,3.41,3.41,0,0,0-1.94-.12l-1.18.26,2.73,10.31,1.17-.26a2.64,2.64,0,0,0,2.28-1.86,9.81,9.81,0,0,0-.41-3.56Zm3.16-1.36q1.72,6.59-4.53,7.93l-4.48,1-3.35-12.7,4.61-1a6.09,6.09,0,0,1,5.19,1,5.86,5.86,0,0,1,2.56,3.81Z"/><polygon class="cls-4" points="184 222.97 185.07 231.65 187.47 235.99 184.56 237.31 182.17 232.97 174.58 227.22 177.55 225.89 183.6 230.56 182.66 223.57 184 222.97 184 222.97 184 222.97"/><path class="cls-4" d="M74.79,250.67a4.25,4.25,0,0,0-1.18,3.65,5.26,5.26,0,0,0,2,2.91l1.61,1.41,5.84-6.7-1.59-1.39A5.2,5.2,0,0,0,78.27,249a4.41,4.41,0,0,0-3.48,1.69Zm7.3-16L85.91,238a9.5,9.5,0,0,1-1.81,3c-.39.48-1,1.21-1.73,2.19a12.94,12.94,0,0,0-1.24,1.79,2.52,2.52,0,0,0-.43,2,5.32,5.32,0,0,0,1.74,2.49L84,250.86l7.21-8.25,3.49,3.06L79.6,262.89l-5.92-5.17a11.66,11.66,0,0,1-3.37-4.59,5,5,0,0,1,.86-5.3,5.29,5.29,0,0,1,2.74-1.62,5.39,5.39,0,0,1,3.19,0,12.41,12.41,0,0,1,1.91.94,8.32,8.32,0,0,1-1.49-3.39,5.07,5.07,0,0,1,1.21-3.33c.72-.89,1.7-2.26,2.93-4.13a4,4,0,0,0,.43-1.68Z"/><path class="cls-4" d="M61.82,223.5l-6.7,10,11-5-4.31-5Zm1.1-9.69,3,3.54-3.15,4.71,4.91,5.72,5.17-2.35,1.21,1.4-21.77,9.78-2.55-3,13.14-19.84Z"/><polygon class="cls-4" points="48.94 191.41 50.67 194.49 40.23 211.55 55.45 202.98 56.28 204.44 36.34 215.68 34.63 212.65 45.01 195.48 29.79 204.04 28.99 202.64 48.94 191.41 48.94 191.41 48.94 191.41"/><path class="cls-4" d="M40.28,162.18l.28,1.37-1.47,1a10.9,10.9,0,0,1,2.17,2.28,9.2,9.2,0,0,1,1,2.91,10.39,10.39,0,0,1-.06,5.41,8.39,8.39,0,0,1-3.32,4.24,15.71,15.71,0,0,1-6,2.62,13.42,13.42,0,0,1-8.68-.75,9.11,9.11,0,0,1-5.13-6.78,7.57,7.57,0,0,1,.17-4,5.5,5.5,0,0,1,2.46-3.11,12.77,12.77,0,0,1,2.21-1l1.51,2a12.53,12.53,0,0,0-2.75.82,4,4,0,0,0-1.92,2,4.41,4.41,0,0,0-.28,2.76A4.59,4.59,0,0,0,22.84,177a7.1,7.1,0,0,0,4,.82,33.17,33.17,0,0,0,4.49-.62A42,42,0,0,0,36.13,176a8,8,0,0,0,4-2.63,4.46,4.46,0,0,0,.72-3.51,3.79,3.79,0,0,0-1.24-2.18,2.6,2.6,0,0,0-2.3-.48l-6.15,1.29,1,4.7-1.69.35-1.86-8.93,11.66-2.44Z"/><polygon class="cls-4" points="41.66 134.71 39.98 149.02 17.24 146.35 18.77 133.34 20.51 133.54 19.51 142 27.15 142.89 28 135.74 29.59 135.92 28.76 143.08 38.84 144.26 39.99 134.52 41.66 134.71 41.66 134.71 41.66 134.71"/><path class="cls-4" d="M33.61,106a4.29,4.29,0,0,0-3.85.07,5.35,5.35,0,0,0-2.11,2.82l-.79,2,8.23,3.34.8-2a5.3,5.3,0,0,0,.45-3.48A4.44,4.44,0,0,0,33.61,106Zm17.5,1.66-1.91,4.71a9.13,9.13,0,0,1-3.49-.72l-2.62-.91a13.25,13.25,0,0,0-2.09-.59,2.55,2.55,0,0,0-2,.25,5.08,5.08,0,0,0-1.78,2.46l-.76,1.88,10.14,4.12-1.75,4.29-21.2-8.61,2.95-7.28a11.77,11.77,0,0,1,3.24-4.69,5,5,0,0,1,5.3-.92,5.23,5.23,0,0,1,2.42,2.06,5.3,5.3,0,0,1,1,3,12.79,12.79,0,0,1-.27,2.11A8.21,8.21,0,0,1,41,106.31a5.06,5.06,0,0,1,3.53.07c1.09.38,2.7.86,4.87,1.41a3.77,3.77,0,0,0,1.73-.15Z"/><path class="cls-4" d="M60.12,81.16A6,6,0,0,1,63,85.92a8.51,8.51,0,0,1-1.59,5.46A9.23,9.23,0,0,1,57.32,95a5.34,5.34,0,0,1-5.18-.65c-.28-.2-.68-.49-1.18-.88L51.74,91a9.78,9.78,0,0,0,1.87,1.72,4,4,0,0,0,3.54.5A5.27,5.27,0,0,0,60.05,91a4.93,4.93,0,0,0,.9-3.15,3.47,3.47,0,0,0-1.58-2.8,3.81,3.81,0,0,0-3.84-.13,39.88,39.88,0,0,0-3.45,2.18,12.17,12.17,0,0,1-4.51,2.12A6.68,6.68,0,0,1,42.86,88a5.73,5.73,0,0,1-2.68-4.56,8.21,8.21,0,0,1,1.53-5.2,8.39,8.39,0,0,1,3-2.82,4.72,4.72,0,0,1,4-.42,10.5,10.5,0,0,1,2.21,1.19l-.73,2.2a12.05,12.05,0,0,0-1.38-1.14,3.45,3.45,0,0,0-3.29-.38A5.46,5.46,0,0,0,42.82,79a5.25,5.25,0,0,0-1,3,3.16,3.16,0,0,0,1.56,2.61,3.35,3.35,0,0,0,3,.44,11.89,11.89,0,0,0,2.78-1.61q4.26-3,6.47-3.41a6,6,0,0,1,4.5,1.13Z"/><polygon class="cls-4" points="111.27 27.33 102.78 29.36 104.76 37.59 111.97 35.86 112.36 37.51 105.16 39.24 107.78 50.17 103.23 51.26 97.82 28.77 110.87 25.63 111.27 27.33 111.27 27.33 111.27 27.33"/><path class="cls-4" d="M136.84,33.26c-.49-4.07-1.12-6.77-1.85-8.12a3.54,3.54,0,0,0-6.62.83c-.38,1.49-.33,4.26.18,8.33s1.11,6.73,1.84,8.08A3.35,3.35,0,0,0,134,44.3a3.3,3.3,0,0,0,3-2.74c.39-1.49.32-4.26-.18-8.3Zm4.94-1.07c.72,5.75-.3,9.65-3,11.66a9.29,9.29,0,0,1-4.47,1.78q-9.23,1.15-10.7-10.72-1-8.25,3.08-11.25a9.35,9.35,0,0,1,4.47-1.78q4.85-.61,7.64,2.54c1.59,1.8,2.58,4.4,3,7.77Z"/><path class="cls-4" d="M167,33q.39-6.12-.31-8.32a3.28,3.28,0,0,0-3.16-2.55,3.36,3.36,0,0,0-3.5,2.14c-.65,1.41-1.1,4.14-1.37,8.23s-.15,6.83.31,8.3a3.55,3.55,0,0,0,6.67.39c.65-1.39,1.11-4.12,1.36-8.19Zm5.06-.14q-.57,8.68-5.15,10.92a9.39,9.39,0,0,1-4.72.93q-9.28-.55-8.52-12.51c.37-5.54,2.07-9,5.13-10.5a9.39,9.39,0,0,1,4.72-.93c3.25.2,5.6,1.5,7,3.9A14.22,14.22,0,0,1,172,32.87Z"/><polygon class="cls-4" points="200.65 30.47 195.31 28.84 188.93 49.3 184.22 47.87 190.6 27.4 185.23 25.77 185.74 24.11 201.16 28.82 200.65 30.47 200.65 30.47 200.65 30.47"/><path class="cls-4" d="M216.4,56.38a5.6,5.6,0,0,0,1.12-3.81,4.51,4.51,0,0,0-2.22-3.25L213,47.83l-5.5,8.22,2.33,1.53c2.65,1.75,4.84,1.35,6.54-1.2Zm5.52-9.58c1.65-2.44,1.37-4.38-.82-5.83l-2.41-1.59-4.81,7.17,2.65,1.74c2,1.34,3.83.85,5.39-1.49Zm-1.45,12.26a5.45,5.45,0,0,1-4.5,2.58,8.51,8.51,0,0,1-5.13-1.59l-8.06-5.3,12.91-19.29,7.1,4.66a9.83,9.83,0,0,1,3.65,4,4.91,4.91,0,0,1-.43,5.09,4.5,4.5,0,0,1-4.64,2.24,16.88,16.88,0,0,1-2.38-.65,14.81,14.81,0,0,1,1.77,2.12,5.5,5.5,0,0,1,.75,2.57,6,6,0,0,1-1,3.62Z"/><path class="cls-4" d="M235.53,72.86l6.81-10.15-11.2,5.09,4.39,5.06Zm-1.1,9.79-3.1-3.57,3.21-4.76-5-5.77L224.26,71,223,69.54l22.16-10,2.59,3L234.43,82.65Z"/><polygon class="cls-4" points="246.37 103.27 239.41 90.61 259.87 79.47 262.07 83.5 243.15 93.79 247.9 102.43 246.37 103.27 246.37 103.27 246.37 103.27"/><polygon class="cls-4" points="254.71 125.1 249.76 111.54 271.68 103.61 273.25 107.91 252.97 115.25 256.35 124.5 254.71 125.1 254.71 125.1 254.71 125.1"/><path class="cls-4" d="M256.71,192a7.15,7.15,0,0,1-2.92-2.65,6.5,6.5,0,0,1-1.2-3.68,9.62,9.62,0,0,1,1.1-4.17q2.69-5.52,8.2-5.25a15.06,15.06,0,0,1,5.88,1.56c5,2.4,7.55,5.64,7.83,9.72a9.23,9.23,0,0,1-.91,4.78q-1.81,3.73-5.27,4.08a7.55,7.55,0,0,1-3.81-.78l0-2.31.51.29c.23.11.41.19.52.26a5.63,5.63,0,0,0,3.76.52,4.14,4.14,0,0,0,2.87-2.38q2.42-5-7.05-9.57-6.36-3.09-9.31-1.67a4.88,4.88,0,0,0-2.32,2.34,4.5,4.5,0,0,0,0,4.19,6.63,6.63,0,0,0,3.15,2.95c.36.17.88.39,1.59.66l-1.43,1.6a9.78,9.78,0,0,1-1.14-.49Z"/><polygon class="cls-4" points="236.38 211.67 244.26 199.76 263.34 212.42 260.84 216.19 243.19 204.49 237.81 212.61 236.38 211.67 236.38 211.67 236.38 211.67"/><path class="cls-4" d="M223.18,236.15c-2-2-2.82-3.91-2.34-5.74a10.6,10.6,0,0,1,2.87-4.69,12.55,12.55,0,0,1,3.3-2.47,5.24,5.24,0,0,1,3.92-.61,8.88,8.88,0,0,1,3.35,2.29l11.56,11.43-3.23,3.27L231,228.13a10.71,10.71,0,0,0-1.85-1.55,3.09,3.09,0,0,0-2.28-.43,5.65,5.65,0,0,0-2.76,1.58c-2,2-2.41,3.84-1.31,5.51a12,12,0,0,0,1.55,1.77l11.56,11.43-1.13,1.15-11.57-11.44Z"/><path class="cls-4" d="M200.18,250.86a5.5,5.5,0,0,0,2.83,2.71,4.45,4.45,0,0,0,3.87-.44l2.34-1.28-4.7-8.54-2.4,1.32q-4.12,2.26-1.94,6.23Zm5.87,9.19c1.41,2.54,3.24,3.2,5.5,1.94l2.5-1.37-4.1-7.45-2.74,1.5c-2.1,1.16-2.49,3-1.16,5.38ZM196,253.18a5.33,5.33,0,0,1-.21-5.09,8.41,8.41,0,0,1,3.73-3.74l8.33-4.59,11,20.05-7.34,4.05a9.84,9.84,0,0,1-5.12,1.37,4.93,4.93,0,0,1-4.27-2.71,4.36,4.36,0,0,1,.16-5,14.32,14.32,0,0,1,1.64-1.77,13.49,13.49,0,0,1-2.66.55,5.23,5.23,0,0,1-2.61-.52,6,6,0,0,1-2.69-2.55Z"/></g></g></svg>