<svg xmlns="http://www.w3.org/2000/svg" viewBox="0 0 300 282.05"><defs><style>.cls-1{fill:#ebb200;}.cls-2{fill:#fff;}.cls-3{fill:#e53027;}.cls-4{fill:#1d1d1b;}.cls-5{fill:#137964;}.cls-6{fill:#e43029;}.cls-7{fill:#1c1c1a;}</style></defs><title>Rayo_Vallecano</title><g id="Слой_2" data-name="Слой 2"><g id="Слой_1-2" data-name="Слой 1"><path class="cls-1" d="M150,282.05c12.82-33.35,50.38-45.25,84.64-65.57S300,164.67,300,100.75C300,45,267.37,0,267.37,0s-15.59,17-54.48,17C178.11,17,150,2.46,150,2.46S121.89,17,87.11,17C48.22,17.13,32.63.1,32.63.1S0,45.14,0,100.75c0,63.92,31.09,95.52,65.36,115.73S137.18,248.7,150,282.05Z"/><path class="cls-2" d="M150,23.6c-11.49,4.82-35.19,13.13-62.89,13.13-23,0-39.3-5.33-50.07-10.87C35,29.55,32.63,34,30.27,39a163.07,163.07,0,0,0-10,28,140,140,0,0,0-4.41,34.47c0,26.68,5.65,48.32,17.24,66.18,9.23,14.26,22.06,25.95,40.32,36.93,8.62,5.13,17.65,9.65,26.47,14,18.06,8.82,36.53,18,50.07,32.83,13.54-14.78,32-23.91,50.07-32.83,8.82-4.31,17.85-8.83,26.47-14,18.26-10.87,31.09-22.67,40.32-36.93,11.59-17.86,17.24-39.5,17.24-66.18A140,140,0,0,0,279.69,67a168.38,168.38,0,0,0-10-28c-2.36-5-4.61-9.44-6.77-13.14-10.67,5.55-27.08,10.88-50.07,10.88-27.7,0-51.4-8.31-62.89-13.13Z"/><path class="cls-3" d="M180.88,92.75,150,145.59l-5.54-19.7L105.68,198l-9-5.34,5.13,23.6,23.08-7.08-9-5.34,25.86-44.11,5.64,20.11L217.2,73.67,187,82.28l26.67-45.55H213a143.72,143.72,0,0,1-19.91-1.33l-33.86,63Z"/><path class="cls-4" d="M221.82,48.53c0-3.28-3.18-1.85-3.18-5,0-1.54.82-2.46,3.9-2.46h25.54C255.78,41,263,43.6,263,51.81c0,5.54-4,9.54-8.72,11.8,3.69,4,6.05,9,7.8,14.06s4.1,3.59,4.1,6c0,1.33-1,2-4.2,2H248.19c-3,0-4.11-.51-4.11-2.26,0-2,2.36-2,2.36-3.49,0-3-4.1-10.46-6.26-12.92l-3.69.51V78.28c0,3.29,3.18,1.85,3.18,5,0,1.54-.82,2.46-3.9,2.46H222.54c-3.08,0-3.9-.92-3.9-2.46,0-3.18,3.18-1.74,3.18-5Zm14.67,13.23c.41,0,.82.11,1.33.11,5.13,0,10-3.29,10-8.72,0-3.8-2.57-7-6.57-7-3.08,0-4.72,1.33-4.72,4.92Z"/><path class="cls-4" d="M209.71,202.74c0,3.28,3.18,1.84,3.18,5,0,1.54-.82,2.47-3.9,2.47H195.76c-3.08,0-3.9-.93-3.9-2.47,0-3.18,3.18-1.74,3.18-5V179.55h-.1L187,201.92c-.72,1.84-1.95,2.46-5.85,2.46-2.67,0-4.31-.21-5.44-3.08l-8.21-20.93h0v21.44c0,3.8,4.72,2.67,4.72,5.85,0,1.54-1.12,2.46-3.69,2.46h-7.18c-2.36,0-4-.61-4-2.56,0-3.39,4-1.44,4-5.75V172.88c0-3.69-4.21-.82-4.21-5.34,0-1.33.82-1.94,3.08-1.94H173.6c3.49,0,4.31.61,5.85,5L186,189l7.9-20.93c.72-2.05,1.85-2.57,4.11-2.57H209.4c3.7,0,4.42,1,4.42,2.77,0,3.18-4.11,1.64-4.11,4.21Z"/><path class="cls-4" d="M221.1,105.06c2.67,0,3.9.72,3.9,2.46,0,2.77-3.39,2.06-3.39,4.62,0,4.31,2.77,10.16,10.78,27.5C240.6,121,241,116.45,241,113.27s-4.62-2.57-4.62-5.85c0-1.85,1.33-2.36,5.33-2.36H246c4.21,0,5.65.51,5.65,2.77,0,2.57-2.47,2.16-3.08,4.21-3.7,11.28-10.16,30.78-14.16,35.29-1.75,1.95-2.36,2.36-7.18,2.36-3.18,0-4.93.1-7.8-4.92-3.18-5.34-8.41-16.83-12.21-31-1.23-4.61-3.18-4.1-3.18-6.67,0-1.23,1.23-2,3.39-2Z"/><path class="cls-5" d="M116,109.47c-.41-3,1.74-6.67,3.39-8.72,2.25-2.87,5.23-5.33,5.64-13.34-4.11,9.85-6.26,6.78-9.54,13.14-.82-8.21,8.62-8.72,8.41-24.22C119,87,116.45,84.75,114.6,88.85c-.3-10.16,7.49-8.1,7.7-23.8-2.36,7-6,6.67-8.11,15.29-.2-6.06.82-7,.62-15-.21-6-2.57-8.52-1.64-15.19,0,0-4.83,5.54-4.62,12.11.21,7,3.59,6.26,3.28,16.72a28.83,28.83,0,0,1-7.9-16.21c.11,2.87-.72,5.13-.51,8.41.1,3.7,8.52,12.52,7.08,20.11a14.63,14.63,0,0,1-1.64-2.77c-.93-2.05-3.39-4.1-4.72-8a8.24,8.24,0,0,0-1,4.21c0,3.18,1.85,5,4,9.23.93,1.75,2.77,2.77,3.8,5.34.72,1.64.51,3.38,1.23,6.66a16.61,16.61,0,0,1-3.9-4.51c-1.54-2.46-3.28-5.74-4.82-8.1.51,4.2-.1,6.25.41,8,.72,2.15,2,3.28,3.18,5.13a40.62,40.62,0,0,1,5.13,8.72c-.2,1-.2,2.15-.31,3.18-2.15-7.49-4.31-4-7-10.26.1,2.77-.11,4.21.3,5.75.93,3.48,6.06,6.66,5,10.56-8.51,14.88-22.57,7-35.19,14.06-13-5.34-26.68,2-34.88-12.11.2-4.1,3.9-5.33,4.61-10.46.21-1.44-.2-2.88-.2-5.54C42,116.66,40,113.58,38,121c0-1.33,0-2.46-.1-3.48a41.7,41.7,0,0,1,4.51-8.72c1.23-1.85,2.47-2.88,3.08-5,.51-1.64-.2-3.59.21-7.8-1.54,2.26-3.29,5.54-4.72,8-1.34,2.16-2.36,3.9-3.29,4.52.62-3.18,0-4.62.72-6.26,1-2.46,2.46-4,3.29-5.75,2.05-4.1,3.79-6.15,3.69-9.23a9.36,9.36,0,0,0-1.13-4.41C43,86.59,40.83,89.36,40,91.42a12,12,0,0,1-1.54,2.77C36.73,86.8,44,78,44.12,74.38c0-3.18-.82-5.33-.82-8.2-.93,8.31-4.31,13.74-6.57,16C36.11,72,38.78,71.82,38.78,65.05c0-6.36-4.41-11.6-4.41-11.6C34.37,58.89,33,61.15,33,67c0,7.79,1.33,10.67,1.33,16.62-2.46-8.31-6.26-8-8.82-14.67.3,15.28,8.31,13.13,8.31,23-2.05-4-4-1.23-9.44-11.49.31,15.18,9.54,14.36,9.44,22.88-3.59-6.06-5.65-3.08-10.26-12.52.61,7.8,3.18,10.06,5.64,12.83,1.74,1.94,4.62,5.54,4.31,8.41-1.85,0-5.13-4.41-9.13-9.75,1.43,13,9.54,13.44,12.21,20.93-3.9-.41-10.16-6.26-10.16-6.26,1.33,4.93,7.18,10.06,12.72,11,8.93,15,21.45,8.93,32.63,12.72a28.18,28.18,0,0,0-5.54,6.06l2.15,4.1a25.31,25.31,0,0,1,6.88-8.51,23.82,23.82,0,0,1,8.31,8.61l2.15-4.1a28.51,28.51,0,0,0-7.18-6.46c11.08-5.34,24,1,32-14.37,5.23-1.13,10.88-6.56,11.9-11.59,0,0-5.84,6.15-9.64,6.67,2.36-7.7,10.67-7.9,11.59-21.34C120.86,105.47,117.89,109.47,116,109.47Z"/><path class="cls-1" d="M102.7,52.74c-3.69-2.57-4.72,0-4.72,0a2,2,0,0,1,1,2c0,1.43-1.54,2.56-3.39,2.56a3.08,3.08,0,0,1-2.77-3.28c0-1,1.13-1.64,2.57-1,1.54-1.54.51-4-1.85-4.92a1.74,1.74,0,0,0-.92-2.26,1,1,0,0,0-.52-.1,1.62,1.62,0,0,0-1.64,1.64,3.64,3.64,0,0,0-3.79,3.39v.82a2.08,2.08,0,0,1,2.56,1.33,1.35,1.35,0,0,1,.1.62c0,1.23-.82,2.15-2.56,2.15A2.15,2.15,0,0,1,84.44,54a2.28,2.28,0,0,1,.1-.82,1.85,1.85,0,0,0-2.05-3.08,1.81,1.81,0,0,0-.82,1.54,1.67,1.67,0,0,0,.31,1,3.8,3.8,0,0,1-3.49,1.95,2.52,2.52,0,0,1-2.57-2.46h0c0-1.95,1.75-2.67,4.11-1.13a3.54,3.54,0,0,0-1.85-4.62,4.75,4.75,0,0,0-1.64-.3,2.19,2.19,0,1,0-4.31-.82,1.16,1.16,0,0,0,0,.82,3.47,3.47,0,0,0-3.8,3.18,2.93,2.93,0,0,0,.31,1.64c2.36-1.54,4.11-.72,4.11,1.13a2.54,2.54,0,0,1-2.57,2.56h0a3.79,3.79,0,0,1-3.49-1.95,1.67,1.67,0,0,0,.31-1,1.85,1.85,0,1,0-3.69,0,1.94,1.94,0,0,0,.82,1.54,2.06,2.06,0,0,1-1.44,2.56,2.31,2.31,0,0,1-.82.1c-1.74,0-2.57-1-2.57-2.15a2.06,2.06,0,0,1,2.06-2,1.31,1.31,0,0,1,.61.1,3.58,3.58,0,0,0-3-4.1c-.31,0-.52-.11-.82,0A1.63,1.63,0,0,0,56.63,46,1.89,1.89,0,0,0,55,47.81a3.82,3.82,0,0,0,.11.51c-2.47.93-3.49,3.39-2,4.93,1.43-.72,2.56,0,2.56,1a3.15,3.15,0,0,1-2.77,3.29c-1.85,0-3.38-1.13-3.38-2.57a2.05,2.05,0,0,1,1-2.05s-1-2.56-4.72,0c0,0-3.38-2.36-5,.1,0,0,5,2.57,9.14,12.42v53.45c0,4.52,3.38,6.88,5.84,7.9,5.75,2.26,13.44-.51,18.27,6.67,4.82-7.18,12.51-4.41,18.26-6.67,2.46-1,5.85-3.38,5.85-7.9V65.36c4.1-9.85,9.13-12.42,9.13-12.42C106.09,50.38,102.7,52.74,102.7,52.74Z"/><path class="cls-6" d="M54.07,118.81c0,2.56,2,3.9,3.59,4.51a22.82,22.82,0,0,0,5.23.93c3.49.31,7.9.72,11.7,3.79,3.8-3.07,8.21-3.48,11.7-3.79a21.9,21.9,0,0,0,5.23-.93c1.64-.61,3.59-1.95,3.59-4.51V68.64h-41Z"/><path class="cls-7" d="M74.49,61.56a41.8,41.8,0,0,0-20.42,5V67H95v-.41A42.18,42.18,0,0,0,74.49,61.56Z"/><path class="cls-7" d="M63.3,84.23l9.55,14-16.52,21c-.11.21-.21.31-.21.51h0a.91.91,0,0,0,.31.72h0c.2.1.31.21.51.21h0a.94.94,0,0,0,.72-.31h0L73.87,99.73l13.75,20,.62.11v-2.06L75.1,98.08l9.75-12.41H85a5.86,5.86,0,0,0,2,.31h0a5.65,5.65,0,0,0,4.41-2h0l2.26-2.88a.37.37,0,0,0,.1-.3h0a3.1,3.1,0,0,0-.2-.93h0c-.21,0-.41-.1-.62-.1h0c-.2,0-.51,0-.61.2h0l-.21.21h0l-1.54,2a2,2,0,0,1-1.43.61h-.52v-.1c0-.2-.1-.41-.1-.61h0v-.21h0a2.67,2.67,0,0,1,.31-1.23h0l1.85-2.36a.38.38,0,0,0,.1-.31h0a2.79,2.79,0,0,0-.21-.92h0c-.2,0-.41-.1-.61-.1h0c-.21,0-.52,0-.62.2h0l-1.85,2.36h0A2,2,0,0,1,86,80h-.51v-.11a4.22,4.22,0,0,0-.11-.51h0v-.2h0a2.13,2.13,0,0,1,.31-1.13h0l1.54-2a.4.4,0,0,0,.1-.31h0a1.64,1.64,0,0,0-.31-.93h-.51c-.2,0-.51,0-.61.21h0l-2.26,2.87a5.62,5.62,0,0,0-1.13,3.39h0a5.79,5.79,0,0,0,.92,3.18h0v.1l-9.33,12L65.05,83c0-.1-.1-.1-.1-.2h0a4.86,4.86,0,0,1,.1-.52h0a2.17,2.17,0,0,1,1-1.12h0c1.54-1,2.57-1.65,2.57-1.65h0a1,1,0,0,0,.41-.51h0v-.2h0c0-.21-.1-.31-.1-.52h0L67.1,75.51a1.18,1.18,0,0,0-.82-.3h-.41a1.59,1.59,0,0,0-.31.92h0a.4.4,0,0,0,.1.31h0l.11.1h0l.82,1.23-.11.1-.92.52h0l-.1.1-1-1.44c-.1-.2-.51-.31-.82-.31H63.2a1.72,1.72,0,0,0-.31.93h0A.37.37,0,0,0,63,78h0l.92,1.43-.1.1-.93.62h0l-.1.1-1-1.54c-.1-.2-.51-.3-.82-.3h-.41a1.65,1.65,0,0,0-.3.92h0a.4.4,0,0,0,.1.31h0l1,1.54-.1.1-.82.61h0l-.1.11-.93-1.44a1.22,1.22,0,0,0-.92-.41h-.41a1.72,1.72,0,0,0-.31.92h0a.36.36,0,0,0,.11.31h0l1,1.44-.1.1-.82.62h0l-.1.1-.93-1.34c-.1-.2-.51-.3-.82-.3h-.41a1.66,1.66,0,0,0-.31.92h0a.37.37,0,0,0,.11.31h0L57.35,86a1,1,0,0,0,.62.41h.1c.21,0,.31-.1.51-.1h0l.11-.11h0l.51-.41h0l1.85-1.23h0A2.42,2.42,0,0,1,62.48,84h.11c.41,0,.61.1.61.2Z"/></g></g></svg>