<svg xmlns="http://www.w3.org/2000/svg" viewBox="0 0 214.99 300"><defs><style>.cls-1{fill:#fff;}.cls-2{fill:#3e6594;}.cls-3{fill:#e8c340;}.cls-4{fill:#c93833;}.cls-5{fill:#36358c;}</style></defs><title>Madrid</title><g id="Слой_2" data-name="Слой 2"><g id="Layer_1" data-name="Layer 1"><path class="cls-1" d="M6,193.3A100.92,100.92,0,1,0,106.94,92.39,100.91,100.91,0,0,0,6,193.3Z"/><path class="cls-2" d="M182.06,239.09C162.58,219.91,80.32,137.23,62.34,119.53c-17.26,8.54-27.55,24.37-35.95,41.61,20,19.71,103.67,96.18,119,111.31C157.8,266.4,172.16,256.39,182.06,239.09Z"/><path class="cls-2" d="M181.45,239.69C162,220.52,79.71,137.83,61.73,120.14c-17.26,8.54-27.55,24.37-35.95,41.6,19.95,19.72,103.67,96.18,119,111.32C157.2,267,171.56,257,181.45,239.69Z"/><path class="cls-3" d="M107.52,87.6C48.75,87.6.93,135,.93,193.31S48.75,299.07,107.52,299.07s106.54-47.45,106.54-105.76S166.26,87.6,107.52,87.6Zm-.33,198.18a92.27,92.27,0,1,1,92.26-92.27,92.27,92.27,0,0,1-92.26,92.27Z"/><path class="cls-2" d="M0,193.31C0,252.14,48.23,300,107.52,300S215,252.14,215,193.31,166.78,86.67,107.52,86.67,0,134.51,0,193.31Zm1.86,0c0-57.77,47.4-104.78,105.66-104.78s105.61,47,105.61,104.78S165.75,298.14,107.52,298.14,1.86,251.11,1.86,193.31Z"/><path class="cls-2" d="M14,193.51a93.2,93.2,0,1,0,93.19-93.19A93.3,93.3,0,0,0,14,193.51Zm1.86,0a91.33,91.33,0,1,1,91.33,91.33,91.43,91.43,0,0,1-91.33-91.33Z"/><path class="cls-3" d="M193.83,193.21a86.08,86.08,0,0,0-41.59-73.15l-15.52,14.82-7.42,7.18-.44.43-.56-.24a55.24,55.24,0,0,0-20.8-4c-6.32,0-15.51,1.4-21.82,4.55l-.58.29-.47-.45c-6.18-5.88-9-8.66-22.64-22.13A84.74,84.74,0,0,0,38.74,244.63l8.56-8.07a73.36,73.36,0,0,1,11.89-99.48l1-.84,1,.85c4.74,4.11,8.35,7.57,12.32,11.51l.74.73-.8.66c-13.15,10.8-21.32,27.36-21.32,43.22A54.92,54.92,0,0,0,93.6,246.27l.7.18v20.6h11.57V248h1.63a55.17,55.17,0,0,0,37.2-14.34l-8.6-8.47a42.61,42.61,0,0,1-28.6,11H107l-1.21,0V222.21h10.42v-12.1H105.48v-9.17h13.37V189.43l-25.64,0v44.37L92,233.29A43.26,43.26,0,0,1,64.2,193.21c0-14.44,6.34-26.87,17.85-35l.63-.45.56.55c5,4.92,12.12,11.88,23.48,22.21L131,157.16l.62.41a44.45,44.45,0,0,1,5.5,4.41l8.67-8.26a55.22,55.22,0,0,0-5-4.31l-.86-.66,13.76-13.3,1,.86a72.76,72.76,0,0,1,12.09,100.95l8.73,8.24a85,85,0,0,0,18.23-52.29Zm-87.26-31-9.28-8.77-.74-.71a34.45,34.45,0,0,1,11-1.58,42.7,42.7,0,0,1,9.55,1.09Z"/><path class="cls-2" d="M152.6,118.08l-.61-.37-.51.5L137.7,131.36c-1.43,1.37-2,2-2.33,2.3a.78.78,0,0,0,0-.12l-7,6.77a56.87,56.87,0,0,0-20.92-3.94c-7.71,0-16.25,1.75-22,4.47-5.94-5.65-9-8.61-22.69-22.2l-.52-.51-.62.38A86.69,86.69,0,0,0,38.49,247.39l.63-.6,10-9.46.6-.57A71.54,71.54,0,0,1,60.17,138.7c4.31,3.74,7.69,7,11.3,10.52-13.11,11.16-21.23,27.91-21.23,44a56.75,56.75,0,0,0,42.2,54.65v21.05h15.29v-19a57.13,57.13,0,0,0,39-15.5l.71-.66-11.26-11.08-.65.62a40.77,40.77,0,0,1-27.82,11V224.08H118.1V208.24H107.34v-5.43h13.37V187.56H91.35V231a41.37,41.37,0,0,1-25.28-37.8c0-13.55,5.83-25.23,16.43-33,5,5,12.27,12,23.61,22.29l.64.58s23.42-22.54,24.45-23.52a41.41,41.41,0,0,1,5.31,4.35l.64.62,11.35-10.81-.67-.68a57.61,57.61,0,0,0-5-4.44l11-10.66a70.94,70.94,0,0,1,10.56,99.49l.41.39.29.28.65.6,9.37,8.84.73.69a87,87,0,0,0,19.85-55,88,88,0,0,0-43.09-75.13Zm23,127.41-8.73-8.23a72.76,72.76,0,0,0-12.09-100.95l-1-.86L140,148.75l.86.66a55.22,55.22,0,0,1,5,4.31L137.14,162a45.2,45.2,0,0,0-5.5-4.41l-.63-.42-24.29,23.39c-11.36-10.33-18.51-17.29-23.49-22.21l-.55-.55-.64.45c-11.5,8.11-17.84,20.53-17.84,35a43.27,43.27,0,0,0,27.74,40.08l1.27.49V189.41h25.63v11.52H105.48v9.17h10.76V222.2H105.81v13.93l1.22,0h.47a42.57,42.57,0,0,0,28.6-11c1,1,7.46,7.36,8.6,8.48A55.18,55.18,0,0,1,107.5,248h-1.63V267H94.3v-20.6l-.7-.17a54.93,54.93,0,0,1-41.5-53.06c0-15.86,8.18-32.42,21.33-43.23l.8-.65-.74-.73c-4-3.94-7.58-7.41-12.33-11.52l-1-.85-1,.85A73.36,73.36,0,0,0,47.3,236.56l-8.56,8.07A84.75,84.75,0,0,1,62,120.49C75.6,134,78.45,136.74,84.62,142.62l.48.45.58-.29c6.31-3.14,15.5-4.55,21.82-4.55a55.05,55.05,0,0,1,20.8,4l.56.23.43-.42,7.43-7.18,15.52-14.82a86.08,86.08,0,0,1,41.59,73.15,84.93,84.93,0,0,1-18.23,52.28Z"/><path class="cls-2" d="M96.22,151.89l-1.38.52,1.8,1.74,9.94,9.38L119,151.75l-1.69-.39a43.87,43.87,0,0,0-9.76-1.11c-2.07,0-7.32.16-11.28,1.64Zm11.28.23a42.43,42.43,0,0,1,7.61.71L106.57,161l-8.25-7.78a37.85,37.85,0,0,1,9.18-1Z"/><path d="M160.18,83.35a.44.44,0,0,0-.24-.26c-17.83-7.88-35.46-11.91-52.4-12h0c-17,.08-34.65,4.12-52.48,12a.44.44,0,0,0-.24.26.47.47,0,0,0,0,.35L56,86.17l-.17,3.64a.43.43,0,0,0,.2.4l2.76,1.86,1.4,3a.47.47,0,0,0,.6.22c16-7.31,31.27-10.76,46.73-10.54C123,84.53,138.21,88,154.19,95.24a.46.46,0,0,0,.6-.22l1.42-3L159,90.08a.48.48,0,0,0,.19-.41l-.25-3.33,1.25-2.64A.43.43,0,0,0,160.18,83.35Z"/><path class="cls-2" d="M55,82.88a.66.66,0,0,0-.36.39.61.61,0,0,0,0,.24.72.72,0,0,0,.06.29l1.15,2.42c0,.11-.16,3.58-.16,3.58v0a.7.7,0,0,0,.3.57l2.71,1.82L60,95.12a.7.7,0,0,0,.91.33c15.95-7.29,31.2-10.73,46.63-10.51,15.39-.18,30.62,3.26,46.57,10.51a.7.7,0,0,0,.91-.33l1.39-2.94,2.7-1.91a.72.72,0,0,0,.29-.57v0l-.24-3.27,1.23-2.58a.72.72,0,0,0,.06-.29.64.64,0,0,0,0-.24h0a.68.68,0,0,0-.37-.39c-17.85-7.89-35.51-11.94-52.48-12-17,.08-34.73,4.13-52.59,12Zm5.45,12-1.42-3L56.17,90a.22.22,0,0,1-.1-.19l.17-3.7L55,83.6a.25.25,0,0,1,0-.17.24.24,0,0,1,.11-.13c17.8-7.86,35.43-11.89,52.39-12,16.91.09,34.5,4.12,52.3,12a.23.23,0,0,1,.13.21.15.15,0,0,1,0,.09l-1.27,2.69.24,3.41a.18.18,0,0,1-.09.18l-2.8,2-1.45,3a.22.22,0,0,1-.29.1c-16-7.28-31.31-10.73-46.76-10.55C92,84.25,76.72,87.7,60.7,95A.22.22,0,0,1,60.41,94.92Z"/><path class="cls-4" d="M60.3,87.88l-3.41-1.17c0,.78-.12,2.52-.13,2.89L58.89,91Z"/><path class="cls-2" d="M56.66,86.7l-.14,3L59,91.38l1.63-3.64-3.95-1.35ZM57,89.15s.08-1.65.1-2.12L60,88l-1.19,2.67L57,89.48c0-.13,0-.33,0-.33Z"/><path class="cls-4" d="M154.66,87.81c.46,1.07.93,2.14,1.4,3.21l2.17-1.54c0-.36-.14-2-.2-2.71l-3.37,1Z"/><path class="cls-2" d="M158,86.55l-3.62,1.11L156,91.38l2.52-1.78-.24-3.14Zm-.73.71.59-.18c0,.44.16,2.08.17,2.29l-1.83,1.29c-.17-.37-1-2.37-1.19-2.71l2.26-.69Z"/><path class="cls-3" d="M153.62,87.33a.4.4,0,0,1,.28-.24l4.27-1.31c.5-1,.87-1.84,1-2C141.57,76,124.22,72.08,107.54,72c-16.73.08-34.12,4-51.68,11.74l.93,2,4.27,1.47a.44.44,0,0,1,.27.25.47.47,0,0,1,0,.37l-1.72,3.85,1.22,2.58c16-7.23,31.25-10.66,46.71-10.44C123,83.62,138.2,87,154.16,94.23l1.2-2.53-1.75-4a.52.52,0,0,1,0-.37Z"/><path class="cls-2" d="M55.76,83.53l-.21.1,1.08,2.27L61,87.4a.23.23,0,0,1,.14.28v0l-1.77,4,1.37,2.89.21-.1C76.87,87.22,92.12,83.81,107.53,84c15.38-.17,30.6,3.24,46.53,10.43l.21.09,1.35-2.84-1.79-4.09a.29.29,0,0,1,0-.09.23.23,0,0,1,.16-.21L158.33,86l1.12-2.34-.22-.1c-17.61-7.72-35-11.68-51.69-11.76C90.79,71.85,73.37,75.81,55.76,83.53Zm51.78-11.3c16.56.09,33.81,4,51.28,11.63L158,85.58l-4.18,1.28a.69.69,0,0,0-.42.38.67.67,0,0,0-.06.28.87.87,0,0,0,.05.28l1.71,3.89c-.08.18-1,2.16-1.06,2.24-15.93-7.15-31.15-10.55-46.52-10.37C92.12,83.34,76.88,86.74,61,93.93l-1.08-2.28,1.68-3.76a.67.67,0,0,0,.06-.28.63.63,0,0,0-.06-.27.7.7,0,0,0-.41-.38L57,85.52c-.07-.15-.72-1.52-.78-1.66,17.47-7.63,34.75-11.54,51.36-11.63Z"/><path d="M65.5,82.79a2.92,2.92,0,0,0,0,5.84,2.92,2.92,0,1,0,0-5.84Z"/><path class="cls-2" d="M62.37,85.69a3.12,3.12,0,0,0,3.13,3.18,3.16,3.16,0,1,0,0-6.31A3.13,3.13,0,0,0,62.37,85.69Zm.47,0a2.69,2.69,0,0,1,5.37,0A2.71,2.71,0,0,1,65.5,88.4,2.66,2.66,0,0,1,62.84,85.69Z"/><path d="M93,75.41a3.19,3.19,0,1,0,3.25,3.16A3.23,3.23,0,0,0,93,75.41Z"/><path class="cls-2" d="M89.52,78.57A3.46,3.46,0,1,0,93,75.18,3.44,3.44,0,0,0,89.52,78.57Zm.47,0a3,3,0,1,1,3,3A3,3,0,0,1,90,78.57Z"/><path d="M149.49,82.79a2.92,2.92,0,1,0,0,5.84,2.92,2.92,0,0,0,0-5.84Z"/><path class="cls-2" d="M146.32,85.69a3.18,3.18,0,0,0,3.17,3.18,3.16,3.16,0,1,0-3.17-3.18Zm.46,0A2.7,2.7,0,0,1,149.49,83a2.69,2.69,0,0,1,0,5.38A2.72,2.72,0,0,1,146.78,85.69Z"/><path d="M122,75.41a3.19,3.19,0,1,0,3.21,3.16A3.23,3.23,0,0,0,122,75.41Z"/><path class="cls-2" d="M118.6,78.57A3.4,3.4,0,0,0,122,82a3.42,3.42,0,1,0-3.43-3.44Zm.46,0a3,3,0,1,1,3,3A3,3,0,0,1,119.06,78.57Z"/><path class="cls-1" d="M65.5,83.7a2,2,0,0,0,0,4,2,2,0,0,0,2-2A2,2,0,0,0,65.5,83.7Z"/><path class="cls-2" d="M63.28,85.69A2.21,2.21,0,0,0,65.5,88a2.25,2.25,0,1,0,0-4.49A2.23,2.23,0,0,0,63.28,85.69Zm.46,0a1.78,1.78,0,0,1,3.56,0,1.8,1.8,0,0,1-1.8,1.8A1.77,1.77,0,0,1,63.74,85.69Z"/><path class="cls-1" d="M93,76.32a2.28,2.28,0,1,0,2.34,2.25A2.31,2.31,0,0,0,93,76.32Z"/><path class="cls-2" d="M90.43,78.57A2.55,2.55,0,1,0,93,76.09a2.53,2.53,0,0,0-2.53,2.48Zm.47,0a2.07,2.07,0,0,1,2.06-2,2,2,0,1,1,0,4.08A2.06,2.06,0,0,1,90.9,78.57Z"/><path class="cls-1" d="M149.49,83.7a2,2,0,0,0-2,2,2,2,0,0,0,2,2,2,2,0,0,0,0-4Z"/><path class="cls-2" d="M147.23,85.69A2.26,2.26,0,0,0,149.49,88a2.25,2.25,0,0,0,0-4.49A2.25,2.25,0,0,0,147.23,85.69Zm.46,0a1.78,1.78,0,0,1,1.8-1.76,1.78,1.78,0,0,1,0,3.56A1.81,1.81,0,0,1,147.69,85.69Z"/><path class="cls-1" d="M122,76.32a2.27,2.27,0,0,0-2.29,2.25,2.25,2.25,0,0,0,2.29,2.3,2.28,2.28,0,0,0,2.3-2.3A2.3,2.3,0,0,0,122,76.32Z"/><path class="cls-2" d="M119.51,78.57A2.47,2.47,0,0,0,122,81.1a2.5,2.5,0,0,0,2.53-2.53A2.54,2.54,0,0,0,122,76.09,2.5,2.5,0,0,0,119.51,78.57Zm.46,0a2,2,0,0,1,2.06-2,2.08,2.08,0,0,1,2.07,2A2,2,0,0,1,122,80.63,2,2,0,0,1,120,78.57Z"/><path d="M87.64,79.08l-9.39-1.31a.46.46,0,0,0-.34.08l-7.73,5.83a.44.44,0,0,0-.16.47.45.45,0,0,0,.37.34l9.4,1.32a.46.46,0,0,0,.34-.09l7.73-5.82a.46.46,0,0,0-.22-.82Z"/><path class="cls-2" d="M77.77,77.67,70,83.49a.69.69,0,0,0,.32,1.23L79.76,86a.64.64,0,0,0,.5-.13L88,80.08a.67.67,0,0,0,.26-.72.7.7,0,0,0-.57-.51l-9.4-1.32a.72.72,0,0,0-.51.14Zm2,7.91-9.4-1.32a.24.24,0,0,1-.18-.17.23.23,0,0,1,.08-.23L78.05,78a.21.21,0,0,1,.17,0l9.39,1.32a.22.22,0,0,1,.19.16v.06a.21.21,0,0,1-.09.17L80,85.54A.22.22,0,0,1,79.82,85.58Z"/><path d="M145.05,83.74l-7.73-5.83a.49.49,0,0,0-.33-.09l-9.4,1.32a.47.47,0,0,0-.38.34.46.46,0,0,0,.17.48l7.73,5.82a.45.45,0,0,0,.33.09l9.4-1.32a.45.45,0,0,0,.21-.81Z"/><path class="cls-2" d="M137,77.59l-9.39,1.32a.69.69,0,0,0-.32,1.23L135,86a.71.71,0,0,0,.51.13l9.39-1.32a.69.69,0,0,0,.32-1.23l-7.73-5.82a.71.71,0,0,0-.51-.14Zm-1.7,8-7.73-5.83a.2.2,0,0,1-.08-.23.2.2,0,0,1,.18-.16l9.4-1.33a.25.25,0,0,1,.16,0l7.73,5.82a.24.24,0,0,1,.09.18.09.09,0,0,1,0,.05.22.22,0,0,1-.19.17l-9.39,1.32a.23.23,0,0,1-.16,0Z"/><path class="cls-5" d="M79.73,84.88l6.7-5-8.12-1.14-6.7,5Z"/><path class="cls-2" d="M78.17,78.5,71,83.89l8.77,1.24L87,79.68l-8.77-1.23Zm.2.44,7.47,1c-.56.41-6,4.54-6.18,4.65l-7.46-1Z"/><path class="cls-5" d="M128.8,79.89l6.7,5,8.13-1.14-6.71-5Z"/><path class="cls-2" d="M136.89,78.52l-8.68,1.22,7.23,5.45L144.22,84,137,78.51Zm-3.13.91,3.1-.44L143,83.65l-7.47,1L129.39,80l4.37-.61Z"/><path d="M115.92,77.37l-8.29-3.45a.43.43,0,0,0-.35,0L99,77.37a.48.48,0,0,0-.28.41.46.46,0,0,0,.27.42l8.3,3.76a.47.47,0,0,0,.37,0l8.3-3.76a.46.46,0,0,0,.26-.42A.44.44,0,0,0,115.92,77.37Z"/><path class="cls-2" d="M107.19,73.7l-8.3,3.45a.71.71,0,0,0-.42.63.72.72,0,0,0,.4.64l8.3,3.75a.71.71,0,0,0,.57,0L116,78.42a.7.7,0,0,0,.41-.63h0a.7.7,0,0,0-.43-.63l-8.29-3.44a.65.65,0,0,0-.53,0Zm.17,8L99.07,78a.22.22,0,0,1-.13-.2.23.23,0,0,1,.13-.21l8.3-3.44a.17.17,0,0,1,.17,0l8.29,3.44a.23.23,0,0,1,.14.21.21.21,0,0,1-.13.2l-8.29,3.76a.31.31,0,0,1-.19,0Z"/><path class="cls-4" d="M100.3,77.81l7.15,3.24,7.16-3.24-7.16-3Z"/><path class="cls-2" d="M107.36,74.62,99.72,77.8l7.73,3.5,7.74-3.5-7.74-3.22Zm.09.47L114,77.82l-6.57,3-6.56-3Z"/><path class="cls-2" d="M179.07,61.67a4.34,4.34,0,0,0,1.38-3.2,4.77,4.77,0,0,0-.14-1.12,4.64,4.64,0,0,0-3-3.36,4.65,4.65,0,0,0,1.31-3.2,5.42,5.42,0,0,0-.6-2.43,4.65,4.65,0,0,0-3.92-2.64,4.68,4.68,0,0,0,.73-2.52,5.61,5.61,0,0,0-.86-3,4.68,4.68,0,0,0-5-2.18,4.86,4.86,0,0,0,.15-1.12,4.39,4.39,0,0,0-1.46-3.25,6,6,0,0,0-5.9-1.22,2.63,2.63,0,0,0,.06-.39,4.35,4.35,0,0,0-2-3.62,5.26,5.26,0,0,0-5.62-.13A5.21,5.21,0,0,0,149.88,25a5.57,5.57,0,0,0-5,2.36,3.72,3.72,0,0,0-3-1.4,5.08,5.08,0,0,0,.19-1.28,4.86,4.86,0,0,0-1.7-3.68,5.12,5.12,0,0,0-5.59-.7,5.13,5.13,0,0,0-2.67-4.69,5.48,5.48,0,0,0-5.34.41,4.77,4.77,0,0,0-3.23-3.49,5,5,0,0,0-4.75,1,4.18,4.18,0,0,0-2.35-2.38,4.34,4.34,0,0,0-4.3.4,3.15,3.15,0,0,0-2.75-2.67V6.4h2.79V2.66H109.4V0h-3.75V2.7h-2.8V6.4h2.84V8.86a3.08,3.08,0,0,0-2.76,2.66,4.37,4.37,0,0,0-4.33-.38,4.19,4.19,0,0,0-2.35,2.37,5,5,0,0,0-4.76-1,4.75,4.75,0,0,0-3.21,3.43,5.34,5.34,0,0,0-5.4-.31,4.86,4.86,0,0,0-2.7,4.52s0,.07,0,.1a5.11,5.11,0,0,0-5.53.76A4.83,4.83,0,0,0,73,24.64,4.59,4.59,0,0,0,73.2,26a3.89,3.89,0,0,0-3.08,1.4,5.52,5.52,0,0,0-5-2.36,5.23,5.23,0,0,0-4.3,3.4,5.23,5.23,0,0,0-5.6.09,4.37,4.37,0,0,0-2,3.64c0,.13,0,.26,0,.39a6,6,0,0,0-5.87,1.19A4.44,4.44,0,0,0,46,37a4.84,4.84,0,0,0,.14,1.12,4.64,4.64,0,0,0-5,2.14,5.64,5.64,0,0,0-.88,3,4.71,4.71,0,0,0,.73,2.52A4.66,4.66,0,0,0,37,48.38a5.33,5.33,0,0,0-.6,2.44A4.64,4.64,0,0,0,37.73,54a4.64,4.64,0,0,0-3,3.32,4.74,4.74,0,0,0-.14,1.17,4.29,4.29,0,0,0,1.38,3.2,12.35,12.35,0,0,0-2.72,7.22,7.8,7.8,0,0,0,.89,3.69c1.67,3.16,5.39,4.79,10.21,4.51a10.29,10.29,0,0,0,2,1.26,9.25,9.25,0,0,1,1.6,1l0,0,0,0a6,6,0,0,0,2.43.46,7.09,7.09,0,0,1,3.36.75l.2.11.21-.09c18-8.15,35.94-12.32,53.33-12.4,17.38.08,35.29,4.25,53.25,12.4l.2.09.2-.11a7.14,7.14,0,0,1,3.38-.75,5.84,5.84,0,0,0,2.42-.47h0l0,0a9.3,9.3,0,0,1,1.64-1,11.62,11.62,0,0,0,2-1.24c4.82.28,8.54-1.35,10.22-4.5a7.85,7.85,0,0,0,.9-3.71,12.5,12.5,0,0,0-2.72-7.25ZM150.69,40a2.62,2.62,0,0,0,.15-.88,2.76,2.76,0,0,0-.11-.74c6.75,2.43,11.13,6.29,13.72,12.39A49.68,49.68,0,0,0,152.92,46a5.61,5.61,0,0,0-3.34-4.62A3,3,0,0,0,150.69,40ZM113.23,24.27a4.6,4.6,0,0,0-.08-.84c7.47,1.07,21.93,4.79,25.23,17.52-7.9-3.79-13.9-6-24.94-2.86a4.94,4.94,0,0,0-1.66-2.28,4.85,4.85,0,0,0,1.53-3.06c0-.18,0-.36,0-.55a7.54,7.54,0,0,0-1.75-4.56,4.61,4.61,0,0,0,1.65-3.37Zm-11.39-.84a4.94,4.94,0,0,0-.08.87,4.58,4.58,0,0,0,1.65,3.34,7.68,7.68,0,0,0-1.74,4.58,5.44,5.44,0,0,0,0,.57,4.85,4.85,0,0,0,1.55,3,4.89,4.89,0,0,0-1.67,2.28c-11-3.15-17-.94-25,2.86,3.3-12.74,17.76-16.46,25.21-17.53Zm-37.58,15a3.28,3.28,0,0,0-.1.74,2.49,2.49,0,0,0,.17.94,2.92,2.92,0,0,0,1.1,1.34,5.65,5.65,0,0,0-3.36,4.64,49.4,49.4,0,0,0-11.5,4.71C53.15,44.71,57.52,40.86,64.26,38.4Z"/><path class="cls-2" d="M150.28,38.51l.09.63a2.18,2.18,0,0,1-.12.72A2.53,2.53,0,0,1,149.3,41l-.65.49.75.32a5.16,5.16,0,0,1,3.06,4.24l0,.32.3.08a49.41,49.41,0,0,1,11.43,4.71l1.2.69-.54-1.28c-2.61-6.12-7-10.14-14-12.64l-.73-.26.12.81Zm.84,1.67a2.85,2.85,0,0,0,.18-1h0c5.77,2.23,9.66,5.62,12.11,10.57a50.43,50.43,0,0,0-10.1-4,6,6,0,0,0-3-4.34A3.14,3.14,0,0,0,151.12,40.18ZM112.69,23.51l.08.76a4.27,4.27,0,0,1-1.51,3l-.3.29.25.33a7.08,7.08,0,0,1,1.66,4.27l0,.5a4.38,4.38,0,0,1-1.39,2.78l-.4.38.45.33A4.29,4.29,0,0,1,113,38.25l.15.41.42-.12c11-3.11,16.85-.9,24.61,2.84l.91.43-.26-1C135.51,28,121.36,24.14,113.22,23l-.59-.08.06.62Zm1,.76s0-.16,0-.28c7.75,1.19,20.36,4.87,23.93,16.08-7.38-3.49-13.36-5.43-23.9-2.53a5.26,5.26,0,0,0-1.26-1.77,5.3,5.3,0,0,0,1.33-3l0-.6a7.9,7.9,0,0,0-1.63-4.52,5,5,0,0,0,1.53-3.41ZM101.78,23c-8.13,1.17-22.27,5-25.6,17.88l-.26,1,.91-.44c7.76-3.74,13.68-6,24.62-2.83l.42.11.15-.4a4.4,4.4,0,0,1,1.51-2.06l.45-.34-.41-.38a4.36,4.36,0,0,1-1.41-2.74l0-.52a7.27,7.27,0,0,1,1.64-4.29l.26-.33-.3-.29a4.17,4.17,0,0,1-1.52-3l.14-1.38-.58,0Zm-.46,1c0,.13,0,.31,0,.31a4.89,4.89,0,0,0,1.54,3.38,7.91,7.91,0,0,0-1.63,4.54l0,.62a5.25,5.25,0,0,0,1.35,2.94,5.43,5.43,0,0,0-1.27,1.77c-10.55-2.92-16.52-1-23.91,2.53C81,28.87,93.58,25.18,101.32,24ZM64.1,38c-6.93,2.52-11.37,6.53-14,12.62l-.54,1.27,1.2-.69a48.69,48.69,0,0,1,11.4-4.66l.31-.08,0-.32a5.15,5.15,0,0,1,3.08-4.26l.75-.33L65.7,41a2.54,2.54,0,0,1-.94-1.13,2.23,2.23,0,0,1-.14-.77l.2-1.4L64.1,38Zm-.41,1.17a2.85,2.85,0,0,0,1,2.2,6.08,6.08,0,0,0-3,4.36,49.86,49.86,0,0,0-10.07,4c2.44-4.91,6.33-8.3,12.08-10.55Z"/><path class="cls-2" d="M112.92,23.47l.08.8a4.45,4.45,0,0,1-1.58,3.2l-.15.15.13.17a7.28,7.28,0,0,1,1.7,4.41l0,.53a4.71,4.71,0,0,1-1.46,2.92l-.2.19.22.16a4.66,4.66,0,0,1,1.72,2.58l.06.23.23-.06c10.92-3.1,16.65-.94,24.77,3l.44.21-.11-.47c-3-13.15-17.3-17.09-25.56-18.28l-.3,0Zm.55.8s0-.3,0-.56c8.07,1.2,21.6,5.06,24.74,17.39-7.71-3.7-13.73-5.83-24.42-2.85a5.07,5.07,0,0,0-1.63-2.45,5.17,5.17,0,0,0,1.43-3l0-.58a7.75,7.75,0,0,0-1.69-4.54,4.86,4.86,0,0,0,1.59-3.39ZM101.81,23.2c-8.26,1.19-22.57,5.14-25.56,18.29l-.11.47.44-.21c8.13-3.94,13.86-6.11,24.78-3l.23.07.06-.23A4.75,4.75,0,0,1,103.39,36l.23-.17-.21-.19a4.52,4.52,0,0,1-1.48-2.88l0-.56a7.43,7.43,0,0,1,1.7-4.42l.13-.17-.16-.15A4.39,4.39,0,0,1,102,24.3l.11-1.12-.29,0Zm-.23.51c0,.27,0,.59,0,.59a4.71,4.71,0,0,0,1.59,3.36,7.76,7.76,0,0,0-1.68,4.56l0,.6a5,5,0,0,0,1.46,3,5.15,5.15,0,0,0-1.65,2.45c-10.7-3-16.73-.85-24.44,2.86,3.15-12.33,16.67-16.2,24.74-17.4Zm48.93,14.75.09.68a2.36,2.36,0,0,1-.13.8,2.75,2.75,0,0,1-1,1.28l-.33.24.38.16a5.45,5.45,0,0,1,3.23,4.66v.41l.17.05a47.82,47.82,0,0,1,11.72,4.94l.58.35L165,51.4c-2.53-6.45-7-10.65-14.14-13.22l-.37-.13.06.41Zm.4,1.64a2.85,2.85,0,0,0,.16-1s0-.19,0-.37c6.53,2.44,10.75,6.33,13.22,12.17a48.54,48.54,0,0,0-11.05-4.6v-.09a5.9,5.9,0,0,0-3.21-4.9,3.13,3.13,0,0,0,.93-1.25ZM64.18,38.19C57.06,40.78,52.57,45,50.06,51.39l-.25.62.58-.33A47.87,47.87,0,0,1,62.1,46.77l.16-.05,0-.45a5.46,5.46,0,0,1,3.24-4.64l.38-.16-.33-.24a2.78,2.78,0,0,1-1-1.24,2.45,2.45,0,0,1-.15-.85l.15-1.06Zm-.21.58c0,.19,0,.37,0,.37a3,3,0,0,0,.19,1A3.15,3.15,0,0,0,65,41.37a5.93,5.93,0,0,0-3.22,4.87v.13a48.83,48.83,0,0,0-11,4.57c2.46-5.81,6.67-9.7,13.2-12.17Zm-2.16,7.48h0Z"/><path class="cls-3" d="M178.12,61.89l-.28-.37.37-.28a3.53,3.53,0,0,0,1.22-3.69,3.8,3.8,0,0,0-3.08-2.92l-1-.17.78-.63a4,4,0,0,0,1-5,3.55,3.55,0,0,0-4-2.06l-1.74.49L172.71,46a4.15,4.15,0,0,0,.45-5.23,3.8,3.8,0,0,0-4.78-1.57l-1,.37.4-1a3.62,3.62,0,0,0-.83-4.2,5.18,5.18,0,0,0-5.62-.81l-.9.44.26-1a3.39,3.39,0,0,0-1.46-3.81,4.37,4.37,0,0,0-5,.14l-.51.38-.2-.6a4.35,4.35,0,0,0-3.72-3.25,4.7,4.7,0,0,0-4.53,2.46l-.43.76-.38-.79a2.84,2.84,0,0,0-3.16-1.41l-.86.19.35-.81a4,4,0,0,0-1.05-4.63,4.31,4.31,0,0,0-5.2-.3l-.71.42,0-.83c.06-2.18-.71-3.8-2.19-4.54a4.73,4.73,0,0,0-4.94.68l-.65.51-.08-.82a3.91,3.91,0,0,0-2.76-3.4,4.14,4.14,0,0,0-4.43,1.33l-.83,1,0-1.28A2.94,2.94,0,0,0,116,12a3.48,3.48,0,0,0-4,.72l-.77.75V12.37a2.4,2.4,0,0,0-2.44-2.69l-.44,0V5.49h2.79V3.57h-2.75V.93l-1.93,0V3.61h-2.79V5.49h2.83V9.66l-.44,0a2.35,2.35,0,0,0-2.43,2.68l0,1.1-.8-.77A3.51,3.51,0,0,0,99,12a3,3,0,0,0-2,2.44l0,1.28-.82-1a4.14,4.14,0,0,0-4.43-1.33A3.91,3.91,0,0,0,89,16.78l-.09.93-.68-.65a4.35,4.35,0,0,0-4.94-.62,4.08,4.08,0,0,0-2.15,4.47l.13.93-.81-.48a4.27,4.27,0,0,0-5.2.33,3.9,3.9,0,0,0-1,4.59l.36.8-.86-.17a2.94,2.94,0,0,0-3.21,1.41l-.38.79-.43-.76a4.68,4.68,0,0,0-4.49-2.46,4.41,4.41,0,0,0-3.76,3.3l-.2.6-.51-.39a4.25,4.25,0,0,0-5-.16,3.39,3.39,0,0,0-1.48,3.83l.26,1-.91-.45a5.05,5.05,0,0,0-5.59.77,3.64,3.64,0,0,0-.86,4.23l.4,1-1-.38a3.77,3.77,0,0,0-4.76,1.54A4.14,4.14,0,0,0,42.29,46l1.31,1.26-1.75-.49a3.53,3.53,0,0,0-4,2,4,4,0,0,0,1,5.08l.78.64-1,.16a3.72,3.72,0,0,0-3.07,2.88,3.56,3.56,0,0,0,1.22,3.73l.37.27-.29.37c-2.76,3.54-3.5,7.38-2,10.27s5,4.33,9.52,4l.18,0,.14.12a9.23,9.23,0,0,0,2,1.26,10.34,10.34,0,0,1,1.68,1,5.36,5.36,0,0,0,2.06.36,8.24,8.24,0,0,1,3.53.77c18.06-8.15,36.06-12.32,53.52-12.4h0C125,67.39,143,71.56,161,79.71a8.51,8.51,0,0,1,3.55-.77,5.06,5.06,0,0,0,2-.36,10.32,10.32,0,0,1,1.71-1,9.57,9.57,0,0,0,2-1.24l.14-.12.18,0c4.53.31,8-1.16,9.51-4s.81-6.75-2-10.31ZM148.3,41.11a2.69,2.69,0,0,0,1.53-1.39,2.36,2.36,0,0,0-.26-1.87l-.51-1,1.06.35c8.24,2.73,13.24,7.32,15.88,15a44.77,44.77,0,0,1,2.06,10.36v.65l-.16.14c-3.69,3.13-4.05,6.51-1.07,10.33l.57.73h-.93c-3.78,0-4.12-.15-5.23-2.34l-.67-1.29.29-.23a4.93,4.93,0,1,0-8-4.24l0,.26-.24.12c-2,.94-3.51,1.13-4.7.61s-1.91-1.62-2.51-3.56l-.16-.51.54-.07c3.7-.48,6.22-2,6.89-4.14s-.6-5.07-3.7-7.86l-.57-.52.73-.25a4,4,0,0,0,3-4.12.13.13,0,0,1,0-.06A4.77,4.77,0,0,0,148.39,42L147,41.68l1.28-.57Zm8.83,33.66c-2.33-1-4.25-1.78-6-2.43l-1.35-.49,4.62-1.25.24-.07.19.17a3,3,0,0,0,1.64.72l.26,0,1.44,3.74-1-.43ZM71.47,69.51l.38-.88a15.08,15.08,0,0,0,1.45-5l0-.34,1-.2.23,0,.16.16a15.81,15.81,0,0,0,4.65,3.45l1.18.57-1.28.29c-2.59.58-4.85,1.15-6.92,1.74l-.92.26ZM87.18,66l.81-.94a4.87,4.87,0,0,0,1.35-2.48l.1-.37.38,0a7.47,7.47,0,0,0,3-.21L93,62l3.43,2.87-1.09.1c-2.14.2-4.42.49-7,.87Zm17.55-1.62-1.17.06,1.35-1.38A9.22,9.22,0,0,0,107,60.31l.29-.56.11.11.2-.47.44.88a8.69,8.69,0,0,0,1.77,2.45l1.57,1.72-2.57-.15h-2.55l-1.53.09Zm14.19.58,3.22-2.7.18-.15.24.07a7.6,7.6,0,0,0,3,.2l.39,0,.1.37a4.51,4.51,0,0,0,1.34,2.52l.86,1L126.94,66c-2.31-.35-4.64-.66-7-.92L118.92,65Zm15.14,2.38,1.23-.56a15.39,15.39,0,0,0,4.94-3.58l.17-.16,1.26.24,0,.33a16.79,16.79,0,0,0,1.58,5.33l.37.88-.92-.27c-2.81-.8-5.14-1.41-7.35-1.91ZM110.64,27.9l-.29-.35.34-.29c1.87-1.61,1.79-3,1.44-4.25l-.2-.66.69.09c7.71,1,24.2,4.88,27,19.61a25.52,25.52,0,0,1,.27,7l0,.27-.38.15c-1.4.6-4.32,1.83-5.2,4.54-.65,2-.09,4.48,1.66,7.38l.16.28-.21.24A4.83,4.83,0,0,1,130.66,63a3.52,3.52,0,0,1-2.53-3.29V59.6l.07-.11c1.25-2.06,1.16-4-.24-5.47a6,6,0,0,0-6.68-1.18c-1.92,1-2.55,3.38-1.77,6.56l.08.35-.31.16c-2.33,1.23-5,2.32-7.65-.25l-.54-.53.72-.23a6.77,6.77,0,0,0,4.55-6.07,5.54,5.54,0,0,0-3.2-5.61l-.27-.12v-.29c0-1.68-.51-2.33-2-2.57L109.47,44l1.27-.63a3.87,3.87,0,0,0,2.11-3.47,4.46,4.46,0,0,0-.13-1.15,3.93,3.93,0,0,0-1.86-2.52l-.61-.33.55-.43a4,4,0,0,0,1.6-2.83,6.62,6.62,0,0,0-1.76-4.76Zm-8.27-5.46.68-.1-.18.67c-.4,1.46-.31,2.74,1.43,4.25l.35.29-.3.35a6.62,6.62,0,0,0-1.75,4.79,4,4,0,0,0,1.63,2.8l.57.42-.62.34a3.92,3.92,0,0,0-1.89,2.53,4.57,4.57,0,0,0-.14,1.17,3.9,3.9,0,0,0,2.11,3.49l1.29.66-1.44.19c-1.3.17-2,.63-2,2.56v.29l-.26.12a5.57,5.57,0,0,0-3.19,5.65,6.69,6.69,0,0,0,4.53,6l.72.23-.53.53c-2.51,2.51-5.16,1.6-7.66.25l-.31-.17.09-.34c.79-3.16.17-5.48-1.74-6.53A6,6,0,0,0,87.05,54c-1.41,1.47-1.5,3.42-.25,5.5l.07.11v.12A3.49,3.49,0,0,1,84.37,63a4.86,4.86,0,0,1-5.24-1.1l-.21-.25.17-.28C80.85,58.5,81.41,56,80.75,54c-.91-2.73-3.86-3.93-5.28-4.5l-.31-.13,0-.27a25.34,25.34,0,0,1,.28-7.06C78.2,27.33,94.67,23.45,102.37,22.44ZM64.88,37.21l1.05-.35-.5,1a2.3,2.3,0,0,0-.25,1.9,2.51,2.51,0,0,0,1.54,1.35l1.4.56L66.64,42A4.72,4.72,0,0,0,63,46.29a0,0,0,0,1,0,0,4,4,0,0,0,3,4.16l.73.26-.57.51c-3.09,2.77-4.4,5.54-3.7,7.81s3.19,3.67,6.9,4.15l.54.07-.16.51c-.61,2-1.42,3.1-2.55,3.59s-2.65.31-4.63-.65l-.23-.11,0-.25a4.94,4.94,0,0,0-9.87.43,4.82,4.82,0,0,0,1.79,3.79l.29.24-.68,1.32c-1.08,2.18-1.37,2.31-5.18,2.31h-.93l.58-.73c3-3.81,2.59-7.19-1.12-10.33l-.18-.16.07-.67a43.55,43.55,0,0,1,2-10.33C51.63,44.57,56.63,40,64.88,37.21Zm-7.32,37.3-1,.42,1.4-3.6.25,0a3.11,3.11,0,0,0,1.65-.72l.18-.17,4.78,1.26-1.35.5C61.49,72.9,59.51,73.68,57.56,74.51Z"/><path class="cls-2" d="M106.32.9V3.38h-2.79V5.73h2.83V9.44h-.21a2.6,2.6,0,0,0-2.67,2.83v.63l-.38-.37a3.74,3.74,0,0,0-4.24-.77,3.2,3.2,0,0,0-2.11,2.62V15l-.4-.48a4.37,4.37,0,0,0-4.68-1.4,4.13,4.13,0,0,0-2.92,3.59l0,.46-.33-.32a4.59,4.59,0,0,0-5.21-.66,4.16,4.16,0,0,0-2.33,3.9,7.65,7.65,0,0,0,0,.81l.06.45-.39-.23a4.49,4.49,0,0,0-5.47.35,4.19,4.19,0,0,0-1.44,3.14A4.31,4.31,0,0,0,74,26.38s.09.19.17.39l-.41-.09a3.2,3.2,0,0,0-3.47,1.54s-.09.2-.19.39l-.2-.38a4.94,4.94,0,0,0-4.72-2.57,4.66,4.66,0,0,0-4,3.45l-.1.29-.24-.18A4.49,4.49,0,0,0,55.64,29a3.64,3.64,0,0,0-1.72,3.07,4,4,0,0,0,.14,1s.06.24.13.48l-.44-.22a5.3,5.3,0,0,0-5.86.81A3.77,3.77,0,0,0,46.63,37,4.33,4.33,0,0,0,47,38.69s.1.24.19.48L46.69,39a4,4,0,0,0-5,1.63,4.94,4.94,0,0,0-.77,2.62,4,4,0,0,0,1.25,2.94l.63.61-.85-.24a3.77,3.77,0,0,0-4.29,2.15,4.57,4.57,0,0,0-.52,2.11,4.12,4.12,0,0,0,1.61,3.26l.38.31-.49.08a3.92,3.92,0,0,0-3.25,3,4.9,4.9,0,0,0-.13,1,3.61,3.61,0,0,0,1.43,3l.18.14-.14.18a11.86,11.86,0,0,0-2.81,7.14,7.13,7.13,0,0,0,.82,3.38c1.56,3,5.11,4.45,9.74,4.14h.09l.07.06a9.66,9.66,0,0,0,2,1.29,10,10,0,0,1,1.65,1,5.26,5.26,0,0,0,2.19.4,7.87,7.87,0,0,1,3.43.75L54,80l.1,0c18-8.13,36-12.3,53.42-12.38,17.4.08,35.35,4.25,53.33,12.38l.11,0,.1,0a8.22,8.22,0,0,1,3.45-.75,5.19,5.19,0,0,0,2.14-.38,11.42,11.42,0,0,1,1.71-1,10,10,0,0,0,2-1.27l.07-.06h.09c4.62.31,8.17-1.19,9.74-4.14a7.14,7.14,0,0,0,.82-3.39,12,12,0,0,0-2.81-7.18,1.27,1.27,0,0,0-.14-.17l.19-.14a3.63,3.63,0,0,0,1.42-3,4.17,4.17,0,0,0-3.38-4.07l-.48-.08.38-.31a4,4,0,0,0,1.61-3.23,4.59,4.59,0,0,0-.52-2.1,3.78,3.78,0,0,0-4.3-2.18l-.85.24.64-.61a4,4,0,0,0,1.24-2.94,5,5,0,0,0-.75-2.58,4,4,0,0,0-5.06-1.67l-.48.18.2-.47a4.5,4.5,0,0,0,.34-1.68,3.72,3.72,0,0,0-1.24-2.77,5.39,5.39,0,0,0-5.88-.85l-.44.21c.07-.24.13-.47.13-.47a3.86,3.86,0,0,0,.14-1,3.65,3.65,0,0,0-1.68-3,4.61,4.61,0,0,0-5.32.15l-.24.18-.1-.29a4.57,4.57,0,0,0-3.91-3.41,4.93,4.93,0,0,0-4.76,2.58s-.11.18-.21.37l-.18-.39a3.12,3.12,0,0,0-3.43-1.54l-.42.1c.09-.2.17-.4.17-.4a4.34,4.34,0,0,0,.36-1.71,4.21,4.21,0,0,0-1.47-3.18,4.54,4.54,0,0,0-5.47-.33l-.34.21c0-.2,0-.41,0-.41v-.27c0-2.14-.82-3.73-2.32-4.49a4.94,4.94,0,0,0-5.18.71l-.32.25,0-.4a4.14,4.14,0,0,0-2.92-3.6,4.37,4.37,0,0,0-4.68,1.4l-.4.48c0-.31,0-.65,0-.66a3.22,3.22,0,0,0-2.1-2.63,3.74,3.74,0,0,0-4.21.78l-.37.36v-.52a2.64,2.64,0,0,0-2.66-2.92h-.22V5.73h2.79V3.33h-2.75V.7l-2.39,0V.9Zm.23,2.94h.24V1.13l1.46,0V3.8H111V5.26h-2.79V9.89l.66,0a2.17,2.17,0,0,1,2.22,2.46V14l1.16-1.13a3.28,3.28,0,0,1,3.7-.68,2.74,2.74,0,0,1,1.82,2.22l0,1.94L119,14.86a3.91,3.91,0,0,1,4.19-1.26,3.69,3.69,0,0,1,2.59,3.2l.12,1.25,1-.78a4.5,4.5,0,0,1,4.69-.66c1.39.71,2.12,2.24,2.05,4.33l0,1.26,1.08-.64a4.07,4.07,0,0,1,4.93.28,3.72,3.72,0,0,1,1,4.35L140,27.42l1.3-.28a2.61,2.61,0,0,1,2.9,1.28l.58,1.2.65-1.16a4.46,4.46,0,0,1,4.3-2.34,4.12,4.12,0,0,1,3.52,3.09l.3.91.77-.57a4.11,4.11,0,0,1,4.76-.13A3.17,3.17,0,0,1,160.49,33l-.4,1.46,1.36-.67a4.93,4.93,0,0,1,5.36.77,3.38,3.38,0,0,1,.77,3.94l-.6,1.46,1.49-.55a3.57,3.57,0,0,1,4.5,1.48,3.92,3.92,0,0,1-.42,4.93l-2,1.9,2.65-.74A3.31,3.31,0,0,1,177,48.89a3.72,3.72,0,0,1-1,4.76l-1.19,1,1.5.26a3.56,3.56,0,0,1,2.89,2.75,3.3,3.3,0,0,1-1.13,3.45l-.57.41.44.56c2.71,3.49,3.43,7.25,1.94,10.06S175,76.28,170.58,76l-.27,0-.21.18a9.54,9.54,0,0,1-1.92,1.21,11.26,11.26,0,0,0-1.75,1,5,5,0,0,1-1.92.31,9,9,0,0,0-3.53.76c-18-8.14-36-12.3-53.43-12.39C90.09,67.16,72.08,71.32,54,79.46a9,9,0,0,0-3.52-.76,5.06,5.06,0,0,1-2-.33,10,10,0,0,0-1.68-1,9.09,9.09,0,0,1-2-1.23L44.69,76l-.28,0c-4.43.3-7.82-1.11-9.3-3.89s-.76-6.55,2-10l.43-.56-.57-.42a3.33,3.33,0,0,1-1.12-3.49,3.46,3.46,0,0,1,2.88-2.7l1.5-.25L39,53.7a3.77,3.77,0,0,1-1-4.79A3.32,3.32,0,0,1,41.79,47l2.64.74-2-1.9a3.92,3.92,0,0,1-.41-5,3.56,3.56,0,0,1,4.49-1.44L48,40l-.61-1.47a3.41,3.41,0,0,1,.8-4,4.83,4.83,0,0,1,5.33-.74l1.37.69L54.51,33a3.18,3.18,0,0,1,1.39-3.58,4,4,0,0,1,4.73.16l.77.58.3-.91a4.21,4.21,0,0,1,3.57-3.14,4.47,4.47,0,0,1,4.26,2.34l.65,1.16.57-1.2a2.7,2.7,0,0,1,3-1.28l1.3.25-.54-1.2a3.7,3.7,0,0,1,1-4.33,4,4,0,0,1,4.92-.3l1.23.73-.19-1.42a3.85,3.85,0,0,1,2-4.22,4.12,4.12,0,0,1,4.67.57l1,1,.14-1.41a3.67,3.67,0,0,1,2.59-3.2A3.91,3.91,0,0,1,96,14.86l1.24,1.48,0-1.94a2.73,2.73,0,0,1,1.83-2.22,3.3,3.3,0,0,1,3.73.68L104,14l0-1.67a2.13,2.13,0,0,1,2.21-2.44l.67,0V5.26H104V3.84Z"/><path class="cls-2" d="M154.53,70.31,149,71.82l2.06.74c1.78.64,3.69,1.41,6,2.43l1.51.65-1.69-4.39-.39-.06a2.85,2.85,0,0,1-1.53-.66l-.28-.25-.12,0Zm-.12.51.12,0,.09.08a3.34,3.34,0,0,0,1.76.78l.13,0c.08.2.91,2.36,1.19,3.1l-.48-.21c-2.34-1-4.27-1.79-6.05-2.44l-.67-.24,3.91-1.06Zm-79.86-8-1.44.27,0,.52a15,15,0,0,1-1.43,4.93l-.58,1.34,1.39-.4c2.07-.58,4.33-1.15,6.91-1.73l1.93-.44-1.79-.86A15.79,15.79,0,0,1,74.93,63l-.26-.24-.12,0Zm-.14.5.11,0,.08.08a16.25,16.25,0,0,0,4.71,3.49l.57.28-.62.14c-2.6.59-4.86,1.16-6.93,1.74l-.45.13.19-.43a15.43,15.43,0,0,0,1.46-5.08l0-.17.86-.16ZM93,61.75l-.23.07a7.34,7.34,0,0,1-2.87.2L89.26,62l-.15.57a4.63,4.63,0,0,1-1.3,2.39l-1.22,1.41L88.44,66c2.52-.38,4.8-.66,6.94-.87L97,65l-4-3.3-.12,0Zm-.1.52.12,0,2.9,2.43-.53,0c-2.16.2-4.44.49-7,.87l-.6.09.4-.45a5.2,5.2,0,0,0,1.39-2.58l0-.18.19,0a7.87,7.87,0,0,0,3-.21Zm14.54-3-.07.16-.1-.09-.43.85a9.2,9.2,0,0,1-2,2.69L103,64.71l1.77-.1,1.53-.09h2.54l3.12.19L110,62.56a8.53,8.53,0,0,1-1.74-2.39l-.66-1.34-.2.46Zm.22.66h0c.1.22.21.44.21.44a9.26,9.26,0,0,0,1.81,2.5l1.18,1.29-2-.11h-2.56l-1.54.08-.58,0,.94-1a9.61,9.61,0,0,0,2.13-2.8l.14-.28.13.13Zm14.57,2-3.83,3.2,1.6.17q3.49.39,7,.92l1.92.29-1.31-1.44a4.3,4.3,0,0,1-1.28-2.42l-.16-.57-.58.07a7.33,7.33,0,0,1-2.87-.2l-.36-.1-.09.08Zm.11.51.09-.07.11,0a7.93,7.93,0,0,0,3.06.21l.19,0,0,.18a4.83,4.83,0,0,0,1.39,2.62l.42.46-.61-.1q-3.48-.52-7-.91l-.51-.06,2.8-2.34Zm18,.43-.17.16a15.37,15.37,0,0,1-4.87,3.54l-1.87.84,2,.46c2.2.5,4.53,1.1,7.34,1.91l1.39.39-.57-1.32a16.76,16.76,0,0,1-1.56-5.26l-.06-.51-1.55-.29-.08.08ZM135.39,67a15.54,15.54,0,0,0,5-3.62l.08-.08,1,.18v.17a17.63,17.63,0,0,0,1.6,5.39l.18.43-.44-.13c-2.82-.81-5.16-1.42-7.37-1.92l-.64-.15.6-.27ZM59.9,70.23l-.19.17a2.81,2.81,0,0,1-1.52.66l-.39.06-1.65,4.24,1.5-.63q2.93-1.24,5.91-2.35l2-.75L60,70.15l-.09.08Zm-1.64,1.29A3.37,3.37,0,0,0,60,70.74l.09-.08,3.93,1-.65.24c-2,.74-4,1.53-5.93,2.36l-.49.2c.29-.72,1.08-2.77,1.16-3l.12,0Z"/><path class="cls-4" d="M90.1,63.17a5.18,5.18,0,0,1-.72,1.59c1.71-.25,3.31-.45,4.83-.61L92.79,63A8.31,8.31,0,0,1,90.1,63.17Z"/><path class="cls-2" d="M92.74,62.75a8.48,8.48,0,0,1-2.62.19h-.19l-.05.17a5.06,5.06,0,0,1-.69,1.53l-.29.42,5.87-.73L94.36,64l-1.51-1.26Zm0,.47.92.77-3.84.48a5.82,5.82,0,0,0,.45-1.06A8.53,8.53,0,0,0,92.73,63.22Z"/><path class="cls-4" d="M58.19,73.74c1.21-.51,2.43-1,3.65-1.46l-1.59-.42a4,4,0,0,1-1.61.71Z"/><path class="cls-2" d="M60.1,71.21a3.61,3.61,0,0,1-1.51.67l-.12,0-.69,1.78,4.8-1.92-.68-.18-1.71-.45-.09.07Zm.18.43.82.22-2.5,1c.11-.27.18-.47.22-.56A4.23,4.23,0,0,0,60.28,71.64Z"/><path class="cls-4" d="M74.15,64.05A14.86,14.86,0,0,1,73,68.13q2.44-.66,4.9-1.23A18.59,18.59,0,0,1,74.31,64l-.16,0Z"/><path class="cls-2" d="M74.25,63.79l-.31.06,0,.17a14.42,14.42,0,0,1-1.09,4l-.18.43L78.55,67l-.49-.29a18.33,18.33,0,0,1-3.59-2.85l-.09-.08-.13,0Zm.09.57a19.47,19.47,0,0,0,3,2.45l-3.93,1a15.14,15.14,0,0,0,.91-3.44Z"/><path class="cls-4" d="M76.35,42.11a22.3,22.3,0,0,0-.43,4.44c0,.72,0,1.46.11,2.22,1.51.61,4.59,2,5.58,5a6.42,6.42,0,0,1,.32,2A11.92,11.92,0,0,1,80,61.56a4.08,4.08,0,0,0,4,.63,2.67,2.67,0,0,0,1.89-2.35A6.39,6.39,0,0,1,85,56.73a4.74,4.74,0,0,1,1.38-3.32,6.88,6.88,0,0,1,7.8-1.34,5.13,5.13,0,0,1,2.55,4.83,11.36,11.36,0,0,1-.3,2.36c2.22,1.16,4,1.56,5.74.22A7.66,7.66,0,0,1,97.74,53c0-.17,0-.34,0-.51a6.46,6.46,0,0,1,3.49-5.88c.06-1.56.62-2.49,1.78-2.93a4.82,4.82,0,0,1-1.76-3.7v-.08a5.5,5.5,0,0,1,.09-.91c-11-3.14-16.93-.77-25,3.14Z"/><path class="cls-2" d="M76.24,41.9l-.1.05,0,.11a22.79,22.79,0,0,0-.43,4.49l.11,2.39.14,0c1.21.5,4.45,1.82,5.45,4.83a6.2,6.2,0,0,1,.3,1.94,11.63,11.63,0,0,1-1.85,5.69l-.1.16.14.13a4.28,4.28,0,0,0,4.25.67,2.93,2.93,0,0,0,2.05-2.56v-.06l0-.06a6,6,0,0,1-.9-3,4.49,4.49,0,0,1,1.31-3.16,6.6,6.6,0,0,1,7.51-1.29A4.86,4.86,0,0,1,96.5,56.9a11.1,11.1,0,0,1-.29,2.31l0,.17.16.09c1.94,1,4,1.74,6,.19l.3-.24-.35-.16A7.42,7.42,0,0,1,98,53l0-.5a6.24,6.24,0,0,1,3.37-5.66l.12-.06V46.6c.06-1.48.56-2.32,1.63-2.72l.38-.15-.31-.25A4.59,4.59,0,0,1,101.48,40v-.08l.1-1.06-.19-.07c-11-3.13-16.82-.9-25.15,3.15Zm24.84-2.75c0,.26-.07.73-.07.73V40a5,5,0,0,0,1.62,3.64A3,3,0,0,0,101,46.45a6.71,6.71,0,0,0-3.52,6l0,.52a7.93,7.93,0,0,0,4.22,6.51c-1.54,1-3.14.59-5-.37A11.5,11.5,0,0,0,97,56.9a5.36,5.36,0,0,0-2.67-5,7.09,7.09,0,0,0-8.07,1.38,4.94,4.94,0,0,0-1.45,3.48,6.6,6.6,0,0,0,.92,3.15A2.44,2.44,0,0,1,84,62a3.84,3.84,0,0,1-3.63-.48,11.94,11.94,0,0,0,1.82-5.74,6.54,6.54,0,0,0-.33-2.09c-1-3.12-4.22-4.5-5.58-5l-.09-2.06a23,23,0,0,1,.4-4.28c8.12-3.94,13.88-6.11,24.52-3.12Z"/><path class="cls-4" d="M47.88,62.65l0,.23c2.15,1.88,3.25,3.88,3.25,6a8.45,8.45,0,0,1-1.68,4.68c2.59,0,2.69-.17,3.5-1.8l.36-.72a5.74,5.74,0,0,1-1.86-4.23A5.84,5.84,0,0,1,63.06,66c1.59.74,2.81.93,3.68.56A4.06,4.06,0,0,0,68.6,64c-3.77-.61-6.35-2.29-7.1-4.68a5.16,5.16,0,0,1-.22-1.51c0-2.13,1.31-4.47,3.73-6.78a4.81,4.81,0,0,1-2.94-4,47.91,47.91,0,0,0-12,5.14,42.1,42.1,0,0,0-2.14,10.49Z"/><path class="cls-2" d="M62,46.79A48.08,48.08,0,0,0,49.9,52l-.07,0,0,.08a42.08,42.08,0,0,0-2.15,10.56h0l0,.34.08.08c2.1,1.84,3.17,3.8,3.17,5.82a8.27,8.27,0,0,1-1.63,4.55l-.25.36h.44c2.67,0,2.85-.2,3.71-1.93l.36-.71.08-.16-.13-.12a5.49,5.49,0,0,1-1.79-4.06A5.61,5.61,0,0,1,62.83,66l0,.13.12,0c1.67.78,2.94,1,3.86.56a4.19,4.19,0,0,0,2-2.67l.09-.26-.28,0c-3.68-.59-6.2-2.24-6.91-4.52a5,5,0,0,1-.21-1.44c0-2,1.26-4.33,3.66-6.62l.24-.23-.3-.15A4.54,4.54,0,0,1,62.3,47l0-.29-.27.08Zm-.11.53a5,5,0,0,0,2.75,3.76c-2.35,2.31-3.6,4.63-3.6,6.74a5.22,5.22,0,0,0,.24,1.58c.74,2.39,3.29,4.12,7,4.78a3.59,3.59,0,0,1-1.63,2.15c-.77.34-1.88.16-3.38-.51a6.07,6.07,0,0,0-12.07,1A6,6,0,0,0,53,71.07l-.29.57c-.72,1.47-.84,1.64-2.87,1.67a8.45,8.45,0,0,0,1.49-4.44c0-2.13-1.1-4.17-3.24-6.08l0-.11a41.79,41.79,0,0,1,2.09-10.37,47.87,47.87,0,0,1,11.68-5Z"/><path class="cls-4" d="M122.55,63.1l-1.42,1.2c1.59.18,3.19.39,4.81.63a5.31,5.31,0,0,1-.7-1.63,8,8,0,0,1-2.69-.2Z"/><path class="cls-2" d="M122.4,62.92l-1.83,1.54,5.85.76-.29-.42a5.07,5.07,0,0,1-.67-1.56l0-.18h-.19a8.39,8.39,0,0,1-2.61-.19l-.12,0-.09.07Zm-.14.73.36-.3a8.39,8.39,0,0,0,2.45.19,5.12,5.12,0,0,0,.45,1.09l-3.84-.5.58-.48Z"/><path class="cls-4" d="M154.4,72l-1.67.45c1.16.45,2.4,1,3.76,1.54-.16-.43-.32-.85-.49-1.28A4,4,0,0,1,154.4,72Z"/><path class="cls-2" d="M154.34,71.3l-2.34.63,4.9,2-.19-.5L156.17,72l-.12,0a3.73,3.73,0,0,1-1.51-.67l-.09-.07Zm-.54.63.57-.15a4.05,4.05,0,0,0,1.46.64c0,.1.13.35.25.67L153.45,72l.35-.09Z"/><path class="cls-4" d="M150,51c2.42,2.32,3.73,4.68,3.73,6.81a5.2,5.2,0,0,1-.23,1.53c-.75,2.39-3.33,4.06-7.09,4.67a4,4,0,0,0,1.84,2.51c.87.38,2.11.19,3.73-.53a5.84,5.84,0,1,1,9.74,5c.14.29.35.68.35.68.82,1.64.94,1.82,3.55,1.84a8.43,8.43,0,0,1-1.69-4.71c0-2.11,1.09-4.11,3.24-6v-.21A43,43,0,0,0,165,52.16,47.29,47.29,0,0,0,152.94,47,4.82,4.82,0,0,1,150,51Z"/><path class="cls-2" d="M152.7,47a4.55,4.55,0,0,1-2.81,3.83l-.31.14.25.24c2.39,2.3,3.65,4.6,3.65,6.64a5.05,5.05,0,0,1-.21,1.46c-.72,2.27-3.23,3.92-6.91,4.51l-.28,0,.1.26a4.15,4.15,0,0,0,2,2.64c.93.41,2.21.24,3.93-.53l.12,0V66a5.61,5.61,0,1,1,9.34,4.84l-.13.12.44.84c.87,1.72,1.08,1.94,3.76,2h.44l-.25-.36a8.24,8.24,0,0,1-1.65-4.58c0-2,1.06-4,3.16-5.81l.08-.06v-.31a42.42,42.42,0,0,0-2.18-10.58l0-.07-.07,0A47.63,47.63,0,0,0,153,46.76l-.28-.08,0,.28Zm.41.32a47.09,47.09,0,0,1,11.7,5,42.59,42.59,0,0,1,2.11,10.35v.09c-2.14,1.91-3.24,3.95-3.24,6.08a8.46,8.46,0,0,0,1.51,4.47c-2.06,0-2.19-.24-2.93-1.71,0,0-.17-.34-.28-.54a6,6,0,0,0,1.87-4.3,6.07,6.07,0,0,0-12.07-1c-1.53.67-2.67.84-3.45.49a3.59,3.59,0,0,1-1.61-2.12c3.7-.66,6.25-2.39,7-4.77a5.35,5.35,0,0,0,.24-1.6c0-2.11-1.24-4.45-3.59-6.77a4.92,4.92,0,0,0,2.75-3.76Z"/><path class="cls-4" d="M113.68,39a4.94,4.94,0,0,1,.08.87v.1A4.78,4.78,0,0,1,112,43.63a2.86,2.86,0,0,1,1.79,2.92,6.35,6.35,0,0,1,3.52,5.85c0,.16,0,.32,0,.48a7.69,7.69,0,0,1-4.46,6.59c1.72,1.32,3.47.94,5.74-.21a11.83,11.83,0,0,1-.28-2.34A5.15,5.15,0,0,1,120.85,52a6.85,6.85,0,0,1,7.77,1.35A4.72,4.72,0,0,1,130,56.7a6.26,6.26,0,0,1-.94,3.1A2.69,2.69,0,0,0,131,62.17a4,4,0,0,0,4-.61,11.94,11.94,0,0,1-1.87-5.8,6.59,6.59,0,0,1,.3-2c1-3,4-4.37,5.58-5,.06-.76.1-1.5.1-2.22a22.77,22.77,0,0,0-.42-4.41c-8-3.9-13.94-6.26-25-3.13Z"/><path class="cls-2" d="M113.61,38.75l-.18,0,.09,1v.09a4.51,4.51,0,0,1-1.69,3.52l-.31.25.38.15a2.64,2.64,0,0,1,1.64,2.7v.14l.13.06a6.13,6.13,0,0,1,3.38,5.65v.47a7.52,7.52,0,0,1-4.32,6.39l-.36.16.31.24c1.86,1.42,3.74,1,6-.2l.16-.08,0-.17a11.63,11.63,0,0,1-.28-2.29A4.89,4.89,0,0,1,121,52.25a6.59,6.59,0,0,1,7.49,1.31,4.48,4.48,0,0,1,1.3,3.14,6,6,0,0,1-.9,3l0,.06v.06a2.92,2.92,0,0,0,2.08,2.58,4.27,4.27,0,0,0,4.23-.66l.13-.13-.09-.16a11.7,11.7,0,0,1-1.84-5.68,6.1,6.1,0,0,1,.3-1.93c1-3,4.11-4.32,5.44-4.89l.14,0,.1-2.38a23.27,23.27,0,0,0-.42-4.46l0-.11-.11,0c-8.32-4-14.16-6.26-25.14-3.14Zm24.83,3.5a23.54,23.54,0,0,1,.4,4.26s-.09,1.82-.1,2.06c-1.45.62-4.56,2-5.57,5.12a6.69,6.69,0,0,0-.31,2.07,12,12,0,0,0,1.8,5.73,3.86,3.86,0,0,1-3.61.46,2.49,2.49,0,0,1-1.76-2.1,6.51,6.51,0,0,0,.93-3.15,4.94,4.94,0,0,0-1.43-3.47,7.09,7.09,0,0,0-8.06-1.39,5.41,5.41,0,0,0-2.7,5.08,11.22,11.22,0,0,0,.27,2.2c-2,1-3.51,1.35-5,.37a8,8,0,0,0,4.24-6.59v-.5a6.58,6.58,0,0,0-3.53-6,3.06,3.06,0,0,0-1.63-2.82A5,5,0,0,0,114,39.94v-.1s0-.44-.06-.69c10.64-3,16.4-.82,24.51,3.1Z"/><path class="cls-4" d="M140.69,64a17.63,17.63,0,0,1-3.9,3c1.62.39,3.35.84,5.29,1.39a16.73,16.73,0,0,1-1.24-4.38l-.15,0Z"/><path class="cls-2" d="M140.53,63.85a17.37,17.37,0,0,1-3.85,3l-.53.29.59.15c1.77.42,3.53.89,5.28,1.38l.46.13-.19-.44A17,17,0,0,1,141.07,64v-.17l-.45-.08-.08.08Zm.13.51a16.33,16.33,0,0,0,1,3.72c-1.43-.4-2.87-.78-4.31-1.13A18.34,18.34,0,0,0,140.66,64.36Z"/><path class="cls-4" d="M107.58,61.32l-.07-.06a10.14,10.14,0,0,1-1.66,2.14l.38,0h2.6l.38,0-.06-.06a10.15,10.15,0,0,1-1.57-2Z"/><path class="cls-2" d="M107.31,61.15a10,10,0,0,1-1.63,2.09l-.42.43,1-.06h2.59l.93.06-.44-.49a10.23,10.23,0,0,1-1.54-2l-.21-.35-.26.29Zm.21.51a10.89,10.89,0,0,0,1.15,1.49h-2.28A10.25,10.25,0,0,0,107.52,61.66Z"/><path d="M42.76,54.42a3.21,3.21,0,1,0-3.16-3.2,3.14,3.14,0,0,0,3.16,3.2Z"/><path class="cls-2" d="M39.36,51.22a3.39,3.39,0,0,0,3.4,3.44,3.44,3.44,0,1,0-3.4-3.44Zm.47,0a3,3,0,1,1,2.93,3A2.95,2.95,0,0,1,39.83,51.22Z"/><path d="M46.25,40.46A3.27,3.27,0,0,0,43,43.67a3.23,3.23,0,0,0,6.46,0A3.25,3.25,0,0,0,46.25,40.46Z"/><path class="cls-2" d="M42.77,43.67a3.46,3.46,0,0,0,6.92,0,3.46,3.46,0,0,0-6.92,0Zm.47,0a3,3,0,0,1,6,0,3,3,0,0,1-6,0Z"/><path d="M58.43,30.33a2.93,2.93,0,1,0,3,3A3,3,0,0,0,58.43,30.33Z"/><path class="cls-2" d="M55.3,33.28a3.13,3.13,0,0,0,3.13,3.13,3.16,3.16,0,1,0-3.13-3.13Zm.46,0a2.69,2.69,0,0,1,2.67-2.71,2.69,2.69,0,1,1,0,5.37,2.67,2.67,0,0,1-2.67-2.66Z"/><path d="M68.66,30.22a2.92,2.92,0,0,0-5.84,0,3,3,0,0,0,2.94,2.94A2.92,2.92,0,0,0,68.66,30.22Z"/><path class="cls-2" d="M62.59,30.22a3.22,3.22,0,0,0,3.17,3.18,3.16,3.16,0,1,0-3.17-3.18Zm.46,0a2.69,2.69,0,1,1,2.71,2.71A2.74,2.74,0,0,1,63.05,30.22Z"/><path d="M51.49,34.44a3.19,3.19,0,0,0-3.25,3.2,3.21,3.21,0,1,0,6.41,0,3.18,3.18,0,0,0-3.16-3.2Z"/><path class="cls-2" d="M48,37.64a3.44,3.44,0,1,0,6.87,0,3.44,3.44,0,1,0-6.87,0Zm.46,0a3,3,0,1,1,3,3A3,3,0,0,1,48.47,37.64Z"/><path d="M66.84,37.6a2.92,2.92,0,1,0,5.84,0,2.92,2.92,0,0,0-5.84,0Z"/><path class="cls-2" d="M66.6,37.6a3.16,3.16,0,1,0,6.31,0,3.16,3.16,0,0,0-6.31,0Zm.47,0a2.69,2.69,0,0,1,5.38,0,2.69,2.69,0,1,1-5.38,0Z"/><path d="M85.8,17.63a2.94,2.94,0,0,0-2.94,2.94,2.92,2.92,0,0,0,5.84,0A2.92,2.92,0,0,0,85.8,17.63Z"/><path class="cls-2" d="M82.63,20.57a3.15,3.15,0,0,0,6.3,0,3.15,3.15,0,1,0-6.3,0Zm.46,0a2.69,2.69,0,1,1,5.38,0,2.69,2.69,0,0,1-5.38,0Z"/><path d="M107.63,43.29a3.21,3.21,0,1,0-3.16-3.2A3.2,3.2,0,0,0,107.63,43.29Z"/><path class="cls-2" d="M104.23,40.09a3.42,3.42,0,1,0,3.4-3.44A3.46,3.46,0,0,0,104.23,40.09Zm.47,0a3,3,0,1,1,2.93,3A3,3,0,0,1,104.7,40.09Z"/><path d="M107.63,34.52a2.93,2.93,0,1,0-2.9-2.9A2.89,2.89,0,0,0,107.63,34.52Z"/><path class="cls-2" d="M104.5,31.62a3.15,3.15,0,1,0,3.13-3.18A3.13,3.13,0,0,0,104.5,31.62Zm.46,0a2.69,2.69,0,1,1,2.67,2.66A2.66,2.66,0,0,1,105,31.62Z"/><path d="M107.63,26.57a2.92,2.92,0,1,0-2.9-2.9A2.89,2.89,0,0,0,107.63,26.57Z"/><path class="cls-2" d="M104.5,23.67a3.15,3.15,0,1,0,3.13-3.17A3.13,3.13,0,0,0,104.5,23.67Zm.46,0a2.69,2.69,0,1,1,2.67,2.67A2.66,2.66,0,0,1,105,23.67Z"/><path d="M92.92,14.75a2.92,2.92,0,1,0,0,5.84,2.92,2.92,0,0,0,0-5.84Z"/><path class="cls-2" d="M89.7,17.69a3.17,3.17,0,0,0,3.22,3.13,3.16,3.16,0,0,0,0-6.31A3.2,3.2,0,0,0,89.7,17.69Zm.46,0A2.74,2.74,0,0,1,92.92,15a2.69,2.69,0,0,1,0,5.38A2.72,2.72,0,0,1,90.16,17.69Z"/><path d="M103.72,16.12a2.92,2.92,0,0,0-5.84,0,3,3,0,0,0,2.94,2.94A2.92,2.92,0,0,0,103.72,16.12Z"/><path class="cls-2" d="M97.64,16.12a3.23,3.23,0,0,0,3.18,3.18,3.16,3.16,0,1,0-3.18-3.18Zm.47,0a2.69,2.69,0,1,1,2.71,2.71A2.74,2.74,0,0,1,98.11,16.12Z"/><path d="M41,62.24A3.25,3.25,0,0,0,44.17,59a3.2,3.2,0,0,0-3.2-3.2A3.14,3.14,0,0,0,37.81,59,3.19,3.19,0,0,0,41,62.24Z"/><path class="cls-2" d="M37.57,59A3.43,3.43,0,0,0,41,62.47a3.44,3.44,0,0,0,0-6.88A3.38,3.38,0,0,0,37.57,59ZM38,59a2.92,2.92,0,0,1,2.93-3,3,3,0,0,1,3,3,3,3,0,0,1-3,3A3,3,0,0,1,38,59Z"/><path d="M78.51,22.26a3,3,0,0,0-2.94,2.94,2.92,2.92,0,1,0,2.94-2.94Z"/><path class="cls-2" d="M75.33,25.2A3.16,3.16,0,1,0,78.51,22,3.23,3.23,0,0,0,75.33,25.2Zm.47,0a2.74,2.74,0,0,1,2.71-2.71A2.69,2.69,0,1,1,75.8,25.2Z"/><path d="M71.41,46.2a2.94,2.94,0,1,0-2.94,2.9A2.92,2.92,0,0,0,71.41,46.2Z"/><path class="cls-2" d="M65.29,46.2A3.18,3.18,0,1,0,68.47,43,3.13,3.13,0,0,0,65.29,46.2Zm.47,0a2.71,2.71,0,1,1,2.71,2.66A2.68,2.68,0,0,1,65.76,46.2Z"/><path d="M73.14,34.34a2.94,2.94,0,0,0,2.94-2.94,2.92,2.92,0,0,0-5.84,0A2.92,2.92,0,0,0,73.14,34.34Z"/><path class="cls-2" d="M70,31.4a3.16,3.16,0,1,0,6.31,0,3.16,3.16,0,0,0-6.31,0Zm.47,0a2.69,2.69,0,0,1,5.37,0,2.69,2.69,0,1,1-5.37,0Z"/><path d="M169.2,51a3.26,3.26,0,0,0,3.21,3.21A3.21,3.21,0,1,0,169.2,51Z"/><path class="cls-2" d="M169,51a3.49,3.49,0,0,0,3.44,3.44A3.44,3.44,0,1,0,169,51Zm.47,0a3,3,0,1,1,3,3A3,3,0,0,1,169.44,51Z"/><path d="M172.3,43.49a3.21,3.21,0,1,0-3.21,3.16A3.21,3.21,0,0,0,172.3,43.49Z"/><path class="cls-2" d="M165.66,43.49a3.44,3.44,0,1,0,3.43-3.44A3.41,3.41,0,0,0,165.66,43.49Zm.47,0a3,3,0,1,1,3,2.93A3,3,0,0,1,166.13,43.49Z"/><path d="M156.56,30.33a3,3,0,0,0-2.94,3,2.92,2.92,0,1,0,2.94-3Z"/><path class="cls-2" d="M153.39,33.28a3.16,3.16,0,1,0,3.17-3.18A3.21,3.21,0,0,0,153.39,33.28Zm.46,0a2.75,2.75,0,0,1,2.71-2.71,2.69,2.69,0,1,1-2.71,2.71Z"/><path d="M149.49,27.41a2.92,2.92,0,0,0-2.94,2.9,2.94,2.94,0,1,0,5.88,0,2.92,2.92,0,0,0-2.94-2.9Z"/><path class="cls-2" d="M146.32,30.31a3.18,3.18,0,0,0,6.35,0,3.18,3.18,0,0,0-6.35,0Zm.46,0a2.71,2.71,0,0,1,5.42,0,2.71,2.71,0,0,1-5.42,0Z"/><path d="M167,37.56a3.21,3.21,0,0,0-3.2-3.21,3.15,3.15,0,0,0-3.16,3.21,3.18,3.18,0,1,0,6.36,0Z"/><path class="cls-2" d="M160.37,37.56a3.42,3.42,0,1,0,3.4-3.45,3.42,3.42,0,0,0-3.4,3.45Zm.47,0a2.93,2.93,0,0,1,2.93-3,3,3,0,1,1-2.93,3Z"/><path d="M142.62,37.56a2.93,2.93,0,1,0,5.85,0,2.93,2.93,0,0,0-5.85,0Z"/><path class="cls-2" d="M142.39,37.56a3.16,3.16,0,1,0,6.31,0,3.16,3.16,0,0,0-6.31,0Zm.46,0a2.69,2.69,0,0,1,5.38,0,2.69,2.69,0,0,1-2.67,2.7A2.72,2.72,0,0,1,142.85,37.56Z"/><path d="M129.72,17.72a2.92,2.92,0,1,0,2.94,2.94A3,3,0,0,0,129.72,17.72Z"/><path class="cls-2" d="M126.59,20.66a3.15,3.15,0,0,0,6.3,0,3.22,3.22,0,0,0-3.17-3.18A3.16,3.16,0,0,0,126.59,20.66Zm.46,0A2.7,2.7,0,0,1,129.72,18a2.74,2.74,0,0,1,2.71,2.71,2.69,2.69,0,0,1-5.38,0Z"/><path d="M122.08,14.84a3,3,0,0,0-3,2.94,2.95,2.95,0,0,0,5.89,0,2.94,2.94,0,0,0-2.94-2.94Z"/><path class="cls-2" d="M118.9,17.78a3.18,3.18,0,0,0,6.35,0,3.18,3.18,0,1,0-6.35,0Zm.47,0a2.71,2.71,0,0,1,5.42,0,2.71,2.71,0,0,1-5.42,0Z"/><path d="M114,13.35a2.92,2.92,0,0,0,0,5.84A3,3,0,0,0,117,16.25,2.93,2.93,0,0,0,114,13.35Z"/><path class="cls-2" d="M110.91,16.25a3.17,3.17,0,0,0,3.14,3.18,3.22,3.22,0,0,0,3.17-3.18,3.16,3.16,0,0,0-6.31,0Zm.47,0a2.69,2.69,0,0,1,5.37,0A2.74,2.74,0,0,1,114,19a2.7,2.7,0,0,1-2.66-2.71Z"/><path d="M171.13,59.25a3.21,3.21,0,1,0,6.41,0,3.21,3.21,0,0,0-6.41,0Z"/><path class="cls-2" d="M170.89,59.25a3.49,3.49,0,0,0,3.44,3.44,3.44,3.44,0,1,0-3.44-3.44Zm.47,0a3,3,0,1,1,3,3A3,3,0,0,1,171.36,59.25Z"/><path d="M139.43,25.16a3,3,0,0,0-3-2.95,2.92,2.92,0,1,0,3,2.95Z"/><path class="cls-2" d="M133.35,25.16a3.16,3.16,0,0,0,6.31,0A3.22,3.22,0,0,0,136.48,22,3.16,3.16,0,0,0,133.35,25.16Zm.47,0a2.68,2.68,0,0,1,2.66-2.71,2.74,2.74,0,0,1,2.71,2.71,2.69,2.69,0,0,1-5.37,0Z"/><path d="M146.39,43.25a2.89,2.89,0,0,0-2.94,2.9,2.95,2.95,0,1,0,5.89,0A2.89,2.89,0,0,0,146.39,43.25Z"/><path class="cls-2" d="M143.22,46.15a3.18,3.18,0,1,0,6.35,0,3.18,3.18,0,0,0-6.35,0Zm.47,0a2.71,2.71,0,0,1,5.41,0,2.71,2.71,0,1,1-5.41,0Z"/><path d="M141.86,34a2.93,2.93,0,1,0-3-2.9A2.89,2.89,0,0,0,141.86,34Z"/><path class="cls-2" d="M138.68,31.14a3.12,3.12,0,0,0,3.18,3.13,3.16,3.16,0,1,0-3.18-3.13Zm.46,0a2.68,2.68,0,0,1,2.72-2.71,2.69,2.69,0,1,1,0,5.37A2.66,2.66,0,0,1,139.14,31.14Z"/><path class="cls-1" d="M42.76,53.51a2.26,2.26,0,0,0,2.29-2.29,2.27,2.27,0,1,0-4.54,0A2.24,2.24,0,0,0,42.76,53.51Z"/><path class="cls-2" d="M40.27,51.22a2.51,2.51,0,1,0,5,0,2.51,2.51,0,1,0-5,0Zm.47,0a2,2,0,0,1,2-2.06,2.06,2.06,0,0,1,0,4.12A2,2,0,0,1,40.74,51.22Z"/><path class="cls-1" d="M46.25,41.37a2.35,2.35,0,0,0-2.34,2.3,2.32,2.32,0,0,0,4.64,0A2.36,2.36,0,0,0,46.25,41.37Z"/><path class="cls-2" d="M43.68,43.67a2.55,2.55,0,0,0,5.1,0,2.55,2.55,0,0,0-5.1,0Zm.46,0a2.09,2.09,0,0,1,4.17,0,2.09,2.09,0,0,1-4.17,0Z"/><path class="cls-1" d="M58.43,31.24a2,2,0,0,0,0,4,2,2,0,0,0,2.08-2A2.06,2.06,0,0,0,58.43,31.24Z"/><path class="cls-2" d="M56.21,33.28a2.22,2.22,0,0,0,2.22,2.22,2.25,2.25,0,1,0,0-4.49,2.24,2.24,0,0,0-2.22,2.27Zm.46,0a1.78,1.78,0,0,1,1.76-1.8,1.78,1.78,0,1,1,0,3.55,1.76,1.76,0,0,1-1.76-1.75Z"/><path class="cls-1" d="M67.75,30.22a2,2,0,0,0-2-2,2,2,0,0,0-2,2,2.06,2.06,0,0,0,2,2A2,2,0,0,0,67.75,30.22Z"/><path class="cls-2" d="M63.5,30.22a2.3,2.3,0,0,0,2.26,2.27A2.25,2.25,0,0,0,68,30.22a2.25,2.25,0,0,0-4.49,0Zm.46,0a1.78,1.78,0,0,1,1.8-1.76,1.76,1.76,0,0,1,1.76,1.76A1.78,1.78,0,0,1,65.76,32,1.83,1.83,0,0,1,64,30.22Z"/><path class="cls-1" d="M51.49,35.35a2.29,2.29,0,0,0-2.34,2.29,2.3,2.3,0,1,0,4.59,0,2.27,2.27,0,0,0-2.25-2.29Z"/><path class="cls-2" d="M48.92,37.64a2.53,2.53,0,1,0,5,0,2.53,2.53,0,1,0-5,0Zm.46,0a2.07,2.07,0,0,1,2.11-2.06,2,2,0,0,1,2,2.06,2.07,2.07,0,0,1-4.13,0Z"/><path class="cls-1" d="M69.74,39.63a2,2,0,0,0,2-2,2,2,0,0,0-4,0A2,2,0,0,0,69.74,39.63Z"/><path class="cls-2" d="M67.51,37.6a2.25,2.25,0,1,0,4.49,0,2.22,2.22,0,0,0-2.26-2.23A2.25,2.25,0,0,0,67.51,37.6Zm.47,0a1.78,1.78,0,0,1,3.56,0,1.81,1.81,0,0,1-1.8,1.8A1.78,1.78,0,0,1,68,37.6Z"/><path class="cls-1" d="M85.8,18.54a2,2,0,0,0-2,2,2,2,0,0,0,4,0A2,2,0,0,0,85.8,18.54Z"/><path class="cls-2" d="M83.53,20.57a2.25,2.25,0,1,0,2.27-2.26A2.27,2.27,0,0,0,83.53,20.57Zm.47,0a1.81,1.81,0,0,1,1.8-1.8,1.78,1.78,0,0,1,1.76,1.8,1.78,1.78,0,0,1-3.56,0Z"/><path class="cls-1" d="M107.63,42.38a2.26,2.26,0,0,0,2.29-2.29,2.27,2.27,0,1,0-4.54,0A2.3,2.3,0,0,0,107.63,42.38Z"/><path class="cls-2" d="M105.14,40.09a2.54,2.54,0,0,0,2.49,2.52,2.5,2.5,0,0,0,2.53-2.52,2.51,2.51,0,1,0-5,0Zm.47,0a2,2,0,1,1,4.08,0,2,2,0,0,1-2.06,2.06A2.07,2.07,0,0,1,105.61,40.09Z"/><path class="cls-1" d="M107.63,33.61a2,2,0,0,0,2-2,2,2,0,0,0-2-2,2,2,0,0,0,0,4Z"/><path class="cls-2" d="M105.41,31.62a2.25,2.25,0,0,0,4.49,0,2.25,2.25,0,0,0-2.27-2.27A2.22,2.22,0,0,0,105.41,31.62Zm.46,0a1.76,1.76,0,0,1,1.76-1.8,1.78,1.78,0,0,1,1.8,1.8,1.78,1.78,0,0,1-3.56,0Z"/><path class="cls-1" d="M107.63,25.66a2,2,0,0,0,2-2,2,2,0,0,0-2-2,2,2,0,0,0,0,4Z"/><path class="cls-2" d="M105.41,23.67a2.25,2.25,0,1,0,2.22-2.27A2.23,2.23,0,0,0,105.41,23.67Zm.46,0a1.76,1.76,0,0,1,1.76-1.8,1.78,1.78,0,0,1,1.8,1.8,1.78,1.78,0,0,1-3.56,0Z"/><path class="cls-1" d="M92.92,15.66a2,2,0,1,0,0,4,2,2,0,0,0,2-2,2,2,0,0,0-2-2Z"/><path class="cls-2" d="M90.61,17.69a2.26,2.26,0,0,0,2.31,2.22,2.22,2.22,0,0,0,2.22-2.22,2.25,2.25,0,0,0-2.22-2.27,2.29,2.29,0,0,0-2.31,2.27Zm.46,0a1.83,1.83,0,0,1,1.85-1.8,1.78,1.78,0,0,1,1.75,1.8,1.75,1.75,0,0,1-1.75,1.76A1.81,1.81,0,0,1,91.07,17.69Z"/><path class="cls-1" d="M100.82,14.13a2,2,0,0,0-2,2,2.07,2.07,0,0,0,2,2,2,2,0,0,0,2-2A2,2,0,0,0,100.82,14.13Z"/><path class="cls-2" d="M98.55,16.12a2.3,2.3,0,0,0,2.27,2.27A2.25,2.25,0,0,0,103,16.12a2.21,2.21,0,0,0-2.22-2.22,2.25,2.25,0,0,0-2.27,2.22Zm.47,0a1.78,1.78,0,0,1,1.8-1.76,1.75,1.75,0,0,1,1.75,1.76,1.78,1.78,0,0,1-1.75,1.8A1.82,1.82,0,0,1,99,16.12Z"/><path class="cls-1" d="M41,61.33A2.36,2.36,0,0,0,43.26,59,2.28,2.28,0,0,0,41,56.74,2.25,2.25,0,0,0,38.72,59,2.28,2.28,0,0,0,41,61.33Z"/><path class="cls-2" d="M38.48,59A2.51,2.51,0,0,0,41,61.56,2.59,2.59,0,0,0,43.5,59,2.55,2.55,0,0,0,41,56.5,2.49,2.49,0,0,0,38.48,59ZM39,59A2,2,0,0,1,41,57,2.06,2.06,0,0,1,43,59,2.12,2.12,0,0,1,41,61.1,2,2,0,0,1,39,59Z"/><path class="cls-1" d="M78.51,23.17a2.06,2.06,0,0,0-2,2,2,2,0,0,0,2,2,2,2,0,0,0,2-2,2,2,0,0,0-2-2Z"/><path class="cls-2" d="M76.24,25.2a2.25,2.25,0,0,0,2.27,2.22,2.21,2.21,0,0,0,2.22-2.22,2.25,2.25,0,0,0-2.22-2.27A2.3,2.3,0,0,0,76.24,25.2Zm.47,0a1.83,1.83,0,0,1,1.8-1.8,1.78,1.78,0,0,1,1.76,1.8A1.76,1.76,0,0,1,78.51,27,1.78,1.78,0,0,1,76.71,25.2Z"/><path class="cls-1" d="M70.51,46.2a2,2,0,1,0-4.07,0,2,2,0,0,0,4.07,0Z"/><path class="cls-2" d="M66.2,46.2a2.27,2.27,0,0,0,4.54,0,2.27,2.27,0,1,0-4.54,0Zm.47,0a1.8,1.8,0,1,1,3.6,0,1.8,1.8,0,0,1-3.6,0Z"/><path class="cls-1" d="M73.14,33.43a2,2,0,0,0,2-2,2,2,0,1,0-2,2Z"/><path class="cls-2" d="M70.92,31.4a2.25,2.25,0,0,0,2.22,2.27,2.27,2.27,0,0,0,2.27-2.27,2.25,2.25,0,0,0-4.49,0Zm.47,0a1.78,1.78,0,0,1,3.55,0,1.8,1.8,0,0,1-1.8,1.8A1.78,1.78,0,0,1,71.39,31.4Z"/><path class="cls-1" d="M172.41,53.34a2.33,2.33,0,0,0,2.3-2.3,2.27,2.27,0,0,0-2.3-2.29A2.3,2.3,0,0,0,170.12,51,2.35,2.35,0,0,0,172.41,53.34Z"/><path class="cls-2" d="M169.88,51a2.59,2.59,0,0,0,2.53,2.53A2.57,2.57,0,0,0,174.94,51a2.51,2.51,0,0,0-2.53-2.53A2.55,2.55,0,0,0,169.88,51Zm.47,0A2.06,2.06,0,0,1,172.41,49,2,2,0,0,1,174.47,51a2.09,2.09,0,0,1-2.06,2.07A2.13,2.13,0,0,1,170.35,51Z"/><path class="cls-1" d="M171.39,43.49a2.3,2.3,0,1,0-2.3,2.25A2.27,2.27,0,0,0,171.39,43.49Z"/><path class="cls-2" d="M166.57,43.49A2.53,2.53,0,1,0,169.1,41,2.51,2.51,0,0,0,166.57,43.49Zm.46,0a2.07,2.07,0,1,1,2.06,2A2,2,0,0,1,167,43.49Z"/><path class="cls-1" d="M156.56,31.24a2.07,2.07,0,0,0-2,2,2,2,0,1,0,2-2Z"/><path class="cls-2" d="M154.3,33.28A2.25,2.25,0,1,0,156.56,31a2.29,2.29,0,0,0-2.26,2.27Zm.47,0a1.82,1.82,0,0,1,1.79-1.8,1.78,1.78,0,0,1,1.76,1.8A1.75,1.75,0,0,1,156.56,35,1.77,1.77,0,0,1,154.77,33.28Z"/><path class="cls-1" d="M149.49,28.32a2,2,0,0,0-2,2,2,2,0,0,0,4.07,0,2,2,0,0,0-2-2Z"/><path class="cls-2" d="M147.23,30.31a2.27,2.27,0,0,0,4.53,0,2.27,2.27,0,0,0-4.53,0Zm.46,0a1.8,1.8,0,0,1,3.6,0,1.8,1.8,0,1,1-3.6,0Z"/><path class="cls-1" d="M163.77,35.26a2.3,2.3,0,0,0,0,4.59,2.32,2.32,0,0,0,2.29-2.29A2.27,2.27,0,0,0,163.77,35.26Z"/><path class="cls-2" d="M161.28,37.56a2.51,2.51,0,0,0,2.49,2.52,2.55,2.55,0,0,0,2.52-2.52,2.51,2.51,0,1,0-5,0Zm.47,0a2,2,0,0,1,2-2.07,2,2,0,0,1,2.06,2.07,2.1,2.1,0,0,1-2.06,2.06A2,2,0,0,1,161.75,37.56Z"/><path class="cls-1" d="M145.56,39.59a2,2,0,1,0-2-2A2,2,0,0,0,145.56,39.59Z"/><path class="cls-2" d="M143.3,37.56a2.25,2.25,0,1,0,4.49,0,2.25,2.25,0,0,0-4.49,0Zm.46,0a1.78,1.78,0,1,1,1.8,1.79A1.8,1.8,0,0,1,143.76,37.56Z"/><path class="cls-1" d="M129.72,18.63a2,2,0,0,0-2,2,2,2,0,0,0,2,2,2,2,0,0,0,2-2,2.06,2.06,0,0,0-2-2Z"/><path class="cls-2" d="M127.5,20.66a2.24,2.24,0,0,0,4.48,0,2.29,2.29,0,0,0-2.26-2.27A2.25,2.25,0,0,0,127.5,20.66Zm.46,0a1.78,1.78,0,0,1,1.76-1.8,1.83,1.83,0,0,1,1.8,1.8,1.78,1.78,0,0,1-1.8,1.76A1.76,1.76,0,0,1,128,20.66Z"/><path class="cls-1" d="M122.08,15.75a2,2,0,0,0-2,2,2,2,0,0,0,4.07,0A2,2,0,0,0,122.08,15.75Z"/><path class="cls-2" d="M119.81,17.78a2.27,2.27,0,0,0,4.54,0,2.27,2.27,0,0,0-4.54,0Zm.47,0a1.8,1.8,0,0,1,3.6,0,1.8,1.8,0,0,1-3.6,0Z"/><path class="cls-1" d="M114,14.26a2,2,0,0,0-2,2,2,2,0,0,0,2,2,2.06,2.06,0,0,0,2-2A2,2,0,0,0,114,14.26Z"/><path class="cls-2" d="M111.82,16.25a2.25,2.25,0,0,0,2.23,2.27,2.29,2.29,0,0,0,2.26-2.27,2.25,2.25,0,0,0-4.49,0Zm.47,0A1.76,1.76,0,0,1,114,14.49a1.79,1.79,0,0,1,1.81,1.76,1.83,1.83,0,0,1-1.81,1.8,1.78,1.78,0,0,1-1.75-1.8Z"/><path class="cls-1" d="M172,59.25a2.36,2.36,0,0,0,2.29,2.3,2.33,2.33,0,0,0,2.3-2.3,2.3,2.3,0,0,0-4.59,0Z"/><path class="cls-2" d="M171.8,59.25a2.6,2.6,0,0,0,2.53,2.53,2.56,2.56,0,0,0,2.53-2.53,2.5,2.5,0,0,0-2.53-2.53A2.54,2.54,0,0,0,171.8,59.25Zm.47,0a2.06,2.06,0,0,1,2.06-2.06,2,2,0,0,1,2.06,2.06,2.08,2.08,0,0,1-2.06,2.06A2.12,2.12,0,0,1,172.27,59.25Z"/><path class="cls-1" d="M136.48,23.12a2,2,0,1,0,2,2,2.06,2.06,0,0,0-2-2Z"/><path class="cls-2" d="M134.26,25.16a2.25,2.25,0,0,0,4.49,0,2.3,2.3,0,0,0-2.26-2.27,2.25,2.25,0,0,0-2.23,2.27Zm.47,0a1.78,1.78,0,0,1,1.75-1.8,1.82,1.82,0,0,1,1.8,1.8,1.78,1.78,0,0,1-1.8,1.75,1.75,1.75,0,0,1-1.75-1.75Z"/><path class="cls-1" d="M146.39,44.16a2,2,0,0,0-2,2,2,2,0,0,0,4.07,0,2,2,0,0,0-2-2Z"/><path class="cls-2" d="M144.13,46.15a2.27,2.27,0,1,0,4.53,0,2.27,2.27,0,0,0-4.53,0Zm.46,0a1.81,1.81,0,0,1,3.61,0,1.81,1.81,0,0,1-3.61,0Z"/><path class="cls-1" d="M141.86,33.13a2,2,0,1,0-2-2A2,2,0,0,0,141.86,33.13Z"/><path class="cls-2" d="M139.59,31.14a2.22,2.22,0,0,0,2.27,2.22,2.25,2.25,0,1,0-2.27-2.22Zm.46,0a1.8,1.8,0,1,1,3.6,0,1.8,1.8,0,0,1-3.6,0Z"/><path class="cls-1" d="M41.49,66.17a3.72,3.72,0,0,0-3.69,3.65,3.67,3.67,0,1,0,3.69-3.65Z"/><path class="cls-2" d="M41.49,65a5,5,0,0,0-4.91,4.87A4.89,4.89,0,1,0,41.49,65Zm0,8.21a3.37,3.37,0,0,1-3.39-3.34,3.41,3.41,0,0,1,3.39-3.35,3.35,3.35,0,1,1,0,6.69Z"/><path class="cls-1" d="M107.82,48.06a3.72,3.72,0,0,0-3.69,3.65,3.67,3.67,0,1,0,3.69-3.65Z"/><path class="cls-2" d="M107.82,46.85a5,5,0,0,0-4.91,4.86,4.89,4.89,0,1,0,4.91-4.86Zm0,8.21a3.37,3.37,0,0,1-3.39-3.35,3.41,3.41,0,0,1,3.39-3.34,3.35,3.35,0,0,1,0,6.69Z"/><path class="cls-1" d="M142.77,52.47a3.72,3.72,0,0,0-3.69,3.65,3.67,3.67,0,1,0,3.69-3.65Z"/><path class="cls-2" d="M142.77,51.26a5,5,0,0,0-4.91,4.86,4.89,4.89,0,1,0,4.91-4.86Zm0,8.21a3.37,3.37,0,0,1-3.39-3.35,3.41,3.41,0,0,1,3.39-3.34,3.35,3.35,0,0,1,0,6.69Z"/><path class="cls-1" d="M173.61,65.86a3.72,3.72,0,0,0-3.69,3.65,3.67,3.67,0,1,0,3.69-3.65Z"/><path class="cls-2" d="M173.61,64.65a5,5,0,0,0-4.91,4.86,4.89,4.89,0,1,0,4.91-4.86Zm0,8.2a3.37,3.37,0,0,1-3.39-3.34,3.42,3.42,0,0,1,3.39-3.35,3.35,3.35,0,1,1,0,6.69Z"/><path class="cls-1" d="M72.42,52.64a3.72,3.72,0,0,0-3.7,3.65,3.67,3.67,0,1,0,3.7-3.65Z"/><path class="cls-2" d="M72.41,51.43a5,5,0,0,0-4.9,4.86,4.89,4.89,0,1,0,4.9-4.86Zm0,8.21A3.37,3.37,0,0,1,69,56.29,3.41,3.41,0,0,1,72.41,53a3.35,3.35,0,1,1,0,6.69Z"/></g></g></svg>