<svg xmlns="http://www.w3.org/2000/svg" viewBox="0 0 260.75 300"><defs><style>.cls-1{fill:#143c8b;}.cls-2{fill:#ffe24a;}.cls-3{fill:#fff;}.cls-4{fill:#ec1d24;}.cls-5{fill:#e6a514;}</style></defs><title>Real_Sociedad</title><g id="Слой_2" data-name="Слой 2"><g id="Слой_1-2" data-name="Слой 1"><path id="path5" d="M122.78,7.68h5.81V0h5.24V7.68h5.81v5.23h-5.81v3.81a7.92,7.92,0,0,1,4.34,3.68,6.43,6.43,0,0,1,10.61,4.9c0,.15,0,.29,0,.44a6.44,6.44,0,0,1,8.45,1.44,6.44,6.44,0,0,1,12.8.95,6.27,6.27,0,0,1-.36,2.13,6.44,6.44,0,0,1,11.15,3.86,6.51,6.51,0,0,1,1.61-.2,6.43,6.43,0,0,1,6.16,8.31,6.45,6.45,0,0,1,3.89,9,6.46,6.46,0,0,1,1.39,9.23,6.44,6.44,0,0,1-1.37,10.5,5.47,5.47,0,0,1-3.8,7.12,34.1,34.1,0,0,1-8.48,1c.31,3.81-2.6,8-6.38,8L177.28,93l-6.05,1.37c2.06,1.71,2.46,5,1.56,7.47a7.39,7.39,0,0,1-2.13,3,83.94,83.94,0,0,1,43,89.32c.61.38,1.21.76,1.79,1.15a97,97,0,0,1,18.51,16h0c2.19,2.43,4.46,4.9,6.83,7.44s4.68,4.92,7.08,7.34c4.2,4.22,8.44,8.35,12.86,12.32-14.19,3.7-26.62,9.78-38.64,17l32.72,33.17-12.18,8-32.84-33.35q-3.31,2.19-6.65,4.47c-8,5.43-16.06,10.9-24.62,15.83-13.69,7.89-27.11,13.34-39.63,15.46-11,1.86-22.2,1.23-32.41-3.56C96.94,285.12,87.24,275.33,75.09,268c-9.76-1.85-18.19-11.75-23-19.62l0-.08a58.93,58.93,0,0,0-6.43-9.93,93.67,93.67,0,0,0-22.49-21c-5.62-3.62-8.55-6.39-10.82-12.81-1.65-4.67-3.8-9.13-5.5-13.79C5.59,187.32,4.5,184,3.72,181c-2.62-9.83-1.41-19.86.66-29.7a116.81,116.81,0,0,0,2.12-12.2,32.7,32.7,0,0,0-1.21-13.23c-7-22.67-1.42-48.38,4.17-71.17-8.3,1.58-12.52-9.13-6.9-15.15L6.84,35c7.89-8.44,19.59,1.32,13.88,10.19L82,111a85.43,85.43,0,0,1,9.81-6.15,7.2,7.2,0,0,1-2.13-3c-.9-2.43-.51-5.76,1.56-7.47l-6-1.37L88.6,87.1c-3.78-.08-6.69-4.22-6.38-8a33.73,33.73,0,0,1-8.49-1,5.46,5.46,0,0,1-3.79-7.11,6.43,6.43,0,0,1-1.37-10.5A6.43,6.43,0,0,1,70,51.21a6.36,6.36,0,0,1-.65-2.83,6.44,6.44,0,0,1,4.54-6.15A6.43,6.43,0,0,1,80,33.92a6.66,6.66,0,0,1,1.62.2,6.43,6.43,0,0,1,11.14-3.86,6.52,6.52,0,0,1-.36-2.13,6.44,6.44,0,0,1,12.8-.95,6.42,6.42,0,0,1,5-2.42,6.32,6.32,0,0,1,3.41,1c0-.15,0-.29,0-.44a6.43,6.43,0,0,1,10.61-4.9,7.92,7.92,0,0,1,4.34-3.68V12.91h-5.82V7.68ZM58.19,137.56a84.24,84.24,0,0,1,13-17.31L12.39,57.17A149.35,149.35,0,0,0,25.08,89.92C34.07,107.07,45.7,122.79,58.19,137.56Z"/><path id="path7" class="cls-1" d="M30,203.56c-10-11.31-7.18-29.46-4.87-44.2.34-2.18.67-4.28.95-6.28h0a120.75,120.75,0,0,0,0-20.57,77.58,77.58,0,0,0-3.44-17.39v0A73,73,0,0,1,22,104a100.33,100.33,0,0,1,1-12.22L23,91.4l-.16-.31c-4.74-9-9.72-19.07-12.31-29C6,82.34,1.72,104.84,7.72,125.16A35.33,35.33,0,0,1,9,139.4a117.5,117.5,0,0,1-2.16,12.45c-1.56,7.4-2.64,13.69-1.58,20.06,1.44,8.76,7,16.66,13.33,22.68A66,66,0,0,0,30,203.56Z"/><path id="path9" class="cls-2" d="M171.51,86.64l-.17-.07a91.52,91.52,0,0,0-19.22-6.23,104.79,104.79,0,0,0-41.82,0,91.8,91.8,0,0,0-19.23,6.23l-.16.07,6.4.79.48.06-.3.38-4.42,5.46a93,93,0,0,1,18.15-6,94.54,94.54,0,0,1,40,0,92.48,92.48,0,0,1,18.15,6l-4.42-5.46-.3-.38.48-.06Z"/><path id="path11" class="cls-3" d="M44.67,210a58,58,0,0,1-4.92-10.87,109.15,109.15,0,0,1-3.36-12.23h0c-1.9-8.32-1.18-16.7-.45-25.14a138.75,138.75,0,0,0,.76-15.11c-.23-2.14-.5-4.31-.78-6.5-1.15-9.05-2.34-18.42.07-27A242.68,242.68,0,0,1,23.31,92a106.78,106.78,0,0,0-.92,12A73.42,73.42,0,0,0,23,115a77.84,77.84,0,0,1,3.46,17.47,120.41,120.41,0,0,1,0,20.63h0c-.27,2-.6,4.11-.95,6.3-2.37,15.11-5.3,33.82,5.73,44.89a55.14,55.14,0,0,0,10.62,4.83C42.79,209.46,43.73,209.74,44.67,210Z"/><path id="path13" class="cls-1" d="M54,211.69a84,84,0,0,1,2.63-71.3,303.81,303.81,0,0,1-20.38-26.83c-2.27,8.44-1.1,17.65,0,26.54.28,2.2.56,4.38.78,6.52h0a139.28,139.28,0,0,1-.75,15.16c-.73,8.41-1.45,16.77.44,25h0A109.62,109.62,0,0,0,40.13,199a55.52,55.52,0,0,0,5.1,11.15A51.42,51.42,0,0,0,54,211.69Z"/><path id="path15" class="cls-1" d="M118.13,284.87a62.75,62.75,0,0,1-3.52,10.92,55,55,0,0,0,23.89.74c12.21-2.06,25.35-7.41,38.78-15.15,8.48-4.89,16.5-10.33,24.46-15.74C218.55,254.23,235,243,255.48,237.2c-2.36-2.18-4.63-4.49-6.89-6.8-26.23.54-47,15.12-67.57,29.61-2.1,1.48-4.2,2.95-6.33,4.43h0c-8.66,5.21-17.52,10.32-26.87,14.12A78.51,78.51,0,0,1,118.13,284.87Z"/><path id="path17" class="cls-3" d="M119.46,272.6a55,55,0,0,1-1.25,11.87,78.17,78.17,0,0,0,29.45-6.27c9.32-3.79,18.17-8.88,26.81-14.09,2.09-1.45,4.2-2.94,6.32-4.42,20.55-14.46,41.24-29,67.42-29.68l-2.11-2.14q-3.37-3.39-6.58-6.81a77.62,77.62,0,0,0-20.92,4.61,140.22,140.22,0,0,0-19.54,9.08c-12.51,7.92-25.22,15.87-38.44,22.6s-26.72,12.16-41.16,15.25Z"/><path id="path19" class="cls-1" d="M116.18,254.61a52.18,52.18,0,0,1,3.18,14.91c0,.89.09,1.79.1,2.68,14.37-3.09,27.93-8.56,41-15.2,13.22-6.73,25.91-14.67,38.41-22.59h0a142.78,142.78,0,0,1,19.59-9.11,78.59,78.59,0,0,1,20.7-4.6l-.19-.21c-2.26-2.41-4.55-4.91-6.86-7.47h0q-1.76-1.92-3.58-3.75c-29,1.06-53.25,15.91-76.89,30.37l-.54.32h0l-.44.23C139.51,245.92,128.45,251.6,116.18,254.61Z"/><path id="path21" class="cls-3" d="M112.06,245.92a56.43,56.43,0,0,1,4,8.32c12.24-3,23.29-8.68,34.43-14.41l.43-.22.53-.32c23.59-14.42,47.81-29.23,76.72-30.41q-3.32-3.27-6.91-6.22a63.52,63.52,0,0,0-22.48.26,86.28,86.28,0,0,0-23.7,8.28h0c-9.2,4.1-17.81,9.78-26.43,15.47C137,234.37,125.28,242.09,112.06,245.92Z"/><path id="path23" class="cls-1" d="M98.44,230.13a55.24,55.24,0,0,1,12.38,13.76c.35.56.7,1.12,1,1.68,13.21-3.81,24.89-11.53,36.55-19.23,8.63-5.7,17.25-11.39,26.48-15.5h0a86.94,86.94,0,0,1,23.81-8.31,64.18,64.18,0,0,1,21.92-.38c-2.1-1.68-4.27-3.27-6.52-4.75-1.92-1.26-3.82-2.39-5.71-3.51s-4-2.42-5.95-3.69c-1.08-.72-2.14-1.45-3.17-2.19-28.86-2.64-51.71,12.64-73.91,27.5-3.07,2.06-6.14,4.11-9.2,6.1h0a110,110,0,0,1-17.7,8.52Z"/><path id="path25" class="cls-3" d="M87.74,223.58c.8.37,1.6.76,2.39,1.17a53.9,53.9,0,0,1,7.94,5.08c6.27-2.13,12.12-5.33,17.88-8.56,3.06-2,6.11-4,9.18-6.09,22.09-14.78,44.81-30,73.5-27.63-1.53-1.11-3-2.25-4.48-3.44s-2.83-2.34-4.25-3.6a108.9,108.9,0,0,0-18.58,1.22A117.59,117.59,0,0,0,152,186.3h0c-11.32,3-21.08,9.82-30.86,16.7a189.79,189.79,0,0,1-16.2,10.59h0c-5.52,3.64-11.66,6.28-17.14,10Z"/><path id="path27" class="cls-1" d="M16.86,196.41a56.45,56.45,0,0,1-9.45-11.8c.55,1.7,1.16,3.47,1.81,5.25,1.7,4.66,3.86,9.14,5.51,13.81,2.07,5.87,4.64,8.19,9.8,11.52a84.29,84.29,0,0,1,12.61,10.09,68.57,68.57,0,0,1,12.27-4.67,55.82,55.82,0,0,1,12.84-2,56.54,56.54,0,0,1,25.06,4.8c5.54-3.78,11.77-6.44,17.37-10.13h0a189.82,189.82,0,0,0,16.17-10.57c9.8-6.89,19.59-13.77,31-16.75h0a117.43,117.43,0,0,1,19.43-4.59,110.4,110.4,0,0,1,18.18-1.24c-1.1-1-2.2-2-3.33-3.07-1.93-1.83-3.8-3.72-5.6-5.69s-3.31-3.72-4.85-5.69c-12.85-.13-25.41,3.28-36.91,8.89a137,137,0,0,0-25.65,16.39c-8.4,6.73-16.25,12.78-26.27,17.15A78.47,78.47,0,0,1,68,213.65a55.54,55.54,0,0,1-27-2.11A58.68,58.68,0,0,1,16.86,196.41Z"/><path id="path29" class="cls-3" d="M108,293.39a42,42,0,0,0,4.14,1.66,55.33,55.33,0,0,0,4.66-25.37,51.19,51.19,0,0,0-8.14-24.43A51.66,51.66,0,0,0,89,227a53.54,53.54,0,0,0-38.88-3.95,64.91,64.91,0,0,0-11,4.11,99.35,99.35,0,0,1,8.56,9.62,62.37,62.37,0,0,1,6.67,10.3c4.52,7.17,12.55,16.48,21.67,18.48C88.34,272.91,98.62,282.8,108,293.39Z"/><polygon id="polygon31" class="cls-2" points="218.77 257.35 248.88 287.99 243.17 291.74 213.08 261.17 218.77 257.35"/><path id="path33" class="cls-2" d="M15.66,45.35l63.25,67.92q-2.58,2.07-5,4.32L11,50.08c-1.85,1.23-4.07,1.5-5.81-.24h0c-2.22-2.22-1.95-5.37.2-7.66L9.63,37.6c2.14-2.29,5.37-2.9,7.59-.68h0c2.22,2.22,1.47,5.18-.67,7.48Z"/><path id="path35" class="cls-2" d="M166.8,102.88a4.84,4.84,0,0,0,2.43-2.37c.31-.83.42-2.88-.61-3.35a89.22,89.22,0,0,0-18.22-6.07,89.91,89.91,0,0,0-56.61,6.07c-1,.47-.91,2.52-.6,3.35a4.84,4.84,0,0,0,2.43,2.37,83.93,83.93,0,0,1,71.18,0Z"/><path id="path37" d="M118.55,81.61a2.2,2.2,0,0,1-.81,2.75,4.68,4.68,0,0,1-1.87.76l-8.1,1.79a3.93,3.93,0,0,1-2.55-.13,2,2,0,0,1-.72-3.25,3.73,3.73,0,0,1,2.25-1.18l8.19-1.82C116.19,80.26,117.85,80.33,118.55,81.61Z"/><path id="path39" class="cls-4" d="M115,80.81l-8.18,1.8a3.58,3.58,0,0,0-2.09,1.09,1.72,1.72,0,0,0,.63,2.84,3.77,3.77,0,0,0,2.39.13l8.11-1.79a4.41,4.41,0,0,0,1.68-.68,2,2,0,0,0,.83-2.43C117.71,80.55,116.11,80.55,115,80.81Z"/><path id="path41" class="cls-1" d="M73.64,225.85l.21-.2c1.81,1.74,3.66,3.48,5.54,5.26l5.86,5.55-.29.34a36.45,36.45,0,0,0-8.12-5.48c-2.21-1-3.86-1.12-4.64-.36-1.21,1.18.22,4.1,2.58,6.51a16.77,16.77,0,0,0,2.26,2A14,14,0,0,0,80.3,241a29.79,29.79,0,0,0,4.94,1A32.46,32.46,0,0,1,90,243a20.73,20.73,0,0,1,3.87,1.61,42,42,0,0,1,7.53,5.86,47.36,47.36,0,0,1,8.33,10.41c2,3.51,2.91,6.69,2.12,8.66-.51,1.28-1.35,1.88-3.78,1.82-.68.12-1.05.28-1.18.57-.25.57.34,2.15,2.17,4.61l-.24.61c-3.07-3.18-6.07-6.31-9-9.34s-5.62-5.86-8.33-8.67l.3-.5c4.86,4.37,9,7.27,12,8.71s5,1.39,5.62,0c.88-2.1-1.8-6.63-5.16-9.92a18.38,18.38,0,0,0-6.24-4.16,19.12,19.12,0,0,0-4.49-1,31,31,0,0,1-6.77-1.57,24.89,24.89,0,0,1-5.24-2.81,39.17,39.17,0,0,1-5.18-4.5,31.1,31.1,0,0,1-6.15-8.72c-1.07-2.52-1.19-4.56-.07-5.6a2.24,2.24,0,0,1,1.53-.58c1-.11,3.4.48,3.7.18S75.54,228,73.64,225.85Z"/><path id="path43" class="cls-2" d="M131.21,28a3.74,3.74,0,1,0-3.74-3.74A3.75,3.75,0,0,0,131.21,28Z"/><path id="path45" class="cls-4" d="M78.63,68.1a4.23,4.23,0,0,1,2.1-.61,3.8,3.8,0,0,1,2.67,1,3.22,3.22,0,0,1,.37.39,1.33,1.33,0,0,1,.14.19,5.4,5.4,0,0,1,.38.61,14.29,14.29,0,0,0,4.56-1.49,16.1,16.1,0,0,0,4-3,5.42,5.42,0,0,1,.67-8.84,5.19,5.19,0,0,1,1.52-3.38,5.62,5.62,0,0,1,2.51-1.44l.13,0a5.82,5.82,0,0,1-.88-3.06A5.76,5.76,0,0,1,100.69,43a6.45,6.45,0,0,1,3.67-9.16,6.63,6.63,0,0,1-.49-1.66,6.43,6.43,0,0,1-9.76.36,6.21,6.21,0,0,1,.36,2.12A6.43,6.43,0,0,1,88,41.06a6.2,6.2,0,0,1-1.62-.21A6.44,6.44,0,0,1,81.9,46.5a6.53,6.53,0,0,1,.28,1.88,6.44,6.44,0,0,1-2.75,5.28,6.36,6.36,0,0,1,.65,2.83A6.45,6.45,0,0,1,78,61.27a6.39,6.39,0,0,1,1.35,3.95A6.21,6.21,0,0,1,78.63,68.1Z"/><path id="path47" class="cls-4" d="M123.69,52.33a5.22,5.22,0,0,1,.36-9.32,5.21,5.21,0,0,1,2-10,5.26,5.26,0,0,1,.81-2.21,8.2,8.2,0,0,1-1.73-1.54,6.45,6.45,0,0,1-8.46,1.45c0,.15,0,.29,0,.44a6.46,6.46,0,0,1-4.43,6.12,6.44,6.44,0,0,1-4.36,8.86,5.9,5.9,0,0,1,.44,2.22,5.75,5.75,0,0,1-3.82,5.42,5.41,5.41,0,0,1,4.06,3.91,5.41,5.41,0,0,1-.37,3.77,20.25,20.25,0,0,0,9.72,1.23,15.75,15.75,0,0,0,6.75-2.46,5.45,5.45,0,0,1-1-7.93Z"/><path id="path49" class="cls-4" d="M136.38,33.05a5.21,5.21,0,0,1,2,10,5.22,5.22,0,0,1,.36,9.32,5.44,5.44,0,0,1-1,7.93,15.83,15.83,0,0,0,6.76,2.46,20.27,20.27,0,0,0,9.72-1.23,5.42,5.42,0,0,1,3.69-7.68,5.77,5.77,0,0,1-3.38-7.64,6.43,6.43,0,0,1-4.91-6.25,6.33,6.33,0,0,1,.55-2.61,6.46,6.46,0,0,1-4.43-6.12c0-.15,0-.29,0-.44a6.45,6.45,0,0,1-8.46-1.45,8.2,8.2,0,0,1-1.73,1.54A5.26,5.26,0,0,1,136.38,33.05Z"/><path id="path51" class="cls-4" d="M183.78,68.1a4.17,4.17,0,0,0-2.09-.61,3.8,3.8,0,0,0-2.67,1,4.51,4.51,0,0,0-.38.39c0,.06-.09.12-.13.19a4.26,4.26,0,0,0-.38.61,14.29,14.29,0,0,1-4.56-1.49,16.15,16.15,0,0,1-4-3,5.33,5.33,0,0,0,1.8-2.81,5.4,5.4,0,0,0-2.46-6,5.19,5.19,0,0,0-1.52-3.38,5.6,5.6,0,0,0-2.52-1.44l-.12,0a5.81,5.81,0,0,0,.87-3.06A5.75,5.75,0,0,0,161.73,43a6.45,6.45,0,0,0-3.67-9.16,6.22,6.22,0,0,0,.48-1.66,6.44,6.44,0,0,0,9.77.36,6.21,6.21,0,0,0-.36,2.12,6.43,6.43,0,0,0,6.43,6.44,6.2,6.2,0,0,0,1.62-.21,6.43,6.43,0,0,0,4.52,5.65,6.53,6.53,0,0,0-.28,1.88A6.44,6.44,0,0,0,183,53.66a6.36,6.36,0,0,0-.65,2.83,6.45,6.45,0,0,0,2.12,4.78,6.43,6.43,0,0,0-.68,6.83Z"/><path id="path53" class="cls-2" d="M131.21,35.48a1.77,1.77,0,1,0-1.77-1.77A1.78,1.78,0,0,0,131.21,35.48Z"/><path id="path55" class="cls-2" d="M131.21,43.68a1.77,1.77,0,1,0-1.77-1.76A1.77,1.77,0,0,0,131.21,43.68Z"/><path id="path57" class="cls-2" d="M126.21,45.31a2.45,2.45,0,0,1,2.45,2.45s0,.05,0,.08a5.43,5.43,0,0,0-2.3,2.37h-.14a2.45,2.45,0,1,1,0-4.9Z"/><path id="path59" class="cls-2" d="M126.21,35.81l.23,0a5.29,5.29,0,0,0,1.55,2,5.26,5.26,0,0,0-1.86,2.9,2.45,2.45,0,0,1,.08-4.9Z"/><path id="path61" class="cls-2" d="M120.08,29a3.74,3.74,0,1,0-3.74-3.74A3.74,3.74,0,0,0,120.08,29Z"/><path id="path63" class="cls-2" d="M72.88,69a3.74,3.74,0,1,0-3.74-3.74A3.75,3.75,0,0,0,72.88,69Z"/><path id="path65" class="cls-2" d="M73.65,60.22a3.74,3.74,0,1,0-3.74-3.73A3.74,3.74,0,0,0,73.65,60.22Z"/><path id="path67" class="cls-2" d="M75.74,52.12A3.74,3.74,0,1,0,72,48.38,3.75,3.75,0,0,0,75.74,52.12Z"/><path id="path69" class="cls-2" d="M80,44.09a3.74,3.74,0,1,0-3.74-3.74A3.75,3.75,0,0,0,80,44.09Z"/><path id="path71" class="cls-2" d="M88,38.36a3.74,3.74,0,1,0-3.74-3.74A3.75,3.75,0,0,0,88,38.36Z"/><path id="path73" class="cls-2" d="M98.84,31.87a3.74,3.74,0,1,0-3.73-3.74A3.75,3.75,0,0,0,98.84,31.87Z"/><path id="path75" class="cls-2" d="M110.24,34.93a3.74,3.74,0,1,0-3.74-3.74A3.75,3.75,0,0,0,110.24,34.93Z"/><path id="path77" class="cls-2" d="M106.37,43.66a3.74,3.74,0,1,0-3.74-3.74A3.74,3.74,0,0,0,106.37,43.66Z"/><path id="path79" class="cls-2" d="M102.58,51.45a3.06,3.06,0,1,0-3.06-3.06A3.07,3.07,0,0,0,102.58,51.45Z"/><path id="path81" class="cls-2" d="M189.54,69a3.74,3.74,0,1,0-3.74-3.74A3.75,3.75,0,0,0,189.54,69Z"/><path id="path83" class="cls-2" d="M188.77,60.22A3.74,3.74,0,1,0,185,56.49,3.74,3.74,0,0,0,188.77,60.22Z"/><path id="path85" class="cls-2" d="M186.67,52.12a3.74,3.74,0,1,0-3.73-3.74A3.75,3.75,0,0,0,186.67,52.12Z"/><path id="path87" class="cls-2" d="M182.41,44.09a3.74,3.74,0,1,0-3.73-3.74A3.75,3.75,0,0,0,182.41,44.09Z"/><path id="path89" class="cls-2" d="M174.38,38.36a3.74,3.74,0,1,0-3.74-3.74A3.75,3.75,0,0,0,174.38,38.36Z"/><path id="path91" class="cls-2" d="M163.58,31.87a3.74,3.74,0,1,0-3.74-3.74A3.74,3.74,0,0,0,163.58,31.87Z"/><path id="path93" class="cls-2" d="M142.34,29a3.74,3.74,0,1,0-3.74-3.74A3.75,3.75,0,0,0,142.34,29Z"/><path id="path95" class="cls-2" d="M152.18,34.93a3.74,3.74,0,1,0-3.74-3.74A3.74,3.74,0,0,0,152.18,34.93Z"/><path id="path97" class="cls-2" d="M156.05,43.66a3.74,3.74,0,1,0-3.74-3.74A3.75,3.75,0,0,0,156.05,43.66Z"/><path id="path99" class="cls-2" d="M159.84,51.45a3.06,3.06,0,1,0-3.06-3.06A3.07,3.07,0,0,0,159.84,51.45Z"/><path id="path101" class="cls-2" d="M136.21,45.31a2.45,2.45,0,0,0-2.45,2.45v.08a5.4,5.4,0,0,1,2.31,2.37h.14a2.45,2.45,0,0,0,0-4.9Z"/><path id="path103" class="cls-2" d="M136.21,35.81l-.23,0a5.29,5.29,0,0,1-1.55,2,5.19,5.19,0,0,1,1.85,2.9,2.45,2.45,0,0,0-.07-4.9Z"/><path id="path105" class="cls-2" d="M108.57,70.61a103.32,103.32,0,0,0-20.49,6.47c-3.83,1.67-1.54,7.37,1.43,6a96,96,0,0,1,20-6.48,108.41,108.41,0,0,1,43.36,0,96.22,96.22,0,0,1,20,6.48c3,1.35,5.25-4.35,1.43-6a103.32,103.32,0,0,0-20.49-6.47A113.91,113.91,0,0,0,108.57,70.61Z"/><polygon id="polygon107" points="131.21 78.99 138.17 81.77 131.21 84.55 124.25 81.77 131.21 78.99"/><polygon id="polygon109" class="cls-1" points="137.46 81.77 131.21 79.27 124.96 81.77 131.21 84.26 137.46 81.77"/><path id="path111" d="M143.87,81.61a2.2,2.2,0,0,0,.81,2.75,4.68,4.68,0,0,0,1.87.76l8.09,1.79a4,4,0,0,0,2.56-.13,2,2,0,0,0,.72-3.25,3.76,3.76,0,0,0-2.25-1.18l-8.2-1.82C146.23,80.26,144.57,80.33,143.87,81.61Z"/><path id="path113" class="cls-4" d="M147.45,80.81l8.18,1.8a3.58,3.58,0,0,1,2.09,1.09,1.72,1.72,0,0,1-.63,2.84,3.77,3.77,0,0,1-2.39.13l-8.11-1.79a4.41,4.41,0,0,1-1.68-.68,2,2,0,0,1-.83-2.43C144.71,80.55,146.31,80.55,147.45,80.81Z"/><path id="path115" class="cls-1" d="M90.84,273.81l-5.35-5-5.92-5.51.56-.15a70.26,70.26,0,0,0,9.48,6.94c2.34,1.34,4.08,1.89,5.25,1.77,2.39-.24.85-2.94-1.53-5.38a18.57,18.57,0,0,0-4.39-3.46,35.23,35.23,0,0,0-4.57-2L81,259.83c-1.61-.63-3.08-1.26-4.43-1.92a39,39,0,0,1-3.83-2.13,51.74,51.74,0,0,1-7.64-6.08,62.74,62.74,0,0,1-8.54-9.6c-2.33-3.37-3.55-6.39-2.39-7.95.61-.82,2-1,3.28-1s2.49.14,2.58,0c.43-.52-.48-1.76-2.23-3.88l.62-.83q4.8,5.1,9.2,9.74l8,8.51c-.23.15-.46.3-.7.44a78.84,78.84,0,0,0-11.21-8.56c-3.37-2-5.89-2.87-6.76-1.85-1.13,1.33,1.39,5.22,5.09,8.78a28.49,28.49,0,0,0,5.43,4.36,61,61,0,0,0,7,2.89l4.32,1.55a22.38,22.38,0,0,1,5.32,2.49,42,42,0,0,1,9.29,7.56c2.5,2.68,4.46,5.46,5.08,7.56.58,1.95,0,3.3-2.35,3.49a12.15,12.15,0,0,1-4-.72l-.68-.2a3,3,0,0,0-.81-.18c-.48,0-.11.53.75,1.46Z"/><path id="path117" class="cls-5" d="M104,194.85c2.51-1.88,5-3.86,7.55-5.9a140.09,140.09,0,0,1,26.12-16.7l1.64-.78c-9.84-9.35-19.3-20.07-24-32.89a20.71,20.71,0,0,1-1.5-10.51c-8.63,1.51-20.3,4.34-28,10.26C77,145,77.09,154.79,80.75,164.7,85.42,177.37,94.26,186.22,104,194.85Z"/><path id="path119" class="cls-5" d="M53,161.71a80.4,80.4,0,0,0,5.28,50.18,57,57,0,0,0,9.38-.74,75.82,75.82,0,0,0,18.17-5.39,84.68,84.68,0,0,0,15-8.63c-9.76-8.81-17.83-17.47-23-30.35C75,159.62,73.47,152,75.61,145.63A69,69,0,0,0,53,161.71Z"/><path id="path121" class="cls-5" d="M134.85,98.86c-1.21-.06-2.42-.09-3.64-.09a80.1,80.1,0,0,0-76.3,55.76A71.8,71.8,0,0,1,79.14,139.7c8.33-9.84,23.17-13.52,35.44-15.56a36.31,36.31,0,0,1,4.7-9.1,76,76,0,0,1,9-10.63A61.17,61.17,0,0,1,134.85,98.86Z"/><path id="path123" class="cls-5" d="M171.27,109.51a80.35,80.35,0,0,0-9.81-4.82,43.12,43.12,0,0,0-13.11,7.94A78.11,78.11,0,0,0,138.59,123c5.31,3.32,10.46,6.89,15.48,10.65l2.67-3.74a39.82,39.82,0,0,0-5.62-4.2,2.17,2.17,0,1,1,2.63-3.46,24.7,24.7,0,0,0,5.35,4.34l3.55-5a24.87,24.87,0,0,0-4.14-2.83,1.85,1.85,0,0,1,2.1-3,24.58,24.58,0,0,0,4,3.12l2.77-3.88a8.37,8.37,0,0,0-2.52-1.5,1.84,1.84,0,0,1,2.07-3,11.34,11.34,0,0,0,2.31,1.94Z"/><path id="path125" class="cls-5" d="M183.6,118.3a81.74,81.74,0,0,0-9.08-6.81l-2.33,3.27a19.1,19.1,0,0,0,2.65,2,1.84,1.84,0,1,1-2.54,2.67,9.47,9.47,0,0,0-2-2.08l-2.73,3.83a31.72,31.72,0,0,0,3.46,2.7,1.85,1.85,0,0,1-2.44,2.78,14.6,14.6,0,0,0-2.95-2.77l-3.64,5.1a54.64,54.64,0,0,0,5.31,4.3,2.65,2.65,0,0,1,.12,3.31,2.34,2.34,0,0,1-3.08-.11,28.29,28.29,0,0,0-4.65-4.27l-2.66,3.73c4.59,3.55,9.12,7.28,13.59,11.13A51.08,51.08,0,0,0,179,135.31,47.1,47.1,0,0,0,183.6,118.3Z"/><path id="path127" class="cls-5" d="M196.8,132.93a80.16,80.16,0,0,0-9.75-11.45A49.11,49.11,0,0,1,182.42,137c-2.9,5.82-7,10.64-11.47,15.32-6-5.2-12-10.28-18.38-15.06A234.16,234.16,0,0,0,133,124a96.13,96.13,0,0,1,12.9-14.22,49,49,0,0,1,10.42-7,79.1,79.1,0,0,0-15.38-3.43,57.5,57.5,0,0,0-10,7.77,73.06,73.06,0,0,0-8.55,10.11,25.1,25.1,0,0,0-4.72,10.39,18.55,18.55,0,0,0,1.15,9.64c4.71,12.75,14.43,23.35,24.24,32.54a84.79,84.79,0,0,1,31.18-6.67,84.11,84.11,0,0,0,12.47-12.91A78.83,78.83,0,0,0,196.8,132.93Z"/><path id="path129" class="cls-5" d="M211.27,178.83a79.63,79.63,0,0,0-12-42.14,82.39,82.39,0,0,1-9.57,15.86,86.57,86.57,0,0,1-11.53,12.19,118.07,118.07,0,0,0,31.5,27l.51.31A80.77,80.77,0,0,0,211.27,178.83Z"/><path id="path131" class="cls-1" d="M170.43,94.24l-5.29-6.54,8.1-1,3.63,6.11-6.44,1.43ZM92,94.24l5.29-6.54-8.1-1-3.63,6.11Z"/><path id="path133" class="cls-2" d="M128.15,51.72c-.24.94-.44,1-1.35,1.19A3.16,3.16,0,0,0,124.43,56c0,2.2,2.88,3.82,4.9,3.19-6.28,7-17.15,7.18-25.09,3a3.15,3.15,0,0,0-.93-6.17c-.94,0-1.14,0-1.61-.8a3.17,3.17,0,0,0-5.91,1.56c0,1-.19,1-1,1.49a3.15,3.15,0,0,0,1.87,5.89,19.41,19.41,0,0,1-1.61,2A14.54,14.54,0,0,1,83.91,72c-2.28.24-1-.54-1.91-1.73a1.75,1.75,0,0,0-2.51,0c-1.13,1.22-2,1.5-4.12,1a1.58,1.58,0,0,0-.74,3.08c8.39,2,17.08,1.22,22.75-6.11a22,22,0,0,0,3.25-4.68c9,5.59,22.45,5.9,30.58-1.78h0c8.13,7.68,21.59,7.37,30.58,1.78A22,22,0,0,0,165,68.26c5.67,7.33,14.36,8.15,22.75,6.11a1.58,1.58,0,0,0-.74-3.08c-2.07.51-3,.23-4.12-1a1.75,1.75,0,0,0-2.51,0c-.95,1.19.37,2-1.91,1.73a14.54,14.54,0,0,1-11.13-5.86,19.41,19.41,0,0,1-1.61-2,3.15,3.15,0,0,0,1.87-5.89c-.82-.46-1-.53-1-1.49a3.17,3.17,0,0,0-5.91-1.56c-.47.84-.67.81-1.61.8a3.15,3.15,0,0,0-.93,6.17c-7.94,4.21-18.81,4-25.09-3,2,.63,4.9-1,4.9-3.19a3.16,3.16,0,0,0-2.37-3.05c-.91-.24-1.11-.25-1.35-1.19A3.18,3.18,0,0,0,128.15,51.72Z"/><path id="path135" d="M131.12,57.14a1.7,1.7,0,1,0-1.69-1.7A1.7,1.7,0,0,0,131.12,57.14Z"/><circle id="circle137" cx="99.69" cy="59.53" r="1.69"/><circle id="circle139" cx="162.73" cy="59.53" r="1.69"/></g></g></svg>