<svg xmlns="http://www.w3.org/2000/svg" viewBox="0 0 300 242.16"><defs><style>.cls-1{fill:#fff;}.cls-2{fill:#0f2d5b;}.cls-3{fill:#e41349;}.cls-4{fill:#fdd205;}.cls-5{fill:#d3d3d3;}.cls-6{fill:#091d3c;}</style></defs><title>Salzburg</title><g id="Слой_2" data-name="Слой 2"><g id="Слой_1-2" data-name="Слой 1"><g id="layer1"><path id="path4004" class="cls-1" d="M43.3,0V162.27c0,12.83,1.65,17.76,5.59,24.62l.22.39.25.37a121.93,121.93,0,0,0,203.19,0l.25-.37.22-.39c3.94-6.85,5.59-11.79,5.59-24.62V0Z"/><path id="path4008" class="cls-2" d="M45.81,2.52V162.26c0,12.81,1.73,17.15,5.3,23.37l.16.32.16.32a119.49,119.49,0,0,0,199,0l.25-.32.16-.32c3.57-6.21,5.22-10.55,5.22-23.37V2.52ZM49,5.73H252.85V162.26c0,12.1-1.46,15.93-4.81,21.76l-.17.25-.08.16a116.18,116.18,0,0,1-193.63,0l-.16-.16-.16-.25c-3.35-5.83-4.82-9.67-4.82-21.76V5.73ZM50.47,7.1V162.26c0,11.76,1.35,15.43,4.58,21l.16.24.08.16a114.8,114.8,0,0,0,191.3,0l.16-.16.08-.24c3.23-5.61,4.66-9.28,4.66-21V7.1ZM56.25,13H245.63v149.3c0,11.06-1.28,13.66-3.86,18.15a109,109,0,0,1-181.66,0c-2.59-4.49-3.86-7.09-3.86-18.15V13Z"/><path id="path4024" class="cls-3" d="M139,19.14V38.58a11.12,11.12,0,0,0-7.87-3.29c-6.48,0-11.72,5.76-11.72,12.85s5.24,12.77,11.72,12.77a11.15,11.15,0,0,0,8-3.38v3.14h7.79V19.14Zm79.43.25V60.75h7.79V19.39Zm13.25,0V60.75h7.79V19.39Zm-169.86,2V60.67h8.35V28.14h5a5.2,5.2,0,0,1,5.38,5.14A5.34,5.34,0,0,1,75,38.42H73v9.4l8.35,12.85h9.8L79.62,44.28a11.58,11.58,0,0,0-2.81-22.89c-.2,0-1.09,0-1.28,0Zm95.73.24v39h17.35c6.64-.11,12-5.1,12-11.25,0-4.47-1.54-7.66-6.83-10.12a10.12,10.12,0,0,0,.56-14.69c-1.87-2.06-5.16-3-9.63-3Zm8.36,6.75h5.3a4.18,4.18,0,0,1,0,8.35h-2.73v7h5a5.06,5.06,0,0,1,0,10.12h-7.55ZM103,35.29a13.13,13.13,0,0,0,0,26.26c5.47,0,9.77-2.47,12-6.35l-6.43-3a5.41,5.41,0,0,1-4.9,3.06,5.11,5.11,0,0,1-5.3-4.9c0-.18-.1-.16-.08-.33H115.6a12,12,0,0,0,.08-1.6C115.8,40,110.15,35.29,103,35.29Zm86.58,1.36V52.31c0,5.3,5.52,9.56,12.29,9.56s12.2-4.26,12.2-9.56V36.65h-7.71V50.79a4.5,4.5,0,0,1-9,0V36.65Zm-86.5,4.1a4.84,4.84,0,0,1,4.82,4.82H98.25A4.84,4.84,0,0,1,103.07,40.75ZM133.35,42c3.18,0,5.7,2.87,5.7,6.35a6,6,0,0,1-5.7,6.26,6,6,0,0,1-5.78-6.26C127.57,44.9,130.17,42,133.35,42Z"/><path id="path4048" class="cls-4" d="M206.9,114.84a56.25,56.25,0,1,1-56.25-56.25,56.25,56.25,0,0,1,56.25,56.25"/><path id="path4052" class="cls-1" d="M199.57,133.09c-.56-1.09-2.53-3.49-2.27-5,1.45.18,3.64.2,4.45.25-.26.46-1.9,4.22-2.18,4.78m100.3,16.71c-.11-.43-.28-.9-.41-1.27l-.13-.35c-.11-.27-.21-.54-.31-.84a2.54,2.54,0,0,1-.11-.38,1,1,0,0,1,0-.24,5.24,5.24,0,0,0-.88-3.52,2.16,2.16,0,0,0-1.62-1.19.83.83,0,0,1-.79.53h-.14a.87.87,0,0,1-.71-1c0-.11,0-.23,0-.35a2.28,2.28,0,0,0-.29-1.21c-.54-1-4.4-4.18-5.87-4.18a4.51,4.51,0,0,0-3.35,1.75.81.81,0,0,1-.65.3h-.08a.82.82,0,0,1-.66-.44,6,6,0,0,1-.35-.77,15.07,15.07,0,0,1-.56-2.09l-.12-.53c-.41-1.79-1-3.6-3.4-4.29a4.11,4.11,0,0,0-.75-.13l-.83,0h-.22a12.21,12.21,0,0,1-1.47-.09c-1-.14-1.63-.46-1.63-1.56a.86.86,0,0,1,0-.28l.26-.76a18.92,18.92,0,0,0,.7-2.41,11.71,11.71,0,0,0,.09-5.12.85.85,0,0,1,.21-.76.84.84,0,0,1,.62-.28h.13a13.77,13.77,0,0,0,2,.16c5.1,0,13.19-3.32,13.19-12.26,0-5.13-4.16-10-7.65-13.21a.84.84,0,0,1,.36-1.44c5-1.3,7.69-4.6,7.69-9.29V82a13.47,13.47,0,0,0-.14-2.46,9,9,0,0,0-1.4-3.52.52.52,0,0,0-.48-.25.72.72,0,0,0-.21,0,2.17,2.17,0,0,0-.55.27,20.81,20.81,0,0,0-1.66,1.34,6.7,6.7,0,0,1-2.36,1.24c-.62.21-1.26.38-1.95.56l-1.11.3a18.47,18.47,0,0,0-7.82,4.15,7.32,7.32,0,0,0-2.31,4.9A7.57,7.57,0,0,0,274,93.38a32.94,32.94,0,0,0,4,4.35l.54.51c.55.52,1.09,1,1.61,1.56a27.2,27.2,0,0,1,1.86,2,6.29,6.29,0,0,1,1.75,3.8c0,2.4-1.72,4-4.32,4-2.87,0-5.09-1.12-8.16-3.15l-1.45-1c-1-.69-2.07-1.4-3.25-2.14a49.33,49.33,0,0,0-6.19-3.32,23,23,0,0,0-3.45-1.22c-.89-.24-1.74-.41-2.56-.58l-.39-.08a13.73,13.73,0,0,1-5.13-1.89l-1.48-1c-.87-.59-1.78-1.21-2.7-1.78a18.7,18.7,0,0,0-4.51-2.2,9.4,9.4,0,0,0-1.36-.29l-.69-.1-.54-.07a6,6,0,0,1-2.31-.72,16.92,16.92,0,0,1-1.44-1l-1.06-.82-.24-.19a23,23,0,0,0-3.41-2.27,26.63,26.63,0,0,0-6.6-2.35l-.39-.09c-.76-.19-1.43-.35-2-.53a4.84,4.84,0,0,1-.77-.31l-.27-.17a1.17,1.17,0,0,1-.16-.15c-4.93-6.2-10.83-6.68-12.53-6.68a9.43,9.43,0,0,0-1.09.06c-2,.21-4.34,2-6.38,3.62-.75.61-1.5,1.26-2.27,1.91-1.55,1.33-3.16,2.7-4.74,3.82-8.15,5.81-11.11,8.13-15,12.35-5.22,5.71-6.86,13-8.31,19.35l-.11.46a76.76,76.76,0,0,1-2.49,9.25,22.49,22.49,0,0,1-4.83,8.19,29.42,29.42,0,0,1-2.54,2.43c-.48.4-.85.65-1.15.86l-.22.15a2,2,0,0,0-.95,2.2c.32,1,1.63,2.08,3.84,2.12a.81.81,0,0,1,.65.32.85.85,0,0,1,.16.72,1.15,1.15,0,0,0,.22,1,4.39,4.39,0,0,0,2.86,1.24h.35a13.35,13.35,0,0,0,10-4.26.87.87,0,0,1,.61-.26.89.89,0,0,1,.58.22,6.17,6.17,0,0,0,4.25,1.54H180a23.17,23.17,0,0,0,2.42-.17c.38-.05.75-.09,1.1-.11l.56,0,.35,0a8.1,8.1,0,0,1,1.87.46c.56.19,1.16.42,1.77.65l.54.21a14,14,0,0,0,4.37,1.14h.22a5,5,0,0,0,4.64-3.83.85.85,0,0,1,.81-.6h0a.84.84,0,0,1,.79.66c.08.32.17.64.26.94a7,7,0,0,0,2.06,3.53,2.33,2.33,0,0,0,1.19.49,12.86,12.86,0,0,0,2.07.12.88.88,0,0,1,.51.18,6.2,6.2,0,0,1,.46.43c.2.19.4.4.6.57a2.41,2.41,0,0,0,.75.46c4.32,1.47,9.93,3.05,12.74,3.1h.1c3.84,0,5.15-3.68,5.53-5.27a.87.87,0,0,1,.66-.63c3.58-.7,5.54-6.08,5.53-7,0-1.73-.69-2.42-2.4-2.55h-6.23a1.52,1.52,0,0,0-.42.06l-.23,0a.85.85,0,0,1-.72-.39,1.29,1.29,0,0,0-.89-.62.85.85,0,0,1-.35-1.48c.13-.1.25-.21.37-.32a.85.85,0,0,1,.58-.23h0c.85,0,2.5.1,4.07.1.7,0,1.38,0,2-.05,1.26-.06,2.31-.19,3.42-.32a52.71,52.71,0,0,1,6.22-.41l5.84.33a11,11,0,0,0,3.38-.49,1.15,1.15,0,0,1,.26,0,.84.84,0,0,1,.46.13.82.82,0,0,1,.38.6,16.15,16.15,0,0,0,2.81,7.54,6.11,6.11,0,0,0,1.49,1.4c.34.23.69.44,1,.65l.62.38a10.89,10.89,0,0,0,5.84,2.15,7.94,7.94,0,0,0,2-.25,8.43,8.43,0,0,1,2.19-.27,9.73,9.73,0,0,1,1.1.06,16.22,16.22,0,0,1,2.48.49l.17,0a12,12,0,0,1,3.22,1.34,24.1,24.1,0,0,1,2.29,1.61l.19.14c1.4,1.07,2.85,2.16,4.87,2.16h.25a1.31,1.31,0,0,0,.35-.06l.39-.13.93-.36a6.68,6.68,0,0,1,1.09-.34l.16,0a.85.85,0,0,1,.7.37c.11.16.21.33.33.51a11,11,0,0,0,.67,1c.78,1,2.2,2.35,5.52,2.43h.87a20.6,20.6,0,0,0,3.27-.21h.14a.83.83,0,0,1,.48.15,2,2,0,0,0,1.15.37,10.64,10.64,0,0,0,3.29-.67,6.36,6.36,0,0,0,1.55-.8A2,2,0,0,0,300,151a3.29,3.29,0,0,0-.11-1.23M104.73,129.64c-.58.71-1.44.93-2.23,2.32-1.58-.61-1.86-2.7-2.15-3.6,1.27-.23,4.26-.8,5.82-1a7.55,7.55,0,0,0-1.44,2.32m37.62,6.57a8.79,8.79,0,0,1-3.19-3.41c-.28-.48-.54-1-.8-1.45l-.29-.56a14.53,14.53,0,0,0-1.16-1.86c-.18-.22-.39-.45-.61-.69l-.64-.67c-.2-.21-.39-.41-.55-.61a2.38,2.38,0,0,1-.31-.51c-2.81-7.19-3.48-11.27-4.49-18.43-.52-3.69-2.77-6.67-6.43-11.15-.46-.55-1-1.21-1.5-1.91-.38-.48-.76-1-1.16-1.48a36.27,36.27,0,0,0-3-3.39l-3.52-3c-1.48-1.26-2.75-2.33-3.91-3.29A71.72,71.72,0,0,0,105,79.43a15.25,15.25,0,0,0-8.63-2.76,11.9,11.9,0,0,0-6.11,1.51A35.4,35.4,0,0,1,83.53,82c-1.59.66-3.25,1.2-5.34,1.89L76,84.55a14.38,14.38,0,0,0-5.26,3.29l-.83.8c-.3.29-.57.56-.84.8a4.07,4.07,0,0,1-1.26.88,7.37,7.37,0,0,1-1.78.28l-1.33.07-.94,0a11.37,11.37,0,0,0-6.34,2.84c-.74.59-1.42,1.22-2.08,1.82l-.31.29a17.45,17.45,0,0,1-2,1.63,11.86,11.86,0,0,1-5.78,1.63,31.07,31.07,0,0,0-3.25.44,17.9,17.9,0,0,0-3.94,1.32,31.54,31.54,0,0,0-4.74,2.83c-.79.54-1.57,1.11-2.33,1.67l-2,1.45c-3,2.12-5.61,3.53-8.41,3.53s-4.75-1.62-5-4.14c-.23-2.21.9-4.45,3.19-6.3l1.26-1c.94-.76,1.82-1.46,2.62-2.15a19.7,19.7,0,0,0,2.94-3A8.22,8.22,0,0,0,29,86c-.66-2.66-2.71-4.48-6.26-5.54A30.6,30.6,0,0,0,19,79.67l-.42-.07-1-.16a4,4,0,0,1-.82-.21A69.55,69.55,0,0,1,9.79,75l-.34-.23-.24.34c-.76,1.1-1.36,2-1.82,5.78-.5,4.21,3,9.35,8.93,10.29a.84.84,0,0,1,.69.62.86.86,0,0,1-.29.89c-6.32,5-7.67,7.09-8,12.68A12.57,12.57,0,0,0,12,114.69c2.54,2.69,6.21,4.11,10.63,4.11a23.91,23.91,0,0,0,3.69-.3h.13a.86.86,0,0,1,.85.79c.29,3.88,1,7,1.87,8.45a.84.84,0,0,1-.14,1.07,4,4,0,0,1-1.24.7,16,16,0,0,1-5.43.85c-1.28,0-2.22.88-3,2.75-.25.61-.45,1.26-.65,1.89l-.06.18c-.1.32-.19.61-.29.87a6.13,6.13,0,0,1-.27.65A5.36,5.36,0,0,1,17,138.05a.83.83,0,0,1-.56.21h-.14a.83.83,0,0,1-.6-.42,4.22,4.22,0,0,0-2.92-2.13h-.16a7.91,7.91,0,0,0-6.53,4.71.85.85,0,0,1-.69.53l-.15,0a3.37,3.37,0,0,0-3.07,2.25A10.56,10.56,0,0,0,1.69,145l-.08.42c-.09.47-.18.95-.3,1.42a4.25,4.25,0,0,1-.44,1.07c-.09.18-.19.35-.29.51l-.2.34a3,3,0,0,0-.24,2.38,2.15,2.15,0,0,0,1.18,1.3,8,8,0,0,0,1.88.67,16.38,16.38,0,0,0,2.93.44,1.12,1.12,0,0,0,.55-.16,2.94,2.94,0,0,0,.4-.28,1,1,0,0,1,.56-.18h.13l.63.12,1.8.36.1,0,1.71.34.67.11a3.15,3.15,0,0,0,.45,0h0a5.34,5.34,0,0,0,4.54-2.15c.21-.28.4-.58.59-.89l.3-.52.23-.38a11.63,11.63,0,0,1,.67-1,.86.86,0,0,1,.69-.35l.21,0c.31.08.62.14.88.19.62.1,1.18.15,1.43.17l.51,0c2.52,0,4.41-1.41,6-2.73l.51-.43c.24-.21.47-.42.71-.61a14.2,14.2,0,0,1,1.15-.88,3.63,3.63,0,0,1,2-.73h.15c.61,0,2.89.21,6.76.82a4.21,4.21,0,0,0,.51,0,8.55,8.55,0,0,0,3.3-.89,26.44,26.44,0,0,0,3.15-1.71,6.81,6.81,0,0,1,.86-.44l.1-.05c.32-.14.66-.29,1-.47a6.71,6.71,0,0,0,2.32-1.81,19.33,19.33,0,0,0,1.62-2.89l.63-1.29c.35-.72.71-1.48,1.09-2.23a.85.85,0,0,1,.76-.46H56a29.2,29.2,0,0,0,3.89-.37l1.61-.25c1.15-.17,2.14-.33,2.88-.36.18,0,.67,0,1.35.08l1.53.1c1.93.12,3.5.17,4.81.17q1.19,0,2-.06a12.79,12.79,0,0,0,2.75-.46,4.78,4.78,0,0,0,.68-.25,1,1,0,0,1,.34-.07.85.85,0,0,1,.59.25c.42.41.87.82,1.32,1.22a.84.84,0,0,1-.49,1.48l-.5.06a3.11,3.11,0,0,0-2,.92.84.84,0,0,1-.67.33.77.77,0,0,1-.34-.07,2.53,2.53,0,0,0-.36-.12,2.4,2.4,0,0,0-.72-.09H73.66a26.66,26.66,0,0,0-4.13.26,6.58,6.58,0,0,0-2.25.69,1.82,1.82,0,0,0-1.06,1.67c.09,1.6,2.34,5.91,3.87,7.45a4.21,4.21,0,0,0,2.42.61h.42a.85.85,0,0,1,.75.46c1.57,3.09,4.28,5.16,6.75,5.16h.16c2.36-.09,8.73-2.39,13.2-4.49l.18-.06.48-.08.88-.11.45,0a10,10,0,0,0,2.92-.68c.75-.35,1.85-1.76,2.79-3.58a.84.84,0,0,1,.75-.46h.08a.83.83,0,0,1,.73.59,4.89,4.89,0,0,0,.4,1,4.19,4.19,0,0,0,4,2.17h.32a16.19,16.19,0,0,0,4-.9l.72-.24a22.38,22.38,0,0,1,3-.87,5.86,5.86,0,0,1,1.17-.09h.64l1.22.09.82.06c.39,0,.8.05,1.22.05a6.52,6.52,0,0,0,2.9-.57,13.22,13.22,0,0,0,2.73-1.59l.22-.17a.9.9,0,0,1,.5-.16.81.81,0,0,1,.56.22,15.91,15.91,0,0,0,10.56,4h.54a3.48,3.48,0,0,0,2.79-1.17,1.88,1.88,0,0,0,.32-1.62.86.86,0,0,1,.11-.68.84.84,0,0,1,.56-.37,4.33,4.33,0,0,0,2.09-.92,2.3,2.3,0,0,0,.78-1.55,1.19,1.19,0,0,0-.4-.9,11.4,11.4,0,0,0-2.59-1.67"/><path id="path4056" class="cls-1" d="M122.32,81.12A28.18,28.18,0,1,1,150.5,109.3a28.18,28.18,0,0,1-28.18-28.18"/><path id="path4060" class="cls-5" d="M129.32,96.32a27.76,27.76,0,0,0,43.74-24.87,30.61,30.61,0,0,0-.87-4.79,26.07,26.07,0,0,1-42.87,29.66"/><path id="path4064" class="cls-6" d="M150.5,55a26,26,0,0,0-8.27,1.37l5,4a61.25,61.25,0,0,1,11.49.17,12.3,12.3,0,0,0,1.52-3.62A26,26,0,0,0,150.5,55Zm-17.74,7a26,26,0,0,0-7.39,12.29c.57-.85,1.85-2.75,3.37-4.66A70.59,70.59,0,0,1,132.76,62Zm9.47,6.35s-7.16,3.2-9.8,4.57a68.28,68.28,0,0,0,.16,11.73,104.06,104.06,0,0,0,10.2,3s4.53-7.23,6.11-10.28A84.08,84.08,0,0,0,142.23,68.35Zm22.89.24a65.44,65.44,0,0,0-5,8.59c2.28,4.77,5.38,10,5.38,10a33.48,33.48,0,0,0,7.71-2.89c.61-8.33-.32-11.17-.32-11.17A48.74,48.74,0,0,0,165.12,68.59ZM125.05,86.9a25.9,25.9,0,0,0,8.75,14.21,6.76,6.76,0,0,0,1-.88,92.64,92.64,0,0,1-5.7-9.16S126.44,88.34,125.05,86.9Zm34.53,9.47-11.32.33-4.34,6.18a22.65,22.65,0,0,0,8.43,3.53,40.79,40.79,0,0,0,9.4-3.85Zm46.58,57.83a6,6,0,0,0-3,10.6l21.2,16.62a5.92,5.92,0,1,0,7.31-9.31l-12.13-9.56L216.12,167l3,2.49,1-1.37,10.37,8.11-2.41,3.14-23.78-18.72,2.41-3.13,4.74,3.78,2.41-3.14-3.37-2.73A6.06,6.06,0,0,0,206.16,154.2Zm-110.75.16a5.13,5.13,0,0,0-2.81.72l-10.2,7.71-.88,1.05c-2,3,1.2,5.41,2.65,7.79-3.55,2.72-7,5.54-10.52,8.11l-2.33-3.21c1.57-1.27,3.13-2.43,4.65-3.7a38.28,38.28,0,0,0-2.4-3.21c-1.17,1-2.37,1.81-3.54,2.73a6.48,6.48,0,0,0-2.17,5.94,6.09,6.09,0,0,0,3.62,4.5,6.2,6.2,0,0,0,5.06-.24L87.78,174l.16-1c1.06-2.92-1.64-4.8-2.89-7.07l10.44-8L97.9,161c-1.57,1.31-3.26,2.41-4.74,3.77L95.57,168l4.18-3.37a6.36,6.36,0,0,0,1.12-6.83,6.8,6.8,0,0,0-2.57-2.73A6.24,6.24,0,0,0,95.41,154.36Zm99.35,13.25a3.81,3.81,0,0,0-2.17.72L186.16,173l22.33,30.92,3.21-2.33-10-13.89,3.22-2.25L213.23,197a6.45,6.45,0,0,0,2.41,1.77l3.29-2.33a5.78,5.78,0,0,1-2.49-1.76l-7.39-10.28c-1.37-1.91-2.53-2.11-3.53-1.85a3.08,3.08,0,0,0-.32-3.54l-7.07-9.79A4,4,0,0,0,194.76,167.61Zm-87.38.8a5.93,5.93,0,0,0-3.94,2.25L83.28,196.2l3.14,2.49L96.94,185.2l3.13,2.49L89.47,201.1l3.13,2.49L112.76,178a6,6,0,0,0-5.38-9.56Zm87.54,3.14,7.63,10.68-3.14,2.33-7.71-10.69Zm-87.38.24,3.13,2.49-8.19,10.28-3-2.41Zm14,4.25L105,210.42l10.68,5.14,5.22-10.68-3.61-1.77-3.46,7.15-3.53-1.69,14.86-30.84Zm59.59.16-3.61,1.45,12.69,31.8-3.7,1.45-12.69-31.72-3.69,1.44,12.13,30.2a5.93,5.93,0,1,0,11-4.42Zm-47.06,5.3L132,193.23l3.94.64,1.36-7.71,3.78.65-13,28.35-.73,3.93,11.73,2.09,2.09-11.65-3.94-.72-1.36,7.79-3.78-.72,13-28.35.73-3.94ZM161,182.87l-7.88.88,4.58,37.91,7.79-.88a4,4,0,0,0,3.46-4.42l-1.37-11.57c-.28-2.33-1.17-3-2.17-3.29a3,3,0,0,0,1.45-3.21l-1.45-12A4,4,0,0,0,161,182.87Zm.48,3.94,1.52,13-3.93.48-1.53-13Zm2,16.94,1.61,13.09-3.93.48-1.61-13.09Z"/><path id="path4072" class="cls-3" d="M10.39,77.85a5.73,5.73,0,0,0-.88,3.7,9,9,0,0,0,5.7,7c1.72.74,3.7.17,5.46.57a1.73,1.73,0,0,1,1,1.28,1.83,1.83,0,0,1-.57,1.29,57.16,57.16,0,0,0-7.95,7.38c-2.45,2.66-2.8,7.35-1.52,10.69,1.42,3.83,5.4,6.33,9.23,6.82,2.8.45,5.32-.34,7.87-.88.35,0,.5.37.65.56.24,2.26-.1,4.28.4,6.35a39.54,39.54,0,0,0,1.77,5.14,2.09,2.09,0,0,1-.49,1.76,20.29,20.29,0,0,1-4.41,2.57l-3.86.24-.72.33c-1.43,1.67-1.45,3.35-2.33,5.22-1.18,2-3.4,3-5.22,4.09a12.11,12.11,0,0,1-2,2.65,3.86,3.86,0,0,1-2.33.8C8.91,146.92,8.65,149,8.3,151.1c2.17.19,4.4,1.34,6.51.16,1.82-.84,2.24-3,3.61-4.34,1.09-1.18,2.74-.33,4-.08,1.91.1,3.27-1.29,4.9-1.93,1.12-.73,2-2,3.21-2.73,2.26-1.08,5.43-.44,7.79,0a8.27,8.27,0,0,0,5.46-.56c1.53-.93,2.94-2.1,4.66-2.49,1.52-.79,2.26-2.51,2.89-3.93s1.79-2.42,1.69-3.94c-.4-.34-.86-1.09-1.45-1-.74,1-1.25,2.14-2.09,3.13-3.55,4.85-6.36,5.3-13.57,5.3-5.36-.2-10.21,1.44-13.89,5.62a.71.71,0,0,1-.81-.16,3.64,3.64,0,0,1,.65-2c3.29-4.67,8.41-5.76,13.81-5.86A21.08,21.08,0,0,0,44,134.31a12.44,12.44,0,0,0,5.87-6.42c.64-3.1.9-6.45,1.68-9.4.1-.29.8-.5,1.05-.4s.88.3.88.64c-.54,3-1.5,6.69-.32,9.64,2.36,3.1,6.76,1.43,10,1.28a57.93,57.93,0,0,1,9.15.16c1.57,0,2.79.26,4-.72a2.74,2.74,0,0,0,.32-1.85c-.1-.88-.84-1.43,0-2.16a1.19,1.19,0,0,1,1.2.24,13.65,13.65,0,0,0,1.45,3.61,18.59,18.59,0,0,0,6,4.74c2.07,1.43,3.79,3.44,3.94,5.94,0,1.28-1.19,2.15-2.17,2.73a10.08,10.08,0,0,1-5.46,1.37c-2.61-1.28-3.26-4.09-5-6.11a4.11,4.11,0,0,0-3.53-1,19.32,19.32,0,0,0-4.18.64,1.22,1.22,0,0,0-.4,1.13c.88,1.62,1.91,3.2,2.89,4.82,1.13.69,2.71-.35,3.69.88s1.38,2.79,2.65,3.77a4.64,4.64,0,0,0,4.74.89,58.82,58.82,0,0,0,10.6-4.1h1.13c1.37-.15,3-.09,3.93-1.12a36.9,36.9,0,0,0,2.81-4.74c.84-1.13.43-2.79.08-4A23.15,23.15,0,0,1,97.45,128a7.38,7.38,0,0,0-2.49-.73c-.44.2-1,.07-1.28.57l3.85,7.71a3.82,3.82,0,0,1,.4,2.16,10.07,10.07,0,0,1-2.73,4.42c-.24.15-.52.27-.72-.08.44-1.67,1.22-3.46,1.12-5.38l-3.77-6.83c-.44-.93-1.25-1.81-1.21-2.89,0-.49.49-.76.89-1,1.67-.54,3.7-.44,5-1.77,1.67-2.6,2-5.18,2.41-8.27a1.22,1.22,0,0,1,.8-.56c.29-.1.66.33.8.48a12.73,12.73,0,0,1-2.17,9.48c-.1.34-.23.8.16,1a7.14,7.14,0,0,0,5.39-.88,29.71,29.71,0,0,0,5.7-.73c.19.1.4.29.4.49a9.3,9.3,0,0,0-2.25,4.65c-1.47,1.53-3.62,2.85-3.77,5.06.24,1.09,1.2.07,1.84.16a.55.55,0,0,1,.48.57l-1.44,2.17c-.79,1.27.08,2.78.08,4a2.66,2.66,0,0,0,2.57,1.45,21.56,21.56,0,0,0,6.18-1.61,13.41,13.41,0,0,1,7.23-.48c2.31-.15,4-1.69,5.7-3.21a3.53,3.53,0,0,1,2.41,1.36,12.58,12.58,0,0,0,10,3.94l.4-.16a.6.6,0,0,0-.16-.89l-2.33-1.2c-1.62-1-3.64-2.44-4.17-4.26a21.85,21.85,0,0,0-2.33-4.9c-.35-.78-1.18-1.46-1.53-2.25.1-.1.26-.21.4-.16,2.56.89,4.05,3.37,5.22,5.62,1.87,2.61,4.58,4.85,8.12,4.26l.32-.24a.59.59,0,0,0,0-.64l-1.77-.89c-2.95-1.72-4.12-4.9-5.94-7.46-.64-.94-1.82-1.56-2.41-2.49a67.28,67.28,0,0,1-4.42-18.07,19,19,0,0,0-1.69-4.82c-2.65-4.33-6.13-8.23-9.47-12.21-.29-.29-.25-.35-.89-1l-11.64-9.72A24,24,0,0,0,100,79.38a12,12,0,0,0-8.27.32C89.24,81,87,82.91,84.36,83.8c-3.83,1.72-8.19,2.11-11.48,5.06-1.92,1.67-3.5,4.21-6.35,3.77a12.33,12.33,0,0,0-8.43,3.05c-2.16,2-4.27,4.28-7.07,4.82-2.46,1-5.44.51-8,1.45-4,1-7.14,4.1-10.52,6.5-3.39,2-6.62,4.12-10.84,4a7.27,7.27,0,0,1-6.27-4.74,8,8,0,0,1,2.49-8.27c2.51-3,6.47-4.75,8.43-8.2a6.3,6.3,0,0,0-.48-6.5c-2.6-2.7-6.33-2.78-9.71-3.61C14,80.55,12.31,78.88,10.39,77.85ZM205.63,78c-1.47.1-2.56,1.11-3.69,2.09-7.52,6.59-16.09,11.12-23,18.63-4.62,4.77-5.91,10.78-7.63,16.63-2.46,8.84-3.48,18.56-12.37,24a.67.67,0,0,0,.16.88,6.53,6.53,0,0,0,6.26-1.92,46.09,46.09,0,0,1,5.22-6.91l.49-.24c.24,0,.49.14.4.48-.59,2-2.31,3.42-2.89,5.38-.79,2.36-3.06,4.19-5,5.87l-.08.24a.64.64,0,0,0,.48.56c4.32.19,7.46-2.88,10.36-5.78a1,1,0,0,1,1-.16c1.28,1,2.51,2.46,4.18,2.81a25.3,25.3,0,0,1,5.46-.33c2.6.79,5.11,1.85,7.71,2.74,1.33-.05,2.28-1.33,3-2.41.54-1.28-.17-2.55-.08-3.78.64-.39,1.33.12,2-.08a1.15,1.15,0,0,0,.56-.88c-.49-2.26-2.49-4-3.13-6.11-1-2.7-4.15-4.33-4.74-7.22.15-.2.4-.44.64-.25,2.11,1.53,3.91,3.55,6.51,3.94a34.66,34.66,0,0,0,6,.24.67.67,0,0,0,.4-.8,31,31,0,0,1-2.08-5.46c-.69-2.41-1.19-5.78-.41-8.44.15-.2.75-.57,1.05-.48a1.56,1.56,0,0,1,1,1c.3,4.17-.17,8,2.33,11.32,1.08,1.72,2.93,2,4.26,3.37a2.83,2.83,0,0,1,.32,2.57l-3.05,4.42a10,10,0,0,0-1.61,3.21,12,12,0,0,0,0,3.54c-.19.09-.29-.15-.48-.24-.79-1.63-1.64-3.71-.8-5.63l3.77-5.86.08-.48a11.26,11.26,0,0,0-2.65-1c-.44.2-.66.66-1,1l-3.7,6.66a4.07,4.07,0,0,0-.32,2.25,9.93,9.93,0,0,0,.88,2.73,13.19,13.19,0,0,0,1.21,3.62c.93,1,2.2,0,3.37.32s1.63,1.74,2.81,2.09c2.66.88,5.46,1.38,8.11,2.41,1.38.44,3.36,1,4.58-.16,1.72-.94,2.2-2.7,2.49-4.42.54-.74,1.62-.48,2.41-.72,1.48-1,2-2.77,3.05-4.1l.16-.64a1.39,1.39,0,0,0-.88-.89h-5.06c-2.31.3-2.47,2.85-3.45,4.42a2.85,2.85,0,0,1-2.81,1.29c-2.36-.64-5.19-1-6.27-3.54a1.87,1.87,0,0,1,.32-1.84,31.15,31.15,0,0,1,4.18-4.26,8.72,8.72,0,0,0,5.46-3.94c.59-.83.46-2.09,1.45-2.73.29,0,.93,0,1.12.24.44,1.43-.36,2.47-.8,3.7,5.36.54,9.57-1,14.78-.8,2.21,0,4.18.22,6.34.08s4.53-1,5.22-3.3c1-2.9-.39-6.16-.88-8.91l.56-.48c.34-.2,1,.12,1.2.32a43.79,43.79,0,0,1,1.93,8.59c.39,2.51,1.52,4.15,2.89,6.27A10.54,10.54,0,0,0,266.27,137c5.3-.39,9.92,2.38,13.17,6.51v.24c-.1.19-.32.45-.57.4-2.79-2.17-5.56-4.46-9.15-4.9-3.63-.66-6.9,1.21-10.68-.32-4.56-1.5-6.5-4.27-8.43-8.75h-.41c-.29,0-.43.34-.48.64l.48,3.05c.59,2.45,1.37,5.29,4,6.42,2.06,1.23,4,3,6.58,2.33a15.66,15.66,0,0,1,12.45,2.81c1.13.64,2.07,1.81,3.3,2.25a4.09,4.09,0,0,0,4-.64c2.51-.83,3.1,2.33,4.82,3.45,1.52,1.48,4.57.89,6.59.89l-.08-.24a17.85,17.85,0,0,0-1.53-5.38c-2.51.15-3.75-2.53-5.22-4.1-1.23-1.42-3.67-2.3-3.61-4.42a28.84,28.84,0,0,1-1-3.21c-.34-.88-.66-2.13-1.85-2.33-2.11-.34-4.62.2-5.94-1.77-1.37-1.47.08-3.15.32-4.57a14.19,14.19,0,0,0,.4-6.11c-.05-1.08-.83-2-.64-3,.49-.93,1.68-.26,2.41-.16a13.32,13.32,0,0,0,8.51-.72c3.44-1.67,6.18-5.09,6-9.08-.49-5.15-4.14-9.43-8.11-12.77-.74-.64-1.68-1.31-1.93-2.25-.09-2,2.16-1,3.29-1.52a11.43,11.43,0,0,0,3.86-1.45c3-2,3.64-5.55,3-9-.1-.3,0-.72-.48-.72a14.62,14.62,0,0,1-1.85,1.44c-1.92,1.13-4.41,1-6.43,1.93-2.5,1.08-5.58,2.61-6.66,5.46a6.11,6.11,0,0,0,.64,4.1c3.05,4.81,9.49,7.93,10.52,13.73.4,2.36-.75,4-2.57,5.38-2.75,1.67-6.89,1.07-9.64-.4-5.3-2.66-10-7.1-15.66-8.92-3.59-1.62-8-1.18-11.16-3.69-2.41-1.57-4.69-3.65-7.39-4.34-1.87-.64-3.9-.51-5.62-1.44a26.8,26.8,0,0,0-5.7-4.1,38.62,38.62,0,0,0-9.16-2.81c-1.86-.44-2.57-2.58-4.09-3.61C212.1,79.16,209.17,77.72,205.63,78Zm-.32,11.73a1.66,1.66,0,0,1,.8,0,1.07,1.07,0,0,1,.64.64,1,1,0,0,1,.17.56,1.73,1.73,0,0,1-.08.49l-.25.4-.24.32-1.52,1.44-1.69,1.61a18.18,18.18,0,0,0-2.73,3.21,13.89,13.89,0,0,0-1.28,2.33.48.48,0,0,1-.57.24.76.76,0,0,0-.16-.08.19.19,0,0,1,0-.08,3,3,0,0,1-.16-1,4.74,4.74,0,0,1,.08-.89l.32-1.28.16-.48A17.31,17.31,0,0,1,204.59,90,2.17,2.17,0,0,1,205.31,89.74ZM99.54,93.11a1.56,1.56,0,0,1,.72.08l.08.08a6.45,6.45,0,0,1,1.77,2.25,10.56,10.56,0,0,1,.72,4.1,12.69,12.69,0,0,1-.4,3.37.21.21,0,0,1,0,.08s-.08,0-.08,0a.49.49,0,0,1-.64.08s0-.06,0-.08-.08-.08-.08-.08A31.91,31.91,0,0,0,100,97.05l-.4-.81L99.38,96l-.32-.56a1.79,1.79,0,0,1-.24-1.93l.08-.08A1,1,0,0,1,99.54,93.11ZM122,112.31a1.87,1.87,0,0,1,.64.16A4,4,0,0,1,124,114l.16.32.33.49.56.72a7.85,7.85,0,0,1,2.33,5.22,6.16,6.16,0,0,1-.08,1.28s-.16.41-.16.41-.16.48-.16.48a.94.94,0,0,1-.73.64.48.48,0,0,1-.48-.08.58.58,0,0,1-.24-.48l-.08-.48-.16-1.45a4.41,4.41,0,0,0-.64-1.77s-.65-.72-.65-.72l-.72-.88a2.61,2.61,0,0,0-1.69-.89,2.94,2.94,0,0,0-1.2.89l-.48.64-.48.64c-.17.29-.56.08-.57.08a.1.1,0,0,1-.08,0,.2.2,0,0,1,0-.08,2.57,2.57,0,0,1-.16-.88,3.17,3.17,0,0,1,.32-1.21l.41-.8.4-1,.08-.08a2.38,2.38,0,0,0,.4-.81l.16-.32.24-.72C121,112.53,121.38,112.25,122,112.31Zm61,1.68a1.81,1.81,0,0,1,1.77,1.05,15.59,15.59,0,0,1,2.09,3.77,1.14,1.14,0,0,1,0,.32.86.86,0,0,1,0,.16l-.16.49a2,2,0,0,1-.4.48.6.6,0,0,1-.65,0,1.51,1.51,0,0,1-.64-.48l-.24-.33-.16-.32c-.22-.38-.45-.68-1-.64a1.62,1.62,0,0,0-1,.4l-.32.24-.16.08-.56.4-.73.57-.24.24-1,1a4.09,4.09,0,0,0-1.21,2.09l-.16.56v.24l-.08.32a1.26,1.26,0,0,1-.56.89.84.84,0,0,1-.72-.08.78.78,0,0,1-.32-.57,7.35,7.35,0,0,1,2.33-6.1,14.37,14.37,0,0,0,2.08-2.25l.65-.8,1.28-1.61ZM120.74,131.9h.4l.32.08a.82.82,0,0,1,.57.65,7.19,7.19,0,0,1,.08.72,2.49,2.49,0,0,1-.81,2.09s-.09,0-.08,0a9,9,0,0,1-3,.4l-.08-.08-.24-.08-.16-.08a.54.54,0,0,1-.24-.57A4.9,4.9,0,0,1,120.74,131.9Zm61.44,1h.08a3.58,3.58,0,0,1,2.89,1.2l.16.4.32.65a1.41,1.41,0,0,1,.16.56,1.25,1.25,0,0,1-.16.56v.08a2,2,0,0,1-1.28.32l-1-.16h-.32l-.08-.08c-.94-.52-1.1-1.57-1.2-2.65a.9.9,0,0,1,.32-.8ZM12.32,137.68c-.19,0-.39.12-.56.17a26,26,0,0,1-3.38,2.4c-.49.35-.3,1.07-.4,1.61s.59.83.89,1.13a2.43,2.43,0,0,0,1.76.08,9.8,9.8,0,0,0,3.3-3.94,3.25,3.25,0,0,0-1.13-1.36A.51.51,0,0,0,12.32,137.68Zm276,.09c-.73,0-1.4.89-1.77,1.44.35,1.18,1.36,2.13,2.09,3.21a2.42,2.42,0,0,0,1.77,1.05,2.64,2.64,0,0,0,1.69-.73,2,2,0,0,0,.56-1.6,19,19,0,0,0-3.54-3A1.24,1.24,0,0,0,288.27,137.77ZM5.49,143.23a3.36,3.36,0,0,0-1.84,2c-.25,1.58.1,3.05-1.13,4.18,0,.3-.3.67,0,1a16.64,16.64,0,0,0,3.46.89c.59-1.92,1-4,1.68-5.7v-.49C7.07,144.34,6.47,143.42,5.49,143.23Zm288.72.32c-.69.59-1.67,1.21-1.52,2.25a33.64,33.64,0,0,1,1.28,4.9c.2.34,0,1,.57,1l3.13-1c.54-.89-.45-1.58-.64-2.41-.25-1.13,0-2.67-.73-3.7C295.66,144.1,295.05,143.35,294.21,143.55Z"/><path id="path4084" class="cls-3" d="M80,138c1,1.08.94,2.75,2.07,3.58A5,5,0,0,0,86,140.38c.64-.54-.29-1.23-.39-1.87-.64-.93-.2-2.8-1.77-2.85a31.09,31.09,0,0,1-4.72.3l-.44.29c-.29.94,1.08.94,1.32,1.77"/><path id="path4096" class="cls-3" d="M219.22,136.55c-1.32.24-2.85-.06-4.17.14a4.72,4.72,0,0,0-1,3.15c.14,1.23,1.52,1.32,2.4,1.67.84.1,2.06.39,2.51-.49a19.29,19.29,0,0,0,1.13-4,.67.67,0,0,0-.89-.44"/></g></g></g></svg>