<svg xmlns="http://www.w3.org/2000/svg" viewBox="0 0 273.43 299.65"><defs><style>.cls-1{fill:#a7a5a6;}.cls-2{fill:#231f20;}.cls-3{fill:#fff;}.cls-4{fill:#33b65b;}</style></defs><title>Sassuolo</title><g id="Слой_2" data-name="Слой 2"><g id="Layer_1" data-name="Layer 1"><g id="layer1"><path id="path5329" class="cls-1" d="M184,2.87,186.44,0c4.07,5.87,8.9,15.42,15,19,5.59,3.28,16.59,6.57,40,6.62h3.66l14.4,19.22c-8.8,15.18-17,34.91-17,52.93a70.31,70.31,0,0,0,3.29,19.6l15,4.18-3.39,6.89,11.08,5L262.9,141l10.53,8-10.65,8c4,10.64,9.21,27.3,9.21,40.93,0,47.65-38.68,64.71-112.31,77.18l5.21,18.07-19.61-8.46-13.73,14.95-6-15.31-23.28,7,6.26-17.16C38.37,261.8,1.44,244.46,1.44,197.91c0-13.63,5.18-30.29,9.21-40.93L0,148.93l10.53-8-5.61-7.49,11.08-5-3.39-6.89,15-4.18a70.31,70.31,0,0,0,3.29-19.6c0-18-8.25-37.75-17-52.93L28.29,25.65h3.65c12.63,0,37.2-.37,45.56-11.53C80.88,9.59,83.77,4.64,87,0c14,16.33,25.77,27.27,48.72,27.6l1.95-.05c20.67-.22,33-9.26,46.3-24.68"/><path id="path5331" class="cls-2" d="M137.75,35.64c19.69-.21,35.7-8.54,48.06-22.91,5.39,7.77,7.92,20.89,55.66,21l9.35,12.47S235.2,73.12,235.2,98.62c0,6.36,1.27,14.91,4.82,25.54l10.38,2.9-2.83,5.76,9.66,4.36-4.51,6,8.64,6.53-7.42,5.62c4,9.56,10.73,28.8,10.73,43.37,0,42.46-34,58.51-114.27,71.34l3.19,11.11-10.19-4.39-9.31,10.14-4.18-10.67L114.12,281l4.27-11.71C41.41,256.6,8.75,240.37,8.75,198.73c0-14.57,6.72-33.81,10.74-43.37l-7.42-5.62,8.63-6.53-4.51-6,9.67-4.36L23,127.06l10.37-2.9C37,113.53,38.23,105,38.23,98.62c0-25.5-15.62-52.41-15.62-52.41L32,33.74c47.74-.12,50.27-13.24,55.66-21C100,27.1,116,35.43,135.68,35.7l2.07-.06"/><path id="path5333" class="cls-3" d="M145.38,238.5l8.83-4L153.92,212l-8.35-4.74-19.09,11.87.63,8.26,18.27,11.09"/><path id="path5335" class="cls-3" d="M109.5,210.28l.71-22.33-4.72-2.64a39.85,39.85,0,0,0-9.31,25.62c0,.85,0,1.69.08,2.52l9.51,1.13,3.73-4.3"/><path id="path5337" class="cls-3" d="M125.94,183.35l-9.85,3.85-.69,21.47,7.88,5.62,18.56-11.54-.72-11.09-15.18-8.31"/><path id="path5339" class="cls-3" d="M109.76,240.93l2.31-8.92-7.55-11.74-7.43-.86a39.94,39.94,0,0,0,12.67,21.52"/><path id="path5341" class="cls-3" d="M176.76,210.93a39.45,39.45,0,0,0-.24-4.37l-8.71-1.06-8,6.09.29,22.82,6.59,3.07a39.82,39.82,0,0,0,10.11-26.55"/><path id="path5343" class="cls-3" d="M157.65,176.84a40.17,40.17,0,0,0-21.19-6c-1.07,0-2.15,0-3.2.13l-2.6,8.31,14.87,8.15h10.3l1.82-10.61"/><path id="path5345" class="cls-3" d="M175.41,200.62a40.08,40.08,0,0,0-12.5-19.92l-1.55,9.11,6.6,9.88,7.45.93"/><path id="path5347" class="cls-3" d="M142.34,250.59l.36-6.91-18.85-11.44-6.11,1.19-2.88,11.32a40.21,40.21,0,0,0,21.6,6.26,42,42,0,0,0,5.88-.42"/><path id="path5349" class="cls-3" d="M75.15,70.37a2.44,2.44,0,1,0-2.45-2.43,2.44,2.44,0,0,0,2.45,2.43"/><path id="path5351" class="cls-3" d="M69.8,54.77a2.43,2.43,0,0,0-.2,4.86,5,5,0,0,1,2.57-3.05,2.45,2.45,0,0,0-2.37-1.81"/><path id="path5353" class="cls-3" d="M116.87,71.31a2.45,2.45,0,1,0,2.44-2.43,2.44,2.44,0,0,0-2.44,2.43"/><path id="path5355" class="cls-3" d="M64.71,106.58H80.08C80,101.2,78.74,88.5,72.14,88.5c-6.42,0-7.32,11-7.43,18.08"/><path id="path5357" class="cls-3" d="M118.08,60.08a2.44,2.44,0,1,0,2.45,2.44,2.44,2.44,0,0,0-2.45-2.44"/><path id="path5359" class="cls-3" d="M65.23,61.24a2.45,2.45,0,1,0-2.44,2.43,2.44,2.44,0,0,0,2.44-2.43"/><path id="path5361" class="cls-3" d="M80.08,108H64.7c0,1,0,1.91,0,2.61,0,3.36.13,5.43.25,6.66H80.08V108"/><path id="path5363" class="cls-3" d="M59.11,70a2.45,2.45,0,1,0,2.44-2.45A2.43,2.43,0,0,0,59.11,70"/><path id="path5365" class="cls-3" d="M68.79,75.1a2.44,2.44,0,1,0-2.45-2.43,2.44,2.44,0,0,0,2.45,2.43"/><path id="path5367" class="cls-3" d="M66.28,68.34a5.05,5.05,0,0,1,3.85-.49,5,5,0,0,1,1.06-3,5,5,0,0,1-1.67-2.68,5.1,5.1,0,0,1-1.75-.42A5,5,0,0,1,64.44,66a5.13,5.13,0,0,1,1.84,2.39"/><path id="path5369" class="cls-3" d="M74.41,63.47A2.44,2.44,0,1,0,72,61a2.45,2.45,0,0,0,2.45,2.44"/><path id="path5371" class="cls-3" d="M113.09,63a4.89,4.89,0,0,1-1.75.43,5,5,0,0,1-1.67,2.68,5,5,0,0,1,1.06,3,5,5,0,0,1,3.86.5,5,5,0,0,1,1.84-2.4,5,5,0,0,1-3.34-4.2"/><path id="path5373" class="cls-3" d="M101.1,117.3h16.56l.07-6.54V108H101.31l-.21,9.27"/><path id="path5375" class="cls-3" d="M90.44,78.37c-6.24,0-7.88,11.61-8.06,16.56l-.11,3.75a52.39,52.39,0,0,1,.74,7.9H98.42a40.32,40.32,0,0,1,.32-4.41c-.34-7.16-2-23.8-8.3-23.8"/><path id="path5377" class="cls-3" d="M98.39,108H83v9.27H98.17l.22-9.27"/><path id="path5379" class="cls-3" d="M89.45,32.05C78.2,44.35,55.64,45.89,39.27,46.48c0,0,12.11,28.13,12.11,50.57a82.26,82.26,0,0,1-2.64,20.26H62c-.13-1.4-.25-3.52-.25-6.67,0-7.28-.38-25,10.36-25a8.68,8.68,0,0,1,1.16.08l-.84-1.83L65,82.56l.19-2.76,7-.51-.57-2.51a5,5,0,0,1-7.56-2.43,5,5,0,1,1-4.17-9,5,5,0,0,1,2.89-9.07,5,5,0,0,1,2,.42,5,5,0,0,1,9.88-.61,5,5,0,0,1,3.68,8,4.94,4.94,0,0,1,1.8,3.82,5,5,0,0,1-3.8,4.84L79.74,77l2.07-4.93,2.71.38-.8,7.68c1.56-2.13,3.71-4.71,6.72-4.71s5.09,2.9,6.67,5.7l-.75-7.39,2.7-.38,2.07,4.94,3.37-4.28a5,5,0,0,1-2-8.67,5,5,0,0,1,3.68-8,5,5,0,0,1,9.88.61A5,5,0,0,1,121,66.6a5,5,0,0,1-1.66,9.7,5.06,5.06,0,0,1-2.51-.67,5,5,0,0,1-7.56,2.43l-.57,2.51,7,.51.19,2.76-7.47,1.28-.78,1.7a9.08,9.08,0,0,1,2.92-.46c10.38,0,10.1,17.33,10.1,24.41l0,6.54h8.1V47.94c-14.69-1.3-27.87-5.78-39.27-15.89"/><path id="path5381" class="cls-3" d="M117.7,106.58c-.13-6.82-1.09-17.31-7.15-17.31-7.33,0-9.09,11.6-9.21,17.31H117.7"/><path id="path5383" class="cls-3" d="M109.63,73.94a2.45,2.45,0,1,0,2.44-2.43,2.44,2.44,0,0,0-2.44,2.43"/><path id="path5385" class="cls-3" d="M111.05,56a2.46,2.46,0,0,0-2.36,1.82,5,5,0,0,1,2.58,3,2.44,2.44,0,0,0-.22-4.87"/><path id="path5387" class="cls-3" d="M103.26,69.21a2.45,2.45,0,1,0,2.46-2.43,2.45,2.45,0,0,0-2.46,2.43"/><path id="path5389" class="cls-3" d="M106.45,59.88A2.43,2.43,0,0,0,105,64.27l.72,0a4.91,4.91,0,0,1,1.76.32,2.44,2.44,0,0,0-1-4.66"/><path id="path5391" class="cls-4" d="M226.94,117.82A82.39,82.39,0,0,1,224.17,97c0-22.43,12.11-50.56,12.11-50.56a167.5,167.5,0,0,1-23.94-2.22v73.56h14.6"/><path id="path5393" class="cls-4" d="M253.83,198.24c0-11.35-3.07-21.87-7.23-32.21H220.46V241c19.43-8.08,33.37-20.34,33.37-42.71"/><path id="path5395" class="cls-4" d="M229.61,126.54H45.94c-3.7,10.65-8.73,20.71-13.25,30.77H242.87c-4.52-10.06-9.55-20.12-13.26-30.77"/><path id="path5397" class="cls-4" d="M28.94,166.06c-4.15,10.33-7.22,20.85-7.22,32.18,0,20.86,12.13,32.92,29.52,41V166.06H28.94"/><path id="path5399" class="cls-4" d="M193.52,117.82V37.9a31.28,31.28,0,0,1-7.41-5.85,62.36,62.36,0,0,1-7,5.37v80.4h14.44"/><path id="path5401" class="cls-4" d="M161,117.82V45.51A81.55,81.55,0,0,1,146.51,48v69.86H161"/><path id="path5403" class="cls-4" d="M88,166v84.79c9.8,2.3,19.81,4.37,29.4,6.7l1.72-7.36a43.11,43.11,0,1,1,31.57,1.27l2.24,7.43c9.85-2.55,20.32-4.75,30.66-7.1V166H88"/><path id="path5405" class="cls-3" d="M70.83,132.13H66.29v13.36h-1.7c-.89,0-3.35,0-3.35-3.27,0-3.62,2.27-7.87,3.27-10.09h-4.9c-1.61,3.19-3,6.55-3,10.16,0,4,1.8,7.08,6.87,7.08h7.36Zm2.61,13.36h3.82v3.89H73.44Zm15.18-13.36H83.74c-3.79,0-4.66,2.45-4.66,4,0,1.7,1,2.93,2.11,4.13l3.08,3.46c.32.34.74.72.74,1.2,0,.68-1.23.57-1.67.57H79.22l1.06,3.88h5.28c3.81,0,4.67-2.44,4.67-4,0-1.71-1.06-2.93-2.14-4.12l-3.16-3.48c-.32-.34-.75-.72-.75-1.21,0-.67,1.24-.56,1.68-.56h3.82Zm3,13.36h3.82v3.89H91.67Zm22.61-13.36H109.4c-3.8,0-4.67,2.45-4.67,4,0,1.7,1.06,2.93,2.12,4.13l3.08,3.46c.32.34.74.72.74,1.2,0,.68-1.23.57-1.68.57h-4.11l1.06,3.88h5.28c3.8,0,4.67-2.44,4.67-4,0-1.71-1.06-2.93-2.15-4.12l-3.16-3.48c-.31-.34-.73-.72-.73-1.21,0-.67,1.22-.56,1.67-.56h3.81Zm16.45,5.13h-4.54V140h-4.51c.57-1.47,1.39-4,6.25-4h3.57l-1.06-3.89h-2.23c-3.27,0-6.09.41-8.51,2.84a11.64,11.64,0,0,0-3.12,8.27,15.68,15.68,0,0,0,2.7,8.56l3.69-2.43a10.87,10.87,0,0,1-1.74-5.46h5v5.46h4.54Zm11.54-5.13h-4.89c-3.79,0-4.66,2.45-4.66,4,0,1.7,1.06,2.93,2.13,4.13l3.07,3.46c.32.34.74.72.74,1.2,0,.68-1.23.57-1.67.57h-4.12l1.06,3.88h5.29c3.79,0,4.67-2.44,4.67-4,0-1.71-1.07-2.93-2.15-4.12l-3.16-3.48c-.33-.34-.74-.72-.74-1.21,0-.67,1.23-.56,1.67-.56h3.82Zm11.88,0h-4.88c-3.8,0-4.68,2.45-4.68,4,0,1.7,1.07,2.93,2.13,4.13l3.08,3.46c.31.34.74.72.74,1.2,0,.68-1.23.57-1.68.57h-4.11l1.05,3.88h5.3c3.78,0,4.65-2.44,4.65-4,0-1.71-1.05-2.93-2.14-4.12l-3.15-3.48c-.33-.34-.75-.72-.75-1.21,0-.67,1.23-.56,1.67-.56h3.82Zm16.56,0h-4.54v13.36h-1.7c-.89,0-3.35,0-3.35-3.27,0-3.62,2.27-7.87,3.27-10.09h-4.9c-1.61,3.19-3,6.55-3,10.16,0,4,1.8,7.08,6.88,7.08h7.36Zm9.81,17.63c5.35,0,7.9-6.57,7.9-11.15,0-3.73-1.81-6.85-7.9-6.85s-7.88,3.12-7.88,6.85C172.64,143.19,175.18,149.76,180.52,149.76Zm0-4.08c-1.71,0-3.16-3.73-3.16-6.86,0-2.29.94-3,3.16-3s3.17.74,3.17,3C183.69,142,182.24,145.68,180.52,145.68ZM195,132.13H190.5v17.24h9.44l1.05-3.88h-6Zm13.91,17.63c5.35,0,7.9-6.57,7.9-11.15,0-3.73-1.81-6.85-7.9-6.85s-7.89,3.12-7.89,6.85C201.05,143.19,203.59,149.76,208.94,149.76Zm0-4.08c-1.72,0-3.15-3.73-3.15-6.86,0-2.29.93-3,3.15-3s3.16.74,3.16,3c0,3.13-1.43,6.86-3.16,6.86"/></g></g></g></svg>