<svg xmlns="http://www.w3.org/2000/svg" viewBox="0 0 300 300"><defs><style>.cls-1{fill:#004d9d;}.cls-2{fill:#fff;}</style></defs><title>Schalke</title><g id="Слой_2" data-name="Слой 2"><g id="Слой_1-2" data-name="Слой 1"><path id="path7176" class="cls-1" d="M150,300a150,150,0,1,1,106.06-43.93A150,150,0,0,1,150,300"/><path id="path7178" class="cls-2" d="M186,228.74h-7.37V215.55H167.11v13.2h-7.77s12-50.11,12.1-50.33h-12.8s-15.09,63-15.09,62.64h22.91v20.59h12.11V241.06h7.37V228.71l.05,0Zm-81-34.31V245.7a17.33,17.33,0,1,0,34.65,0V194.47a17.33,17.33,0,0,0-34.65,0v0Zm11.79,0a5.7,5.7,0,0,1,11.39,0v51.32a5.7,5.7,0,1,1-11.39,0V194.43ZM145.88,69c-.7-1.74-2.74-11.17,8.44-15.1a14.5,14.5,0,0,1,9.74.52c8.62,3.13,10.25,14.74,10.88,22.1h9.49V36.28h-5.82l-3.72,5.49a55.24,55.24,0,0,0-16.19-6.61A47.27,47.27,0,0,0,122.76,43c-12.65,9-19.86,29.53-11,43.18s34.1,50.38,34.1,50.38a10,10,0,0,1,1.72,5.29,11.5,11.5,0,0,1-5.49,10c-3.58,2.54-7.26,3.09-12.2,2-11.69-2.5-11-17.3-11-24.81H105v42.36h8.94l2.85-5.49c3.5,1.58,10,4.83,15.42,5.75,14.73,2.94,30.49.37,41.17-9.19,11.57-9.6,17.44-28.2,5.73-44.09-12.34-18.69-31-43.71-33.24-49.4V69ZM264.21,104.3h10.41a132.83,132.83,0,1,0,8.09,45.82H193.65v49.49h14.69v29.17c0,10,0,44.28-58.34,44.28a122.5,122.5,0,0,1-58.86-15V42A122.5,122.5,0,0,1,150,27c58.34,0,58.34,34.31,58.34,44.28V104.2l55.87.1Z"/></g></g></svg>