<svg xmlns="http://www.w3.org/2000/svg" xmlns:xlink="http://www.w3.org/1999/xlink" viewBox="0 0 299.95 299.96"><defs><style>.cls-1,.cls-45,.cls-62,.cls-63,.cls-64,.cls-65,.cls-70,.cls-79,.cls-80,.cls-81,.cls-82,.cls-83,.cls-84,.cls-95{fill:none;}.cls-2{clip-path:url(#clip-path);}.cls-29,.cls-3,.cls-46,.cls-92{fill:#c6363c;}.cls-4{clip-path:url(#clip-path-2);}.cls-27,.cls-30,.cls-35,.cls-36,.cls-41,.cls-5{fill:#0c4076;}.cls-6{clip-path:url(#clip-path-3);}.cls-14,.cls-15,.cls-18,.cls-20,.cls-21,.cls-25,.cls-47,.cls-48,.cls-49,.cls-50,.cls-51,.cls-52,.cls-53,.cls-54,.cls-55,.cls-56,.cls-67,.cls-68,.cls-69,.cls-7,.cls-71,.cls-72,.cls-73,.cls-74,.cls-75,.cls-77,.cls-86,.cls-87,.cls-88,.cls-89,.cls-90,.cls-91,.cls-93,.cls-94{fill:#fff;}.cls-10,.cls-11,.cls-13,.cls-16,.cls-17,.cls-19,.cls-22,.cls-23,.cls-24,.cls-26,.cls-28,.cls-31,.cls-32,.cls-33,.cls-34,.cls-37,.cls-38,.cls-39,.cls-40,.cls-42,.cls-43,.cls-44,.cls-57,.cls-58,.cls-59,.cls-60,.cls-61,.cls-66,.cls-76,.cls-78,.cls-8,.cls-85,.cls-9{fill:#edb92e;}.cls-10,.cls-11,.cls-13,.cls-14,.cls-15,.cls-16,.cls-17,.cls-18,.cls-19,.cls-20,.cls-21,.cls-22,.cls-23,.cls-24,.cls-25,.cls-26,.cls-27,.cls-28,.cls-29,.cls-30,.cls-31,.cls-32,.cls-33,.cls-34,.cls-35,.cls-36,.cls-37,.cls-38,.cls-39,.cls-40,.cls-41,.cls-42,.cls-43,.cls-44,.cls-45,.cls-47,.cls-48,.cls-49,.cls-50,.cls-51,.cls-52,.cls-53,.cls-54,.cls-55,.cls-56,.cls-57,.cls-58,.cls-59,.cls-60,.cls-61,.cls-62,.cls-63,.cls-64,.cls-65,.cls-66,.cls-67,.cls-68,.cls-69,.cls-70,.cls-71,.cls-72,.cls-73,.cls-74,.cls-75,.cls-76,.cls-77,.cls-78,.cls-79,.cls-8,.cls-80,.cls-81,.cls-82,.cls-83,.cls-84,.cls-85,.cls-86,.cls-87,.cls-88,.cls-89,.cls-9,.cls-90,.cls-91,.cls-92,.cls-93,.cls-94,.cls-95{stroke:#21231e;}.cls-11,.cls-13,.cls-14,.cls-15,.cls-16,.cls-17,.cls-18,.cls-19,.cls-20,.cls-21,.cls-23,.cls-24,.cls-25,.cls-26,.cls-27,.cls-28,.cls-29,.cls-30,.cls-31,.cls-33,.cls-34,.cls-35,.cls-36,.cls-37,.cls-39,.cls-40,.cls-41,.cls-42,.cls-43,.cls-44,.cls-45,.cls-46,.cls-47,.cls-48,.cls-49,.cls-50,.cls-51,.cls-52,.cls-53,.cls-54,.cls-55,.cls-56,.cls-58,.cls-59,.cls-60,.cls-61,.cls-62,.cls-63,.cls-64,.cls-65,.cls-68,.cls-70,.cls-71,.cls-72,.cls-73,.cls-74,.cls-76,.cls-78,.cls-79,.cls-8,.cls-80,.cls-81,.cls-82,.cls-84,.cls-87,.cls-88,.cls-9,.cls-90,.cls-92,.cls-95{stroke-miterlimit:22.93;}.cls-8{stroke-width:0.66px;}.cls-10,.cls-21,.cls-30,.cls-70,.cls-77,.cls-83,.cls-9{stroke-width:0.67px;}.cls-10,.cls-22,.cls-32,.cls-38,.cls-57,.cls-66,.cls-67,.cls-69,.cls-75,.cls-77,.cls-83,.cls-85,.cls-86,.cls-89,.cls-91,.cls-93,.cls-94{stroke-linejoin:round;}.cls-11{stroke-width:0.67px;}.cls-12{fill:#21231e;}.cls-13{stroke-width:0.62px;}.cls-14,.cls-67{stroke-width:0.67px;}.cls-15{stroke-width:0.67px;}.cls-16{stroke-width:0.67px;}.cls-17,.cls-52{stroke-width:0.67px;}.cls-18{stroke-width:0.67px;}.cls-19{stroke-width:0.64px;}.cls-20{stroke-width:0.64px;}.cls-22{stroke-width:0.67px;}.cls-23{stroke-width:0.67px;}.cls-24{stroke-width:0.67px;}.cls-25{stroke-width:0.67px;}.cls-26{stroke-width:0.67px;}.cls-27,.cls-68,.cls-69,.cls-84{stroke-width:0.67px;}.cls-28{stroke-width:0.67px;}.cls-29{stroke-width:0.67px;}.cls-31,.cls-32{stroke-width:0.67px;}.cls-33{stroke-width:0.66px;}.cls-34{stroke-width:0.66px;}.cls-35{stroke-width:0.66px;}.cls-36{stroke-width:0.67px;}.cls-37{stroke-width:0.67px;}.cls-38{stroke-width:0.5px;}.cls-39{stroke-width:0.67px;}.cls-40{stroke-width:0.67px;}.cls-41{stroke-width:0.67px;}.cls-42{stroke-width:0.68px;}.cls-43{stroke-width:0.63px;}.cls-44{stroke-width:0.68px;}.cls-45,.cls-70,.cls-75,.cls-79,.cls-80,.cls-81,.cls-83,.cls-84{stroke-linecap:round;}.cls-45{stroke-width:0.67px;}.cls-46{stroke:#fff;}.cls-46,.cls-92,.cls-95{stroke-width:1.33px;}.cls-47{stroke-width:0.67px;}.cls-48{stroke-width:0.64px;}.cls-49{stroke-width:0.61px;}.cls-50{stroke-width:0.64px;}.cls-51{stroke-width:0.66px;}.cls-53{stroke-width:0.65px;}.cls-54{stroke-width:0.66px;}.cls-55{stroke-width:0.66px;}.cls-56{stroke-width:0.67px;}.cls-57{stroke-width:0.66px;}.cls-58{stroke-width:0.66px;}.cls-59{stroke-width:0.65px;}.cls-60{stroke-width:0.66px;}.cls-61{stroke-width:0.61px;}.cls-62{stroke-width:0.49px;}.cls-63{stroke-width:0.67px;}.cls-64{stroke-width:0.68px;}.cls-65{stroke-width:0.67px;}.cls-66{stroke-width:0.65px;}.cls-71{stroke-width:0.59px;}.cls-72{stroke-width:0.67px;}.cls-73{stroke-width:0.66px;}.cls-74{stroke-width:0.67px;}.cls-75{stroke-width:0.67px;}.cls-76{stroke-width:0.66px;}.cls-78,.cls-85{stroke-width:0.67px;}.cls-79{stroke-width:0.67px;}.cls-80{stroke-width:0.86px;}.cls-81{stroke-width:0.63px;}.cls-82{stroke-width:0.69px;}.cls-86{stroke-width:0.59px;}.cls-87{stroke-width:0.6px;}.cls-88{stroke-width:0.65px;}.cls-89{stroke-width:0.66px;}.cls-90{stroke-width:0.62px;}.cls-91{stroke-width:0.51px;}.cls-93{stroke-width:0.68px;}.cls-94{stroke-width:0.67px;}</style><clipPath id="clip-path" transform="translate(-1.02 0)"><circle class="cls-1" cx="150" cy="150" r="150"/></clipPath><clipPath id="clip-path-2" transform="translate(-1.02 0)"><rect class="cls-1" x="1.02" y="99.9" width="299.95" height="200.1"/></clipPath><clipPath id="clip-path-3" transform="translate(-1.02 0)"><rect class="cls-1" x="1.02" y="199.65" width="299.95" height="100.32"/></clipPath></defs><title>Serbia</title><g id="Слой_2" data-name="Слой 2"><g id="Слой_1-2" data-name="Слой 1"><g class="cls-2"><g id="g6907"><path id="path822" class="cls-3" d="M1,0H301V300H1Z" transform="translate(-1.02 0)"/><g class="cls-4"><g id="g828"><path id="path826" class="cls-5" d="M1,99.75H301V300H1Z" transform="translate(-1.02 0)"/></g></g><g class="cls-6"><g id="g832"><path id="path830" class="cls-7" d="M1,199.22H301V300H1Z" transform="translate(-1.02 0)"/></g></g><g id="g6512"><g id="g1244"><g id="g850"><path id="path834" class="cls-8" d="M168,71.38a5.29,5.29,0,0,0-.09-3.68c-.1-.21.21-.69.34-.88,4.25-6,4.33-6.51,1.39-8.75-2.64-2-8.62-4-12.9-5.32a29.66,29.66,0,0,1-2.27-2.35c8.22.59,17.13,3.9,21.63,7.78,2.37,2-.52,6.18-4.06,12.47-2.18,1.57-3.21,2.3-4,.73Z" transform="translate(-1.02 0)"/><g id="g846"><path id="path836" class="cls-9" d="M169.29,71.86a10.22,10.22,0,0,0,.41-1.55,5.17,5.17,0,0,0-.19-2.67,40.46,40.46,0,0,0,2.87-4.36,4.65,4.65,0,0,0,.67-3.46,6.08,6.08,0,0,0-2.5-3,21.58,21.58,0,0,0-4.48-2.44,26.84,26.84,0,0,0-8.77-2.33l1.37,1.26c4,1.28,8.71,3,11,4.71,2.94,2.24,2.86,2.77-1.39,8.75-.13.19-.44.67-.34.88a5.71,5.71,0,0,1,0,3.76c.36.69.9.33,1.42.4Z" transform="translate(-1.02 0)"/><path id="path838" class="cls-9" d="M133.33,45.22c0-.76,0-.63.13.54a.52.52,0,0,1,.48-.34c.34,0,.55.53.58,1.71,0,.3,0,.6-.06.9,10.91-.24,17.37,1.4,19,4.56,1.37,2.59-1,6.89-4.48,11.8-.43.59-.42.54,0,1a3,3,0,0,1,.75,3,7.84,7.84,0,0,0,6.88.49A4.11,4.11,0,0,1,158.46,67c.14-.09.61-.32.66-.47,1.16-3.72,2.33-7.15,3.33-10.35,3.15-10-24.81-11-29.12-11Z" transform="translate(-1.02 0)"/><g id="g844"><path id="path840" class="cls-10" d="M162.12,88.43a32.18,32.18,0,0,1,3.73-6.12c-3.88,2.86-5.91,2.43-6.2-1.29a2.79,2.79,0,0,0-.85-.08q-4.43,6.86-8.62-1.9c-3.81,6-7.08,5.89-9.64-.37-4.39,5.47-8.09,5.49-11.1.11V78.1c.17.08.06.1-.34.05L129,78l-.32.06-.33-.06-.06.13c-.4,0-.51,0-.34-.05v.69c-3,5.37-6.71,5.35-11.1-.12-2.57,6.26-5.83,6.37-9.64.37q-4.19,8.76-8.62,1.9a2.79,2.79,0,0,0-.85.08c-.29,3.72-2.33,4.15-6.2,1.29a32.18,32.18,0,0,1,3.73,6.12c11.16-.46,22.28-1,33.41-1.62,11.12.58,22.24,1.16,33.41,1.62Z" transform="translate(-1.02 0)"/><path id="path842" class="cls-10" d="M166.7,79.44l-1.21-.21c-2.34,5.7-4.43,5.83-4.82.42.52-.19.31-1.09.9-.73.31.19.71-.35.45-.65a1.29,1.29,0,0,0-1.83.13,1.23,1.23,0,0,0-1.77-.9c-.36.16-.24.81.12.77.59-.06.35.54.54,1-4.14,5.39-6.26,4.75-5.74-2.34a23.73,23.73,0,0,1-3.16-.76c-3.81,7.64-6.52,8-8.71,1.11.47-.35.33-1.23,1-1,.39.16.71-.52.37-.81a1.42,1.42,0,0,0-2.26.42,1.41,1.41,0,0,0-2.18-.7c-.38.24-.15,1,.26.85.77-.21.42.81,1,1.16-1.68,6.44-10.18,6.88-8.79-2.67l-2.18.08-2.19-.08c1.39,9.55-7.11,9.11-8.79,2.67.59-.35.24-1.37,1-1.16.4.11.63-.61.25-.85a1.41,1.41,0,0,0-2.18.7,1.41,1.41,0,0,0-2.25-.42c-.35.29,0,1,.36.81.69-.28.55.6,1,1-2.2,6.86-4.91,6.53-8.72-1.11a24,24,0,0,1-3.15.76c.51,7.09-1.61,7.73-5.74,2.34.18-.41-.06-1,.53-1,.36,0,.48-.61.12-.77a1.23,1.23,0,0,0-1.77.9,1.29,1.29,0,0,0-1.83-.13c-.25.3.14.84.45.65.59-.36.38.54.9.73-.39,5.41-2.48,5.28-4.81-.42l-1.22.21A6,6,0,0,0,92,83.24c3.5,4.44,6.1,3.43,6.19-1.54,4.58,5.37,8,4.69,8.67-1,3.85,7.14,10,3.73,10.16-.6,1.7,6.29,11.1,6.24,11.71-1,.6,7.23,10,7.28,11.7,1,.13,4.33,6.31,7.74,10.16.6.62,5.66,4.09,6.34,8.67,1,.09,5,2.69,6,6.19,1.54a6,6,0,0,0,1.26-3.8Z" transform="translate(-1.02 0)"/></g></g><path id="path848" class="cls-11" d="M136.55,72.18c-.52-.33-.62-.24-.78-.45a1.5,1.5,0,0,1-.15-1.15c.27-1.73-.78-1.49-1.94-.72A16.14,16.14,0,0,0,132,71.59c-.5.46-.92.5-1.05.69,0,.66,0,1.23,0,1.49h0c0,.25,0,.83,0,1.49.13.18.55.22,1.05.69a16.14,16.14,0,0,0,1.68,1.73c1.16.77,2.21,1,1.94-.72a1.5,1.5,0,0,1,.15-1.15c.16-.21.26-.13.78-.45a2.38,2.38,0,0,0,.75-.73,1.52,1.52,0,0,0,.08-.87,1.49,1.49,0,0,0-.08-.86A2.38,2.38,0,0,0,136.55,72.18Z" transform="translate(-1.02 0)"/></g><path id="path852" class="cls-12" d="M130.9,74l0,.29a5.75,5.75,0,0,1,3.15,1.43A4.73,4.73,0,0,0,130.9,74" transform="translate(-1.02 0)"/><path id="path854" class="cls-12" d="M130.9,73.51l0-.29a5.82,5.82,0,0,0,3.15-1.43,4.73,4.73,0,0,1-3.2,1.72" transform="translate(-1.02 0)"/><g id="g1042"><g id="g872"><path id="path856" class="cls-9" d="M135.63,69.79a3.44,3.44,0,0,0-1.13.65c-.53.51-.18,1.35.5,2.17a2,2,0,0,1,.31,1.17,1.89,1.89,0,0,1-.31,1.15c-.69.82-1,1.66-.5,2.17a3.44,3.44,0,0,0,1.13.65,2.14,2.14,0,0,0,0-.79,1.58,1.58,0,0,1,.15-1.14c.17-.22.27-.13.79-.45a2.31,2.31,0,0,0,.75-.74c.17-.27.08-.56.08-.86a1.49,1.49,0,0,0-.08-.86,2.41,2.41,0,0,0-.75-.74c-.52-.32-.62-.23-.79-.44a1.61,1.61,0,0,1-.15-1.15,2.14,2.14,0,0,0,0-.79Z" transform="translate(-1.02 0)"/><path id="path858" class="cls-8" d="M89.43,71.38a5.25,5.25,0,0,1,.09-3.67c.1-.22-.2-.7-.34-.89-4.25-6-4.33-6.51-1.39-8.75,2.64-2,8.62-4,12.9-5.32A29.66,29.66,0,0,0,103,50.4c-8.22.59-17.13,3.91-21.63,7.78-2.37,2,.52,6.18,4.06,12.47,2.18,1.57,3.21,2.3,4,.73Z" transform="translate(-1.02 0)"/><path id="path860" class="cls-9" d="M88.14,71.86a11.55,11.55,0,0,1-.41-1.55,5.07,5.07,0,0,1,.2-2.67,40.55,40.55,0,0,1-2.88-4.36,4.75,4.75,0,0,1-.67-3.46,6.14,6.14,0,0,1,2.5-3,21.41,21.41,0,0,1,4.49-2.44,26.73,26.73,0,0,1,8.76-2.33l-1.37,1.26c-4,1.28-8.7,3-11,4.71-2.94,2.24-2.86,2.77,1.4,8.75.13.19.43.67.33.88a5.73,5.73,0,0,0,0,3.76c-.37.69-.91.33-1.43.4Z" transform="translate(-1.02 0)"/><path id="path862" class="cls-9" d="M124.1,45.22c0-.76,0-.63-.13.54a.52.52,0,0,0-.48-.34c-.34,0-.55.53-.59,1.71,0,.3,0,.6.07.9-10.91-.24-17.37,1.4-19,4.56-1.37,2.59,1,6.89,4.48,11.8.43.59.41.54,0,1a3,3,0,0,0-.75,3,7.86,7.86,0,0,1-6.89.49A4,4,0,0,0,99,67c-.14-.09-.61-.32-.66-.47C97.15,62.81,96,59.38,95,56.18c-3.15-10,24.81-11,29.12-11Z" transform="translate(-1.02 0)"/><path id="path864" class="cls-13" d="M126,86.78l-.39,10.89c10.8.3,23.59.79,34.38,1.09l2.16-10.16c-26-1.64-37.92-2.16-36.15-1.82Z" transform="translate(-1.02 0)"/><g id="g870"><path id="path866" class="cls-9" d="M126,86.79v0q-8.65.39-30.71,1.76l2.16,10.16c9.78-.27,21.19-.7,31.28-1,10.08.3,21.49.73,31.27,1l2.16-10.16c-14.73-.93-24.94-1.5-30.71-1.76v0c.59-.12-.32-.14-2.72-.05-2.4-.09-3.3-.07-2.72.05Z" transform="translate(-1.02 0)"/><path id="path868" class="cls-9" d="M128.72,88h-8.06l-1.4,0h-.19l-.53,0h-1.12l-.47,0h-.43l-.38,0h-.25l-.52,0h0l-2.07.09h-.09l-3,.16H110q-3,.18-6,.4h-.1c-2.93.22-5.82.48-8.69.77-1.63.15-1.94-1.77,0-2q4.3-.44,8.69-.77h0q6-.45,12.17-.69H117c1.68-.06,3.36-.11,5.06-.14h13.42c1.69,0,3.38.08,5.06.14h.92q6.15.24,12.16.69h0q4.38.33,8.68.77c1.95.18,1.63,2.1,0,2q-4.31-.44-8.68-.77h-.1q-3-.23-6-.4h-.21l-3-.16h-.1l-2.07-.09h0l-.53,0h-.25l-.37,0h-.43l-.47,0h-1.13l-.53,0h-.19l-1.39,0h-8.06Z" transform="translate(-1.02 0)"/></g></g><g id="g884"><path id="path874" class="cls-14" d="M103.28,64.19a2.1,2.1,0,1,1-2.1,2.1A2.1,2.1,0,0,1,103.28,64.19Z" transform="translate(-1.02 0)"/><g id="g882"><path id="path876" class="cls-15" d="M85.39,68.59a1.95,1.95,0,1,1-2,2A2,2,0,0,1,85.39,68.59Z" transform="translate(-1.02 0)"/><path id="path878" class="cls-15" d="M83.52,65a2,2,0,1,1-2,2A2,2,0,0,1,83.52,65Z" transform="translate(-1.02 0)"/><path id="path880" class="cls-15" d="M81.77,61.42a1.95,1.95,0,1,1-2,1.95A2,2,0,0,1,81.77,61.42Z" transform="translate(-1.02 0)"/></g></g><path id="path886" class="cls-16" d="M128.72,71.23a2.55,2.55,0,1,1-2.55,2.54A2.55,2.55,0,0,1,128.72,71.23Z" transform="translate(-1.02 0)"/><path id="path888" class="cls-17" d="M116.23,68.12c1.13-.08.85,1.93.63,2.37-.29.59-.56.6-.93.06s-.82-2.36.3-2.43Z" transform="translate(-1.02 0)"/><path id="path890" class="cls-18" d="M116.3,69.2c2.65-.18,2,4.53,1.47,5.58-.68,1.37-1.32,1.41-2.18.15-.66-1-1.94-5.55.71-5.73Z" transform="translate(-1.02 0)"/><path id="path892" class="cls-19" d="M95,71c1.07-.34,1.28,1.67,1.17,2.16s-.4.71-.88.28S93.87,71.29,95,71Z" transform="translate(-1.02 0)"/><path id="path894" class="cls-20" d="M95.28,72c2.53-.81,3,3.92,2.76,5.06-.34,1.5-1,1.69-2.08.66-.88-.78-3.21-4.92-.68-5.72Z" transform="translate(-1.02 0)"/><g id="g904"><path id="path896" class="cls-10" d="M122.8,47a37.19,37.19,0,0,0-17.25,2.35c-4.85,1.93-4.37,7.55,1.54,15.35a8.27,8.27,0,0,0-.89,3.63c.63,0,1.07,0,1.62,0a3.22,3.22,0,0,1,.59-2.92c.36-.53.43-.43,0-1-3.52-4.91-5.85-9.2-4.48-11.8,1.67-3.16,8.13-4.8,19-4.56l-.06-.87L122.8,47Z" transform="translate(-1.02 0)"/><g id="g902"><path id="path898" class="cls-21" d="M95.22,48.64a2,2,0,1,1-2,2A2,2,0,0,1,95.22,48.64Z" transform="translate(-1.02 0)"/><path id="path900" class="cls-21" d="M99.2,47.34a2,2,0,1,1-2,2A2,2,0,0,1,99.2,47.34Z" transform="translate(-1.02 0)"/></g></g><g id="g914"><path id="path906" class="cls-9" d="M99.72,49.07l.61.81c-3.2,1.75-4.53,3.6-4.21,5.46,0,.32,1,3.73,3.19,10.33a18.57,18.57,0,0,1,3.32,2.75c-.08.09.24.38.15.46.22,1-.92.81-1.68.55A6.4,6.4,0,0,0,99,67c-.13-.09-.6-.32-.65-.47C97.15,62.81,96,59.38,95,56.18s1.17-5.49,4.74-7.11Z" transform="translate(-1.02 0)"/><path id="path908" class="cls-22" d="M87.1,72.93l-.12.65a6.15,6.15,0,0,1-2.39.16c1.1-1.08,1.93-1.31,2.51-.81Z" transform="translate(-1.02 0)"/><path id="path910" class="cls-23" d="M87,71.45c.58.13.64.23.89.27A1.3,1.3,0,0,0,89,71.48c1.27-.75,1.29.61.8,1.64A2.45,2.45,0,0,0,90,75.33c.4.75.31,1.09,0,1.3l-.56.35c-.33.41-.6.34-.64-.19-1.27-.52-1.68-1.73-2.06-2.8-.56-1.56-2.56-1.93.28-2.54Z" transform="translate(-1.02 0)"/><path id="path912" class="cls-24" d="M87.49,71.5c1.1.4,1.23-.21,2-.18-.29,1.68-.59,2.55-2.35,1.65a2,2,0,0,0-2.44.77c-.08.2-.65-.21-.86-.66C83,71.19,86,71,87.49,71.5Z" transform="translate(-1.02 0)"/></g><g id="g936"><g id="g924"><path id="path916" class="cls-25" d="M121,42.69a2,2,0,1,1-2,2A2,2,0,0,1,121,42.69Z" transform="translate(-1.02 0)"/><path id="path918" class="cls-25" d="M116.9,42.69a2,2,0,1,1-2,2A2,2,0,0,1,116.9,42.69Z" transform="translate(-1.02 0)"/><path id="path920" class="cls-25" d="M112.77,43a2,2,0,1,1-2,2A2,2,0,0,1,112.77,43Z" transform="translate(-1.02 0)"/><path id="path922" class="cls-25" d="M109,43.75a2,2,0,1,1-2,2A2,2,0,0,1,109,43.75Z" transform="translate(-1.02 0)"/></g><g id="g934"><path id="path926" class="cls-21" d="M83.92,54.13a2,2,0,1,1-2,2A2,2,0,0,1,83.92,54.13Z" transform="translate(-1.02 0)"/><path id="path928" class="cls-21" d="M87.39,51.94a2,2,0,1,1-2,2A2,2,0,0,1,87.39,51.94Z" transform="translate(-1.02 0)"/><path id="path930" class="cls-21" d="M91.33,50.09a2,2,0,1,1-2,2A2,2,0,0,1,91.33,50.09Z" transform="translate(-1.02 0)"/><path id="path932" class="cls-21" d="M81.23,57.42a2,2,0,1,1-2,2A2,2,0,0,1,81.23,57.42Z" transform="translate(-1.02 0)"/></g></g><path id="path938" class="cls-26" d="M121.21,92.34l7.5-3.75,7.5,3.75-7.5,3.75Z" transform="translate(-1.02 0)"/><path id="path940" class="cls-27" d="M128.72,90.05c1.86,0,3.37,1,3.37,2.25s-1.51,2.25-3.37,2.25-3.38-1-3.38-2.25S126.85,90.05,128.72,90.05Z" transform="translate(-1.02 0)"/><path id="path942" class="cls-28" d="M104.55,93.29l7.25-4.2,7.72,3.29-7.26,4.19Z" transform="translate(-1.02 0)"/><path id="path944" class="cls-29" d="M111.89,90.54c1.86-.12,3.43.79,3.5,2S114,94.91,112.16,95s-3.43-.8-3.5-2S110,90.65,111.89,90.54Z" transform="translate(-1.02 0)"/><g id="g960"><path id="path946" class="cls-9" d="M95.82,90.27l7.84,3-6.48,4.33c-1.67-.56-3-6.26-1.36-7.3Z" transform="translate(-1.02 0)"/><path id="path948" class="cls-30" d="M96,91.72c1.85-.19,3.46.66,3.58,1.89s-1.27,2.4-3.13,2.58c-1.2.13-2-.93-2.08-2A2,2,0,0,1,96,91.72Z" transform="translate(-1.02 0)"/><g id="g958"><path id="path950" class="cls-21" d="M120.58,93.73a1.06,1.06,0,1,1-1,1.06A1.05,1.05,0,0,1,120.58,93.73Z" transform="translate(-1.02 0)"/><path id="path952" class="cls-21" d="M104.5,94.62a1.06,1.06,0,1,1-1,1.06A1.05,1.05,0,0,1,104.5,94.62Z" transform="translate(-1.02 0)"/><path id="path954" class="cls-21" d="M103.93,89.76a1.06,1.06,0,1,1-1.05,1A1.05,1.05,0,0,1,103.93,89.76Z" transform="translate(-1.02 0)"/><path id="path956" class="cls-21" d="M120.54,89.08a1.05,1.05,0,1,1-1.06,1A1,1,0,0,1,120.54,89.08Z" transform="translate(-1.02 0)"/></g></g><g id="g970"><path id="path962" class="cls-31" d="M92.05,79.65c.79-.25,2,1.52,2.33,1.49.4-1-.4-3.42-1.82-5.33-1-.31-1-.93-1.25-2.36-.06-.43-.88-.14-.9.59a6.46,6.46,0,0,0,.1,1.89.67.67,0,0,1-.26.75c1.5.6,1.87,1.32,1.8,3Z" transform="translate(-1.02 0)"/><path id="path964" class="cls-32" d="M91.33,73.47a3.21,3.21,0,0,0-.21,1.1,1.62,1.62,0,0,0,.36,1.06,3.53,3.53,0,0,0,1,.83,2.42,2.42,0,0,1,.75,1,3.46,3.46,0,0,1,.39,1.3c0,1.17.26,2.19.8,2.39a1,1,0,0,0,.76,0,2.84,2.84,0,0,0-.23-.8,2.61,2.61,0,0,1-.48-1.19,2.53,2.53,0,0,1,0-1.08c.07-.38.32-.52.27-.87-.08-.67-.61-2-1.4-2s-1.13-.08-1.53-1.1a2.5,2.5,0,0,0-.43-.69Z" transform="translate(-1.02 0)"/><path id="path966" class="cls-33" d="M88.42,76.27a2.77,2.77,0,0,1,.7-.37,2,2,0,0,1,1.26-.06c1.85.56,2.66,3.83.63,4.61-.4,0-.77-.31-1.12-1.1a6.33,6.33,0,0,0-1.36-2.21c-.29-.37-.3-.68-.11-.87Z" transform="translate(-1.02 0)"/><path id="path968" class="cls-34" d="M89.35,76.49c1.78-.69,3.09,2.7,1.43,3.34-.89.34-1-.77-1.15-1.38-.24-.83-2-1.3-.28-2Z" transform="translate(-1.02 0)"/></g><path id="path972" class="cls-35" d="M89.54,77c.87-.33,2.06,1.68,1,2.14a1.11,1.11,0,0,1-1.54-.7A1,1,0,0,1,89.54,77Z" transform="translate(-1.02 0)"/><path id="path974" class="cls-28" d="M152.89,93.29l-7.26-4.2-7.71,3.28,7.25,4.2Z" transform="translate(-1.02 0)"/><path id="path976" class="cls-29" d="M145.54,90.54c-1.86-.12-3.43.8-3.5,2s1.37,2.33,3.23,2.45,3.43-.8,3.5-2-1.37-2.34-3.23-2.45Z" transform="translate(-1.02 0)"/><path id="path978" class="cls-9" d="M161.61,90.27l-7.84,3,6.48,4.33c1.67-.56,3-6.26,1.36-7.3Z" transform="translate(-1.02 0)"/><path id="path980" class="cls-30" d="M161.46,91.72c-1.85-.19-3.45.66-3.58,1.89s1.28,2.4,3.13,2.58c1.21.13,2-.93,2.08-2A2,2,0,0,0,161.46,91.72Z" transform="translate(-1.02 0)"/><g id="g1006"><g id="g990"><path id="path982" class="cls-21" d="M136.86,93.73a1.06,1.06,0,1,0,0,2.11,1.06,1.06,0,0,0,0-2.11Z" transform="translate(-1.02 0)"/><path id="path984" class="cls-21" d="M152.93,94.62a1.06,1.06,0,1,0,1,1.06A1.05,1.05,0,0,0,152.93,94.62Z" transform="translate(-1.02 0)"/><path id="path986" class="cls-21" d="M153.5,89.76a1.06,1.06,0,0,0,0,2.11,1.06,1.06,0,1,0,0-2.11Z" transform="translate(-1.02 0)"/><path id="path988" class="cls-21" d="M136.89,89.08a1.05,1.05,0,1,0,1.06,1A1,1,0,0,0,136.89,89.08Z" transform="translate(-1.02 0)"/></g><path id="path992" class="cls-14" d="M101.66,60.75a2.1,2.1,0,1,1-2.1,2.1A2.11,2.11,0,0,1,101.66,60.75Z" transform="translate(-1.02 0)"/><path id="path994" class="cls-14" d="M100.12,57.26a2.1,2.1,0,1,1-2.1,2.1A2.1,2.1,0,0,1,100.12,57.26Z" transform="translate(-1.02 0)"/><path id="path996" class="cls-21" d="M105.15,45a2,2,0,1,1-2,2A2,2,0,0,1,105.15,45Z" transform="translate(-1.02 0)"/><g id="g1004"><path id="path998" class="cls-14" d="M101.75,46.52a2.1,2.1,0,1,1-2.1,2.1A2.1,2.1,0,0,1,101.75,46.52Z" transform="translate(-1.02 0)"/><path id="path1000" class="cls-14" d="M99.24,49.49a2.1,2.1,0,1,1-2.1,2.1A2.1,2.1,0,0,1,99.24,49.49Z" transform="translate(-1.02 0)"/><path id="path1002" class="cls-14" d="M98.84,53.23a2.1,2.1,0,1,1-2.11,2.09A2.1,2.1,0,0,1,98.84,53.23Z" transform="translate(-1.02 0)"/></g></g><path id="path1008" class="cls-9" d="M129.74,29.73a1,1,0,0,0,0-2.05,1,1,0,0,0-2.05,0,1,1,0,0,0,0,2.05v2.11h-1.81a1,1,0,0,0-1-1,1,1,0,0,0-1,1,1,1,0,1,0,0,2,1,1,0,0,0,1,1,1,1,0,0,0,1-1h1.81v7h2.05v-7h1.81a1,1,0,0,0,1,1,1,1,0,0,0,1-1,1,1,0,0,0,0-2,1,1,0,0,0-1-1,1,1,0,0,0-1,1h-1.81Z" transform="translate(-1.02 0)"/><path id="path1010" class="cls-36" d="M128.72,36.34A5.66,5.66,0,1,1,123.06,42,5.65,5.65,0,0,1,128.72,36.34Z" transform="translate(-1.02 0)"/><path id="path1012" class="cls-37" d="M128.72,36.34a5.89,5.89,0,0,1,1,.09v4.46h-2.06V36.43A5.89,5.89,0,0,1,128.72,36.34Z" transform="translate(-1.02 0)"/><g id="g1032"><path id="path1014" class="cls-9" d="M134.26,40.85a5.47,5.47,0,0,1,.11,1.15,5.29,5.29,0,0,1-.05.8c-1.86-.06-3.73-.11-5.61-.11s-3.74.05-5.6.11a5.29,5.29,0,0,1-.06-.8,5.47,5.47,0,0,1,.12-1.15c1.84-.06,3.69-.11,5.54-.11s3.71,0,5.55.11Z" transform="translate(-1.02 0)"/><path id="path1016" class="cls-10" d="M124.32,45.54c-1.2-.74-1.41.4-1.38,1.55.12,4.33,1,8.46-.22,13.76-.47,2.12-1.22,3.32-.49,3.73,1.87,1,2.73,2,2.43,2.51.56,1,1.94.85,4.05.51,2.12.34,3.5.54,4-.51-.29-.52.56-1.47,2.43-2.51.74-.41,0-1.61-.48-3.73-1.17-5.3-.34-9.43-.22-13.76,0-1.15-.18-2.29-1.38-1.55a9.37,9.37,0,0,1-8.79,0Z" transform="translate(-1.02 0)"/><g id="g1030"><path id="path1018" class="cls-21" d="M128.72,61.84a2.25,2.25,0,1,1-2.25,2.25A2.25,2.25,0,0,1,128.72,61.84Z" transform="translate(-1.02 0)"/><path id="path1020" class="cls-21" d="M128.72,57.94a2.25,2.25,0,1,1-2.25,2.25A2.25,2.25,0,0,1,128.72,57.94Z" transform="translate(-1.02 0)"/><path id="path1022" class="cls-21" d="M128.72,54.19a2.25,2.25,0,1,1-2.25,2.25A2.25,2.25,0,0,1,128.72,54.19Z" transform="translate(-1.02 0)"/><path id="path1024" class="cls-21" d="M128.72,43.54a2.25,2.25,0,1,1-2.25,2.25A2.25,2.25,0,0,1,128.72,43.54Z" transform="translate(-1.02 0)"/><path id="path1026" class="cls-21" d="M128.72,46.84a2.25,2.25,0,1,1-2.25,2.25A2.25,2.25,0,0,1,128.72,46.84Z" transform="translate(-1.02 0)"/><path id="path1028" class="cls-21" d="M128.72,50.44a2.25,2.25,0,1,1-2.25,2.25A2.25,2.25,0,0,1,128.72,50.44Z" transform="translate(-1.02 0)"/></g></g><g id="g1040"><path id="path1034" class="cls-38" d="M126.17,66.77a6.89,6.89,0,0,0-2.84-3.16c1.38-4.31,1.7-9.87.89-16.73-.08-1-.33-1.46-.73-1.46s-.55.53-.58,1.71a84.81,84.81,0,0,1,.38,9.88,31.35,31.35,0,0,1-1.4,6.92c-.09.33.15.58,1.28,1.22a3,3,0,0,1,1.54,1.66.72.72,0,0,1,.48,0c.84.25,1.2.18,1,0Z" transform="translate(-1.02 0)"/><path id="path1036" class="cls-38" d="M131.27,66.77a6.88,6.88,0,0,1,2.83-3.16c-1.37-4.31-1.7-9.87-.89-16.73.08-1,.34-1.46.73-1.46s.56.53.59,1.71a85,85,0,0,0-.39,9.88,32.55,32.55,0,0,0,1.4,6.92c.09.33-.14.58-1.28,1.22a3,3,0,0,0-1.53,1.66.75.75,0,0,0-.49,0c-.84.24-1.19.18-1,0Z" transform="translate(-1.02 0)"/><path id="path1038" class="cls-39" d="M130.31,65.94c.33.52.24.62.45.78a1.51,1.51,0,0,0,1.15.15c1.73-.27,1.49.77.73,1.94a16.23,16.23,0,0,1-1.74,1.68c-.46.5-.5.92-.69,1.05h-3c-.18-.13-.22-.55-.69-1.05a16.14,16.14,0,0,1-1.73-1.68c-.77-1.17-1-2.21.72-1.94a1.5,1.5,0,0,0,1.15-.15c.21-.16.13-.26.45-.78a2.31,2.31,0,0,1,.74-.75c.27-.17.56-.08.86-.08a1.49,1.49,0,0,1,.86.08,2.28,2.28,0,0,1,.73.75Z" transform="translate(-1.02 0)"/></g></g><path id="path1044" class="cls-12" d="M128.46,71.59l-.3,0a5.81,5.81,0,0,0-1.42-3.16,4.81,4.81,0,0,1,1.72,3.2" transform="translate(-1.02 0)"/><path id="path1046" class="cls-12" d="M129,71.59l.29,0a5.82,5.82,0,0,1,1.43-3.16,4.77,4.77,0,0,0-1.72,3.2" transform="translate(-1.02 0)"/><path id="path1048" class="cls-9" d="M132.69,66.85A3.38,3.38,0,0,1,132,68c-.51.52-1.35.18-2.17-.5a1.86,1.86,0,0,0-1.16-.32,1.9,1.9,0,0,0-1.16.32c-.81.68-1.66,1-2.16.5a3.41,3.41,0,0,1-.66-1.14,2.69,2.69,0,0,1,.79,0,1.5,1.5,0,0,0,1.15-.15c.21-.16.12-.27.45-.78a2.42,2.42,0,0,1,.73-.76,1.58,1.58,0,0,1,.86-.07,1.61,1.61,0,0,1,.87.07,2.42,2.42,0,0,1,.73.76c.32.51.24.62.45.78a1.5,1.5,0,0,0,1.15.15,2.62,2.62,0,0,1,.78,0Z" transform="translate(-1.02 0)"/><path id="path1050" class="cls-11" d="M120.89,72.18c.51-.33.61-.24.78-.45a1.55,1.55,0,0,0,.15-1.15c-.27-1.73.77-1.49,1.94-.72a18.32,18.32,0,0,1,1.68,1.73c.5.46.91.5,1,.69,0,.66,0,1.23,0,1.49h0c0,.25,0,.83,0,1.49-.13.18-.54.22-1,.69a18.32,18.32,0,0,1-1.68,1.73c-1.17.77-2.21,1-1.94-.72a1.55,1.55,0,0,0-.15-1.15c-.17-.21-.27-.13-.78-.45a2.32,2.32,0,0,1-.76-.73c-.17-.28-.07-.57-.07-.87s-.1-.58.07-.86A2.32,2.32,0,0,1,120.89,72.18Z" transform="translate(-1.02 0)"/><path id="path1052" class="cls-12" d="M126.53,74l0,.29a5.69,5.69,0,0,0-3.15,1.43A4.71,4.71,0,0,1,126.53,74" transform="translate(-1.02 0)"/><path id="path1054" class="cls-12" d="M126.53,73.51l0-.29a5.76,5.76,0,0,1-3.15-1.43,4.71,4.71,0,0,0,3.19,1.72" transform="translate(-1.02 0)"/><path id="path1056" class="cls-9" d="M121.8,69.79a3.34,3.34,0,0,1,1.13.65c.53.51.19,1.35-.49,2.17a2.26,2.26,0,0,0,0,2.32c.68.82,1,1.66.49,2.17a3.34,3.34,0,0,1-1.13.65,2.38,2.38,0,0,1,0-.79,1.53,1.53,0,0,0-.15-1.14c-.16-.22-.27-.13-.78-.45a2.25,2.25,0,0,1-.76-.74c-.17-.27-.07-.56-.07-.86s-.1-.59.07-.86a2.34,2.34,0,0,1,.76-.74c.51-.32.62-.23.78-.44a1.56,1.56,0,0,0,.15-1.15,2.38,2.38,0,0,1,0-.79Z" transform="translate(-1.02 0)"/><path id="path1058" class="cls-11" d="M136.55,75.37c-.52.32-.62.24-.78.45a1.5,1.5,0,0,0-.15,1.15c.27,1.73-.78,1.49-1.94.72A16.14,16.14,0,0,1,132,76c-.5-.47-.92-.51-1.05-.69,0-.66,0-1.24,0-1.5h0c0-.26,0-.83,0-1.49.13-.19.55-.23,1.05-.69a16.14,16.14,0,0,1,1.68-1.73c1.16-.77,2.21-1,1.94.72a1.5,1.5,0,0,0,.15,1.15c.16.21.26.12.78.45a2.38,2.38,0,0,1,.75.73,1.49,1.49,0,0,1,.08.86,1.52,1.52,0,0,1-.08.87A2.38,2.38,0,0,1,136.55,75.37Z" transform="translate(-1.02 0)"/><path id="path1060" class="cls-12" d="M130.9,73.51l0-.29a5.82,5.82,0,0,0,3.15-1.43,4.73,4.73,0,0,1-3.2,1.72" transform="translate(-1.02 0)"/><path id="path1062" class="cls-12" d="M130.9,74l0,.29a5.75,5.75,0,0,1,3.15,1.43A4.73,4.73,0,0,0,130.9,74" transform="translate(-1.02 0)"/><g id="g1076"><g id="g1072"><path id="path1064" class="cls-9" d="M135.63,77.75a3.44,3.44,0,0,1-1.13-.65c-.53-.51-.18-1.35.5-2.17a1.92,1.92,0,0,0,.31-1.16,1.9,1.9,0,0,0-.31-1.16c-.69-.81-1-1.66-.5-2.17a3.62,3.62,0,0,1,1.13-.65,2.14,2.14,0,0,1,0,.79,1.61,1.61,0,0,0,.15,1.15c.17.21.27.12.79.44a2.41,2.41,0,0,1,.75.74,1.49,1.49,0,0,1,.08.86c0,.3.09.59-.08.86a2.31,2.31,0,0,1-.75.74c-.52.32-.62.24-.79.45a1.6,1.6,0,0,0-.15,1.15,2.08,2.08,0,0,1,0,.78Z" transform="translate(-1.02 0)"/><g id="g1070"><path id="path1066" class="cls-16" d="M128.72,71.23a2.55,2.55,0,1,1-2.55,2.54A2.55,2.55,0,0,1,128.72,71.23Z" transform="translate(-1.02 0)"/><path id="path1068" class="cls-40" d="M128.71,71.9a1.88,1.88,0,1,1-1.87,1.87A1.88,1.88,0,0,1,128.71,71.9Z" transform="translate(-1.02 0)"/></g></g><path id="path1074" class="cls-41" d="M128.72,72.59a1.18,1.18,0,1,1-1.18,1.18A1.18,1.18,0,0,1,128.72,72.59Z" transform="translate(-1.02 0)"/></g><path id="path1078" class="cls-12" d="M88.76,76l.23-.09a2.28,2.28,0,0,1-.43-2,1.82,1.82,0,0,0,.2,2.14" transform="translate(-1.02 0)"/><path id="path1080" class="cls-9" d="M105.17,67.38c.44.55.38.68.62.84a1.23,1.23,0,0,0,1.12,0c1.6-.61,1.61.65,1.14,2.1a16.41,16.41,0,0,1-1.21,2.06c-.3.59-.24,1-.37,1.18l-1.31.19h0c-.23,0-.72.1-1.29.16-.19-.11-.33-.52-.86-1a19.71,19.71,0,0,1-2-1.52c-1-1.13-1.54-2.22,0-2.19a1,1,0,0,0,1-.34c.14-.22,0-.32.17-1a2.28,2.28,0,0,1,.45-1c.2-.25.49-.19.77-.25s.52-.21.82,0a2.69,2.69,0,0,1,.9.76Z" transform="translate(-1.02 0)"/><path id="path1082" class="cls-12" d="M104.94,73.77h-.26a7.76,7.76,0,0,0-2.08-3.12,6.14,6.14,0,0,1,2.34,3.13" transform="translate(-1.02 0)"/><path id="path1084" class="cls-12" d="M105.4,73.71l.24-.08a6.51,6.51,0,0,1,.51-3.56,5.14,5.14,0,0,0-.75,3.64" transform="translate(-1.02 0)"/><path id="path1086" class="cls-9" d="M107.66,68.05a4.23,4.23,0,0,1-.35,1.42c-.35.67-1.22.41-2.14-.23a1.63,1.63,0,0,0-1.15-.18,1.4,1.4,0,0,0-1,.53c-.52.86-1.16,1.35-1.75.86a4.86,4.86,0,0,1-.91-1.14,1.62,1.62,0,0,1,.69-.1,1,1,0,0,0,1-.34c.14-.22,0-.32.17-1a2.38,2.38,0,0,1,.45-1c.2-.24.5-.18.77-.24s.52-.21.83-.06a2.94,2.94,0,0,1,.89.77c.44.55.38.68.62.84a1.26,1.26,0,0,0,1.12,0,1.87,1.87,0,0,1,.75-.16Z" transform="translate(-1.02 0)"/><path id="path1088" class="cls-42" d="M98.91,74.34c.26-.3.36-.24.4-.43a1.81,1.81,0,0,0-.28-1c-.77-1.49,0-1.36,1.16-.78a6.15,6.15,0,0,1,.93.69c.33.28.65.57.92.76.55.39.89.41,1,.56.25.61.45,1.14.53,1.37h0c.1.23.3.76.51,1.36,0,.17-.35.22-.58.65a16.16,16.16,0,0,1-.7,1.57c-.42.55-.8.87-1.1.82s-.5-.49-.59-1.44a1.66,1.66,0,0,0-.48-1c-.19-.18-.24-.1-.71-.37a3.14,3.14,0,0,1-.77-.61,2,2,0,0,1-.34-.73,2.08,2.08,0,0,1-.23-.75,1.24,1.24,0,0,1,.28-.67Z" transform="translate(-1.02 0)"/><path id="path1090" class="cls-12" d="M103.77,76c0,.11,0,.21.08.31a2.81,2.81,0,0,0-1.2.58,2.91,2.91,0,0,0-.8,1,2.1,2.1,0,0,1,.63-1.19,3,3,0,0,1,1.29-.72" transform="translate(-1.02 0)"/><path id="path1092" class="cls-12" d="M103.58,75.41l-.14-.3a4.73,4.73,0,0,1-1.55-.4,6.77,6.77,0,0,1-1.46-.87,4.72,4.72,0,0,0,1.42,1.06,5.2,5.2,0,0,0,1.73.51" transform="translate(-1.02 0)"/><path id="path1094" class="cls-10" d="M98.78,71.93a2.83,2.83,0,0,1,.92.58,1.42,1.42,0,0,1,.5,1,3.27,3.27,0,0,1-.09,1.27,2.38,2.38,0,0,0,.17,1.19,3.13,3.13,0,0,0,.65,1.15c.81.8,1.37,1.65,1.15,2.17a1.06,1.06,0,0,1-.49.59,2.48,2.48,0,0,1-.41-.7,2.55,2.55,0,0,0-.51-1.14,2.52,2.52,0,0,0-.74-.75c-.31-.19-.58-.11-.8-.37-.42-.52-1-1.76-.43-2.34s.72-.88.27-1.84a3.13,3.13,0,0,1-.19-.77Z" transform="translate(-1.02 0)"/><path id="path1096" class="cls-43" d="M112.86,76c-.42.36-.52.29-.64.51a1.49,1.49,0,0,0,0,1.09c.51,1.55-.45,1.42-1.6.82A15.83,15.83,0,0,1,108.92,77c-.52-.38-.89-.38-1-.53-.15-.62-.27-1.16-.31-1.4h0c-.06-.25-.18-.8-.3-1.45.07-.19.43-.28.79-.8a14.91,14.91,0,0,1,1.17-2c1-1,1.9-1.41,2,.48a1.78,1.78,0,0,0,.34,1.18c.19.19.27.09.81.36a2.36,2.36,0,0,1,.84.65,1.74,1.74,0,0,1,.21.86,1.62,1.62,0,0,1,0,.87,2,2,0,0,1-.58.79Z" transform="translate(-1.02 0)"/><path id="path1098" class="cls-12" d="M107.53,74.81l0-.29a4.62,4.62,0,0,0,2.55-1.77,3.93,3.93,0,0,1-2.52,2.06" transform="translate(-1.02 0)"/><path id="path1100" class="cls-12" d="M107.63,75.3c0,.09.07.18.1.27a5.41,5.41,0,0,1,3,1,4.56,4.56,0,0,0-3.13-1.3" transform="translate(-1.02 0)"/><g id="g1204"><g id="g1110"><path id="path1102" class="cls-44" d="M112.41,78.31a3.41,3.41,0,0,1-1.11-.5c-.55-.42-.39-1.24.08-2.08a1.91,1.91,0,0,0,.09-1.17,2.15,2.15,0,0,0-.49-1.11c-.77-.74-1.25-1.55-.86-2.15a3.14,3.14,0,0,1,.95-.85,2.82,2.82,0,0,1,.13.83,1.78,1.78,0,0,0,.34,1.18c.19.19.27.09.82.36a2.29,2.29,0,0,1,.83.65,1.63,1.63,0,0,1,.2.86,1.53,1.53,0,0,1,.06.87,2,2,0,0,1-.59.79c-.42.36-.52.29-.64.51a1.49,1.49,0,0,0,0,1.09,2.35,2.35,0,0,1,.14.72Z" transform="translate(-1.02 0)"/><g id="g1108"><path id="path1104" class="cls-9" d="M105.11,72.8a2.87,2.87,0,0,1,2.8,2.5,2.11,2.11,0,0,1-2,2.52,2.85,2.85,0,0,1-2.7-2.38A2.13,2.13,0,0,1,105.11,72.8Z" transform="translate(-1.02 0)"/><path id="path1106" class="cls-9" d="M105.22,73.49a2.09,2.09,0,0,1,2,1.82,1.54,1.54,0,0,1-1.47,1.87,2.11,2.11,0,0,1-2-1.76,1.56,1.56,0,0,1,1.42-1.93Z" transform="translate(-1.02 0)"/></g></g><path id="path1112" class="cls-30" d="M105.33,74.19a1.34,1.34,0,0,1,1.28,1.15,1,1,0,0,1-.92,1.17,1.3,1.3,0,0,1-1.26-1.11,1,1,0,0,1,.9-1.21Z" transform="translate(-1.02 0)"/><g id="g1124"><path id="path1114" class="cls-14" d="M154.16,64.19a2.1,2.1,0,1,0,2.1,2.1A2.1,2.1,0,0,0,154.16,64.19Z" transform="translate(-1.02 0)"/><g id="g1122"><path id="path1116" class="cls-15" d="M172,68.59a1.95,1.95,0,1,0,2,2A1.94,1.94,0,0,0,172,68.59Z" transform="translate(-1.02 0)"/><path id="path1118" class="cls-15" d="M173.91,65a2,2,0,1,0,2,2A2,2,0,0,0,173.91,65Z" transform="translate(-1.02 0)"/><path id="path1120" class="cls-15" d="M175.66,61.42a1.95,1.95,0,1,0,2,1.95A2,2,0,0,0,175.66,61.42Z" transform="translate(-1.02 0)"/></g></g><path id="path1126" class="cls-17" d="M141.21,68.11c-1.13-.07-.85,1.93-.63,2.38s.56.6.93.06.82-2.36-.3-2.43Z" transform="translate(-1.02 0)"/><path id="path1128" class="cls-18" d="M141.13,69.2c-2.65-.18-2,4.53-1.47,5.58.68,1.37,1.32,1.41,2.18.15C142.5,74,143.78,69.38,141.13,69.2Z" transform="translate(-1.02 0)"/><path id="path1130" class="cls-19" d="M162.48,71c-1.07-.34-1.28,1.67-1.17,2.16s.4.71.88.28,1.37-2.1.29-2.44Z" transform="translate(-1.02 0)"/><path id="path1132" class="cls-20" d="M162.16,72c-2.53-.8-3,3.93-2.76,5.07.33,1.5.94,1.69,2.08.67.87-.79,3.2-4.93.68-5.74Z" transform="translate(-1.02 0)"/><g id="g1142"><path id="path1134" class="cls-10" d="M134.63,47a37.16,37.16,0,0,1,17.25,2.35c4.85,1.93,4.37,7.55-1.54,15.35a8.13,8.13,0,0,1,.89,3.63c-.63,0-1.06,0-1.62,0a3.22,3.22,0,0,0-.59-2.92c-.35-.53-.42-.43,0-1,3.52-4.91,5.85-9.2,4.48-11.8-1.67-3.16-8.13-4.8-19-4.56l.06-.87.1-.12Z" transform="translate(-1.02 0)"/><g id="g1140"><path id="path1136" class="cls-21" d="M162.2,48.64a2,2,0,1,0,2,2A2,2,0,0,0,162.2,48.64Z" transform="translate(-1.02 0)"/><path id="path1138" class="cls-21" d="M158.24,47.34a2,2,0,1,0,2,2A2,2,0,0,0,158.24,47.34Z" transform="translate(-1.02 0)"/></g></g><g id="g1152"><path id="path1144" class="cls-9" d="M157.71,49.07l-.61.81c3.2,1.75,4.53,3.6,4.21,5.46-.05.32-1,3.73-3.19,10.33a19.07,19.07,0,0,0-3.33,2.75c.09.09-.23.38-.13.46-.23,1,.91.81,1.67.55A6.4,6.4,0,0,1,158.47,67c.13-.09.6-.32.65-.47,1.17-3.72,2.33-7.15,3.33-10.35s-1.17-5.49-4.74-7.11Z" transform="translate(-1.02 0)"/><path id="path1146" class="cls-22" d="M170.33,72.93l.13.65a6.14,6.14,0,0,0,2.39.16c-1.11-1.08-1.94-1.31-2.52-.81Z" transform="translate(-1.02 0)"/><path id="path1148" class="cls-23" d="M170.43,71.45c-.58.13-.63.23-.89.27a1.3,1.3,0,0,1-1.09-.24c-1.26-.75-1.29.61-.8,1.64a2.42,2.42,0,0,1-.17,2.21c-.4.75-.31,1.09,0,1.3L168,77c.34.41.6.34.65-.19a4.09,4.09,0,0,0,2.06-2.8c.55-1.56,2.56-1.93-.29-2.54Z" transform="translate(-1.02 0)"/><path id="path1150" class="cls-24" d="M169.94,71.5c-1.1.4-1.22-.21-2-.18.3,1.68.59,2.55,2.35,1.65a2,2,0,0,1,2.44.77c.09.2.65-.21.86-.66.86-1.89-2.21-2.1-3.68-1.58Z" transform="translate(-1.02 0)"/></g><g id="g1174"><g id="g1162"><path id="path1154" class="cls-25" d="M136.4,42.69a2,2,0,1,0,2,2A2,2,0,0,0,136.4,42.69Z" transform="translate(-1.02 0)"/><path id="path1156" class="cls-25" d="M140.53,42.69a2,2,0,1,0,2,2A2,2,0,0,0,140.53,42.69Z" transform="translate(-1.02 0)"/><path id="path1158" class="cls-25" d="M144.66,43a2,2,0,1,0,2,2A2,2,0,0,0,144.66,43Z" transform="translate(-1.02 0)"/><path id="path1160" class="cls-25" d="M148.47,43.75a2,2,0,1,0,2,2A2,2,0,0,0,148.47,43.75Z" transform="translate(-1.02 0)"/></g><g id="g1172"><path id="path1164" class="cls-21" d="M173.51,54.13a2,2,0,1,0,2,2A2,2,0,0,0,173.51,54.13Z" transform="translate(-1.02 0)"/><path id="path1166" class="cls-21" d="M170.05,51.94a2,2,0,1,0,2,2A2,2,0,0,0,170.05,51.94Z" transform="translate(-1.02 0)"/><path id="path1168" class="cls-21" d="M166.1,50.09a2,2,0,1,0,2,2A2,2,0,0,0,166.1,50.09Z" transform="translate(-1.02 0)"/><path id="path1170" class="cls-21" d="M176.2,57.42a2,2,0,1,0,2,2A2,2,0,0,0,176.2,57.42Z" transform="translate(-1.02 0)"/></g></g><g id="g1184"><path id="path1176" class="cls-31" d="M165.39,79.65c-.8-.25-2,1.52-2.34,1.49-.39-1,.41-3.42,1.83-5.33,1-.31,1-.93,1.24-2.36.06-.43.89-.14.9.59a5.84,5.84,0,0,1-.1,1.89.66.66,0,0,0,.27.75C165.69,77.28,165.32,78,165.39,79.65Z" transform="translate(-1.02 0)"/><path id="path1178" class="cls-32" d="M166.1,73.47a3,3,0,0,1,.22,1.1,1.62,1.62,0,0,1-.36,1.06,3.44,3.44,0,0,1-1,.83,2.5,2.5,0,0,0-.74,1,3.46,3.46,0,0,0-.39,1.3c0,1.17-.26,2.19-.8,2.39a1,1,0,0,1-.76,0,2.54,2.54,0,0,1,.23-.8,2.61,2.61,0,0,0,.48-1.19,2.53,2.53,0,0,0,0-1.08c-.07-.38-.32-.52-.28-.87.09-.67.62-2,1.4-2s1.14-.08,1.54-1.1a2.79,2.79,0,0,1,.42-.69Z" transform="translate(-1.02 0)"/><path id="path1180" class="cls-33" d="M169,76.28a2.51,2.51,0,0,0-.7-.38,1.94,1.94,0,0,0-1.26-.05c-1.85.55-2.66,3.82-.63,4.6.4,0,.77-.31,1.13-1.1a6.18,6.18,0,0,1,1.35-2.21c.3-.37.31-.68.11-.86Z" transform="translate(-1.02 0)"/><path id="path1182" class="cls-34" d="M168.08,76.49c-1.78-.69-3.09,2.69-1.43,3.33.9.35,1-.76,1.15-1.37C168,77.62,169.79,77.15,168.08,76.49Z" transform="translate(-1.02 0)"/></g><path id="path1186" class="cls-35" d="M167.89,77c-.87-.33-2.06,1.68-1,2.14a1.12,1.12,0,0,0,1.55-.7A1,1,0,0,0,167.89,77Z" transform="translate(-1.02 0)"/><g id="g1202"><path id="path1188" class="cls-14" d="M155.78,60.75a2.1,2.1,0,1,0,2.1,2.1A2.1,2.1,0,0,0,155.78,60.75Z" transform="translate(-1.02 0)"/><path id="path1190" class="cls-14" d="M157.31,57.26a2.1,2.1,0,1,0,2.1,2.1A2.1,2.1,0,0,0,157.31,57.26Z" transform="translate(-1.02 0)"/><path id="path1192" class="cls-21" d="M152.28,45a2,2,0,1,0,2,2A2,2,0,0,0,152.28,45Z" transform="translate(-1.02 0)"/><g id="g1200"><path id="path1194" class="cls-14" d="M155.69,46.52a2.1,2.1,0,1,0,2.1,2.1A2.1,2.1,0,0,0,155.69,46.52Z" transform="translate(-1.02 0)"/><path id="path1196" class="cls-14" d="M158.19,49.49a2.1,2.1,0,1,0,2.1,2.1A2.1,2.1,0,0,0,158.19,49.49Z" transform="translate(-1.02 0)"/><path id="path1198" class="cls-14" d="M158.6,53.23a2.1,2.1,0,1,0,2.1,2.09A2.1,2.1,0,0,0,158.6,53.23Z" transform="translate(-1.02 0)"/></g></g></g><path id="path1206" class="cls-12" d="M168.67,76l-.22-.09a2.3,2.3,0,0,0,.42-2,1.81,1.81,0,0,1-.2,2.14" transform="translate(-1.02 0)"/><path id="path1208" class="cls-9" d="M152.26,67.38c-.44.55-.38.68-.62.84a1.23,1.23,0,0,1-1.12,0c-1.61-.61-1.61.65-1.14,2.1a15.28,15.28,0,0,0,1.21,2.06c.3.59.24,1,.37,1.18l1.31.19h0c.22,0,.72.1,1.29.16.19-.11.33-.52.86-1a21,21,0,0,0,2-1.52c1-1.13,1.54-2.22-.05-2.19a1.07,1.07,0,0,1-1-.34c-.14-.22,0-.32-.17-1a2.16,2.16,0,0,0-.44-1c-.2-.25-.5-.19-.77-.25s-.52-.21-.83,0a2.66,2.66,0,0,0-.89.76Z" transform="translate(-1.02 0)"/><path id="path1210" class="cls-12" d="M152.49,73.77h.26a7.76,7.76,0,0,1,2.08-3.12,6.14,6.14,0,0,0-2.34,3.13" transform="translate(-1.02 0)"/><path id="path1212" class="cls-12" d="M152,73.71l-.25-.08a6.51,6.51,0,0,0-.5-3.56,5.19,5.19,0,0,1,.75,3.64" transform="translate(-1.02 0)"/><path id="path1214" class="cls-9" d="M149.77,68.05a4.23,4.23,0,0,0,.35,1.42c.36.67,1.22.41,2.14-.23a1.63,1.63,0,0,1,1.15-.18,1.4,1.4,0,0,1,1,.53c.53.86,1.16,1.35,1.75.86a4.86,4.86,0,0,0,.91-1.14,1.62,1.62,0,0,0-.69-.1,1.08,1.08,0,0,1-1-.34c-.13-.22,0-.32-.17-1a2.25,2.25,0,0,0-.44-1c-.2-.24-.49-.18-.77-.24s-.52-.21-.82-.06a2.85,2.85,0,0,0-.9.77c-.44.55-.38.68-.62.84a1.26,1.26,0,0,1-1.12,0,1.84,1.84,0,0,0-.75-.16Z" transform="translate(-1.02 0)"/><path id="path1216" class="cls-42" d="M158.52,74.34c-.25-.3-.36-.24-.4-.43a1.73,1.73,0,0,1,.28-1c.77-1.49-.05-1.36-1.16-.78a6.15,6.15,0,0,0-.93.69c-.33.28-.65.57-.92.76-.56.39-.89.41-1,.56-.25.61-.45,1.14-.53,1.37h0c-.09.23-.29.76-.5,1.36,0,.17.35.22.58.65a16.16,16.16,0,0,0,.7,1.57c.42.55.8.87,1.1.82s.5-.49.58-1.44a1.73,1.73,0,0,1,.49-1c.19-.18.24-.1.71-.37a2.81,2.81,0,0,0,.77-.61,2,2,0,0,0,.34-.73,1.9,1.9,0,0,0,.23-.75,1.24,1.24,0,0,0-.28-.67Z" transform="translate(-1.02 0)"/><path id="path1218" class="cls-12" d="M153.66,76c0,.11,0,.21-.08.31a2.81,2.81,0,0,1,1.2.58,2.91,2.91,0,0,1,.8,1,2.1,2.1,0,0,0-.63-1.19,3,3,0,0,0-1.29-.72" transform="translate(-1.02 0)"/><path id="path1220" class="cls-12" d="M153.85,75.41c.05-.1.1-.2.14-.3a4.73,4.73,0,0,0,1.55-.4,6.83,6.83,0,0,0,1.47-.87,4.64,4.64,0,0,1-1.43,1.06,5.2,5.2,0,0,1-1.73.51" transform="translate(-1.02 0)"/><path id="path1222" class="cls-10" d="M158.66,71.93a3,3,0,0,0-.93.58,1.46,1.46,0,0,0-.5,1,3.49,3.49,0,0,0,.1,1.27,2.4,2.4,0,0,1-.18,1.19,3.27,3.27,0,0,1-.64,1.15c-.81.8-1.37,1.65-1.15,2.17a1.06,1.06,0,0,0,.49.59,2.26,2.26,0,0,0,.4-.7,2.46,2.46,0,0,1,.52-1.14c.2-.21.24-.45.73-.75.32-.19.59-.11.8-.37.42-.52,1-1.76.44-2.34s-.72-.88-.27-1.84a3.13,3.13,0,0,0,.19-.77Z" transform="translate(-1.02 0)"/><path id="path1224" class="cls-43" d="M144.57,76c.42.37.53.29.64.51a1.49,1.49,0,0,1-.05,1.09c-.5,1.56.45,1.42,1.6.83A18.44,18.44,0,0,0,148.52,77c.52-.38.88-.37,1-.53.14-.62.26-1.15.31-1.4s.17-.8.29-1.44c-.07-.2-.43-.29-.78-.81a15,15,0,0,0-1.18-2c-.95-1-1.9-1.41-1.95.49a1.83,1.83,0,0,1-.35,1.17c-.19.2-.27.09-.81.36a2.44,2.44,0,0,0-.84.66,1.59,1.59,0,0,0-.2.86c0,.29-.18.57-.06.86a2,2,0,0,0,.59.79Z" transform="translate(-1.02 0)"/><path id="path1226" class="cls-12" d="M149.9,74.81a2.83,2.83,0,0,0,0-.29,4.64,4.64,0,0,1-2.54-1.77,3.9,3.9,0,0,0,2.52,2.06" transform="translate(-1.02 0)"/><path id="path1228" class="cls-12" d="M149.79,75.3l-.09.27a5.41,5.41,0,0,0-3,1,4.56,4.56,0,0,1,3.12-1.3" transform="translate(-1.02 0)"/><g id="g1242"><path id="path1230" class="cls-44" d="M145,78.31a3.41,3.41,0,0,0,1.11-.5c.55-.42.39-1.24-.08-2.08a1.84,1.84,0,0,1-.09-1.17,2.08,2.08,0,0,1,.49-1.11c.77-.74,1.24-1.55.85-2.15a3,3,0,0,0-.95-.85,2.87,2.87,0,0,0-.12.83,1.84,1.84,0,0,1-.34,1.18c-.2.19-.28.09-.82.36a2.29,2.29,0,0,0-.83.65,1.74,1.74,0,0,0-.21.86c0,.29-.18.58-.06.87a2.15,2.15,0,0,0,.59.79c.42.36.53.29.65.51a1.49,1.49,0,0,1-.05,1.09,2.35,2.35,0,0,0-.14.72Z" transform="translate(-1.02 0)"/><g id="g1240"><path id="path1232" class="cls-9" d="M152.32,72.8a2.85,2.85,0,0,0-2.79,2.5,2.09,2.09,0,0,0,2,2.52,2.85,2.85,0,0,0,2.7-2.38,2.13,2.13,0,0,0-1.92-2.64Z" transform="translate(-1.02 0)"/><path id="path1234" class="cls-9" d="M152.22,73.49a2.11,2.11,0,0,0-2.05,1.82,1.55,1.55,0,0,0,1.47,1.87,2.12,2.12,0,0,0,2-1.76,1.56,1.56,0,0,0-1.42-1.93Z" transform="translate(-1.02 0)"/><path id="path1236" class="cls-30" d="M152.1,74.19a1.34,1.34,0,0,0-1.28,1.15,1,1,0,0,0,.92,1.17A1.29,1.29,0,0,0,153,75.4a1,1,0,0,0-.9-1.21Z" transform="translate(-1.02 0)"/><path id="path1238" class="cls-9" d="M160,98c.66.1,1,.51,1,.94s-.32.84-1,.93a3,3,0,0,1-.5.09A369.4,369.4,0,0,1,98,100a3.59,3.59,0,0,1-.51-.09c-.66-.09-1-.51-1-.93s.32-.84,1-.94A3.59,3.59,0,0,1,98,98a369.4,369.4,0,0,1,61.51,0A3.35,3.35,0,0,1,160,98Z" transform="translate(-1.02 0)"/></g></g></g><g id="g1472"><path id="path1246" class="cls-45" d="M105.64,99.36q3.84-.24,7.69-.39t7.69-.24c2.56,0,5.13-.07,7.69-.07s5.14,0,7.7.08,5.13.14,7.69.24,5.13.24,7.69.4" transform="translate(-1.02 0)"/><path id="path1248" class="cls-45" d="M105.64,99.43q3.84.24,7.69.4m30.77,0q3.85-.16,7.69-.4" transform="translate(-1.02 0)"/><path id="path1250" class="cls-46" d="M72.47,100.3v90.9A60.44,60.44,0,0,0,89,232.94a54.73,54.73,0,0,0,39.74,17.34h0a54.73,54.73,0,0,0,39.74-17.34A60.41,60.41,0,0,0,185,191.2V100.29Z" transform="translate(-1.02 0)"/><g id="g1470"><g id="g1308"><g id="g1294"><path id="path1252" class="cls-47" d="M129.23,245.59a3.74,3.74,0,0,0,1.93-.47c.83-.65.51-3.28.43-4.94-.38-8.5-.73-22.8-1.16-42.88a5.62,5.62,0,0,0-1.71,0,5.63,5.63,0,0,0-1.71,0c-.44,20.08-.78,34.38-1.17,42.88-.07,1.66-.4,4.29.43,4.94a3.75,3.75,0,0,0,1.94.47Z" transform="translate(-1.02 0)"/><path id="path1254" class="cls-21" d="M134.56,245.34a3.63,3.63,0,0,1-2-.28c-.88-.58-1-3.26-1-4.93-.39-8.49-1.18-22.72-2.56-42.76a5.25,5.25,0,0,1,1.7-.13l.23-.06c3.2,19.83,4.41,33.89,6.6,42.37.3,1.17.95,4.11-.06,5.06a3.58,3.58,0,0,1-1.89.64Z" transform="translate(-1.02 0)"/><path id="path1256" class="cls-21" d="M140.82,244.45a3.64,3.64,0,0,1-2-.11c-.94-.49-.9-3.17-1.31-4.78-2.19-8.49-3.4-22.56-6.6-42.39a5.86,5.86,0,0,1,1.69-.28l.07,0c5.08,19.27,6.6,32.86,10.55,41.26.37,1.16,1.36,4.25.41,5.33a3.57,3.57,0,0,1-1.82.8Z" transform="translate(-1.02 0)"/><path id="path1258" class="cls-48" d="M147.12,242.67c-.49.06-1.32.52-2.06.22-1-.4-1.13-3.27-1.83-4.76-4-8.44-5.48-22.11-10.62-41.53a5.71,5.71,0,0,1,1.65-.45,2.29,2.29,0,0,1,1.07-.41c6,19.18,7.91,32.52,13.54,40.8.91,1.33,1.58,4,1,4.86a3.56,3.56,0,0,1-1.73,1Z" transform="translate(-1.02 0)"/><path id="path1260" class="cls-21" d="M122.88,245.34a3.56,3.56,0,0,0,2-.28c.89-.58,1-3.26,1-4.93.39-8.49,1.18-22.72,2.56-42.76a5.25,5.25,0,0,0-1.7-.13l-.23-.06c-3.2,19.83-4.41,33.89-6.6,42.37-.3,1.17-1,4.11.06,5.06a3.58,3.58,0,0,0,1.89.64Z" transform="translate(-1.02 0)"/><path id="path1262" class="cls-21" d="M116.62,244.45a3.61,3.61,0,0,0,2-.11c.94-.49.9-3.17,1.32-4.78,2.19-8.49,3.39-22.56,6.59-42.39a5.81,5.81,0,0,0-1.69-.28l-.06,0c-5.09,19.27-6.61,32.86-10.56,41.26-.37,1.16-1.36,4.25-.41,5.33a3.65,3.65,0,0,0,1.82.8Z" transform="translate(-1.02 0)"/><path id="path1264" class="cls-48" d="M110.31,242.67c.49.06,1.32.52,2,.22,1-.4,1.13-3.27,1.84-4.76,4-8.44,5.48-22.11,10.62-41.53a5.71,5.71,0,0,0-1.65-.45,2.29,2.29,0,0,0-1.07-.41c-6,19.18-7.91,32.52-13.55,40.8-.91,1.33-1.57,4-1,4.86a3.56,3.56,0,0,0,1.73,1Z" transform="translate(-1.02 0)"/><path id="path1266" class="cls-49" d="M143.79,228.18a3.13,3.13,0,0,1-1.84,0c-.93-.44-1.55-3-2-4.64-4-7.89-7.65-21.9-13.64-41.37a4.44,4.44,0,0,1,1.49-.33,4,4,0,0,1,1.47-.39c6.45,19.26,9.34,33.19,15.65,40.86,1,1.27,1.81,4,1.32,4.83-.37.6-1.12.68-1.52.86Z" transform="translate(-1.02 0)"/><path id="path1268" class="cls-50" d="M138.69,229.18a3.15,3.15,0,0,1-1.82-.18c-.89-.52-1.2-3.15-1.52-4.79-1.61-8.39-4.58-22.48-8.8-42.26a4.43,4.43,0,0,1,1.51-.22,4.64,4.64,0,0,1,1.51-.27c5,19.65,6.15,34.37,10.87,41.93.86,1.37,1.34,4.15.76,4.91-.44.57-1.2.59-1.61.73Z" transform="translate(-1.02 0)"/><path id="path1270" class="cls-51" d="M133.49,229.77a3.09,3.09,0,0,1-1.79-.33c-.82-.59-.83-3.22-.95-4.89-.64-8.48-2-22.74-3.9-42.76a4.46,4.46,0,0,1,1.54-.1,4.6,4.6,0,0,1,1.53-.15c2.7,20,4.27,34.42,6,42.6.34,1.63.85,4.24.18,5-.5.53-1.25.49-1.68.61Z" transform="translate(-1.02 0)"/><path id="path1272" class="cls-49" d="M113.64,228.18a3.13,3.13,0,0,0,1.84,0c.94-.44,1.55-3,2-4.64,4-7.89,7.65-21.9,13.64-41.37a4.69,4.69,0,0,0-1.49-.34,4.22,4.22,0,0,0-1.46-.38c-6.45,19.26-9.35,33.19-15.66,40.86-1,1.27-1.81,4-1.31,4.83.37.6,1.12.68,1.51.86Z" transform="translate(-1.02 0)"/><path id="path1274" class="cls-50" d="M118.74,229.18a3.16,3.16,0,0,0,1.82-.18c.89-.52,1.2-3.15,1.51-4.79,1.62-8.4,4.59-22.48,8.81-42.26a4.46,4.46,0,0,0-1.52-.22,4.53,4.53,0,0,0-1.5-.27c-5,19.65-6.15,34.37-10.87,41.93-.86,1.37-1.34,4.15-.76,4.91.44.57,1.2.58,1.61.74Z" transform="translate(-1.02 0)"/><path id="path1276" class="cls-51" d="M123.94,229.77a3.17,3.17,0,0,0,1.79-.33c.82-.59.83-3.23,1-4.89.64-8.48,2-22.74,3.9-42.76a4.44,4.44,0,0,0-1.54-.1,4.57,4.57,0,0,0-1.53-.15c-2.7,20-4.27,34.41-6,42.6-.34,1.63-.86,4.24-.19,5a2.9,2.9,0,0,0,1.68.6Z" transform="translate(-1.02 0)"/><path id="path1278" class="cls-52" d="M129.18,229.94a3,3,0,0,0,1.74-.46c.75-.65.45-3.28.39-4.95-.35-8.49-.66-22.79-1.05-42.88a4.8,4.8,0,0,0-1.54,0,4.88,4.88,0,0,0-1.55,0c-.39,20.09-.7,34.39-1,42.88-.06,1.67-.36,4.3.39,4.95a3,3,0,0,0,1.74.46Z" transform="translate(-1.02 0)"/><path id="path1280" class="cls-53" d="M140.26,216.5c-.34,0-.86.3-1.4,0-.72-.44-1.19-3-1.58-4.64-3.06-7.89-5.86-21.9-10.44-41.37a19.4,19.4,0,0,0,2.26-.73c4.94,19.27,7.16,33.2,12,40.87.79,1.27,1.39,4,1,4.83-.29.6-.86.68-1.16.86Z" transform="translate(-1.02 0)"/><path id="path1282" class="cls-54" d="M136.35,217.51c-.34,0-.88.21-1.39-.19-.68-.51-.92-3.14-1.16-4.79-1.23-8.39-3.51-22.48-6.75-42.25a42,42,0,0,0,2.32-.49c3.83,19.65,4.71,34.37,8.33,41.92.65,1.38,1,4.16.57,4.91-.33.57-.91.59-1.23.74Z" transform="translate(-1.02 0)"/><path id="path1284" class="cls-55" d="M132.38,218.09c-.35-.05-.9.12-1.37-.33-.63-.58-.64-3.22-.73-4.89q-.74-12.72-3-42.76a2.64,2.64,0,0,1,1.18-.1,2.73,2.73,0,0,1,1.17-.15c2.07,20,3.28,34.41,4.59,42.6.26,1.63.65,4.24.14,4.95-.39.53-1,.49-1.29.61Z" transform="translate(-1.02 0)"/><path id="path1286" class="cls-53" d="M117.17,216.5c.35,0,.87.3,1.41,0,.72-.45,1.19-3,1.57-4.65,3.07-7.88,5.86-21.89,10.45-41.36a2.94,2.94,0,0,0-1.14-.34,2.82,2.82,0,0,0-1.13-.39c-4.94,19.27-7.16,33.2-12,40.87-.8,1.27-1.39,4-1,4.83.28.6.85.68,1.16.86Z" transform="translate(-1.02 0)"/><path id="path1288" class="cls-54" d="M121.08,217.5c.34,0,.88.21,1.39-.18.68-.52.92-3.15,1.16-4.79,1.23-8.4,3.51-22.48,6.75-42.26a2.74,2.74,0,0,0-1.17-.22,2.78,2.78,0,0,0-1.15-.27c-3.82,19.65-4.71,34.37-8.33,41.93-.65,1.37-1,4.15-.58,4.91.34.57.92.58,1.23.73Z" transform="translate(-1.02 0)"/><path id="path1290" class="cls-55" d="M125.06,218.09c.34,0,.9.12,1.37-.32.63-.59.63-3.23.73-4.89.49-8.49,1.51-22.74,3-42.77A2.73,2.73,0,0,0,129,170a2.63,2.63,0,0,0-1.18-.15c-2.07,20-3.27,34.41-4.58,42.6-.26,1.63-.66,4.24-.15,4.95.39.53,1,.48,1.29.6Z" transform="translate(-1.02 0)"/><path id="path1292" class="cls-56" d="M129.07,218.26c.34-.08.91,0,1.34-.47.57-.65.35-3.28.29-4.94-.26-8.5-.5-22.79-.8-42.88a2.53,2.53,0,0,0-1.18,0,2.54,2.54,0,0,0-1.18,0c-.3,20.09-.54,34.38-.8,42.88-.06,1.66-.28,4.29.29,4.94.43.49,1,.39,1.34.47Z" transform="translate(-1.02 0)"/></g><g id="g1306"><path id="path1296" class="cls-57" d="M105.21,195.24c-1.07,0-2.39.66-6.24,4a55.06,55.06,0,0,1-5.71,9.86,9.35,9.35,0,0,1-2.06,1.1,24.86,24.86,0,0,1-5.63-.15c-1.51-1.37-3.83-.39-3,1-.6.57.72,2.65,1.78,1.79s4.36,0,5.48-.46c-.42,1-3.48,1.68-5.62,1.83-2,.09-1.82,2-1,3.53.92.58.16-.15.5.27.87,1.3,2.74,1.13,2.8-.14s4.63-3,5.32-4c-.84,2-2.77,3.85-3.73,5.8-1,1-1.65,1.24-.32,3.32,1.48-.17,1.56-.56,2.47.3,2-.22,2.35-.82,2-2.42s1.06-4.74,1.53-5.6a17.68,17.68,0,0,1,1-2.12c.74-.86,4.22-2.6,5.12-2.12,1.64.87,2.89.35,3.1-1.25-.53-.4-.13-2.66-1.27-2.76a2.89,2.89,0,0,0-2.33.91c-1.35,1.09-2,1.68-2.48,1.56-1-.29,1.9-1.74,4.58-5.26,3.72-4.88,4-7.35,3.8-9Z" transform="translate(-1.02 0)"/><path id="path1298" class="cls-58" d="M82.75,212c-1.35-.79-2.12-.76-2.65-.18-.29.33-.65.16-.44-.35.9-2.11,2.33-2.37,3.61-1.38.36.33.64.61.93.9-.21.32-1.28.76-1.45,1Z" transform="translate(-1.02 0)"/><path id="path1300" class="cls-59" d="M102,210.11c1.43-1,2.77-1.16,3.5-.62.4.3.8.09.45-.41-1.49-2.09-3.22-2.19-4.53-1-.36.39-.64.72-.93,1.05a4.66,4.66,0,0,0,1.51,1Z" transform="translate(-1.02 0)"/><path id="path1302" class="cls-60" d="M90.77,222.05c-.88,1.73-1.34,2.92-1,3.85.22.55,0,1-.58.57-2.23-1.91-2.24-4.11-.81-5.6a12.93,12.93,0,0,1,1.44-1.18,5.05,5.05,0,0,1,.91,2.36Z" transform="translate(-1.02 0)"/><path id="path1304" class="cls-61" d="M85.19,217.49c-1.33.55-1.78,1.25-1.74,2.17,0,.5-.3.69-.49.1-1.62-3.76.06-4.47,2.5-4.33a5.13,5.13,0,0,1-.27,2.06Z" transform="translate(-1.02 0)"/></g></g><g id="g1320"><path id="path1310" class="cls-62" d="M96.62,209.1c-.87-.5-.92-1.07-.69-1.45.48-.8,1-.41,1.89.33" transform="translate(-1.02 0)"/><path id="path1312" class="cls-62" d="M97.76,207.87c-.88-.51-.93-1.07-.7-1.45.49-.8,1-.42,1.89.33" transform="translate(-1.02 0)"/><path id="path1314" class="cls-63" d="M99,206.71c-1-.66-1-1.4-.77-1.89.53-1,1.07-.55,2.08.42" transform="translate(-1.02 0)"/><path id="path1316" class="cls-64" d="M100.4,205.24c-1-.75-1.09-1.58-.82-2.14.57-1.18,1.14-.61,2.22.48" transform="translate(-1.02 0)"/><path id="path1318" class="cls-65" d="M101.84,203.68c-1-.8-1.25-1.58-.81-2.27.68-1.08,1.14-.65,2.21.51" transform="translate(-1.02 0)"/></g><g id="g1366"><path id="path1322" class="cls-66" d="M114.76,118.94c-.68.59-2.93.6-6,.8-5,.17-7.86-1.33-8.49-4.51,1.86,2.22,4.09,3.32,6.62,2.7,3.41-.85,5.36-1.45,6.14-1.3a4.26,4.26,0,0,1,1.75,2.31Z" transform="translate(-1.02 0)"/><g id="g1364"><path id="path1324" class="cls-21" d="M126.28,186.73c0,1.42,0,3-.06,4.66h0l-3.56.73c0,1.62,4,18.58,6.07,18.58s6.07-17,6.06-18.59l-3.55-.72h0c0-1.64,0-3.24-.05-4.66a28,28,0,0,0-2.44,2.67,29.44,29.44,0,0,0-2.44-2.67Z" transform="translate(-1.02 0)"/><g id="g1338"><path id="path1326" class="cls-67" d="M122.16,193.93l-3.18-1.8c-1.34,1-2.34,4.53,0,7.44a22.24,22.24,0,0,1,4.71,9.21c2.08-2.66,2.8-5.45,1.48-8.18-1.78-3.68-2.94-5.75-3-6.67Z" transform="translate(-1.02 0)"/><path id="path1328" class="cls-67" d="M124.76,191.38l-3.18-1.8c-1.34,1-4.14,4.42-1.85,7.33,2.85,3.64,5.82,6.38,6.52,9.32,2.07-2.65,3-5.45,1.64-8.17-1.78-3.68-3.11-5.75-3.13-6.68Z" transform="translate(-1.02 0)"/><path id="path1330" class="cls-67" d="M135.27,193.93l3.18-1.81c1.35,1,2.34,4.53.05,7.45a22.12,22.12,0,0,0-4.71,9.21c-2.08-2.66-2.79-5.46-1.47-8.18,1.78-3.68,2.93-5.75,3-6.67Z" transform="translate(-1.02 0)"/><path id="path1332" class="cls-67" d="M132.67,191.38l3.18-1.8c1.34,1,4.14,4.41,1.85,7.33-2.85,3.63-5.81,6.38-6.51,9.32-2.08-2.66-3-5.45-1.65-8.18,1.78-3.67,3.11-5.75,3.13-6.67Z" transform="translate(-1.02 0)"/><path id="path1334" class="cls-67" d="M117.73,190.09l-3.18-1.8c-1.34,1-2.33,4.53,0,7.45a22.3,22.3,0,0,1,4.71,9.21c2.07-2.66,2.79-5.46,1.47-8.18-1.78-3.68-2.94-5.75-3-6.68Z" transform="translate(-1.02 0)"/><path id="path1336" class="cls-67" d="M139.7,190.09l3.18-1.8c1.34,1,2.33,4.53,0,7.44a22.2,22.2,0,0,0-4.7,9.21c-2.08-2.66-2.79-5.45-1.47-8.18,1.77-3.68,2.93-5.75,2.95-6.67Z" transform="translate(-1.02 0)"/></g><g id="g1362"><path id="path1340" class="cls-68" d="M103,156.53c.06,2.91-.46,22.3-.62,25a7.73,7.73,0,0,1-2.67,5.66,12.14,12.14,0,0,1-2-6.42c-.09-1.33.16-19.68.26-23.45,2.17-5.75,3.79-6,5.08-.83Z" transform="translate(-1.02 0)"/><path id="path1342" class="cls-68" d="M90.36,151.79l-.82,26.66c-.26,2.37,2.82,16.44,4.51,19.22,4.17-1.78,5-11.33,4.27-20.64s.13-17.34.77-19c0-2.11-.3-4.3-.32-6.49-2.66.16-5.75.1-8.41.26Z" transform="translate(-1.02 0)"/><path id="path1344" class="cls-68" d="M85.41,156.15,86,182.82c-.14,2.37,3.68,16.26,5.51,18.94,4.23-3.28,3.38-16.69,2.73-20.74-1.29-8.09-1.07-17.45-.63-19,0-2.11-.11-4.63-.24-6.82l-7.94.92Z" transform="translate(-1.02 0)"/><path id="path1346" class="cls-68" d="M81.74,162.46l7-.17c-.6,2.91-.12,11.94,1.09,18.83,1.14,6.46,2.72,23.21-4,27.23-4.18-8.84-1-17.42-3.1-25.1-1.65-8.16-2-15-1-20.79Z" transform="translate(-1.02 0)"/><path id="path1348" class="cls-68" d="M108.58,151.63c0,2.91-1.13,22.28-1.38,25a7.7,7.7,0,0,1-2.83,5.56,12.1,12.1,0,0,1-1.87-6.48c0-1.33.76-19.66,1-23.43,2.35-5.68,4-5.85,5.1-.67Z" transform="translate(-1.02 0)"/><path id="path1350" class="cls-68" d="M96.11,135.83c-.19,6.25-.3,19.81-.26,21a16.63,16.63,0,0,0,2.25,7.58,7.71,7.71,0,0,0,2.84-5.56c.2-2.24.27-13.23.3-18.74a23.91,23.91,0,0,1-4-3.26s-1-.92-1.08-1Z" transform="translate(-1.02 0)"/><path id="path1352" class="cls-68" d="M101.12,139.86c-.13,6.73-.05,17.34,0,18.2a12.13,12.13,0,0,0,1.86,6.48,8,8,0,0,0,3-5.63c.15-1.68.62-8.86.66-14.38-1.78-.56-4-3.47-5.46-4.67Z" transform="translate(-1.02 0)"/><path id="path1354" class="cls-68" d="M96.8,135.27,92,128.39c-1,3.4-2.14,27.74-.76,29.73a12.23,12.23,0,0,0,2.17,6.48c1.32-1,3.3-2.87,2.73-5.63s.06-20.86.64-23.7Z" transform="translate(-1.02 0)"/><path id="path1356" class="cls-68" d="M87,150.58c-.22,3.77-.37,6.32-.32,7.64a12.08,12.08,0,0,0,1.86,6.49,6.51,6.51,0,0,0,2.83-5.57c-.67-10.54.49-20.47,1.83-30-1.13-.83-3-1.72-4.18-2.55-2.26,12.85-3,20.83-2,24Z" transform="translate(-1.02 0)"/><path id="path1358" class="cls-69" d="M82.22,157.48l1.3,4.9c.09,2.61,1.7,4.76,2.83,6.42a5.58,5.58,0,0,0,2.19-5.42c-1.94-15.57-1.24-25.87,2-38.56-7.4,5.05-10.83,15.68-8.35,32.66Z" transform="translate(-1.02 0)"/><path id="path1360" class="cls-68" d="M82.61,162.3l-6.79-2.25c-.86,6.77.46,15.28,2.29,26.51a56.22,56.22,0,0,1-.45,22.15c7.24-1,10.3-10.31,6.67-27.84a78.16,78.16,0,0,1-1.72-18.57Z" transform="translate(-1.02 0)"/></g></g></g><path id="path1368" class="cls-70" d="M82.4,195.09A59.3,59.3,0,0,0,81,181.57a84.4,84.4,0,0,1-1.81-16.78" transform="translate(-1.02 0)"/><g id="g1434"><g id="g1386"><path id="path1370" class="cls-69" d="M82.34,122.44l4.45.75c-.22,1-1.35,6.8-1.55,7.8a87.54,87.54,0,0,0-1.51,28.23,30.14,30.14,0,0,0,2.51,9.56c-4.88-.56-8-5.32-7.61-13.63-.85-9.7-.48-17.42,1.1-23.22.46-1.71,1.94-8.12,2.61-9.49Z" transform="translate(-1.02 0)"/><path id="path1372" class="cls-68" d="M79.64,123.49l2.18,2.5c-.62.44.44,2.35-.13,6.06-.37,2.11-1.62,4.59-1.88,7.28-.86,8.91-.87,20.07,1.82,27.2-4.89-.55-6.57-5-6.73-13.29a116.63,116.63,0,0,1,1.58-24.35,8.58,8.58,0,0,1,3.16-5.4Z" transform="translate(-1.02 0)"/><path id="path1374" class="cls-71" d="M91.84,130.05l-4.51-.52c-.83,4.25-1.46,7.27-1.62,8.78A14.12,14.12,0,0,0,87.35,146c1.66-1,2.43-3.19,3.13-6.25s.88-6.43,1.36-9.74Z" transform="translate(-1.02 0)"/><path id="path1376" class="cls-72" d="M103.54,139.64l-4,0c-.14,3.68-.23,6.16-.17,7.46a12.3,12.3,0,0,0,1.85,6.29,7.6,7.6,0,0,0,2.55-5.45c.18-2.67-.2-5.51-.23-8.34Z" transform="translate(-1.02 0)"/><path id="path1378" class="cls-73" d="M107.85,141.54l-4,.18c0,3.67,0,6.16.09,7.45A12.38,12.38,0,0,0,106,155.4a7.59,7.59,0,0,0,2.36-5.54c.09-2.67-.39-5.49-.52-8.32Z" transform="translate(-1.02 0)"/><path id="path1380" class="cls-14" d="M99.47,137.58l-4-.28c-.44,3.65-.74,6.11-.78,7.41A12.35,12.35,0,0,0,96,151.14a7.55,7.55,0,0,0,3-5.23c.4-2.64.25-5.51.46-8.33Z" transform="translate(-1.02 0)"/><path id="path1382" class="cls-74" d="M95.72,133.27l-4.38-1.81c-.74,3-1.75,12.69,0,16.8a8.46,8.46,0,0,0,3.42-5.78c.5-2.93.64-6.06.92-9.21Z" transform="translate(-1.02 0)"/><path id="path1384" class="cls-75" d="M89.93,128.45l-7,.62a50,50,0,0,0-3.18,10.78c3.24-.57,5.59-2.16,6.44-5.07a14.19,14.19,0,0,1,3.73-6.33Z" transform="translate(-1.02 0)"/></g><g id="g1408"><g id="g1394"><path id="path1388" class="cls-76" d="M97,234.32c2.67,2.14,5.12-2.75,2.75-9.21-1.76-4.79-10.33-2.93-5.55,3.51.22.3.54.16.5-.19-.27-1.32.57-2.09,1.87-1.84,3.55.66,3.66,7.39-.2,5.86-.71,0-.07,1.31.63,1.87Z" transform="translate(-1.02 0)"/><path id="path1390" class="cls-76" d="M105.8,234.32c-2.67,2.14-5.12-2.75-2.75-9.21,1.76-4.79,10.33-2.93,5.55,3.51-.22.3-.54.16-.5-.19.28-1.32-.57-2.09-1.87-1.84-3.55.66-3.66,7.39.2,5.86.71,0,.08,1.31-.63,1.87Z" transform="translate(-1.02 0)"/><path id="path1392" class="cls-76" d="M101.16,213.55v0a11.79,11.79,0,0,1-2.66,3.58,4.17,4.17,0,0,0-.11,5.41,9.49,9.49,0,0,1,1.94,4.3,16.57,16.57,0,0,1,.27,5.2,3.57,3.57,0,0,1-1.67,2.6c-.38.3.16,1,1.43,2a1.75,1.75,0,0,1,.69,1c.07.16.66.16.73,0a1.7,1.7,0,0,1,.7-1c1.26-1,1.81-1.67,1.42-2a3.56,3.56,0,0,1-1.66-2.6,16.68,16.68,0,0,1,.26-5.2,9.63,9.63,0,0,1,2-4.3,4.19,4.19,0,0,0-.11-5.41,11.79,11.79,0,0,1-2.66-3.58v0c0-.22-.14-.33-.26-.33s-.24.11-.26.33Z" transform="translate(-1.02 0)"/></g><path id="path1396" class="cls-11" d="M99.49,229.06h3.86a1.19,1.19,0,1,1,0,2.38H99.49a1.19,1.19,0,1,1,0-2.38Z" transform="translate(-1.02 0)"/><g id="g1404"><path id="path1398" class="cls-76" d="M151.63,234.32c2.67,2.14,5.11-2.75,2.75-9.21-1.76-4.79-10.33-2.93-5.56,3.51.23.3.55.16.5-.19-.27-1.32.58-2.09,1.87-1.84,3.55.66,3.67,7.39-.19,5.86-.71,0-.08,1.31.63,1.87Z" transform="translate(-1.02 0)"/><path id="path1400" class="cls-76" d="M160.4,234.32c-2.67,2.14-5.12-2.75-2.75-9.21,1.75-4.79,10.33-2.93,5.55,3.51-.22.3-.54.16-.5-.19.27-1.32-.57-2.09-1.87-1.84-3.55.66-3.66,7.39.2,5.86.71,0,.07,1.31-.63,1.87Z" transform="translate(-1.02 0)"/><path id="path1402" class="cls-76" d="M155.75,213.55v0a11.79,11.79,0,0,1-2.66,3.58,4.19,4.19,0,0,0-.11,5.41,9.63,9.63,0,0,1,2,4.3,16.68,16.68,0,0,1,.26,5.2,3.55,3.55,0,0,1-1.67,2.6c-.38.3.16,1,1.43,2a1.7,1.7,0,0,1,.7,1c.07.16.65.16.72,0a1.7,1.7,0,0,1,.7-1c1.26-1,1.81-1.67,1.43-2a3.57,3.57,0,0,1-1.67-2.6,17,17,0,0,1,.26-5.2,9.63,9.63,0,0,1,1.95-4.3,4.19,4.19,0,0,0-.11-5.41,11.79,11.79,0,0,1-2.66-3.58v0c0-.22-.14-.33-.26-.33s-.24.11-.26.33Z" transform="translate(-1.02 0)"/></g><path id="path1406" class="cls-11" d="M154.09,229.06H158a1.19,1.19,0,1,1,0,2.38h-3.86a1.19,1.19,0,1,1,0-2.38Z" transform="translate(-1.02 0)"/></g><g id="g1432"><path id="path1410" class="cls-68" d="M154.45,156.53c-.06,2.91.45,22.3.61,25a7.8,7.8,0,0,0,2.67,5.66,12.23,12.23,0,0,0,2.06-6.42c.08-1.33-.16-19.68-.26-23.45-2.18-5.75-3.79-6-5.08-.83Z" transform="translate(-1.02 0)"/><path id="path1412" class="cls-68" d="M167.08,151.79l.82,26.66c.26,2.37-2.83,16.44-4.51,19.22-4.18-1.78-5.06-11.33-4.27-20.64s-.13-17.34-.77-19c0-2.11.3-4.3.32-6.49,2.66.16,5.75.1,8.41.26Z" transform="translate(-1.02 0)"/><path id="path1414" class="cls-68" d="M172,156.15l-.57,26.67c.14,2.37-3.68,16.26-5.5,18.94-4.24-3.28-3.39-16.69-2.74-20.74,1.3-8.09,1.08-17.45.63-19,0-2.11.11-4.63.24-6.82l7.94.92Z" transform="translate(-1.02 0)"/><path id="path1416" class="cls-68" d="M175.69,162.46l-7-.17c.6,2.91.12,11.94-1.09,18.83-1.13,6.46-2.72,23.21,4,27.23,4.17-8.84,1-17.42,3.1-25.1,1.64-8.16,2-15,1-20.79Z" transform="translate(-1.02 0)"/><path id="path1418" class="cls-68" d="M148.85,151.63c0,2.91,1.14,22.28,1.38,25a7.71,7.71,0,0,0,2.84,5.56,12.19,12.19,0,0,0,1.86-6.48c0-1.33-.76-19.66-1-23.43-2.35-5.68-4-5.85-5.11-.67Z" transform="translate(-1.02 0)"/><path id="path1420" class="cls-68" d="M161.33,135.83c.19,6.25.29,19.81.25,21a16.63,16.63,0,0,1-2.25,7.58,7.7,7.7,0,0,1-2.83-5.56c-.2-2.24-.27-13.23-.31-18.74a23.15,23.15,0,0,0,4.05-3.26s1-.92,1.09-1Z" transform="translate(-1.02 0)"/><path id="path1422" class="cls-68" d="M156.31,139.86c.12,6.73.05,17.34,0,18.2a12.22,12.22,0,0,1-1.86,6.48,8,8,0,0,1-3-5.63c-.15-1.68-.62-8.86-.67-14.38,1.78-.56,4-3.47,5.47-4.67Z" transform="translate(-1.02 0)"/><path id="path1424" class="cls-68" d="M160.63,135.27l4.77-6.88c1,3.4,2.15,27.74.76,29.73A12.22,12.22,0,0,1,164,164.6c-1.32-1-3.3-2.87-2.73-5.63s-.07-20.86-.64-23.7Z" transform="translate(-1.02 0)"/><path id="path1426" class="cls-68" d="M170.43,150.58c.21,3.77.37,6.32.32,7.64a12.25,12.25,0,0,1-1.86,6.49,6.52,6.52,0,0,1-2.84-5.57c.67-10.54-.48-20.47-1.83-30,1.14-.83,3.05-1.72,4.18-2.55,2.27,12.85,3,20.83,2,24Z" transform="translate(-1.02 0)"/><path id="path1428" class="cls-69" d="M175.2,157.48l-1.29,4.9c-.09,2.61-1.7,4.76-2.84,6.42a5.59,5.59,0,0,1-2.18-5.42c1.94-15.57,1.24-25.87-2-38.56,7.4,5.05,10.83,15.68,8.34,32.66Z" transform="translate(-1.02 0)"/><path id="path1430" class="cls-68" d="M174.82,162.3l6.79-2.25c.87,6.77-.46,15.28-2.29,26.51a56.41,56.41,0,0,0,.45,22.15c-7.24-1-10.3-10.31-6.67-27.84a78.16,78.16,0,0,0,1.72-18.57Z" transform="translate(-1.02 0)"/></g></g><path id="path1436" class="cls-70" d="M175,195.09a58.74,58.74,0,0,1,1.45-13.52,83.67,83.67,0,0,0,1.81-16.78" transform="translate(-1.02 0)"/><g id="g1466"><g id="g1458"><path id="path1438" class="cls-69" d="M175.1,122.44l-4.46.75c.22,1,1.35,6.8,1.56,7.8a87.84,87.84,0,0,1,1.5,28.23,29.62,29.62,0,0,1-2.51,9.56c4.89-.56,8-5.32,7.61-13.63.85-9.7.48-17.42-1.09-23.22-.46-1.71-2-8.12-2.61-9.49Z" transform="translate(-1.02 0)"/><path id="path1440" class="cls-68" d="M177.8,123.49l-2.19,2.5c.62.44-.43,2.35.13,6.06.37,2.11,1.63,4.59,1.89,7.28.86,8.91.86,20.07-1.82,27.2,4.89-.55,6.56-5,6.72-13.29A116.56,116.56,0,0,0,181,128.89a8.66,8.66,0,0,0-3.16-5.4Z" transform="translate(-1.02 0)"/><path id="path1442" class="cls-71" d="M165.59,130.05l4.51-.52c.83,4.25,1.46,7.26,1.62,8.78a14.05,14.05,0,0,1-1.64,7.73c-1.66-1-2.43-3.19-3.13-6.25s-.88-6.44-1.36-9.74Z" transform="translate(-1.02 0)"/><path id="path1444" class="cls-72" d="M153.89,139.64l4,0c.14,3.67.24,6.16.17,7.45a12.31,12.31,0,0,1-1.85,6.3,7.6,7.6,0,0,1-2.54-5.46c-.18-2.66.19-5.5.22-8.33Z" transform="translate(-1.02 0)"/><path id="path1446" class="cls-73" d="M149.58,141.54l4,.18c0,3.67,0,6.16-.09,7.45a12.38,12.38,0,0,1-2.07,6.23,7.58,7.58,0,0,1-2.35-5.54c-.09-2.67.39-5.49.51-8.32Z" transform="translate(-1.02 0)"/><path id="path1448" class="cls-14" d="M158,137.58l4-.29c.43,3.65.73,6.12.77,7.42a12.29,12.29,0,0,1-1.33,6.42,7.6,7.6,0,0,1-3-5.22c-.4-2.65-.25-5.51-.45-8.33Z" transform="translate(-1.02 0)"/><path id="path1450" class="cls-74" d="M161.71,133.27l4.38-1.81c.74,2.95,1.75,12.68,0,16.79a8.44,8.44,0,0,1-3.42-5.77c-.49-2.94-.64-6.06-.92-9.21Z" transform="translate(-1.02 0)"/><g id="g1456"><path id="path1452" class="cls-75" d="M167.5,128.44l7,.63a50.45,50.45,0,0,1,3.19,10.78c-3.25-.57-5.6-2.17-6.45-5.07a14.32,14.32,0,0,0-3.73-6.34Z" transform="translate(-1.02 0)"/><path id="path1454" class="cls-77" d="M146.92,138.4a11.67,11.67,0,0,0,1.62-.46,22.21,22.21,0,0,1-7.21-7.41c-2.58-4,1.14-11,2.66-14.79a17.71,17.71,0,0,0,7.15-10.39c.38-2.46-6.41-1.57-11.08.63-5.7,2.69-6.48,1.94-8.51,2.4-.73,3.49.79,3.78,2.25,3.61-3.15,5-4.46,10.05-5.09,17.26-.62-7.21-1.93-12.22-5.08-17.26,1.46.17,3-.12,2.25-3.61-2-.46-2.81.29-8.52-2.4-4.66-2.2-11.45-3.09-11.07-.63a17.74,17.74,0,0,0,7.14,10.39c1.53,3.75,5.25,10.83,2.66,14.79a22.12,22.12,0,0,1-7.21,7.41,11.79,11.79,0,0,0,1.63.46c-.38.53-3.71,1.56-4.1,1.29-2.54-1.8-5-6-7.18-8.47-6.12-6.94-9.18-12.29-8.1-16.61,1.54-4.66,7-9.88-.24-9S77.6,116.5,75.66,128.48c-.71,4.45-1.13,8.17-1.62,11.22,4-1.42,5.73-2.82,6.78-4.57a41.46,41.46,0,0,0-1.07,4.73c3.25-.58,5.6-2.17,6.45-5.08a15.54,15.54,0,0,1,1.19-3,7,7,0,0,0,3.87,0c.59,1.42,5.07,6.4,7.47,10,2.71,4.13,6.79,7.28,8.13,7.46.67.08.88-1.41.73-3.46,7.09.05,14.18.09,21.12-.14,6.95.23,14,.19,21.13.14-.15,2.05,0,3.54.73,3.46,1.34-.18,5.42-3.33,8.13-7.46,2.4-3.65,6.87-8.63,7.47-10a6.93,6.93,0,0,0,3.86,0,14.89,14.89,0,0,1,1.2,3c.84,2.91,3.2,4.5,6.44,5.08a39.43,39.43,0,0,0-1.07-4.73c1.06,1.75,2.81,3.15,6.78,4.57-.48-3-.9-6.77-1.62-11.22-1.93-12-8-21.94-15.23-22.85s-1.78,4.32-.24,9c1.08,4.32-2,9.67-8.1,16.61-2.16,2.45-4.64,6.67-7.18,8.47-.39.28-3.71-.76-4.1-1.29Z" transform="translate(-1.02 0)"/></g></g><g id="g1464"><path id="path1460" class="cls-66" d="M142.67,118.93c.68.6,2.94.61,6,.8,5,.18,7.86-1.32,8.5-4.5-1.87,2.22-4.09,3.32-6.62,2.69-3.41-.84-5.37-1.45-6.15-1.3a4.39,4.39,0,0,0-1.75,2.31Z" transform="translate(-1.02 0)"/><path id="path1462" class="cls-78" d="M154.31,105.86c5.57.61,5.3,4.25.09,9.4-1,1-1.34,1-1.55-.07-.37-1.79-2.36-2.85-3.4-1.48-.71.92-.55,1.46-2.91,1.13-3,2.5-5.41,4.25-1.51,4.11,1.72-.07,3,.93,5.28.85-.67,1.28-.78,1.43-1.14,1.54-2.17.42-4.46-.93-6.64-.53-4.8.89,7.68-12.94,7.52-13.49-.39-1.39,3-3.88,4.26-1.46Z" transform="translate(-1.02 0)"/></g></g><path id="path1468" class="cls-79" d="M154.17,105.74a8.41,8.41,0,0,1-2.64,3.62" transform="translate(-1.02 0)"/></g></g><path id="path1474" class="cls-12" d="M155.36,108.42a.48.48,0,0,0-.52-.41.44.44,0,0,0-.4.51.47.47,0,0,0,.52.4.43.43,0,0,0,.4-.5" transform="translate(-1.02 0)"/><g id="g1482"><path id="path1476" class="cls-80" d="M107.71,107.26c1.5-.08,3,.58,5,1.3a12.11,12.11,0,0,0,3.1.88" transform="translate(-1.02 0)"/><path id="path1478" class="cls-81" d="M123.72,112a30.28,30.28,0,0,1-3.29-.69" transform="translate(-1.02 0)"/><path id="path1480" class="cls-82" d="M108.9,107.37c.63,1.15,1.38,2.71,2.7,3.45,1,.56,2.11-.32,2.92-1.83" transform="translate(-1.02 0)"/></g><path id="path1484" class="cls-12" d="M111.07,110.27l-.73-.74c-.36-.45-.15-1,.62-1.81l1.47.63a2.77,2.77,0,0,1-1.36,1.92" transform="translate(-1.02 0)"/><path id="path1486" class="cls-82" d="M148.53,107.37c-.63,1.15-1.37,2.71-2.7,3.45-1,.56-2.1-.32-2.91-1.83" transform="translate(-1.02 0)"/><path id="path1488" class="cls-12" d="M146.36,110.27l.73-.74c.36-.45.15-1-.62-1.81l-1.47.63a2.77,2.77,0,0,0,1.36,1.92" transform="translate(-1.02 0)"/><g id="g1528"><g id="g1522"><path id="path1490" class="cls-80" d="M149.72,107.26c-1.49-.08-3,.58-5,1.3a12.11,12.11,0,0,1-3.1.88" transform="translate(-1.02 0)"/><path id="path1492" class="cls-81" d="M133.71,112a26,26,0,0,0,3.29-.69" transform="translate(-1.02 0)"/><g id="g1514"><g id="g1502"><path id="path1494" class="cls-83" d="M108.89,137.94c3.18,1.12,6.06.9,8.21-1.22l1-1" transform="translate(-1.02 0)"/><path id="path1496" class="cls-83" d="M118.46,133.81a19.77,19.77,0,0,1-1.6,5.56,8.63,8.63,0,0,0,5.1-3.16" transform="translate(-1.02 0)"/><path id="path1498" class="cls-83" d="M128.68,140.4a12.29,12.29,0,0,1-3-7.34" transform="translate(-1.02 0)"/><path id="path1500" class="cls-83" d="M121.51,133.5a11.14,11.14,0,0,0,1.81,5.41,7.18,7.18,0,0,0,2.6-4.06" transform="translate(-1.02 0)"/></g><g id="g1512"><path id="path1504" class="cls-83" d="M148.55,137.94c-3.19,1.12-6.06.9-8.22-1.22l-1-1" transform="translate(-1.02 0)"/><path id="path1506" class="cls-83" d="M139,133.81a19.77,19.77,0,0,0,1.61,5.56,8.57,8.57,0,0,1-5.1-3.16" transform="translate(-1.02 0)"/><path id="path1508" class="cls-83" d="M135.91,133.5a11.14,11.14,0,0,1-1.8,5.41,7.25,7.25,0,0,1-2.61-4.06" transform="translate(-1.02 0)"/><path id="path1510" class="cls-83" d="M128.75,140.4a12.29,12.29,0,0,0,2.95-7.34" transform="translate(-1.02 0)"/></g></g><g id="g1520"><path id="path1516" class="cls-84" d="M87.3,121c-2.52,1.8-7.17,14.84-7.53,18.67-.83,8.85-.79,19.8,1.85,26.84" transform="translate(-1.02 0)"/><path id="path1518" class="cls-84" d="M170.13,121c2.52,1.8,7.17,14.84,7.53,18.67.82,8.85.79,19.8-1.85,26.84" transform="translate(-1.02 0)"/></g></g><path id="path1524" class="cls-85" d="M103.13,105.86c-5.58.61-5.31,4.25-.1,9.4,1,1,1.34,1,1.55-.07.38-1.79,2.36-2.85,3.4-1.48.71.92.55,1.46,2.92,1.13,3,2.5,5.41,4.25,1.5,4.11-1.71-.07-3,.93-5.27.85.66,1.28.78,1.43,1.13,1.54,2.17.42,4.46-.93,6.65-.53,4.79.89-7.68-12.94-7.53-13.49.39-1.39-3-3.88-4.25-1.46Z" transform="translate(-1.02 0)"/><path id="path1526" class="cls-79" d="M103.26,105.74a8.41,8.41,0,0,0,2.64,3.62" transform="translate(-1.02 0)"/></g><path id="path1530" class="cls-12" d="M102.07,108.42a.49.49,0,0,1,.53-.41.44.44,0,0,1,.4.51.48.48,0,0,1-.53.4.44.44,0,0,1-.4-.5" transform="translate(-1.02 0)"/><g id="g1606"><g id="g1558"><g id="g1544"><path id="path1532" class="cls-86" d="M106.89,193.45l.13-3.65c-1.47-.75-5.09,0-6.62,3.39a22.28,22.28,0,0,1-6,8.43c3.32.62,6.12,0,7.93-2.47,2.45-3.27,3.75-5.25,4.56-5.7Z" transform="translate(-1.02 0)"/><path id="path1534" class="cls-87" d="M109.58,193.94l-4-1.67c-1.62,3.31-2.73,5.54-3.19,6.75a11.62,11.62,0,0,0-.73,6.54,7.5,7.5,0,0,0,4.72-3.9c1.26-2.36,2-5.12,3.15-7.72Z" transform="translate(-1.02 0)"/><path id="path1536" class="cls-88" d="M110.73,193.93l-4.24-.64c-.77,3.59-1.3,6-1.45,7.31a11.66,11.66,0,0,0,.89,6.53,7.48,7.48,0,0,0,3.62-4.94c.65-2.59.72-5.46,1.18-8.25Z" transform="translate(-1.02 0)"/><path id="path1538" class="cls-89" d="M111.35,188.17l2.53,0c1.48.73,3,4.09,1.24,7.34a22.31,22.31,0,0,0-3.17,9.84c-2.47-2.29-3.63-4.93-2.76-7.84,1.16-3.91,2.3-8.41,2.16-9.32Z" transform="translate(-1.02 0)"/><path id="path1540" class="cls-90" d="M112.49,186.4l-4-1.43c-1.43,3.39-2.4,5.68-2.79,6.92a11.56,11.56,0,0,0-.36,6.57,7.35,7.35,0,0,0,4.7-4c1.12-2.43,1.52-5.44,2.5-8.11Z" transform="translate(-1.02 0)"/><path id="path1542" class="cls-91" d="M109.74,183.59l-.89-5.5c-.93-.25-2.17,1.92-3.37,3.19a7.53,7.53,0,0,0-.85.92,8.07,8.07,0,0,0-1.14,2.67,21.27,21.27,0,0,1-4.32,9.25c3.37-.07,6-1.28,7.26-4,1.73-3.7,2.6-5.91,3.31-6.5Z" transform="translate(-1.02 0)"/></g><g id="g1556"><path id="path1546" class="cls-57" d="M152.22,195.24c1.07,0,2.39.66,6.24,4a54.63,54.63,0,0,0,5.71,9.85,8.57,8.57,0,0,0,2.06,1.1,24.36,24.36,0,0,0,5.63-.14c1.51-1.37,3.82-.39,3.06,1,.59.57-.73,2.64-1.78,1.78s-4.36,0-5.49-.45c.42,1,3.48,1.67,5.62,1.83,2,.08,1.83,2,1,3.53-.92.58-.16-.15-.49.27-.88,1.3-2.75,1.13-2.82-.14s-4.62-3-5.31-4c.84,2,2.77,3.85,3.73,5.8,1,1,1.65,1.24.32,3.33-1.47-.17-1.56-.56-2.47.29-2-.22-2.34-.81-2-2.41s-1.06-4.74-1.53-5.6a17,17,0,0,0-1-2.12c-.74-.87-4.22-2.6-5.12-2.12-1.64.87-2.9.35-3.1-1.25.53-.41.13-2.67,1.27-2.76a2.91,2.91,0,0,1,2.33.9c1.35,1.1,2,1.69,2.48,1.56,1.05-.28-1.9-1.73-4.58-5.25-3.72-4.88-4-7.35-3.8-9Z" transform="translate(-1.02 0)"/><path id="path1548" class="cls-58" d="M174.69,212c1.35-.79,2.12-.75,2.64-.17.29.33.66.16.44-.35-.89-2.11-2.32-2.38-3.6-1.39l-.94.91c.22.31,1.29.76,1.46,1Z" transform="translate(-1.02 0)"/><path id="path1550" class="cls-59" d="M155.41,210.1c-1.43-1-2.77-1.16-3.51-.61-.4.3-.8.08-.44-.41,1.48-2.09,3.22-2.19,4.53-1l.92,1a4.23,4.23,0,0,1-1.5,1Z" transform="translate(-1.02 0)"/><path id="path1552" class="cls-60" d="M166.67,222.05c.88,1.73,1.34,2.92,1,3.85-.22.54,0,1,.58.57,2.23-1.92,2.24-4.11.81-5.6a14.33,14.33,0,0,0-1.44-1.19,5.08,5.08,0,0,0-.91,2.37Z" transform="translate(-1.02 0)"/><path id="path1554" class="cls-61" d="M172.24,217.49c1.33.55,1.79,1.25,1.74,2.16,0,.51.31.69.49.11,1.63-3.77-.06-4.47-2.49-4.34a5.23,5.23,0,0,0,.26,2.07Z" transform="translate(-1.02 0)"/></g></g><g id="g1570"><path id="path1560" class="cls-62" d="M160.81,209.1c.87-.51.92-1.07.69-1.45-.48-.8-1-.42-1.89.32" transform="translate(-1.02 0)"/><path id="path1562" class="cls-62" d="M159.68,207.87c.87-.5.92-1.07.7-1.45-.49-.8-1-.41-1.9.33" transform="translate(-1.02 0)"/><path id="path1564" class="cls-63" d="M158.4,206.71c1-.66,1-1.4.77-1.89-.53-1-1.07-.55-2.08.42" transform="translate(-1.02 0)"/><path id="path1566" class="cls-64" d="M157,205.24c1-.75,1.09-1.58.82-2.14-.57-1.18-1.14-.61-2.21.48" transform="translate(-1.02 0)"/><path id="path1568" class="cls-65" d="M155.59,203.68c.95-.8,1.25-1.58.82-2.27-.68-1.08-1.14-.65-2.21.51" transform="translate(-1.02 0)"/></g><g id="g1584"><path id="path1572" class="cls-86" d="M150.54,193.46l-.13-3.66c1.47-.74,5.1,0,6.63,3.4a22,22,0,0,0,6,8.42c-3.32.62-6.13,0-7.94-2.46-2.44-3.28-3.75-5.26-4.56-5.7Z" transform="translate(-1.02 0)"/><path id="path1574" class="cls-87" d="M147.84,193.93l4-1.66c1.62,3.3,2.73,5.53,3.19,6.74a11.66,11.66,0,0,1,.73,6.55,7.5,7.5,0,0,1-4.72-3.9c-1.26-2.36-2-5.12-3.16-7.72Z" transform="translate(-1.02 0)"/><path id="path1576" class="cls-88" d="M146.71,193.93l4.24-.65c.77,3.6,1.29,6,1.44,7.32a11.57,11.57,0,0,1-.89,6.53,7.48,7.48,0,0,1-3.62-4.94c-.64-2.6-.72-5.46-1.17-8.26Z" transform="translate(-1.02 0)"/><path id="path1578" class="cls-89" d="M146.07,188.17l-2.53,0c-1.47.73-3,4.09-1.23,7.33a22.22,22.22,0,0,1,3.16,9.85c2.48-2.29,3.64-4.93,2.77-7.84-1.17-3.91-2.3-8.41-2.17-9.33Z" transform="translate(-1.02 0)"/><path id="path1580" class="cls-90" d="M145,186.41l4-1.44c1.43,3.39,2.41,5.68,2.8,6.92a11.63,11.63,0,0,1,.35,6.57,7.37,7.37,0,0,1-4.7-4c-1.12-2.43-1.52-5.44-2.49-8.1Z" transform="translate(-1.02 0)"/><path id="path1582" class="cls-91" d="M147.7,183.59l.89-5.5c.93-.25,2.16,1.92,3.37,3.18a7.5,7.5,0,0,1,.84.93,7.8,7.8,0,0,1,1.15,2.67,21.16,21.16,0,0,0,4.32,9.25c-3.37-.07-6-1.28-7.27-4-1.72-3.7-2.59-5.91-3.3-6.5Z" transform="translate(-1.02 0)"/></g><path id="path1586" class="cls-92" d="M151.21,140.8v36.37a24.14,24.14,0,0,1-6.6,16.69,21.89,21.89,0,0,1-15.89,6.93h0a21.91,21.91,0,0,1-15.9-6.93,24.19,24.19,0,0,1-6.6-16.69V140.8Z" transform="translate(-1.02 0)"/><g id="g1602"><path id="path1588" class="cls-21" d="M151.21,163.1v9.38H133.4v27.79a21.33,21.33,0,0,1-4.69.52h0a21.31,21.31,0,0,1-4.68-.52V172.48H106.22V163.1H124V140.79h9.37V163.1Z" transform="translate(-1.02 0)"/><g id="g1600"><path id="path1590" class="cls-93" d="M121,146.12v13.17c-2.87.77-9.87,3.56-10.23-2.55-.17-2.82,3.5-4.68,4.49-2.19a1.63,1.63,0,0,1-.73,2.29,1,1,0,0,1-1.29-1.21c-3,1.55,2.66,4.85,5.2.56.74-1.26-1.25-2.56-1.25-3.48s2-2.32,1.25-3.49c-2.57-4.27-8.17-1-5.2.56a1,1,0,0,1,1.29-1.21,1.63,1.63,0,0,1,.73,2.29c-1,2.49-4.66.63-4.49-2.19.36-6.11,7.36-3.33,10.23-2.55Z" transform="translate(-1.02 0)"/><g id="g1598"><path id="path1592" class="cls-94" d="M136.44,146.12v13.17c2.88.77,9.87,3.56,10.24-2.55.17-2.82-3.51-4.68-4.5-2.19a1.63,1.63,0,0,0,.73,2.29,1,1,0,0,0,1.29-1.21c3,1.55-2.65,4.85-5.2.56-.74-1.26,1.25-2.56,1.26-3.48s-2-2.32-1.26-3.49c2.58-4.27,8.18-1,5.2.56a1,1,0,0,0-1.29-1.21,1.63,1.63,0,0,0-.73,2.29c1,2.49,4.67.63,4.5-2.19-.37-6.11-7.36-3.33-10.24-2.55Z" transform="translate(-1.02 0)"/><path id="path1594" class="cls-94" d="M121,189.48V176.3c-2.87-.77-9.87-3.56-10.23,2.55-.17,2.82,3.5,4.69,4.49,2.19a1.62,1.62,0,0,0-.73-2.28,1,1,0,0,0-1.29,1.21c-3-1.56,2.66-4.86,5.2-.56.74,1.25-1.25,2.55-1.25,3.48s2,2.31,1.25,3.48c-2.57,4.28-8.17,1-5.2-.56a1,1,0,0,0,1.29,1.21,1.63,1.63,0,0,0,.73-2.29c-1-2.49-4.66-.63-4.49,2.2.36,6.11,7.36,3.32,10.23,2.55Z" transform="translate(-1.02 0)"/><path id="path1596" class="cls-94" d="M136.44,189.48V176.3c2.88-.77,9.87-3.56,10.24,2.55.17,2.82-3.51,4.69-4.5,2.19a1.62,1.62,0,0,1,.73-2.28A1,1,0,0,1,144.2,180c3-1.56-2.65-4.86-5.2-.56-.74,1.25,1.25,2.55,1.26,3.48s-2,2.31-1.26,3.48c2.58,4.28,8.18,1,5.2-.56a1,1,0,0,1-1.29,1.21,1.63,1.63,0,0,1-.73-2.29c1-2.49,4.67-.63,4.5,2.2-.37,6.11-7.36,3.32-10.24,2.55Z" transform="translate(-1.02 0)"/></g></g></g><path id="path1604" class="cls-95" d="M151.21,140.8v36.37a24.14,24.14,0,0,1-6.6,16.69,21.89,21.89,0,0,1-15.89,6.93h0a21.91,21.91,0,0,1-15.9-6.93,24.19,24.19,0,0,1-6.6-16.69V140.8Z" transform="translate(-1.02 0)"/></g></g></g></g></g></g></svg>