<svg xmlns="http://www.w3.org/2000/svg" viewBox="0 0 247.21 300"><defs><style>.cls-1{fill:#f39317;}.cls-1,.cls-2,.cls-3,.cls-4,.cls-5,.cls-6{fill-rule:evenodd;}.cls-2{fill:#fff;}.cls-3{fill:#1d1d1b;}.cls-4{fill:#e42313;}.cls-5{fill:#e3161e;}.cls-6{fill:#a56727;}</style></defs><title>Sevillia</title><g id="Слой_2" data-name="Слой 2"><g id="Слой_1-2" data-name="Слой 1"><path class="cls-1" d="M182.93,16a134.89,134.89,0,0,1-44.05-9.18q-7.53-2.92-15-6.64V0a.36.36,0,0,0-.21.08.68.68,0,0,0-.2-.08V.2c-5.3,2.59-10.56,4.9-15.85,6.88A133.94,133.94,0,0,1,63.79,16C42.27,16.59,21,11.41,0,0V47.41C3.48,130.38,26,194.3,63.79,243a272.3,272.3,0,0,0,43.78,44.7c5.13,4.17,10.39,8.17,15.85,12V300a.87.87,0,0,1,.2-.12,1.3,1.3,0,0,0,.21.12v-.28q7.7-5.52,15-11.41a274.74,274.74,0,0,0,44.05-44.7c38-48.79,60.76-112.87,64.28-196.2V0c-21.16,11.49-42.6,16.67-64.28,16Z"/><path class="cls-2" d="M8.13,50.24c19-8.94,37.5-13.47,55.66-13.35a107.78,107.78,0,0,1,43.78,9.75,129.88,129.88,0,0,1,11.89,6.11V88.63a33.22,33.22,0,0,0-11.89,3.64,33.67,33.67,0,0,0-17,22.29H15.94A411.1,411.1,0,0,1,8.13,50.24Z"/><path class="cls-3" d="M123.06,94.26h.56a27.13,27.13,0,0,1,15.26,5A27.4,27.4,0,0,1,123.62,149h-.56a27,27,0,0,1-15.49-4.85,27.37,27.37,0,0,1,15.49-49.92Z"/><path class="cls-2" d="M231.23,114.56H155.46a33.27,33.27,0,0,0-16.58-22.08,32.48,32.48,0,0,0-11.53-3.77V53.16a81.89,81.89,0,0,1,11.53-6.84,100.84,100.84,0,0,1,44.05-10c17.35-.08,36.33,3.88,55.62,13.27-1,21.84-3,44-7.32,64.92Z"/><path class="cls-4" d="M239.32,43.77c-19.13-9.18-38.11-13.23-56.39-13a120.27,120.27,0,0,0-44.05,9.14,139.48,139.48,0,0,0-15.26,7.44.87.87,0,0,0-.2.12v.16h0a137.35,137.35,0,0,0-15.81-7.48,120,120,0,0,0-43.78-8.7C45.1,31.39,26.33,35.88,7.93,45.15,7.52,34.22,7.48,24,7.81,12.94l.24.13A137.57,137.57,0,0,0,63.79,24.15a136.55,136.55,0,0,0,43.78-8.25,154,154,0,0,0,16.05-6.72,155.72,155.72,0,0,0,15.26,6.43,143,143,0,0,0,44.05,8.54,126.1,126.1,0,0,0,56.43-11.21q.42,15.48,0,30.83Z"/><path class="cls-2" d="M37.58,122.33H17.64A322.42,322.42,0,0,0,37.58,182.7V122.33Z"/><path class="cls-2" d="M75.4,122.33H56.51V218s.06.66,7.28,10.92q5.5,7.78,11.61,15.23V122.33Z"/><path class="cls-2" d="M113.75,153.45a33.46,33.46,0,0,1-19.41-15.21V264.88q6.34,6.24,13.23,12.14c2,1.73,4.09,3.43,6.18,5.11V153.45Z"/><path class="cls-2" d="M152.06,137.7l0,0a33.5,33.5,0,0,1-13.2,13.09,34.1,34.1,0,0,1-6.23,2.59v129.4q3.15-2.52,6.23-5.13,6.85-5.82,13.18-12V137.7Z"/><path class="cls-2" d="M229.57,122.33H208.78v62.18c-.66,1.46,14.19-29.63,20.79-62.18Z"/><path class="cls-2" d="M189.89,122.33H171V245.19c-2.18,2.63,6.25-7.5,12-15.58,2.41-3.4,4.72-6.85,7-10.34V122.33Z"/><path class="cls-5" d="M56.51,122.33V218a279.21,279.21,0,0,1-18.93-35.31v-60.4Z"/><path class="cls-5" d="M94.34,138.19v126.7A260.22,260.22,0,0,1,75.4,244.22V122.33H89.89a32.92,32.92,0,0,0,4.45,15.86Z"/><path class="cls-5" d="M132.65,153.36V282.77c-3,2.34-6,4.69-9,7-3.39-2.47-6.67-5-9.87-7.57V153.44a32.39,32.39,0,0,0,9.31,1.33,32.77,32.77,0,0,0,9.59-1.41Z"/><path class="cls-5" d="M171,122.33V245.19a255.21,255.21,0,0,1-18.89,20.47v-128a32.88,32.88,0,0,0,4.17-15.37Z"/><path class="cls-5" d="M208.78,122.33v62.18a276.05,276.05,0,0,1-18.89,34.79v-97Z"/><path class="cls-3" d="M210.74,88.26v.41c-.16,13.45-7.33,21.32-20.73,22.76h-3.68c-4.42-.16-13.64-1.39-14.93-3.5a.89.89,0,0,1-.05-.88c.84-1.27,4.64,0,7.41.85l.67.21c2,.63,5,.45,7,.33h.11V95.93l-2.7-.12-2.64-.61c-11.6-3.26-15.71-10.72-15.71-16.78,0-.15,0-.29,0-.43.25-7.5,6.36-13.8,15.23-15.72l-.81-.72a12.22,12.22,0,0,1-3.65-4.37A13.46,13.46,0,0,1,175,51.83a8.64,8.64,0,0,1,1.27-4.63c1.87-3,5.66-4.9,10.41-5.15h0l3.33.49c1.85.27,8.91,4,9.32,6.87.11.79-.33,1.41-1.3,1.86l0,0,0,0c-2.2-2.55-7.08-5.68-10.55-6.08l-1.94.12A6.68,6.68,0,0,0,180,49.46a7.84,7.84,0,0,0-.75,3.21c0,3.89,3.61,6.45,7.19,8.59V54l16.69,0,.14.2a1.58,1.58,0,0,1,.44,1,3.64,3.64,0,0,1-.33,1.25v0H191.53v5.1a61.64,61.64,0,0,1,10.61,1l.71.63.24.77c-.72,1.92-3.41,1.21-5.58.63l-1.64-.39-2.27-.08L192.16,64l.5.42C203.82,70,210.74,76,210.74,88.26Zm-24.23,4.67V65.58a12,12,0,0,0-12,3.78,15,15,0,0,0-3.9,10,12.62,12.62,0,0,0,.66,4.07c1.66,4.81,6.2,8.07,12.8,9.18l2.44.35Zm4.89-12.64a8.07,8.07,0,0,0,5.55.11c1.42-.34,2,.07,2.14.35a1.31,1.31,0,0,1-.21,1.51c-.9,1.27-3.19,2.19-6.26,1.38l-1.34-.35v10l2.11,0c3.25-.13,8.15-.33,9,.5l.13.31a1.63,1.63,0,0,1-.56,1.15c-1.64,1.52-6.61,1.32-9.28,1.21l-1.25,0v12c12.4-2.66,15.47-11.12,15.47-18.84a32.19,32.19,0,0,0-.17-3.29c-.88-8.15-6.46-14.85-15.3-18.4v12.4Z"/><path class="cls-6" d="M137.23,112.84l0,0a4,4,0,0,0-3.33-.8c-1.3.35-2.47,1.6-3.51,3.71a20.53,20.53,0,0,1,3.87,11.55,18.52,18.52,0,0,1-.82,5.37c-1.56,5.17-5.39,10.46-11.36,15.72l1,0a25.92,25.92,0,0,0,10-2c5.77-7.54,8.66-14.52,8.66-20.89a20.53,20.53,0,0,0-4.47-12.71Z"/><path class="cls-6" d="M149.57,122.94a20.17,20.17,0,0,0-.64-5.06,18.9,18.9,0,0,0-4.19-7.86c-1.41-1.07-2.66-1.46-3.71-1.16s-2.19,1.54-3,3.59a21.35,21.35,0,0,1,4.53,13.08c0,6.2-2.66,13-7.94,20.21,9.06-4.37,14.95-13.66,14.95-22.8Z"/><path class="cls-6" d="M124.19,118.71c1.3-2.62,3.12-3.76,5.42-3.4,1.13-2.34,2.46-3.75,3.95-4.17a4.62,4.62,0,0,1,3.75.77c.94-2.26,2.11-3.6,3.5-4s2.8.13,4.46,1.43l.06,0a19.76,19.76,0,0,1,3.72,6,25.21,25.21,0,0,0-1-3.26.39.39,0,0,1-.31-.23,14.79,14.79,0,0,0-7-6.65A14.39,14.39,0,0,0,134,104a15.63,15.63,0,0,0-6.74,1.93,16.64,16.64,0,0,0-7.25,7.86,10.62,10.62,0,0,0-.11,1.51,3.57,3.57,0,0,0,.61,2.31c.64.76,1.83,1.11,3.73,1.12Z"/><path class="cls-6" d="M141.16,104.48a15.39,15.39,0,0,1,4.89,3.56,27.18,27.18,0,0,0-6.61-7.52c-5-3.15-9.71-4-14-2.45-4.06,1.43-7.9,5-11.4,10.6a4.14,4.14,0,0,0-.33,1.53,2.42,2.42,0,0,0,.34,1.26c.66,1.11,2.36,1.84,5,2.18l0-.11,0,.1v-.14a17.76,17.76,0,0,1,7.66-8.31,16.37,16.37,0,0,1,7.14-2,15.46,15.46,0,0,1,7.23,1.34Z"/><path class="cls-6" d="M108.28,105.25c.52,1.65,2.23,2.65,5.1,3,3.56-5.74,7.53-9.43,11.82-11a14,14,0,0,1,8-.3,26.17,26.17,0,0,0-10.18-2.1,27.2,27.2,0,0,0-7.25,1l.06,0s-.21.12-.15.11a13.78,13.78,0,0,0-7.44,9.33Z"/><path class="cls-6" d="M102.83,110.08a14,14,0,0,0,1,5.2c1.59,3.87,4.94,7,10,9.39a25.25,25.25,0,0,0,4,1.49,12.46,12.46,0,0,0,3.66.32s.49-.15.46-.13a6,6,0,0,0,2.15-3,5.12,5.12,0,0,0,.15-1.26,12.73,12.73,0,0,0-.34-2.54c-2-.06-3.31-.49-4.08-1.38a4.5,4.5,0,0,1-.83-2.94c0-.23,0-.47,0-.71-2.88-.38-4.77-1.21-5.6-2.47a3.16,3.16,0,0,1-.51-1.77,5,5,0,0,1,.19-1.22c-3.16-.39-5.07-1.63-5.65-3.72v-.2a15.11,15.11,0,0,1,4.89-8,26.61,26.61,0,0,0-7.75,5.17,20,20,0,0,0-1.74,7.77Z"/><path class="cls-6" d="M122.56,132.52a3.79,3.79,0,0,0,.21-1.29,6.82,6.82,0,0,0-.21-1.59,9,9,0,0,0-.92-2.31,12.17,12.17,0,0,1-4-.33,22.3,22.3,0,0,1-4.2-1.55c-5.16-2.41-8.75-5.82-10.38-9.86a14.48,14.48,0,0,1-1.06-5.53,19.79,19.79,0,0,1,1.07-6.13,27.24,27.24,0,0,0-5.73,10.41c0,.07,0,.18,0,.16.93,7.08,3.41,12.36,7.35,15.69,3.66,3.11,8.79,4.64,15.22,4.54a3.38,3.38,0,0,0,1.13-.43,3.26,3.26,0,0,0,1.51-1.78Z"/><path class="cls-6" d="M104.12,130.85c-3.73-3.16-6.17-8-7.3-14.3a26.08,26.08,0,0,0,.56,12.61c2,5.05,4.46,8.84,7.44,11.26a14.52,14.52,0,0,0,11.27,3,6.59,6.59,0,0,0,2.13-.59,3.81,3.81,0,0,0,1.68-1.64,4.34,4.34,0,0,0,.43-1.93,5,5,0,0,0,0-.66,9.46,9.46,0,0,0-1-3c-6.44,0-11.42-1.58-15.2-4.77Z"/><path class="cls-6" d="M116.2,144.27a15.22,15.22,0,0,1-10-1.93,26.79,26.79,0,0,0,14.67,6C127,143,131,137.59,132.55,132.4a17.45,17.45,0,0,0,.8-5.16,19.55,19.55,0,0,0-3.74-11.09c-2.06-.32-3.63.74-4.79,3.19l-.08.13a12.72,12.72,0,0,1,.35,2.63,5.14,5.14,0,0,1-.2,1.48,6.88,6.88,0,0,1-2.43,3.44,13.82,13.82,0,0,1,.94,2.44,6.77,6.77,0,0,1,.22,1.69,5,5,0,0,1-.27,1.66,4.15,4.15,0,0,1-1.89,2.27,6.58,6.58,0,0,1-1.25.45,10.49,10.49,0,0,1,.92,3,5.49,5.49,0,0,1,.06.8,5.14,5.14,0,0,1-.52,2.28,4.66,4.66,0,0,1-2,2,6.29,6.29,0,0,1-2.43.7Z"/><path class="cls-3" d="M104.73,85.68a24,24,0,0,0-3.48-7,7.9,7.9,0,0,0,.09-2.22c0-.33,0-.65,0-1V74.8a5,5,0,0,0-.12-1.82,15.46,15.46,0,0,0,2.07-10.52,5.5,5.5,0,0,0-1.62,1.29c-.12-.64-.2-1.29-.33-2a.29.29,0,0,0-.52-.12c-.53.65-1,1.25-1.62,1.9-1.62,1.86-3.11,3.8-3,6.52v.48l-.16.24a19.84,19.84,0,0,0-3,6.52c-.24.81-.48,1.61-.77,2.42V62.9l-.08-.08c-.4-.36-.73-.64-1-.93-.89-.77-1.62-1.13-1.66-3.07a2,2,0,0,1,.93-1.7c.29-.24.69-.2,1.3.16a2,2,0,0,1,.12.77c-.08,1-1,1.25.56,2.43.49.32,1.06.28,1.7-.61a2.65,2.65,0,0,0,.53-1.37,4.38,4.38,0,0,0-.36-2.23,5,5,0,0,0-1.42-1.86,2.93,2.93,0,0,0-1.42-.57h-.08a4.72,4.72,0,0,0-3.07,1.3A5.31,5.31,0,0,0,87,57.93a5.43,5.43,0,0,0,.61,3.44,10.08,10.08,0,0,0,2.11,2.79v26.5s-.13,0-.17.08c-.85.56-.89,2.34-1.45,3.31S85.92,95.35,85,96.2a27.06,27.06,0,0,0-2.87,3.6V38.63c-1.13-.2-2.31-.4-3.44-.56v1.21H76.17c-.44-2.18-3.92-2.06-4.37-.53H70.11a2.58,2.58,0,0,0-4.78,0H63.15a2.67,2.67,0,0,0-4.82,0H56.51c-.08-1.37-1.74-1.53-2.91-1-.81.37-1.38,1-1.21,1.7H50V37.7c-1.17.12-2.35.29-3.52.45V56.43a114.55,114.55,0,0,1-4.17-13.51c0-.32-.6-.16-.56.12l4.73,21.77v43.52H80.18c0-.18,0,.41,0,.89,0,.77,2.51.65,2.83.61l.69-.07-.08,4.8h7c.15-.53.26-1,.39-1.55,0,0,0,0,0,.06a1.21,1.21,0,0,0,0-.18l0,.12a.35.35,0,0,0,0-.18,33.35,33.35,0,0,1,8.1-14.16,33,33,0,0,1,6.43-5.22,22.81,22.81,0,0,0-.85-7.77Zm-25.64,0C78.6,85,72.78,78,70.39,75a20.09,20.09,0,0,0,7.2-7.16,13.25,13.25,0,0,0,.69-1.46,2,2,0,0,0,.81-.4V85.64Zm0-23.63a2.4,2.4,0,0,0-1.5-.48,2.56,2.56,0,0,0-2.19,1.21l-2.14,1A10.87,10.87,0,0,0,72,61a13.49,13.49,0,0,0-2.19-2.5,5.31,5.31,0,0,0,.53-4.33,16.76,16.76,0,0,0-2.63-4.65,4.75,4.75,0,0,0,.48-1,3,3,0,0,0,0-1.53,4.82,4.82,0,0,0-1.13-1.94A9.41,9.41,0,0,1,65,41.14c0-.28-.49-.28-.57,0a3.83,3.83,0,0,1-.4,1.21,10.67,10.67,0,0,1-1.62,2.23A4.6,4.6,0,0,0,61,47a3.39,3.39,0,0,0,.21,1.41,7.31,7.31,0,0,0,.48,1.18,6.1,6.1,0,0,0-.44.64c-1.7,2.47-3.48,5.1-1.82,8.34a15.62,15.62,0,0,0-2.07,2.26,24.15,24.15,0,0,0-1.86,2.79L53.8,62.7l-.2-.32a2.49,2.49,0,0,0-2-.85,2.45,2.45,0,0,0-2.15,1.37v-22a3.31,3.31,0,0,0,2.15.77,1.47,1.47,0,0,0,1-.49,8.58,8.58,0,0,0,1.05,1.13,20.13,20.13,0,0,0,2,1.7c.53-2.34.77-3.56,2-3.76s2.58,1.78,3.35,3.24a11,11,0,0,1,2.59-4.09h1.54a7,7,0,0,1,2.26,4.17c1.1-1.9,2-3.72,3.48-3.56s1.86,2.14,2,4a23.9,23.9,0,0,1,2.91-3.11,3,3,0,0,0,1.78.77,2.72,2.72,0,0,0,1.5-.65V62Z"/><path class="cls-6" d="M69.74,75.16c2.59,3.2,5.22,6.39,7.85,9.55.4.48.81,1,1.21,1.5v5l-1.21-.85L64.72,81.76a.44.44,0,0,0-.32,0L49.27,92.27V77.51l1.9,8.86a.34.34,0,0,0,.41.2.13.13,0,0,0,.12-.12c.61-.89,1.21-1.78,1.9-2.67a59.09,59.09,0,0,1,5.87-6.84v0a0,0,0,0,0,0,0,.39.39,0,0,0,0-.36,32.85,32.85,0,0,1-4.9-5.1H74.15a24.11,24.11,0,0,1-4.33,3.36.27.27,0,0,0-.08.4Z"/><path class="cls-2" d="M44.34,51.94a79.88,79.88,0,0,0,4.81,11.94v0a2.62,2.62,0,0,0,1.25,2.3c.41.65.77,1.3,1.18,1.9.64,1,1.29,2,2,3a32,32,0,0,0,5.26,5.66,88.46,88.46,0,0,0-7.24,8.82l0-.12-7.24-33.5Z"/><path class="cls-6" d="M79.09,96H49V93.12c.16,0,15.45-10.72,15.57-10.8C65.7,83,79,92,79.09,92v4Z"/><path class="cls-3" d="M77.59,66a1.92,1.92,0,0,1-1.94-1.66v-.16a1.82,1.82,0,0,1,1.94-2,1.8,1.8,0,0,1,1.9,1.9A1.83,1.83,0,0,1,77.59,66Z"/><path class="cls-6" d="M77.59,66.55a2.51,2.51,0,0,1-2.47-3l-1.94.89a.23.23,0,0,1-.16,0v2.49a.34.34,0,0,1-.29.28H69.09a.34.34,0,0,1-.28-.28V65.17H60.27v1.74a.34.34,0,0,1-.28.28H56.35a.34.34,0,0,1-.28-.28V63.7c-.08.14-.17.28-.24.42a.34.34,0,0,1-.41.12l-1.29-.69a2.45,2.45,0,0,1-.53,2.11,2.65,2.65,0,0,1-2,.89h-.2v0h-.13c.13.16.21.36.33.52.64,1,1.29,2.06,2,3.08a6.62,6.62,0,0,0,.53.72H74.72a18.14,18.14,0,0,0,2.87-4.2s0,0,0-.08Z"/><path class="cls-6" d="M61.65,50.53C60.1,52.87,58.4,55.34,60,58.31l0,0a.3.3,0,0,1,.28.29v3.27h8.66V58.58c0-.18.18-.29.37-.31a4.64,4.64,0,0,0,.48-3.9,14.51,14.51,0,0,0-2.63-4.61.33.33,0,0,1,0-.33,3.58,3.58,0,0,0,.53-1,2.67,2.67,0,0,0,0-1.29,4.4,4.4,0,0,0-1.05-1.7,11.9,11.9,0,0,1-1.91-3.16A8.81,8.81,0,0,1,64,43.45a15.16,15.16,0,0,1-1.22,1.49A4.41,4.41,0,0,0,61.53,47a3,3,0,0,0,.16,1.17c.16.4.32.85.53,1.29a.36.36,0,0,1,0,.29,8.1,8.1,0,0,0-.57.77Z"/><path class="cls-3" d="M66.71,50.81a2.56,2.56,0,0,0-2.15-1.34,2.54,2.54,0,0,0-2.14,1.34,5.44,5.44,0,0,0-.85,3,5.69,5.69,0,0,0,.85,3.08,2.61,2.61,0,0,0,2.14,1.33,2.64,2.64,0,0,0,2.15-1.33,5.77,5.77,0,0,0,.85-3.08,5.52,5.52,0,0,0-.85-3Z"/><path class="cls-2" d="M66.22,56.59a2.07,2.07,0,0,1-1.66,1.06,2.1,2.1,0,0,1-1.66-1.06,5.28,5.28,0,0,1,0-5.46A2,2,0,0,1,64.56,50a2,2,0,0,1,1.66,1.09,5.47,5.47,0,0,1,0,5.46Z"/><path class="cls-2" d="M51.66,62.1A1.91,1.91,0,0,0,49.76,64a1.92,1.92,0,1,0,1.9-1.94Z"/><path class="cls-2" d="M77.59,62.1A1.92,1.92,0,0,0,75.65,64a1.92,1.92,0,1,0,3.84,0,1.91,1.91,0,0,0-1.9-1.94Z"/><path class="cls-6" d="M99.15,70.63a4.91,4.91,0,0,0-2.43-.48v-.08c-.08-2.27,1.06-4,2.43-5.63.57-.69,1.13-1.29,1.66-1.94.36,2.59,1.46,7.24.08,9.83a4.69,4.69,0,0,0-1.74-1.7Z"/><path class="cls-6" d="M80.74,109.06l.57.2a3.66,3.66,0,0,0,1.66,0,3.89,3.89,0,0,1,1.94,0,8.43,8.43,0,0,1,1.42,1c.68.52,1.09.8,2.75.52a.43.43,0,0,1,.28.12,5,5,0,0,0,.77,1h0a3.11,3.11,0,0,0,.77.49,33.09,33.09,0,0,1,5.26-10.64A33.49,33.49,0,0,1,105,93.49a21.42,21.42,0,0,0-3.89-14A13.69,13.69,0,0,1,99,85.72c-1.3,1.78-3.32,3.07-6.6,4a.15.15,0,0,0-.12,0v5.94a.42.42,0,0,1-.08.2,8.89,8.89,0,0,0-.93,1.38,18.5,18.5,0,0,0-1,2.14c-.08.25-.52.17-.52-.12V91.34h0c-.09.29-.17.53-.25.81a8.23,8.23,0,0,1-.85,2.19,4.65,4.65,0,0,1-1.94,1.53,7.09,7.09,0,0,0-1.25.77,12.9,12.9,0,0,0-3.68,5.67,21.19,21.19,0,0,0-1,6.75Z"/><path class="cls-2" d="M96.44,73.71h0a.58.58,0,0,0-.53.2,1.13,1.13,0,0,0-.36.73,1.31,1.31,0,0,0,.12.81c.12.2.28.36.45.36h0a.55.55,0,0,0,.52-.2,1.17,1.17,0,0,0,.37-.73,1.29,1.29,0,0,0-.12-.81.61.61,0,0,0-.45-.36Z"/><path class="cls-2" d="M91.63,63.15c-.33-.33-.61-.57-.85-.81a4.73,4.73,0,0,1-1.9-3.48l0-.12a4.22,4.22,0,0,1,1.13-2.11,1.47,1.47,0,0,1,2.34,1.46,2.26,2.26,0,0,1-.28.89,2.27,2.27,0,0,0,.65,1c.2.16.48.08.89-.44a2.6,2.6,0,0,0,.4-1.1,3.85,3.85,0,0,0-.32-2,4,4,0,0,0-1.21-1.57,2.5,2.5,0,0,0-1.14-.49,4.27,4.27,0,0,0-2.71,1.13,4.71,4.71,0,0,0-1.09,2.51,4.79,4.79,0,0,0,.53,3.07,10.85,10.85,0,0,0,2.1,2.72l.08.12v33.9A6.16,6.16,0,0,1,90.7,97a10.62,10.62,0,0,1,.93-1.42V63.15Z"/><path class="cls-3" d="M46.12,107.57c-.25-1.5-.53-3-.73-4.54-.2-2-.29-4.08-.37-6.14-.08-1.58-.12-3.16-.28-4.74a.42.42,0,0,0-.08-.2c-.53-.53-1-1-1.54-1.62A17.22,17.22,0,0,0,39,86.61V64.16a11.88,11.88,0,0,0,2.1-2.79,5.35,5.35,0,0,0,.57-3.44,5.28,5.28,0,0,0-1.22-2.79,4.57,4.57,0,0,0-2.55-1.22,2.36,2.36,0,0,0-.56-.08h-.12a3.26,3.26,0,0,0-1.38.57,1.85,1.85,0,0,0-.28.28,4.43,4.43,0,0,0-1.13,1.58,4.73,4.73,0,0,0-.37,2.23,3.05,3.05,0,0,0,.53,1.37,1.87,1.87,0,0,0,1,.77.92.92,0,0,0,.73-.16,3.55,3.55,0,0,0,.89-1.42v-.24a2.53,2.53,0,0,1-.33-.77,2.23,2.23,0,0,1,.16-.77c.09,0,.13-.08.21-.12a0,0,0,0,0,0,0h0a1.34,1.34,0,0,1,.6-.16.52.52,0,0,1,.41.16,3.39,3.39,0,0,1,.93,1.7,4.22,4.22,0,0,1-1.34,2.75,2.59,2.59,0,0,1-.36.32,1.13,1.13,0,0,1-.24.21s0,0,0,.08a0,0,0,0,0,0,0,6.77,6.77,0,0,0-.65.6.46.46,0,0,0-.08.21V78.48h-.93v-.16a12.6,12.6,0,0,0-1-3.4,15.17,15.17,0,0,0-2.83-4.25l-.17-.6c0-.45,0-.85,0-1.3,0-.89,0-1.74-.12-2.59a12.08,12.08,0,0,0-1.05-4l-.65-1.38a.27.27,0,0,0-.48,0l-.24.36c-.17.29-.33.57-.53.85s-.24.41-.37.61a4.67,4.67,0,0,0-.28-.61c-.16-.36-.32-.72-.52-1.09a.3.3,0,0,0-.41-.12,7.15,7.15,0,0,0-2.63,5.42,18.18,18.18,0,0,0,1.17,8,2.07,2.07,0,0,1-1,1.62A4.7,4.7,0,0,0,23.34,77a6.09,6.09,0,0,0-.69,2.15l-.12.48v.08a3.81,3.81,0,0,0,.69,1.82,5.9,5.9,0,0,0,1.13,1.1l-.64,1.45c-.33,1-.69,2-1.06,3a44.93,44.93,0,0,0-2.14,7.4,99.84,99.84,0,0,0-1.21,14.36s0,.16.08.16l.44.57,0,0c.81.61,1.14.61.73.44l-.53,4.49H44.5s0-.08,0-.08l-1.09-2.67,3.15.29a.29.29,0,0,0,.28-.33c-.16-1.41-.4-2.79-.68-4.2Z"/><path class="cls-2" d="M37.05,78.76V63.15a.83.83,0,0,1,.17-.12v0l0,0,0-.05c.24-.2.44-.4.6-.52,0,0,0,0,.05,0a4.62,4.62,0,0,0,1.86-3.48v-.12a4.64,4.64,0,0,0-1.14-2.11,1.32,1.32,0,0,0-.77-.24,1.66,1.66,0,0,0-.6.08l0,0h0a4,4,0,0,0-.61.33s-.12.12-.12.16a2,2,0,0,0,.12,2A3.09,3.09,0,0,1,36,60a.36.36,0,0,1-.4,0,1,1,0,0,1-.49-.44,2.16,2.16,0,0,1-.4-1.1,4.28,4.28,0,0,1,.28-2,7,7,0,0,1,.61-1,2.83,2.83,0,0,1,.65-.6,1.83,1.83,0,0,1,1-.45v0h.12c.2,0,.36,0,.56.08a4.14,4.14,0,0,1,2.15,1,4.69,4.69,0,0,1,1.05,2.51,4.79,4.79,0,0,1-.53,3.07,10.68,10.68,0,0,1-2.06,2.72.43.43,0,0,0-.08.24V86.29a5.32,5.32,0,0,1-.53-.21h0v0h-.12v0h-.08s-.12,0-.2-.08-.08,0-.12,0h-.2v0h-.09V78.76Z"/><path class="cls-2" d="M31.43,73.87a1.42,1.42,0,0,1,.33.16,1.09,1.09,0,0,1,.44.65,1.39,1.39,0,0,1,0,.81.77.77,0,0,1-.49.4.51.51,0,0,1-.24,0,1.42,1.42,0,0,1-.36-.16,1,1,0,0,1-.41-.69,1,1,0,0,1,0-.77.81.81,0,0,1,.45-.44Z"/><path class="cls-6" d="M29,62.3c.05,0,.05,0,.05-.08.16-.25.28-.45.44-.69l.4.85A15.89,15.89,0,0,1,31,68.81l.08,1.42a2,2,0,0,0-2.06.36,6.88,6.88,0,0,0-1.26,1.46s0,0,0,.08a0,0,0,0,0,0,0l0,0-.08.08c-1.26-4.61-.41-7,1.41-10Z"/><path class="cls-6" d="M31.43,110.52c-.81-.08-10.56-.89-11.2-1.34l-.33-.44a102.91,102.91,0,0,1,1.18-14.12,44.3,44.3,0,0,1,2.14-7.32c.32-1,.69-1.94,1-3l.61-1.37h.08a0,0,0,0,0,0,0h0a10.66,10.66,0,0,0,1.42-1,1.82,1.82,0,0,1,.36-.25,6.78,6.78,0,0,1,2.23.21c.4.08.72.16,1,.2a9.6,9.6,0,0,0,1.45.36,3.68,3.68,0,0,0,3.44-.81,2.37,2.37,0,0,0,.69-1.13,4.13,4.13,0,0,0,.08-1.41h.85v7.07c-.33.17-.65.29-.93.45a17,17,0,0,0-4.13,3A17.27,17.27,0,0,0,29,92.31,41.9,41.9,0,0,0,23.1,105a.36.36,0,0,1,0,.2s0,.12,0,.16v0a.24.24,0,0,0,0,.16.36.36,0,0,0,0,.2c0,.13.08.33.2.33l.89.12a46.49,46.49,0,0,0,4.81.57.37.37,0,0,0,.17-.08s.08-.05.08-.05a35.87,35.87,0,0,0,2.34-3.6v1.74c0,2,.12,3.85.2,5.75Z"/><path class="cls-6" d="M43,111.17a.3.3,0,0,0-.28.4l1.09,2.71H42l1.09-10.68c0-.12,0-.28-.24-.28s-.32.08-.32.24l-1.1,10.68v0H39.93L41,105.62c0-.12,0-.28-.24-.28s-.33.08-.33.24l-1.09,8.7h-7c0-1.13,0-2.27-.08-3.4v0c-.08-2-.2-4-.24-6v-1.57l1-2.84s0-.08.08-.12v-.08h0v-.08h0V100h0v-.12h0l2.35-3.72.56-.93a.15.15,0,0,0,0-.12c.13-.73-.2-.53-.6-.13a14.56,14.56,0,0,0-1.13,1.46,0,0,0,0,1,0,0s0,0,0,.08a0,0,0,0,1,0,0s0,0,0,.08a0,0,0,0,1,0,0s0,.08,0,.08,0,0,0,.09l0,0a.14.14,0,0,1,0,.08s0,0,0,.08a.14.14,0,0,0,0,.08,0,0,0,0,0,0,0,.12.12,0,0,0,0,.08s0,0,0,.08l-.08.08s0,0,0,.08c-.41.73-.73,1.58-1.18,2.31l0,0a5.56,5.56,0,0,1-.32.65v0h0c-.24.44-.49.85-.73,1.25-.77,1.34-1.54,2.67-2.42,3.93a3.05,3.05,0,0,1-.29.36,40.44,40.44,0,0,1-5-.57h-.13v0h0A43.73,43.73,0,0,1,29,93.41s.08-.13.12-.17a19.08,19.08,0,0,1,2.3-2.83,15.46,15.46,0,0,1,4.13-3.23,10.72,10.72,0,0,1,1.29-.57l.33-.12h.2a4.49,4.49,0,0,0,.52.2,14.69,14.69,0,0,1,4.82,4c.48.52,1,1.05,1.45,1.53.13,1.58.21,3.12.25,4.66.08,2,.16,4.08.4,6.19.2,1.53.49,3,.73,4.57.24,1.25.49,2.5.65,3.8L43,111.17Z"/><path class="cls-3" d="M33.94,109.63c.08-.2.12-.41.2-.61a4.29,4.29,0,0,0,.33-1.17,4.41,4.41,0,0,0,0-1,4.08,4.08,0,0,1,.12-1.82l0-.09,3.52-4.16c.08-.2-.08-.57-.25-.93a2.79,2.79,0,0,1-.28-1.09h0a6.37,6.37,0,0,1,.32-1.91,3.06,3.06,0,0,0,.17-.64c0-.12,0-.29.32-.25s.28.17.24.33a3.63,3.63,0,0,1-.16.73,6.58,6.58,0,0,0-.32,1.74h0a2.84,2.84,0,0,0,.24.85c.24.52.49,1,.2,1.49v0l-3.52,4.13a4,4,0,0,0-.08,1.5,5.5,5.5,0,0,1,0,1.17,5,5,0,0,1-.32,1.33,5.71,5.71,0,0,0-.2.57c0,.16-.08.28-.37.2s-.24-.2-.2-.36Z"/></g></g></svg>