<svg xmlns="http://www.w3.org/2000/svg" viewBox="0 0 190.39 299.22"><defs><style>.cls-1{fill:#fff;}.cls-2{fill:#181a18;}.cls-3{fill:#f0612c;}.cls-4{fill:#222324;}</style></defs><title>Shaxtar</title><g id="Слой_2" data-name="Слой 2"><g id="Layer_1" data-name="Layer 1"><g id="layer1"><g id="g10"><g id="g12"><path id="path14" class="cls-1" d="M95.2,14.53c-121.24,50.69-121,219.58,0,270.16,121.24-50.68,121-219.58,0-270.16h0"/><path id="path16" class="cls-2" d="M95.2,14.53c-121.24,50.69-121,219.58,0,270.16C216.44,234,216.18,65.11,95.2,14.53ZM95.2,0h0c127,58.57,126.84,240.73,0,299.22C-31.64,240.73-31.82,58.57,95.2,0h0"/><path id="path18" class="cls-2" d="M168.52,196.26c-9.55,31.49-33.67,53.87-73.32,70.22C62.1,252.83,32.62,231.71,21.8,196c50.13,15,98.16,16.59,146.72.25h0"/><path id="path20" class="cls-3" d="M162,89.78q15.42,34.11,14.89,63.09c-44.28,19.34-119.18,19.31-163.38,0q-.54-29,14.89-63.09c.4,36.17,30.15,65.38,66.8,65.38S161.6,126,162,89.78h0"/><path id="path22" class="cls-2" d="M95.2,34c39.19,21.86,46.52,80.19,9.3,107Q129,89.4,95.2,56.34,61.45,89.4,85.89,141C48.68,114.19,56,55.86,95.2,34h0"/><path id="path24" class="cls-3" d="M95.2,147.6c18.83-26.75,17.1-63.92,0-82.32C78.09,83.68,76.37,120.85,95.2,147.6Zm-.89,1.26A56.14,56.14,0,0,1,77.78,39.35C64.22,49.93,55.2,68.7,55.2,90.08,55.2,119.3,72.05,143.64,94.31,148.86Zm1.77,0A56.14,56.14,0,0,0,112.62,39.35c13.55,10.58,22.57,29.35,22.57,50.73,0,29.22-16.84,53.56-39.11,58.78h0"/><path id="path26" class="cls-1" d="M109,225.07a3.22,3.22,0,0,0-.45-1.85,1.31,1.31,0,0,0-1.13-.61,1.19,1.19,0,0,0-1.22.8,2.9,2.9,0,0,0-.15,1,3.6,3.6,0,0,0,.65,2.42,1.21,1.21,0,0,0,.92.4C108.53,227.27,109,226.54,109,225.07Zm1.87-.86a3.85,3.85,0,0,1-1.58,3.36,3.25,3.25,0,0,1-1.87.52,3,3,0,0,1-2.48-1.16,5.18,5.18,0,0,1-.91-3.28,7.09,7.09,0,0,1,.73-3.41,6.37,6.37,0,0,1,2.06-2.27,5.18,5.18,0,0,1,2.91-.86l.61.51-.24.26a3.23,3.23,0,0,0-.53,0,2.92,2.92,0,0,0-2.09.87,3.81,3.81,0,0,0-.71,1,8.43,8.43,0,0,0-.67,2.78,8.24,8.24,0,0,1,1.25-1.06,3,3,0,0,1,1.16-.21,2.11,2.11,0,0,1,1.66.75A3.3,3.3,0,0,1,110.86,224.21Zm-8.14-.07a3.5,3.5,0,0,1-1.37,2.8,4.94,4.94,0,0,1-3.24,1.15,4.51,4.51,0,0,1-1.9-.43,15.9,15.9,0,0,0-.37-2.29l0-.11.38-.11.1,0a2.6,2.6,0,0,0,2.46,2,1.82,1.82,0,0,0,1.41-.57,2.18,2.18,0,0,0,.54-1.56,2,2,0,0,0-.59-1.53,2.1,2.1,0,0,0-1.48-.51,3.43,3.43,0,0,0-.92.14l-.1-.1a11.47,11.47,0,0,0,.3-1.19h.63a1.66,1.66,0,0,0,1.2-.49,1.58,1.58,0,0,0,.51-1.17,1.33,1.33,0,0,0-.45-1,1.61,1.61,0,0,0-1.12-.41,1.64,1.64,0,0,0-1.44.55A3.14,3.14,0,0,0,97,220l-.08.26-.11.07-.4,0-.08-.1.28-1.27c.07-.35.13-.7.17-1a4.14,4.14,0,0,1,2.54-.76,3.1,3.1,0,0,1,2.06.64,2,2,0,0,1,.74,1.62,2.67,2.67,0,0,1-1.73,2.35,2.42,2.42,0,0,1,1.58.59A2.23,2.23,0,0,1,102.72,224.14Zm-9.92-3.39a4.21,4.21,0,0,0-.42-2.13,1.28,1.28,0,0,0-1.14-.69,1.21,1.21,0,0,0-1.21,1,3.77,3.77,0,0,0-.17,1.23A3.22,3.22,0,0,0,90.3,222a1.32,1.32,0,0,0,1.13.6,1.2,1.2,0,0,0,1.23-.81A3.09,3.09,0,0,0,92.8,220.75Zm2,.8a7.08,7.08,0,0,1-.74,3.41A6.16,6.16,0,0,1,92,227.22a5.15,5.15,0,0,1-2.9.87l-.61-.51.19-.31a1.55,1.55,0,0,0,.57.09,2.91,2.91,0,0,0,2.12-.9,4,4,0,0,0,.68-1,8,8,0,0,0,.68-2.79,7.68,7.68,0,0,1-1.29,1.08,3.3,3.3,0,0,1-1.1.18,2.12,2.12,0,0,1-1.69-.76A3.28,3.28,0,0,1,88,221a3.78,3.78,0,0,1,1.6-3.36,3.22,3.22,0,0,1,1.85-.51,3,3,0,0,1,3,1.94,6.24,6.24,0,0,1,.43,2.5Zm-8,6.17-.08.09c-.72,0-1.61-.07-2.66-.07s-2.09,0-3.22.07l-.09-.08v-.48l.09-.07c.27,0,.53-.06.77-.08a4.06,4.06,0,0,0,.86-.13.59.59,0,0,0,.23-.29,15.72,15.72,0,0,0,.14-3v-1.93c0-.58,0-1.31,0-2.21V219c0-.26-.06-.39-.17-.39a2.22,2.22,0,0,0-.46.18c-.71.33-1.32.61-1.82.86l-.1-.05a8.41,8.41,0,0,0-.16-1v-.06c1.43-.4,3-1,4.79-1.63L85,217,85,218.4c0,.23,0,.84,0,1.83l0,3.06a25.26,25.26,0,0,0,.11,3.52.36.36,0,0,0,.23.22,9.86,9.86,0,0,0,1.46.14l.1.07v.48"/><path id="path28" class="cls-1" d="M103.54,253l-6.34-6.62,4.53-4.72,4.24,4.1.52-4.69L104.31,239l.61-.64a1.24,1.24,0,0,0,0-1.75l-.3-.28a1.23,1.23,0,0,0-1.75,0l-.6.63-3.32-3.21-2.59,2.68,3.33,3.22-4.45,4.65-4.46-4.64,3.34-3.23-2.6-2.68L88.16,237l-.6-.63a1.23,1.23,0,0,0-1.75,0l-.3.28a1.24,1.24,0,0,0,0,1.75l.61.64-3.29,3.19,2.6,2.68,3.28-3.17,4.52,4.72L86.85,253a1.24,1.24,0,0,0,0,1.75l.3.29a1.23,1.23,0,0,0,1.75,0l6.26-6.53,6.25,6.53a1.23,1.23,0,0,0,1.75,0l.3-.29a1.24,1.24,0,0,0,0-1.75h0"/><path id="path30" class="cls-4" d="M159.6,178.36l5.75-1.3a6.43,6.43,0,0,0,3.49-1.89,5.06,5.06,0,0,0,1.35-3.23,3.15,3.15,0,0,0-.94-2.61c-.69-.62-2-.72-3.9-.29l-5.32,1.2Zm-.8,14.92-4.87,1.11,1.45-27.1,11.05-2.5q4.73-1.06,6.89.81a6,6,0,0,1,2,5.13,10.36,10.36,0,0,1-2.79,6.58,12,12,0,0,1-6.39,3.71l-6.74,1.53-.57,10.73"/><path id="path32" class="cls-4" d="M143,186.48,140.08,175l-5.38,12.81Zm8.06,8.89-5.47.9-1.62-6.1L133,192l-2.89,6.84-4.37.72L138,170.8l6.31-1,6.77,25.61"/><path id="path34" class="cls-4" d="M120,199.89l-5.56.27,1.37-22.83-7.64.37.25-4.17,20.85-1-.25,4.18-7.64.37L120,199.89"/><path id="path36" class="cls-4" d="M106.19,200.93h-6l-6.34-10.64-6.73,10.64H82.26l9.08-14.07-7.8-12.94h6l5.3,9,5.61-9h4.84l-8,12.33,8.87,14.68"/><path id="path38" class="cls-4" d="M72.08,189.07l-5-12.89-3.4,12.17Zm9.56,11.52-5.54-.47-2.76-6.88-11.06-.94-1.8,6.49-4.42-.38,7.64-27.27,6.38.54,11.56,28.91"/><path id="path40" class="cls-4" d="M21,191.05l-3.22-28.43,5.05,1.06,2.72,24,8.68,1.83-2.72-24,5,1.06,2.72,24L48,192.43l-2.73-24,5.05,1.07,3.22,28.43L21,191.05"/></g></g></g></g></g></svg>