<svg xmlns="http://www.w3.org/2000/svg" xmlns:xlink="http://www.w3.org/1999/xlink" viewBox="0 0 300.01 300"><defs><style>.cls-1,.cls-10,.cls-11,.cls-12,.cls-6,.cls-7,.cls-9{fill:none;}.cls-2{fill:#fff;}.cls-3{clip-path:url(#clip-path);}.cls-4{fill:#ee2227;}.cls-5{fill:#211e1f;}.cls-11,.cls-12,.cls-6{stroke:#211e1f;}.cls-10,.cls-11,.cls-12,.cls-6,.cls-7,.cls-9{stroke-miterlimit:3.86;}.cls-6{stroke-width:0.58px;}.cls-7{stroke:#fff;stroke-width:0.29px;}.cls-8{fill:#fcee23;}.cls-9{stroke:#fcee23;stroke-width:0.59px;}.cls-10{stroke:#e8e7e7;}.cls-10,.cls-12{stroke-width:0.88px;}.cls-11{stroke-width:1.75px;}</style><clipPath id="clip-path"><rect class="cls-1" x="0.04" width="299.97" height="300"/></clipPath></defs><title>Sheffield_United</title><g id="Слой_2" data-name="Слой 2"><g id="Слой_1-2" data-name="Слой 1"><path class="cls-2" d="M19.47,150A130.54,130.54,0,1,1,150,280.53,130.53,130.53,0,0,1,19.47,150"/><g class="cls-3"><path class="cls-4" d="M0,150A150,150,0,0,1,150,0h0A149.87,149.87,0,0,1,299.93,150H300A150,150,0,1,1,0,150M71.47,71.47A111.06,111.06,0,1,0,261.06,150h.08A111.18,111.18,0,0,0,150,39h0A110.74,110.74,0,0,0,71.47,71.47Z"/></g><path class="cls-5" d="M45.24,150A104.77,104.77,0,1,1,150,254.76,104.77,104.77,0,0,1,45.24,150"/><path class="cls-6" d="M45.24,150A104.77,104.77,0,1,1,150,254.76,104.77,104.77,0,0,1,45.24,150Z"/><path class="cls-2" d="M145.32,66a3.15,3.15,0,0,0,2.4-1.75,15.75,15.75,0,0,0,1.76-3.72,12.7,12.7,0,0,0,2.4,3.94,6.53,6.53,0,0,0,2.4,1.76,8.34,8.34,0,0,0-3.42,1.29,3,3,0,0,0-1.5,2.15s0-.65-1.08-1.93a6.21,6.21,0,0,0-3-1.74"/><path class="cls-7" d="M145.32,66a3.15,3.15,0,0,0,2.4-1.75,15.75,15.75,0,0,0,1.76-3.72,12.7,12.7,0,0,0,2.4,3.94,6.53,6.53,0,0,0,2.4,1.76,8.34,8.34,0,0,0-3.42,1.29,3,3,0,0,0-1.5,2.15s0-.65-1.08-1.93A6.21,6.21,0,0,0,145.32,66Z"/><path class="cls-2" d="M140.12,96.11a7.3,7.3,0,1,1,7.31,7.3,7.3,7.3,0,0,1-7.31-7.3"/><path class="cls-7" d="M140.12,96.11a7.3,7.3,0,1,1,7.31,7.3A7.3,7.3,0,0,1,140.12,96.11Z"/><path class="cls-2" d="M130.9,71.42c4.72-4.07,7.46-4.64,10.52-4.29,3.64.43,7.22,2.33,6.44,4.08-.86,1.93-.86-.21-4.3-.43s-2.79-.43-4.29,1.07-1.14,2.75-3,4.3c-2.59,2.14-2.59.86-5.16,1.71-2.37.79-3.87,2.15-4.08,3.87s1.29,6,1.29,6-3.22-.22-4.08-2.79-2-2.85,0-6.44c2.58-4.72,1.93-3,6.66-7.09"/><path class="cls-7" d="M130.9,71.42c4.72-4.07,7.46-4.64,10.52-4.29,3.64.43,7.22,2.33,6.44,4.08-.86,1.93-.86-.21-4.3-.43s-2.79-.43-4.29,1.07-1.14,2.75-3,4.3c-2.59,2.14-2.59.86-5.16,1.71-2.37.79-3.87,2.15-4.08,3.87s1.29,6,1.29,6-3.22-.22-4.08-2.79-2-2.85,0-6.44C126.82,73.79,126.17,75.5,130.9,71.42Z"/><path class="cls-2" d="M143.13,72.07c2.8.86,4.73.64,4.51,5.79a67.79,67.79,0,0,1-1.07,9.45,6.11,6.11,0,0,0-3.65,1.08,16.73,16.73,0,0,0-3.87,3.43s-7.72-1.5-9.23-4.3a10.69,10.69,0,0,1-.21-6.22c.67-2,5.37-1.93,7.3-3.22s3.86-6,6.22-6"/><path class="cls-7" d="M143.13,72.07c2.8.86,4.73.64,4.51,5.79a67.79,67.79,0,0,1-1.07,9.45,6.11,6.11,0,0,0-3.65,1.08,16.73,16.73,0,0,0-3.87,3.43s-7.72-1.5-9.23-4.3a10.69,10.69,0,0,1-.21-6.22c.67-2,5.37-1.93,7.3-3.22S140.77,72.07,143.13,72.07Z"/><path class="cls-2" d="M118.84,104.21c-2.42-5.76-2.12-8.55-.83-11.33,1.53-3.35,4.43-6.15,5.87-4.87s-.47.75-1.74,3.95-1.28,2.52-.31,4.41,2.26,1.94,3.16,4.19c1.24,3.12,0,2.72,0,5.43,0,2.5.85,4.34,2.41,5.07s6.12.64,6.12.64-1.2,3-3.91,3-3.31,1-6.14-2c-3.68-3.91-2.25-2.77-4.67-8.51"/><path class="cls-7" d="M118.84,104.21c-2.42-5.76-2.12-8.55-.83-11.33,1.53-3.35,4.43-6.15,5.87-4.87s-.47.75-1.74,3.95-1.28,2.52-.31,4.41,2.26,1.94,3.16,4.19c1.24,3.12,0,2.72,0,5.43,0,2.5.85,4.34,2.41,5.07s6.12.64,6.12.64-1.2,3-3.91,3-3.31,1-6.14-2C119.83,108.81,121.26,110,118.84,104.21Z"/><path class="cls-2" d="M123.23,92.77c1.68-2.39,2.07-4.29,6.91-2.5a69.2,69.2,0,0,1,8.65,3.94,6.08,6.08,0,0,0-.11,3.8,17.11,17.11,0,0,0,2.08,4.74s-3.82,6.88-6.94,7.45a10.67,10.67,0,0,1-6-1.72c-1.71-1.26-.18-5.7-.8-7.94s-4.52-5.53-3.8-7.77"/><path class="cls-7" d="M123.23,92.77c1.68-2.39,2.07-4.29,6.91-2.5a69.2,69.2,0,0,1,8.65,3.94,6.08,6.08,0,0,0-.11,3.8,17.11,17.11,0,0,0,2.08,4.74s-3.82,6.88-6.94,7.45a10.67,10.67,0,0,1-6-1.72c-1.71-1.26-.18-5.7-.8-7.94S122.51,95,123.23,92.77Z"/><path class="cls-2" d="M146.29,125.8c-6.22.53-8.78-.62-11-2.71-2.71-2.49-4.48-6.12-2.82-7.08,1.83-1.06.57.68,3.22,2.87s2,2,4.11,1.65,2.53-1.54,4.95-1.7c3.35-.22,2.59.82,5.18,1.63,2.39.76,4.39.54,5.57-.72s2.49-5.63,2.49-5.63,2.48,2.08,1.66,4.67-.08,3.45-3.78,5.2c-4.86,2.31-3.33,1.3-9.55,1.82"/><path class="cls-7" d="M146.29,125.8c-6.22.53-8.78-.62-11-2.71-2.71-2.49-4.48-6.12-2.82-7.08,1.83-1.06.57.68,3.22,2.87s2,2,4.11,1.65,2.53-1.54,4.95-1.7c3.35-.22,2.59.82,5.18,1.63,2.39.76,4.39.54,5.57-.72s2.49-5.63,2.49-5.63,2.48,2.08,1.66,4.67-.08,3.45-3.78,5.2C151,126.29,152.51,125.28,146.29,125.8Z"/><path class="cls-2" d="M136.76,118.09c-1.74-2.33-3.44-3.3-.23-7.34a68.35,68.35,0,0,1,6.42-7,6.18,6.18,0,0,0,3.59,1.28,17.14,17.14,0,0,0,5.13-.51s5.37,5.75,5,8.9a10.69,10.69,0,0,1-3.48,5.16c-1.74,1.24-5.48-1.59-7.8-1.68s-6.66,2.59-8.58,1.2"/><path class="cls-7" d="M136.76,118.09c-1.74-2.33-3.44-3.3-.23-7.34a68.35,68.35,0,0,1,6.42-7,6.18,6.18,0,0,0,3.59,1.28,17.14,17.14,0,0,0,5.13-.51s5.37,5.75,5,8.9a10.69,10.69,0,0,1-3.48,5.16c-1.74,1.24-5.48-1.59-7.8-1.68S138.68,119.48,136.76,118.09Z"/><path class="cls-2" d="M175.31,106.37c-1.42,6.07-3.31,8.15-6,9.66-3.2,1.8-7.2,2.36-7.6.48-.44-2.06.82-.33,3.72-2.17s2.51-1.29,2.84-3.4-.68-2.88-.09-5.24c.83-3.25,1.58-2.21,3.17-4.41,1.45-2,1.86-4,1-5.53s-4.57-4.1-4.57-4.1,2.73-1.72,4.93-.14,3.26,1.14,3.79,5.21c.7,5.33.2,3.57-1.22,9.64"/><path class="cls-7" d="M175.31,106.37c-1.42,6.07-3.31,8.15-6,9.66-3.2,1.8-7.2,2.36-7.6.48-.44-2.06.82-.33,3.72-2.17s2.51-1.29,2.84-3.4-.68-2.88-.09-5.24c.83-3.25,1.58-2.21,3.17-4.41,1.45-2,1.86-4,1-5.53s-4.57-4.1-4.57-4.1,2.73-1.72,4.93-.14,3.26,1.14,3.79,5.21C177.23,102.06,176.73,100.3,175.31,106.37Z"/><path class="cls-2" d="M165,113.05c-2.76.93-4.2,2.24-7.05-2a66.92,66.92,0,0,1-4.68-8.27,6.1,6.1,0,0,0,2.32-3,17,17,0,0,0,1.11-5.06s7.13-3.32,10-2a10.74,10.74,0,0,1,3.83,4.91c.64,2-3.21,4.72-4,6.9s.41,7.13-1.5,8.53"/><path class="cls-7" d="M165,113.05c-2.76.93-4.2,2.24-7.05-2a66.92,66.92,0,0,1-4.68-8.27,6.1,6.1,0,0,0,2.32-3,17,17,0,0,0,1.11-5.06s7.13-3.32,10-2a10.74,10.74,0,0,1,3.83,4.91c.64,2-3.21,4.72-4,6.9S166.94,111.65,165,113.05Z"/><path class="cls-2" d="M165.8,72.76c5.34,3.24,6.74,5.66,7.34,8.68.71,3.6,0,7.58-1.9,7.38-2.1-.21-.06-.87-.92-4.21s-.45-2.79-2.35-3.75-2.95-.24-5-1.53c-2.84-1.79-1.61-2.18-3.23-4.37-1.49-2-3.24-3-4.93-2.68s-5.32,3.08-5.32,3.08-.8-3.14,1.39-4.75,2.1-2.74,6.12-2c5.3,1,3.46.9,8.8,4.13"/><path class="cls-7" d="M165.8,72.76c5.34,3.24,6.74,5.66,7.34,8.68.71,3.6,0,7.58-1.9,7.38-2.1-.21-.06-.87-.92-4.21s-.45-2.79-2.35-3.75-2.95-.24-5-1.53c-2.84-1.79-1.61-2.18-3.23-4.37-1.49-2-3.24-3-4.93-2.68s-5.32,3.08-5.32,3.08-.8-3.14,1.39-4.75,2.1-2.74,6.12-2C162.3,69.61,160.46,69.53,165.8,72.76Z"/><path class="cls-2" d="M169,84.6c0,2.92.84,4.69-4.12,6.08a68,68,0,0,1-9.32,1.9,6.08,6.08,0,0,0-2.15-3.14,16.83,16.83,0,0,0-4.46-2.62S148,79,150.15,76.72A10.67,10.67,0,0,1,156,74.59c2.13,0,3.5,4.5,5.32,6s6.91,1.81,7.64,4.06"/><path class="cls-7" d="M169,84.6c0,2.92.84,4.69-4.12,6.08a68,68,0,0,1-9.32,1.9,6.08,6.08,0,0,0-2.15-3.14,16.83,16.83,0,0,0-4.46-2.62S148,79,150.15,76.72A10.67,10.67,0,0,1,156,74.59c2.13,0,3.5,4.5,5.32,6S168.24,82.35,169,84.6Z"/><path class="cls-2" d="M173.32,89.89a8.28,8.28,0,0,0,2.19-2.52c1.53-2.29.9-3.28.9-3.28a12.21,12.21,0,0,0,2.15,2.79,6.14,6.14,0,0,0,3.4,1.7,32.09,32.09,0,0,0-3.19,2c-1.5,1.07-.64,3.86-.64,3.86a26.77,26.77,0,0,0-2.07-3,4.8,4.8,0,0,0-2.74-1.54"/><path class="cls-7" d="M173.32,89.89a8.28,8.28,0,0,0,2.19-2.52c1.53-2.29.9-3.28.9-3.28a12.21,12.21,0,0,0,2.15,2.79,6.14,6.14,0,0,0,3.4,1.7,32.09,32.09,0,0,0-3.19,2c-1.5,1.07-.64,3.86-.64,3.86a26.77,26.77,0,0,0-2.07-3A4.8,4.8,0,0,0,173.32,89.89Z"/><path class="cls-2" d="M161.23,118.87a4.74,4.74,0,0,0,3.45,1.18,8.05,8.05,0,0,0,3.57-.74s-.95-.23-1,1.89a30.47,30.47,0,0,0,.4,5,7.66,7.66,0,0,0-3.28-1.75c-1.81-.37-4.6.87-4.6.87a9.81,9.81,0,0,0,2.28-3.09c.71-1.51-.8-3.37-.8-3.37"/><path class="cls-7" d="M161.23,118.87a4.74,4.74,0,0,0,3.45,1.18,8.05,8.05,0,0,0,3.57-.74s-1-.23-1,1.89a44.72,44.72,0,0,0,.4,5,7.66,7.66,0,0,0-3.28-1.75c-1.81-.37-4.6.87-4.6.87a9.81,9.81,0,0,0,2.28-3.09C162.74,120.73,161.23,118.87,161.23,118.87Z"/><path class="cls-2" d="M124.52,116.06a4.44,4.44,0,0,0,3.45,1.19,4,4,0,0,0,2.93-1.6,5.65,5.65,0,0,0-1.29,3.44,4.79,4.79,0,0,0,1.29,3.43,5.81,5.81,0,0,0-2.86-.9c-1.85,0-4,1.76-4,1.76a10.32,10.32,0,0,0,1.39-3.52,8,8,0,0,0-.89-3.8"/><path class="cls-7" d="M124.52,116.06a4.44,4.44,0,0,0,3.45,1.19,4,4,0,0,0,2.93-1.6,5.22,5.22,0,0,0,0,6.87,5.81,5.81,0,0,0-2.86-.9c-1.85,0-4,1.76-4,1.76a10.32,10.32,0,0,0,1.39-3.52A8,8,0,0,0,124.52,116.06Z"/><path class="cls-2" d="M121.66,79.89s-.41.5-.46,3a2.92,2.92,0,0,0,1.7,3s-.56-.57-2.74.74a5.94,5.94,0,0,0-2.41,2.63s.44-2.63-.22-3.94a19.78,19.78,0,0,0-2-3.06,7.8,7.8,0,0,1,3.33-1,4,4,0,0,0,2.76-1.36"/><path class="cls-7" d="M121.66,79.89s-.46.5-.46,3a3,3,0,0,0,1.7,3s-.56-.57-2.74.74a5.94,5.94,0,0,0-2.41,2.63s.44-2.63-.22-3.94a19.78,19.78,0,0,0-2-3.06,7.8,7.8,0,0,1,3.33-1A4,4,0,0,0,121.66,79.89Z"/><path class="cls-2" d="M178.77,196.15c3.43.22,5.37,2.37,4.3,7.74S179.2,211,178.34,217a39.75,39.75,0,0,1-1.93,8.79c-1.29,4.73.64,11.08-3.87,11.38-3.22.22-4.29-4.07-4.07-8.16.23-4.5.21-4.93,2.15-9.87,2.55-6.53,4.93-7.3,4.29-13.74s1.07-9.24,3.86-9.24"/><path class="cls-8" d="M181.35,217a20.63,20.63,0,0,1,.64,4.5s-1.07,1.07-1.93-1.08.64-6,1.29-3.42"/><path class="cls-9" d="M181.35,217a20.63,20.63,0,0,1,.64,4.5s-1.07,1.07-1.93-1.08S180.7,214.41,181.35,217Z"/><path class="cls-8" d="M182.85,214.84c.43,2.15,1.5,3.21,1.72,5.36s2.57,4.51,2.79,2.15a7.5,7.5,0,0,0-1.29-5.36c-1.07-1.72-3.65-4.31-3.22-2.15"/><path class="cls-9" d="M182.85,214.84c.43,2.15,1.5,3.21,1.72,5.36s2.57,4.51,2.79,2.15a7.5,7.5,0,0,0-1.29-5.36C185,215.27,182.42,212.68,182.85,214.84Z"/><path class="cls-8" d="M188.22,214.19a10,10,0,0,0,0,2.58c.21,1.93.38,1.59,1.28,3.86s5.37,4.72,3.66,1.5-4.94-9.45-4.94-7.94"/><path class="cls-9" d="M188.22,214.19a10,10,0,0,0,0,2.58c.21,1.93.38,1.59,1.28,3.86s5.37,4.72,3.66,1.5S188.22,212.68,188.22,214.19Z"/><path class="cls-8" d="M192.94,214.19c2.79,1.93,3,3.65,3.65,5.37s1.51,3.22.64,3.43-1.5.22-2.79-2.58-3.86-6.86-1.5-6.22"/><path class="cls-9" d="M192.94,214.19c2.79,1.93,3,3.65,3.65,5.37s1.51,3.22.64,3.43-1.5.22-2.79-2.58S190.58,213.55,192.94,214.19Z"/><path class="cls-8" d="M197,214.62A8.5,8.5,0,0,1,199.6,217c1.29,1.71,2.75,4.24,1.72,5.14-1.72,1.5-1.08.22-2.8-2.79s-2.36-3.87-2.36-4.72c0-1.26.86,0,.86,0"/><path class="cls-9" d="M197,214.62A8.5,8.5,0,0,1,199.6,217c1.29,1.71,2.75,4.24,1.72,5.14-1.72,1.5-1.08.22-2.8-2.79s-2.36-3.87-2.36-4.72C196.16,213.36,197,214.62,197,214.62Z"/><path class="cls-8" d="M201.1,214.41c-1.08.64,1.07,2.78,2.14,4.72s1.08,3.65,1.94,2.58,1.5-2.37-.22-4.08-3.22-4.95-3.86-3.22"/><path class="cls-9" d="M201.1,214.41c-1.08.64,1.07,2.78,2.14,4.72s1.08,3.65,1.94,2.58,1.5-2.37-.22-4.08S201.74,212.68,201.1,214.41Z"/><path class="cls-8" d="M206.89,214.41s-2.15-1.08-.43,1.5,3.44,2.58,3.44,2.58,1.08-.22,0-1.94a5.23,5.23,0,0,0-3-2.14"/><path class="cls-9" d="M206.89,214.41s-2.15-1.08-.43,1.5,3.44,2.58,3.44,2.58,1.08-.22,0-1.94A5.23,5.23,0,0,0,206.89,214.41Z"/><path class="cls-2" d="M121.67,196.59c-3.44.21-5.37,2.36-4.3,7.72s3.86,7.09,4.72,13.1a40.31,40.31,0,0,0,1.93,8.8c1.29,4.73-.63,11.08,3.87,11.38,3.22.22,4.29-4.08,4.07-8.15-.22-4.51-.2-4.94-2.14-9.88-2.55-6.53-4.93-7.3-4.3-13.75s-1.07-9.22-3.85-9.22"/><path class="cls-2" d="M220.84,114.36l-27,14.6s-3.14,26-15.46,40.79c-15,18-17.6,20.18-26.19,26.19s-23.62,15.46-23.62,15.46L132,220s45.19-23.05,61.41-39.51c29.63-30,27.47-66.12,27.47-66.12"/><path class="cls-8" d="M119.09,217.41a20.75,20.75,0,0,0-.64,4.51s1.07,1.07,1.93-1.08-.65-6-1.29-3.43"/><path class="cls-9" d="M119.09,217.41a20.75,20.75,0,0,0-.64,4.51s1.07,1.07,1.93-1.08S119.73,214.84,119.09,217.41Z"/><path class="cls-8" d="M117.58,215.27c-.42,2.14-1.5,3.22-1.72,5.36s-2.57,4.5-2.78,2.15a7.48,7.48,0,0,1,1.28-5.37c1.08-1.72,3.66-4.29,3.22-2.14"/><path class="cls-9" d="M117.58,215.27c-.42,2.14-1.5,3.22-1.72,5.36s-2.57,4.5-2.78,2.15a7.48,7.48,0,0,1,1.28-5.37C115.44,215.69,118,213.12,117.58,215.27Z"/><path class="cls-8" d="M112.22,214.62a10.37,10.37,0,0,1,0,2.57c-.21,1.94-.39,1.6-1.29,3.87s-5.36,4.72-3.65,1.5,4.94-9.44,4.94-7.94"/><path class="cls-9" d="M112.22,214.62a10.37,10.37,0,0,1,0,2.57c-.21,1.94-.39,1.6-1.29,3.87s-5.36,4.72-3.65,1.5S112.22,213.12,112.22,214.62Z"/><path class="cls-8" d="M107.5,214.62c-2.8,1.93-3,3.65-3.65,5.37s-1.51,3.22-.65,3.43,1.5.21,2.79-2.58,3.87-6.87,1.51-6.22"/><path class="cls-9" d="M107.5,214.62c-2.8,1.93-3,3.65-3.65,5.37s-1.51,3.22-.65,3.43,1.5.21,2.79-2.58S109.86,214,107.5,214.62Z"/><path class="cls-8" d="M103.41,215.05a8.28,8.28,0,0,0-2.57,2.36c-1.29,1.72-2.76,4.25-1.72,5.15,1.72,1.51,1.08.22,2.79-2.79s2.36-3.86,2.36-4.72c0-1.25-.86,0-.86,0"/><path class="cls-9" d="M103.41,215.05a8.28,8.28,0,0,0-2.57,2.36c-1.29,1.72-2.76,4.25-1.72,5.15,1.72,1.51,1.08.22,2.79-2.79s2.36-3.86,2.36-4.72C104.27,213.8,103.41,215.05,103.41,215.05Z"/><path class="cls-8" d="M99.34,214.84c1.07.63-1.08,2.79-2.15,4.72s-1.07,3.65-1.93,2.57-1.5-2.36.21-4.08,3.22-4.93,3.87-3.21"/><path class="cls-9" d="M99.34,214.84c1.07.63-1.08,2.79-2.15,4.72s-1.07,3.65-1.93,2.57-1.5-2.36.21-4.08S98.69,213.12,99.34,214.84Z"/><path class="cls-8" d="M93.54,214.84s2.15-1.08.43,1.5-3.44,2.57-3.44,2.57-1.07-.21,0-1.92a5.21,5.21,0,0,1,3-2.15"/><path class="cls-9" d="M93.54,214.84s2.15-1.08.43,1.5-3.44,2.57-3.44,2.57-1.07-.21,0-1.92A5.21,5.21,0,0,1,93.54,214.84Z"/><path class="cls-2" d="M116.2,270.63l.72-3.34a23.45,23.45,0,0,0,3.32.39,4.74,4.74,0,0,0,2.69-.8,4.48,4.48,0,0,0,1.35-1.59,5,5,0,0,0,.4-1l4.08.87-5.31,25-5-1.07,3.66-17.23-5.88-1.25"/><path class="cls-2" d="M134.86,287.25a3.6,3.6,0,0,0,2.64,1.22,3.53,3.53,0,0,0,2.76-.84,4,4,0,0,0,1.18-2.86,3.94,3.94,0,0,0-.79-3,3.53,3.53,0,0,0-2.6-1.21,3.59,3.59,0,0,0-2.75.83,4,4,0,0,0-1.2,2.88,4.2,4.2,0,0,0,.76,3m-4.74-6.83a6.25,6.25,0,0,1,3-2.42,6,6,0,0,1-2.22-2.82,7.71,7.71,0,0,1-.35-2.72,6.17,6.17,0,0,1,2.42-4.58,9.84,9.84,0,0,1,11.8.82,6.26,6.26,0,0,1,1.76,4.87,7.31,7.31,0,0,1-.75,2.65,5.07,5.07,0,0,1-2.56,2.31,7.16,7.16,0,0,1,2.64,3,8.07,8.07,0,0,1,.67,3.94,7.33,7.33,0,0,1-2.77,5.32,9.33,9.33,0,0,1-6.8,1.78c-2.84-.2-4.95-1.1-6.31-2.7a7.59,7.59,0,0,1-1.81-5.63A7.9,7.9,0,0,1,130.12,280.42Zm5.89-4.74a3.18,3.18,0,0,0,2.31,1,3.06,3.06,0,0,0,2.41-.71,3.13,3.13,0,0,0,1-2.21,3.19,3.19,0,0,0-.68-2.41,3.08,3.08,0,0,0-2.3-1,3.3,3.3,0,0,0-2.75,5.32Z"/><path class="cls-2" d="M155.34,287.78a4,4,0,0,0,5.4-.38,4.13,4.13,0,0,0,.78-3,4,4,0,0,0-1.22-2.88,3.54,3.54,0,0,0-2.74-.83,3.62,3.62,0,0,0-2.61,1.2,4,4,0,0,0-.78,3,4.14,4.14,0,0,0,1.17,2.85m-5.65-6.1a6.24,6.24,0,0,1,2.68-2.82,6.08,6.08,0,0,1-2.6-2.48,7.67,7.67,0,0,1-.73-2.65,6.21,6.21,0,0,1,1.77-4.87,9.86,9.86,0,0,1,11.8-.83,6.27,6.27,0,0,1,2.42,4.58,7.59,7.59,0,0,1-.37,2.73,5.13,5.13,0,0,1-2.22,2.64,7.16,7.16,0,0,1,3,2.6,8,8,0,0,1,1.21,3.81,7.27,7.27,0,0,1-2,5.65,9.31,9.31,0,0,1-6.49,2.72c-2.84.19-5.05-.4-6.62-1.81a7.57,7.57,0,0,1-2.57-5.32A7.83,7.83,0,0,1,149.69,281.68Zm5.18-5.52a3.31,3.31,0,1,0,2-5.64,2.94,2.94,0,0,0-3,3.44A3.08,3.08,0,0,0,154.87,276.16Z"/><path class="cls-2" d="M168.38,268.15a8,8,0,0,1,5.5-3.78c3.8-.81,6.77.33,8.89,3.38a20.25,20.25,0,0,1,2.82,7.28,21.68,21.68,0,0,1,.44,7.81q-1,6.24-6.86,7.49a8.49,8.49,0,0,1-5.4-.58,6.7,6.7,0,0,1-3.6-4.32l4.89-1a3.05,3.05,0,0,0,1.31,1.59,3,3,0,0,0,2.17.26c1.62-.35,2.56-1.48,2.83-3.41a16.27,16.27,0,0,0-.24-4.47A5.24,5.24,0,0,1,180,280a6.53,6.53,0,0,1-3.22,1.55,7.89,7.89,0,0,1-5.73-.92,7.73,7.73,0,0,1-3.56-5.46,9.37,9.37,0,0,1,.92-7m10.38,8.15a4.19,4.19,0,0,0,.89-4.06,5.42,5.42,0,0,0-1.72-3.15,3.35,3.35,0,0,0-3-.66,3.4,3.4,0,0,0-2,1.16,4.54,4.54,0,0,0-.62,4,5.45,5.45,0,0,0,1.6,3.15,3.51,3.51,0,0,0,3,.51A3.63,3.63,0,0,0,178.76,276.3Z"/><path class="cls-2" d="M145.05,96.47a2.66,2.66,0,1,1,2.62,3.12,2.89,2.89,0,0,1-2.62-3.12"/><path class="cls-10" d="M145.05,96.47a2.66,2.66,0,1,1,2.62,3.12A2.89,2.89,0,0,1,145.05,96.47Z"/><path class="cls-11" d="M146.69,98.11a2.66,2.66,0,1,1,2.62,3.12A2.9,2.9,0,0,1,146.69,98.11Z"/><path class="cls-11" d="M143.08,97.78a2.66,2.66,0,1,1,2.62,3.12A2.89,2.89,0,0,1,143.08,97.78Z"/><path class="cls-11" d="M143.41,94.51A2.66,2.66,0,1,1,146,97.62,2.89,2.89,0,0,1,143.41,94.51Z"/><path class="cls-11" d="M146.69,94.19a2.66,2.66,0,1,1,2.62,3.11A2.9,2.9,0,0,1,146.69,94.19Z"/><path class="cls-2" d="M79.59,113.93l27.05,14.6s3.13,26,15.45,40.79c15,18,17.61,20.18,26.19,26.2S171.9,211,171.9,211l-3.43,8.59s-45.18-23.05-61.4-39.51C77.44,150,79.59,113.93,79.59,113.93"/><path class="cls-12" d="M79.59,113.93l27.05,14.6s3.13,26,15.45,40.79c15,18,17.61,20.18,26.19,26.2S171.9,211,171.9,211l-3.43,8.59s-45.18-23.05-61.4-39.51C77.44,150,79.59,113.93,79.59,113.93Z"/><path class="cls-2" d="M26.28,168a5.31,5.31,0,0,0,2.57-1.2q1.48-1.45,1.2-4.65a9.49,9.49,0,0,0-.69-3.06,3,3,0,0,0-3.2-2,2.26,2.26,0,0,0-1.89,1.3,12.8,12.8,0,0,0-.9,3.63L23,164.75a17.47,17.47,0,0,1-1.49,5.76,6.35,6.35,0,0,1-5.37,3.1,7.5,7.5,0,0,1-6-2q-2.52-2.33-2.95-7.22a11.15,11.15,0,0,1,1.57-7.16,7.69,7.69,0,0,1,6-3.58l.46,5.19a3.73,3.73,0,0,0-3.14,2.33,6.94,6.94,0,0,0-.37,3.19,5.8,5.8,0,0,0,1.14,3.26,2.67,2.67,0,0,0,2.45,1,2.24,2.24,0,0,0,2-1.41,15.13,15.13,0,0,0,.77-3.46l.68-4.55a11.7,11.7,0,0,1,1.49-4.58,6.37,6.37,0,0,1,5.08-2.78,7.49,7.49,0,0,1,6.13,2.2q2.58,2.5,3,7.45c.29,3.37-.24,6.08-1.61,8.14a7.67,7.67,0,0,1-6.09,3.45L26.28,168"/><polyline class="cls-2" points="32.74 147.51 6.97 144.35 7.63 139.02 17.45 140.22 18.69 130.15 8.87 128.95 9.52 123.6 35.28 126.77 34.63 132.11 23.13 130.7 21.89 140.77 33.39 142.18 32.74 147.51"/><polyline class="cls-2" points="21.89 97.13 17.65 110.19 22.89 111.89 26.79 99.9 31.07 101.3 27.18 113.28 33.53 115.35 37.96 101.68 42.4 103.12 36.32 121.83 11.64 113.81 17.52 95.7 21.89 97.13"/><polyline class="cls-2" points="21.65 87.08 30.57 70.98 34.57 73.19 28.25 84.58 33.48 87.47 39 77.51 42.95 79.69 37.42 89.66 46.94 94.93 44.33 99.65 21.65 87.08"/><polyline class="cls-2" points="35.58 64.31 47.41 50.21 50.91 53.15 42.54 63.12 47.12 66.95 54.44 58.22 57.89 61.12 50.57 69.85 58.9 76.84 55.44 80.97 35.58 64.31"/><polyline class="cls-2" points="73.75 61.5 69.74 65.1 52.38 45.81 56.38 42.21 73.75 61.5"/><polyline class="cls-2" points="81.7 29.77 70.18 37.26 73.18 41.88 83.76 35.01 86.21 38.8 75.64 45.66 79.27 51.26 91.32 43.43 93.86 47.35 77.37 58.06 63.23 36.29 79.19 25.92 81.7 29.77"/><polyline class="cls-2" points="87.58 21.35 92.62 19.33 100.59 39.07 112.51 34.25 114.25 38.58 97.31 45.42 87.58 21.35"/><path class="cls-2" d="M118.6,15.31l3.23,16.63,4.91-1a5.4,5.4,0,0,0,4.53-4.74,13.22,13.22,0,0,0-.13-5,12,12,0,0,0-2.39-5.72c-1.08-1.24-2.82-1.62-5.24-1.15l-4.91,1m9-5.77a8.68,8.68,0,0,1,5,2.39,11.68,11.68,0,0,1,2.61,3.76,19.61,19.61,0,0,1,1.3,4.13,17.29,17.29,0,0,1-.36,9,9.39,9.39,0,0,1-7.62,6.41l-11,2.13-5-25.48,11-2.13A14.22,14.22,0,0,1,127.6,9.54Z"/><path class="cls-2" d="M155.94,7.13l5.47.67-1.94,15.84a8.84,8.84,0,0,0,.15,4c.47,1.53,1.81,2.42,4,2.69s3.68-.28,4.51-1.65a9,9,0,0,0,1.11-3.8L171.18,9l5.48.67-1.95,15.84a13.37,13.37,0,0,1-2.06,6.24c-1.93,2.61-5.12,3.63-9.59,3.09s-7.32-2.32-8.58-5.31A13.41,13.41,0,0,1,154,23l1.94-15.84"/><polyline class="cls-2" points="186.69 11.67 192.06 13.52 195.94 34.02 201.83 16.89 206.62 18.53 198.17 43.07 193.03 41.31 189.01 20.42 183.01 37.86 178.24 36.21 186.69 11.67"/><polyline class="cls-2" points="206.67 48.01 201.91 45.48 214.1 22.56 218.85 25.09 206.67 48.01"/><polyline class="cls-2" points="242.14 40.64 239.44 44.37 233.16 39.8 220.6 57.08 216.18 53.87 228.73 36.59 222.43 32.01 225.13 28.29 242.14 40.64"/><polyline class="cls-2" points="258.18 63.66 248.81 53.61 244.78 57.37 253.38 66.59 250.08 69.66 241.48 60.44 236.6 65 246.41 75.5 242.99 78.69 229.57 64.3 248.56 46.6 261.55 60.52 258.18 63.66"/><path class="cls-2" d="M266.38,75.38l-14.53,8.73,2.58,4.28a5.37,5.37,0,0,0,6,2.64,13.28,13.28,0,0,0,4.67-1.84,12.13,12.13,0,0,0,4.57-4.2q1.18-2.14-.72-5.33l-2.57-4.28m8.49,6.48a8.56,8.56,0,0,1-.54,5.48,11.5,11.5,0,0,1-2.65,3.75,19.49,19.49,0,0,1-3.43,2.63,17.27,17.27,0,0,1-8.58,2.75,9.39,9.39,0,0,1-8.63-5l-5.77-9.59,22.25-13.36,5.77,9.58A13.68,13.68,0,0,1,274.87,81.86Z"/><polyline class="cls-2" points="286.38 107.41 290.83 125.26 286.4 126.36 283.25 113.74 277.47 115.18 280.22 126.23 275.85 127.33 273.09 116.27 262.53 118.9 261.23 113.68 286.38 107.41"/><polyline class="cls-2" points="270.26 129.87 271.01 135.16 265.81 135.89 265.07 130.6 270.26 129.87"/><path class="cls-2" d="M289.94,143.69a10.88,10.88,0,0,1,3.07,8.12q-.12,6.56-4.46,9.5a9.38,9.38,0,0,1-4.88,1.72l.09-5.42a7.3,7.3,0,0,0,2.84-1.32,5.51,5.51,0,0,0,1.78-4.35,5.45,5.45,0,0,0-2.32-4.71,11.3,11.3,0,0,0-6.71-1.82c-2.91-.06-5.11.51-6.59,1.68a5.74,5.74,0,0,0-2.24,4.55,5.22,5.22,0,0,0,1.79,4.38,8,8,0,0,0,3,1.43l-.1,5.37a11.63,11.63,0,0,1-6.84-3.73,10.48,10.48,0,0,1-2.52-7.46,11.18,11.18,0,0,1,3.74-8.74q3.66-3.15,9.95-3,6.8.12,10.41,3.83"/><polyline class="cls-2" points="270.79 166.86 269.96 172.13 264.77 171.31 265.61 166.04 270.79 166.86"/></g></g></svg>