<svg xmlns="http://www.w3.org/2000/svg" xmlns:xlink="http://www.w3.org/1999/xlink" viewBox="0 0 300 300"><defs><style>.cls-1{fill:none;}.cls-2{clip-path:url(#clip-path);}.cls-3{fill:#fff;}.cls-4{fill:#0000bf;}.cls-5{fill:#d50000;}.cls-6{fill:#ffdf00;}</style><clipPath id="clip-path"><circle class="cls-1" cx="150" cy="150" r="150"/></clipPath></defs><title>Slovenia</title><g id="Слой_2" data-name="Слой 2"><g id="Layer_1" data-name="Layer 1"><g class="cls-2"><path class="cls-3" d="M0,0H300V300H0Z"/><path class="cls-4" d="M0,100H300V300H0Z"/><path class="cls-5" d="M0,200H300V300H0Z"/><path class="cls-5" d="M35.71,57.67c-.93.41-1.84.83-2.75,1.27l2.86,45.37A51.07,51.07,0,0,0,72.11,150h0a51,51,0,0,0,36.28-45.69l2.87-45.37c-.91-.44-1.83-.86-2.75-1.27h0l-2.94,46.44A48.23,48.23,0,0,1,72.11,147h0a48.25,48.25,0,0,1-33.47-42.93L35.71,57.67h0"/><path class="cls-4" d="M108.51,57.67a90.21,90.21,0,0,0-72.8,0l2.93,46.44A48.25,48.25,0,0,0,72.11,147h0a48.23,48.23,0,0,0,33.46-42.93"/><path class="cls-6" d="M74.31,71.73l1.61-2.21-2.71.3-1.1-2.5L71,69.82l-2.72-.3,1.62,2.21-1.62,2.2,2.72-.3,1.1,2.5,1.1-2.5,2.71.3"/><path class="cls-6" d="M64,58l1.61-2.2-2.71.29-1.1-2.49-1.1,2.49L58,55.82,59.63,58,58,60.22l2.71-.29,1.1,2.5,1.1-2.5,2.71.29"/><path class="cls-6" d="M84.59,58l1.61-2.2-2.71.29-1.11-2.49-1.1,2.49-2.71-.29L80.18,58l-1.61,2.2,2.71-.29,1.1,2.5,1.11-2.5,2.71.29"/><path class="cls-3" d="M101.47,110.88,86.79,91.3l-5.87,7.83L72.11,81.51,63.3,99.13,57.43,91.3,42.74,110.88a9.8,9.8,0,0,0,14.69,8.47s0,0,0,0a9.88,9.88,0,0,1,9.79,0,9.75,9.75,0,0,0,4.9,1.31h0A9.74,9.74,0,0,0,77,119.35a9.86,9.86,0,0,1,9.79,0s0,0,0,0a9.68,9.68,0,0,0,4.89,1.31,9.78,9.78,0,0,0,9.79-9.78"/><path class="cls-3" d="M46.22,121.51c.68,1.33,1.42,2.64,2.22,3.91h0a9.75,9.75,0,0,0,6.62.56,9.48,9.48,0,0,0,2.37-1s0,0,0,0a9.69,9.69,0,0,1,4.89-1.32h0A9.75,9.75,0,0,1,67.21,125a9.84,9.84,0,0,0,7.43,1A9.41,9.41,0,0,0,77,125s0,0,0,0a9.73,9.73,0,0,1,4.9-1.32h0a9.76,9.76,0,0,1,4.9,1.32,9.84,9.84,0,0,0,7.43,1,8.93,8.93,0,0,0,1.55-.56A44.55,44.55,0,0,0,98,121.51h0a9.56,9.56,0,0,0-1.41.67h0a10.4,10.4,0,0,1-2.36,1,9.79,9.79,0,0,1-7.43-1,9.75,9.75,0,0,0-4.9-1.31h0a9.82,9.82,0,0,0-4.9,1.31h0a10,10,0,0,1-2.36,1,9.79,9.79,0,0,1-7.43-1,9.74,9.74,0,0,0-4.89-1.31h0a9.78,9.78,0,0,0-4.89,1.31h0a10.4,10.4,0,0,1-2.36,1,9.79,9.79,0,0,1-7.43-1,9.67,9.67,0,0,0-1.42-.67h0"/><path class="cls-3" d="M93.24,129a45.57,45.57,0,0,1-21.13,15h0A45.47,45.47,0,0,1,54.68,133.2,44.23,44.23,0,0,1,51,129a9.87,9.87,0,0,0,4.08-.21,10.29,10.29,0,0,0,2.37-1s0,0,0,0a9.85,9.85,0,0,1,4.9-1.31h0a9.74,9.74,0,0,1,4.89,1.31,9.79,9.79,0,0,0,7.43,1,10.22,10.22,0,0,0,2.36-1h0a9.82,9.82,0,0,1,4.9-1.31h0a9.75,9.75,0,0,1,4.9,1.31A9.84,9.84,0,0,0,93.24,129h0"/></g></g></g></svg>