<svg xmlns="http://www.w3.org/2000/svg" xmlns:xlink="http://www.w3.org/1999/xlink" viewBox="0 0 301 300"><defs><style>.cls-1{fill:none;}.cls-2{clip-path:url(#clip-path);}.cls-3{fill:#ee1c25;}.cls-4{fill:#0b4ea2;}.cls-5{fill:#fff;}</style><clipPath id="clip-path" transform="translate(0 0)"><circle class="cls-1" cx="150" cy="150" r="150"/></clipPath></defs><title>Slovakia</title><g id="Слой_2" data-name="Слой 2"><g id="Слой_1-2" data-name="Слой 1"><g class="cls-2"><rect class="cls-3" width="301" height="300"/><rect class="cls-4" width="301" height="200"/><rect class="cls-5" width="301" height="100"/><path class="cls-5" d="M113.13,231.75c-26.89-12.95-65.36-38.66-65.36-89.52s2.43-74,2.43-74H176.05s2.43,23.13,2.43,74S140,218.8,113.13,231.75Z" transform="translate(0 0)"/><path class="cls-3" d="M113.13,225c-24.67-11.88-60-35.47-60-82.13S55.4,75,55.4,75H170.86s2.23,21.22,2.23,67.87-35.29,70.25-60,82.13Z" transform="translate(0 0)"/><path class="cls-5" d="M118.4,130.64c6.68.11,19.72.37,31.32-3.51,0,0-.3,4.15-.3,9s.3,9,.3,9c-10.64-3.56-23.79-3.64-31.32-3.54v25.77H107.85V141.57c-7.52-.1-20.67,0-31.32,3.54,0,0,.31-4.15.31-9s-.31-9-.31-9c11.61,3.88,24.64,3.62,31.32,3.51V114.46A73.85,73.85,0,0,0,83.07,118s.31-4.15.31-9-.31-9-.31-9a74,74,0,0,0,24.76,3.56c-.32-10.25-3.3-23.17-3.3-23.17s6.14.48,8.6.48,8.6-.48,8.6-.48-3,12.92-3.3,23.17A74,74,0,0,0,143.19,100s-.31,4.15-.31,9,.31,9,.31,9a73.91,73.91,0,0,0-24.79-3.55v16.18Z" transform="translate(0 0)"/><path class="cls-4" d="M113.13,164.55c-12.43,0-19.08,17.23-19.08,17.23a15.23,15.23,0,0,0-13.83-8.17c-6.86,0-11.91,6.1-15.13,11.75,12.48,19.85,32.39,32.1,48,39.64,15.65-7.54,35.57-19.79,48-39.64-3.21-5.65-8.27-11.75-15.12-11.75a15.27,15.27,0,0,0-13.85,8.17s-6.65-17.23-19.08-17.23Z" transform="translate(0 0)"/></g></g></g></svg>