<svg xmlns="http://www.w3.org/2000/svg" xmlns:xlink="http://www.w3.org/1999/xlink" viewBox="0 0 299.07 299.07"><defs><style>.cls-1{fill:none;}.cls-2{clip-path:url(#clip-path);}.cls-3{fill:#f0f0f0;}.cls-4{fill:#ffda44;}.cls-5{fill:#6da544;}.cls-6{fill:#0052b4;}.cls-7{fill:#d80027;}</style><clipPath id="clip-path" transform="translate(0 -0.23)"><rect class="cls-1" width="299.3" height="300"/></clipPath></defs><title>South_Africa</title><g id="Слой_2" data-name="Слой 2"><g id="Слой_1-2" data-name="Слой 1"><g class="cls-2"><path class="cls-3" d="M299.07,149.77A149.54,149.54,0,1,1,149.53.23,149.54,149.54,0,0,1,299.07,149.77Z" transform="translate(0 -0.23)"/><path d="M43.8,255.5A149.52,149.52,0,0,1,43.8,44S130,149.77,130,149.77Z" transform="translate(0 -0.23)"/></g><path class="cls-4" d="M130,149.77,19.83,75.3a149.1,149.1,0,0,0-9,18.55L66.6,149.77,10.82,205.69a147.44,147.44,0,0,0,9,18.53Z" transform="translate(0 -0.23)"/><path class="cls-5" d="M297.8,130.26H130L43.8,44a150.41,150.41,0,0,0-24,31.27l74.32,74.47L19.83,224.22a149.87,149.87,0,0,0,24,31.28L130,169.27H297.8a150.42,150.42,0,0,0,0-39Z" transform="translate(0 -0.23)"/><path class="cls-6" d="M58.49,268.39a149.56,149.56,0,0,0,235.43-79.61H138.11Z" transform="translate(0 -0.23)"/><path class="cls-7" d="M293.92,110.76A149.55,149.55,0,0,0,58.49,31.15l79.61,79.61Z" transform="translate(0 -0.23)"/></g></g></svg>