<svg xmlns="http://www.w3.org/2000/svg" viewBox="0 0 263.12 298.4"><defs><style>.cls-1{fill:#211e1f;}.cls-2{fill:#fff;}.cls-3{fill:#d61f26;}.cls-4{fill:#2eabe2;}.cls-5{fill:#ffc213;}.cls-6{fill:#ffcb04;}.cls-7{fill:#0cb14b;}</style></defs><title>Southampton</title><g id="Слой_2" data-name="Слой 2"><g id="Layer_1" data-name="Layer 1"><path class="cls-1" d="M225.24,213.18a121.06,121.06,0,0,1-184.69.8L14.24,245.62a161.78,161.78,0,0,0,237.44-.56l-26.44-31.88"/><path class="cls-2" d="M132.73,298.4a163.68,163.68,0,0,1-119.36-52l-.7-.76,27.86-33.51.91,1.06a119.88,119.88,0,0,0,182.89-.79l.91-1.07,28,33.75-.7.76A163.37,163.37,0,0,1,132.73,298.4ZM15.81,245.57a160.6,160.6,0,0,0,234.3-.55l-24.89-30a122.23,122.23,0,0,1-184.66.79Z"/><path class="cls-1" d="M204.42,92V232.5a9.56,9.56,0,0,1-6.18,8.93L133,266.72,67.73,241.43a9.6,9.6,0,0,1-6.18-8.93V92H204.42"/><path class="cls-2" d="M133,268,67.31,242.53a10.77,10.77,0,0,1-6.93-10V90.82h145.2V232.5a10.74,10.74,0,0,1-6.94,10ZM62.74,93.17V232.5a8.39,8.39,0,0,0,5.42,7.82L133,265.46l64.81-25.13a8.4,8.4,0,0,0,5.43-7.83V93.17Z"/><polyline class="cls-2" points="64.95 200.46 64.95 113.87 200.99 113.87 201.01 200.46 64.95 200.46"/><path class="cls-3" d="M201,192.34c-1.2,1.91-4.13,3.26-7.54,3.26s-6.41-1.35-7.58-3.29c-1.2,1.95-4.13,3.29-7.57,3.29s-6.35-1.35-7.56-3.26c-1.21,1.91-4.13,3.26-7.55,3.26s-6.37-1.35-7.57-3.29h0c-1.18,1.95-4.11,3.29-7.54,3.29s-6.35-1.35-7.54-3.26c-1.21,1.91-4.17,3.26-7.57,3.26s-6.37-1.35-7.57-3.29h0c-1.21,1.95-4.13,3.29-7.55,3.29s-6.39-1.35-7.59-3.26c-1.19,1.91-4.14,3.26-7.57,3.26s-6.35-1.35-7.54-3.29h0c-1.18,1.95-4.13,3.29-7.53,3.29s-6.38-1.35-7.59-3.26v0c-1.2,1.93-4.13,3.21-7.52,3.21s-6.39-1.35-7.57-3.29v-.16l0,38.27a9,9,0,0,0,5.89,8.47L133,263l62.11-24.14a9,9,0,0,0,5.9-8.47V192.34"/><path class="cls-4" d="M201,188.34c-1.2,1.9-4.13,3.27-7.54,3.27s-6.41-1.38-7.58-3.27c-1.2,1.89-4.13,3.27-7.57,3.27s-6.35-1.37-7.56-3.27c-1.21,1.9-4.13,3.27-7.55,3.27s-6.37-1.38-7.57-3.27h0c-1.18,1.89-4.11,3.27-7.54,3.27s-6.35-1.37-7.54-3.27c-1.21,1.9-4.17,3.27-7.57,3.27s-6.37-1.38-7.57-3.27h0c-1.21,1.89-4.13,3.27-7.55,3.27s-6.39-1.37-7.59-3.27c-1.19,1.9-4.14,3.27-7.57,3.27s-6.35-1.38-7.54-3.27h0c-1.18,1.89-4.13,3.27-7.53,3.27s-6.38-1.37-7.59-3.27v.06c-1.2,1.92-4.13,3.21-7.52,3.21s-6.39-1.38-7.57-3.27V183.6c1.18,1.91,4.1,3.29,7.57,3.29s6.32-1.35,7.52-3.27c1.21,1.92,4.13,3.27,7.59,3.27s6.35-1.38,7.53-3.29h0c1.19,1.91,4.13,3.29,7.54,3.29s6.38-1.35,7.57-3.27c1.2,1.92,4.14,3.27,7.59,3.27s6.34-1.38,7.55-3.29h0c1.2,1.91,4.12,3.29,7.57,3.29s6.36-1.35,7.57-3.27c1.19,1.92,4.1,3.27,7.54,3.27s6.36-1.38,7.54-3.29h0c1.2,1.91,4.11,3.29,7.57,3.29s6.34-1.35,7.55-3.27c1.21,1.92,4.11,3.27,7.56,3.27s6.37-1.38,7.57-3.29c1.17,1.91,4.13,3.29,7.58,3.29s6.34-1.35,7.54-3.27v4.72"/><path class="cls-4" d="M201,179.8c-1.2,1.91-4.13,3.24-7.54,3.24s-6.41-1.35-7.58-3.24c-1.2,1.89-4.13,3.24-7.57,3.24s-6.35-1.33-7.56-3.24c-1.21,1.91-4.13,3.24-7.55,3.24s-6.37-1.35-7.57-3.24h0c-1.18,1.89-4.11,3.24-7.54,3.24s-6.35-1.33-7.54-3.24c-1.21,1.91-4.17,3.24-7.57,3.24s-6.37-1.35-7.57-3.24h0c-1.21,1.89-4.13,3.24-7.55,3.24s-6.39-1.33-7.59-3.24c-1.19,1.91-4.14,3.24-7.57,3.24s-6.35-1.35-7.54-3.24h0C93.94,181.69,91,183,87.59,183s-6.38-1.33-7.59-3.24v0c-1.2,1.92-4.13,3.19-7.52,3.19s-6.39-1.35-7.57-3.24v-4.74c1.18,1.91,4.1,3.28,7.57,3.28S78.8,177,80,175.07c1.21,1.93,4.13,3.27,7.59,3.27s6.35-1.37,7.53-3.28h0c1.19,1.91,4.13,3.28,7.54,3.28s6.38-1.34,7.57-3.27c1.2,1.93,4.14,3.27,7.59,3.27s6.34-1.37,7.55-3.28h0c1.2,1.91,4.12,3.28,7.57,3.28s6.36-1.34,7.57-3.27c1.19,1.93,4.1,3.27,7.54,3.27s6.36-1.37,7.54-3.28h0c1.2,1.91,4.11,3.28,7.57,3.28s6.34-1.34,7.55-3.27c1.21,1.93,4.11,3.27,7.56,3.27s6.37-1.37,7.57-3.28c1.17,1.91,4.13,3.28,7.58,3.28s6.34-1.34,7.54-3.27v4.73"/><path class="cls-1" d="M143,235.93s6.67,10.43,3.16,7.49c-2.56-2.21-6.06-7.29-8.6-11.47l-13.69,5.32s-7.86,9.56-6.12,5.33c1.26-3,5.13-8,8.33-11.75l-9.37-11.32s-11.54-4.49-7-4.15c3,.22,9.23,2.47,13.72,4.29l7.81-12.44s.74-12.37,1.83-7.92c.75,3.05.51,9.66.15,14.55l14.31,3.48s12-3.14,8.07-.73c-2.73,1.72-8.71,3.51-13.48,4.66l.84,14.66"/><path class="cls-1" d="M147,244.67a2.5,2.5,0,0,1-1.34-.69c-3.06-2.64-6.92-8.67-8.44-11.14l-13,5c-5.89,7.14-6.59,6.72-7.11,6.41-.74-.44-.31-1.46-.11-1.95,1.34-3.27,5.46-8.42,8-11.49l-8.87-10.71c-8.61-3.36-8.43-4.17-8.3-4.75.19-.84,1.3-.76,1.83-.72,3.36.25,10.1,2.8,13.38,4.11L130.53,207c.56-9.24,1.39-9.32,2-9.37.85-.09,1.12,1,1.25,1.51.81,3.27.5,10,.21,14.17l13.55,3.29c8.95-2.33,9.27-1.58,9.51-1,.34.79-.57,1.36-1.06,1.66-3.22,2-10.25,3.89-13.1,4.59l.78,13.88c5,7.8,4.36,8.35,3.9,8.75A.82.82,0,0,1,147,244.67Zm-9.18-13.61.32.51A65.94,65.94,0,0,0,145.71,242c-.79-1.53-2.11-3.77-3.36-5.72l-.1-.16-.88-15.45.59-.15a67.59,67.59,0,0,0,12.16-3.95c-1.69.29-4.19.85-6.4,1.43l-.18.05-15.09-3.67.05-.61c.21-2.84.6-9.33.09-13.09-.25,1.7-.49,4.26-.63,6.55v.19l-8.23,13.1-.56-.23A85.63,85.63,0,0,0,111,216.28c1.53.76,3.85,1.76,6,2.57l.17.07L127,230.85l-.39.47c-2.21,2.59-5.92,7.13-7.66,10.39,1.21-1.22,2.89-3.14,4.34-4.9l.12-.15Z"/><path class="cls-2" d="M132.05,233.17a.47.47,0,0,0,.41.34c.16,0,.28-.14.39-.34a7.92,7.92,0,0,0,.23-2.91s.09-5.84,4.45.43c12.22,17.61-5.18,17.71-5.18,17.71h.17s-17.41-.1-5.17-17.71c4.36-6.27,4.41-.43,4.41-.43a7.57,7.57,0,0,0,.29,2.93v0"/><path class="cls-1" d="M132.52,249.12h-.17c-1.1,0-7.13-.42-9.32-4.63-1.74-3.36-.49-8.14,3.73-14.22,1.76-2.53,3.06-3.5,4.22-3.14,1,.31,1.33,1.52,1.45,2.36.11-.84.46-2.05,1.47-2.36s2.49.65,4.23,3.14c4.21,6.08,5.46,10.86,3.71,14.22-2.19,4.21-8.23,4.59-9.32,4.63Zm-2-20.61c-.13,0-.87.12-2.59,2.59-3.89,5.59-5.11,9.87-3.63,12.72,1.82,3.52,7.36,3.83,8.12,3.86s6.31-.34,8.13-3.86c1.48-2.85.26-7.13-3.62-12.72-1.89-2.72-2.62-2.6-2.62-2.59-.24.07-.5,1-.52,1.76a8.69,8.69,0,0,1-.29,3.18l-.07.15-1,.86-.88-.74.26-.31-.44.11a7.92,7.92,0,0,1-.37-3.26c0-.85-.28-1.69-.49-1.75Z"/><path class="cls-2" d="M123.1,226.11c-.16.15-.24.31-.16.45a.38.38,0,0,0,.41.29h0a7.74,7.74,0,0,0,2.86-.63s5.59-1.71,1,4.33c-13,17.07-18.43.59-18.43.59v.11S103.5,214.67,124,220.86c7.33,2.18,1.76,4.09,1.76,4.09a6.78,6.78,0,0,0-2.68,1.16"/><path class="cls-1" d="M116.43,239a6.35,6.35,0,0,1-1.07-.09c-4.75-.79-7-6.59-7.26-7.45h0c-.09-.28-2.1-6.8,1.5-10.45,2.66-2.7,7.6-3,14.67-.85,3,.88,4.27,1.81,4.3,3s-1.12,1.81-1.89,2.18c.85-.16,2.17-.24,2.79.65s.15,2.55-1.68,5C123.69,236.32,119.89,239,116.43,239Zm-7-8.1c0,.06,2,5.9,6.17,6.59,3.17.53,6.87-2,11-7.39,2-2.61,1.66-3.25,1.65-3.26-.14-.2-1.08-.17-1.84.06-.43.15-.83.27-1.19.36l.44.3h-2.31l0-.69-.39.56-.73-.5v-.38a1.46,1.46,0,0,1,.38-1c.31-.31.93-.74,3-1.34.8-.28,1.51-.81,1.51-1,0,0-.11-.73-3.27-1.68-6.53-2-11-1.8-13.24.49-2.76,2.79-1.42,8-1.18,8.88Z"/><path class="cls-2" d="M127,215.36a.42.42,0,0,0-.5,0,.45.45,0,0,0-.14.47h0a7,7,0,0,0,1.53,2.53s3.34,4.77-3.87,2.26c-20.23-7.06-6.23-17.35-6.23-17.35l-.1.05s14.1-10.13,14.6,11.32c.17,7.64-3.36,2.93-3.36,2.93a7.54,7.54,0,0,0-1.93-2.2"/><path class="cls-1" d="M127.28,222.05a11.24,11.24,0,0,1-3.49-.76c-7-2.44-10.8-5.57-11.37-9.31-.71-4.77,4.12-8.67,4.86-9.24v0c.23-.17,5.79-4.1,10.36-1.82,3.39,1.7,5.2,6.31,5.38,13.72.06,3.07-.42,4.62-1.57,5-1,.35-2-.42-2.56-1,.4.76.81,1.92.18,2.75A2.07,2.07,0,0,1,127.28,222.05Zm-9.07-18.23v0s-5,3.74-4.37,7.93c.48,3.17,4,5.92,10.41,8.16,3.13,1.09,3.65.56,3.65.55.15-.2-.16-1.08-.61-1.71a10.13,10.13,0,0,1-1.61-2.71l.44-.16-.49-.07.45-.08-.42-.12.3-1h1.23l.16.1a8.08,8.08,0,0,1,2.16,2.41c.48.63,1.21,1.21,1.45,1.12,0,0,.67-.32.59-3.62-.15-6.83-1.69-11-4.57-12.45C123.5,200.45,119,203.33,118.21,203.82Z"/><path class="cls-2" d="M138.48,215.79a.49.49,0,0,0-.13-.49.57.57,0,0,0-.51.06,6.8,6.8,0,0,0-2,2.19s-3.49,4.67-3.33-2.94c.49-21.44,14.59-11.31,14.59-11.31l-.1-.08s14,10.29-6.26,17.37c-7.18,2.5-3.81-2.26-3.81-2.26a7.05,7.05,0,0,0,1.5-2.54"/><path class="cls-1" d="M137.54,222a2,2,0,0,1-1.75-.71c-.65-.86-.18-2.08.23-2.82-.59.62-1.6,1.44-2.62,1.09s-1.63-2-1.57-5c.17-7.4,2-12,5.38-13.7,4.3-2.14,9.47,1.21,10.27,1.75h0c.23.17,5.7,4.25,4.94,9.29-.56,3.75-4.4,6.89-11.4,9.34A11.38,11.38,0,0,1,137.54,222Zm1.35-7.53.35,1.33-.09.21a12.23,12.23,0,0,1-1.6,2.72c-.47.67-.75,1.52-.61,1.69,0,0,.5.53,3.61-.55,6.45-2.26,10-5,10.44-8.19.59-3.88-3.6-7.33-4.27-7.85-.34-.23-5.2-3.52-8.87-1.69-2.88,1.44-4.42,5.63-4.57,12.44-.07,3.3.58,3.62.59,3.62.21.08.92-.43,1.45-1.13a7.32,7.32,0,0,1,2.2-2.39l.23-.07Z"/><path class="cls-2" d="M141.61,226.85a.42.42,0,0,0,.41-.29c.08-.14,0-.3-.17-.45a6.8,6.8,0,0,0-2.7-1.16s-5.54-1.91,1.75-4.09c20.57-6.19,15.3,10.39,15.3,10.39l0-.11s-5.46,16.48-18.43-.59c-4.65-6,.94-4.33.94-4.33a7.88,7.88,0,0,0,2.88.63"/><path class="cls-1" d="M148.52,239c-3.46,0-7.25-2.69-11.31-8-1.87-2.43-2.4-4-1.71-4.95s2-.81,2.8-.65c-.78-.37-1.91-1.1-1.89-2.18s1.39-2.16,4.28-3c7.1-2.14,12.05-1.85,14.71.86,3.59,3.64,1.57,10.16,1.48,10.44h0c-.31.87-2.53,6.66-7.28,7.45A6.35,6.35,0,0,1,148.52,239Zm-11.24-12.29c-.31,0-.54,0-.59.13s-.34.64,1.67,3.26c4.12,5.43,7.81,7.92,11,7.39,4.17-.69,6.17-6.53,6.19-6.59h0c.25-.86,1.57-6.09-1.17-8.87-2.26-2.3-6.72-2.46-13.26-.49-3.15.94-3.26,1.67-3.26,1.67,0,.26.77.78,1.53,1.05a7.35,7.35,0,0,1,3,1.32,1.49,1.49,0,0,1,.4.91l0,.41-1,.67h-.25a11.54,11.54,0,0,1-3.08-.67A4.23,4.23,0,0,0,137.28,226.72Z"/><path class="cls-1" d="M120.52,207.09a11.16,11.16,0,0,1-2.45,1.27,3.16,3.16,0,0,0-1.76,1.39s-.64,1.49-1.06.88.44-1.71.44-1.71a3.31,3.31,0,0,1,1.75-1.44,10.23,10.23,0,0,0,2.44-1.22,12.23,12.23,0,0,0,2-1.94,3,3,0,0,1,1.9-1.23s1.33-.48,1.79.1-1.17.74-1.17.74a3.45,3.45,0,0,0-1.9,1.23,10.59,10.59,0,0,1-1.93,1.93"/><path class="cls-1" d="M144.3,207.08a10.7,10.7,0,0,1-1.9-1.94,3.48,3.48,0,0,0-1.88-1.25s-1.63-.12-1.2-.72,1.79-.1,1.79-.1a2.82,2.82,0,0,1,1.88,1.22,13.38,13.38,0,0,0,2,2,11.85,11.85,0,0,0,2.44,1.21,3.18,3.18,0,0,1,1.73,1.4s.88,1.15.47,1.75-1.05-.88-1.05-.88a3.19,3.19,0,0,0-1.79-1.4,13.16,13.16,0,0,1-2.45-1.26"/><path class="cls-1" d="M151.71,229.71a12.81,12.81,0,0,1,1.23-2.44,2.91,2.91,0,0,0,.6-2.16s-.36-1.57.34-1.34.67,1.65.67,1.65a3.32,3.32,0,0,1-.58,2.19,10.24,10.24,0,0,0-1.28,2.44,11.46,11.46,0,0,0-.39,2.69,3.45,3.45,0,0,1-.81,2.13s-.83,1.17-1.51,1,.52-1.29.52-1.29a3.35,3.35,0,0,0,.77-2.1,12.39,12.39,0,0,1,.44-2.73"/><path class="cls-1" d="M132.46,243.67a11.65,11.65,0,0,1,2.7.45,3.26,3.26,0,0,0,2.25-.12s1.36-.84,1.35-.09-1.35,1.15-1.35,1.15a3.18,3.18,0,0,1-2.25.1,8.42,8.42,0,0,0-5.43,0,3.24,3.24,0,0,1-2.26-.1s-1.37-.45-1.37-1.15,1.37.09,1.37.09a3.32,3.32,0,0,0,2.26.12,11.73,11.73,0,0,1,2.73-.45"/><path class="cls-1" d="M113.23,229.71a11.43,11.43,0,0,1,.43,2.73,3.17,3.17,0,0,0,.81,2.1s1.22,1.06.52,1.29-1.53-1-1.53-1a3.37,3.37,0,0,1-.8-2.13,12.2,12.2,0,0,0-.41-2.69,10.9,10.9,0,0,0-1.27-2.44,3.39,3.39,0,0,1-.58-2.19s0-1.41.68-1.65.31,1.34.31,1.34a3,3,0,0,0,.61,2.16,11.61,11.61,0,0,1,1.23,2.44"/><path class="cls-5" d="M132.35,219.5a3.92,3.92,0,1,0,4,3.92,3.92,3.92,0,0,0-4-3.92"/><path class="cls-6" d="M132.35,227.63a4.21,4.21,0,1,1,4.23-4.21A4.2,4.2,0,0,1,132.35,227.63Zm0-7.85a3.63,3.63,0,0,0-3.61,3.64,3.64,3.64,0,1,0,7.27,0A3.66,3.66,0,0,0,132.35,219.78Z"/><path class="cls-1" d="M139.78,148.42,140.3,159l8.95-5.82,2.81,4.6-10.56,6.1v2.21s12.29,6.89-2.68,6.63v.08c-5.24,4.37-10.2,0-10.2,0-15,.27-2.7-6.6-2.7-6.6V164l-9.33-7.25,2.21-4.8,8.35,7.14.48-10.57,12.15-.13"/><path class="cls-7" d="M150.93,157.5c8.67,9.92,15-.53,15-.53,11-2.66,4.45-10.42,4.45-10.42,11.43-7.49-2-13.36-2-13.36-.09-10-8.56-9.22-8.56-9.22-8.86-7.73-17.32.86-17.32.86-13.27-11-23.34,1.7-23.34,1.7s-8.48-5.88-12.29,3.33c0,0-13.49-.38-8.45,13.25,0,0-10.44,10.44,3.18,15.58,0,0,7.24,13.41,17.19.65,0,0,6.12.36,5.16-8.26,0,0,7.75,3.23,15.08-.35,0,0,2.35,5.28,7.39,2.32,0,0-.78,3.4,4.1,4.09l.36.36"/><path class="cls-1" d="M110.23,167.8a7.5,7.5,0,0,1-.82,0c-5.11-.42-8.46-4.69-9.77-6.7-4.39-1.87-7-4.56-7.74-8-1-4.43,1.58-8.52,3.24-10.62-1.29-4.4-.93-8,1.07-10.82,2.41-3.36,6.41-4.33,8.82-4.61a9.86,9.86,0,0,1,5.81-4.9,11.52,11.52,0,0,1,7.79.76,20,20,0,0,1,11.25-5.41,18.42,18.42,0,0,1,12.58,3.59c4.18-3,11.4-5.51,18.47,0a11.09,11.09,0,0,1,6.88,2.78,11.36,11.36,0,0,1,3.48,7.53c2.36,1.36,6.31,4.23,6.67,8.45.22,2.68-1,5.2-3.63,7.51a8.65,8.65,0,0,1,.59,6.37c-.9,2.75-3.3,4.72-7.15,5.87-1.29,1.69-4.22,4.78-8.5,5.15-3.55.3-7-1.32-10.18-4.82a7.29,7.29,0,0,1-4.56-2.88l-.1-.14a7,7,0,0,1-3.05-.29,7.89,7.89,0,0,1-3.37-2.22,22.5,22.5,0,0,1-11.11.6,8.85,8.85,0,0,1-2.28,4.93,7.77,7.77,0,0,1-4.27,2.28C117.15,165.9,113.75,167.8,110.23,167.8Zm-3.48-35c-1.23,0-4.43.39-5.75,2.26s-.58,4.81.23,7l.66,1.77-1.34,1.34c-.91.92-3.42,4.15-2.88,6.62.44,2,3,3.34,5,4.12l1,.38.53,1c.66,1.2,3,4.38,5.67,4.6,2.5.2,5-2.27,6.6-4.37l1-1.22,1.55.09a2.06,2.06,0,0,0,1.36-.62c.67-.75.91-2.3.68-4.36l-.55-5,4.62,1.92c.06,0,6.66,2.65,12.66-.28l2.75-1.34,1.24,2.79a3,3,0,0,0,1.43,1.42,2.32,2.32,0,0,0,1.77-.44l7.28-4.26-2.87,7.36c.08.21.67.48,1.6.61l1,.14,1.2,1.19c2,2.3,3.89,3.41,5.59,3.26,2.24-.18,4.16-2.51,4.72-3.39l.63-1,1.18-.3c2.24-.54,3.75-1.39,4-2.27.35-1-.66-2.77-1.17-3.4l-2.07-2.53,2.72-1.81c2.13-1.4,3.35-2.82,3.27-3.81-.12-1.52-2.88-3.53-4.83-4.4l-1.75-.77v-1.92c0-2.33-.56-4-1.66-5a5.68,5.68,0,0,0-3.7-1.25l-1.25.11-1-.82c-6.5-5.68-12.6,0-13.28.71l-1.9,1.89-2.08-1.71c-3.41-2.84-6.84-4.11-10.17-3.76-5.29.55-8.93,5-9,5l-1.71,2.17L117.53,129c-.76-.51-3.17-1.74-5-1.18-1.14.35-2.1,1.43-2.84,3.22l-.77,1.87-2-.05Z"/><path class="cls-5" d="M34.82,243l.65.54c-2.23,4-2.54,6.88-1,8.21,1.11,1,2.59.58,3.94-.95a3.36,3.36,0,0,0,1-2c0-.84-.63-1.79-1.33-3.21-1.33-2.73-1.28-4.92,1.1-7.67s5.5-3.63,7.47-1.93A4.45,4.45,0,0,1,48,239.2l1.54-.47.53.47L45.34,245l-.57-.55c1.86-3.85,2.26-6.16.86-7.34-1.07-1-2.46-.63-3.7.79-1.55,1.78-.65,2.82.52,5a5.31,5.31,0,0,1,.86,3.62,9.45,9.45,0,0,1-2.26,4.26c-2.59,2.94-5.55,3.84-7.64,2a4.33,4.33,0,0,1-1.45-3.7l-1.87.62-.55-.47L34.82,243"/><path class="cls-5" d="M52.63,245c2.17-1,4-1,5.57.11s2.3,2.76,2.06,5.26a15.34,15.34,0,0,1-2.93,7.17,13.92,13.92,0,0,1-5.54,5.07c-2.29,1.07-4.25,1.09-5.77,0s-2.22-2.76-2-5.32a13.87,13.87,0,0,1,2.85-7.05A15,15,0,0,1,52.63,245m-5.75,16.34c1.69,1.16,4.2-.76,7.68-5.75s4.42-8,2.74-9.21-4.16.76-7.66,5.78S45.19,260.12,46.88,261.29Z"/><path class="cls-5" d="M70.14,254.7l-.75-.41c-.65-.34-.92-.07-1.45.92l-4.84,9.06c-1.75,3.25-1.82,5.18.06,6.16a2.71,2.71,0,0,0,2.51,0c1.24-.69,2.06-2.1,3.27-4.35l3.5-6.53c1-1.9,1.21-3-.07-3.66,0,0-.08,0-.09,0l.68-1.31,4.11,2.21-.7,1.27c-1.28-.45-2,.2-3,2.07l-3.61,6.73a14.87,14.87,0,0,1-3.06,4.47,4.41,4.41,0,0,1-5.47.64c-3-1.55-3.32-4.37-1.24-8.36l5.23-9.76c.53-1,.57-1.39-.06-1.73l-.74-.4.67-1.3,5.69,3-.69,1.3"/><path class="cls-5" d="M85.94,261.74c-.58-.21-.87,0-1.28,1l-5.38,13.6c-.42,1-.42,1.42.24,1.69l.81.33-.55,1.38-6-2.37.55-1.4.79.32c.68.27.9,0,1.33-1.07l5.42-13.58c.38-1,.38-1.37-.17-1.6-1.23-.52-3.08,1.2-4.86,4.86l-.82-.3,3.08-7,10.36,4.11-2.59,7.21-.76-.28c1.2-3.89,1-6.43-.19-6.91"/><path class="cls-5" d="M94.85,282.93c.69.21.89-.1,1.18-1.19l1.73-6.42-4.32-1.16-1.71,6.4c-.3,1.08-.27,1.44.43,1.64l.83.24-.4,1.42-6.21-1.66.39-1.44.83.19c.7.21.9-.08,1.19-1.17l3.75-13.92c.32-1.1.3-1.49-.42-1.7l-.83-.21.4-1.41,6.2,1.69-.38,1.41-.82-.23c-.7-.2-.9.13-1.23,1.23l-1.53,5.78,4.33,1.16,1.54-5.79c.32-1.07.29-1.48-.42-1.67l-.81-.22.37-1.42,6.21,1.72-.36,1.39-.85-.22c-.7-.19-.9.14-1.21,1.23L99,282.53c-.3,1.09-.27,1.45.44,1.62l.81.25-.37,1.42-6.26-1.67L94,282.7l.82.23"/><path class="cls-5" d="M111.28,286.25l.85.05c.36,0,.5-.17.57-.59a5.12,5.12,0,0,0,0-.79l-.29-3.25-4.29-.62-.61,1.42a5.2,5.2,0,0,0-.38,1.39c-.21,1.26.25,1.74,1.48,2l-.2,1.44-4.76-.7.22-1.45c1.07-.12,1.78-1.27,2.69-3.42l6.18-14.67,1.25.19,2,18.47c.09.88.32,1.22.94,1.34l-.22,1.47-5.62-.83.2-1.46m-2.45-6.89,3.42.53-.67-7Z"/><path class="cls-5" d="M123.78,284c-.09,2.61.24,3.58,1.82,3.66l0,1.5-4.86-.14v-1.5c1.52-.06,1.82-1,1.89-3.57l.31-12.22c0-1.08-.08-1.51-.81-1.56h-.89l.06-1.48,5.46.15L129.09,281l2.76-12.11,5.38.13,0,1.49-.84-.06c-.71,0-.87.35-.88,1.47l-.34,14.44c0,1.13.08,1.49.8,1.49h.87l0,1.49-6.3-.14,0-1.48h.74c.71,0,.87-.32.91-1.43l.39-15.24-4.15,18.11h-.83L124.08,271l-.3,13"/><path class="cls-5" d="M146.71,287.07l1.07-.09.14,1.46-6.66.67-.15-1.5.91-.08c.73-.09.81-.41.72-1.55l-1.4-14.34c-.08-1.12-.25-1.47-1-1.42l-.9.1-.16-1.48,7.4-.7c3.08-.31,4.83,1.54,5.2,5.3.4,4-1.28,6-5,6.37-.51.08-1.06.09-1.71.13l.58,5.77c.12,1.15.28,1.41,1,1.36m-1.65-8.72a2.26,2.26,0,0,0,.83,0c2.29-.2,3.12-1.22,2.79-4.58s-1.17-4.23-3.16-4.06c-1.09.12-1.25.33-1.14,1.9Z"/><path class="cls-5" d="M161.73,267c-.6.1-.67.45-.44,1.52l2.94,14.37c.24,1.1.43,1.38,1.15,1.23l.82-.15.29,1.47-6.27,1.28-.32-1.44.84-.19c.71-.14.75-.51.55-1.61l-3-14.33c-.22-1.05-.42-1.38-1-1.26-1.31.28-1.9,2.74-1.4,6.78l-.82.15-1.28-7.53L164.68,265l1.84,7.46-.82.16c-1.14-3.88-2.64-5.93-4-5.63"/><path class="cls-5" d="M169.68,266.31c.5-2.31,1.61-3.76,3.48-4.34s3.6-.16,5.44,1.5a15.66,15.66,0,0,1,3.94,6.66,14.21,14.21,0,0,1,.72,7.5c-.52,2.47-1.7,4-3.51,4.61s-3.52.08-5.42-1.63a13.79,13.79,0,0,1-3.91-6.51,15.52,15.52,0,0,1-.74-7.79m9.61,14.45c1.93-.62,1.93-3.78,0-9.57s-3.7-8.37-5.7-7.73-1.9,3.77,0,9.58S177.34,281.42,179.29,280.76Z"/><path class="cls-5" d="M189.5,276.76c1.3-.84,1.13-1.8.09-4l-5.15-11.11-.53-.38c-.54-.4-.93-.67-1.55-.37l-.17.09-.65-1.31,3.89-1.8,11.18,8.78-3.21-6.9c-1.15-2.49-1.82-3.12-3.35-2.41l-.6-1.36,4.48-2.08.63,1.33c-1.26.71-1.16,1.63-.07,4l6.57,14.1-1,.45-13.83-10.9,4.32,9.41c1.09,2.35,1.85,3,3.31,2.44l.65,1.33-4.41,2.05-.63-1.34"/><path class="cls-5" d="M215,249.13l-.68.48c-3-3.21-4.78-3.78-6.91-2.32-.82.56-1,.79-.16,2l3.37,5a1,1,0,0,0,.23-.13c1.25-.86,1.13-2.13-.24-4.6l.68-.48,5.29,7.72-.71.49c-1.8-2.21-2.92-2.71-4.16-1.89l-.18.14,3.81,5.61c.65.93.91,1.13,1.53.73l1-.69.84,1.23-5.59,3.84-.83-1.24.69-.49c.63-.39.52-.77-.1-1.69l-8.15-11.92c-.63-.94-.94-1.16-1.54-.74l-.73.48-.82-1.2,9.12-6.24,4.25,6"/><path class="cls-5" d="M231.39,253.28a4.76,4.76,0,0,1-4.17.94c-2.51-.51-5.12-2.26-7.51-5.06a15.66,15.66,0,0,1-3.55-6.65c-.57-2.47,0-4.25,1.45-5.55a3.87,3.87,0,0,1,3.43-.83l-.25-1.71.54-.47,5.53,6.05-.59.67c-3.59-3.06-6.14-4-7.57-2.77-1.7,1.47-.56,4.23,3.47,8.93s6.52,6.25,8.42,4.64c1.43-1.25,1.13-3.66-1-7.13l1-.2c2.72,4.06,3,7.28.76,9.14"/><path class="cls-2" d="M14.24,82.14l3.22,6.66-9,2.47,2.82,5.63,9.08-2.48,2.83,5.64-9.08,2.46,2.8,5.6,9.1-2.45,2.85,5.64-9.14,2.43,2.84,5.6,9.13-2.41,4.06,7.81a44.41,44.41,0,0,0,5-1.75L19.5,80.64a24,24,0,0,1-5.26,1.5"/><path class="cls-2" d="M39.14,84.48c-.63-3,6.2-6.59,11.68-11L43.56,59a35.28,35.28,0,0,0-9.23,7.6c-.85.88-1.6,1.8-2.33,2.72l7.14,15.21"/><path class="cls-3" d="M55.41,58.65c-1.76-2.4-6.29-2.72-11.85.3l7.26,14.53c5-4.11,8.91-9,4.59-14.83"/><path class="cls-3" d="M19.5,80.64,40.72,123c6-2.46,10.85-5.95,12.51-8.53L44.09,95l-4.53-9.65a2,2,0,0,1-.42-.9L32,69.27c-3.57,4.44-6.66,8.87-12.5,11.37"/><path class="cls-3" d="M14.24,82.14A41.52,41.52,0,0,1,4,82.42l4.43,8.85,9.05-2.47-3.22-6.66"/><polyline class="cls-3" points="20.3 94.42 11.23 96.9 14.06 102.52 23.14 100.06 20.3 94.42"/><polyline class="cls-3" points="25.95 105.67 16.86 108.12 19.67 113.74 28.81 111.31 25.95 105.67"/><path class="cls-3" d="M22.51,119.34,25.83,126a30.84,30.84,0,0,0,9.87-1.29l-4.06-7.81-9.13,2.41"/><path class="cls-2" d="M50.69,73.59l4,8c2.86-2.41,5.92-5.27,9.18-8L56.35,60.15c2.72,5.24-1,9.65-5.66,13.44"/><path class="cls-3" d="M39.56,85.38a3.19,3.19,0,0,0,.92.85c4.06,2.86,8.83-.06,14.24-4.6l-4-8c-6,4.83-13.6,8.63-11.13,11.79"/><path class="cls-1" d="M27.05,128.41c-.45,0-.9,0-1.35,0l-1.37-.07L0,79.72l4.18.36C19.4,81.36,23.86,75.75,29,69.26c1.12-1.41,2.28-2.86,3.58-4.29,6.19-6.89,13.26-10.84,18.86-10.56a7.5,7.5,0,0,1,5.86,2.85,10.35,10.35,0,0,1,2.2,7.93c-.91,5.76-6.84,10-12.07,13.74-2.22,1.59-5.52,3.95-6,5.07l.08.11.14.27L55.9,114.6l-.69,1.1C51.92,120.91,38.62,128.41,27.05,128.41ZM7.89,85l19.4,38.74c9.16-.09,19.73-5.8,23.2-9.56l-13-27.56a4.34,4.34,0,0,1-.75-3.13c.44-3,3.75-5.35,7.93-8.34s9.56-6.84,10.17-10.66A5.82,5.82,0,0,0,53.51,60a3,3,0,0,0-2.3-.93c-3.24-.16-8.94,2.12-15.13,9-1.2,1.32-2.31,2.72-3.38,4.07C27.7,78.48,22.55,85,8.32,85Z"/><path class="cls-1" d="M44,89.75a8.23,8.23,0,0,1-4.83-1.6,5.33,5.33,0,0,1-1.48-1.4,4.31,4.31,0,0,1-.87-3.3c.43-3,3.74-5.35,7.93-8.35,6.92-4.95,12-9.12,9.55-13.87L58.4,59l8.5,15.18-1.49,1.25c-1.63,1.37-3.23,2.79-4.78,4.17C54.81,84.78,49.23,89.75,44,89.75Zm-2.45-5.68s.08.07.28.2c3.4,2.39,8.2-1.5,15.71-8.19,1.11-1,2.24-2,3.4-3l-2.53-4.52c-2.25,4.15-7,7.56-10.93,10.36-2.22,1.59-5.53,4-6,5.08l0,.06Z"/><path class="cls-2" d="M248.88,82.14l-3.23,6.66,9,2.47-2.8,5.63-9.08-2.48L240,100.06l9.08,2.46-2.8,5.6-9.1-2.45-2.85,5.64,9.12,2.43-2.82,5.6-9.13-2.41-4.06,7.81a44.41,44.41,0,0,1-5-1.75l21.22-42.35a23.47,23.47,0,0,0,5.27,1.5"/><path class="cls-2" d="M224,84.48c.62-3-6.2-6.59-11.67-11L219.55,59a36.54,36.54,0,0,1,9.27,7.6c.79.88,1.55,1.8,2.29,2.72L224,84.48"/><path class="cls-3" d="M207.67,58.65c1.78-2.4,6.31-2.72,11.88.3l-7.26,14.53c-5-4.11-8.93-9-4.62-14.83"/><path class="cls-3" d="M243.61,80.64,222.39,123c-5.93-2.46-10.85-5.95-12.51-8.53l13.67-29.08a2,2,0,0,0,.41-.9l7.15-15.21c3.58,4.44,6.64,8.87,12.5,11.37"/><path class="cls-3" d="M248.88,82.14a41.42,41.42,0,0,0,10.25.28l-4.46,8.85-9-2.47,3.23-6.66"/><polyline class="cls-3" points="242.79 94.42 251.87 96.9 249.05 102.52 239.97 100.06 242.79 94.42"/><polyline class="cls-3" points="237.15 105.67 246.25 108.12 243.42 113.74 234.3 111.31 237.15 105.67"/><path class="cls-3" d="M240.6,119.34,237.27,126a30.78,30.78,0,0,1-9.86-1.29l4.06-7.81,9.13,2.41"/><path class="cls-2" d="M212.4,73.59l-4,8c-2.86-2.41-5.94-5.27-9.16-8l7.53-13.48c-2.72,5.24,1,9.65,5.65,13.44"/><path class="cls-3" d="M223.55,85.38a4.48,4.48,0,0,1-.92.85c-4.09,2.86-8.82-.06-14.25-4.6l4-8c6,4.83,13.6,8.63,11.15,11.79"/><path class="cls-1" d="M236.05,128.41c-11.56,0-24.86-7.5-28.17-12.71l-.69-1.09L221.63,84c-.44-1.12-3.75-3.49-6-5.08-5.23-3.74-11.16-8-12.08-13.75a10.37,10.37,0,0,1,2.19-7.92,7.57,7.57,0,0,1,5.91-2.85c5.62-.27,12.68,3.68,18.89,10.57,1.27,1.41,2.42,2.86,3.53,4.26,5.14,6.5,9.58,12.13,24.84,10.84l4.18-.36L238.76,128.3l-1.37.07C237,128.4,236.5,128.41,236.05,128.41Zm-23.44-14.27c3.47,3.76,14,9.46,23.19,9.56L255.23,85h-.44c-14.26,0-19.4-6.5-24.38-12.8-1.07-1.34-2.16-2.73-3.34-4-6.21-6.89-11.92-9.19-15.16-9a3,3,0,0,0-2.35.94,5.82,5.82,0,0,0-1.34,4.39c.61,3.83,5.92,7.62,10.17,10.67s7.5,5.36,7.94,8.34a4.35,4.35,0,0,1-.75,3.13Z"/><path class="cls-1" d="M219.14,89.73c-5.27,0-10.84-5-16.64-10.12-1.55-1.38-3.16-2.81-4.79-4.18l-1.49-1.25L204.7,59l4.14,2.23c-2.47,4.75,2.63,8.92,9.56,13.87,4.19,3,7.5,5.37,7.93,8.35a4.39,4.39,0,0,1-.93,3.37A6.27,6.27,0,0,1,224,88.13,8.33,8.33,0,0,1,219.14,89.73ZM202.22,73.09c1.16,1,2.3,2,3.41,3,7.5,6.67,12.29,10.56,15.65,8.2a2.81,2.81,0,0,0,.36-.3c-.45-1.11-3.76-3.48-6-5.07-3.9-2.8-8.67-6.21-10.92-10.35Z"/><path class="cls-2" d="M158.84,72.17a94,94,0,0,1-9.13,6.15v30.16c4.27-2.58,8.6-5.36,12.7-7.57V69.64c-1.41.94-2.66,1.81-3.57,2.53"/><path class="cls-2" d="M179.18,64c-.17,0-.35,0-.52,0l-4.32,32.6c.17,0,.35-.05.53-.05a20.15,20.15,0,0,1,9.9,2.93l9.65-29.62c-4.73-3.38-9.81-5.9-15.24-5.9"/><path class="cls-2" d="M222.63,86.23c-4,2.83-8.77,0-14.11-4.48L196,108c5.1,4.42,9.64,8.07,13.91,6.46l13.68-29.06a4.48,4.48,0,0,1-.92.85"/><path class="cls-2" d="M40.48,86.23a3.19,3.19,0,0,1-.92-.85l13.67,29.06c4.3,1.61,8.82-2,13.93-6.46L54.58,81.75c-5.37,4.48-10.06,7.31-14.1,4.48"/><path class="cls-2" d="M131.56,86.15a15.53,15.53,0,0,1-4.83-1.1v30.34a15,15,0,0,0,4.83,1,14.87,14.87,0,0,0,4.8-1V85.05a15.31,15.31,0,0,1-4.8,1.1"/><path class="cls-2" d="M83.91,64c-5.41,0-10.49,2.52-15.21,5.9L78.36,99.5a20,20,0,0,1,9.88-2.93c.16,0,.34,0,.51.05L84.45,64c-.18,0-.35,0-.54,0"/><path class="cls-2" d="M104.25,72.17c-.91-.72-2.11-1.59-3.55-2.53v31.27c4.11,2.21,8.44,5,12.68,7.57V78.32a92.79,92.79,0,0,1-9.13-6.15"/><path class="cls-3" d="M113.38,78.32v30.16c4.75,2.9,9.4,5.56,13.35,6.91V85.05a81.93,81.93,0,0,1-13.35-6.73"/><path class="cls-3" d="M84.45,64l4.3,32.6c3.37.16,7.49,1.89,12,4.29V69.64c-4.08-2.59-10-5.44-16.25-5.62"/><path class="cls-3" d="M54.58,81.75,67.16,108c3.42-3,7.1-6.21,11.2-8.48L68.7,69.88c-5.12,3.64-9.83,8.28-14.12,11.87"/><path class="cls-3" d="M136.36,85.05v30.34c4-1.35,8.6-4,13.35-6.91V78.32a79.6,79.6,0,0,1-13.35,6.73"/><path class="cls-3" d="M162.41,69.64v31.27c4.45-2.4,8.57-4.13,11.93-4.29L178.66,64c-6.27.18-12.16,3-16.25,5.62"/><path class="cls-3" d="M194.42,69.88,184.77,99.5c4.06,2.27,7.74,5.52,11.19,8.48l12.56-26.23c-4.28-3.59-9-8.23-14.1-11.87"/><path class="cls-1" d="M131.56,118.72c-6,0-14-4.88-22.38-10.06-7.77-4.79-15.8-9.74-20.94-9.74-7,0-13.24,5.39-18.75,10.16-5.8,5-11.28,9.75-17.09,7.56l-.9-.34L37.43,86.38l4.09-2.3s0,0,.27.19c3.4,2.4,8.19-1.49,15.68-8.16S73.72,61.63,83.91,61.63c9.22,0,17.6,5.44,21.78,8.68,5.65,4.52,20.76,13.49,25.87,13.49s20.19-9,25.82-13.47c4.21-3.26,12.61-8.7,21.8-8.7,10.22,0,18.86,7.7,26.48,14.49s12.26,10.54,15.61,8.19a2.85,2.85,0,0,0,.38-.32l4,2.39L211.59,116.3l-.9.34c-5.81,2.19-11.27-2.55-17.06-7.56-5.51-4.76-11.75-10.16-18.76-10.16-5.14,0-13.16,5-20.93,9.73C145.55,113.83,137.62,118.72,131.56,118.72ZM88.24,94.21c6.47,0,14.7,5.08,23.41,10.44,7.47,4.61,15.19,9.37,19.91,9.37s12.44-4.76,19.91-9.37c8.71-5.37,16.93-10.44,23.4-10.44,8.76,0,15.71,6,21.83,11.32,4.5,3.88,8.44,7.29,11.51,6.91l10.68-22.7c-5.18-.15-10.65-5-16.36-10.11-7-6.23-14.92-13.3-23.35-13.3-8.08,0-15.91,5.39-18.9,7.7C155.93,77.5,139,88.51,131.56,88.51s-24.41-11-28.78-14.5c-3-2.3-10.76-7.68-18.87-7.68-8.4,0-16.32,7.06-23.31,13.29-5.72,5.09-11.2,10-16.39,10.13l10.68,22.69c3.08.37,7-3,11.52-6.92C72.54,100.22,79.49,94.21,88.24,94.21Z"/><path class="cls-1" d="M132,56.5c28.2,0,51.06-12.4,51.06-27.66S160.23,1.18,132,1.18,81,13.57,81,28.84,103.83,56.5,132,56.5"/><path class="cls-2" d="M132,57.68c-28.82,0-52.26-12.94-52.26-28.84S103.21,0,132,0s52.24,12.94,52.24,28.84S160.83,57.68,132,57.68Zm0-55.32c-27.52,0-49.9,11.88-49.9,26.48S104.51,55.32,132,55.32s49.89-11.88,49.89-26.48S159.54,2.36,132,2.36Z"/><path class="cls-5" d="M132.08,52c25,0,45.4-10.36,45.4-23.16S157.13,5.68,132.08,5.68,86.69,16,86.69,28.84,107,52,132.08,52"/><path class="cls-1" d="M132.08,52a86.91,86.91,0,0,1-10.68-.64,86.79,86.79,0,0,0,10.68.64,87.89,87.89,0,0,0,10.1-.57A88.14,88.14,0,0,1,132.08,52ZM106,47.8a48.5,48.5,0,0,1-6-2.58,37.75,37.75,0,0,1-4.63-2.76A39.6,39.6,0,0,0,100,45.22,49.83,49.83,0,0,0,106,47.8Zm52.53-.12a53.28,53.28,0,0,0,5.66-2.46,39.2,39.2,0,0,0,4.56-2.7,39.46,39.46,0,0,1-4.56,2.7A51.55,51.55,0,0,1,158.51,47.68Zm-71-14.34a12.36,12.36,0,0,1-.86-4.5,12.61,12.61,0,0,1,.9-4.62,12.56,12.56,0,0,0-.89,4.62A12.31,12.31,0,0,0,87.54,33.34Zm89.12-.07a12.35,12.35,0,0,0,0-9,12.35,12.35,0,0,1,0,9Zm-81.41-18A38.48,38.48,0,0,1,100,12.46,51.6,51.6,0,0,1,106,9.86a53.09,53.09,0,0,0-6.06,2.6A40.32,40.32,0,0,0,95.25,15.28Zm73.57,0a39.12,39.12,0,0,0-4.65-2.77,52,52,0,0,0-5.7-2.47,51.2,51.2,0,0,1,5.7,2.47A39.39,39.39,0,0,1,168.82,15.23Zm-47.47-8.9a87.84,87.84,0,0,1,10.73-.65,89,89,0,0,1,10.15.58,88.64,88.64,0,0,0-10.15-.57A87.49,87.49,0,0,0,121.35,6.33Z"/><path class="cls-2" d="M132.12,46.46c20.39,0,37-6.63,37-14.8s-16.59-14.77-37-14.77-37,6.62-37,14.77,16.55,14.8,37,14.8"/><path class="cls-1" d="M132.12,51.18c-20.72,0-41.69-6.71-41.69-19.52s21-19.48,41.69-19.48,41.7,6.69,41.7,19.48S152.84,51.18,132.12,51.18Zm0-29.57c-20,0-32.26,6.51-32.26,10.05s12.25,10.08,32.26,10.08,32.26-6.53,32.26-10.08S152.13,21.61,132.12,21.61Z"/><path class="cls-2" d="M132,21.14a35.58,35.58,0,0,0,0,71.16h-.43a35.58,35.58,0,0,0,0-71.16H132"/><path class="cls-1" d="M132,94.66h-.43a37.93,37.93,0,0,1,0-75.86H132a37.93,37.93,0,0,1,0,75.86Zm-.22-71.16a33.23,33.23,0,1,0,33,33.22A33.24,33.24,0,0,0,131.77,23.5Z"/><path class="cls-1" d="M126.08,86.14l-7.32-12.43-13.41-2.19L102,75.78c.15.22.23.44.39.64l.58.83a35.6,35.6,0,0,0,18.56,13.49l1.37.26,3.19-4.86"/><polyline class="cls-1" points="116.92 51.8 122.67 69.54 140.86 69.54 146.61 51.8 131.75 41.04 116.92 51.8"/><path class="cls-1" d="M131.75,33.85v0l11.07-7.23V23a33.93,33.93,0,0,0-22.1,0v3.58l11,7.26"/><path class="cls-1" d="M111.25,46.16l.39-14.11-2.87-2.23A32.51,32.51,0,0,0,104.61,34l-.15.14a35.53,35.53,0,0,0-7.67,17.66l3.17,1.4,11.29-7.08"/><path class="cls-1" d="M144.81,73.71,137.5,86.14,140.66,91l1.33-.25A35.77,35.77,0,0,0,160.81,77l.28-.44c.18-.25.32-.52.48-.74l-3.39-4.26-13.37,2.19"/><path class="cls-1" d="M152.31,46.16l11.26,7.08,3.18-1.4A35.45,35.45,0,0,0,159,34.11h0a35.55,35.55,0,0,0-4.22-4.28l-2.87,2.23.4,14.11"/></g></g></svg>