<svg xmlns="http://www.w3.org/2000/svg" xmlns:xlink="http://www.w3.org/1999/xlink" viewBox="0 0 299.96 299.97"><defs><style>.cls-1,.cls-14,.cls-15,.cls-16,.cls-17,.cls-18,.cls-19,.cls-20,.cls-21,.cls-22,.cls-23,.cls-24,.cls-25,.cls-26,.cls-27,.cls-28,.cls-29,.cls-34,.cls-38,.cls-39,.cls-43,.cls-44,.cls-45,.cls-46,.cls-47,.cls-48,.cls-49,.cls-50,.cls-51,.cls-52,.cls-53,.cls-54,.cls-55,.cls-56,.cls-9{fill:none;}.cls-2{clip-path:url(#clip-path);}.cls-3{fill:#c60b1e;}.cls-4{fill:#ffc400;}.cls-11,.cls-35,.cls-36,.cls-37,.cls-5,.cls-61,.cls-71{fill:#ad1519;}.cls-10,.cls-11,.cls-12,.cls-13,.cls-14,.cls-15,.cls-16,.cls-17,.cls-18,.cls-19,.cls-20,.cls-21,.cls-22,.cls-23,.cls-24,.cls-25,.cls-26,.cls-27,.cls-28,.cls-29,.cls-30,.cls-31,.cls-32,.cls-33,.cls-34,.cls-35,.cls-36,.cls-37,.cls-38,.cls-39,.cls-40,.cls-41,.cls-42,.cls-43,.cls-44,.cls-45,.cls-46,.cls-47,.cls-48,.cls-49,.cls-5,.cls-50,.cls-51,.cls-52,.cls-53,.cls-54,.cls-55,.cls-56,.cls-57,.cls-58,.cls-59,.cls-6,.cls-60,.cls-61,.cls-62,.cls-65,.cls-67,.cls-68,.cls-69,.cls-70,.cls-71,.cls-72,.cls-73,.cls-74,.cls-8,.cls-9{stroke:#000;}.cls-10,.cls-32,.cls-36,.cls-5,.cls-73{stroke-linejoin:round;}.cls-10,.cls-11,.cls-12,.cls-13,.cls-38,.cls-41,.cls-5,.cls-6,.cls-63,.cls-69,.cls-9{stroke-width:0.26px;}.cls-10,.cls-32,.cls-33,.cls-6,.cls-62,.cls-63,.cls-65,.cls-7,.cls-73,.cls-74,.cls-8{fill:#c8b100;}.cls-8{stroke-width:0.3px;}.cls-12,.cls-57,.cls-60,.cls-64{fill:#058e6e;}.cls-13,.cls-40,.cls-42{fill:#fff;}.cls-14{stroke-width:0.01px;}.cls-15{stroke-width:0.02px;}.cls-16{stroke-width:0.03px;}.cls-17{stroke-width:0.04px;}.cls-18,.cls-70{stroke-width:0.05px;}.cls-19{stroke-width:0.06px;}.cls-20{stroke-width:0.07px;}.cls-21{stroke-width:0.08px;}.cls-22{stroke-width:0.09px;}.cls-23{stroke-width:0.1px;}.cls-24{stroke-width:0.11px;}.cls-25{stroke-width:0.12px;}.cls-26{stroke-width:0.13px;}.cls-27{stroke-width:0.14px;}.cls-28{stroke-width:0.15px;}.cls-29{stroke-width:0.18px;}.cls-30,.cls-41,.cls-72{fill:#005bbf;}.cls-30,.cls-31,.cls-32,.cls-33,.cls-34,.cls-35,.cls-36,.cls-42,.cls-57,.cls-67,.cls-68{stroke-width:0.39px;}.cls-31,.cls-58{fill:#ccc;}.cls-37{stroke-width:0.27px;}.cls-38{stroke-linecap:round;}.cls-39,.cls-40{stroke-width:0.21px;}.cls-43{stroke-width:0.23px;}.cls-44{stroke-width:0.28px;}.cls-45{stroke-width:0.33px;}.cls-46{stroke-width:0.37px;}.cls-47{stroke-width:0.42px;}.cls-48,.cls-65{stroke-width:0.46px;}.cls-49{stroke-width:0.51px;}.cls-50{stroke-width:0.56px;}.cls-51{stroke-width:0.6px;}.cls-52{stroke-width:0.63px;}.cls-53{stroke-width:0.68px;}.cls-54{stroke-width:0.73px;}.cls-55{stroke-width:0.77px;}.cls-56{stroke-width:0.91px;}.cls-58,.cls-59,.cls-60,.cls-61,.cls-62{stroke-width:0.52px;}.cls-59{fill:#ffd691;}.cls-63{stroke:#c8b100;}.cls-66{fill:#0039f0;}.cls-67{fill:#db4446;}.cls-68{fill:#ed72aa;}.cls-71,.cls-72{stroke-width:0.61px;}.cls-73,.cls-74{stroke-width:0.34px;}</style><clipPath id="clip-path" transform="translate(-1)"><circle class="cls-1" cx="150" cy="150" r="150"/></clipPath></defs><title>Spain</title><g id="Слой_2" data-name="Слой 2"><g id="Layer_1" data-name="Layer 1"><g class="cls-2"><rect class="cls-3" width="299.96" height="299.97"/><rect class="cls-4" y="74.99" width="299.96" height="149.99"/><g id="coa"><g id="supporters"><g id="crown_left" data-name="crown left"><path class="cls-5" d="M51.78,133.33a1.14,1.14,0,0,1-.47-.1,6.37,6.37,0,0,1-.68-.57l-.41-.3-.37-.51a1.71,1.71,0,0,1-.24-1.25,1.6,1.6,0,0,1,.85-.9,9.53,9.53,0,0,1,.95-.35,5.56,5.56,0,0,1,.68-.25l.78-.2.34-.16a4,4,0,0,1,.54-.09,3.59,3.59,0,0,1,.68-.16c.31,0,.82.06,1,.06l1,0c.23,0,1.08-.07,1.32-.07a5.13,5.13,0,0,1,.68,0,5,5,0,0,1,.88.26c.14.07.95.36,1.25.45a11.72,11.72,0,0,1,1.39.39,1.93,1.93,0,0,1,.72.66,2.48,2.48,0,0,1,.27.63,1.23,1.23,0,0,1,0,.66,4,4,0,0,1-.31.49l-.37.61-.48.38s-.34.33-.61.29a40.07,40.07,0,0,0-4.78-.52,32.83,32.83,0,0,0-4.58.52Z" transform="translate(-1)"/><ellipse class="cls-6" cx="55.39" cy="129.4" rx="0.83" ry="1.5"/><ellipse class="cls-6" cx="55.4" cy="129.4" rx="0.38" ry="1.38"/><ellipse class="cls-7" cx="55.4" cy="127.81" rx="0.56" ry="0.52"/><path class="cls-8" d="M57.17,127.63V128H55.65v-.35h.56v-.79h-.37v-.34h.37v-.34h.36v.34h.37v.34h-.37v.79h.6" transform="translate(-1)"/><path class="cls-9" d="M56.55,127.31a.51.51,0,0,1,.39.64.56.56,0,0,1-.69.36.51.51,0,0,1-.38-.64.53.53,0,0,1,.38-.36" transform="translate(-1)"/><path class="cls-6" d="M56.4,133.23H53.51l-.06-.7-.14-.74-.14-.92c-.8-1.05-1.53-1.74-1.78-1.59a.69.69,0,0,1,.29-.42c.7-.42,2.16.58,3.26,2.24.1.15.19.3.28.45H57.6c.08-.15.18-.3.27-.45,1.1-1.66,2.56-2.66,3.26-2.24a.64.64,0,0,1,.28.42c-.24-.14-1,.54-1.77,1.59l-.14.92-.14.74-.06.7Z" transform="translate(-1)"/><path class="cls-9" d="M51.52,129.25c.55-.32,1.81.69,2.84,2.24m6.93-2.24c-.55-.32-1.81.69-2.84,2.24" transform="translate(-1)"/><g id="crown_pt1" data-name="crown pt1"><path class="cls-6" d="M52.14,134.54a2.61,2.61,0,0,0-.35-.65,18.89,18.89,0,0,1,9.21,0l-.31.54c-.1.18-.23.49-.23.49a14.21,14.21,0,0,0-4.07-.49,14.11,14.11,0,0,0-4.12.51,3.22,3.22,0,0,0-.14-.4h0" transform="translate(-1)"/><path class="cls-6" d="M56.39,136a18.53,18.53,0,0,0,3.66-.37c.4-.12.63-.3.59-.51a.41.41,0,0,0-.22-.23,17.16,17.16,0,0,0-8.06,0,.38.38,0,0,0-.22.23c0,.21.19.39.59.51A18.53,18.53,0,0,0,56.39,136Z" transform="translate(-1)"/><path class="cls-6" d="M61.08,133.23l-.36-.31a1.28,1.28,0,0,1-.76.14c-.42-.07-.56-.58-.56-.58a1.57,1.57,0,0,1-.87.37,1,1,0,0,1-.64-.37,1.47,1.47,0,0,1-.8.27c-.37,0-.72-.49-.72-.49s-.38.48-.75.51a1,1,0,0,1-.68-.32.88.88,0,0,1-.64.43,1.11,1.11,0,0,1-.88-.37,1.45,1.45,0,0,1-.6.55,1,1,0,0,1-.74-.16l-.12.26a.29.29,0,0,1-.19.11l.11.28a19.18,19.18,0,0,1,9.08,0l.12-.33Z" transform="translate(-1)"/><path class="cls-6" d="M56.4,131.68l.17,0a.56.56,0,0,0,0,.23.65.65,0,0,0,.67.63.68.68,0,0,0,.63-.44s.07-.23.09-.23,0,.25,0,.25a.67.67,0,0,0,1.33-.1.22.22,0,0,0,0-.08l.21-.21.12.27a.6.6,0,0,0-.06.27.62.62,0,0,0,.63.61.65.65,0,0,0,.53-.27l.14-.17v.21c0,.21.08.4.29.43a.87.87,0,0,0,.55-.23,3.88,3.88,0,0,0,.48-.45l0,.25a2.27,2.27,0,0,1-.59.66.88.88,0,0,1-.57.15.54.54,0,0,1-.4-.36,1,1,0,0,1-1.33-.39.91.91,0,0,1-.69.3,1,1,0,0,1-.76-.35.91.91,0,0,1-.65.26,1,1,0,0,1-.8-.41,1,1,0,0,1-.81.41.91.91,0,0,1-.65-.26,1,1,0,0,1-.75.35.91.91,0,0,1-.7-.3.92.92,0,0,1-.85.52,1,1,0,0,1-.48-.13.54.54,0,0,1-.41.36.87.87,0,0,1-.56-.15,2.45,2.45,0,0,1-.61-.66l0-.25a3.62,3.62,0,0,0,.49.45.84.84,0,0,0,.54.23c.21,0,.3-.22.3-.43v-.21l.13.17a.63.63,0,0,0,.53.27.62.62,0,0,0,.63-.61.49.49,0,0,0-.06-.27l.12-.27.21.21a.22.22,0,0,0,0,.08.67.67,0,0,0,1.33.1s0-.25,0-.25.08.24.09.23a.68.68,0,0,0,.64.44.65.65,0,0,0,.66-.63.56.56,0,0,0,0-.23l.18,0Z" transform="translate(-1)"/><path class="cls-10" d="M56.39,133.32a17.6,17.6,0,0,0-4.6.57.19.19,0,0,1-.2-.1.18.18,0,0,1,.11-.2,16.81,16.81,0,0,1,4.69-.58,16.83,16.83,0,0,1,4.7.58.18.18,0,0,1,.11.2.19.19,0,0,1-.2.1A17.63,17.63,0,0,0,56.39,133.32Z" transform="translate(-1)"/><path class="cls-6" d="M50.25,132.59s-.23-.29-.39-.44a1.41,1.41,0,0,0-.41-.2s.17-.17.35-.17a.33.33,0,0,1,.27.12l0-.12a.31.31,0,0,1,.21.19,1,1,0,0,1,0,.44.56.56,0,0,1-.08.18Z" transform="translate(-1)"/><path class="cls-6" d="M51.38,132.12l-.06.39-.84.09-.13-.07,0-.14.64-.52.37.25" transform="translate(-1)"/><path class="cls-6" d="M50.26,132.44a.24.24,0,0,1,.32,0c.11.09.14.23.07.3a.24.24,0,0,1-.32,0C50.22,132.65,50.19,132.51,50.26,132.44Z" transform="translate(-1)"/><path class="cls-6" d="M51.8,132.51a.2.2,0,0,1,.08-.25c.08,0,.18.06.22.16a.2.2,0,0,1-.08.26C51.94,132.7,51.84,132.63,51.8,132.51Z" transform="translate(-1)"/><path class="cls-6" d="M52.19,132l.31.29.73-.4.05-.12-.1-.11-.84-.07-.15.41" transform="translate(-1)"/><path class="cls-6" d="M53,130.64l-.4.39.51.68.14,0,.1-.1.18-.82-.53-.2" transform="translate(-1)"/><path class="cls-6" d="M54.41,131.57l-.16.37-.84-.07-.11-.1.06-.13.73-.39.32.32" transform="translate(-1)"/><ellipse class="cls-6" cx="52.3" cy="131.78" rx="0.29" ry="0.28"/><path class="cls-6" d="M54.71,132c0-.12,0-.23.13-.24s.17.08.18.2a.19.19,0,0,1-.13.23C54.81,132.16,54.72,132.07,54.71,132Z" transform="translate(-1)"/><path class="cls-6" d="M55.26,131.53l.24.34.8-.25.09-.11-.09-.12-.8-.23-.24.37" transform="translate(-1)"/><path class="cls-6" d="M56.39,130.28l-.52.31.38.83.14.08.13-.08.38-.83-.51-.31" transform="translate(-1)"/><path class="cls-6" d="M57.52,131.53l-.23.34-.81-.25-.08-.11.08-.12.81-.23.23.37" transform="translate(-1)"/><ellipse class="cls-6" cx="55.39" cy="131.51" rx="0.29" ry="0.28"/><path class="cls-6" d="M58.09,132c0-.12-.05-.23-.13-.24s-.17.08-.18.2,0,.22.12.23S58.07,132.07,58.09,132Z" transform="translate(-1)"/><path class="cls-6" d="M58.38,131.57l.16.37.84-.07.11-.1-.06-.13-.73-.39-.32.32" transform="translate(-1)"/><path class="cls-6" d="M59.75,130.64l.4.39-.51.68-.14,0-.1-.1-.18-.82.53-.2" transform="translate(-1)"/><path class="cls-6" d="M60.6,132l-.31.29-.73-.4-.06-.12.11-.11.84-.07.15.41" transform="translate(-1)"/><ellipse class="cls-6" cx="58.5" cy="131.78" rx="0.29" ry="0.28"/><path class="cls-6" d="M61,132.51a.19.19,0,0,0-.08-.25c-.08,0-.18.06-.22.16s0,.23.09.26S61,132.63,61,132.51Z" transform="translate(-1)"/><path class="cls-6" d="M62.43,132.59a3.82,3.82,0,0,1,.39-.44,1.4,1.4,0,0,1,.4-.2s-.16-.17-.34-.17a.33.33,0,0,0-.27.12l0-.12a.33.33,0,0,0-.21.19,1,1,0,0,0,0,.44.39.39,0,0,0,.08.18Z" transform="translate(-1)"/><path class="cls-6" d="M61.29,132.12l.07.39.84.09.12-.07,0-.14-.63-.52-.37.25" transform="translate(-1)"/><path class="cls-6" d="M62.43,132.44c-.06-.08-.21-.06-.32,0s-.14.23-.07.3.22.06.33,0S62.5,132.51,62.43,132.44Z" transform="translate(-1)"/></g><g id="crown_pt2" data-name="crown pt2"><path class="cls-11" d="M51.82,134.57l.19-.3.39.07-.23.34-.35-.11" transform="translate(-1)"/><path class="cls-12" d="M53.5,134.27l-.41.07a.21.21,0,0,1-.23-.16A.2.2,0,0,1,53,134l.42-.06.43-.06a.19.19,0,0,1,.22.15.2.2,0,0,1-.16.21l-.43.06" transform="translate(-1)"/><ellipse class="cls-13" cx="53.9" cy="133.97" rx="0.26" ry="0.25"/><path class="cls-11" d="M56.41,134.07h-.58a.19.19,0,1,1,0-.37H57a.19.19,0,1,1,0,.37h-.59" transform="translate(-1)"/><ellipse class="cls-13" cx="56.89" cy="133.97" rx="0.26" ry="0.25"/><path class="cls-12" d="M59.29,134.27l.41.07a.21.21,0,0,0,.23-.16.19.19,0,0,0-.16-.21l-.42-.06-.43-.06a.19.19,0,0,0-.22.15.19.19,0,0,0,.16.21l.43.06" transform="translate(-1)"/><path class="cls-11" d="M60.93,134.58l-.15-.31-.4,0,.19.36.36-.08" transform="translate(-1)"/><path class="cls-5" d="M56.39,135.68a15.68,15.68,0,0,1-3.78-.39,16.05,16.05,0,0,1,3.78-.42,15.63,15.63,0,0,1,3.79.42A15.77,15.77,0,0,1,56.39,135.68Z" transform="translate(-1)"/><path class="cls-14" d="M57.07,135.63v-.69m-.35.72v-.74m-.26.75v-.76" transform="translate(-1)"/><path class="cls-15" d="M56.25,135.68v-.77" transform="translate(-1)"/><path class="cls-16" d="M56,135.68v-.77" transform="translate(-1)"/><path class="cls-17" d="M55.85,135.68v-.77" transform="translate(-1)"/><path class="cls-17" d="M55.65,135.68v-.77" transform="translate(-1)"/><path class="cls-18" d="M55.49,135.68v-.77" transform="translate(-1)"/><path class="cls-19" d="M55.16,135.63v-.69m.16.71v-.73" transform="translate(-1)"/><path class="cls-20" d="M54.85,135.6V135m.16.65v-.68" transform="translate(-1)"/><path class="cls-21" d="M54.44,135.57V135m.14.56V135m.14.61V135" transform="translate(-1)"/><path class="cls-22" d="M54.3,135.56V135" transform="translate(-1)"/><path class="cls-23" d="M54.17,135.54V135" transform="translate(-1)"/><path class="cls-24" d="M54,135.52v-.47" transform="translate(-1)"/><path class="cls-25" d="M53.73,135.48v-.37m.15.39v-.42" transform="translate(-1)"/><path class="cls-25" d="M53.58,135.45v-.33" transform="translate(-1)"/><path class="cls-26" d="M53.45,135.42v-.27" transform="translate(-1)"/><path class="cls-27" d="M53.3,135.39v-.22" transform="translate(-1)"/><path class="cls-28" d="M53.15,135.37v-.16" transform="translate(-1)"/><path class="cls-29" d="M53,135.33v-.07" transform="translate(-1)"/></g></g><g id="pillar_left" data-name="pillar left"><path class="cls-30" d="M65.76,198.39a5.15,5.15,0,0,1-2.36-.52,5.17,5.17,0,0,0-2.32-.5,5.4,5.4,0,0,0-2.34.5,5.16,5.16,0,0,1-2.35.52,5.11,5.11,0,0,1-2.36-.54,5.19,5.19,0,0,0-2.28-.48,5.1,5.1,0,0,0-2.31.49,5.22,5.22,0,0,1-2.37.53v1.44a5.36,5.36,0,0,0,2.37-.52,5,5,0,0,1,2.31-.5,5.37,5.37,0,0,1,2.28.48,5.11,5.11,0,0,0,2.36.54,5.17,5.17,0,0,0,2.35-.51,5.63,5.63,0,0,1,4.66,0,5,5,0,0,0,2.34.52l0-1.44Z" transform="translate(-1)"/><path class="cls-31" d="M65.76,199.83a5,5,0,0,1-2.36-.52,5.63,5.63,0,0,0-4.66,0,5.17,5.17,0,0,1-2.35.51,5.11,5.11,0,0,1-2.36-.54,5.34,5.34,0,0,0-2.28-.48,5,5,0,0,0-2.31.5,5.36,5.36,0,0,1-2.37.52v1.45a5.22,5.22,0,0,0,2.37-.53,5.1,5.1,0,0,1,2.31-.49,5.37,5.37,0,0,1,2.28.48,5.11,5.11,0,0,0,2.36.54,5.16,5.16,0,0,0,2.35-.52,5.26,5.26,0,0,1,2.34-.5,5.17,5.17,0,0,1,2.32.5,5.09,5.09,0,0,0,2.34.52l0-1.45" transform="translate(-1)"/><path class="cls-30" d="M65.76,201.28a5.15,5.15,0,0,1-2.36-.52,5.17,5.17,0,0,0-2.32-.5,5.26,5.26,0,0,0-2.34.5,5.16,5.16,0,0,1-2.35.52,5.11,5.11,0,0,1-2.36-.54,5.34,5.34,0,0,0-2.28-.48,5.1,5.1,0,0,0-2.31.49,5.22,5.22,0,0,1-2.37.53v1.44a5.09,5.09,0,0,0,2.37-.53,5.73,5.73,0,0,1,4.59,0,5.11,5.11,0,0,0,2.36.53,5.17,5.17,0,0,0,2.35-.51,5.73,5.73,0,0,1,4.66,0,5,5,0,0,0,2.34.52l0-1.44" transform="translate(-1)"/><path class="cls-31" d="M65.74,204.17a5.09,5.09,0,0,1-2.34-.52,5.73,5.73,0,0,0-4.66,0,5.3,5.3,0,0,1-2.35.51,5.11,5.11,0,0,1-2.36-.54,5.2,5.2,0,0,0-2.28-.47,5.1,5.1,0,0,0-2.31.48,5.22,5.22,0,0,1-2.37.53v-1.44a5.09,5.09,0,0,0,2.37-.54,5.73,5.73,0,0,1,4.59,0,5.11,5.11,0,0,0,2.36.53,5.17,5.17,0,0,0,2.35-.51,5.73,5.73,0,0,1,4.66,0,5,5,0,0,0,2.36.52l0,1.45" transform="translate(-1)"/><path class="cls-30" d="M65.74,205.62a5.09,5.09,0,0,1-2.34-.52,5.17,5.17,0,0,0-2.32-.5,5.26,5.26,0,0,0-2.34.5,5.3,5.3,0,0,1-2.35.52,5.11,5.11,0,0,1-2.36-.54,5.19,5.19,0,0,0-2.28-.48,5.1,5.1,0,0,0-2.31.49,5.22,5.22,0,0,1-2.37.53v-1.44a5.22,5.22,0,0,0,2.37-.54,5.1,5.1,0,0,1,2.31-.48,5.38,5.38,0,0,1,2.28.47,5.11,5.11,0,0,0,2.36.54,5.3,5.3,0,0,0,2.35-.51,5.73,5.73,0,0,1,4.66,0,5.15,5.15,0,0,0,2.36.52l0,1.45Z" transform="translate(-1)"/><path class="cls-32" d="M51.14,192.45a1.53,1.53,0,0,1,.08.37,1.64,1.64,0,0,1-1.69,1.58H63.3a1.64,1.64,0,0,1-1.69-1.58,1.5,1.5,0,0,1,0-.37.72.72,0,0,1-.26,0h-10A1,1,0,0,1,51.14,192.45Z" transform="translate(-1)"/><path class="cls-33" d="M51.39,191.54h10a.49.49,0,1,1,0,.94h-10a.49.49,0,1,1,0-.94Z" transform="translate(-1)"/><path class="cls-33" d="M49.55,197.9H63.27v-3.5H49.55Z" transform="translate(-1)"/><path class="cls-31" d="M51.52,191h9.75V143.2H51.52Z" transform="translate(-1)"/><path class="cls-34" d="M58.47,143.27v47.67m1.1-47.67v47.67" transform="translate(-1)"/><path class="cls-33" d="M49.74,139.41H63.11V135.9H49.74v3.51Z" transform="translate(-1)"/><path class="cls-32" d="M51.14,141.74a.69.69,0,0,1,.25,0h10a.87.87,0,0,1,.28.05.85.85,0,0,1-.6-.79.87.87,0,0,1,.62-.8,1.35,1.35,0,0,1-.29.05h-10a.82.82,0,0,1-.28,0h0a.79.79,0,0,1,.56.78.83.83,0,0,1-.58.78Z" transform="translate(-1)"/><path class="cls-33" d="M51.39,141.7h10a.49.49,0,1,1,0,.94h-10a.49.49,0,1,1,0-.94Z" transform="translate(-1)"/><path class="cls-33" d="M51.39,139.41h10c.34,0,.61.18.61.39s-.27.41-.61.41h-10c-.34,0-.61-.18-.61-.41S51.05,139.41,51.39,139.41Z" transform="translate(-1)"/></g><g id="ribbon_left" data-name="ribbon left"><path class="cls-35" d="M48.48,179.15c-1.36.78-2.28,1.59-2.13,2s.5.64,1.12,1.05c1,.68,1.56,1.88,1.1,2.44a3.46,3.46,0,0,0,1.31-2.69A3.5,3.5,0,0,0,48.48,179.15Z" transform="translate(-1)"/><path class="cls-36" d="M71.23,161.07a31.07,31.07,0,0,0-9.9-1.67,30.63,30.63,0,0,0-4.67.42c-5.83,1-10.28,3.3-9.92,5.2a.9.9,0,0,0,0,.16s-2.19-4.93-2.22-5.12c-.39-2.1,4.53-4.69,11-5.77a32.91,32.91,0,0,1,5.73-.45,31.19,31.19,0,0,1,9.91,1.33l0,5.9" transform="translate(-1)"/><path class="cls-35" d="M51.5,167.07c-2.7-.2-4.55-.92-4.76-2-.17-.9.75-1.9,2.38-2.81a19.55,19.55,0,0,0,2.4.18l0,4.68" transform="translate(-1)"/><path class="cls-35" d="M61.29,163.41a8,8,0,0,1,3.58,1.2l.06.1c.3.62-1.18,1.93-3.66,3.4l0-4.7" transform="translate(-1)"/><path class="cls-36" d="M45.44,176.28c-.26-.77,2.38-2.32,6.11-3.68,1.7-.61,3.11-1.25,4.85-2,5.18-2.29,9-4.92,8.53-5.88l-.05-.1c.28.23.71,4.95.71,4.95.47.87-3,3.46-7.8,5.74-1.52.73-4.75,1.92-6.26,2.46-2.73.94-5.43,2.72-5.18,3.38l-.91-4.85Z" transform="translate(-1)"/></g><g id="crown_right" data-name="crown right"><path class="cls-37" d="M145.89,132.24a2,2,0,0,1-.77.53c-.32.06-.72-.29-.72-.29a1.5,1.5,0,0,1-.65.38c-.36.09-.85-.39-.85-.39a2,2,0,0,1-.64.59.89.89,0,0,1-.68-.14,1.1,1.1,0,0,1-.39.36c-.1.06-.28,0-.28,0l-.36-.23-.41-.43-.37-.14s-.17-.55-.19-.64-.05-.35-.05-.35c-.08-.39.52-.83,1.38-1a2.59,2.59,0,0,1,1.24,0,3.19,3.19,0,0,1,1.92-.49,3.39,3.39,0,0,1,1.82.42,3.37,3.37,0,0,1,1.82-.42,3.18,3.18,0,0,1,1.91.49,2.59,2.59,0,0,1,1.24,0c.86.2,1.46.64,1.38,1,0,0,0,.25,0,.35s-.2.64-.2.64l-.37.14-.41.43-.34.23s-.18.09-.29,0a1,1,0,0,1-.4-.36.89.89,0,0,1-.68.14,2,2,0,0,1-.64-.59s-.49.48-.85.39a1.51,1.51,0,0,1-.64-.38s-.41.35-.73.29a2,2,0,0,1-.76-.53Z" transform="translate(-1)"/><ellipse class="cls-6" cx="144.87" cy="129.71" rx="0.83" ry="1.18"/><ellipse class="cls-6" cx="144.89" cy="129.71" rx="0.38" ry="1.09"/><ellipse class="cls-7" cx="144.88" cy="128.36" rx="0.56" ry="0.53"/><path class="cls-8" d="M146.66,128.17v.35h-1.52v-.35h.56v-.78h-.37V127h.37v-.34h.37V127h.37v.35h-.37v.78h.59" transform="translate(-1)"/><path class="cls-9" d="M146.05,127.86a.53.53,0,0,1,.37.66.57.57,0,0,1-.7.35.52.52,0,0,1-.37-.66.55.55,0,0,1,.39-.36" transform="translate(-1)"/><path class="cls-38" d="M139.63,132a1.75,1.75,0,0,1-.13-.65,1.7,1.7,0,0,1,1.69-1.72,1.53,1.53,0,0,1,.82.22" transform="translate(-1)"/><path class="cls-9" d="M142.67,130.75a1.08,1.08,0,0,1-.18-.51,1.46,1.46,0,0,1,1.59-1.25,2,2,0,0,1,1,.27" transform="translate(-1)"/><path class="cls-9" d="M149.08,130.76a1,1,0,0,0,.15-.52,1.45,1.45,0,0,0-1.58-1.25,2,2,0,0,0-1,.27" transform="translate(-1)"/><path class="cls-38" d="M152.11,132a2,2,0,0,0,.12-.65,1.7,1.7,0,0,0-1.69-1.72,1.59,1.59,0,0,0-.83.22" transform="translate(-1)"/><ellipse class="cls-39" cx="138.12" cy="131.19" rx="0.27" ry="0.26"/><ellipse class="cls-39" cx="138.23" cy="130.25" rx="0.27" ry="0.26"/><ellipse class="cls-39" cx="138.84" cy="129.53" rx="0.27" ry="0.26"/><ellipse class="cls-39" cx="139.65" cy="129.14" rx="0.27" ry="0.26"/><ellipse class="cls-39" cx="140.51" cy="129.17" rx="0.27" ry="0.26"/><ellipse class="cls-40" cx="141.04" cy="130.24" rx="0.27" ry="0.26"/><ellipse class="cls-39" cx="141.19" cy="129.34" rx="0.27" ry="0.26"/><ellipse class="cls-39" cx="141.87" cy="128.77" rx="0.27" ry="0.26"/><ellipse class="cls-39" cx="142.72" cy="128.5" rx="0.27" ry="0.26"/><ellipse class="cls-39" cx="143.58" cy="128.53" rx="0.27" ry="0.26"/><ellipse class="cls-39" cx="146.14" cy="128.53" rx="0.27" ry="0.26"/><ellipse class="cls-39" cx="147.01" cy="128.5" rx="0.27" ry="0.26"/><ellipse class="cls-39" cx="147.86" cy="128.77" rx="0.27" ry="0.26"/><ellipse class="cls-39" cx="148.54" cy="129.34" rx="0.27" ry="0.26"/><ellipse class="cls-40" cx="148.69" cy="130.24" rx="0.27" ry="0.26"/><ellipse class="cls-39" cx="149.22" cy="129.17" rx="0.27" ry="0.26"/><ellipse class="cls-39" cx="150.09" cy="129.14" rx="0.27" ry="0.26"/><ellipse class="cls-39" cx="150.9" cy="129.53" rx="0.27" ry="0.26"/><ellipse class="cls-39" cx="151.51" cy="130.25" rx="0.27" ry="0.26"/><ellipse class="cls-39" cx="151.61" cy="131.19" rx="0.27" ry="0.26"/><g id="crown_pt1-2" data-name="crown pt1"><path class="cls-6" d="M141.63,134.54a2.61,2.61,0,0,0-.35-.65,18.93,18.93,0,0,1,9.22,0l-.31.54a2.78,2.78,0,0,0-.23.49,14.29,14.29,0,0,0-4.08-.49,14.11,14.11,0,0,0-4.12.51,3.22,3.22,0,0,0-.14-.4h0" transform="translate(-1)"/><path class="cls-6" d="M145.88,136a18.53,18.53,0,0,0,3.66-.37c.4-.12.63-.3.59-.51a.38.38,0,0,0-.22-.23,17.16,17.16,0,0,0-8.06,0,.38.38,0,0,0-.22.23c0,.21.19.39.59.51A18.62,18.62,0,0,0,145.88,136Z" transform="translate(-1)"/><path class="cls-6" d="M150.57,133.23l-.35-.31a1.33,1.33,0,0,1-.77.14c-.42-.07-.56-.58-.56-.58a1.52,1.52,0,0,1-.86.37,1.06,1.06,0,0,1-.65-.37,1.46,1.46,0,0,1-.79.27,1.31,1.31,0,0,1-.73-.49s-.38.48-.75.51a1,1,0,0,1-.68-.32.88.88,0,0,1-.64.43,1.13,1.13,0,0,1-.88-.37,1.45,1.45,0,0,1-.6.55,1,1,0,0,1-.74-.16l-.12.26a.29.29,0,0,1-.19.11l.11.28a19.22,19.22,0,0,1,9.09,0l.12-.33Z" transform="translate(-1)"/><path class="cls-6" d="M145.9,131.68l.16,0a.56.56,0,0,0,0,.23.65.65,0,0,0,.67.63.69.69,0,0,0,.64-.44s.06-.23.09-.23,0,.25,0,.25a.67.67,0,0,0,1.32-.1V132l.21-.21.11.27a.6.6,0,0,0-.06.27.62.62,0,0,0,.64.61.63.63,0,0,0,.52-.27l.14-.17v.21c0,.21.09.4.3.43a.85.85,0,0,0,.54-.23,3.88,3.88,0,0,0,.48-.45l0,.25a2.35,2.35,0,0,1-.58.66.89.89,0,0,1-.57.15.54.54,0,0,1-.4-.36,1,1,0,0,1-.48.13.94.94,0,0,1-.86-.52.91.91,0,0,1-.69.3,1,1,0,0,1-.76-.35.91.91,0,0,1-.65.26,1,1,0,0,1-.8-.41,1,1,0,0,1-.8.41.91.91,0,0,1-.66-.26,1,1,0,0,1-.75.35.91.91,0,0,1-.7-.3.91.91,0,0,1-.85.52,1,1,0,0,1-.48-.13.54.54,0,0,1-.4.36.89.89,0,0,1-.57-.15,2.45,2.45,0,0,1-.61-.66l0-.25a4.62,4.62,0,0,0,.49.45.85.85,0,0,0,.55.23c.2,0,.29-.22.29-.43v-.21l.13.17a.65.65,0,0,0,.53.27.62.62,0,0,0,.63-.61.49.49,0,0,0-.06-.27l.12-.27.21.21a.22.22,0,0,0,0,.08.65.65,0,0,0,.67.63.63.63,0,0,0,.66-.53s0-.25,0-.25.08.24.09.23a.68.68,0,0,0,.64.44.65.65,0,0,0,.67-.63.56.56,0,0,0,0-.23l.17,0Z" transform="translate(-1)"/><path class="cls-10" d="M145.88,133.32a17.6,17.6,0,0,0-4.6.57.19.19,0,0,1-.2-.1.18.18,0,0,1,.11-.2,19.29,19.29,0,0,1,9.39,0,.18.18,0,0,1,.11.2.19.19,0,0,1-.2.1A17.63,17.63,0,0,0,145.88,133.32Z" transform="translate(-1)"/><path class="cls-6" d="M139.74,132.59a5.26,5.26,0,0,0-.39-.44,1.41,1.41,0,0,0-.41-.2s.17-.17.35-.17a.33.33,0,0,1,.27.12l0-.12a.33.33,0,0,1,.21.19,1,1,0,0,1,0,.44.46.46,0,0,1-.09.18Z" transform="translate(-1)"/><path class="cls-6" d="M140.88,132.12l-.07.39-.84.09-.13-.07,0-.14.63-.52.38.25" transform="translate(-1)"/><path class="cls-6" d="M139.75,132.44a.24.24,0,0,1,.32,0c.11.09.15.23.07.3a.22.22,0,0,1-.31,0C139.72,132.65,139.68,132.51,139.75,132.44Z" transform="translate(-1)"/><path class="cls-6" d="M141.29,132.51a.2.2,0,0,1,.08-.25c.09,0,.18.06.22.16a.2.2,0,0,1-.08.26C141.43,132.7,141.34,132.63,141.29,132.51Z" transform="translate(-1)"/><path class="cls-6" d="M141.68,132l.31.29.73-.4.06-.12-.11-.11-.84-.07-.15.41" transform="translate(-1)"/><path class="cls-6" d="M142.53,130.64l-.4.39.51.68.14,0,.1-.1.18-.82-.53-.2" transform="translate(-1)"/><path class="cls-6" d="M143.9,131.57l-.16.37-.84-.07-.11-.1.06-.13.74-.39.31.32" transform="translate(-1)"/><ellipse class="cls-6" cx="141.79" cy="131.78" rx="0.29" ry="0.28"/><path class="cls-6" d="M144.2,132c0-.12.05-.23.13-.24s.17.08.18.2a.19.19,0,0,1-.13.23C144.3,132.16,144.22,132.07,144.2,132Z" transform="translate(-1)"/><path class="cls-6" d="M144.75,131.53l.24.34.8-.25.09-.11-.09-.12-.8-.23-.24.37" transform="translate(-1)"/><path class="cls-6" d="M145.88,130.28l-.52.31.39.83.13.08.13-.08.38-.83-.51-.31" transform="translate(-1)"/><path class="cls-6" d="M147,131.53l-.23.34-.81-.25-.08-.11.08-.12.81-.23.23.37" transform="translate(-1)"/><ellipse class="cls-6" cx="144.88" cy="131.51" rx="0.29" ry="0.28"/><path class="cls-6" d="M147.58,132c0-.12-.05-.23-.13-.24s-.17.08-.18.2,0,.22.13.23S147.56,132.07,147.58,132Z" transform="translate(-1)"/><path class="cls-6" d="M147.88,131.57l.15.37.84-.07.11-.1-.06-.13-.73-.39-.31.32" transform="translate(-1)"/><path class="cls-6" d="M149.24,130.64l.41.39-.52.68-.14,0-.1-.1-.18-.82.53-.2" transform="translate(-1)"/><path class="cls-6" d="M150.09,132l-.31.29-.73-.4-.06-.12.12-.11.84-.07.14.41" transform="translate(-1)"/><ellipse class="cls-6" cx="147.99" cy="131.78" rx="0.29" ry="0.28"/><path class="cls-6" d="M150.49,132.51a.2.2,0,0,0-.08-.25c-.09,0-.18.06-.22.16a.2.2,0,0,0,.08.26C150.35,132.7,150.44,132.63,150.49,132.51Z" transform="translate(-1)"/><path class="cls-6" d="M151.92,132.59s.23-.29.4-.44a1.28,1.28,0,0,1,.4-.2s-.17-.17-.35-.17a.33.33,0,0,0-.27.12l0-.12a.33.33,0,0,0-.22.19,1,1,0,0,0,0,.44.56.56,0,0,0,.08.18Z" transform="translate(-1)"/><path class="cls-6" d="M150.79,132.12l.06.39.84.09.13-.07,0-.14-.63-.52-.37.25" transform="translate(-1)"/><path class="cls-6" d="M151.93,132.44c-.07-.08-.21-.06-.32,0s-.15.23-.07.3.21.06.32,0S152,132.51,151.93,132.44Z" transform="translate(-1)"/></g><g id="crown_pt2-2" data-name="crown pt2"><path class="cls-11" d="M141.31,134.57l.19-.3.39.07-.23.34-.35-.11" transform="translate(-1)"/><path class="cls-12" d="M143,134.27l-.41.07a.21.21,0,0,1-.23-.16.2.2,0,0,1,.16-.21l.42-.06.43-.06a.19.19,0,0,1,.22.15.2.2,0,0,1-.16.21l-.43.06" transform="translate(-1)"/><ellipse class="cls-13" cx="143.4" cy="133.97" rx="0.26" ry="0.25"/><path class="cls-11" d="M145.9,134.07h-.57a.19.19,0,1,1,0-.37h1.18a.19.19,0,1,1,0,.37h-.6" transform="translate(-1)"/><ellipse class="cls-13" cx="146.38" cy="133.97" rx="0.26" ry="0.25"/><path class="cls-12" d="M148.78,134.27l.42.07a.2.2,0,0,0,.22-.16.18.18,0,0,0-.16-.21l-.42-.06-.42-.06a.18.18,0,1,0-.06.36l.42.06" transform="translate(-1)"/><path class="cls-11" d="M150.43,134.58l-.15-.31-.41,0,.2.36.36-.08" transform="translate(-1)"/><path class="cls-5" d="M145.88,135.68a15.68,15.68,0,0,1-3.78-.39,16.05,16.05,0,0,1,3.78-.42,15.78,15.78,0,0,1,3.8.42A15.92,15.92,0,0,1,145.88,135.68Z" transform="translate(-1)"/><path class="cls-14" d="M146.56,135.63v-.69m-.35.72v-.74m-.26.75v-.76" transform="translate(-1)"/><path class="cls-15" d="M145.75,135.68v-.77" transform="translate(-1)"/><path class="cls-16" d="M145.54,135.68v-.77" transform="translate(-1)"/><path class="cls-17" d="M145.34,135.68v-.77" transform="translate(-1)"/><path class="cls-17" d="M145.15,135.68v-.77" transform="translate(-1)"/><path class="cls-18" d="M145,135.68v-.77" transform="translate(-1)"/><path class="cls-19" d="M144.65,135.63v-.69m.16.71v-.73" transform="translate(-1)"/><path class="cls-20" d="M144.34,135.6V135m.16.65v-.68" transform="translate(-1)"/><path class="cls-21" d="M143.93,135.57V135m.14.56V135m.14.61V135" transform="translate(-1)"/><path class="cls-22" d="M143.8,135.56V135" transform="translate(-1)"/><path class="cls-23" d="M143.66,135.54V135" transform="translate(-1)"/><path class="cls-24" d="M143.52,135.52v-.47" transform="translate(-1)"/><path class="cls-25" d="M143.23,135.48v-.37m.16.39v-.42" transform="translate(-1)"/><path class="cls-25" d="M143.08,135.45v-.33" transform="translate(-1)"/><path class="cls-26" d="M142.94,135.42v-.27" transform="translate(-1)"/><path class="cls-27" d="M142.79,135.39v-.22" transform="translate(-1)"/><path class="cls-28" d="M142.64,135.37v-.16" transform="translate(-1)"/><path class="cls-29" d="M142.48,135.33v-.07" transform="translate(-1)"/></g></g><g id="pillar_right" data-name="pillar right"><g id="pillar_left-2" data-name="pillar left"><path class="cls-30" d="M155.25,198.39a5.18,5.18,0,0,1-2.36-.52,5.12,5.12,0,0,0-2.31-.5,5.45,5.45,0,0,0-2.35.5,5.5,5.5,0,0,1-4.71,0,5.67,5.67,0,0,0-4.59,0,5.22,5.22,0,0,1-2.37.53v1.44a5.36,5.36,0,0,0,2.37-.52,5,5,0,0,1,2.32-.5,5.33,5.33,0,0,1,2.27.48,5.54,5.54,0,0,0,4.71,0,5.63,5.63,0,0,1,4.66,0,5,5,0,0,0,2.35.52v-1.44Z" transform="translate(-1)"/><path class="cls-31" d="M155.25,199.83a5.05,5.05,0,0,1-2.36-.52,5.63,5.63,0,0,0-4.66,0,5.54,5.54,0,0,1-4.71,0,5.33,5.33,0,0,0-2.27-.48,5,5,0,0,0-2.32.5,5.36,5.36,0,0,1-2.37.52v1.45a5.22,5.22,0,0,0,2.37-.53,5.14,5.14,0,0,1,2.32-.49,5.33,5.33,0,0,1,2.27.48,5.5,5.5,0,0,0,4.71,0,5.3,5.3,0,0,1,2.35-.5,5.12,5.12,0,0,1,2.31.5,5.1,5.1,0,0,0,2.35.52v-1.45" transform="translate(-1)"/><path class="cls-30" d="M155.25,201.28a5.18,5.18,0,0,1-2.36-.52,5.12,5.12,0,0,0-2.31-.5,5.3,5.3,0,0,0-2.35.5,5.5,5.5,0,0,1-4.71,0,5.33,5.33,0,0,0-2.27-.48,5.14,5.14,0,0,0-2.32.49,5.22,5.22,0,0,1-2.37.53v1.44a5.09,5.09,0,0,0,2.37-.53,5.28,5.28,0,0,1,2.32-.48,5.18,5.18,0,0,1,2.27.48,5.59,5.59,0,0,0,4.71,0,5.73,5.73,0,0,1,4.66,0,5,5,0,0,0,2.35.52v-1.44" transform="translate(-1)"/><path class="cls-31" d="M155.24,204.17a5.1,5.1,0,0,1-2.35-.52,5.73,5.73,0,0,0-4.66,0,5.3,5.3,0,0,1-2.35.51,5.14,5.14,0,0,1-2.36-.54,5.78,5.78,0,0,0-4.59,0,5.22,5.22,0,0,1-2.37.53v-1.44a5.09,5.09,0,0,0,2.37-.54,5.28,5.28,0,0,1,2.32-.48,5.18,5.18,0,0,1,2.27.48,5.59,5.59,0,0,0,4.71,0,5.73,5.73,0,0,1,4.66,0,5.05,5.05,0,0,0,2.36.52v1.45" transform="translate(-1)"/><path class="cls-30" d="M155.24,205.62a5.1,5.1,0,0,1-2.35-.52,5.12,5.12,0,0,0-2.31-.5,5.3,5.3,0,0,0-2.35.5,5.3,5.3,0,0,1-2.35.52,5.14,5.14,0,0,1-2.36-.54,5.67,5.67,0,0,0-4.59,0,5.22,5.22,0,0,1-2.37.53v-1.44a5.22,5.22,0,0,0,2.37-.54,5.15,5.15,0,0,1,2.32-.48,5.33,5.33,0,0,1,2.27.47,5.14,5.14,0,0,0,2.36.54,5.3,5.3,0,0,0,2.35-.51,5.73,5.73,0,0,1,4.66,0,5.15,5.15,0,0,0,2.36.52v1.45Z" transform="translate(-1)"/><path class="cls-32" d="M140.64,192.45a1.51,1.51,0,0,1,.07.37A1.63,1.63,0,0,1,139,194.4h13.76a1.64,1.64,0,0,1-1.69-1.58,1.51,1.51,0,0,1,.06-.37.8.8,0,0,1-.27,0h-10A.93.93,0,0,1,140.64,192.45Z" transform="translate(-1)"/><path class="cls-33" d="M140.88,191.54h10c.35,0,.62.21.62.47s-.27.47-.62.47h-10a.49.49,0,1,1,0-.94Z" transform="translate(-1)"/><path class="cls-33" d="M139.05,197.9h13.72v-3.5H139.05Z" transform="translate(-1)"/><path class="cls-31" d="M141,191h9.75V143.2H141Z" transform="translate(-1)"/><path class="cls-34" d="M148,143.27v47.67m1.1-47.67v47.67" transform="translate(-1)"/><path class="cls-33" d="M139.23,139.41H152.6V135.9H139.23v3.51Z" transform="translate(-1)"/><path class="cls-32" d="M140.64,141.74a.61.61,0,0,1,.24,0h10a.78.78,0,0,1,.28.05.84.84,0,0,1-.59-.79.87.87,0,0,1,.61-.8,1.25,1.25,0,0,1-.29.05h-10a.82.82,0,0,1-.28,0h.05a.8.8,0,0,1,.57.78.84.84,0,0,1-.58.78Z" transform="translate(-1)"/><path class="cls-33" d="M140.88,141.7h10c.35,0,.62.21.62.47s-.27.47-.62.47h-10a.49.49,0,1,1,0-.94Z" transform="translate(-1)"/><path class="cls-33" d="M140.88,139.41h10c.34,0,.62.18.62.39s-.28.41-.62.41h-10c-.33,0-.61-.18-.61-.41S140.55,139.41,140.88,139.41Z" transform="translate(-1)"/></g></g><g id="ribbon_right" data-name="ribbon right"><g id="ribbon_left-2" data-name="ribbon left"><path class="cls-35" d="M153.83,179.15c1.36.78,2.28,1.59,2.13,2s-.5.64-1.12,1.05c-1,.68-1.56,1.88-1.1,2.44a3.46,3.46,0,0,1-1.31-2.69A3.5,3.5,0,0,1,153.83,179.15Z" transform="translate(-1)"/><path class="cls-36" d="M131.08,161.07a31.12,31.12,0,0,1,9.9-1.67,30.63,30.63,0,0,1,4.67.42c5.83,1,10.28,3.3,9.92,5.2a.9.9,0,0,1,0,.16s2.19-4.93,2.22-5.12c.39-2.1-4.53-4.69-11-5.77a32.91,32.91,0,0,0-5.73-.45,31.19,31.19,0,0,0-9.91,1.33l0,5.9" transform="translate(-1)"/><path class="cls-35" d="M150.81,167.07c2.71-.2,4.55-.92,4.76-2,.17-.9-.75-1.9-2.38-2.81a19.4,19.4,0,0,1-2.4.18l0,4.68" transform="translate(-1)"/><path class="cls-35" d="M141,163.41a8,8,0,0,0-3.58,1.2l-.06.1c-.3.62,1.18,1.93,3.66,3.4l0-4.7" transform="translate(-1)"/><path class="cls-36" d="M156.87,176.28c.26-.77-2.38-2.32-6.11-3.68-1.7-.61-3.11-1.25-4.85-2-5.18-2.29-9-4.92-8.53-5.88l.05-.1c-.27.23-.71,4.95-.71,4.95-.46.87,3,3.46,7.8,5.74,1.53.73,4.75,1.92,6.27,2.46,2.72.94,5.42,2.72,5.17,3.38l.91-4.85Z" transform="translate(-1)"/></g></g><g id="plus_ultra" data-name="plus ultra"><path class="cls-7" d="M50.84,158.77c1.2-.43,2-.94,1.6-1.88-.25-.6-.86-.71-1.78-.38l-1.63.6,1.46,3.61.49-.2.51-.16-.65-1.58ZM50.13,157l.42-.15a.78.78,0,0,1,.6,1.41,3.23,3.23,0,0,1-.42.2l-.6-1.46" transform="translate(-1)"/><path class="cls-7" d="M54.66,155.52l-.52.13-.53.07.85,3.77,2.63-.53a2.18,2.18,0,0,1-.09-.23c0-.08,0-.17,0-.24-.46.13-1,.27-1.57.39l-.75-3.36" transform="translate(-1)"/><path class="cls-7" d="M59.93,158.76c.49-1.37,1.09-2.67,1.68-4a1.87,1.87,0,0,1-.32,0H61c-.32,1-.7,1.93-1.12,2.88-.49-.9-1-1.79-1.46-2.7l-.61.07h-.63c.76,1.24,1.49,2.47,2.19,3.74l.3-.05c.09,0,.19,0,.3,0" transform="translate(-1)"/><path class="cls-7" d="M65.42,155.86c.09-.18.19-.36.29-.53a2.23,2.23,0,0,0-1.09-.38c-1.07-.11-1.68.37-1.76,1-.15,1.35,2,1.24,1.89,2.14,0,.38-.45.54-.89.5a.93.93,0,0,1-.91-.72h-.13a4.06,4.06,0,0,1-.29.69,2.54,2.54,0,0,0,1.11.35c1.1.12,1.94-.32,2-1,.14-1.29-2-1.36-1.93-2.12,0-.32.28-.53.84-.48a.83.83,0,0,1,.75.57h.11" transform="translate(-1)"/><path class="cls-7" d="M137.16,159c.37-1.4.85-2.75,1.32-4.12l-.32.07-.33,0a30.72,30.72,0,0,1-.85,3c-.57-.86-1.2-1.7-1.7-2.58-.2,0-.4.09-.61.12l-.62.07c.87,1.16,1.71,2.33,2.52,3.54a2.21,2.21,0,0,1,.3-.07l.29,0" transform="translate(-1)"/><path class="cls-7" d="M140.87,154.88l-.53,0c-.18,0-.36,0-.53,0l-.07,3.85,2.69,0a1.09,1.09,0,0,1,0-.25,2,2,0,0,1,0-.24c-.48,0-1,.06-1.62,0l.06-3.44" transform="translate(-1)"/><path class="cls-7" d="M145.09,155.51a12.73,12.73,0,0,1,1.26.19,2.09,2.09,0,0,1,0-.25,1.55,1.55,0,0,1,.06-.23l-3.64-.3a1.93,1.93,0,0,1,0,.24,2.1,2.1,0,0,1-.06.24,8.78,8.78,0,0,1,1.33,0l-.32,3.46a4.78,4.78,0,0,1,.53,0c.18,0,.35,0,.52.06l.32-3.46" transform="translate(-1)"/><path class="cls-7" d="M146.59,159.3l.52.09.51.14.44-1.76h0c.1.25.23.54.3.72l.54,1.33c.21,0,.42.06.63.11a6.25,6.25,0,0,1,.62.16l-.18-.4c-.29-.6-.6-1.2-.85-1.81.67,0,1.19-.22,1.32-.76a.82.82,0,0,0-.41-.91,3.31,3.31,0,0,0-1.1-.36l-1.46-.32-.92,3.77m1.88-3.25c.43.1.95.16.95.64a1.12,1.12,0,0,1,0,.29c-.14.56-.57.76-1.28.55l.36-1.48" transform="translate(-1)"/><path class="cls-7" d="M153.52,160.46c0,.41-.11.82-.18,1.26.18.08.36.16.54.26s.34.21.51.32l.36-4.34-.24-.12-.23-.14-3.82,2.43.3.15a2.61,2.61,0,0,1,.28.17c.33-.27.66-.49,1.05-.78l1.43.78Zm-1.08-1,1.27-.82-.15,1.44-1.12-.62" transform="translate(-1)"/></g></g><g id="crown_crest" data-name="crown crest"><path class="cls-11" d="M100.77,109.62a28.53,28.53,0,0,1,9.85,1.51,19,19,0,0,0,5,1.3,20.07,20.07,0,0,0,4.11.14,16.27,16.27,0,0,1,6.37,1.49,17.24,17.24,0,0,1,4.68,3l-.94.84-.27,2.37-2.58,3-1.29,1.1-3.06,2.44-1.56.13-.47,1.35-19.74-2.32L81.1,128.19l-.48-1.35-1.56-.13-3-2.44-1.29-1.1-2.58-3-.26-2.37-.95-.84a17.24,17.24,0,0,1,4.68-3A16.27,16.27,0,0,1,82,112.57a20.07,20.07,0,0,0,4.11-.14,19,19,0,0,0,5-1.3,27.27,27.27,0,0,1,9.64-1.51Z" transform="translate(-1)"/><path class="cls-33" d="M86.19,114.84l.83.67,1.25-2A4.63,4.63,0,0,1,86,109.56a4.89,4.89,0,0,1,0-.54c.13-2.61,3.3-4.76,7.32-4.76a9.46,9.46,0,0,1,5.31,1.49c0-.4.07-.75.12-1.11a10.79,10.79,0,0,0-5.43-1.37c-4.62,0-8.24,2.63-8.42,5.74,0,.19,0,.37,0,.55a5.52,5.52,0,0,0,2,4.19l-.66,1.09" transform="translate(-1)"/><path class="cls-33" d="M86.24,114.86a5.78,5.78,0,0,1-2.56-4.54,6.12,6.12,0,0,1,3.35-5A5.34,5.34,0,0,0,84.92,109c0,.19,0,.37,0,.55a5.52,5.52,0,0,0,2,4.19l-.61,1.11" transform="translate(-1)"/><path class="cls-33" d="M72.31,116.92a5.51,5.51,0,0,1-1.42-3.67,5.39,5.39,0,0,1,.54-2.37c1.28-2.63,5.29-4.54,10.06-4.54a16.74,16.74,0,0,1,3.68.4,7,7,0,0,0-.65.89,15.5,15.5,0,0,0-3-.29c-4.36,0-8,1.7-9.07,4a4.3,4.3,0,0,0-.44,1.92,4.54,4.54,0,0,0,1.67,3.49l-1.58,2.58-.84-.67,1.08-1.73Z" transform="translate(-1)"/><path class="cls-33" d="M73.93,108.28a6.58,6.58,0,0,0-2.5,2.6,5.39,5.39,0,0,0-.54,2.37,5.51,5.51,0,0,0,1.42,3.67l-1,1.56a6.58,6.58,0,0,1-1.45-4c0-2.52,1.6-4.72,4-6.18Z" transform="translate(-1)"/><path class="cls-33" d="M101,102.75a2.21,2.21,0,0,1,2.18,1.64,19.12,19.12,0,0,1,.25,2.77c0,.11,0,.21,0,.31s0,.25,0,.37a17,17,0,0,0,.76,5.11L101,116,97.75,113a16.87,16.87,0,0,0,.78-5.11c0-.12,0-.25,0-.37s0-.2,0-.31a19.12,19.12,0,0,1,.25-2.77,2.26,2.26,0,0,1,2.22-1.64Z" transform="translate(-1)"/><path class="cls-33" d="M101,103.75a1.13,1.13,0,0,1,1.12.84,17.22,17.22,0,0,1,.24,2.63c0,.09,0,.19,0,.28s0,.24,0,.36a15.72,15.72,0,0,0,.72,4.83l-2.12,2-2.12-2a15.72,15.72,0,0,0,.72-4.83c0-.12,0-.24,0-.36s0-.19,0-.28a17.22,17.22,0,0,1,.24-2.63A1.17,1.17,0,0,1,101,103.75Z" transform="translate(-1)"/><path class="cls-33" d="M115.8,114.84l-.83.67-1.25-2a4.62,4.62,0,0,0,2.29-3.91,3.27,3.27,0,0,0,0-.54c-.12-2.61-3.3-4.76-7.32-4.76a9.4,9.4,0,0,0-5.3,1.49c0-.4-.07-.75-.13-1.11a10.79,10.79,0,0,1,5.43-1.37c4.63,0,8.25,2.63,8.42,5.74a5.21,5.21,0,0,1,0,.55,5.52,5.52,0,0,1-2,4.19l.66,1.09" transform="translate(-1)"/><path class="cls-33" d="M115.75,114.86a5.76,5.76,0,0,0,2.56-4.54,6.12,6.12,0,0,0-3.35-5,5.31,5.31,0,0,1,2.11,3.74,5.21,5.21,0,0,1,0,.55,5.52,5.52,0,0,1-2,4.19l.61,1.11" transform="translate(-1)"/><path class="cls-33" d="M129.68,116.92a5.52,5.52,0,0,0,1.43-3.67,5.4,5.4,0,0,0-.55-2.37c-1.28-2.63-5.29-4.54-10-4.54a16.76,16.76,0,0,0-3.69.4,6.13,6.13,0,0,1,.65.89,15.6,15.6,0,0,1,3-.29c4.36,0,8,1.7,9.06,4a4.43,4.43,0,0,1,.44,1.92,4.54,4.54,0,0,1-1.67,3.49l1.57,2.58.86-.67Z" transform="translate(-1)"/><path class="cls-33" d="M128.07,108.28a6.62,6.62,0,0,1,2.49,2.6,5.4,5.4,0,0,1,.55,2.37,5.52,5.52,0,0,1-1.43,3.67l1,1.56a6.52,6.52,0,0,0,1.45-4c0-2.52-1.61-4.72-4-6.18Z" transform="translate(-1)"/><ellipse class="cls-41" cx="100.02" cy="100.37" rx="2.66" ry="2.52"/><path class="cls-6" d="M100.32,93.31v1.36H98.87v1.38h1.45v4H98.49c0,.12-.13.22-.13.35a2.3,2.3,0,0,0,.21,1s0,0,0,0h4.87s0,0,0,0a2.3,2.3,0,0,0,.21-1c0-.13-.11-.23-.13-.35h-1.77v-4h1.45V94.67h-1.45V93.31Z" transform="translate(-1)"/><ellipse class="cls-42" cx="100.01" cy="113.35" rx="1.15" ry="1.08"/><ellipse class="cls-42" cx="100.01" cy="111.23" rx="1.15" ry="1.08"/><ellipse class="cls-42" cx="100.01" cy="108.95" rx="0.91" ry="0.86"/><ellipse class="cls-42" cx="100.01" cy="106.9" rx="0.66" ry="0.62"/><ellipse class="cls-42" cx="100.01" cy="105.1" rx="0.53" ry="0.5"/><ellipse class="cls-42" cx="69.35" cy="119.19" rx="0.66" ry="0.62"/><ellipse class="cls-42" cx="68.45" cy="117.6" rx="0.66" ry="0.62"/><ellipse class="cls-42" cx="67.85" cy="115.75" rx="0.66" ry="0.62"/><ellipse class="cls-42" cx="67.77" cy="113.77" rx="0.66" ry="0.62"/><ellipse class="cls-42" cx="68.26" cy="111.83" rx="0.66" ry="0.62"/><ellipse class="cls-42" cx="69.27" cy="110.06" rx="0.66" ry="0.62"/><ellipse class="cls-42" cx="70.62" cy="108.6" rx="0.66" ry="0.62"/><ellipse class="cls-42" cx="72.2" cy="107.4" rx="0.66" ry="0.62"/><ellipse class="cls-42" cx="74.07" cy="106.41" rx="0.66" ry="0.62"/><ellipse class="cls-42" cx="76.01" cy="105.7" rx="0.66" ry="0.62"/><ellipse class="cls-42" cx="78.18" cy="105.31" rx="0.66" ry="0.62"/><ellipse class="cls-42" cx="80.25" cy="105.21" rx="0.66" ry="0.62"/><ellipse class="cls-42" cx="82.27" cy="105.28" rx="0.66" ry="0.62"/><ellipse class="cls-42" cx="84.51" cy="114.18" rx="0.66" ry="0.62"/><ellipse class="cls-42" cx="83.39" cy="112.58" rx="0.66" ry="0.62"/><ellipse class="cls-42" cx="82.8" cy="110.84" rx="0.66" ry="0.62"/><ellipse class="cls-42" cx="82.87" cy="108.93" rx="0.66" ry="0.62"/><ellipse class="cls-42" cx="83.28" cy="107.01" rx="0.66" ry="0.62"/><ellipse class="cls-42" cx="84.29" cy="105.28" rx="0.66" ry="0.62"/><ellipse class="cls-42" cx="85.83" cy="104.07" rx="0.66" ry="0.62"/><ellipse class="cls-42" cx="87.62" cy="103.08" rx="0.66" ry="0.62"/><ellipse class="cls-42" cx="89.61" cy="102.48" rx="0.66" ry="0.62"/><ellipse class="cls-42" cx="91.66" cy="102.13" rx="0.66" ry="0.62"/><ellipse class="cls-42" cx="93.69" cy="102.16" rx="0.66" ry="0.62"/><ellipse class="cls-42" cx="95.78" cy="102.51" rx="0.66" ry="0.62"/><ellipse class="cls-42" cx="97.72" cy="103.18" rx="0.66" ry="0.62"/><ellipse class="cls-42" cx="102.26" cy="103.18" rx="0.66" ry="0.62"/><ellipse class="cls-42" cx="104.21" cy="102.51" rx="0.66" ry="0.62"/><ellipse class="cls-42" cx="106.31" cy="102.16" rx="0.66" ry="0.62"/><ellipse class="cls-42" cx="108.32" cy="102.13" rx="0.66" ry="0.62"/><ellipse class="cls-42" cx="110.39" cy="102.48" rx="0.66" ry="0.62"/><ellipse class="cls-42" cx="112.37" cy="103.08" rx="0.66" ry="0.62"/><ellipse class="cls-42" cx="114.17" cy="104.07" rx="0.66" ry="0.62"/><ellipse class="cls-42" cx="115.7" cy="105.28" rx="0.66" ry="0.62"/><ellipse class="cls-42" cx="116.71" cy="107.01" rx="0.66" ry="0.62"/><ellipse class="cls-42" cx="117.13" cy="108.93" rx="0.66" ry="0.62"/><ellipse class="cls-42" cx="117.2" cy="110.84" rx="0.66" ry="0.62"/><ellipse class="cls-42" cx="116.6" cy="112.58" rx="0.66" ry="0.62"/><ellipse class="cls-42" cx="115.48" cy="114.18" rx="0.66" ry="0.62"/><ellipse class="cls-42" cx="117.73" cy="105.28" rx="0.66" ry="0.62"/><ellipse class="cls-42" cx="119.75" cy="105.21" rx="0.66" ry="0.62"/><ellipse class="cls-42" cx="121.81" cy="105.31" rx="0.66" ry="0.62"/><ellipse class="cls-42" cx="123.98" cy="105.7" rx="0.66" ry="0.62"/><ellipse class="cls-42" cx="125.93" cy="106.41" rx="0.66" ry="0.62"/><ellipse class="cls-42" cx="127.8" cy="107.4" rx="0.66" ry="0.62"/><ellipse class="cls-42" cx="129.36" cy="108.6" rx="0.66" ry="0.62"/><ellipse class="cls-42" cx="130.71" cy="110.06" rx="0.66" ry="0.62"/><ellipse class="cls-42" cx="131.73" cy="111.83" rx="0.66" ry="0.62"/><ellipse class="cls-42" cx="132.21" cy="113.77" rx="0.66" ry="0.62"/><ellipse class="cls-42" cx="132.14" cy="115.75" rx="0.66" ry="0.62"/><ellipse class="cls-42" cx="131.54" cy="117.6" rx="0.66" ry="0.62"/><ellipse class="cls-42" cx="130.64" cy="119.19" rx="0.66" ry="0.62"/><path class="cls-33" d="M101.07,135.69a68.44,68.44,0,0,1-18.65-2.29.72.72,0,0,1-.5-.75.7.7,0,0,1,.5-.71,68.44,68.44,0,0,1,18.65-2.29,68.41,68.41,0,0,1,18.66,2.29.72.72,0,0,1,.5.71.74.74,0,0,1-.5.75,68.41,68.41,0,0,1-18.66,2.29" transform="translate(-1)"/><path class="cls-33" d="M101,129.64A67.78,67.78,0,0,0,82.19,132c.39-.19.36-.67-.13-1.92-.59-1.52-1.5-1.45-1.5-1.45a75.84,75.84,0,0,1,20.5-2.51,76.31,76.31,0,0,1,20.56,2.51s-.92-.07-1.51,1.45c-.48,1.25-.52,1.73-.12,1.92a68.77,68.77,0,0,0-19-2.4" transform="translate(-1)"/><path class="cls-33" d="M101.06,126.17a75.84,75.84,0,0,0-20.5,2.51.64.64,0,0,1-.82-.36.63.63,0,0,1,.42-.81c5.22-1.61,12.64-2.61,20.9-2.63s15.71,1,20.93,2.63a.63.63,0,0,1,.42.81.64.64,0,0,1-.82.36,76.08,76.08,0,0,0-20.53-2.51" transform="translate(-1)"/><path class="cls-33" d="M101.1,119.86l.74.13a2.84,2.84,0,0,0-.14,1,2.87,2.87,0,0,0,3,2.79,2.93,2.93,0,0,0,2.8-1.93s.28-1,.41-1,.09,1.08.13,1.07a3,3,0,0,0,5.87-.44c0-.11,0-.22,0-.34l.92-.91.5,1.16a2.52,2.52,0,0,0-.28,1.22,2.74,2.74,0,0,0,2.82,2.67,2.86,2.86,0,0,0,2.34-1.19l.59-.75v.92a1.72,1.72,0,0,0,1.3,1.91,4,4,0,0,0,2.42-1,16.34,16.34,0,0,0,2.13-2l.12,1.08a9,9,0,0,1-2.39,2.49,4.27,4.27,0,0,1-2.53.67,2.48,2.48,0,0,1-1.81-1.64,4.14,4.14,0,0,1-2.13.58A4.07,4.07,0,0,1,114,124a4.15,4.15,0,0,1-3.12,1.35,4.36,4.36,0,0,1-3.34-1.54,4.38,4.38,0,0,1-6.49-.71,4.38,4.38,0,0,1-6.49.71,4.37,4.37,0,0,1-3.35,1.54A4.15,4.15,0,0,1,88.14,124a4.24,4.24,0,0,1-5.92,1.73,2.49,2.49,0,0,1-1.81,1.64,4.27,4.27,0,0,1-2.53-.67,9,9,0,0,1-2.39-2.49l.12-1.08a16.34,16.34,0,0,0,2.13,2,3.88,3.88,0,0,0,2.41,1,1.72,1.72,0,0,0,1.3-1.91v-.92l.6.75a2.85,2.85,0,0,0,2.34,1.19,2.74,2.74,0,0,0,2.81-2.67,2.63,2.63,0,0,0-.27-1.22l.49-1.16.93.91c0,.12,0,.23,0,.34a3,3,0,0,0,5.88.44s0-1.05.13-1.07.36,1,.4,1a3,3,0,0,0,2.81,1.93,2.86,2.86,0,0,0,2.94-2.79,2.43,2.43,0,0,0-.14-1l.77-.13" transform="translate(-1)"/><path class="cls-33" d="M76,123.78a1.43,1.43,0,0,0-.43-.64,1.09,1.09,0,0,0-1.42-.15,1,1,0,0,0-.1.15,4.86,4.86,0,0,0-1.45-1.66,4.63,4.63,0,0,0-2.09-.32,1.74,1.74,0,0,1,1.79-1.73,1.89,1.89,0,0,1,1.49.67l.14-.65a1.79,1.79,0,0,1,1.19,1.1,4.16,4.16,0,0,1,0,2.28,4.26,4.26,0,0,1,.51-1,5.32,5.32,0,0,1,1.5-1,6.14,6.14,0,0,0,.82-.47,3,3,0,0,1,0,.37,2.43,2.43,0,0,1,0,.49,5,5,0,0,1,2.3.29,3,3,0,0,1-1.57,1.38s.26.22.5.45a2.71,2.71,0,0,1,.26.3l-.76.11a9.7,9.7,0,0,1-1.62.13,8.15,8.15,0,0,1-1-.13" transform="translate(-1)"/><path class="cls-35" d="M74.16,123a1.09,1.09,0,0,1,1.42.15c.48.41.61,1,.3,1.32a1.08,1.08,0,0,1-1.41-.15c-.48-.41-.61-1-.31-1.32" transform="translate(-1)"/><path class="cls-42" d="M80.82,123.53c-.17-.49,0-1,.34-1.09s.79.19,1,.69,0,1-.34,1.11-.79-.21-1-.71" transform="translate(-1)"/><path class="cls-33" d="M86.66,121.1a1.05,1.05,0,0,1-.27-1.38,6,6,0,0,0-1.09-.42,7.38,7.38,0,0,0-1.43-.12h-.69l.17.33a4.76,4.76,0,0,0,.3.45,3.13,3.13,0,0,0-1.82,1.25,3.3,3.3,0,0,0,2.16.58,3.65,3.65,0,0,0-.12.52c0,.26,0,.36,0,.36l.64-.23a7.38,7.38,0,0,0,1.29-.58,6.05,6.05,0,0,0,.89-.75" transform="translate(-1)"/><path class="cls-33" d="M86.39,115a3.16,3.16,0,0,1,1.38,1.82,1.19,1.19,0,0,1,.43-.36,1.35,1.35,0,0,1,.65-.19s-.1.58-.15.79,0,.83-.19,1.39a5,5,0,0,1-.38,1,1.19,1.19,0,0,0-.94-.24,1.13,1.13,0,0,0-.8.54,5.22,5.22,0,0,1-.72-.83c-.33-.49-.56-1.07-.68-1.25s-.43-.69-.43-.69a1.31,1.31,0,0,1,.68,0,1.12,1.12,0,0,1,.53.19,3.08,3.08,0,0,1,.62-2.15" transform="translate(-1)"/><path class="cls-33" d="M88.37,120.82a1.05,1.05,0,0,0,.14-.74,1,1,0,0,0-.39-.64,6.08,6.08,0,0,1,.88-.76,6.92,6.92,0,0,1,1.29-.57l.64-.24a2.81,2.81,0,0,1,0,.37,2.51,2.51,0,0,1-.12.52,3.21,3.21,0,0,1,2.17.59,3.12,3.12,0,0,1-1.82,1.24s.13.17.3.45.16.33.16.33h-.69a7.28,7.28,0,0,1-1.42-.12,6.31,6.31,0,0,1-1.1-.42" transform="translate(-1)"/><ellipse class="cls-35" cx="86.41" cy="120.26" rx="1.3" ry="1.24"/><path class="cls-42" d="M93.64,121.05c-.06-.52.19-1,.56-1s.74.34.8.86-.18,1-.55,1-.74-.34-.81-.86" transform="translate(-1)"/><path class="cls-33" d="M100.09,119.89a1.19,1.19,0,0,1-.32-.8,1.17,1.17,0,0,1,.3-.79,6.42,6.42,0,0,0-1.13-.68,8.32,8.32,0,0,0-1.56-.4l-.77-.14s0,.12.12.4A4.21,4.21,0,0,0,97,118a3.6,3.6,0,0,0-2.28,1,3.6,3.6,0,0,0,2.28,1,4.21,4.21,0,0,0-.24.56c-.09.28-.12.4-.12.4l.77-.14a8.32,8.32,0,0,0,1.56-.4,8.48,8.48,0,0,0,1.15-.67" transform="translate(-1)"/><path class="cls-33" d="M101.05,113a3.54,3.54,0,0,1,1.17,2.3,1.08,1.08,0,0,1,.55-.32,1.57,1.57,0,0,1,.76-.1s-.23.63-.33.85-.23.92-.5,1.52a5.17,5.17,0,0,1-.63,1.06,1.34,1.34,0,0,0-1-.45,1.33,1.33,0,0,0-1,.45,5.17,5.17,0,0,1-.63-1.06c-.27-.6-.4-1.29-.51-1.52s-.33-.85-.33-.85a1.61,1.61,0,0,1,.77.1,1.15,1.15,0,0,1,.55.32,3.54,3.54,0,0,1,1.13-2.3" transform="translate(-1)"/><path class="cls-33" d="M102,119.89a1.16,1.16,0,0,0,0-1.59,6.74,6.74,0,0,1,1.14-.68,8.13,8.13,0,0,1,1.56-.4l.76-.14a1.67,1.67,0,0,1-.12.4,4.21,4.21,0,0,1-.24.56,3.6,3.6,0,0,1,2.29,1,3.6,3.6,0,0,1-2.29,1,4.21,4.21,0,0,1,.24.56,2.72,2.72,0,0,1,.12.4l-.76-.14a8.13,8.13,0,0,1-1.56-.4,8.48,8.48,0,0,1-1.15-.67" transform="translate(-1)"/><ellipse class="cls-35" cx="100.07" cy="119.09" rx="1.3" ry="1.24"/><path class="cls-42" d="M108.53,121.05c.07-.52-.18-1-.56-1s-.73.34-.8.86.19,1,.56,1,.74-.34.8-.86" transform="translate(-1)"/><path class="cls-33" d="M113.81,120.82a1.11,1.11,0,0,1-.15-.74,1.07,1.07,0,0,1,.4-.64,6.08,6.08,0,0,0-.88-.76,6.92,6.92,0,0,0-1.29-.57l-.64-.24a1.53,1.53,0,0,0,0,.37,3,3,0,0,0,.11.52,3.2,3.2,0,0,0-2.16.59,3.12,3.12,0,0,0,1.82,1.24,3.53,3.53,0,0,0-.3.45,1.92,1.92,0,0,0-.16.33h.68a7.17,7.17,0,0,0,1.42-.12,6.61,6.61,0,0,0,1.11-.42" transform="translate(-1)"/><path class="cls-33" d="M115.79,115a3.22,3.22,0,0,0-1.39,1.82,1.07,1.07,0,0,0-.43-.36,1.32,1.32,0,0,0-.65-.19s.1.58.16.79,0,.83.18,1.39a4.65,4.65,0,0,0,.39,1,1.19,1.19,0,0,1,.94-.24,1.15,1.15,0,0,1,.8.54,5.22,5.22,0,0,0,.72-.83c.33-.49.55-1.07.67-1.25s.44-.69.44-.69a1.36,1.36,0,0,0-.69,0,1.12,1.12,0,0,0-.53.19,3,3,0,0,0-.61-2.15" transform="translate(-1)"/><path class="cls-33" d="M115.52,121.1a1.05,1.05,0,0,0,.27-1.38,6,6,0,0,1,1.09-.42,7.34,7.34,0,0,1,1.42-.12H119a3.21,3.21,0,0,1-.17.33,3.86,3.86,0,0,1-.29.45,3.19,3.19,0,0,1,1.82,1.25,3.32,3.32,0,0,1-2.16.58,5,5,0,0,1,.11.52,2.79,2.79,0,0,1,0,.36l-.64-.23a7.11,7.11,0,0,1-1.3-.58,6.31,6.31,0,0,1-.88-.75" transform="translate(-1)"/><ellipse class="cls-35" cx="113.77" cy="120.26" rx="1.3" ry="1.24"/><path class="cls-42" d="M121.36,123.53c.17-.49,0-1-.34-1.09s-.79.19-1,.69,0,1,.34,1.11.79-.21,1-.71" transform="translate(-1)"/><path class="cls-33" d="M126.16,123.78a1.45,1.45,0,0,1,.44-.64A1.08,1.08,0,0,1,128,123a1.12,1.12,0,0,1,.11.15,4.79,4.79,0,0,1,1.44-1.66,4.68,4.68,0,0,1,2.1-.32,1.75,1.75,0,0,0-1.8-1.73,1.89,1.89,0,0,0-1.48.67l-.14-.65a1.79,1.79,0,0,0-1.19,1.1,4.2,4.2,0,0,0,0,2.28,4,4,0,0,0-.5-1,5.32,5.32,0,0,0-1.5-1,6.14,6.14,0,0,1-.82-.47,3,3,0,0,0,0,.37,2.43,2.43,0,0,0,0,.49,5,5,0,0,0-2.3.29,2.91,2.91,0,0,0,1.57,1.38s-.26.22-.5.45a2.71,2.71,0,0,0-.26.3l.76.11a9.66,9.66,0,0,0,1.61.13,7.92,7.92,0,0,0,1-.13" transform="translate(-1)"/><path class="cls-35" d="M128,123a1.08,1.08,0,0,0-1.41.15c-.48.41-.62,1-.31,1.32a1.09,1.09,0,0,0,1.42-.15c.47-.41.61-1,.3-1.32" transform="translate(-1)"/><path class="cls-36" d="M101.06,134.73a71.37,71.37,0,0,1-17.21-2,71.6,71.6,0,0,1,17.21-1.91,71.87,71.87,0,0,1,17.24,1.91,71.64,71.64,0,0,1-17.24,2Z" transform="translate(-1)"/><path class="cls-18" d="M105.81,134.55V131M104,134.67l0-3.82m-1.34,3.87v-3.89" transform="translate(-1)"/><path class="cls-22" d="M101.55,134.77v-3.94" transform="translate(-1)"/><path class="cls-27" d="M100.48,134.77v-3.94" transform="translate(-1)"/><path class="cls-29" d="M99.47,134.77v-3.94" transform="translate(-1)"/><path class="cls-43" d="M98.47,134.77v-3.94" transform="translate(-1)"/><path class="cls-44" d="M97.58,134.77v-3.94" transform="translate(-1)"/><path class="cls-45" d="M95.87,134.55l0-3.58m.83,3.63v-3.75" transform="translate(-1)"/><path class="cls-46" d="M94.3,134.39v-3.3m.8,3.4,0-3.52" transform="translate(-1)"/><path class="cls-47" d="M92.2,134.21V131.3m.69,2.95v-3m.71,3.14v-3.17" transform="translate(-1)"/><path class="cls-48" d="M91.46,134.18v-2.81" transform="translate(-1)"/><path class="cls-49" d="M90.77,134v-2.62" transform="translate(-1)"/><path class="cls-50" d="M90,134v-2.43" transform="translate(-1)"/><path class="cls-51" d="M88.52,133.76l0-1.94m.8,2v-2.17" transform="translate(-1)"/><path class="cls-52" d="M87.74,133.59v-1.7" transform="translate(-1)"/><path class="cls-53" d="M87,133.46V132" transform="translate(-1)"/><path class="cls-54" d="M86.26,133.26v-1.11" transform="translate(-1)"/><path class="cls-55" d="M85.46,133.17v-.82" transform="translate(-1)"/><path class="cls-56" d="M84.62,133v-.4" transform="translate(-1)"/><path class="cls-34" d="M83.06,133a69.48,69.48,0,0,1,18-2.12,69.73,69.73,0,0,1,18,2.12" transform="translate(-1)"/><path class="cls-35" d="M81,130.28l.73-.95,2,.26-1.61,1.17L81,130.28" transform="translate(-1)"/><path class="cls-42" d="M85.4,129.16a.66.66,0,0,1,1.32,0,.66.66,0,0,1-1.32,0" transform="translate(-1)"/><path class="cls-57" d="M91.17,129l-1.42.16a.66.66,0,0,1-.74-.54.62.62,0,0,1,.58-.69l1.42-.17,1.45-.16a.62.62,0,1,1,.16,1.23l-1.45.17" transform="translate(-1)"/><path class="cls-42" d="M95.31,128a.66.66,0,1,1,.66.62.64.64,0,0,1-.66-.62" transform="translate(-1)"/><path class="cls-35" d="M101.07,128.48h-2a.62.62,0,1,1,0-1.24h4a.62.62,0,1,1,0,1.24h-2" transform="translate(-1)"/><path class="cls-42" d="M105.52,128a.66.66,0,0,1,1.32,0,.66.66,0,0,1-1.32,0" transform="translate(-1)"/><path class="cls-57" d="M111,129l1.42.16a.66.66,0,0,0,.74-.54.64.64,0,0,0-.58-.69l-1.42-.17-1.45-.16a.63.63,0,0,0-.73.54.62.62,0,0,0,.57.69L111,129" transform="translate(-1)"/><path class="cls-42" d="M115.43,129.16a.66.66,0,1,1,.66.62.64.64,0,0,1-.66-.62" transform="translate(-1)"/><path class="cls-35" d="M121.12,130.28l-.72-.95-2,.26,1.61,1.17,1.13-.48" transform="translate(-1)"/></g><g id="shield"><g id="Granada"><path class="cls-58" d="M101.28,206.58a51.06,51.06,0,0,1-22.17-5.13,14.17,14.17,0,0,1-8-12.71v-20h60.24v20a14.17,14.17,0,0,1-8,12.71,50.53,50.53,0,0,1-22,5.13Z" transform="translate(-1)"/><path class="cls-59" d="M102.73,197.71a2.45,2.45,0,0,1,1.89,2.41c0,1.42-1.38,2.5-3.18,2.5s-3.25-1.08-3.25-2.5a2.19,2.19,0,0,1,1.85-2.37,2.13,2.13,0,0,0-.15-.3l-.38-.39a1.82,1.82,0,0,1,.75,0,1.57,1.57,0,0,1,.46.28,2.39,2.39,0,0,1,.31-.46,1.72,1.72,0,0,1,.42-.31,1.87,1.87,0,0,1,.37.38,2.14,2.14,0,0,1,.15.35,2,2,0,0,1,.47-.29,4.24,4.24,0,0,1,.51-.16s-.08.28-.14.42a2.54,2.54,0,0,0-.08.43" transform="translate(-1)"/><path class="cls-60" d="M101.18,204.17a16.18,16.18,0,0,0-3.42-1.82,16.87,16.87,0,0,0-3.46-.09,13.34,13.34,0,0,1,1.11.89,6.19,6.19,0,0,0,2,1.14,7.24,7.24,0,0,0,3.72-.12" transform="translate(-1)"/><path class="cls-60" d="M101.86,204.32A6.52,6.52,0,0,1,105,202.5a8.75,8.75,0,0,1,3.86.35s-.61.3-.94.52a4.13,4.13,0,0,1-2.48,1c-1.31,0-2.75-.14-3-.1l-.59.09" transform="translate(-1)"/><path class="cls-61" d="M101.4,202.35a3,3,0,0,1,0-4.46,3,3,0,0,1,0,4.46" transform="translate(-1)"/><path class="cls-60" d="M100.79,205.61a6.1,6.1,0,0,0,.4-1.7,5.7,5.7,0,0,0-.09-1.3h.48a4.68,4.68,0,0,1,.24,1.3,12.89,12.89,0,0,1-.11,1.42,2.68,2.68,0,0,0-.44.1,4.83,4.83,0,0,1-.48.18" transform="translate(-1)"/></g><g id="Aragon"><path class="cls-61" d="M101.18,188.72c0,7.9-6.7,14.29-15,14.29s-15.09-6.39-15.09-14.29v-20h30.12v20" transform="translate(-1)"/><path class="cls-62" d="M71,188.45a15.3,15.3,0,0,0,3.43,9.4V168.18H71.05l0,20.27Z" transform="translate(-1)"/><path class="cls-62" d="M77.64,200.52a15.56,15.56,0,0,0,3.61,1.66L81.16,168H77.64Z" transform="translate(-1)"/><path class="cls-62" d="M84.35,202.93a16.61,16.61,0,0,0,3.53,0V168H84.35Z" transform="translate(-1)"/><path class="cls-62" d="M91,202.18a11.87,11.87,0,0,0,3.62-1.58V168H91.07L91,202.18Z" transform="translate(-1)"/><path class="cls-62" d="M97.87,197.52c1.47-1.3,2.85-4.27,3.35-7.65l.09-21.86H97.79Z" transform="translate(-1)"/></g><g id="Navarre"><path class="cls-61" d="M131.37,168.72v20c0,7.9-6.77,14.29-15.1,14.29s-15.09-6.39-15.09-14.29v-20h30.19" transform="translate(-1)"/><path id="chains_half" data-name="chains half" class="cls-63" d="M114.61,183.67a1.33,1.33,0,0,1,.11-.24l-2.55-2.85-1,.43-1.84-2,.6-.88-3.2-3.59-.17,0,0,2.42,1,.3v2.67l-1,.29,0,2.45a1.57,1.57,0,0,1,1,1h1.92l.31-1h2.83l.3,1Zm-4.19-11.1v1h1.66v-1ZM106,184.79a.67.67,0,1,0-.7-.66A.68.68,0,0,0,106,184.79Zm9.6-5.84-1.06-.29V176l1.06-.3v-1.16a1.58,1.58,0,0,1-1.07-1H113l-.31,1h-2.82l-.31-1h-1.85a2.53,2.53,0,0,1-.18.37l3.23,3.57,1-.42,1.84,2-.6.87,2.51,2.78.16-.07Zm-4.35-.83-.78.62,1.06,1.19.78-.63Zm4.8,21.71a1.62,1.62,0,0,1-1.51-1.21,11.14,11.14,0,0,1-2.84-.78l.51-.86a9.57,9.57,0,0,0,2.44.66,1.65,1.65,0,0,1,1-.84v-3.37l-1.06-.29v-2.68l1.06-.28v-4.59l-.12-.05-2.39,2.65.6.86-1.84,2-1-.42-2,2.2a1.47,1.47,0,0,1-.06,1.71,9.07,9.07,0,0,0,1.94,1.65l-.5.86a10.33,10.33,0,0,1-2.28-1.93,1.68,1.68,0,0,1-1.56-.3,1.48,1.48,0,0,1-.18-2.18l.09-.1a9.51,9.51,0,0,1-.8-3h1a8.46,8.46,0,0,0,.65,2.56,1.87,1.87,0,0,1,.88.09l2-2.2-.6-.87,1.84-2,1,.43,2.39-2.66a1.11,1.11,0,0,1-.12-.27H113l-.3,1h-2.83l-.31-1h-1.94a1.62,1.62,0,0,1-1,1V188h-1v-2.41a1.57,1.57,0,0,1-1.14-1.48,1.59,1.59,0,0,1,1.15-1.49v-2.43l-1.06-.29v-2.67l1.06-.3v-2.43a1.57,1.57,0,0,1-1.11-1.47,1.59,1.59,0,0,1,1.64-1.55,1.64,1.64,0,0,1,1.57,1.07h1.85l.31-1h2.82l.31,1h1.61a1.61,1.61,0,0,1,1.53-1.07l0,5h-.51v1.57h.51V191h-.47v1.56h.47Zm-3.55-11-.77-.62-1.07,1.19.77.62Zm-6-11.06h-1v1.57h1Zm5.5,6.85v-1h-1.71v1Zm-6.36,5.81-1.06-.23-.15-2.67,1.05-.35v1.53a9.65,9.65,0,0,0,.16,1.72Zm.88-3.31,1,.24s.05,1.73,0,1.34.11,1.34.11,1.34l-1.06.35a9.29,9.29,0,0,1-.14-1.68Zm6.48,10.15.24-1a8.31,8.31,0,0,1-2.51-1.25l-.75.67a9.94,9.94,0,0,0,3,1.6Zm-.51.87-.78.73a11.53,11.53,0,0,1-2.47-1.27l.23-1.06a10.92,10.92,0,0,0,3,1.6Z" transform="translate(-1)"/><path id="chains_half-2" data-name="chains half" class="cls-63" d="M117.62,183.67a1.34,1.34,0,0,0-.12-.24l2.56-2.85,1,.43,1.83-2-.6-.88,3.21-3.59.16,0,0,2.42-1,.3v2.67l1,.29,0,2.45a1.55,1.55,0,0,0-1,1h-1.93l-.31-1h-2.83l-.3,1Zm4.18-11.1v1h-1.65v-1Zm4.38,12.22a.67.67,0,1,1,.7-.66A.68.68,0,0,1,126.18,184.79ZM116.59,179l1.06-.29V176l-1.06-.3v-1.16a1.6,1.6,0,0,0,1.07-1h1.61l.3,1h2.83l.3-1h1.86a2.48,2.48,0,0,0,.17.37l-3.23,3.57-1-.42-1.83,2,.6.87-2.51,2.78-.17-.07Zm4.35-.83.77.62-1.06,1.19-.77-.63Zm-4.8,21.71a1.63,1.63,0,0,0,1.51-1.21,11,11,0,0,0,2.83-.78L120,197a9.64,9.64,0,0,1-2.45.66,1.59,1.59,0,0,0-1-.84v-3.37l1-.29v-2.68l-1-.28v-4.59l.12-.05,2.39,2.65-.6.86,1.83,2,1-.42,2,2.2a1.46,1.46,0,0,0,.07,1.71,9.37,9.37,0,0,1-2,1.65l.51.86a10.27,10.27,0,0,0,2.27-1.93,1.67,1.67,0,0,0,1.56-.3,1.48,1.48,0,0,0,.18-2.18l-.08-.1a9.77,9.77,0,0,0,.79-3h-1a8.18,8.18,0,0,1-.65,2.56,1.89,1.89,0,0,0-.88.09l-2-2.2.6-.87-1.83-2-1,.43-2.4-2.66a1.13,1.13,0,0,0,.13-.27h1.65l.3,1h2.83l.31-1h1.94a1.64,1.64,0,0,0,1,1V188h1v-2.41a1.58,1.58,0,0,0,1.15-1.48,1.6,1.6,0,0,0-1.16-1.49v-2.43l1-.29v-2.67l-1-.3v-2.43a1.56,1.56,0,0,0,1.1-1.47,1.59,1.59,0,0,0-1.64-1.55,1.62,1.62,0,0,0-1.56,1.07h-1.86l-.3-1h-2.83l-.3,1h-1.61a1.63,1.63,0,0,0-1.54-1.07l0,5h.51v1.57h-.51l0,12.95h.47v1.56h-.47Zm3.54-11,.78-.62,1.07,1.19-.78.62Zm6-11.06h1v1.57h-1Zm-5.5,6.85v-1h1.71v1Zm6.36,5.81,1.06-.23.15-2.67-1-.35v1.53a8.8,8.8,0,0,1-.16,1.72Zm-.87-3.31-1.05.24s-.06,1.73,0,1.34-.12,1.34-.12,1.34l1.06.35a8.47,8.47,0,0,0,.14-1.68Zm-6.49,10.15-.23-1a8.26,8.26,0,0,0,2.5-1.25l.76.67a10,10,0,0,1-3,1.6Zm.51.87.78.73a11.3,11.3,0,0,0,2.47-1.27l-.22-1.06a11,11,0,0,1-3,1.6Z" transform="translate(-1)"/><path class="cls-64" d="M114.54,184.15a1.64,1.64,0,1,1,1.64,1.54,1.6,1.6,0,0,1-1.64-1.54" transform="translate(-1)"/></g><g id="Castile"><path class="cls-61" d="M71.06,168.73h30.1V135.3H71.06Z" transform="translate(-1)"/><path class="cls-65" d="M81.39,143h-.55v-.55h-1v2.21h1v1.53H78.76v4.44h1.11v8.87H77.65v4.58h17v-4.58H92.48v-8.87h1.11v-4.44H91.51v-1.53h1v-2.21h-1V143H91v-.55H90V143h-.7v-.55h-1v2.21h1v1.53H87.22v-4.85h1.1v-2.22h-1.1v.56h-.56v-.56h-1v.56h-.56v-.56H84v2.22h1.11v4.85H83.05v-1.53h1v-2.21h-1V143H82.5v-.55H81.39V143Zm-3.74,21.08h17m-17-1.11h17m-17-1.11h17m-17-1.11h17m-17-1.25h17m-14.83-1H92.48m-12.61-1.11H92.48M79.87,156.2H92.48m-12.61-1.1H92.48M79.87,154H92.48m-12.61-1.11H92.48m-12.61-1.11H92.48m-13.72-1.11H93.59m-14.83-1.11H93.59m-14.83-1.11H93.59m-14.83-1.11H93.59m-12.75-1.11H91.51m-6.38-1.11h2.09M85.13,144h2.09m-2.09-1.11h2.09m-2.09-1.11h2.09M84,140.4h4.3m-7.48,4.71h2.21m-3.18-1.38H84m-4.15,20.38V163m0-1.11v-1.11m-1.11,1.11V163m2.08,0v-1.11m1.1,2.22V163m0-1.11v-1.11m0-1.25v-1m0-1.11V156.2m-1.1,4.58v-1.25m-2.08,1.25v-1.25m4.29,0v1.25m1-1.25v-1m-3.18-1.11v1.11m2.21-1.11v1.11m2.08-1.11v1.11M84,157.45V156.2m1.11-1.1v1.1m0-3.32V154M84,151.77v1.11m1.11-2.22v1.11m-2.08-1.11v1.11m-2.21-1.11v1.11m-1-2.22v1.11m2.07-1.11v1.11M84,149.55v1.11m1.11-2.22v1.11m-2.08-1.11v1.11m-2.21-1.11v1.11m-1-2.22v1.11M84,147.33v1.11m-2.08-3.33v1.11m9.57-1.11H89.29m3.19-1.38H88.32m4.16,20.38V163m0-1.11v-1.11m1.11,1.11V163m-2.08,0v-1.11m-1.11,2.22V163m0-1.11v-1.11m0-1.25v-1m0-1.11V156.2m1.11,4.58v-1.25m2.08,1.25v-1.25m-4.3,0v1.25m-1-1.25v-1m3.19-1.11v1.11m-2.22-1.11v1.11m-2.07-1.11v1.11m1.1-1.11V156.2m-1.1-1.1v1.1m0-3.32V154m1.1-2.22v1.11m-1.1-2.22v1.11m2.07-1.11v1.11m2.22-1.11v1.11m1-2.22v1.11m-2.08-1.11v1.11m-2.08-1.11v1.11m-1.1-2.22v1.11m2.07-1.11v1.11m2.22-1.11v1.11m1-2.22v1.11m-4.16-1.11v1.11m2.08-3.33v1.11m-4.29,11.23V156.2m0-3.32v-1.11m0,3.33V154m0-3.33v-1.11m0-1.11v-1.11m0-2.22V144m0-1.11v-1.11m-5.27,2.91h2.21m2.08-3.32h2.09m2.07,3.32h2.22" transform="translate(-1)"/><path class="cls-65" d="M89,164.11v-2.92c0-.55-.28-2.22-2.91-2.22s-2.78,1.67-2.78,2.22v2.92Z" transform="translate(-1)"/><path class="cls-65" d="M84.3,161.33l-1.39-.14a2.2,2.2,0,0,1,.56-1.66l1.25,1A1.56,1.56,0,0,0,84.3,161.33Z" transform="translate(-1)"/><path class="cls-65" d="M86.66,159.94l.69-1.24a3.24,3.24,0,0,0-1.24-.28,3.19,3.19,0,0,0-1.11.28l.69,1.24Z" transform="translate(-1)"/><path class="cls-65" d="M88,161.33l1.39-.14a2.23,2.23,0,0,0-.55-1.66l-1.25,1A1.55,1.55,0,0,1,88,161.33Z" transform="translate(-1)"/><path class="cls-65" d="M84,156.48v-3a1.52,1.52,0,1,0-3,0v3Z" transform="translate(-1)"/><path class="cls-65" d="M88.32,156.48v-3a1.53,1.53,0,1,1,3.05,0v3Z" transform="translate(-1)"/><path class="cls-65" d="M83.05,149l.14-2.78H80.56l.28,2.78Z" transform="translate(-1)"/><path class="cls-65" d="M87.22,149l.27-2.78H84.86L85,149Z" transform="translate(-1)"/><path class="cls-65" d="M89.29,149,89,146.22h2.77L91.51,149Z" transform="translate(-1)"/><path class="cls-66" d="M88,164.11v-2.5a1.72,1.72,0,0,0-1.93-1.67,1.69,1.69,0,0,0-1.81,1.67v2.5Z" transform="translate(-1)"/><path class="cls-66" d="M83.75,156.2v-2.63a1.26,1.26,0,1,0-2.5,0v2.63Z" transform="translate(-1)"/><path class="cls-66" d="M88.6,156.2v-2.63a1.26,1.26,0,1,1,2.5,0v2.63Z" transform="translate(-1)"/></g><g id="Leon"><path class="cls-58" d="M101.15,168.73h30.19V135.3H101.15Z" transform="translate(-1)"/><path class="cls-67" d="M116.54,143.54l0-.37.06-.2a5.92,5.92,0,0,1-1.48-.07,3.57,3.57,0,0,1-1.44-.75c-.47-.41-.66-.66-1-.71a2.33,2.33,0,0,0-1.44.24,2.72,2.72,0,0,1,1.07.79,3,3,0,0,0,1.17.92,13.85,13.85,0,0,0,1.93,0c.34,0,1.1.11,1.1.11Z" transform="translate(-1)"/><path class="cls-68" d="M121.06,142.19a8,8,0,0,0,0,.84c0,.4-.14.74-.07,1a4.12,4.12,0,0,0,.18.56,2.51,2.51,0,0,1,.13.56l-.45-.32-.36-.26s0,.43.06.61a1.69,1.69,0,0,0,.31.75,3.84,3.84,0,0,1,.63.8,2.79,2.79,0,0,1,.08.86s-.27-.45-.52-.53-.75-.38-.75-.38a1.68,1.68,0,0,1,.47.93,3.26,3.26,0,0,1-.19,1,3.28,3.28,0,0,0-.5-.67,6,6,0,0,0-.68-.54,3.76,3.76,0,0,1,.31,1.17c0,.48-.09,1.48-.09,1.48a2.58,2.58,0,0,0-.47-.57,5.35,5.35,0,0,1-.61-.47,2,2,0,0,1,.32.7,6.36,6.36,0,0,0,1.15,2.81c.57.82,1.44,2.26,3.3,1.79s1.18-3,.78-4.15a10.27,10.27,0,0,1-.56-2.93c0-.45.35-1.78.3-2a5.1,5.1,0,0,1,.09-2,10.72,10.72,0,0,1,.57-1.44,3.77,3.77,0,0,0,.27-.8,6.48,6.48,0,0,0,0-.82s.34.63.43.86a3.94,3.94,0,0,1,.09.9,1.43,1.43,0,0,1,.59-1,8.16,8.16,0,0,0,1.27-.87,1.34,1.34,0,0,0,.2-.3,4.08,4.08,0,0,1-.37,1.6c-.22.29-1.06,1.25-1.06,1.25a3.45,3.45,0,0,1,.74-.18,3.67,3.67,0,0,1,.52,0,4.76,4.76,0,0,0-.85,1c-.48.69-.28.75-.63,1.33s-.63.6-1.07,1c-.64.52-.3,2.6-.21,2.91a26.71,26.71,0,0,1,1.24,3.48,3.3,3.3,0,0,1-1,2.88c-.7.57-1.84.57-2.11.73a2,2,0,0,0-.77,1.75,1.52,1.52,0,0,0,.69,1.51c.31.26.7.12.78.33a1.3,1.3,0,0,0,.26.45.5.5,0,0,1,.18.49c0,.23-.55.74-.72,1.11a8.35,8.35,0,0,0-.52,1.48,1.66,1.66,0,0,0,.1.82s.55.64.18.76-.47-.15-.58-.12c-.33.08-.5.28-.59.27s-.22-.15-.24-.46,0-.43-.1-.43-.2.11-.22.27,0,.53-.18.53-.36-.27-.5-.33-.49-.12-.52-.28a.73.73,0,0,1,.46-.58c.24-.06.45-.18.3-.31a.33.33,0,0,0-.45,0c-.15.13-.48,0-.46-.16a1.61,1.61,0,0,0,0-.51c0-.11-.28-.31.06-.5s.51.17.86.11a.85.85,0,0,0,.64-.39.83.83,0,0,0-.13-.9c-.23-.27-.47-.32-.56-.48a5.27,5.27,0,0,1-.22-.56,5.19,5.19,0,0,1,0,.83,2.09,2.09,0,0,0,0,.53s-.23-.27-.43-.47a3.24,3.24,0,0,1-.39-.83s0,.58,0,.81.26.43.18.51-.5-.43-.62-.51a2.52,2.52,0,0,1-.6-.64,4.8,4.8,0,0,1-.31-.84,2.75,2.75,0,0,1,0-.95c.11-.24.28-.68.28-.68h-.84c-.46,0-.78-.14-1,.17a2.78,2.78,0,0,0,.13,1.73,3.89,3.89,0,0,1,.29,1.33,2,2,0,0,1-.46.53.81.81,0,0,1-.55,0,1.55,1.55,0,0,0-.75-.16,4.53,4.53,0,0,1-.82,0c-.16,0-.53-.22-.71-.18s-.47.19-.39.43-.12.45-.3.43a3.61,3.61,0,0,1-.54-.14c-.22-.07-.54,0-.5-.25s.13-.27.24-.45.15-.31,0-.32a.6.6,0,0,0-.42.06c-.12.1-.3.31-.45.23s-.28-.26-.28-.65-.41-.72,0-.7.85.29.93.08,0-.31-.17-.47-.45-.26-.18-.46.33-.21.44-.32.25-.48.44-.39c.37.18,0,.44.39.85a1.18,1.18,0,0,0,1.24.5c.62-.06.79-.14.79-.32a5.51,5.51,0,0,0-.07-.63,4.16,4.16,0,0,1,.09-.59,1.31,1.31,0,0,0-.38.35,4.31,4.31,0,0,1-.25.48,3.92,3.92,0,0,1,0-.65c0-.17.08-.47.07-.53a5.18,5.18,0,0,0-.14-.57,2.89,2.89,0,0,1-.17.57,3.2,3.2,0,0,0-.09.64,1,1,0,0,1-.29-.93c.08-.45-.07-1,.07-1.24s.45-1,1.23-1,1.39,0,1.66,0,1.24-.2,1.24-.2-1.78-.91-2.18-1.19a6.29,6.29,0,0,1-1.25-1.29,5.45,5.45,0,0,1-.39-.95,1.55,1.55,0,0,0-.61.17,2.85,2.85,0,0,0-.74.6,6.31,6.31,0,0,0-.44.62s0-.56,0-.73,0-.52,0-.52a2.27,2.27,0,0,1-.6,1.06c-.41.29-.89.69-.89.69s0-.43,0-.53.1-.59.1-.59a1.25,1.25,0,0,1-.72.51c-.45.08-1.09.07-1.14.34s.12.64,0,.83a1.05,1.05,0,0,1-.33.32,1,1,0,0,0-.47-.22.88.88,0,0,0-.43.09s-.18-.24-.11-.4.4-.4.32-.5-.36,0-.53.12-.52.16-.49-.12.12-.43,0-.62,0-.32.11-.37.67,0,.73-.11-.14-.29-.5-.37-.52-.29-.34-.46a1.37,1.37,0,0,0,.33-.39c.08-.16.12-.45.44-.3s.25.49.59.6a2.58,2.58,0,0,0,1.31-.14c.16-.1.71-.5.9-.6s1-.67,1-.67-.45-.32-.63-.48a7.46,7.46,0,0,0-.62-.63,5.54,5.54,0,0,0-1.15-.38,6.27,6.27,0,0,1-1-.29,2,2,0,0,0,.48-.21c.11-.1.38-.34.52-.32h.17s-.73,0-.88-.07a4.36,4.36,0,0,0-.77-.33,3.62,3.62,0,0,0-.5.07,3,3,0,0,1,.83-.36,3.2,3.2,0,0,1,.66,0,2.06,2.06,0,0,1-.72-.35c-.13-.2-.27-.48-.37-.61s-.17-.34-.35-.36-.51.23-.7.21-.32-.13-.34-.4,0-.18-.06-.32-.34-.48-.09-.56.8.05.85,0-.29-.39-.51-.5-.57-.3-.39-.47a3,3,0,0,0,.48-.36c.1-.15.22-.55.44-.42s.52.75.7.71.18-.5.15-.69,0-.53.16-.5.31.26.58.27.68-.06.64.13a1.43,1.43,0,0,1-.37.64,1,1,0,0,0-.15.9,2.38,2.38,0,0,0,.7.88c.27.18.78.31,1.1.51a9.58,9.58,0,0,0,1.32.87,3.36,3.36,0,0,1,.51.2,1.83,1.83,0,0,1,.68-.13,6.19,6.19,0,0,0,1.62-.08c.35-.15.78-.39.65-.69s-.88-.58-.81-.82.34-.26.79-.28,1.08.09,1.2-.56.16-1-.48-1.15-1.12-.16-1.24-.63-.24-.58-.11-.7a1.37,1.37,0,0,1,.85-.23,3.53,3.53,0,0,0,1.18-.15c.15-.1.18-.41.36-.54a3.77,3.77,0,0,1,.92-.24,11.3,11.3,0,0,1,1.68,1,9.52,9.52,0,0,1,1.38,1.34" transform="translate(-1)"/><path class="cls-34" d="M112.38,146a1.45,1.45,0,0,0-.66.4,1.11,1.11,0,0,0-.2.64,1.14,1.14,0,0,1,.94-.19,2.52,2.52,0,0,0,.79.18,4.92,4.92,0,0,0,.77-.21s-.45.51-.39.87a5.92,5.92,0,0,1,.1.69,2.83,2.83,0,0,1-.36,1,2.28,2.28,0,0,1,.63-.21,2.7,2.7,0,0,0,1-.48,3.81,3.81,0,0,0,.54-.62,2.36,2.36,0,0,0,0,.86,5.19,5.19,0,0,1,.14,1,3.17,3.17,0,0,1,.51-.37,1.76,1.76,0,0,0,.54-.42,3.91,3.91,0,0,0,.19-.64,2.36,2.36,0,0,0,.23.8,6.69,6.69,0,0,1,.42,1.05,3,3,0,0,1,.36-.73,1.58,1.58,0,0,0,.42-.64,2.34,2.34,0,0,0-.05-.51l.24.51m-6.85.37a2.3,2.3,0,0,1,.56-.66c.28-.16.65-.45.75-.48s.54-.28.54-.28m.59,3.1s.66-.33.85-.45a2.51,2.51,0,0,0,.7-.67" transform="translate(-1)"/><path class="cls-9" d="M120.53,144.53s-.21-.29-.26-.39-.13-.29-.13-.29" transform="translate(-1)"/><path class="cls-34" d="M118,154.43s1.23.76,1.19,1.39a3.47,3.47,0,0,1-.68,1.44" transform="translate(-1)"/><path class="cls-69" d="M114.81,141.73s-.1-.29-.12-.37a.58.58,0,0,0-.07-.18s.53,0,.51.17-.17.16-.2.22a1,1,0,0,1-.12.16Z" transform="translate(-1)"/><path class="cls-70" d="M117.22,140.9l0-.26a1.51,1.51,0,0,1,.68.15,1.83,1.83,0,0,1,.55.63c-.06.06-.33-.16-.51-.22a1.5,1.5,0,0,1-.27,0c-.14,0-.21-.06-.22-.12a.4.4,0,0,1,0-.18Z" transform="translate(-1)"/><path class="cls-69" d="M114.83,144.07l.2-.32.2.3-.4,0" transform="translate(-1)"/><path class="cls-69" d="M115.32,144.06l.24-.32.26.29-.5,0" transform="translate(-1)"/><path class="cls-69" d="M115.1,142.08l.49.18-.44.23-.05-.41" transform="translate(-1)"/><path class="cls-69" d="M115.7,142.25l.43.1-.35.28-.08-.38" transform="translate(-1)"/><path class="cls-67" d="M108.11,141.63a1.48,1.48,0,0,0,.51.24,4,4,0,0,0,.49,0,1,1,0,0,0,.07-.54,1.1,1.1,0,0,0-.78-.88s.2.43.1.64a1.84,1.84,0,0,1-.39.51Z" transform="translate(-1)"/><path class="cls-67" d="M106.74,142.26a.84.84,0,0,0-.8-.4,1.54,1.54,0,0,0-.9.48,2.23,2.23,0,0,1,.75.08.9.9,0,0,1,.29.52,2.24,2.24,0,0,0,.42-.33,3.8,3.8,0,0,0,.24-.35Z" transform="translate(-1)"/><path class="cls-67" d="M106.08,144.14a1.32,1.32,0,0,0-.72.35,1.36,1.36,0,0,0-.21.84,1,1,0,0,1,.57-.32,4.24,4.24,0,0,1,.69.09,2,2,0,0,1-.13-.48,1.63,1.63,0,0,0-.2-.48Z" transform="translate(-1)"/><path class="cls-67" d="M107.62,150.21a.79.79,0,0,0-.7-.19,1.28,1.28,0,0,0-.73.58,1.66,1.66,0,0,1,.6,0,.71.71,0,0,1,.37.27,1.64,1.64,0,0,0,.27-.27,3.88,3.88,0,0,0,.19-.34Z" transform="translate(-1)"/><path class="cls-67" d="M107.11,152a1,1,0,0,0-.7.2,1.14,1.14,0,0,0-.33.75.9.9,0,0,1,.54-.23,2.08,2.08,0,0,1,.53.17s0-.31.06-.39a.78.78,0,0,0-.1-.5Z" transform="translate(-1)"/><path class="cls-67" d="M108,153.63a1.3,1.3,0,0,0,.2.77,1.07,1.07,0,0,0,.68.35,2.15,2.15,0,0,1-.17-.48.58.58,0,0,1,.2-.45.77.77,0,0,0-.44-.22,4.63,4.63,0,0,0-.47,0Z" transform="translate(-1)"/><path class="cls-67" d="M112.38,157.86a1,1,0,0,0-.72-.38,1.71,1.71,0,0,0-.87.42s.53,0,.66.13a4.43,4.43,0,0,1,.27.4,2.52,2.52,0,0,0,.35-.21,3.07,3.07,0,0,0,.31-.36Z" transform="translate(-1)"/><path class="cls-67" d="M111.08,159.54a1.09,1.09,0,0,0-.83.21,1.31,1.31,0,0,0-.25.82s.33-.37.64-.34a2.48,2.48,0,0,1,.65.19l-.09-.46c0-.15-.12-.42-.12-.42Z" transform="translate(-1)"/><path class="cls-67" d="M112.29,161.32s-.28.39-.07.69a1.34,1.34,0,0,0,.63.45.62.62,0,0,1-.09-.48,1.52,1.52,0,0,1,.4-.48l-.87-.18Z" transform="translate(-1)"/><path class="cls-67" d="M119.73,162.05a1.29,1.29,0,0,0-.76,0c-.27.15-.5.83-.5.83s.45-.37.77-.32a1.92,1.92,0,0,1,.56.18,1.53,1.53,0,0,0,0-.47,2,2,0,0,0-.08-.27Z" transform="translate(-1)"/><path class="cls-67" d="M120,163.84s-.37.39-.24.71a4.26,4.26,0,0,0,.37.66s0-.48.14-.61a1.28,1.28,0,0,1,.63-.22,3.3,3.3,0,0,0-.43-.33C120.34,164,120,163.84,120,163.84Z" transform="translate(-1)"/><path class="cls-67" d="M121.83,164.41a.72.72,0,0,0,.17.77,1.3,1.3,0,0,0,.67.34s-.28-.49-.2-.74a.93.93,0,0,1,.33-.43,2.69,2.69,0,0,0-.51-.13,4.68,4.68,0,0,0-.46.19Z" transform="translate(-1)"/><path class="cls-6" d="M120.71,139.61h-.17a1,1,0,0,1-.16.21.38.38,0,0,1-.51,0,.3.3,0,0,1-.09-.25.29.29,0,0,1-.3,0,.32.32,0,0,1-.09-.47.41.41,0,0,1,.07-.11v-.19l-.21.05-.06.11c-.14.15-.33.19-.42.1a.26.26,0,0,1-.08-.16.21.21,0,0,1-.1.07c-.33.08-.45-.63-.47-.81l-.1.15a2.48,2.48,0,0,1,0,.78,4.71,4.71,0,0,1-.17.71,6,6,0,0,1,1.78,1,5.9,5.9,0,0,1,1.4,1.45,4.44,4.44,0,0,1,.71-.3,3,3,0,0,1,.81-.12l.14-.13c-.2,0-1,.06-.94-.26a.15.15,0,0,1,0-.1.54.54,0,0,1-.18,0c-.11-.08-.11-.26,0-.41l.11-.08v-.21l-.2,0a.65.65,0,0,1-.09.08.39.39,0,0,1-.52,0,.26.26,0,0,1-.06-.28.32.32,0,0,1-.27,0,.33.33,0,0,1-.07-.48,1.09,1.09,0,0,1,.19-.19l0-.18Z" transform="translate(-1)"/><path class="cls-70" d="M119.36,140c0-.05.09,0,.14,0a.09.09,0,0,1,0,.12s-.09,0-.15,0-.06-.09,0-.12Z" transform="translate(-1)"/><path class="cls-70" d="M119.93,140.5l-.2-.15a.08.08,0,0,1,0-.1.11.11,0,0,1,.11,0l.2.16.19.15a.08.08,0,0,1,0,.1.11.11,0,0,1-.11,0l-.2-.16" transform="translate(-1)"/><path class="cls-70" d="M118.89,139.79l-.16-.09s-.06-.08,0-.11a.08.08,0,0,1,.1,0l.16.1.15.09a.08.08,0,0,1,.05.09.09.09,0,0,1-.11,0l-.15-.09" transform="translate(-1)"/><path class="cls-70" d="M118.26,139.36a.11.11,0,0,1,.15,0s.06.1,0,.13a.12.12,0,0,1-.14,0,.1.1,0,0,1,0-.13Z" transform="translate(-1)"/><path class="cls-70" d="M120.56,140.94s0-.09,0-.13a.12.12,0,0,0-.14,0s0,.09,0,.13a.12.12,0,0,0,.14,0Z" transform="translate(-1)"/><path class="cls-70" d="M120.9,141.33l.13.13a.09.09,0,0,0,.11,0,.07.07,0,0,0,0-.1l-.13-.12-.13-.13s-.09,0-.11,0,0,.07,0,.1l.12.12" transform="translate(-1)"/><path class="cls-70" d="M121.47,141.82a.09.09,0,0,0,0-.13.1.1,0,0,0-.14,0s0,.09,0,.13S121.44,141.86,121.47,141.82Z" transform="translate(-1)"/><path class="cls-6" d="M119.82,138.2h-.35l-.07.52,0,.08h.09l.46-.31-.17-.3" transform="translate(-1)"/><path class="cls-6" d="M119.82,138.2h-.35l-.07.52,0,.08h.09l.46-.31-.17-.3" transform="translate(-1)"/><path class="cls-6" d="M118.86,138.49v.32l.55.08.09,0v-.09l-.32-.42-.3.16" transform="translate(-1)"/><path class="cls-6" d="M120,139.14l-.29.16-.32-.43v-.09l.08,0,.56.06,0,.33" transform="translate(-1)"/><path class="cls-6" d="M119.29,138.74a.17.17,0,0,1,.23-.06.15.15,0,0,1,.06.22.16.16,0,0,1-.23.06A.16.16,0,0,1,119.29,138.74Z" transform="translate(-1)"/><path class="cls-6" d="M118,138.2s-.08-.28-.16-.43a.89.89,0,0,0-.23-.26.5.5,0,0,1,.52.06c.23.18,0,.52,0,.52a.35.35,0,0,1-.11.11Z" transform="translate(-1)"/><path class="cls-6" d="M118.62,138.38l-.25.22-.41-.36,0,0,0-.09.55-.05.06.32" transform="translate(-1)"/><path class="cls-6" d="M117.93,138.16c0-.09.11-.14.17-.12a.15.15,0,0,1,.06.2.16.16,0,0,1-.18.12A.15.15,0,0,1,117.93,138.16Z" transform="translate(-1)"/><path class="cls-6" d="M121.18,139.05l-.35,0-.15.51,0,.09h.09l.5-.24-.12-.32" transform="translate(-1)"/><path class="cls-6" d="M120.19,139.2l-.06.33.54.14.09,0v-.08l-.26-.48-.32.12" transform="translate(-1)"/><path class="cls-6" d="M121.22,140l-.32.12-.25-.47v-.09h.09l.53.13-.06.32" transform="translate(-1)"/><path class="cls-6" d="M120.57,139.51a.17.17,0,0,1,.24,0,.14.14,0,0,1,0,.22.17.17,0,0,1-.24,0,.16.16,0,0,1,0-.23Z" transform="translate(-1)"/><path class="cls-6" d="M122.37,140.15l.06.33-.52.18-.1,0v-.09l.21-.48.35.08" transform="translate(-1)"/><path class="cls-6" d="M122.28,141.11l-.34.07-.19-.49,0-.09.09,0,.51.21-.1.32" transform="translate(-1)"/><path class="cls-6" d="M121.36,140.18l-.1.31.51.21h.09l0-.09-.18-.5-.34.08" transform="translate(-1)"/><path class="cls-6" d="M121.93,140.76a.16.16,0,0,0,0-.23.18.18,0,0,0-.25,0,.16.16,0,0,0,0,.23.17.17,0,0,0,.24,0Z" transform="translate(-1)"/><path class="cls-6" d="M122.76,141.84s.3,0,.47.06a1,1,0,0,1,.31.16s.07-.25-.17-.47-.52.13-.52.13a.33.33,0,0,0-.09.12Z" transform="translate(-1)"/><path class="cls-6" d="M122.43,141.31l-.17.28.45.3.06,0,.08,0-.08-.53-.34,0" transform="translate(-1)"/><path class="cls-6" d="M122.8,141.9c.09,0,.13-.13.09-.18s-.13-.06-.21,0a.14.14,0,0,0-.09.18C122.62,142,122.72,142,122.8,141.9Z" transform="translate(-1)"/></g><g id="inescutcheon"><ellipse class="cls-71" cx="100.24" cy="168.59" rx="9.76" ry="10.98"/><ellipse class="cls-72" cx="100.25" cy="168.57" rx="6.86" ry="8.05"/><g id="fdl"><path class="cls-73" d="M98,163a3.18,3.18,0,0,0-.81,1.71,3.76,3.76,0,0,0,.35,1.53.91.91,0,0,0-.85-.57.88.88,0,0,0-.9.86,1.29,1.29,0,0,0,.14.46l.3.59a.6.6,0,0,1,.59-.34.63.63,0,0,1,.64.61.39.39,0,0,1,0,.15h-.73v.62h.65l-.48,1,.64-.26.48.55.51-.55.64.26-.48-1h.65V168h-.73a.39.39,0,0,1,0-.15.66.66,0,0,1,1.23-.27l.29-.59a1.31,1.31,0,0,0,.15-.46.9.9,0,0,0-1.74-.29,3.85,3.85,0,0,0,.34-1.53A3.15,3.15,0,0,0,98,163Z" transform="translate(-1)"/><path class="cls-74" d="M96.71,168.65h2.61V168H96.71Z" transform="translate(-1)"/></g><g id="fdl-2" data-name="fdl"><path class="cls-73" d="M104.38,163a3.18,3.18,0,0,0-.81,1.71,3.85,3.85,0,0,0,.34,1.53.89.89,0,0,0-.84-.57.88.88,0,0,0-.9.86,1.29,1.29,0,0,0,.14.46l.29.59a.62.62,0,0,1,.59-.34.63.63,0,0,1,.65.61.77.77,0,0,1,0,.15h-.74v.62h.66l-.49,1,.64-.26.49.55.5-.55.65.26-.48-1h.64V168H105a.76.76,0,0,1,0-.15.62.62,0,0,1,.64-.61.6.6,0,0,1,.58.34l.3-.59a1.29,1.29,0,0,0,.14-.46.87.87,0,0,0-.89-.86.89.89,0,0,0-.85.57,3.85,3.85,0,0,0,.34-1.53,3.16,3.16,0,0,0-.83-1.71Z" transform="translate(-1)"/><path class="cls-74" d="M103.08,168.65h2.62V168h-2.62Z" transform="translate(-1)"/></g><g id="fdl-3" data-name="fdl"><path class="cls-73" d="M101.19,168.51a3.19,3.19,0,0,0-.81,1.72,3.83,3.83,0,0,0,.34,1.52.88.88,0,0,0-.84-.56.87.87,0,0,0-.9.85,1.23,1.23,0,0,0,.14.46l.29.59a.62.62,0,0,1,.59-.34.63.63,0,0,1,.65.61.77.77,0,0,1,0,.15h-.74v.62h.66l-.49,1,.64-.25.49.54.5-.54.64.25-.48-1h.65v-.62h-.73a.76.76,0,0,1,0-.15.62.62,0,0,1,.63-.61.6.6,0,0,1,.59.34l.3-.59a1.23,1.23,0,0,0,.14-.46.86.86,0,0,0-.89-.85.88.88,0,0,0-.85.56,3.83,3.83,0,0,0,.34-1.52,3.16,3.16,0,0,0-.83-1.72Z" transform="translate(-1)"/><path class="cls-74" d="M99.89,174.13h2.62v-.62H99.89Z" transform="translate(-1)"/></g></g></g></g></g></g></g></svg>