<svg xmlns="http://www.w3.org/2000/svg" viewBox="0 0 299.43 188.49"><defs><style>.cls-1{fill:#fcfcfc;}.cls-2{fill:#e12e48;}.cls-3{fill:#cfad82;}</style></defs><title>Spartak_Moscow</title><g id="Слой_2" data-name="Слой 2"><g id="Layer_1" data-name="Layer 1"><g id="layer1"><g id="g1421"><path id="path1218" class="cls-1" d="M149.72,24,0,106.25l149.76,82.24,149.67-82.24Z"/><path id="path1220" class="cls-2" d="M149.75,29.75,10.07,106.46l139.68,76.71,139.61-76.71ZM28.66,106.46,149.72,39.89,271,106.46,149.72,173Z"/><path id="path1222" class="cls-2" d="M163.88,92.37a19.82,19.82,0,0,0-14.1-5.88h-.06a20,20,0,0,0-.05,39.91h.05a20,20,0,0,0,14.16-34ZM143.67,120.9a21.4,21.4,0,0,1-3.91-2.12,13,13,0,0,1-2.87-3l0-.08a34.12,34.12,0,0,1-.08-4.74c.09-1.26.19-2.51.41-3.85l7.53-3.44c1.17,1,2.48,1.86,3.74,2.79s2.49,1.91,3.75,2.76l-.65,8.56a78.26,78.26,0,0,1-7.87,3.1ZM135.3,94.67a41.85,41.85,0,0,0-1.82,4.22c-.57,1.58-1,3.24-1.06,3.57v.05a15,15,0,0,0-1.18,1.55,18.54,18.54,0,0,1,4.06-9.41v0Zm-2.6,7.7c.11-.46.49-1.94,1-3.39a42.29,42.29,0,0,1,1.82-4.21,14.25,14.25,0,0,1,1.59-1,27.66,27.66,0,0,1,3.49-1.65,8.72,8.72,0,0,1,2.27-.73l4.7,4.07a52.06,52.06,0,0,0-2.62,7c-.11.34-.2.73-.27,1l-7.58,3.47C135.68,105.5,133.2,102.84,132.7,102.37Zm19.09,15.45.66-8.62,1.53-.94c1.25-.79,2.54-1.66,3.83-2.53.21-.14,1.28-.9,1.65-1.18.09-.07.22-.14.29-.21l6.11,3.85a18,18,0,0,1,0,3.21,34.62,34.62,0,0,1-.37,3.5,9,9,0,0,1-.37,1.67l0,0a20.56,20.56,0,0,1-3.81,3.1,19.49,19.49,0,0,1-3,1.66c-1.33-.62-2.66-1.31-3.93-2.05-.27-.16-2-1.21-2.52-1.5Zm8.64-25.55a2,2,0,0,1,1,.4c.7.38,1.37.79,2,1.21a18.61,18.61,0,0,1,4.82,11.27A18.51,18.51,0,0,1,166,108l-6.17-3.9c0-.13-.07-.29-.09-.4a4.77,4.77,0,0,0-.15-.54,40.44,40.44,0,0,0-2.63-7.25l3.47-3.62ZM149.78,87.8a18.56,18.56,0,0,1,7.8,1.74l.3.22c.53.43,1.1.95,1.61,1.45a3.8,3.8,0,0,1,.7.92l-3.47,3.61a32.65,32.65,0,0,0-5.49-.53,26.85,26.85,0,0,0-3.17.07l-.27,0-4.67-4.06a12.54,12.54,0,0,1,3.17-3.12,18.47,18.47,0,0,1,3.43-.32ZM133.9,116.31a14.36,14.36,0,0,0,2.76-.4l0,0a13.07,13.07,0,0,0,2.93,3,21.77,21.77,0,0,0,4,2.15l.05,0a12.37,12.37,0,0,0,.52,1.92c.14.44.31.88.48,1.31a18.73,18.73,0,0,1-10.72-8.07Zm23.44,7.15a12.73,12.73,0,0,0,1-1.85,19.91,19.91,0,0,0,3.1-1.69,21.51,21.51,0,0,0,3.73-3,18.69,18.69,0,0,1-7.81,6.54Z"/><path id="path1224" class="cls-2" d="M218.57,87.59l-43.76,24a25.64,25.64,0,1,1-2.9-17.94h5V72.75l7.32-4L149.72,49.89,46.84,106.46,81.15,125.3l23.07-12.67a34,34,0,0,0,12.35,21A41,41,0,0,0,125,139l-9.46,5.2L149.65,163l103.21-56.58Z"/><path id="path1226" class="cls-1" d="M146.27,71.56c-10.83,0-20.86,3.35-28.26,9.42a33,33,0,0,0,0,50.93c7.4,6.07,17.43,9.42,28.26,9.42a41.58,41.58,0,0,0,29.2-11.61l.05,0V121h-2a27.89,27.89,0,1,1-23.8-42.42,27.71,27.71,0,0,1,23.44,12.81h1.42V75.3L171.42,77l-.8,2-1.18-.76a42.85,42.85,0,0,0-23.17-6.77Z"/><path id="path1282" class="cls-3" d="M131.67,18.55l6-3.31,6,3.31-1.15-6.7,4.88-4.76-6.74-1L137.7,0l-3,6.11-6.75,1,4.88,4.76Z"/><path id="path1284" class="cls-3" d="M107.42,18.55l6-3.31,6,3.31-1.15-6.7,4.88-4.76-6.74-1-3-6.11-3,6.11-6.75,1,4.88,4.76Z"/><path id="path1286" class="cls-3" d="M155.79,18.55l6-3.31,6,3.31-1.15-6.7,4.88-4.76-6.74-1-3-6.11-3,6.11-6.74,1,4.88,4.76Z"/><path id="path1288" class="cls-3" d="M180.05,18.55l6-3.31,6,3.31L191,11.85l4.88-4.76-6.74-1-3-6.11-3,6.11-6.74,1,4.88,4.76Z"/></g></g></g></g></svg>