<svg xmlns="http://www.w3.org/2000/svg" viewBox="0 0 299.99 300"><defs><style>.cls-1{fill:#fff;}.cls-2{fill:#f0c660;}.cls-3{fill:#1d5b99;}.cls-4{fill:#cd3529;}</style></defs><title>Sparta_Praga</title><g id="Слой_2" data-name="Слой 2"><g id="Слой_1-2" data-name="Слой 1"><path class="cls-1" d="M150,300a149.32,149.32,0,0,1-83.87-25.62,150.75,150.75,0,0,1-40.51-40.52,149.8,149.8,0,0,1,0-167.73A150.53,150.53,0,0,1,66.13,25.62a149.8,149.8,0,0,1,167.73,0,150.37,150.37,0,0,1,54.35,66,150.6,150.6,0,0,1,0,116.78,150.47,150.47,0,0,1-79.83,79.82A149.05,149.05,0,0,1,150,300ZM150,1.67C68.21,1.67,1.67,68.21,1.67,150S68.21,298.33,150,298.33,298.33,231.79,298.33,150,231.79,1.67,150,1.67Z"/><path class="cls-2" d="M150,299.17A149.17,149.17,0,1,0,.83,150,149.17,149.17,0,0,0,150,299.17Z"/><path d="M150,299.23a148.46,148.46,0,0,1-83.43-25.49A149.68,149.68,0,0,1,12.5,208.08,149,149,0,0,1,26.26,66.57,149.81,149.81,0,0,1,66.57,26.26a149,149,0,0,1,166.86,0,149.73,149.73,0,0,1,54.06,65.66,149,149,0,0,1-13.76,141.51A149,149,0,0,1,150,299.23ZM150,.89C67.78.89.89,67.78.89,150S67.78,299.11,150,299.11,299.1,232.22,299.1,150,232.21.89,150,.89Z"/><path class="cls-3" d="M150,295.25A145.25,145.25,0,1,0,4.75,150,145.25,145.25,0,0,0,150,295.25Z"/><path class="cls-2" d="M150,245a95,95,0,1,0-95-95,95,95,0,0,0,95,95Z"/><path class="cls-1" d="M150,241.8A91.8,91.8,0,1,0,58.2,150,91.8,91.8,0,0,0,150,241.8Z"/><path class="cls-2" d="M48.11,110l6.67-.86,2.42-7.41L24.69,106l-1.76,5.38,23.58,23,2.39-7.31-4.82-4.82,4-12.36Zm-7.74,9-8.67-7.17,0-.09,11.4-1.19Zm9.2-31.2c6.21,5,16.54,3.24,23.11-5a24.23,24.23,0,0,0,4-7.7l-5.22-4.18a13,13,0,0,1-2.8,8.39C64.38,84.56,58,84.78,54.2,81.75S49,72.4,53.34,66.94a12.24,12.24,0,0,1,7.53-4.53l-5.25-4.2a21.7,21.7,0,0,0-6.52,5.46c-6.86,8.57-5.91,18.94.47,24ZM103,34.37c-.66-1.76.93-3.83,3.12-4.66a7.38,7.38,0,0,1,6.08.21L114,25.06c-2.83-1-7.59-.54-10.7.64-5.9,2.24-8.84,7.49-7.14,12,1.59,4.17,5.55,4.67,10.59,4.38,3-.22,6.7-.7,7.76,2.08.79,2.07-.24,4.55-3,5.61a7.54,7.54,0,0,1-7.8-1.53l-3.15,5a14,14,0,0,0,12.77,1.15c7.14-2.72,10.06-8.2,8-13.59-3.43-9-16.59-1.86-18.32-6.39Zm38.63,12.7-.56-10.75,3.62-.19c7.64-.4,11.8-3.6,11.48-9.7-.34-6.53-5.57-8.67-13.41-8.26l-9.91.52,1.49,28.76,7.29-.38Zm0-24.18c4.07-.21,6.88.18,7.07,3.88s-2.1,4.59-6.41,4.81l-1.49.08-.45-8.7,1.28-.07Zm33.87,20.55L188,47.18l1,6.65,7.47,2.23-5.12-32.4L186,22,163.47,46.16l7.38,2.22,4.69-4.94Zm10.27-12.63.09,0,1.47,11.36-8.52-2.55,7-8.84ZM216,55.72l.33,14.74,7.08,5.29-1.2-16.06c4.4,2.48,8.71,1.12,10.9-1.82,3.68-4.93,1.1-10-4.83-14.44l-7.92-5.91L203.11,60.6,209,65l7-9.31.08.06Zm7.47-10.16.79.6c3.11,2.31,5,4.62,2.91,7.46s-4.91,1.86-8.14-.55l-.76-.56Zm8.24,40.81,4.3,5.9,19.32-14.1,4.45,6.1,3.95-2.88-13.2-18.1-3.95,2.89L251,72.27l-19.32,14.1Zm44.78,21.84L243.91,103l2.28,7.35,6.71,1.14L256.76,124l-4.95,4.56,2.32,7.44,24-22.33-1.68-5.41Zm-15.94,12.44-2.63-8.49,11.22.83,0,.1-8.62,7.56ZM79.64,230.73l-7.35-6.4L53.74,245.66l5.41,4.7,6.93-8,2.68,2.34c5.67,4.92,10.79,5.5,14.72,1C87.69,240.85,85.45,235.78,79.64,230.73ZM78,240.87c-2.41,2.77-4.6,1.81-7.8-1l-1.11-1,5.61-6.45,1,.83C78.66,235.94,80.38,238.12,78,240.87Zm29.23,7.44-8.92-3.79-11,26,6.59,2.8,4.45-10.49.09,0,3.76,14,8,3.39-4.89-15c4.77,1.33,8.56-1,10-4.28,2.35-5.56-1.3-9.79-8-12.63Zm1.32,10c-1.34,3.17-4.25,2.91-7.88,1.37l-.86-.36,3.33-7.83.9.38c3.5,1.48,5.88,3.23,4.51,6.44Zm33-2.07-15.93,28.16,7.54.42,3.35-5.78,12.75.72,2.49,6.11,7.63.42L147.1,256.52l-5.55-.31Zm-2.74,18.43,4.61-10h.1l4,10.52-8.71-.49Zm50.33-24.44,3.39,10.6-12.62,4-3.39-10.61-6.83,2.18,8.61,26.92,6.82-2.17-3.85-12,12.63-4,3.84,12,6.82-2.18L196,248l-6.82,2.18Zm25.56-15.43,7,31.59,5.89-4.73-1.38-6.54,9.95-8L242.1,250l6-4.79-29-13.9-4.34,3.48Zm7.09,4.93,10,5.14L225,250.3l-3.28-10.54Zm-54-113.65L150,71.8l-17.47,54-56.91,0,46.06,33.7L104,213.27l45.86-33.38L196,213.27l-17.65-53.9,46.06-33.53-56.61.21Z"/><path class="cls-4" d="M166.11,128.27,150,79l-15.86,49-51.64,0,41.8,30.58-16,48.77,41.62-30.3,41.81,30.3-16-48.92,41.81-30.43-51.39.2Z"/></g></g></svg>