<svg xmlns="http://www.w3.org/2000/svg" viewBox="0 0 223.52 300"><defs><style>.cls-1{fill:#008057;}.cls-2{fill:#fff;}.cls-3{fill:#f3c242;}</style></defs><title>Sporting</title><g id="Слой_2" data-name="Слой 2"><g id="Слой_1-2" data-name="Слой 1"><path class="cls-1" d="M111.76,300c-48-16.17-84.36-47-101.3-89H62.79a74.82,74.82,0,0,1-8.35-15.22H5.35A141.83,141.83,0,0,1,2.06,180.6H49.91a91.24,91.24,0,0,1-1.47-15.23H.35C.12,162,0,158.44,0,154.91c0-1.59.06-3.18.06-4.7H49c.29-3.47.76-6.82,1.35-10.12.3-1.7.65-3.41,1-5.11H.65C2.18,111.52,6.7,92,14.87,72.19,42,71.55,51,67.08,62,61.55c12.47-6.23,23.23-12.93,49.8-12.93s37.33,6.7,49.79,12.93c11,5.53,19.93,10,47.09,10.64,8.17,19.82,12.7,39.33,14.23,62.79H172.13c.36,1.7.71,3.41,1,5.11.59,3.3,1.06,6.65,1.36,10.12h49c0,1.52.06,3.11.06,4.7,0,3.53-.12,7.05-.36,10.46H175.07a89.18,89.18,0,0,1-1.47,15.23h47.86a144.31,144.31,0,0,1-3.29,15.17H169.08A75.31,75.31,0,0,1,160.73,211h52.32c-16.93,42-53.26,72.84-101.29,89Z"/><path class="cls-2" d="M218.17,195.77A158.94,158.94,0,0,1,213.05,211H160.73a75.31,75.31,0,0,0,8.35-15.22Z"/><path class="cls-2" d="M175.07,165.37a89.18,89.18,0,0,1-1.47,15.23h47.86c.82-4.94,1.35-10,1.7-15.23Z"/><path class="cls-2" d="M172.13,135c.36,1.7.71,3.41,1,5.11.59,3.3,1.06,6.65,1.36,10.12h49c-.06-5.3-.24-10.35-.59-15.23Z"/><path class="cls-2" d="M49,150.21c.29-3.47.76-6.82,1.35-10.12.3-1.7.65-3.41,1-5.11H.65c-.36,4.88-.53,9.94-.59,15.23Z"/><path class="cls-2" d="M49.91,180.6a91.24,91.24,0,0,1-1.47-15.23H.35c.36,5.18.88,10.29,1.71,15.23Z"/><path class="cls-2" d="M62.79,211a74.82,74.82,0,0,1-8.35-15.22H5.35A158.9,158.9,0,0,0,10.46,211Z"/><path class="cls-2" d="M112.23,241.68h-.94c-18.34-6.23-33.51-16.4-44-29.92-10-13-15.63-29.1-15.63-47.62a129.82,129.82,0,0,1,1.88-23.46,99.75,99.75,0,0,1,6-20.46l.42-.94c5.4-.17,10.93-.41,16.16-1.82a56,56,0,0,0,10.47-4.41c6.05-3.11,12.05-6.17,25.16-6.17s19.11,3.06,25.16,6.17a56.15,56.15,0,0,0,10.46,4.41c5.24,1.41,10.76,1.65,16.17,1.82l.41.94a99.15,99.15,0,0,1,6,20.46,130.73,130.73,0,0,1,1.88,23.46c0,18.52-5.64,34.63-15.64,47.62-10.46,13.52-25.63,23.69-44,29.92Z"/><path class="cls-1" d="M111.76,238.45c17.46-6,31.92-15.76,41.85-28.69,9.59-12.41,15-27.81,15-45.62a124,124,0,0,0-1.83-22.93,94.53,94.53,0,0,0-5.4-18.75,64.67,64.67,0,0,1-14.82-1.88,59.62,59.62,0,0,1-11.11-4.65c-5.7-2.94-11.35-5.82-23.69-5.82s-18,2.88-23.69,5.82A59.71,59.71,0,0,1,77,120.58a64.56,64.56,0,0,1-14.81,1.88,95.23,95.23,0,0,0-5.41,18.75,124.9,124.9,0,0,0-1.82,22.93c0,17.81,5.41,33.21,15,45.62,9.94,12.93,24.4,22.69,41.86,28.69Z"/><path class="cls-2" d="M43.39,105.76a5.75,5.75,0,0,1,2.17,5.53c-.23,2.47-1.41,5.17-3.58,8.17a26.59,26.59,0,0,1-3.59,4.17A20.88,20.88,0,0,1,35.57,126l-4.29-2.65a32.6,32.6,0,0,0,4.29-2.82A16.54,16.54,0,0,0,39,117a9.85,9.85,0,0,0,.82-1.29,6.28,6.28,0,0,0,.7-1.47,3.8,3.8,0,0,0,.24-1.36,1.24,1.24,0,0,0-.59-1.05,1.44,1.44,0,0,0-1.41-.12A5.58,5.58,0,0,0,37,112.93c-.71.65-1.47,1.41-2.24,2.18s-1.46,1.41-2.23,2.06a10.88,10.88,0,0,1-4.58,2.41,5.17,5.17,0,0,1-3.77-1c-1.58-1.18-2.23-2.94-2-5.35a17,17,0,0,1,3.35-7.76,33.5,33.5,0,0,1,3.3-3.82,26.34,26.34,0,0,1,2.88-2.53l3.17,3.06a21,21,0,0,0-6.11,5.4,6.86,6.86,0,0,0-.88,1.36,4.59,4.59,0,0,0-.65,1.47A2.61,2.61,0,0,0,27,111.7a1.56,1.56,0,0,0,.53,1,1.47,1.47,0,0,0,1.47.12,12,12,0,0,0,2.35-1.94c.65-.65,1.36-1.3,1.94-1.89s1.36-1.23,2.12-1.88a10.06,10.06,0,0,1,4.29-2.29,4.72,4.72,0,0,1,3.65.94Z"/><path class="cls-2" d="M54.85,83.66a6.24,6.24,0,0,0-3.17-.12,10.83,10.83,0,0,0-2.94,1.12,19.08,19.08,0,0,0-3.35,2.41L37.1,94l13.34,15.94,4.82-4.06-4.35-5.17,3.35-2.83a13.19,13.19,0,0,0,3.18-3.52,10.21,10.21,0,0,0,1.41-3.59A5.11,5.11,0,0,0,58.73,88a6.16,6.16,0,0,0-1.29-2.47,5.41,5.41,0,0,0-2.59-1.82ZM53.2,91.18a2.8,2.8,0,0,1,0,1.41,4.33,4.33,0,0,1-1,1.71,17.39,17.39,0,0,1-2,1.88l-1.83,1.53-4-4.76,1.23-1.06c.82-.71,1.53-1.24,2-1.65a8.09,8.09,0,0,1,1.82-1A3.57,3.57,0,0,1,51,89.07a2.07,2.07,0,0,1,1.41.76,3.46,3.46,0,0,1,.76,1.35Z"/><path class="cls-2" d="M79.48,72.19c-2.94-.88-6.35-.47-10.17,1.12s-6.52,3.82-7.93,6.53a10.59,10.59,0,0,0,6.17,14.58c2.94.88,6.35.47,10.23-1.18s6.52-3.82,7.93-6.53a9.67,9.67,0,0,0,.18-8.64,9.42,9.42,0,0,0-6.41-5.88Zm-.94,16a9.78,9.78,0,0,1-2.29,1.41,8.15,8.15,0,0,1-2.59.65A5.62,5.62,0,0,1,71.25,90a6.21,6.21,0,0,1-2.11-1.41,7.17,7.17,0,0,1-1.77-2.71,7.94,7.94,0,0,1-.7-3.11,5.72,5.72,0,0,1,.47-2.59,6.9,6.9,0,0,1,1.47-1.94A10.75,10.75,0,0,1,70.84,77a10.4,10.4,0,0,1,2.53-.7,6.71,6.71,0,0,1,2.41.29A7.07,7.07,0,0,1,78,78a9.09,9.09,0,0,1,2.47,5.71A5.87,5.87,0,0,1,80,86.3a5.07,5.07,0,0,1-1.41,1.94Z"/><path class="cls-2" d="M107.47,78.37A9.18,9.18,0,0,0,111,75.6a5.38,5.38,0,0,0,.94-3.82,4.83,4.83,0,0,0-1-2.7,6,6,0,0,0-2.47-1.59,9.29,9.29,0,0,0-3.12-.65,29.6,29.6,0,0,0-3.88.12l-10.88.94,1.83,20.75,6.11-.58-.65-7.59,3.24-.29a22.83,22.83,0,0,1,6.58,7.11l7.17-.41c-1.88-3.23-3.76-6.23-7.4-8.52Zm-2.41-3.94a3.46,3.46,0,0,1-.89,1,3.89,3.89,0,0,1-1.76.71,13,13,0,0,1-2.59.35l-2.23.24-.53-5.59L99.71,71c.76-.06,1.47-.12,2.05-.12a4.52,4.52,0,0,1,1.59.12,2.63,2.63,0,0,1,1.41.76,2.34,2.34,0,0,1,.53,1.3,2.62,2.62,0,0,1-.23,1.41Z"/><polygon class="cls-2" points="136.98 68.19 114.58 65.84 114.11 70.14 122.34 71.02 120.58 87.36 126.63 88.01 128.34 71.61 136.51 72.49 136.98 68.19"/><polygon class="cls-2" points="148.32 71.78 142.45 70.08 136.68 90.06 142.62 91.71 148.32 71.78"/><polygon class="cls-2" points="179.31 87.18 174.13 84.13 167.2 94.83 161.79 77.54 156.26 75.02 147.74 93.94 153.03 96.24 158.2 84.95 163.44 101.88 167.96 105 179.31 87.18"/><path class="cls-2" d="M193.47,118.4,188,109.88,185,112.11l2,3.17-3,2.12c-1.82-2.06-4.64-6.29-4.53-9.11a7.37,7.37,0,0,1,5.65-6.23,5.85,5.85,0,0,1,2.7.06,10.3,10.3,0,0,1,4.94,3.7,17.82,17.82,0,0,1,1.47,2.47,31.53,31.53,0,0,1,1.76,7.29l3.94-2.94a38.49,38.49,0,0,0-1.94-5.7,28.39,28.39,0,0,0-2.64-4.06c-2.65-3.58-5.53-5.76-8.59-6.52a9.54,9.54,0,0,0-8.46,1.7,9.66,9.66,0,0,0-4.18,7.76c0,3.12,1.24,6.41,3.88,9.88a28.43,28.43,0,0,0,3.82,4.17c1.42,1.29,3.47,3.29,4.47,4l7.23-5.47Z"/><path class="cls-2" d="M53.79,240.86a4.91,4.91,0,0,1-4,1.64,7.39,7.39,0,0,1-3-.76,11.57,11.57,0,0,1-3.12-2.17L41,237.1,37.27,241l-3.58-3.35L45,225.58l6.41,5.7a15.37,15.37,0,0,1,2.18,2.47A7,7,0,0,1,55,238.62a4.16,4.16,0,0,1-1.18,2.24Zm-3.94-3.47a1.65,1.65,0,0,0,.53-1.23,2.26,2.26,0,0,0-.35-1.24,4.39,4.39,0,0,0-.94-1.29,19,19,0,0,0-1.53-1.47l-1.06-1-3.41,3.64,1.53,1.42c.65.58,1.24,1.05,1.71,1.41a2.93,2.93,0,0,0,1.41.58,2,2,0,0,0,1.17-.11,2.46,2.46,0,0,0,.94-.71Z"/><path class="cls-2" d="M72,253.62a7.82,7.82,0,0,1-5.59,4.05,11.69,11.69,0,0,1-7.88-1.82c-2.82-1.65-4.7-3.64-5.52-5.94A8.6,8.6,0,0,1,59.38,239c2.35-.41,5,.23,7.82,1.82s4.7,3.64,5.52,5.88a7.74,7.74,0,0,1-.7,6.94Zm-8.06.17a5.13,5.13,0,0,0,1.88-1,7.33,7.33,0,0,0,1.53-1.88,7.84,7.84,0,0,0,.88-2.41,4.79,4.79,0,0,0-.11-2.06,4.5,4.5,0,0,0-.88-1.64,8,8,0,0,0-1.59-1.24,5.78,5.78,0,0,0-1.82-.7,3.37,3.37,0,0,0-1.89,0,4,4,0,0,0-1.88.94,7.88,7.88,0,0,0-2.53,4.35,4.94,4.94,0,0,0,.12,2.06,4.58,4.58,0,0,0,.88,1.64,6.56,6.56,0,0,0,1.59,1.24,6.17,6.17,0,0,0,1.94.76,4,4,0,0,0,1.88-.06Z"/><path class="cls-2" d="M90.65,267.08l-5.88-1.88a16.71,16.71,0,0,0-3.17-7.47l-2.53-.82-1.88,5.82-4.76-1.53,5.11-15.81,8.41,2.7a19.56,19.56,0,0,1,2.88,1.12A8,8,0,0,1,91,250.68a4.45,4.45,0,0,1,1.29,1.94,3.88,3.88,0,0,1,0,2.29,4.34,4.34,0,0,1-1.94,2.53,8.36,8.36,0,0,1-3.47.94,25.13,25.13,0,0,1,3.82,8.7ZM87,253.79a2.36,2.36,0,0,0,.06-1.11,2.08,2.08,0,0,0-.83-1,4.47,4.47,0,0,0-1.11-.59c-.47-.18-1-.35-1.59-.59l-2.12-.65L80,254.09l1.88.58a12.34,12.34,0,0,0,2.06.59,3,3,0,0,0,1.47,0,3.11,3.11,0,0,0,1-.47,2,2,0,0,0,.59-1Z"/><polygon class="cls-2" points="111.76 251.62 93.83 250.09 93.53 253.5 100.18 254.09 99.06 267.2 103.64 267.61 104.76 254.5 111.47 255.09 111.76 251.62"/><path class="cls-2" d="M132.39,249.62l-5.11.53.88,10.4a3.22,3.22,0,0,1-.7,2.71,4.65,4.65,0,0,1-2.94,1.05,5,5,0,0,1-3.18-.52,3.54,3.54,0,0,1-1.12-2.53L119.34,251l-5,.35.88,10.64a5.42,5.42,0,0,0,2.7,4.47c1.65,1,3.94,1.35,6.94,1.06s5.17-1,6.58-2.23a5.35,5.35,0,0,0,1.89-4.88l-.89-10.76Z"/><path class="cls-2" d="M156.14,250.26l-7.29,2.24.89,3,2.82-.88.94,3.11c-2.18.88-5.47,1.77-7.7.88a5.24,5.24,0,0,1-3-3.53,5.61,5.61,0,0,1-.18-2.41,5.35,5.35,0,0,1,2.47-3.64,12.57,12.57,0,0,1,2.47-1.12,10.92,10.92,0,0,1,2.29-.41,28,28,0,0,1,5.35.47L154,244.21a19.35,19.35,0,0,0-4.24.12,21.87,21.87,0,0,0-3.7.82c-3.41,1.06-5.82,2.59-7.29,4.7a8.19,8.19,0,0,0,3.7,12q3.45,1.34,8.47-.17a22.6,22.6,0,0,0,4.17-1.71c1.36-.7,2.59-1.41,3.42-1.94l-2.42-7.82Z"/><path class="cls-2" d="M180.72,246.15,176,248.91l-2.94-2.23-6.52,3.82.41,3.59-4.58,2.64-1.77-18.17,5.23-3,14.88,10.58Zm-10.29-1.47-5.11-3.88.76,6.41,4.35-2.53Z"/><polygon class="cls-2" points="191.89 230.87 184.95 237.33 175.9 227.63 172.31 230.98 183.6 243.15 194.18 233.34 191.89 230.87"/><path class="cls-1" d="M39.8,46.44c2,0,10.05.24,16.7-1.58,4.82-1.36,9.46-4.24,8.34-6.94-1.05-2.41-5.64-2.47-11.05-1.24-6.82,1.59-13.7,1.06-16,0a10.93,10.93,0,0,1-5.88-6.11c-1.05-2.94.24-7.11,3.12-10.29s7.17-5.76,12.82-7.82A66.83,66.83,0,0,1,64.32,8.88L68,16.7a51.34,51.34,0,0,0-10.76.82c-4,.7-8.29,2.06-10.76,4.35-2.29,2.18-1.17,5.17,2.06,4.82,1.82-.18,4.18-.41,6.29-.65,5.29-.47,10.88-1.29,16.05.24,10.35,3.06,7.82,13,1.53,18.75a32.09,32.09,0,0,1-7.82,5.06C58.2,53,50.79,54.14,44,54.67L39.8,46.44Z"/><path class="cls-1" d="M134.51,3.64a46.6,46.6,0,0,0-9.17-2.7A50.59,50.59,0,0,0,115.28,0a52,52,0,0,0-12.63,1.53C96.06,3.23,89,6.64,85.13,12.58A14.92,14.92,0,0,0,86,29.81c4.35,5.7,11.87,9,18.69,10.46a51,51,0,0,0,10.53.94,54,54,0,0,0,9.93-.88,54.1,54.1,0,0,0,9.82-3.23l-.06-9.59a41,41,0,0,1-18.93,4.88c-7.23,0-18.52-2.52-18.52-11.87S108.64,8.7,115.93,8.7c6.17,0,13.41,1.47,18.58,4.7V3.64Z"/><path class="cls-1" d="M156.26,47.5l4.59-14.4,10.52,3.35c3.47,1.06,9,1.88,13.82.23,6.76-2.41,8.82-9.81,4.7-15.57a18.56,18.56,0,0,0-6.76-5.59c-2.65-1.29-7.82-2.82-12.52-4.41L155.67,6.17,143.92,43.45l12.34,4Zm23.11-20.93c-.94,3.12-6.94,2.41-9.23,1.71l-7-2.18,2.64-8.7,7.94,2.53c2.71.88,6.7,3.35,5.65,6.64Z"/><path class="cls-3" d="M123.58,122.52a13.62,13.62,0,0,1-3.89,2.41c-.11,0-.11.17,0,.17a9.16,9.16,0,0,0,3.47.36,13.49,13.49,0,0,1,3.76.23,3.73,3.73,0,0,1,1.88,1.06,3.52,3.52,0,0,1,.76,1.64,8.25,8.25,0,0,0-4.11-1,3.07,3.07,0,0,0-1.47.35,2.5,2.5,0,0,0-1.06,1,3.3,3.3,0,0,0-.41,1.76c.06.06.12.12.17.06a5.45,5.45,0,0,1,1.77-.7,3.62,3.62,0,0,1,1.59-.18,5.13,5.13,0,0,1,3.11,1.23,3.56,3.56,0,0,1,1.35,2.59,16.35,16.35,0,0,0,.3,2.47,6.58,6.58,0,0,0,.64,1.82,4.78,4.78,0,0,1-1.88-1.88c-.76-1-1.53-2.06-2.94-2.29a2.87,2.87,0,0,0-1.82.29,3.46,3.46,0,0,0-1.41,1.47c-.06.12,0,.18.12.18a5.33,5.33,0,0,1,2.94.64,6.21,6.21,0,0,1,2.29,2.12,9.45,9.45,0,0,1,1.41,5.12,6.08,6.08,0,0,0,.71,3.11c-1.42-.53-2.24-2.06-2.94-3.47a9.25,9.25,0,0,0-1.24-2.05,3.37,3.37,0,0,0-.76-.59,2.51,2.51,0,0,0-1.47-.3,2.82,2.82,0,0,0-1.41.77,2.63,2.63,0,0,0-.77,1,.11.11,0,0,0,.06.17,4.41,4.41,0,0,1,3.17,1.36,5.73,5.73,0,0,1,1.65,3.35,25,25,0,0,1,.06,3.7c-.06,2.59-.12,5.23,1.41,6.88-2.76-.47-3.35-2.94-3.94-5.35a17.24,17.24,0,0,0-.59-2,5.5,5.5,0,0,0-1.41-2.29,4.29,4.29,0,0,0-2.17-1.12c-.06,0-.12.12-.06.24a5.68,5.68,0,0,1,1.53,4.11,21.58,21.58,0,0,1-.82,5.06,8.66,8.66,0,0,0-.24,3.88,5,5,0,0,0,1.35,2.82.11.11,0,0,0,.18-.06,7,7,0,0,1,.64-2.47,6.81,6.81,0,0,1,1.3-1.59v1.12c.06,2.94.12,6.06.41,8.29a21.87,21.87,0,0,0,2.23,5.88,33.39,33.39,0,0,0,3.83,6.11,9.25,9.25,0,0,0,4.64,2.77,6.45,6.45,0,0,0,3.82-.3,5.41,5.41,0,0,0,2.76-2.23,5.5,5.5,0,0,0,.94-3.41,14.44,14.44,0,0,0-1.35-5.41c-.94-2.12-2.47-5-4.88-9.7a24.83,24.83,0,0,1-2.64-7.29,13,13,0,0,1,.88-7.58,9,9,0,0,1,3.58-4.35,8.1,8.1,0,0,1,5.24-1.12.21.21,0,0,1,.11-.06,3.15,3.15,0,0,1,1.36-1.53,5.47,5.47,0,0,1,2.17-.59,8.87,8.87,0,0,1,3.06.53,7.83,7.83,0,0,1,1.17.53,5.09,5.09,0,0,0,2.3.71c1,.06,2-.47,2.94,0a4.45,4.45,0,0,0-1.71.7,5,5,0,0,1-2.29.77,7,7,0,0,1-3.06-.65c-.06-.06-.12,0-.18.06v.12c0,1.58,2.89,1.82,4.06,1.58a4.18,4.18,0,0,1,1.82-.17,4.15,4.15,0,0,0-1.7.64,8.83,8.83,0,0,1-3.41.71,2.36,2.36,0,0,1-1.76-.59c-.06-.06-.24-.06-.24.06a.7.7,0,0,0,.06.35,1.58,1.58,0,0,0,1.23,1.24,5.21,5.21,0,0,0,1.89,0,6.5,6.5,0,0,1,2.41,0,14.86,14.86,0,0,0-2.53.94,9.06,9.06,0,0,1-5.65,1,3.41,3.41,0,0,1-2.7-2.3,4.29,4.29,0,0,1,0-2.46c0-.06,0-.12-.12-.12a4.65,4.65,0,0,0-2.7.29,7.48,7.48,0,0,0-2.47,1.82,8.8,8.8,0,0,0-2.06,4.65,14.52,14.52,0,0,0,.59,5.88,22.83,22.83,0,0,0,2.17,4.94c.89,1.7,1.94,3.29,2.94,4.93.65,1,1.24,2,1.83,3s1.11,1.88,1.64,2.82a8.47,8.47,0,0,1,1.12,3.06,14.54,14.54,0,0,1,.18,2.76,9.54,9.54,0,0,1-1.42,4.82A11,11,0,0,1,141,185.3c-.11.06-.11.18,0,.18a2.46,2.46,0,0,0,1.71.17,3.94,3.94,0,0,0,1.58-.82,5.27,5.27,0,0,1-2.93,2.71,10.37,10.37,0,0,1-5.71.29c-.06,0-.12.06-.12.18a5.43,5.43,0,0,0,1.06,2.35,4.1,4.1,0,0,0,1.35,1,3.83,3.83,0,0,0,1.83.11,6.81,6.81,0,0,0,2.82-1.46c.47,3.23-2.12,4.64-4.88,6.11-.35.18-.65.35-.94.47a7,7,0,0,0-2.41,2.47,4.11,4.11,0,0,0-.41,3c0,.12.11.12.17.06a7.78,7.78,0,0,1,2.3-1.36,8.21,8.21,0,0,0,4.05-3.17,3.22,3.22,0,0,1,.53,2.23,3.67,3.67,0,0,1-1.29,2.3,11.14,11.14,0,0,1-4.18,2.41c-.23.06-.41.06-.52.11a8.33,8.33,0,0,0-1.36.89,16.39,16.39,0,0,0-1.41,1.29l-.06.06a4.59,4.59,0,0,0-.47,1.41,2.14,2.14,0,0,0,.3,1.35.19.19,0,0,0,.17.06,3.67,3.67,0,0,1,1.53-.35,9,9,0,0,0,1.35-.24,4.74,4.74,0,0,1-1.41,2.06,13.39,13.39,0,0,1-2.41,1.41,4.09,4.09,0,0,0-1.47,1.53,9.21,9.21,0,0,0-1.06,2.59,5.79,5.79,0,0,0,.18,3,11.38,11.38,0,0,1,.41,1.94,2.33,2.33,0,0,1-1.29,1.94,7.66,7.66,0,0,1-3.47,1,3.72,3.72,0,0,0,.18-2.82,4.47,4.47,0,0,1-.24-1.29.13.13,0,0,0-.12-.12c-.53,0-1.11.71-1.7,1.41a11.55,11.55,0,0,1-.88.94,5.1,5.1,0,0,1-3.41,1,4.92,4.92,0,0,0-1.35.12.53.53,0,0,1,0-.24,9.29,9.29,0,0,1,1-2.76,3.1,3.1,0,0,1,.88-.94,4.13,4.13,0,0,0,1-1s0-.06,0-.12c-.47-1.11-2-.82-3.59-.52a14.12,14.12,0,0,1-2,.23,4.19,4.19,0,0,1,.06-1.53,1.49,1.49,0,0,1,.47-1.06c1-1.11,2.47-.88,4-.64a8.45,8.45,0,0,0,3.17,0,16.7,16.7,0,0,0,2.88-2.88,18.81,18.81,0,0,0,2-3.53,7.19,7.19,0,0,0,.41-3.88,2.92,2.92,0,0,0-.88-1.59v.06a2.21,2.21,0,0,0-1.7-.53,7.55,7.55,0,0,0-3.41,1.29c.41-3.35-.71-4.58-2.36-6.46a1.65,1.65,0,0,1-.23-.3,28.16,28.16,0,0,1-1.82-2.17,4.67,4.67,0,0,1-1.18-2.18v-.41c-.06-2.41-.06-4,.82-5.64a22.87,22.87,0,0,1,1.18-2c.41-.71.82-1.35,1.12-1.94.47-.88.64-1.65.06-2a1.41,1.41,0,0,0-.65-2,12.16,12.16,0,0,0-4.06-1.41c-1.88-.35-3.17-.65-4.41-1a15.73,15.73,0,0,1-3.23-1.41,16.15,16.15,0,0,1-3.17-2.59,6.49,6.49,0,0,1-1.77-2.41,6.82,6.82,0,0,0,2.59-1.64.11.11,0,0,0-.06-.18c-2.47.12-4.76-1.29-6.76-2.47-1.47-.82-2.76-1.59-3.76-1.59a5.82,5.82,0,0,0-2.12.36,2.87,2.87,0,0,0-1.41,1.11c0,.06.06.18.12.18,1.82-.35,2.82.47,3.88,1.41a7.85,7.85,0,0,0,3.17,1.88,6.83,6.83,0,0,1-3.94.94,11.84,11.84,0,0,1-3.7-1.59,10.9,10.9,0,0,0-3.29-1.35,3.33,3.33,0,0,0-3.06.77c-.12,0-.06.17,0,.17a7.33,7.33,0,0,1,2.23,1.18,4,4,0,0,1,1.18,1.65c-1.12-.36-2.23-.71-3.29-1a12.82,12.82,0,0,0-3.18-.47,10.77,10.77,0,0,0-3.47.83c-.47.18-1,.29-1.47.47a11,11,0,0,0-4.17,1.76,3.86,3.86,0,0,1-.7.53,6,6,0,0,1-.77.24,4.25,4.25,0,0,0-1.59.76c0-.18,0-.41-.11-.59a4.22,4.22,0,0,1,.53-2.59,3.47,3.47,0,0,1,2.41-1.52c.23-.06.52-.06.76-.12s.18-.12.06-.18c-1.35-1.59-2.12-1.29-3.53-.76a10.56,10.56,0,0,1-1.12.41.93.93,0,0,0-.47.47,3.92,3.92,0,0,0-.29.71c-.94-2.12-.12-3.18,1.18-3.71a13.44,13.44,0,0,1,4.35-.53s.11-.06.11-.17a3.59,3.59,0,0,0-1-1.3,3.84,3.84,0,0,0-1.53-.35c-.12,0-.24-.06-.36-.06a1.71,1.71,0,0,0-1.11-.06,2.72,2.72,0,0,1,.53-1.52,1.53,1.53,0,0,1,1.29-.53,8.24,8.24,0,0,1,3.82,1.41,9.12,9.12,0,0,0,4.65,1.53,11,11,0,0,0,4-.89,19.38,19.38,0,0,0,3.59-2c.53-.35.94-.64,1.41-.94a18.66,18.66,0,0,1,4.88-2.82,2.84,2.84,0,0,0,1.88.65,12.05,12.05,0,0,0,3.12-.53,3.94,3.94,0,0,1,.88-.23,9.88,9.88,0,0,0,3.47-1.3,8,8,0,0,0,1.94-2.06,7.4,7.4,0,0,0,.88-2.41c0-.06-.18-.12-.24-.06a6.51,6.51,0,0,1-4.17,2.3,6.14,6.14,0,0,0-1.94.64A16.49,16.49,0,0,1,94.47,157a3.8,3.8,0,0,1-2.12.36,8.42,8.42,0,0,1,1.41-3.47,6.33,6.33,0,0,1,2.71-2.29,33.27,33.27,0,0,1,3.82-1.47c2.76-.94,5.11-1.71,5.47-3.35,0-.06-.06-.18-.12-.12a15,15,0,0,1-5.06.7,13.17,13.17,0,0,0-2.11.12,2.72,2.72,0,0,1,1.41-1.7,18.44,18.44,0,0,1,3.35-1.41c.47-.18,1-.3,1.53-.47,1.59-.48,3.47-1,4.41-2a2,2,0,0,0,.64-1.24,1.38,1.38,0,0,0,0-.7,1,1,0,0,0-.35-.53.82.82,0,0,0-.64-.3,4.07,4.07,0,0,0-2.06.53,16.59,16.59,0,0,0-2.53,1.71,8.39,8.39,0,0,1-2.76-2.3,2.42,2.42,0,0,1-.36-2.23c3.35.47,5.47.53,6.76.18a2.61,2.61,0,0,0,2.12-2.41,2.73,2.73,0,0,0-.76-2.18,6,6,0,0,0-1.47-1.06,6.24,6.24,0,0,0-1.94-.64,7.93,7.93,0,0,0-6.65,2.11,2.34,2.34,0,0,1-1.17-.94,1.88,1.88,0,0,1-.24-1,1.79,1.79,0,0,1,.41-.94,2.07,2.07,0,0,1,1.24-.82c.12-.06.12-.24,0-.24a2.6,2.6,0,0,0-.59,0,4.75,4.75,0,0,1-1.47-.36c-.18-.12-.18-.29,0-.59l.53-1a19.51,19.51,0,0,1,5.41-.89,3.81,3.81,0,0,1,2.82,1.53.22.22,0,0,0,.18.06,6.53,6.53,0,0,1,2.35-1.06c1.11-.41,2.11-.7,2.53-1.47,0-.06,0-.17-.06-.17-1.36.17-2.53.23-3.59.29a15.27,15.27,0,0,1-2.58-.18,2.07,2.07,0,0,1-1.36-.82,1.4,1.4,0,0,1-.17-.65,1.18,1.18,0,0,1,.23-.58,1.78,1.78,0,0,1,1.35-.71,8.3,8.3,0,0,1,2.12,0c.82.12,1.76.29,2.76.47H110c3-2.17,4.94-1.65,7.23-1a15.27,15.27,0,0,0,6.47.65l-.11.12Z"/><path class="cls-3" d="M68.61,134.57a1.76,1.76,0,0,1,.88.41c.12.12.23.18.29.24a3.59,3.59,0,0,1,1.47.88,4.21,4.21,0,0,1,.88,1.35c0,.12,0,.17-.11.17a2.43,2.43,0,0,1-1.59-.58,3.08,3.08,0,0,0-3.06-.47c1.77,3.76,3.06,4,6.23,4.52.71.18,1.59.3,2.59.53A6.22,6.22,0,0,1,79,142.86a2.84,2.84,0,0,1,1,1.23,2.64,2.64,0,0,1,.12,1.53,4.47,4.47,0,0,1-.88,1.76,11.7,11.7,0,0,0,3-.58c1.42-.36,2.65-.65,3.41-.3a.18.18,0,0,1,0,.24A4.36,4.36,0,0,0,84,147.85a16.13,16.13,0,0,1-4.29,2.88,5.07,5.07,0,0,0,2.59.48,7.23,7.23,0,0,0,2.88-1c.11,0,.29-.17.53-.29,1.11-.71,3.11-2,4.52-.94.06.06,0,.23-.12.23-1.52,0-2.29.89-3.17,2a9,9,0,0,1-2.7,2.59,9,9,0,0,0,6-.94A12.12,12.12,0,0,0,93.83,149a11.57,11.57,0,0,1,2.35-2.71,8.09,8.09,0,0,0,.7-.64,17.09,17.09,0,0,0-3.11-.3,23.78,23.78,0,0,1-3-.17,22.8,22.8,0,0,1-3.12-.82A13.12,13.12,0,0,1,85,143a15.59,15.59,0,0,1-3.53-3.11A9.75,9.75,0,0,1,79.66,137a10.16,10.16,0,0,1-.41-1c-.83-2.06-1.65-4.06-4.65-3.71a18.54,18.54,0,0,1,1.12,2.12,6.18,6.18,0,0,1,.59,2.06.13.13,0,0,1-.24.06,8,8,0,0,0-2.88-3.3,4.44,4.44,0,0,0-1.53-.53,2.75,2.75,0,0,0-1.53.36,4,4,0,0,0-1.52,1.47Z"/><path class="cls-3" d="M79.72,196.3c.23,0,.53-.06.82-.06s.41-.06.59-.06a5.14,5.14,0,0,1,2.7-.06,1.4,1.4,0,0,1,1,1.35c0,.06,0,.18-.11.18-.47,0-.94-.06-1.42-.06a6.12,6.12,0,0,0-2.88.3,4.23,4.23,0,0,0-1.58,1.23,3.94,3.94,0,0,0-.71,1.76,1.66,1.66,0,0,0,.12.89,4.77,4.77,0,0,0,.29,1,6.81,6.81,0,0,1,2.59-2.29,5,5,0,0,1,3.35-.23c.12,0,.12.12,0,.17A9.25,9.25,0,0,0,82,202.59a5.2,5.2,0,0,0-1.11,2.23,7.94,7.94,0,0,1,2.64.12c1,.18,1.88.35,2.47-.18a7.31,7.31,0,0,0,.77-.94,24.58,24.58,0,0,1,1.7-1.94,5.28,5.28,0,0,1,.82-.58,6.06,6.06,0,0,1,.83-.24,32.09,32.09,0,0,1,6.11.12,6.1,6.1,0,0,1,2.88,1.06,2.07,2.07,0,0,0-.53-1.36,7,7,0,0,0-2.29-1.53.17.17,0,0,1,0-.23c2-1.06,4.11-.41,6.23.29,2.47.83,4.88,1.59,7.17-.41a4.08,4.08,0,0,1-2.29-1.11,5.05,5.05,0,0,0-4-1.42c-.06,0-.11-.11-.11-.17a3.65,3.65,0,0,1,1.52-1.47,5.25,5.25,0,0,1,2.41-.59,8.9,8.9,0,0,1,2.89.59,7.88,7.88,0,0,0,3.29.53,7.59,7.59,0,0,1-.94-6,19,19,0,0,1,2.88-5.82,3.77,3.77,0,0,0-2.94.35,14.71,14.71,0,0,0-3.59,2.77c-.06.11-.17,0-.17-.12a9.28,9.28,0,0,1,1.94-3.65,5.75,5.75,0,0,1,2.35-1.76,12.54,12.54,0,0,0-3.82.35,16.13,16.13,0,0,0-4.94,2.12c-.12,0-.18-.06-.18-.12a3.44,3.44,0,0,1,1.41-2.35,18.38,18.38,0,0,1,2.59-1.41,4.92,4.92,0,0,0,1.53-.94c.35-.24.64-.41.94-.59a14.53,14.53,0,0,0-2.94.29c-.82.12-1.71.3-2.71.36-.52.06-1.05.06-1.58.11a20.56,20.56,0,0,0-2.71.18A6.14,6.14,0,0,0,97.12,181a4.41,4.41,0,0,0-.94,3.35,7.84,7.84,0,0,0,1.35,3.35A6.42,6.42,0,0,1,98.94,192a3.79,3.79,0,0,1-2.47,3.41,11,11,0,0,1-4.35.7c-.82,0-1.64-.06-2.35-.12a9.36,9.36,0,0,1-1.82-.47,11.3,11.3,0,0,1-1.47-.76,6.84,6.84,0,0,0-2.59-1,4.29,4.29,0,0,0-2.7.65,4,4,0,0,0-1.47,1.94Z"/><path class="cls-3" d="M89.18,133.92A3.69,3.69,0,0,0,90.89,136a6.62,6.62,0,0,0,3.53,1,12.86,12.86,0,0,0,4.11-1.24,16.8,16.8,0,0,1,7.58-1.88,16.38,16.38,0,0,0-8.64.59,11.77,11.77,0,0,1-3.17.65,9.91,9.91,0,0,1-3.18-.3,6.61,6.61,0,0,1-1.94-.88Z"/><path class="cls-1" d="M120.34,185c.06-.06.18,0,.18.12a17.05,17.05,0,0,0-.53,2.52,18.36,18.36,0,0,0-.12,2.59,9.17,9.17,0,0,0,1.12,3.94,7,7,0,0,1,.82,4.82c0,.06-.18.12-.23,0a22,22,0,0,0-1.94-3.58,9,9,0,0,1-1.65-3.77,8.33,8.33,0,0,1,.53-3.52,9.07,9.07,0,0,1,1.82-3.12Z"/><path class="cls-1" d="M109.41,174.19a5.93,5.93,0,0,0,2.47,1.59,8.42,8.42,0,0,0,3.4.53,8.12,8.12,0,0,0,5.12-2.06,5.8,5.8,0,0,1,.71-.47.16.16,0,0,0-.12-.23,28.06,28.06,0,0,1-6.06.88,22.55,22.55,0,0,1-5.41-.42c-.11,0-.23.13-.11.18Z"/><path class="cls-1" d="M104.41,171.13a7.46,7.46,0,0,0,2.7,1.47,10.37,10.37,0,0,0,3.36.53,9.86,9.86,0,0,0,3.7-.94,6.65,6.65,0,0,0,2.59-2.29.13.13,0,0,0-.18-.18,10.84,10.84,0,0,1-3.23,1.36,16.58,16.58,0,0,1-3.71.64,13,13,0,0,1-2.64-.12,8.44,8.44,0,0,1-2.41-.7c-.12,0-.24.12-.18.23Z"/><path class="cls-1" d="M99.53,164.08a4.32,4.32,0,0,1,2.41,1.24c1.47,1.05,3.12,2.35,5.94,1.35a.18.18,0,0,0,0-.24,12.87,12.87,0,0,1-2.35-1.29c-1.71-1.18-3.47-2.41-6.06-1.29-.06.05-.06.23.06.23Z"/><path class="cls-1" d="M108.23,163.37a7.09,7.09,0,0,1,4.06-1.58,7,7,0,0,0,2.64-.65,6.39,6.39,0,0,0,3.41-3.64c.41-1.47.12-3.35-1.17-5.59-.06-.12-.24,0-.24.12a5,5,0,0,1-.06,3.23A5.74,5.74,0,0,1,114.7,158c-.77.53-1.59.94-2.41,1.41-1.94,1.06-3.82,2-4.29,3.88,0,.11.11.17.23.11Z"/><path class="cls-1" d="M99.65,161.44a11.57,11.57,0,0,1,4.11-1.06,12.94,12.94,0,0,0,3.82-.88,6.55,6.55,0,0,0,3.36-3.18,6,6,0,0,0-.12-4.59s-.18,0-.18,0c-1.35,3.24-3.17,4.06-5.58,5.06a19.75,19.75,0,0,0-2,.88,11.12,11.12,0,0,0-2.94,1.94c-.59.59-.88,1.18-.65,1.77,0,.06.12.11.18.06Z"/></g></g></svg>