<svg xmlns="http://www.w3.org/2000/svg" xmlns:xlink="http://www.w3.org/1999/xlink" viewBox="0 0 224.19 300"><defs><style>.cls-1{fill:none;}.cls-2{fill:#005dab;}.cls-3{fill:#fff000;}.cls-4{clip-path:url(#clip-path);}.cls-5{fill:#2e4597;}.cls-6{fill:#fff;}.cls-7{fill:#ee2e24;}.cls-8{fill:#1464b0;}</style><clipPath id="clip-path"><rect class="cls-1" width="224.19" height="300"/></clipPath></defs><title>Steaua_Bucuresti</title><g id="Слой_2" data-name="Слой 2"><g id="Слой_1-2" data-name="Слой 1"><path class="cls-2" d="M162.73,0l-7.25,12.41L141.84,9.46l9.46,10.82-6.88,12.17,13-5.78,9.46,10.44-1.35-14.25,12.65-5.78L164.33,14Z"/><path class="cls-3" d="M162.12,2.83,156,13.4l-11.68-2.46,8.12,9.22-5.9,10.32,11.18-4.91,8,8.84-1.11-12.16,10.82-4.92-11.92-2.58Z"/><path class="cls-2" d="M64.29,0l7.37,12.41L85.3,9.46,75.84,20.28l7,12.17L69.69,26.67,60.23,37.11l1.35-14.25L48.8,17.08l14-3.07Z"/><path class="cls-3" d="M65,2.83,71.17,13.4l11.67-2.46-8.11,9.22,5.9,10.32L69.45,25.57l-8,8.84,1.23-12.16L51.75,17.33l11.92-2.58Z"/><g class="cls-4"><path class="cls-5" d="M112.09,26.18c-9.34,10.2-23.1,16.59-37,16.47-14.13,0-26.54-6.52-36.62-16.47L.14,77.55c12.4,9.22,23,22.61,23.1,40.44C23.36,137.89-.6,159,0,193.81c.74,39.58,22.61,66.25,61.58,73.25,24.57,4.55,35.51,13.28,50.5,32.94,15-19.66,25.94-28.39,50.52-32.94,39-7,60.84-33.67,61.57-73.25C224.8,159,200.83,137.89,201,118c.13-17.83,10.7-31.22,23.11-40.44L185.71,26.18c-10.2,10-22.61,16.47-36.62,16.47a50.59,50.59,0,0,1-37-16.47"/></g><g class="cls-4"><path class="cls-2" d="M112.09,26.18c-9.34,10.2-23.1,16.59-37,16.47-14.13,0-26.54-6.52-36.62-16.47L.14,77.55c12.4,9.22,23,22.61,23.1,40.44C23.36,137.89-.6,159,0,193.81c.74,39.58,22.61,66.25,61.58,73.25,24.57,4.55,35.51,13.28,50.5,32.94,15-19.66,25.94-28.39,50.52-32.94,39-7,60.84-33.67,61.57-73.25C224.8,159,200.83,137.89,201,118c.13-17.83,10.7-31.22,23.11-40.44L185.71,26.18c-10.2,10-22.61,16.47-36.62,16.47a50.59,50.59,0,0,1-37-16.47"/></g><path class="cls-6" d="M112.09,27.53A56.18,56.18,0,0,1,95.5,39.21a51.25,51.25,0,0,1-20.4,4.42,49.21,49.21,0,0,1-19.41-4.3A61.6,61.6,0,0,1,38.6,27.53L1.36,77.43A62.61,62.61,0,0,1,18.08,95.74a44.61,44.61,0,0,1,6,22.25c.12,8.84-4.3,17.57-9.34,27.77C8.24,158.91.5,174.15.87,193.81s6,36,16.35,48.43c10.32,12.16,25.31,20.52,44.49,24,12.41,2.34,21.38,5.65,29.25,10.94,7.49,5,13.76,11.92,21.13,21.38,7.26-9.46,13.65-16.34,21.14-21.38,7.87-5.29,16.72-8.6,29.13-10.94,19.3-3.44,34.29-11.8,44.49-24,10.44-12.42,16-28.76,16.34-48.43s-7.12-34.9-13.76-48.05c-5-10.2-9.46-18.93-9.46-27.77a45.85,45.85,0,0,1,6.14-22.25,62.75,62.75,0,0,1,16.72-18.31l-37.12-49.9a64,64,0,0,1-17.21,11.8,49.21,49.21,0,0,1-19.41,4.3,51.57,51.57,0,0,1-20.4-4.43,53.09,53.09,0,0,1-16.6-11.67"/><path class="cls-2" d="M112.09,33.55a62.91,62.91,0,0,1-14.86,9.59A55.63,55.63,0,0,1,75.1,47.93,53,53,0,0,1,54,43.26a66.18,66.18,0,0,1-14.75-9.34l-32,42.65C12.92,81.48,18.08,87,21.76,93.65A48,48,0,0,1,28.4,118a31.14,31.14,0,0,1-1.23,9.47H197a36,36,0,0,1-1.36-9.47,50.68,50.68,0,0,1,6.64-24.33,66.65,66.65,0,0,1,14.51-17.08L185,33.92a68.45,68.45,0,0,1-14.62,9.34,54.11,54.11,0,0,1-21.26,4.67A55.55,55.55,0,0,1,127,43.14a58.5,58.5,0,0,1-14.88-9.59"/><path class="cls-2" d="M134.83,271c7.37-4.17,15.85-7,26.79-9a91.41,91.41,0,0,0,17.58-5V130.28H134.83Z"/><path class="cls-2" d="M45,257a90.28,90.28,0,0,0,17.45,5c11.07,2,19.55,4.79,26.92,9V130.27H45Z"/><path class="cls-7" d="M179.2,257a63.67,63.67,0,0,0,24.34-17.45c9.7-11.68,15-27.16,15.35-45.84s-7-33.3-13.39-46a138.43,138.43,0,0,1-7.74-17.45H179.2V257"/><path class="cls-7" d="M89.36,271c1.35.87,2.7,1.73,4.06,2.47,6.63,4.66,12.41,10.44,18.67,18.06,6.15-7.62,12-13.4,18.81-18.06,1.23-.74,2.58-1.6,3.93-2.47V130.28H89.36Z"/><path class="cls-7" d="M26.31,130.27a138.43,138.43,0,0,1-7.74,17.45c-6.27,12.66-13.64,27.41-13.39,46,.49,18.68,5.65,34.16,15.36,45.84A64.18,64.18,0,0,0,45,257V130.27Z"/><path class="cls-6" d="M31.23,100.66H41.8A6,6,0,0,1,45.86,102a4.46,4.46,0,0,1,1.35,3.19,4.61,4.61,0,0,1-1,2.83,4.38,4.38,0,0,1-2,1.11,5.21,5.21,0,0,1,2.82,1.72,4.36,4.36,0,0,1,1,2.83,5.14,5.14,0,0,1-.62,2.45A4.43,4.43,0,0,1,45.61,118a7.17,7.17,0,0,1-2.09.61c-1.35.12-2.09.25-2.58.25H31.23V100.66"/><path class="cls-8" d="M37,114.91h2.83a2.72,2.72,0,0,0,2-.49,1.8,1.8,0,0,0,0-2.7,3.47,3.47,0,0,0-2-.49H37Z"/><path class="cls-8" d="M37,107.91h2.34a3,3,0,0,0,1.84-.49,1.69,1.69,0,0,0,.49-1.36,1.43,1.43,0,0,0-.49-1.23,2.88,2.88,0,0,0-1.72-.49H37Z"/><path class="cls-6" d="M62.07,100.66h5.66v10.81a12.71,12.71,0,0,1-.49,3.08,11.19,11.19,0,0,1-1.6,2.58,7.44,7.44,0,0,1-2.21,1.35,10.23,10.23,0,0,1-3.93.74,26.86,26.86,0,0,1-3-.25,7.88,7.88,0,0,1-2.58-.74,7.46,7.46,0,0,1-2-1.47,7.73,7.73,0,0,1-1.23-2.09,16.74,16.74,0,0,1-.5-3.2V100.66h5.66v11.06a2.74,2.74,0,0,0,.86,2.33,3.27,3.27,0,0,0,4.42,0,2.72,2.72,0,0,0,.86-2.33V100.66"/><path class="cls-6" d="M83.46,111.47l4.92,1.47a9.89,9.89,0,0,1-1.6,3.45,7.67,7.67,0,0,1-2.7,2.09,9.06,9.06,0,0,1-3.94.73,10.6,10.6,0,0,1-4.79-1,7.44,7.44,0,0,1-3.32-3,10.83,10.83,0,0,1-1.35-5.53,9.38,9.38,0,0,1,2.46-6.88,9.1,9.1,0,0,1,6.76-2.46,10,10,0,0,1,5.4,1.35,8.52,8.52,0,0,1,2.83,4.3l-4.91,1.11a4.09,4.09,0,0,0-.5-1.23,4.71,4.71,0,0,0-1.23-1,2.58,2.58,0,0,0-1.47-.37,3.2,3.2,0,0,0-3,1.59,6.54,6.54,0,0,0-.74,3.44,7.87,7.87,0,0,0,.86,4.19,3,3,0,0,0,2.58,1.1,3.18,3.18,0,0,0,2.46-.86,5,5,0,0,0,1.23-2.58"/><path class="cls-6" d="M102.76,100.66h5.53v10.81a8.73,8.73,0,0,1-.49,3.08,10.71,10.71,0,0,1-1.48,2.58,9.92,9.92,0,0,1-6.27,2.09,27.07,27.07,0,0,1-2.82-.25,7.74,7.74,0,0,1-2.58-.74,9.92,9.92,0,0,1-1.85-1.47,8,8,0,0,1-1.23-2.09,10.66,10.66,0,0,1-.49-3.2V100.66h5.53v11.06a2.74,2.74,0,0,0,.86,2.33,2.86,2.86,0,0,0,2.09.86,3,3,0,0,0,2.33-.86,2.72,2.72,0,0,0,.87-2.33V100.66"/><path class="cls-6" d="M112.09,118.85V100.66h9.22a14.81,14.81,0,0,1,4.06.49,4.9,4.9,0,0,1,2.21,1.6,5,5,0,0,1,.86,3.07,4.85,4.85,0,0,1-.73,2.58,4.61,4.61,0,0,1-1.73,1.72,6,6,0,0,1-2,.74,4.24,4.24,0,0,1,1.47.61c.25.12.49.5,1,1a7.4,7.4,0,0,1,.74,1.1l2.7,5.29h-6.39l-2.94-5.53a9.75,9.75,0,0,0-1-1.48,2.75,2.75,0,0,0-1.35-.37h-.49v7.38Z"/><path class="cls-8" d="M117.75,108h2.34a4.26,4.26,0,0,0,1.47-.25c.37,0,.61-.24.86-.61a1.38,1.38,0,0,0,.37-1,1.84,1.84,0,0,0-.49-1.35,4,4,0,0,0-2.09-.49h-2.46Z"/><path class="cls-6" d="M131.64,100.66h15v3.93h-9.34v2.83H146v3.68h-8.73v3.69h9.59v4.06H131.64Z"/><path class="cls-6" d="M149,112.82l5.28-.24a4.74,4.74,0,0,0,.74,2,2.73,2.73,0,0,0,2.46,1,3,3,0,0,0,1.84-.49,1.76,1.76,0,0,0,.61-1.35,1.71,1.71,0,0,0-.61-1.24,7.36,7.36,0,0,0-2.95-1.1,11.36,11.36,0,0,1-5.16-2.09,4.84,4.84,0,0,1-1.6-3.56,4.36,4.36,0,0,1,.86-2.58,4.52,4.52,0,0,1,2.46-2,10.28,10.28,0,0,1,4.42-.74c2.34,0,4.06.37,5.29,1.35,1.23.74,1.84,2.22,2.09,4.06l-5.16.37a3.32,3.32,0,0,0-1-1.84,2.52,2.52,0,0,0-1.84-.5,2.62,2.62,0,0,0-1.47.37,1.53,1.53,0,0,0-.5,1,.93.93,0,0,0,.5.86,10.2,10.2,0,0,0,1.84.61,21.58,21.58,0,0,1,5.16,1.6,4.87,4.87,0,0,1,3.07,4.67,6.12,6.12,0,0,1-1,3.19,5.59,5.59,0,0,1-2.58,2.21,9.76,9.76,0,0,1-4.43.87c-3.07,0-5.28-.74-6.39-1.85a6.7,6.7,0,0,1-2-4.55"/><path class="cls-6" d="M166.91,100.66h17v4.55h-5.78v13.64h-5.53V105.21h-5.65Z"/><path class="cls-6" d="M186.57,100.66h5.66v18.19h-5.66Z"/><path class="cls-6" d="M25.82,75.34l9.71-.86A12.42,12.42,0,0,0,36.88,79a4.9,4.9,0,0,0,4.42,2.46,4.09,4.09,0,0,0,3.32-1.23,4,4,0,0,0,1.23-3,4.47,4.47,0,0,0-1.1-3c-.74-.86-2.46-1.59-5.29-2.33-4.42-1.23-7.62-3-9.46-5a11,11,0,0,1-2.95-8,12.3,12.3,0,0,1,1.48-5.9A9.61,9.61,0,0,1,33,48.67,16.52,16.52,0,0,1,41.06,47c4.3,0,7.5,1,9.71,2.95s3.56,5,3.93,9.34L45.11,60a8.84,8.84,0,0,0-1.6-4,4.54,4.54,0,0,0-3.44-1.23,3.8,3.8,0,0,0-2.7.86,3.07,3.07,0,0,0-.86,2.34,3,3,0,0,0,.74,1.84,8.4,8.4,0,0,0,3.44,1.48c4.42,1.22,7.62,2.33,9.58,3.56a11.54,11.54,0,0,1,4.18,4.67,13.57,13.57,0,0,1,1.35,6,16.35,16.35,0,0,1-1.71,7.37,12.35,12.35,0,0,1-5,5,16.52,16.52,0,0,1-7.87,1.72c-5.65,0-9.58-1.35-11.67-4a17.07,17.07,0,0,1-3.69-10.2"/><path class="cls-6" d="M57.41,61.33H80.76v7H72.89V89.1H65.27V68.33H57.41Z"/><path class="cls-6" d="M85.18,61.33h20.4v6H92.8v4.42h11.92v5.66H92.8v5.4H106V89.1H85.18Z"/><path class="cls-6" d="M126.47,84.56h-8.84L116.4,89.1h-7.74L118,61.33h8.35l9.34,27.77h-8.11Z"/><path class="cls-8" d="M124.76,78.54l-2.71-10-2.82,10Z"/><path class="cls-6" d="M154,61.33h7.73V77.92a14.38,14.38,0,0,1-.73,4.67,12.74,12.74,0,0,1-2.09,3.81,10.55,10.55,0,0,1-3.19,2.33,13.56,13.56,0,0,1-5.29.86c-1.23,0-2.58-.12-3.93-.24a14.86,14.86,0,0,1-3.69-1.11,11.4,11.4,0,0,1-2.58-2.33,10.32,10.32,0,0,1-1.6-3.32,17.55,17.55,0,0,1-.74-4.67V61.33h7.63v17a5.86,5.86,0,0,0,1.1,3.56,3.9,3.9,0,0,0,3.07,1.23,4.42,4.42,0,0,0,3.2-1.1A5.79,5.79,0,0,0,154,78.29v-17"/><path class="cls-6" d="M185.59,82.34h-12l-1.73,6.76H161.13l12.78-41h11.56l12.9,41H187.19Z"/><path class="cls-8" d="M183.38,74.36,179.56,61l-3.06,13.4Z"/><path class="cls-3" d="M111.48,146l12.29,36.5h39.82l-32.2,22.61,12.29,36.5L111.48,219l-32.2,22.61,12.41-36.5L59.37,182.51H99.19Z"/></g></g></svg>