<svg xmlns="http://www.w3.org/2000/svg" viewBox="0 0 255.97 300"><defs><style>.cls-1{fill:#fff;}.cls-2,.cls-7,.cls-8{fill:#1b449c;}.cls-3,.cls-4{fill:#e03a3e;}.cls-4{stroke:#e03a3e;stroke-width:0.66px;}.cls-5,.cls-6{fill:none;}.cls-5,.cls-6,.cls-7,.cls-8{stroke:#1b449c;}.cls-5{stroke-width:0.75px;}.cls-6{stroke-width:0.76px;}.cls-7{stroke-width:0.63px;}.cls-8{stroke-width:0.68px;}</style></defs><title>Stoke_City</title><g id="Слой_2" data-name="Слой 2"><g id="Слой_1-2" data-name="Слой 1"><g id="g4311"><path id="path4313" class="cls-1" d="M251.55,205l-.09-.09L239.1,194.09l-2.64-2.41a16.51,16.51,0,0,0-13-5.34,17.69,17.69,0,0,0-3.25.29,134.29,134.29,0,0,0,2.5-16.63c.35-4.06.54-8.07.56-11.94,0-.08,0-1.54,0-1.54l-.08-3.16V0H32.56V153.35l-.08,3.17v1.54c0,3.87.21,7.89.57,11.94a134.28,134.28,0,0,0,2.49,16.61,17,17,0,0,0-3.1-.27,16.51,16.51,0,0,0-13,5.34l-2.63,2.41L4.5,204.91l-.09.09C.14,209.26-.28,213.41.12,216.14c1.13,7.77,11,13.51,12,14.05l5.79-4.54c4.09-1.6,6.46.64,6.46.64.4.24,1.78,1.36,2.64,5.9l.49,2.62L22,239.57,24,242.42a123.12,123.12,0,0,0,11.59,15C60.27,285.29,92.11,300,127.62,300h.57c35.52,0,67.35-14.71,92.07-42.55a121.37,121.37,0,0,0,11.6-15l1.95-2.85-5.37-4.65.52-2.73c.86-4.54,2.24-5.66,2.64-5.9,0,0,2.36-2.24,6.45-.64l5.8,4.54c1-.54,10.87-6.28,12-14.05.4-2.73,0-6.88-4.3-11.14Z"/><path id="path4315" class="cls-2" d="M236.68,196.22S243,209.62,224,211l19.57,15.33s15.68-9.17,5.81-19l-12.66-11.13Z"/><path id="path4317" class="cls-3" d="M232.76,204.93c3.47-3.65.14-9.79.14-9.79s-3-5.65-9.07-5.37a13.76,13.76,0,0,0-4.48.72,97.32,97.32,0,0,1-4.59,13.91h0a99.07,99.07,0,0,1-6.66,12.94l2.28,2L225.1,232c1.82-12.46,8.81-9.42,8.81-9.42l-16.5-13.13c12.56-.48,15.35-4.53,15.35-4.53Z"/><path id="path4319" class="cls-2" d="M19.13,196.37s-6.27,13.4,12.72,14.81L12.29,226.51s-15.69-9.17-5.82-19l12.66-11.13Z"/><path id="path4321" class="cls-3" d="M23.05,205.08c-3.47-3.65-.14-9.79-.14-9.79s3-5.64,9.07-5.37a13.48,13.48,0,0,1,4.48.73,97.19,97.19,0,0,0,4.59,13.9h0a96.15,96.15,0,0,0,6.65,12.94l-2.28,2-14.7,12.69c-1.82-12.46-8.81-9.41-8.81-9.41l16.5-13.14c-12.55-.48-15.35-4.53-15.35-4.53Z"/><path id="path4323" class="cls-2" d="M203.1,218.1A97.7,97.7,0,0,0,211.19,203l-.08.19c4.06-9.54,6.68-20.81,7.8-33.49.34-3.92.53-7.83.55-11.62v-1.52c0-1.1,0-2.05-.07-2.9V3.87h-183V153.62c-.05.85-.07,1.8-.07,2.9,0,.48,0,1,0,1.52,0,3.79.2,7.7.55,11.62C38,182.27,40.62,193.49,44.64,203a98.5,98.5,0,0,0,8,15.14L27.14,240.23a118.2,118.2,0,0,0,11.3,14.65c24,27,54.81,41.26,89.18,41.26h.57c34.38,0,65.22-14.27,89.18-41.26a117,117,0,0,0,11.3-14.65L203.1,218.1Z"/><path id="path4325" class="cls-1" d="M127.91,12.26H44.82v141.5s-1.35,25.05,7.61,46.11c0,0,21.28,54.31,75.19,54.31h.29c53.91,0,75.48-54.31,75.48-54.31,9-21.06,7.61-46.11,7.61-46.11V12.26Z"/><polygon id="polygon4327" class="cls-3" points="112.5 92.69 143.16 92.69 143.16 212.6 112.5 212.6 112.5 92.69"/><path id="path4329" class="cls-3" d="M87.31,47.37V27.17a32.17,32.17,0,0,0-11.74,2.88L78,22.56h29.75l-3.2,6.64a20.2,20.2,0,0,0-8.8-2v20.2a19.78,19.78,0,0,0,1.71,8.73H85.6a19.78,19.78,0,0,0,1.71-8.73Z"/><path id="path4331" class="cls-3" d="M144.65,47.37V31.29a19.92,19.92,0,0,0-1.7-8.73h11.83a19.78,19.78,0,0,0-1.71,8.73v6.47l10.24-11.61a5,5,0,0,0,1.55-3.2c0-.13-.05-.26-.05-.39H178a35.73,35.73,0,0,0-7.2,5.45L162,37.53,174,51.63a41.51,41.51,0,0,0,4.64,4.47H165.4a9.76,9.76,0,0,0,.1-1.15,5.65,5.65,0,0,0-1.65-3.68L153.07,38.33v9a19.78,19.78,0,0,0,1.71,8.73H143a19.92,19.92,0,0,0,1.7-8.73Z"/><path id="path4333" class="cls-3" d="M181.87,47.37V31.29a19.78,19.78,0,0,0-1.71-8.73H203l-3.79,6.56a26.37,26.37,0,0,0-8.95-1.51v9.26h11.57l-4.32,6.07A12.32,12.32,0,0,0,191,41.48h-.74V51.1c1.11,0,2.24.09,3.3.09a35.14,35.14,0,0,0,12.16-1.78l-3.2,6.69h-22.4a19.78,19.78,0,0,0,1.71-8.73Z"/><path id="path4335" class="cls-4" d="M102.78,67c-4.59,0-7.84,3-7.84,7.8s3.39,7.93,8.46,7.93a8.73,8.73,0,0,0,6.89-3l-.75,5.1a22,22,0,0,1-7.78,1.38A14,14,0,0,1,93.84,84a9.66,9.66,0,0,1-4.76-8.45A11.07,11.07,0,0,1,94,66.39a16.89,16.89,0,0,1,9.87-3,22.91,22.91,0,0,1,6,.88v5.57A10.65,10.65,0,0,0,102.78,67Z"/><path id="path4337" class="cls-4" d="M114.55,80.12V69.42a13.58,13.58,0,0,0-1.1-5.8h7.61a13.58,13.58,0,0,0-1.1,5.8v10.7a13.58,13.58,0,0,0,1.1,5.8h-7.61a13.58,13.58,0,0,0,1.1-5.8Z"/><path id="path4339" class="cls-4" d="M130.59,80.12V66.68A20.24,20.24,0,0,0,123,68.6l1.55-5h19.12L141.65,68A12.56,12.56,0,0,0,136,66.68V80.12a13.58,13.58,0,0,0,1.09,5.8h-7.6a13.58,13.58,0,0,0,1.1-5.8Z"/><path id="path4341" class="cls-4" d="M160.43,85.92h-7.6a13.58,13.58,0,0,0,1.09-5.8V75.49l-5.72-8.16a34.62,34.62,0,0,0-3.08-3.71h7.57a2.24,2.24,0,0,0,0,.5,2.52,2.52,0,0,0,.38,1.41l3.88,5.75L160.13,66a3.37,3.37,0,0,0,.48-1.65,5.05,5.05,0,0,0-.07-.68h6.92a19.48,19.48,0,0,0-3.32,3.8l-4.8,7.16v5.54a13.58,13.58,0,0,0,1.09,5.8Z"/><path id="path4343" class="cls-3" d="M123.21,26.34c-5.43,0-7.94,6.28-7.94,12.87s2.51,12.88,7.94,12.88,7.93-6.29,7.93-12.88-2.52-12.87-7.93-12.87Zm17.5,13c0,11.07-7.82,17-17.48,17s-17.47-5.66-17.47-17a17.48,17.48,0,0,1,35,0Z"/><path id="path4345" class="cls-2" d="M114.7,237c0-3.84.86-5.75,2.71-5.75s2.72,1.91,2.72,5.75-1,5.72-2.72,5.72c-2,0-2.71-1.85-2.71-5.72Zm6-7c2.46-.79,3.74-2.78,3.74-5.53,0-3.95-2.4-6.14-6.77-6.14-4.57,0-7.25,2.47-7.25,6.14,0,2.78,1.34,4.78,3.76,5.49v.27c-3.06.82-4.63,3.25-4.63,7,0,4.7,2.84,6.74,7.89,7.71s7.89-1.44,7.89-6.21c0-3.45-1.66-7.8-4.63-8.54V230Zm-5.81-5.17c0-2.94.86-4.46,2.55-4.46s2.53,1.4,2.53,4.46-.84,4.42-2.53,4.42-2.55-1.45-2.55-4.42Z"/><path id="path4347" class="cls-5" d="M114.7,237c0-3.84.86-5.75,2.71-5.75s2.72,1.91,2.72,5.75-1,5.72-2.72,5.72c-2,0-2.71-1.85-2.71-5.72Zm6-7c2.46-.79,3.74-2.78,3.74-5.53,0-3.95-2.4-6.14-6.77-6.14-4.57,0-7.25,2.47-7.25,6.14,0,2.78,1.34,4.78,3.76,5.49v.27c-3.06.82-4.63,3.25-4.63,7,0,4.7,2.84,6.74,7.89,7.71s7.89-1.44,7.89-6.21c0-3.45-1.66-7.8-4.63-8.54V230Zm-5.81-5.17c0-2.94.86-4.46,2.55-4.46s2.53,1.4,2.53,4.46-.84,4.42-2.53,4.42-2.55-1.45-2.55-4.42Z"/><path id="path4349" class="cls-2" d="M133,231v-.12c0-6.4,1.33-10.12,4.23-10.12,1.37,0,2.43.76,3.38,2.32l.2-.08a34.69,34.69,0,0,1,.44-3.8,16.58,16.58,0,0,0-5.35-.92c-6.32,0-8.46,7.21-8.46,17,0,7.49,2.83,11.12,8.11,10.28,4.8-.75,7.73-3.44,7.73-9.16,0-4.68-2.3-7.45-5.91-7.45a5.13,5.13,0,0,0-4.37,2Zm4.94,6.45c0,4-.79,6-2.39,6s-2.49-2-2.49-6.2c0-3.68.8-5.48,2.43-5.48,1.78,0,2.45,1.8,2.45,5.64Z"/><path id="path4351" class="cls-6" d="M133,231v-.12c0-6.4,1.33-10.12,4.23-10.12,1.37,0,2.43.76,3.38,2.32l.2-.08a34.69,34.69,0,0,1,.44-3.8,16.58,16.58,0,0,0-5.35-.92c-6.32,0-8.46,7.21-8.46,17,0,7.49,2.83,11.12,8.11,10.28,4.8-.75,7.73-3.44,7.73-9.16,0-4.68-2.3-7.45-5.91-7.45a5.13,5.13,0,0,0-4.37,2Zm4.94,6.45c0,4-.79,6-2.39,6s-2.49-2-2.49-6.2c0-3.68.8-5.48,2.43-5.48,1.78,0,2.45,1.8,2.45,5.64Z"/><path id="path4353" class="cls-7" d="M146.54,238.47a4.07,4.07,0,0,0,3.1,1.76c4.65-.19,4.11-7.52,4.11-7.52-.51-3.77-3.35-3.31-5.63-3.1-.38,0-.93.08-1.28.14l.08-2.75a5,5,0,0,0,.77,0c2.46-.22,4.13-1,4.6-3.39.28-1.48,0-3.79-2.53-3.72-2.82.07-3.27,2.16-4.07,3.25l-.33-.18-.31-3.25c1.46-1.75,5.17-2,5.17-2,3.8-.34,6.74,1.77,7,4.77.2,2.2-.6,3.1-3.29,4.36l0,.21c3.16-.18,4.4.87,5.13,3.08,1.18,3.56.81,12.73-14.78,13.44,0,0,1.26-1.41,1.7-4.91l.53-.18Z"/><path id="path4355" class="cls-8" d="M106.94,242.19a70.58,70.58,0,0,1-6.53-3.09,125.51,125.51,0,0,0,.69-14c0-.83-.07-1.4-.13-2.58-1.25.51-.74.08-2,.81l-1.37-2.1c3.32-1.11,4.7-1.24,8-3l.64.35c-.1,6.7,0,10.45,0,12.61,0,2.76.35,7.21.6,9.94.06.57.16,1.1.16,1.1Z"/><path id="path4357" class="cls-3" d="M83.39,228.76a82.42,82.42,0,0,1-7-6.92,94,94,0,0,1-16.2-25.05l-.05-.11,0-.1c-6.31-14.85-7-32.34-7-39.3,0-1.92,0-3,.06-3.08v-91h30.1l.08,165.58Z"/><path id="path4359" class="cls-3" d="M172.42,228.76a84,84,0,0,0,7-6.92,94.9,94.9,0,0,0,16.2-25.05l0-.11,0-.1c6.32-14.85,7-32.34,7-39.3,0-1.92,0-3,0-3.08v-91H172.5l-.08,165.58Z"/><path id="path4361" class="cls-1" d="M102.41,274.88a8.21,8.21,0,0,0,.9.26c4.48,1.17,7.25-.21,8.28-4.18.92-3.53-.54-5.49-4.33-6.48-1.57-.4-3.1-.62-4.5-1a17.82,17.82,0,0,1-1.86-.63c-.65,3.51-1.42,6.67-2.14,9.44-.65,2.49-1.45,5.58-2.71,9.25,1,.17,1.75.32,2.34.47s1.36.41,2.26.73c.4-2.32.68-3.71.8-4.15l1-3.72Zm.49-1.95,1.08-4.19c.19-.71.32-1.22.41-1.55,0-.14.14-.55.35-1.26a8,8,0,0,1,.89.15c1.8.47,2.43,1.83,1.86,4-.71,2.73-2,3.5-4.59,2.83Z"/><path id="path4363" class="cls-1" d="M114.9,276.73c0,6.3,3.38,9.75,9.44,9.75,6.26,0,9.85-3.84,9.85-10.47,0-6.16-3.48-9.61-9.42-9.6-6.13,0-9.87,3.74-9.87,10.32Zm4.56-.26c0-5.24,2-8.22,5.09-8.23s5.08,2.92,5.09,8.22-2.06,8.17-5.07,8.17-5.11-2.88-5.11-8.16Z"/><path id="path4365" class="cls-1" d="M145.14,267.71c.17,1.57.4,2.91.58,3.94.07.42.14.81.2,1.14.7,4.07,1.36,7.92,2.3,11.58-1.11.1-1.91.18-2.38.26s-1.37.29-2.32.54c-.32-3.5-.79-6.66-1.29-9.56-.26-1.53-.76-3.94-1.39-7.16a30.57,30.57,0,0,0-4.41,1.1c0-.53-.08-1-.15-1.46,0-.25-.16-.63-.31-1.21,2.71-.35,4.95-.65,6.65-.94s3.82-.75,6.56-1.34c.06.6.1,1,.14,1.24.07.42.19.92.33,1.44a30,30,0,0,0-4.51.43Z"/><path id="path4367" class="cls-1" d="M161.2,263c.42,1.53.87,2.81,1.22,3.8.14.4.26.77.38,1.09,1.36,3.9,2.65,7.58,4.17,11-1.06.29-1.84.5-2.29.66s-1.31.51-2.21.92c-.89-3.41-1.87-6.45-2.84-9.22-.52-1.47-1.4-3.77-2.55-6.84a30.56,30.56,0,0,0-4.17,1.82c-.13-.52-.25-1-.39-1.42-.09-.24-.27-.6-.51-1.15,2.62-.79,4.78-1.45,6.41-2s3.64-1.36,6.25-2.4c.15.58.26,1,.34,1.2a14.69,14.69,0,0,0,.56,1.36A31,31,0,0,0,161.2,263Z"/><path id="path4369" class="cls-1" d="M173.65,267.1c-.32-.57-.63-1.14-.94-1.71l-.57-1a79.68,79.68,0,0,0-4.37-7.28c2.13-1.07,3.59-1.8,4.36-2.23,1.18-.65,2.72-1.55,4.57-2.67.21.5.37.9.52,1.17s.39.6.69,1a37,37,0,0,0-3.57,1.72c-.48.27-1,.53-1.41.81.63,1.26,1.27,2.49,1.92,3.68l.73,1.32,4.69-2.86a11.14,11.14,0,0,0,.55,1.21c.12.22.37.57.71,1.09-1.71.78-3.36,1.59-4.93,2.41l1.47,2.71c.69,1.24,1.31,2.32,1.92,3.24a44.49,44.49,0,0,0,4.62-2.89c.22.49.4.88.58,1.2s.38.59.72,1.12c-2.57,1.31-4.44,2.27-5.58,2.9-.86.47-2,1.1-3.28,2a66.34,66.34,0,0,0-3.4-6.91Z"/><path id="path4371" class="cls-1" d="M191.74,264.66c.68-.64,1.24-1.15,1.7-1.5s1.06-.76,1.84-1.26c-1.21-1.31-2.35-2.69-3.46-4.11l-2.28-2.92a69,69,0,0,1,9.3,4.25c.7-.65,1.32-1.2,1.87-1.64s1.24-.89,2.24-1.56c-2.85-1-6.28-2.35-10.3-4.2,1.76-1.66,1.83-4,.16-6.15-2.17-2.78-4.52-2.82-7.5-.49-1.44,1.13-2.65,2.31-3.87,3.27-.46.36-1,.7-1.57,1.09,2.46,2.66,4.48,5.21,6.2,7.42l.61.78c1.48,1.89,3.21,4.16,5.06,7Zm-3.09-10.93-2.4-3.08c-.48-.62-1.14-1.47-1.9-2.56.28-.22.45-.32.51-.37,1.82-1.41,3.24-1.3,4.7.57,1.62,2.07,1.33,3.7-.83,5.38l-.08.06Z"/><path id="path4373" class="cls-1" d="M203,247.65l.28-.32c2.11,1.29,3.79,1.17,5.2-.43s1.23-3-.07-4.17-2.48-.64-4.7.21c-3.19,1.23-5.23,1.71-7.56-.34-2.72-2.39-2.95-5.73-.22-8.84a8.33,8.33,0,0,1,3.86-2.58,28.61,28.61,0,0,0,2.12,3.2l-.2.22c-2-.83-3.45-.66-4.59.64a2.52,2.52,0,0,0,0,3.75c1.25,1.1,2.51.4,5-.56,3-1.1,4.89-1.67,7.36.49,3,2.62,3.07,6.22.07,9.64A10.34,10.34,0,0,1,206,251.3c-1.06-1.33-2.06-2.54-3-3.65Z"/><path id="path4375" class="cls-3" d="M71.93,39c-1.17-.83-4-2.18-7.27-4.06-2.62-1.51-4.6-2.78-4.53-4.59S62,26.65,65,26.76s6.28,2.15,8.63,5L73.5,23.4A24.66,24.66,0,0,0,67,22.34c-9.11-.31-14.75,3.49-15,9.47-.14,3.85,2.33,6.33,7.09,9,4.28,2.4,7.91,3.47,8,6.47h0c-.08,2.2-2.11,4.08-5.29,4s-6.52-2.33-9-5.56L53,55.1a28,28,0,0,0,7.34,1.2c9.52.32,15.29-3.93,15.54-10.67,0-2.65-1.28-4.76-4-6.67Z"/><path id="path4377" class="cls-1" d="M58.34,236.73c-1.2,1-2.17,2-2.92,2.7l-.83.81c-3,2.88-5.76,5.6-8.24,8.44-.71-.85-1.23-1.46-1.56-1.8s-1-1-1.76-1.61c2.7-2.25,5-4.42,7.15-6.47,1.11-1.09,2.82-2.86,5.12-5.2a31.34,31.34,0,0,0-3.41-3,13.1,13.1,0,0,0,1.12-1c.19-.17.43-.49.83-.94,1.82,2,3.34,3.72,4.54,4.95s2.77,2.73,4.81,4.66c-.46.38-.76.64-.94.82a13.8,13.8,0,0,0-1,1.08,28.92,28.92,0,0,0-2.91-3.47Z"/><path id="path4379" class="cls-1" d="M59.19,249.85l.7-.85c1.78-2.16,3.81-4.67,5.93-7.65A22.44,22.44,0,0,0,67.48,243a23.32,23.32,0,0,0,2,1.36c-1.06,1.1-2,2.22-3,3.38l-2,2.38c1.22,1.08,2,1.83,2.48,2.19.8.66,1.76,1.37,2.84,2.19l2-2.38c.95-1.16,1.84-2.36,2.72-3.62.76.77,1.33,1.35,1.71,1.67s1,.74,1.91,1.31c-2.48,2.61-4.54,5.08-6.36,7.29l-.7.85c-1.45,1.77-3.23,4-5.21,6.77-.68-.67-1.22-1.19-1.69-1.57s-1.12-.85-1.93-1.41c1-1,1.93-2,2.83-3.12l3.2-3.89c-1-.94-2-1.72-2.72-2.34q-.78-.65-2.61-2l-3.19,3.89c-.9,1.09-1.74,2.19-2.54,3.36-.71-.68-1.27-1.22-1.75-1.62s-1.1-.83-1.87-1.35c2.36-2.49,4.18-4.65,5.63-6.42Z"/><path id="path4381" class="cls-1" d="M76.73,264.3c.3-.57.62-1.14.92-1.72l.57-1A82.84,82.84,0,0,0,82,253.92q3.07,1.82,4.23,2.45c1.19.64,2.78,1.44,4.72,2.39-.3.45-.55.8-.7,1.07s-.29.65-.5,1.15a38,38,0,0,0-3.39-2.06c-.48-.27-1-.53-1.44-.75-.72,1.22-1.4,2.42-2,3.62l-.71,1.32c1.24.6,2.89,1.4,5,2.38a10.25,10.25,0,0,0-.72,1.13c-.12.22-.28.61-.53,1.18-1.59-1-3.16-2-4.71-2.83l-1.46,2.71A37.52,37.52,0,0,0,78,271.05a47.19,47.19,0,0,0,4.93,2.31c-.3.45-.52.81-.7,1.13s-.29.65-.54,1.22c-2.5-1.45-4.32-2.5-5.47-3.12-.86-.46-2-1-3.42-1.68a66.92,66.92,0,0,0,4-6.61Z"/></g></g></g></svg>