<svg xmlns="http://www.w3.org/2000/svg" viewBox="0 0 300 300"><defs><style>.cls-1{fill:#fff;}</style></defs><title>Swansea</title><g id="Слой_2" data-name="Слой 2"><g id="Слой_1-2" data-name="Слой 1"><circle class="cls-1" cx="150" cy="150" r="150"/><path d="M180.43,54.34c-9.58.78-18.18,4.56-24.11,10.59a21.69,21.69,0,0,0-4.75,7.25,28,28,0,0,0-2.3,12,23.62,23.62,0,0,0,.63,5.18c2.26,10.1,10.22,19.93,23.22,28.67,5.25,3.54,9.83,6.08,18.54,10.31,13,6.31,16.37,8.07,20.26,10.57,4.64,3,8,6,10.16,9.29a20.33,20.33,0,0,1,3.19,8.56,28.54,28.54,0,0,1-.3,8c-.82,3.15-3.75,7.58-8.4,12.68-2.29,2.53-4.51,4.72-8.68,8.58l-.46.42,1.13-.45a62.25,62.25,0,0,0,10.53-5.56c9.62-6.29,15.58-14.11,17.36-22.74a31.11,31.11,0,0,0-.14-12.37,37.71,37.71,0,0,0-1.52-5.12c-1.6-3.91-5.38-8.2-11.13-12.67a152.41,152.41,0,0,0-16.13-10.65c-9.4-5.6-11.18-6.68-12.69-7.65-2.09-1.33-3.84-2.33-8.75-5-8.16-4.5-12.25-7.18-15.28-10a7.48,7.48,0,0,0-.85-.75,2.88,2.88,0,0,0,.46.56,9.69,9.69,0,0,1,.75.91c.16.22.3.33.37.29s.09,0,.05,0,2.78,3.27,4.17,4.44a20.36,20.36,0,0,0,2.45,1.76c.06,0,.9.52,1.86,1.09,2.66,1.57,4.77,2.79,7.26,4.2l9.52,5.34c.73.4,1.93,1.07,2.67,1.51l1.72,1c.7.4,2.92,1.75,4.88,3l2.22,1.36,1.31.77,3.38,2c6.13,3.63,9.78,6.14,12.09,8.32.3.3.68.63.82.74a28.39,28.39,0,0,1,2.62,3,11.57,11.57,0,0,1,2,4.51c.19,1.43-.26,1.39-1.51-.14a42.14,42.14,0,0,0-10.46-9.35c-1.79-1.17-2.73-1.76-7.41-4.58-1.16-.7-2.79-1.69-3.63-2.22-1.52-.93-2.11-1.32-4.53-2.9l-1.81-1.18-1.21-.77c-1.19-.77-3.08-1.93-4.14-2.55L194,113.5c-.44-.26-1.17-.67-1.61-.91s-1.09-.58-1.43-.77c-2.88-1.55-2.93-1.57-4.83-2.71-1.53-.92-3.52-2.21-5.08-3.32-1.33-.94-2.86-2.14-5.25-4.13-.8-.68-1.76-1.46-2.15-1.77A35.43,35.43,0,0,1,168.47,95c-1.59-2-2.83-4.89-2.11-4.89a2.75,2.75,0,0,1,1.27.85c.53.56.67.6.27.07A15.82,15.82,0,0,1,164.45,80a21,21,0,0,1,2.08-7.2c1.72-3.46,4.47-5.43,8.91-6.36a27.91,27.91,0,0,1,6.15-.21,33.94,33.94,0,0,1,11.33,3.39c3.22,1.62,5.7,3.38,10.94,7.73,7,5.8,10.4,8.32,15,11.06,1.89,1.12,1.93,1.13,2.23.55a10.75,10.75,0,0,0,.1-3.44c-.2-1.17-.59-1.84-2.67-4.56a9.22,9.22,0,0,1-1.82-3.22c-.27-1,0-2,1.16-4,1.09-1.88,1.44-2.7,1.5-3.48a1.6,1.6,0,0,0-.19-1.1,11.57,11.57,0,0,0-2.3-2.84,26.22,26.22,0,0,0-7.22-4.71,84.24,84.24,0,0,0-11.79-4.69,46.74,46.74,0,0,0-10.58-2.47A60.39,60.39,0,0,0,180.43,54.34Zm6.65,1.21a47.6,47.6,0,0,1,10.68,2.5c5.7,1.89,9,3.27,11.9,5.07a31.69,31.69,0,0,1,4.56,3.25c1.27,1.2.77,2-1,1.64a14,14,0,0,1-4.13-2,57.61,57.61,0,0,0-6.1-3.36c-2-1-6.1-2.83-6.26-2.83a2.25,2.25,0,0,1-.37-.15,35.47,35.47,0,0,0-5.59-1.71,53,53,0,0,0-14.33-.3c-1.74.27-2.75.57-8.37,2.48-.19.07-.44.15-.55.2a1.41,1.41,0,0,1-.79.13c-.12-.13.16-.51.57-.77a20.67,20.67,0,0,1,2.38-1.25l.91-.34a51.89,51.89,0,0,1,5.58-1.72,28.61,28.61,0,0,1,5.66-.75A33,33,0,0,1,187.08,55.55Z"/><path d="M138.32,118.65a36,36,0,0,0-17.91,7.63c-4.37,3.37-7.55,6.61-16,16.24-7.65,8.72-11.44,12.53-16.3,16.42a47.06,47.06,0,0,1-20.73,9.93,33.81,33.81,0,0,1-5.78.73,5.36,5.36,0,0,0-1.41.13c.07,0,1.22.33,2.55.64,14.17,3.3,26.59,4.86,34,4.3s14.49-3.77,21.81-10c.84-.7,2.62-2.41,4-3.77,3.25-3.23,5.21-5.43,11-12.24,6.46-7.65,10.08-11.42,13.7-14.31a16.67,16.67,0,0,1,6.13-3.37,74.32,74.32,0,0,1,9.54-2.23,7.42,7.42,0,0,0,.93-.19c.23-.12-2.56-2.33-4.76-3.79A35.24,35.24,0,0,0,143,118.64,31.77,31.77,0,0,0,138.32,118.65Zm5.79,1.26c3,.51,8.19,2.69,9,3.78l.22.32-.22.18c-.37.3-1.72.24-5.29-.21a64.2,64.2,0,0,0-10.6-.7c-2.82,0-5.2-.1-5.26-.14-.55-.35.8-1.41,2.76-2.14a24.55,24.55,0,0,1,5.12-1.18A23.79,23.79,0,0,1,144.11,119.91ZM82.88,166c.29.46-2.78,1.83-3.38,1.5-.12-.07-.18-.16-.13-.23a5.28,5.28,0,0,1,2.7-1.23C82.86,165.88,82.81,165.88,82.88,166Z"/><path d="M166.07,134.37a34.28,34.28,0,0,0-16.26,5.95c-4.86,3.26-9.16,7.41-17.35,16.76l-3.86,4.39c-11.11,12.5-19.26,18.64-29,21.79a42.6,42.6,0,0,1-10.78,2.11l-1.81.12.75.18a177,177,0,0,0,27.36,4.66c8,.56,12.72,0,17.93-2.06,5.43-2.15,10.31-5.56,15.92-11.08a159.83,159.83,0,0,0,11.2-12.4c5.15-6,6.64-7.71,9.36-10.44,3.38-3.36,6.16-5.61,8.18-6.6,2.34-1.15,7.61-2.55,12.48-3.32l.81-.13-.51-.45a44.45,44.45,0,0,0-3.92-3c-5.74-3.92-11.55-6.1-17.25-6.49A15.36,15.36,0,0,0,166.07,134.37Zm5.74,1.44a28.53,28.53,0,0,1,7.44,2.94c.82.53,1.11.91.87,1.21s-.27.19-1.33.18c-.68,0-2.16-.14-3.5-.32a75,75,0,0,0-12.71-.82,23.8,23.8,0,0,1-3.56-.1c-.35-.19-.25-.47.32-.9,1.59-1.19,4.55-2.1,8-2.47.22,0,1.08,0,1.91,0A10.77,10.77,0,0,1,171.81,135.81ZM109.9,181.89c.06.17-.75.7-1.65,1.05s-1.73.45-1.9.26,1-.91,2.22-1.29C109.24,181.71,109.84,181.7,109.9,181.89Z"/><path d="M192.07,149.78a34.1,34.1,0,0,0-11.7,3.42,47.87,47.87,0,0,0-9.52,6.58c-3.59,3.2-6.08,5.84-13.15,13.88-8.52,9.7-12.62,13.73-18.24,17.91a45.84,45.84,0,0,1-24.89,9.26l-1.16.07.71.18c1.39.36,6,1.39,8.46,1.9,11,2.22,19.56,3.17,26.21,2.91a30,30,0,0,0,8.66-1.54c8-2.64,14.88-7.92,24.25-18.6.74-.85,2.78-3.24,4.52-5.29a145,145,0,0,1,10.89-12,33,33,0,0,1,6.89-5.32,55.72,55.72,0,0,1,12.44-3.3l.85-.13-.54-.48c-.74-.67-3.07-2.43-4.2-3.19a36.29,36.29,0,0,0-14.89-6A29.8,29.8,0,0,0,192.07,149.78Zm6.09,1.45a23.22,23.22,0,0,1,3.93,1.29c2.68,1.06,4.39,2.08,4.39,2.65,0,.18-.08.25-.46.35-.54.15-1.37.1-4.08-.26a77.06,77.06,0,0,0-12.71-.85c-3.59,0-3.81,0-4-.19L185,154l.47-.46c1.1-1,4.14-2.12,7.22-2.53A18.25,18.25,0,0,1,198.16,151.23Zm-62,46.08c-.18.48-1.9,1.29-2.81,1.34s-.93-.1-.44-.49a7.71,7.71,0,0,1,1.75-.76,3.85,3.85,0,0,0,.46-.14,2.08,2.08,0,0,1,.67-.11C136.17,197.14,136.22,197.17,136.17,197.31Z"/><path d="M60.07,184.35a4.08,4.08,0,0,0-2.76,2c-.52,1.06-.6,2.18-.33,4.61a9.51,9.51,0,0,1,0,3.26,2.27,2.27,0,0,1-2.75,1.33c-1.2-.34-2.2-1.86-2.74-4.11a7.06,7.06,0,0,0-.33-1.18c-.06,0-1.66,1.14-1.85,1.32s.8,2.37,1.57,3.49c1.43,2.07,3.36,3.1,5.19,2.76a4.29,4.29,0,0,0,3.45-3.22,12.82,12.82,0,0,0,0-3.6,8,8,0,0,1,0-3.42,1.71,1.71,0,0,1,1.69-1.16c1.31,0,2.32,1.23,3,3.6a5.51,5.51,0,0,0,.35,1c.05,0,1.51-1,1.79-1.27a13.26,13.26,0,0,0-1.17-2.6,5.36,5.36,0,0,0-3.6-2.88A3,3,0,0,0,60.07,184.35Z"/><path d="M238.56,185c-3.62,3.06-5.11,6-4.39,8.87a10.21,10.21,0,0,0,7.47,6.84,6.21,6.21,0,0,0,4.72-.84,10.55,10.55,0,0,0,4.33-6.83l-.82-.64a6.33,6.33,0,0,0-.88-.62c-.05,0-.09.1-.09.22a9.65,9.65,0,0,1-.9,3,6.32,6.32,0,0,1-2.69,2.94,3.16,3.16,0,0,1-1.69.41,7.1,7.1,0,0,1-5.39-2.43,6.35,6.35,0,0,1-1.59-2.25,3.9,3.9,0,0,1-.27-2.92,9.23,9.23,0,0,1,3.75-4.21,7.56,7.56,0,0,0,1-.78,17,17,0,0,0-1.67-1.33A2.54,2.54,0,0,0,238.56,185Z"/><path d="M64.5,199.63l-4,6.83.84.85.84.85,4.81-3c2.66-1.63,4.84-3,4.86-3s-1.31,2.17-2.94,4.78-3,4.77-3,4.82a13.46,13.46,0,0,0,1.65,1.64c.09,0,13.69-7.65,13.82-7.77s-.16-.36-.6-.8l-.71-.7L75,207c-2.79,1.56-5.08,2.82-5.09,2.8s1.32-2.2,3-4.83,3-4.84,3-4.89a5.2,5.2,0,0,0-.77-.87l-.79-.78-4.84,3c-5.81,3.59-5.28,3.28-5,2.86.39-.62,5.55-9.41,5.67-9.66s.08-.28-.66-1a6.79,6.79,0,0,0-.85-.79S66.73,195.88,64.5,199.63Z"/><path d="M226.3,199.28l-3.09,3.05,5.43,5.49,5.44,5.5.86-.85.85-.85-2.42-2.48L231,206.66l1.9-1.83,1.88-1.82-.67-.7-.69-.68-1.86,1.86-1.87,1.86L228,203.66,226.28,202l2.25-2.24,2.24-2.24-.63-.63a5.57,5.57,0,0,0-.69-.64S228,197.6,226.3,199.28Z"/><path d="M215.8,208.43a4,4,0,0,0-.9.82c0,.34,4.44,15.81,4.5,15.81a9.32,9.32,0,0,0,.93-.67c.62-.47.85-.72.82-.84-.22-.66-1.17-4.17-1.15-4.19,1.39-1.09,4.86-3.68,4.92-3.68s.92.5,1.91,1.11,1.87,1.11,1.92,1.11a22.28,22.28,0,0,0,2.09-1.56s-3.11-1.9-6.88-4.18l-7.05-4.3C216.73,207.74,216.61,207.8,215.8,208.43Zm7.28,6.17c0,.09-3.62,2.82-3.66,2.78s-.4-1.34-.85-2.95-.85-3-.88-3.05a28,28,0,0,1,2.68,1.5C221.87,213.79,223.09,214.55,223.08,214.6Z"/><path d="M80,213.84c-3.79,2.41-6.93,4.41-7,4.46s.32.38.83.75l.91.67,1.92-1.21,1.9-1.21,2.52,1.82,2.51,1.82L83.07,223c-.31,1.15-.55,2.14-.55,2.2a5.32,5.32,0,0,0,1,.87l1,.76.11-.36c.06-.22,1-3.82,2.09-8l2-7.64-.23-.19-1-.68-.7-.49Zm5.66-.91c0,.15-1.49,5.89-1.54,5.94a17.61,17.61,0,0,1-1.94-1.31L80.3,216.2l.63-.41c.35-.22,1.52-1,2.6-1.66C85.48,212.89,85.65,212.79,85.65,212.93Z"/><path d="M92.2,222.39c-2,3.74-3.54,6.82-3.52,6.84a16.21,16.21,0,0,0,1.85.94s1.18-2.22,2.57-4.91,2.58-4.92,2.61-5,.37,2.94.72,6.63l.65,6.7,1,.54a4.84,4.84,0,0,0,1.07.47c.07-.06,7-13.41,7.08-13.53a3.42,3.42,0,0,0-.91-.59l-.93-.49L103,222.77c-2.9,5.58-3.77,7.2-3.8,7.17s-.3-2.79-.62-6.16-.63-6.37-.66-6.67l-.07-.53-1-.49a10.7,10.7,0,0,0-1-.51S94.14,218.65,92.2,222.39Z"/><path d="M202.11,217.48c-.69.33-1,.52-1,.67s-.21,1.86-.41,3.88-.38,3.7-.4,3.72-1.43-.93-3.16-2.1-3.18-2.12-3.25-2.11a9.64,9.64,0,0,0-1.28.58l-1.15.59.75.51,4.26,2.92,3.53,2.4,1.39,2.87a18.86,18.86,0,0,0,1.52,2.84,9.39,9.39,0,0,0,2-1.07c0-.06-.65-1.38-1.41-2.93l-1.36-2.83.53-5.22c.29-2.86.5-5.21.47-5.2S202.66,217.23,202.11,217.48Z"/><path d="M111,223.3a4.14,4.14,0,0,0-2.76,2.34,2.79,2.79,0,0,0-.31,1.53,2.93,2.93,0,0,0,.34,1.61,16,16,0,0,0,2.36,3.33c1.37,1.65,1.67,2.43,1.33,3.41a2.16,2.16,0,0,1-1.14,1.3,1.73,1.73,0,0,1-1.17.2c-1.22-.1-2.27-.67-3.75-2a5.42,5.42,0,0,0-.9-.74s-.23.52-.44,1.1c-.45,1.24-.52,1.06.7,1.89a12.19,12.19,0,0,0,3.32,1.54,5.74,5.74,0,0,0,1.86.16,3.09,3.09,0,0,0,1.68-.36,4.29,4.29,0,0,0,2.48-4.49c-.17-1.11-.66-1.88-2.92-4.66-1-1.27-1.22-1.61-1.26-2.41a1.46,1.46,0,0,1,.78-1.53,1.65,1.65,0,0,1,1.14-.28,2.58,2.58,0,0,1,1.47.37,8.59,8.59,0,0,1,2.21,1.57c.35.3.52.4.56.3s.21-.55.4-1.06l.34-.94-.41-.3a11.77,11.77,0,0,0-3.9-1.87A3.79,3.79,0,0,0,111,223.3Z"/><path d="M186,224.56l-6.22,2-2.48.79.3.92c.21.62.35.9.44.86l2.52-.82a10.59,10.59,0,0,1,2.46-.66c0,.06,1,2.9,2.06,6.32s2,6.27,2.08,6.31a9.36,9.36,0,0,0,2.23-.63c.07,0-1.71-5.68-4-12.72-.05-.14.36-.29,2.47-1a15.76,15.76,0,0,0,2.52-.94,7.43,7.43,0,0,0-.58-1.68S188,223.9,186,224.56Z"/><path d="M121.47,226.6c-.08.2-3.65,14.83-3.63,14.86s2,.52,4.47,1.11l4.43,1.09.21-.83a8.41,8.41,0,0,0,.22-.93,26.93,26.93,0,0,0-3.23-.89,25,25,0,0,1-3.22-.89c0-.05.25-1.18.57-2.5a7.79,7.79,0,0,1,.72-2.39c.12,0,4.45,1,4.85,1.16.13,0,.21-.14.38-.82a3.13,3.13,0,0,0,.15-.95s-1.16-.33-2.49-.65-2.45-.6-2.49-.64a18.46,18.46,0,0,1,.46-2.23c.48-1.92.56-2.16.73-2.13l3.05.73c1.57.38,2.87.69,2.89.68a8.83,8.83,0,0,0,.37-1.81s-1.8-.48-3.9-1l-4.16-1C121.61,226.51,121.5,226.52,121.47,226.6Z"/><path d="M173.59,228a8.5,8.5,0,0,0-1,.29s.66,3.39,1.56,7.46,1.62,7.44,1.62,7.47.31.07,1.38-.17l1-.23-.06-.3c0-.16-.77-3.55-1.63-7.51-1.21-5.51-1.63-7.2-1.74-7.22A9.46,9.46,0,0,0,173.59,228Z"/><path d="M162.3,229.5a7.3,7.3,0,0,0-4.7,2.37c-2,2.41-2.25,6.66-.6,10a6.17,6.17,0,0,0,4.53,3.62,11.06,11.06,0,0,0,6.4-.91c1.32-.67,1.24-.54,1.13-1.75a3.39,3.39,0,0,0-.19-1,2.94,2.94,0,0,0-.55.31,11.3,11.3,0,0,1-2.71,1.26,8.33,8.33,0,0,1-3,.16,5.32,5.32,0,0,1-3.85-4.14,12.48,12.48,0,0,1-.17-3.71c.48-3.07,2.37-4.51,5.65-4.33a17.88,17.88,0,0,1,2,.28c.52.12,1.12.24,1.31.27l.36.05-.11-1.11a10.86,10.86,0,0,0-.15-1.16,8,8,0,0,0-1.16-.16A22.77,22.77,0,0,0,162.3,229.5Z"/><path d="M138.22,230c-.22.37-7.48,14.22-7.51,14.36s.21.15.61.19l1.14.12.5.05,1-1.93a13.64,13.64,0,0,1,1.15-2c.13-.05,4.64.37,5.77.54.35.05.36.07.54.72l.58,2.15.41,1.49h1.25a4.29,4.29,0,0,0,1.25-.09c0-.08-4-14.84-4.19-15.43-.05-.18-.26-.22-1.66-.36C138.41,229.77,138.36,229.78,138.22,230Zm1.6,6.37c.46,1.63.81,3,.79,3s-1.06-.07-2.31-.2a7.91,7.91,0,0,1-2.25-.35c.07-.26,2.86-5.48,2.91-5.43S139.38,234.76,139.82,236.37Z"/></g></g></svg>