<svg xmlns="http://www.w3.org/2000/svg" viewBox="0 0 249.58 300"><defs><style>.cls-1{fill:#ecb215;}.cls-2,.cls-7,.cls-8,.cls-9{fill:#881f19;}.cls-3,.cls-4{fill:#f8fbfd;}.cls-3,.cls-4,.cls-7,.cls-8,.cls-9{stroke:#e9aa0f;}.cls-3{stroke-width:1.08px;}.cls-4{stroke-width:1.06px;}.cls-5{fill:#fffbff;}.cls-6{fill:#518ac3;opacity:0.96;isolation:isolate;}.cls-7{stroke-width:4.11px;}.cls-8{stroke-width:3.86px;}.cls-9{stroke-width:4.12px;}.cls-10{fill:#fff;}</style></defs><title>Torino</title><g id="Слой_2" data-name="Слой 2"><g id="Слой_1-2" data-name="Слой 1"><g id="g3835"><g id="layer1"><path id="path5762" class="cls-1" d="M122,0c-7.46.26-16.32,1.14-30.45,2.5-31.29,3-40,3.64-56.92,1.52C23.88,2.69,9.29,0,7.34.07,7.4,2,4.23,19.49,4.21,19.59c-1,4.78-1.79,11.69-2.94,24.22-3.77,41.28.92,84.56,13.05,120.74,12,35.9,30.74,68,54.59,93.9,10.69,11.6,26.4,23.74,38.17,32.64,1,.65,14.25,8.64,17.71,8.91,3.46-.27,16.76-8.26,17.71-8.91,11.77-8.9,27.48-21,38.17-32.64,23.85-25.88,42.56-58,54.59-93.9,12.13-36.18,16.82-79.46,13.05-120.74-1.15-12.53-2-19.44-2.94-24.22,0-.1-3.19-17.56-3.13-19.52-2,0-16.54,2.62-27.32,4C198,6.15,189.29,5.52,158,2.51,143.42,1.1,134.43.24,126.81,0c-.68,0-1.35,0-2,0s-1.34,0-2,0Z"/></g><path id="path5755" class="cls-2" d="M119.63,6.31c-35.75,3-72.81,8.89-108,1.05-4.58,30.62-8.2,61.88-4.49,93,6.29,70.46,39.81,141,98.48,182.79,3.63,2.59,16.44,10.53,19,10.54,2.69,0,15.32-7.69,18.49-9.9,72.27-50.44,105.18-142.14,100.45-228.24-1-16.15-2.16-33.22-6.36-48.34-32,7.37-65.28,3.16-97.7-.27A190.33,190.33,0,0,0,119.63,6.31Z"/><g id="g13797"><path id="rect8439" class="cls-3" d="M161.67,94.14v35.41H171.8V116h9.75V108h-9.93v-5.59h18V94.14h-28Z"/><path id="path11112" class="cls-4" d="M209.3,94.47c-8,.78-14.34,8.32-14.34,17.44,0,9.65,7,17.52,15.7,17.52a15.57,15.57,0,0,0,13.43-8.34l-7.92-2a7.08,7.08,0,0,1-.84.7c-12.12,6.28-14.77-15.52-5.3-16.8.09,0,.18,0,.26-.06h.13c2.43-.11,4.27.33,5.69,1.85l7.91-2.18a15.52,15.52,0,0,0-13.36-8.14,11.41,11.41,0,0,0-1.17,0,1.33,1.33,0,0,0-.2,0Z"/></g><g id="g3831"><path id="path5774" class="cls-5" d="M121.39,13.65l-2.94,0-1.53.06C84.09,16.43,50.17,20.87,17.73,16A315,315,0,0,0,13.5,76.89H236.13a283.15,283.15,0,0,0-5.31-61.43c-21.13,5.32-43.92,2.17-65.56.85-14.6-1.22-29.21-2.76-43.87-2.66Z"/><rect id="rect3050" class="cls-6" x="13.45" y="76.89" width="222.68" height="3.87"/></g><g id="g3042"><path id="rect6660" class="cls-7" d="M27.11,26.75v10.8h9.8V68.3H46.4V37.55H56.52V26.75Z"/><rect id="rect7540" class="cls-8" x="134.88" y="26.57" width="9.56" height="41.8"/><path id="rect7543" class="cls-8" d="M150.62,26.43V68.24h9.44V49.48l14.09,18.58.25.3h9.31V26.43h-9.8V47.3L158.47,26.49v-.06h-7.85Z"/><path id="rect7547" class="cls-8" d="M97.69,26.28V68.36h9.49V52.74h6.19l5.88,15.62H130.4l-7-18c4.6-1.39,5.64-6.22,5.64-11.88,0-6.42-4.35-11.68-9.87-12.19H97.69Zm9.47,9.13h10.13a3.75,3.75,0,0,1,3.86,4.06,3.9,3.9,0,0,1-3.86,4.24H107.16v-8.3Z"/><path id="path9329" class="cls-9" d="M75.24,26.12c-9.12.7-16.42,9.86-16.42,21.06,0,11.64,7.89,21.12,17.52,21.12s17.4-9.48,17.4-21.12S86,26.12,76.34,26.12h-.43c-.22,0-.45,0-.67,0Zm.43,10.94s0,0,.06,0c9.86-.43,10.83,19.2,1.47,21.38-10.43,1-11.87-19.76-1.53-21.38Z"/><path id="path2385" class="cls-9" d="M204,26.12c-9.12.7-16.42,9.86-16.42,21.06,0,11.64,7.88,21.12,17.52,21.12s17.4-9.48,17.4-21.12-7.77-21.06-17.4-21.06h-.43c-.22,0-.45,0-.67,0Zm.43,10.94s0,0,.06,0c9.86-.43,10.83,19.2,1.47,21.38-10.44,1-11.88-19.76-1.53-21.38Z"/></g><g id="g12989"><path id="path9346" class="cls-10" d="M39.49,93.39a6.82,6.82,0,0,0-2.72.61,5.8,5.8,0,0,0-2.09,1.42,4.65,4.65,0,0,0-1.45,3.88A3.94,3.94,0,0,0,34.36,102a5.51,5.51,0,0,0,3.86,1.59,7.22,7.22,0,0,0,3.35-.41l.62-.31c.23-.11.3-.19.32-.18s-.08.5-.12.62a6.42,6.42,0,0,1-1.32,1.78,7.84,7.84,0,0,1-3.3,2.07l-2,.64s0,0,0,0l.25,2.08a10.82,10.82,0,0,0,1.36-.17A9.66,9.66,0,0,0,45,103.15c.72-3.59,1-7.72-3-9.27a7.35,7.35,0,0,0-2.5-.49Zm0,2.66a4.29,4.29,0,0,1,2.43.71,2.45,2.45,0,0,1,.2,3.64c-2.14,1.9-6.35.82-6.35-1.63C35.8,97.17,37.63,96.06,39.52,96.05Z"/><path id="path9342" class="cls-10" d="M54.1,93.59a5.78,5.78,0,0,0-5.23,3,15.6,15.6,0,0,0-.61,8.44,7.11,7.11,0,0,0,3.53,4.33c2.68,1.22,5.87,0,7.54-2.83,1.13-1.94,1.18-7.89.08-9.93a6,6,0,0,0-5.31-3Zm0,2.65a3.18,3.18,0,0,1,2.57,1.14c1.64,2.22,1.48,7.28-.29,9.06a3,3,0,0,1-4.49-.09c-1.85-1.86-2-6.7-.36-9A3.18,3.18,0,0,1,54.12,96.24Z"/><rect id="rect8447" class="cls-10" x="27.87" y="93.53" width="2.52" height="16"/><path id="path12940" class="cls-10" d="M68.66,110.07a6.73,6.73,0,0,0,2.73-.6,5.9,5.9,0,0,0,2.08-1.42,4.63,4.63,0,0,0,1.45-3.88,3.87,3.87,0,0,0-1.12-2.69,5.48,5.48,0,0,0-3.86-1.59,7.23,7.23,0,0,0-3.35.4c-.26.14-.49.25-.62.31s-.31.19-.32.19.08-.5.12-.62a6.54,6.54,0,0,1,1.31-1.79,7.88,7.88,0,0,1,3.31-2.07l2-.63s0,0,0,0l-.25-2.08s-.63,0-1.35.18a9.67,9.67,0,0,0-7.63,6.56c-.71,3.58-1,7.72,3,9.27a7.35,7.35,0,0,0,2.49.48Zm0-2.65a4.18,4.18,0,0,1-2.43-.72,2.45,2.45,0,0,1-.2-3.64c2.13-1.89,6.35-.81,6.35,1.63C72.36,106.3,70.52,107.4,68.64,107.42Z"/></g><path id="path2987" class="cls-10" d="M136.75,261.23l-1.11-1,3.76-5.83c2.07-3.2,4.13-6.63,4.57-7.62a17.38,17.38,0,0,1,3-4c2.47-2.46,5-7.2,5.29-10.07.27-2.37-.51-3.7-6.51-11.09-7.42-9.13-10-13.44-11-18.16-.91-4.34.83-10.42,4.3-15l2.1-2.78L138.8,188c-4.64,4.49-6.42,10-5.08,15.85,1.18,5.17,1.17,5.18-1.28,5.31-3.55.2-6-1.94-6.53-5.69-.24-1.64-.28-1.45-.33,1.35-.1,5.82-1.87,6.52-16.52,6.52h-8.64l-1.29,1.08a3,3,0,0,0-1.3,2.18c0,1.82-.47,2.13-3,2.07-2.88-.08-3.9.65-4.39,3.14-.61,3-4.78,5.27-9.8,5.27-2,0-4.49-1-4.84-1.87s3.61-6,7.81-10.28l5.88-6c4-4.15,4.59-4.32,13.76-4.33h7.68l-.33-2c-.56-3.42-.28-13.5.47-16.39,1.19-4.6,2.49-5.25,8.69-4.33,2.15.32,3.94.54,4,.49.34-.33-2.77-5.37-5.63-9.13-3.55-4.66-5.35-7.82-5.83-10.25-.25-1.25-.19-1.39.46-1.14,1.82.7,8.21,1.52,11.74,1.52,4.75,0,7.61-.78,9.27-2.54l1.24-1.31-1.86,1.2c-1.8,1.16-2,1.2-6.92,1.15-6.15,0-7.75-.5-21.1-5.95-10.38-4.24-18.59-7.1-20.38-7.11A4.69,4.69,0,0,0,81,148.62a2.69,2.69,0,0,1-2.09.89l-1.41,0,0,2.71c0,3.75-.33,4.36-2.61,5.43-4.43,2.09-9,2.72-10.33,1.4-.93-.92-1-.79,2.4-6,1.68-2.61,3.49-5.64,4-6.72a11.55,11.55,0,0,1,6.66-5.72,43.69,43.69,0,0,1,6.41-.73c5.35-.27,8.54.3,18.14,3.24a52.36,52.36,0,0,0,6.93,1.86c.32-.32-3.61-1.86-7.47-2.94l-5.45-1.52L94.27,140l3.28-.12a90,90,0,0,1,14.55,1.45c1,.24,1,.21.35-.54-1.21-1.36-1.3-2.76-.35-5.29a6.09,6.09,0,0,1,1.27-2.37c1.08,0,3.38-2.73,4-4.69,1-3.31.75-3.59-.66-.78-1.75,3.48-3.24,4.51-7.53,5.26-4,.7-5.44,1.47-5.44,2.89,0,2-4.07,2.4-6.22.64-1.29-1.06-1-2.21.56-2.49,1.44-.25,1.81-1.26.83-2.24-1.34-1.32-3.44.87-3,3.13.19.95.09,1.19-.49,1.19-3,0-3.29-5.1-1-15.58.82-3.83,1-5.14.59-5.72-.77-1.22-.54-3.65.67-7l1.14-3.2-1.51-1.65a11.73,11.73,0,0,1-2.07-3.28c-.77-2.19-.65-6.88.25-10,.83-2.89,1.47-3.7,1.47-1.86a11.94,11.94,0,0,0,3.24,7.64,11,11,0,0,0,2.23,2A5.07,5.07,0,0,0,101,94.9a32.22,32.22,0,0,1,1-4.68l.72-2.29.54,2.69c.67,3.38,1.62,5.21,3.68,7.15,2.64,2.49,3.86,2.88,11.84,3.74C132.22,103,137.88,105,142.94,110c5.23,5.19,6.44,8.7,7.74,22.49,1,11.23,2.79,25.22,3.62,29.13,2.43,11.47,17,26.28,22.2,22.52,1.9-1.38.52-5.35-4.27-12.23-2.94-4.23-7.28-11.71-7.28-12.55,0-1.45,10.49,12.45,14.92,19.77,4.18,6.91,5.11,10.28,3.81,13.84-1.18,3.23-5.65,5.87-9,5.34l-1.54-.25-.49,4.06c-.88,7.31-2.13,9.35-10.08,16.46-2.65,2.37-2.33,3.73,1.74,7.5l2.05,1.89-.25,2.15a7.32,7.32,0,0,1-3.56,5.55c-2.67,1.39-5.1,5.39-6,9.82-.67,3.45-1.05,4.07-3.12,5a6.8,6.8,0,0,0-2,1.16c0,.14-.1,1.65-.16,3.36-.13,3.58-.09,3.54-4.78,5.48-4.41,1.83-8.25,2.12-9.79.73ZM161,225.48c-2-2.19-3-4.47-2.67-5.84.3-1.14-.2-1-1.58.43l-1.19,1.23,1,1.51c.78,1.16,5.39,4.71,6.19,4.75A18,18,0,0,0,161,225.48Zm6.22-14.25c1.8-2.09,3.08-5.93,3.42-10.28l.25-3.14-1.36,1.31c-1.29,1.23-1.36,1.47-1.43,4.58-.08,4-1,6.21-3.91,9.63l-2,2.36,1.77-1.37A26.44,26.44,0,0,0,167.26,211.23Zm-3.52-27.57c-2.54-2.73-5.13-6.88-8.21-13.17-3-6-3.9-9.6-4.91-18.67-.29-2.52-.69-4.58-.91-4.58-.63,0,0,14.41.72,17,1.9,6.68,7.89,16,12.64,19.64,2.69,2.07,2.79,2,.67-.25Zm-63.66-66.52c2.21-.34,2.79-.93,2.79-2.89v-1.68l-.94,1.42a7.74,7.74,0,0,1-2.72,2.23,5,5,0,0,0-2,1.36c-.16.4,0,.45.51.18a10,10,0,0,1,2.34-.62Zm14.73-6.94c5.66-.58,7.43-1.67,6.12-3.73-.32-.5-.55-.41-1.28.51-.87,1.1-3.18,2-6.74,2.56a5.93,5.93,0,0,0-2.31.9c-.44.36-.59.54-.33.41a35.25,35.25,0,0,1,4.54-.65Zm-7.32-4.79c0-.44-.46-.62-1.58-.63a19.31,19.31,0,0,1-7.18-1.84c-.77-.39-1.28-.51-1.12-.26.33.52,3,1.95,5.24,2.75s4.64.77,4.64,0Zm-20.74,65c-.63-2.35-1.72-5.95-2.42-8-1.91-5.59-1.25-10.15,1.9-13.07l1.06-1,2.23.73a31.76,31.76,0,0,1,3.4,1.31l1.17.59-.88,1.11a3.77,3.77,0,0,0-.77,2.93c.09,1.37-.06,1.92-.6,2.22-1.14.63-.89,2.32.44,3a9.5,9.5,0,0,1,2.32,2.09c1.09,1.39,1.14,1.61.7,3.22-1.37,5-4.17,9.09-6.29,9.09-1.07,0-1.18-.2-2.26-4.26ZM181,168.08a15.2,15.2,0,0,0-3.73-4.44c-4.53-3.95-5.56-7.56-2.9-10.13,1.72-1.65,2.53-3.39,2.19-4.74-.57-2.22-4.37-4.84-8.62-5.92-3.18-.81-5-.56-6.79,1l-1.32,1.1.87-1.68c2.14-4.17,7.17-4.81,15.36-2,9.36,3.24,11.67,8.63,7.69,18a13.54,13.54,0,0,0-1.38,7.08,17.37,17.37,0,0,1-.21,3.84,8.5,8.5,0,0,1-1.16-2Zm-.24-7c.27-.84,1-2.65,1.57-4,2.45-5.7,1-10-4.24-12.65-2.45-1.21-2.58-1.1-.51.48,3.53,2.69,4.29,6.59,2.22,11.34-1.49,3.41-1.69,5-.76,6.06s1.06.83,1.72-1.2Z"/></g></g></g></svg>