<svg xmlns="http://www.w3.org/2000/svg" viewBox="0 0 263.89 300"><defs><style>.cls-1{fill:#c89e1d;}.cls-2{fill:#1d1d1b;}.cls-3{fill:#da0c1c;}.cls-4{fill:#fff;}</style></defs><title>Torpedo_Moscow</title><g id="Слой_2" data-name="Слой 2"><g id="Слой_1-2" data-name="Слой 1"><path class="cls-1" d="M2.29,129.06l.33,1.82c.09.55,2.51,13.53,13.73,36.88C35.84,208.35,60.53,245,85.88,270.93c21.27,21.76,30.39,28.54,46,28.61H132c15.64-.07,24.76-6.85,46-28.61,25.35-25.94,50-62.58,69.53-103.17,11.22-23.35,13.64-36.33,13.73-36.88l.33-1.82h-8.83l0-.06c.93-2.45,2.63-7,5-14,4.51-13.05,5.29-17.68,5.32-17.88l.3-1.79H240.66l0-.14c6.95-29.94,7.31-52.48,7.32-53.6l.06-4.79-4.79.43c-.15,0-15.68,1.28-31.47-9.47-11.08-7.54-16.17-24.09-16.22-24.25L194.65.47H69.24l-.93,3.09c0,.16-5.14,16.71-16.22,24.25-15.8,10.75-31.32,9.48-31.47,9.47l-4.78-.43.05,4.79c0,1.12.37,23.72,7.35,53.74H.46l.3,1.79c0,.2.81,4.83,5.32,17.88,2.41,7,4.11,11.6,5,14Z"/><path class="cls-2" d="M72.46.93H194.31c.15.53.82,2.75.82,2.75.05.17,5.19,16.87,16.41,24.5,16,10.86,31.62,9.57,31.77,9.55l4.28-.39c0,.82-.05,4.29-.05,4.29,0,.94-.36,23.53-7.31,53.5l0,.15s0,.06,0,.09a.44.44,0,0,0,.11.29.46.46,0,0,0,.36.17h22.22l-.21,1.26c0,.19-.79,4.72-5.3,17.8-2.33,6.75-4,11.31-5,13.94a.59.59,0,0,0-.05.22.45.45,0,0,0,.07.25.46.46,0,0,0,.38.23h8.28c-.1.53-.23,1.27-.23,1.27-.1.54-2.5,13.44-13.7,36.76-19.47,40.55-44.13,77.14-69.44,103C156.51,292.26,147.45,299,132,299.07s-24.6-6.81-45.77-28.47c-25.31-25.9-50-62.49-69.45-103C5.57,144.24,3.17,131.34,3.07,130.8c0,0-.13-.74-.23-1.27h8.27a.44.44,0,0,0,.38-.2.42.42,0,0,0,.08-.26.51.51,0,0,0,0-.17c-.81-2.14-2.54-6.81-5-14-4.48-13-5.26-17.61-5.3-17.8,0,0-.11-.73-.2-1.26H23.24a.45.45,0,0,0,.36-.18.43.43,0,0,0,.1-.29.34.34,0,0,0,0-.1c-7-30-7.33-52.7-7.34-53.64,0,0,0-3.47,0-4.28l4.27.38c.15,0,15.81,1.31,31.77-9.55C63.57,20.55,68.7,3.85,68.76,3.68c0,0,.67-2.23.83-2.75ZM69.24,0a.46.46,0,0,0-.44.33l-.93,3.08c-.05.17-5.09,16.56-16,24-15.63,10.63-31,9.4-31.17,9.39l-4.78-.43a.41.41,0,0,0-.35.12.43.43,0,0,0-.15.34l0,4.8c0,.94.36,23.41,7.24,53.27H.46a.48.48,0,0,0-.35.16.46.46,0,0,0-.11.3.17.17,0,0,0,0,.07l.29,1.8c0,.19.83,4.88,5.34,18,2.28,6.6,3.91,11,4.8,13.41H2.29a.47.47,0,0,0-.46.55L2.16,131c.1.54,2.52,13.56,13.77,37,19.51,40.64,44.24,77.32,69.62,103.29,21.37,21.87,30.55,28.69,46.36,28.75H132c15.81-.06,25-6.88,46.36-28.75,25.38-26,50.11-62.65,69.62-103.29,11.25-23.43,13.67-36.45,13.77-37l.33-1.82a.5.5,0,0,0-.1-.38.46.46,0,0,0-.36-.17h-8.15c1-2.73,2.63-7.1,4.8-13.41,4.54-13.15,5.31-17.76,5.34-18l.29-1.8a.17.17,0,0,0,0-.07.46.46,0,0,0-.11-.3.48.48,0,0,0-.35-.16h-22.2c6.88-29.84,7.23-52.33,7.24-53.27l.06-4.8a.47.47,0,0,0-.15-.34.49.49,0,0,0-.36-.13l-4.79.44c-.15,0-15.54,1.24-31.17-9.39-10.95-7.45-16-23.84-16-24L195.09.34a.46.46,0,0,0-.44-.33H69.24"/><path class="cls-3" d="M88.09,268.77c20.58,21.05,29.31,27.62,43.83,27.67H132c14.52-.05,23.25-6.62,43.83-27.67,25.11-25.71,49.6-62,69-102.35,8.67-18.07,12-30,13.06-34.26h-28c-10.72,30.57-25.22,58.45-54.93,95.86-9.24,11.64-32.08,33.36-42.77,33.36h-.27c-10.69,0-33.53-21.72-42.77-33.36-29.71-37.41-44.21-65.29-54.93-95.86h-28c1,4.3,4.39,16.19,13.06,34.26,19.35,40.3,43.84,76.64,69,102.35Z"/><path class="cls-2" d="M19.55,166.22c-8.3-17.3-11.71-28.91-12.89-33.6H33.79c11.91,33.87,27.83,61.62,54.88,95.69C98,240,121,261.84,131.81,261.84h.27c10.84,0,33.84-21.83,43.13-33.53,27.06-34.07,43-61.82,54.89-95.69h27.13c-1.18,4.69-4.59,16.31-12.89,33.6-19.33,40.25-43.79,76.55-68.87,102.22C155,289.39,146.32,295.92,132,296s-23.07-6.59-43.55-27.54C63.34,242.77,38.88,206.47,19.55,166.22Zm210.23-34.53a.47.47,0,0,0-.44.31c-11.89,33.92-27.79,61.65-54.85,95.73-9.2,11.58-31.87,33.18-42.41,33.18h-.27c-10.54,0-33.21-21.6-42.41-33.18-27.07-34.09-43-61.82-54.85-95.73a.48.48,0,0,0-.44-.31h-28a.47.47,0,0,0-.37.18.44.44,0,0,0-.08.4c1,4.3,4.4,16.25,13.09,34.35C38.09,207,62.61,243.35,87.76,269.09h0c20.68,21.16,29.47,27.76,44.16,27.82s23.53-6.66,44.21-27.82c25.15-25.74,49.67-62.13,69-102.47,8.69-18.1,12.06-30.05,13.1-34.35a.47.47,0,0,0-.08-.4.49.49,0,0,0-.37-.18h-28"/><path class="cls-4" d="M188.36,9.12c2.23,5.87,8,18.68,18.57,25.84a63.11,63.11,0,0,0,32.24,11,290.77,290.77,0,0,1-11.51,64.64c-11.32,37.71-24.7,68.14-59.59,112.07-12.08,15.22-31.54,30.08-36,30.08h-.27c-4.45,0-23.91-14.86-36-30.08-34.89-43.93-48.27-74.36-59.59-112.07A290.77,290.77,0,0,1,24.72,45.93,63.11,63.11,0,0,0,57,35C67.48,27.8,73.3,15,75.53,9.12Z"/><path class="cls-2" d="M188.05,9.58c2.14,5.57,8,18.56,18.62,25.76a63.79,63.79,0,0,0,32,11,291.41,291.41,0,0,1-11.46,64.07c-11.31,37.65-24.67,68-59.51,111.91-11.78,14.83-31.37,29.91-35.63,29.91h-.27c-4.26,0-23.85-15.08-35.63-29.91C61.34,178.48,48,148.09,36.67,110.44A291.41,291.41,0,0,1,25.21,46.37a63.79,63.79,0,0,0,32-11C67.81,28.14,73.7,15.15,75.84,9.58ZM75.53,8.66a.45.45,0,0,0-.44.3c-2,5.31-7.84,18.43-18.39,25.61a62.86,62.86,0,0,1-32,10.9.44.44,0,0,0-.32.15.42.42,0,0,0-.12.34A291.64,291.64,0,0,0,35.78,110.7c11.34,37.77,24.74,68.24,59.67,112.23,12.16,15.3,31.83,30.25,36.36,30.25h.27c4.64,0,24-14.65,36.36-30.25,34.93-44,48.33-74.46,59.66-112.23A291.84,291.84,0,0,0,239.63,46a.46.46,0,0,0-.12-.34.44.44,0,0,0-.32-.15,62.86,62.86,0,0,1-32-10.9C196.64,27.39,190.81,14.27,188.8,9a.45.45,0,0,0-.44-.3H75.53"/><path class="cls-3" d="M33,129.07c-1.78-5.23-3.46-10.54-5.1-16-1.5-5-2.82-9.88-4-14.6H4.21c.57,2.35,1.9,7.2,4.79,15.57s4.7,13.16,5.43,15Z"/><path class="cls-2" d="M9.44,113.88c-2.61-7.55-3.95-12.23-4.64-15H23.62c1.18,4.81,2.48,9.61,3.87,14.26,1.67,5.55,3.28,10.6,4.91,15.42H14.75C13.86,126.3,12.08,121.54,9.44,113.88ZM3.84,98.17a.45.45,0,0,0-.08.4c.64,2.64,2,7.49,4.8,15.61S13.15,127,14,129.24a.47.47,0,0,0,.44.29H33a.47.47,0,0,0,.38-.19.45.45,0,0,0,.06-.42c-1.7-5-3.37-10.22-5.1-16-1.42-4.75-2.76-9.66-4-14.58A.46.46,0,0,0,24,98H4.21a.47.47,0,0,0-.37.17"/><path class="cls-3" d="M239.89,98.57c-1.14,4.68-2.45,9.53-3.94,14.49-1.64,5.47-3.32,10.78-5.1,16h18.62v0c.74-1.91,2.58-6.81,5.41-15,2.89-8.37,4.22-13.22,4.79-15.57H239.91Z"/><path class="cls-2" d="M259.09,98.92c-.6,2.37-1.92,7.09-4.64,15s-4.56,12.8-5.3,14.72H231.49c1.63-4.8,3.23-9.85,4.9-15.42,1.4-4.66,2.71-9.46,3.89-14.27ZM239.91,98a.45.45,0,0,0-.45.37l0,.09c-1.19,4.88-2.52,9.74-3.93,14.47-1.74,5.79-3.41,11-5.1,16a.4.4,0,0,0,0,.15.46.46,0,0,0,.09.27.47.47,0,0,0,.38.19h18.62a.5.5,0,0,0,.44-.33c.68-1.75,2.55-6.71,5.42-15,2.8-8.13,4.16-13,4.8-15.61a.45.45,0,0,0-.45-.57H239.91"/><path class="cls-2" d="M75,52.71v42c0,3.71.19,5.56,1.54,5.56s5-7,9.38-12.15,9.77-9.48,16.28-9.48c5.5,0,7.47.41,10.53,3.5a11.35,11.35,0,0,1,2.3,3.91c3.26,8.87-3.25,61.83-5.17,75.23s-5.74,38.74-5,38.74,1.76-2.72,6.7-6.8c9-7.42,14.56-7,18.58-7h3.51c4,0,9.57-.39,18.57,7,4.95,4.08,5.94,6.8,6.71,6.8s-3.07-25.35-5-38.74S145.57,95,148.83,86.09a11.35,11.35,0,0,1,2.3-3.91c3.06-3.09,5-3.5,10.53-3.5,6.51,0,11.88,4.32,16.28,9.48s8,12.15,9.38,12.15,1.54-1.85,1.54-5.56v-42Z"/><path class="cls-1" d="M187.31,54.26V94.75a29.69,29.69,0,0,1-.15,3.47c-.7-.85-1.71-2.35-2.57-3.62a86.35,86.35,0,0,0-5.48-7.45c-5.76-6.74-11.47-10-17.45-10-5.48,0-8.06.36-11.63,4a12.79,12.79,0,0,0-2.65,4.47c-.71,1.91-1,5.57-1,10.29,0,21.54,6,65.16,6.08,65.69l1.07,7.4c1.19,8.23,3,20.64,3.7,26.93a36,36,0,0,0-4-3.8c-9-7.43-14.78-7.4-19-7.38h-4.65c-4.21,0-10-.05-19,7.38a36,36,0,0,0-4,3.8c.71-6.29,2.51-18.7,3.7-26.92l1.07-7.41c.08-.53,6.08-44.15,6.08-65.69,0-4.72-.28-8.38-1-10.29a12.79,12.79,0,0,0-2.65-4.47c-3.57-3.6-6.15-4-11.63-4-6,0-11.69,3.28-17.45,10A86.35,86.35,0,0,0,79.3,94.6c-.86,1.27-1.87,2.77-2.57,3.62a29.69,29.69,0,0,1-.15-3.47V54.26Zm1.55-3.09H73.49V94.75c0,3.33,0,7.11,3.08,7.11,1.55,0,2.72-1.73,5.29-5.53a80.05,80.05,0,0,1,5.27-7.17c5.14-6,10.08-8.94,15.1-8.94,5.46,0,6.87.46,9.44,3a10,10,0,0,1,1.94,3.36c2.93,8-2.91,58.09-5.25,74.47l-1.07,7.41c-4.56,31.41-4.33,31.68-3.58,32.55l.46.53.74,0c1.06,0,1.65-.76,2.48-1.81a32,32,0,0,1,5.21-5.35c8.15-6.71,13.06-6.69,17-6.67h4.67c3.95,0,8.86,0,17,6.67a31.55,31.55,0,0,1,5.21,5.36c.83,1,1.42,1.8,2.48,1.8h.7l.5-.55c.75-.87,1-1.14-3.58-32.56l-1.07-7.4c-2.34-16.38-8.18-66.5-5.25-74.47a10.05,10.05,0,0,1,1.94-3.36c2.57-2.59,4-3,9.44-3,5,0,10,2.92,15.1,8.94A81.51,81.51,0,0,1,182,96.33c2.57,3.8,3.74,5.53,5.29,5.53,3.08,0,3.08-3.78,3.08-7.11V51.17h-1.54"/><path class="cls-2" d="M188.86,51.63h1.08V94.75c0,3.89-.19,6.65-2.62,6.65-1.3,0-2.51-1.78-4.91-5.33a80.81,80.81,0,0,0-5.29-7.21c-5.24-6.13-10.29-9.1-15.46-9.1-5.56,0-7.11.5-9.77,3.18a10.63,10.63,0,0,0-2,3.53C149.27,88,149,91.2,149,95.4c0,17.39,4.15,52.55,6,65.76l1.07,7.41c3.12,21.52,4,28.36,4,30.78,0,.92-.12,1.2-.3,1.4l-.35.4H159c-.8,0-1.25-.53-2.11-1.63a32.88,32.88,0,0,0-5.28-5.42c-8.28-6.83-13.29-6.8-17.31-6.79h-4.67c-4,0-9,0-17.31,6.79a32.48,32.48,0,0,0-5.28,5.42c-.86,1.1-1.31,1.63-2.11,1.63l-.52,0-.33-.37c-.18-.21-.3-.49-.3-1.41,0-2.42.87-9.26,4-30.77l1.07-7.41c1.89-13.22,6.05-48.38,6.05-65.77,0-4.2-.25-7.36-.82-8.93a10.53,10.53,0,0,0-2-3.53c-2.66-2.68-4.21-3.18-9.77-3.18-5.17,0-10.22,3-15.46,9.1a80.28,80.28,0,0,0-5.29,7.21c-2.4,3.55-3.61,5.33-4.91,5.33-2.43,0-2.62-2.76-2.62-6.65V51.63Zm0-.93H73.49a.47.47,0,0,0-.47.47V94.75c0,3.37,0,7.57,3.55,7.57,1.8,0,3-1.79,5.68-5.73a81,81,0,0,1,5.23-7.13c5-5.9,9.87-8.78,14.75-8.78,5.35,0,6.63.41,9.11,2.91a9.53,9.53,0,0,1,1.84,3.2c2.89,7.89-2.94,57.9-5.28,74.24l-1.07,7.41c-4.59,31.63-4.4,31.85-3.47,32.92l.46.54a.5.5,0,0,0,.34.16h.74c1.29,0,2-.87,2.85-2a32,32,0,0,1,5.14-5.28c8-6.61,12.84-6.59,16.72-6.57h4.67c3.88,0,8.7,0,16.72,6.57a31.57,31.57,0,0,1,5.14,5.28c.87,1.11,1.56,2,2.84,2h.7a.45.45,0,0,0,.35-.15l.49-.55c.94-1.08,1.13-1.3-3.46-32.94L156,161c-2.34-16.34-8.17-66.36-5.28-74.24a9.81,9.81,0,0,1,1.84-3.2c2.48-2.5,3.76-2.91,9.11-2.91,4.88,0,9.7,2.88,14.75,8.78a79.26,79.26,0,0,1,5.22,7.12c2.68,4,3.89,5.74,5.69,5.74,3.55,0,3.55-4.2,3.55-7.57V51.17a.47.47,0,0,0-.47-.47h-1.54"/><path class="cls-2" d="M186.85,54.72v40c0,.44,0,1.36,0,2.23-.59-.81-1.26-1.79-1.83-2.64a84.47,84.47,0,0,0-5.5-7.49c-5.86-6.85-11.69-10.18-17.81-10.18-5.61,0-8.27.37-12,4.09a13.38,13.38,0,0,0-2.76,4.64c-.68,1.87-1,5.29-1,10.45,0,21.6,6,65.33,6.09,65.75l1.07,7.41c1.11,7.68,2.75,19,3.54,25.55a38.68,38.68,0,0,0-3.07-2.85c-9.14-7.53-15-7.51-19.29-7.49h-4.63c-4.29,0-10.15,0-19.29,7.49a38.68,38.68,0,0,0-3.07,2.85c.79-6.58,2.42-17.86,3.54-25.54l1.07-7.42c.06-.42,6.09-44.16,6.09-65.75,0-5.16-.34-8.58-1-10.45a13.53,13.53,0,0,0-2.76-4.64c-3.69-3.72-6.35-4.09-12-4.09-6.12,0-12,3.33-17.81,10.18a86.52,86.52,0,0,0-5.5,7.49c-.57.85-1.24,1.83-1.83,2.64,0-.87,0-1.79,0-2.23v-40ZM76.58,53.79a.47.47,0,0,0-.47.47V94.75a29.41,29.41,0,0,0,.16,3.54.47.47,0,0,0,.34.38.46.46,0,0,0,.48-.15c.72-.89,1.76-2.42,2.6-3.66a85.77,85.77,0,0,1,5.44-7.41c5.67-6.63,11.26-9.86,17.1-9.86,5.45,0,7.84.33,11.3,3.83a12.37,12.37,0,0,1,2.55,4.3c.64,1.74,1,5.15,1,10.13,0,21.53-6,65.2-6.08,65.62l-1.07,7.42c-1.19,8.21-3,20.62-3.7,26.93a.46.46,0,0,0,.27.47.46.46,0,0,0,.54-.11,35.23,35.23,0,0,1,3.93-3.75c8.88-7.32,14.55-7.3,18.69-7.28h4.65c4.14,0,9.81,0,18.69,7.28a35.23,35.23,0,0,1,3.93,3.75.46.46,0,0,0,.54.11.46.46,0,0,0,.27-.47c-.71-6.31-2.51-18.73-3.7-26.94l-1.07-7.41c-.06-.42-6.08-44.08-6.08-65.62,0-5,.32-8.39,1-10.13a12.37,12.37,0,0,1,2.55-4.3c3.46-3.5,5.85-3.83,11.3-3.83,5.84,0,11.43,3.23,17.1,9.86a83.72,83.72,0,0,1,5.44,7.41c.84,1.24,1.88,2.78,2.6,3.66a.45.45,0,0,0,.48.15.47.47,0,0,0,.34-.38,31.36,31.36,0,0,0,.15-3.54V54.26a.46.46,0,0,0-.46-.47H76.58"/><path class="cls-4" d="M189.86,246.85c-1.29,1.54-2.11,2.58-2.71,1.8-.18-.23-3.08-5.45-4.16-8s-1.64-5-.79-6.09,1.12-1.92,1.81-2.29c.84-.44,1.29-.58,4.23.15s4.23,1.07,4.54.67c.15-.17-.21-1.68-1.48-4.69-1-2.28-1.4-4-.3-5.45,1.27-1.63,2-2.28,2.95-2.38.7-.07,2,0,4.7,1.7,2.27,1.38,6.71,3.74,5.71,5.19-2.14,3.1-2.27,3.14-3,2.67-1.56-1.08-5.16-4.33-5.77-3.76-.42.4-.12,1.24.45,3.24,1,3.66,1.77,4.77-.13,7.14-.88,1.08-2.51,1.35-5.66.49-3.81-1-4.07-.44-3.15,1.74C189.53,244.67,191.33,245.09,189.86,246.85Z"/><path class="cls-2" d="M190.21,247.14Zm2.93-13.74c.14-.17.5-.62-1.41-5.16-.94-2.24-1.31-3.77-.36-5,1.23-1.59,1.87-2.13,2.63-2.2,1-.11,2.44.42,4.41,1.62l.88.53c1.69,1,4.51,2.68,4.74,3.72a.31.31,0,0,1,0,.1.32.32,0,0,1-.06.18,14.19,14.19,0,0,1-2.09,2.7l-.21-.14L200,228.51c-2.77-2.18-4.05-3.08-4.71-2.46s-.35,1.37.16,3.16l.16.55.39,1.31c.8,2.64,1.07,3.53-.44,5.41-.53.67-1.6,1.31-5.17.34-2.39-.66-3.42-.68-3.92-.11s-.17,1.54.22,2.47a33.69,33.69,0,0,0,2.36,4.63c1,1.63,1.1,1.93.42,2.74h0l-.16.19c-.64.77-1.44,1.72-1.73,1.71,0,0-.05,0-.1-.08-.2-.3-3-5.36-4.09-7.88-1.16-2.74-1.47-4.8-.85-5.64l.72-1a3,3,0,0,1,.93-1.1c.7-.36,1-.53,3.91.19l.55.13c3.06.76,4,1,4.46.38m.76-13.27c-1.18.13-2,1-3.27,2.56a3.54,3.54,0,0,0-.74,2.23,10.1,10.1,0,0,0,1,3.68,21.69,21.69,0,0,1,1.47,4.23,20,20,0,0,1-3.43-.71l-.56-.13c-3-.74-3.56-.63-4.56-.11a3.71,3.71,0,0,0-1.28,1.42l-.68,1c-.87,1.16-.62,3.37.74,6.55,1,2.46,4,7.75,4.21,8.09a1,1,0,0,0,.81.44c.74,0,1.43-.8,2.46-2l.16-.2a2.24,2.24,0,0,0,.65-1.46,5.2,5.2,0,0,0-1-2.34,32.59,32.59,0,0,1-2.31-4.52,4.34,4.34,0,0,1-.41-1.35.2.2,0,0,1,0-.15c.07-.08.49-.29,3,.39,3.18.87,5.08.67,6.14-.65A4.73,4.73,0,0,0,197.6,234a11.85,11.85,0,0,0-.68-3.17l-.39-1.3-.15-.55a10,10,0,0,1-.48-2,.42.42,0,0,1,0-.13,18.28,18.28,0,0,1,3.52,2.43l1.7,1.29a1.17,1.17,0,0,0,.91.29c.58-.11,1.06-.72,2.69-3.08a1.28,1.28,0,0,0,.19-1c-.29-1.33-2.52-2.74-5.18-4.32l-.87-.52c-2.87-1.74-4.22-1.84-5-1.76"/><path class="cls-4" d="M202.33,215.72a3.94,3.94,0,0,1,0-2.77,3.13,3.13,0,0,1,1.6-1.76,2.69,2.69,0,0,1,2.27,0,3.42,3.42,0,0,1,1.78,2,4.09,4.09,0,0,1,.26,1.41,3.36,3.36,0,0,1-1.85,3.12A3.07,3.07,0,0,1,202.33,215.72Zm.3-7.93a6.6,6.6,0,0,0-3.42,3.75,7.89,7.89,0,0,0,0,5.58c1.39,3.67,5.19,5.46,8.46,4h0c3.27-1.47,4.81-5.66,3.42-9.33a7,7,0,0,0-3.6-4,5.81,5.81,0,0,0-4.86,0"/><path class="cls-2" d="M202.44,207.36Zm.74,13.37a6.51,6.51,0,0,1-3.53-3.77,7.39,7.39,0,0,1,0-5.26,6.16,6.16,0,0,1,3.18-3.49h0a5.33,5.33,0,0,1,4.47,0,6.49,6.49,0,0,1,3.35,3.7c1.31,3.45-.12,7.37-3.17,8.75a5.32,5.32,0,0,1-4.3,0m-.74-13.37a7.12,7.12,0,0,0-3.67,4,8.27,8.27,0,0,0-.54,2.94,8.58,8.58,0,0,0,.55,3,7.47,7.47,0,0,0,4.05,4.3,6.29,6.29,0,0,0,5-.06c3.49-1.58,5.14-6,3.66-9.93a7.44,7.44,0,0,0-3.84-4.22,6.27,6.27,0,0,0-5.24,0"/><path class="cls-2" d="M202.54,214.31a3.22,3.22,0,0,1,.22-1.19,2.63,2.63,0,0,1,1.35-1.51,2.27,2.27,0,0,1,1.89,0,3,3,0,0,1,1.54,1.71,3.49,3.49,0,0,1,.22,1.24,2.88,2.88,0,0,1-1.57,2.69,2.24,2.24,0,0,1-1.81,0,3,3,0,0,1-1.61-1.74A3.32,3.32,0,0,1,202.54,214.31Zm1.19-3.54a3.54,3.54,0,0,0-1.84,2,4.33,4.33,0,0,0,0,3.09h0a3.93,3.93,0,0,0,2.12,2.27,3.23,3.23,0,0,0,2.55,0,3.81,3.81,0,0,0,2.12-3.54,4.41,4.41,0,0,0-.29-1.57,3.92,3.92,0,0,0-2-2.23,3.21,3.21,0,0,0-2.66,0"/><path class="cls-4" d="M214.83,197.15a1.72,1.72,0,0,0,.52-1.86,2.33,2.33,0,0,0-2.52-1.23,6.62,6.62,0,0,0-4.76,3.94,8.32,8.32,0,0,0-.42,5.47,6.45,6.45,0,0,0,6,5.09,6,6,0,0,0,5.19-3.29,10.52,10.52,0,0,0,1.61-5.93,1.47,1.47,0,0,0-1.76-1.53c-.67.05-1.24.12-1.38,3a4.21,4.21,0,0,1-2.38,3.85c-1.79.66-2.85-.41-3.43-1.79a4,4,0,0,1,.7-4A7.39,7.39,0,0,1,214.83,197.15Z"/><path class="cls-2" d="M208.1,203.39a7.9,7.9,0,0,1,.39-5.18,6.29,6.29,0,0,1,4.41-3.7,1.89,1.89,0,0,1,2,.93,1.37,1.37,0,0,1,.06.39,1.23,1.23,0,0,1-.38.92h0l-.64.32a5.62,5.62,0,0,0-2.1,1.47,4.18,4.18,0,0,0-1.07,2.9,4.48,4.48,0,0,0,.28,1.61c.81,1.95,2.28,2.69,4,2a4.68,4.68,0,0,0,2.68-4.27c.13-2.5.51-2.52,1-2.55a1.26,1.26,0,0,1,.93.21,1.21,1.21,0,0,1,.34.87,10,10,0,0,1-1.55,5.68,5.57,5.57,0,0,1-4.8,3.06,6,6,0,0,1-5.53-4.71m4.66-9.79a7,7,0,0,0-5.1,4.2,8.7,8.7,0,0,0-.47,5.76c.47,2.62,3.24,5.52,6.45,5.47a6.47,6.47,0,0,0,5.6-3.53,10.81,10.81,0,0,0,1.66-6.19,1.91,1.91,0,0,0-2.25-2c-1.12.08-1.67.62-1.81,3.44a3.82,3.82,0,0,1-2.08,3.44c-1.26.47-2.22,0-2.84-1.54a3.4,3.4,0,0,1-.22-1.24,3.31,3.31,0,0,1,.83-2.28,4.78,4.78,0,0,1,1.8-1.26l.73-.36a2.09,2.09,0,0,0,.84-1.72,2.06,2.06,0,0,0-.11-.68,2.78,2.78,0,0,0-3-1.55"/><path class="cls-4" d="M213.54,189.06c-.93,1.68-1.29,1.88.23,2.88s7.77,4.78,8.58,5.25.85.46,1.8-1.14.84-1.9-.81-3c-3.12-2-2.73-1.69-.45-2.79s5.46-2,6-3a13.45,13.45,0,0,0,.81-1.66c.66-1.32-1.85-1.65-4.17-.74a28.73,28.73,0,0,0-3.67,1.59,33.57,33.57,0,0,0-.64-3.84c-1.15-5.3-2.1-3.24-2.76-2.19-1.05,1.66-1.05,1.7-.58,4.21,1.09,5.95,1.2,5.6-.58,4.56C214.54,187.65,214.38,187.55,213.54,189.06Z"/><path class="cls-2" d="M213.14,188.84Zm5.72,1.38c.49-.33.38-.9-.21-4l-.29-1.56c-.43-2.37-.43-2.37.52-3.88l.14-.23c.15-.24.49-.8.66-.84,0,0,.48.21,1.11,3.11a32,32,0,0,1,.63,3.77.49.49,0,0,0,.26.38.48.48,0,0,0,.45,0,29.24,29.24,0,0,1,3.6-1.55c1.69-.66,3.27-.55,3.6-.19,0,0,.08.09,0,.29l-.38.82-.42.81c-.3.5-1.94,1.17-3.39,1.75l-2.44,1-.72.34c-.81.37-1.31.59-1.34,1.09s.51.93,2.32,2.09l.14.09c1.48.94,1.48.94.66,2.32A6.8,6.8,0,0,1,223,197l-.37-.22c-.73-.43-7-4.23-8.55-5.24-1-.66-1-.66-.36-1.77l.28-.49h0c.22-.4.44-.78.62-.83s1.18.43,2.52,1.21l.35.21c.62.37,1,.62,1.42.34M218.23,180l-.13.21a4.06,4.06,0,0,0-.95,2.36,13.18,13.18,0,0,0,.3,2.18l.29,1.57c.26,1.36.45,2.39.49,2.9l-.31-.18-.36-.21c-1.81-1.06-2.56-1.49-3.24-1.3-.52.14-.82.61-1.18,1.27l-.28.48a3.3,3.3,0,0,0-.58,1.49c0,.51.35.93,1.24,1.51,1.54,1,7.86,4.84,8.6,5.27,1.23.73,1.53.22,2.43-1.3a3.83,3.83,0,0,0,.69-1.76c0-.67-.54-1.11-1.65-1.82l-.14-.08a16.83,16.83,0,0,1-1.78-1.22c.16-.09.41-.22.68-.34l.74-.34,2.39-1c1.81-.73,3.37-1.36,3.84-2.13l.49-1,.34-.75a1.36,1.36,0,0,0,.15-.6,1.07,1.07,0,0,0-.28-.72c-.79-.86-3-.7-4.63-.05s-2.59,1.06-3.12,1.3c-.08-.64-.24-1.71-.57-3.22-.56-2.59-1.11-3.7-1.88-3.83s-1.21.66-1.59,1.28"/><path class="cls-4" d="M232.09,173.31c-1.29-.74-1.89.21-3,2.36-.6,1.19-.44,1.54-.19,1.7s1.42.76,1.78.93c.19.08.86-1.16,1.31-2.25S233.09,173.89,232.09,173.31Zm-4.33-2.2c-1.29-.74-1.89.21-3,2.35-.6,1.2-.43,1.55-.19,1.71s1.43.76,1.78.92c.19.09.86-1.15,1.31-2.24s1.08-2.16.08-2.74M230.89,183c-.32.13-.89,0-3.28-1.39-2.19-1.27-6.15-3.52-6.77-3.83s-.46-.85,0-1.73,2.71-5.26,3.4-6.69a3.37,3.37,0,0,1,3.13-2.36,3.27,3.27,0,0,1,3.1,1.16,3.09,3.09,0,0,1,.58,1,3.14,3.14,0,0,1,2.08-.51c1.65.3,2.55,1.4,2.78,3.25.19,1.44-.2,2.22-1,3.71-3,5.95-3.44,7.15-4,7.38"/><path class="cls-2" d="M231.06,183.4Zm-3.22-2.22c-2.08-1.21-6.14-3.52-6.79-3.84-.17-.09-.29-.15.17-1.12l3.4-6.69a2.93,2.93,0,0,1,2.77-2.1,2.78,2.78,0,0,1,2.68,1,2.61,2.61,0,0,1,.49.84.47.47,0,0,0,.29.31.48.48,0,0,0,.42,0,2.72,2.72,0,0,1,1.74-.43c1.43.26,2.19,1.16,2.4,2.85.16,1.27-.14,1.93-.91,3.44l-2.16,4.29c-.93,1.85-1.39,2.78-1.62,2.87h0c-.12.05-.65-.07-2.88-1.36m-.56-14.67a3.81,3.81,0,0,0-3.49,2.62l-3.4,6.69c-.33.67-.86,1.79.25,2.35.59.3,4.46,2.49,6.73,3.81,2.55,1.48,3.17,1.63,3.69,1.42s.83-.76,2.11-3.32l2.15-4.28a6.69,6.69,0,0,0,1.06-3.25,4.72,4.72,0,0,0,0-.73c-.26-2.09-1.32-3.31-3.16-3.64a3.24,3.24,0,0,0-1.95.32,4,4,0,0,0-.43-.66,3.72,3.72,0,0,0-3.51-1.33"/><path class="cls-2" d="M224.84,174.78a.17.17,0,0,1,0-.07,2.65,2.65,0,0,1,.37-1c.6-1.18,1.14-2.18,1.63-2.33a.89.89,0,0,1,.7.17.52.52,0,0,1,.29.5,4.06,4.06,0,0,1-.42,1.33l-.15.33a10.9,10.9,0,0,1-.95,1.87C225.82,175.31,225,174.89,224.84,174.78Zm1.73-4.33c-.86.26-1.43,1.28-2.2,2.81-.26.52-.89,1.75,0,2.3.28.18,1.49.8,1.84.95a.53.53,0,0,0,.41,0c.52-.2,1.24-1.81,1.52-2.49l.14-.31c.39-.91,1-2.29-.26-3h0a1.77,1.77,0,0,0-1.42-.26"/><path class="cls-2" d="M229.17,177a.17.17,0,0,1,0-.07,2.58,2.58,0,0,1,.37-1c.6-1.19,1.14-2.19,1.63-2.33.12,0,.31-.06.7.16a.54.54,0,0,1,.29.5,3.93,3.93,0,0,1-.43,1.34l-.14.32a11.1,11.1,0,0,1-1,1.88C230.14,177.51,229.35,177.09,229.17,177Zm1.72-4.32c-.85.25-1.42,1.27-2.19,2.8-.27.52-.89,1.75,0,2.3.28.18,1.49.8,1.83,1a.67.67,0,0,0,.42,0c.51-.21,1.23-1.82,1.52-2.5l.13-.31c.4-.91,1-2.29-.25-3h0a1.78,1.78,0,0,0-1.43-.25"/><path class="cls-4" d="M235.18,159.09c-1.2.08-1.22.34-.81,1,.69,1.2.85,1.28,1,1.05s.86-1.68,1-2S236,159,235.18,159.09ZM238,169.18a.82.82,0,0,1-1.12.38,11.19,11.19,0,0,1-2.16-2.7c-1-1.51-4.37-6.53-4.84-7.38a2.16,2.16,0,0,1,.08-2.21c.35-.77.78-1.62,3.13-1.89s9-.7,10-.81a.7.7,0,0,1,.81,1c-1.08,2.63-1.19,2.81-2,2.9-1.89.23-2.32.31-2.32.31s-.9,2-1.39,3.17c-.58,1.35-.85,1.85-.85,1.85s1.12,1.94,1.43,2.52,0,1.27-.81,2.86"/><path class="cls-2" d="M237.09,169.15a12,12,0,0,1-2-2.55l-.31-.46c-1.22-1.84-4.08-6.13-4.5-6.89s-.24-1,.1-1.79.62-1.37,2.76-1.62c1.39-.16,4.32-.37,6.67-.55l3.34-.26a.42.42,0,0,1,.31,0,.29.29,0,0,1,0,.17.38.38,0,0,1,0,.16c-1,2.54-1.1,2.55-1.59,2.61l-2.35.31a.43.43,0,0,0-.34.27l-1.39,3.18-.84,1.81a.59.59,0,0,0,0,.23.46.46,0,0,0,0,.23l1.42,2.49a.54.54,0,0,1,.06.25,6.89,6.89,0,0,1-.84,2.13l0,.06a.4.4,0,0,1-.21.2A.39.39,0,0,1,237.09,169.15Zm6-15-3.3.26c-2.36.17-5.3.39-6.71.55-2.46.28-3.06,1.18-3.5,2.16a2.59,2.59,0,0,0-.06,2.62c.43.79,3.21,5,4.54,7l.31.46a10.51,10.51,0,0,0,2.34,2.87,1.33,1.33,0,0,0,1,.06,1.28,1.28,0,0,0,.75-.66l0-.07a6.78,6.78,0,0,0,.94-2.54,1.36,1.36,0,0,0-.17-.67l-1.32-2.32.76-1.65s1.11-2.52,1.28-2.92l2.06-.28c1.09-.13,1.28-.6,2.34-3.18a1.32,1.32,0,0,0,.1-.51,1.24,1.24,0,0,0-.23-.73,1.19,1.19,0,0,0-1.16-.4"/><path class="cls-2" d="M235.21,159.55Zm0,0,.43,0c-.12.24-.29.58-.49,1-.1-.15-.21-.33-.38-.62l-.13-.27a2.52,2.52,0,0,1,.57-.08h0m.4-1-.46,0h0c-.69,0-1.19.15-1.4.55s.05.9.22,1.19c.61,1.06.87,1.39,1.27,1.37a.57.57,0,0,0,.51-.36l.07-.14c.4-.79.83-1.65.92-1.93a.56.56,0,0,0-.08-.52c-.22-.28-.53-.25-1-.2"/><path class="cls-4" d="M28.72,154.15l-2.94,1.17.29.73c.3.75.64,1.19,1,1.32a1.71,1.71,0,0,0,1.23-.06,1.54,1.54,0,0,0,.91-.81,2.44,2.44,0,0,0-.24-1.7Zm-.88-2.21-.2-.51c-.31-.77-.63-1.23-1-1.38a1.54,1.54,0,0,0-1.24,0,1.41,1.41,0,0,0-1,.93,2.57,2.57,0,0,0,.22,1.49l.24.59,2.94-1.17m4.4.8-1.49.6.2.49q1.67,4.17-1.77,5.54a4,4,0,0,1-1.79.33,2.93,2.93,0,0,1-1.5-.51,3.7,3.7,0,0,1-1.11-1.08,12,12,0,0,1-1-2l-3.14,1.25-.88-2.21,3.14-1.25a9.22,9.22,0,0,1-.66-2.5,3.21,3.21,0,0,1,.5-2,3.52,3.52,0,0,1,1.8-1.41,4,4,0,0,1,2.14-.3,3.12,3.12,0,0,1,1.71.89,7.73,7.73,0,0,1,1.44,2.52l1.49-.59.88,2.2"/><path class="cls-2" d="M23.11,154.32a.43.43,0,0,0,.26-.25.53.53,0,0,0,0-.18.33.33,0,0,0,0-.17,8.62,8.62,0,0,1-.62-2.36,1.7,1.7,0,0,1,0-.22,2.73,2.73,0,0,1,.43-1.47,3.23,3.23,0,0,1,1.58-1.22,3.54,3.54,0,0,1,1.89-.27,2.56,2.56,0,0,1,1.46.76,7.14,7.14,0,0,1,1.34,2.36.45.45,0,0,0,.6.26l1.06-.42.54,1.35-1.06.42a.46.46,0,0,0-.29.43.51.51,0,0,0,0,.17l.19.49a6.1,6.1,0,0,1,.52,2.26,2.75,2.75,0,0,1-2,2.68,3.75,3.75,0,0,1-1.58.3,2.53,2.53,0,0,1-1.29-.44,3.36,3.36,0,0,1-1-.94,11.87,11.87,0,0,1-.92-1.93.44.44,0,0,0-.24-.26.45.45,0,0,0-.36,0l-2.71,1.08-.54-1.35Zm1.3-6.73a4.06,4.06,0,0,0-2,1.59,3.58,3.58,0,0,0-.58,2,2.81,2.81,0,0,0,0,.29,9.13,9.13,0,0,0,.54,2.19l-2.73,1.09a.47.47,0,0,0-.26.6l.88,2.21a.49.49,0,0,0,.25.26.43.43,0,0,0,.35,0l2.73-1.08a11.29,11.29,0,0,0,.82,1.67,4.3,4.3,0,0,0,1.23,1.21,3.62,3.62,0,0,0,1.73.59,4.5,4.5,0,0,0,2-.37,3.69,3.69,0,0,0,2.6-3.55,7.08,7.08,0,0,0-.57-2.59l0-.06,1.06-.42a.49.49,0,0,0,.26-.25.58.58,0,0,0,0-.19.55.55,0,0,0,0-.17l-.88-2.2a.45.45,0,0,0-.6-.26l-1.09.43a7.52,7.52,0,0,0-1.34-2.26,3.65,3.65,0,0,0-2-1,4.45,4.45,0,0,0-2.38.33"/><path class="cls-2" d="M25.09,152.35a2.74,2.74,0,0,1-.22-1,2,2,0,0,1,0-.25c.06-.24.29-.44.7-.6a1.15,1.15,0,0,1,.88-.06c.1.05.39.25.74,1.13l0,.08-2.08.83Zm.16-2.68A1.85,1.85,0,0,0,24,150.92a3,3,0,0,0,.24,1.77l.24.59a.45.45,0,0,0,.6.26L28,152.37a.45.45,0,0,0,.26-.6l-.2-.51a2.83,2.83,0,0,0-1.22-1.64,2,2,0,0,0-1.6,0"/><path class="cls-2" d="M28.46,154.75l.09.22a3.22,3.22,0,0,1,.28,1.11.57.57,0,0,1,0,.24,1.12,1.12,0,0,1-.65.56,1.32,1.32,0,0,1-.91.06c-.1,0-.39-.22-.73-1.06l-.12-.3Zm.09-1-2.94,1.17a.45.45,0,0,0-.26.6l.29.73a2.48,2.48,0,0,0,1.28,1.59,2.17,2.17,0,0,0,1.56-.07,2.05,2.05,0,0,0,1.17-1.06,2.81,2.81,0,0,0-.24-2.05l-.26-.65a.45.45,0,0,0-.6-.26"/><path class="cls-4" d="M26.12,163.93a1.31,1.31,0,0,1,0,1,1.25,1.25,0,0,1-.7.74,1.27,1.27,0,0,1-1,0,1.32,1.32,0,0,1-.77-1.71,1.33,1.33,0,0,1,1.71-.76A1.27,1.27,0,0,1,26.12,163.93Z"/><path class="cls-2" d="M24.61,165.28a.82.82,0,0,1-.48-.45.86.86,0,0,1,.44-1.14.78.78,0,0,1,.65,0,.82.82,0,0,1,.48.45.8.8,0,0,1,0,.66.76.76,0,0,1-.45.48A.84.84,0,0,1,24.61,165.28Zm-.42-2.44a1.74,1.74,0,0,0-.94,1,1.78,1.78,0,0,0,2.4,2.26,1.7,1.7,0,0,0,.94-1,1.76,1.76,0,0,0,0-1.37,1.79,1.79,0,0,0-1-.94,1.76,1.76,0,0,0-1.37,0"/><polygon class="cls-4" points="37.08 163.81 38.13 165.96 34.27 167.84 39.6 168.99 40.86 171.57 33.96 170.08 29.85 177.39 28.63 174.87 31.93 168.98 26.94 171.41 25.89 169.25 37.08 163.81"/><path class="cls-2" d="M36.87,164.43l.64,1.32-3.44,1.67a.47.47,0,0,0-.27.42s0,0,0,.06a.48.48,0,0,0,.36.4l5.12,1.1c.1.22.41.84.73,1.51l-6-1.28a.48.48,0,0,0-.51.23s-3,5.3-3.67,6.53c-.32-.65-.62-1.27-.73-1.51l3.19-5.68a.43.43,0,0,0,.06-.22.48.48,0,0,0-.13-.32.46.46,0,0,0-.54-.1l-4.57,2.22c-.2-.41-.45-.9-.65-1.32Zm0-1-11.19,5.44a.47.47,0,0,0-.23.27.43.43,0,0,0,0,.35l1,2.16a.47.47,0,0,0,.62.21L30.8,170c-.88,1.58-2.58,4.6-2.58,4.6a.46.46,0,0,0-.06.23.53.53,0,0,0,.05.2l1.23,2.52a.44.44,0,0,0,.4.26.46.46,0,0,0,.42-.23l3.94-7L40.76,172a.46.46,0,0,0,.46-.17.42.42,0,0,0,.1-.28.35.35,0,0,0,0-.2L40,168.79a.45.45,0,0,0-.32-.25l-4-.87,2.65-1.29a.46.46,0,0,0,.24-.27.37.37,0,0,0,0-.15.46.46,0,0,0-.05-.2l-1-2.15a.47.47,0,0,0-.26-.24.5.5,0,0,0-.36,0"/><path class="cls-4" d="M33.3,178.81a1.29,1.29,0,0,1-.57,1.77,1.23,1.23,0,0,1-1,.08A1.25,1.25,0,0,1,31,180a1.32,1.32,0,1,1,2.35-1.2Z"/><path class="cls-2" d="M31.86,180.22a.85.85,0,0,1-.55-1.08.79.79,0,0,1,.43-.5.78.78,0,0,1,.65,0,.79.79,0,0,1,.5.43.78.78,0,0,1,0,.65.85.85,0,0,1-1.08.55Zm-.54-2.41a1.7,1.7,0,0,0-.89,1,1.72,1.72,0,0,0,.1,1.37,1.79,1.79,0,0,0,3.3-.26,1.74,1.74,0,0,0-.11-1.36,1.79,1.79,0,0,0-2.4-.79"/><polygon class="cls-4" points="44.4 178.54 49.1 187.2 46.93 188.23 45.27 185.07 36.37 189.86 35.24 187.75 44.14 182.96 42.34 179.65 44.4 178.54"/><path class="cls-2" d="M44.21,179.17,48.46,187l-1.32.63-1.46-2.76a.44.44,0,0,0-.27-.23.5.5,0,0,0-.36,0l-8.49,4.57c-.22-.4-.48-.89-.69-1.29l8.49-4.57a.45.45,0,0,0,.22-.27.34.34,0,0,0,0-.14.59.59,0,0,0-.05-.22L43,179.84Zm0-1-2.06,1.1a.44.44,0,0,0-.22.28.3.3,0,0,0,0,.13.54.54,0,0,0,0,.22l1.58,2.91L35,187.34a.49.49,0,0,0-.23.28.51.51,0,0,0,0,.13.46.46,0,0,0,.06.22L36,190.08a.48.48,0,0,0,.63.19l8.49-4.57,1.44,2.74a.46.46,0,0,0,.61.2l2.17-1a.46.46,0,0,0,.24-.27.48.48,0,0,0,0-.37l-4.7-8.66a.46.46,0,0,0-.63-.18"/><path class="cls-4" d="M51.14,194.85a3.88,3.88,0,0,0-2.49-1.91,4.18,4.18,0,0,0-3.24.51,3.94,3.94,0,0,0-2.08,2.91,4.09,4.09,0,0,0,.5,2.76A3.85,3.85,0,0,0,46.32,201a4.39,4.39,0,0,0,5.2-3A3.86,3.86,0,0,0,51.14,194.85Zm2-1.12a6.16,6.16,0,0,1,.61,4.88,6.38,6.38,0,0,1-3.08,4,6.29,6.29,0,0,1-4.93.68,6.5,6.5,0,0,1-4.56-8,6.55,6.55,0,0,1,9.57-3.93,6.35,6.35,0,0,1,2.39,2.38"/><path class="cls-2" d="M45.87,202.82a6,6,0,0,1-4.23-7.41A6.06,6.06,0,0,1,52.74,194a5.63,5.63,0,0,1,.81,2.87,6.11,6.11,0,0,1-.24,1.66,6.14,6.14,0,0,1-7.44,4.33ZM47.52,190a7.09,7.09,0,0,0-6.77,5.13,6.95,6.95,0,0,0,4.88,8.57,6.77,6.77,0,0,0,5.28-.73,6.84,6.84,0,0,0,3.3-4.26,6.63,6.63,0,0,0-.66-5.23,7,7,0,0,0-6-3.48"/><path class="cls-2" d="M46.44,200.54a3.39,3.39,0,0,1-2.21-1.65,3.64,3.64,0,0,1-.45-2.45,3.51,3.51,0,0,1,1.86-2.59,3.72,3.72,0,0,1,2.89-.46,3.6,3.6,0,0,1,2.55,4.46,3.94,3.94,0,0,1-4.64,2.69m-1.26-7.49a4.43,4.43,0,0,0-2.31,3.24,4.49,4.49,0,0,0,.56,3.06,4.31,4.31,0,0,0,2.78,2.09A4.84,4.84,0,0,0,52,198.1a4.69,4.69,0,0,0,.18-1.27,4.56,4.56,0,0,0-3.39-4.34,4.64,4.64,0,0,0-3.58.56"/><path class="cls-4" d="M54.31,205.79l.4.65a3.76,3.76,0,0,0,.77,1,1.12,1.12,0,0,0,.65.25,1.24,1.24,0,0,0,.71-.21,1.13,1.13,0,0,0,.6-1,3.2,3.2,0,0,0-.59-1.43l-.36-.57Zm2.9-4.57,1.32,2.15a8.4,8.4,0,0,1,1.24,2.7,3,3,0,0,1-.29,1.85A3.64,3.64,0,0,1,58,209.43a3.37,3.37,0,0,1-2.2.56,3.6,3.6,0,0,1-2-1,10.83,10.83,0,0,1-1.49-2l-4.48,2.78-1.24-2,10.58-6.55"/><path class="cls-2" d="M57.06,201.86c.32.53,1.08,1.75,1.08,1.75a7.92,7.92,0,0,1,1.17,2.53,3.22,3.22,0,0,1,0,.43,2.59,2.59,0,0,1-.27,1.15A3.39,3.39,0,0,1,57.8,209a2.93,2.93,0,0,1-1.9.49,3.12,3.12,0,0,1-1.75-.84,10.34,10.34,0,0,1-1.4-1.93.47.47,0,0,0-.29-.21.43.43,0,0,0-.35.06L48,209.14c-.24-.39-.52-.83-.75-1.22Zm-.1-1-10.58,6.55a.43.43,0,0,0-.2.29.48.48,0,0,0,0,.35l1.24,2a.46.46,0,0,0,.64.15l4.1-2.54a9.37,9.37,0,0,0,1.32,1.75,4,4,0,0,0,2.26,1.07,3.91,3.91,0,0,0,2.5-.63,4.13,4.13,0,0,0,1.61-1.69,3.49,3.49,0,0,0,.32-2.13,8.36,8.36,0,0,0-1.29-2.88L57.6,201a.46.46,0,0,0-.64-.15"/><path class="cls-2" d="M56.34,205.07l.11.18a2.83,2.83,0,0,1,.53,1.19v0a.67.67,0,0,1-.39.62.7.7,0,0,1-.44.13.64.64,0,0,1-.39-.14,4,4,0,0,1-.66-.88l-.15-.25Zm-.09-1-2.19,1.35a.48.48,0,0,0-.15.64l.4.65a4.62,4.62,0,0,0,.88,1.12,1.55,1.55,0,0,0,.92.34,1.71,1.71,0,0,0,1-.27,1.58,1.58,0,0,0,.82-1.44,3.4,3.4,0,0,0-.66-1.66l-.35-.58a.51.51,0,0,0-.29-.21.53.53,0,0,0-.35.06"/><polygon class="cls-4" points="62.27 209.35 67.19 216.82 56.8 223.67 55.48 221.67 64.02 216.04 61.73 212.58 53.2 218.2 51.88 216.2 62.27 209.35"/><path class="cls-2" d="M62.14,210l4.41,6.69L56.93,223l-.8-1.23,8.14-5.37a.46.46,0,0,0,.21-.39.41.41,0,0,0-.08-.25l-2.28-3.47a.52.52,0,0,0-.3-.2.45.45,0,0,0-.34.07l-8.15,5.37c-.25-.38-.56-.84-.81-1.23ZM62,209l-10.39,6.84a.52.52,0,0,0-.2.3.49.49,0,0,0,.07.35l1.32,2a.47.47,0,0,0,.64.13l8.15-5.37,1.77,2.69-8.14,5.37a.48.48,0,0,0-.2.3.28.28,0,0,0,0,.09.5.5,0,0,0,.08.26l1.32,2a.46.46,0,0,0,.64.13l10.39-6.85a.5.5,0,0,0,.2-.29.47.47,0,0,0-.07-.35l-4.93-7.47A.45.45,0,0,0,62,209"/><polygon class="cls-4" points="68.75 219.08 72.65 224.63 70.76 225.95 68.22 222.33 66.39 223.62 68.93 227.24 67.05 228.56 64.51 224.94 61.82 226.83 64.36 230.45 62.46 231.78 58.56 226.23 68.75 219.08"/><path class="cls-2" d="M68.64,219.73,72,224.52l-1.12.79-2.28-3.24a.43.43,0,0,0-.3-.19A.41.41,0,0,0,68,222l-1.84,1.29a.46.46,0,0,0-.2.38.48.48,0,0,0,.09.27s1.85,2.63,2.27,3.24l-1.12.79-2.28-3.25a.44.44,0,0,0-.29-.19.47.47,0,0,0-.35.08l-2.69,1.89a.46.46,0,0,0-.2.38.43.43,0,0,0,.09.26l2.27,3.25-1.14.79-3.36-4.79Zm-.16-1L58.3,225.85a.46.46,0,0,0-.19.3.45.45,0,0,0,.08.35l3.89,5.55a.47.47,0,0,0,.65.11l1.89-1.33a.48.48,0,0,0,.2-.3v-.08a.5.5,0,0,0-.08-.27l-2.28-3.24,1.93-1.35c.43.6,2.28,3.24,2.28,3.24a.45.45,0,0,0,.64.11l1.89-1.32a.51.51,0,0,0,.19-.3v-.08a.47.47,0,0,0-.08-.26L67,223.73c.36-.24.73-.5,1.08-.75l2.27,3.24a.49.49,0,0,0,.3.19.48.48,0,0,0,.35-.08L72.91,225a.46.46,0,0,0,.12-.64l-3.9-5.55a.43.43,0,0,0-.3-.19.44.44,0,0,0-.35.07"/><path class="cls-4" d="M75,233.1l-7.21,2,3.3,4.39Zm1.88-2.93,1.43,1.91-5.73,9.37.83,1.11-1.8,1.35L63.7,233.35,65.48,232l.83,1.09,10.58-2.94"/><path class="cls-2" d="M66.43,233.55l10.28-2.85,1.05,1.41-5.57,9.1a.42.42,0,0,0-.07.24.47.47,0,0,0,.09.28l.56.74-1.06.79-7.36-9.81,1-.78.55.72A.44.44,0,0,0,66.43,233.55Zm10.33-3.83-10.27,2.86-.63-.84a.46.46,0,0,0-.31-.18.41.41,0,0,0-.34.09L63.43,233a.47.47,0,0,0-.1.65l7.92,10.56a.42.42,0,0,0,.3.18.44.44,0,0,0,.35-.09l1.8-1.35a.46.46,0,0,0,.18-.37.47.47,0,0,0-.09-.28l-.64-.85,5.57-9.11a.42.42,0,0,0,.07-.24.47.47,0,0,0-.09-.28l-1.44-1.91a.48.48,0,0,0-.5-.17"/><path class="cls-2" d="M74,233.86l-2.94,4.8-2.49-3.31Zm.88-1.2-7.22,2a.46.46,0,0,0-.31.3.45.45,0,0,0,.07.43l3.3,4.39a.46.46,0,0,0,.4.19.47.47,0,0,0,.37-.22l3.91-6.39a.45.45,0,0,0,0-.52.46.46,0,0,0-.49-.16"/><path class="cls-4" d="M84,242.56a3.92,3.92,0,0,0-2.77-1.47,4.22,4.22,0,0,0-3.1,1,4,4,0,0,0-1.58,3.22,4.12,4.12,0,0,0,1,2.64,3.84,3.84,0,0,0,2.76,1.43,4.4,4.4,0,0,0,4.63-3.83A3.88,3.88,0,0,0,84,242.56Zm1.8-1.43a6.18,6.18,0,0,1,1.42,4.71,6.36,6.36,0,0,1-2.38,4.43A6.26,6.26,0,0,1,80,251.76a6.48,6.48,0,0,1-5.82-7.12,6.62,6.62,0,0,1,5.44-5.78,6.53,6.53,0,0,1,6.09,2.27"/><path class="cls-2" d="M80.08,251.3a6,6,0,0,1-5.4-6.61,6,6,0,0,1,2.2-4.05,6,6,0,0,1,6-1,6,6,0,0,1,2.55,1.81,5.65,5.65,0,0,1,1.35,3.7,5.27,5.27,0,0,1,0,.68,6.15,6.15,0,0,1-6.62,5.5Zm-.49-12.9a7.1,7.1,0,0,0-5.83,6.18,6.91,6.91,0,0,0,11.32,6,6.86,6.86,0,0,0,2.55-4.74,6.71,6.71,0,0,0-1.52-5.06,7,7,0,0,0-6.52-2.43"/><path class="cls-2" d="M84.31,242.27Zm-4,6.69a3.35,3.35,0,0,1-2.44-1.27,3.58,3.58,0,0,1-.86-2.34,3.51,3.51,0,0,1,1.41-2.86,3.74,3.74,0,0,1,2.77-.94,3.48,3.48,0,0,1,2.46,1.31h0a3.37,3.37,0,0,1,.79,2.67A3.93,3.93,0,0,1,80.26,249m-2.48-7.18A4.4,4.4,0,0,0,76,245.36a4.47,4.47,0,0,0,1.06,2.92,4.3,4.3,0,0,0,3.09,1.6,4.84,4.84,0,0,0,5.12-4.24,5.28,5.28,0,0,0,0-.55,4.32,4.32,0,0,0-1-2.82,4.39,4.39,0,0,0-3.09-1.64,4.64,4.64,0,0,0-3.44,1.15"/><circle class="cls-1" cx="131.94" cy="261.27" r="38.26"/><path class="cls-2" d="M94.14,261.27a37.8,37.8,0,1,1,37.8,37.8A37.85,37.85,0,0,1,94.14,261.27Zm-.92,0a38.73,38.73,0,1,0,38.72-38.72,38.77,38.77,0,0,0-38.72,38.72"/><path class="cls-4" d="M139.73,249.1l6.59,16.55L132,275.76l-14.39-10.11c.76-1.89,5.94-14.91,6.6-16.55Z"/><path class="cls-2" d="M139.42,249.57c.22.55,6.08,15.27,6.34,15.91-.57.39-13.31,9.36-13.81,9.71l-13.82-9.71c.25-.64,6.12-15.36,6.34-15.91Zm-15.26-.93a.47.47,0,0,0-.44.29l-6.59,16.55a.46.46,0,0,0,.17.55l14.38,10.11a.47.47,0,0,0,.53,0L146.59,266a.46.46,0,0,0,.16-.55l-6.59-16.55a.47.47,0,0,0-.43-.29H124.16"/><path class="cls-4" d="M158.79,266.5l-9.46-1.67-6.82-17.08,5.59-8.09,14.2,3.86a34.85,34.85,0,0,1,4.54,13.36Z"/><path class="cls-2" d="M148.29,240.19,162,243.92a34.31,34.31,0,0,1,4.37,12.83L158.61,266l-9-1.58c-.18-.46-6.45-16.17-6.63-16.61C143.29,247.43,148,240.68,148.29,240.19Zm-.57-.79-5.59,8.08a.46.46,0,0,0,0,.44L148.9,265a.48.48,0,0,0,.35.28l9.46,1.67a.51.51,0,0,0,.44-.16l8-9.62a.45.45,0,0,0,.1-.35,35.24,35.24,0,0,0-4.6-13.54.46.46,0,0,0-.28-.21l-14.2-3.87a.45.45,0,0,0-.5.19"/><path class="cls-4" d="M161,268.68l6.1-7.29a35,35,0,0,1-5.06,18.06Z"/><path class="cls-2" d="M166.6,262.72a34.47,34.47,0,0,1-4.24,15.21c-.2-2.15-.84-8.78-.87-9.1C161.69,268.58,165.35,264.21,166.6,262.72Zm.16-1.63-6.11,7.29a.48.48,0,0,0-.11.34l1,10.77a.48.48,0,0,0,.36.41.47.47,0,0,0,.5-.21,35.52,35.52,0,0,0,5.14-18.3.46.46,0,0,0-.31-.44.45.45,0,0,0-.51.14"/><path class="cls-4" d="M143.32,294.56a35.38,35.38,0,0,1-22.76,0l0,0,11.43-5.8,11.45,5.81Z"/><path class="cls-2" d="M125,292.76l6.92-3.51,10.2,5.17a34.13,34.13,0,0,1-20.4,0Zm6.71-4.44-11.43,5.8a.46.46,0,0,0-.23.46.53.53,0,0,0,.34.41,35.64,35.64,0,0,0,23,0l.08,0a.5.5,0,0,0,.35-.4v0a.45.45,0,0,0-.26-.41l-11.45-5.81a.45.45,0,0,0-.42,0"/><path class="cls-4" d="M147.16,293l-13.67-6.93v-7.6l15.09-10.61,9.4,1.66c.16,1.71,1.33,13.84,1.33,13.84a35.48,35.48,0,0,1-12.1,9.62Z"/><path class="cls-2" d="M148.69,268.33l8.86,1.56c.06.66,1.24,12.91,1.28,13.29a35.22,35.22,0,0,1-11.68,9.28l-13.2-6.7v-7.07Zm-.38-.87-15.09,10.61a.47.47,0,0,0-.19.38v7.6a.46.46,0,0,0,.26.41L147,293.4a.57.57,0,0,0,.46,0,36,36,0,0,0,12.26-9.74.44.44,0,0,0,.1-.33l-1.33-13.85a.46.46,0,0,0-.38-.41l-9.4-1.65a.44.44,0,0,0-.35.07"/><path class="cls-4" d="M102.88,268.68l-6.11-7.29a34.94,34.94,0,0,0,5.07,18.06Z"/><path class="cls-2" d="M97.28,262.72c1.25,1.49,4.92,5.86,5.12,6.11,0,.32-.67,7-.88,9.11A34.81,34.81,0,0,1,97.28,262.72ZM96.61,261a.47.47,0,0,0-.3.44,35.52,35.52,0,0,0,5.14,18.3.47.47,0,0,0,.5.22.48.48,0,0,0,.36-.41l1-10.78a.47.47,0,0,0-.11-.34l-6.11-7.29a.47.47,0,0,0-.52-.14"/><path class="cls-4" d="M114.56,264.84l6.81-17.1-5.59-8.08-14.19,3.86A35,35,0,0,0,97,256.88l8,9.61Z"/><path class="cls-2" d="M115.59,240.19l5.26,7.61c-.18.44-6.44,16.16-6.63,16.62l-9,1.57-7.73-9.24a34.29,34.29,0,0,1,4.36-12.83Zm.07-1-14.2,3.87a.43.43,0,0,0-.27.21,35.09,35.09,0,0,0-4.61,13.54.51.51,0,0,0,.11.35l8,9.61a.47.47,0,0,0,.44.16l9.47-1.66A.45.45,0,0,0,115,265l6.81-17.1a.44.44,0,0,0,0-.43l-5.58-8.09a.48.48,0,0,0-.51-.18"/><path class="cls-4" d="M115.31,267.84l-9.4,1.66c-.17,1.72-1.34,13.84-1.34,13.84A35.48,35.48,0,0,0,116.74,293l13.66-6.93v-7.61Z"/><path class="cls-2" d="M110.29,269.2l4.91-.87,14.73,10.36v7.08l-13.18,6.69a34.91,34.91,0,0,1-11.69-9.28c0-.38,1.21-12.63,1.28-13.29Zm4.94-1.81-9.4,1.65a.45.45,0,0,0-.38.41l-1.34,13.85a.48.48,0,0,0,.1.33,36.05,36.05,0,0,0,12.33,9.77.43.43,0,0,0,.41,0l13.66-6.93a.47.47,0,0,0,.25-.41v-7.61a.43.43,0,0,0-.2-.38l-15.08-10.61a.44.44,0,0,0-.35-.07"/><path class="cls-4" d="M115.46,236.54l5.65-8.73a35.26,35.26,0,0,0-16.84,11.78Z"/><path class="cls-2" d="M120,228.72l-4.8,7.42-9.59,2.61A34.65,34.65,0,0,1,120,228.72Zm1-1.35A35.64,35.64,0,0,0,103.9,239.3a.47.47,0,0,0,.49.74l11.19-3a.48.48,0,0,0,.27-.19l5.65-8.74a.47.47,0,0,0,0-.53.46.46,0,0,0-.51-.16"/><path class="cls-4" d="M125.51,226.69a35.39,35.39,0,0,1,12.87,0l7.21,11.16L140,246h-16s-4.9-7.1-5.64-8.16Z"/><path class="cls-2" d="M131.94,226.56a35.2,35.2,0,0,1,6.16.56c.22.34,6.62,10.23,6.93,10.72-.31.46-5.08,7.36-5.32,7.71H124.17l-5.32-7.71c.32-.48,6.72-10.38,6.94-10.72A35.17,35.17,0,0,1,131.94,226.56Zm-6.51-.33a.49.49,0,0,0-.31.21l-7.21,11.16a.47.47,0,0,0,0,.52l5.64,8.16a.47.47,0,0,0,.38.2h16a.47.47,0,0,0,.38-.2l5.64-8.16a.47.47,0,0,0,0-.52l-7.21-11.16a.44.44,0,0,0-.31-.2,35.46,35.46,0,0,0-6.52-.6,36.24,36.24,0,0,0-6.51.59"/><path class="cls-4" d="M159.6,239.58l-11.18-3-5.64-8.73a35.38,35.38,0,0,1,16.81,11.74Z"/><path class="cls-2" d="M143.92,228.72a34.75,34.75,0,0,1,14.38,10l-9.58-2.6C148.55,235.89,145,230.43,143.92,228.72Zm-1.51-1.19a.49.49,0,0,0,0,.53l5.64,8.73a.43.43,0,0,0,.27.19L159.48,240a.46.46,0,0,0,.5-.21.5.5,0,0,0,0-.56,35.61,35.61,0,0,0-17-11.89.48.48,0,0,0-.52.16"/></g></g></svg>