<svg xmlns="http://www.w3.org/2000/svg" viewBox="0 0 145.08 300"><defs><style>.cls-1{fill:#001c58;}.cls-2{fill:#fff;}</style></defs><title>Tottenham</title><g id="Слой_2" data-name="Слой 2"><g id="Слой_1-2" data-name="Слой 1"><path id="path8066" class="cls-1" d="M40.2,202.47A3.67,3.67,0,0,1,38.09,201c-2.82,4.35-4,8.24-3,11.73a37.86,37.86,0,0,0,32.72,26.89c-14.78-4.49-25.73-19.89-27.64-37.11m-3-8.66a22,22,0,0,1-2.3-1.82,37.79,37.79,0,0,0-1.28,11.46c0,.8.09,1.6.17,2.39a24.29,24.29,0,0,1,3.31-7.3A11.31,11.31,0,0,1,37.17,193.81Zm.73-2.23a9.93,9.93,0,0,1,1.46-2.4,6.53,6.53,0,0,1,1.5-1.32,34.33,34.33,0,0,1,8.64-16.81,38,38,0,0,0-13.91,18.61A11.57,11.57,0,0,0,37.9,191.58Zm55.48,33.66A54.39,54.39,0,0,1,84,223.39a8.86,8.86,0,0,1-5-4.67,9.46,9.46,0,0,1-.86-3.59,10.41,10.41,0,0,1,.3-2.89,196.34,196.34,0,0,1-32.82-13.18,9.48,9.48,0,0,1-1,1.54,5.86,5.86,0,0,1-2.13,1.65,47.52,47.52,0,0,0,7.29,20.41c5.29,8.16,12.48,13.75,20.25,15.51,2.76.62,6.36,1.39,9.58.68a37.89,37.89,0,0,0,26.45-21.78,14.49,14.49,0,0,1-1.86.18C101.48,225.22,95.75,225.5,93.38,225.24Zm15.81-24.87a37.65,37.65,0,0,0-2.43-11.93c-1.74-4.56-7.57-7.8-15.24-9.54C77.34,175.7,58.71,181,46.86,191a11.38,11.38,0,0,1-.3,6,193.36,193.36,0,0,0,32.69,13.14c2.76-6.34,8-7.55,12.16-6.52,3,.74,4.84,1.13,6.23,1.4l1.52.33a7.35,7.35,0,0,1,4.71,3.57,9,9,0,0,1,.94,6.09c1.44-.08,2.14-.32,2.3-.52A37.65,37.65,0,0,0,109.19,200.37Zm-6.72,14.57a7,7,0,0,0-.6-5,5.13,5.13,0,0,0-3.23-2.46l-1.46-.31c-1.33-.27-3.33-.68-6.33-1.43-4-1-7.47.84-9.38,4.95,2,.57,3.89,1.09,5.77,1.57a20.09,20.09,0,0,0,.37-2.5,1.15,1.15,0,0,1,2.3.14,22.76,22.76,0,0,1-.43,2.9l1.11.26,1.11.25c.33-1.62.54-3,.55-3a1.15,1.15,0,1,1,2.27.34c0,.11-.23,1.49-.57,3.14l2.2.4a20.76,20.76,0,0,0,.32-2.53,1.15,1.15,0,0,1,2.3.12,25.3,25.3,0,0,1-.34,2.75C100,214.77,101.36,214.89,102.47,214.94Zm-21.32,2.81a6.64,6.64,0,0,0,3.63,3.47A52.87,52.87,0,0,0,93.64,223c3.65.4,6.5-1.63,8.13-5.73-1.22-.07-2.53-.22-3.88-.41a12,12,0,0,1-1,2.39,1.15,1.15,0,1,1-2-1.14,9,9,0,0,0,.7-1.61c-.72-.12-1.43-.25-2.15-.39a18.21,18.21,0,0,1-.81,2.54,1.16,1.16,0,0,1-1.52.59,1.14,1.14,0,0,1-.59-1.51,16.75,16.75,0,0,0,.67-2.09l-1.11-.24-1.17-.28c-.21.67-.46,1.36-.75,2.06a1.16,1.16,0,0,1-1.51.62,1.15,1.15,0,0,1-.61-1.51c.24-.58.45-1.16.62-1.71-1.93-.5-3.93-1-6-1.63A7.44,7.44,0,0,0,81.15,217.75Zm-37.9-28.67a2.75,2.75,0,0,0-2.54,1,9.33,9.33,0,0,0-2.23,7h0a5.19,5.19,0,0,0,.34,1.75,2.89,2.89,0,0,0,1.93,1.87,2.81,2.81,0,0,0,2.48-1.28,9.87,9.87,0,0,0,1.68-8.53A2.45,2.45,0,0,0,43.25,189.08Z"/><path id="path8068" class="cls-2" d="M55,0C40.18,0,36.66,7.6,36.66,7.6S53.77,6.36,53.77,23.25c0,7.61-4.14,12.76-8.52,18.21C40.16,47.79,34.4,55,34.4,67c0,19.93,12.81,29.28,24.1,37.53,9.85,7.19,19.14,14,19.14,26.76S72,154.12,69.43,156.69a19.51,19.51,0,0,1-11.32,5.73c-3.21.65-6.24,1.27-6.88,5.88a39.12,39.12,0,0,0-19,33.59q0,.81,0,1.62A39.21,39.21,0,1,0,84.74,165l.06,0-.21-.08-.35-.13c-1.9-.65-4.06-1.4-4.06-6.29s2.15-5.13,6.44-5.92a24.19,24.19,0,0,0,8.71-2.91c5.44-3.32,6.46-7.32,5.47-8.31-1.35-1.35-2.83,1.49-8.31,3.13a20,20,0,0,1-5.3.95,14.43,14.43,0,0,1-2.56-.21,92.38,92.38,0,0,1,6.14-9.84l.7-.95-.84-.84c-1.11-1.11-1.75-3.43-1.75-6.53a38.73,38.73,0,0,1,3.23-14.3c2.67-6.45,13.27-27.49,37.6-27.49h1.38V84a111.22,111.22,0,0,0-2.36-23.77l-.31-1.37s-2.36.67-4.33,1.1c-.23.06-2.07.51-2.15.12s1.34-1.06,1.83-1.3c1.85-.92,4.15-1.89,4.15-1.89l-.31-1.11a40.05,40.05,0,0,0-3.56-9.07l-.56-.92-1,.33C102.2,52.46,97.87,65.9,95.29,73.93,94,77.83,93.25,80,91.84,80c-4.18,0-7.64-3.46-8.78-4.6C70.44,62.81,71.4,53.71,72.87,39.93A151.48,151.48,0,0,0,74,23.25C74,7.39,67.94,0,55,0"/><path id="path8070" class="cls-1" d="M79,131.3c0,12.8-5.46,23.21-8.61,26.37-9.78,9.77-17.84,2.65-17.93,12.46-4.43,4-7.62,10.13-9.19,17.1l.29,0a3.68,3.68,0,0,1,2.31,1.52C58.3,178.67,77.42,173.35,92,176.66a25.8,25.8,0,0,1,11.57,5.39,38,38,0,0,0-19.46-15.77c-1.92-.69-5.34-1.48-5.34-7.72,0-11.66,12.75-2.59,21.15-15.29.41-.63-.18-1.17-.67-.68-2.54,2.54-8.79,4.29-12.09,4.29s-4.54-.76-4.54-.76a91.66,91.66,0,0,1,7-11.49C81.85,126.83,95,84,129.71,84a108.45,108.45,0,0,0-2.33-23.47c-.83.2-7.37,1.74-7.67.36-.26-1.21,4.82-3.86,6.57-4.73a39,39,0,0,0-3.4-8.73c-29.77,9.38-23.79,34-31,34-4.72,0-8.43-3.68-9.75-5-17.78-17.78-9.5-29.54-9.5-53.17C72.59,7.34,66.41,1.38,55,1.38S39.51,6.32,39.51,6.32s15.64.51,15.64,16.93c0,17.2-19.37,21.94-19.37,43.76C35.78,103.32,79,102.64,79,131.3m-20.61-108a24.68,24.68,0,0,0-.64-5.73s3.4-.17,3.4-4.32c0-3.41-2.27-5.74-2.89-5.74S57.67,8,56.6,8C54,8,53.81,4.66,53.81,4.66l1.19,0c7.44,0,14.33,2.26,14.33,18.62a147,147,0,0,1-1.08,16.18,98.52,98.52,0,0,0-.83,13.31s-13-1.53-13-11.28C54.46,35.14,58.41,33.6,58.41,23.25ZM40.2,202.47A3.67,3.67,0,0,1,38.09,201c-2.82,4.35-4,8.24-3,11.73a37.86,37.86,0,0,0,32.72,26.89C53.06,235.09,42.11,219.69,40.2,202.47Zm-3-8.66a22,22,0,0,1-2.3-1.82,37.79,37.79,0,0,0-1.28,11.46c0,.8.09,1.6.17,2.39a24.29,24.29,0,0,1,3.31-7.3A11.31,11.31,0,0,1,37.17,193.81Zm.73-2.23a9.93,9.93,0,0,1,1.46-2.4,6.53,6.53,0,0,1,1.5-1.32,34.33,34.33,0,0,1,8.64-16.81,38,38,0,0,0-13.91,18.61A11.57,11.57,0,0,0,37.9,191.58Zm55.48,33.66A54.39,54.39,0,0,1,84,223.39a8.86,8.86,0,0,1-5-4.67,9.46,9.46,0,0,1-.86-3.59,10.41,10.41,0,0,1,.3-2.89,196.34,196.34,0,0,1-32.82-13.18,9.48,9.48,0,0,1-1,1.54,5.86,5.86,0,0,1-2.13,1.65,47.52,47.52,0,0,0,7.29,20.41c5.29,8.16,12.48,13.75,20.25,15.51,2.76.62,6.36,1.39,9.58.68a37.89,37.89,0,0,0,26.45-21.78,14.49,14.49,0,0,1-1.86.18C101.48,225.22,95.75,225.5,93.38,225.24Zm13.38-36.8c-1.74-4.56-7.57-7.8-15.24-9.54C77.34,175.7,58.71,181,46.86,191a11.38,11.38,0,0,1-.3,6,193.36,193.36,0,0,0,32.69,13.14c2.76-6.34,8-7.55,12.16-6.52,3,.74,4.84,1.13,6.23,1.4l1.52.33a7.35,7.35,0,0,1,4.71,3.57,9,9,0,0,1,.94,6.09c1.44-.08,2.14-.32,2.3-.52a38.11,38.11,0,0,0-.35-26ZM81.15,217.75a6.64,6.64,0,0,0,3.63,3.47A52.87,52.87,0,0,0,93.64,223c3.65.4,6.5-1.63,8.13-5.73-1.22-.07-2.53-.22-3.88-.41a12,12,0,0,1-1,2.39,1.15,1.15,0,1,1-2-1.14,9,9,0,0,0,.7-1.61c-.72-.12-1.43-.25-2.15-.39a18.21,18.21,0,0,1-.81,2.54,1.16,1.16,0,0,1-1.52.59,1.14,1.14,0,0,1-.59-1.51,16.75,16.75,0,0,0,.67-2.09l-1.11-.24-1.17-.28c-.21.67-.46,1.36-.75,2.06a1.16,1.16,0,0,1-1.51.62,1.15,1.15,0,0,1-.61-1.51c.24-.58.45-1.16.62-1.71-1.93-.5-3.93-1-6-1.63A7.44,7.44,0,0,0,81.15,217.75Zm21.32-2.81a7,7,0,0,0-.6-5,5.13,5.13,0,0,0-3.23-2.46l-1.46-.31c-1.33-.27-3.33-.68-6.33-1.43-4-1-7.47.84-9.38,4.95,2,.57,3.89,1.09,5.77,1.57a20.09,20.09,0,0,0,.37-2.5,1.15,1.15,0,0,1,2.3.14,22.76,22.76,0,0,1-.43,2.9l1.11.26,1.11.25c.33-1.62.54-3,.55-3a1.15,1.15,0,1,1,2.27.34c0,.11-.23,1.49-.57,3.14l2.2.4a20.76,20.76,0,0,0,.32-2.53,1.15,1.15,0,0,1,2.3.12,25.3,25.3,0,0,1-.34,2.75C100,214.77,101.36,214.89,102.47,214.94ZM43.25,189.08a2.75,2.75,0,0,0-2.54,1,9.33,9.33,0,0,0-2.23,7h0a5.19,5.19,0,0,0,.34,1.75,2.89,2.89,0,0,0,1.93,1.87,2.81,2.81,0,0,0,2.48-1.28,9.87,9.87,0,0,0,1.68-8.53A2.45,2.45,0,0,0,43.25,189.08Z"/><path id="path8072" class="cls-1" d="M13.49,235c2.9,1.91,6,3.63,6,3.63l-1.07,2.79c-.4-1.69-2.08-2.61-4.24-3.94L7.07,247.73c-.86,1.24-2.55,3.94-2.69,5,0,0-1.16-.74-2.22-1.53L0,249.6c1.06-.26,2.88-2.94,4-4.43l6.88-9.83c-2.58-2-3.58-2.38-5.41-2.48L7.9,231s2.36,1.87,5.59,4"/><path id="path8074" class="cls-1" d="M125.66,269.69l.22.23a1.1,1.1,0,0,0-.58.22l.62,1.19c.12.22.29.56.4.58l-.29.16-.27.12a1.46,1.46,0,0,0-.21-.61l-.65-1.25c-.22.11-.46.22-.52.4l-.06-.35.67-.33.67-.36"/><path id="path8076" class="cls-1" d="M18.07,260.41c-4.92-2.35-5.57-7.77-3.15-12.84s7.07-8,12-5.62,5.58,7.74,3.15,12.84-7,8-12,5.62m8.11-17c-3.15-1.5-5.62,2.05-7.48,6s-3.09,8.08.06,9.58,5.63-2.07,7.49-6S29.32,244.92,26.18,243.42Z"/><path id="path8078" class="cls-1" d="M40.07,247.19c3.33.94,6,1.56,6,1.56l-.29,3c-.89-1.29-1.3-1.6-4.14-2.32L38.24,261C38,262,36.59,266,37,266.8c0,0-1-.21-2.5-.64-1.73-.48-2.55-.8-2.55-.8.89-.59,2-4,2.38-5.4l3.45-11.65c-2.94-1-3.62-1.05-5-.4l1.71-2.54s1.92.78,5.58,1.82"/><path id="path8080" class="cls-1" d="M53.79,250.26c3.28.5,6.37.78,6.37.78l.12,3c-1.22-1.09-1.69-1.44-4.92-1.85l-1.88,11.89c-.13,1.08-.82,5.22-.28,5.9,0,0-1.14-.12-2.71-.34s-2.53-.45-2.53-.45c.77-.59,1.4-4.51,1.54-5.6l1.92-12c-2.81-.56-3.38-.34-4.73.44l1.22-2.83s2.62.62,5.88,1.11"/><path id="path8082" class="cls-1" d="M65.94,261.56l-.24,8c4.18.06,7-.21,8.33-2l-.64,3.63s-2.32,0-5.72,0c-3.73-.06-6.66-.3-6.66-.3.62-.62.77-4.51.78-5.6l.34-7.84c0-2.09.21-5.46-.49-6.17,3,.21,2.65.21,5.43.32,3.65.14,5.71,0,5.71,0l.46,3c-1.42-1.19-3.56-1.33-7-1.35l-.19,6.7,5.35,0c.48,0,.51.28.51.81s0,.82-.52.81l-5.41,0"/><path id="path8084" class="cls-1" d="M89.32,264c.31,2.91.62,5,1.28,5.38a1.85,1.85,0,0,1-1.39.76,2.32,2.32,0,0,1-2-1l-9.49-10.89.35,6.93c.12,1.08.24,5.21.92,5.76l-3.16.15c.55-.68.4-4.62.29-5.71l-.45-7.81c-.12-1.09-.32-5.42-1-6l2.9-.11L87.25,263l-.81-6.65c-.12-1.1-.71-5.06-1.37-5.61,0,0,.35,0,1.53-.19s1.61-.25,1.61-.25c-.54.68.09,4.75.21,5.84l.9,7.79"/><path id="path8086" class="cls-1" d="M107.16,259.84c.34,1.35,1,4.83,2,5.51,0,0-1.5.43-2.42.71s-2.62.72-2.62.72c.43-.75-.52-4.92-.78-6l-.9-3.62-6,1.48.69,3.68c.2,1.2.83,5.21,1.64,5.7l-2.6.53c-1.47.3-2.5.47-2.5.47.45-.75-.15-4.47-.34-5.66l-1.46-7.8c-.27-1.45-.94-5.12-1.75-5.55l2.51-.49c1.72-.33,2.57-.56,2.57-.56-.43.87.32,4.4.52,5.63l.47,2.48,5.93-1.45-.64-2.53c-.35-1.34-1.08-4.55-1.91-5.14l2.47-.71c1.65-.47,2.36-.73,2.36-.73-.33.89.59,4,1,5.63l1.83,7.66"/><path id="path8088" class="cls-1" d="M118.18,255.22l-5.89,2.31.21,3.23a13.33,13.33,0,0,0,.37,2.69,1.17,1.17,0,0,0,.52.57s-.61.22-1.62.55-1.57.49-1.57.49a4.71,4.71,0,0,0,.4-2.49l-.51-15.32a5.32,5.32,0,0,0-.3-1.52,2,2,0,0,0-.64-.77,15,15,0,0,1,2.37-1.27c1.35-.57,1.92-.55,2.9.6L123.06,255c1.57,2,3,3.42,3.86,3.69,0,0-.88.41-2.54,1.15s-2.76,1.15-2.76,1.15a1.8,1.8,0,0,0-.11-1.26,15.87,15.87,0,0,0-1.63-2.37l-1.7-2.14M117.11,254l-5.23-7.24.37,9.1Z"/><path id="path8090" class="cls-1" d="M142.84,249.67c-1.19.8-2.07,1.41-2.07,1.41-.09-1.17-2.34-4.05-3-4.92l-5.07-6.62,4.08,13a3.31,3.31,0,0,1-.72.83,1.73,1.73,0,0,1-2.3-.07l-9.66-8,3.38,6.23c.83,1.57,2.42,4.85,3.49,5.18,0,0-.66.35-1.51.76l-1.35.65c.19-.92-1.38-3.64-2.3-5.38l-3.76-7.08c-1.14-2.13-2.4-4.3-3.48-4.73.84-.4,1.09-.53,2.29-1.12,1-.49,1.87-1,1.87-1l10.88,9.25L129.33,235l1.66-1.11c1.09-.73,2.06-1.45,2.06-1.45.09,1.17,2.35,4.16,3.18,5.23l4.68,6c1,1.24,2.85,4,4.17,4.32,0,0-1.06.83-2.24,1.64"/><path id="path8092" class="cls-1" d="M128.08,269.1l.53.69c.16.19.32.42.49.49l-.28.2a2.55,2.55,0,0,0-.23.16,2,2,0,0,0-.34-.57l-.57-.75.47,1.48-.09.09a.2.2,0,0,1-.29,0l-1.12-.89.44.71a1.72,1.72,0,0,0,.44.59l-.18.11-.18.09a1.58,1.58,0,0,0-.27-.65l-.48-.81c-.11-.18-.28-.45-.44-.49l.3-.16.24-.14,1.24,1-.48-1.47.23-.13.26-.17a1.45,1.45,0,0,0,.31.62"/><path id="path8094" class="cls-1" d="M31.55,273.48c1,.37,2.31.82,2.31.82-1.1.8-2.1,3.95-2.75,5.67l-2.53,7c-.68,1.91-1.83,4.66-1.44,5.65l-2.52-.88c-1-.35-1.5-.53-2.52-1,1.24-.33,2.4-4.45,2.78-5.49L26,282,20,279.5l-1.75,3.74c-.57,1.3-1.94,4.24-1.61,5.16,0,0-1.07-.43-2.64-1.15-1.84-.85-2.24-1.08-2.24-1.08,1.3-.63,2.07-2.73,3.05-4.85l3.17-7c1.07-2.4,2-4.48,2-5.84,0,0,.57.33,2.12,1,1.24.56,1.88.84,2.57,1.12-1,.39-2.35,3.93-3.08,5.51l-.92,2,5.91,2.44.91-2.25c.42-1.14,1.89-4.57,1.57-5.74l2.54.92"/><path id="path8096" class="cls-1" d="M38.39,296.22c-5.27-1.39-6.95-6.49-5.55-11.81s5.4-8.93,10.64-7.54,7,6.46,5.55,11.8-5.37,8.94-10.64,7.55m4.69-17.81c-3.37-.89-5.11,3-6.19,7.07s-1.47,8.34,1.9,9.23,5.12-3,6.19-7.1S46.44,279.29,43.08,278.41Z"/><path id="path8098" class="cls-1" d="M52.67,298.1a3.09,3.09,0,0,0,.56-1.1,46,46,0,0,0,.78-4.59L55.48,281c-3.14-.39-3.94-.17-5.32.65l1.3-2.92c1,.21,3.14.45,5.78.78,1.77.22,7,.7,7,.7l.18,2.92c-1.16-1.34-2.37-1.46-5-1.67L58,292.91c-.13,1.07-.71,4.77-.13,5.86l-2.56-.28c-.91-.09-2.11-.3-2.63-.39"/><path id="path8100" class="cls-1" d="M77.72,294.14c0,3.43-2.76,5.92-7,5.86a8.71,8.71,0,0,1-5.76-2l.69-3.27c1,2.08,2.76,3.59,4.7,3.62s3.61-1.16,3.64-3.16c0-1.46-.78-2.34-4.15-4.1s-4.44-3.33-4.44-5.82c0-3.38,2.94-5.1,6.4-5.1a11.24,11.24,0,0,1,5.43,1.37l-.72,3c-1.54-2.06-2.94-2.82-4.62-2.85A2.48,2.48,0,0,0,69,284.29c0,1.85,2,2.86,4.81,4.4,3.17,1.77,3.87,3.55,3.89,5.45"/><path id="path8102" class="cls-1" d="M93.37,283.62a7.45,7.45,0,0,1,.24,1.27,6.72,6.72,0,0,1,0,1.27,5.68,5.68,0,0,1-1.49,3.32,7.46,7.46,0,0,1-5.38,2.19c-.89.06-1.1-.21-1.16-.86v-.13s0-.25.18-.27l.22,0a3.66,3.66,0,0,0,2.51-1.28,5.39,5.39,0,0,0,.9-3.82,4.41,4.41,0,0,0-1.61-3.37,4.16,4.16,0,0,0-3-.81s-.42,0-.9.11a.27.27,0,0,0-.25.29l1.14,11.84c.1,1,.38,4.71,1.24,5.47,0,0-1,.1-2.81.25-1.39.11-2.48.14-2.48.14a10,10,0,0,0,.21-3.81l-.88-9.34c-.1-1.06-.28-4.73-1.16-5.63,0,0,2.35-.35,6.68-.76a8.41,8.41,0,0,1,5.73,1.16,5.17,5.17,0,0,1,2.06,2.79"/><path id="path8104" class="cls-1" d="M111.11,287.43c.92,4.1-1,7.6-5.27,8.66-3,.75-7.32-.35-8.52-5.61l-1.47-6.21c-.39-1.74-1-4.82-2-5.62,0,0,1.13-.16,2.89-.49s2.59-.53,2.59-.53c-.46.73,0,3.61.48,5.73l1.88,7.89a4.8,4.8,0,0,0,1.62,3,2.92,2.92,0,0,0,2.24.4,2.77,2.77,0,0,0,2-1.35,5,5,0,0,0,.1-3.42l-2.11-7.9c-.57-2.17-1.24-4.89-2-5.35,0,0,.86-.23,2.48-.7,1.23-.35,2-.56,2.5-.75-.49,1.19.67,4.84.91,5.88l1.69,6.34"/><path id="path8106" class="cls-1" d="M130.27,285.81a1.7,1.7,0,0,0,1.24.11,2.8,2.8,0,0,1-.69,1.19c-1.73,1.77-3.35,1.46-3.9,1.25-3-1.14-8-5.55-8.16-6a.14.14,0,0,1,.08-.18l.18-.08a4.15,4.15,0,0,0,1.91-5.69,4.35,4.35,0,0,0-2.41-2.51,3.79,3.79,0,0,0-2.62.15,4,4,0,0,0-.92.49s-.14.12,0,.6l3.76,10.74c.58,1.58,1.57,4.66,2.47,5.18,0,0-1,.4-2.56,1s-2.48.81-2.48.81c.32-1.2-.87-4.46-1.17-5.37l-2.43-7.25c-.61-1.75-1.72-4.88-2.62-5.38a57.54,57.54,0,0,0,5.76-2.18,9.13,9.13,0,0,1,6-.73,4.39,4.39,0,0,1,2.51,1.8,6.28,6.28,0,0,1,.56,1.05,5.57,5.57,0,0,1,.3,1.06,4.92,4.92,0,0,1-.61,3.36,6.13,6.13,0,0,1-1.79,2,31.51,31.51,0,0,0,7.53,4.68"/></g></g></svg>