<svg xmlns="http://www.w3.org/2000/svg" viewBox="0 0 208.22 300"><defs><style>.cls-1{fill:#14bff0;}.cls-2{fill:#a31d34;}.cls-3{fill:#fcfafb;}.cls-4{fill:#f8fcfe;}.cls-5{fill:#f6fcfe;}.cls-6{fill:#f5fbfd;}.cls-7{fill:#eaf8fd;}.cls-8{fill:#0dbdf0;}.cls-9{fill:#06bbef;}.cls-10{fill:#03baef;}.cls-11{fill:#ad1328;}.cls-12{fill:#0bcafd;}.cls-13{fill:#785974;}.cls-14{fill:#0ebdf0;}.cls-15{fill:#09bcf0;}.cls-16{fill:#0bc9fb;}.cls-17{fill:#aa152a;}.cls-18{fill:#0dc5f8;}.cls-19{fill:#aa152b;}.cls-20{fill:#0cc7fa;}.cls-21{fill:#22c2f1;}.cls-22{fill:#0cc8fb;}.cls-23{fill:#ac1329;}.cls-24{fill:#04bbef;}.cls-25{fill:#05bbef;}.cls-26{fill:#03bbef;}.cls-27{fill:#0ec7f9;}.cls-28{fill:#05bbf0;}.cls-29{fill:#0cc8fa;}.cls-30{fill:#ad1429;}.cls-31{fill:#0bc9fc;}.cls-32{fill:#6a6987;}.cls-33{fill:#ab142a;}.cls-34{fill:#29acd8;}.cls-35{fill:#ab1329;}.cls-36{fill:#a6172f;}.cls-37{fill:#ac1429;}.cls-38{fill:#a41f35;}.cls-39{fill:#fdfbfb;}.cls-40{fill:#fdfcfc;}.cls-41{fill:#fcf8f9;}.cls-42{fill:#9f1129;}.cls-43{fill:#fdfbfc;}.cls-44{fill:#9f1029;}.cls-45{fill:#98031b;}.cls-46{fill:#28c4f1;}.cls-47{fill:#00b9ef;}.cls-48{fill:#a0142c;}.cls-49{fill:#9e1129;}.cls-50{fill:#a1162e;}</style></defs><title>Trabzonspor</title><g id="Слой_2" data-name="Слой 2"><g id="Слой_1-2" data-name="Слой 1"><path class="cls-1" d="M208,93.47q0,8.28,0,16.56c-6.57,8.78-16.1,11.91-26.28,13.8a5.54,5.54,0,0,1-1.25-.47c-.7-.35-1.31-1.21-2.24-.44.9-.41,1.36-.13,1.34.88-1.77,2.15-4.51,1-6.63,2a19.94,19.94,0,0,1-3.61.39c-6.85-.17-13.73.48-20.77-.69,2,2.77,4.64,4.81,6.17,7.71.71,1.35,1.69,2.86.71,4.29s-2.53.7-3.84.45a25.75,25.75,0,0,0-5.46-.62c-1.59-.06-3.19-.06-4.79-.06-5-.1-7.94,2.85-10.32,6.72a4,4,0,0,1-.93.72c-1.19,1.29-.22,2.7-.2,4a5.23,5.23,0,0,1,0,1.25c.18,1.16-1.3,2.45.29,3.5a3.35,3.35,0,0,1,1.06.67c2.31,2.9,5.28,4.37,8.92,5.29,10.5,2.64,20.87,5.82,30,11.9,10.51,7,19.76,15.25,24.42,27.49a12,12,0,0,1,1.24,5.37,4.5,4.5,0,0,1-.24.87c-.25.68-.94,1.18-.82,2,.36-.67.81-1.08,1.57-.45,1.71,3.53,1.23,7.12.33,10.72a5,5,0,0,0-.69,5c0,8.13-3.27,15.38-7.14,22.15-10.77,18.85-26.42,32.2-47,39.41-5,1.75-9.79,4.65-15.45,3.9a4.45,4.45,0,0,1-2-.87,7.39,7.39,0,0,0-1.21-.47c.13.47.85.27.94.82a1.47,1.47,0,0,1-.54,1.14,5,5,0,0,1-2,.67c-25.26,3.63-48.79-1.36-70.41-14.74-15-9.3-25-23.1-32.12-39-2.89-6.44-5.54-13.08-5.81-20.32a17.84,17.84,0,0,0-.43-4.94,6.68,6.68,0,0,1,0-2.14,23.85,23.85,0,0,0-.1-9.74,6.87,6.87,0,0,1,.16-4c2-1.39,1.22-3.22.74-5,.87-11,5-21,10.53-30.28C38,136,57.76,120.35,83.29,112c4.39-1.43,9-2,14.33-3.57-6.22-4.2-12.52-6.1-19.07-7.39a4.32,4.32,0,0,1-1.79-.76c-1-1.6.42-1.56,1.2-1.85-1.59-.25-2.26,1.43-3.57,1.93a5.75,5.75,0,0,1-1.37.1c-3.83-.37-7.66-.18-11.48-.21a27.67,27.67,0,0,0-4.13.72c-19.29,3.24-34.65,13.88-49.18,26.1-1.69,1.43-2.9,3.72-5.67,3.3q0-24,0-48.1A7.94,7.94,0,0,1,6,78.69c18.56-11.18,38.48-17.53,60.33-17,1.82,0,4.15-.58,4.93,2.11a4,4,0,0,1-3.17.37c1.76,1,3.73-.5,5.79-1.16,6.77-.41,12.75,2.53,19,4.47C105.88,73,117,81.45,127,91.36c6.72,6.66,15,10.06,23.67,12.92,1.6.53,3.31.76,4.87,1.43a2.78,2.78,0,0,1,.88.79c1.4,1.74,2.78,0,4.17,0a8.65,8.65,0,0,1,1.33-.25,40.46,40.46,0,0,1,8.38.17c1.63.24,3,1.28,4.75,1.61-.38-.58-1.4-.17-1.38-1,.88-1.94,2.81-1.56,4.37-2,9.41-2.34,18.64-5.1,26.63-10.89C205.72,93.49,206.78,92.92,208,93.47Z"/><path class="cls-2" d="M146.09,136.12c3.1-.39,6,1,9.61,1.58C153.36,132,149.45,128.28,145,125h24.27c1.89.83,3.73.22,5.17.34-.34.37-1.05.14-1.75-.55l7-1.6c.43-.72,1-.58,1.58-.24,9.18-1.72,17.81-4.6,24.38-11.73A2.86,2.86,0,0,1,208,110q.09,29.85.19,59.7c0,11.88,0,23.76,0,35.64,0,47.92-27.07,81.84-73.92,91.33-26.62,5.4-53.31,4.7-78.67-6-34-14.35-51.15-41.42-53.07-77.44-1.42-26.78-.26-53.69-.24-80.54a20,20,0,0,1,.25-2.29c8.48-7.3,17.05-14.5,26.83-20,8.69-4.94,17.7-9.1,27.79-10.33,1.37.36,2.79.91,3.7-.82,4.33,0,8.73-1.35,13,.64a6.4,6.4,0,0,0,4.6.14c7,.66,13.33,3.55,19.48,6.79.91.48,2.12.88,1.83,2.3-.27,1.27-1.42.91-2.26,1C77,112.87,59.3,122.17,44.28,135.78c-15.52,14.07-26,31.64-29.72,52.66a7.08,7.08,0,0,0,0,1.38c.35.62,0,.94-.5,1.16-1.4.44.12,1.3-.25,1.9,0,.21,0,.41-.05.6l-.14,4.68a27.76,27.76,0,0,1,0,10.16l.06,1.88a2.36,2.36,0,0,1,.2,1.82c-.33.84-.39,1.74-.68,2.59-.19.55.51.68.27.12s.92,0,.38-.24c.41,0,.57.22.5.6,1.92,14.09,7.78,26.58,16.21,37.78,22.22,29.54,53,38.2,88.22,35.38,1.07-.09,2.14-.08,3.22-.12.92.69,2,.17,3,.5-.45-.36-1.16-.09-1.44-.7.17-.23.32-.45.47-.69.43-.74,1-.6,1.57-.21,16.52-2.62,30.78-9.61,43.56-20.55,13-11.12,21.58-24.55,25.54-41.07a23.94,23.94,0,0,0,.35-3.19,1.83,1.83,0,0,1-.2-1.78c.8-.67,1.25.27,1.87.42A26,26,0,0,0,195,218.7a.85.85,0,0,1,.23-1.08c1.73-3.79,1.13-7.59.09-11.4-.76-.4-.6-1-.28-1.55-2-8.36-6.31-15.14-12.26-21.47-12.34-13.11-28.07-19-44.86-23.06-3.65-.89-6.55-2.61-7.7-6.45,0-.21,0-.41-.07-.62.14-2.69,0-5.38,0-8.07,0-.2.05-.41.07-.62,1.43-5.26,5-7.88,10.33-8.22A8.18,8.18,0,0,0,146.09,136.12Z"/><path class="cls-2" d="M93.06,68.53C86.65,66.92,80.56,64,73.8,63.89c-.88.39-1.74.69-2.49-.24-9.42-1.91-18.74-.55-27.95,1.27a104.62,104.62,0,0,0-28.89,10.4c-4.05,2.16-7.94,4.65-11.9,7q-.09-31.26-.23-62.52a3.45,3.45,0,0,1,2.31-3.52C47.5-4.11,89.73-8.27,130.78,20.86a90.28,90.28,0,0,0,19.07,10.35c20.11,8,39.63,8.67,58.19-5.73v68c-.82.46-1.53,1.22-2.6,1-1.18-2.52-.37-5.17-.38-7.74-.07-17.1-.05-34.2,0-51.56-.32,1.63-.1,3.07-.41,4.46-.36,1.59-1,2.94-2.76,3.34a2.93,2.93,0,0,1-3.47-1.68c-1.27-2.65-3-2-5.35-1.57-6.1,1.07-9.17,4.36-9.43,10.52-.13,3.14-2.12,4.57-5.12,4.87-2.61.27-5.2.7-7.79,1-2.76.36-5.14-.36-5.66-3.36s1.83-3.51,4.1-3.79a9.11,9.11,0,0,0,2.93-1.31,2.57,2.57,0,0,1,2.9-.48c1.22.54,2.06.2,2.22-1.23.08-.77.07-1.69-.6-2.06-1.41-.76-1.77.58-2.28,1.43a6.6,6.6,0,0,1-1.38,1.77c-3.77.83-6.37,0-6.78-4.45C166,41,165.06,39.94,163,40.41c-2.51.57-5.2-1.54-7.78,1.18-1,1-3.44-.68-4-2.76a3.51,3.51,0,0,0-3.3-2.73c-1.72-.25-2.65-.09-2.26,2.09.51,2.76.4,5.3-3.68,3.89a1.66,1.66,0,0,0-.91,0c-7,1.59-7,1.59-9-5a7.16,7.16,0,0,1-.31-1.21,6.75,6.75,0,0,0-1.89-5.41,74.11,74.11,0,0,0-4.93-7.91,21.8,21.8,0,0,0-8.65-6.13c-1.2,0-2.3-.51-3.58-.64-1.18,1,.38,2.53-.5,3.62s-1.65,2.07-3.17,2a3.65,3.65,0,0,1-1.58-1.6c-3-5.27-5-6.07-10.72-3.93A26.07,26.07,0,0,0,82.11,28.49c-1.3,2.49.07,2,1.52,1.67,1.56,1.09,1.15,2.94,1.68,4.43-.48,2.25-2.45,3.41-3.73,5.07C79,43,79,45.41,81.62,48.42A5.85,5.85,0,0,1,84.33,51c-1.6,5,1.16,7.92,4.82,10.65,2.2,1.66,5.68,1.84,6.43,5.27C95.14,68.07,94.58,69.05,93.06,68.53Z"/><ellipse class="cls-3" cx="0.19" cy="173.04" rx="0.27" ry="58.78"/><path class="cls-2" d="M102.57,237c-28-4.45-47-26.07-44.14-56.94,1.72-18.6,11.75-31.73,27-41.48,8.53-5.46,17.91-8.91,27.67-11.39a2.09,2.09,0,0,1,2.37.44c-3,3.63-5.83,7.35-7.35,12-5.6,17,1.35,29.85,17.25,36.39a112.7,112.7,0,0,0,11,3.43c13.65,4.06,20.39,17.08,17.55,30.54-1.41,6.69-3.09,13-7.57,17.79-6.41,6.84-14.92,10-24.37,10.25a35.61,35.61,0,0,0-12,0l-3.7-.12A4.21,4.21,0,0,0,102.57,237Z"/><path class="cls-2" d="M132.13,36A4.4,4.4,0,0,1,134,40c-.05,1.8,1,2.28,2.45,2.8,1.75.64,2.6,0,3.13-1.6s1.45-1.95,2.67-.63c.6.64,1,1.82,2.12,1s.54-1.85.34-2.95c-.25-1.41-2.35-3.1-.06-4.28,1.87-1,7.59,1.59,7.55,3.3,0,2,.52,2.71,2.37,3.1,2.3.49,1.4-1.39,1.93-2.22.32-.49.75-1.14,1.24-1.25,2.14-.49,2.48,4.32,6.25,1.5,2-1.49,3.34,2.53,3.51,5.33.21,3.48,4,1.25,5.45,3-.41,2.33-1.13,4.39-4.15,3.4-1.64-.54-2.93-.35-3.06,1.48a2.9,2.9,0,0,0,3.13,3.25c3.78-.3,7.52-1.12,11.29-1.62,1.56-.21,2-1.07,2.08-2.49.18-2,.58-3.93.91-5.89.54-3.18,2-5.46,5.59-5.52a9,9,0,0,0,4-1.08c2.9-1.44,6.09-3.81,6.51,2.23a1.84,1.84,0,0,0,2.1,1.45,2.13,2.13,0,0,0,2.1-2.08c.14-2.16.08-4.32.13-6.48,0-1.08,0-2.51,1.3-2.6s1.41,1.33,1.46,2.4c0,.92,0,1.85,0,2.78q0,26.14,0,52.3c0,2,.08,4-.9,5.86-.71,2.24-2.94,2.54-4.6,3.46-8.51,4.73-17.73,7.41-27.24,9.22-.74,1-1.59.67-2.46.22L161,107.2a1.45,1.45,0,0,1-.65-.67c-1.16-.39-2.3.27-3.45.06l-.63,0a53.86,53.86,0,0,1-27-11.5c-4.83-3.88-9.35-8.39-14-12.65-6.52-6-14.49-9.79-22.25-13.86a3.42,3.42,0,0,0,2.12-2.13c4-1.21,8,.52,12-.15,1.24-.2,3.25,1.07,3.51-1.51,1.1-1.21,2.57-2,3.71-3.16a2.87,2.87,0,0,1,2.16-.5c4.62,1.44,7-1.45,9.25-4.66.36-.54.74-1.05,1.11-1.58s.66-1.17,1-1.78c1.86-4.21,3.32-8.5,3.12-13.2A4.63,4.63,0,0,1,132.13,36Z"/><path class="cls-4" d="M112.1,276.75c-5.14-2.17-6.93-5.61-5.62-10.86,1.42-5.74,5-8.91,9.54-8.36.4,1-.33,1.76-.78,2.47-1.23,2-2.23,3.6,1.35,4.19,1.54.25,2.08,2.1,2.81,3.44a5.7,5.7,0,0,1,.56,4.42,1.77,1.77,0,0,1-1.07,1,10.81,10.81,0,0,1-5.5,3.68Q112.74,277.88,112.1,276.75Z"/><path class="cls-5" d="M91.62,262.36a25.17,25.17,0,0,1,1.61-2.76c2.08-2.73,5-3,7.89-2,3.32,1.13,3.92,4.14,3.56,7.09a23.06,23.06,0,0,1-5.19,12,3.11,3.11,0,0,1-4.1,0c-.64-1.1-.15-2.05.46-3,1.48-2.18,2.46-3.92-1.46-4.69-1.87-.36-2-2.86-2.86-4.42C90.8,263.87,90.63,263.09,91.62,262.36Z"/><path class="cls-6" d="M120.79,275.11l.21-1c-.77-1.48-.19-2.29,1.32-2.62q1.59-3.33,3.16-6.68c.41-3.65-3.42-1.26-4.33-3-.81-3.5.31-4.79,4.14-4.72,9.6.19,9.59,0,5.63,8.77-1.5,3.32-2.88,6.7-4.32,10.06C124.47,277.07,122.39,277.9,120.79,275.11Z"/><path class="cls-7" d="M80.38,261.71c-.15-2.5-.59-4.69,3.43-4.74s4.15,1.78,4,4.75c-.19,4.93-.13,9.86-.18,14.79-1.37,1.4-2.85,1.05-4.35.25L82.23,276c-1.12-3.14-.32-6.38-.48-9.57C81.67,264.68,81.76,263,80.38,261.71Z"/><path class="cls-8" d="M89.37,258.56V275h-.46V258.66Z"/><path class="cls-9" d="M80.38,261.71c2.25.22,1.91,1.92,1.91,3.39,0,3.62,0,7.25-.06,10.87-2-2.27-.74-5-.94-7.49C81.11,266.2,81.31,263.89,80.38,261.71Z"/><path class="cls-10" d="M133.61,256.32H122.19v-.44H134Z"/><path class="cls-11" d="M110,237.93a17.46,17.46,0,0,1,12,0A37.8,37.8,0,0,1,110,237.93Z"/><path class="cls-12" d="M13.66,208.32a32.36,32.36,0,0,1,0-10.16A12.77,12.77,0,0,1,13.66,208.32Z"/><path class="cls-13" d="M130.26,153.69c-.21-.1-.44-.19-.66-.27-1.12-1-.58-2.22-.37-3.39V149c-.18-1.47-.79-3,.37-4.33a5.18,5.18,0,0,0,.65-.26l.4.11a56.3,56.3,0,0,1,0,9.09Z"/><path class="cls-14" d="M121.15,261.77c1.07,0,2.14.07,3.2.05,3.23-.07,2.24,1.43,1.13,3C124.87,262.61,122,263.67,121.15,261.77Z"/><path class="cls-15" d="M122.32,271.49c-.62.78-1.38,1.5-1.32,2.62l-2.11-1a2,2,0,0,1,.39-.8c1.06-1.39-.24-3.24.9-4.62C121.65,268.51,120.5,270.83,122.32,271.49Z"/><path class="cls-16" d="M71.31,63.65l2.49.24c-2.09,1.46-4.29.71-6.5.14Z"/><path class="cls-10" d="M80,256.55c3.08-1.39,4.9-.75,8-1C84.93,256.92,83.11,256.28,80,256.55Z"/><path class="cls-17" d="M102.57,237c1.42-.53,3.21-2.67,3.71.84A3.44,3.44,0,0,1,102.57,237Z"/><path class="cls-18" d="M156.13,202.09v5.19l-.46,0V202Z"/><path class="cls-19" d="M60.88,99.21c-.08.56,2.24,1.08.15,1.57-1.22.28-2.77.51-3.85-.75C58.46,100,59.43,98.53,60.88,99.21Z"/><path class="cls-20" d="M13.6,190.76l1-.94c.88,1.47,2.1,3-.8,3.66l-.32.06A2.63,2.63,0,0,1,13.6,190.76Z"/><path class="cls-21" d="M120.79,275.11c1.69,2.14,3.8,1,5.81.77l0,1.08a11.31,11.31,0,0,1-6.42,0Z"/><path class="cls-22" d="M74.76,99.77c.42-2.32,2.18-1.59,3.67-1.61,0,1.28-1.55.65-1.84,1.51C76,100.6,75.41,100.49,74.76,99.77Z"/><path class="cls-23" d="M172.71,124.81l2.15.38c-1.93.6-3.83,1.31-5.57-.17Z"/><path class="cls-24" d="M95.39,276.73l4.1,0c-1.06,2.46-2.89.7-4.39.81a1.24,1.24,0,0,1,0-.43A1.39,1.39,0,0,1,95.39,276.73Z"/><path class="cls-25" d="M120.2,277h6.42A5.51,5.51,0,0,1,120.2,277Z"/><path class="cls-26" d="M116.35,255.83a6.28,6.28,0,0,1-4.53.4C113,255.1,114.2,255.74,116.35,255.83Z"/><path class="cls-27" d="M129.59,144.64c-.12,1.44-.25,2.89-.37,4.33C128.6,147.46,127.3,145.9,129.59,144.64Z"/><path class="cls-28" d="M91.62,262.36l-.09,2.31c-.17.37-.35.73-.52,1.1a3.47,3.47,0,0,1-.1-3.75.66.66,0,0,1,.39.05A1.26,1.26,0,0,1,91.62,262.36Z"/><path class="cls-29" d="M171.14,107.4l2.46-.22,3,.55C174.11,108.38,172.57,108.69,171.14,107.4Z"/><path class="cls-24" d="M83.31,276.76l4.35-.25c-1.14,2.08-2.92,1.32-4.59,1,0,0-.07-.28,0-.4A1.1,1.1,0,0,1,83.31,276.76Z"/><path class="cls-25" d="M112.1,276.75h1.29l1.16.55a2.8,2.8,0,0,1-3.61,0Z"/><path class="cls-30" d="M146.09,136.12a4.41,4.41,0,0,1-5.52,0A11.45,11.45,0,0,1,146.09,136.12Z"/><path class="cls-31" d="M195.27,217.62l.09.93a1.59,1.59,0,0,1,.11,1.87l-.33,1.8C193.9,220.65,193.78,219.11,195.27,217.62Z"/><path class="cls-27" d="M129.23,150c.12,1.13.24,2.26.37,3.39C127.57,152.5,128.46,151.26,129.23,150Z"/><path class="cls-21" d="M120.18,267.65c-.21,1.56.6,3.31-.9,4.62l.12-4.64Z"/><path class="cls-25" d="M96.6,256.15a3.32,3.32,0,0,1,3.05-.32C99,257,98,256.45,96.6,256.15Z"/><path class="cls-20" d="M181.28,123l-1.58.24-3-.44C178.89,122.06,180.13,121.78,181.28,123Z"/><path class="cls-31" d="M160,107.55c-1.24.75-2.48,1.56-3.46-.34C157.77,106.37,159,106.23,160,107.55Z"/><path class="cls-32" d="M160,107.55l-3.46-.34-.24-.67.06-.4c1.5-.08,3-.68,4.45.39a4,4,0,0,0,.22.67Z"/><path class="cls-22" d="M195.08,204.67c.09.52.18,1,.28,1.55-.12.7-.24,1.4-.49,2.88C194.2,207.05,193.9,205.83,195.08,204.67Z"/><path class="cls-33" d="M74.76,99.77l1.83-.1,1.85.32c-1.57,1.26-3.11,1.38-4.6-.14Z"/><path class="cls-34" d="M14.39,215.09a4.69,4.69,0,0,0-.68-.49c-.9-.75-.59-1.63-.25-2.51l.26-1.89C15,211.68,14.47,213.42,14.39,215.09Z"/><path class="cls-29" d="M125.69,287l-1.57.21-3-.48C123.31,286.09,124.56,285.77,125.69,287Z"/><path class="cls-33" d="M123.65,287.93l3,.41c-2.2.76-3.45,1-4.59-.21Z"/><path class="cls-35" d="M130.65,153.58a26.18,26.18,0,0,1,0-9.09A14,14,0,0,1,130.65,153.58Z"/><path class="cls-36" d="M197.32,215.67v-5.42h.43v5.43Z"/><path class="cls-23" d="M195.47,220.42l-.11-1.87c2.33.39,1.59,2.15,1.63,3.65C195.7,222.22,196.35,220.66,195.47,220.42Z"/><path class="cls-33" d="M13.46,212.09c.08.83.17,1.67.25,2.51-.16.38-.32.76-.49,1.14-.17-.13-.48-.26-.48-.4C12.68,214.2,12.39,213,13.46,212.09Z"/><path class="cls-37" d="M13.6,190.76l-.14,2.78a2.81,2.81,0,0,1-.62-3.4C13.45,189.12,13.36,190.48,13.6,190.76Z"/><path class="cls-38" d="M114.6,62c-.16,2.47-1.86,2.8-3.82,2.79-4.71,2.2-7.91-1.42-11.15-3.45-3.7-2.31-7.39-5.05-9.76-8.93-1.6-2.6-3.47-3.08-6-1.57-1.37.11-1.66-1.26-2.53-1.84-.43-3.07,1.9-4.74,3.59-6.56a27.7,27.7,0,0,1,16.84-8.91c1.22-.16,2.43-.43,3.66-.55,1.65-.16,3.18-.59,3.11-2.64-.09-2.5-2.05-2.39-3.73-2.32A31.61,31.61,0,0,0,89.57,32.9c-1.36.83-2.58,2.45-4.53,1.27-2.19-.65-1.2-2.22-1-3.55,3.6-6.09,9.48-7.69,16-8.15,2.23,1.67,4.78.76,7.2,1-1.93-.14-3.93.54-5.77-.64,2-3.1,5-1.84,7.74-1.67.86-.61,1.19-2,2.59-1.85,3.14,1.8,3,4.78,2.82,7.79a8.12,8.12,0,0,0-.14,5.2c.58,4.37-1.21,8.13-3.13,11.85-.89,1.72-1.81,3.45.52,4.75s3.31-.51,4.33-2.09a24.25,24.25,0,0,0,2.55-6.91c.43-1.52.07-3.55,2.23-4.14-.15-3.79-.08-7.57-.58-11.35-.41-3.12.88-4.44,4-2.59a7,7,0,0,1,1.39,6.34,11.37,11.37,0,0,0-.09,7c.72,4.62-1.13,8.75-2.57,12.93-1.61,4.65-1.72,4.62,3,5.35a4,4,0,0,1,2.48,1.08l-1.1,1.07c-1.8,1.2-4,1-5.93,1.51-6.1.63-11.17-1.8-15.58-5.64-2.66-2.31-5.43-4.57-7.5-7.5-.9-1.27-2.1-1.8-3.59-.9-1.69,1-1.68,2.39-.85,4a22.16,22.16,0,0,0,9.79,9.41C107.34,58.28,111.66,58.81,114.6,62Z"/><path class="cls-39" d="M85,34.17c2.61-1.44,5.17-3,7.83-4.32a28.07,28.07,0,0,1,12.86-3.22c3.85,0,5.72,3.19,4.06,6.75-.65,1.4-1.74.95-2.74.95-11.33,0-19.77,5.14-25.71,14.64-.84.76-1.57,1.5-2.22-.29-1.41-3.84-1.5-7.35,2.12-10.09A15.49,15.49,0,0,0,85,34.17Z"/><path class="cls-40" d="M113.6,27.67a15.13,15.13,0,0,0-1.86-8.36c-.56-1.65-1.11-3.31-1.7-5.08,2.43-.48,4.32,1.1,6.47,1.35,1.72.53,2.32,2.07,2.72,3.5,1.49,5.41,3.23,10.81,1.67,16.54-1.08,4.77-2.14,9.49-4.82,13.77-1.76,2.83-3.28,1.76-5.13.49s-3.75-1.86-1.6-4.77a20.41,20.41,0,0,0,4.23-12.85A6.37,6.37,0,0,1,113.6,27.67Z"/><path class="cls-39" d="M128.49,54.49l-.46,0c-2.77.34-6.29,1.14-8-.71-2-2.11,1.48-4.37,2.18-6.72,1.18-4,2.77-7.81,2.52-12.06a11.54,11.54,0,0,1,0-6.46,13.14,13.14,0,0,0-.91-6.5c-.06-.43,0-.94.46-1,.86-.06,1.14.61,1.31,1.32,2.42,2.19,3.56,5.15,4.87,8,1.42,1.62,1.53,3.63,1.68,5.62h0C132.58,42.52,131.92,48.78,128.49,54.49Z"/><path class="cls-39" d="M83.87,50.81l3.29-3.64C92,54.33,97.84,60,105.55,63.46c1.65.74,3.29,1.68,5.23,1.3.22,1,1.42.86,2.6,1.58-6.49,2.48-12.34,1.33-18.2.06A105.37,105.37,0,0,1,86,60.61C82.78,58.09,81.32,54.8,83.87,50.81Z"/><path class="cls-41" d="M109.15,21.16c-2.26,2-5.4.15-7.75,1.75-.44.7-1,.58-1.6.23A30,30,0,0,0,84,30.62L79.71,33.2c1.37-12,14.6-20,23.76-19.59C107.52,13.77,107.59,18.36,109.15,21.16Z"/><path class="cls-2" d="M125.59,22.43c-.61,0-1-.91-1.77-.34-1.51-.24-3.39-.77-2.55,1.9,1.51,4.81.26,9.69.88,14.72-1.7-.83-.83-2.17-1.25-3.09-.65-6.86-.43-13.91-4.39-20,1.3.05,4-2.4,3.1,1.75,0,.2,1.82.62,2.59,1.22C123.56,19.6,125.76,20,125.59,22.43Z"/><path class="cls-2" d="M178.63,45.5c-.43,1.57,0,3.75-2.12,3.58-1.41-.12-3.49-.89-3.43-2.89s.65-4.36,3.1-4.38C178.31,41.79,178.16,44.11,178.63,45.5Z"/><path class="cls-2" d="M134.33,27.08a3.44,3.44,0,0,1,2.32,2.47c.19.85-.2,1.62-1.12,1.43-1.16-.24-2.32-.75-2.33-2.28C133.19,27.91,133.34,27.21,134.33,27.08Z"/><path class="cls-2" d="M132.14,36.05l-1.68-5.62C133,31.71,133.3,33.67,132.14,36.05Z"/><path class="cls-42" d="M100.5,12.07h4.18C103.53,13.08,102.6,12.86,100.5,12.07Z"/><path class="cls-43" d="M114.6,62c-5.42-1.86-10.75-3.79-15.49-7.22-2.57-1.86-4.15-4.27-6-6.68-2.74-3.6-1.26-5.11,2-6.87,2.59-1.38,3,.27,4.11,1.75,5.58,7.17,12,13.16,21.83,13.37,1.78-.5,3.55-.88,5.26.24C124.27,61.88,122.63,62.63,114.6,62Z"/><path class="cls-44" d="M101.77,68.63h6.12l0,.42h-6.07Z"/><path class="cls-45" d="M126.36,56.56a12.29,12.29,0,0,1-5.26-.24c1.94-1.57,4.2-.47,6.29-.76Z"/><path class="cls-23" d="M160.79,106.53l-4.45-.39C157.88,105.6,159.48,104.41,160.79,106.53Z"/><path class="cls-46" d="M112.34,267.67a1.72,1.72,0,0,1,2,1.7c.14,1.1,0,2.28-1.25,2.61s-1.43-.78-1.59-1.67A2.7,2.7,0,0,1,112.34,267.67Z"/><path class="cls-47" d="M99.74,263.89c0,1-.26,1.94-1.43,1.84s-1.26-1.11-1.26-2.05.25-2.08,1.25-2.1C99.66,261.54,99.7,262.83,99.74,263.89Z"/><path class="cls-48" d="M99.8,23.14l1.6-.23h6.7C105.31,23.83,102.51,24.61,99.8,23.14Z"/><path class="cls-49" d="M124.73,28.59a16,16,0,0,1,0,6.46A5.61,5.61,0,0,1,124.73,28.59Z"/><path class="cls-50" d="M102.43,25.47c2.58-.77,4-.71,5.51,0Z"/><path class="cls-48" d="M113.6,27.67c0,1.53,0,3.06,0,4.59A3.25,3.25,0,0,1,113.6,27.67Z"/></g></g></svg>