<svg xmlns="http://www.w3.org/2000/svg" viewBox="0 0 300 300"><defs><style>.cls-1{fill:#0052a1;}.cls-1,.cls-2,.cls-3,.cls-5{fill-rule:evenodd;}.cls-2{fill:#df2522;}.cls-3{fill:#f6dd00;}.cls-4,.cls-5{fill:#1d1d1b;}</style></defs><title>Trabzon</title><g id="Слой_2" data-name="Слой 2"><g id="Слой_1-2" data-name="Слой 1"><path class="cls-1" d="M150,6.1A143.9,143.9,0,1,1,6.1,150,143.92,143.92,0,0,1,150,6.1Z"/><path class="cls-2" d="M151.51,34.17a85.68,85.68,0,1,1-85.68,85.68,85.69,85.69,0,0,1,85.68-85.68Z"/><path class="cls-3" d="M150,0A150,150,0,1,1,0,150,150,150,0,0,1,150,0Zm0,7.47A142.53,142.53,0,1,1,7.47,150,142.55,142.55,0,0,1,150,7.47Z"/><path class="cls-3" d="M158.22,30.18c1.93.14,3.84.35,5.73.61l1.94-11.68a2.27,2.27,0,0,1,2.6-1.86h0a2.26,2.26,0,0,1,1.86,2.6l-1.94,11.67c1.8.35,3.58.74,5.33,1.19l1.61-5.15a2.28,2.28,0,0,1,2.83-1.49h0a2.28,2.28,0,0,1,1.49,2.84l-1.58,5q3.1,1,6.11,2.13l4.57-10.9a2.27,2.27,0,0,1,3-1.21h0a2.26,2.26,0,0,1,1.21,3l-4.58,10.9q2.73,1.23,5.36,2.63l2.79-4.62a2.27,2.27,0,0,1,3.1-.77h0a2.27,2.27,0,0,1,.77,3.1l-2.72,4.52q2.7,1.62,5.26,3.42l7-9.54a2.27,2.27,0,0,1,3.16-.48h0a2.27,2.27,0,0,1,.48,3.16l-7,9.54q2.66,2.07,5.15,4.32l3.84-3.82a2.26,2.26,0,0,1,3.19,0h0a2.27,2.27,0,0,1,0,3.2L215,56.22c1.15,1.15,2.28,2.34,3.37,3.56l9-7.7a2.27,2.27,0,0,1,3.19.26h0a2.27,2.27,0,0,1-.25,3.18l-9,7.7q1.62,2,3.12,4.07L229,64.36a2.27,2.27,0,0,1,3.13.67h0a2.28,2.28,0,0,1-.68,3.13L227,71c1.26,1.94,2.44,3.94,3.55,6l10.55-5.38a2.28,2.28,0,0,1,3.05,1h0a2.28,2.28,0,0,1-1,3L232.57,81c.51,1.08,1,2.17,1.49,3.28l5.07-1.87a2.26,2.26,0,0,1,2.9,1.33h0a2.26,2.26,0,0,1-1.34,2.91l-4.94,1.82c.51,1.38,1,2.78,1.44,4.18l11.36-3.28a2.26,2.26,0,0,1,2.8,1.54h0a2.26,2.26,0,0,1-1.54,2.8L238.45,97c.31,1.19.6,2.4.87,3.62l5.32-.87a2.26,2.26,0,0,1,2.6,1.86h0a2.27,2.27,0,0,1-1.87,2.6l-5.2.85q.27,1.65.48,3.33l11.78-1.21a2.27,2.27,0,0,1,2.48,2h0a2.28,2.28,0,0,1-2,2.48l-11.78,1.2c.09,1.15.16,2.3.2,3.45l5.41.08a2.28,2.28,0,0,1,2.23,2.29h0a2.27,2.27,0,0,1-2.3,2.23l-5.28-.07c0,1,0,2-.09,3l11.81.83a2.27,2.27,0,0,1,2.1,2.42h0a2.28,2.28,0,0,1-2.41,2.1L241,128.41c-.14,1.4-.3,2.79-.5,4.16l5.3,1.05a2.27,2.27,0,0,1,1.79,2.66h0a2.28,2.28,0,0,1-2.66,1.78l-5.18-1c-.25,1.31-.53,2.6-.84,3.88L250.31,144a2.27,2.27,0,0,1,1.6,2.77h0a2.27,2.27,0,0,1-2.77,1.59l-11.42-3.06c-.35,1.16-.71,2.3-1.09,3.44l5,2a2.27,2.27,0,0,1,1.27,2.94h0a2.28,2.28,0,0,1-2.94,1.26L235.07,153c-.41,1-.83,2-1.28,3l10.7,5a2.28,2.28,0,0,1,1.09,3h0a2.27,2.27,0,0,1-3,1.09l-10.7-5c-.56,1.12-1.14,2.23-1.75,3.32l4.57,2.86a2.26,2.26,0,0,1,.72,3.11h0a2.25,2.25,0,0,1-3.11.72l-4.47-2.8c-.72,1.14-1.45,2.27-2.22,3.38l9.6,6.94a2.26,2.26,0,0,1,.5,3.15h0a2.26,2.26,0,0,1-3.15.51l-9.6-6.95c-.62.81-1.24,1.61-1.89,2.39l4,3.65a2.26,2.26,0,0,1,.15,3.19h0a2.26,2.26,0,0,1-3.19.15l-3.92-3.57c-.61.67-1.23,1.33-1.85,2l8.33,8.43a2.26,2.26,0,0,1,0,3.19h0a2.27,2.27,0,0,1-3.2,0l-8.34-8.44c-.79.75-1.6,1.48-2.42,2.2l3.35,4.27a2.26,2.26,0,0,1-.38,3.17h0a2.26,2.26,0,0,1-3.17-.38l-3.27-4.17c-.83.65-1.67,1.29-2.53,1.92l6.77,9.73a2.27,2.27,0,0,1-.56,3.15h0a2.27,2.27,0,0,1-3.15-.57l-6.77-9.73c-.78.52-1.58,1-2.38,1.52l2.59,4.76a2.28,2.28,0,0,1-.9,3.07h0a2.27,2.27,0,0,1-3.07-.91l-2.53-4.64c-.86.47-1.72.92-2.59,1.36l5.07,10.71a2.26,2.26,0,0,1-1.07,3h0a2.27,2.27,0,0,1-3-1.07L188,202c-1.22.54-2.46,1.06-3.71,1.55l1.7,5.13a2.27,2.27,0,0,1-1.43,2.86h0a2.27,2.27,0,0,1-2.86-1.44l-1.66-5c-1.25.42-2.52.82-3.8,1.18l3,11.46a2.27,2.27,0,0,1-1.62,2.75h0a2.27,2.27,0,0,1-2.76-1.62l-3-11.45c-1.11.26-2.23.49-3.35.71l.74,5.35a2.27,2.27,0,0,1-1.93,2.55h0a2.27,2.27,0,0,1-2.55-1.93l-.72-5.23c-1.3.19-2.62.34-3.93.47l.83,11.8a2.27,2.27,0,0,1-2.09,2.42h0a2.28,2.28,0,0,1-2.42-2.1l-.83-11.81c-.83,0-1.66.06-2.49.08l-.19,5.4a2.27,2.27,0,0,1-2.33,2.19h0a2.27,2.27,0,0,1-2.18-2.35l.18-5.28c-1.13,0-2.26-.09-3.4-.17h0L144,221.31a2.26,2.26,0,0,1-2.47,2h0a2.26,2.26,0,0,1-2-2.46l1.13-11.79c-1.06-.13-2.12-.27-3.17-.44l-1.12,5.29a2.27,2.27,0,0,1-2.68,1.74h0a2.26,2.26,0,0,1-1.74-2.68l1.09-5.16c-1.39-.29-2.77-.61-4.14-1l-3.26,11.38a2.26,2.26,0,0,1-2.8,1.54h0a2.27,2.27,0,0,1-1.55-2.79l3.26-11.37q-1.68-.52-3.33-1.11l-2.08,5a2.27,2.27,0,0,1-3,1.21h0a2.27,2.27,0,0,1-1.21-3l2-4.85c-1.27-.53-2.53-1.09-3.78-1.67l-5.3,10.57a2.26,2.26,0,0,1-3,1h0a2.27,2.27,0,0,1-1-3l5.3-10.57c-1.14-.61-2.26-1.24-3.37-1.9l-3,4.5a2.27,2.27,0,0,1-3.13.64h0a2.27,2.27,0,0,1-.63-3.14l2.92-4.4c-1-.66-2-1.34-2.95-2l-7.15,9.44a2.27,2.27,0,0,1-3.17.43h0a2.27,2.27,0,0,1-.44-3.16l7.16-9.45q-1.23-1-2.4-2l-3.74,3.92a2.27,2.27,0,0,1-3.2.08h0a2.27,2.27,0,0,1-.07-3.2l3.65-3.83c-.79-.75-1.56-1.51-2.32-2.28l-8.66,8.1a2.27,2.27,0,0,1-3.2-.12h0a2.28,2.28,0,0,1,.11-3.19l8.67-8.09c-.54-.61-1.08-1.23-1.61-1.86l-4.33,3.26a2.26,2.26,0,0,1-3.16-.44h0a2.26,2.26,0,0,1,.44-3.16l4.23-3.19c-.55-.73-1.09-1.47-1.62-2.21l-9.83,6.63a2.28,2.28,0,0,1-3.14-.62h0a2.26,2.26,0,0,1,.61-3.13l9.83-6.63q-1.22-1.89-2.33-3.86l-4.84,2.43a2.28,2.28,0,0,1-3-1h0a2.26,2.26,0,0,1,1-3l4.73-2.37c-.82-1.61-1.58-3.24-2.3-4.89l-11,4.41A2.26,2.26,0,0,1,55,158.61h0a2.27,2.27,0,0,1,1.25-2.94l11-4.41c-.53-1.42-1-2.86-1.48-4.31L60.5,148.3a2.25,2.25,0,0,1-2.75-1.61h0a2.26,2.26,0,0,1,1.62-2.76l5.1-1.32q-.66-2.54-1.18-5.12l-11.65,2A2.28,2.28,0,0,1,49,137.68h0a2.26,2.26,0,0,1,1.84-2.61l11.66-2c-.26-1.73-.47-3.47-.62-5.22l-5.4.19a2.26,2.26,0,0,1-2.34-2.18h0a2.26,2.26,0,0,1,2.18-2.34l5.28-.19c-.1-2.48-.1-5,0-7.52L49.83,115a2.27,2.27,0,0,1-2.1-2.41h0a2.28,2.28,0,0,1,2.42-2.1l11.81.83c.16-1.76.38-3.51.65-5.24l-5.29-1.11a2.27,2.27,0,0,1-1.75-2.67h0a2.27,2.27,0,0,1,2.68-1.75l5.16,1.08q.53-2.52,1.18-5L53.25,93.23a2.26,2.26,0,0,1-1.53-2.8h0a2.26,2.26,0,0,1,2.81-1.53l11.34,3.34q.88-2.76,1.95-5.45l-4.9-2.24a2.27,2.27,0,0,1-1.12-3h0a2.27,2.27,0,0,1,3-1.12l4.79,2.19c.94-2.08,2-4.12,3.06-6.11l-10.22-6a2.27,2.27,0,0,1-.81-3.09h0a2.27,2.27,0,0,1,3.09-.82l10.22,6q2.16-3.5,4.62-6.77l-4.14-3.47a2.26,2.26,0,0,1-.29-3.18h0a2.27,2.27,0,0,1,3.19-.28l4,3.39q1.74-2.07,3.58-4l-8.42-8.33a2.26,2.26,0,0,1,0-3.2h0a2.27,2.27,0,0,1,3.19,0l8.43,8.33q2.72-2.59,5.62-5L91.55,45.7A2.28,2.28,0,0,1,92,42.54h0a2.27,2.27,0,0,1,3.16.5l3.12,4.28q2.73-2,5.61-3.8l-6-10.21a2.27,2.27,0,0,1,.8-3.1h0a2.27,2.27,0,0,1,3.1.8l6,10.21c1.79-1,3.63-1.94,5.49-2.81l-2-5a2.26,2.26,0,0,1,1.24-2.94h0a2.27,2.27,0,0,1,3,1.24l2,4.89q2.6-1.06,5.26-2l-3.5-11.29a2.28,2.28,0,0,1,1.49-2.83h0A2.26,2.26,0,0,1,123.53,22L127,33.28q2.76-.78,5.59-1.38l-.85-5.33A2.27,2.27,0,0,1,133.64,24h0a2.27,2.27,0,0,1,2.59,1.88l.83,5.2q3.09-.49,6.24-.78l-.77-11.8a2.25,2.25,0,0,1,2.1-2.41h0A2.28,2.28,0,0,1,147,18.18l.77,11.8c1.95-.07,3.92-.09,5.9,0l.42-5.39a2.26,2.26,0,0,1,2.43-2.07h0a2.26,2.26,0,0,1,2.08,2.43l-.42,5.27Zm-.84,5.44a84.42,84.42,0,1,1-90.13,78.29,84.43,84.43,0,0,1,90.13-78.29Z"/><polygon class="cls-4" points="74.75 246.69 76.96 244.16 65.89 234.54 63.69 237.07 67.78 240.64 57.52 252.44 60.37 254.91 70.63 243.11 74.75 246.69 74.75 246.69"/><path class="cls-4" d="M82.82,270.61l.58-8.94a5.87,5.87,0,0,0,3.35,0,5.57,5.57,0,0,0,3-2.37,6.05,6.05,0,0,0,.94-4.21,5.47,5.47,0,0,0-2.54-3.73l-7.7-5-10.36,16,3.16,2.05,4-6.23,2.35,1.53-.53,8.51,3.67,2.39Zm3.88-13.42a2.49,2.49,0,0,1-1.62,1.18,3,3,0,0,1-2.3-.56l-3.66-2.38,2.74-4.22,3.93,2.55a2.33,2.33,0,0,1,.91,3.43Z"/><path class="cls-4" d="M103.53,280.39l2.08-20-4.08-1.9-14,14.42,3.7,1.73,2.83-3,6.24,2.91-.57,4.06,3.83,1.78Zm-2.86-9.27-4.29-2,5.33-5.8.05,0-1.09,7.78Z"/><path class="cls-4" d="M125.4,280a6,6,0,0,0,.08-2.75,4.11,4.11,0,0,0-1.78-2.38,7.6,7.6,0,0,0,.78-.25,3.5,3.5,0,0,0,.84-.48,3.11,3.11,0,0,0,.83-1,5.8,5.8,0,0,0,.59-1.57,6.07,6.07,0,0,0,.12-1.62,4.13,4.13,0,0,0-.5-1.72,4.25,4.25,0,0,0-1.36-1.6,7.46,7.46,0,0,0-2.6-1.05l-8.55-2-4.27,18.52,7.44,1.72a11.18,11.18,0,0,0,3.89.4,3.85,3.85,0,0,0,1.17-.3,4.32,4.32,0,0,0,.92-.49,5.59,5.59,0,0,0,2.4-3.46Zm-2.29-8.8a1.85,1.85,0,0,1-1.12,1.4,3.29,3.29,0,0,1-2,.07l-4.3-1,.93-4,4.21,1a4.27,4.27,0,0,1,1.89.86,1.76,1.76,0,0,1,.35,1.74Zm-1.29,7.53c-.45,1.82-1.61,2.5-3.46,2.06l-4.5-1,1.15-5,4.68,1.08a3.49,3.49,0,0,1,1.73.92,2,2,0,0,1,.4,1.93Z"/><polygon class="cls-4" points="144.38 288.01 144.68 284.66 134.91 283.81 145.71 272.18 145.99 269.07 131.79 267.83 131.5 271.18 140.84 272 130.16 283.39 129.87 286.74 144.38 288.01 144.38 288.01"/><path class="cls-4" d="M165.86,277.44a12.91,12.91,0,0,0-1.46-5.27,7.71,7.71,0,0,0-2.67-2.76,8.18,8.18,0,0,0-2.95-1.11,14,14,0,0,0-2.43-.07,13.14,13.14,0,0,0-2.3.49,8.77,8.77,0,0,0-2.74,1.6,7.73,7.73,0,0,0-2.14,3.19,12.05,12.05,0,0,0-.58,5.44,11.69,11.69,0,0,0,1.51,5.18,7.53,7.53,0,0,0,2.67,2.8,8.36,8.36,0,0,0,3,1.09l.7.08a4.67,4.67,0,0,0,.63.07,6.73,6.73,0,0,0,1,0,11,11,0,0,0,2.38-.55,8.09,8.09,0,0,0,2.71-1.59,7.72,7.72,0,0,0,2.15-3.22,12.28,12.28,0,0,0,.53-5.36Zm-3.75.33a10.68,10.68,0,0,1-.15,3.29,5.61,5.61,0,0,1-1.05,2.12,4.24,4.24,0,0,1-1.49,1.17,4.64,4.64,0,0,1-1.62.47,4.37,4.37,0,0,1-1.6-.19,4.12,4.12,0,0,1-1.71-.88,5.33,5.33,0,0,1-1.37-1.92,11.27,11.27,0,0,1-.57-6.54,5.27,5.27,0,0,1,1-2.14,4.45,4.45,0,0,1,1.53-1.18,5.27,5.27,0,0,1,1.55-.39,6,6,0,0,1,1.67.11,4.35,4.35,0,0,1,1.67.9,5.51,5.51,0,0,1,1.4,1.93,10.36,10.36,0,0,1,.73,3.25Z"/><polygon class="cls-4" points="185.63 283.19 181.03 264.76 177.62 265.61 180.82 278.45 180.77 278.46 170.61 267.35 166.77 268.31 171.37 286.75 174.78 285.9 171.5 272.75 171.55 272.74 181.97 284.11 185.63 283.19 185.63 283.19"/><path class="cls-4" d="M203.67,270.91A5.56,5.56,0,0,0,202.5,269a4.11,4.11,0,0,0-1.51-.93,7.94,7.94,0,0,0-3.62-.18l-4.48.59a3.86,3.86,0,0,1-1.35,0c-.51-.05-.9-.41-1.18-1.08a1.83,1.83,0,0,1-.13-1.15,1.79,1.79,0,0,1,.43-.91,4.63,4.63,0,0,1,1.77-1.23,5.62,5.62,0,0,1,1.94-.48,2.62,2.62,0,0,1,1.31.36,2.48,2.48,0,0,1,.82.66,5.92,5.92,0,0,1,.42.72l3.36-1.35a5.77,5.77,0,0,0-1-1.71,5.68,5.68,0,0,0-1.78-1.41,5.58,5.58,0,0,0-2.59-.66,9.09,9.09,0,0,0-3.43.73,8.81,8.81,0,0,0-3,1.85,5.77,5.77,0,0,0-1.4,2.22,5.46,5.46,0,0,0-.21,2.14,7.22,7.22,0,0,0,.42,1.8,5.41,5.41,0,0,0,1.43,2.14,3.8,3.8,0,0,0,1.76,1,7.5,7.5,0,0,0,2,.15c.72,0,1.45-.12,2.18-.22l2-.29a9.23,9.23,0,0,1,2.48-.14,1.66,1.66,0,0,1,1.42,1.11,2.16,2.16,0,0,1,.17,1.24,2.31,2.31,0,0,1-.55,1,5.79,5.79,0,0,1-2.19,1.43,4.57,4.57,0,0,1-1.94.41,3,3,0,0,1-1.39-.29,3.22,3.22,0,0,1-.86-.77,3.7,3.7,0,0,1-.5-.77l-3.36,1.35a5.77,5.77,0,0,0,1,1.71,5.4,5.4,0,0,0,1.81,1.53,6.14,6.14,0,0,0,2.78.61,10.21,10.21,0,0,0,3.91-.84,13.64,13.64,0,0,0,1.61-.84,8.89,8.89,0,0,0,1.9-1.64,5.54,5.54,0,0,0,1.23-2.51,6.16,6.16,0,0,0-.47-3.44Z"/><path class="cls-4" d="M216.78,255.64q-3.08-5.1-7.89-2.47l-7.15,4.13,9.5,16.45,3.27-1.88-3.43-5.94,3.76-2.16a5.31,5.31,0,0,0,2.19-2.14,4.56,4.56,0,0,0,.68-2.32,6.49,6.49,0,0,0-.29-2.14,7.92,7.92,0,0,0-.64-1.53Zm-3.36,1.72c.11.19.24.43.39.73a2.88,2.88,0,0,1,.22,1,2.26,2.26,0,0,1-.31,1.12,3.14,3.14,0,0,1-1.24,1.12l-3,1.75-2.79-4.84,2.59-1.49q2.91-1.71,4.18.6Z"/><path class="cls-4" d="M234.35,246.84a12.77,12.77,0,0,0-4.1-3.62,7.68,7.68,0,0,0-3.74-.87,8.44,8.44,0,0,0-3.08.68,13.65,13.65,0,0,0-2.08,1.27,11.68,11.68,0,0,0-1.66,1.66,8.73,8.73,0,0,0-1.42,2.83,7.6,7.6,0,0,0-.06,3.84,12,12,0,0,0,2.47,4.88,11.73,11.73,0,0,0,4.09,3.52,7.66,7.66,0,0,0,3.76.9,8.46,8.46,0,0,0,3.09-.71l.63-.31c.2-.09.39-.18.57-.28a8.38,8.38,0,0,0,.85-.56,11.27,11.27,0,0,0,1.69-1.77,7.82,7.82,0,0,0,1.41-2.81,7.61,7.61,0,0,0,0-3.87,12.36,12.36,0,0,0-2.47-4.78Zm-3,2.32A10.52,10.52,0,0,1,233,252a5.77,5.77,0,0,1,.28,2.35,4.22,4.22,0,0,1-.61,1.79,4.82,4.82,0,0,1-1.11,1.28,4.31,4.31,0,0,1-1.44.71,4.05,4.05,0,0,1-1.92.19,5.28,5.28,0,0,1-2.19-.86,11.33,11.33,0,0,1-4-5.17,5.22,5.22,0,0,1-.31-2.35,4.3,4.3,0,0,1,.64-1.82,5.34,5.34,0,0,1,1.08-1.17,5.88,5.88,0,0,1,1.46-.82,4.48,4.48,0,0,1,1.89-.16,5.7,5.7,0,0,1,2.23.85,10.56,10.56,0,0,1,2.38,2.34Z"/><path class="cls-4" d="M254.39,240.24l-8.7-2.12a5.81,5.81,0,0,0,.61-3.29,5.38,5.38,0,0,0-1.8-3.39,6,6,0,0,0-4-1.66,5.45,5.45,0,0,0-4.12,1.85l-6.26,6.71,13.92,13,2.57-2.76-5.43-5.07,1.91-2.05,8.29,2,3-3.2Zm-12.54-6.15a2.51,2.51,0,0,1,.88,1.8,3,3,0,0,1-.95,2.16l-3,3.2-3.68-3.43,3.19-3.42a2.59,2.59,0,0,1,1.95-1,2.54,2.54,0,0,1,1.59.67Z"/><path class="cls-5" d="M159.88,95.89v9.79c12.48,4.69,21.42,13.54,20.81,27.67a21.09,21.09,0,0,1-7.81,15.9,33.24,33.24,0,0,1-22.34,7.62c-6.91-.13-13.37-2.48-19.52-5.7a50.54,50.54,0,0,1-15.22-11.91l13.14-10.46a72.92,72.92,0,0,0,12.1,8.56,21.59,21.59,0,0,0,10.66,2.92c4.67-.13,10.41-1.93,11.46-7.23a10,10,0,0,0-1.67-8.16,8.72,8.72,0,0,0-1.61-1.42v7.06H143.77V116.37c-4.87-2-10.3-4-14.37-7.72a14.77,14.77,0,0,1,1-22.87,28.9,28.9,0,0,1,13.32-5.64V78H122.85V61.91h56.89V78H159.88v2.13a58.86,58.86,0,0,1,10.53,2c3.17.94,6.21,2.16,9.27,3.39v17.84c-6.38-4.09-12.52-6.68-19.8-7.54Zm-16.74,2.29a1.19,1.19,0,0,0,.63,1V97.36a1,1,0,0,0-.63.82Z"/><path class="cls-3" d="M156.58,74.72v8.46a57.57,57.57,0,0,1,19.81,4.64v10a43.59,43.59,0,0,0-19.81-5.48V108c9.87,3.64,20.5,9.28,20.83,23.9.33,14.84-14.42,21.41-25.7,21.72-11.73.32-26.19-8.42-31.08-13.94l8.28-6.6c7.58,6.27,15.2,10.49,22.05,10.55,8.91.08,15.57-4.71,15.63-11.87.08-8.43-3.64-10.91-10-13.62v9.14h-9.51V114.14c-10.2-4.13-19.54-7.34-19.27-16.93.25-9.18,11.29-13.5,19.27-14.19v-8.3H126.14V65.21h50.31v9.51Zm-9.51,29.87V92.82c-3.66.65-7.34,2.13-7.23,5.55.09,2.86,3,4.6,7.23,6.22Z"/><path class="cls-4" d="M131.61,186.86h-3v-10a14.81,14.81,0,0,1-5.91,3.59l0-1.58a16,16,0,0,0,5.88-6.62h3v14.59Z"/><path class="cls-4" d="M165.93,184.33c0,2.74-2.43,4.8-5.5,4.83-4.64,0-6.63-4.23-6.63-7.7s2.08-7.66,6.35-7.66a5.63,5.63,0,0,1,3.86,1.33l-1.07,1.58a3.89,3.89,0,0,0-2.79-.74c-2.26.31-3.19,3.39-3,5.11a4.91,4.91,0,0,1,3.51-1.27c2.45.05,5.22,1.63,5.22,4.52Zm-3.41.25a2.17,2.17,0,0,0-2.45-2.16,2.22,2.22,0,0,0-2.1,2.26,2.32,2.32,0,0,0,2.22,2.45,2.21,2.21,0,0,0,2.33-2.55Z"/><path class="cls-4" d="M136.46,178.48c0-2.73,2.67-4.79,5.74-4.82,4.09,0,6.14,3.1,6.23,6.41.13,4.66-3.92,8.57-8.25,9.09l0-2.15a6.09,6.09,0,0,0,4.22-4.89,3.9,3.9,0,0,1-2.75.88c-2.45.05-5.22-1.62-5.22-4.52Zm3.41-.15a2.27,2.27,0,0,0,4.54-.1,2.32,2.32,0,0,0-2.21-2.45,2.27,2.27,0,0,0-2.33,2.55Z"/><path class="cls-4" d="M182.17,175.09a34.07,34.07,0,0,0-6.1,13.12h-3.41a32.84,32.84,0,0,1,6.24-12.67h-6.15l-.8,2-2.51,0,1.76-4.13h11v1.73Z"/></g></g></svg>