<svg xmlns="http://www.w3.org/2000/svg" viewBox="0 0 238.48 300"><defs><style>.cls-1{fill:#e6001a;}.cls-2{fill:#b7002e;}.cls-3{fill:#fff;}.cls-4{fill:#e41d2d;}</style></defs><title>Twente</title><g id="Слой_2" data-name="Слой 2"><g id="Слой_1-2" data-name="Слой 1"><g id="layer1"><g id="g5531"><g id="g3111"><path id="path12" class="cls-1" d="M118.52,9.65c-31.1,0-53.63,5.67-71.15,11.74S10.2,29.26,10.2,29.26l2.85,48.62c6.45,5.72,6.2,8.28,7.15,18.6s6.44,102.25,6.44,102.25c1.42,32.88.67,47.54,12.86,59.75,11.15,11.15,28.61,12.71,28.61,12.71s14,.36,26.45,3.75c11.25,3.06,20.89,15.38,20.89,15.38h7.68s9.54-12.3,20.78-15.38a128.56,128.56,0,0,1,26.47-3.75s17.45-1.56,28.6-12.71c12.24-12.24,11.44-26.85,12.87-59.75,0,0,5.54-92.06,6.44-102.25,1-10.76.71-12.88,7.15-18.6l2.86-48.62s-19.67-1.8-37.17-7.87S151.08,9.65,120,9.65h-1.45Z"/><path id="path14" class="cls-2" d="M50.54,30.51c13.87-4.81,36-11.2,68-11.2H120c32,0,54.13,6.39,68,11.2a177.43,177.43,0,0,0,30.18,7.17C217.5,48.5,216.31,68.5,216,73.59c-5.71,6.07-6.4,11-7.18,20l-.17,2c-.91,10.21-6.23,98.78-6.45,102.54l-.36,8.82c-1,26.32-1.56,36.52-9.69,44.67s-21.5,9.77-22.5,9.88a137.7,137.7,0,0,0-28.28,4.08c-9.62,2.62-17.63,9.76-22.11,14.49-4.49-4.72-12.55-11.87-22.17-14.49a137.61,137.61,0,0,0-28.28-4.08c-1-.11-14.31-1.71-22.49-9.88s-8.64-18.38-9.7-44.87l-.34-8.48c-.24-3.92-5.53-92.48-6.48-102.72l-.19-2.11C28.9,85.36,28.42,80,22.47,73.6c-.3-5.07-1.49-25.1-2.13-35.92A177.38,177.38,0,0,0,50.54,30.51ZM118.52,0C83.6,0,59.38,7,44.2,12.27,28.07,17.88,9.49,19.63,9.31,19.64L0,20.5l.55,9.34L3.64,82.46l3,2.65c3.09,2.76,3.09,2.76,3.74,10.09l.21,2.18c.92,9.92,6.35,101,6.4,101.94l.34,8.26c1.08,27.22,1.59,44,15.35,57.74,13.47,13.48,33.71,15.43,34.57,15.51l.29,0h.3A120,120,0,0,1,92,284.29c6.57,1.8,13.82,9.48,15.83,12l2.89,3.66,4.7,0h12.38l2.92-3.72c2-2.54,9.17-10.21,15.73-12a119.78,119.78,0,0,1,24.17-3.42h.28l.31,0c.86-.08,21.09-2,34.57-15.51,13.77-13.77,14.27-30.46,15.33-57.55l.36-8.6c.05-.77,5.53-91.89,6.4-101.83l.19-2.07c.62-7.38.62-7.38,3.76-10.18l3-2.65,3.65-61.94-9.3-.86c-.19,0-18.76-1.78-34.92-7.37C179.1,7,154.87,0,120,0Z"/><path id="path16" class="cls-1" d="M118.52,9.65c-31.1,0-53.63,5.67-71.15,11.74S10.2,29.26,10.2,29.26l2.85,48.62c6.45,5.72,6.2,8.28,7.15,18.6s6.44,102.25,6.44,102.25c1.42,32.88.67,47.54,12.86,59.75,11.15,11.15,28.61,12.71,28.61,12.71s14,.36,26.45,3.75c11.25,3.06,20.89,15.38,20.89,15.38h7.68s9.54-12.3,20.78-15.38a128.56,128.56,0,0,1,26.47-3.75s17.45-1.56,28.6-12.71c12.24-12.24,11.44-26.85,12.87-59.75,0,0,5.54-92.06,6.44-102.25,1-10.76.71-12.88,7.15-18.6l2.86-48.62s-19.67-1.8-37.17-7.87S151.08,9.65,120,9.65h-1.45Z"/><path id="path18" class="cls-3" d="M48.34,24.17c14.32-5,37.16-11.57,70.18-11.57H120c33,0,55.86,6.6,70.17,11.57,14,4.87,29,7,35.05,7.7-.3,4.84-2.51,42.59-2.64,44.67-5.93,5.56-6.28,8.84-7,17.64l-.18,2c-.89,10.12-6.22,98.59-6.44,102.33l-.35,8.7c-1,25.82-1.38,38.85-11.67,49.14s-26.6,11.83-26.78,11.85a129.73,129.73,0,0,0-26.94,3.84c-10.18,2.78-18.71,12.07-21.41,15.28h-4.93c-2.72-3.2-11.31-12.5-21.49-15.28a131.57,131.57,0,0,0-27.15-3.86s-16.36-1.61-26.59-11.83S31,233,29.92,207l-.36-8.45c-.24-3.81-5.5-92.28-6.44-102.41L22.94,94c-.74-8.27-1.14-12-7-17.52-.11-2.07-2.34-39.83-2.62-44.68,6-.72,21-2.85,35-7.7ZM118.52,6.7c-33.91,0-57.39,6.79-72.12,11.9-16.95,5.87-36.28,7.68-36.47,7.71l-2.86.26,3.09,52.7.93.81c5.09,4.53,5.23,6.06,6,14.51l.18,2.15c.94,10,6.39,101.24,6.44,102.16l.34,8.39c1.08,27,1.48,41.37,13.4,53.27s29.66,13.49,30.41,13.55c.33,0,14,.41,25.94,3.67,10.14,2.77,19.23,14.24,19.34,14.35l.89,1.14h10.56l.89-1.14c.09-.11,9.08-11.57,19.25-14.33,11.94-3.27,25.6-3.64,25.74-3.66.94-.07,18.83-1.79,30.62-13.56s12.31-26.28,13.38-53.09l.35-8.63c0-.88,5.54-92.09,6.43-102.13l.19-2c.76-8.9.87-10,6-14.61l.91-.82,3.11-52.69-2.85-.27c-.18,0-19.51-1.84-36.47-7.71C177.39,13.46,153.9,6.68,120,6.68h-1.44Z"/><path id="path20" class="cls-3" d="M96,240.51v13.74a1.24,1.24,0,0,0,1.28,1.41h1.8v2.43H87.81v-2.43h1.91c.87,0,1.28-.58,1.28-1.41v-9H87.86v-2.45h.73a3.49,3.49,0,0,0,3.66-2.32H96Z"/><path id="path22" class="cls-3" d="M107.34,245.7c0,2.23.91,3.24,2.39,3.24s2.38-1,2.38-3.24-.91-3.28-2.38-3.28S107.34,243.46,107.34,245.7Zm5.12,4.27a6.5,6.5,0,0,1-4.44,1.32c-3.49,0-6-1.83-6-5.33,0-4.12,3.7-5.87,7.42-5.87,5.82,0,8.4,3.95,8.4,8.45,0,6-3,10-9,10h0c-2.32,0-6-.78-6-3.7a2.32,2.32,0,0,1,2.53-2.53c1.61,0,2.61.84,2.61,1.92a1.67,1.67,0,0,1-1.14,1.7l1.48.44c3,0,4.21-2.14,4.21-5.43v-1Z"/><path id="path24" class="cls-3" d="M126.6,253c0,2.23.9,3.24,2.37,3.24s2.37-1,2.37-3.24-.9-3.28-2.37-3.28S126.6,250.72,126.6,253Zm-.33-4.3a6.59,6.59,0,0,1,4.45-1.31c3.24,0,6,1.92,6,5.33,0,4.12-3.66,5.87-7.39,5.87-5.73,0-8.38-3.22-8.38-8.47,0-6,2.75-10,9.08-10,2.3,0,6,1.17,6,3.7,0,1.8-1,2.53-2.87,2.53a2.1,2.1,0,0,1-2.26-1.92,1.71,1.71,0,0,1,1.14-1.72l-1.5-.43c-3,0-4.22,2.15-4.22,4.82v1.61Z"/><path id="path26" class="cls-3" d="M141.63,240.07a39,39,0,0,0,6.07.44c2,0,5.52-.44,6.05-.44l.54.54c0,2.09-4,3.57-7.69,3.57a7.91,7.91,0,0,1-2.67-.4l-.1,2.65a7,7,0,0,1,3.8-1c4,0,7.41,2.13,7.41,6.47,0,4.52-3.81,6.62-7.9,6.62-3.21,0-7.26-1.08-7.26-5a2.73,2.73,0,0,1,2.77-2.83,2.29,2.29,0,0,1,2.57,2.33,2.11,2.11,0,0,1-2.26,2,3.74,3.74,0,0,0,2.59,1.11c3,0,4.15-1.63,4.15-4.42,0-2.14-1-3.75-3.34-3.75a3.09,3.09,0,0,0-2.62,1.17h-2.8l.68-9.13Z"/><path id="path28" class="cls-3" d="M25.14,215.72c15.85,24.84,38.38,49.6,75.54,61L98.13,273c-36.27-14.41-57.28-39-72.06-62.11l-.95,4.88Z"/><path id="path30" class="cls-3" d="M27.39,61.6l-.78-2.41,1.67-.53A1,1,0,0,0,29,57.22L25.4,46.09a1,1,0,0,0-1.4-.75l-1.7.55-.77-2.41,18.19-5.85L42,44.58l-2.54.81c-1.27-3.94-3-4-6.5-2.92l-2.7.87,1.67,5.23.86-.26c1.56-.5,1.94-1.41,1.56-2.56L34,44.69,36.22,44l2.66,8.26L36.61,53l-.34-1.07c-.37-1.15-1.2-1.67-2.76-1.15l-.85.26,1.49,4.61a1,1,0,0,0,1.42.75l1.7-.55L38,58.22,27.4,61.64Z"/><path id="path32" class="cls-3" d="M47.47,53.35a2.45,2.45,0,0,1-1.69,2.95,2.4,2.4,0,0,1-1.28-4.62A2.46,2.46,0,0,1,47.47,53.35Z"/><path id="path34" class="cls-3" d="M61.27,32.26l2.53-.56,1.7,7.62-2.61.57c-.65-2.89-2.76-5-5.93-4.26s-4.3,3.31-3.19,8.31c1,4.43,2.72,7,6.64,6.15,3-.66,4-3.45,3.4-6.06l2.61-.58C67.48,48.64,65,51.81,59.8,53c-5.81,1.29-10.63-1.1-12.1-7.67-1.33-6,1.9-10.76,7.34-12,1.4-.32,4.53-.27,6,.62Z"/><path id="path36" class="cls-3" d="M74.31,47.57a2.43,2.43,0,0,1-2,2.77,2.38,2.38,0,0,1-2.75-2,2.43,2.43,0,0,1,1.94-2.78,2.47,2.47,0,0,1,2.8,2Z"/><path id="path38" class="cls-3" d="M80,36.69l-.76-7.26,19-2,.75,7.26L96.27,35c-.29-2.9-1.35-4.65-4.63-4.31L93,43.45a1,1,0,0,0,1.24,1l1.71-.17.27,2.52L85.09,48l-.26-2.51,1.78-.19a1.05,1.05,0,0,0,1-1.27L86.28,31.24c-3.29.35-4,2.27-3.65,5.17Z"/><path id="path40" class="cls-3" d="M100.77,27.11l8.71-.15,0,2.53-.78,0-.86.73.41,1.56,2.78,9.7h.06l2.37-8.87L113,31c-.31-.94-.81-1.52-1.51-1.5h-.61l0-2.53,9.14-.16,0,2.53-1.3,0-.84.73.41,1.56L120.82,41h.06l2.22-9.45.28-1.67-.75-.63-1.3,0,0-2.53,7.07-.12,0,2.53h-.34c-.91,0-1.55.39-2,2.1l-3.48,14.52-5.31.08-2.31-8h-.06l-2.17,8-5.34.1-4.06-13.48c-.67-2.26-1.28-3-2.19-3h-.37l0-2.53Z"/><path id="path42" class="cls-3" d="M133.31,30.76a1,1,0,0,0-1-1.22l-1.78-.12.17-2.53,19.05,1.34-.5,7.28-2.67-.19c.3-4.12-1.28-4.87-4.93-5.12L138.79,30l-.39,5.47.89.06c1.67.11,2.31-.5,2.43-2.28l.05-.64,2.37.17-.6,8.65-2.38-.17.05-.69c.08-1.06-.23-2.4-1.27-2.48L138.23,38l-.42,6,3.49.23c3,.22,4.66-.3,5-4.92l2.67.19-.54,7.76-19-1.33.18-2.53,1.74.13a1,1,0,0,0,1.21-1.08l.81-11.66Z"/><path id="path44" class="cls-3" d="M167.75,44h.07l1.42-9.35a1.05,1.05,0,0,0-.94-1.3l-1.75-.26.39-2.5,8.74,1.32-.37,2.5-1.7-.26a1,1,0,0,0-1.28,1L170,50.31l-5.73-.88-5.8-15.2h0l-1.56,10.36a1,1,0,0,0,.93,1.31l1.74.27-.39,2.51-8.78-1.32.38-2.5,1.73.26a1,1,0,0,0,1.28-1l1.76-11.57a1,1,0,0,0-.93-1.3L152.86,31l.37-2.49,9.15,1.37,5.4,14.1Z"/><path id="path46" class="cls-3" d="M176,39.47l1.63-7.1,18.6,4.29-1.64,7.1L192,43.17c.66-2.86.24-4.84-3-5.57l-2.89,12.5a1,1,0,0,0,.83,1.38l1.67.39L188,54.32l-10.85-2.5.56-2.47,1.73.39a1,1,0,0,0,1.36-.85l2.89-12.51c-3.22-.73-4.47.86-5.12,3.72L176,39.5Z"/><path id="path48" class="cls-3" d="M200.21,41.64a1,1,0,0,0-.71-1.43l-1.71-.54.77-2.42L216.8,43l-2.19,7-2.56-.8c1.25-3.95-.1-5-3.61-6.13l-2.72-.86-1.63,5.23.85.26c1.6.5,2.36.05,2.89-1.65l.19-.6,2.28.71-2.59,8.27-2.28-.7.2-.66c.31-1,.33-2.4-.65-2.7l-1.64-.51-1.8,5.7,3.34,1.06c2.87.9,4.61.78,6-3.64l2.54.8-2.32,7.43-18.21-5.72.75-2.42,1.67.53a1,1,0,0,0,1.41-.76l3.51-11.16Z"/><path id="path50" class="cls-3" d="M182.32,79.57l17.21-15.12-4.45-.89L179.81,77.07a32.84,32.84,0,0,1,2.51,2.5Z"/><path id="path52" class="cls-3" d="M127.88,216.23c-.16,1.13-.33,2.36-.49,3.41a289.09,289.09,0,0,0,50.53,17.2c.47-1,.89-2,1.31-2.93A281.7,281.7,0,0,1,127.88,216.23Z"/><path id="path54" class="cls-3" d="M109.42,206.66q-8.78-5.08-16.33-10.47a8.21,8.21,0,0,1-1.66,2.62l-.2.29q7.29,5.16,15.69,10A10.3,10.3,0,0,1,109.42,206.66Z"/><path id="path56" class="cls-3" d="M191.05,182.26l-.28-.33c-1,.52-2.24.95-2.24.58l-.28-.06c.55,5.18,1.78,26.23-9,51.47l1.87.47-1.09,3-2.08-.51A128.1,128.1,0,0,1,154.5,271.3l2.57,2.42c37.94-40.27,35.54-83.64,34.62-92l-.38.34-.25.21Z"/><path id="path58" class="cls-3" d="M181.1,234.38c-.62-.16-1.23-.32-1.87-.47-.42,1-.86,2-1.31,2.93.7.17,1.37.36,2.07.52l1.1-3Z"/><path id="path60" class="cls-3" d="M214.47,156.87c-6.72,6-14.9,13.19-25.14,22.22l1.22.2,1.45.22.05,1.45-.41.44,0,.3c8.92-7.84,16.26-14.32,22.44-19.82l.34-5Z"/><polygon id="polygon62" class="cls-3" points="191.05 182.26 191.3 182.06 191.67 181.7 191.64 181.4 190.77 181.93 191.05 182.26"/><path id="path64" class="cls-3" d="M188.25,182.45c-.07-.77-.15-1.19-.15-1.24l1.64-.47-1-1.12.25-.22.36-.31a125.23,125.23,0,0,1-26.16-7,24.75,24.75,0,0,1-1.59,3.06,127.76,127.76,0,0,0,26.67,7.28Z"/><path id="path66" class="cls-3" d="M87,87.58a157.1,157.1,0,0,1-6.59-23.69l-.52.63-2.67-2.3.49-.56c-27.47.75-47.9,7.6-62.69,15.78V81.5c14.33-8.24,34.54-15.39,62.06-16.25a165.87,165.87,0,0,0,7.11,24.86A29.36,29.36,0,0,1,87,87.59Z"/><polygon id="polygon68" class="cls-3" points="80.27 63.13 80.03 61.6 78.49 61.63 77.69 61.66 77.21 62.22 79.88 64.52 80.41 63.91 80.27 63.13"/><path id="path70" class="cls-3" d="M188.1,181.23s.08.47.15,1.23l.28,0c0,.39,1.24,0,2.24-.58l-1-1.17-1.64.47Z"/><path id="path72" class="cls-3" d="M188.74,179.62l1,1.14,1.75-.5s.07.45.15,1.15l.41-.43-.05-1.45-1.44-.22-1.21-.21-.35.32-.25.21Z"/><path id="path74" class="cls-3" d="M189.74,180.76l1,1.17.89-.53c-.08-.7-.16-1.13-.16-1.16l-1.75.5Z"/><path id="polygon76" class="cls-3" d="M58.11,163.88l-.85-1Z"/><path id="polygon78" class="cls-4" d="M58.11,163.88l-.85-1Z"/><path id="path80" class="cls-3" d="M54.38,159.24c-1-1.31-2-2.62-2.93-3.92A10.12,10.12,0,0,0,54.38,159.24Z"/><path id="path82" class="cls-3" d="M58.11,163.88l-.85-1c-1-1.22-1.94-2.41-2.88-3.61s-2-2.62-2.93-3.92c-2.64-3.61-5-7.14-7.17-10.55-20.8-33.12-22-57.54-22-57.82l-4.41-4.39c.08,1.2,1.95,30,23.16,63.83a179.64,179.64,0,0,0,34,39.94,12.47,12.47,0,0,1,1-2.83l.11-.22.27-.48a178.08,178.08,0,0,1-18.27-18.94Z"/><path id="path84" class="cls-3" d="M97.62,188.36c4.93.24,17,3,19.5,3.87s4.24-2.67,5.73-4.18.19-4-2-8.91a83.29,83.29,0,0,1-3.91-11.81,7.91,7.91,0,0,0-4.24-1.42c-2,.16-3-.67-3.53-.44-1.53.66-.31,4.45,0,6.87s2.56,8.28,2.26,9.89-1.53,2.09-3,2.46-9.62-.93-9.62-.93-7.88-1.67-12.62-2.17-5.73,2.74-6.32,3.88a27.45,27.45,0,0,0-1.26,5.42c-.19,1-.5,1.31-2.21,4.44s-1.07,4.12-1.13,5,.23,1,1,1.41,1.39-.19,5.18-2,5.34-2.7,5.3-3.38a2.86,2.86,0,0,0-.52-1.37,12.31,12.31,0,0,1-1.69-2.29l0-.36c.64.18,1.31.36,2,.51a2.42,2.42,0,0,1,1.87,3.11c2.34-2.55,0-4.37-1.84-5.29.57-.11,1.2-.27,1.79-.44a2,2,0,0,1,2.49,1.45c.73-3.31-3.11-3-4.31-2.89l1-.75c.94-.61,5.23.16,10.15.39ZM120.85,66.75c-.83.59-.63-.41-.63-.41s.71-2.93,1.6-3.31L124,67.89s-1.53-2.28-3.16-1.14ZM117.49,77c0,.83-.29,2.61-1.37,3a2.91,2.91,0,0,1-3.62-.79c-2,1.16-4,2.39-4,2.39,1.61-1.93,5.66-5.65,7.51-6.3,1.32-.47,3.28,1.4,3.28,1.4l-1.76.27ZM96.88,91l-.78-1,1.53-.61A1.35,1.35,0,0,1,96.9,91Zm72.93,70.86c8.78-2.92,1.05-8.87,4.8-15.19,5-8.39,10.61-2.72,10.82-16.24,0-3.16-.61-5.81,3.12-10,5.39-6-1.11-19.17-1.11-19.17s2.2,11.63-4.06,15.27c-4.28,2.46-5.12,6.09-5.56,9.88a35.82,35.82,0,0,1-.53,4,29.84,29.84,0,0,0-.25-6.84c-.57-4.65-1.14-5.92,0-11.24,1-4.56,4.25-8.9,6.74-16.6s-7-15.66-7-15.66c5.73,7.59,2.33,16.93-2.79,20.75a13.53,13.53,0,0,0-5.26,9.7s-2-4.62,4-14c6.53-10.16-4-17.44-5.94-19.75s3.32-3.06,3.2-8.12-6.39-7.54-6.39-7.54c1.11,1.41,3.06,5.65,3.09,7.26.1,4.37-2.23,4-2.23,4-2.34-.1-2.72-2.91-2.72-2.91s-1.54,2.3,3.66,9.46-1,17.23-1,17.23c-.51-9.48-3.51-12.57-3.51-12.57s1.92,4.12-3.05,16.72c-3.76,9.54-.4,11.66,3,15.88,11.4,14.22,9.26,20.83,8,21.86s-2.47.84-3.77-.21c-3.76-2.68-1.15-10.3-2.26-14a8.18,8.18,0,0,0-5.64-5.51l-.23-.08a9.77,9.77,0,0,0-2.26-.42,15.73,15.73,0,0,1,2,1.93,5.69,5.69,0,0,1,1.12,2.27l.14.67a31.69,31.69,0,0,1-.28,7.6c-.81,7.7-1.25,8.89,4.5,14.13,7.87,7.2,2.08,14.87-1.2,15.7l-.06-1.22c-1.91-8.56-12.18-11.57-17-13.07-6.4-2-18.31-20.8-18.31-20.8-2.08-3.61-1.24-6-1.24-6a7.22,7.22,0,0,0,3.72,4c2.25,1.09,4.81-.81,8.21-.77s3.14,4.89,3.14,4.89l.7-3.12c1.49-7-5.77-4.89-9.29-5.87s.66-5.73.66-5.73c4.2,5.24,8.84,2,8.84,2a6.18,6.18,0,0,1-5.22-4.56c-1-4.2,2.89-2.25,2.89-2.25a5.75,5.75,0,0,1,4.26,4.33c2.24,6.88,8.95,3.87,8.95,3.87-5.67.09-5.47-6.26-5.47-6.26-1.14-6.89-2.21-6.9-4.43-8.54s-1.51-5.67,1.86-5.08A3.86,3.86,0,0,1,147,100a4.13,4.13,0,0,0,4.29,4c-2.29-1.38-1.21-6.94-1.21-6.94.36-5.21-2.66-5.74-4.06-6-7.62-1.71-4.39-7.89-4.39-7.89,4.54,6.36,10.79,1.11,10.79,1.11-4.28,1.42-5-.08-5.95-4.72-.83-3.91-4.37-5.82-6.93-6.71l.83-.59c7.44-6.06,10.28,1.29,10.28,1.29.1-10-8.83-8.21-13.17-6.66s-5.41-6.95-13.54-4.61l-.25.08c-.89-1.94-1.89-3.48-2.67-3s-1.64,2.7-2.48,5.23l-.91.45a14,14,0,0,0-2.14.81c-.43-1.23-1.29-3.48-1.89-3.09s-1.67,4.11-2,5.45a37.32,37.32,0,0,0-6.06,5.7c-1.12,2-1.92,4.26-3.81,6.2s-7.12,7-7.65,7.48c-.87.73-1.44.9-3.08,2.32-1.43,1.25-.1,3,.71,5.09s2.37,3.66,4.21,3.25c2.31-.5,1.74-1.19,3.61-2.31s3.84-.91,8.57-.91c3.73,0,10.06-3.15,12.16-5.26s2.89-8.38,2.89-8.38-.15,1.42-.4,3.49c-.28,2.24-.25,4.08-1.74,6.22-1.12,1.62-8.61,5.64-10.6,6.26s-7.4-.3-9,.16a10.2,10.2,0,0,0-3.48,2.57l-9.77,6.28c-8.32,7.49-7.53,12.8-7.53,12.8l1.6-.65c-2.66,4.51-8.81,3.73-12.31,3.68s-9.87-.47-9.87-.47c-4.65,2.5-4.16,3.84-3.49,5.39s.11,6.39.11,6.39-1.32,7.4-1.92,14.91,3.57,8,4.66,9.05.85,1.75,1.35,2.92,1.14.25,2.28.75a26,26,0,0,1,3.67,2.59s1-.47,1.57-2.67-1.06-7-1.06-7l-.81.52c-.81.5-1.2.47-2.55.2s-1.45-1.4-1.67-3.68l-.26-1.28,1.4-.91a1.84,1.84,0,0,1,2.61.47c-.28-2-1.78-2.06-3-1.73l.82-1.27a1.68,1.68,0,0,1,2.6-.3c-1.83-3.73-4.95.49-4.95.49l-1.19.36-.2-.27c-.89-1.18-.75-3-.74-5.85a26.88,26.88,0,0,1,2.24-9.4c.89-1.63,4.29-2.91,4.29-2.91s8.81-.92,14,1.13a79,79,0,0,0,8.65,2.89c19.66,3.65,20.2-9.23,20.2-9.23,2.8,18.36-26.4,11.86-26.4,11.86a24.11,24.11,0,0,0,5.15,8.69c15.24,20.5,24.17,19.45,24.17,19.45,4.8-.2,5.64,1.08,5.64,1.08l.59-1.28h0c1.39-12.29,11.18-10.71,11.18-10.71-15,6.48-6.67,21.71-6.67,21.71,2.84,9,5.44,13.48,6.93,17a3.77,3.77,0,0,1-1.57,4.81l-.78,1c-3.2,4.09-13.73,12.56-13.73,12.56-5,2.66-3.34,6-2.76,8.61s3.23,5.48,3.23,5.48l.13,1.87c0,3.37,4,6.84,4,6.84a51.24,51.24,0,0,0,4.41-7.78c1.4-3.46.22-3.17-.74-3.24a12.79,12.79,0,0,1-3.62-.69c-1.61-.53-1.64-1.28-.39-2.58a2,2,0,0,1,1.39-.25c.92.18,3.26,0,2.81-1.62a1.9,1.9,0,0,1-2.51.42l-.21-.09a2.63,2.63,0,0,1,1.85-1c1.17-.08,4-1,3-3.05a2.48,2.48,0,0,1-3,1.38,6.41,6.41,0,0,0-2.31-.28c.22-.74.51-1.66.86-2.64.79-2.31,8.86-7.71,14.08-10.18s3.93-5.94,3.93-5.94c.78-10.82,6.31-13.56,6.31-13.56,9.7-4.16,12.81-3.91,15.88-11.37a22.39,22.39,0,0,0,1.52-5.29s1.56-1.33,7,1.12c8.4,3.81,18.61.22,16.09-7-4.76-13.87,4.06-15.58,4.06-15.58-9.26-2.75-11,6.8-9,13.5,1.53,5.28-5,6.34-7.23,6.44-5.54.29-6.95-.27-6.95-.27a11.64,11.64,0,0,0,4.89-.72ZM55.76,111a21.8,21.8,0,0,1-2.92-3.21l-.13-.39,0,.08.13.14a2,2,0,0,1,1.6.28c.78.51,3,1.32,3.25-.39a1.91,1.91,0,0,1-2.47-.6c-1-1.21-1.53-1.53-2.31-1.56a7.81,7.81,0,0,1,2-2.76c1.32-1.13,3-2.84,3-2.84,4.77-5,9.8-5.48,9.8-5.48,3-.25,3.83,2.07,5.7,8.8a31.88,31.88,0,0,0,4.82,10.46,36.15,36.15,0,0,1,2.42-4.06c1.24-1.67,4-4.37,4-4.66s.06-.91-4.12-5-4.89-7.61-5.7-10.63-3.17-1.89-4.92-1.76-2.11-.3-4.28.29S60.08,93.28,59.41,94A41.92,41.92,0,0,1,51,99.71c-3.84,2-4.85,5.14-4.7,6.21s2.25,5.78,2.3,6.31v1A19.41,19.41,0,0,0,50,119.3c.84.3,3.43-2.79,3.43-2.79,3.34-3.72,2.95-5,2.38-5.47Z"/><path id="path86" class="cls-3" d="M124.08,23.05l16-11.71.24-.19-2.06-2.84-.25.17C130,14.36,123.47,19.1,118.13,23c1,0,2.05,0,3.09,0s1.91,0,2.86,0Z"/><path id="path88" class="cls-3" d="M77.69,61.66l.82,0,1.54,0,.24,1.53.14.78c4.41-5.19,7.18-8.72,9.32-11.46-1.64.17-3.28.36-4.89.54C83,55.3,80.77,58.1,77.71,61.67Z"/></g></g></g></g></g></svg>