<svg xmlns="http://www.w3.org/2000/svg" viewBox="0 0 300 300"><defs><style>.cls-1{fill:#fff;}.cls-2{fill:#ebd350;}</style></defs><title>Udinese</title><g id="Слой_2" data-name="Слой 2"><g id="Слой_1-2" data-name="Слой 1"><path d="M150,0c82.62,0,150,67.38,150,150S232.62,300,150,300,0,232.62,0,150,67.38,0,150,0Z"/><path d="M150,54a96,96,0,1,1-96,96,96.17,96.17,0,0,1,96-96Z"/><path class="cls-1" d="M214.59,220.9,150,140,85.41,220.9a96.89,96.89,0,0,1-13.52-15.23L150,107.84l78.11,97.84A96.82,96.82,0,0,1,214.59,220.9ZM193.37,107.84H106.63l.09,43c.07,35.66,3.59,50,43.28,73.09,39.69-23.06,43.44-37.43,43.41-73.09l0-43Z"/><path class="cls-2" d="M170.9,291.93c-1.84-16.5-15.16-21.06-17.27-24.77,1,8.15,3.86,13.74,7,17.52a23.19,23.19,0,0,0,10.25,7.25ZM196.44,287c-2.85-3.69-11.32-8.38-16.28-12.53-5.28-4.41-10.18-8-24.52-10.62,5.76,7,13.15,12.92,20.68,18.29,5.62,4,15.37,5.39,20.12,4.86Zm12.39-12a43.26,43.26,0,0,0-27-5.46c4.78,4.86,8.53,6.28,15.87,9,4.2.85,12.42,1.81,15.74.38C213.3,278.12,212,276.87,208.83,275.06Zm11.08-16.74c-6.88-4.12-11.42-3.85-17.57-3.08-11,1.37-19.64,7.45-30.67,9.65,11.69,4,25.15-.05,36.46-3.19,5.22-1.87,9.55-2.51,11.78-3.38Zm-1.92,5c-6.11,1.49-11.88,3-18.48,4a50.59,50.59,0,0,0,19.74,2.32,48.83,48.83,0,0,0,16.58-4.22c-4.18-3-9.88-3.12-17.84-2.08Zm-58.44-4.06c1.9,2,28.34,1.32,34.52-9.22C185.47,246.67,166.06,253.65,159.55,259.27ZM200.24,250c6.41.28,25.33-14.65,24.87-21.94-10.09.55-23.62,16.16-24.87,21.94Zm10.1-.34c18.45,2,29.72-14.9,41.54-22.28-12.68.15-17.4,3.63-21.84,6.44-8.44,6-13.9,13.75-19.7,15.84Zm27.59-5.61c9.61-8.59,18.2-14,29.7-13.23C261.89,240.15,243.86,245.49,237.93,244.09Zm14.33,7.74c-12.87,7-26.89,3.57-33.46,1.28a33.74,33.74,0,0,1,17.62-4.46C242.33,248.7,248.55,248.93,252.26,251.83Zm11.63-104.26c-3.93-3.31-5.63-6.61-7.23-12.74-.58-2.25-2.73-11.28-1.05-13.32,2.87-.72,6.68,7.83,7.32,10.28,1.49,5.71.7,11.5,1,15.78Zm7.92-44.79c1.58,13.08,2.38,37-1.56,41.65-.23.65-4.8-12.56-5.6-26.8-.44-8,.1-16.29,3.75-22.65,1.2,1.1,2.48,2.87,3.41,7.8Zm4.94,32c-1.78.36.41-25.92,9.73-26.17C289.84,114.74,278.71,134.32,276.75,134.75Zm-.52-19.41c3.36-4.38,5.12-17.35,4.23-24.41-.36-3-1.26-5.29-2.27-5.84C272.88,87.65,275.53,117.25,276.23,115.34ZM276.16,165c-.61-5,5.16-15.67,10-21.11,2.74-3.06,4.11-3.95,5.73-4.18C293.33,147.3,280.81,164.15,276.16,165Zm-14.81,21c2.84-2.35,7-10.85,10.73-19.91s5.85-17.81,8.38-24.43c-13.57,3.15-19.06,30-19.11,44.34Zm-4.83,3.54c1.08-7.31,7.15-26.75,1.2-35C254.42,164.49,250.19,177.48,256.52,189.57Zm33.78-22.95c-4.51,5.7-13.19,12.19-19.25,11.46.16-3.34,13.59-18,22.16-17C293,162.31,292.51,163.82,290.3,166.62Zm-31.63-53.54c-4.66-1.56-20.1-11.17-18.92-26.32C244.24,88.24,256.17,104.76,258.67,113.08Zm.82-11.43c-6.17-7.86-12.58-14.26-16.37-21.65-2.6-5.06-4.36-12-2.44-21.74,3.5,4.31,5,8.84,13.6,21.61C258.82,86.61,259.85,99.71,259.49,101.65Zm-1.77-23.88c-6.82-6.82-10.39-20-10.39-29.12C257.86,56.7,258.66,70.19,257.72,77.77ZM262,92.71c0-3-.05-14,.53-20.81.42-5,1.4-6.84,2.45-6.73C269.23,65.66,270.42,90.33,262,92.71ZM235.94,59.2c0-1.69,1.32-21.41-7.06-26-1.65.76-1.47,6.11-.25,10.6C230.82,51.9,232.89,55.79,235.94,59.2ZM225,46.41c.14-3.89-3.68-10.36-8.4-15.53-4.44-4.87-9.66-8.11-13.13-8-.28,2.89,3.28,9.35,7,14C214.66,41.44,220.1,45.68,225,46.41ZM234,68.58c-2.39-8.46-12.63-22-33.3-33.32C200.16,45.63,218.86,62.92,234,68.58Zm.54,8.48c-1.94-3.58-5.71-7.19-9.53-9.84-4.76-3.3-9.86-5.25-14.65-5.37,1,4.65,4.9,8.22,9.43,11.1,4.72,3,10.66,4.53,14.75,4.11Zm39.9,107.14c-2.21,6.11-8.34,15.18-15.61,23.27-6.41,7.14-13,13.06-16,13.82,1.22-9.07,18.42-34.29,31.66-37.09ZM233.9,224.71C236,223.3,251.62,201.23,248,195,239,198.3,233,217.56,233.9,224.71Zm29.3-16.9A61.11,61.11,0,0,1,277.91,191c1.92-1.28,6.25-4.57,8.48-4.11C284.67,196.75,268.9,207.13,263.2,207.81Zm-14.4,14.45c1.84-2,18.35-14.5,32.55-13.21a27,27,0,0,1-8.3,8.25C265.37,221.58,254.18,221.5,248.8,222.26ZM129.1,291.9c2-16.83,15.28-21,17.27-24.77-1,8.16-3.86,13.74-7,17.52a23.12,23.12,0,0,1-10.26,7.25ZM103.57,287c2.84-3.68,11.31-8.38,16.27-12.52,5.28-4.42,10.18-8,24.52-10.63-5.76,7-13.15,12.93-20.68,18.3-5.62,4-15.37,5.39-20.11,4.85Zm-12.4-12a43.27,43.27,0,0,1,27-5.46c-4.77,4.86-8.52,6.28-15.87,9-4.19.85-12.41,1.8-15.74.37.12-.84,1.44-2.1,4.59-3.91ZM80.09,258.3c6.89-4.13,11.42-3.85,17.58-3.08,11,1.36,19.64,7.45,30.67,9.65-11.7,4-25.15-.06-36.47-3.2-5.21-1.87-9.55-2.51-11.78-3.37Zm1.92,5c6.12,1.49,11.89,3,18.48,4a50.41,50.41,0,0,1-19.74,2.33,48.83,48.83,0,0,1-16.58-4.22C68.35,262.4,74.05,262.26,82,263.31Zm58.45-4.07c-1.9,2-28.34,1.33-34.52-9.21C114.53,246.64,133.94,253.63,140.46,259.24ZM99.76,250c-6.41.27-25.33-14.65-24.87-22C85,228.63,98.51,244.23,99.76,250Zm-10.1-.34c-18.44,2-29.72-14.91-41.54-22.29,12.69.16,17.4,3.64,21.85,6.44C78.4,239.82,83.87,247.58,89.66,249.68Zm-27.59-5.61c-9.61-8.6-18.2-14-29.7-13.23C38.11,240.13,56.14,245.47,62.07,244.07Zm-14.33,7.74c12.87,7,26.89,3.56,33.46,1.27a33.63,33.63,0,0,0-17.62-4.45C57.68,248.67,51.45,248.9,47.74,251.81ZM36.11,147.55c3.93-3.32,5.64-6.61,7.23-12.74.58-2.26,2.73-11.29,1-13.32-2.86-.72-6.68,7.82-7.32,10.27C35.58,137.48,36.37,143.26,36.11,147.55Zm-7.92-44.8c-1.57,13.09-2.37,37,1.56,41.65.23.66,4.8-12.56,5.6-26.79.45-8-.1-16.29-3.74-22.66-1.21,1.1-2.49,2.88-3.42,7.8Zm-4.94,32c1.78.35-.41-25.93-9.73-26.18C10.17,114.71,21.29,134.29,23.25,134.73Zm.52-19.41C20.41,110.93,18.66,98,19.54,90.9c.37-3,1.26-5.28,2.27-5.84C27.12,87.62,24.47,117.23,23.77,115.32ZM23.84,165c.61-5-5.16-15.66-10-21.1-2.75-3.07-4.12-3.95-5.74-4.18C6.67,147.28,19.2,164.13,23.84,165Zm14.81,21c-2.84-2.35-7-10.86-10.72-19.92s-5.85-17.81-8.39-24.43C33.4,145,38.6,171.64,38.65,186Zm4.83,3.53c-1.08-7.3-7.15-26.74-1.2-35C45.58,164.46,49.81,177.45,43.48,189.54ZM9.7,166.59c4.51,5.7,13.19,12.2,19.25,11.46-.16-3.33-13.58-18-22.16-17C7,162.29,7.49,163.8,9.7,166.59Zm31.63-53.53c4.66-1.57,20.11-11.18,18.92-26.32C55.77,88.21,43.84,104.74,41.33,113.06Zm-.81-11.44C46.68,93.77,53.09,87.36,56.88,80c2.6-5,4.36-12,2.44-21.74-3.5,4.31-5,8.85-13.6,21.61-4.54,6.74-5.56,19.84-5.2,21.78Zm1.76-23.87c6.82-6.82,10.39-20,10.39-29.12-10.53,8-11.33,21.53-10.39,29.12ZM38,92.68c0-3,.05-14-.53-20.8-.42-5-1.4-6.84-2.45-6.74-4.25.49-5.45,25.16,3,27.54ZM64.06,59.17c0-1.68-1.32-21.4,7.06-26,1.65.76,1.47,6.11.25,10.6-2.19,8.06-4.26,12-7.31,15.36ZM75,46.38C74.85,42.49,78.68,36,83.4,30.85c4.43-4.86,9.65-8.11,13.12-8,.28,2.89-3.28,9.35-7,14-4.2,4.57-9.63,8.82-14.55,9.54ZM66.05,68.55c2.39-8.45,12.63-22,33.3-33.31C99.84,45.61,81.14,62.9,66.05,68.55ZM65.51,77c1.94-3.59,5.71-7.19,9.53-9.84,4.76-3.3,9.86-5.26,14.66-5.38-1,4.66-4.9,8.22-9.44,11.1C75.54,75.93,69.6,77.46,65.51,77ZM25.61,184.18c2.21,6.1,8.35,15.17,15.61,23.27,6.41,7.14,13,13.06,16.05,13.82C56.06,212.2,38.85,187,25.61,184.18Zm40.5,40.51C64.05,223.28,48.39,201.21,52,195,61,198.27,67,217.54,66.11,224.69ZM36.8,207.79A61.13,61.13,0,0,0,22.09,191c-1.92-1.27-6.25-4.56-8.48-4.1C15.33,196.73,31.1,207.11,36.8,207.79Zm14.4,14.44c-1.84-2-18.34-14.5-32.55-13.21A26.81,26.81,0,0,0,27,217.27c7.67,4.28,18.87,4.21,24.24,5ZM113.34,15.56l6.46,27A18.46,18.46,0,0,0,121,46.38a2.35,2.35,0,0,0,1.34,1.08,4.49,4.49,0,0,0,2.58-.21l.68-.2.21.9-15.63,4.7-.22-.91.79-.23a6.19,6.19,0,0,0,2.6-1.31,2.65,2.65,0,0,0,.77-1.66,16.33,16.33,0,0,0-.66-4.06l-4.09-17.12a12.46,12.46,0,0,0-.88-2.8,2,2,0,0,0-2.3-.79,7.19,7.19,0,0,0-2.53,1.6l-.61-.76,9.61-8.83Zm26.22,10.72a17.74,17.74,0,0,1,5,4.29,10.63,10.63,0,0,1,1.83,5,9.84,9.84,0,0,1-2,7.32,10.38,10.38,0,0,1-7.22,3.86q-4.53.61-7.27-1.53a8.11,8.11,0,0,1-3.16-5.73,8.39,8.39,0,0,1,.9-5,13.34,13.34,0,0,1,4.33-4.4,19.12,19.12,0,0,1-5.2-4.4,9.62,9.62,0,0,1-1.54-4.4A8.45,8.45,0,0,1,127.17,15,9.92,9.92,0,0,1,134,11.44q4.35-.58,7,1.39a7.21,7.21,0,0,1,3,5.18,7.35,7.35,0,0,1-.79,4.41,11.79,11.79,0,0,1-3.57,3.86Zm-5.76,4.84a5.23,5.23,0,0,0-.84,1.41,11,11,0,0,0-.53,2.66,17.68,17.68,0,0,0,0,3.56,12.37,12.37,0,0,0,1,3.87,4.32,4.32,0,0,0,1.79,2.08,3.46,3.46,0,0,0,2.14.42A3.59,3.59,0,0,0,140,43.41a5.74,5.74,0,0,0,.71-3.82q-.56-4.85-6.91-8.47Zm3.91-5.89a9.67,9.67,0,0,0,.92-3,13.82,13.82,0,0,0,0-3.46A8.27,8.27,0,0,0,136.83,14a3,3,0,0,0-2.75-1,3.38,3.38,0,0,0-2.43,1.56,4.48,4.48,0,0,0-.72,3.16,7.29,7.29,0,0,0,1.6,3.63,16.78,16.78,0,0,0,5.18,3.87Zm11.36,20.26.07-.7a18.82,18.82,0,0,0,6.61-2.07,13.48,13.48,0,0,0,4.55-4.11,19.66,19.66,0,0,0,2.73-6,12.52,12.52,0,0,1-2.49.84,6.66,6.66,0,0,1-2.09.08A7.49,7.49,0,0,1,152.93,30a11.83,11.83,0,0,1-1.58-7.89,14.79,14.79,0,0,1,1.83-6,9.68,9.68,0,0,1,4-3.92,8.52,8.52,0,0,1,5-1A8.93,8.93,0,0,1,167,13.5a12,12,0,0,1,3.33,5.39,18.36,18.36,0,0,1,.73,7.54,23.61,23.61,0,0,1-3.29,10,18.14,18.14,0,0,1-7.62,7.08,20.78,20.78,0,0,1-11.12,2Zm14.49-15q.48-2.79.69-4.92a36.78,36.78,0,0,0-.14-8.62,6.89,6.89,0,0,0-1.3-3.4,2.06,2.06,0,0,0-1.41-.72,1.91,1.91,0,0,0-1.86.87q-1,1.38-1.41,5.55c-.44,4.63-.24,7.88.58,9.75a3,3,0,0,0,2.45,2,5.14,5.14,0,0,0,2.4-.53Zm35.43-11-.19.68a19.2,19.2,0,0,0-7.08.73,12.58,12.58,0,0,0-4.92,3A21.78,21.78,0,0,0,183,29.32a6.19,6.19,0,0,1,1.84-.4,8.84,8.84,0,0,1,3,.48,7.73,7.73,0,0,1,4.75,4.53,11.87,11.87,0,0,1,.19,8,14.47,14.47,0,0,1-2.83,5.54,9.11,9.11,0,0,1-4.54,3,8.39,8.39,0,0,1-5.08-.11,9.36,9.36,0,0,1-4.54-3.34A12,12,0,0,1,173.47,41a19.33,19.33,0,0,1,.63-7.36,22.22,22.22,0,0,1,5.2-9.45,18.12,18.12,0,0,1,8.82-5.27,18.94,18.94,0,0,1,10.87.55ZM182.14,31.18Q181,34.45,180.61,36a37.29,37.29,0,0,0-1.2,6.64,11.27,11.27,0,0,0,.36,4.9A2.41,2.41,0,0,0,181.22,49a2.11,2.11,0,0,0,2.13-.69q1.14-1,2.23-5c1.23-4.44,1.58-7.67,1.08-9.69a3.19,3.19,0,0,0-2-2.49,4.88,4.88,0,0,0-2.47,0Z"/><path class="cls-1" d="M232.57,144.71q0-2.53-3-3.86a18.63,18.63,0,0,0-7.11-1.07c-3.67,0-6.39.55-8.14,1.66a3.62,3.62,0,0,0-1.84,3.24,3.52,3.52,0,0,0,.79,2.34,6.69,6.69,0,0,0,3.25,1.87,21.09,21.09,0,0,0,5.82.66,22.51,22.51,0,0,0,6.38-.67,6.49,6.49,0,0,0,3-1.74,3.75,3.75,0,0,0,.87-2.43Zm1-.16a8.84,8.84,0,0,1-3,7.16,11.77,11.77,0,0,1-8,2.76,12.74,12.74,0,0,1-7.2-2.05,9.66,9.66,0,0,1-4.13-8.26c0-3.32,1.31-5.33,3.94-7.15a12.65,12.65,0,0,1,7.37-2.15,11.71,11.71,0,0,1,8,2.8A8.61,8.61,0,0,1,233.58,144.55Zm-22.66-7.46-.57.14L208,127.86l.57-.14.15.6a2.2,2.2,0,0,0,.64,1.17,1.33,1.33,0,0,0,.87.34,7.2,7.2,0,0,0,2-.33L226,126.07a8.15,8.15,0,0,0,2-.64,1.49,1.49,0,0,0,.56-.77,2.1,2.1,0,0,0,0-1.27l-.15-.59.57-.14,2.34,9.37-.57.14-.15-.6a2.2,2.2,0,0,0-.64-1.17A1.37,1.37,0,0,0,229,130a7.38,7.38,0,0,0-2,.34l-13.74,3.42a8.63,8.63,0,0,0-2,.65,1.57,1.57,0,0,0-.55.77,2.27,2.27,0,0,0,0,1.27l.15.6ZM228,118.4l-6.59,3.5-.25-.47a8.38,8.38,0,0,0,2.91-4.08,5.24,5.24,0,0,0-.37-4,5,5,0,0,0-2.51-2.25,6.58,6.58,0,0,0-3.67-.44,15.57,15.57,0,0,0-5.11,1.74,20.85,20.85,0,0,0-4.35,3,7.22,7.22,0,0,0-2.25,3.42,5,5,0,0,0,.56,3.62,6,6,0,0,0,2.28,2.4,11.53,11.53,0,0,0,4.14,1.26l-1.64.88a10.24,10.24,0,0,1-3.93-1.58,8.55,8.55,0,0,1-2.6-3.07,9.94,9.94,0,0,1-1.24-5.28,9.1,9.1,0,0,1,1.84-5,12.54,12.54,0,0,1,4.27-3.68,12.82,12.82,0,0,1,5.81-1.52,10.59,10.59,0,0,1,5.53,1.28,8.93,8.93,0,0,1,3.69,3.69,10.14,10.14,0,0,1,1.07,4.1,5.39,5.39,0,0,0,.24,1.67,1,1,0,0,0,.68.49,2.19,2.19,0,0,0,1.24-.18l.25.47Zm-42.88-28,1.19-7.82-6.07,5.11ZM185,91.68l-5.7-3.17L177.55,90a5.23,5.23,0,0,0-1.16,1.33,1.48,1.48,0,0,0-.1,1.47,4.56,4.56,0,0,0,1.4,1.21l-.29.51-5.37-3,.29-.52a2.62,2.62,0,0,0,1.89,0,13,13,0,0,0,2.95-2.08l14.1-11.81.23.13-2.73,18.66a13.06,13.06,0,0,0-.16,3.85,2,2,0,0,0,.87,1.14l-.29.51-7.81-4.66.28-.52.32.18a2.5,2.5,0,0,0,1.5.43.9.9,0,0,0,.61-.5,1.66,1.66,0,0,0,.21-.55c0-.09.11-.51.22-1.24l.44-2.82ZM206.86,109,201,113.82l-11.59-11.6.41-.42.44.44a2.29,2.29,0,0,0,1.15.68,1.44,1.44,0,0,0,.92-.15,8.07,8.07,0,0,0,1.52-1.31l10-10a8.17,8.17,0,0,0,1.35-1.56,1.52,1.52,0,0,0,.09-.94,2.16,2.16,0,0,0-.66-1.1l-.43-.43.42-.42,7,7-.42.41-.57-.56a2.19,2.19,0,0,0-1.15-.68,1.4,1.4,0,0,0-.93.14A7.32,7.32,0,0,0,207,94.59l-9.69,9.69a7.94,7.94,0,0,0-1.38,1.61,1.2,1.2,0,0,0,0,.93,5.67,5.67,0,0,0,1.06,1.26l1.09,1.09a4.62,4.62,0,0,0,2.16,1.31,4.89,4.89,0,0,0,2.54-.15,16.61,16.61,0,0,0,3.68-1.75l.39.38Zm-28.33-42-1.94,8.39-.57-.13a9.77,9.77,0,0,0-1.26-5.6,5.74,5.74,0,0,0-3.61-2.67,5.35,5.35,0,0,0-3.73.51,7.65,7.65,0,0,0-3.07,2.89A18.65,18.65,0,0,0,162,76.08a24.69,24.69,0,0,0-.69,6.07,8.41,8.41,0,0,0,1.19,4.53A5.4,5.4,0,0,0,166,88.91a6.54,6.54,0,0,0,3.69-.2,13.4,13.4,0,0,0,4.1-2.69l-.48,2.09a11.48,11.48,0,0,1-4.22,2.27,9.26,9.26,0,0,1-4.47,0,10.78,10.78,0,0,1-5.33-2.87,10.41,10.41,0,0,1-2.8-5.34,15,15,0,0,1,.08-6.51,15.36,15.36,0,0,1,3-6.22,12.12,12.12,0,0,1,5.15-3.89,9.77,9.77,0,0,1,5.8-.47,10.89,10.89,0,0,1,4.2,2.14,6.28,6.28,0,0,0,1.57,1,1.1,1.1,0,0,0,.92-.23,2.63,2.63,0,0,0,.76-1.23l.57.13Zm-35.3,1.29.46,8.74.36,0a2.77,2.77,0,0,0,2.48-1.41,8.87,8.87,0,0,0,.81-3.84l.51,0,.59,11.25-.51,0a9.82,9.82,0,0,0-.85-3,3.27,3.27,0,0,0-1.3-1.51,4,4,0,0,0-2-.3l.32,6.05a10.1,10.1,0,0,0,.24,2.17,1.32,1.32,0,0,0,.51.63,2.17,2.17,0,0,0,1.16.19l1.1-.06a6,6,0,0,0,4.07-1.61,8,8,0,0,0,2-4.37l.51,0L153.19,88l-15.93.84,0-.59.61,0a2.16,2.16,0,0,0,1.27-.4,1.37,1.37,0,0,0,.51-.78,7.88,7.88,0,0,0,0-2l-.74-14.13a12.69,12.69,0,0,0-.16-1.79,1.57,1.57,0,0,0-.55-.83,2.09,2.09,0,0,0-1.43-.37l-.62,0,0-.58,15.44-.81.33,6.36-.52,0a8.44,8.44,0,0,0-1.28-3.28,4.11,4.11,0,0,0-2.1-1.39,9.37,9.37,0,0,0-2.87-.13l-1.9.1Zm-11.86-.52,2.24,6.82-.54.16A7.81,7.81,0,0,0,130,71.08a4.55,4.55,0,0,0-3.68-.59A2.88,2.88,0,0,0,124.42,72a2.91,2.91,0,0,0,.45,3.27,5.32,5.32,0,0,0,1.64,1,28.1,28.1,0,0,0,3.37.91,13.35,13.35,0,0,1,5.21,2.07,6.91,6.91,0,0,1,1.8,8.25,6,6,0,0,1-3.81,3.2,6.43,6.43,0,0,1-1.64.29,11,11,0,0,1-2.09-.18,2.54,2.54,0,0,0-1.12,0,1.23,1.23,0,0,0-.62.52,2.21,2.21,0,0,0-.33,1.11l-.48.15-2.38-7.77.48-.15A9.85,9.85,0,0,0,128.64,89a5,5,0,0,0,4.05.65,3.2,3.2,0,0,0,2.24-4.06,3.32,3.32,0,0,0-.76-1.31,4.67,4.67,0,0,0-1.41-1,15.21,15.21,0,0,0-2.88-.86,21.58,21.58,0,0,1-4.19-1.3,7.34,7.34,0,0,1-2.28-1.67A6.27,6.27,0,0,1,122,77a6.38,6.38,0,0,1,.26-4.66,5.26,5.26,0,0,1,3.38-2.93,6.17,6.17,0,0,1,1.74-.26,7.52,7.52,0,0,1,1.7.22,3.3,3.3,0,0,0,1.38.11.66.66,0,0,0,.46-.4,3.14,3.14,0,0,0,0-1.28l.4-.12ZM107.32,79.79,112,87.22l.3-.2a2.74,2.74,0,0,0,1.48-2.44,8.8,8.8,0,0,0-1.15-3.75l.44-.27,6,9.55-.44.28a9.65,9.65,0,0,0-2.18-2.2,3.36,3.36,0,0,0-1.87-.69,4,4,0,0,0-1.92.73l3.21,5.13a10.46,10.46,0,0,0,1.26,1.78,1.28,1.28,0,0,0,.75.3,2.11,2.11,0,0,0,1.11-.4l.93-.58a6,6,0,0,0,2.78-3.38,8.08,8.08,0,0,0-.35-4.8l.42-.26,2.92,6.24-13.53,8.46-.31-.5.52-.33a2.23,2.23,0,0,0,.92-1,1.43,1.43,0,0,0,.06-.93,7.48,7.48,0,0,0-.93-1.77l-7.51-12a14.66,14.66,0,0,0-1-1.48,1.54,1.54,0,0,0-.88-.46,2.09,2.09,0,0,0-1.44.38L101,83l-.31-.5,13.1-8.19,3.38,5.4-.44.27A8.55,8.55,0,0,0,114,77.7a4.06,4.06,0,0,0-2.5-.19,9.17,9.17,0,0,0-2.58,1.27l-1.62,1ZM88.71,93.9l16,2.16-6.64-6.43a4.55,4.55,0,0,0-2.26-1.4,2.43,2.43,0,0,0-2.13,1l-.44-.4,4.09-4.53.43.4a4,4,0,0,0-.71,1.47,1.8,1.8,0,0,0,.25,1.07,7.84,7.84,0,0,0,1.45,1.6l13.07,12.23-.31.34L89.86,98.74,100,107.9a3.26,3.26,0,0,0,2.35,1.13,2.47,2.47,0,0,0,1.6-.8l.29-.33.44.4-4.39,4.87-.44-.4a2.7,2.7,0,0,0,.89-2.06,3.88,3.88,0,0,0-1.4-2.07L88.08,98.48l-.69-.09a4,4,0,0,0-1.53,0,2.81,2.81,0,0,0-1.09.76l-.44-.39,4.38-4.87Zm5.61,27.88.5.31,5-8.28-.5-.31L99,114a2.38,2.38,0,0,1-1,.94,1.49,1.49,0,0,1-.93.07,7.9,7.9,0,0,1-1.79-.9l-12.13-7.29a7.79,7.79,0,0,1-1.69-1.19,1.46,1.46,0,0,1-.31-.89,2.19,2.19,0,0,1,.37-1.21l.32-.53-.51-.3-5,8.27.5.31.32-.53a2.31,2.31,0,0,1,1-.94,1.51,1.51,0,0,1,.94-.08,7.27,7.27,0,0,1,1.79.89L93,118a7.21,7.21,0,0,1,1.68,1.2,1.44,1.44,0,0,1,.3.89,2.16,2.16,0,0,1-.37,1.22l-.31.52Zm-22.17,3.4,16,5.19a7,7,0,0,0,1.59.4.86.86,0,0,0,.55-.21,2.05,2.05,0,0,0,.56-.93,3.92,3.92,0,0,0-.65-3.87q-1.81-2.31-6.71-3.9a16.28,16.28,0,0,0-6.63-1,5.18,5.18,0,0,0-3.21,1.35,7.44,7.44,0,0,0-1.46,3Zm17.12,13-.56-.18.19-.59a2.21,2.21,0,0,0,.11-1.26,1.72,1.72,0,0,0-.57-.85,8.24,8.24,0,0,0-1.86-.74l-13.46-4.37a8.38,8.38,0,0,0-2-.5,1.6,1.6,0,0,0-.88.36,2.11,2.11,0,0,0-.67,1.08l-.19.58-.56-.18,2.56-7.87A11.54,11.54,0,0,1,74,118.89a8.46,8.46,0,0,1,4.85-2.35,13.18,13.18,0,0,1,6,.61A13.64,13.64,0,0,1,88.63,119a10.14,10.14,0,0,1,2.51,2.52,8.28,8.28,0,0,1,1.19,2.8,11.26,11.26,0,0,1,.13,3.39,13.53,13.53,0,0,1-.63,2.54l-2.56,7.87ZM63.51,156.31V145.05h.69v.56a3.57,3.57,0,0,0,.3,1.75,1.66,1.66,0,0,0,.85.67,10.69,10.69,0,0,0,2.7.2H80.41a14.55,14.55,0,0,0,4.48-.44,4.16,4.16,0,0,0,1.83-1.46,4.3,4.3,0,0,0,.73-2.55,4.94,4.94,0,0,0-.93-3A5.47,5.47,0,0,0,84,138.89a17.78,17.78,0,0,0-5.64-.62H68.05a6.63,6.63,0,0,0-2.42.31,2.06,2.06,0,0,0-1,.76,4,4,0,0,0-.42,2h-.69v-7.55h.69v.45a2.63,2.63,0,0,0,.42,1.53,2.47,2.47,0,0,0,1.29.89,7.74,7.74,0,0,0,2.14.21h9.58a28.59,28.59,0,0,1,6.43.51,7.08,7.08,0,0,1,3.62,2.46,8,8,0,0,1,1.66,5.36,9,9,0,0,1-.87,4.38,6.93,6.93,0,0,1-3,3,12.06,12.06,0,0,1-5,.86H68.05a10,10,0,0,0-2.71.21,1.73,1.73,0,0,0-.85.73,3.78,3.78,0,0,0-.29,1.89h-.69Z"/></g></g></svg>