<svg xmlns="http://www.w3.org/2000/svg" xmlns:xlink="http://www.w3.org/1999/xlink" viewBox="0 0 300 300"><defs><style>.cls-1,.cls-7{fill:none;}.cls-2{clip-path:url(#clip-path);}.cls-3{fill:#fff;}.cls-4{fill:#0038a8;}.cls-5,.cls-8{fill:#fcd116;}.cls-5,.cls-6,.cls-7,.cls-8{stroke:#7b3f00;stroke-miterlimit:20;}.cls-5,.cls-6{stroke-linecap:square;}.cls-5,.cls-7,.cls-8{stroke-width:0.6px;}.cls-6,.cls-9{fill:#7b3f00;}</style><clipPath id="clip-path" transform="translate(-0.84 -0.56)"><circle class="cls-1" cx="150" cy="150" r="150"/></clipPath></defs><title>Uruguay</title><g id="Слой_2" data-name="Слой 2"><g id="Слой_1-2" data-name="Слой 1"><g class="cls-2"><rect class="cls-3" width="300" height="300"/><rect class="cls-4" x="166.67" y="33.33" width="133.33" height="33.33"/><rect class="cls-4" x="166.67" y="100" width="133.33" height="33.33"/><rect class="cls-4" y="166.67" width="300" height="33.33"/><rect class="cls-4" y="233.33" width="300" height="33.33"/><g id="t"><g id="s"><path class="cls-5" d="M80.4,100.19l5.52,8.24c-22.67,16.41-8.83,26.11-24.9,31.36,10-9.75-1.57-10.57,6.85-30.9" transform="translate(-0.84 -0.56)"/><path class="cls-6" d="M80.4,100.19l-3.63,2.52.16.1C70.73,113,69.67,120.9,68.77,127a28.73,28.73,0,0,1-1.9,7.88,10.38,10.38,0,0,1-3,3.8c11.48-5.47.89-14.93,22-30.23Z" transform="translate(-0.84 -0.56)"/><path class="cls-7" d="M76.46,102.53C64,123.14,72.15,134.48,61,139.79" transform="translate(-0.84 -0.56)"/><path class="cls-8" d="M84.17,83.89h-11l11,60.5,11-60.5h-11v60.5" transform="translate(-0.84 -0.56)"/><path class="cls-9" d="M84.17,83.89h0v60.5l11-60.5" transform="translate(-0.84 -0.56)"/></g><g id="s-2" data-name="s"><path class="cls-5" d="M70,92.75l-1.92,9.73c-27.63-4.43-24.71,12.21-39.78,4.57,14,.17,6.36-8.59,26.69-17" transform="translate(-0.84 -0.56)"/><path class="cls-6" d="M70,92.75,65.63,92l.05.18C54.06,95,47.76,99.81,42.82,103.47a29.17,29.17,0,0,1-6.92,4.23,10.33,10.33,0,0,1-4.8.57c12,4.26,11.2-9.92,37-5.79Z" transform="translate(-0.84 -0.56)"/><path class="cls-7" d="M65.54,91.61c-23.42,5.73-25.63,19.55-37.26,15.44" transform="translate(-0.84 -0.56)"/><path class="cls-8" d="M84.17,83.89,76.4,76.12l-35,50.55L92,91.67l-7.78-7.78L41.39,126.67" transform="translate(-0.84 -0.56)"/><path class="cls-9" d="M84.17,83.89,92,91.67l-7.78-7.78L41.39,126.67,92,91.67" transform="translate(-0.84 -0.56)"/></g></g><g id="u"><g id="t-2" data-name="t"><g id="s-3" data-name="s"><path class="cls-5" d="M67.88,80.12l-8.24,5.52C43.23,63,33.53,76.81,28.28,60.74c9.75,10,10.57-1.57,30.9,6.85" transform="translate(-0.84 -0.56)"/><path class="cls-6" d="M67.88,80.12l-2.53-3.63-.09.16C55,70.45,47.17,69.39,41.09,68.49a28.73,28.73,0,0,1-7.88-1.9,10.38,10.38,0,0,1-3.8-3c5.47,11.48,14.93.89,30.23,22Z" transform="translate(-0.84 -0.56)"/><path class="cls-7" d="M65.54,76.18C44.93,63.67,33.59,71.87,28.28,60.74" transform="translate(-0.84 -0.56)"/><path class="cls-8" d="M84.17,83.89v-11l-60.5,11,60.5,11v-11H23.67" transform="translate(-0.84 -0.56)"/><path class="cls-9" d="M84.17,83.89v0H23.67l60.5,11" transform="translate(-0.84 -0.56)"/></g><g id="s-4" data-name="s"><path class="cls-5" d="M75.32,69.7l-9.73-1.92C70,40.15,53.38,43.07,61,28c-.17,14,8.59,6.36,17,26.69" transform="translate(-0.84 -0.56)"/><path class="cls-6" d="M75.32,69.7l.78-4.35-.18.05C73.08,53.78,68.26,47.47,64.6,42.53a29.12,29.12,0,0,1-4.23-6.91,10.33,10.33,0,0,1-.57-4.8c-4.26,12,9.92,11.2,5.79,37Z" transform="translate(-0.84 -0.56)"/><path class="cls-7" d="M76.46,65.26C70.72,41.84,56.91,39.63,61,28" transform="translate(-0.84 -0.56)"/><path class="cls-8" d="M84.17,83.89,92,76.12l-50.56-35,35,50.56,7.77-7.78L41.39,41.11" transform="translate(-0.84 -0.56)"/><path class="cls-9" d="M84.17,83.89,76.4,91.67l7.77-7.78L41.39,41.11l35,50.56" transform="translate(-0.84 -0.56)"/></g></g></g><g id="t-3" data-name="t"><g id="s-5" data-name="s"><path class="cls-5" d="M88,67.6l-5.52-8.24C105.1,43,91.26,33.25,107.33,28c-10,9.75,1.57,10.57-6.85,30.9" transform="translate(-0.84 -0.56)"/><path class="cls-6" d="M88,67.6l3.63-2.53L91.42,65c6.2-10.23,7.26-18.09,8.16-24.17a28.73,28.73,0,0,1,1.9-7.88,10.38,10.38,0,0,1,3-3.8c-11.48,5.47-.89,14.93-22,30.23Z" transform="translate(-0.84 -0.56)"/><path class="cls-7" d="M91.89,65.26C104.4,44.65,96.2,33.31,107.33,28" transform="translate(-0.84 -0.56)"/><path class="cls-8" d="M84.17,83.89h11l-11-60.5-11,60.5h11V23.39" transform="translate(-0.84 -0.56)"/><path class="cls-9" d="M84.17,83.89h0V23.39l-11,60.5" transform="translate(-0.84 -0.56)"/></g><g id="s-6" data-name="s"><path class="cls-5" d="M98.37,75l1.92-9.73c27.63,4.43,24.71-12.21,39.78-4.57-14-.17-6.36,8.59-26.69,17" transform="translate(-0.84 -0.56)"/><path class="cls-6" d="M98.37,75l4.35.78,0-.18c11.62-2.84,17.92-7.66,22.86-11.32a29.17,29.17,0,0,1,6.92-4.23,10.46,10.46,0,0,1,4.8-.58c-12-4.25-11.2,9.93-37,5.8Z" transform="translate(-0.84 -0.56)"/><path class="cls-7" d="M102.81,76.18c23.42-5.74,25.63-19.55,37.26-15.44" transform="translate(-0.84 -0.56)"/><path class="cls-8" d="M84.17,83.89,92,91.67l35-50.56-50.55,35,7.77,7.77L127,41.11" transform="translate(-0.84 -0.56)"/><path class="cls-9" d="M84.17,83.89,76.4,76.12l7.78,7.77L127,41.11l-50.56,35" transform="translate(-0.84 -0.56)"/></g></g><g id="u-2" data-name="u"><g id="t-4" data-name="t"><g id="s-7" data-name="s"><path class="cls-5" d="M100.47,87.67l8.24-5.52c16.41,22.67,26.11,8.83,31.36,24.9-9.75-10-10.57,1.57-30.9-6.85" transform="translate(-0.84 -0.56)"/><path class="cls-6" d="M100.47,87.67,103,91.3l.1-.16c10.23,6.2,18.09,7.26,24.17,8.16a28.73,28.73,0,0,1,7.88,1.9,10.38,10.38,0,0,1,3.8,3c-5.47-11.49-14.93-.9-30.23-22Z" transform="translate(-0.84 -0.56)"/><path class="cls-7" d="M102.81,91.61c20.61,12.51,31.95,4.31,37.26,15.44" transform="translate(-0.84 -0.56)"/><path class="cls-8" d="M84.17,83.89v11l60.5-11-60.5-11v11h60.5" transform="translate(-0.84 -0.56)"/><path class="cls-9" d="M84.17,83.89v0h60.5l-60.5-11" transform="translate(-0.84 -0.56)"/></g><g id="s-8" data-name="s"><path class="cls-5" d="M93,98.09l9.73,1.92c-4.43,27.63,12.21,24.71,4.57,39.78.17-14-8.59-6.37-17-26.69" transform="translate(-0.84 -0.56)"/><path class="cls-6" d="M93,98.09l-.78,4.35.18,0c2.84,11.62,7.66,17.92,11.32,22.86a29.17,29.17,0,0,1,4.23,6.92,10.33,10.33,0,0,1,.57,4.8c4.26-12-9.92-11.2-5.79-37Z" transform="translate(-0.84 -0.56)"/><path class="cls-7" d="M91.89,102.53c5.74,23.42,19.55,25.63,15.44,37.26" transform="translate(-0.84 -0.56)"/><path class="cls-8" d="M84.17,83.89,76.4,91.67l50.55,35L92,76.12l-7.78,7.77L127,126.67" transform="translate(-0.84 -0.56)"/><path class="cls-9" d="M84.17,83.89,92,76.12l-7.78,7.77L127,126.67,92,76.12" transform="translate(-0.84 -0.56)"/></g></g></g><circle class="cls-8" cx="83.33" cy="83.33" r="20.17"/><g id="right"><path class="cls-9" d="M99,75.83c-1.28,1.46-2-1.1-6.6-1.1s-5.31,2.75-6,2.2,3.85-3.85,5.32-4,5.68,1.29,7.33,2.94m-5.31,1.65c1.28,1.1.18,3.48-1.1,3.48s-3.67-2.2-2.57-3.67" transform="translate(-0.84 -0.56)"/><path class="cls-9" d="M87.66,79.13c.18-2.2,2-2.57,5-2.57s4.21,2.2,5.31,2.75c-1.28,0-2.38-1.83-5.31-1.83s-2.94,0-5,1.83m.55.37c.73-1.1,1.65,1.1,3.66,1.1a6.66,6.66,0,0,0,4.4-1.47c1.29-.92-1.83,2.2-3.85,2.2s-4.76-1.1-4.21-1.83" transform="translate(-0.84 -0.56)"/><path class="cls-9" d="M94.44,80.78c2.38-1.29.92-3.12,0-3.49.37.37,1.83,2.2,0,3.49m-10.27,11c1.1,0,1.47-.37,2.94-.37s5,2,7,1.28c-4.21,1.65-2.56.55-9.9.55h-.91m11.55,1.1a22.28,22.28,0,0,0-2-2.93c1.47,1.1,1.83,1.65,2,2.93M84.17,96.18c4.59,0,3.85-.92,9.9-3.49-4.4.55-5.31,2-9.9,2h-.91m.91-5.32c1.29,0,1.65-.91,3.12-.91a8.33,8.33,0,0,1,4.4,1.28,2.61,2.61,0,0,0-2-1.65c-1.46-.18-.91-2.57-2.56-2.93,0,.73.55.55.73,1.65,0,.91-1.65.91-2,0,.37,1.46-.73,1.46-1.65,1.46" transform="translate(-0.84 -0.56)"/></g><g id="right-2" data-name="right"><path class="cls-9" d="M69.32,75.83c1.29,1.46,2-1.1,6.6-1.1s5.32,2.75,6,2.2-3.85-3.85-5.31-4S71,74.18,69.32,75.83m5.32,1.65c-1.28,1.1-.18,3.48,1.1,3.48s3.67-2.2,2.57-3.67" transform="translate(-0.84 -0.56)"/><path class="cls-9" d="M80.69,79.13c-.18-2.2-2-2.57-5-2.57s-4.22,2.2-5.32,2.75c1.29,0,2.39-1.83,5.32-1.83s2.93,0,5,1.83m-.55.37c-.73-1.1-1.65,1.1-3.67,1.1a6.7,6.7,0,0,1-4.4-1.47c-1.28-.92,1.84,2.2,3.85,2.2s4.77-1.1,4.22-1.83" transform="translate(-0.84 -0.56)"/><path class="cls-9" d="M73.91,80.78c-2.39-1.29-.92-3.12,0-3.49-.37.37-1.84,2.2,0,3.49m10.26,11c-1.1,0-1.46-.37-2.93-.37s-4.95,2-7,1.28c4.22,1.65,2.57.55,9.9.55h.92m-11.55,1.1a21.3,21.3,0,0,1,2-2.93c-1.47,1.1-1.84,1.65-2,2.93m10.63,1.84c-4.58,0-3.85-.92-9.9-3.49,4.4.55,5.32,2,9.9,2h.92m-.92-5.32c-1.28,0-1.65-.91-3.11-.91a8.3,8.3,0,0,0-4.4,1.28,2.59,2.59,0,0,1,2-1.65c1.47-.18.92-2.57,2.57-2.93,0,.73-.55.55-.73,1.65,0,.91,1.65.91,2,0-.36,1.46.74,1.46,1.65,1.46" transform="translate(-0.84 -0.56)"/></g><path class="cls-9" d="M84.17,97.83c-.91,0-3.3.55,0,.55s.92-.55,0-.55" transform="translate(-0.84 -0.56)"/></g></g></g></svg>