<svg xmlns="http://www.w3.org/2000/svg" xmlns:xlink="http://www.w3.org/1999/xlink" viewBox="0 0 300.83 300.63"><defs><style>.cls-1{fill:none;}.cls-2{clip-path:url(#clip-path);}.cls-3{fill:#b22234;}.cls-4{fill:#3c3b6e;}.cls-5{fill:#fff;}</style><clipPath id="clip-path"><circle class="cls-1" cx="151.34" cy="150" r="150"/></clipPath></defs><title>USA</title><g id="Слой_2" data-name="Слой 2"><g id="Layer_1" data-name="Layer 1"><g class="cls-2"><rect class="cls-3" x="1.64" width="299.2" height="300.63"/><rect class="cls-4" x="1.64" width="159.48" height="161.88"/><g id="s18"><g id="s9"><g id="s4"><path id="s" class="cls-5" d="M8.8,23.13l5.43,16.73L0,29.52H17.59L3.36,39.86Z"/><path id="s-2" data-name="s" class="cls-5" d="M8.8,55.5l5.43,16.73L0,61.89H17.59L3.36,72.23Z"/><path id="s-3" data-name="s" class="cls-5" d="M8.8,87.88l5.43,16.73L0,94.27H17.59L3.36,104.61Z"/><path id="s-4" data-name="s" class="cls-5" d="M8.8,120.25,14.23,137,0,126.64H17.59L3.36,137Z"/></g></g></g><g id="s5"><g id="s4-2" data-name="s4"><path id="s-5" data-name="s" class="cls-5" d="M27.84,6.94l5.43,16.73L19,13.33H36.63L22.4,23.67Z"/><path id="s-6" data-name="s" class="cls-5" d="M27.84,39.31l5.43,16.74L19,45.7H36.63L22.4,56.05Z"/><path id="s-7" data-name="s" class="cls-5" d="M27.84,71.69l5.43,16.73L19,78.08H36.63L22.4,88.42Z"/><path id="s-8" data-name="s" class="cls-5" d="M27.84,104.06l5.43,16.74L19,110.46H36.63L22.4,120.8Z"/></g><path id="s-9" data-name="s" class="cls-5" d="M27.84,136.44l5.43,16.73L19,142.83H36.63L22.4,153.17Z"/></g><g id="s9-2" data-name="s9"><g id="s4-3" data-name="s4"><path id="s-10" data-name="s" class="cls-5" d="M46.88,23.13l5.43,16.73L38.08,29.52H55.67L41.44,39.86Z"/><path id="s-11" data-name="s" class="cls-5" d="M46.88,55.5l5.43,16.73L38.08,61.89H55.67L41.44,72.23Z"/><path id="s-12" data-name="s" class="cls-5" d="M46.88,87.88l5.43,16.73L38.08,94.27H55.67L41.44,104.61Z"/><path id="s-13" data-name="s" class="cls-5" d="M46.88,120.25,52.31,137,38.08,126.64H55.67L41.44,137Z"/></g></g><g id="s18-2" data-name="s18"><g id="s5-2" data-name="s5"><g id="s4-4" data-name="s4"><path id="s-14" data-name="s" class="cls-5" d="M65.92,6.94l5.43,16.73L57.12,13.33H74.71L60.48,23.67Z"/><path id="s-15" data-name="s" class="cls-5" d="M65.92,39.31l5.43,16.74L57.12,45.7H74.71L60.48,56.05Z"/><path id="s-16" data-name="s" class="cls-5" d="M65.92,71.69l5.43,16.73L57.12,78.08H74.71L60.48,88.42Z"/><path id="s-17" data-name="s" class="cls-5" d="M65.92,104.06l5.43,16.74L57.12,110.46H74.71L60.48,120.8Z"/></g><path id="s-18" data-name="s" class="cls-5" d="M65.92,136.44l5.43,16.73L57.12,142.83H74.71L60.48,153.17Z"/></g><g id="s9-3" data-name="s9"><g id="s4-5" data-name="s4"><path id="s-19" data-name="s" class="cls-5" d="M85,23.13l5.43,16.73L76.16,29.52H93.75L79.52,39.86Z"/><path id="s-20" data-name="s" class="cls-5" d="M85,55.5l5.43,16.73L76.16,61.89H93.75L79.52,72.23Z"/><path id="s-21" data-name="s" class="cls-5" d="M85,87.88l5.43,16.73L76.16,94.27H93.75L79.52,104.61Z"/><path id="s-22" data-name="s" class="cls-5" d="M85,120.25,90.39,137,76.16,126.64H93.75L79.52,137Z"/></g></g></g><g id="s5-3" data-name="s5"><g id="s4-6" data-name="s4"><path id="s-23" data-name="s" class="cls-5" d="M104,6.94l5.43,16.73L95.2,13.33h17.59L98.56,23.67Z"/><path id="s-24" data-name="s" class="cls-5" d="M104,39.31l5.43,16.74L95.2,45.7h17.59L98.56,56.05Z"/><path id="s-25" data-name="s" class="cls-5" d="M104,71.69l5.43,16.73L95.2,78.08h17.59L98.56,88.42Z"/><path id="s-26" data-name="s" class="cls-5" d="M104,104.06l5.43,16.74L95.2,110.46h17.59L98.56,120.8Z"/></g><path id="s-27" data-name="s" class="cls-5" d="M104,136.44l5.43,16.73L95.2,142.83h17.59L98.56,153.17Z"/></g><g id="s9-4" data-name="s9"><g id="s4-7" data-name="s4"><path id="s-28" data-name="s" class="cls-5" d="M123,23.13l5.43,16.73L114.24,29.52h17.59L117.6,39.86Z"/><path id="s-29" data-name="s" class="cls-5" d="M123,55.5l5.43,16.73L114.24,61.89h17.59L117.6,72.23Z"/><path id="s-30" data-name="s" class="cls-5" d="M123,87.88l5.43,16.73L114.24,94.27h17.59L117.6,104.61Z"/><path id="s-31" data-name="s" class="cls-5" d="M123,120.25,128.47,137l-14.23-10.35h17.59L117.6,137Z"/></g></g><g id="s5-4" data-name="s5"><g id="s4-8" data-name="s4"><path id="s-32" data-name="s" class="cls-5" d="M142.08,6.94l5.43,16.73L133.28,13.33h17.59L136.64,23.67Z"/><path id="s-33" data-name="s" class="cls-5" d="M142.08,39.31l5.43,16.74L133.28,45.7h17.59L136.64,56.05Z"/><path id="s-34" data-name="s" class="cls-5" d="M142.08,71.69l5.43,16.73L133.28,78.08h17.59L136.64,88.42Z"/><path id="s-35" data-name="s" class="cls-5" d="M142.08,104.06l5.43,16.74-14.23-10.34h17.59L136.64,120.8Z"/></g><path id="s-36" data-name="s" class="cls-5" d="M142.08,136.44l5.43,16.73-14.23-10.34h17.59l-14.23,10.34Z"/></g><rect class="cls-5" x="161.12" width="139.72" height="19.51"/><rect class="cls-5" x="161.12" y="40.16" width="139.72" height="19.51"/><rect class="cls-5" x="161.12" y="80.32" width="139.72" height="19.51"/><rect class="cls-5" x="161.12" y="120.48" width="139.72" height="19.51"/><rect class="cls-5" x="1.64" y="160.64" width="299.2" height="19.51"/><rect class="cls-5" x="1.64" y="200.8" width="299.2" height="19.51"/><rect class="cls-5" x="1.64" y="240.96" width="299.2" height="19.51"/><rect class="cls-5" x="1.64" y="281.12" width="299.2" height="19.51"/></g></g></g></svg>