<svg xmlns="http://www.w3.org/2000/svg" viewBox="0 0 227.02 297.71"><defs><style>.cls-1{fill:#fff;}.cls-2{fill:#ffdf1c;}.cls-3{fill:#ee3524;}.cls-4{fill:#b23428;}.cls-5{fill:#d18816;}.cls-6{fill:#0097d7;}</style></defs><title>Valencia </title><g id="Слой_2" data-name="Слой 2"><g id="Layer_1" data-name="Layer 1"><path class="cls-1" d="M210.83,64.24c-16.13-27.8-34.34-42.75-46.77-50.39a99.59,99.59,0,0,0-10.39-5.61L153,7.92a9.59,9.59,0,0,0-4.29-1.1,6.91,6.91,0,0,0-5.55,2.62c-3.88,4.41-7.62,6.73-10.83,6.73A7.22,7.22,0,0,1,128,14.66a41.29,41.29,0,0,0,1.75-6.15,7,7,0,0,0-1.38-6C126.24,0,123,0,121.55,0a8.93,8.93,0,0,0-5.62,2.64l-1.74-.3a3.94,3.94,0,0,0-1.37,0l-1.74.3A8.9,8.9,0,0,0,105.47,0c-1.43,0-4.8,0-6.92,2.59a6.92,6.92,0,0,0-1.27,6A45.51,45.51,0,0,0,99,14.64a7.07,7.07,0,0,1-4.3,1.53c-3.2,0-6.93-2.33-10.81-6.76a7.11,7.11,0,0,0-5.58-2.59A9.37,9.37,0,0,0,74,7.92l-.73.34a82.88,82.88,0,0,0-9.54,5.14C51.05,21.09,32.5,36.15,16.19,64.23A118.93,118.93,0,0,0,0,123.28v3.1a120.67,120.67,0,0,0,1.36,16.78c5.93,35.9,21.19,70.77,45.35,103.59.37.51,39.63,51,66.8,51,29.39,0,65.28-48.87,66.78-50.94,24.08-32.72,39.31-67.58,45.25-103.52A107.57,107.57,0,0,0,227,126.32v-3.09A121.55,121.55,0,0,0,210.83,64.24Z"/><path class="cls-2" d="M114.11,291.66c20.65.81,60-42.65,81-82.58,16.69-31.75,22.25-53.19,23.07-89.06l-209.7-.41c1.56,40.73,9,65.28,30.36,100s45.75,69.22,75.3,72.05"/><path d="M113.51,293.68c-22.61,0-58.11-41.8-63.54-49.29C15.76,197.9,7.83,157.61,5.33,142.51A119.83,119.83,0,0,1,4,126.32v-3a114.7,114.7,0,0,1,15.64-57C36.07,38,54.53,23.69,65.82,16.84a83.73,83.73,0,0,1,10-5.32c3.37-1.74,4.89.43,4.89.43,14,16.08,22.91,3.69,22.91,3.69a45.76,45.76,0,0,1-2.38-7.81C100.48,4,104,4,105.47,4S109.71,7,109.71,7l3.8-.65,3.8.65S119.92,4,121.55,4s4.89,0,4.23,3.81a41.72,41.72,0,0,1-2.5,7.81s9,12.39,23-3.69c0,0,1.41-2.17,4.89-.43A101.88,101.88,0,0,1,162,17.28c11.3,7,29.33,21.29,45.4,49a116.78,116.78,0,0,1,15.64,57v3a101.17,101.17,0,0,1-1.41,16.19c-2.5,15.1-10.32,55.39-44.53,101.88-5.22,7.16-37.88,49.29-63.54,49.29M162,27.81a84,84,0,0,0-10.86-12.49l-.44.87A102.09,102.09,0,0,1,162,30.31c5.76,8.58,11.4,20,11.19,31.39,0,0,1.84-15.21-11.19-33.89m-96.13,2.5a103,103,0,0,1,11.3-14.12l-.54-.87a83.08,83.08,0,0,0-10.76,12.5C52.69,46.49,54.53,61.7,54.53,61.7c-.22-11.41,5.54-22.81,11.29-31.39m150.66,91.23H195V205.3c17.55-37.3,23.9-72.91,21.51-83.76M19,98.52H208c-1.85-3.48-3.91-7-6.19-10.54-16.29-24.65-30.3-21.07-30.3-21.07A26.25,26.25,0,0,0,162,62.46c-14.23-3.15-28.24,7.5-29.65,21.72,0,0,1.95,2.61.21,4.13s-2.38.22-2.38.22l-4.67-4.68C117.31,83.85,113.4,94,113.4,94s-3.69-10.11-12-10.11l-4.56,4.68s-.76,1.19-2.39-.22.22-4.13.22-4.13c-1.41-14-15-24.55-28.9-21.83a26.23,26.23,0,0,0-10.31,4.56S41.39,63.33,25.21,88c-2.39,3.59-4.35,7.17-6.2,10.54M33.36,207.27V121.54H10.76c-3.34,21.63,7.26,54.87,22.6,85.73M79.51,269V121.54H56.38V244a194.55,194.55,0,0,0,23.13,25m46.17,16.13v-82a31,31,0,0,0,0-57.18V121.54H102.54v24.22a31,31,0,0,0,0,57.68V285a39.26,39.26,0,0,0,10.74,3.39,29.92,29.92,0,0,0,12.4-3.21m23.13-163.62v147a209.42,209.42,0,0,0,23-25.63V121.54Z"/><path class="cls-3" d="M195,121.54v83.77s-1.9,4.13-3.17,6.49c-6.58,11.42-13.31,22.31-20,31.07h0V121.54Zm-69.29,0V146a31,31,0,0,1,0,57.18v81.86c6.65-3.16,14.48-8.55,23-16.45l.09-.09v-147Zm-46.17,0v147.4c.94.86,1.88,1.77,2.81,2.57a84.68,84.68,0,0,0,20.22,13.43v-81.5a31,31,0,0,1,0-57.67V121.54Zm-46.16,0v85.6l.15.3c2.5,4.85,5.19,9.87,8.37,15A256.13,256.13,0,0,0,56.38,244V121.54Z"/><path class="cls-4" d="M113.83,141.38a33.23,33.23,0,1,0,33.07,33.28A33.18,33.18,0,0,0,113.83,141.38Z"/><path class="cls-5" d="M120.39,203.56a10.09,10.09,0,0,1-5.4-5.69,15,15,0,0,0,3.14-1.4c6.55-3.87,7.21-11.51,4-17.76-.11-.21-.25-.45-.38-.66,3.76-11.73-2.73-16.92-4.72-18.2,1.23-4.09,4.48-6.26,9.34-5.59,7.14,4.81,9.09,16.19,9,23.87-.1,18.74-11.83,24.09-15,25.43M88.84,192.85A30.9,30.9,0,0,0,101.42,203a16.72,16.72,0,0,1-2.69-5.76c-2.65-2.91-5.88-5-9.89-4.36m-5.9-17.26a30.69,30.69,0,0,0,5,15.91c4.45-1,8.6,1,11.62,4.34,1.64-1.31,6.45-4,14.61.71,8.3-2.32,10.15-10.28,6.59-17.14l-.21-.37c-3.19,1-18.94,5-37.61-3.45m4.89-17.73a30.92,30.92,0,0,0-4.89,16.07,56.25,56.25,0,0,0,26.36,5.36,46.31,46.31,0,0,0,11-1.79c1.87-5.93,1.47-12.92-4.19-16.42-4.09,1.85-8.88,2.5-12.69-.2-5.71,2.72-11.38,2-15.37-2.75Zm24.88-14.2a30.81,30.81,0,0,0-24,12.88c.13.18.29.39.48.62,3.68,4.38,8.45,4.64,13.5,2.38-.14-2,.27-8.6,10-15.88m19.1,5.8a30.55,30.55,0,0,0-16.52-5.79c-4.76,3.25-10.78,8.72-11.09,14.91a7.11,7.11,0,0,0,0,1,5.77,5.77,0,0,0,.54.37c3.31,2,7.35,1.38,10.71-.25,1.37-4.77,5.28-7.78,10.57-7.13l.41-.39a10.37,10.37,0,0,1,5.36-2.71m-9.31,54.86a31,31,0,0,0,11.14-53.42,8.1,8.1,0,0,0-6.12,2.35c2.47,1.8,9.52,8.41,9.34,24.89-.1,17.46-9.93,23.93-14.46,26.16Zm-8.67,1.24a30.65,30.65,0,0,0,6-.59,11.54,11.54,0,0,1-6.19-6.33c-.12-.33-.21-.6-.26-.79-4.29-2.42-9.35-3.84-13.09-.59a13.41,13.41,0,0,0,.55,1.6,18.36,18.36,0,0,0,3.25,5.14,30.64,30.64,0,0,0,9.72,1.56"/><path class="cls-6" d="M19,98.52H208s7.23,14.06,8.47,23H10.79s2.61-14.33,8.23-23"/><path class="cls-1" d="M201,115.07h3.59v3H201Zm-9.34-3.37h7.71v-2.61h-7.71v-3.47h8.91V102.9H188.06v15.21h3.58V111.7Zm-11.51,6.41h3.59v-3h-3.59Zm-11.73.43a7.94,7.94,0,0,0,4.89-1.52,6.75,6.75,0,0,0,2.39-4h-3.59a3.76,3.76,0,0,1-1,1.73,3.25,3.25,0,0,1-2.83,1.09,3.71,3.71,0,0,1-2.93-1.3,5,5,0,0,1-1.2-3.81,6.29,6.29,0,0,1,1.09-4,4,4,0,0,1,3-1.42,4,4,0,0,1,2.93,1,5,5,0,0,1,.87,1.74h3.59a4.35,4.35,0,0,0-1.2-2.82c-1.3-1.74-3.36-2.61-6.3-2.61a7.49,7.49,0,0,0-5.32,2,7.7,7.7,0,0,0-2.5,6.09,7.34,7.34,0,0,0,8,7.92m-40.73-.43h3.59v-15.2h-3.59Zm-11.73.43a8,8,0,0,0,4.89-1.52,6.71,6.71,0,0,0,2.39-4h-3.58a5.07,5.07,0,0,1-.88,1.73,3.59,3.59,0,0,1-2.93,1.09,3.71,3.71,0,0,1-2.93-1.3,5,5,0,0,1-1.19-3.81,6.29,6.29,0,0,1,1.08-4,4.35,4.35,0,0,1,6-.44,5.23,5.23,0,0,1,.88,1.74h3.58a4.35,4.35,0,0,0-1.2-2.82c-1.3-1.74-3.37-2.61-6.3-2.61a7.51,7.51,0,0,0-5.32,2,7.7,7.7,0,0,0-2.49,6.09,7.33,7.33,0,0,0,8,7.92m-23-11.29,7.17,10.86h3.7v-15.2h-3.37v10.64l-7.06-10.64h-3.8v15.2h3.36V107.25Zm-7.49,8.15H76v-4h8.26v-2.61H76v-3.15h9V102.9H72.39v15.21h13Zm-16.62,0H60.11V102.9H56.42v15.21H68.8Zm-40.18,2.71H32l6-15.21h-3.8l-3.81,11.52-3.8-11.52H22.64Zm19.12-15.2,6.07,15.2H49.9L48.82,115H42.3l-1.19,3.15H37.42l6.18-15.2h4.14Zm.1,9.44-2.28-6-2.28,6h4.56Zm96.88-9.44,6.19,15.2h-4L145.81,115H139.4l-1.2,3.15h-3.8l6.2-15.2h4.12Zm.11,9.44-2.17-6-2.28,6h4.45Z"/></g></g></svg>