<svg xmlns="http://www.w3.org/2000/svg" viewBox="0 0 267.07 300"><defs><style>.cls-1{fill:#fff;}.cls-2{fill:#931b89;}.cls-3{fill:#eb211b;}.cls-4{fill:#f4e524;}.cls-5{fill:#178555;}.cls-6{fill:#edcb28;}.cls-7{fill:#0ca84e;}</style></defs><title>Valladolid</title><g id="Слой_2" data-name="Слой 2"><g id="Слой_1-2" data-name="Слой 1"><g id="g3"><path id="path7" class="cls-1" d="M257.66,155.7H190q-1,4.89-2.25,9.46h69.9l9.41-4.73-9.41-4.73Z"/><path id="path9" d="M51.69,155.54s-.1.11-.16.16h.6c-.07-.22-.24-.3-.44-.16Z"/><path id="path11" d="M29.77,155.7c.07-.75.07-2.1.07-2.1a11.4,11.4,0,0,1,.85,2.1h3.14s0,0,0-.08l.15-.16a4.89,4.89,0,0,1,1-.69c.39-.16.31-.54.23.69a1.75,1.75,0,0,1,0,.24h11.4c2.14-3.6,2.59-9.78,2.89-10.47s.86-7.28,1.79-9.61-.24-1.55-.24-1.55c-.85.39-2.09,3.65-2.48,4.27s-.54.07-.54.07c1.55-2.32,3.26-9.61,3.65-10.85s2.17-6.27,3-7.13.68-1.07.46-1.16a2.67,2.67,0,0,0-2.32,1c-1.09,1.08-1.63.7-1.63.7-.35-.35,3-7.29,3-7.29,4.41-10.31,6.2-11.62,6.82-12.94s0-1.32,0-1.32-5,2.6-6.05,3.64-.78,0-.78,0c5-3.64,10-10,13.26-16.35A41.33,41.33,0,0,1,75.1,76a2,2,0,0,0,.62-1.39s.39-1.08-10.08,4S50.68,89,49.91,90.05s-.85.62-.85.62c.15-.85.15-7.75,0-9.76s-1.24.46-1.4.85a81.07,81.07,0,0,1-8.21,13.1c-5,6.59-4.27,17.28-4.27,17.28s.54,1.94-.39,1.24-2.4-6.28-2.94-7.9-1-.62-1.09,0a105.42,105.42,0,0,1-2.94,15.65c-2.48,10-2.56,13.18-2.63,14.73s-.7.62-.94.23-2.27-3.33-3.71-5.42c-1.21-1.75-1.35.35-1.35.35-1.63,14.69.07,22,1,24.68Zm16.11-46c.7-1.08,1.47-.85,3.8-2.63,0,0-3.26,3.17-4,4,0,0-.55-.24.15-1.32Z"/><path id="path13" class="cls-1" d="M133.54,246.37a44.16,44.16,0,0,1-4.73-2.8h0v42.18l4.73,9.41,4.73-9.41V243.57h0a45.41,45.41,0,0,1-4.73,2.8Z"/><path id="path15" d="M128.81,253l-2.48.1c-.31,0-9.07-7.75-10.78-9.54s-3.33.39-3.33.39l-3.64,3.57c-1.39,1.55-2-.47-2-.47-3.57-7-5.2-6.35-9.77-9.14a29.76,29.76,0,0,1-7.75-6.74c-.85-1-1.16.23-1.16.23a23.47,23.47,0,0,0,.68,5.47,4.33,4.33,0,0,0-2.67,2.47,3.43,3.43,0,0,1-.26-.35,62.38,62.38,0,0,0-18.21-26.35s1.62,11.09,2.94,14.11.78,3.49.78,3.49a27.54,27.54,0,0,0-4.81-3.65c3-20.22-9.76-36-9.76-36,4.88-.23,5,.62,6.74.86s.39-1.25.39-1.25c-9.15-8.91-13.49-8.21-15.35-8.06s-1.63-.15-1.63-.15c0-.57,1.7-1.71,2.61-2.29a5.34,5.34,0,1,0-.8-5.45c.22-.83.36-1.41.36-1.41a42.78,42.78,0,0,0,1.71-7.75H31.53c-.07,1-.14,2.27-.14,2.41s-.31,1.08-.78.23A7.8,7.8,0,0,0,29.06,166a3.84,3.84,0,0,1,0-.86H16.62c-1.44,14.3,3.39,23,7.69,27.81a5.35,5.35,0,1,0,2.56,7.46s.19-.31,1.76.54c1.87,1,4,2.67,5.09,3.37a2,2,0,0,1,.53.5c.39.55-.38.62-.38.62-.78.24,1.16,3.57,1.62,4.5s-1,.46-1,.46c-4.42-1.24-10.85-3.17-11.55-3.56s-1-1-1.71-1.09.23,1.4.31,1.63,2.79,2.17,9,11,13,14.64,15,15.42,1.08,1.08,1.08,1.08c-3.8.85-10-.31-11.47-.54s-.7.54-.7.54c13.26,11.47,24.11,14.5,24.11,14.5,5.19,1.86,4.49,1.54,5.11,2.09s2.1,1.39,3.34,2.32-1.4.62-1.4.62c-4.73,0-5.12,5.66-5.42,6.51s-5.89,8.37-6.83,8.76-.87,1-.77,1.24c.54,1.16,3.8,1.32,3.8,1.32,5.58-.16,10.69-5.12,11.47-5.81s1.39-.62,1.86-.24,13.64.78,14.72.7.39,1.08.39,1.08c-.08.62-10.07,7.75-10.85,8.14s-.46.93-.46.93c.54.24,1.94-.38,1.94-.38,12-4.58,14.57-2.25,18.91-2.1a15.42,15.42,0,0,0,8.14-2.4c1.08-.39.85.93.85.93-.08,2.32,2.17,3.49,2.4,3.64s.7.24.78.86a.53.53,0,0,1-.55.61c-1.78.31-13.64,12.72-14.64,13.8s-.24,1.24-.24,1.24c5-.69,8-2.56,12.87-3s9.84-6.82,10.07-7.05.93-.55,1.24-.16,1.32.39,1.32.39c1.4,0,3.18-1.47,4.26-2.4s.62.46.62.46-4.41,16.74-4.49,17.75.93,1.08,1.47-.16a.41.41,0,0,1,0-.09c.72-1.38,5.41-6.08,6.69-4.87s1.48-.7,1.48-.7a20.61,20.61,0,0,1,1.31-7.82c.3-.8.56-1.12.78-1.23V253Zm-80.6-77.5a5,5,0,0,0-.09.87,5.49,5.49,0,0,0,.54,2.32A7.06,7.06,0,0,1,46.74,180a35.69,35.69,0,0,0,1.47-4.43ZM32.37,202.28a23.47,23.47,0,0,0-3.85-2.52c-1.24-.74-1-1.35-1-1.35a5.06,5.06,0,0,0,0-.55,5.21,5.21,0,0,0-.48-2.2c1.14,1,2.09,1.65,2.64,2,2.06.87,3.4,5.69,2.69,4.58Zm1.42-29c-.39-1.32,1.32-1.78,1.32-1.78.23,2.24-1.32,1.78-1.32,1.78Zm21.93,17.36c-.74,2.16-.37,6.59-.26,7.71a5.35,5.35,0,0,0-8.78,0c1.92-9.2,9-7.72,9-7.72ZM53.4,218.86c-.54-.62-2.95-2.56-3.33-2.94s-.7,0-1.32-2.33-1.32-4.8-2-7.4a5.39,5.39,0,0,1,.13-1.44,5.33,5.33,0,0,0,4.17,2l.18,0a.74.74,0,0,1,.06.28,18.14,18.14,0,0,0,.93,6.63,37.83,37.83,0,0,1,1.7,5.11c0,.47,0,.7-.54.08Zm3.18,3.8c-.16-.39-2.48-6.51-3.41-10.23a28.24,28.24,0,0,1-.84-5.81A5.31,5.31,0,0,0,55.05,205c0,.17,0,.3,0,.47-.24,4.81,1.7,15,2.24,16.67s-.54.93-.69.54Zm66.57,46c-.62.23-4.42,4.1-5.74,5.73s-2.55,2.32-4.49,1.63-1.4-8.29-1.47-9.77,11.31,1.55,11.31,1.55c.62.08,1,.62.39.86Zm-1.08-6.13a64.6,64.6,0,0,0-7.75-2c-1.63-.16-1.09-1.09-1.09-1.09s1.94-4.1,3-4,7,6.36,7,6.36c1.08.93-.54.93-1.16.69Z"/><path id="path17" d="M137.33,244.12v41.41c-.13.27-2.1,4.19-3.33,6.64v-46l-.46.24-.47-.24v46c-1.22-2.45-3.19-6.37-3.33-6.64V244.12l-.93-.55v42.18l4.73,9.41,4.73-9.41V243.57l-.94.55Z"/><path id="path19" d="M77.5,160.89c-.08-.31-.15-.62-.22-.93l.22.93Z"/><path id="path21" d="M215.38,155.54s.1.11.16.16H215a.26.26,0,0,1,.43-.16Z"/><path id="path23" d="M246.86,155.7c.95-2.73,2.65-10,1-24.69,0,0-.14-2.09-1.35-.35-1.44,2.1-3.48,5-3.72,5.43s-.85,1.32-.93-.23-.15-4.73-2.63-14.73a108.4,108.4,0,0,1-2.95-15.65c-.07-.62-.54-1.63-1.08,0s-2,7.2-2.95,7.9-.39-1.24-.39-1.24.78-10.7-4.26-17.28a80.25,80.25,0,0,1-8.21-13.1c-.16-.39-1.24-2.87-1.4-.86s-.15,8.92,0,9.77c0,0-.07.39-.85-.62s-5.27-6.28-15.73-11.39-10.08-4-10.08-4A2,2,0,0,0,192,76a41.33,41.33,0,0,1,7.75,10.7C203,93.07,208,99.43,213,103.07c0,0,.27,1.05-.78,0s-6-3.64-6-3.64-.62,0,0,1.32,2.4,2.63,6.82,12.94c0,0,3.29,6.93,2.94,7.28,0,0-.54.39-1.63-.69a2.67,2.67,0,0,0-2.32-1c-.21.09-.39.31.46,1.16s2.64,5.89,3,7.13,2.09,8.53,3.64,10.85c0,0-.16.54-.54-.08s-1.63-3.87-2.48-4.26c0,0-1.17-.77-.24,1.55s1.48,8.92,1.79,9.61.76,6.86,2.89,10.47h11.4a1.75,1.75,0,0,1,0-.24c-.08-1.24-.16-.85.23-.69a4.89,4.89,0,0,1,1,.69l.15.16,0,.08h3.14a9.9,9.9,0,0,1,.85-2.1s0,1.35.06,2.1Zm-25.51-44.64c-.7-.78-4-4-4-4,2.33,1.78,3.1,1.55,3.8,2.63s.16,1.32.16,1.32Z"/><path id="path25" d="M138.26,284.37c.22.1.49.42.78,1.22a20.7,20.7,0,0,1,1.31,7.83s.16,1.94,1.48.7,6,3.49,6.7,4.87l0,.09c.54,1.24,1.55,1.16,1.47.15s-4.49-17.74-4.49-17.74-.47-1.4.61-.47,2.87,2.4,4.27,2.4c0,0,1,0,1.31-.38s1-.08,1.25.15,5.19,6.59,10.07,7.06,7.83,2.32,12.86,3c0,0,.78-.16-.23-1.24s-12.86-13.49-14.65-13.8a.52.52,0,0,1-.54-.62c.08-.62.54-.69.78-.85s2.48-1.32,2.4-3.64c0,0-.24-1.32.85-.93a15.42,15.42,0,0,0,8.14,2.4c4.34-.16,6.9-2.48,18.91,2.09,0,0,1.4.62,1.94.39,0,0,.31-.54-.47-.93s-10.77-7.52-10.85-8.14c0,0-.69-1.16.39-1.08s14.26-.31,14.73-.7,1.08-.46,1.86.23,5.89,5.66,11.47,5.82c0,0,3.26-.16,3.8-1.32.1-.28.07-.72-.78-1.24s-6.51-7.91-6.82-8.76-.69-6.51-5.42-6.51c0,0-2.64.31-1.4-.62s2.71-1.78,3.33-2.33-.07-.23,5.12-2.09c0,0,10.85-3,24.1-14.49,0,0,.78-.78-.7-.54s-7.67,1.39-11.46.54c0,0-.94-.31,1.08-1.09s8.84-6.58,15-15.42,8.91-10.77,9-11,1-1.71.31-1.63-1,.69-1.71,1.09-7.13,2.32-11.55,3.56c0,0-1.47.47-1-.46s2.4-4.27,1.62-4.5c0,0-.77-.08-.38-.62a2,2,0,0,1,.53-.5c1.12-.7,3.23-2.37,5.08-3.37,1.58-.85,1.77-.54,1.77-.54a5.36,5.36,0,1,0,4.71-7.92,5.27,5.27,0,0,0-2.15.45c4.3-4.84,9.13-13.5,7.69-27.8H238a3.27,3.27,0,0,1,0,.85,7.94,7.94,0,0,0-1.55,1.79c-.47.85-.78,0-.78-.24s-.07-1.36-.14-2.4H216.46a43,43,0,0,0,1.71,7.75s.14.58.36,1.4a5.39,5.39,0,1,0-.8,5.46c.91.58,2.61,1.72,2.61,2.29,0,0,.23.31-1.63.15s-6.2-.85-15.35,8.06c0,0-1.39,1.47.39,1.24s1.86-1.08,6.74-.85c0,0-12.71,15.73-9.76,36a27.8,27.8,0,0,0-4.81,3.64s-.54-.46.78-3.48,3-14.11,3-14.11A62.26,62.26,0,0,0,181.43,239l-.25.35a4.32,4.32,0,0,0-2.68-2.47,22.51,22.51,0,0,0,.68-5.47s-.3-1.25-1.16-.24a29.53,29.53,0,0,1-7.75,6.75c-4.57,2.79-6.2,2.09-9.76,9.14,0,0-.62,2-2,.46L154.85,244s-1.63-2.17-3.34-.39-10.46,9.53-10.77,9.53l-2.48-.09v31.34ZM220.34,180a6.93,6.93,0,0,1-1.93-1.25,5.31,5.31,0,0,0,.54-2.32,5,5,0,0,0-.08-.87,33.32,33.32,0,0,0,1.47,4.44Zm17,17.74a32,32,0,0,0,2.64-2,5.4,5.4,0,0,0-.48,2.2,5.07,5.07,0,0,0,0,.55s.21.61-1,1.35a23.47,23.47,0,0,0-3.85,2.52c-.71,1.11.63-3.71,2.69-4.58ZM232,171.51s1.71.46,1.32,1.78c0,0-1.55.47-1.32-1.78ZM220.4,198.37a5.36,5.36,0,0,0-8.79,0c.11-1.12.48-5.55-.26-7.71,0,0,7.12-1.48,9.05,7.72Zm-7.27,20.42a36.87,36.87,0,0,1,1.71-5.12,18.55,18.55,0,0,0,.93-6.63.72.72,0,0,1,0-.28l.18,0a5.31,5.31,0,0,0,4.17-2,5.39,5.39,0,0,1,.13,1.44c-.66,2.6-1.36,5.08-2,7.4s-.93,1.94-1.31,2.33-2.8,2.32-3.34,3-.54.38-.54-.08Zm-3.33,3.33c.54-1.63,2.48-11.86,2.25-16.67,0-.17,0-.31,0-.47a5.31,5.31,0,0,0,2.72,1.64,28.77,28.77,0,0,1-.83,5.81c-.93,3.72-3.26,9.84-3.42,10.23s-1.24,1.09-.69-.54Zm-65.49,45.72s11.39-3,11.31-1.55.47,9.07-1.47,9.77-3.17,0-4.49-1.63-5.12-5.5-5.74-5.73-.23-.78.39-.86Zm-.47-6s5.89-6.2,7-6.36,3,4,3,4,.54.93-1.08,1.09a64.1,64.1,0,0,0-7.75,2c-.62.24-2.25.24-1.17-.69Z"/><path id="path27" class="cls-1" d="M194.61,85.48c5.77,128.34-61.07,160.89-61.07,160.89S66.69,213.82,72.47,85.48Z"/><path id="path29" class="cls-2" d="M89.92,85.48H72.47c-2.21,49.09,6.21,84.16,17.45,108.76V85.48Z"/><path id="path31" class="cls-2" d="M124.81,240.58V85.48H107.36V223.05a105.44,105.44,0,0,0,17.45,17.53Z"/><path id="path33" class="cls-2" d="M142.26,240.58a105.06,105.06,0,0,0,17.45-17.53V85.48H142.26v155.1Z"/><path id="path35" class="cls-2" d="M194.61,85.48H177.16V194.24c11.24-24.6,19.65-59.67,17.45-108.76Z"/><path id="path37" d="M195.07,85.46l0-.44H72l0,.44c-5.72,127.18,60.66,161,61.33,161.33l.21.1.2-.1c.67-.32,67-34.15,61.33-161.33ZM133.54,245.85c-2.1-1.11-21-11.74-37.22-40.41L194.18,86.73c.2,4.8.31,9.49.31,14,0,110.87-57.22,143.12-61,145.1Z"/><path id="path39" d="M257.66,155.7H190c-.07.31-.13.62-.2.93h67.63l6.63,3.33h-75c-.08.31-.15.62-.23.93h75.24l-6.63,3.33H188c-.08.32-.17.62-.25.94h69.89l9.42-4.73-9.41-4.73Z"/><path id="path41" class="cls-1" d="M9.42,155.7H77.06q1.05,4.89,2.25,9.46H9.42L0,160.43l9.42-4.73Z"/><path id="path43" d="M9.42,155.7H77.06l.21.93H9.64L3,160H78c.07.31.14.62.22.93H3c2.44,1.23,6.36,3.2,6.64,3.33H79.06c.08.32.17.62.25.94H9.42L0,160.43l9.42-4.73Z"/><path id="path45" class="cls-1" d="M150.59,198.63a17,17,0,1,1-17-17,17,17,0,0,1,17,17Z"/><path id="path47" d="M151.28,198.63h0a17.65,17.65,0,0,1-17.67,17.67h0A17.65,17.65,0,0,1,116,198.64h0A17.65,17.65,0,0,1,133.61,181h0a17.65,17.65,0,0,1,17.67,17.66Zm-1.39,0h0a16.29,16.29,0,0,0-16.28-16.27h0a16.29,16.29,0,0,0-16.27,16.27h0a16.29,16.29,0,0,0,16.27,16.27h0a16.29,16.29,0,0,0,16.27-16.27Z"/><path id="path49" d="M144.83,205.29a2.18,2.18,0,0,1-.44-1.18l-.37-2.44a2.81,2.81,0,0,0-1-2,5.74,5.74,0,0,0-2.61-.82,8.19,8.19,0,0,0,3.25-1.34,2.52,2.52,0,0,0,1.09-2,2.8,2.8,0,0,0-1-2.16,7.36,7.36,0,0,0-3-1.42c-.42-.11-.89-.19-1.38-.27l1.31-6.2h-2.8l-1.14,6c-.8,0-1.75,0-2.91,0h-3.24l-1.17-5.95h-2.78l1.26,5.95h-6.32v14.82h4.24V199.9h3.89L132.22,212h2.83l2.49-11.84a4.38,4.38,0,0,1,.88.21,2.21,2.21,0,0,1,1.36,1.93l.27,1.93v.06a3,3,0,0,0,.84,2h4.93v-.4a1.89,1.89,0,0,1-1-.54Zm-11.76-11.77c1.26,0,2.31,0,3.21.1l-.78,4.09c-.73,0-1.52.07-2.43.07h-1.29l-.83-4.26Zm-7.34,4.26v-4.26h2.57l.91,4.26Zm7.93,9.59-1.46-7.48h.53c.88,0,1.66,0,2.35,0l-1.42,7.44Zm5.05-10.1c-.17,0-.39.09-.6.14l.72-3.42c1,.31,1.53.83,1.53,1.57s-.55,1.37-1.65,1.71Z"/><path id="path51" class="cls-3" d="M72.92,86h120.7L177,106.09H92.86c-.84,0-1.39,0-1.49,0h-.5L92,120.6c1.35,20.49,2.89,43.69,15.63,69.68L95.84,204.57c-12.5-22.45-23.26-55.74-23.26-103.82q0-7.17.34-14.8Z"/><path id="path53" class="cls-3" d="M108.26,189.49c-1.54-3.17-2.91-6.29-4.14-9.38,0-.64,2-3.13,3.3-3.34a22,22,0,0,0,5-2.28l.87-.48a5.79,5.79,0,0,1,3-.34,6.45,6.45,0,0,0,5-2.69l.38-.62-.72-.09a16.6,16.6,0,0,1-5.4-1.64,9.13,9.13,0,0,0-4.51-1.15l-1.15.12-2.71.19a15.09,15.09,0,0,1-5.21-.88l-1.5-.72a8.58,8.58,0,0,1,4.59-2l1,.24a7.92,7.92,0,0,0,3.5.46,10.29,10.29,0,0,0,6.15-1.75l.73-.39c2.64-1.43,4.3-1.05,4.31-1.05,5.77,0,7.3-1,7.45-1.17l1.07-.83h-1.35c-.76,0-2.25-.29-5-1.66a15.57,15.57,0,0,0-7.16-1.9,12.49,12.49,0,0,0-3.28.42,16.35,16.35,0,0,1-3.79.5c-2.49,0-5.21-1.15-7.19-2l-.21-.09a10.61,10.61,0,0,0-1.93-.57,29,29,0,0,1,6.62-.91,8.7,8.7,0,0,1,3.18.39,9.14,9.14,0,0,0,3.16.46c3.72.08,7.11-1.54,10-3.07,2.23-1.18,3.63-1.2,6.7-1.25l1.3,0a16,16,0,0,0,6.64-1.37l1.17-.6-1.68-.35c-1.46-.3-5.34-1.1-6.88-2.17a18.37,18.37,0,0,0-4.71-2.08c-2.2-.79-6.46-.21-8,.32a26.15,26.15,0,0,1-5.58.75,18.76,18.76,0,0,1-5.86-1.36c-1.57-.85-4.76-1.09-7.32-1.15l1.52-.56c2.82-1.05,7.09-2.64,9.62-2.52l1.81.4a20.23,20.23,0,0,0,5.5.85,27,27,0,0,0,5.06-.54l2.87-.4c2.58-.16,6.43-2.76,6.59-2.87s1.34-1.17,9.05-1.31c8.32-.15,9.94-1.69,10.1-1.86l.7-.77h-1.05c-1.84,0-8.26-2.09-11.25-3.67a17.13,17.13,0,0,0-8.43-1.76,32,32,0,0,0-5.52.63c-.07,0-2,.61-7.5.61A23.19,23.19,0,0,1,107,126.33l-.93-.36A46.13,46.13,0,0,0,98,124.35c2-.19,4.18-.43,6.14-.64l4.91-.49a20.39,20.39,0,0,1,5.73.83,21.36,21.36,0,0,0,5.43.65c10.5-.26,13.91-2.17,16.93-3.86l2.17-1.15c3.87-1.78,9.33-1.36,9.38-1.35C159,118,161.9,116,162,115.93l.83-.6-8.17-1.91a32.28,32.28,0,0,1-7-2.91c-2.69-1.69-9.16-2.09-9.22-2.09a23.09,23.09,0,0,0-6.81.64c-2.54.75-10,.91-10.11.91s-7.28.6-11.39-1.65a15.76,15.76,0,0,0-4.44-1.3h70.49l-68,82.47Z"/><path id="path55" class="cls-4" d="M92.45,107c3.36,0,13.84.22,17.3,2.12,4.36,2.38,11.59,1.79,11.89,1.76s7.66-.16,10.32-1a22.28,22.28,0,0,1,6.44-.6c.78,0,6.55.51,8.84,2a33.08,33.08,0,0,0,7.11,3l6,1.4c-1.58.59-5,1.51-11.62,1.71-.18,0-5.69-.45-9.79,1.44L136.68,120c-2.92,1.63-6.23,3.49-16.48,3.74a21.08,21.08,0,0,1-5.1-.59,21,21,0,0,0-6-.89l-5,.49c-3.68.41-8.65,1-10.91,1-.07-1.08-.15-2.15-.22-3.22,0,0-1-12.57-1-13.52Z"/><path id="path57" class="cls-4" d="M93.19,124.73c1.64.16,9.74,1,12.59,2.11l.92.35a24.09,24.09,0,0,0,10.41,2c5.74,0,7.66-.62,7.74-.64a31.69,31.69,0,0,1,5.28-.6,16.31,16.31,0,0,1,8,1.65,48.6,48.6,0,0,0,10.1,3.56,28.86,28.86,0,0,1-8.19,1c-8.18.15-9.49,1.34-9.66,1.58.07-.08-3.69,2.46-6,2.61l-3,.41a26.38,26.38,0,0,1-4.9.52,19.76,19.76,0,0,1-5.27-.82l-2-.42c-2.74-.14-7.12,1.49-10,2.57l-1.51.55a19,19,0,0,1-3,.85c-.73-5.95-1.19-11.71-1.57-17.27Z"/><path id="path59" class="cls-4" d="M105,144a19.54,19.54,0,0,0,6.26,1.45,26.89,26.89,0,0,0,5.89-.8c1.28-.43,5.37-1,7.44-.31a18,18,0,0,1,4.47,2,20.09,20.09,0,0,0,6,2.06,17.31,17.31,0,0,1-4.78.73l-1.29,0c-3.13,0-4.7.06-7.13,1.35-2.79,1.48-6,3-9.54,3a8.65,8.65,0,0,1-2.9-.41,9.27,9.27,0,0,0-3.46-.44,31.37,31.37,0,0,0-7.22,1L96.6,154c-.71-3.75-1.27-7.44-1.73-11.05,1.79-.06,7.88-.15,10.08,1.05Z"/><path id="path61" class="cls-4" d="M100.89,155.87l.21.08c2.06.88,4.88,2.07,7.56,2.07a17.23,17.23,0,0,0,4-.53,12.37,12.37,0,0,1,3-.4,14.65,14.65,0,0,1,6.79,1.81,18.78,18.78,0,0,0,3.68,1.43,23.82,23.82,0,0,1-5.33.48S119,160.34,116,162l-.73.39A9.52,9.52,0,0,1,109.5,164a7.07,7.07,0,0,1-3.16-.4l-1.3-.3a9.23,9.23,0,0,0-5.69,2.6c-1-3.69-1.85-7.31-2.55-10.87a13.61,13.61,0,0,1,4.09.85Z"/><path id="path63" class="cls-4" d="M101.46,167.73a15.76,15.76,0,0,0,5.65,1l2.82-.2,1.09-.11a8.3,8.3,0,0,1,4,1,15.52,15.52,0,0,0,4.92,1.63,5.38,5.38,0,0,1-3.63,1.69,6.29,6.29,0,0,0-3.44.44l-.89.48a22.51,22.51,0,0,1-4.71,2.19c-1.09.18-2.78,1.73-3.6,3q-2.37-6.14-4-12.05l1.84.88Z"/><path id="path65" class="cls-5" d="M128.81,254.58a1.45,1.45,0,0,0-1.71,1.33c-.07,1.55-.08,13.33.31,14.72s.75,2,1.4,2.14V254.58Z"/><path id="path67" class="cls-5" d="M128.34,281.64l.08-7.05s-1.63-1.17-4.26,4.73a92.49,92.49,0,0,0-5.35,17s3-3.8,6.36-3.49c0,0,.46-8.6,3.17-11.16Z"/><path id="path69" class="cls-5" d="M105.07,271.45a4.17,4.17,0,0,0,.06,3.25s1.05.64,2.21,1.28,6.8,4.77,7.21,5.06a5.48,5.48,0,0,0,2.09,1,5.92,5.92,0,0,0,2.39-1.33c.52-.47,6.33-6.63,6.86-7.44,0,0,.34.05.17-.41a11.83,11.83,0,0,1-.64-2.56c.06-.34,0-1.51-.23-1.45s-.58.81-1.57,1.51a49.83,49.83,0,0,0-5,5c-.18.35-1.92,2.79-4.36,2.67,0,0-1.11-.06-3.37-1.8s-5.06-4.47-5.82-4.82Z"/><path id="path71" class="cls-5" d="M105.31,281.21s-.82.12-.18-.46c1.63-1,2.5-2.33,2.91-2.1a19,19,0,0,1,2.09,1.63c.35.35,2,1.17,2.15,1.46s1,.58-.23,1.51a10.16,10.16,0,0,0-1.92,2c-.17.12-.52.53-.7.53s-.17-.35-.17-.76a2.33,2.33,0,0,0-.35-1.51c-.41-.64-1.1-1.86-1.86-2.09a5.68,5.68,0,0,0-1.74-.18Z"/><path id="path73" class="cls-5" d="M94.38,291s4.71-4.89,6.33-6.51a.94.94,0,0,0,.1-.1c1.61-1.57,3.75-2.63,4.44-2.4s2.9.17,2.73,3.19c-.12,2.85-3.72,3.72-4.42,4,0,0,3.66-2,3.9-4.35s-3.67-2.16-4.89-1.46-4.36,3.31-4,4.88a1.27,1.27,0,0,0,1.34,1s1.1,0,0,.29A32.22,32.22,0,0,1,94.38,291Z"/><path id="path75" class="cls-5" d="M104.9,285.05c.11.16-.14.68-.93,1.22s-1.46.74-1.57.58.22-.69,1-1.24,1.38-.72,1.49-.56Z"/><path id="path77" class="cls-5" d="M99.9,288.36s.06.24,1.39.06.47-.46.12-.46-.7-.29-.64-.93-.22-.6-.46-.06-.64.75-.41,1.39Z"/><path id="path79" class="cls-5" d="M125.19,262.09s.11-6.16.29-6.92c0,0,.4-.75-.7-1.57s-7.15-5-9.94-8.31c0,0-.53-1.22-1.45-.06a45.46,45.46,0,0,1-5,4.13s-.64.35-.23,1.22.76.76,1.05.76,5.11-2.56,15.93,10.75Z"/><path id="path81" class="cls-5" d="M114.55,254.77s-.64-1.75-4.19-1.69-3.43,2.15-3.66,2.73a20.05,20.05,0,0,0-1.57,5.41c-.11,2-.87,5.29.58,8,1.11,1.8,2.44,1.75,4.48,4.07a10.48,10.48,0,0,0-.47-2.5c-.4-1.22.06-11.33,4.83-16Z"/><path id="path83" class="cls-5" d="M80,273.71s4.94-1.51,7.21-1.39,4.77.7,7.27.75A17,17,0,0,0,101,271.5a25.57,25.57,0,0,0,2.26-1.39c.35-.17.18-2.79.18-2.79s.46-1.16-1-1a27.57,27.57,0,0,0-13.49,4.36s-1,1.16-1.74,1.05a1.06,1.06,0,0,1,.23-1.46,25.69,25.69,0,0,1,14.42-5.11s2.56-.23.46-.76-2.15-1-3.54-1a20.22,20.22,0,0,0-10.93,4.36c-4.82,3.72-7,5.11-7.85,5.92Z"/><path id="path85" class="cls-3" d="M93.16,241a3.26,3.26,0,1,1-3.26-3.26A3.25,3.25,0,0,1,93.16,241Z"/><path id="path87" class="cls-3" d="M55.1,201.43a4,4,0,1,1-4-4,4,4,0,0,1,4,4Z"/><path id="path89" class="cls-3" d="M26.2,197.86a4,4,0,1,1-4-4,4,4,0,0,1,4,4Z"/><path id="path91" class="cls-5" d="M124.84,266.8a38,38,0,0,0-5.82-1.46c-3.19-.52-6.56-.4-6.74-1.39a2.51,2.51,0,0,1,.29-1.69,1.82,1.82,0,0,1,1.51-.23c.93.23,8.26,2,9.07,2.33s1.75.17,1.75.93.29,1.39-.06,1.51Z"/><path id="path93" class="cls-5" d="M89.73,234.19a34.8,34.8,0,0,0,7.61,5.87c3.72,1.86,5.29,2.85,7.62,7.44a39.39,39.39,0,0,1,1.62,4.65s-2.26-.7-3.66-1.22-2.15-1.34-4-2.33A48.44,48.44,0,0,0,94,246.39c-2.33-1-1.34-1.33-.23-2.15,1-.52,0-3.25,2.49.53.7.87,5.82,4.71,7.62,5.34,0,0,.76.41.87-.23s-.29-.7-.93-1.1-6.22-3.26-8.83-8A6.51,6.51,0,0,0,90,236s-.23.7-.29-1.8Z"/><path id="path95" class="cls-5" d="M38.63,236.45s9.42.29,11.28.18,1.69,1.22,2.15,1.86,2.56,3.89,2.67,4.07c0,0,.12.7-1.28-.47s-5.05-4.18-7.49-4.18c-.18,0-1.34,0-1.34.29,0,0,.06.18.7.47a22.53,22.53,0,0,1,4,2.15c.87.75,2.91,1.39,6,3.83s4.12,3.2,4,3.37-.24.06-1.4-.4A64,64,0,0,1,49,243.37c-2.56-1.68-7.79-4.24-10.35-6.92Z"/><path id="path97" class="cls-5" d="M25.27,209.19s3.37,4.13,4.47,5.64,5.87,8,7.27,9.65a41.5,41.5,0,0,0,18.36,12.21s2.62.87,0-.76-5.93-5.58-6.11-5.75S45.14,227,44,226.4a74.22,74.22,0,0,1-12.32-11.57s-1.74-1.74-1.16-2.21c0,0,.69-.52,1.57.59s4.76,6,7.9,8.42,3.66,3.32,4.19,3.61c0,0,1.33.64-.29-1.22a102.1,102.1,0,0,1-6.34-9.19c-.58-1-.23-1.74-1.86-2.44s-4.76-1.45-5.29-1.68-3.95-1-5.11-1.52Z"/><path id="path99" class="cls-5" d="M61.48,225s1.05,2.67,1.51,4.47,2.5,2.44,6.28,9.42A5.26,5.26,0,0,0,71.48,241c1.57.81,3.14.87,4,1.39,0,0,1.63.94-.18-.64s-5.23-6.16-8.36-9c0,0-1.11-.88-.53-1.4,0,0,.58-.41,1.34.52s6,6.22,6.39,6.86c0,0,1.17,1.17.29-.34s-1.27-3.43-2.09-4.65a14.52,14.52,0,0,0-4.42-4.25A61.09,61.09,0,0,1,61.48,225Z"/><path id="path101" class="cls-5" d="M32.24,155.43s3.55-3.9,5.76-5.87S47.18,138.51,48.69,133s2.44-9.18,3.08-10.4-2.79,2.09-3.37,3.08-4.3,6.16-8.66,8.37c0,0-1.39.29-2.21,3.89s-2.27,9.13-2.5,9.83a3.25,3.25,0,0,0,1.34-1.34c.7-1.11,5.41-6.92,6.05-8.25s3.89-6.16,4.36-9.59c0,0,.29-.7.87-.47s0,.55-.27,1-.58,3-1.27,4.18a70.54,70.54,0,0,1-8.78,13.2c-3.2,3.66-2.59,2.64-2.59,2.64s-.23-.29-.52.64.06.18.06.18a11.84,11.84,0,0,0-.93,2.91c-.41,1.91-2.39,2.61-1.11,2.55Z"/><path id="path103" class="cls-5" d="M234.83,155.43s-3.54-3.9-5.75-5.87-9.19-11.05-10.7-16.57-2.44-9.18-3.08-10.4,2.79,2.09,3.37,3.08,4.3,6.16,8.66,8.37c0,0,1.4.29,2.21,3.89s2.27,9.13,2.5,9.83a3.2,3.2,0,0,1-1.33-1.34c-.7-1.11-5.41-6.92-6.05-8.25s-3.89-6.16-4.36-9.59c0,0-.29-.7-.87-.47s0,.55.26,1,.58,3,1.28,4.18a70,70,0,0,0,8.78,13.2c3.19,3.66,2.58,2.64,2.58,2.64s.24-.29.53.64-.06.18-.06.18a12.41,12.41,0,0,1,.93,2.91c.4,1.91,2.38,2.61,1.1,2.55Z"/><path id="path105" class="cls-3" d="M57.51,176.39a4,4,0,1,1-4-4,4,4,0,0,1,4,4Z"/><path id="path107" class="cls-5" d="M103.45,253.66a45.69,45.69,0,0,0-9.89-5.58c-5.17-2-8.72-3.31-9.7-3.66,0,0,1.68,3.25,2.67,5a41.1,41.1,0,0,0,7,8.66c2.62,2.15,7.85,4.41,8.84,4.47s1-.06,1-.7.11-4.24,1.1-6-1-2.21-1-2.21Zm-.69,7.15a.56.56,0,0,1-.78,0c-.37-.4-5-3.77-7-5.2a53.61,53.61,0,0,1-6.83-6.48.56.56,0,1,1,.83-.74,55.56,55.56,0,0,0,6.66,6.31c5.11,3.71,6.93,5.07,7.19,5.38a.55.55,0,0,1-.07.77Z"/><path id="path109" class="cls-5" d="M95.54,261.74A26.19,26.19,0,0,1,91.76,259s-1.39.29-9.18-.06S69,255.81,66,255.7s-4.12,3.6-4.59,5.81S56,269.41,55.14,270s.18.93.18.93c5.52.05,10.46-4.6,11.68-5.53s1.92-.69,3.14-.4,14.94.52,16,.58a3.2,3.2,0,0,0,2.27-.58,41.16,41.16,0,0,1,6.8-2.62c1-.12.35-.64.35-.64Zm-8.16.75c-3.15-1.19-8.26-2-14.77-2.34a11.09,11.09,0,0,0-7.45,2l-.42.27a6.88,6.88,0,0,0-2.32,3.45.56.56,0,0,1-.69.39.57.57,0,0,1-.38-.69,7.82,7.82,0,0,1,2.8-4.1l.42-.26a12.17,12.17,0,0,1,8.1-2.15c6.72.35,11.8,1.17,15.11,2.42a.56.56,0,0,1,.32.72.55.55,0,0,1-.72.32Z"/><path id="path111" class="cls-5" d="M85.66,251.51c-1.69-2.32-2-2.73-9.53-6.86s-21.74-5.58-21.74-5.58c11.74,16.1,20.4,18,35.34,18-.41-.29-2.38-3.25-4.07-5.58ZM84,254.57h-.29c-1.62-.05-4.33-.14-9.33-2.37-5.25-2.33-11.84-8.15-12.12-8.4A.56.56,0,0,1,63,243c.07.06,6.74,6,11.83,8.22,4.81,2.14,7.38,2.22,8.91,2.27H84a.56.56,0,1,1,0,1.12Z"/><path id="path113" class="cls-5" d="M85.37,242.73A65,65,0,0,0,69.5,216.81c.87,2.26,3.66,14.18,4.3,15.46s3.32,7.85,4.83,10.23,2,2.27,2.61,2.73,1.11.47.52-.29a6.89,6.89,0,0,1-1-2.85c0-.4.4-.87,2.56.12s2,.52,2,.52Zm-5.23-4.18c-.58-1.17-1.81-4.19-2.5-5.64s-2-5.06-2.56-5.93-1.16-3-1.34-3.25a1.32,1.32,0,0,1-.29-1.17s.35-.23,1,1.17c0,0,3.67,7.43,4.13,8.77s2,4.48,2.09,6c0,0,.06,1.22-.52.06Z"/><path id="path115" class="cls-5" d="M55.43,223.32C46.08,212,36.14,208.09,36.14,208.09,41.54,219,45.61,224,53.69,232s14.07,7.61,14.07,7.61c-4.6-6.21-3-5-12.33-16.27Zm4.46,10.59a.55.55,0,0,1-.69-.38c-1.08-3.74-5.53-8.59-7.92-11.19l-.68-.74c-2.27-2.51-6.71-6.43-6.75-6.47a.54.54,0,0,1-.05-.78.54.54,0,0,1,.78,0c.19.16,4.53,4,6.85,6.55l.67.74c2.63,2.85,7,7.64,8.17,11.63a.55.55,0,0,1-.38.69Z"/><path id="path117" class="cls-5" d="M56.83,194s-1.51,21.28,2.67,30.4c0,0-.46-2.38-.17-2.67a27.13,27.13,0,0,1,5,3.14s.7,1.39.7-1.45,1.17-16.28-8.19-29.42Zm4.77,23.7a.56.56,0,0,1-.56-.55c-.16-11.69-1.7-13.29-1.77-13.35a.58.58,0,0,1-.07-.76.53.53,0,0,1,.71-.15c.35.21,2.07,1.89,2.24,14.24a.56.56,0,0,1-.55.57Z"/><path id="path119" class="cls-5" d="M49,183.44c-4.07-.05-6.4,3.78-7.61,6.34s-.94,6.8-.88,8a29.18,29.18,0,0,1-.52,5.93,16.16,16.16,0,0,0-.23,4.07c2,.76,6.92,5.06,6.92,5.06s.35-1.05-.82-5.12a26.25,26.25,0,0,1-.93-7.85c.64-10.92,9.24-10.63,9.65-10.75a5.92,5.92,0,0,1,3-.17,6.05,6.05,0,0,0,2.44.11c-1.16-.81-7-5.58-11-5.64Zm3.9,4.21a7.48,7.48,0,0,0-5.38.17c-3.05,1.45-4.39,6.5-4.41,6.55a90.82,90.82,0,0,0-.33,9.24.47.47,0,1,1-.93,0c0-.82,0-8.12.36-9.47.5-1.91,2.16-5.85,4.9-7.16a8.35,8.35,0,0,1,6.13-.19.46.46,0,0,1-.34.86Z"/><path id="path121" class="cls-5" d="M25.41,155.7a4.22,4.22,0,0,1-.26-.68c-.23-.93-1.4-5.23-1.57-5.81s-.87-4.42-.87-4.94-.23-1.69.06-1.86c0,0,.46-.35.81,1.63s1.05,5.46,1.28,6.27,1.16,4,1.45,5.06c0,.11.06.22.08.33h1.87c0-12.07-7.64-22.71-7.64-22.71a93.8,93.8,0,0,0,.83,22.71Z"/><path id="path123" class="cls-5" d="M41.35,155.7A12.26,12.26,0,0,0,43.11,153c.53-1.4,1.22-2.74,1.46-3.49s.81-1.86,1.1-1.69.52.47-.41,2.44c-.82,1.75-2,4.44-2.61,5.45h2.48a26.51,26.51,0,0,0,2.69-8c.12-1.11,1-6.86,1-6.86-.29,1.33-4.42,6.16-10.06,12a18.5,18.5,0,0,0-2.28,2.89Z"/><path id="path125" class="cls-5" d="M24.25,165.16a22.09,22.09,0,0,0,2.7,4.51c0-.51-.23,1.33.44-4.51Z"/><path id="path127" class="cls-5" d="M27.94,173.74a1,1,0,0,0-.87-1.11c-3.31-3.36-4.45-5.87-4.8-7.47H18.13a30.85,30.85,0,0,0-.36,5.26C17.94,188.91,30.26,196,30.26,196c-2.84-6.05-2.44-21.33-2.32-22.26Zm-1.69,10.75a.83.83,0,0,1-.69,0,20.52,20.52,0,0,1-4-6.51,23.16,23.16,0,0,1-1-7c0-1.17.41-1.34.41-1.34.35,0,.23.75.23.75a26.17,26.17,0,0,0,1.69,8.08,19.73,19.73,0,0,0,3,5.29c.24.24.58.52.29.7Z"/><path id="path129" class="cls-5" d="M41.23,165.16a28.82,28.82,0,0,1-2.42,3.52c-2.09,2.79-2.09,4-2.73,5.46s-.18,2-.18,2c1.69,2.5,2.5,7,2.5,7,.41.24,1-1.57,1.16-2.15s1.17-4.12,1.75-5.46,1.39-4.13,1.68-4.94.81-1.63,1.28-1.69.47.82.23,1.34S43.05,174,42.76,175s-1.16,3-1.34,4-1.51,4-1.86,5.35a3.7,3.7,0,0,0-.11,2.5,21.53,21.53,0,0,1,.35,3c.23-1.57,1.1-2.91,3.19-6.22a45.87,45.87,0,0,0,4.31-9.42c.4-1.45.17-2.27.93-4.65a43.4,43.4,0,0,0,1-4.34h-8Z"/><path id="path131" class="cls-5" d="M39,165.16H33.29c-.09.81-.12,1.38-.18,1.6-.23.93-.93,1.57-.4,3.6s4-2.5,4-2.5c.83-.92,1.57-1.82,2.29-2.7Z"/><path id="path133" class="cls-5" d="M34.1,116.25a72.37,72.37,0,0,1-2.63-7c-.24.54-1,5.73-1.25,7.9s-2.55,9.61-3.09,13.72-.16,8.91.46,9.84A49.94,49.94,0,0,1,31,149.58c.55,2.4.7,1.55.7,1.55,0-1.32,1.7-5.58,2.48-7.68A69.24,69.24,0,0,0,37,128.88c.46-6-1.63-10-2.87-12.63Zm-2.91,7.44c-.64,2.67-.4,7.67-.46,8.6s.35,8,.52,8.55.7,1.28.18,1.56-.82-1.22-.82-1.22c-1-2.9-.75-11.62-.75-13.13a46.76,46.76,0,0,1,1.22-8c.52-1.87,1-1.23,1-1.23.59.24-.29.7-.93,4.83Z"/><path id="path135" class="cls-5" d="M43.56,115.86c-2.48,2.64-3.65,7.36-4,9.77s-.62,6.82-.62,6.82a37.63,37.63,0,0,0,3.73-2.95c1.86-1.7,6.43-6.82,8.36-12.32a128.08,128.08,0,0,1,6.28-13.64c-8.52,5.58-11.31,9.69-13.79,12.32Zm6.06-1.3c-1,1.52-5.46,8.84-5.46,8.84s-2.21,4.3-2.62,3.25c0,0-.29-.17.35-1.39s2.5-3.72,3.37-5.58,4-5.93,4.25-6.63,1-1.62,1.27-1.39-.11,1.39-1.16,2.9Z"/><path id="path137" class="cls-5" d="M50.22,92.46s-.93.38-1.08,3.41S47.28,105.71,47,107c0,0,9.53-6.51,15.73-15,2.4-3.56,5.19-9.84,8.6-14.1,0,0-15.89,5.65-21.08,14.57Zm14.51-7.08a17.7,17.7,0,0,0-5.11,3.84c-1.51,1.69-5.06,5.93-5.41,7a2.43,2.43,0,0,1-1.16,1s-.64.35.35-1.45A53.41,53.41,0,0,1,59,88.47a19,19,0,0,1,5.23-3.73c1.34-.63,1.74-.69,1.86-.34,0,0-.17.52-1.34,1Z"/><path id="path139" class="cls-5" d="M47.43,84.71a134.94,134.94,0,0,1-7.28,11.78,22.82,22.82,0,0,0-3.72,12.4c-.08,4.18,1.62,12.63,1.62,12.63.47,1.63.62.54.62.54.08-1.94,3.41-8,3.41-8a59.78,59.78,0,0,0,5.35-29.37Zm-3.9,16c-.23.88-1.7,4.9-1.81,5.48A38,38,0,0,1,40.36,111c-.28.41-.62,2-1.14,1.93s-.18-.81,0-1.28,1.86-5.89,2-6.82,2.49-7.69,3-9.79.74-1.58.74-1.58c1-1.17-1.22,6.35-1.44,7.22Z"/><path id="path141" class="cls-5" d="M37.82,187.51C37.3,180.36,30,169.43,30,169.43c-3.37,18.78,5.7,37.15,7.91,37.32,1.22-8.78.75-11.56-.06-19.24Zm-3.43,7c-.35-.29-.41-1.81-.58-2.91s-.41-3.6-.46-4.36-.18-1.34-.35-3.78.46-2,.46-2c.81.75.41,2.61.46,3s.47,3.43.47,3.84.41,4.3.52,4.65-.17,1.92-.52,1.63Z"/><path id="path143" class="cls-5" d="M138.26,254.58a1.45,1.45,0,0,1,1.71,1.33c.08,1.55.08,13.33-.31,14.72s-.75,2-1.4,2.14V254.58Z"/><path id="path145" class="cls-5" d="M138.73,281.64l-.08-7.05s1.63-1.17,4.26,4.73a92.49,92.49,0,0,1,5.35,17s-3-3.8-6.35-3.49c0,0-.47-8.6-3.18-11.16Z"/><path id="path147" class="cls-5" d="M162,271.45a4.17,4.17,0,0,1-.06,3.25s-1,.64-2.21,1.28-6.8,4.77-7.21,5.06a5.41,5.41,0,0,1-2.09,1,5.82,5.82,0,0,1-2.38-1.33c-.52-.47-6.34-6.63-6.86-7.44,0,0-.35.05-.18-.41a11.27,11.27,0,0,0,.64-2.56c-.05-.34,0-1.51.24-1.45s.58.81,1.57,1.51a52,52,0,0,1,5,5c.17.35,1.91,2.79,4.36,2.67,0,0,1.1-.06,3.37-1.8s5.05-4.47,5.81-4.82Z"/><path id="path149" class="cls-5" d="M161.77,281.21s.81.12.17-.46c-1.63-1-2.5-2.33-2.9-2.1a19.07,19.07,0,0,0-2.1,1.63c-.35.35-2,1.17-2.15,1.46s-1,.58.23,1.51a9.82,9.82,0,0,1,1.92,2c.18.12.53.53.7.53s.17-.35.17-.76a2.39,2.39,0,0,1,.35-1.51c.41-.64,1.11-1.86,1.86-2.09a5.74,5.74,0,0,1,1.75-.18Z"/><path id="path151" class="cls-5" d="M172.69,291s-4.7-4.89-6.33-6.51a.94.94,0,0,1-.1-.1c-1.62-1.57-3.75-2.63-4.44-2.4s-2.9.17-2.73,3.19c.12,2.85,3.72,3.72,4.42,4,0,0-3.67-2-3.9-4.35s3.67-2.16,4.89-1.46,4.36,3.31,4,4.88a1.27,1.27,0,0,1-1.34,1s-1.1,0,0,.29a32.5,32.5,0,0,0,5.52,1.46Z"/><path id="path153" class="cls-5" d="M162.17,285.05c-.1.16.14.68.93,1.22s1.46.74,1.57.58-.21-.69-1-1.24-1.38-.72-1.49-.56Z"/><path id="path155" class="cls-5" d="M167.17,288.36s-.06.24-1.39.06-.47-.46-.12-.46.7-.29.64-.93.22-.6.47-.06.63.75.4,1.39Z"/><path id="path157" class="cls-5" d="M141.89,262.09s-.12-6.16-.29-6.92c0,0-.41-.75.69-1.57s7.15-5,9.94-8.31c0,0,.53-1.22,1.46-.06a44.62,44.62,0,0,0,4.94,4.13s.64.35.23,1.22-.75.76-1,.76-5.12-2.56-15.93,10.75Z"/><path id="path159" class="cls-5" d="M152.52,254.77s.64-1.75,4.19-1.69,3.43,2.15,3.66,2.73a19.34,19.34,0,0,1,1.57,5.41c.12,2,.87,5.29-.58,8-1.1,1.8-2.44,1.75-4.48,4.07a10.48,10.48,0,0,1,.47-2.5c.41-1.22-.06-11.33-4.83-16Z"/><path id="path161" class="cls-5" d="M187.11,273.71s-4.94-1.51-7.21-1.39-4.76.7-7.26.75a16.93,16.93,0,0,1-6.51-1.57,26.15,26.15,0,0,1-2.27-1.39c-.35-.17-.17-2.79-.17-2.79s-.47-1.16,1-1a27.54,27.54,0,0,1,13.49,4.36s1,1.16,1.74,1.05a1.06,1.06,0,0,0-.23-1.46,25.69,25.69,0,0,0-14.42-5.11s-2.55-.23-.46-.76,2.15-1,3.54-1a20.22,20.22,0,0,1,10.93,4.36c4.83,3.72,7,5.11,7.85,5.92Z"/><path id="path163" class="cls-3" d="M173.92,241a3.25,3.25,0,1,0,3.25-3.26,3.24,3.24,0,0,0-3.25,3.26Z"/><path id="path165" class="cls-3" d="M212,201.43a4,4,0,1,0,4-4,4,4,0,0,0-4,4Z"/><path id="path167" class="cls-3" d="M240.88,197.86a4,4,0,1,0,4-4,4,4,0,0,0-4,4Z"/><path id="path169" class="cls-5" d="M142.24,266.8a37.69,37.69,0,0,1,5.81-1.46c3.2-.52,6.57-.4,6.74-1.39a2.45,2.45,0,0,0-.29-1.69A1.82,1.82,0,0,0,153,262c-.93.23-8.26,2-9.07,2.33s-1.74.17-1.74.93-.29,1.39.06,1.51Z"/><path id="path171" class="cls-5" d="M177.34,234.19a34.8,34.8,0,0,1-7.61,5.87c-3.72,1.86-5.29,2.85-7.62,7.44a41.31,41.31,0,0,0-1.62,4.65s2.26-.7,3.66-1.22,2.15-1.34,3.95-2.33a49.43,49.43,0,0,1,4.94-2.21c2.33-1,1.34-1.33.24-2.15-1-.52,0-3.25-2.5.53-.7.87-5.81,4.71-7.62,5.34,0,0-.75.41-.87-.23s.29-.7.93-1.1,6.22-3.26,8.84-8a6.5,6.5,0,0,1,5-4.77s.23.7.28-1.8Z"/><path id="path173" class="cls-5" d="M228.44,236.45s-9.42.29-11.28.18-1.68,1.22-2.15,1.86-2.56,3.89-2.67,4.07c0,0-.12.7,1.28-.47s5-4.18,7.5-4.18c.17,0,1.33,0,1.33.29,0,0,0,.18-.69.47a22.94,22.94,0,0,0-4,2.15c-.87.75-2.9,1.39-6,3.83s-4.13,3.2-4,3.37.24.06,1.4-.4a63.49,63.49,0,0,0,8.89-4.25c2.56-1.68,7.79-4.24,10.35-6.92Z"/><path id="path175" class="cls-5" d="M241.81,209.19s-3.38,4.13-4.48,5.64-5.87,8-7.26,9.65a41.63,41.63,0,0,1-18.37,12.21s-2.62.87.06-.76,5.92-5.58,6.1-5.75,4.07-3.14,5.23-3.78a74.22,74.22,0,0,0,12.32-11.57s1.74-1.74,1.17-2.21c0,0-.7-.52-1.57.59s-4.77,6-7.91,8.42-3.66,3.32-4.19,3.61c0,0-1.33.64.3-1.22a103.88,103.88,0,0,0,6.33-9.19c.58-1,.23-1.74,1.86-2.44s4.77-1.45,5.29-1.68,4-1,5.12-1.52Z"/><path id="path177" class="cls-5" d="M205.59,225s-1,2.67-1.51,4.47-2.5,2.44-6.28,9.42a5.19,5.19,0,0,1-2.2,2.15c-1.57.81-3.14.87-4,1.39,0,0-1.62.94.18-.64s5.23-6.16,8.37-9c0,0,1.1-.88.52-1.4,0,0-.58-.41-1.33.52s-6,6.22-6.4,6.86c0,0-1.16,1.17-.29-.34s1.28-3.43,2.09-4.65a14.76,14.76,0,0,1,4.42-4.25,60,60,0,0,0,6.39-4.53Z"/><path id="path179" class="cls-3" d="M209.57,176.39a4,4,0,1,0,4-4,4,4,0,0,0-4,4Z"/><path id="path181" class="cls-5" d="M162.58,255.87c1,1.74,1.11,5.35,1.11,6s.05.75,1,.69,6.22-2.32,8.84-4.47a40.85,40.85,0,0,0,7-8.66c1-1.75,2.68-5,2.68-5-1,.35-4.54,1.68-9.71,3.66a45.48,45.48,0,0,0-9.88,5.58s-2,.47-1,2.21Zm1.66,4.18c.26-.32,2.08-1.68,7.2-5.39a55.16,55.16,0,0,0,6.65-6.31.56.56,0,0,1,.79,0,.54.54,0,0,1,0,.78,54.35,54.35,0,0,1-6.83,6.48c-2,1.44-6.62,4.8-7,5.2a.56.56,0,0,1-.78,0,.54.54,0,0,1-.07-.76Z"/><path id="path183" class="cls-5" d="M171.88,262.38a40.29,40.29,0,0,1,6.8,2.62,3.25,3.25,0,0,0,2.27.58c1-.06,14.76-.29,16-.58s1.92-.53,3.14.4,6.16,5.58,11.69,5.52c0,0,1-.35.17-.93s-5.81-6.27-6.28-8.48-1.57-5.93-4.59-5.82-8.78,2.85-16.56,3.2-9.19.06-9.19.06a26.37,26.37,0,0,1-3.78,2.79s-.64.52.35.64Zm7.09-.21a.56.56,0,0,1,.33-.72c3.3-1.25,8.38-2.07,15.1-2.42a12.17,12.17,0,0,1,8.1,2.15l.42.26a7.82,7.82,0,0,1,2.8,4.1.56.56,0,0,1-.38.69.56.56,0,0,1-.69-.39s-.72-2.48-2.31-3.45l-.43-.27a11.07,11.07,0,0,0-7.45-2c-6.51.33-11.62,1.15-14.76,2.34a.56.56,0,0,1-.73-.32Z"/><path id="path185" class="cls-5" d="M177.34,257.09c14.94,0,23.6-1.92,35.35-18,0,0-14.19,1.45-21.74,5.58s-7.85,4.53-9.54,6.86-3.66,5.29-4.07,5.58Zm5.2-3.06a.56.56,0,0,1,.54-.58h.3c1.53-.05,4.1-.13,8.91-2.27,5.09-2.26,11.76-8.16,11.83-8.22a.56.56,0,1,1,.74.84c-.28.25-6.87,6.07-12.12,8.4-5,2.23-7.71,2.32-9.33,2.37h-.29a.56.56,0,0,1-.58-.54Z"/><path id="path187" class="cls-5" d="M183.74,242.21c2.15-1,2.56-.53,2.56-.12a6.93,6.93,0,0,1-1,2.85c-.58.76-.12.76.52.29s1.1-.35,2.62-2.73,4.18-8.95,4.82-10.23,3.43-13.19,4.3-15.46a64.86,64.86,0,0,0-15.87,25.92s-.11.47,2-.52Zm2.67-3.72c.06-1.51,1.63-4.65,2.1-6s4.12-8.77,4.12-8.77c.64-1.4,1-1.17,1-1.17a1.32,1.32,0,0,1-.29,1.17c-.18.29-.82,2.38-1.34,3.25s-1.86,4.47-2.55,5.93-1.92,4.47-2.51,5.64-.52-.06-.52-.06Z"/><path id="path189" class="cls-5" d="M199.32,239.59s6,.41,14.06-7.61,12.15-13,17.56-23.89c0,0-9.94,3.95-19.3,15.23s-7.73,10.06-12.32,16.27Zm7.48-6.37c1.15-4,5.54-8.78,8.17-11.63l.67-.74c2.32-2.55,6.66-6.39,6.85-6.55a.56.56,0,1,1,.74.83s-4.48,4-6.76,6.47l-.68.74c-2.39,2.6-6.84,7.45-7.91,11.19a.55.55,0,0,1-.69.38.56.56,0,0,1-.39-.69Z"/><path id="path191" class="cls-5" d="M202.05,223.43c0,2.85.7,1.46.7,1.46a27.11,27.11,0,0,1,5-3.14c.29.29-.18,2.67-.18,2.67,4.19-9.13,2.67-30.4,2.67-30.4-9.35,13.14-8.19,26.57-8.19,29.41Zm2.87-6.28c.17-12.35,1.9-14,2.24-14.24a.53.53,0,0,1,.71.15.58.58,0,0,1-.07.76c-.07.06-1.61,1.66-1.77,13.34a.56.56,0,0,1-1.11,0Z"/><path id="path193" class="cls-5" d="M207,189.08a6.05,6.05,0,0,0,2.44-.11,5.79,5.79,0,0,1,3,.17c.41.12,9-.17,9.65,10.75a25.88,25.88,0,0,1-.93,7.85c-1.16,4.07-.81,5.12-.81,5.12s4.94-4.3,6.92-5.06a16.44,16.44,0,0,0-.24-4.07,29.91,29.91,0,0,1-.52-5.93c.06-1.22.35-5.46-.87-8s-3.55-6.39-7.62-6.34-9.88,4.83-11,5.64Zm6.54-1.69a.47.47,0,0,1,.26-.6,8.35,8.35,0,0,1,6.13.19c2.74,1.31,4.4,5.25,4.9,7.15.35,1.36.36,8.65.36,9.48a.47.47,0,1,1-.93,0,90.82,90.82,0,0,0-.33-9.24c0-.05-1.36-5.1-4.4-6.56a7.5,7.5,0,0,0-5.38-.16.46.46,0,0,1-.61-.26Z"/><path id="path195" class="cls-5" d="M241.66,155.7a4.22,4.22,0,0,0,.26-.68c.24-.93,1.4-5.23,1.57-5.81s.87-4.42.87-4.94.24-1.69-.05-1.86c0,0-.47-.35-.82,1.63s-1,5.46-1.28,6.27-1.16,4-1.45,5.06c0,.11,0,.22-.08.33h-1.87c0-12.07,7.64-22.71,7.64-22.71a93.8,93.8,0,0,1-.83,22.71Z"/><path id="path197" class="cls-5" d="M225.72,155.7A12.26,12.26,0,0,1,224,153c-.52-1.4-1.22-2.74-1.45-3.49s-.82-1.86-1.1-1.69-.53.47.4,2.44c.82,1.75,2,4.44,2.62,5.45H222a26.69,26.69,0,0,1-2.7-8c-.11-1.11-1-6.86-1-6.86.29,1.33,4.42,6.16,10,12a18.58,18.58,0,0,1,2.29,2.89Z"/><path id="path199" class="cls-5" d="M242.82,165.16a21.65,21.65,0,0,1-2.7,4.51c0-.51.23,1.33-.44-4.51Z"/><path id="path201" class="cls-5" d="M236.81,196s12.32-7.09,12.49-25.58a30.85,30.85,0,0,0-.36-5.26H244.8c-.35,1.6-1.49,4.11-4.8,7.47a1,1,0,0,0-.87,1.11c.12.92.53,16.21-2.32,22.26Zm4.3-12.21a20,20,0,0,0,3-5.29,26.17,26.17,0,0,0,1.69-8.08s-.12-.75.23-.75c0,0,.4.17.4,1.34a23.1,23.1,0,0,1-1,7,20.76,20.76,0,0,1-3.95,6.51.86.86,0,0,1-.7,0c-.29-.18.06-.46.29-.7Z"/><path id="path203" class="cls-5" d="M225.84,165.16a28.82,28.82,0,0,0,2.42,3.52c2.1,2.79,2.1,4,2.74,5.46s.17,2,.17,2c-1.68,2.5-2.5,7-2.5,7-.41.24-1-1.57-1.16-2.15s-1.16-4.12-1.74-5.46-1.4-4.13-1.69-4.94-.81-1.63-1.28-1.69-.46.82-.23,1.34S224,174,224.31,175s1.17,3,1.34,4,1.51,4,1.86,5.35a3.7,3.7,0,0,1,.11,2.5,21.07,21.07,0,0,0-.34,3c-.24-1.57-1.11-2.91-3.2-6.22a45.7,45.7,0,0,1-4.3-9.42c-.41-1.45-.18-2.27-.93-4.65a40.75,40.75,0,0,1-1-4.34h8Z"/><path id="path205" class="cls-5" d="M228.07,165.16h5.71c.09.81.13,1.38.18,1.6.23.93.93,1.57.41,3.6s-4-2.5-4-2.5c-.84-.92-1.58-1.82-2.29-2.7Z"/><path id="path207" class="cls-5" d="M230.1,128.88a69.24,69.24,0,0,0,2.79,14.57c.78,2.1,2.48,6.36,2.48,7.68,0,0,.16.85.7-1.55a49.94,49.94,0,0,1,3.41-8.92c.62-.93,1-5.73.47-9.84s-2.87-11.55-3.1-13.72-1-7.36-1.25-7.9a72.37,72.37,0,0,1-2.63,7c-1.24,2.64-3.33,6.67-2.87,12.63Zm4.85-10s.52-.64,1,1.23a45.78,45.78,0,0,1,1.22,8c0,1.51.3,10.23-.75,13.13,0,0-.29,1.52-.81,1.22s0-1,.17-1.56.58-7.62.52-8.55.18-5.93-.46-8.6c-.64-4.13-1.51-4.59-.93-4.83Z"/><path id="path209" class="cls-5" d="M209.72,103.54A128.08,128.08,0,0,1,216,117.18c1.94,5.5,6.51,10.62,8.37,12.32a36.8,36.8,0,0,0,3.72,2.95s-.31-4.42-.62-6.82-1.47-7.13-3.95-9.77-5.27-6.74-13.8-12.32Zm6.57,8.12c.29-.23,1,.69,1.28,1.39s3.37,4.77,4.24,6.63,2.73,4.36,3.37,5.58.35,1.39.35,1.39c-.41,1-2.62-3.25-2.62-3.25s-4.41-7.32-5.46-8.84-1.45-2.67-1.16-2.9Z"/><path id="path211" class="cls-5" d="M195.77,77.89c3.41,4.26,6.2,10.54,8.6,14.1,6.2,8.45,15.74,15,15.74,15-.31-1.24-2-8.06-2.17-11.08s-1.09-3.41-1.09-3.41c-5.19-8.92-21.08-14.57-21.08-14.57ZM201,84.4c.12-.35.53-.29,1.86.34a19,19,0,0,1,5.23,3.73,53.41,53.41,0,0,1,5.58,7.38c1,1.8.35,1.45.35,1.45a2.47,2.47,0,0,1-1.16-1c-.35-1.1-3.9-5.34-5.41-7a17.7,17.7,0,0,0-5.11-3.84c-1.16-.46-1.34-1-1.34-1Z"/><path id="path213" class="cls-5" d="M225,114.08s3.33,6,3.41,8c0,0,.15,1.09.62-.54,0,0,1.7-8.45,1.63-12.63a23,23,0,0,0-3.73-12.4,134.94,134.94,0,0,1-7.28-11.78A59.91,59.91,0,0,0,225,114.08ZM222.1,93.49s.24-.52.74,1.58,2.83,8.86,3,9.79,1.87,6.35,2,6.82.52,1.23,0,1.28-.85-1.52-1.14-1.93a36.41,36.41,0,0,1-1.35-4.84c-.11-.58-1.59-4.6-1.81-5.48s-2.43-8.39-1.45-7.22Z"/><path id="path215" class="cls-5" d="M229.19,206.75c2.21-.17,11.28-18.54,7.91-37.31,0,0-7.33,10.92-7.85,18.07-.81,7.68-1.28,10.46-.06,19.24Zm3-13.83c.11-.35.52-4.24.52-4.65s.41-3.49.47-3.84-.35-2.21.46-3c0,0,.64-.41.46,2s-.29,3-.35,3.78-.29,3.25-.46,4.36-.23,2.61-.58,2.9-.64-1.27-.52-1.62Z"/><rect id="rect217" class="cls-6" x="122.52" y="70.98"/><polygon id="rect219" class="cls-6" points="144.55 70.98 144.55 70.98 144.55 70.98 144.55 70.98"/><path id="path221" class="cls-4" d="M138.43,21.71a.76.76,0,0,0,.54.51l.62.05c8.81.41,15,2.86,18,7.08,2.24,3.17,2.6,7.36,1,12.44a.47.47,0,0,0,.32.58.46.46,0,0,0,.58-.31,21,21,0,0,0,1-6,12.13,12.13,0,0,0-2.17-7.21c-3.08-4.37-9.38-6.9-18.17-7.41,13.31-4.76,23.41,7.2,23.51,7.33a.45.45,0,0,0,.3.16c.1,0,9.94,1.43,15.15,8.81,3.1,4.38,4,10,2.62,16.65a3.28,3.28,0,0,0-2.29,1.3,3.88,3.88,0,0,1-.48.51,27.45,27.45,0,0,0-.3-10.71c-1.5-6.44-6.72-11.75-10.65-13-.15-.06-.91-.37-1.39.08s-.2,1.44-.09,1.74c.6,1.67.85,8-2.6,11.46,0,0,0,0,0,0a1.46,1.46,0,0,0-1.54-.75,8,8,0,0,1-2,0l-.18-.17a4.36,4.36,0,0,0-2.49-1.39,3,3,0,0,0-.43,0,23,23,0,0,0,.27-4.5c0-6.34-2.33-10.48-7.56-13.42a24.54,24.54,0,0,0-11.94-2.76,3.34,3.34,0,0,1,.37-1.05Z"/><path id="path223" class="cls-4" d="M149.83,49.23a1.44,1.44,0,0,1,.3-1l.49-.14a6.53,6.53,0,0,1,1.88,1.19A8.16,8.16,0,0,0,155,50.79a1,1,0,0,0,.88-.22c.7-.63.65-2.33.34-4.87-.07-.6,0-.94.17-1.12a1.7,1.7,0,0,1,1.23-.24,3.72,3.72,0,0,1,1.94,1.14l.39.33c.35.17.47.17,2.49.1.26,0,.58,0,.67.22.17.36-.2,1.17-.45,1.45a9.8,9.8,0,0,0-2,3.64,1.48,1.48,0,0,0,.21,1.34,1.83,1.83,0,0,0,1.51.51c.07,0,1.05-.29,1.05-.29l2.14-.59a1.54,1.54,0,0,1,1.71.9.77.77,0,0,1,0,.15c0,1-1.41,1.6-1.43,1.6s-1.33.32-1.33,1.14v.1a3.42,3.42,0,0,1,.09.76,2.47,2.47,0,0,1-.48,1.53,1.3,1.3,0,0,1-.91.57c-1.53.09-4.27-3.06-4.68-3.83A3.22,3.22,0,0,0,157.47,54a.79.79,0,0,0-.22-.18,1.08,1.08,0,0,0-.21-.05,2.13,2.13,0,0,0-1.68-.08,22.85,22.85,0,0,1-5.38.9,1.67,1.67,0,0,1-1.2-.5,1,1,0,0,1-.22-.79,3.48,3.48,0,0,1,1-1.7l.41-.53v-1l-.13-.82Z"/><path id="path225" class="cls-4" d="M125.21,49.41l-.26-.34c-.37-.69-.62-1.22-.34-1.78a1.68,1.68,0,0,1,1-1,2.92,2.92,0,0,1,2.28.48c.72.4,1.43.71,1.9.36s.28-1,.15-1.43l-.07-.33-.27-1A10.42,10.42,0,0,1,129,41a.86.86,0,0,1,.35-.69A2.18,2.18,0,0,1,130.4,40h0a4.57,4.57,0,0,1,1.12.12l1.67.56a.77.77,0,0,0,.37,0l1.67-.56a4.66,4.66,0,0,1,1.13-.12h0a2.11,2.11,0,0,1,1.08.29.89.89,0,0,1,.36.69,11,11,0,0,1-.66,3.45l-.27,1-.08.33c-.12.48-.28,1.09.16,1.43s1.18,0,1.88-.35a3,3,0,0,1,2.3-.49,1.66,1.66,0,0,1,1,1c.29.58,0,1.11-.33,1.8l-.26.34a1.84,1.84,0,0,0-.5,1.51l.56,1.39a1.21,1.21,0,0,1,.37.93c0,.7-.23,1.16-1.39,1.16a7.36,7.36,0,0,1-4.17-1.6,6.14,6.14,0,0,0-3-1.31,6.22,6.22,0,0,0-3,1.31,7.35,7.35,0,0,1-4.15,1.6c-1.17,0-1.41-.46-1.41-1.16a1.23,1.23,0,0,1,.37-.93l.56-1.39a1.82,1.82,0,0,0-.5-1.51Z"/><path id="path227" class="cls-4" d="M131.17,20.5a6,6,0,0,0,4.42,0,6.59,6.59,0,0,0-.09,1.09,11.68,11.68,0,0,0,.12,1.58c0,.12,2.1,10.16,2.1,13.1v1a2.32,2.32,0,0,1-.45,1.4,1.16,1.16,0,0,1-.91.35h0a5.17,5.17,0,0,0-1.34.14l-1.63.54-1.63-.54a5.17,5.17,0,0,0-1.34-.14h0a1.15,1.15,0,0,1-.91-.35,2.36,2.36,0,0,1-.45-1.4v-1c0-3,2.07-13,2.09-13.09a10.09,10.09,0,0,0,.13-1.59,5.66,5.66,0,0,0-.09-1.09Z"/><path id="path229" class="cls-4" d="M137.81,20.25a1,1,0,0,1-.05.79,4.38,4.38,0,0,0-.67,2.16s0,.05,0,.08l0,0a3.39,3.39,0,0,0-.05.47,9.15,9.15,0,0,0,.4,2.55l.76,2.33a19.62,19.62,0,0,1,1.39,7.3,9.64,9.64,0,0,1-.78,4.15,20.19,20.19,0,0,1-.14-2.74,4.17,4.17,0,0,0,0-.59v-.51c0-3-2-12.85-2.11-13.27a9.82,9.82,0,0,1-.11-1.4,2.77,2.77,0,0,1,.3-1.53.22.22,0,0,1,.2-.09c.45,0,.76.09.88.27Z"/><path id="path231" class="cls-4" d="M128,14.64A5.35,5.35,0,1,1,133.38,20,5.35,5.35,0,0,1,128,14.64Z"/><path id="path233" class="cls-4" d="M129,20.25c.12-.18.43-.28.89-.28a.23.23,0,0,1,.19.1,2.71,2.71,0,0,1,.3,1.52,8.94,8.94,0,0,1-.11,1.43c-.08.39-2.11,10.21-2.11,13.25v.53a4.78,4.78,0,0,0,0,.56,20.36,20.36,0,0,1-.14,2.75,9.46,9.46,0,0,1-.79-4.15,19.86,19.86,0,0,1,1.39-7.3l.76-2.33a8.69,8.69,0,0,0,.4-2.54c0-.18,0-.31,0-.48v0s0-.06,0-.09a4.61,4.61,0,0,0-.74-2.26h0a2.29,2.29,0,0,1-.05-.38.58.58,0,0,1,.07-.3Z"/><path id="path235" class="cls-4" d="M108.21,55.11c-.42.77-3.16,3.92-4.68,3.83a1.3,1.3,0,0,1-.92-.56,2.76,2.76,0,0,1-.4-2.25c.11-.94-1.15-1.26-1.4-1.31h0s-1.35-.61-1.35-1.58a.77.77,0,0,1,0-.15,1.56,1.56,0,0,1,1.71-.9l2.15.59,1,.29a1.94,1.94,0,0,0,1.58-.5,1.57,1.57,0,0,0,.21-1.35,9.83,9.83,0,0,0-2-3.64c-.25-.28-.61-1.09-.45-1.45.1-.19.42-.22.67-.21,2,.06,2.15.06,2.49-.11l.4-.33a3.61,3.61,0,0,1,1.93-1.13,1.65,1.65,0,0,1,1.23.23,1.2,1.2,0,0,1,.19,1c-.32,2.67-.37,4.37.32,5a1,1,0,0,0,.88.22,8.16,8.16,0,0,0,2.52-1.53,6.53,6.53,0,0,1,1.88-1.19l.49.14a1.44,1.44,0,0,1,.3,1l-.13.83v1l.41.52a3.57,3.57,0,0,1,1,1.7,1,1,0,0,1-.22.8,1.71,1.71,0,0,1-1.2.49,22.93,22.93,0,0,1-5.39-.9,2.22,2.22,0,0,0-1.68.08l-.21.05a1.46,1.46,0,0,0-.22.18,3.28,3.28,0,0,0-1.08,1.12Z"/><path id="path237" class="cls-4" d="M87.6,37.71c5.21-7.38,15.05-8.8,15.15-8.81a.51.51,0,0,0,.3-.17c.1-.12,10.2-12.08,23.51-7.32-8.79.51-15.09,3-18.17,7.41A12.13,12.13,0,0,0,106.22,36a21,21,0,0,0,1,6,.47.47,0,0,0,.58.31.46.46,0,0,0,.31-.58c-1.54-5.08-1.18-9.27,1.06-12.44,3-4.22,9.21-6.67,18-7.08l.62-.05a.78.78,0,0,0,.54-.51,3.72,3.72,0,0,1,.37,1.05,24.57,24.57,0,0,0-11.94,2.75c-5.23,2.94-7.56,7.09-7.56,13.43a23.07,23.07,0,0,0,.27,4.5,3,3,0,0,0-.43,0,4.36,4.36,0,0,0-2.49,1.39l-.2.18a9.77,9.77,0,0,1-2,0,1.46,1.46,0,0,0-1.54.75.07.07,0,0,1,0,.05c-3.45-3.42-3.2-9.79-2.6-11.45.11-.31.45-1.25-.08-1.75a1.36,1.36,0,0,0-1.4-.07c-3.93,1.2-9.15,6.5-10.64,13a27.26,27.26,0,0,0-.31,10.7,3.26,3.26,0,0,1-.48-.51A3.3,3.3,0,0,0,85,54.36c-1.35-6.67-.48-12.27,2.62-16.65Z"/><path id="path239" class="cls-4" d="M166.08,85.1l-.47.39-.6-.06c-14.09-7.6-30.78-7.68-31.48-7.68s-17.38.08-31.47,7.68l-.6.06-.47-.38-.06-.61.38-.47c14.6-7.86,31.51-7.87,32.22-7.86h0c.72,0,17.64,0,32.23,7.86a.79.79,0,0,1,.32,1.07Z"/><path id="path241" class="cls-4" d="M164.54,82.38c-14.38-7.11-30.29-7.15-31-7.14s-16.61,0-31,7.14c-.37-5.06-4-9.71-5.2-11.15,16.46-7,35.38-7,36.2-7s19.75.09,36.21,7c-1.23,1.44-4.83,6.09-5.2,11.15Z"/><path id="path243" class="cls-4" d="M172.77,70.7a.79.79,0,0,1-1,.39c-17-7.75-37.34-7.84-38.2-7.84s-21.19.09-38.18,7.84l-.61,0-.44-.41a.79.79,0,0,1,.39-1c17.49-8,38-8,38.84-8h0c.86,0,21.36,0,38.85,8a.79.79,0,0,1,.39,1Z"/><path id="path245" class="cls-3" d="M98.29,67.14a6.88,6.88,0,0,0,1.51-2.52,14.43,14.43,0,0,0,4.5.48c-2,.6-4,1.27-6,2Z"/><path id="path247" class="cls-3" d="M108,64.09a7.13,7.13,0,0,0,3.39-4.31l0,0c.74.92,3.51,2.19,5.19,2.49-2.73.45-5.63,1-8.62,1.79Z"/><path id="path249" class="cls-3" d="M119.26,61.89a7.16,7.16,0,0,0,2.64-2.45c.08-.12.23-.27.32-.27l.41.31.43.36a7,7,0,0,0,2.85,1.28c-2,.17-4.2.42-6.65.77Z"/><path id="path251" class="cls-3" d="M129.74,60.86a7.27,7.27,0,0,0,3.64-2.81,7.19,7.19,0,0,0,3.6,2.79c-2-.1-3.25-.1-3.45-.1s-1.59,0-3.79.12Z"/><path id="path253" class="cls-3" d="M140.93,61.1a7,7,0,0,0,2.78-1.26l.42-.36.41-.31c.09,0,.24.15.32.27a7.5,7.5,0,0,0,2.5,2.38c-2.37-.33-4.55-.56-6.43-.72Z"/><path id="path255" class="cls-3" d="M150.31,62.27c1.68-.33,4.33-1.56,5.05-2.46l0,0A7.14,7.14,0,0,0,158.61,64c-2.88-.71-5.68-1.27-8.3-1.7Z"/><path id="path257" class="cls-3" d="M162.8,65.11a14.92,14.92,0,0,0,4.16-.49A6.9,6.9,0,0,0,168.32,67c-1.84-.69-3.69-1.31-5.52-1.85Z"/><path id="path259" class="cls-4" d="M193.14,63.15l-.59.21a1,1,0,0,1-1.15-1,1.74,1.74,0,0,0-1.8-1,8.35,8.35,0,0,0-3.52,1.8s-1.53,1.32-2.92.89l-.08,0A.93.93,0,0,1,183,64a1.75,1.75,0,0,1-.93-1.28,4.12,4.12,0,0,0-1.6-2.5c-.34,0-.48,0-.48.42a1,1,0,0,0,.38.76s1.27,1.6.59,2.93l-.57.75c-1,1.37-2.38,3.43-6.69,3.29-5.07-.15-5.92-4.21-6-4.38a.43.43,0,0,0-.22-.32.5.5,0,0,0-.38,0s-4.48,1.45-7.76-.25a6.21,6.21,0,0,1-3.07-3.79.94.94,0,0,0-.56-.88c-.52-.17-.95.36-1.09.54a10.63,10.63,0,0,1-5.14,2.21c-1.11,0-2.36-.39-3.87-2.52a1.43,1.43,0,0,0-1.09-.68l-1,.56-.4.34a6.13,6.13,0,0,1-4.05,1.2A6.31,6.31,0,0,1,133.78,57s-.06,0-.1-.07,0-.08-.07-.1h-.06a.5.5,0,0,0-.17,0,.47.47,0,0,0-.17,0h-.06s-.05.07-.08.1-.07,0-.1.07a6.3,6.3,0,0,1-5.25,3.38,6.17,6.17,0,0,1-4.06-1.2l-.39-.34-1-.56a1.46,1.46,0,0,0-1.1.68c-1.51,2.13-2.75,2.47-3.87,2.52a10.81,10.81,0,0,1-5.14-2.21c-.14-.18-.57-.71-1.09-.54a.94.94,0,0,0-.55.88,6.22,6.22,0,0,1-3.08,3.79c-3.28,1.7-7.71.27-7.76.25a.51.51,0,0,0-.38,0A.46.46,0,0,0,99,64c0,.17-.89,4.23-6,4.38-4.32.14-5.75-1.92-6.7-3.29l-.56-.75c-.68-1.33.59-2.93.59-2.93a1,1,0,0,0,.38-.76c0-.46-.15-.42-.48-.42s-1.41,1.41-1.61,2.5A1.77,1.77,0,0,1,83.77,64l-.09.05-.09,0c-1.38.44-2.9-.87-2.92-.88a8.24,8.24,0,0,0-3.52-1.8,1.72,1.72,0,0,0-1.79,1,1.06,1.06,0,0,1-1.16,1l-.59-.2a1.11,1.11,0,0,1-.17-.78c.31-3.36,4.4-3.21,4.57-3.2l3.2.28a.53.53,0,0,0,.41-.15.46.46,0,0,0,.13-.4c-.22-1.11-.35-2.9.07-3.38.19-.22.19-.22.53-.13a2.83,2.83,0,0,0,1.87,0,2.1,2.1,0,0,1,2.27.8,5.66,5.66,0,0,0,3.82,2.12,2.06,2.06,0,0,1,1.58,1,2.57,2.57,0,0,1,.36,1.84c-.11.28-.3.46-.85.56l-.06,0c-1.83.09-3.13-1.94-3.61-2.71l-.23-.35a2,2,0,0,0-2-1.13,3,3,0,0,0-2.11.83l-.53,1.32A1.57,1.57,0,0,0,84,61.21a.47.47,0,0,0,.55-.35.49.49,0,0,0-.34-.56c-.07,0-.4-.13-.42-.68l.27-.64a2,2,0,0,1,1.44-.55,1.11,1.11,0,0,1,1.19.7l.12.18A9.59,9.59,0,0,0,89,61.8a3.8,3.8,0,0,0-1.48.44.66.66,0,0,0-.48.34.92.92,0,0,0,.19,1,1.23,1.23,0,0,1,.27.92c0,.94,2.54,2.93,5.22,2.93,3.13,0,5.52-1.86,5.81-4.54l.22-1.74a.08.08,0,0,0,.06,0c.4,1,3.26,2.34,5.91,2.23a5.11,5.11,0,0,0,3.74-1.59,5.65,5.65,0,0,0,1.31-3.93c0-.2,0-.4,0-.61,0-.37,0-.7,0-1a2.94,2.94,0,0,1,.26-1.56l.07,0h0c.09,0,.31.21.5.85.49,1.68,4.3,4.95,6.47,4.75a4.92,4.92,0,0,0,4.24-2.6,4.42,4.42,0,0,1,.77-1.26.47.47,0,0,1,.29.18c.12.25,2.34,2.94,5,2.81,2.54-.13,5.34-2.38,5.78-6.46a2.25,2.25,0,0,1,.08-.49l.16,0,.16,0a2.36,2.36,0,0,1,.07.49c.44,4.08,3.25,6.33,5.79,6.46,2.69.13,4.9-2.56,5-2.81a.44.44,0,0,1,.29-.18,4.24,4.24,0,0,1,.76,1.26,5,5,0,0,0,4.25,2.6c2.16.2,6-3.07,6.47-4.75.19-.64.41-.81.5-.85h0l.08,0a2.94,2.94,0,0,1,.26,1.56,9,9,0,0,1,0,1c0,.21,0,.42,0,.61a5.65,5.65,0,0,0,1.3,3.93,5.15,5.15,0,0,0,3.75,1.59c2.65.11,5.51-1.28,5.91-2.23l.06,0c0,.4.21,1.74.21,1.74.29,2.68,2.68,4.54,5.81,4.54,2.69,0,5.24-2,5.23-2.93a1.17,1.17,0,0,1,.26-.92.93.93,0,0,0,.2-1,.67.67,0,0,0-.49-.34,3.55,3.55,0,0,0-1.47-.44,9.33,9.33,0,0,0,2.12-2.49l.12-.18a1.13,1.13,0,0,1,1.2-.7,2,2,0,0,1,1.44.55l.27.64c0,.55-.35.67-.42.68a.48.48,0,0,0-.34.56.46.46,0,0,0,.54.35,1.56,1.56,0,0,0,1.15-1.56l-.53-1.32a3,3,0,0,0-2.11-.83,2,2,0,0,0-2,1.13L179,59c-.49.77-1.78,2.8-3.62,2.71l0,0c-.55-.09-.74-.28-.85-.56a2.57,2.57,0,0,1,.36-1.84,2,2,0,0,1,1.58-1,5.63,5.63,0,0,0,3.82-2.12,2.09,2.09,0,0,1,2.26-.8,2.85,2.85,0,0,0,1.88,0c.34-.09.34-.09.53.13.42.48.29,2.27.07,3.38a.49.49,0,0,0,.13.4.51.51,0,0,0,.41.15l3.19-.28c.18,0,4.27-.16,4.58,3.2a1,1,0,0,1-.16.78Z"/><path id="path261" class="cls-3" d="M117.75,33.88c2.53-.11,5-1.74,7.14-2.09.64-.06,1.87-.4,1.81-.17a19.48,19.48,0,0,0-.45,4.34c0,3.89,1.36,5.51,1.83,6a15.68,15.68,0,0,0,.65,2.75l.24.86.09.41.06.34-.75-.31a3.75,3.75,0,0,0-3-.56,2.59,2.59,0,0,0-1.58,1.48,2.73,2.73,0,0,0,.36,2.62l.4.53c.16.18.25.27.25.87l-.34.8a2.1,2.1,0,0,0-.59,1.53c0,.95.4,2.09,2.32,2.09a8.24,8.24,0,0,0,4.67-1.75,12.33,12.33,0,0,1,1.4-.82.36.36,0,0,0,0,.11c-.39,3.53-2.76,5.49-4.91,5.6s-4-2-4.16-2.32a1.34,1.34,0,0,0-1.22-.65c-.18,0-.71,0-1.48,1.74a4,4,0,0,1-3.51,2.1c-1.55.15-5.07-2.66-5.5-4.08a2.92,2.92,0,0,0-.28-.69,23.06,23.06,0,0,0,5.67.93,2.57,2.57,0,0,0,1.86-.81,1.94,1.94,0,0,0,.44-1.5A4.25,4.25,0,0,0,117.9,51l-.27-.33.07-.36.15-1.05a2.32,2.32,0,0,0-.59-1.7l-1.18-.39a5.61,5.61,0,0,0-2.39,1.38,7.91,7.91,0,0,1-2.16,1.36h0c-.15-.08-.46-.65,0-4.07a2.17,2.17,0,0,0-.42-1.88,1.6,1.6,0,0,0-.53-.29.33.33,0,0,0,0-.13c0-.06-.32-.65-.32-4.57a18,18,0,0,1,.57-4.78c3.56-2,5.59-.16,7-.28Z"/><path id="path263" class="cls-3" d="M88,63a3.44,3.44,0,0,1,1.9-.33c1.59,0,2.81-.06,3.27-1.22a3.41,3.41,0,0,0-.44-2.66,3,3,0,0,0-2.27-1.46,4.85,4.85,0,0,1-1.56-.46,23.8,23.8,0,0,1-.56-5.35A26.07,26.07,0,0,1,89,45.67a16.27,16.27,0,0,1,.79-2.48,14.39,14.39,0,0,1,4.92.29,20.76,20.76,0,0,1,4.41-3.57,11.32,11.32,0,0,0,3.58,7s.07,0,.11,0a3.22,3.22,0,0,0,.62,1.22,9,9,0,0,1,1.81,3.22.7.7,0,0,1,0,.56c-.13.16-.56.16-.79.16-.06,0-.69-.21-.69-.21l-2.41-.66a2.54,2.54,0,0,0-2.69,1.52v.07a1.87,1.87,0,0,0,0,.4c0,1.6,1.92,2.41,2,2.44a1.83,1.83,0,0,1,.75.33,3.88,3.88,0,0,0-.09.82,3.45,3.45,0,0,0,.67,2.09,2.22,2.22,0,0,0,1.61.93c1.93.12,4.43-2.74,5.28-3.91a10.53,10.53,0,0,0,0,1.33,5.12,5.12,0,0,1-1.06,3.85,4.28,4.28,0,0,1-3.09,1.28,7.48,7.48,0,0,1-5.07-1.66.74.74,0,0,0-.42-.51.92.92,0,0,0-.81,0c-.49,0-.49,0-.77,2.52s-2.66,3.71-4.89,3.71a6.08,6.08,0,0,1-4.3-1.9v-.27A2.09,2.09,0,0,0,88,63Z"/><path id="path265" class="cls-3" d="M156.06,34.16a18,18,0,0,1,.57,4.78c0,3.92-.3,4.52-.33,4.57s0,.09,0,.13a1.55,1.55,0,0,0-.52.29,2.17,2.17,0,0,0-.43,1.88c.42,3.42.11,4,0,4.07h0a8.09,8.09,0,0,1-2.17-1.36,5.61,5.61,0,0,0-2.39-1.38l-1.17.39a2.33,2.33,0,0,0-.6,1.7l.16,1.05s.06.37.07.36l-.28.33a4.31,4.31,0,0,0-1.22,2.22,2,2,0,0,0,.43,1.5,2.6,2.6,0,0,0,1.86.81,23.06,23.06,0,0,0,5.68-.93,3.41,3.41,0,0,0-.29.69c-.42,1.42-3.94,4.23-5.49,4.08a4,4,0,0,1-3.52-2.1c-.76-1.73-1.29-1.73-1.47-1.73a1.34,1.34,0,0,0-1.22.64c-.18.29-2.09,2.42-4.16,2.32s-4.52-2.07-4.9-5.6c0,0,0-.07,0-.11a12.33,12.33,0,0,1,1.4.82,8.17,8.17,0,0,0,4.67,1.75c1.92,0,2.32-1.14,2.32-2.09a2.08,2.08,0,0,0-.59-1.53l-.34-.8c0-.6.09-.69.25-.87l.39-.53a2.7,2.7,0,0,0,.37-2.62,2.55,2.55,0,0,0-1.58-1.47,3.77,3.77,0,0,0-3,.55l-.75.31c0-.16.07-.34.07-.34l.09-.41.24-.86a15.46,15.46,0,0,0,.65-2.75c.47-.45,1.83-2.06,1.83-6a19.55,19.55,0,0,0-.45-4.34c-.06-.23,1.17.11,1.81.17,2.09.35,4.61,2,7.15,2.1,1.45.11,3.48-1.75,7,.27Z"/><path id="path267" class="cls-3" d="M178.36,64.32a1.55,1.55,0,0,0,0,.22v0a6.06,6.06,0,0,1-4.3,1.9c-2.23,0-4.6-1.14-4.88-3.71s-.28-2.54-.77-2.51c.09,0-.38-.21-.81,0a.72.72,0,0,0-.43.52,7.47,7.47,0,0,1-5.07,1.65A4.24,4.24,0,0,1,159,61.14,5.12,5.12,0,0,1,158,57.29,10.33,10.33,0,0,0,158,56c.86,1.17,3.36,4,5.28,3.91a2.2,2.2,0,0,0,1.61-.93,3.45,3.45,0,0,0,.67-2.09,3.88,3.88,0,0,0-.09-.82,1.72,1.72,0,0,1,.76-.32c.08,0,2-.85,2-2.45a1.87,1.87,0,0,0,0-.4v-.07a2.53,2.53,0,0,0-2.69-1.52l-2.41.66s-.62.21-.69.21c-.23,0-.66,0-.79-.16a.79.79,0,0,1,0-.56,8.89,8.89,0,0,1,1.81-3.21A3.35,3.35,0,0,0,164,47s.08,0,.12,0a11.31,11.31,0,0,0,3.57-7,20.91,20.91,0,0,1,4.42,3.57,14.39,14.39,0,0,1,4.92-.29,16,16,0,0,1,.78,2.49,25.92,25.92,0,0,1,.66,5.88,24.78,24.78,0,0,1-.55,5.35,4.62,4.62,0,0,1-1.56.46,3,3,0,0,0-2.28,1.47,3.37,3.37,0,0,0-.43,2.65c.45,1.17,1.67,1.25,3.26,1.23a3.36,3.36,0,0,1,1.9.32,2.09,2.09,0,0,0-.44,1.28Z"/><path id="path269" d="M194.24,62.27c-.31-3.39-3.76-4.12-5.5-4l-2.73.24a9.56,9.56,0,0,0,.13-1.55,3.22,3.22,0,0,0-.5-2,1.22,1.22,0,0,0-1.49-.41,2,2,0,0,1-1.34,0l-.11,0a30,30,0,0,0,.63-5.87,19.32,19.32,0,0,0-3.41-11.42c-5.25-7.42-14.53-9-15.61-9.16-.82-1-11.48-12.95-25.57-7.07a1.54,1.54,0,0,0-.15-1.19,1.51,1.51,0,0,0-.89-.57,6.24,6.24,0,0,0-3.86-10.76V3.08h2.38V2.15h-2.38V0h-.93V2.15h-2.38v.93h2.38V8.42a6.24,6.24,0,0,0-3.85,10.76,1.45,1.45,0,0,0-.89.57,1.55,1.55,0,0,0-.17,1.18c-14.08-5.87-24.74,6.13-25.55,7.08-1.09.16-10.37,1.74-15.61,9.16a19.26,19.26,0,0,0-3.42,11.42,30,30,0,0,0,.63,5.87l-.11,0a1.93,1.93,0,0,1-1.33,0,1.22,1.22,0,0,0-1.49.41,3.22,3.22,0,0,0-.5,2,11,11,0,0,0,.12,1.55L78,58.24c-1.74-.09-5.19.64-5.5,4a2,2,0,0,0,.39,1.48,1.6,1.6,0,0,0,1.3.53,1.89,1.89,0,0,0,2-1.64c0,.15.28-.44.78-.34a7.22,7.22,0,0,1,3,1.58c.11.09,2.51,2.11,4.59.64l.5.43.48.64c.93,1.34,2.66,3.84,7.48,3.69.24,0,.42,0,.64-.07a1.73,1.73,0,0,0-.3,1.87l1,.9,1.31,0,.71-.31c.93,1.07,5,6,5.19,11.21l-.76.38-.83,1,.13,1.31,1,.84,1.31-.14c13.88-7.48,30.85-7.57,31-7.57s17.16.09,31,7.57l1.31.14,1-.84.14-1.31-.83-1-.76-.38c.18-5.16,4.26-10.14,5.19-11.21l.71.31a1.73,1.73,0,0,0,2.28-.85,1.75,1.75,0,0,0-.27-1.84,2.43,2.43,0,0,0,.3,0c4.82.15,6.55-2.35,7.48-3.69l.48-.64.5-.43c2.07,1.47,4.48-.55,4.59-.64a7.22,7.22,0,0,1,3-1.58c.5-.1.81.48.78.34a1.89,1.89,0,0,0,2,1.64,1.65,1.65,0,0,0,1.3-.53,2,2,0,0,0,.38-1.48ZM138.43,21.71a.76.76,0,0,0,.54.51l.62.05c8.81.41,15,2.86,18,7.08,2.24,3.17,2.6,7.36,1,12.44a.47.47,0,0,0,.32.58.46.46,0,0,0,.58-.31,21,21,0,0,0,1-6,12.13,12.13,0,0,0-2.17-7.21c-3.08-4.37-9.38-6.9-18.17-7.41,13.31-4.76,23.41,7.2,23.51,7.33a.45.45,0,0,0,.3.16c.1,0,9.94,1.43,15.15,8.81,3.1,4.38,4,10,2.62,16.65a3.28,3.28,0,0,0-2.29,1.3,3.88,3.88,0,0,1-.48.51,27.45,27.45,0,0,0-.3-10.71c-1.5-6.44-6.72-11.75-10.65-13-.15-.06-.91-.37-1.39.08s-.2,1.44-.09,1.74c.6,1.67.85,8-2.6,11.46,0,0,0,0,0,0a1.46,1.46,0,0,0-1.54-.75,8,8,0,0,1-2,0l-.18-.17a4.36,4.36,0,0,0-2.49-1.39,3,3,0,0,0-.43,0,23,23,0,0,0,.27-4.5c0-6.34-2.33-10.48-7.56-13.42a24.54,24.54,0,0,0-11.94-2.76,3.34,3.34,0,0,1,.37-1.05Zm35.21,39.78c.45,1.16,1.67,1.24,3.26,1.22a3.44,3.44,0,0,1,1.9.33,2.09,2.09,0,0,0-.44,1.28v.22a.2.2,0,0,1,0,0,6.08,6.08,0,0,1-4.3,1.9c-2.23,0-4.61-1.14-4.89-3.71s-.27-2.54-.76-2.51c.09,0-.39-.21-.81,0a.72.72,0,0,0-.43.52,7.47,7.47,0,0,1-5.07,1.65A4.24,4.24,0,0,1,159,61.14,5.07,5.07,0,0,1,158,57.29,10.33,10.33,0,0,0,158,56c.85,1.17,3.36,4,5.29,3.91a2.25,2.25,0,0,0,1.6-.93,3.42,3.42,0,0,0,.67-2.1,4.67,4.67,0,0,0-.09-.81,1.5,1.5,0,0,1,.67-.3c.17-.06,2.09-.87,2.09-2.47a1.87,1.87,0,0,0,0-.4v-.07a2.54,2.54,0,0,0-2.69-1.52l-2.41.66-.63.21c-.29,0-.72,0-.85-.16a.79.79,0,0,1,0-.56,9,9,0,0,1,1.81-3.22A3.22,3.22,0,0,0,164,47s.08,0,.11,0a11,11,0,0,0,3.48-6.56,21,21,0,0,1,4.18,3.41.46.46,0,0,0,.46.12,14.27,14.27,0,0,1,4.75-.27l.21,0a17.77,17.77,0,0,1,.62,2,26.07,26.07,0,0,1,.66,5.89,23.8,23.8,0,0,1-.56,5.35,4.62,4.62,0,0,1-1.56.46,3,3,0,0,0-2.27,1.46,3.35,3.35,0,0,0-.43,2.66ZM88,63a3.44,3.44,0,0,1,1.9-.33c1.59,0,2.81-.06,3.27-1.22a3.41,3.41,0,0,0-.44-2.66,3,3,0,0,0-2.27-1.46,4.85,4.85,0,0,1-1.56-.46,23.8,23.8,0,0,1-.56-5.35A26.07,26.07,0,0,1,89,45.67a20,20,0,0,1,.61-2l.22,0a14.27,14.27,0,0,1,4.75.27A.46.46,0,0,0,95,43.8a21,21,0,0,1,4.18-3.41A11,11,0,0,0,102.66,47s.07,0,.11,0a3.22,3.22,0,0,0,.62,1.22,9,9,0,0,1,1.81,3.22.7.7,0,0,1,0,.56c-.13.16-.56.16-.79.16-.06,0-.69-.21-.69-.21l-2.41-.66a2.54,2.54,0,0,0-2.69,1.52v.07a1.87,1.87,0,0,0,0,.4c0,1.6,1.92,2.41,2,2.44a1.83,1.83,0,0,1,.75.33,3.88,3.88,0,0,0-.09.82,3.45,3.45,0,0,0,.67,2.09,2.22,2.22,0,0,0,1.61.93c1.93.12,4.43-2.74,5.28-3.91a10.33,10.33,0,0,0,0,1.33,5.07,5.07,0,0,1-1.05,3.85,4.28,4.28,0,0,1-3.09,1.28,7.48,7.48,0,0,1-5.07-1.66.73.73,0,0,0-.43-.51.89.89,0,0,0-.8,0c-.5,0-.5,0-.77,2.52s-2.66,3.71-4.89,3.71a6.08,6.08,0,0,1-4.3-1.9v0a1.55,1.55,0,0,0,0-.22A2.09,2.09,0,0,0,88,63ZM99.31,34a10.4,10.4,0,0,0-.43,3.28A18,18,0,0,0,99,39.43l-.13,0A19.25,19.25,0,0,0,94.52,43,15.48,15.48,0,0,0,90,42.71c2-4.72,5.94-8.38,9-9.33l.42-.09a.35.35,0,0,1,0,.07,2.27,2.27,0,0,1-.15.66Zm8.9,21.09c-.42.77-3.16,3.92-4.68,3.83a1.3,1.3,0,0,1-.92-.56,2.76,2.76,0,0,1-.4-2.25c.11-.94-1.15-1.26-1.4-1.31h0s-1.35-.61-1.35-1.58a.77.77,0,0,1,0-.15,1.56,1.56,0,0,1,1.71-.9l2.15.59,1,.29a1.94,1.94,0,0,0,1.58-.5,1.57,1.57,0,0,0,.21-1.35,9.83,9.83,0,0,0-2-3.64c-.25-.28-.61-1.09-.45-1.45.1-.19.42-.22.67-.21,2,.06,2.15.06,2.49-.11l.4-.33a3.61,3.61,0,0,1,1.93-1.13,1.65,1.65,0,0,1,1.23.23,1.2,1.2,0,0,1,.19,1c-.32,2.67-.37,4.37.32,5a1,1,0,0,0,.88.22,8.16,8.16,0,0,0,2.52-1.53,6.53,6.53,0,0,1,1.88-1.19l.49.14a1.44,1.44,0,0,1,.3,1l-.13.83v1l.41.52a3.57,3.57,0,0,1,1,1.7,1,1,0,0,1-.22.8,1.71,1.71,0,0,1-1.2.49,22.93,22.93,0,0,1-5.39-.9,2.22,2.22,0,0,0-1.68.08l-.21.05a1.46,1.46,0,0,0-.22.18,3.28,3.28,0,0,0-1.08,1.12Zm8.63.4a2.55,2.55,0,0,0,1.86-.82,1.93,1.93,0,0,0,.44-1.5A4.18,4.18,0,0,0,117.91,51l-.27-.33.07-.37.15-1.05a2.34,2.34,0,0,0-.59-1.7l-1.18-.39a5.72,5.72,0,0,0-2.39,1.38,7.91,7.91,0,0,1-2.16,1.36h-.05c-.14-.09-.46-.66,0-4.08a2.15,2.15,0,0,0-.42-1.87,1.62,1.62,0,0,0-.53-.3.65.65,0,0,0,0-.13s-.33-.65-.33-4.56a19,19,0,0,1,.42-4.16l.38-.22a5.92,5.92,0,0,1,5.23-.5l1.63.28a14.25,14.25,0,0,0,4.43-1.21l2.75-.89.81-.13.85-.12a19.25,19.25,0,0,0-.38,4c0,3.9,1.36,5.51,1.83,6a15.25,15.25,0,0,0,.65,2.75l.24.86.1.41.06.34-.75-.31a3.77,3.77,0,0,0-3-.55,2.55,2.55,0,0,0-1.58,1.47,2.73,2.73,0,0,0,.37,2.62l.39.53c.17.18.25.27.25.87l-.34.8a2.14,2.14,0,0,0-.59,1.53c0,1,.4,2.09,2.32,2.09a8.12,8.12,0,0,0,4.67-1.75c.49-.31,1-.6,1.4-.82,0,0,0,.07,0,.11-.38,3.53-2.76,5.5-4.91,5.6s-4-2-4.16-2.32a1.34,1.34,0,0,0-1.22-.64c-.18,0-.71,0-1.47,1.73a4,4,0,0,1-3.52,2.1c-1.55.15-5.07-2.66-5.49-4.08a3.41,3.41,0,0,0-.29-.69,23.16,23.16,0,0,0,5.68.94Zm13.5-2.71a7.35,7.35,0,0,1-4.15,1.6c-1.17,0-1.41-.46-1.41-1.16a1.17,1.17,0,0,1,.37-.92l.56-1.4a1.84,1.84,0,0,0-.5-1.51l-.26-.34c-.37-.69-.62-1.22-.34-1.78a1.64,1.64,0,0,1,1-1,2.91,2.91,0,0,1,2.28.47c.72.4,1.43.72,1.9.36s.28-1,.15-1.43l-.07-.33-.27-1A10.37,10.37,0,0,1,129,41a.86.86,0,0,1,.35-.69A2.08,2.08,0,0,1,130.4,40h0a4.16,4.16,0,0,1,1.12.11l1.67.56a.77.77,0,0,0,.37,0l1.67-.56a4.24,4.24,0,0,1,1.13-.11h0a2,2,0,0,1,1.08.28.89.89,0,0,1,.36.69,11,11,0,0,1-.66,3.45l-.27,1-.08.33c-.12.49-.28,1.09.16,1.43s1.18,0,1.88-.35a2.94,2.94,0,0,1,2.3-.48,1.62,1.62,0,0,1,1,1c.29.58,0,1.11-.33,1.8l-.26.34a1.84,1.84,0,0,0-.5,1.51l.56,1.4a1.17,1.17,0,0,1,.37.92c0,.7-.23,1.16-1.39,1.16a7.36,7.36,0,0,1-4.17-1.6,6.12,6.12,0,0,0-3-1.3,6.19,6.19,0,0,0-3,1.3Zm.83-32.3a6,6,0,0,0,4.42,0,6.59,6.59,0,0,0-.09,1.09,11.68,11.68,0,0,0,.12,1.58c0,.12,2.1,10.16,2.1,13.1v1a2.32,2.32,0,0,1-.45,1.4,1.16,1.16,0,0,1-.91.35h0a5.17,5.17,0,0,0-1.34.14l-1.63.54-1.63-.54a5.17,5.17,0,0,0-1.34-.14h0a1.15,1.15,0,0,1-.91-.35,2.36,2.36,0,0,1-.45-1.4v-1c0-3,2.07-13,2.09-13.09a10.09,10.09,0,0,0,.13-1.59,5.66,5.66,0,0,0-.09-1.09Zm4.75,33.08a8.18,8.18,0,0,0,4.69,1.75c1.9,0,2.3-1.14,2.3-2.09a2.1,2.1,0,0,0-.59-1.53l-.34-.8c0-.6.09-.69.25-.87l.39-.53a2.71,2.71,0,0,0,.36-2.64,2.53,2.53,0,0,0-1.57-1.45,3.76,3.76,0,0,0-3,.56l-.74.3c0-.16.07-.34.07-.34l.09-.41.24-.86a15.46,15.46,0,0,0,.65-2.75c.47-.45,1.83-2.06,1.83-6a19.25,19.25,0,0,0-.38-4l.85.12.81.13,2.75.89A14.24,14.24,0,0,0,149,34.35l1.63-.28a5.9,5.9,0,0,1,5.22.5l.38.22a18.4,18.4,0,0,1,.42,4.15c0,3.92-.3,4.52-.33,4.57s0,.09,0,.13a1.75,1.75,0,0,0-.52.29,1.84,1.84,0,0,0-.47,1.33,3.07,3.07,0,0,0,0,.42,25.47,25.47,0,0,1,.22,2.88c0,1-.16,1.27-.25,1.33h0a7.91,7.91,0,0,1-2.16-1.36,5.63,5.63,0,0,0-2.4-1.38l-1.17.39a2.33,2.33,0,0,0-.6,1.7l.16,1.05.07.37-.27.32a4.25,4.25,0,0,0-1.23,2.22,1.94,1.94,0,0,0,0,.24,1.9,1.9,0,0,0,.46,1.26,2.57,2.57,0,0,0,1.86.81,23.06,23.06,0,0,0,5.67-.93,2.92,2.92,0,0,0-.28.69c-.42,1.42-3.95,4.23-5.5,4.08a4,4,0,0,1-3.51-2.1c-.76-1.73-1.3-1.73-1.48-1.73a1.34,1.34,0,0,0-1.22.64c-.18.29-2.09,2.42-4.16,2.32s-4.52-2.07-4.9-5.6c0,0,0-.07,0-.11a15.17,15.17,0,0,1,1.39.82Zm19.44.1a22.93,22.93,0,0,1-5.39.9,1.71,1.71,0,0,1-1.2-.49,1,1,0,0,1-.22-.8,3.57,3.57,0,0,1,1-1.7l.41-.52v-1l-.13-.83a1.44,1.44,0,0,1,.3-1l.49-.14a6.53,6.53,0,0,1,1.88,1.19A8.16,8.16,0,0,0,155,50.79a1,1,0,0,0,.88-.22c.7-.63.65-2.33.34-4.87-.07-.6,0-.94.17-1.12a1.7,1.7,0,0,1,1.23-.24,3.72,3.72,0,0,1,1.94,1.14l.39.33c.35.17.47.17,2.49.1.26,0,.58,0,.67.22.17.36-.2,1.17-.45,1.45a9.8,9.8,0,0,0-2,3.64,1.48,1.48,0,0,0,.21,1.34,1.83,1.83,0,0,0,1.51.51c.07,0,1.05-.29,1.05-.29l2.14-.59a1.54,1.54,0,0,1,1.71.9.77.77,0,0,1,0,.15c0,1-1.41,1.6-1.43,1.6s-1.33.32-1.33,1.14v.1a3.42,3.42,0,0,1,.09.76,2.47,2.47,0,0,1-.48,1.53,1.3,1.3,0,0,1-.91.57c-1.53.09-4.27-3.06-4.68-3.83A3.22,3.22,0,0,0,157.47,54a.79.79,0,0,0-.22-.18,1.08,1.08,0,0,0-.21-.05,2.17,2.17,0,0,0-1.68-.08ZM167.45,34a2.25,2.25,0,0,1-.15-.67s0,0,0-.06l.42.09c3.11.95,7,4.6,9.05,9.32a15.72,15.72,0,0,0-4.54.26,19.25,19.25,0,0,0-4.37-3.48l-.13-.06a17.83,17.83,0,0,0,.14-2.13,10.38,10.38,0,0,0-.43-3.27Zm-17.91-7.69a12.54,12.54,0,0,1,6.31,7.21,6.82,6.82,0,0,0-5.5-.37l-1.31.25a13.28,13.28,0,0,1-4.16-1.15l-3-.94-.75-.12a2.66,2.66,0,0,0-1.23-.09c-.25-.95-.54-1.83-.86-2.77l-.75-2.29a7.91,7.91,0,0,1-.35-2.37,24.13,24.13,0,0,1,11.57,2.64Zm-11.73-6.08a1,1,0,0,1-.05.79,4.38,4.38,0,0,0-.67,2.16s0,.05,0,.08v0c0,.16,0,.29,0,.47a9.15,9.15,0,0,0,.4,2.55l.76,2.33a19.62,19.62,0,0,1,1.39,7.3,9.64,9.64,0,0,1-.78,4.15,20.19,20.19,0,0,1-.14-2.74,4.17,4.17,0,0,0,0-.59v-.51c0-3-2-12.85-2.11-13.27a9.82,9.82,0,0,1-.11-1.4,2.77,2.77,0,0,1,.3-1.53.22.22,0,0,1,.2-.09c.45,0,.76.09.88.27ZM128,14.64A5.35,5.35,0,1,1,133.38,20,5.35,5.35,0,0,1,128,14.64Zm.92,5.61c.12-.18.43-.28.89-.28a.23.23,0,0,1,.19.1,2.71,2.71,0,0,1,.3,1.52,8.94,8.94,0,0,1-.11,1.43c-.08.39-2.11,10.21-2.11,13.25v.53a4.78,4.78,0,0,0,0,.56,20.36,20.36,0,0,1-.14,2.75,9.46,9.46,0,0,1-.79-4.15,19.86,19.86,0,0,1,1.39-7.3l.76-2.33a8.69,8.69,0,0,0,.4-2.54c0-.18,0-.31,0-.48v0s0-.06,0-.09a4.61,4.61,0,0,0-.74-2.26h0a2.29,2.29,0,0,1-.05-.38.58.58,0,0,1,.07-.3Zm-.51,5.81-.75,2.3c-.32.93-.62,1.82-.86,2.77a2.58,2.58,0,0,0-1.22.08l-.76.12-3,1a13.47,13.47,0,0,1-4.15,1.14l-1.32-.24a6.74,6.74,0,0,0-5.49.36,12.55,12.55,0,0,1,6.3-7.21,24,24,0,0,1,11.57-2.63,7.81,7.81,0,0,1-.35,2.36ZM87.6,37.71c5.21-7.38,15.05-8.8,15.15-8.81a.51.51,0,0,0,.3-.17c.1-.12,10.2-12.08,23.51-7.32-8.79.51-15.09,3-18.17,7.41A12.13,12.13,0,0,0,106.22,36a21,21,0,0,0,1,6,.47.47,0,0,0,.58.31.46.46,0,0,0,.31-.58c-1.54-5.08-1.18-9.27,1.06-12.44,3-4.22,9.21-6.67,18-7.08l.62-.05a.78.78,0,0,0,.54-.51,3.72,3.72,0,0,1,.37,1.05,24.57,24.57,0,0,0-11.94,2.75c-5.23,2.94-7.56,7.09-7.56,13.43a23.07,23.07,0,0,0,.27,4.5,3,3,0,0,0-.43,0,4.36,4.36,0,0,0-2.49,1.39l-.2.18a9.77,9.77,0,0,1-2,0,1.46,1.46,0,0,0-1.54.75.07.07,0,0,1,0,.05c-3.45-3.42-3.2-9.79-2.6-11.45.11-.31.45-1.25-.08-1.75a1.36,1.36,0,0,0-1.4-.07c-3.93,1.2-9.15,6.5-10.64,13a27.26,27.26,0,0,0-.31,10.7,3.26,3.26,0,0,1-.48-.51A3.3,3.3,0,0,0,85,54.36c-1.35-6.67-.48-12.27,2.62-16.65ZM165.76,84a.78.78,0,0,1,.32,1.07l-.47.39-.6-.06c-14.08-7.6-30.77-7.68-31.48-7.68s-17.38.08-31.47,7.68l-.6.06-.47-.38-.06-.61.39-.47c14.59-7.86,31.5-7.87,32.21-7.86h0c.71,0,17.63,0,32.22,7.86Zm-1.22-1.65c-14.38-7.11-30.29-7.15-31-7.14s-16.61,0-31,7.14c-.37-5.06-4-9.71-5.2-11.15,16.46-7,35.38-7,36.2-7s19.75.09,36.21,7c-1.23,1.44-4.83,6.09-5.2,11.15Zm8.23-11.68a.79.79,0,0,1-1,.39c-17-7.75-37.34-7.84-38.2-7.84s-21.19.09-38.18,7.84l-.61,0-.44-.41a.79.79,0,0,1,.39-1c17.49-8,38-8,38.84-8h0c.86,0,21.36,0,38.85,8a.79.79,0,0,1,.39,1ZM98.29,67.14a6.88,6.88,0,0,0,1.51-2.52,14.43,14.43,0,0,0,4.5.48c-2,.6-4,1.27-6,2Zm9.68-3a7.13,7.13,0,0,0,3.39-4.31l0,0c.74.92,3.51,2.19,5.19,2.49-2.73.45-5.63,1-8.62,1.79Zm11.29-2.2a7.16,7.16,0,0,0,2.64-2.45c.08-.12.23-.27.32-.27l.41.31.43.36a7,7,0,0,0,2.85,1.28c-2,.17-4.2.42-6.65.77Zm10.48-1a7.27,7.27,0,0,0,3.64-2.81,7.19,7.19,0,0,0,3.6,2.79c-2-.1-3.25-.1-3.45-.1s-1.59,0-3.79.12Zm11.19.24a7,7,0,0,0,2.78-1.26l.42-.36.41-.31c.09,0,.24.15.32.27a7.5,7.5,0,0,0,2.5,2.38c-2.37-.33-4.55-.56-6.43-.72Zm9.38,1.17c1.68-.33,4.33-1.56,5.05-2.46l0,0A7.14,7.14,0,0,0,158.61,64c-2.88-.71-5.68-1.27-8.3-1.7Zm12.49,2.84a14.92,14.92,0,0,0,4.16-.49A6.73,6.73,0,0,0,168.32,67c-1.84-.69-3.69-1.31-5.52-1.85Zm30.34-2-.59.21a1,1,0,0,1-1.15-1,1.74,1.74,0,0,0-1.8-1,8.35,8.35,0,0,0-3.52,1.8s-1.53,1.32-2.92.89l-.08,0A.93.93,0,0,1,183,64a1.75,1.75,0,0,1-.93-1.28,4.12,4.12,0,0,0-1.6-2.5c-.34,0-.48,0-.48.42a1,1,0,0,0,.38.76s1.27,1.6.59,2.93l-.57.75c-1,1.37-2.38,3.43-6.69,3.29-5.07-.15-5.92-4.21-6-4.38a.43.43,0,0,0-.22-.32.5.5,0,0,0-.38,0s-4.48,1.45-7.76-.25a6.21,6.21,0,0,1-3.07-3.79.94.94,0,0,0-.56-.88c-.52-.17-.95.36-1.09.54a10.63,10.63,0,0,1-5.14,2.21c-1.11,0-2.36-.39-3.87-2.52a1.43,1.43,0,0,0-1.09-.68l-1,.56-.4.34a6.13,6.13,0,0,1-4.05,1.2A6.31,6.31,0,0,1,133.78,57s-.06,0-.1-.07,0-.08-.07-.1h-.06a.5.5,0,0,0-.17,0,.47.47,0,0,0-.17,0h-.06s-.05.07-.08.1-.07,0-.1.07a6.3,6.3,0,0,1-5.25,3.38,6.17,6.17,0,0,1-4.06-1.2l-.39-.34-1-.56a1.46,1.46,0,0,0-1.1.68c-1.51,2.13-2.75,2.47-3.87,2.52a10.81,10.81,0,0,1-5.14-2.21c-.14-.18-.57-.71-1.09-.54a.94.94,0,0,0-.55.88,6.22,6.22,0,0,1-3.08,3.79c-3.28,1.7-7.71.27-7.76.25a.51.51,0,0,0-.38,0A.46.46,0,0,0,99,64c0,.17-.89,4.23-6,4.38-4.32.14-5.75-1.92-6.7-3.29l-.56-.75c-.68-1.33.59-2.93.59-2.93a1,1,0,0,0,.38-.76c0-.46-.15-.42-.48-.42s-1.41,1.41-1.61,2.5A1.77,1.77,0,0,1,83.77,64l-.09.05-.09,0c-1.38.44-2.9-.87-2.92-.88a8.24,8.24,0,0,0-3.52-1.8,1.74,1.74,0,0,0-1.8,1,1,1,0,0,1-1.15,1l-.59-.2a1.11,1.11,0,0,1-.17-.78c.31-3.36,4.4-3.21,4.57-3.2l3.2.28a.53.53,0,0,0,.41-.15.47.47,0,0,0,.13-.4c-.22-1.11-.35-2.9.07-3.38.19-.22.19-.22.53-.13a2.83,2.83,0,0,0,1.87,0,2.1,2.1,0,0,1,2.27.8,5.66,5.66,0,0,0,3.82,2.12,2.06,2.06,0,0,1,1.58,1,2.57,2.57,0,0,1,.36,1.84c-.11.28-.3.46-.85.56l-.06,0c-1.83.09-3.13-1.94-3.61-2.71l-.23-.36a2,2,0,0,0-2-1.12,3,3,0,0,0-2.1.83l-.53,1.32A1.57,1.57,0,0,0,84,61.21a.47.47,0,0,0,.55-.35.49.49,0,0,0-.34-.56c-.07,0-.4-.13-.42-.68l.27-.64a2,2,0,0,1,1.43-.55,1.11,1.11,0,0,1,1.2.7l.12.18A9.59,9.59,0,0,0,89,61.8a3.8,3.8,0,0,0-1.48.44.69.69,0,0,0-.49.34,1,1,0,0,0,.2,1,1.23,1.23,0,0,1,.27.92c0,.94,2.54,2.93,5.22,2.93,3.13,0,5.52-1.86,5.81-4.54l.22-1.74a.08.08,0,0,0,.06,0c.4,1,3.26,2.34,5.91,2.23a5.11,5.11,0,0,0,3.74-1.59,5.65,5.65,0,0,0,1.31-3.93c0-.2,0-.4,0-.61,0-.37,0-.7,0-1a2.94,2.94,0,0,1,.26-1.56l.07,0h0c.08,0,.31.21.5.85.49,1.68,4.3,4.95,6.47,4.75a4.93,4.93,0,0,0,4.24-2.6,4.42,4.42,0,0,1,.77-1.26.47.47,0,0,1,.29.18c.12.25,2.34,2.94,5,2.81,2.54-.13,5.34-2.38,5.78-6.46a2.25,2.25,0,0,1,.08-.49l.16,0,.16,0a2.36,2.36,0,0,1,.07.49c.44,4.08,3.25,6.33,5.79,6.46,2.69.13,4.9-2.56,5-2.81a.41.41,0,0,1,.29-.18,4.24,4.24,0,0,1,.76,1.26,5,5,0,0,0,4.24,2.6c2.17.2,6-3.07,6.48-4.75.19-.64.41-.81.5-.85h0l.08,0a2.94,2.94,0,0,1,.26,1.56c0,.28,0,.61,0,1,0,.21,0,.41,0,.61a5.65,5.65,0,0,0,1.3,3.93,5.15,5.15,0,0,0,3.75,1.59c2.65.11,5.51-1.28,5.91-2.23l.06,0c0,.4.21,1.74.21,1.74.29,2.68,2.68,4.54,5.81,4.54,2.69,0,5.24-2,5.23-2.93a1.17,1.17,0,0,1,.26-.92.93.93,0,0,0,.2-1,.67.67,0,0,0-.49-.34,3.55,3.55,0,0,0-1.47-.44,9.33,9.33,0,0,0,2.12-2.49l.12-.18a1.13,1.13,0,0,1,1.2-.7,2,2,0,0,1,1.44.55l.27.64c0,.55-.35.67-.42.68a.48.48,0,0,0-.34.56.46.46,0,0,0,.54.35,1.56,1.56,0,0,0,1.15-1.56l-.53-1.32a3,3,0,0,0-2.11-.83,2,2,0,0,0-2,1.12L179,59c-.49.77-1.78,2.8-3.62,2.71l0,0c-.55-.09-.74-.28-.85-.56a2.57,2.57,0,0,1,.36-1.84,2,2,0,0,1,1.58-1,5.63,5.63,0,0,0,3.82-2.12,2.09,2.09,0,0,1,2.26-.8,2.85,2.85,0,0,0,1.88,0c.34-.09.34-.09.53.13.42.48.29,2.27.07,3.38a.5.5,0,0,0,.13.4.51.51,0,0,0,.41.15l3.19-.28c.18,0,4.27-.16,4.58,3.2a1,1,0,0,1-.16.78Z"/><path id="path271" class="cls-4" d="M133.38,51.26s3.49,1.63,4.3,2,2.56.82,2.56-.35-.93-1-1.05-2c0-.5.79-1.25.94-2.36.11-.78-.06-1.86-1.28-1.25-1,.47-2.33,1.28-2.79,1.17s-1.86-.24-.93-3.14c.93-2.33,1.39-4-.47-4-.49,0-.93.56-1.28.58s-.78-.58-1.28-.58c-1.86-.05-1.39,1.63-.46,4,.93,2.9-.47,3-.93,3.14s-1.75-.7-2.79-1.17c-1.22-.61-1.4.47-1.28,1.25.15,1.11.9,1.86.93,2.36-.12.93-1,.81-1,2s1.75.7,2.56.35,4.3-2,4.3-2Z"/><path id="path273" d="M130.62,41.51c-.54.77-.19,2.05.59,4,.4,1.25.3,1.84.14,2.12a.9.9,0,0,1-.65.37,4.62,4.62,0,0,1-1.56-.61l-1-.5a1.33,1.33,0,0,0-1.45,0,1.88,1.88,0,0,0-.48,1.77l.66,1.74.26.57s-.35.47-.35.47a1.82,1.82,0,0,0-.69,1.48,1.1,1.1,0,0,0,.49,1c.84.56,2.41-.07,2.71-.2l4.12-1.9,4.12,1.9c.31.13,1.88.76,2.71.2a1.1,1.1,0,0,0,.49-1,1.81,1.81,0,0,0-.69-1.48l-.35-.54a3.43,3.43,0,0,0,.26-.5l.66-1.75a2.71,2.71,0,0,0,0-.46,1.57,1.57,0,0,0-.52-1.3,1.33,1.33,0,0,0-1.46,0l-1,.49a5.69,5.69,0,0,1-1.48.63c-.37-.08-.6-.15-.74-.39s-.25-.87.16-2.15c.77-1.92,1.11-3.2.57-4a1.64,1.64,0,0,0-1.49-.59h0l-1,.41-.28.16s-.22-.16-.22-.16l-1-.41a1.61,1.61,0,0,0-1.48.59Zm.2,7.41a1.86,1.86,0,0,0,1.34-.83,3.72,3.72,0,0,0-.08-2.9c-.32-.81-1.05-2.64-.7-3.15a.9.9,0,0,1,.71-.19l.52.25.73.33a8.42,8.42,0,0,0,.81-.33l.51-.25c.27,0,.6,0,.72.19.36.51-.37,2.34-.68,3.12a3.77,3.77,0,0,0-.1,2.93,1.84,1.84,0,0,0,1.26.82c.55.13,1.16-.16,2.19-.69l1-.48c.33-.17.48-.16.52-.13a1.11,1.11,0,0,1,.11.88l-.93,2.4c0,.08.65,1.21.65,1.21a.88.88,0,0,1,.39.79c0,.16,0,.19-.07.21a2.69,2.69,0,0,1-1.83-.29l-4.29-2-.2.42-.2-.42-4.28,2a2.72,2.72,0,0,1-1.84.29s-.07-.05-.07-.21a.88.88,0,0,1,.39-.79L128,51c0-.08-.38-1-.38-1l-.55-1.42c-.08-.5,0-.82.11-.88s.19,0,.5.11l1,.49c1,.53,1.64.82,2.11.7Z"/><path id="path275" class="cls-4" d="M133.38,14.64a7.92,7.92,0,0,1,3.49.47c2,.7,2.59.45,2.87-.62.19-1.27-1.63-1.47-1.63-1.47l-2.79-.62a1.32,1.32,0,0,1-1.09-1.33V9.27s0-1.21-.85-1.21-.84,1.21-.84,1.21v1.8a1.32,1.32,0,0,1-1.1,1.33l-2.79.62s-1.82.2-1.62,1.47c.27,1.07.85,1.32,2.86.62a7.92,7.92,0,0,1,3.49-.47Z"/><path id="path277" d="M132.07,9.27v1.8a.83.83,0,0,1-.7.87l-2.82.62a2.78,2.78,0,0,0-1.7.86l-.28,1.14a1.76,1.76,0,0,0,.8,1.23c.55.3,1.33.23,2.68-.24a7.56,7.56,0,0,1,3.26-.45h.14a7.56,7.56,0,0,1,3.26.45c1.35.47,2.12.54,2.68.24a1.8,1.8,0,0,0,.8-1.19s-.28-1.18-.28-1.18a2.84,2.84,0,0,0-1.75-.87l-2.74-.61a.83.83,0,0,1-.73-.87V9.27c0-.81-.41-1.67-1.31-1.67s-1.31.86-1.31,1.67ZM127.58,14a1.93,1.93,0,0,1,1.13-.51l2.83-.63A1.75,1.75,0,0,0,133,11.07V9.27s0-.74.38-.74.38.73.38.74v1.8a1.77,1.77,0,0,0,1.49,1.79l2.76.61a2,2,0,0,1,1.17.52l.1.43c-.1.38-.23.5-.32.55-.29.15-.92.06-1.93-.3a8.12,8.12,0,0,0-3.65-.49,8.09,8.09,0,0,0-3.64.49c-1,.36-1.64.45-1.93.3-.09-.05-.22-.17-.33-.59a2.74,2.74,0,0,0,.1-.39Z"/><path id="path279" class="cls-4" d="M86,65.1s-1.67-1.59-3-.31c-1,1-.07,2.48.31,2.87a1.88,1.88,0,0,0,2.72,0C87.15,66.53,86,65.1,86,65.1Z"/><path id="path281" d="M82.68,64.46c-1.21,1.2-.29,2.92.31,3.52a2.51,2.51,0,0,0,1.73.74A2.28,2.28,0,0,0,86.36,68a2.35,2.35,0,0,0,0-3.18l0,0c-.69-.66-2.33-1.57-3.59-.3Zm1,2.87-.56-1a1.15,1.15,0,0,1,.25-1.21c.93-.92,2.18.21,2.28.3a2,2,0,0,1,.43,1.1,1.14,1.14,0,0,1-.34.81,1.42,1.42,0,0,1-1,.46,1.67,1.67,0,0,1-1.07-.46Z"/><path id="path283" class="cls-4" d="M99.51,60.14a1.32,1.32,0,1,1-1.32-1.32,1.33,1.33,0,0,1,1.32,1.32Z"/><path id="path285" d="M96.41,60.14a1.79,1.79,0,1,0,1.78-1.78,1.78,1.78,0,0,0-1.78,1.78Zm.93,0a.86.86,0,1,1,.85.85.85.85,0,0,1-.85-.85Z"/><path id="path287" class="cls-4" d="M123.23,53.86a1.32,1.32,0,1,1-1.32-1.32,1.32,1.32,0,0,1,1.32,1.32Z"/><path id="path289" d="M120.13,53.86a1.78,1.78,0,1,0,1.78-1.78,1.78,1.78,0,0,0-1.78,1.78Zm.93,0a.85.85,0,0,1,.85-.85.85.85,0,1,1,0,1.7.85.85,0,0,1-.85-.85Z"/><path id="path291" class="cls-4" d="M80.52,63.7s-4.34-3.64-4.8-.77c0,0,.07,1.13,1.58,1.13a18.23,18.23,0,0,0,3.22-.36Z"/><path id="path293" d="M76.26,61.46a1.62,1.62,0,0,0-1,1.39,1.81,1.81,0,0,0,2,1.67L81.7,64l-.88-.69c-.3-.26-3-2.47-4.56-1.89Zm-.08,1.43c.09-.44.32-.52.4-.55.57-.21,1.67.37,2.66,1l-1.93.21c-1,0-1.11-.58-1.13-.7Z"/><path id="path295" class="cls-4" d="M102.69,55.72a2.42,2.42,0,0,0-.93-.62c-.7-.31-.93-1.63-.31-1.86a2.39,2.39,0,0,1,1.94-.15c.77.31,1.7,1.24,3.1.46s.38-2.48.38-2.48-.77-1.71-1.47-2.09-.54-1.63,0-1.78,1.71-.08,2.25-.47,1.63-1.39,2.17-1.32.62,1.4.46,1.86-.46,2.95.93,3.41a3,3,0,0,0,2.64-.62s1.24-1.24,1.78-.77.16,1.47.23,2.17,1,1.39.85,1.86-1,.77-1.93.77-3.57-.38-4.5,0a22.61,22.61,0,0,0-4.8,2.8s-1.16.85-1.71.77c-.78,0-1.21-.5-1.06-1.51a.38.38,0,0,0,0-.43Z"/><path id="path297" d="M107.8,46l-.42.32-1.26.27-.84.13a1.22,1.22,0,0,0-.8,1.11,1.5,1.5,0,0,0,.7,1.52,5.45,5.45,0,0,1,1.27,1.88,2,2,0,0,1,.28,1.34.91.91,0,0,1-.47.54,1.92,1.92,0,0,1-2.12-.2l-.58-.29a2.74,2.74,0,0,0-2.19.12,1.12,1.12,0,0,0-.74,1.09v0a1.81,1.81,0,0,0,.94,1.62l.75.47a3.26,3.26,0,0,0-.06.58,1.41,1.41,0,0,0,1.52,1.54c.61.09,1.67-.64,2-.86a22.32,22.32,0,0,1,4.71-2.74,10.45,10.45,0,0,1,3.15,0l1.16.07c1,0,2.13-.34,2.38-1.1.15-.46-.14-.88-.42-1.29l-.41-.76,0-.67a2,2,0,0,0-.42-1.81c-.81-.69-2,.44-2.42.8a2.52,2.52,0,0,1-2.16.51l-.51-.48a4,4,0,0,1-.12-2.34,3,3,0,0,0-.2-2,.92.92,0,0,0-.64-.45c-.58-.08-1.23.4-2.09,1.08Zm-1.59,1.52,1.71-.44.46-.35a5,5,0,0,1,1.34-.87,1.69,1.69,0,0,1,.17.83,1.21,1.21,0,0,1,0,.41,4.93,4.93,0,0,0-.17,1.34,3.91,3.91,0,0,0,.35,1.71l1,1a3.4,3.4,0,0,0,3.09-.72c.43-.43,1-.8,1.18-.76s.13.58.09,1l0,.86L116,52.7l.3.51a2.11,2.11,0,0,1-1.49.42l-1.09-.07a9.9,9.9,0,0,0-3.59.1,23.51,23.51,0,0,0-4.91,2.86,3.57,3.57,0,0,1-1.35.68c-.29,0-.46-.06-.55-.17a1,1,0,0,1-.11-.81.76.76,0,0,0-.09-.74l0-.09,0,0L102,54.68a.91.91,0,0,1-.39-.8.36.36,0,0,1,0-.21,2,2,0,0,1,1.6-.15l.47.24a2.87,2.87,0,0,0,3,.2,1.82,1.82,0,0,0,.91-1.12,2,2,0,0,0,.07-.53,3,3,0,0,0-.42-1.47,5.76,5.76,0,0,0-1.64-2.27.56.56,0,0,1-.23-.49h0a.64.64,0,0,1,.13-.43l.68-.09ZM102.3,56l0-.08a.31.31,0,0,0,0,.1l0,0Z"/><path id="path299" class="cls-4" d="M180.81,65.1s1.67-1.59,2.95-.31c1,1,.07,2.48-.31,2.87a1.88,1.88,0,0,1-2.72,0c-1.12-1.13.08-2.56.08-2.56Z"/><path id="path301" d="M180.49,64.76l0,0a2.33,2.33,0,0,0-.05,3.18,2.24,2.24,0,0,0,1.63.74,2.51,2.51,0,0,0,1.73-.74c.61-.6,1.52-2.32.32-3.52s-2.91-.36-3.6.3Zm1.56,3a1.42,1.42,0,0,1-1-.46,1.14,1.14,0,0,1-.34-.81,1.91,1.91,0,0,1,.43-1.1c.1-.09,1.36-1.23,2.28-.3a1.14,1.14,0,0,1,.25,1.21l-.56,1a1.6,1.6,0,0,1-1.07.47Z"/><path id="path303" class="cls-4" d="M167.25,60.14a1.32,1.32,0,1,0,1.32-1.32,1.33,1.33,0,0,0-1.32,1.32Z"/><path id="path305" d="M168.57,58.36a1.78,1.78,0,1,0,1.78,1.78,1.79,1.79,0,0,0-1.78-1.78Zm0,2.63a.86.86,0,1,1,.85-.85.85.85,0,0,1-.85.85Z"/><path id="path307" class="cls-4" d="M143.53,53.86a1.32,1.32,0,1,0,1.32-1.32,1.32,1.32,0,0,0-1.32,1.32Z"/><path id="path309" d="M144.85,52.08a1.78,1.78,0,1,0,1.78,1.78,1.78,1.78,0,0,0-1.78-1.78Zm0,2.63a.85.85,0,1,1,.85-.85.85.85,0,0,1-.85.85Z"/><path id="path311" class="cls-4" d="M186.24,63.7s4.34-3.64,4.8-.77c0,0-.07,1.13-1.58,1.13a18.23,18.23,0,0,1-3.22-.36Z"/><path id="path313" d="M185.94,63.35l-.88.69,4.4.48a1.81,1.81,0,0,0,2-1.67,1.62,1.62,0,0,0-1-1.39c-1.56-.58-4.26,1.63-4.56,1.89Zm3.52.24-1.94-.21c1-.67,2.1-1.25,2.66-1,.08,0,.32.11.4.55,0,.12-.12.7-1.12.7Z"/><path id="path315" class="cls-4" d="M164.07,55.72a2.42,2.42,0,0,1,.93-.62c.7-.31.93-1.63.31-1.86a2.39,2.39,0,0,0-1.94-.15c-.77.31-1.7,1.24-3.1.46s-.38-2.48-.38-2.48.77-1.71,1.47-2.09.54-1.63,0-1.78-1.7-.08-2.25-.47-1.62-1.39-2.17-1.32-.62,1.4-.46,1.86.46,2.95-.93,3.41a3,3,0,0,1-2.64-.62s-1.24-1.24-1.78-.77-.16,1.47-.23,2.17-1,1.39-.85,1.86,1,.77,1.93.77,3.57-.38,4.5,0a22.61,22.61,0,0,1,4.8,2.8s1.16.85,1.71.77c.77,0,1.21-.5,1-1.51a.44.44,0,0,1,0-.43Z"/><path id="path317" d="M156.88,45a.92.92,0,0,0-.64.45,3,3,0,0,0-.21,2,3.93,3.93,0,0,1-.12,2.34l-.51.48a2.56,2.56,0,0,1-2.16-.5c-.36-.37-1.61-1.5-2.41-.81a2,2,0,0,0-.42,1.81l0,.67-.41.76c-.28.41-.58.83-.43,1.29.25.76,1.38,1.1,2.38,1.1l1.17-.07a10.45,10.45,0,0,1,3.15,0A22.32,22.32,0,0,1,161,57.26c.31.22,1.37,1,2,.86a1.46,1.46,0,0,0,1.19-.49,1.51,1.51,0,0,0,.33-1,4.71,4.71,0,0,0-.06-.59l.74-.47a1.8,1.8,0,0,0,.95-1.62v0a1.11,1.11,0,0,0-.74-1.08,2.74,2.74,0,0,0-2.19-.13l-.58.29a2,2,0,0,1-2.13.21.88.88,0,0,1-.46-.55,2.1,2.1,0,0,1,.27-1.34,5.31,5.31,0,0,1,1.28-1.87,1.52,1.52,0,0,0,.69-1.53,1.22,1.22,0,0,0-.79-1.11l-.84-.13-1.26-.27L159,46c-.87-.68-1.52-1.16-2.09-1.08Zm4.34,2.69a.58.58,0,0,1,.14.43h0a.57.57,0,0,1-.23.49,5.76,5.76,0,0,0-1.64,2.27,3,3,0,0,0-.42,1.47,2,2,0,0,0,.07.53,1.82,1.82,0,0,0,.91,1.12,2.85,2.85,0,0,0,3-.2l.48-.24a2,2,0,0,1,1.6.15.36.36,0,0,1,0,.21.91.91,0,0,1-.39.8l-1.11.76,0,0-.06.09a.79.79,0,0,0-.09.74,1,1,0,0,1-.11.81c-.09.11-.26.16-.55.17a3.57,3.57,0,0,1-1.35-.68,23.51,23.51,0,0,0-4.91-2.86,10.13,10.13,0,0,0-3.59-.1l-1.09.07a2.11,2.11,0,0,1-1.49-.42l.3-.51.57-1.19,0-.86c0-.42-.08-.85.09-1s.74.33,1.19.76a3.36,3.36,0,0,0,3.08.72l1.05-1a3.91,3.91,0,0,0,.35-1.71,4.93,4.93,0,0,0-.17-1.34,1.21,1.21,0,0,1,0-.41,1.69,1.69,0,0,1,.17-.83,5,5,0,0,1,1.34.87l.46.35,1.72.44.66.09ZM164.44,56a.34.34,0,0,0,0-.1l0,.08,0,0Z"/><path id="path319" class="cls-4" d="M134.62,49.75a1.24,1.24,0,0,1-2.48,0,1.24,1.24,0,0,1,2.48,0Z"/><path id="polygon321" class="cls-4" d="M133.38,48.51v0Z"/><path id="path323" class="cls-4" d="M134.62,49.75a15.23,15.23,0,0,0,3.53.62l-3.53-.62Z"/><path id="path325" class="cls-4" d="M132.14,49.75a15.22,15.22,0,0,1-3.52.62l3.52-.62Z"/><path id="path327" d="M138.15,49.91a13.6,13.6,0,0,1-3.14-.53,1.68,1.68,0,0,0-1.16-1.24V45.06a.47.47,0,0,0-.47-.46.46.46,0,0,0-.46.46v3.08a1.67,1.67,0,0,0-1.17,1.24,13.5,13.5,0,0,1-3.13.53.47.47,0,1,0,0,.93,13.91,13.91,0,0,0,3.18-.51,1.68,1.68,0,0,0,3.17,0,13.82,13.82,0,0,0,3.18.51.47.47,0,0,0,0-.93Zm-4.77.62a.78.78,0,1,1,.77-.78.77.77,0,0,1-.77.78Z"/><path id="path329" d="M115.05,52c0-.43-.8-.25-.55-.31l-1.27.27-1.22.24-1.42.07a1.81,1.81,0,0,0-1.19-.51,6.34,6.34,0,0,0-.61-2.47.46.46,0,0,0-.63-.17.45.45,0,0,0-.17.63,6,6,0,0,1,.5,2.15,1.57,1.57,0,0,0-.95,1,19.39,19.39,0,0,0-3.87,2,.47.47,0,0,0-.13.65.48.48,0,0,0,.65.12,19.26,19.26,0,0,1,3.41-1.76,1.84,1.84,0,0,0,1.66.95,1.7,1.7,0,0,0,1.8-1.57s0-.08,0-.12l1.06-.06,1.52-.31,1-.19c-.26.05.53-.08.45-.62Z"/><path id="path331" class="cls-4" d="M109.26,53.9c-.48,0-.87-.29-.87-.64s.4-.64.87-.64.87.29.87.64-.4.64-.87.64Z"/><path id="path333" d="M152.17,52.58l1,.19,1.52.31,1.06.06s0,.08,0,.12a1.7,1.7,0,0,0,1.8,1.57,1.83,1.83,0,0,0,1.66-.95,19.26,19.26,0,0,1,3.41,1.76.48.48,0,0,0,.65-.12.47.47,0,0,0-.13-.65,19.39,19.39,0,0,0-3.87-2,1.56,1.56,0,0,0-.94-1,5.51,5.51,0,0,1,.5-2.15.47.47,0,0,0-.81-.46,6.34,6.34,0,0,0-.61,2.47,1.83,1.83,0,0,0-1.19.51l-1.42-.07-1.22-.24-1.27-.27c.25.06-.51-.12-.55.31s.71.67.46.62Z"/><path id="path335" class="cls-4" d="M156.63,53.26c0-.35.4-.64.87-.64s.88.29.88.64-.4.64-.88.64-.87-.29-.87-.64Z"/><polygon id="polygon337" points="141.57 68.87 133.75 64.92 133.33 64.92 133.33 64.92 125.5 68.87 125.48 69.69 133.31 74.11 133.76 74.11 141.59 69.69 141.57 68.87"/><path id="path339" class="cls-7" d="M133.54,65.85c.35.18,5.61,2.84,6.84,3.45l-6.84,3.87-6.85-3.87,6.85-3.45Z"/><polygon id="polygon341" points="97.68 72.68 94.43 78.38 101.25 80.51 106.99 73.03 97.82 72.43 97.68 72.68"/><path id="path343" class="cls-3" d="M98.34,73.4l6.85.45c-.81,1.05-4,5.15-4.28,5.58l-5.1-1.6,2.53-4.43Z"/><path id="path345" d="M119.34,68.25l-9.53,1.43a3,3,0,0,0-2.25,3.53,3.39,3.39,0,0,0,1.29,2.22,2.53,2.53,0,0,0,1.89.5l9.53-1.42a2.58,2.58,0,0,0,1.67-1,3.46,3.46,0,0,0,.58-2.5,3.38,3.38,0,0,0-1.28-2.23,2.59,2.59,0,0,0-1.9-.5Z"/><path id="path347" class="cls-4" d="M109.4,74.68a2.43,2.43,0,0,1-.92-1.61A2.05,2.05,0,0,1,110,70.6l9.53-1.43a1.63,1.63,0,0,1,1.2.33,2.44,2.44,0,0,1,.92,1.62h0a2.45,2.45,0,0,1-.41,1.81,1.6,1.6,0,0,1-1.06.66L110.6,75a1.6,1.6,0,0,1-1.2-.33Z"/><polygon id="polygon349" points="169.25 72.43 160.08 73.03 165.82 80.51 172.64 78.38 169.4 72.68 169.25 72.43"/><path id="path351" class="cls-3" d="M171.26,77.83l-5.09,1.6-4.29-5.58,6.85-.45c.24.41,2.09,3.66,2.53,4.43Z"/><path id="path353" d="M145.84,68.75A3.44,3.44,0,0,0,144.55,71a3.27,3.27,0,0,0,0,.54,3.34,3.34,0,0,0,.62,2,2.6,2.6,0,0,0,1.67,1l9.53,1.42a2.51,2.51,0,0,0,1.89-.5,3.31,3.31,0,0,0,1.29-2.22,3,3,0,0,0-2.24-3.53l-9.54-1.43a2.56,2.56,0,0,0-1.89.5Z"/><path id="path355" class="cls-4" d="M156.47,75l-9.53-1.42a1.6,1.6,0,0,1-1.06-.66,2.45,2.45,0,0,1-.41-1.81h0a2.48,2.48,0,0,1,.92-1.62,1.64,1.64,0,0,1,1.2-.33l9.54,1.43a2,2,0,0,1,1.46,2.47,2.4,2.4,0,0,1-.92,1.61,1.59,1.59,0,0,1-1.2.33Z"/><path id="path357" d="M133.33,66l-5.77,2.91,0,.82L133.31,73h.46l5.76-3.25,0-.82L133.75,66Zm.21.94,4.77,2.41-4.77,2.69-4.78-2.69c1.11-.56,4.44-2.25,4.78-2.41Z"/><path id="path359" d="M98.2,73.84l-2.26,4,4.84,1.52L104.85,74l-6.51-.43-.14.25Zm.66.72,4.19.27-2.62,3.42-3.11-1,1.54-2.71Z"/><path id="path361" d="M118.67,69.45l-7.44,1.11a2.16,2.16,0,0,0-1.91,2.38,1.94,1.94,0,0,0,.79,1.31,2.33,2.33,0,0,0,1.73.42l7.44-1.11a2.37,2.37,0,0,0,1.54-.91,2,2,0,0,0,.4-1.19,1.5,1.5,0,0,0,0-.29,1.91,1.91,0,0,0-.79-1.3,2.33,2.33,0,0,0-1.73-.42Zm-8,4a1,1,0,0,1-.43-.69,1.24,1.24,0,0,1,1.13-1.33l7.44-1.11a1.39,1.39,0,0,1,1,.24,1.07,1.07,0,0,1,.43.7h0a1.05,1.05,0,0,1-.21.79,1.4,1.4,0,0,1-.92.53l-7.45,1.12a1.42,1.42,0,0,1-1-.25Z"/><path id="path363" d="M168.73,73.59l-6.51.43,4.08,5.3,4.84-1.51-2.26-4-.15-.25Zm1,3.68-3.12,1L164,74.83l4.19-.27c.21.36,1.16,2,1.55,2.71Z"/><path id="path365" d="M146.67,69.87a2,2,0,0,0-.8,1.31,2.64,2.64,0,0,0,0,.28,2,2,0,0,0,.4,1.19,2.33,2.33,0,0,0,1.53.91l7.45,1.11a2.32,2.32,0,0,0,1.72-.42,2,2,0,0,0,.8-1.3,2.17,2.17,0,0,0-1.91-2.39l-7.44-1.11a2.33,2.33,0,0,0-1.73.42Zm8.7,3.88-7.45-1.11a1.41,1.41,0,0,1-.92-.54,1.1,1.1,0,0,1-.21-.79h0a1.07,1.07,0,0,1,.43-.69,1.46,1.46,0,0,1,1-.25l7.44,1.11a1.25,1.25,0,0,1,1.14,1.33,1.09,1.09,0,0,1-.44.7,1.46,1.46,0,0,1-1,.24Z"/><path id="path367" d="M130.75,36.49a2.79,2.79,0,1,0,2.79-2.8,2.8,2.8,0,0,0-2.79,2.8Z"/><path id="path369" class="cls-4" d="M131.68,36.49a1.86,1.86,0,1,1,1.86,1.86,1.87,1.87,0,0,1-1.86-1.86Z"/><path id="path371" d="M131.07,31.41a2.47,2.47,0,1,0,2.47-2.47,2.47,2.47,0,0,0-2.47,2.47Z"/><path id="path373" class="cls-4" d="M132,31.41a1.54,1.54,0,1,1,1.53,1.53A1.54,1.54,0,0,1,132,31.41Z"/><path id="path375" d="M131.4,27.07a2.14,2.14,0,1,0,2.13-2.14,2.14,2.14,0,0,0-2.13,2.14Z"/><path id="path377" class="cls-4" d="M132.33,27.07a1.21,1.21,0,1,1,1.21,1.21,1.21,1.21,0,0,1-1.21-1.21Z"/><path id="path379" d="M131.73,23.36a1.81,1.81,0,1,0,1.81-1.81,1.81,1.81,0,0,0-1.81,1.81Z"/><path id="path381" class="cls-4" d="M132.66,23.36a.88.88,0,1,1,.88.88.88.88,0,0,1-.88-.88Z"/><path id="path383" class="cls-4" d="M102.63,28.71a1.22,1.22,0,1,1-2.44,0,1.22,1.22,0,1,1,2.44,0Z"/><path id="path385" d="M99.73,28.71A1.69,1.69,0,1,0,101.41,27a1.69,1.69,0,0,0-1.68,1.68Zm.93,0a.74.74,0,0,1,.75-.75.75.75,0,0,1,.76.75.76.76,0,0,1-.76.76.75.75,0,0,1-.75-.76Z"/><path id="path387" class="cls-4" d="M100.11,29.11A1.42,1.42,0,1,1,98.7,27.7a1.41,1.41,0,0,1,1.41,1.41Z"/><path id="path389" d="M96.82,29.11a1.88,1.88,0,1,0,1.88-1.88,1.88,1.88,0,0,0-1.88,1.88Zm.93,0a1,1,0,1,1,1,.95,1,1,0,0,1-1-.95Z"/><path id="path391" class="cls-4" d="M97.35,30.24a1.61,1.61,0,1,1-1.6-1.61,1.6,1.6,0,0,1,1.6,1.61Z"/><path id="path393" d="M93.68,30.24a2.07,2.07,0,1,0,2.07-2.07,2.07,2.07,0,0,0-2.07,2.07Zm.93,0a1.14,1.14,0,1,1,1.14,1.14,1.14,1.14,0,0,1-1.14-1.14Z"/><path id="path395" class="cls-4" d="M94.61,32a1.8,1.8,0,1,1-1.8-1.79A1.79,1.79,0,0,1,94.61,32Z"/><path id="path397" d="M90.55,32a2.27,2.27,0,1,0,2.27-2.26A2.27,2.27,0,0,0,90.55,32Zm.93,0a1.34,1.34,0,1,1,1.33,1.34A1.34,1.34,0,0,1,91.48,32Z"/><path id="path399" class="cls-4" d="M91.94,34.47a2,2,0,1,1-2-2,2,2,0,0,1,2,2Z"/><path id="path401" d="M87.5,34.47A2.46,2.46,0,1,0,90,32a2.46,2.46,0,0,0-2.45,2.45Zm.93,0a1.53,1.53,0,0,1,3,0,1.53,1.53,0,1,1-3,0Z"/><path id="path403" class="cls-4" d="M89.72,37.9a2.18,2.18,0,1,1-2.18-2.18,2.19,2.19,0,0,1,2.18,2.18Z"/><path id="path405" d="M84.89,37.9a2.65,2.65,0,1,0,2.65-2.64,2.65,2.65,0,0,0-2.65,2.64Zm.93,0a1.72,1.72,0,1,1,1.72,1.72,1.72,1.72,0,0,1-1.72-1.72Z"/><path id="path407" class="cls-4" d="M87.93,42a2.38,2.38,0,1,1-2.38-2.37A2.38,2.38,0,0,1,87.93,42Z"/><path id="path409" d="M82.71,42a2.85,2.85,0,1,0,2.84-2.84A2.84,2.84,0,0,0,82.71,42Zm.93,0a1.91,1.91,0,1,1,1.91,1.91A1.92,1.92,0,0,1,83.64,42Z"/><path id="path411" class="cls-4" d="M87,46.87a2.57,2.57,0,1,1-2.57-2.56A2.57,2.57,0,0,1,87,46.87Z"/><path id="path413" d="M81.36,46.87a3,3,0,1,0,3-3,3,3,0,0,0-3,3Zm.93,0A2.11,2.11,0,1,1,84.4,49a2.11,2.11,0,0,1-2.11-2.11Z"/><path id="path415" class="cls-4" d="M86.68,52.19a2.77,2.77,0,1,1-2.77-2.76,2.77,2.77,0,0,1,2.77,2.76Z"/><path id="path417" d="M80.69,52.19A3.23,3.23,0,1,0,83.92,49a3.23,3.23,0,0,0-3.23,3.22Zm.93,0a2.3,2.3,0,1,1,2.3,2.3,2.3,2.3,0,0,1-2.3-2.3Z"/><path id="path419" class="cls-4" d="M103.1,45.29a2.76,2.76,0,1,1,3.88-.44,2.76,2.76,0,0,1-3.88.44Z"/><path id="path421" d="M104.46,39.92a3.2,3.2,0,0,0-2.16,1.2,3.16,3.16,0,0,0-.7,2,2.3,2.3,0,0,0,0,.37,3.23,3.23,0,0,0,5.73,1.65,3.23,3.23,0,0,0-.52-4.54,3.2,3.2,0,0,0-2.37-.68Zm-1.07,5h0A2.28,2.28,0,0,1,103,41.7a2.24,2.24,0,0,1,1.54-.85,2.29,2.29,0,1,1-1.18,4.07Z"/><path id="path423" class="cls-4" d="M102.19,39.19a2.59,2.59,0,1,1,3.63.44,2.58,2.58,0,0,1-3.63-.44Z"/><path id="path425" d="M102.34,35.2a3,3,0,0,0-.51,4.28h0a3.05,3.05,0,0,0,4.28.51,3,3,0,0,0,.51-4.28,3.05,3.05,0,0,0-4.28-.51Zm-.23,2.4a2.11,2.11,0,1,1,.45,1.3,2,2,0,0,1-.45-1.3Z"/><path id="path427" class="cls-4" d="M102.56,33.25a2.41,2.41,0,1,1,3.13,1.35,2.4,2.4,0,0,1-3.13-1.35Z"/><path id="path429" d="M103.74,29.69a2.89,2.89,0,0,0-1.58,1.53,2.87,2.87,0,1,0,1.58-1.53ZM103,33.07h0a1.9,1.9,0,0,1,0-1.48,1.88,1.88,0,0,1,1.06-1,1.93,1.93,0,0,1,2.52,1.09A1.94,1.94,0,1,1,103,33.07Z"/><path id="path431" class="cls-4" d="M104.53,28.05a2.23,2.23,0,1,1,2.37,2.08,2.23,2.23,0,0,1-2.37-2.08Z"/><path id="path433" d="M106.57,25.21a2.7,2.7,0,0,0-2.51,2.69,1.09,1.09,0,0,0,0,.18,2.69,2.69,0,1,0,4.46-2.21,2.74,2.74,0,0,0-2-.66ZM105,28h0a1.76,1.76,0,1,1,1.87,1.64A1.77,1.77,0,0,1,105,28Z"/><path id="path435" class="cls-4" d="M107.51,24a2.05,2.05,0,1,1,1.58,2.43A2.05,2.05,0,0,1,107.51,24Z"/><path id="path437" d="M108.15,22.32a2.52,2.52,0,0,0-1.09,1.59,2.39,2.39,0,0,0-.06.53,2.53,2.53,0,0,0,2,2.45A2.52,2.52,0,0,0,112,25a2.47,2.47,0,0,0-.35-1.89A2.5,2.5,0,0,0,110,22a2.53,2.53,0,0,0-1.89.35Zm1,3.67a1.59,1.59,0,0,1-1-.69,1.57,1.57,0,0,1-.22-1.19h0a1.59,1.59,0,0,1,1.88-1.22,1.57,1.57,0,0,1,1.22,1.88A1.59,1.59,0,0,1,109.19,26Z"/><path id="path439" class="cls-4" d="M111.13,21.4a1.87,1.87,0,1,1,.92,2.48,1.87,1.87,0,0,1-.92-2.48Z"/><path id="path441" d="M110.7,21.2h0a2.34,2.34,0,1,0,3.1-1.15,2.35,2.35,0,0,0-3.1,1.15Zm2.72-.31a1.41,1.41,0,1,1-2,1.28,1.36,1.36,0,0,1,.13-.58,1.41,1.41,0,0,1,1.87-.7Z"/><path id="path443" class="cls-4" d="M114.81,19.81a1.7,1.7,0,1,1,.47,2.36,1.69,1.69,0,0,1-.47-2.36Z"/><path id="path445" d="M114.42,19.56h0a2.16,2.16,0,0,0,.6,3,2.17,2.17,0,0,0,3-.59,2.16,2.16,0,1,0-3.6-2.4Zm2.49.17a1.23,1.23,0,0,1,.33,1.71,1.18,1.18,0,0,1-.78.52,1.16,1.16,0,0,1-.92-.18,1.21,1.21,0,0,1-.55-1,1.24,1.24,0,0,1,1.92-1Z"/><path id="path447" class="cls-4" d="M118.31,18.94a1.52,1.52,0,1,1,.17,2.14,1.52,1.52,0,0,1-.17-2.14Z"/><path id="path449" d="M118,18.64a2,2,0,1,0,2.79-.22,2,2,0,0,0-2.79.22Zm.82,2.08a1.05,1.05,0,0,1,1.37-1.6,1.05,1.05,0,1,1-1.37,1.6Z"/><path id="path451" class="cls-4" d="M124.37,18.53a1.16,1.16,0,1,1-.13,1.63,1.17,1.17,0,0,1,.13-1.63Z"/><path id="path453" d="M124.07,18.17h0a1.63,1.63,0,1,0,2.3.18,1.64,1.64,0,0,0-2.3-.18Zm1.59.79a.7.7,0,0,1-.08,1,.69.69,0,0,1-1-.08.65.65,0,0,1-.17-.45.7.7,0,0,1,1.23-.45Z"/><path id="path455" d="M128.81,79V85h.93V78.87l-.93.08Z"/><path id="path457" d="M133.53,78.68h-.46V85H134V78.68Z"/><path id="path459" d="M137.33,78.87V85h.93V79l-.93-.08Z"/><path id="path461" class="cls-1" d="M129.74,78.87V85h3.33V78.69c-.58,0-1.74.06-3.33.18Z"/><path id="path463" class="cls-1" d="M137.33,78.87V85H134V78.69c.58,0,1.74.06,3.33.18Z"/><path id="path465" class="cls-4" d="M132.44,99.71v1.78h-3.9l.53-1.78Z"/><path id="path467" d="M132.81,99.71v2.15h-4.76l.14-.48.52-1.77.08-.27h4v.37Zm-.75,1.4v-1h-2.72l-.3,1Z"/><path id="path469" class="cls-4" d="M134.14,91.22v-.43h1.24v.43h1.08v1H136v.58l1.66,5.62h-3a1.1,1.1,0,0,0-2.15,0h-3l1.65-5.62v-.58h-.46v-1h1.08v-.43H133v.43Z"/><path id="path471" d="M133.77,90.84v-.42h2v.42h1.08v1.72h-.45v.16L138,98.28l.14.48h-3.81l-.07-.28a.78.78,0,0,0-.71-.58.8.8,0,0,0-.72.58l-.07.28H129l.14-.48,1.64-5.56v-.16h-.46V90.84h1.08v-.42h2v.42Zm.74.32v.43H132.6v-.43h-.5v.43H131v.23h.46v1l0,.05L130,98h2.27a1.56,1.56,0,0,1,1.31-.86h0a1.56,1.56,0,0,1,1.32.86h2.27l-1.51-5.15,0-.05v-1h.46v-.22H135v-.43Z"/><path id="path473" class="cls-4" d="M134.68,99.71v1.78h3.89l-.52-1.78Z"/><path id="path475" d="M135.05,100.08v1h3l-.3-1Zm-.75,1.4V99.34h4l.07.27.53,1.77.14.48h-4.76v-.38Z"/><polygon id="polygon477" points="133.18 96.22 133.18 94.48 131.36 94.48 131.36 96.22 131.36 96.22 133.18 96.22"/><polygon id="polygon479" points="133.93 96.22 133.93 94.48 135.75 94.48 135.75 96.22 135.75 96.22 133.93 96.22"/><path id="path481" class="cls-4" d="M81.32,99.71v1.78h-3.9L78,99.71Z"/><path id="path483" d="M81.69,99.71v2.15H76.93l.14-.48.52-1.77.08-.27h4v.37Zm-.75,1.4v-1H78.22l-.3,1Z"/><path id="path485" class="cls-4" d="M83,91.22v-.43h1.24v.43h1.08v1h-.45v.58l1.65,5.62h-3a1.1,1.1,0,0,0-2.14,0h-3L80,92.76v-.58h-.46v-1h1.08v-.43h1.25v.43Z"/><path id="path487" d="M82.65,90.84v-.42h2v.42h1.08v1.72h-.45v.16l1.63,5.56.14.48H83.22l-.07-.28a.78.78,0,0,0-.71-.58.8.8,0,0,0-.71.58l-.08.28H77.84l.14-.48,1.64-5.56v-.16h-.46V90.84h1.08v-.42h2v.42Zm.74.32v.43h-1.9v-.43H81v.43H79.91v.22h.45v1.06L78.83,98h2.28a1.55,1.55,0,0,1,1.31-.86h0a1.55,1.55,0,0,1,1.31.86h2.28l-1.52-5.15V91.81H85v-.22H83.9v-.43Z"/><path id="path489" class="cls-4" d="M83.56,99.71v1.78h3.89l-.52-1.78Z"/><path id="path491" d="M83.93,100.08v1h3l-.3-1Zm-.74,1.4V99.34h4l.08.27.52,1.77.14.48H83.19v-.38Z"/><polygon id="polygon493" points="82.06 96.22 82.06 94.48 80.24 94.48 80.24 96.22 80.24 96.22 82.06 96.22"/><polygon id="polygon495" points="82.81 96.22 82.81 94.48 84.64 94.48 84.64 96.22 84.64 96.22 82.81 96.22"/><path id="path497" class="cls-4" d="M84.75,151v1.77H80.86l.52-1.77Z"/><path id="path499" d="M85.13,151v2.15H80.37l.14-.48.52-1.77.08-.27h4V151Zm-.75,1.4v-1H81.66l-.3,1Z"/><path id="path501" class="cls-4" d="M86.46,142.48v-.42H87.7v.42h1.08v1h-.46V144L90,149.65H87a1.1,1.1,0,0,0-2.15,0h-3L83.43,144v-.58H83v-1h1.08v-.42h1.24v.42Z"/><path id="path503" d="M86.08,142.11v-.42h2v.42h1.08v1.71H88.7V144l1.63,5.57.14.47H86.66l-.07-.28a.73.73,0,0,0-1.42,0l-.08.28H81.28l.14-.47L83.06,144v-.16H82.6v-1.71h1.08v-.42h2v.42Zm.75.32v.43H84.92v-.43h-.5v.43H83.34v.22h.46v1l0,0-1.51,5.15h2.27a1.56,1.56,0,0,1,1.32-.86h0a1.56,1.56,0,0,1,1.31.86h2.27L88,144.14l0,0v-1h.46v-.22H87.33v-.43Z"/><path id="path505" class="cls-4" d="M87,151v1.77h3.89L90.36,151Z"/><path id="path507" d="M87.37,151.35v1h3l-.3-1Zm-.75,1.4v-2.14h4l.07.26.53,1.78.14.47H86.62v-.37Z"/><polygon id="polygon509" points="85.5 147.49 85.5 145.75 83.68 145.75 83.68 147.49 83.68 147.49 85.5 147.49"/><polygon id="polygon511" points="86.25 147.49 86.25 145.75 88.07 145.75 88.07 147.49 88.07 147.49 86.25 147.49"/><path id="path513" class="cls-4" d="M99.25,197.4v1.77H95.36l.52-1.77Z"/><path id="path515" d="M99.62,197.4v2.14H94.86l.14-.47.53-1.78.07-.27h4v.37Zm-.74,1.4v-1H96.16l-.31,1h3Z"/><path id="path517" class="cls-4" d="M103.27,189.87v-1H102.2v-.43H101v.43H99.79v-.43H98.55v.43H97.47v1h.46v.58l-1.66,5.62h3a1.1,1.1,0,0,1,2.14,0h1.4l1.2-1.46-1.22-4.16v-.58Z"/><path id="path519" d="M102.9,189.5v-.23h-1.07v-.42h-.5v.42H99.42v-.43h-.5v.43H97.84v.23h.46v1l0,.06-1.51,5.14H99a1.53,1.53,0,0,1,1.31-.85h0a1.54,1.54,0,0,1,1.32.85h1l1-1.17-1.16-4,0-.06v-1h.45Zm.75-.6v1.34h-.46v.16l1.21,4.11.06.18-.13.16-1.2,1.46-.11.13h-1.86l-.07-.28a.78.78,0,0,0-.72-.57.77.77,0,0,0-.71.57l-.07.28H95.78l.14-.48,1.63-5.56v-.16H97.1v-1.71h1.08v-.43h2v.43h.41v-.43h2v.43h1.08v.37Z"/><path id="path521" class="cls-4" d="M101.75,197.4h-.26v.31l.26-.31Z"/><polygon id="polygon523" points="101.12 197.71 101.12 197.4 101.12 197.03 101.49 197.03 101.49 197.03 101.75 197.03 102.54 197.03 102.04 197.63 101.78 197.94 101.12 198.74 101.12 197.71"/><polygon id="polygon525" points="100 193.91 100 192.16 98.17 192.16 98.17 193.91 98.17 193.91 100 193.91"/><polygon id="polygon527" points="100.75 193.91 100.75 192.16 102.57 192.16 102.57 193.91 102.57 193.91 100.75 193.91"/><path id="path529" class="cls-4" d="M185.22,92.77v-.58h.46v-1H184.6v-.43h-1.24v.43h-1.17v-.43H181v.43h-1.08v1h.46v.58l-1.66,5.62h3a1.17,1.17,0,0,1,1.07-.86,1.3,1.3,0,0,1,.89.5L186,95.25l-.73-2.48Z"/><path id="path531" d="M184.85,92.77v-1h.46v-.22h-1.08v-.43h-.5v.43h-1.91v-.43h-.5v.43h-1.08v.23h.46v1l0,.05L179.17,98h2.27a1.56,1.56,0,0,1,1.31-.86h.05a1.71,1.71,0,0,1,.83.32l1.91-2.31-.68-2.3v-.1Zm.74-.21v.16l.72,2.42.05.19-.12.15-2.3,2.79-.3.37-.29-.39a.87.87,0,0,0-.59-.35.8.8,0,0,0-.7.58l-.07.28h-3.81l.14-.48L180,92.72v-.16h-.45V90.84h1.08v-.42h2v.42H183v-.42h2v.42h1.08v1.72h-.46Z"/><path id="path533" class="cls-4" d="M181.65,99.71h-3.37l-.52,1.78h3.05l.84-1v-.75Z"/><path id="path535" d="M181.28,100.08h-2.72l-.3,1h2.38l.64-.78v-.25Zm-3-.74h3.37v.37H182v.88l-.09.11-.84,1-.11.14h-3.72l.14-.48.52-1.77.08-.27Z"/><polygon id="polygon537" points="183.15 96.22 183.15 94.48 184.97 94.48 184.97 96.22 184.97 96.22 183.15 96.22"/><polygon id="polygon539" points="182.4 96.22 182.4 94.48 180.58 94.48 180.58 96.22 180.58 96.22 182.4 96.22"/><path id="path541" d="M121.16,20.79a1.8,1.8,0,1,0,2.57-2.52,1.74,1.74,0,0,0-1.27-.54,1.79,1.79,0,0,0-1.82,1.79,1.74,1.74,0,0,0,.52,1.27Z"/><path id="path543" class="cls-4" d="M121.83,18.91a.87.87,0,0,1,1.24,0,.87.87,0,1,1-1.25,1.22.87.87,0,0,1,0-1.23Z"/><path id="path545" class="cls-4" d="M164.13,28.71a1.22,1.22,0,1,0,1.22-1.22,1.22,1.22,0,0,0-1.22,1.22Z"/><path id="path547" d="M165.35,27a1.69,1.69,0,0,0,0,3.37,1.69,1.69,0,1,0,0-3.37Zm0,2.44a.75.75,0,0,1-.75-.76.74.74,0,0,1,.75-.75.75.75,0,0,1,.76.75.76.76,0,0,1-.76.76Z"/><path id="path549" class="cls-4" d="M166.65,29.11a1.42,1.42,0,1,0,1.41-1.41,1.41,1.41,0,0,0-1.41,1.41Z"/><path id="path551" d="M168.06,27.23a1.88,1.88,0,1,0,1.88,1.88,1.89,1.89,0,0,0-1.88-1.88Zm0,2.83a.95.95,0,1,1,.95-.95,1,1,0,0,1-.95.95Z"/><path id="path553" class="cls-4" d="M169.41,30.24a1.61,1.61,0,1,0,1.6-1.61,1.6,1.6,0,0,0-1.6,1.61Z"/><path id="path555" d="M171,28.17a2.07,2.07,0,1,0,2.07,2.07A2.07,2.07,0,0,0,171,28.17Zm0,3.21a1.14,1.14,0,1,1,1.14-1.14A1.15,1.15,0,0,1,171,31.38Z"/><path id="path557" class="cls-4" d="M172.15,32a1.8,1.8,0,1,0,1.8-1.79,1.79,1.79,0,0,0-1.8,1.79Z"/><path id="path559" d="M174,29.75A2.27,2.27,0,1,0,176.21,32,2.27,2.27,0,0,0,174,29.75Zm0,3.6A1.34,1.34,0,1,1,175.28,32,1.34,1.34,0,0,1,174,33.35Z"/><path id="path561" class="cls-4" d="M174.82,34.47a2,2,0,1,0,2-2,2,2,0,0,0-2,2Z"/><path id="path563" d="M176.81,32a2.46,2.46,0,1,0,2.46,2.46A2.47,2.47,0,0,0,176.81,32Zm0,4a1.53,1.53,0,1,1,1.53-1.53A1.54,1.54,0,0,1,176.81,36Z"/><path id="path565" class="cls-4" d="M177,37.9a2.19,2.19,0,1,0,2.18-2.18A2.19,2.19,0,0,0,177,37.9Z"/><path id="path567" d="M179.22,35.26a2.65,2.65,0,1,0,2.65,2.64,2.65,2.65,0,0,0-2.65-2.64Zm0,4.36a1.72,1.72,0,1,1,1.72-1.72,1.71,1.71,0,0,1-1.72,1.72Z"/><path id="path569" class="cls-4" d="M178.83,42a2.38,2.38,0,1,0,2.38-2.37A2.39,2.39,0,0,0,178.83,42Z"/><path id="path571" d="M181.21,39.15A2.85,2.85,0,1,0,184.05,42a2.84,2.84,0,0,0-2.84-2.84Zm0,4.75A1.91,1.91,0,1,1,183.12,42a1.91,1.91,0,0,1-1.91,1.91Z"/><path id="path573" class="cls-4" d="M179.8,46.87a2.57,2.57,0,1,0,2.56-2.56,2.57,2.57,0,0,0-2.56,2.56Z"/><path id="path575" d="M182.36,43.84a3,3,0,1,0,3,3,3,3,0,0,0-3-3Zm0,5.14a2.11,2.11,0,1,1,2.1-2.11,2.11,2.11,0,0,1-2.1,2.11Z"/><path id="path577" class="cls-4" d="M180.08,52.19a2.77,2.77,0,1,0,2.77-2.76,2.77,2.77,0,0,0-2.77,2.76Z"/><path id="path579" d="M182.85,49a3.23,3.23,0,1,0,3.22,3.22A3.23,3.23,0,0,0,182.85,49Zm0,5.52a2.3,2.3,0,1,1,2.29-2.3,2.3,2.3,0,0,1-2.29,2.3Z"/><path id="path581" class="cls-4" d="M163.66,45.29a2.76,2.76,0,1,0-3.88-.44,2.76,2.76,0,0,0,3.88.44Z"/><path id="path583" d="M159.93,40.6a3.22,3.22,0,0,0,1.65,5.73,3.21,3.21,0,0,0,3.56-2.84,2.22,2.22,0,0,0,0-.37,3.23,3.23,0,0,0-5.24-2.52Zm1.75,4.81a2.3,2.3,0,0,1-1.17-4.08,2.34,2.34,0,0,1,1.69-.49,2.28,2.28,0,0,1,1.53.85,2.25,2.25,0,0,1,.49,1.69,2.28,2.28,0,0,1-.85,1.54h0a2.29,2.29,0,0,1-1.69.49Z"/><path id="path585" class="cls-4" d="M164.57,39.19a2.58,2.58,0,1,0-3.63.44,2.57,2.57,0,0,0,3.63-.44Z"/><path id="path587" d="M160.14,35.71a3.05,3.05,0,0,0,4.8,3.77h0a3,3,0,0,0,.62-2.25,3,3,0,0,0-1.14-2,3.05,3.05,0,0,0-4.28.51Zm4.06,3.19a2.12,2.12,0,0,1-3,.36,2.13,2.13,0,0,1-.36-3,2.12,2.12,0,0,1,3.79,1.31,2,2,0,0,1-.46,1.3Z"/><path id="path589" class="cls-4" d="M164.2,33.25a2.4,2.4,0,1,0-3.12,1.35,2.4,2.4,0,0,0,3.12-1.35Z"/><path id="path591" d="M160.82,29.73a2.86,2.86,0,0,0-1.49,3.77A2.8,2.8,0,0,0,160.91,35a2.88,2.88,0,0,0,3.73-1.61,3,3,0,0,0,.2-1.06,2.88,2.88,0,0,0-.24-1.14A2.92,2.92,0,0,0,163,29.69a2.85,2.85,0,0,0-2.2,0Zm.43,4.44a1.94,1.94,0,0,1-1.09-2.52,1.92,1.92,0,0,1,2.51-1.09,1.87,1.87,0,0,1,1.07,1,1.9,1.9,0,0,1,0,1.48h0a2,2,0,0,1-2.52,1.1Z"/><path id="path593" class="cls-4" d="M162.23,28.05a2.23,2.23,0,1,0-2.37,2.08,2.23,2.23,0,0,0,2.37-2.08Z"/><path id="path595" d="M158.23,25.88a2.69,2.69,0,1,0,4.47,2.2V27.9a2.69,2.69,0,0,0-2.51-2.68,2.65,2.65,0,0,0-2,.66Zm1.66,3.78a1.76,1.76,0,0,1-1.64-1.88,1.72,1.72,0,0,1,.6-1.2,1.75,1.75,0,0,1,1.27-.44A1.78,1.78,0,0,1,161.77,28h0a1.77,1.77,0,0,1-1.88,1.64Z"/><path id="path597" class="cls-4" d="M159.25,24a2.05,2.05,0,1,0-1.58,2.43A2.05,2.05,0,0,0,159.25,24Z"/><path id="path599" d="M156.72,22a2.5,2.5,0,0,0-1.59,1.1,2.47,2.47,0,0,0-.35,1.89,2.52,2.52,0,0,0,3,1.93,2.53,2.53,0,0,0,2-2.45,2.39,2.39,0,0,0-.06-.53,2.51,2.51,0,0,0-3-1.94Zm-1,2.8a1.58,1.58,0,0,1,.22-1.2,1.58,1.58,0,0,1,2.19-.47,1.58,1.58,0,0,1,.69,1h0a1.55,1.55,0,0,1-.22,1.19,1.52,1.52,0,0,1-1,.69,1.58,1.58,0,0,1-1.88-1.21Zm4-.86Z"/><path id="path601" class="cls-4" d="M155.63,21.4a1.87,1.87,0,1,0-.93,2.48,1.87,1.87,0,0,0,.93-2.48Z"/><path id="path603" d="M153,20.05a2.34,2.34,0,1,0,3.1,1.15h0a2.34,2.34,0,0,0-3.1-1.15Zm2.25,1.54a1.36,1.36,0,0,1,.13.58,1.41,1.41,0,0,1-2.69.59,1.41,1.41,0,1,1,2.56-1.17Z"/><path id="path605" class="cls-4" d="M152,19.81a1.7,1.7,0,1,0-.47,2.36,1.69,1.69,0,0,0,.47-2.36Z"/><path id="path607" d="M149.34,19a2.17,2.17,0,0,0-.6,3,2.18,2.18,0,0,0,3,.59,2.16,2.16,0,0,0,.6-3h0a2.17,2.17,0,0,0-3-.6Zm2.22,1.11a1.24,1.24,0,0,1,.21.69,1.23,1.23,0,0,1-.55,1,1.16,1.16,0,0,1-.92.18,1.21,1.21,0,0,1-.78-.52,1.23,1.23,0,1,1,2-1.37Z"/><path id="path609" class="cls-4" d="M148.45,18.94a1.52,1.52,0,1,0-.17,2.14,1.52,1.52,0,0,0,.17-2.14Z"/><path id="path611" d="M146,18.42a2,2,0,1,0,2.8.22,2,2,0,0,0-2.8-.22Zm.49,2.19a1.05,1.05,0,1,1,1.48.11,1,1,0,0,1-1.48-.11Z"/><path id="path613" class="cls-4" d="M142.39,18.53a1.16,1.16,0,1,0,.13,1.63,1.15,1.15,0,0,0-.13-1.63Z"/><path id="path615" d="M140.4,18.35a1.63,1.63,0,1,0,2.29-.18h0a1.63,1.63,0,0,0-2.29.18Zm1.69.53a.7.7,0,1,1-1,.08.69.69,0,0,1,1-.08Z"/><path id="path617" d="M146.12,19.51a1.76,1.76,0,0,0-.54-1.27,1.8,1.8,0,0,0-1.28-.52,1.84,1.84,0,0,0-1.27.54,1.81,1.81,0,1,0,2.58,2.53,1.77,1.77,0,0,0,.51-1.28Z"/><path id="path619" class="cls-4" d="M145.19,19.52a.79.79,0,0,1-.25.62.87.87,0,1,1,0-1.23.83.83,0,0,1,.26.61Z"/></g></g></g></svg>