<svg xmlns="http://www.w3.org/2000/svg" viewBox="0 0 229.41 300"><defs><style>.cls-1{fill:#eacc00;}.cls-2{fill:#172983;}.cls-3{fill:#ffed00;}.cls-4{fill:#e32219;}.cls-5{fill:#008f2f;}.cls-6{fill:#fff;}</style></defs><title>Verona</title><g id="Слой_2" data-name="Слой 2"><g id="Слой_1-2" data-name="Слой 1"><path d="M114.76,0c31.57,0,60.29,16.92,81.13,44.16S229.41,108.79,229.41,150s-12.82,78.64-33.52,105.85S146.33,300,114.76,300s-60.43-16.91-81.24-44.13S0,191.25,0,150,12.79,71.31,33.52,44.16,83,0,114.76,0Z"/><path class="cls-1" d="M114.76,2.28c-30.9,0-59,16.51-79.26,43.21C15,72.26,2.35,109.23,2.35,150S15,227.7,35.5,254.47c20.29,26.71,48.36,43.28,79.26,43.28s58.82-16.57,79.18-43.28S227,190.73,227,150,214.37,72.26,193.94,45.49,145.52,2.28,114.76,2.28Z"/><path d="M114.76,10.5c20.19,0,39.11,7.78,55.14,21.25,16.51,13.88,29.91,33.83,38.54,57.43l.34,1.09-1.06.37a222.63,222.63,0,0,1-43,10.64,329.27,329.27,0,0,1-50,3.72,330.37,330.37,0,0,1-50.1-3.72A220.68,220.68,0,0,1,21.72,90.64l-1.12-.37L21,89.18c8.56-23.6,22-43.55,38.47-57.43,16.06-13.47,35-21.25,55.28-21.25Z"/><path d="M211.06,97l.34,1.26A171.85,171.85,0,0,1,217,123.69a185.49,185.49,0,0,1,1.88,26.43c0,6-.31,11.94-.86,17.77s-1.43,11.8-2.52,17.53l-.31,1.36-1.33-.51c-12.51-4.74-27.79-8.59-45-11.25a362.55,362.55,0,0,0-54.12-3.93A363,363,0,0,0,60.5,175c-17.15,2.66-32.5,6.51-45,11.25l-1.33.51-.24-1.36a174.84,174.84,0,0,1-2.52-17.53,170.37,170.37,0,0,1-.89-17.77,191.53,191.53,0,0,1,1.88-26.43A173.09,173.09,0,0,1,18,98.25L18.38,97l1.2.51c12.31,4.81,27,8.66,43.51,11.36a331.79,331.79,0,0,0,51.67,3.92,330.78,330.78,0,0,0,51.52-3.92c16.48-2.7,31.28-6.55,43.55-11.36l1.23-.51Z"/><path d="M213.65,193.81l-.27,1c-7.09,27.89-20.56,51.83-38,68.71-17.12,16.44-38.1,26.19-60.6,26.19-22.65,0-43.62-9.75-60.67-26.19-17.53-16.88-31-40.82-38.06-68.71l-.24-1,1-.34c12.61-4.58,27.79-8.26,44.81-10.78a360.75,360.75,0,0,1,53.2-3.75,359.2,359.2,0,0,1,53.06,3.75c17,2.52,32.26,6.2,44.81,10.78l1,.34Z"/><path class="cls-2" d="M191.83,93.24c4.91-1.3,9.55-2.77,13.91-4.33a147.21,147.21,0,0,0-13.91-28.24V93.24Z"/><path class="cls-2" d="M157.52,100c2.35-.31,4.57-.68,6.85-1q5.22-.87,10.34-1.84V39.32c-2.08-2-4.2-4-6.38-5.8a95.79,95.79,0,0,0-10.81-7.94V100Z"/><path class="cls-2" d="M37.55,60.67A149,149,0,0,0,23.63,88.91c4.37,1.56,9,3,13.92,4.33V60.67Z"/><path class="cls-2" d="M71.85,25.58A100.52,100.52,0,0,0,61,33.52c-2.14,1.84-4.29,3.75-6.31,5.8V97.19q5,1,10.34,1.84c2.21.28,4.5.65,6.78,1V25.58Z"/><path class="cls-3" d="M174.71,97.19c6-1.16,11.7-2.49,17.12-4V60.67a124.12,124.12,0,0,0-17.12-21.35V97.19Z"/><path class="cls-3" d="M54.73,39.32A122.52,122.52,0,0,0,37.55,60.67V93.24C43,94.7,48.7,96,54.73,97.19V39.32Z"/><path class="cls-2" d="M123.31,90.3v12.25c5.8-.14,11.5-.45,17.06-.86V67.93q-8.55,11.2-17.06,22.37Z"/><path class="cls-2" d="M89,67.73v34c5.59.41,11.29.72,17.12.86V90.13Q97.58,78.94,89,67.73Z"/><path class="cls-4" d="M137.16,32.33l.51-.68.62.51a13.57,13.57,0,0,1,2.08,2.28V17.22a80.41,80.41,0,0,0-17.06-3.95v36.9c4.61-6,9.25-11.91,13.85-17.84Z"/><path class="cls-5" d="M89.21,34.44a11.89,11.89,0,0,1,2.05-2.28l.65-.51.51.68,13.71,17.6V13.27A81.38,81.38,0,0,0,89,17.22V34.75l.2-.31Z"/><path class="cls-3" d="M141.63,36.66a18.45,18.45,0,0,1,6.58,2.05,7.45,7.45,0,0,1,3.72,5.56,1.37,1.37,0,0,0,.13.47,1.24,1.24,0,0,0,.24,0l5.22,0V25.58a87.7,87.7,0,0,0-17.15-8.36V34.44a12.27,12.27,0,0,1,1.26,2.22Z"/><path class="cls-3" d="M149.23,64h-1.36v-.07l-3.51.07a1.81,1.81,0,0,0-.79.1,1,1,0,0,0-.51.34c-.92,1.19-1.81,2.35-2.69,3.51v33.76c5.86-.4,11.59-1,17.15-1.7V63.91l-8.29.07Z"/><path class="cls-3" d="M77.48,44.74c.1-.07.14-.2.14-.47a7.56,7.56,0,0,1,3.75-5.56A18.26,18.26,0,0,1,88,36.66,11.72,11.72,0,0,1,89,34.75V17.22a88.33,88.33,0,0,0-17.16,8.36V44.74l5.43,0a.62.62,0,0,0,.2,0Z"/><path class="cls-3" d="M86.48,64.42c-.17-.14-.3-.31-.44-.34a2.4,2.4,0,0,0-.89-.1l-3.44-.07V64H80.35l-8.5-.07V100c5.56.71,11.29,1.29,17.16,1.7v-34c-.85-1.09-1.67-2.18-2.53-3.31Z"/><path class="cls-3" d="M114.79,101.49c-2.86-3.79-5.76-7.57-8.66-11.36v12.42c2.83.06,5.73.1,8.63.1s5.69,0,8.55-.1V90.3c-2.86,3.72-5.69,7.47-8.52,11.19Z"/><path class="cls-6" d="M114.79,61.08q4.24-5.47,8.52-10.92V13.27a77.1,77.1,0,0,0-17.18,0V49.93c2.9,3.71,5.76,7.43,8.66,11.15Z"/><path class="cls-1" d="M108.31,66.3,108,70.9h13.64l-.3-4.6Z"/><path class="cls-1" d="M107.46,78.57l-.31,4.61H122.5l-.38-4.61Z"/><polygon class="cls-1" points="121.24 64.8 120.62 56.17 115.44 62.82 114.79 63.6 109.03 56.17 108.41 64.8 121.24 64.8"/><polygon class="cls-1" points="122.02 77.04 121.71 72.43 107.9 72.43 107.56 77.04 122.02 77.04"/><polygon class="cls-1" points="114.79 98.93 122.84 88.39 122.6 84.68 107.05 84.68 106.78 88.39 114.79 98.93"/><path class="cls-1" d="M80,62.44a20.09,20.09,0,0,1-1-5c-.41-3.28-1.7-6.58-5.83-7.67V62.44Z"/><path class="cls-1" d="M149.54,62.44a18.86,18.86,0,0,0,1.06-5c.41-3.28,1.7-6.58,5.83-7.67V62.44Z"/><path class="cls-1" d="M90.47,35.26a12.74,12.74,0,0,0-1.26,2.32l-.13.48-.48,0a27,27,0,0,0-3.58.72A13.24,13.24,0,0,0,82.19,40a5.87,5.87,0,0,0-3,4.5,2.37,2.37,0,0,1-.62,1.33,1.77,1.77,0,0,1-1.29.44H73.12v1.84c5.55,1.27,6.92,5.22,7.43,9.21a15.72,15.72,0,0,0,1.16,5.15h3.44a4.33,4.33,0,0,1,1.44.21,2.69,2.69,0,0,1,1.16.92l17.56,22.95,2.25-32.26L91.7,33.9a17.36,17.36,0,0,0-1.23,1.36ZM81.06,46l.1-.78A3.09,3.09,0,0,1,82.43,43,4,4,0,0,1,85,42.15a4.19,4.19,0,0,1,2.59.85,3.45,3.45,0,0,1,1.26,2.22L89,46Z"/><path class="cls-1" d="M152.3,46.24A1.67,1.67,0,0,1,151,45.8a2.37,2.37,0,0,1-.62-1.33,6,6,0,0,0-3-4.5,15.61,15.61,0,0,0-2.83-1.16,26,26,0,0,0-3.58-.72l-.48,0-.2-.48a9,9,0,0,0-1.2-2.32,11.79,11.79,0,0,0-1.22-1.36L122.09,54.26l2.22,32.26,17.52-22.95a2.69,2.69,0,0,1,1.16-.92,4.19,4.19,0,0,1,1.37-.21h3.44A14.8,14.8,0,0,0,149,57.29c.44-4,1.87-7.94,7.4-9.21V46.24ZM140.61,46l.06-.78A3.55,3.55,0,0,1,142,43a4.17,4.17,0,0,1,2.59-.85,4.3,4.3,0,0,1,2.59.85,3.29,3.29,0,0,1,1.26,2.22l.11.78Z"/><path class="cls-2" d="M37.55,239.43V189.68c-6.79,1.67-13.17,3.55-18.93,5.56a155,155,0,0,0,18.93,44.19Z"/><path class="cls-2" d="M54.73,186.13v74.76c.31.27.65.64,1,.95a96.06,96.06,0,0,0,16.09,12.72V183.64c-3.34.41-6.68.85-9.92,1.33-2.45.34-4.88.75-7.2,1.16Z"/><path class="cls-2" d="M191.83,189.68v49.75a153.38,153.38,0,0,0,19-44.19c-5.83-2-12.17-3.89-19-5.56Z"/><path class="cls-2" d="M157.52,183.64v90.92a95.72,95.72,0,0,0,16.16-12.72,8.53,8.53,0,0,1,1-.95V186.13c-2.39-.41-4.81-.82-7.27-1.16-3.24-.48-6.51-.92-9.92-1.33Z"/><path class="cls-3" d="M191.83,189.68c-5.42-1.33-11.15-2.49-17.12-3.55v74.76a123.84,123.84,0,0,0,17.12-21.46V189.68Z"/><path class="cls-3" d="M54.73,186.13c-6,1.06-11.69,2.22-17.18,3.55v49.75a122.25,122.25,0,0,0,17.18,21.46V186.13Z"/><path class="cls-2" d="M140.37,200.76V182.07c-5.56-.37-11.26-.61-17.06-.75v19.44Z"/><path class="cls-2" d="M138.93,255.36c-1.77,1.7-4.39,2.66-8,2.66h-7.58v28.89a77,77,0,0,0,17.06-4V253.48a7.71,7.71,0,0,1-1.44,1.88Z"/><path class="cls-2" d="M106.13,200.76V181.32c-5.83.14-11.53.38-17.12.75v18.69Z"/><path class="cls-2" d="M98.52,258c-3.68,0-6.31-1-8.08-2.66A8.49,8.49,0,0,1,89,253.48v29.44a77.89,77.89,0,0,0,17.12,4V258Z"/><path class="cls-3" d="M140.37,182.07v18.69h1.36v46.69a12.22,12.22,0,0,1-1.36,6v29.44a86,86,0,0,0,17.15-8.36V183.64c-5.56-.65-11.29-1.16-17.15-1.57Z"/><path class="cls-3" d="M123.31,200.76V181.32c-2.86-.06-5.69-.1-8.55-.1s-5.8,0-8.63.1v19.44Z"/><path class="cls-3" d="M122,258a5.64,5.64,0,0,0-3.75,1.54,16.38,16.38,0,0,0-3,3.54l-.54.82-.62-.82a19.64,19.64,0,0,0-2.93-3.54,5.82,5.82,0,0,0-3.82-1.54h-1.26v28.89a72.59,72.59,0,0,0,17.18,0V258Z"/><path class="cls-3" d="M87.64,247.45V200.76H89V182.07c-5.87.41-11.6.92-17.16,1.57v90.92A86.65,86.65,0,0,0,89,282.92V253.48a12.32,12.32,0,0,1-1.37-6Z"/><path class="cls-1" d="M140.3,247.45c0,2.93-.68,5.32-2.32,6.89s-3.85,2.28-7.09,2.28H122a6.9,6.9,0,0,0-4.64,1.88,15.38,15.38,0,0,0-2.62,3,19.91,19.91,0,0,0-2.66-3,7,7,0,0,0-4.71-1.88H98.52c-3.27,0-5.59-.82-7.13-2.28s-2.31-4-2.31-6.89V202.13H140.3v45.32ZM92.62,205.57v39.9c0,2.73.34,4.6,1.5,5.87s3,1.84,6.14,1.84h8.29a5.55,5.55,0,0,1,3.21,1,9.49,9.49,0,0,1,2.48,2.7l.52.71.44-.71a9.38,9.38,0,0,1,2.49-2.7h0a5.48,5.48,0,0,1,3.24-1h8.25c3.07,0,4.95-.55,6.11-1.84s1.5-3.14,1.5-5.87v-39.9Z"/><path class="cls-2" d="M135.66,206.73H93.71v38.74c0,2.42.31,4.06,1.23,5.08s2.53,1.47,5.32,1.47h8.29a6.26,6.26,0,0,1,3.85,1.26,10.79,10.79,0,0,1,2.36,2.32,9.38,9.38,0,0,1,2.25-2.32h0a6.38,6.38,0,0,1,3.92-1.26h8.25c2.73,0,4.33-.48,5.32-1.47s1.16-2.66,1.16-5.08V206.73Z"/><path class="cls-1" d="M93.71,231.76v3.14h14.74V252h.1a6.75,6.75,0,0,1,2.66.54v-20.8Z"/><polygon class="cls-1" points="111.21 225.38 111.21 206.73 108.45 206.73 108.45 222.79 93.72 222.79 93.72 225.38 111.21 225.38"/><path class="cls-1" d="M116.56,226.55V206.73H112.3v19.82H93.71v4H112.3v22.61a.12.12,0,0,1,.1.07,10.79,10.79,0,0,1,2.36,2.32,10.89,10.89,0,0,1,1.8-2v-23h19.1v-4Z"/><path class="cls-1" d="M117.69,231.76v21.11a6.41,6.41,0,0,1,3.24-.85h.1V234.9h14.63v-3.14Z"/><polygon class="cls-1" points="121.03 222.79 121.03 206.73 117.69 206.73 117.69 225.38 135.66 225.38 135.66 222.79 121.03 222.79"/><path class="cls-6" d="M209.49,100.12a218.75,218.75,0,0,1-42.83,11,327.69,327.69,0,0,1-51.9,4,328.09,328.09,0,0,1-52-4,220.17,220.17,0,0,1-42.84-11A172.08,172.08,0,0,0,14.77,124a185.85,185.85,0,0,0-1.88,26.12c0,6,.31,11.8.85,17.56.52,5.43,1.3,10.68,2.25,15.89a232.59,232.59,0,0,1,44.17-10.8,363.53,363.53,0,0,1,54.6-4,362.4,362.4,0,0,1,54.46,4C186,175.32,201,179,213.38,183.57c1-5.21,1.77-10.46,2.29-15.89.54-5.76.81-11.59.81-17.56A181.5,181.5,0,0,0,214.64,124a175.06,175.06,0,0,0-5.15-23.88Z"/><path d="M164.48,159.23c-1.06-2.29-5.29-11.26-6.35-13.41H144.36v20.26c3.1.24,6.17.54,9.31.85V154c.1.2.2.4.3.64,1,2,5,10.68,6,13,4.6.65,9.21,1.29,13.78,2v-23.8c-3.11,0-6.18,0-9.31,0v13.41Z"/><path d="M85.12,133.65,74,133.34v-2.66c3.34.1,6.61.24,10,.34v-5.73l-10-.61v-2.46c3.58.24,7.12.48,10.71.69v-5.67c-7.23-.64-14.43-1.39-21.63-2.38v24.52h22v-5.73Z"/><path d="M149.74,135.83c1.4,0,7-.14,8.36-.14.34,1.2.65,2.46,1,3.69,4,0,8,0,11.9,0-1.5-4.16-7.57-20-9.1-23.87-2.63.31-5.26.61-7.92.85-2.25.28-4.5.48-6.71.69-1.64,3.85-7.95,18.79-9.52,22.44,3.58,0,7.23-.07,10.88-.07.34-1.16.75-2.39,1.12-3.55ZM154,121.34c0-.1.07-.21.07-.31.41,1.5,2.08,7.47,2.49,9-.82.07-1.67.1-2.56.1s-1.7.1-2.55.1c.44-1.5,2.11-7.43,2.55-8.86Z"/><path d="M201.38,146c-2.66,0-12.69,0-15-.1-1.6,4.36-8.08,20.53-9.72,24.31,3.75.72,7.47,1.43,11.18,2.22.38-1.3.72-2.63,1.13-4,1.43.28,7.13,1.43,8.56,1.74.34,1.6.71,3.24,1.06,4.85,4.06,1.12,8.11,2.35,12.17,3.64-1.57-5.86-7.81-27.62-9.34-32.7Zm-8.09,16.51c-.92-.14-1.77-.24-2.62-.41.37-1.71.85-3.45,1.29-5.16s.86-3.3,1.33-5c0-.14,0-.24,0-.41.48,1.87.89,3.75,1.33,5.62s.82,3.83,1.26,5.73c-.92-.13-1.77-.23-2.63-.4Z"/><path d="M41.61,128.74c1.67.17,3.44.27,5.18.41v10.19H57.57V114.07c-3.59-.61-7.2-1.29-10.78-2v9.21c-1.74-.27-3.51-.51-5.18-.75V111c-3.65-.78-7.23-1.7-10.85-2.66v30.93H41.61V128.74Z"/><path d="M136.85,139.45v-5.8c-3.48.07-6.92.1-10.4.17V118.2c-.41,0-.81.07-1.22.07-3.31,0-6.65.1-9.93.13v21Z"/><path d="M111.65,139.45v-5.63c-3.51,0-7,0-10.47-.07V118.17l-7.36-.31c-1.26-.1-2.53-.17-3.79-.24v21.83Z"/><path d="M193.29,138.12a11.53,11.53,0,0,0,1.78-1.16,9.79,9.79,0,0,0,3.54-8c0-2.46-.68-4.33-2.08-5.49a8.36,8.36,0,0,0-3.24-1.57,32.65,32.65,0,0,0-4.67-.85c-.51-.1-1.19-.14-2-.24-2.35-.21-3.51-.82-3.51-1.77a1.92,1.92,0,0,1,.61-1.44,3.28,3.28,0,0,1,1.67-.81,2.32,2.32,0,0,1,1.84.3,2.53,2.53,0,0,1,.69,1.78c1.77-.31,8.15-1.4,9.58-1.68v-.64c0-2.7-1-4.57-3-5.49a5.28,5.28,0,0,0-1.2-.45,18.24,18.24,0,0,0-7.5.34,24.22,24.22,0,0,0-9.68,4.06c-2.32,1.84-3.48,3.92-3.48,6.45a5.18,5.18,0,0,0,1.67,4.06,11.54,11.54,0,0,0,5.32,2.25c1,.27,2.39.47,4.09.78a15.39,15.39,0,0,1,3.41.75,1.27,1.27,0,0,1,.75.65,2.27,2.27,0,0,1,.31,1.23,2,2,0,0,1-.72,1.53,3.39,3.39,0,0,1-1.91.65,2.79,2.79,0,0,1-2.08-.58,2.56,2.56,0,0,1-.71-2v-.24c-3.45.24-6.89.44-10.34.58a.84.84,0,0,0-.07.37v.55a6.28,6.28,0,0,0,3.35,5.69c2.25,1.3,5.42,2,9.58,2a17.24,17.24,0,0,0,8-1.67Z"/><path d="M136.31,148.07c-2.59-1.77-6.21-2.62-11-2.62h0c-4.77,0-8.45.85-11,2.59a8.53,8.53,0,0,0-2.94,3.14,8.89,8.89,0,0,0-.95,4.19,8.68,8.68,0,0,0,.95,4.13,8.06,8.06,0,0,0,2.9,3.07c2.52,1.74,6.11,2.59,10.78,2.73h.3c4.88.1,8.5-.55,11.05-2.12a8,8,0,0,0,2.94-3.1,9,9,0,0,0,.95-4.3,9.6,9.6,0,0,0-.95-4.4,9.9,9.9,0,0,0-2.9-3.31Zm-7.44,11.16a4.62,4.62,0,0,1-3.64,1.05,5.17,5.17,0,0,1-3.65-1.09c-.72-.71-1.06-1.94-1.06-3.75a5.91,5.91,0,0,1,1.06-4,5.39,5.39,0,0,1,3.65-1h0a5.34,5.34,0,0,1,3.65,1c.71.65,1,1.91,1,3.69,0,2-.34,3.31-1.06,4.06Z"/><path d="M63.91,159.84c3.37-.31,6.79-.55,10.16-.82V153.6c-3.38.17-6.79.3-10.16.51v-2.49c3.65-.14,7.26-.24,10.91-.34v-5.46c-7.36,0-14.73,0-22.06,0v24.31c7.5-1.23,15-2.32,22.47-3.2v-5.49c-3.78.34-7.61.64-11.32,1.05v-2.69Z"/><path d="M101.46,155.17a9.83,9.83,0,0,0,4.36-1.68,3.49,3.49,0,0,0,1.47-2.83,3.88,3.88,0,0,0-2.66-3.78c-1.74-.72-4.88-1.13-9.28-1.13-.51,0-10.6.07-15.11.07v20.67c3.72-.38,7.4-.68,11.09-.89v-7.19a8.13,8.13,0,0,1,1.09-.1,2.61,2.61,0,0,1,1.4.27c2.08.92,2.59,4.16,3.2,6.68,3.75-.17,7.51-.27,11.29-.37-1.23-4.54-2.18-9.11-6.85-9.72Zm-6.28-1.78a4.9,4.9,0,0,1-1.36.41,7.91,7.91,0,0,1-1.67.18,2.9,2.9,0,0,1-.45,0,1.32,1.32,0,0,0-.31,0v-3.76h.52a2.26,2.26,0,0,1,.75-.07,6.13,6.13,0,0,1,1.16.07,3.93,3.93,0,0,1,1.56.34,1.39,1.39,0,0,1,.89,1.33,1.7,1.7,0,0,1-1.09,1.5Z"/><path d="M33.35,164.72l-5.73-18.86c-3.92,0-7.23,0-11.11.07,2.42,9.72,7.43,20.18,10.43,30.21,4.95-1.36,7.74-2,12.76-3.14l10.47-27.14-11.05.06-5.77,18.8Z"/></g></g></svg>