<svg xmlns="http://www.w3.org/2000/svg" viewBox="0 0 269.31 300"><defs><style>.cls-1{fill:#e32219;}.cls-2{fill:#fff;}.cls-3{fill:#ffed00;}</style></defs><title>VfB_Stuttgart</title><g id="Слой_2" data-name="Слой 2"><g id="Слой_1-2" data-name="Слой 1"><path class="cls-1" d="M134.71,300C95.77,270.42,68,241,48.23,212.43c-20-29-31.45-57.21-38.84-83.84C2.57,104,.93,76.19.28,50.13-.17,31.72.05,14.86.08,0H269.31c-.24,14.86.14,31.71-.18,50.12-.46,26.06-2.28,53.89-9.11,78.46-7.39,26.63-18.82,54.89-38.84,83.84-19.78,28.61-47.54,58-86.47,87.57Z"/><path class="cls-2" d="M5.68,5.62c1.14,71.24-15.22,178,129,287.62C279,183.68,262.59,76.87,263.74,5.64h0L5.68,5.62Z"/><path class="cls-1" d="M189.32,150.93l3.69-.44h0a3.51,3.51,0,0,0,1,2.16,2.7,2.7,0,0,0,3.86-.15,3.48,3.48,0,0,0,.8-2.42,3.21,3.21,0,0,0-.77-2.28A2.48,2.48,0,0,0,196,147a6.68,6.68,0,0,0-1.75.28h0l.42-3.11h0a3.34,3.34,0,0,0,2.37-.67,2.38,2.38,0,0,0,.81-1.89,2.06,2.06,0,0,0-2.19-2.2,2.29,2.29,0,0,0-1.66.68,3.14,3.14,0,0,0-.85,2h0l-3.51-.6h0a7.84,7.84,0,0,1,1.1-2.88,5,5,0,0,1,2.07-1.7,6.93,6.93,0,0,1,3-.61,5.89,5.89,0,0,1,4.51,1.79,4.67,4.67,0,0,1,1.4,3.31c0,1.74-1,3.14-2.87,4.18a4.65,4.65,0,0,1,2.74,1.64,4.78,4.78,0,0,1,1,3.08,6,6,0,0,1-1.91,4.47,6.6,6.6,0,0,1-4.76,1.84,6.51,6.51,0,0,1-4.48-1.55,6.1,6.1,0,0,1-2.07-4.07Zm-6.6-7.65a4.36,4.36,0,0,0-.85-2.86,2.51,2.51,0,0,0-2-1,2.2,2.2,0,0,0-1.76.83,4.25,4.25,0,0,0-.7,2.74,4.33,4.33,0,0,0,.76,2.83,2.39,2.39,0,0,0,1.9.9,2.35,2.35,0,0,0,1.85-.87,3.81,3.81,0,0,0,.76-2.55Zm-8.64,8.33,3.7-.4h0a2.69,2.69,0,0,0,.7,1.67,2.1,2.1,0,0,0,1.51.54,2.47,2.47,0,0,0,2-1.09q.83-1.08,1.05-4.5a4.54,4.54,0,0,1-3.59,1.66,5.35,5.35,0,0,1-4.05-1.81A6.59,6.59,0,0,1,173.7,143a6.69,6.69,0,0,1,1.8-4.88,6.1,6.1,0,0,1,4.58-1.85,6.16,6.16,0,0,1,5,2.34q1.94,2.34,1.94,7.7c0,3.63-.67,6.26-2,7.87a6.55,6.55,0,0,1-5.27,2.42,5.57,5.57,0,0,1-3.77-1.25,6,6,0,0,1-1.85-3.71ZM85,150.16a3.51,3.51,0,0,0,.81,2.46,2.65,2.65,0,0,0,2,.88,2.53,2.53,0,0,0,2-.85,3.48,3.48,0,0,0,.77-2.45,3.17,3.17,0,0,0-.79-2.25,2.59,2.59,0,0,0-2-.84,2.38,2.38,0,0,0-2.08,1,3.51,3.51,0,0,0-.69,2.09Zm.36-8.52a2.36,2.36,0,0,0,.64,1.77,2.32,2.32,0,0,0,1.72.64,2.34,2.34,0,0,0,1.73-.64,2.39,2.39,0,0,0,.65-1.79,2.22,2.22,0,0,0-2.34-2.36,2.4,2.4,0,0,0-1.76.65,2.36,2.36,0,0,0-.64,1.73Zm-.79,3.84a4.27,4.27,0,0,1-2.82-4.11,4.8,4.8,0,0,1,1.55-3.68,7.43,7.43,0,0,1,8.82,0,4.78,4.78,0,0,1,1.57,3.68,4.33,4.33,0,0,1-.72,2.46,4.59,4.59,0,0,1-2,1.65,5.29,5.29,0,0,1,2.51,1.94,5.09,5.09,0,0,1,.87,2.94,6,6,0,0,1-1.76,4.48,6.39,6.39,0,0,1-4.68,1.73,7,7,0,0,1-4.51-1.43,5.54,5.54,0,0,1-2.14-4.61,5.75,5.75,0,0,1,.8-3,5.2,5.2,0,0,1,2.53-2.08Zm-9,10.73H71.79V141.84h0a13.08,13.08,0,0,1-4.92,2.89h0v-3.46h0a11.19,11.19,0,0,0,3.24-1.85,7,7,0,0,0,2.4-3.18h3.1v20Z"/><path class="cls-1" d="M204.94,17.43c-10.47-4.37-21.53-4.13-29.61.54-7.14,4.12-12,11.69-12,22.58a19.9,19.9,0,0,1-1.63,6.75h0l-.06-.09h0c-3.53,5.84-9.42,11.68-16,11.18-1.18-5.89-5.06-13.92-8.8-19,4,.21,10.62,4.44,12,7.49,3.31-3.59,8-12.51,6.93-19.73a49.07,49.07,0,0,1-19.52-4.33c0,4.41-7.69,15.07-13,17.48,2.67,4,4.92,12.56,4.81,20.27-4,3.24-9.16,3.83-13.36,3.75-3.22-5-7.55-8.69-7.61-15-.06-6.51,6.36-15.87,13.28-21.94h0l-3.44-4.29h0a30.61,30.61,0,0,0-12.19,8.17h0l.72-1.16h0c-4-5.72-10.73-16-20.57-18.33-2.83,1-6.69,6.89-9.58,12.94-10.6,2.17-19,9.85-22.52,16.34C49.1,38,46.47,34.81,46.28,30.76c-.52-11,13.84-9.21,20.88-6h0l0-8h0c-10.46-4.36-21.52-4.12-29.6.54-7.14,4.12-12,11.69-12,22.58,0,7.43-4.59,13.4-14.21,16.55,4.19,1.84,9.95.43,17.65-1.86-3.75,5.27-8.28,8-17.67,10,5.87,2,15,1.23,23.23-1.46-2.14,4.64-9.21,8.65-22.49,10.2,11.6,3.86,17.19,2.61,29.14-.94C58,67.37,68.79,81,49.3,85.69c-4.73,1.14-10.52-1-16.36-3.42h0L27.4,89.06h0c7.62,4,20.71,7,26.93,6.93,19.08-.36,27-15.46,22.2-30.64C73.51,55.68,65,50,57.7,44.81c6.38-8.69,29.32-18.7,37.48,1.56-3.66,8.64-5.3,17.87-5,24.65.62,12.17,13.13,23.52,5.17,29.63-1.93,1.37-7,3.41-10.78,4.63C68,104.3,58,95.79,45.32,95.19c-9.5-.45-17,.38-21.92,7.52-6.9,10.13-.66,27.07,14.52,27.37a24.66,24.66,0,0,1,2.76-11.44c-4.67,0-15,.79-14.95-5.94,0-3.42,2.92-4.53,6.23-4.6,16.64-.38,31.24,21.45,50.88,22.76.13-9.72,14.52-21.13,25.67-13.36,5.38-7.9,4.49-14.78,1.08-20.36a31.81,31.81,0,0,0,8.48-21.44,19.17,19.17,0,0,0-.6-5.21c3.59-.53,8.14-1.69,10.57-3.43h0v70.22h0c3.26-.45,4.19-1,7.2-3.42h0V122.35h0c3.3-.42,6.94-.57,10.41-3.49h0v-54h0c6.17-.28,15.4-3.46,21.22-10l.1,0c-1.75,6.35-6.73,12.11-16.12,14.14,7,2.24,15.42-.52,21.9-5.16-1.69,4.64-8.54,12.34-21.15,13.89,11.59,3.86,16.3-.21,28.24-3.76,16.71-5,26.67,7.77,7.18,12.49-4.73,1.14-10.52-1-16.36-3.42h0l-5.54,6.79h0c7.62,4,20.71,7,26.93,6.93,18.46-.35,26.43-14.49,22.63-29.16,16.44,1.18,29.65,28.76,15.89,36-5.56,2.92-10.38,2-15.88.92-12.16-2.46-21.22-8-31.65-8.54-9.5-.45-17.06.36-21.92,7.5-6.9,10.12-.66,27.07,14.52,27.37a24.71,24.71,0,0,1,2.76-11.45c-4.67,0-15,.8-15-5.93,0-3.42,2.92-4.53,6.23-4.61,16.64-.37,31.24,21.45,50.88,22.77.13-9.72,14.52-21.13,25.67-13.37,5.52-8.09,4.44-15.12.81-20.77,6-7.89,9.76-16,8.71-22.79-.79-11.47-10.89-15-11-24.61-.07-6.51,6.36-15.88,13.27-21.94h0l-3.43-4.29h0a34.34,34.34,0,0,0-11.56,6.88c-4-5.74-10.72-15.86-20.49-18.2-2.82,1-6.69,6.89-9.57,12.94-10.6,2.17-19,9.66-22.49,16.15-4.26-3.56-9.84-11-4.45-16.14,4.15-4,13.55-2.38,18.82,0h0l.07-8Zm6.59,40.64c-4-6.31-11.2-10.66-16.75-14.08,3.69-5,13.57-11.14,22.28-10.93,12.51.3,22.54,15,10.59,23.88-2.75,2-7.28,2.13-16.12,1.13Z"/><path d="M134.71,286.46C84.2,248.1,54.36,210.09,36.45,173.26c46.5-1.44,77-14.74,98.26-30.94,25.39,17.56,59.09,31.93,98.25,30.92-17.9,36.84-47.75,74.85-98.25,113.22Z"/><path class="cls-3" d="M134.71,279.69c-45.77-34.76-71.52-67.85-88.46-100.87,34.39-2.84,65.26-12.36,88.46-29.39,23.2,17,54.06,26.55,88.45,29.38-16.93,33-42.69,66.12-88.45,100.88Z"/><path d="M117.32,240c1.55-.21,3.12-.4,4.73-.58-4.73-9.12,1.6-16.85,10-17-6.42,6.12-6.23,12.8-1.58,16.19,3.06-.25,3.74-.33,6.88-.49-5.48-8.21.56-15.37,8.89-16.31-4,4-6.09,11.45-1.15,16,2.83-.07,4.27-.1,7.06-.09-3.23-8.48,3.19-13.76,10.17-14-3.82,3.41-6.75,10.26-2.24,14.75,2.18.45,4.45.41,8.12,1.49,2.4,1.22,4.35,3.11,4.91,4.63-29.59-3.59-34-2.68-55.91,1-8.85,4.63-13,5.87-17.43,1.73-.76-1.09-.12-4,2.93-4.6,0-2,1.43-3.13,3-3.61,4.2-1.28,6.36,2.26,11.54.93ZM103.78,214.5c1.65-.24,3.34-.46,5-.67-5.58-9.15.65-18,9.69-18.21-6.34,7-5.61,13.37-.63,17.27,3.26-.28,6.59-.51,9.94-.69-6.65-7.84,1.13-16.85,10-17.94-4.3,4.61-7,12.35-1.76,17.61,3-.08,6-.11,9-.1-4.51-8.68,3.41-15.8,10.88-16.09-4.1,3.92-7.1,11.12-2.28,16.28,3.2.12,6.33.3,9.36.55-2.82-6.13,1.16-11.21,8.82-12.69-3.3,3.65-5.19,8.8-1.86,13.38,4.21.51,9.21,2.41,12.77,3.21a66.43,66.43,0,0,1,7.41,4.71c-32.92-5.06-68.75-3.91-86.56-.25-9.47,5.32-13.91,6.74-18.64,2-.82-1.25-.13-4.54,3.13-5.28-.06-4.1,3.45-4.31,6.9-4.31,2.8,2.6,5.56,2.09,8.7,1.23ZM92.55,190.35c2-.26,5.47-1.3,7.6-1.53-6.27-11.57,2.13-23.34,13.6-22.23-8.52,7.77-9.08,16.09-2.9,20.4,4.05-.32,6.85-.84,11-1-6.13-9.85,1.65-22.61,12.06-21.34-5.87,5.36-8.08,15.44-1.52,21.24,3.75-.08,7.5-.12,11.21-.1-4.28-10.76,3.7-21.83,15.09-18.43-5.88,1.67-10.4,12.94-4.42,18.63,4,.14,7.85.34,11.61.61-2.51-8.24,2.23-17,12.8-13.6-4.89,3.24-8.3,9.3-4.17,14.37,5.22.56,11.42,1.73,15.84,2.62,4.4,2,8.27,5.29,10,6.26-40.85-5.59-80.09-5-107.12.52-11.75,5.88-18.06,7.18-23.93,1.93-1-1.38-.15-5,3.89-5.83-.08-4.53,4.29-4.75,8.56-4.75,3.47,2.87,6.9,3.23,10.79,2.27Z"/></g></g></svg>