<svg xmlns="http://www.w3.org/2000/svg" xmlns:xlink="http://www.w3.org/1999/xlink" viewBox="0 0 240.35 299.97"><defs><style>.cls-1{fill:none;}.cls-2{fill:#ffe667;}.cls-3{fill:#005187;}.cls-4{fill:#fff;}.cls-5{clip-path:url(#clip-path);}.cls-6{clip-path:url(#clip-path-5);}.cls-7{fill:#e70005;}</style><clipPath id="clip-path"><path class="cls-1" d="M85.6,86.08A32,32,0,0,1,58.35,70a6.07,6.07,0,0,1-.66-3,5.91,5.91,0,0,1,3.37-5.39,141.69,141.69,0,0,1,116.46-.48h-.12a6.15,6.15,0,0,1,3.52,5.49,7.47,7.47,0,0,1-1,3.44,32.27,32.27,0,0,1-27.83,16c-1.46,0-4,0-4,0l-62.5,0"/></clipPath><clipPath id="clip-path-5"><path class="cls-1" d="M138.19,66.05l78.24,103.42-96.3,130.37L23.83,169.25,102,65.92a162.88,162.88,0,0,1,17.82-1.26c6.81,0,18.35,1.39,18.35,1.39"/></clipPath></defs><title>Villereal</title><g id="Слой_2" data-name="Слой 2"><g id="Layer_1" data-name="Layer 1"><path id="path3" class="cls-2" d="M120,.08A7.51,7.51,0,0,1,126.6,11h.46a7.51,7.51,0,1,1-4.13,13.73,15.37,15.37,0,0,0,30.31,3.67,8.26,8.26,0,0,1-4,.19,7.5,7.5,0,1,1,3.38-14.62l.25.06a7.35,7.35,0,0,1,0-3.49A7.5,7.5,0,1,1,165.91,17l.44.09A7.5,7.5,0,1,1,159.62,30l-.07.25a15.31,15.31,0,0,0,11.52,18.43c7.2,1.57,11.8-.49,14.22-2.91a7.5,7.5,0,1,1,6.11-13.13l1.93,1.78c2.63-4.6,3-5.36,4.35-7.4,2.27-3.46,5.75-2.48,9.44-.13l5.75,4-10.8,11.24a5.31,5.31,0,0,1,.38,2.21,6.61,6.61,0,0,1-6.61,6.62,6.3,6.3,0,0,1-2.93-.5,27.16,27.16,0,0,1-40.15-6.07L153,44A27.16,27.16,0,0,1,133.28,47,26.32,26.32,0,0,1,120,39.43,26.39,26.39,0,0,1,106.71,47a26.76,26.76,0,0,1-19.63-2.59l-.09.18A26.23,26.23,0,0,1,70.57,56a27.05,27.05,0,0,1-23.49-5.59,6.32,6.32,0,0,1-2.93.5,6.61,6.61,0,0,1-6.61-6.62,5.31,5.31,0,0,1,.38-2.21L27.13,30.84l5.74-4c3.69-2.35,7.17-3.33,9.44.13,1.34,2,1.72,2.8,4.35,7.4l1.93-1.78A7.5,7.5,0,1,1,54.7,45.75c2.42,2.42,7,4.48,14.23,2.91A15.31,15.31,0,0,0,80.44,30.23L80.36,30A7.34,7.34,0,0,1,77,31.73a7.5,7.5,0,1,1-3.37-14.62l.44-.09a7.51,7.51,0,1,1,13.07-6.51,7.61,7.61,0,0,1,0,3.49l.24-.06a7.5,7.5,0,1,1,3.38,14.62,8.25,8.25,0,0,1-4-.19,15.37,15.37,0,0,0,30.31-3.67A7.49,7.49,0,1,1,112.94,11h.45A7.51,7.51,0,0,1,120,.08Z"/><path class="cls-3" d="M175.51,56.77a27.43,27.43,0,0,1-6.1-.69A27.16,27.16,0,0,1,152.7,44.39l0,0,0-.05a27.21,27.21,0,0,1-19.45,2.77A26.35,26.35,0,0,1,120,39.54a26.42,26.42,0,0,1-13.27,7.52A27,27,0,0,1,87.11,44.5l0,.11A26.33,26.33,0,0,1,70.58,56.08,27.26,27.26,0,0,1,47.07,50.5a6.5,6.5,0,0,1-2.92.48,6.69,6.69,0,0,1-6.68-6.69,5.52,5.52,0,0,1,.36-2.2L27,30.83l5.82-4c2.86-1.82,7-3.79,9.55.15,1,1.58,1.5,2.4,2.88,4.83l1.42,2.49,1.86-1.72a7.6,7.6,0,0,1,10.68.94,7.59,7.59,0,0,1-.94,10.68,7.59,7.59,0,0,1-3.42,1.62c1.89,1.83,6.15,4.51,14,2.78a14.94,14.94,0,0,0,9.47-6.65,15.24,15.24,0,0,0,2-11.68l0-.13A7.76,7.76,0,0,1,77,31.81,7.58,7.58,0,1,1,73.62,17l.32-.07a7.61,7.61,0,0,1-1.49-3.06,7.58,7.58,0,1,1,14.78,0l.13,0a7.58,7.58,0,0,1,3.41,14.77,8.4,8.4,0,0,1-3.91-.16A15.29,15.29,0,0,0,117,24.84a7.52,7.52,0,0,1-4,1.22,7.59,7.59,0,1,1,0-15.17h.33a7.46,7.46,0,0,1-.77-3.32,7.5,7.5,0,1,1,15,0,7.46,7.46,0,0,1-.77,3.32h.34a7.59,7.59,0,1,1-4,14A15.4,15.4,0,0,0,138.3,40.05a15.23,15.23,0,0,0,14.83-11.57,8.41,8.41,0,0,1-3.91.16,7.58,7.58,0,0,1,3.41-14.78l.14,0a7.28,7.28,0,0,1,0-3.41,7.58,7.58,0,0,1,14.77,3.42A7.67,7.67,0,0,1,166.05,17l.32.07a7.58,7.58,0,0,1,2.32,13.81,7.59,7.59,0,0,1-9-.73l0,.13a15.29,15.29,0,0,0,2,11.68,14.91,14.91,0,0,0,9.47,6.65c7.91,1.73,12.17-.95,14-2.78a7.7,7.7,0,0,1-3.42-1.62,7.58,7.58,0,0,1,9.74-11.62l1.86,1.72,1.39-2.44c1.4-2.46,1.87-3.29,2.92-4.88,2.58-3.94,6.68-2,9.54-.15l5.82,4L202.16,42.09a5.71,5.71,0,0,1,.37,2.2A6.7,6.7,0,0,1,195.84,51a6.5,6.5,0,0,1-2.92-.48A27.19,27.19,0,0,1,175.51,56.77ZM152.86,44.35a27.07,27.07,0,0,0,40,6l0,0,0,0a6.39,6.39,0,0,0,2.9.49,6.55,6.55,0,0,0,6.54-6.54,5.29,5.29,0,0,0-.38-2.18l0,0,10.78-11.21-5.67-3.91c-4.46-2.84-7.43-2.81-9.34.1-1,1.59-1.51,2.42-2.91,4.87l-1.43,2.53-.05.08-.07-.06-1.93-1.78a7.43,7.43,0,0,0-9.55,11.38,7.63,7.63,0,0,0,3.5,1.62l.15,0-.11.11c-1.85,1.85-6.17,4.7-14.29,2.92A15.09,15.09,0,0,1,161.48,42a15.44,15.44,0,0,1-2-11.8l.11-.36.09.08a7.43,7.43,0,0,0,8.92.79,7.42,7.42,0,0,0-2.26-13.53l-.57-.12.08-.1a7.42,7.42,0,0,0-4-12,7.42,7.42,0,0,0-8.89,9l0,.12L152.6,14a7.43,7.43,0,0,0-3.35,14.48,8.23,8.23,0,0,0,4-.19l.13,0,0,.13a15.43,15.43,0,0,1-25.92,7.28,15.62,15.62,0,0,1-4.54-11v-.14l.12.08a7.41,7.41,0,1,0,4.09-13.59l-.59,0,.06-.12a7.35,7.35,0,1,0-13.07,0l.06.12-.59,0A7.43,7.43,0,1,0,117,24.64l.12-.08v.14a15.58,15.58,0,0,1-4.55,11A15.21,15.21,0,0,1,101.7,40.2a15.39,15.39,0,0,1-15-11.81l0-.13.12,0a8.37,8.37,0,0,0,4,.19A7.43,7.43,0,0,0,87.39,14L87,14.1l0-.12a7.43,7.43,0,1,0-12.91,3l.08.1-.57.12a7.42,7.42,0,0,0-5.56,8.9A7.43,7.43,0,0,0,77,31.66a7.52,7.52,0,0,0,3.32-1.73l.09-.08.11.36a15.44,15.44,0,0,1-2,11.8,15.09,15.09,0,0,1-9.57,6.72c-8.12,1.78-12.44-1.07-14.29-2.92l-.11-.11.15,0a7.66,7.66,0,0,0,3.5-1.62,7.43,7.43,0,0,0-9.55-11.38l-2,1.84,0-.08-1.46-2.57c-1.38-2.43-1.84-3.25-2.88-4.83-1.91-2.91-4.88-2.94-9.33-.1l-5.68,3.91L38,42.06l0,0a5.22,5.22,0,0,0-.37,2.18,6.54,6.54,0,0,0,6.53,6.54,6.3,6.3,0,0,0,2.9-.49l0,0,0,0a27.09,27.09,0,0,0,23.42,5.58,26.14,26.14,0,0,0,16.37-11.4l.13-.25.07,0a26.8,26.8,0,0,0,19.57,2.59,26.22,26.22,0,0,0,13.25-7.53l.06-.06,0,.06a26.18,26.18,0,0,0,13.25,7.53A27,27,0,0,0,153,44l.1.11Z"/><circle id="circle7" class="cls-4" cx="120.18" cy="169.43" r="120.1"/><path class="cls-3" d="M120.18,289.61A119.75,119.75,0,1,1,167,280.17,119.5,119.5,0,0,1,120.18,289.61Zm0-240.2a120,120,0,1,0,120,120A120.16,120.16,0,0,0,120.18,49.41Z"/><path id="path11" class="cls-3" d="M4.51,170.06A115.35,115.35,0,1,1,119.85,285.41,115.34,115.34,0,0,1,4.51,170.06"/><path id="path13" class="cls-4" d="M138.62,62.62l25.76,33.65,27.61.11v19.5H179.43l40.09,53.66L132.89,286.82l-25.8.07L20.39,169.32l40.77-53.65H47.23V96.12l28.51-.06,25.49-33.58a168.86,168.86,0,0,1,18.43-1.3c7,0,19,1.44,19,1.44"/><path id="path15" class="cls-2" d="M85.6,86.08A32,32,0,0,1,58.35,70a6.07,6.07,0,0,1-.66-3,5.91,5.91,0,0,1,3.37-5.39,141.69,141.69,0,0,1,116.46-.48h-.12a6.15,6.15,0,0,1,3.52,5.49,7.47,7.47,0,0,1-1,3.44,32.27,32.27,0,0,1-27.83,16c-1.46,0-4,0-4,0l-62.5,0"/><g id="g17"><g class="cls-5"><circle id="circle25" cx="119.15" cy="181.59" r="117.98"/></g><g class="cls-5"><path d="M119.15,299.71a118.11,118.11,0,1,1,83.53-34.59A117.36,117.36,0,0,1,119.15,299.71Zm0-235.95A117.83,117.83,0,1,0,237,181.59,118,118,0,0,0,119.15,63.76Z"/></g><g class="cls-5"><path id="path29" class="cls-2" d="M55.93,62.4c.88.8-5.42,7.5,1.39,12.77,9.91,7.67,10.05-11.12,63.15-11.12,36.39,0,50.7,12,50.7,12l-6.1,1.54-5.49.44,1.32-4-1.76-2.41-2.41,2.85-1.55.23-1.31-4.12-1.76,3.67-4.18,2,6.57,9.2c13.17-.71,28.16-13,28.16-18.76,0-10-33.28-19.21-62.88-19.21-28.07,0-64.72,14-63.85,14.82Z"/></g><g class="cls-5"><path d="M154.48,85.59l0,0-6.6-9.24,4.22-2,1.79-3.76,0,.1,1.3,4.09,1.49-.21,2.45-2.89,0,0L161,74.12,159.64,78l5.43-.43,6-1.52c-.52-.41-4.18-3.21-11.64-6s-20.18-6-39-6c-31.54,0-44.16,6.51-51.7,10.41-4.95,2.55-7.43,3.83-11.47.7-5-3.88-3-8.54-1.86-11,.39-.89.68-1.53.47-1.72h0a.11.11,0,0,1,0-.11c.26-.67,9.43-4.37,21.81-7.88,11.12-3.15,27.45-6.91,42.09-6.91a159.16,159.16,0,0,1,42.55,5.84A60.31,60.31,0,0,1,177,59.52c3.77,2.39,5.68,4.84,5.68,7.27,0,2.82-3.68,7.37-9.15,11.31-6.18,4.44-13.12,7.17-19.05,7.49ZM148,76.36l6.53,9.15c5.91-.33,12.82-3.05,19-7.48,5.45-3.93,9.12-8.44,9.12-11.24,0-4.66-7.4-9.52-20.31-13.33a159.06,159.06,0,0,0-42.53-5.84c-14.63,0-30.95,3.76-42.06,6.91C64.85,58.18,56.18,61.81,56,62.36h0c.26.24,0,.87-.44,1.82-1.09,2.49-3.13,7.11,1.83,11,1.93,1.49,3.52,2,5.32,1.77s3.54-1.18,6.06-2.49A76.08,76.08,0,0,1,85.51,67.8C95,65.28,106.8,64,120.47,64a135.94,135.94,0,0,1,23.28,1.88A90.06,90.06,0,0,1,159.48,70c8,3,11.68,6,11.71,6l.07.05-.08,0-6.1,1.54-5.56.45,0-.06,1.31-3.94-1.71-2.36-2.39,2.83h0l-1.58.22v0l-1.28-4-1.72,3.6h0Z"/></g></g><path d="M148.1,86.2l-61.8,0h-.7A32.12,32.12,0,0,1,58.28,70a6.22,6.22,0,0,1-.66-3A6,6,0,0,1,61,61.56a141.72,141.72,0,0,1,116.52-.48v.06A6.2,6.2,0,0,1,181,66.65a7.61,7.61,0,0,1-1,3.48,32.67,32.67,0,0,1-11.6,11.61,32.2,32.2,0,0,1-16.29,4.42C150.63,86.16,148.13,86.2,148.1,86.2ZM85.6,86l62.5,0s2.52,0,4,0a32.35,32.35,0,0,0,27.76-16,7.43,7.43,0,0,0,1-3.4,6.06,6.06,0,0,0-3.48-5.42l-.26-.13h.1a141.52,141.52,0,0,0-116.12.6A5.86,5.86,0,0,0,57.77,67,6,6,0,0,0,58.41,70,32,32,0,0,0,85.6,86Z"/><path id="path35" class="cls-2" d="M138.19,66.05l78.24,103.42-96.3,130.37L23.83,169.25,102,65.92a162.88,162.88,0,0,1,17.82-1.26c6.81,0,18.35,1.39,18.35,1.39"/><g id="g37"><g class="cls-6"><polygon id="polygon45" class="cls-7" points="65.67 122.8 65.67 216.57 44.01 189.57 44.01 150.31 65.67 122.8"/></g><g class="cls-6"><path class="cls-7" d="M65.82,217,43.87,189.63V150.26l0,0,21.92-27.84ZM44.16,189.52l21.36,26.63V123.23L44.16,150.36Z"/></g><g class="cls-6"><polygon id="polygon49" class="cls-7" points="86.51 95.56 86.51 247.95 108.19 275.65 108.18 66.86 86.51 95.56"/></g><g class="cls-6"><path class="cls-7" d="M108.33,276.08l-.26-.34L86.36,248V95.51l0,0,21.94-29ZM86.66,247.9,108,275.22V67.31L86.66,95.61Z"/></g><g class="cls-6"><polygon id="polygon53" class="cls-7" points="174.48 123.11 174.48 215.84 195.77 189.3 195.77 150.48 174.48 123.11"/></g><g class="cls-6"><path class="cls-7" d="M174.33,216.26V122.68l.26.34,21.33,27.41v38.92l0,0Zm.3-92.72v91.88l21-26.17V150.53Z"/></g><g class="cls-6"><polygon id="polygon57" class="cls-7" points="153.75 95.69 153.75 247.47 132.24 275.88 131.85 66.25 153.75 95.69"/></g><g class="cls-6"><path class="cls-7" d="M132.09,276.32v-.44L131.7,65.8l22.2,29.84V247.52l0,0ZM132,66.7l.38,208.74,21.22-28V95.74Z"/></g></g><path class="cls-3" d="M120.13,300l-.06-.08L23.73,169.25l0-.05L102,65.84h0a165.16,165.16,0,0,1,17.83-1.26c6.73,0,18.24,1.38,18.35,1.39h0l0,0,78.28,103.47,0,.05ZM23.93,169.25l96.2,130.46,96.2-130.24L138.15,66.12c-.69-.08-11.76-1.39-18.31-1.39A162.89,162.89,0,0,0,102.06,66Z"/><path id="path63" class="cls-7" d="M115.5,17.22a4.65,4.65,0,1,1,4.65,4.65,4.65,4.65,0,0,1-4.65-4.65"/><path id="path65" class="cls-7" d="M77.54,22a4.65,4.65,0,1,1,4.65,4.65A4.65,4.65,0,0,1,77.54,22"/><path id="path67" class="cls-7" d="M153.81,22a4.65,4.65,0,1,1,4.64,4.65A4.64,4.64,0,0,1,153.81,22"/><path id="path69" class="cls-7" d="M192.56,46a4.65,4.65,0,1,1,4.64,4.65A4.64,4.64,0,0,1,192.56,46"/><path id="path71" class="cls-7" d="M38,46a4.65,4.65,0,1,1,4.65,4.65A4.65,4.65,0,0,1,38,46"/><polyline id="polyline73" class="cls-7" points="119.82 51.69 108.85 55.92 119.84 60.92 130.86 56.03 119.82 51.69"/><polyline id="polyline75" class="cls-3" points="70.89 61.16 62.17 69.04 74.21 69.77 82.75 61.26 70.89 61.16"/><polyline id="polyline77" class="cls-3" points="168.51 61.16 177.23 69.04 165.19 69.77 156.65 61.26 168.51 61.16"/><path id="path79" d="M84.55,142.63a18.75,18.75,0,0,0-10.79-3.17c-15,0-25.87,13.06-25.87,30.94,0,16.86,11.1,30.17,25.16,30.17a21.87,21.87,0,0,0,11.5-3.17V180.16c-2.64,2.54-5.3,3.8-8.25,3.8-6.82,0-11.4-5.7-11.4-14.07,0-7.86,4.79-13.69,11.2-13.69,3,0,5.3,1,8.45,3.67V142.63"/><polyline id="polyline81" points="192.37 153.08 192.37 140.22 157.98 140.22 157.98 200.43 173.56 200.43 173.56 175.64 190.66 175.64 190.66 162.78 173.56 162.78 173.56 153.08 192.37 153.08"/><polyline id="polyline83" points="48.89 97.78 48.89 114.1 81.24 114.06 119.61 247.07 156.66 114.06 190.22 114.06 190.22 97.78 144.58 97.78 120.01 187.58 95.25 97.78 48.89 97.78"/><polygon id="polygon85" class="cls-2" points="78.97 72.84 82.27 78.03 82.04 82.5 85.57 82.27 95.24 68.19 78.97 72.84"/><path d="M82,82.58V82.5L82.2,78,78.86,72.8l.09,0,16.46-4.71-9.8,14.27h0Zm-2.88-9.69L82.35,78v0l-.23,4.4,3.43-.23,9.53-13.89Z"/></g></g></svg>