<svg xmlns="http://www.w3.org/2000/svg" viewBox="0 0 200 300"><defs><style>.cls-1{fill:#1d9053;}.cls-2{fill:#fff;}</style></defs><title>Werder </title><g id="Слой_2" data-name="Слой 2"><g id="Layer_1" data-name="Layer 1"><g id="Ebene_1"><g id="Ebene_1-2" data-name="Ebene 1"><polygon id="_44070144" data-name=" 44070144" class="cls-1" points="100 0 0 150 100 300 200 150 100 0"/><path id="_44070088" data-name=" 44070088" class="cls-2" d="M100,6.65,4.43,150,100,293.35,195.56,150ZM12.08,150,100,18.12,187.92,150,100,281.88Z"/><path id="_44070864" data-name=" 44070864" class="cls-2" d="M120.65,240.15s30-58.19,30-103.14S126.89,61.6,101.92,61.6c-18.73,0-25.23,14.23-25.23,22.47s8,15.23,15.24,15.23c8.74,0,11.93-5.78,11.93-5.78,11,6.53,30.52,16.52,29.52,56.48-.7,28-4.49,32.71-9.74,49.2-8-21-24-56.19-24-56.19L74.45,198.2s-10.4-23.73-11-57.19c-.07-4-.07-5.76,1.5-20.24,11.23,0,17.73-4.48,17.73-14.72,0-9.89-8.74-15-15-15s-22,6.25-22,36c0,51.7,33.21,112.38,33.21,112.38l20.73-41.2,21,42Z"/></g></g></g></g></svg>