<svg xmlns="http://www.w3.org/2000/svg" viewBox="0 0 268.26 298.38"><defs><style>.cls-1{fill:#2dafe5;}.cls-2{fill:#7c2c3b;}.cls-3{fill:#d6a93a;}.cls-4{fill:#f8d742;}.cls-5{fill:#cda938;}.cls-6{fill:#fff;}</style></defs><title>West_Ham_West </title><g id="Слой_2" data-name="Слой 2"><g id="Layer_1" data-name="Layer 1"><g id="g498"><g id="g504"><path id="path506" class="cls-1" d="M268.25,9.67h0A899.74,899.74,0,0,0,134.12,0,899.7,899.7,0,0,0,0,9.66V121.58c0,94.6,54.88,147.81,131.94,176.09l2.19.71h0l2.19-.71c77.06-28.28,131.91-81.49,131.93-176.09V9.67ZM134.13,144l0,0,.17.17Z"/></g><g id="g508"><path id="path510" class="cls-2" d="M259,18.94v0a837.71,837.71,0,0,0-124.86-9,837.91,837.91,0,0,0-124.86,9V125c0,88.07,51.09,137.6,122.82,163.93l2,.66h0l2-.66C207.92,262.58,259,213.05,259,125v-106Z"/></g><g id="g512"><path id="path514" class="cls-3" d="M195.76,241c2,2,5.14-.12,8.38-3.36s5.34-6.41,3.36-8.39L83.68,108.53c-2-2-5.51-1.65-7.89.73s-2.72,5.92-.74,7.9Z"/></g><g id="g516"><path id="path518" class="cls-4" d="M87.52,106.68,97.65,94.77s1-1.27-.53-3.08C93.21,86.93,85.38,80,85.38,80c-1.13-.85-1.9-.64-3.15.56-6.2,5.94-22,21.19-22.93,22.18a4,4,0,0,0-1.36,4.17c.38,2.12,1.51,5.65-.44,9.08L46.84,132.77c-1.34,2-1.72,3.86-.72,4.84.54.53,1.9,1.14,4.65-.77,1.32-.92,15.81-10.67,20.43-14.47,2.71-2.23,4.77-4.26,4.77-4.26l8.75-8.58s1.84-1.8,2.8-2.85"/></g><g id="g520"><path id="path522" class="cls-3" d="M50.84,135.76c-3,2.05-3,2.35-2.6,2.3a7.45,7.45,0,0,0,2.53-1.22c1.32-.92,15.81-10.67,20.43-14.48,1.91-1.56,3.5-3,4.27-3.76a18.14,18.14,0,0,0-7.27,3.2c-2.47,2.07-13,11-17.36,14"/></g><g id="g524"><path id="path526" class="cls-3" d="M87.52,106.68,97.65,94.77a2.14,2.14,0,0,0,.11-2s-.83-.94-3.75,2.46c-2.45,2.87-3.61,4-5.68,6.46a18.39,18.39,0,0,0-3.26,7.51c.58-.57,1.75-1.74,2.45-2.51"/></g><g id="g528"><path id="path530" class="cls-3" d="M72.78,241c-2,2-5.14-.12-8.39-3.36s-5.33-6.41-3.36-8.39L184.9,108.48c2-2,5.51-1.65,7.9.74s2.71,5.92.73,7.89Z"/></g><g id="g532"><path id="path534" class="cls-4" d="M71.57,239.79,187.14,121.11c2-2,1.65-5.52-.73-7.9a6.67,6.67,0,0,0-4.3-2L61,229.23c-1.88,1.89-.06,4.86,2.92,7.94,3,2.81,5.8,4.44,7.62,2.62"/></g><g id="g536"><path id="path538" class="cls-4" d="M181.06,106.64,170.93,94.73s-1-1.28.53-3.09C175.37,86.89,183.2,80,183.2,80c1.13-.85,1.9-.64,3.16.56,6.2,5.95,22,21.2,22.92,22.18a3.94,3.94,0,0,1,1.36,4.17c-.38,2.12-1.51,5.65.44,9.08l10.66,16.78c1.34,2.05,1.73,3.86.72,4.84-.54.53-1.89,1.14-4.65-.77-1.31-.91-15.81-10.67-20.43-14.47-2.71-2.23-4.77-4.25-4.77-4.25l-8.75-8.58s-1.84-1.81-2.8-2.85"/></g><g id="g540"><path id="path542" class="cls-3" d="M217.74,135.71c3,2.06,3,2.36,2.6,2.3a7.45,7.45,0,0,1-2.53-1.22c-1.31-.91-15.81-10.67-20.43-14.47-1.91-1.57-3.49-3-4.26-3.77a18.32,18.32,0,0,1,7.26,3.21c2.48,2.06,13,11,17.36,14"/></g><g id="g544"><path id="path546" class="cls-3" d="M181.06,106.64,170.93,94.73a2.16,2.16,0,0,1-.11-2s.83-.94,3.75,2.47c2.46,2.86,3.62,4,5.68,6.45a18.39,18.39,0,0,1,3.26,7.51c-.58-.57-1.75-1.74-2.45-2.5"/></g><g id="g548"><path id="path550" class="cls-3" d="M200.57,110.09a2.46,2.46,0,0,1-3.46,0l-5.19-5.19a2.44,2.44,0,1,1,3.46-3.45l5.19,5.18a2.46,2.46,0,0,1,0,3.46"/></g><g id="g552"><path id="path554" class="cls-5" d="M192.62,104.9a2.44,2.44,0,0,1,1.38-4.14,2.44,2.44,0,0,0-2.08,4.14l5.19,5.19a2.45,2.45,0,0,0,2.08.69,2.4,2.4,0,0,1-1.38-.69Z"/></g><g id="g556"><path id="path558" class="cls-3" d="M194.9,106.81a.27.27,0,0,1-.37,0,.28.28,0,0,1,0-.38l2.38-2.38a.26.26,0,0,1,.37.37Z"/></g><g id="g560"><path id="path562" class="cls-3" d="M195.69,107.6a.26.26,0,1,1,0-.37.27.27,0,0,1,0,.37"/></g><g id="g564"><path id="path566" class="cls-3" d="M194.05,106a.25.25,0,1,1-.36-.36.25.25,0,0,1,.36.36"/></g><g id="g568"><path id="path570" class="cls-3" d="M196,102.74l-.81-.81a.26.26,0,0,0-.38,0,.27.27,0,0,0,0,.37l.13.13a.14.14,0,0,1,0,.18l-2.11,2.1a.27.27,0,1,0,.38.38L195.3,103a.15.15,0,0,1,.17,0l.13.14a.27.27,0,0,0,.37,0,.26.26,0,0,0,0-.38"/></g><g id="g572"><path id="path574" class="cls-3" d="M200.33,107.13a.27.27,0,0,0-.37-.06l-1.38,1a.15.15,0,0,1-.22-.18l.28-.56a.26.26,0,0,0,0-.28h0a.26.26,0,0,0-.28,0l-.57.28a.14.14,0,0,1-.17,0,.14.14,0,0,1,0-.18l1-1.38a.26.26,0,0,0-.06-.37.27.27,0,0,0-.37,0l-2,2.73a.27.27,0,0,0,0,.34h0a.26.26,0,0,0,.29,0l1-.48a.16.16,0,0,1,.16,0,.14.14,0,0,1,0,.17l-.48,1a.27.27,0,0,0,0,.3h0a.26.26,0,0,0,.34,0l2.72-2a.27.27,0,0,0,.06-.37"/></g><g id="g576"><path id="path578" class="cls-4" d="M87.17,111.93a6.12,6.12,0,0,0-4.4,1.88c-2.22,2.21-2.52,5.5-.68,7.34l49.47,50.7,8.42-8.42Z"/></g><g id="g580"><path id="path582" class="cls-4" d="M207.5,229.23,145.08,168.4a9.19,9.19,0,0,0-2.7,1.86,9,9,0,0,0-.76,11.9l55.83,57.24c1.83,1.84,4.77-.11,7.79-3.12.51-.51,1-1,1.42-1.52,1.61-2.17,2.23-4.14.84-5.53"/></g><g id="g584"><path id="path586" class="cls-4" d="M194.79,106.69a.28.28,0,0,1-.38,0,.27.27,0,0,1,0-.37l2.38-2.38a.26.26,0,0,1,.38,0,.27.27,0,0,1,0,.37Z"/></g><g id="g588"><path id="path590" class="cls-4" d="M195.57,107.48a.25.25,0,0,1-.36,0,.26.26,0,0,1,0-.37.25.25,0,0,1,.36,0,.25.25,0,0,1,0,.37"/></g><g id="g592"><path id="path594" class="cls-4" d="M193.94,105.85a.26.26,0,1,1,0-.37.27.27,0,0,1,0,.37"/></g><g id="g596"><path id="path598" class="cls-4" d="M195.86,102.63l-.82-.82a.27.27,0,0,0-.37,0,.26.26,0,0,0,0,.38l.13.13a.12.12,0,0,1,0,.17l-2.1,2.11a.26.26,0,0,0,.37.37l2.11-2.11a.13.13,0,0,1,.17,0l.13.13a.27.27,0,0,0,.38,0,.27.27,0,0,0,0-.37"/></g><g id="g600"><path id="path602" class="cls-4" d="M200.21,107a.26.26,0,0,0-.37-.06l-1.38,1a.14.14,0,0,1-.19,0,.14.14,0,0,1,0-.16l.28-.57a.26.26,0,0,0,0-.28h0l0,0h0a.26.26,0,0,0-.28,0l-.56.28a.14.14,0,0,1-.17,0,.15.15,0,0,1,0-.19l1-1.38a.28.28,0,0,0-.06-.37.27.27,0,0,0-.37.06L196,108a.26.26,0,0,0,0,.33h0a.27.27,0,0,0,.3,0l1-.48a.12.12,0,0,1,.16,0,.13.13,0,0,1,0,.17l-.47,1a.26.26,0,0,0,0,.29h0a.26.26,0,0,0,.34,0l2.72-2a.26.26,0,0,0,.06-.37"/></g><g id="g604"><path id="path606" class="cls-3" d="M76.66,101.49a2.46,2.46,0,0,1,0,3.46l-5.19,5.19A2.45,2.45,0,0,1,68,106.68l5.19-5.19a2.46,2.46,0,0,1,3.46,0"/></g><g id="g608"><path id="path610" class="cls-5" d="M68.45,107.12l5.19-5.19a2.43,2.43,0,0,1,3.22-.2l-.2-.24a2.46,2.46,0,0,0-3.46,0L68,106.68a2.45,2.45,0,0,0,0,3.46l.23.2a2.43,2.43,0,0,1,.2-3.22"/></g><g id="g612"><path id="path614" class="cls-3" d="M73.26,107.53a.27.27,0,0,1-.38.38l-2.37-2.38a.26.26,0,0,1,0-.38.27.27,0,0,1,.37,0Z"/></g><g id="g616"><path id="path618" class="cls-3" d="M74.05,106.75a.26.26,0,1,1-.37,0,.26.26,0,0,1,.37,0"/></g><g id="g620"><path id="path622" class="cls-3" d="M72.42,108.38a.26.26,0,1,1-.37,0,.27.27,0,0,1,.37,0"/></g><g id="g624"><path id="path626" class="cls-3" d="M69.2,106.46l-.82.82a.27.27,0,0,0,0,.37.26.26,0,0,0,.38,0l.13-.13a.12.12,0,0,1,.17,0l2.11,2.1a.26.26,0,0,0,.37-.37l-2.11-2.11a.14.14,0,0,1,0-.17l.13-.13a.28.28,0,0,0,0-.38.27.27,0,0,0-.37,0"/></g><g id="g628"><path id="path630" class="cls-3" d="M73.59,102.11a.26.26,0,0,0-.06.37l1,1.38a.15.15,0,0,1,0,.19.15.15,0,0,1-.17,0l-.57-.28a.26.26,0,0,0-.28,0h0v0h0a.26.26,0,0,0,0,.28l.28.56a.17.17,0,0,1,0,.17.15.15,0,0,1-.19,0l-1.38-1a.27.27,0,0,0-.37,0,.26.26,0,0,0,.06.37l2.72,2a.27.27,0,0,0,.34,0h0a.27.27,0,0,0,0-.3l-.48-1a.13.13,0,0,1,0-.16.15.15,0,0,1,.17,0l1,.47a.26.26,0,0,0,.29,0h0a.27.27,0,0,0,0-.34l-2-2.72a.25.25,0,0,0-.36-.06"/></g><g id="g632"><path id="path634" class="cls-4" d="M73.26,107.27a.28.28,0,0,1,0,.38.27.27,0,0,1-.38,0l-2.37-2.37a.26.26,0,0,1,0-.38.27.27,0,0,1,.37,0Z"/></g><g id="g636"><path id="path638" class="cls-4" d="M74.05,106.49a.25.25,0,0,1,0,.36.26.26,0,0,1-.37,0,.25.25,0,0,1,0-.36.26.26,0,0,1,.37,0"/></g><g id="g640"><path id="path642" class="cls-4" d="M72.42,108.12a.26.26,0,1,1-.37,0,.27.27,0,0,1,.37,0"/></g><g id="g644"><path id="path646" class="cls-4" d="M69.2,106.2l-.82.82a.27.27,0,0,0,0,.37.28.28,0,0,0,.38,0l.13-.13a.12.12,0,0,1,.17,0l2.11,2.1a.26.26,0,0,0,.37-.37l-2.11-2.12a.12.12,0,0,1,0-.16l.13-.13a.28.28,0,0,0,0-.38.27.27,0,0,0-.37,0"/></g><g id="g648"><path id="path650" class="cls-4" d="M73.59,101.85a.26.26,0,0,0-.06.37l1,1.38a.15.15,0,0,1,0,.19.15.15,0,0,1-.17,0l-.57-.28a.26.26,0,0,0-.28,0h0a.26.26,0,0,0,0,.28l.28.56a.17.17,0,0,1,0,.17.15.15,0,0,1-.19,0l-1.38-1a.27.27,0,0,0-.37.06.26.26,0,0,0,.06.37l2.72,2a.27.27,0,0,0,.34,0h0a.27.27,0,0,0,0-.3l-.48-1a.12.12,0,0,1,0-.16.13.13,0,0,1,.17,0l1,.47a.26.26,0,0,0,.29,0h0a.27.27,0,0,0,0-.34l-2-2.73a.26.26,0,0,0-.36-.05"/></g><g id="g652"><path id="path654" class="cls-6" d="M85.44,71.79c-4.68.44-9.13-2.69-9.26-7.61q-.21-6.8-.43-13.59l5.32-.39q.2,6.78.38,13.58C81.52,66,83,67.13,85.29,67l.78,0c2.26-.14,3.7-1.43,3.65-3.69l-.33-13.59,5.32-.29q.15,6.8.29,13.59c.08,4.94-4,8.57-8.78,8.79l-.78.05"/></g><g id="g656"><path id="path658" class="cls-6" d="M98.78,49.2c2.47-.12,3.7-.17,6.18-.27q4.16,6.7,8.27,13.44h.06q-.08-6.85-.14-13.71c2.13-.06,3.2-.09,5.33-.13l.18,21.5-6.08.15q-4.1-6.72-8.27-13.4h-.06q.1,6.84.2,13.68l-5.26.23Q99,60,98.78,49.2"/></g><g id="g660"><path id="path662" class="cls-6" d="M122.4,48.47c2.13,0,3.2,0,5.33-.07q0,10.76.07,21.5c-2.1,0-3.16,0-5.27.07q-.06-10.76-.13-21.5"/></g><g id="g664"><path id="path666" class="cls-6" d="M138.45,52.9c-2.74,0-4.11,0-6.86,0V48.38q9.54,0,19.07.17c0,1.81,0,2.71,0,4.51-2.74-.06-4.11-.08-6.85-.12l-.09,17-5.27,0q0-8.51,0-17"/></g><g id="g668"><path id="path670" class="cls-6" d="M154.52,48.63q7.22.23,14.43.53c0,1.81,0,2.71-.09,4.51-3.63-.17-5.44-.24-9.08-.36l-.05,3.9c3,.11,4.44.16,7.39.29,0,1.81-.05,2.71-.08,4.51-2.95-.13-4.42-.18-7.37-.28,0,1.62,0,2.43-.06,4.05,3.78.13,5.67.21,9.44.39,0,1.8-.05,2.71-.08,4.51q-7.35-.33-14.69-.55l.24-21.5"/></g><g id="g672"><path id="path674" class="cls-6" d="M173,49.32c3.41.17,5.11.27,8.51.48a11.2,11.2,0,0,1,10.88,11.49A10.32,10.32,0,0,1,181,71.3c-3.37-.22-5.05-.31-8.42-.48l.45-21.5m7.87,17.45c3.65.23,5.94-1.77,6-5.89s-2.15-6.36-5.73-6.58l-3-.18-.3,12.48,3,.17"/></g><g id="g676"><path id="path678" class="cls-6" d="M31.18,24.17c2.77-.35,4.16-.52,6.93-.85Q40,32.49,41.84,41.64h.08Q44.05,32,46.19,22.42c2.39-.26,3.58-.38,6-.62Q54.25,31,56.32,40.14h.08q2-9.56,4-19.11c2.73-.24,4.1-.36,6.83-.58Q63.85,34.24,60.44,48c-3.21.28-4.81.44-8,.75l-3.27-15.5h-.07L45.81,49.48c-3.23.34-4.85.53-8.08.91q-3.27-13.11-6.55-26.22"/></g><g id="g680"><path id="path682" class="cls-6" d="M205.2,20.83c3,.25,4.46.39,7.44.67l5.89,17.4h.07q2.94-8.1,5.89-16.19c2.94.33,4.4.5,7.34.85l4.86,27.62c-2.73-.35-4.09-.51-6.82-.84l-2.4-18h-.07l-5.79,17.12c-2.39-.26-3.59-.38-6-.62l-5.91-18.32h-.08q-1,8.79-2.09,17.57c-2.78-.25-4.17-.36-7-.59q2.29-13.32,4.6-26.63"/></g><g id="g684"><path id="path686" class="cls-6" d="M69.91,20.29Q79,19.6,88.16,19.08c-.13,2.28-.2,3.42-.33,5.69q-5.65.33-11.31.7v4.92c3.69-.26,5.54-.38,9.23-.59v5.67c-3.69.21-5.54.33-9.23.58v5.1q5.92-.4,11.84-.73v5.67q-9.23.52-18.45,1.22v-27"/></g><g id="g688"><path id="path690" class="cls-6" d="M119.26,23.69c-3.41.06-5.12.1-8.54.19V18.21q11.86-.3,23.71-.3v5.67c-3.41,0-5.12,0-8.54,0V45c-2.65,0-4,0-6.63.09V23.69"/></g><g id="g692"><path id="path694" class="cls-6" d="M145.44,18c2.65,0,4,.05,6.62.1V28.88c3.83.09,7.66.19,11.49.32V18.39c2.65.09,4,.15,6.62.26v27c-2.65-.12-4-.17-6.62-.26V34.83c-3.83-.13-7.66-.23-11.49-.32V45.09c-2.65-.05-4-.08-6.62-.11V18"/></g><g id="g696"><path id="path698" class="cls-6" d="M190,41.08c-3.63-.24-5.45-.36-9.09-.56l-1.62,5.58c-2.73-.15-4.09-.22-6.81-.34q4.09-13.3,8.2-26.6c3.58.2,5.36.31,8.93.55q4.44,13.83,8.85,27.66l-6.8-.5c-.66-2.32-1-3.47-1.66-5.79M185.43,25.6q-1.49,4.86-3,9.72c2.4.14,3.6.21,6,.37L185.5,25.6h-.07"/></g><g id="g700"><path id="path702" class="cls-6" d="M100.68,18.06c-4.93.18-10.52,3.21-10.56,8.76-.06,8.47,12.66,6.19,13.44,10.82.22,1.28-1.22,2.36-3,2.35a18.28,18.28,0,0,1-8.86-2.09c-.13,2.33-.24,3.56-.33,5.68,2.86,1.92,5.83,2.34,9,2.42,4.75.12,10.47-3.18,10.52-8.74.07-8.4-12.53-6.5-13.44-10.87-.24-1.11,1.13-2.22,3.17-2.33a15.28,15.28,0,0,1,7.06,1.29c.14-2.68.18-3.07.33-5.68a13.45,13.45,0,0,0-7.31-1.61"/></g></g><path id="path706" class="cls-6" d="M95,241.27l3.22,1.41L93.7,253.07l5.37,2.34-1.21,2.76-8.59-3.75Z"/><g id="g710"><g id="g716"><path id="path718" class="cls-6" d="M110.91,246.94A7.26,7.26,0,0,1,116.2,256a7.5,7.5,0,1,1-5.29-9.05m-3.08,11.21A4.06,4.06,0,0,0,112.7,255a3.88,3.88,0,1,0-7.47-2.05,4.05,4.05,0,0,0,2.6,5.17"/></g><g id="g720"><path id="path722" class="cls-6" d="M119.57,249.31l3.53.36,3.27,7.07a24.37,24.37,0,0,1,.95,2.56h0s0-1.55.09-2.45l.68-6.67,3.5.36-1.46,14.27-3.51-.35-3.3-7.06a26.31,26.31,0,0,1-1-2.55h0s0,1.56-.09,2.45l-.67,6.65-3.5-.35Z"/></g><g id="g724"><path id="path726" class="cls-6" d="M134.1,250.58l5.09-.28c4.51-.24,7.54,2.23,7.78,6.74s-2.5,7.35-7,7.59l-5.09.28Zm5.56,11c2.43-.13,3.83-1.65,3.68-4.4s-1.76-4-4.13-3.91l-1.44.07.45,8.32Z"/></g><g id="g728"><path id="path730" class="cls-6" d="M154.47,248a7.26,7.26,0,0,1,8.9,5.55,7.51,7.51,0,1,1-8.9-5.55m2.5,11.35a4.05,4.05,0,0,0,2.86-5,3.88,3.88,0,1,0-7.57,1.66,4,4,0,0,0,4.71,3.36"/></g><g id="g732"><path id="path734" class="cls-6" d="M163.22,246.12l3.3-1.33,6.19,4.73a25.27,25.27,0,0,1,2,1.82l0,0s-.73-1.37-1.06-2.21l-2.51-6.21,3.25-1.32,5.37,13.31-3.27,1.32-6.21-4.7c-.87-.67-2-1.82-2-1.82h0s.73,1.37,1.07,2.21l2.5,6.2-3.26,1.31Z"/></g></g></g></g></svg>