<svg xmlns="http://www.w3.org/2000/svg" viewBox="0 0 300 300"><defs><style>.cls-1{fill:#fff;}.cls-2{fill:#339e3f;}</style></defs><title>Wolfsburg</title><g id="Слой_2" data-name="Слой 2"><g id="Слой_1-2" data-name="Слой 1"><circle class="cls-1" cx="150" cy="150" r="150" transform="translate(-62.13 150) rotate(-45)"/><path class="cls-2" d="M5.62,150C5.62,70.39,70.39,5.62,150,5.62S294.38,70.39,294.38,150,229.61,294.38,150,294.38,5.62,229.61,5.62,150ZM0,150c0,82.71,67.29,150,150,150s150-67.29,150-150S232.71,0,150,0,0,67.29,0,150"/><path class="cls-2" d="M55.35,150A94.65,94.65,0,1,1,150,244.66,94.76,94.76,0,0,1,55.35,150Zm-2.81,0A97.46,97.46,0,1,0,150,52.54,97.57,97.57,0,0,0,52.54,150"/><path class="cls-2" d="M47.38,237.81l-3.1-4.17,8.47-9.77c2.75-3.17,5.52-5.77,5.52-5.77L58.2,218s-4,2.08-7,3.51L39.35,227l-3.16-4.26,18.1-21.54,2.89,3.88-8.55,9.73c-3,3.39-6.14,6.38-6.14,6.38l.07.1s4.57-2.42,7.65-3.82L62.32,212l3,4.08-9.17,10.34c-2.19,2.46-5.36,5.65-5.36,5.65l.07.1s5.15-2.7,8-4l11.47-5.28,2.81,3.79Z"/><path class="cls-2" d="M69,258c5.65,4.26,12.23,2.33,17.35-4.46,4.78-6.34,5.49-13.44-.63-18.06-5.44-4.09-12.11-2.82-17.51,4.35C63.38,246.3,62.83,253.37,69,258Zm2-2.8c-3.71-2.8-2.78-7,1.44-12.56,3.93-5.22,7.54-7.13,11.18-4.38,3.9,2.93,2.49,7.09-1.52,12.4-4.4,5.84-7.86,7-11.1,4.54"/><polygon class="cls-2" points="103.55 276.6 90.79 271.03 101.69 246.08 105.91 247.93 96.5 269.45 105.73 273.48 103.55 276.6"/><polygon class="cls-2" points="134.6 260.3 125.48 258.35 123.94 265.58 131.36 267.17 130.6 270.75 123.17 269.16 120.57 281.36 116.14 280.41 121.83 253.79 135.91 256.8 134.6 260.3"/><path class="cls-2" d="M149.26,285.09a17.45,17.45,0,0,1-8.94-2.4l1.72-3.47a13.85,13.85,0,0,0,7.36,2.21c3.35,0,5.35-1.63,5.34-4.34,0-2-1.28-3.27-4.07-4l-2.92-.81c-2.48-.7-4.25-1.72-5.28-3.25a6.92,6.92,0,0,1-1.16-4c0-4.8,3.75-8.08,9.22-8.1a15.15,15.15,0,0,1,8.62,2.56l-2,3.2a11.68,11.68,0,0,0-6.42-2.06c-2.68,0-4.44,1.47-4.43,3.71,0,1.7.95,2.56,3.63,3.33l3.23.93c3.94,1.13,6.7,3.64,6.72,7.73C159.86,280.84,156.22,285.07,149.26,285.09Z"/><path class="cls-2" d="M185.52,271.48c.59,2.37-.39,4.64-3.75,5.48l-4,1-2.08-8.37,3.86-1a8.15,8.15,0,0,1,2.5-.37A4,4,0,0,1,185.52,271.48Zm4.95-.78c-.65-2.64-2.62-5.31-7.27-5.29a5.91,5.91,0,0,0,3.11-6.89,6,6,0,0,0-4.27-4.45c-1.9-.62-3.34-.55-7.27.43l-7,1.74,6.57,26.41,7.68-1.91c6.68-1.66,9.74-4.81,8.44-10m-8.61-10.34a4,4,0,0,1-.38,2.89c-.62,1.08-1.39,1.4-3,1.8l-3.75.93L173,258.76l3.4-.84a7.51,7.51,0,0,1,2.55-.32,3.54,3.54,0,0,1,3,2.76"/><path class="cls-2" d="M214.74,268.55c-6.28,3.44-10,1.27-12.12-2.56l-9.43-17.22,4-2.19,8.78,16c2,3.65,4,4.14,6.91,2.54s3.38-4.05,1.65-7.23l-8.79-16,4-2.18,9.41,17.19C221.53,261.29,220,265.68,214.74,268.55Z"/><path class="cls-2" d="M249.67,241l-7.39-2c-2.59-.69-5.72-1.38-6.78-1.08,3.09-2.9,2.48-7.24-.19-10.08-2.9-3.1-7.34-3.79-11.78.38l-6.05,5.68,18.63,19.85,3.24-3-8-8.58a2.33,2.33,0,0,1,1.86-.61,29.93,29.93,0,0,1,8,1.73l4.61,1.45ZM225,231.83c2.92-2.74,5-2.74,6.87-.73a4.59,4.59,0,0,1,1.37,3.25c0,1.16-.74,2.25-2.46,3.87l-1.69,1.59-5.9-6.28,1.81-1.7"/><path class="cls-2" d="M264.36,221.65c-2.06,3.22-4.68,5-8,5.41s-6.37-.48-10-2.79c-4.71-3-7.11-6.56-7.38-10.8a10.5,10.5,0,0,1,1.84-6.81,12.05,12.05,0,0,1,6.79-5.28l1.15,3.45a8.93,8.93,0,0,0-4.85,3.72c-2.72,4.24,0,8.17,5.36,11.6,3.22,2.06,5.85,2.91,7.84,2.64a6.77,6.77,0,0,0,4.5-3.23,7.47,7.47,0,0,0,1.23-3.52l-6-3.82-2.5,3.91-3.45-1.46,5.32-8.32,10.8,6.92A16.6,16.6,0,0,1,264.36,221.65Z"/><path class="cls-2" d="M134,44.2l-4.15.7L116.21,19.46l4.89-.82L128.51,33a42,42,0,0,1,2.31,5.16h.08a51.39,51.39,0,0,1,.68-5.9L134,16.46l4.65-.78Z"/><path class="cls-2" d="M159.64,18.07a5.21,5.21,0,0,0-2.38-.76c-1.5,0-2.47,1-2.51,2.73l-.07,3,5.19.12-1.18,3-4.05-.1L154.23,43l-4.28-.1L150.36,26l-1.85,0,.07-3,1.93,0s-.09-1.11,0-2.95c.1-4.13,2.67-6,6.21-5.91a8.72,8.72,0,0,1,4.45,1.24Z"/><polygon class="cls-2" points="179.12 46.59 165.46 43.84 170.82 17.15 175.34 18.06 170.71 41.09 180.58 43.07 179.12 46.59"/><path class="cls-2" d="M154.35,107.62v8.43h4.3v-8.43H167v64.54s.26,5.71,7.82,5.71c0,0,7.72.7,7.72-5.71V100.59h8.34V109h4.22v-8.43h8.43V109h4.3v-8.43h8.34v75.78s1.51,34-35.63,33.81c0,0-22.74.7-29.68-16.6-7,17.57-28.8,16.51-28.8,16.51-38.78.32-37.85-33.72-37.85-33.72V100.59h8.34V109h4.31v-8.43h8.43V109h4.21v-8.43h8.34v71.57c0,6.41,7.73,5.71,7.73,5.71,7.55,0,7.82-5.71,7.82-5.71V107.62h8.34v8.43H146v-8.43Z"/></g></g></svg>