<svg xmlns="http://www.w3.org/2000/svg" viewBox="0 0 299.9 299.9"><defs><style>.cls-1{fill:#fff;}.cls-2{fill:#195aa1;}</style></defs><title>Zurich</title><g id="Слой_2" data-name="Слой 2"><g id="Layer_1" data-name="Layer 1"><circle class="cls-1" cx="149.95" cy="149.95" r="148.02" transform="translate(-62.11 149.95) rotate(-45)"/><path class="cls-2" d="M0,150c0,82.68,67.27,150,150,150s150-67.27,150-149.95S232.63,0,150,0,0,67.27,0,150Zm3.85,0C3.85,69.39,69.39,3.85,150,3.85S296.05,69.39,296.05,150,230.51,296.05,150,296.05,3.85,230.51,3.85,150Z"/><polygon class="cls-2" points="178.92 295.56 150.51 297.93 120.98 295.32 120.98 149.83 178.92 149.83 178.92 295.56"/><polygon class="cls-2" points="60.02 267.39 32.75 240.9 11.56 205.74 2.09 164.56 2.09 149.83 60.02 149.83 60.02 267.39"/><polygon class="cls-2" points="297.77 164.32 287.06 208.15 264.42 244.51 239.83 267.15 239.83 149.83 297.77 149.83 297.77 164.32"/><line class="cls-1" x1="297.97" y1="149.99" x2="1.81" y2="149.99"/><rect class="cls-2" x="1.81" y="148.06" width="296.17" height="3.85"/><path class="cls-2" d="M59.88,65.5h51.79V79.83H76.83v16h34.84v13.61H76.83v27.69H59.88Z"/><path class="cls-2" d="M178.57,73.39V90.55a28.87,28.87,0,0,0-10.1-8.94,26,26,0,0,0-12.35-3.23q-9,0-14.2,6.29t-5.17,16.7q0,11.26,5.23,17.5t14.73,6.23q12.71,0,21.86-12.22v15.54a42.24,42.24,0,0,1-11.78,7.66,34.33,34.33,0,0,1-13.56,2.63q-15.58,0-24.51-10.3t-8.92-28.32q0-17.48,8.86-26.76t25.4-9.28A35.4,35.4,0,0,1,178.57,73.39Z"/><path class="cls-2" d="M187.06,65.5h52.49v17l-32.79,41.06h32.79v13.6h-53.2v-14.3l34.89-43H187.06Z"/></g></g></svg>